<?xml version="1.0"  encoding="UTF-8" standalone="no"?>
<svg version="1.1" xmlns="http://www.w3.org/2000/svg" xmlns:xlink="http://www.w3.org/1999/xlink" width="3192.0000" height="1566.0000">
<g transform="translate(-0.0000, 12.0000)">
<text font-family="Arial" fill="#000000" style ="white-space:pre;" font-weight="400" text-anchor="start" x="0.0000" y="-6356.0000" font-size="183.0000" ><![CDATA[ ]]></text>
<text font-family="Arial" fill="#000000" style ="white-space:pre;" font-weight="400" text-anchor="start" x="0.0000" y="-6145.0000" font-size="183.0000" ><![CDATA[ ]]></text>
<text font-family="Arial" fill="#000000" style ="white-space:pre;" font-weight="400" text-anchor="start" x="0.0000" y="172.0000" font-size="183.0000" ><![CDATA[ ]]></text>
<g transform="matrix(0.1250 0.0000 0.0000 0.1250 0.0000 0.0000)">
<path d="M 18996.0000,196.0000 L 18996.0000,3603.0000 L 25436.0000,3603.0000 L 25436.0000,196.0000 Z" stroke="#000000" stroke-width="8.0000"  stroke-linecap="round"  stroke-linejoin="miter"  stroke-miterlimit="8.0000" fill="none" />
</g>
<g transform="matrix(1.0000 0.0000 0.0000 1.0000 0.0000 0.0000)">
<defs><clipPath id="clip-1804289383"><path d="M 2418.0000,103.0000 L 3182.0000,103.0000 L 3182.0000,368.0000 L 2418.0000,368.0000 L 2418.0000,103.0000 Z Z" /></clipPath></defs>
<text  clip-path="url(#clip-1804289383)" font-family="Arial" fill="#000000" style ="white-space:pre;" font-weight="400" text-anchor="start" x="2617.0000" y="275.0000" font-size="183.0000" ><![CDATA[LMF]]></text>
<text  clip-path="url(#clip-1804289383)" font-family="Arial" fill="#000000" style ="white-space:pre;" font-weight="400" text-anchor="start" x="2984.0000" y="275.0000" font-size="183.0000" ><![CDATA[ ]]></text>
</g>
<g transform="matrix(0.1250 0.0000 0.0000 0.1250 0.0000 0.0000)">
<path d="M 22456.0000,3816.0000 L 22456.0000,12176.0000 " stroke="#000000" stroke-width="8.0000"  stroke-linecap="butt"  stroke-linejoin="round" fill="none" />
</g>
<g transform="matrix(1.0000 0.0000 0.0000 1.0000 0.0000 0.0000)">
</g>
<g transform="matrix(0.1250 0.0000 0.0000 0.1250 0.0000 0.0000)">
<path d="M 20176.0000,11796.0000 L 20176.0000,12330.0000 L 24883.0000,12330.0000 L 24883.0000,11796.0000 L 20176.0000,11796.0000 Z" stroke-width="1px" stroke="#000000"  fill="#000000" />
</g>
<g transform="matrix(1.0000 0.0000 0.0000 1.0000 0.0000 0.0000)">
</g>
<g transform="matrix(0.1250 0.0000 0.0000 0.1250 0.0000 0.0000)">
<path d="M 20176.0000,11796.0000 L 20176.0000,12330.0000 L 24883.0000,12330.0000 L 24883.0000,11796.0000 Z" stroke="#000000" stroke-width="8.0000"  stroke-linecap="round"  stroke-linejoin="miter"  stroke-miterlimit="8.0000" fill="none" />
</g>
<g transform="matrix(1.0000 0.0000 0.0000 1.0000 0.0000 0.0000)">
</g>
<g transform="matrix(0.0625 0.0000 0.0000 0.0625 0.0000 0.0000)">
<path d="M 432.0000,6.0000 L 432.0000,7606.0000 L 13792.0000,7606.0000 L 13792.0000,6.0000 Z" stroke="#000000" stroke-width="16.0000"  stroke-linecap="round"  stroke-linejoin="miter"  stroke-miterlimit="8.0000" fill="none" />
</g>
<g transform="matrix(1.0000 0.0000 0.0000 1.0000 0.0000 0.0000)">
<defs><clipPath id="clip-846930886"><path d="M 63.0000,25.0000 L 887.0000,25.0000 L 887.0000,549.0000 L 63.0000,549.0000 L 63.0000,25.0000 Z Z" /></clipPath></defs>
<text  clip-path="url(#clip-846930886)" font-family="Arial" fill="#000000" style ="white-space:pre;" font-weight="400" text-anchor="start" x="114.0000" y="197.0000" font-size="183.0000" ><![CDATA[NG]]></text>
<text  clip-path="url(#clip-846930886)" font-family="Arial" fill="#000000" style ="white-space:pre;" font-weight="400" text-anchor="start" x="388.0000" y="197.0000" font-size="183.0000" ><![CDATA[-]]></text>
<text  clip-path="url(#clip-846930886)" font-family="Arial" fill="#000000" style ="white-space:pre;" font-weight="400" text-anchor="start" x="449.0000" y="197.0000" font-size="183.0000" ><![CDATA[RAN ]]></text>
<text  clip-path="url(#clip-846930886)" font-family="Arial" fill="#000000" style ="white-space:pre;" font-weight="400" text-anchor="start" x="256.0000" y="408.0000" font-size="183.0000" ><![CDATA[Node]]></text>
<text  clip-path="url(#clip-846930886)" font-family="Arial" fill="#000000" style ="white-space:pre;" font-weight="400" text-anchor="start" x="694.0000" y="408.0000" font-size="183.0000" ><![CDATA[ ]]></text>
</g>
<g transform="matrix(0.0625 0.0000 0.0000 0.0625 0.0000 0.0000)">
<path d="M 6912.0000,7632.0000 L 6912.0000,23592.0000 " stroke="#000000" stroke-width="16.0000"  stroke-linecap="butt"  stroke-linejoin="round" fill="none" />
</g>
<g transform="matrix(1.0000 0.0000 0.0000 1.0000 0.0000 0.0000)">
</g>
<g transform="matrix(0.0625 0.0000 0.0000 0.0625 0.0000 0.0000)">
<path d="M 2686.0000,23592.0000 L 2686.0000,24659.0000 L 12099.0000,24659.0000 L 12099.0000,23592.0000 L 2686.0000,23592.0000 Z" stroke-width="1px" stroke="#000000"  fill="#000000" />
</g>
<g transform="matrix(1.0000 0.0000 0.0000 1.0000 0.0000 0.0000)">
</g>
<g transform="matrix(0.0625 0.0000 0.0000 0.0625 0.0000 0.0000)">
<path d="M 2686.0000,23592.0000 L 2686.0000,24659.0000 L 12099.0000,24659.0000 L 12099.0000,23592.0000 Z" stroke="#000000" stroke-width="16.0000"  stroke-linecap="round"  stroke-linejoin="miter"  stroke-miterlimit="8.0000" fill="none" />
</g>
<g transform="matrix(1.0000 0.0000 0.0000 1.0000 0.0000 0.0000)">
</g>
<g transform="matrix(0.1250 0.0000 0.0000 0.1250 0.0000 0.0000)">
<path d="M 21943.0000,7683.0000 L 3456.0000,7683.0000 L 3456.0000,7550.0000 L 21943.0000,7550.0000 L 21943.0000,7683.0000 Z M 21810.0000,7216.0000 L 22610.0000,7616.0000 L 21810.0000,8016.0000 L 21810.0000,7216.0000 Z "  fill="#000000" stroke="#000000" stroke-width="8.0000"  stroke-linecap="butt"  stroke-linejoin="bevel" />
</g>
<g transform="matrix(1.0000 0.0000 0.0000 1.0000 0.0000 0.0000)">
<defs><clipPath id="clip-1681692777"><path d="M 532.0000,715.0000 L 2579.0000,715.0000 L 2579.0000,1028.0000 L 532.0000,1028.0000 L 532.0000,715.0000 Z Z" /></clipPath></defs>
<text  clip-path="url(#clip-1681692777)" font-family="Arial" fill="#000000" style ="white-space:pre;" font-weight="400" text-anchor="start" x="532.0000" y="887.0000" font-size="183.0000" ><![CDATA[ERROR INDICATION]]></text>
<text  clip-path="url(#clip-1681692777)" font-family="Arial" fill="#000000" style ="white-space:pre;" font-weight="400" text-anchor="start" x="2304.0000" y="887.0000" font-size="183.0000" ><![CDATA[ ]]></text>
</g>
</g>
</svg>
