<?xml version="1.0"  encoding="UTF-8" standalone="no"?>
<svg version="1.1" xmlns="http://www.w3.org/2000/svg" xmlns:xlink="http://www.w3.org/1999/xlink" width="2860.0000" height="1159.0000">
<g transform="translate(25.0000, 28.0000)">
<text font-family="Times New Roman" fill="#000000" style ="white-space:pre;" font-weight="400" text-anchor="start" x="0.0000" y="90.0000" font-size="100.0000" ><![CDATA[ ]]></text>
<g transform="matrix(0.1250 0.0000 0.0000 0.1250 0.0000 0.0000)">
<path d="M 20933.0000,1513.0000 L 20936.0000,8490.0000 " stroke="#000000" stroke-width="50.0000"  stroke-linecap="butt"  stroke-linejoin="round" fill="none" />
</g>
<g transform="matrix(1.0000 0.0000 0.0000 1.0000 0.0000 0.0000)">
</g>
<g transform="matrix(0.0625 0.0000 0.0000 0.0625 0.0000 0.0000)">
<path d="M 3506.0000,3072.0000 L 3512.0000,17026.0000 " stroke="#000000" stroke-width="100.0000"  stroke-linecap="butt"  stroke-linejoin="round" fill="none" />
</g>
<g transform="matrix(1.0000 0.0000 0.0000 1.0000 0.0000 0.0000)">
</g>
<g transform="matrix(0.0625 0.0000 0.0000 0.0625 0.0000 0.0000)">
<path d="M 132.0000,86.0000 L 132.0000,4866.0000 L 6872.0000,4866.0000 L 6872.0000,86.0000 L 132.0000,86.0000 Z" stroke-width="1px" stroke="#FFFFFF"  fill="#FFFFFF" />
</g>
<g transform="matrix(1.0000 0.0000 0.0000 1.0000 0.0000 0.0000)">
</g>
<g transform="matrix(0.0625 0.0000 0.0000 0.0625 0.0000 0.0000)">
<path d="M 132.0000,86.0000 L 132.0000,4866.0000 L 6872.0000,4866.0000 L 6872.0000,86.0000 Z" stroke="#000000" stroke-width="100.0000"  stroke-linecap="round"  stroke-linejoin="miter"  stroke-miterlimit="8.0000" fill="none" />
</g>
<g transform="matrix(1.0000 0.0000 0.0000 1.0000 0.0000 0.0000)">
<defs><clipPath id="clip-1804289383"><path d="M 12.0000,33.0000 L 427.0000,33.0000 L 427.0000,278.0000 L 12.0000,278.0000 L 12.0000,33.0000 Z Z" /></clipPath></defs>
<text  clip-path="url(#clip-1804289383)" font-family="Arial" fill="#000000" style ="white-space:pre;" font-weight="400" text-anchor="start" x="39.0000" y="118.0000" font-size="92.0000" ><![CDATA[NG]]></text>
<text  clip-path="url(#clip-1804289383)" font-family="Arial" fill="#000000" style ="white-space:pre;" font-weight="400" text-anchor="start" x="177.0000" y="118.0000" font-size="92.0000" ><![CDATA[-]]></text>
<text  clip-path="url(#clip-1804289383)" font-family="Arial" fill="#000000" style ="white-space:pre;" font-weight="400" text-anchor="start" x="208.0000" y="118.0000" font-size="92.0000" ><![CDATA[RAN ]]></text>
<text  clip-path="url(#clip-1804289383)" font-family="Arial" fill="#000000" style ="white-space:pre;" font-weight="400" text-anchor="start" x="118.0000" y="223.0000" font-size="92.0000" ><![CDATA[node]]></text>
<text  clip-path="url(#clip-1804289383)" font-family="Arial" fill="#000000" style ="white-space:pre;" font-weight="400" text-anchor="start" x="322.0000" y="223.0000" font-size="92.0000" ><![CDATA[ ]]></text>
</g>
<g transform="matrix(0.1250 0.0000 0.0000 0.1250 0.0000 0.0000)">
<path d="M 2040.0000,4330.0000 L 20896.0000,4330.0000 L 20896.0000,4396.0000 L 2040.0000,4396.0000 L 2040.0000,4330.0000 Z M 2106.0000,4563.0000 L 1706.0000,4363.0000 L 2106.0000,4163.0000 L 2106.0000,4563.0000 Z "  fill="#000000" stroke="#000000" stroke-width="8.0000"  stroke-linecap="butt"  stroke-linejoin="bevel" />
</g>
<g transform="matrix(1.0000 0.0000 0.0000 1.0000 0.0000 0.0000)">
</g>
<g transform="matrix(0.0625 0.0000 0.0000 0.0625 0.0000 0.0000)">
<path d="M 372.0000,16806.0000 L 372.0000,17566.0000 L 6072.0000,17566.0000 L 6072.0000,16806.0000 L 372.0000,16806.0000 Z" stroke-width="1px" stroke="#000000"  fill="#000000" />
</g>
<g transform="matrix(1.0000 0.0000 0.0000 1.0000 0.0000 0.0000)">
</g>
<g transform="matrix(0.0625 0.0000 0.0000 0.0625 0.0000 0.0000)">
<path d="M 372.0000,16806.0000 L 372.0000,17566.0000 L 6072.0000,17566.0000 L 6072.0000,16806.0000 Z" stroke="#000000" stroke-width="100.0000"  stroke-linecap="round"  stroke-linejoin="miter"  stroke-miterlimit="8.0000" fill="none" />
</g>
<g transform="matrix(1.0000 0.0000 0.0000 1.0000 0.0000 0.0000)">
</g>
<g transform="matrix(0.1250 0.0000 0.0000 0.1250 0.0000 0.0000)">
<path d="M 19376.0000,8403.0000 L 19376.0000,8783.0000 L 22226.0000,8783.0000 L 22226.0000,8403.0000 L 19376.0000,8403.0000 Z" stroke-width="1px" stroke="#000000"  fill="#000000" />
</g>
<g transform="matrix(1.0000 0.0000 0.0000 1.0000 0.0000 0.0000)">
</g>
<g transform="matrix(0.1250 0.0000 0.0000 0.1250 0.0000 0.0000)">
<path d="M 19376.0000,8403.0000 L 19376.0000,8783.0000 L 22226.0000,8783.0000 L 22226.0000,8403.0000 Z" stroke="#000000" stroke-width="50.0000"  stroke-linecap="round"  stroke-linejoin="miter"  stroke-miterlimit="8.0000" fill="none" />
</g>
<g transform="matrix(1.0000 0.0000 0.0000 1.0000 0.0000 0.0000)">
</g>
<g transform="matrix(0.1250 0.0000 0.0000 0.1250 0.0000 0.0000)">
<path d="M 1706.0000,6420.0000 L 20563.0000,6420.0000 L 20563.0000,6486.0000 L 1706.0000,6486.0000 L 1706.0000,6420.0000 Z M 20496.0000,6253.0000 L 20896.0000,6453.0000 L 20496.0000,6653.0000 L 20496.0000,6253.0000 Z "  fill="#000000" stroke="#000000" stroke-width="8.0000"  stroke-linecap="butt"  stroke-linejoin="bevel" />
</g>
<g transform="matrix(1.0000 0.0000 0.0000 1.0000 0.0000 0.0000)">
<defs><clipPath id="clip-846930886"><path d="M 261.0000,671.0000 L 2517.0000,671.0000 L 2517.0000,783.0000 L 261.0000,783.0000 L 261.0000,671.0000 Z Z" /></clipPath></defs>
<text  clip-path="url(#clip-846930886)" font-family="Arial" fill="#000000" style ="white-space:pre;" font-weight="400" text-anchor="start" x="342.0000" y="757.0000" font-size="92.0000" ><![CDATA[MEASUREMENT PRECONFIGURATION ]]></text>
<text  clip-path="url(#clip-846930886)" font-family="Arial" fill="#000000" style ="white-space:pre;" font-weight="400" text-anchor="start" x="2064.0000" y="757.0000" font-size="92.0000" ><![CDATA[REFUSE]]></text>
<text  clip-path="url(#clip-846930886)" font-family="Arial" fill="#000000" style ="white-space:pre;" font-weight="400" text-anchor="start" x="2435.0000" y="757.0000" font-size="92.0000" ><![CDATA[ ]]></text>
</g>
<g transform="matrix(0.1250 0.0000 0.0000 0.1250 0.0000 0.0000)">
<path d="M 19046.0000,43.0000 L 19046.0000,2433.0000 L 22416.0000,2433.0000 L 22416.0000,43.0000 L 19046.0000,43.0000 Z" stroke-width="1px" stroke="#FFFFFF"  fill="#FFFFFF" />
</g>
<g transform="matrix(1.0000 0.0000 0.0000 1.0000 0.0000 0.0000)">
</g>
<g transform="matrix(0.1250 0.0000 0.0000 0.1250 0.0000 0.0000)">
<path d="M 19046.0000,43.0000 L 19046.0000,2433.0000 L 22416.0000,2433.0000 L 22416.0000,43.0000 Z" stroke="#000000" stroke-width="50.0000"  stroke-linecap="round"  stroke-linejoin="miter"  stroke-miterlimit="8.0000" fill="none" />
</g>
<g transform="matrix(1.0000 0.0000 0.0000 1.0000 0.0000 0.0000)">
<defs><clipPath id="clip-1681692777"><path d="M 2385.0000,33.0000 L 2799.0000,33.0000 L 2799.0000,278.0000 L 2385.0000,278.0000 L 2385.0000,33.0000 Z Z" /></clipPath></defs>
<text  clip-path="url(#clip-1681692777)" font-family="Arial" fill="#000000" style ="white-space:pre;" font-weight="400" text-anchor="start" x="2500.0000" y="118.0000" font-size="92.0000" ><![CDATA[LMF]]></text>
<text  clip-path="url(#clip-1681692777)" font-family="Arial" fill="#000000" style ="white-space:pre;" font-weight="400" text-anchor="start" x="2683.0000" y="118.0000" font-size="92.0000" ><![CDATA[ ]]></text>
<defs><clipPath id="clip-1714636915"><path d="M 285.0000,403.0000 L 2541.0000,403.0000 L 2541.0000,516.0000 L 285.0000,516.0000 L 285.0000,403.0000 Z Z" /></clipPath></defs>
<text  clip-path="url(#clip-1714636915)" font-family="Arial" fill="#000000" style ="white-space:pre;" font-weight="400" text-anchor="start" x="310.0000" y="488.0000" font-size="92.0000" ><![CDATA[MEASUREMENT PRECONFIGURATION ]]></text>
<text  clip-path="url(#clip-1714636915)" font-family="Arial" fill="#000000" style ="white-space:pre;" font-weight="400" text-anchor="start" x="2032.0000" y="488.0000" font-size="92.0000" ><![CDATA[REQ]]></text>
<text  clip-path="url(#clip-1714636915)" font-family="Arial" fill="#000000" style ="white-space:pre;" font-weight="400" text-anchor="start" x="2231.0000" y="488.0000" font-size="92.0000" ><![CDATA[U]]></text>
<text  clip-path="url(#clip-1714636915)" font-family="Arial" fill="#000000" style ="white-space:pre;" font-weight="400" text-anchor="start" x="2297.0000" y="488.0000" font-size="92.0000" ><![CDATA[IRED]]></text>
<text  clip-path="url(#clip-1714636915)" font-family="Arial" fill="#000000" style ="white-space:pre;" font-weight="400" text-anchor="start" x="2516.0000" y="488.0000" font-size="92.0000" ><![CDATA[ ]]></text>
</g>
</g>
</svg>
