<?xml version="1.0"  encoding="UTF-8" standalone="no"?>
<svg version="1.1" xmlns="http://www.w3.org/2000/svg" xmlns:xlink="http://www.w3.org/1999/xlink" width="2362.0000" height="1034.0000">
<g transform="translate(26.0000, 28.0000)">
<text font-family="Times New Roman" fill="#000000" style ="white-space:pre;" font-weight="400" text-anchor="start" x="0.0000" y="90.0000" font-size="100.0000" ><![CDATA[ ]]></text>
<g transform="matrix(0.1250 0.0000 0.0000 0.1250 0.0000 0.0000)">
<path d="M 17090.0000,513.0000 L 17093.0000,7490.0000 " stroke="#000000" stroke-width="50.0000"  stroke-linecap="butt"  stroke-linejoin="round" fill="none" />
</g>
<g transform="matrix(1.0000 0.0000 0.0000 1.0000 0.0000 0.0000)">
</g>
<g transform="matrix(0.0625 0.0000 0.0000 0.0625 0.0000 0.0000)">
<path d="M 3406.0000,1072.0000 L 3412.0000,15026.0000 " stroke="#000000" stroke-width="100.0000"  stroke-linecap="butt"  stroke-linejoin="round" fill="none" />
</g>
<g transform="matrix(1.0000 0.0000 0.0000 1.0000 0.0000 0.0000)">
</g>
<g transform="matrix(0.0625 0.0000 0.0000 0.0625 0.0000 0.0000)">
<path d="M 126.0000,86.0000 L 126.0000,2866.0000 L 6866.0000,2866.0000 L 6866.0000,86.0000 L 126.0000,86.0000 Z" stroke-width="1px" stroke="#FFFFFF"  fill="#FFFFFF" />
</g>
<g transform="matrix(1.0000 0.0000 0.0000 1.0000 0.0000 0.0000)">
</g>
<g transform="matrix(0.0625 0.0000 0.0000 0.0625 0.0000 0.0000)">
<path d="M 126.0000,86.0000 L 126.0000,2866.0000 L 6866.0000,2866.0000 L 6866.0000,86.0000 Z" stroke="#000000" stroke-width="100.0000"  stroke-linecap="round"  stroke-linejoin="miter"  stroke-miterlimit="8.0000" fill="none" />
</g>
<g transform="matrix(1.0000 0.0000 0.0000 1.0000 0.0000 0.0000)">
<defs><clipPath id="clip-1804289383"><path d="M 12.0000,33.0000 L 426.0000,33.0000 L 426.0000,153.0000 L 12.0000,153.0000 L 12.0000,33.0000 Z Z" /></clipPath></defs>
<text  clip-path="url(#clip-1804289383)" font-family="Arial" fill="#000000" style ="white-space:pre;" font-weight="400" text-anchor="start" x="35.0000" y="118.0000" font-size="92.0000" ><![CDATA[ ]]></text>
<text  clip-path="url(#clip-1804289383)" font-family="Arial" fill="#000000" style ="white-space:pre;" font-weight="400" text-anchor="start" x="60.0000" y="118.0000" font-size="92.0000" ><![CDATA[gNB]]></text>
<text  clip-path="url(#clip-1804289383)" font-family="Arial" fill="#000000" style ="white-space:pre;" font-weight="400" text-anchor="start" x="239.0000" y="118.0000" font-size="92.0000" ><![CDATA[-]]></text>
<text  clip-path="url(#clip-1804289383)" font-family="Arial" fill="#000000" style ="white-space:pre;" font-weight="400" text-anchor="start" x="270.0000" y="118.0000" font-size="92.0000" ><![CDATA[DU]]></text>
<text  clip-path="url(#clip-1804289383)" font-family="Arial" fill="#000000" style ="white-space:pre;" font-weight="400" text-anchor="start" x="402.0000" y="118.0000" font-size="92.0000" ><![CDATA[ ]]></text>
</g>
<g transform="matrix(0.1250 0.0000 0.0000 0.1250 0.0000 0.0000)">
<path d="M 1833.0000,5280.0000 L 16827.0000,5280.0000 L 16827.0000,5346.0000 L 1833.0000,5346.0000 L 1833.0000,5280.0000 Z M 16760.0000,5113.0000 L 17160.0000,5313.0000 L 16760.0000,5513.0000 L 16760.0000,5113.0000 Z "  fill="#000000" stroke="#000000" stroke-width="8.0000"  stroke-linecap="butt"  stroke-linejoin="bevel" />
</g>
<g transform="matrix(1.0000 0.0000 0.0000 1.0000 0.0000 0.0000)">
<defs><clipPath id="clip-846930886"><path d="M 261.0000,269.0000 L 2107.0000,269.0000 L 2107.0000,393.0000 L 261.0000,393.0000 L 261.0000,269.0000 Z Z" /></clipPath></defs>
<text  clip-path="url(#clip-846930886)" font-family="Arial" fill="#000000" style ="white-space:pre;" font-weight="400" text-anchor="start" x="261.0000" y="355.0000" font-size="92.0000" ><![CDATA[UE]]></text>
<text  clip-path="url(#clip-846930886)" font-family="Arial" fill="#000000" style ="white-space:pre;" font-weight="400" text-anchor="start" x="388.0000" y="355.0000" font-size="92.0000" ><![CDATA[ ]]></text>
<text  clip-path="url(#clip-846930886)" font-family="Arial" fill="#000000" style ="white-space:pre;" font-weight="400" text-anchor="start" x="414.0000" y="355.0000" font-size="92.0000" ><![CDATA[CONTEXT SETUP REQUES]]></text>
<text  clip-path="url(#clip-846930886)" font-family="Arial" fill="#000000" style ="white-space:pre;" font-weight="400" text-anchor="start" x="1596.0000" y="355.0000" font-size="92.0000" ><![CDATA[T]]></text>
<text  clip-path="url(#clip-846930886)" font-family="Arial" fill="#000000" style ="white-space:pre;" font-weight="400" text-anchor="start" x="1652.0000" y="355.0000" font-size="92.0000" ><![CDATA[ ]]></text>
</g>
<g transform="matrix(0.1250 0.0000 0.0000 0.1250 0.0000 0.0000)">
<path d="M 15143.0000,43.0000 L 15143.0000,1373.0000 L 18423.0000,1373.0000 L 18423.0000,43.0000 L 15143.0000,43.0000 Z" stroke-width="1px" stroke="#FFFFFF"  fill="#FFFFFF" />
</g>
<g transform="matrix(1.0000 0.0000 0.0000 1.0000 0.0000 0.0000)">
</g>
<g transform="matrix(0.1250 0.0000 0.0000 0.1250 0.0000 0.0000)">
<path d="M 15143.0000,43.0000 L 15143.0000,1373.0000 L 18423.0000,1373.0000 L 18423.0000,43.0000 Z" stroke="#000000" stroke-width="50.0000"  stroke-linecap="round"  stroke-linejoin="miter"  stroke-miterlimit="8.0000" fill="none" />
</g>
<g transform="matrix(1.0000 0.0000 0.0000 1.0000 0.0000 0.0000)">
<defs><clipPath id="clip-1681692777"><path d="M 1897.0000,33.0000 L 2300.0000,33.0000 L 2300.0000,145.0000 L 1897.0000,145.0000 L 1897.0000,33.0000 Z Z" /></clipPath></defs>
<text  clip-path="url(#clip-1681692777)" font-family="Arial" fill="#000000" style ="white-space:pre;" font-weight="400" text-anchor="start" x="1927.0000" y="119.0000" font-size="92.0000" ><![CDATA[gNB]]></text>
<text  clip-path="url(#clip-1681692777)" font-family="Arial" fill="#000000" style ="white-space:pre;" font-weight="400" text-anchor="start" x="2106.0000" y="119.0000" font-size="92.0000" ><![CDATA[-]]></text>
<text  clip-path="url(#clip-1681692777)" font-family="Arial" fill="#000000" style ="white-space:pre;" font-weight="400" text-anchor="start" x="2137.0000" y="119.0000" font-size="92.0000" ><![CDATA[CU]]></text>
<text  clip-path="url(#clip-1681692777)" font-family="Arial" fill="#000000" style ="white-space:pre;" font-weight="400" text-anchor="start" x="2268.0000" y="119.0000" font-size="92.0000" ><![CDATA[ ]]></text>
</g>
<g transform="matrix(0.0625 0.0000 0.0000 0.0625 0.0000 0.0000)">
<path d="M 366.0000,14806.0000 L 366.0000,15566.0000 L 6066.0000,15566.0000 L 6066.0000,14806.0000 L 366.0000,14806.0000 Z" stroke-width="1px" stroke="#000000"  fill="#000000" />
</g>
<g transform="matrix(1.0000 0.0000 0.0000 1.0000 0.0000 0.0000)">
</g>
<g transform="matrix(0.0625 0.0000 0.0000 0.0625 0.0000 0.0000)">
<path d="M 366.0000,14806.0000 L 366.0000,15566.0000 L 6066.0000,15566.0000 L 6066.0000,14806.0000 Z" stroke="#000000" stroke-width="100.0000"  stroke-linecap="round"  stroke-linejoin="miter"  stroke-miterlimit="8.0000" fill="none" />
</g>
<g transform="matrix(1.0000 0.0000 0.0000 1.0000 0.0000 0.0000)">
</g>
<g transform="matrix(0.1250 0.0000 0.0000 0.1250 0.0000 0.0000)">
<path d="M 15573.0000,7403.0000 L 15573.0000,7783.0000 L 18423.0000,7783.0000 L 18423.0000,7403.0000 L 15573.0000,7403.0000 Z" stroke-width="1px" stroke="#000000"  fill="#000000" />
</g>
<g transform="matrix(1.0000 0.0000 0.0000 1.0000 0.0000 0.0000)">
</g>
<g transform="matrix(0.1250 0.0000 0.0000 0.1250 0.0000 0.0000)">
<path d="M 15573.0000,7403.0000 L 15573.0000,7783.0000 L 18423.0000,7783.0000 L 18423.0000,7403.0000 Z" stroke="#000000" stroke-width="50.0000"  stroke-linecap="round"  stroke-linejoin="miter"  stroke-miterlimit="8.0000" fill="none" />
</g>
<g transform="matrix(1.0000 0.0000 0.0000 1.0000 0.0000 0.0000)">
</g>
<g transform="matrix(0.1250 0.0000 0.0000 0.1250 0.0000 0.0000)">
<path d="M 2103.0000,3120.0000 L 17160.0000,3110.0000 L 17160.0000,3176.0000 L 2103.0000,3186.0000 L 2103.0000,3120.0000 Z M 2170.0000,3353.0000 L 1770.0000,3153.0000 L 2170.0000,2953.0000 L 2170.0000,3353.0000 Z "  fill="#000000" stroke="#000000" stroke-width="8.0000"  stroke-linecap="butt"  stroke-linejoin="bevel" />
</g>
<g transform="matrix(1.0000 0.0000 0.0000 1.0000 0.0000 0.0000)">
<defs><clipPath id="clip-1714636915"><path d="M 261.0000,546.0000 L 2327.0000,546.0000 L 2327.0000,664.0000 L 261.0000,664.0000 L 261.0000,546.0000 Z Z" /></clipPath></defs>
<text  clip-path="url(#clip-1714636915)" font-family="Arial" fill="#000000" style ="white-space:pre;" font-weight="400" text-anchor="start" x="261.0000" y="632.0000" font-size="92.0000" ><![CDATA[UE]]></text>
<text  clip-path="url(#clip-1714636915)" font-family="Arial" fill="#000000" style ="white-space:pre;" font-weight="400" text-anchor="start" x="388.0000" y="632.0000" font-size="92.0000" ><![CDATA[ ]]></text>
<text  clip-path="url(#clip-1714636915)" font-family="Arial" fill="#000000" style ="white-space:pre;" font-weight="400" text-anchor="start" x="414.0000" y="632.0000" font-size="92.0000" ><![CDATA[CONTEXT SETUP RESPON]]></text>
<text  clip-path="url(#clip-1714636915)" font-family="Arial" fill="#000000" style ="white-space:pre;" font-weight="400" text-anchor="start" x="1596.0000" y="632.0000" font-size="92.0000" ><![CDATA[SE]]></text>
<text  clip-path="url(#clip-1714636915)" font-family="Arial" fill="#000000" style ="white-space:pre;" font-weight="400" text-anchor="start" x="1718.0000" y="632.0000" font-size="92.0000" ><![CDATA[ ]]></text>
</g>
</g>
</svg>
