<?xml version="1.0"  encoding="UTF-8" standalone="no"?>
<svg version="1.1" xmlns="http://www.w3.org/2000/svg" xmlns:xlink="http://www.w3.org/1999/xlink" width="1625.0000" height="552.0000">
<g transform="translate(18.0000, 20.0000)">
<text font-family="Times New Roman" fill="#000000" style ="white-space:pre;" font-weight="400" text-anchor="start" x="0.0000" y="54.0000" font-size="58.0000" ><![CDATA[ ]]></text>
<g transform="matrix(0.0625 0.0000 0.0000 0.0625 0.0000 0.0000)">
<path d="M 23622.0000,1752.0000 L 23626.0000,7683.0000 " stroke="#000000" stroke-width="58.0000"  stroke-linecap="butt"  stroke-linejoin="round" fill="none" />
</g>
<g transform="matrix(1.0000 0.0000 0.0000 1.0000 0.0000 0.0000)">
</g>
<g transform="matrix(0.0625 0.0000 0.0000 0.0625 0.0000 0.0000)">
<path d="M 2034.0000,1771.0000 L 2038.0000,7703.0000 " stroke="#000000" stroke-width="58.0000"  stroke-linecap="butt"  stroke-linejoin="round" fill="none" />
</g>
<g transform="matrix(1.0000 0.0000 0.0000 1.0000 0.0000 0.0000)">
</g>
<g transform="matrix(0.0625 0.0000 0.0000 0.0625 0.0000 0.0000)">
<path d="M 78.0000,47.0000 L 78.0000,2819.0000 L 3987.0000,2819.0000 L 3987.0000,47.0000 L 78.0000,47.0000 Z" stroke-width="1px" stroke="#FFFFFF"  fill="#FFFFFF" />
</g>
<g transform="matrix(1.0000 0.0000 0.0000 1.0000 0.0000 0.0000)">
</g>
<g transform="matrix(0.0625 0.0000 0.0000 0.0625 0.0000 0.0000)">
<path d="M 78.0000,47.0000 L 78.0000,2819.0000 L 3987.0000,2819.0000 L 3987.0000,47.0000 Z" stroke="#000000" stroke-width="58.0000"  stroke-linecap="round"  stroke-linejoin="miter"  stroke-miterlimit="8.0000" fill="none" />
</g>
<g transform="matrix(1.0000 0.0000 0.0000 1.0000 0.0000 0.0000)">
<defs><clipPath id="clip-1804289383"><path d="M 7.0000,19.0000 L 248.0000,19.0000 L 248.0000,161.0000 L 7.0000,161.0000 L 7.0000,19.0000 Z Z" /></clipPath></defs>
<text  clip-path="url(#clip-1804289383)" font-family="Arial" fill="#000000" style ="white-space:pre;" font-weight="400" text-anchor="start" x="28.0000" y="69.0000" font-size="53.0000" ><![CDATA[gNB]]></text>
<text  clip-path="url(#clip-1804289383)" font-family="Arial" fill="#000000" style ="white-space:pre;" font-weight="400" text-anchor="start" x="130.0000" y="69.0000" font-size="53.0000" ><![CDATA[-]]></text>
<text  clip-path="url(#clip-1804289383)" font-family="Arial" fill="#000000" style ="white-space:pre;" font-weight="400" text-anchor="start" x="149.0000" y="69.0000" font-size="53.0000" ><![CDATA[DU]]></text>
<text  clip-path="url(#clip-1804289383)" font-family="Arial" fill="#000000" style ="white-space:pre;" font-weight="400" text-anchor="start" x="226.0000" y="69.0000" font-size="53.0000" ><![CDATA[ ]]></text>
</g>
<g transform="matrix(0.0625 0.0000 0.0000 0.0625 0.0000 0.0000)">
<path d="M 2355.0000,5019.0000 L 23568.0000,5019.0000 L 23568.0000,5096.0000 L 2355.0000,5096.0000 L 2355.0000,5019.0000 Z M 2432.0000,5290.0000 L 1968.0000,5058.0000 L 2432.0000,4826.0000 L 2432.0000,5290.0000 Z "  fill="#000000" stroke="#000000" stroke-width="16.0000"  stroke-linecap="butt"  stroke-linejoin="bevel" />
</g>
<g transform="matrix(1.0000 0.0000 0.0000 1.0000 0.0000 0.0000)">
<defs><clipPath id="clip-846930886"><path d="M 166.0000,255.0000 L 1433.0000,255.0000 L 1433.0000,419.0000 L 166.0000,419.0000 L 166.0000,255.0000 Z Z" /></clipPath></defs>
<text  clip-path="url(#clip-846930886)" font-family="Arial" fill="#000000" style ="white-space:pre;" font-weight="400" text-anchor="start" x="312.0000" y="306.0000" font-size="53.0000" ><![CDATA[POSITIONING]]></text>
<text  clip-path="url(#clip-846930886)" font-family="Arial" fill="#000000" style ="white-space:pre;" font-weight="400" text-anchor="start" x="660.0000" y="306.0000" font-size="53.0000" ><![CDATA[ ]]></text>
<text  clip-path="url(#clip-846930886)" font-family="Arial" fill="#000000" style ="white-space:pre;" font-weight="400" text-anchor="start" x="675.0000" y="306.0000" font-size="53.0000" ><![CDATA[MEASUREMENT]]></text>
<text  clip-path="url(#clip-846930886)" font-family="Arial" fill="#000000" style ="white-space:pre;" font-weight="400" text-anchor="start" x="1089.0000" y="306.0000" font-size="53.0000" ><![CDATA[ ]]></text>
<text  clip-path="url(#clip-846930886)" font-family="Arial" fill="#000000" style ="white-space:pre;" font-weight="400" text-anchor="start" x="1104.0000" y="306.0000" font-size="53.0000" ><![CDATA[ABORT]]></text>
<text  clip-path="url(#clip-846930886)" font-family="Arial" fill="#000000" style ="white-space:pre;" font-weight="400" text-anchor="start" x="1287.0000" y="306.0000" font-size="53.0000" ><![CDATA[ ]]></text>
</g>
<g transform="matrix(0.0625 0.0000 0.0000 0.0625 0.0000 0.0000)">
<path d="M 217.0000,7703.0000 L 217.0000,8143.0000 L 3523.0000,8143.0000 L 3523.0000,7703.0000 L 217.0000,7703.0000 Z" stroke-width="1px" stroke="#000000"  fill="#000000" />
</g>
<g transform="matrix(1.0000 0.0000 0.0000 1.0000 0.0000 0.0000)">
</g>
<g transform="matrix(0.0625 0.0000 0.0000 0.0625 0.0000 0.0000)">
<path d="M 217.0000,7703.0000 L 217.0000,8143.0000 L 3523.0000,8143.0000 L 3523.0000,7703.0000 Z" stroke="#000000" stroke-width="58.0000"  stroke-linecap="round"  stroke-linejoin="miter"  stroke-miterlimit="8.0000" fill="none" />
</g>
<g transform="matrix(1.0000 0.0000 0.0000 1.0000 0.0000 0.0000)">
</g>
<g transform="matrix(0.0625 0.0000 0.0000 0.0625 0.0000 0.0000)">
<path d="M 21816.0000,7703.0000 L 21816.0000,8143.0000 L 25122.0000,8143.0000 L 25122.0000,7703.0000 L 21816.0000,7703.0000 Z" stroke-width="1px" stroke="#000000"  fill="#000000" />
</g>
<g transform="matrix(1.0000 0.0000 0.0000 1.0000 0.0000 0.0000)">
</g>
<g transform="matrix(0.0625 0.0000 0.0000 0.0625 0.0000 0.0000)">
<path d="M 21816.0000,7703.0000 L 21816.0000,8143.0000 L 25122.0000,8143.0000 L 25122.0000,7703.0000 Z" stroke="#000000" stroke-width="58.0000"  stroke-linecap="round"  stroke-linejoin="miter"  stroke-miterlimit="8.0000" fill="none" />
</g>
<g transform="matrix(1.0000 0.0000 0.0000 1.0000 0.0000 0.0000)">
</g>
<g transform="matrix(0.0625 0.0000 0.0000 0.0625 0.0000 0.0000)">
<path d="M 21433.0000,47.0000 L 21433.0000,2819.0000 L 25342.0000,2819.0000 L 25342.0000,47.0000 L 21433.0000,47.0000 Z" stroke-width="1px" stroke="#FFFFFF"  fill="#FFFFFF" />
</g>
<g transform="matrix(1.0000 0.0000 0.0000 1.0000 0.0000 0.0000)">
</g>
<g transform="matrix(0.0625 0.0000 0.0000 0.0625 0.0000 0.0000)">
<path d="M 21433.0000,47.0000 L 21433.0000,2819.0000 L 25342.0000,2819.0000 L 25342.0000,47.0000 Z" stroke="#000000" stroke-width="58.0000"  stroke-linecap="round"  stroke-linejoin="miter"  stroke-miterlimit="8.0000" fill="none" />
</g>
<g transform="matrix(1.0000 0.0000 0.0000 1.0000 0.0000 0.0000)">
<defs><clipPath id="clip-1681692777"><path d="M 1342.0000,19.0000 L 1582.0000,19.0000 L 1582.0000,161.0000 L 1342.0000,161.0000 L 1342.0000,19.0000 Z Z" /></clipPath></defs>
<text  clip-path="url(#clip-1681692777)" font-family="Arial" fill="#000000" style ="white-space:pre;" font-weight="400" text-anchor="start" x="1363.0000" y="69.0000" font-size="53.0000" ><![CDATA[gNB]]></text>
<text  clip-path="url(#clip-1681692777)" font-family="Arial" fill="#000000" style ="white-space:pre;" font-weight="400" text-anchor="start" x="1465.0000" y="69.0000" font-size="53.0000" ><![CDATA[-]]></text>
<text  clip-path="url(#clip-1681692777)" font-family="Arial" fill="#000000" style ="white-space:pre;" font-weight="400" text-anchor="start" x="1484.0000" y="69.0000" font-size="53.0000" ><![CDATA[CU]]></text>
<text  clip-path="url(#clip-1681692777)" font-family="Arial" fill="#000000" style ="white-space:pre;" font-weight="400" text-anchor="start" x="1561.0000" y="69.0000" font-size="53.0000" ><![CDATA[ ]]></text>
</g>
</g>
</svg>
