<?xml version="1.0"  encoding="UTF-8" standalone="no"?>
<svg version="1.1" xmlns="http://www.w3.org/2000/svg" xmlns:xlink="http://www.w3.org/1999/xlink" width="2695.0000" height="1047.0000">
<g transform="translate(177.0000, 41.0000)">
<text font-family="Times New Roman" fill="#000000" style ="white-space:pre;" font-weight="400" text-anchor="start" x="0.0000" y="93.0000" font-size="100.0000" ><![CDATA[ ]]></text>
<g transform="matrix(0.1250 0.0000 0.0000 0.1250 0.0000 0.0000)">
<path d="M 17020.0000,1703.0000 L 17020.0000,7403.0000 " stroke="#000000" stroke-width="50.0000"  stroke-linecap="butt"  stroke-linejoin="round" fill="none" />
</g>
<g transform="matrix(1.0000 0.0000 0.0000 1.0000 0.0000 0.0000)">
</g>
<g transform="matrix(0.0625 0.0000 0.0000 0.0625 0.0000 0.0000)">
<path d="M 3412.0000,3206.0000 L 3412.0000,14806.0000 " stroke="#000000" stroke-width="100.0000"  stroke-linecap="butt"  stroke-linejoin="round" fill="none" />
</g>
<g transform="matrix(1.0000 0.0000 0.0000 1.0000 0.0000 0.0000)">
</g>
<g transform="matrix(0.1250 0.0000 0.0000 0.1250 0.0000 0.0000)">
<path d="M 1706.0000,5930.0000 L 16700.0000,5930.0000 L 16700.0000,5996.0000 L 1706.0000,5996.0000 L 1706.0000,5930.0000 Z M 16633.0000,5763.0000 L 17033.0000,5963.0000 L 16633.0000,6163.0000 L 16633.0000,5763.0000 Z "  fill="#000000" stroke="#000000" stroke-width="8.0000"  stroke-linecap="butt"  stroke-linejoin="bevel" />
</g>
<g transform="matrix(1.0000 0.0000 0.0000 1.0000 0.0000 0.0000)">
</g>
<g transform="matrix(0.0625 0.0000 0.0000 0.0625 0.0000 0.0000)">
<path d="M 586.0000,14806.0000 L 586.0000,15566.0000 L 6286.0000,15566.0000 L 6286.0000,14806.0000 L 586.0000,14806.0000 Z" stroke-width="1px" stroke="#000000"  fill="#000000" />
</g>
<g transform="matrix(1.0000 0.0000 0.0000 1.0000 0.0000 0.0000)">
</g>
<g transform="matrix(0.0625 0.0000 0.0000 0.0625 0.0000 0.0000)">
<path d="M 586.0000,14806.0000 L 586.0000,15566.0000 L 6286.0000,15566.0000 L 6286.0000,14806.0000 Z" stroke="#000000" stroke-width="100.0000"  stroke-linecap="round"  stroke-linejoin="miter"  stroke-miterlimit="8.0000" fill="none" />
</g>
<g transform="matrix(1.0000 0.0000 0.0000 1.0000 0.0000 0.0000)">
</g>
<g transform="matrix(0.1250 0.0000 0.0000 0.1250 0.0000 0.0000)">
<path d="M 15573.0000,7403.0000 L 15573.0000,7783.0000 L 18423.0000,7783.0000 L 18423.0000,7403.0000 L 15573.0000,7403.0000 Z" stroke-width="1px" stroke="#000000"  fill="#000000" />
</g>
<g transform="matrix(1.0000 0.0000 0.0000 1.0000 0.0000 0.0000)">
</g>
<g transform="matrix(0.1250 0.0000 0.0000 0.1250 0.0000 0.0000)">
<path d="M 15573.0000,7403.0000 L 15573.0000,7783.0000 L 18423.0000,7783.0000 L 18423.0000,7403.0000 Z" stroke="#000000" stroke-width="50.0000"  stroke-linecap="round"  stroke-linejoin="miter"  stroke-miterlimit="8.0000" fill="none" />
</g>
<g transform="matrix(1.0000 0.0000 0.0000 1.0000 0.0000 0.0000)">
<defs><clipPath id="clip-1804289383"><path d="M 290.0000,375.0000 L 2107.0000,375.0000 L 2107.0000,493.0000 L 290.0000,493.0000 L 290.0000,375.0000 Z Z" /></clipPath></defs>
<text  clip-path="url(#clip-1804289383)" font-family="Arial" fill="#000000" style ="white-space:pre;" font-weight="400" text-anchor="start" x="290.0000" y="453.0000" font-size="83.0000" ><![CDATA[MULTIC]]></text>
<text  clip-path="url(#clip-1804289383)" font-family="Arial" fill="#000000" style ="white-space:pre;" font-weight="400" text-anchor="start" x="600.0000" y="453.0000" font-size="83.0000" ><![CDATA[A]]></text>
<text  clip-path="url(#clip-1804289383)" font-family="Arial" fill="#000000" style ="white-space:pre;" font-weight="400" text-anchor="start" x="655.0000" y="453.0000" font-size="83.0000" ><![CDATA[ST]]></text>
<text  clip-path="url(#clip-1804289383)" font-family="Arial" fill="#000000" style ="white-space:pre;" font-weight="400" text-anchor="start" x="761.0000" y="453.0000" font-size="83.0000" ><![CDATA[ ]]></text>
<text  clip-path="url(#clip-1804289383)" font-family="Arial" fill="#000000" style ="white-space:pre;" font-weight="400" text-anchor="start" x="785.0000" y="453.0000" font-size="83.0000" ><![CDATA[DISTRIBUTION]]></text>
<text  clip-path="url(#clip-1804289383)" font-family="Arial" fill="#000000" style ="white-space:pre;" font-weight="400" text-anchor="start" x="1373.0000" y="453.0000" font-size="83.0000" ><![CDATA[ ]]></text>
<text  clip-path="url(#clip-1804289383)" font-family="Arial" fill="#000000" style ="white-space:pre;" font-weight="400" text-anchor="start" x="1396.0000" y="453.0000" font-size="83.0000" ><![CDATA[S]]></text>
<text  clip-path="url(#clip-1804289383)" font-family="Arial" fill="#000000" style ="white-space:pre;" font-weight="400" text-anchor="start" x="1452.0000" y="453.0000" font-size="83.0000" ><![CDATA[ETUP]]></text>
<text  clip-path="url(#clip-1804289383)" font-family="Arial" fill="#000000" style ="white-space:pre;" font-weight="400" text-anchor="start" x="1673.0000" y="453.0000" font-size="83.0000" ><![CDATA[ ]]></text>
<text  clip-path="url(#clip-1804289383)" font-family="Arial" fill="#000000" style ="white-space:pre;" font-weight="400" text-anchor="start" x="1697.0000" y="453.0000" font-size="83.0000" ><![CDATA[REQUEST]]></text>
<text  clip-path="url(#clip-1804289383)" font-family="Arial" fill="#000000" style ="white-space:pre;" font-weight="400" text-anchor="start" x="2100.0000" y="453.0000" font-size="83.0000" ><![CDATA[ ]]></text>
<text  clip-path="url(#clip-1804289383)" font-family="Arial" fill="#000000" style ="white-space:pre;" font-weight="400" text-anchor="start" x="290.0000" y="548.0000" font-size="83.0000" ><![CDATA[ ]]></text>
</g>
<g transform="matrix(0.1250 0.0000 0.0000 0.1250 0.0000 0.0000)">
<path d="M 14153.0000,43.0000 L 14153.0000,1703.0000 L 19873.0000,1703.0000 L 19873.0000,43.0000 L 14153.0000,43.0000 Z" stroke-width="1px" stroke="#FFFFFF"  fill="#FFFFFF" />
</g>
<g transform="matrix(1.0000 0.0000 0.0000 1.0000 0.0000 0.0000)">
</g>
<g transform="matrix(0.1250 0.0000 0.0000 0.1250 0.0000 0.0000)">
<path d="M 14153.0000,43.0000 L 14153.0000,1703.0000 L 19873.0000,1703.0000 L 19873.0000,43.0000 Z" stroke="#000000" stroke-width="50.0000"  stroke-linecap="round"  stroke-linejoin="miter"  stroke-miterlimit="8.0000" fill="none" />
</g>
<g transform="matrix(1.0000 0.0000 0.0000 1.0000 0.0000 0.0000)">
<defs><clipPath id="clip-846930886"><path d="M 1773.0000,33.0000 L 2481.0000,33.0000 L 2481.0000,186.0000 L 1773.0000,186.0000 L 1773.0000,33.0000 Z Z" /></clipPath></defs>
<text  clip-path="url(#clip-846930886)" font-family="Arial" fill="#000000" style ="white-space:pre;" font-weight="400" text-anchor="start" x="1941.0000" y="127.0000" font-size="100.0000" ><![CDATA[gNB]]></text>
<text  clip-path="url(#clip-846930886)" font-family="Arial" fill="#000000" style ="white-space:pre;" font-weight="400" text-anchor="start" x="2136.0000" y="127.0000" font-size="100.0000" ><![CDATA[-]]></text>
<text  clip-path="url(#clip-846930886)" font-family="Arial" fill="#000000" style ="white-space:pre;" font-weight="400" text-anchor="start" x="2169.0000" y="127.0000" font-size="100.0000" ><![CDATA[D]]></text>
<text  clip-path="url(#clip-846930886)" font-family="Arial" fill="#000000" style ="white-space:pre;" font-weight="400" text-anchor="start" x="2241.0000" y="127.0000" font-size="100.0000" ><![CDATA[U]]></text>
<text  clip-path="url(#clip-846930886)" font-family="Arial" fill="#000000" style ="white-space:pre;" font-weight="400" text-anchor="start" x="2313.0000" y="127.0000" font-size="92.0000" ><![CDATA[ ]]></text>
</g>
<g transform="matrix(0.1250 0.0000 0.0000 0.1250 0.0000 0.0000)">
<path d="M 17033.0000,3976.0000 L 2046.0000,3976.0000 L 2046.0000,3910.0000 L 17033.0000,3910.0000 L 17033.0000,3976.0000 Z M 2113.0000,4143.0000 L 1713.0000,3943.0000 L 2113.0000,3743.0000 L 2113.0000,4143.0000 Z "  fill="#000000" stroke="#000000" stroke-width="8.0000"  stroke-linecap="butt"  stroke-linejoin="bevel" />
</g>
<g transform="matrix(1.0000 0.0000 0.0000 1.0000 0.0000 0.0000)">
</g>
<g transform="matrix(0.0625 0.0000 0.0000 0.0625 0.0000 0.0000)">
<path d="M -2294.0000,-114.0000 L -2294.0000,3206.0000 L 9146.0000,3206.0000 L 9146.0000,-114.0000 L -2294.0000,-114.0000 Z" stroke-width="1px" stroke="#FFFFFF"  fill="#FFFFFF" />
</g>
<g transform="matrix(1.0000 0.0000 0.0000 1.0000 0.0000 0.0000)">
</g>
<g transform="matrix(0.0625 0.0000 0.0000 0.0625 0.0000 0.0000)">
<path d="M -2294.0000,-114.0000 L -2294.0000,3206.0000 L 9146.0000,3206.0000 L 9146.0000,-114.0000 Z" stroke="#000000" stroke-width="100.0000"  stroke-linecap="round"  stroke-linejoin="miter"  stroke-miterlimit="8.0000" fill="none" />
</g>
<g transform="matrix(1.0000 0.0000 0.0000 1.0000 0.0000 0.0000)">
<defs><clipPath id="clip-1681692777"><path d="M -140.0000,21.0000 L 569.0000,21.0000 L 569.0000,174.0000 L -140.0000,174.0000 L -140.0000,21.0000 Z Z" /></clipPath></defs>
<text  clip-path="url(#clip-1681692777)" font-family="Arial" fill="#000000" style ="white-space:pre;" font-weight="400" text-anchor="start" x="28.0000" y="115.0000" font-size="100.0000" ><![CDATA[gNB]]></text>
<text  clip-path="url(#clip-1681692777)" font-family="Arial" fill="#000000" style ="white-space:pre;" font-weight="400" text-anchor="start" x="223.0000" y="115.0000" font-size="100.0000" ><![CDATA[-]]></text>
<text  clip-path="url(#clip-1681692777)" font-family="Arial" fill="#000000" style ="white-space:pre;" font-weight="400" text-anchor="start" x="256.0000" y="115.0000" font-size="100.0000" ><![CDATA[C]]></text>
<text  clip-path="url(#clip-1681692777)" font-family="Arial" fill="#000000" style ="white-space:pre;" font-weight="400" text-anchor="start" x="328.0000" y="115.0000" font-size="100.0000" ><![CDATA[U]]></text>
<text  clip-path="url(#clip-1681692777)" font-family="Arial" fill="#000000" style ="white-space:pre;" font-weight="400" text-anchor="start" x="400.0000" y="115.0000" font-size="92.0000" ><![CDATA[ ]]></text>
<defs><clipPath id="clip-1714636915"><path d="M 240.0000,627.0000 L 2253.0000,627.0000 L 2253.0000,746.0000 L 240.0000,746.0000 L 240.0000,627.0000 Z Z" /></clipPath></defs>
<text  clip-path="url(#clip-1714636915)" font-family="Arial" fill="#000000" style ="white-space:pre;" font-weight="400" text-anchor="start" x="240.0000" y="705.0000" font-size="83.0000" ><![CDATA[MULTICAST]]></text>
<text  clip-path="url(#clip-1714636915)" font-family="Arial" fill="#000000" style ="white-space:pre;" font-weight="400" text-anchor="start" x="711.0000" y="705.0000" font-size="83.0000" ><![CDATA[ ]]></text>
<text  clip-path="url(#clip-1714636915)" font-family="Arial" fill="#000000" style ="white-space:pre;" font-weight="400" text-anchor="start" x="735.0000" y="705.0000" font-size="83.0000" ><![CDATA[DISTRIBUTION]]></text>
<text  clip-path="url(#clip-1714636915)" font-family="Arial" fill="#000000" style ="white-space:pre;" font-weight="400" text-anchor="start" x="1323.0000" y="705.0000" font-size="83.0000" ><![CDATA[ ]]></text>
<text  clip-path="url(#clip-1714636915)" font-family="Arial" fill="#000000" style ="white-space:pre;" font-weight="400" text-anchor="start" x="1346.0000" y="705.0000" font-size="83.0000" ><![CDATA[S]]></text>
<text  clip-path="url(#clip-1714636915)" font-family="Arial" fill="#000000" style ="white-space:pre;" font-weight="400" text-anchor="start" x="1402.0000" y="705.0000" font-size="83.0000" ><![CDATA[ETUP]]></text>
<text  clip-path="url(#clip-1714636915)" font-family="Arial" fill="#000000" style ="white-space:pre;" font-weight="400" text-anchor="start" x="1623.0000" y="705.0000" font-size="83.0000" ><![CDATA[ ]]></text>
<text  clip-path="url(#clip-1714636915)" font-family="Arial" fill="#000000" style ="white-space:pre;" font-weight="400" text-anchor="start" x="1647.0000" y="705.0000" font-size="83.0000" ><![CDATA[RE]]></text>
<text  clip-path="url(#clip-1714636915)" font-family="Arial" fill="#000000" style ="white-space:pre;" font-weight="400" text-anchor="start" x="1763.0000" y="705.0000" font-size="83.0000" ><![CDATA[SPONSE]]></text>
<text  clip-path="url(#clip-1714636915)" font-family="Arial" fill="#000000" style ="white-space:pre;" font-weight="400" text-anchor="start" x="2110.0000" y="705.0000" font-size="83.0000" ><![CDATA[ ]]></text>
</g>
</g>
</svg>
