<?xml version="1.0"  encoding="UTF-8" standalone="no"?>
<svg version="1.1" xmlns="http://www.w3.org/2000/svg" xmlns:xlink="http://www.w3.org/1999/xlink" width="1666.0000" height="680.0000">
<g transform="translate(18.0000, 20.0000)">
<text font-family="Times New Roman" fill="#000000" style ="white-space:pre;" font-weight="400" text-anchor="start" x="0.0000" y="54.0000" font-size="58.0000" ><![CDATA[ ]]></text>
<g transform="matrix(0.0625 0.0000 0.0000 0.0625 0.0000 0.0000)">
<path d="M 24279.0000,1752.0000 L 24283.0000,9845.0000 " stroke="#000000" stroke-width="58.0000"  stroke-linecap="butt"  stroke-linejoin="round" fill="none" />
</g>
<g transform="matrix(1.0000 0.0000 0.0000 1.0000 0.0000 0.0000)">
</g>
<g transform="matrix(0.0625 0.0000 0.0000 0.0625 0.0000 0.0000)">
<path d="M 2030.0000,1779.0000 L 2034.0000,9872.0000 " stroke="#000000" stroke-width="58.0000"  stroke-linecap="butt"  stroke-linejoin="round" fill="none" />
</g>
<g transform="matrix(1.0000 0.0000 0.0000 1.0000 0.0000 0.0000)">
</g>
<g transform="matrix(0.0625 0.0000 0.0000 0.0625 0.0000 0.0000)">
<path d="M 74.0000,47.0000 L 74.0000,2819.0000 L 3983.0000,2819.0000 L 3983.0000,47.0000 L 74.0000,47.0000 Z" stroke-width="1px" stroke="#FFFFFF"  fill="#FFFFFF" />
</g>
<g transform="matrix(1.0000 0.0000 0.0000 1.0000 0.0000 0.0000)">
</g>
<g transform="matrix(0.0625 0.0000 0.0000 0.0625 0.0000 0.0000)">
<path d="M 74.0000,47.0000 L 74.0000,2819.0000 L 3983.0000,2819.0000 L 3983.0000,47.0000 Z" stroke="#000000" stroke-width="58.0000"  stroke-linecap="round"  stroke-linejoin="miter"  stroke-miterlimit="8.0000" fill="none" />
</g>
<g transform="matrix(1.0000 0.0000 0.0000 1.0000 0.0000 0.0000)">
<defs><clipPath id="clip-1804289383"><path d="M 7.0000,19.0000 L 247.0000,19.0000 L 247.0000,161.0000 L 7.0000,161.0000 L 7.0000,19.0000 Z Z" /></clipPath></defs>
<text  clip-path="url(#clip-1804289383)" font-family="Arial" fill="#000000" style ="white-space:pre;" font-weight="400" text-anchor="start" x="28.0000" y="69.0000" font-size="53.0000" ><![CDATA[gNB]]></text>
<text  clip-path="url(#clip-1804289383)" font-family="Arial" fill="#000000" style ="white-space:pre;" font-weight="400" text-anchor="start" x="130.0000" y="69.0000" font-size="53.0000" ><![CDATA[-]]></text>
<text  clip-path="url(#clip-1804289383)" font-family="Arial" fill="#000000" style ="white-space:pre;" font-weight="400" text-anchor="start" x="149.0000" y="69.0000" font-size="53.0000" ><![CDATA[DU]]></text>
<text  clip-path="url(#clip-1804289383)" font-family="Arial" fill="#000000" style ="white-space:pre;" font-weight="400" text-anchor="start" x="226.0000" y="69.0000" font-size="53.0000" ><![CDATA[ ]]></text>
</g>
<g transform="matrix(0.0625 0.0000 0.0000 0.0625 0.0000 0.0000)">
<path d="M 2363.0000,5019.0000 L 24236.0000,5019.0000 L 24236.0000,5096.0000 L 2363.0000,5096.0000 L 2363.0000,5019.0000 Z M 2440.0000,5290.0000 L 1976.0000,5058.0000 L 2440.0000,4826.0000 L 2440.0000,5290.0000 Z "  fill="#000000" stroke="#000000" stroke-width="16.0000"  stroke-linecap="butt"  stroke-linejoin="bevel" />
</g>
<g transform="matrix(1.0000 0.0000 0.0000 1.0000 0.0000 0.0000)">
</g>
<g transform="matrix(0.0625 0.0000 0.0000 0.0625 0.0000 0.0000)">
<path d="M 213.0000,9744.0000 L 213.0000,10185.0000 L 3519.0000,10185.0000 L 3519.0000,9744.0000 L 213.0000,9744.0000 Z" stroke-width="1px" stroke="#000000"  fill="#000000" />
</g>
<g transform="matrix(1.0000 0.0000 0.0000 1.0000 0.0000 0.0000)">
</g>
<g transform="matrix(0.0625 0.0000 0.0000 0.0625 0.0000 0.0000)">
<path d="M 213.0000,9744.0000 L 213.0000,10185.0000 L 3519.0000,10185.0000 L 3519.0000,9744.0000 Z" stroke="#000000" stroke-width="58.0000"  stroke-linecap="round"  stroke-linejoin="miter"  stroke-miterlimit="8.0000" fill="none" />
</g>
<g transform="matrix(1.0000 0.0000 0.0000 1.0000 0.0000 0.0000)">
</g>
<g transform="matrix(0.0625 0.0000 0.0000 0.0625 0.0000 0.0000)">
<path d="M 22473.0000,9744.0000 L 22473.0000,10185.0000 L 25779.0000,10185.0000 L 25779.0000,9744.0000 L 22473.0000,9744.0000 Z" stroke-width="1px" stroke="#000000"  fill="#000000" />
</g>
<g transform="matrix(1.0000 0.0000 0.0000 1.0000 0.0000 0.0000)">
</g>
<g transform="matrix(0.0625 0.0000 0.0000 0.0625 0.0000 0.0000)">
<path d="M 22473.0000,9744.0000 L 22473.0000,10185.0000 L 25779.0000,10185.0000 L 25779.0000,9744.0000 Z" stroke="#000000" stroke-width="58.0000"  stroke-linecap="round"  stroke-linejoin="miter"  stroke-miterlimit="8.0000" fill="none" />
</g>
<g transform="matrix(1.0000 0.0000 0.0000 1.0000 0.0000 0.0000)">
</g>
<g transform="matrix(0.0625 0.0000 0.0000 0.0625 0.0000 0.0000)">
<path d="M 1976.0000,7444.0000 L 23850.0000,7444.0000 L 23850.0000,7521.0000 L 1976.0000,7521.0000 L 1976.0000,7444.0000 Z M 23772.0000,7250.0000 L 24236.0000,7482.0000 L 23772.0000,7714.0000 L 23772.0000,7250.0000 Z "  fill="#000000" stroke="#000000" stroke-width="16.0000"  stroke-linecap="butt"  stroke-linejoin="bevel" />
</g>
<g transform="matrix(1.0000 0.0000 0.0000 1.0000 0.0000 0.0000)">
<defs><clipPath id="clip-846930886"><path d="M 151.0000,389.0000 L 1460.0000,389.0000 L 1460.0000,454.0000 L 151.0000,454.0000 L 151.0000,389.0000 Z Z" /></clipPath></defs>
<text  clip-path="url(#clip-846930886)" font-family="Arial" fill="#000000" style ="white-space:pre;" font-weight="400" text-anchor="start" x="309.0000" y="439.0000" font-size="53.0000" ><![CDATA[POSITIONING]]></text>
<text  clip-path="url(#clip-846930886)" font-family="Arial" fill="#000000" style ="white-space:pre;" font-weight="400" text-anchor="start" x="657.0000" y="439.0000" font-size="53.0000" ><![CDATA[ ]]></text>
<text  clip-path="url(#clip-846930886)" font-family="Arial" fill="#000000" style ="white-space:pre;" font-weight="400" text-anchor="start" x="672.0000" y="439.0000" font-size="53.0000" ><![CDATA[ACTIVATION ]]></text>
<text  clip-path="url(#clip-846930886)" font-family="Arial" fill="#000000" style ="white-space:pre;" font-weight="400" text-anchor="start" x="1006.0000" y="439.0000" font-size="53.0000" ><![CDATA[RESPONSE]]></text>
<text  clip-path="url(#clip-846930886)" font-family="Arial" fill="#000000" style ="white-space:pre;" font-weight="400" text-anchor="start" x="1302.0000" y="439.0000" font-size="53.0000" ><![CDATA[ ]]></text>
</g>
<g transform="matrix(0.0625 0.0000 0.0000 0.0625 0.0000 0.0000)">
<path d="M 22090.0000,47.0000 L 22090.0000,2819.0000 L 26000.0000,2819.0000 L 26000.0000,47.0000 L 22090.0000,47.0000 Z" stroke-width="1px" stroke="#FFFFFF"  fill="#FFFFFF" />
</g>
<g transform="matrix(1.0000 0.0000 0.0000 1.0000 0.0000 0.0000)">
</g>
<g transform="matrix(0.0625 0.0000 0.0000 0.0625 0.0000 0.0000)">
<path d="M 22090.0000,47.0000 L 22090.0000,2819.0000 L 26000.0000,2819.0000 L 26000.0000,47.0000 Z" stroke="#000000" stroke-width="58.0000"  stroke-linecap="round"  stroke-linejoin="miter"  stroke-miterlimit="8.0000" fill="none" />
</g>
<g transform="matrix(1.0000 0.0000 0.0000 1.0000 0.0000 0.0000)">
<defs><clipPath id="clip-1681692777"><path d="M 1383.0000,19.0000 L 1623.0000,19.0000 L 1623.0000,161.0000 L 1383.0000,161.0000 L 1383.0000,19.0000 Z Z" /></clipPath></defs>
<text  clip-path="url(#clip-1681692777)" font-family="Arial" fill="#000000" style ="white-space:pre;" font-weight="400" text-anchor="start" x="1404.0000" y="69.0000" font-size="53.0000" ><![CDATA[gNB]]></text>
<text  clip-path="url(#clip-1681692777)" font-family="Arial" fill="#000000" style ="white-space:pre;" font-weight="400" text-anchor="start" x="1506.0000" y="69.0000" font-size="53.0000" ><![CDATA[-]]></text>
<text  clip-path="url(#clip-1681692777)" font-family="Arial" fill="#000000" style ="white-space:pre;" font-weight="400" text-anchor="start" x="1525.0000" y="69.0000" font-size="53.0000" ><![CDATA[CU]]></text>
<text  clip-path="url(#clip-1681692777)" font-family="Arial" fill="#000000" style ="white-space:pre;" font-weight="400" text-anchor="start" x="1602.0000" y="69.0000" font-size="53.0000" ><![CDATA[ ]]></text>
<defs><clipPath id="clip-1714636915"><path d="M 165.0000,234.0000 L 1474.0000,234.0000 L 1474.0000,299.0000 L 165.0000,299.0000 L 165.0000,234.0000 Z Z" /></clipPath></defs>
<text  clip-path="url(#clip-1714636915)" font-family="Arial" fill="#000000" style ="white-space:pre;" font-weight="400" text-anchor="start" x="342.0000" y="284.0000" font-size="53.0000" ><![CDATA[POSITIONING]]></text>
<text  clip-path="url(#clip-1714636915)" font-family="Arial" fill="#000000" style ="white-space:pre;" font-weight="400" text-anchor="start" x="690.0000" y="284.0000" font-size="53.0000" ><![CDATA[ ]]></text>
<text  clip-path="url(#clip-1714636915)" font-family="Arial" fill="#000000" style ="white-space:pre;" font-weight="400" text-anchor="start" x="705.0000" y="284.0000" font-size="53.0000" ><![CDATA[ACTIVATION]]></text>
<text  clip-path="url(#clip-1714636915)" font-family="Arial" fill="#000000" style ="white-space:pre;" font-weight="400" text-anchor="start" x="1023.0000" y="284.0000" font-size="53.0000" ><![CDATA[ ]]></text>
<text  clip-path="url(#clip-1714636915)" font-family="Arial" fill="#000000" style ="white-space:pre;" font-weight="400" text-anchor="start" x="1039.0000" y="284.0000" font-size="53.0000" ><![CDATA[REQUEST]]></text>
<text  clip-path="url(#clip-1714636915)" font-family="Arial" fill="#000000" style ="white-space:pre;" font-weight="400" text-anchor="start" x="1296.0000" y="284.0000" font-size="53.0000" ><![CDATA[ ]]></text>
</g>
</g>
</svg>
