<?xml version="1.0"  encoding="UTF-8" standalone="no"?>
<svg version="1.1" xmlns="http://www.w3.org/2000/svg" xmlns:xlink="http://www.w3.org/1999/xlink" width="2314.0000" height="1118.0000">
<g transform="translate(12.0000, 12.0000)">
<text font-family="Calibri" fill="#000000" style ="white-space:pre;" font-weight="400" text-anchor="start" x="0.0000" y="87.0000" font-size="92.0000" ><![CDATA[ ]]></text>
<defs><clipPath id="clip-1804289383"><path d="M 17.0000,17.0000 L 42.0000,17.0000 L 42.0000,204.0000 L 17.0000,204.0000 L 17.0000,17.0000 Z Z" /></clipPath></defs>
<text  clip-path="url(#clip-1804289383)" font-family="Arial" fill="#000000" style ="white-space:pre;" font-weight="400" text-anchor="start" x="17.0000" y="104.0000" font-size="92.0000" ><![CDATA[ ]]></text>
<text  clip-path="url(#clip-1804289383)" font-family="Calibri" fill="#000000" style ="white-space:pre;" font-weight="400" text-anchor="start" x="42.0000" y="104.0000" font-size="92.0000" ><![CDATA[ ]]></text>
<defs><clipPath id="clip-846930886"><path d="M 222.0000,746.0000 L 2094.0000,746.0000 L 2094.0000,927.0000 L 222.0000,927.0000 L 222.0000,746.0000 Z Z" /></clipPath></defs>
<text  clip-path="url(#clip-846930886)" font-family="Arial" fill="#000000" style ="white-space:pre;" font-weight="400" text-anchor="start" x="222.0000" y="832.0000" font-size="92.0000" ><![CDATA[UE CONTEXT MODIFICATION ]]></text>
<text  clip-path="url(#clip-846930886)" font-family="Arial" fill="#000000" style ="white-space:pre;" font-weight="400" text-anchor="start" x="1532.0000" y="832.0000" font-size="92.0000" ><![CDATA[REFUSE]]></text>
<text  clip-path="url(#clip-846930886)" font-family="Calibri" fill="#000000" style ="white-space:pre;" font-weight="400" text-anchor="start" x="1902.0000" y="832.0000" font-size="92.0000" ><![CDATA[ ]]></text>
<defs><clipPath id="clip-1681692777"><path d="M 1972.0000,746.0000 L 1998.0000,746.0000 L 1998.0000,934.0000 L 1972.0000,934.0000 L 1972.0000,746.0000 Z Z" /></clipPath></defs>
<text  clip-path="url(#clip-1681692777)" font-family="Arial" fill="#000000" style ="white-space:pre;" font-weight="400" text-anchor="start" x="1972.0000" y="833.0000" font-size="92.0000" ><![CDATA[ ]]></text>
<text  clip-path="url(#clip-1681692777)" font-family="Calibri" fill="#000000" style ="white-space:pre;" font-weight="400" text-anchor="start" x="1997.0000" y="833.0000" font-size="92.0000" ><![CDATA[ ]]></text>
<defs><clipPath id="clip-1714636915"><path d="M 222.0000,384.0000 L 2094.0000,384.0000 L 2094.0000,564.0000 L 222.0000,564.0000 L 222.0000,384.0000 Z Z" /></clipPath></defs>
<text  clip-path="url(#clip-1714636915)" font-family="Arial" fill="#000000" style ="white-space:pre;" font-weight="400" text-anchor="start" x="222.0000" y="470.0000" font-size="92.0000" ><![CDATA[UE ]]></text>
<text  clip-path="url(#clip-1714636915)" font-family="Arial" fill="#000000" style ="white-space:pre;" font-weight="400" text-anchor="start" x="375.0000" y="470.0000" font-size="92.0000" ><![CDATA[CONTEXT MODIFICATION REQUIRED]]></text>
<text  clip-path="url(#clip-1714636915)" font-family="Calibri" fill="#000000" style ="white-space:pre;" font-weight="400" text-anchor="start" x="2014.0000" y="470.0000" font-size="92.0000" ><![CDATA[ ]]></text>
<defs><clipPath id="clip-1957747793"><path d="M 2025.0000,384.0000 L 2051.0000,384.0000 L 2051.0000,571.0000 L 2025.0000,571.0000 L 2025.0000,384.0000 Z Z" /></clipPath></defs>
<text  clip-path="url(#clip-1957747793)" font-family="Arial" fill="#000000" style ="white-space:pre;" font-weight="400" text-anchor="start" x="2025.0000" y="471.0000" font-size="92.0000" ><![CDATA[ ]]></text>
<text  clip-path="url(#clip-1957747793)" font-family="Calibri" fill="#000000" style ="white-space:pre;" font-weight="400" text-anchor="start" x="2050.0000" y="471.0000" font-size="92.0000" ><![CDATA[ ]]></text>
<g transform="matrix(0.0625 0.0000 0.0000 0.0625 0.0000 0.0000)">
<path d="M 312.0000,319.0000 L 312.0000,3159.0000 L 8352.0000,3159.0000 L 8352.0000,319.0000 L 312.0000,319.0000 Z" stroke-width="1px" stroke="#FFFFFF"  fill="#FFFFFF" />
</g>
<g transform="matrix(1.0000 0.0000 0.0000 1.0000 0.0000 0.0000)">
<defs><clipPath id="clip-424238335"><path d="M 20.0000,50.0000 L 522.0000,50.0000 L 522.0000,167.0000 L 20.0000,167.0000 L 20.0000,50.0000 Z Z" /></clipPath></defs>
<text  clip-path="url(#clip-424238335)" font-family="Arial" fill="#000000" style ="white-space:pre;" font-weight="400" text-anchor="start" x="100.0000" y="136.0000" font-size="92.0000" ><![CDATA[g]]></text>
<text  clip-path="url(#clip-424238335)" font-family="Arial" fill="#000000" style ="white-space:pre;" font-weight="400" text-anchor="start" x="152.0000" y="136.0000" font-size="92.0000" ><![CDATA[NB]]></text>
<text  clip-path="url(#clip-424238335)" font-family="Arial" fill="#000000" style ="white-space:pre;" font-weight="400" text-anchor="start" x="279.0000" y="136.0000" font-size="92.0000" ><![CDATA[-]]></text>
<text  clip-path="url(#clip-424238335)" font-family="Arial" fill="#000000" style ="white-space:pre;" font-weight="400" text-anchor="start" x="310.0000" y="136.0000" font-size="92.0000" ><![CDATA[D]]></text>
<text  clip-path="url(#clip-424238335)" font-family="Arial" fill="#000000" style ="white-space:pre;" font-weight="400" text-anchor="start" x="376.0000" y="136.0000" font-size="92.0000" ><![CDATA[U]]></text>
<text  clip-path="url(#clip-424238335)" font-family="Arial" fill="#000000" style ="white-space:pre;" font-weight="400" text-anchor="start" x="441.0000" y="136.0000" font-size="92.0000" ><![CDATA[ ]]></text>
</g>
<g transform="matrix(0.0625 0.0000 0.0000 0.0625 0.0000 0.0000)">
<path d="M 312.0000,319.0000 L 312.0000,3159.0000 L 8352.0000,3159.0000 L 8352.0000,319.0000 Z" stroke="#000000" stroke-width="93.0000"  stroke-linecap="round"  stroke-linejoin="miter"  stroke-miterlimit="8.0000" fill="none" />
</g>
<g transform="matrix(1.0000 0.0000 0.0000 1.0000 0.0000 0.0000)">
<defs><clipPath id="clip-719885386"><path d="M 442.0000,55.0000 L 467.0000,55.0000 L 467.0000,242.0000 L 442.0000,242.0000 L 442.0000,55.0000 Z Z" /></clipPath></defs>
<text  clip-path="url(#clip-719885386)" font-family="Arial" fill="#000000" style ="white-space:pre;" font-weight="400" text-anchor="start" x="442.0000" y="142.0000" font-size="92.0000" ><![CDATA[ ]]></text>
<text  clip-path="url(#clip-719885386)" font-family="Calibri" fill="#000000" style ="white-space:pre;" font-weight="400" text-anchor="start" x="467.0000" y="142.0000" font-size="92.0000" ><![CDATA[ ]]></text>
</g>
<g transform="matrix(0.1250 0.0000 0.0000 0.1250 0.0000 0.0000)">
<path d="M 14130.0000,160.0000 L 14130.0000,1580.0000 L 18063.0000,1580.0000 L 18063.0000,160.0000 L 14130.0000,160.0000 Z" stroke-width="1px" stroke="#FFFFFF"  fill="#FFFFFF" />
</g>
<g transform="matrix(1.0000 0.0000 0.0000 1.0000 0.0000 0.0000)">
</g>
<g transform="matrix(0.1250 0.0000 0.0000 0.1250 0.0000 0.0000)">
<path d="M 14130.0000,160.0000 L 14130.0000,1580.0000 L 18063.0000,1580.0000 L 18063.0000,160.0000 Z" stroke="#000000" stroke-width="47.0000"  stroke-linecap="round"  stroke-linejoin="miter"  stroke-miterlimit="8.0000" fill="none" />
</g>
<g transform="matrix(1.0000 0.0000 0.0000 1.0000 0.0000 0.0000)">
<defs><clipPath id="clip-1649760492"><path d="M 1769.0000,53.0000 L 2255.0000,53.0000 L 2255.0000,164.0000 L 1769.0000,164.0000 L 1769.0000,53.0000 Z Z" /></clipPath></defs>
<text  clip-path="url(#clip-1649760492)" font-family="Arial" fill="#000000" style ="white-space:pre;" font-weight="400" text-anchor="start" x="1841.0000" y="139.0000" font-size="92.0000" ><![CDATA[gNB]]></text>
<text  clip-path="url(#clip-1649760492)" font-family="Arial" fill="#000000" style ="white-space:pre;" font-weight="400" text-anchor="start" x="2020.0000" y="139.0000" font-size="92.0000" ><![CDATA[-]]></text>
<text  clip-path="url(#clip-1649760492)" font-family="Arial" fill="#000000" style ="white-space:pre;" font-weight="400" text-anchor="start" x="2051.0000" y="139.0000" font-size="92.0000" ><![CDATA[CU]]></text>
<text  clip-path="url(#clip-1649760492)" font-family="Arial" fill="#000000" style ="white-space:pre;" font-weight="400" text-anchor="start" x="2182.0000" y="139.0000" font-size="92.0000" ><![CDATA[ ]]></text>
<defs><clipPath id="clip-596516649"><path d="M 2171.0000,55.0000 L 2197.0000,55.0000 L 2197.0000,242.0000 L 2171.0000,242.0000 L 2171.0000,55.0000 Z Z" /></clipPath></defs>
<text  clip-path="url(#clip-596516649)" font-family="Arial" fill="#000000" style ="white-space:pre;" font-weight="400" text-anchor="start" x="2171.0000" y="142.0000" font-size="92.0000" ><![CDATA[ ]]></text>
<text  clip-path="url(#clip-596516649)" font-family="Calibri" fill="#000000" style ="white-space:pre;" font-weight="400" text-anchor="start" x="2196.0000" y="142.0000" font-size="92.0000" ><![CDATA[ ]]></text>
</g>
<g transform="matrix(0.0625 0.0000 0.0000 0.0625 0.0000 0.0000)">
<path d="M 3386.0000,3172.0000 L 3392.0000,16432.0000 " stroke="#000000" stroke-width="93.0000"  stroke-linecap="butt"  stroke-linejoin="round" fill="none" />
</g>
<g transform="matrix(1.0000 0.0000 0.0000 1.0000 0.0000 0.0000)">
</g>
<g transform="matrix(0.1250 0.0000 0.0000 0.1250 0.0000 0.0000)">
<path d="M 16753.0000,1603.0000 L 16756.0000,8233.0000 " stroke="#000000" stroke-width="47.0000"  stroke-linecap="butt"  stroke-linejoin="round" fill="none" />
</g>
<g transform="matrix(1.0000 0.0000 0.0000 1.0000 0.0000 0.0000)">
</g>
<g transform="matrix(0.0625 0.0000 0.0000 0.0625 0.0000 0.0000)">
<path d="M 492.0000,16432.0000 L 492.0000,17186.0000 L 6146.0000,17186.0000 L 6146.0000,16432.0000 L 492.0000,16432.0000 Z" stroke-width="1px" stroke="#000000"  fill="#000000" />
</g>
<g transform="matrix(1.0000 0.0000 0.0000 1.0000 0.0000 0.0000)">
</g>
<g transform="matrix(0.0625 0.0000 0.0000 0.0625 0.0000 0.0000)">
<path d="M 492.0000,16432.0000 L 492.0000,17186.0000 L 6146.0000,17186.0000 L 6146.0000,16432.0000 Z" stroke="#000000" stroke-width="93.0000"  stroke-linecap="round"  stroke-linejoin="miter"  stroke-miterlimit="8.0000" fill="none" />
</g>
<g transform="matrix(1.0000 0.0000 0.0000 1.0000 0.0000 0.0000)">
</g>
<g transform="matrix(0.1250 0.0000 0.0000 0.1250 0.0000 0.0000)">
<path d="M 15330.0000,8216.0000 L 15330.0000,8593.0000 L 18160.0000,8593.0000 L 18160.0000,8216.0000 L 15330.0000,8216.0000 Z" stroke-width="1px" stroke="#000000"  fill="#000000" />
</g>
<g transform="matrix(1.0000 0.0000 0.0000 1.0000 0.0000 0.0000)">
</g>
<g transform="matrix(0.1250 0.0000 0.0000 0.1250 0.0000 0.0000)">
<path d="M 15330.0000,8216.0000 L 15330.0000,8593.0000 L 18160.0000,8593.0000 L 18160.0000,8216.0000 Z" stroke="#000000" stroke-width="47.0000"  stroke-linecap="round"  stroke-linejoin="miter"  stroke-miterlimit="8.0000" fill="none" />
</g>
<g transform="matrix(1.0000 0.0000 0.0000 1.0000 0.0000 0.0000)">
</g>
<g transform="matrix(0.1250 0.0000 0.0000 0.1250 0.0000 0.0000)">
<path d="M 16496.0000,4560.0000 L 1666.0000,4560.0000 L 1666.0000,4490.0000 L 16496.0000,4490.0000 L 16496.0000,4560.0000 Z M 16423.0000,4330.0000 L 16823.0000,4530.0000 L 16423.0000,4730.0000 L 16423.0000,4330.0000 Z "  fill="#000000" stroke-width="1px" stroke="#000000" />
</g>
<g transform="matrix(1.0000 0.0000 0.0000 1.0000 0.0000 0.0000)">
</g>
<g transform="matrix(0.1250 0.0000 0.0000 0.1250 0.0000 0.0000)">
<path d="M 16496.0000,4560.0000 L 1666.0000,4560.0000 L 1666.0000,4490.0000 L 16496.0000,4490.0000 L 16496.0000,4560.0000 Z" stroke="#000000" stroke-width="8.0000"  stroke-linecap="round"  stroke-linejoin="round" fill="none" />
<path d="M 16423.0000,4330.0000 L 16823.0000,4530.0000 L 16423.0000,4730.0000 L 16423.0000,4330.0000 " stroke="#000000" stroke-width="8.0000"  stroke-linecap="round"  stroke-linejoin="round" fill="none" />
</g>
<g transform="matrix(1.0000 0.0000 0.0000 1.0000 0.0000 0.0000)">
</g>
<g transform="matrix(0.1250 0.0000 0.0000 0.1250 0.0000 0.0000)">
<path d="M 2100.0000,6996.0000 L 16823.0000,6996.0000 L 16823.0000,7063.0000 L 2100.0000,7063.0000 L 2100.0000,6996.0000 Z M 2173.0000,7230.0000 L 1773.0000,7030.0000 L 2173.0000,6830.0000 L 2173.0000,7230.0000 Z "  fill="#000000" stroke-width="1px" stroke="#000000" />
</g>
<g transform="matrix(1.0000 0.0000 0.0000 1.0000 0.0000 0.0000)">
</g>
<g transform="matrix(0.1250 0.0000 0.0000 0.1250 0.0000 0.0000)">
<path d="M 2100.0000,6996.0000 L 16823.0000,6996.0000 L 16823.0000,7063.0000 L 2100.0000,7063.0000 L 2100.0000,6996.0000 Z" stroke="#000000" stroke-width="8.0000"  stroke-linecap="round"  stroke-linejoin="round" fill="none" />
<path d="M 2173.0000,7230.0000 L 1773.0000,7030.0000 L 2173.0000,6830.0000 L 2173.0000,7230.0000 " stroke="#000000" stroke-width="8.0000"  stroke-linecap="round"  stroke-linejoin="round" fill="none" />
</g>
<g transform="matrix(1.0000 0.0000 0.0000 1.0000 0.0000 0.0000)">
</g>
</g>
</svg>
