<?xml version="1.0" encoding="UTF-8" standalone="no"?>
<!DOCTYPE svg PUBLIC "-//W3C//DTD SVG 1.0//EN" "http://www.w3.org/TR/2001/REC-SVG-20010904/DTD/svg10.dtd">
<svg xmlns="http://www.w3.org/2000/svg" xmlns:xlink="http://www.w3.org/1999/xlink" fill-rule="evenodd" height="1.767054908485857in" preserveAspectRatio="none" stroke-linecap="round" viewBox="0 0 2266 1062" width="3.7703826955074877in">
    <style type="text/css">
.brush0 { fill: rgb(255,255,255); }
.pen0 { stroke: rgb(0,0,0); stroke-width: 1; stroke-linejoin: round; }
.font0 { font-weight: bold; font-size: 16px; font-family: System, sans-serif; }
.font1 { font-size: 82px; font-family: Arial, sans-serif; }
.pen1 { stroke: none; }
.pen2 { stroke: rgb(0,0,0); stroke-width: 6; stroke-linejoin: round; }
.brush1 { fill: none; }
.brush2 { fill: rgb(0,0,0); }
</style>
    <g>
        <g>
            <clipPath id="clipPath0">
                <rect height="1063" width="2263" x="0" y="0"/>
            </clipPath>
            <text class="font1" clip-path="url(#clipPath0)" fill="rgb(0,0,0)" stroke="none" style="dominant-baseline: alphabetic;" x="0" xml:lang="en" xml:space="preserve" y="85"> </text>
        </g>
        <g>
            <clipPath id="clipPath1">
                <rect height="135" width="1875" x="221" y="727"/>
            </clipPath>
            <text class="font1" clip-path="url(#clipPath1)" fill="rgb(0,0,0)" stroke="none" style="dominant-baseline: alphabetic;" x="221 287 348 374 440 512 578 635 695 756 812 838 913 985 1051 1077 1133 1159 1224 1285 1342 1367 1439 1505" xml:lang="en" xml:space="preserve" y="813">UE CONTEXT MODIFICATION </text>
        </g>
        <g>
            <clipPath id="clipPath2">
                <rect height="135" width="1875" x="221" y="727"/>
            </clipPath>
            <text class="font1" clip-path="url(#clipPath2)" fill="rgb(0,0,0)" stroke="none" style="dominant-baseline: alphabetic;" x="1531 1596 1668 1734 1790 1816 1882" xml:lang="en" xml:space="preserve" y="813">CONFIRM</text>
        </g>
        <g>
            <clipPath id="clipPath3">
                <rect height="135" width="1875" x="221" y="727"/>
            </clipPath>
            <text class="font1" clip-path="url(#clipPath3)" fill="rgb(0,0,0)" stroke="none" style="dominant-baseline: alphabetic;" x="1957" xml:lang="en" xml:space="preserve" y="813"> </text>
        </g>
    </g>
    <g>
        <g>
            <clipPath id="clipPath4">
                <rect height="135" width="1865" x="218" y="365"/>
            </clipPath>
            <text class="font1" clip-path="url(#clipPath4)" fill="rgb(0,0,0)" stroke="none" style="dominant-baseline: alphabetic;" x="218 284 345" xml:lang="en" xml:space="preserve" y="451">UE </text>
        </g>
        <g>
            <clipPath id="clipPath5">
                <rect height="135" width="1865" x="218" y="365"/>
            </clipPath>
            <text class="font1" clip-path="url(#clipPath5)" fill="rgb(0,0,0)" stroke="none" style="dominant-baseline: alphabetic;" x="371 437 509 575 632 692 753 809" xml:lang="en" xml:space="preserve" y="451">CONTEXT </text>
        </g>
        <g>
            <clipPath id="clipPath6">
                <rect height="135" width="1865" x="218" y="365"/>
            </clipPath>
            <text class="font1" clip-path="url(#clipPath6)" fill="rgb(0,0,0)" stroke="none" style="dominant-baseline: alphabetic;" x="835 910 982 1048 1074 1130 1156 1221 1282 1339 1364 1436 1502 1528 1594 1654 1726" xml:lang="en" xml:space="preserve" y="451">MODIFICATION REQU</text>
        </g>
        <g>
            <clipPath id="clipPath7">
                <rect height="135" width="1865" x="218" y="365"/>
            </clipPath>
            <text class="font1" clip-path="url(#clipPath7)" fill="rgb(0,0,0)" stroke="none" style="dominant-baseline: alphabetic;" x="1792 1818 1884 1945" xml:lang="en" xml:space="preserve" y="451">IRED</text>
        </g>
        <g>
            <clipPath id="clipPath8">
                <rect height="135" width="1865" x="218" y="365"/>
            </clipPath>
            <text class="font1" clip-path="url(#clipPath8)" fill="rgb(0,0,0)" stroke="none" style="dominant-baseline: alphabetic;" x="2010" xml:lang="en" xml:space="preserve" y="451"> </text>
        </g>
    </g>
    <g>
        <polygon class="pen1 brush0" points="3,5 3,182 506,182 506,5 3,5"/>
        <polygon class="pen2 brush1" points="3,5 3,182 506,182 506,5"/>
    </g>
    <g>
        <g>
            <clipPath id="clipPath9">
                <rect height="111" width="496" x="7" y="38"/>
            </clipPath>
            <text class="font1" clip-path="url(#clipPath9)" fill="rgb(0,0,0)" stroke="none" style="dominant-baseline: alphabetic;" x="84 136 202" xml:lang="en" xml:space="preserve" y="123">gNB</text>
        </g>
        <g>
            <clipPath id="clipPath10">
                <rect height="111" width="496" x="7" y="38"/>
            </clipPath>
            <text class="font1" clip-path="url(#clipPath10)" fill="rgb(0,0,0)" stroke="none" style="dominant-baseline: alphabetic;" x="263" xml:lang="en" xml:space="preserve" y="123">-</text>
        </g>
        <g>
            <clipPath id="clipPath11">
                <rect height="111" width="496" x="7" y="38"/>
            </clipPath>
            <text class="font1" clip-path="url(#clipPath11)" fill="rgb(0,0,0)" stroke="none" style="dominant-baseline: alphabetic;" x="294 360" xml:lang="en" xml:space="preserve" y="123">DU</text>
        </g>
        <g>
            <clipPath id="clipPath12">
                <rect height="111" width="496" x="7" y="38"/>
            </clipPath>
            <text class="font1" clip-path="url(#clipPath12)" fill="rgb(0,0,0)" stroke="none" style="dominant-baseline: alphabetic;" x="425" xml:lang="en" xml:space="preserve" y="123"> </text>
        </g>
    </g>
    <g>
        <polygon class="pen1 brush0" points="1751,5 1751,182 2243,182 2243,5 1751,5"/>
        <polygon class="pen2 brush1" points="1751,5 1751,182 2243,182 2243,5"/>
    </g>
    <g>
        <g>
            <clipPath id="clipPath13">
                <rect height="111" width="485" x="1755" y="38"/>
            </clipPath>
            <text class="font1" clip-path="url(#clipPath13)" fill="rgb(0,0,0)" stroke="none" style="dominant-baseline: alphabetic;" x="1815 1867 1933" xml:lang="en" xml:space="preserve" y="123">gNB</text>
        </g>
        <g>
            <clipPath id="clipPath14">
                <rect height="111" width="485" x="1755" y="38"/>
            </clipPath>
            <text class="font1" clip-path="url(#clipPath14)" fill="rgb(0,0,0)" stroke="none" style="dominant-baseline: alphabetic;" x="1994" xml:lang="en" xml:space="preserve" y="123">-</text>
        </g>
        <g>
            <clipPath id="clipPath15">
                <rect height="111" width="485" x="1755" y="38"/>
            </clipPath>
            <text class="font1" clip-path="url(#clipPath15)" fill="rgb(0,0,0)" stroke="none" style="dominant-baseline: alphabetic;" x="2025 2091" xml:lang="en" xml:space="preserve" y="123">CU</text>
        </g>
        <g>
            <clipPath id="clipPath16">
                <rect height="111" width="485" x="1755" y="38"/>
            </clipPath>
            <text class="font1" clip-path="url(#clipPath16)" fill="rgb(0,0,0)" stroke="none" style="dominant-baseline: alphabetic;" x="2156" xml:lang="en" xml:space="preserve" y="123"> </text>
        </g>
    </g>
    <g>
        <polyline class="pen2" fill="none" points="195,183 195,1010"/>
    </g>
    <g>
        <polyline class="pen2" fill="none" points="2079,185 2079,1012"/>
    </g>
    <g>
        <polygon class="pen1 brush2" points="14,1010 14,1057 368,1057 368,1010 14,1010"/>
        <polygon class="pen2 brush1" points="14,1010 14,1057 368,1057 368,1010"/>
    </g>
    <g>
        <polygon class="pen1 brush2" points="1901,1010 1901,1057 2255,1057 2255,1010 1901,1010"/>
        <polygon class="pen2 brush1" points="1901,1010 1901,1057 2255,1057 2255,1010"/>
    </g>
    <g>
        <path class="pen0 brush2" d="M 2047,554  L 192,554 192,545 2047,545 2047,554 z M 2038,525  L 2088,550 2038,575 2038,525 z" fill-rule="nonzero"/>
    </g>
    <g>
        <path class="pen0 brush2" d="M 246,858  L 2088,858 2088,866 246,866 246,858 z M 255,887  L 205,862 255,837 255,887 z" fill-rule="nonzero"/>
    </g>
    <g/>
</svg>
