<?xml version="1.0"  encoding="UTF-8" standalone="no"?>
<svg version="1.1" xmlns="http://www.w3.org/2000/svg" xmlns:xlink="http://www.w3.org/1999/xlink" width="3942.0000" height="2873.0000">
<g transform="translate(3.0000, 3.0000)">
<g transform="matrix(0.1250 0.0000 0.0000 0.1250 0.0000 0.0000)">
<path d="M 20.0000,20.0000 L 20.0000,22916.0000 L 31468.0000,22916.0000 L 31468.0000,20.0000 L 20.0000,20.0000 Z" stroke-width="1px" stroke="#FFFFFF"  fill="#FFFFFF" />
</g>
<g transform="matrix(1.0000 0.0000 0.0000 1.0000 0.0000 0.0000)">
</g>
<g transform="matrix(0.1250 0.0000 0.0000 0.1250 0.0000 0.0000)">
<path d="M 2740.0000,19716.0000 L 25580.0000,19716.0000 M 2740.0000,19348.0000 L 25580.0000,19348.0000 M 2740.0000,18980.0000 L 25580.0000,18980.0000 M 2740.0000,18612.0000 L 25580.0000,18612.0000 M 2740.0000,17876.0000 L 25580.0000,17876.0000 M 2740.0000,17500.0000 L 25580.0000,17500.0000 M 2740.0000,17132.0000 L 25580.0000,17132.0000 M 2740.0000,16764.0000 L 25580.0000,16764.0000 M 2740.0000,16028.0000 L 25580.0000,16028.0000 M 2740.0000,15660.0000 L 25580.0000,15660.0000 M 2740.0000,15292.0000 L 25580.0000,15292.0000 M 2740.0000,14916.0000 L 25580.0000,14916.0000 M 2740.0000,14180.0000 L 25580.0000,14180.0000 M 2740.0000,13812.0000 L 25580.0000,13812.0000 M 2740.0000,13444.0000 L 25580.0000,13444.0000 M 2740.0000,13076.0000 L 25580.0000,13076.0000 M 2740.0000,12332.0000 L 25580.0000,12332.0000 M 2740.0000,11964.0000 L 25580.0000,11964.0000 M 2740.0000,11596.0000 L 25580.0000,11596.0000 M 2740.0000,11228.0000 L 25580.0000,11228.0000 M 2740.0000,10492.0000 L 25580.0000,10492.0000 M 2740.0000,10124.0000 L 25580.0000,10124.0000 M 2740.0000,9748.0000 L 25580.0000,9748.0000 M 2740.0000,9380.0000 L 25580.0000,9380.0000 M 2740.0000,8644.0000 L 25580.0000,8644.0000 M 2740.0000,8276.0000 L 25580.0000,8276.0000 M 2740.0000,7908.0000 L 25580.0000,7908.0000 M 2740.0000,7540.0000 L 25580.0000,7540.0000 M 2740.0000,6796.0000 L 25580.0000,6796.0000 M 2740.0000,6428.0000 L 25580.0000,6428.0000 M 2740.0000,6060.0000 L 25580.0000,6060.0000 M 2740.0000,5692.0000 L 25580.0000,5692.0000 M 2740.0000,4956.0000 L 25580.0000,4956.0000 M 2740.0000,4588.0000 L 25580.0000,4588.0000 M 2740.0000,4212.0000 L 25580.0000,4212.0000 M 2740.0000,3844.0000 L 25580.0000,3844.0000 " stroke="#F2F2F2" stroke-width="50.0000"  stroke-linecap="butt"  stroke-linejoin="round" fill="none" />
</g>
<g transform="matrix(1.0000 0.0000 0.0000 1.0000 0.0000 0.0000)">
</g>
<g transform="matrix(0.1250 0.0000 0.0000 0.1250 0.0000 0.0000)">
<path d="M 2740.0000,20084.0000 L 25580.0000,20084.0000 M 2740.0000,18244.0000 L 25580.0000,18244.0000 M 2740.0000,16396.0000 L 25580.0000,16396.0000 M 2740.0000,14548.0000 L 25580.0000,14548.0000 M 2740.0000,12708.0000 L 25580.0000,12708.0000 M 2740.0000,10860.0000 L 25580.0000,10860.0000 M 2740.0000,9012.0000 L 25580.0000,9012.0000 M 2740.0000,7172.0000 L 25580.0000,7172.0000 M 2740.0000,5324.0000 L 25580.0000,5324.0000 M 2740.0000,3476.0000 L 25580.0000,3476.0000 " stroke="#D9D9D9" stroke-width="50.0000"  stroke-linecap="butt"  stroke-linejoin="round" fill="none" />
</g>
<g transform="matrix(1.0000 0.0000 0.0000 1.0000 0.0000 0.0000)">
</g>
<g transform="matrix(0.1250 0.0000 0.0000 0.1250 0.0000 0.0000)">
<path d="M 3932.0000,18948.0000 L 5020.0000,18948.0000 L 5020.0000,20084.0000 L 3932.0000,20084.0000 L 3932.0000,18948.0000 Z M 11548.0000,17172.0000 L 12628.0000,17172.0000 L 12628.0000,20084.0000 L 11548.0000,20084.0000 L 11548.0000,17172.0000 Z M 19156.0000,14748.0000 L 20244.0000,14748.0000 L 20244.0000,20084.0000 L 19156.0000,20084.0000 L 19156.0000,14748.0000 Z "  fill="#4472C4" stroke-width="1px" stroke="#4472C4" />
</g>
<g transform="matrix(1.0000 0.0000 0.0000 1.0000 0.0000 0.0000)">
</g>
<g transform="matrix(0.1250 0.0000 0.0000 0.1250 0.0000 0.0000)">
<path d="M 5316.0000,18596.0000 L 6404.0000,18596.0000 L 6404.0000,20084.0000 L 5316.0000,20084.0000 L 5316.0000,18596.0000 Z M 12924.0000,17284.0000 L 14012.0000,17284.0000 L 14012.0000,20084.0000 L 12924.0000,20084.0000 L 12924.0000,17284.0000 Z M 20540.0000,14580.0000 L 21628.0000,14580.0000 L 21628.0000,20084.0000 L 20540.0000,20084.0000 L 20540.0000,14580.0000 Z "  fill="#ED7D31" stroke-width="1px" stroke="#ED7D31" />
</g>
<g transform="matrix(1.0000 0.0000 0.0000 1.0000 0.0000 0.0000)">
</g>
<g transform="matrix(0.1250 0.0000 0.0000 0.1250 0.0000 0.0000)">
<path d="M 6692.0000,18108.0000 L 7780.0000,18108.0000 L 7780.0000,20084.0000 L 6692.0000,20084.0000 L 6692.0000,18108.0000 Z M 14308.0000,16892.0000 L 15396.0000,16892.0000 L 15396.0000,20084.0000 L 14308.0000,20084.0000 L 14308.0000,16892.0000 Z M 21916.0000,14132.0000 L 23004.0000,14132.0000 L 23004.0000,20084.0000 L 21916.0000,20084.0000 L 21916.0000,14132.0000 Z "  fill="#A5A5A5" stroke-width="1px" stroke="#A5A5A5" />
</g>
<g transform="matrix(1.0000 0.0000 0.0000 1.0000 0.0000 0.0000)">
</g>
<g transform="matrix(0.1250 0.0000 0.0000 0.1250 0.0000 0.0000)">
<path d="M 8076.0000,17420.0000 L 9164.0000,17420.0000 L 9164.0000,20084.0000 L 8076.0000,20084.0000 L 8076.0000,17420.0000 Z M 15684.0000,16212.0000 L 16772.0000,16212.0000 L 16772.0000,20084.0000 L 15684.0000,20084.0000 L 15684.0000,16212.0000 Z M 23300.0000,13460.0000 L 24388.0000,13460.0000 L 24388.0000,20084.0000 L 23300.0000,20084.0000 L 23300.0000,13460.0000 Z "  fill="#FFC000" stroke-width="1px" stroke="#FFC000" />
</g>
<g transform="matrix(1.0000 0.0000 0.0000 1.0000 0.0000 0.0000)">
</g>
<g transform="matrix(0.1250 0.0000 0.0000 0.1250 0.0000 0.0000)">
<path d="M 2740.0000,20084.0000 L 25580.0000,20084.0000 " stroke="#D9D9D9" stroke-width="50.0000"  stroke-linecap="butt"  stroke-linejoin="round" fill="none" />
</g>
<g transform="matrix(1.0000 0.0000 0.0000 1.0000 0.0000 0.0000)">
</g>
<g transform="matrix(1.0000 0.0000 0.0000 1.0000 117.7566 2532.4192)">
<text font-family="Calibri" fill="#595959" style ="white-space:pre;" font-weight="400" text-anchor="start" x="0.0000" y="0.0000" font-size="75.0000" ><![CDATA[-11.5]]></text>
</g>
<g transform="matrix(1.0000 0.0000 0.0000 1.0000 174.6732 2301.7336)">
<text font-family="Calibri" fill="#595959" style ="white-space:pre;" font-weight="400" text-anchor="start" x="0.0000" y="0.0000" font-size="75.0000" ><![CDATA[-11]]></text>
</g>
<g transform="matrix(1.0000 0.0000 0.0000 1.0000 117.7566 2071.0486)">
<text font-family="Calibri" fill="#595959" style ="white-space:pre;" font-weight="400" text-anchor="start" x="0.0000" y="0.0000" font-size="75.0000" ><![CDATA[-10.5]]></text>
</g>
<g transform="matrix(1.0000 0.0000 0.0000 1.0000 174.6732 1840.3629)">
<text font-family="Calibri" fill="#595959" style ="white-space:pre;" font-weight="400" text-anchor="start" x="0.0000" y="0.0000" font-size="75.0000" ><![CDATA[-10]]></text>
</g>
<g transform="matrix(1.0000 0.0000 0.0000 1.0000 155.7566 1609.6779)">
<text font-family="Calibri" fill="#595959" style ="white-space:pre;" font-weight="400" text-anchor="start" x="0.0000" y="0.0000" font-size="75.0000" ><![CDATA[-9.5]]></text>
</g>
<g transform="matrix(1.0000 0.0000 0.0000 1.0000 212.6732 1378.9921)">
<text font-family="Calibri" fill="#595959" style ="white-space:pre;" font-weight="400" text-anchor="start" x="0.0000" y="0.0000" font-size="75.0000" ><![CDATA[-9]]></text>
</g>
<g transform="matrix(1.0000 0.0000 0.0000 1.0000 155.7566 1148.3071)">
<text font-family="Calibri" fill="#595959" style ="white-space:pre;" font-weight="400" text-anchor="start" x="0.0000" y="0.0000" font-size="75.0000" ><![CDATA[-8.5]]></text>
</g>
<g transform="matrix(1.0000 0.0000 0.0000 1.0000 212.6732 917.6214)">
<text font-family="Calibri" fill="#595959" style ="white-space:pre;" font-weight="400" text-anchor="start" x="0.0000" y="0.0000" font-size="75.0000" ><![CDATA[-8]]></text>
</g>
<g transform="matrix(1.0000 0.0000 0.0000 1.0000 155.7566 686.9363)">
<text font-family="Calibri" fill="#595959" style ="white-space:pre;" font-weight="400" text-anchor="start" x="0.0000" y="0.0000" font-size="75.0000" ><![CDATA[-7.5]]></text>
</g>
<g transform="matrix(1.0000 0.0000 0.0000 1.0000 212.6732 456.2507)">
<text font-family="Calibri" fill="#595959" style ="white-space:pre;" font-weight="400" text-anchor="start" x="0.0000" y="0.0000" font-size="75.0000" ><![CDATA[-7]]></text>
</g>
<g transform="matrix(1.0000 0.0000 0.0000 1.0000 567.6594 2669.7979)">
<text font-family="Calibri" fill="#595959" style ="white-space:pre;" font-weight="400" text-anchor="start" x="0.0000" y="0.0000" font-size="100.0000" ><![CDATA[TDL-C 300ns]]></text>
</g>
<g transform="matrix(1.0000 0.0000 0.0000 1.0000 1542.2100 2669.7979)">
<text font-family="Calibri" fill="#595959" style ="white-space:pre;" font-weight="400" text-anchor="start" x="0.0000" y="0.0000" font-size="100.0000" ><![CDATA[TDL-A 30ns]]></text>
</g>
<g transform="matrix(1.0000 0.0000 0.0000 1.0000 2491.8643 2669.7979)">
<text font-family="Calibri" fill="#595959" style ="white-space:pre;" font-weight="400" text-anchor="start" x="0.0000" y="0.0000" font-size="100.0000" ><![CDATA[TDL-D 30ns]]></text>
</g>
<g transform="matrix(0.0000 -1.0000 1.0000 0.0000 176.4006 1770.9294)">
<text font-family="Calibri" fill="#595959" style ="white-space:pre;" font-weight="400" text-anchor="start" x="0.0000" y="0.0000" font-size="117.0000" ><![CDATA[SNR  [dB]]]></text>
</g>
<g transform="matrix(1.0000 0.0000 0.0000 1.0000 1145.9399 2821.5837)">
<text font-family="Calibri" fill="#595959" style ="white-space:pre;" font-weight="400" text-anchor="start" x="0.0000" y="0.0000" font-size="117.0000" ><![CDATA[Spectral efficiency [bit/Hz]]]></text>
</g>
<g transform="matrix(1.0000 0.0000 0.0000 1.0000 1111.6532 174.3579)">
<text font-family="Calibri" fill="#595959" style ="white-space:pre;" font-weight="400" text-anchor="start" x="0.0000" y="0.0000" font-size="117.0000" ><![CDATA[SNR corresponding to 10% BLER]]></text>
</g>
<g transform="matrix(1.0000 0.0000 0.0000 1.0000 1715.6532 317.3579)">
<text font-family="Calibri" fill="#595959" style ="white-space:pre;" font-weight="400" text-anchor="start" x="0.0000" y="0.0000" font-size="117.0000" ><![CDATA[16PRB]]></text>
</g>
<g transform="matrix(0.1250 0.0000 0.0000 0.1250 0.0000 0.0000)">
<path d="M 25940.0000,7772.0000 L 25940.0000,8172.0000 L 26348.0000,8172.0000 L 26348.0000,7772.0000 L 25940.0000,7772.0000 Z" stroke-width="1px" stroke="#4472C4"  fill="#4472C4" />
</g>
<g transform="matrix(1.0000 0.0000 0.0000 1.0000 0.0000 0.0000)">
</g>
<g transform="matrix(1.0000 0.0000 0.0000 1.0000 3315.7073 1022.9508)">
<text font-family="Calibri" fill="#595959" style ="white-space:pre;" font-weight="400" text-anchor="start" x="0.0000" y="0.0000" font-size="92.0000" ><![CDATA[pi/2 BPSK]]></text>
</g>
<g transform="matrix(0.1250 0.0000 0.0000 0.1250 0.0000 0.0000)">
<path d="M 25940.0000,11140.0000 L 25940.0000,11540.0000 L 26348.0000,11540.0000 L 26348.0000,11140.0000 L 25940.0000,11140.0000 Z" stroke-width="1px" stroke="#ED7D31"  fill="#ED7D31" />
</g>
<g transform="matrix(1.0000 0.0000 0.0000 1.0000 0.0000 0.0000)">
</g>
<g transform="matrix(1.0000 0.0000 0.0000 1.0000 3315.7073 1444.2343)">
<text font-family="Calibri" fill="#595959" style ="white-space:pre;" font-weight="400" text-anchor="start" x="0.0000" y="0.0000" font-size="92.0000" ><![CDATA[pi/2 BPSK FD filt]]></text>
</g>
<g transform="matrix(1.0000 0.0000 0.0000 1.0000 3315.7073 1556.1516)">
<text font-family="Calibri" fill="#595959" style ="white-space:pre;" font-weight="400" text-anchor="start" x="0.0000" y="0.0000" font-size="92.0000" ><![CDATA[(0.2 1 0.2)]]></text>
</g>
<g transform="matrix(0.1250 0.0000 0.0000 0.1250 0.0000 0.0000)">
<path d="M 25940.0000,14508.0000 L 25940.0000,14916.0000 L 26348.0000,14916.0000 L 26348.0000,14508.0000 L 25940.0000,14508.0000 Z" stroke-width="1px" stroke="#A5A5A5"  fill="#A5A5A5" />
</g>
<g transform="matrix(1.0000 0.0000 0.0000 1.0000 0.0000 0.0000)">
</g>
<g transform="matrix(1.0000 0.0000 0.0000 1.0000 3315.7073 1865.5177)">
<text font-family="Calibri" fill="#595959" style ="white-space:pre;" font-weight="400" text-anchor="start" x="0.0000" y="0.0000" font-size="92.0000" ><![CDATA[pi/2 BPSK FD filt]]></text>
</g>
<g transform="matrix(1.0000 0.0000 0.0000 1.0000 3315.7073 1977.4351)">
<text font-family="Calibri" fill="#595959" style ="white-space:pre;" font-weight="400" text-anchor="start" x="0.0000" y="0.0000" font-size="92.0000" ><![CDATA[(0.28 1 0.28)]]></text>
</g>
<g transform="matrix(0.1250 0.0000 0.0000 0.1250 0.0000 0.0000)">
<path d="M 25940.0000,17884.0000 L 25940.0000,18284.0000 L 26348.0000,18284.0000 L 26348.0000,17884.0000 L 25940.0000,17884.0000 Z" stroke-width="1px" stroke="#FFC000"  fill="#FFC000" />
</g>
<g transform="matrix(1.0000 0.0000 0.0000 1.0000 0.0000 0.0000)">
</g>
<g transform="matrix(1.0000 0.0000 0.0000 1.0000 3315.7073 2286.8013)">
<text font-family="Calibri" fill="#595959" style ="white-space:pre;" font-weight="400" text-anchor="start" x="0.0000" y="0.0000" font-size="92.0000" ><![CDATA[pi/2 BPSK FD filt]]></text>
</g>
<g transform="matrix(1.0000 0.0000 0.0000 1.0000 3315.7073 2398.7185)">
<text font-family="Calibri" fill="#595959" style ="white-space:pre;" font-weight="400" text-anchor="start" x="0.0000" y="0.0000" font-size="92.0000" ><![CDATA[(0.335 1 0.335)]]></text>
<defs><clipPath id="clip-1804289383"><path d="M 0.0000,0.0000 L 3937.0000,0.0000 L 3937.0000,2868.0000 L 0.0000,2868.0000 L 0.0000,0.0000 Z Z" /></clipPath></defs>
</g>
<g transform="matrix(0.1250 0.0000 0.0000 0.1250 0.0000 0.0000)">
<path  clip-path="url(#clip-1804289383)" d="M 20.0000,20.0000 L 31468.0000,20.0000 L 31468.0000,22916.0000 L 20.0000,22916.0000 Z" stroke="#D9D9D9" stroke-width="50.0000"  stroke-linecap="butt"  stroke-linejoin="round" fill="none" />
</g>
<g transform="matrix(1.0000 0.0000 0.0000 1.0000 0.0000 0.0000)">
</g>
</g>
</svg>
