<?xml version="1.0"  encoding="UTF-8" standalone="no"?>
<svg version="1.1" xmlns="http://www.w3.org/2000/svg" xmlns:xlink="http://www.w3.org/1999/xlink" width="1597.0000" height="1623.0000">
<g transform="translate(1.0000, -0.0000)">
<text font-family="Times New Roman" fill="#000000" style ="white-space:pre;" font-weight="400" text-anchor="start" x="-1.0000" y="89.0000" font-size="100.0000" ><![CDATA[ ]]></text>
<g transform="matrix(0.0625 0.0000 0.0000 0.0625 0.0000 0.0000)">
<path d="M 9306.0000,3106.0000 L 9306.0000,6626.0000 L 20326.0000,6626.0000 L 20326.0000,3106.0000 L 9306.0000,3106.0000 Z" stroke-width="1px" stroke="#FFFFFF"  fill="#FFFFFF" />
</g>
<g transform="matrix(1.0000 0.0000 0.0000 1.0000 0.0000 0.0000)">
</g>
<g transform="matrix(0.0625 0.0000 0.0000 0.0625 0.0000 0.0000)">
<path d="M 9306.0000,3106.0000 L 9306.0000,6626.0000 L 20326.0000,6626.0000 L 20326.0000,3106.0000 Z" stroke="#000000" stroke-width="100.0000"  stroke-linecap="round"  stroke-linejoin="miter"  stroke-miterlimit="8.0000" fill="none" />
</g>
<g transform="matrix(1.0000 0.0000 0.0000 1.0000 0.0000 0.0000)">
<defs><clipPath id="clip-1804289383"><path d="M 585.0000,228.0000 L 1268.0000,228.0000 L 1268.0000,381.0000 L 585.0000,381.0000 L 585.0000,228.0000 Z Z" /></clipPath></defs>
<text  clip-path="url(#clip-1804289383)" font-family="Times New Roman" fill="#000000" style ="white-space:pre;" font-weight="400" text-anchor="start" x="927.0000" y="305.0000" font-size="83.0000" ><![CDATA[ ]]></text>
</g>
<g transform="matrix(0.0625 0.0000 0.0000 0.0625 0.0000 0.0000)">
<path d="M 4926.0000,8226.0000 L 25446.0000,8226.0000 " stroke="#000000" stroke-width="100.0000"  stroke-linecap="round"  stroke-linejoin="round" fill="none" />
</g>
<g transform="matrix(1.0000 0.0000 0.0000 1.0000 0.0000 0.0000)">
</g>
<g transform="matrix(0.0625 0.0000 0.0000 0.0625 0.0000 0.0000)">
<path d="M -14.0000,3006.0000 L -14.0000,7946.0000 L 8726.0000,7946.0000 L 8726.0000,3006.0000 L -14.0000,3006.0000 Z" stroke-width="1px" stroke="#FFFFFF"  fill="#FFFFFF" />
</g>
<g transform="matrix(1.0000 0.0000 0.0000 1.0000 0.0000 0.0000)">
<defs><clipPath id="clip-846930886"><path d="M -1.0000,194.0000 L 546.0000,194.0000 L 546.0000,491.0000 L -1.0000,491.0000 L -1.0000,194.0000 Z Z" /></clipPath></defs>
<text  clip-path="url(#clip-846930886)" font-family="Times New Roman" fill="#000000" style ="white-space:pre;" font-weight="400" text-anchor="start" x="48.0000" y="250.0000" font-size="83.0000" ><![CDATA[Radio ]]></text>
<text  clip-path="url(#clip-846930886)" font-family="Times New Roman" fill="#000000" style ="white-space:pre;" font-weight="400" text-anchor="start" x="268.0000" y="250.0000" font-size="83.0000" ><![CDATA[ ]]></text>
<text  clip-path="url(#clip-846930886)" font-family="Times New Roman" fill="#000000" style ="white-space:pre;" font-weight="400" text-anchor="start" x="48.0000" y="322.0000" font-size="83.0000" ><![CDATA[Network]]></text>
<text  clip-path="url(#clip-846930886)" font-family="Times New Roman" fill="#000000" style ="white-space:pre;" font-weight="400" text-anchor="start" x="339.0000" y="322.0000" font-size="83.0000" ><![CDATA[ ]]></text>
<text  clip-path="url(#clip-846930886)" font-family="Times New Roman" fill="#000000" style ="white-space:pre;" font-weight="400" text-anchor="start" x="48.0000" y="396.0000" font-size="83.0000" ><![CDATA[Layer]]></text>
<text  clip-path="url(#clip-846930886)" font-family="Times New Roman" fill="#000000" style ="white-space:pre;" font-weight="400" text-anchor="start" x="242.0000" y="396.0000" font-size="83.0000" ><![CDATA[ ]]></text>
</g>
<g transform="matrix(0.0625 0.0000 0.0000 0.0625 0.0000 0.0000)">
<path d="M 14806.0000,6686.0000 L 14806.0000,10126.0000 " stroke="#000000" stroke-width="100.0000"  stroke-linecap="round"  stroke-linejoin="round" fill="none" />
</g>
<g transform="matrix(1.0000 0.0000 0.0000 1.0000 0.0000 0.0000)">
</g>
<g transform="matrix(0.0625 0.0000 0.0000 0.0625 0.0000 0.0000)">
<path d="M 9872.0000,13272.0000 L 9872.0000,16312.0000 L 20892.0000,16312.0000 L 20892.0000,13272.0000 L 9872.0000,13272.0000 Z" stroke-width="1px" stroke="#FFFFFF"  fill="#FFFFFF" />
</g>
<g transform="matrix(1.0000 0.0000 0.0000 1.0000 0.0000 0.0000)">
</g>
<g transform="matrix(0.0625 0.0000 0.0000 0.0625 0.0000 0.0000)">
<path d="M 9872.0000,13272.0000 L 9872.0000,16312.0000 L 20892.0000,16312.0000 L 20892.0000,13272.0000 Z" stroke="#000000" stroke-width="100.0000"  stroke-linecap="round"  stroke-linejoin="miter"  stroke-miterlimit="8.0000" fill="none" />
</g>
<g transform="matrix(1.0000 0.0000 0.0000 1.0000 0.0000 0.0000)">
<defs><clipPath id="clip-1681692777"><path d="M 620.0000,863.0000 L 1303.0000,863.0000 L 1303.0000,986.0000 L 620.0000,986.0000 L 620.0000,863.0000 Z Z" /></clipPath></defs>
<text  clip-path="url(#clip-1681692777)" font-family="Times New Roman" fill="#000000" style ="white-space:pre;" font-weight="400" text-anchor="start" x="878.0000" y="940.0000" font-size="83.0000" ><![CDATA[UD]]></text>
<text  clip-path="url(#clip-1681692777)" font-family="Times New Roman" fill="#000000" style ="white-space:pre;" font-weight="400" text-anchor="start" x="998.0000" y="940.0000" font-size="83.0000" ><![CDATA[P]]></text>
<text  clip-path="url(#clip-1681692777)" font-family="Times New Roman" fill="#000000" style ="white-space:pre;" font-weight="400" text-anchor="start" x="1045.0000" y="940.0000" font-size="83.0000" ><![CDATA[ ]]></text>
</g>
<g transform="matrix(0.0625 0.0000 0.0000 0.0625 0.0000 0.0000)">
<path d="M 9872.0000,16312.0000 L 9872.0000,19352.0000 L 20892.0000,19352.0000 L 20892.0000,16312.0000 L 9872.0000,16312.0000 Z" stroke-width="1px" stroke="#FFFFFF"  fill="#FFFFFF" />
</g>
<g transform="matrix(1.0000 0.0000 0.0000 1.0000 0.0000 0.0000)">
</g>
<g transform="matrix(0.0625 0.0000 0.0000 0.0625 0.0000 0.0000)">
<path d="M 9872.0000,16312.0000 L 9872.0000,19352.0000 L 20892.0000,19352.0000 L 20892.0000,16312.0000 Z" stroke="#000000" stroke-width="100.0000"  stroke-linecap="round"  stroke-linejoin="miter"  stroke-miterlimit="8.0000" fill="none" />
</g>
<g transform="matrix(1.0000 0.0000 0.0000 1.0000 0.0000 0.0000)">
<defs><clipPath id="clip-1714636915"><path d="M 620.0000,1053.0000 L 1303.0000,1053.0000 L 1303.0000,1176.0000 L 620.0000,1176.0000 L 620.0000,1053.0000 Z Z" /></clipPath></defs>
<text  clip-path="url(#clip-1714636915)" font-family="Times New Roman" fill="#000000" style ="white-space:pre;" font-weight="400" text-anchor="start" x="924.0000" y="1130.0000" font-size="83.0000" ><![CDATA[IP]]></text>
<text  clip-path="url(#clip-1714636915)" font-family="Times New Roman" fill="#000000" style ="white-space:pre;" font-weight="400" text-anchor="start" x="999.0000" y="1130.0000" font-size="83.0000" ><![CDATA[ ]]></text>
</g>
<g transform="matrix(0.0625 0.0000 0.0000 0.0625 0.0000 0.0000)">
<path d="M 9872.0000,19352.0000 L 9872.0000,22392.0000 L 20892.0000,22392.0000 L 20892.0000,19352.0000 L 9872.0000,19352.0000 Z" stroke-width="1px" stroke="#FFFFFF"  fill="#FFFFFF" />
</g>
<g transform="matrix(1.0000 0.0000 0.0000 1.0000 0.0000 0.0000)">
</g>
<g transform="matrix(0.0625 0.0000 0.0000 0.0625 0.0000 0.0000)">
<path d="M 9872.0000,19352.0000 L 9872.0000,22392.0000 L 20892.0000,22392.0000 L 20892.0000,19352.0000 Z" stroke="#000000" stroke-width="100.0000"  stroke-linecap="round"  stroke-linejoin="miter"  stroke-miterlimit="8.0000" fill="none" />
</g>
<g transform="matrix(1.0000 0.0000 0.0000 1.0000 0.0000 0.0000)">
<defs><clipPath id="clip-1957747793"><path d="M 620.0000,1243.0000 L 1304.0000,1243.0000 L 1304.0000,1366.0000 L 620.0000,1366.0000 L 620.0000,1243.0000 Z Z" /></clipPath></defs>
<text  clip-path="url(#clip-1957747793)" font-family="Times New Roman" fill="#000000" style ="white-space:pre;" font-weight="400" text-anchor="start" x="714.0000" y="1320.0000" font-size="83.0000" ><![CDATA[Data link layer]]></text>
<text  clip-path="url(#clip-1957747793)" font-family="Times New Roman" fill="#000000" style ="white-space:pre;" font-weight="400" text-anchor="start" x="1208.0000" y="1320.0000" font-size="83.0000" ><![CDATA[ ]]></text>
</g>
<g transform="matrix(0.0625 0.0000 0.0000 0.0625 0.0000 0.0000)">
<path d="M 9872.0000,22392.0000 L 9872.0000,25432.0000 L 20892.0000,25432.0000 L 20892.0000,22392.0000 L 9872.0000,22392.0000 Z" stroke-width="1px" stroke="#FFFFFF"  fill="#FFFFFF" />
</g>
<g transform="matrix(1.0000 0.0000 0.0000 1.0000 0.0000 0.0000)">
</g>
<g transform="matrix(0.0625 0.0000 0.0000 0.0625 0.0000 0.0000)">
<path d="M 9872.0000,22392.0000 L 9872.0000,25432.0000 L 20892.0000,25432.0000 L 20892.0000,22392.0000 Z" stroke="#000000" stroke-width="100.0000"  stroke-linecap="round"  stroke-linejoin="miter"  stroke-miterlimit="8.0000" fill="none" />
</g>
<g transform="matrix(1.0000 0.0000 0.0000 1.0000 0.0000 0.0000)">
<defs><clipPath id="clip-424238335"><path d="M 620.0000,1433.0000 L 1304.0000,1433.0000 L 1304.0000,1556.0000 L 620.0000,1556.0000 L 620.0000,1433.0000 Z Z" /></clipPath></defs>
<text  clip-path="url(#clip-424238335)" font-family="Times New Roman" fill="#000000" style ="white-space:pre;" font-weight="400" text-anchor="start" x="727.0000" y="1510.0000" font-size="83.0000" ><![CDATA[Physical]]></text>
<text  clip-path="url(#clip-424238335)" font-family="Times New Roman" fill="#000000" style ="white-space:pre;" font-weight="400" text-anchor="start" x="1008.0000" y="1510.0000" font-size="83.0000" ><![CDATA[ layer]]></text>
<text  clip-path="url(#clip-424238335)" font-family="Times New Roman" fill="#000000" style ="white-space:pre;" font-weight="400" text-anchor="start" x="1196.0000" y="1510.0000" font-size="83.0000" ><![CDATA[ ]]></text>
</g>
<g transform="matrix(0.0625 0.0000 0.0000 0.0625 0.0000 0.0000)">
<path d="M 372.0000,16912.0000 L 372.0000,23372.0000 L 7212.0000,23372.0000 L 7212.0000,16912.0000 L 372.0000,16912.0000 Z" stroke-width="1px" stroke="#FFFFFF"  fill="#FFFFFF" />
</g>
<g transform="matrix(1.0000 0.0000 0.0000 1.0000 0.0000 0.0000)">
<defs><clipPath id="clip-719885386"><path d="M 23.0000,1063.0000 L 451.0000,1063.0000 L 451.0000,1455.0000 L 23.0000,1455.0000 L 23.0000,1063.0000 Z Z" /></clipPath></defs>
<text  clip-path="url(#clip-719885386)" font-family="Times New Roman" fill="#000000" style ="white-space:pre;" font-weight="400" text-anchor="start" x="72.0000" y="1138.0000" font-size="83.0000" ><![CDATA[Transport]]></text>
<text  clip-path="url(#clip-719885386)" font-family="Times New Roman" fill="#000000" style ="white-space:pre;" font-weight="400" text-anchor="start" x="72.0000" y="1234.0000" font-size="83.0000" ><![CDATA[N]]></text>
<text  clip-path="url(#clip-719885386)" font-family="Times New Roman" fill="#000000" style ="white-space:pre;" font-weight="400" text-anchor="start" x="132.0000" y="1234.0000" font-size="83.0000" ><![CDATA[etwork]]></text>
<text  clip-path="url(#clip-719885386)" font-family="Times New Roman" fill="#000000" style ="white-space:pre;" font-weight="400" text-anchor="start" x="72.0000" y="1331.0000" font-size="83.0000" ><![CDATA[L]]></text>
<text  clip-path="url(#clip-719885386)" font-family="Times New Roman" fill="#000000" style ="white-space:pre;" font-weight="400" text-anchor="start" x="122.0000" y="1331.0000" font-size="83.0000" ><![CDATA[ayer]]></text>
<text  clip-path="url(#clip-719885386)" font-family="Times New Roman" fill="#000000" style ="white-space:pre;" font-weight="400" text-anchor="start" x="266.0000" y="1331.0000" font-size="83.0000" ><![CDATA[ ]]></text>
</g>
<g transform="matrix(0.0625 0.0000 0.0000 0.0625 0.0000 0.0000)">
<path d="M 372.0000,16912.0000 M 14906.0000,7666.0000 C 14011.0000,7666.0000 13286.0000,7899.0000 13286.0000,8186.0000 C 13286.0000,8473.0000 14011.0000,8706.0000 14906.0000,8706.0000 C 15801.0000,8706.0000 16526.0000,8473.0000 16526.0000,8186.0000 C 16526.0000,7899.0000 15801.0000,7666.0000 14906.0000,7666.0000 " stroke="#000000" stroke-width="100.0000"  stroke-linecap="round"  stroke-linejoin="round"  fill="none" />
</g>
<g transform="matrix(1.0000 0.0000 0.0000 1.0000 0.0000 0.0000)">
</g>
<g transform="matrix(0.0625 0.0000 0.0000 0.0625 0.0000 0.0000)">
<path d="M 9866.0000,10226.0000 L 9866.0000,13266.0000 L 20886.0000,13266.0000 L 20886.0000,10226.0000 L 9866.0000,10226.0000 Z" stroke-width="1px" stroke="#FFFFFF"  fill="#FFFFFF" />
</g>
<g transform="matrix(1.0000 0.0000 0.0000 1.0000 0.0000 0.0000)">
</g>
<g transform="matrix(0.0625 0.0000 0.0000 0.0625 0.0000 0.0000)">
<path d="M 9866.0000,10226.0000 L 9866.0000,13266.0000 L 20886.0000,13266.0000 L 20886.0000,10226.0000 Z" stroke="#000000" stroke-width="100.0000"  stroke-linecap="round"  stroke-linejoin="miter"  stroke-miterlimit="8.0000" fill="none" />
</g>
<g transform="matrix(1.0000 0.0000 0.0000 1.0000 0.0000 0.0000)">
<defs><clipPath id="clip-1649760492"><path d="M 620.0000,673.0000 L 1303.0000,673.0000 L 1303.0000,796.0000 L 620.0000,796.0000 L 620.0000,673.0000 Z Z" /></clipPath></defs>
<text  clip-path="url(#clip-1649760492)" font-family="Times New Roman" fill="#000000" style ="white-space:pre;" font-weight="400" text-anchor="start" x="839.0000" y="750.0000" font-size="83.0000" ><![CDATA[GTP]]></text>
<text  clip-path="url(#clip-1649760492)" font-family="Times New Roman" fill="#000000" style ="white-space:pre;" font-weight="400" text-anchor="start" x="997.0000" y="750.0000" font-size="83.0000" ><![CDATA[-]]></text>
<text  clip-path="url(#clip-1649760492)" font-family="Times New Roman" fill="#000000" style ="white-space:pre;" font-weight="400" text-anchor="start" x="1024.0000" y="750.0000" font-size="83.0000" ><![CDATA[U]]></text>
<text  clip-path="url(#clip-1649760492)" font-family="Times New Roman" fill="#000000" style ="white-space:pre;" font-weight="400" text-anchor="start" x="1084.0000" y="750.0000" font-size="83.0000" ><![CDATA[ ]]></text>
<defs><clipPath id="clip-596516649"><path d="M 569.0000,-3.0000 L 1283.0000,-3.0000 L 1283.0000,115.0000 L 569.0000,115.0000 L 569.0000,-3.0000 Z Z" /></clipPath></defs>
<text  clip-path="url(#clip-596516649)" font-family="Times New Roman" fill="#000000" style ="white-space:pre;" font-weight="400" text-anchor="start" x="708.0000" y="90.0000" font-size="100.0000" ><![CDATA[User Plane]]></text>
<text  clip-path="url(#clip-596516649)" font-family="Times New Roman" fill="#000000" style ="white-space:pre;" font-weight="400" text-anchor="start" x="1143.0000" y="90.0000" font-size="100.0000" ><![CDATA[ ]]></text>
</g>
</g>
</svg>
