<?xml version="1.0"  encoding="UTF-8" standalone="no"?>
<svg version="1.1" xmlns="http://www.w3.org/2000/svg" xmlns:xlink="http://www.w3.org/1999/xlink" width="3941.0000" height="2102.0000">
<g transform="translate(-109.0000, -2.0000)">
<defs><clipPath id="clip-1804289383"><path d="M 0.0000,0.0000 L 4050.0000,0.0000 L 4050.0000,2105.0000 L 0.0000,2105.0000 L 0.0000,0.0000 Z Z" /></clipPath></defs>
<text font-family="Times New Roman" fill="#000000" style ="white-space:pre;" font-weight="400" text-anchor="start" x="4025.0000" y="2100.0000" font-size="100.0000" ><![CDATA[ ]]></text>
<g transform="matrix(0.0625 0.0000 0.0000 0.0625 0.0000 0.0000)">
<path d="M 2279.0000,13799.0000 L 2279.0000,17666.0000 L 9086.0000,17666.0000 L 9086.0000,13799.0000 L 2279.0000,13799.0000 Z" stroke-width="1px" stroke="#FFFFFF"  fill="#FFFFFF" />
</g>
<g transform="matrix(1.0000 0.0000 0.0000 1.0000 0.0000 0.0000)">
</g>
<g transform="matrix(0.0625 0.0000 0.0000 0.0625 0.0000 0.0000)">
<path d="M 2279.0000,13799.0000 L 2279.0000,17666.0000 L 9086.0000,17666.0000 L 9086.0000,13799.0000 Z" stroke="#000000" stroke-width="100.0000"  stroke-linecap="round"  stroke-linejoin="miter"  stroke-miterlimit="8.0000" fill="none" />
</g>
<g transform="matrix(1.0000 0.0000 0.0000 1.0000 0.0000 0.0000)">
<defs><clipPath id="clip-846930886"><path d="M 146.0000,896.0000 L 565.0000,896.0000 L 565.0000,1071.0000 L 146.0000,1071.0000 L 146.0000,896.0000 Z Z" /></clipPath></defs>
<text  clip-path="url(#clip-846930886)" font-family="Times New Roman" fill="#000000" style ="white-space:pre;" font-weight="400" text-anchor="start" x="206.0000" y="974.0000" font-size="83.0000" ><![CDATA[SAN]]></text>
<text  clip-path="url(#clip-846930886)" font-family="Times New Roman" fill="#000000" style ="white-space:pre;" font-weight="400" text-anchor="start" x="372.0000" y="974.0000" font-size="83.0000" ><![CDATA[ ]]></text>
<text  clip-path="url(#clip-846930886)" font-family="Times New Roman" fill="#000000" style ="white-space:pre;" font-weight="400" text-anchor="start" x="393.0000" y="974.0000" font-size="83.0000" ><![CDATA[TX]]></text>
<text  clip-path="url(#clip-846930886)" font-family="Times New Roman" fill="#000000" style ="white-space:pre;" font-weight="400" text-anchor="start" x="505.0000" y="974.0000" font-size="83.0000" ><![CDATA[ ]]></text>
</g>
<g transform="matrix(0.0625 0.0000 0.0000 0.0625 0.0000 0.0000)">
<path d="M 18352.0000,13866.0000 L 18352.0000,17919.0000 L 25432.0000,17919.0000 L 25432.0000,13866.0000 L 18352.0000,13866.0000 Z" stroke-width="1px" stroke="#FFFFFF"  fill="#FFFFFF" />
</g>
<g transform="matrix(1.0000 0.0000 0.0000 1.0000 0.0000 0.0000)">
</g>
<g transform="matrix(0.0625 0.0000 0.0000 0.0625 0.0000 0.0000)">
<path d="M 18352.0000,13866.0000 L 18352.0000,17919.0000 L 25432.0000,17919.0000 L 25432.0000,13866.0000 Z" stroke="#000000" stroke-width="100.0000"  stroke-linecap="round"  stroke-linejoin="miter"  stroke-miterlimit="8.0000" fill="none" />
</g>
<g transform="matrix(1.0000 0.0000 0.0000 1.0000 0.0000 0.0000)">
<defs><clipPath id="clip-1681692777"><path d="M 1151.0000,900.0000 L 1587.0000,900.0000 L 1587.0000,1087.0000 L 1151.0000,1087.0000 L 1151.0000,900.0000 Z Z" /></clipPath></defs>
<text  clip-path="url(#clip-1681692777)" font-family="Times New Roman" fill="#000000" style ="white-space:pre;" font-weight="400" text-anchor="start" x="1211.0000" y="976.0000" font-size="83.0000" ><![CDATA[Remove ]]></text>
<text  clip-path="url(#clip-1681692777)" font-family="Times New Roman" fill="#000000" style ="white-space:pre;" font-weight="400" text-anchor="start" x="1211.0000" y="1072.0000" font-size="83.0000" ><![CDATA[CP]]></text>
<text  clip-path="url(#clip-1681692777)" font-family="Times New Roman" fill="#000000" style ="white-space:pre;" font-weight="400" text-anchor="start" x="1313.0000" y="1072.0000" font-size="83.0000" ><![CDATA[ ]]></text>
</g>
<g transform="matrix(0.1250 0.0000 0.0000 0.1250 0.0000 0.0000)">
<path d="M 14700.0000,6893.0000 L 14700.0000,8920.0000 L 18240.0000,8920.0000 L 18240.0000,6893.0000 L 14700.0000,6893.0000 Z" stroke-width="1px" stroke="#FFFFFF"  fill="#FFFFFF" />
</g>
<g transform="matrix(1.0000 0.0000 0.0000 1.0000 0.0000 0.0000)">
</g>
<g transform="matrix(0.1250 0.0000 0.0000 0.1250 0.0000 0.0000)">
<path d="M 14700.0000,6893.0000 L 14700.0000,8920.0000 L 18240.0000,8920.0000 L 18240.0000,6893.0000 Z" stroke="#000000" stroke-width="50.0000"  stroke-linecap="round"  stroke-linejoin="miter"  stroke-miterlimit="8.0000" fill="none" />
</g>
<g transform="matrix(1.0000 0.0000 0.0000 1.0000 0.0000 0.0000)">
<defs><clipPath id="clip-1714636915"><path d="M 1841.0000,895.0000 L 2277.0000,895.0000 L 2277.0000,1082.0000 L 1841.0000,1082.0000 L 1841.0000,895.0000 Z Z" /></clipPath></defs>
<text  clip-path="url(#clip-1714636915)" font-family="Times New Roman" fill="#000000" style ="white-space:pre;" font-weight="400" text-anchor="start" x="1901.0000" y="973.0000" font-size="83.0000" ><![CDATA[FFT]]></text>
<text  clip-path="url(#clip-1714636915)" font-family="Times New Roman" fill="#000000" style ="white-space:pre;" font-weight="400" text-anchor="start" x="2045.0000" y="973.0000" font-size="83.0000" ><![CDATA[ ]]></text>
</g>
<g transform="matrix(0.1250 0.0000 0.0000 0.1250 0.0000 0.0000)">
<path d="M 20426.0000,6220.0000 L 20426.0000,9420.0000 L 26323.0000,9420.0000 L 26323.0000,6220.0000 L 20426.0000,6220.0000 Z" stroke-width="1px" stroke="#FFFFFF"  fill="#FFFFFF" />
</g>
<g transform="matrix(1.0000 0.0000 0.0000 1.0000 0.0000 0.0000)">
</g>
<g transform="matrix(0.1250 0.0000 0.0000 0.1250 0.0000 0.0000)">
<path d="M 20426.0000,6220.0000 L 20426.0000,9420.0000 L 26323.0000,9420.0000 L 26323.0000,6220.0000 Z" stroke="#000000" stroke-width="50.0000"  stroke-linecap="round"  stroke-linejoin="miter"  stroke-miterlimit="8.0000" fill="none" />
</g>
<g transform="matrix(1.0000 0.0000 0.0000 1.0000 0.0000 0.0000)">
<defs><clipPath id="clip-1957747793"><path d="M 2557.0000,811.0000 L 3288.0000,811.0000 L 3288.0000,1145.0000 L 2557.0000,1145.0000 L 2557.0000,811.0000 Z Z" /></clipPath></defs>
<text  clip-path="url(#clip-1957747793)" font-family="Times New Roman" fill="#000000" style ="white-space:pre;" font-weight="400" text-anchor="start" x="2617.0000" y="887.0000" font-size="83.0000" ><![CDATA[Per]]></text>
<text  clip-path="url(#clip-1957747793)" font-family="Times New Roman" fill="#000000" style ="white-space:pre;" font-weight="400" text-anchor="start" x="2729.0000" y="887.0000" font-size="83.0000" ><![CDATA[-]]></text>
<text  clip-path="url(#clip-1957747793)" font-family="Times New Roman" fill="#000000" style ="white-space:pre;" font-weight="400" text-anchor="start" x="2756.0000" y="887.0000" font-size="83.0000" ><![CDATA[subcarrier ]]></text>
<text  clip-path="url(#clip-1957747793)" font-family="Times New Roman" fill="#000000" style ="white-space:pre;" font-weight="400" text-anchor="start" x="2617.0000" y="983.0000" font-size="83.0000" ><![CDATA[Amplitude/phase ]]></text>
<text  clip-path="url(#clip-1957747793)" font-family="Times New Roman" fill="#000000" style ="white-space:pre;" font-weight="400" text-anchor="start" x="2617.0000" y="1081.0000" font-size="83.0000" ><![CDATA[correction]]></text>
<text  clip-path="url(#clip-1957747793)" font-family="Times New Roman" fill="#000000" style ="white-space:pre;" font-weight="400" text-anchor="start" x="2955.0000" y="1081.0000" font-size="83.0000" ><![CDATA[ ]]></text>
</g>
<g transform="matrix(0.0625 0.0000 0.0000 0.0625 0.0000 0.0000)">
<path d="M 8926.0000,15572.0000 L 17359.0000,15585.0000 L 17359.0000,15718.0000 L 8926.0000,15706.0000 L 8926.0000,15572.0000 Z M 17226.0000,15251.0000 L 18026.0000,15652.0000 L 17225.0000,16051.0000 L 17226.0000,15251.0000 Z "  fill="#000000" stroke="#000000" stroke-width="16.0000"  stroke-linecap="butt"  stroke-linejoin="bevel" />
</g>
<g transform="matrix(1.0000 0.0000 0.0000 1.0000 0.0000 0.0000)">
</g>
<g transform="matrix(0.0625 0.0000 0.0000 0.0625 0.0000 0.0000)">
<path d="M 25433.0000,15652.0000 L 28639.0000,15664.0000 L 28639.0000,15797.0000 L 25432.0000,15786.0000 L 25433.0000,15652.0000 Z M 28507.0000,15330.0000 L 29306.0000,15732.0000 L 28504.0000,16130.0000 L 28507.0000,15330.0000 Z "  fill="#000000" stroke="#000000" stroke-width="16.0000"  stroke-linecap="butt"  stroke-linejoin="bevel" />
</g>
<g transform="matrix(1.0000 0.0000 0.0000 1.0000 0.0000 0.0000)">
</g>
<g transform="matrix(0.1250 0.0000 0.0000 0.1250 0.0000 0.0000)">
<path d="M 18240.0000,7953.0000 L 20093.0000,7956.0000 L 20093.0000,8023.0000 L 18240.0000,8020.0000 L 18240.0000,7953.0000 Z M 20027.0000,7789.0000 L 20426.0000,7990.0000 L 20026.0000,8189.0000 L 20027.0000,7789.0000 Z "  fill="#000000" stroke="#000000" stroke-width="8.0000"  stroke-linecap="butt"  stroke-linejoin="bevel" />
</g>
<g transform="matrix(1.0000 0.0000 0.0000 1.0000 0.0000 0.0000)">
</g>
<g transform="matrix(0.1250 0.0000 0.0000 0.1250 0.0000 0.0000)">
<path d="M 28213.0000,6260.0000 L 28213.0000,9886.0000 L 32133.0000,9886.0000 L 32133.0000,6260.0000 L 28213.0000,6260.0000 Z" stroke-width="1px" stroke="#FFFFFF"  fill="#FFFFFF" />
</g>
<g transform="matrix(1.0000 0.0000 0.0000 1.0000 0.0000 0.0000)">
</g>
<g transform="matrix(0.1250 0.0000 0.0000 0.1250 0.0000 0.0000)">
<path d="M 28213.0000,6260.0000 L 28213.0000,9886.0000 L 32133.0000,9886.0000 L 32133.0000,6260.0000 Z" stroke="#000000" stroke-width="50.0000"  stroke-linecap="round"  stroke-linejoin="miter"  stroke-miterlimit="8.0000" fill="none" />
</g>
<g transform="matrix(1.0000 0.0000 0.0000 1.0000 0.0000 0.0000)">
<defs><clipPath id="clip-424238335"><path d="M 3530.0000,816.0000 L 4014.0000,816.0000 L 4014.0000,1203.0000 L 3530.0000,1203.0000 L 3530.0000,816.0000 Z Z" /></clipPath></defs>
<text  clip-path="url(#clip-424238335)" font-family="Times New Roman" fill="#000000" style ="white-space:pre;" font-weight="400" text-anchor="start" x="3590.0000" y="892.0000" font-size="83.0000" ><![CDATA[Symbol ]]></text>
<text  clip-path="url(#clip-424238335)" font-family="Times New Roman" fill="#000000" style ="white-space:pre;" font-weight="400" text-anchor="start" x="3590.0000" y="988.0000" font-size="83.0000" ><![CDATA[detection ]]></text>
<text  clip-path="url(#clip-424238335)" font-family="Times New Roman" fill="#000000" style ="white-space:pre;" font-weight="400" text-anchor="start" x="3590.0000" y="1086.0000" font-size="83.0000" ><![CDATA[/decoding]]></text>
<text  clip-path="url(#clip-424238335)" font-family="Times New Roman" fill="#000000" style ="white-space:pre;" font-weight="400" text-anchor="start" x="3919.0000" y="1086.0000" font-size="83.0000" ><![CDATA[ ]]></text>
</g>
<g transform="matrix(0.1250 0.0000 0.0000 0.1250 0.0000 0.0000)">
<path d="M 26317.0000,7996.0000 L 27670.0000,8002.0000 L 27670.0000,8068.0000 L 26316.0000,8063.0000 L 26317.0000,7996.0000 Z M 27604.0000,7835.0000 L 28003.0000,8036.0000 L 27602.0000,8235.0000 L 27604.0000,7835.0000 Z "  fill="#000000" stroke="#000000" stroke-width="8.0000"  stroke-linecap="butt"  stroke-linejoin="bevel" />
</g>
<g transform="matrix(1.0000 0.0000 0.0000 1.0000 0.0000 0.0000)">
</g>
<g transform="matrix(0.0625 0.0000 0.0000 0.0625 0.0000 0.0000)">
<path d="M 29951.0000,8033.0000 L 29843.0000,8111.0000 L 29765.0000,8003.0000 L 29874.0000,7925.0000 L 29951.0000,8033.0000 Z M 29735.0000,8189.0000 L 29627.0000,8267.0000 L 29549.0000,8158.0000 L 29657.0000,8081.0000 L 29735.0000,8189.0000 Z M 29518.0000,8345.0000 L 29410.0000,8422.0000 L 29332.0000,8314.0000 L 29441.0000,8236.0000 L 29518.0000,8345.0000 Z M 29302.0000,8500.0000 L 29194.0000,8578.0000 L 29116.0000,8470.0000 L 29224.0000,8392.0000 L 29302.0000,8500.0000 Z M 29085.0000,8656.0000 L 28977.0000,8734.0000 L 28899.0000,8625.0000 L 29007.0000,8548.0000 L 29085.0000,8656.0000 Z M 28869.0000,8812.0000 L 28760.0000,8889.0000 L 28683.0000,8781.0000 L 28791.0000,8703.0000 L 28869.0000,8812.0000 Z M 28652.0000,8967.0000 L 28544.0000,9045.0000 L 28466.0000,8937.0000 L 28574.0000,8859.0000 L 28652.0000,8967.0000 Z M 28436.0000,9123.0000 L 28327.0000,9201.0000 L 28250.0000,9092.0000 L 28358.0000,9015.0000 L 28436.0000,9123.0000 Z M 28219.0000,9279.0000 L 28111.0000,9356.0000 L 28033.0000,9248.0000 L 28141.0000,9170.0000 L 28219.0000,9279.0000 Z M 28003.0000,9434.0000 L 27894.0000,9512.0000 L 27817.0000,9404.0000 L 27925.0000,9326.0000 L 28003.0000,9434.0000 Z M 27786.0000,9590.0000 L 27678.0000,9668.0000 L 27600.0000,9559.0000 L 27708.0000,9482.0000 L 27786.0000,9590.0000 Z M 27570.0000,9745.0000 L 27461.0000,9823.0000 L 27384.0000,9715.0000 L 27492.0000,9637.0000 L 27570.0000,9745.0000 Z M 27353.0000,9901.0000 L 27245.0000,9979.0000 L 27167.0000,9871.0000 L 27275.0000,9793.0000 L 27353.0000,9901.0000 Z M 27137.0000,10057.0000 L 27028.0000,10135.0000 L 26950.0000,10026.0000 L 27059.0000,9949.0000 L 27137.0000,10057.0000 Z M 26920.0000,10212.0000 L 26812.0000,10290.0000 L 26734.0000,10182.0000 L 26842.0000,10104.0000 L 26920.0000,10212.0000 Z M 26703.0000,10368.0000 L 26595.0000,10446.0000 L 26517.0000,10338.0000 L 26626.0000,10260.0000 L 26703.0000,10368.0000 Z M 26487.0000,10524.0000 L 26379.0000,10602.0000 L 26301.0000,10493.0000 L 26409.0000,10415.0000 L 26487.0000,10524.0000 Z M 26270.0000,10679.0000 L 26162.0000,10757.0000 L 26084.0000,10649.0000 L 26193.0000,10571.0000 L 26270.0000,10679.0000 Z M 26054.0000,10835.0000 L 25946.0000,10913.0000 L 25868.0000,10805.0000 L 25976.0000,10727.0000 L 26054.0000,10835.0000 Z M 25837.0000,10991.0000 L 25729.0000,11069.0000 L 25651.0000,10960.0000 L 25760.0000,10882.0000 L 25837.0000,10991.0000 Z M 25621.0000,11146.0000 L 25513.0000,11224.0000 L 25435.0000,11116.0000 L 25543.0000,11038.0000 L 25621.0000,11146.0000 Z M 25404.0000,11302.0000 L 25296.0000,11380.0000 L 25218.0000,11272.0000 L 25327.0000,11194.0000 L 25404.0000,11302.0000 Z M 25188.0000,11458.0000 L 25080.0000,11535.0000 L 25002.0000,11427.0000 L 25110.0000,11349.0000 L 25188.0000,11458.0000 Z M 24971.0000,11613.0000 L 24863.0000,11691.0000 L 24785.0000,11583.0000 L 24893.0000,11505.0000 L 24971.0000,11613.0000 Z M 24755.0000,11769.0000 L 24647.0000,11847.0000 L 24569.0000,11739.0000 L 24677.0000,11661.0000 L 24755.0000,11769.0000 Z M 24538.0000,11925.0000 L 24430.0000,12002.0000 L 24352.0000,11894.0000 L 24460.0000,11816.0000 L 24538.0000,11925.0000 Z M 24322.0000,12080.0000 L 24213.0000,12158.0000 L 24136.0000,12050.0000 L 24244.0000,11972.0000 L 24322.0000,12080.0000 Z M 24105.0000,12236.0000 L 23997.0000,12314.0000 L 23919.0000,12206.0000 L 24027.0000,12128.0000 L 24105.0000,12236.0000 Z M 23889.0000,12392.0000 L 23780.0000,12469.0000 L 23703.0000,12361.0000 L 23811.0000,12283.0000 L 23889.0000,12392.0000 Z M 23672.0000,12547.0000 L 23564.0000,12625.0000 L 23486.0000,12517.0000 L 23594.0000,12439.0000 L 23672.0000,12547.0000 Z M 23456.0000,12703.0000 L 23347.0000,12781.0000 L 23270.0000,12672.0000 L 23378.0000,12595.0000 L 23456.0000,12703.0000 Z M 23239.0000,12859.0000 L 23131.0000,12936.0000 L 23053.0000,12828.0000 L 23161.0000,12750.0000 L 23239.0000,12859.0000 Z M 23023.0000,13014.0000 L 22914.0000,13092.0000 L 22837.0000,12984.0000 L 22945.0000,12906.0000 L 23023.0000,13014.0000 Z M 22806.0000,13170.0000 L 22698.0000,13248.0000 L 22620.0000,13139.0000 L 22728.0000,13062.0000 L 22806.0000,13170.0000 Z M 22590.0000,13326.0000 L 22481.0000,13403.0000 L 22403.0000,13295.0000 L 22512.0000,13217.0000 L 22590.0000,13326.0000 Z M 22709.0000,13650.0000 L 21826.0000,13792.0000 L 22242.0000,13001.0000 L 22709.0000,13650.0000 Z "  fill="#000000" stroke="#000000" stroke-width="16.0000"  stroke-linecap="butt"  stroke-linejoin="bevel" />
</g>
<g transform="matrix(1.0000 0.0000 0.0000 1.0000 0.0000 0.0000)">
</g>
<g transform="matrix(0.1250 0.0000 0.0000 0.1250 0.0000 0.0000)">
<path d="M 16380.0000,3950.0000 L 16380.0000,4016.0000 L 16313.0000,4016.0000 L 16313.0000,3950.0000 L 16380.0000,3950.0000 Z M 16380.0000,4083.0000 L 16380.0000,4150.0000 L 16313.0000,4150.0000 L 16313.0000,4083.0000 L 16380.0000,4083.0000 Z M 16380.0000,4216.0000 L 16380.0000,4283.0000 L 16313.0000,4283.0000 L 16313.0000,4216.0000 L 16380.0000,4216.0000 Z M 16380.0000,4350.0000 L 16380.0000,4416.0000 L 16313.0000,4416.0000 L 16313.0000,4350.0000 L 16380.0000,4350.0000 Z M 16380.0000,4483.0000 L 16380.0000,4550.0000 L 16313.0000,4550.0000 L 16313.0000,4483.0000 L 16380.0000,4483.0000 Z M 16380.0000,4616.0000 L 16380.0000,4683.0000 L 16313.0000,4683.0000 L 16313.0000,4616.0000 L 16380.0000,4616.0000 Z M 16380.0000,4750.0000 L 16380.0000,4816.0000 L 16313.0000,4816.0000 L 16313.0000,4750.0000 L 16380.0000,4750.0000 Z M 16380.0000,4883.0000 L 16380.0000,4950.0000 L 16313.0000,4950.0000 L 16313.0000,4883.0000 L 16380.0000,4883.0000 Z M 16380.0000,5016.0000 L 16380.0000,5083.0000 L 16313.0000,5083.0000 L 16313.0000,5016.0000 L 16380.0000,5016.0000 Z M 16380.0000,5150.0000 L 16380.0000,5216.0000 L 16313.0000,5216.0000 L 16313.0000,5150.0000 L 16380.0000,5150.0000 Z M 16380.0000,5283.0000 L 16380.0000,5350.0000 L 16313.0000,5350.0000 L 16313.0000,5283.0000 L 16380.0000,5283.0000 Z M 16380.0000,5416.0000 L 16380.0000,5483.0000 L 16313.0000,5483.0000 L 16313.0000,5416.0000 L 16380.0000,5416.0000 Z M 16380.0000,5550.0000 L 16380.0000,5616.0000 L 16313.0000,5616.0000 L 16313.0000,5550.0000 L 16380.0000,5550.0000 Z M 16380.0000,5683.0000 L 16380.0000,5750.0000 L 16313.0000,5750.0000 L 16313.0000,5683.0000 L 16380.0000,5683.0000 Z M 16380.0000,5816.0000 L 16380.0000,5883.0000 L 16313.0000,5883.0000 L 16313.0000,5816.0000 L 16380.0000,5816.0000 Z M 16380.0000,5950.0000 L 16380.0000,6016.0000 L 16313.0000,6016.0000 L 16313.0000,5950.0000 L 16380.0000,5950.0000 Z M 16380.0000,6083.0000 L 16380.0000,6150.0000 L 16313.0000,6150.0000 L 16313.0000,6083.0000 L 16380.0000,6083.0000 Z M 16380.0000,6216.0000 L 16380.0000,6283.0000 L 16313.0000,6283.0000 L 16313.0000,6216.0000 L 16380.0000,6216.0000 Z M 16380.0000,6350.0000 L 16380.0000,6416.0000 L 16313.0000,6416.0000 L 16313.0000,6350.0000 L 16380.0000,6350.0000 Z M 16546.0000,6413.0000 L 16346.0000,6813.0000 L 16146.0000,6413.0000 L 16546.0000,6413.0000 Z "  fill="#000000" stroke="#000000" stroke-width="8.0000"  stroke-linecap="butt"  stroke-linejoin="bevel" />
</g>
<g transform="matrix(1.0000 0.0000 0.0000 1.0000 0.0000 0.0000)">
</g>
<g transform="matrix(0.1250 0.0000 0.0000 0.1250 0.0000 0.0000)">
<path d="M 18004.0000,3876.0000 L 18064.0000,3904.0000 L 18037.0000,3964.0000 L 17976.0000,3937.0000 L 18004.0000,3876.0000 Z M 18125.0000,3931.0000 L 18186.0000,3959.0000 L 18158.0000,4019.0000 L 18098.0000,3992.0000 L 18125.0000,3931.0000 Z M 18246.0000,3986.0000 L 18307.0000,4014.0000 L 18280.0000,4074.0000 L 18219.0000,4047.0000 L 18246.0000,3986.0000 Z M 18368.0000,4041.0000 L 18429.0000,4069.0000 L 18401.0000,4129.0000 L 18340.0000,4102.0000 L 18368.0000,4041.0000 Z M 18489.0000,4096.0000 L 18550.0000,4124.0000 L 18523.0000,4184.0000 L 18462.0000,4157.0000 L 18489.0000,4096.0000 Z M 18611.0000,4151.0000 L 18672.0000,4179.0000 L 18644.0000,4239.0000 L 18583.0000,4212.0000 L 18611.0000,4151.0000 Z M 18732.0000,4206.0000 L 18793.0000,4234.0000 L 18765.0000,4294.0000 L 18705.0000,4267.0000 L 18732.0000,4206.0000 Z M 18854.0000,4261.0000 L 18914.0000,4289.0000 L 18887.0000,4349.0000 L 18826.0000,4322.0000 L 18854.0000,4261.0000 Z M 18975.0000,4316.0000 L 19036.0000,4344.0000 L 19008.0000,4404.0000 L 18948.0000,4377.0000 L 18975.0000,4316.0000 Z M 19097.0000,4371.0000 L 19157.0000,4399.0000 L 19130.0000,4459.0000 L 19069.0000,4432.0000 L 19097.0000,4371.0000 Z M 19218.0000,4426.0000 L 19279.0000,4454.0000 L 19251.0000,4514.0000 L 19191.0000,4487.0000 L 19218.0000,4426.0000 Z M 19340.0000,4481.0000 L 19400.0000,4509.0000 L 19373.0000,4569.0000 L 19312.0000,4542.0000 L 19340.0000,4481.0000 Z M 19461.0000,4536.0000 L 19522.0000,4564.0000 L 19494.0000,4624.0000 L 19433.0000,4597.0000 L 19461.0000,4536.0000 Z M 19582.0000,4591.0000 L 19643.0000,4619.0000 L 19616.0000,4680.0000 L 19555.0000,4652.0000 L 19582.0000,4591.0000 Z M 19704.0000,4646.0000 L 19765.0000,4674.0000 L 19737.0000,4735.0000 L 19676.0000,4707.0000 L 19704.0000,4646.0000 Z M 19825.0000,4701.0000 L 19886.0000,4729.0000 L 19859.0000,4790.0000 L 19798.0000,4762.0000 L 19825.0000,4701.0000 Z M 19947.0000,4756.0000 L 20008.0000,4784.0000 L 19980.0000,4845.0000 L 19919.0000,4817.0000 L 19947.0000,4756.0000 Z M 20068.0000,4811.0000 L 20129.0000,4839.0000 L 20101.0000,4900.0000 L 20041.0000,4872.0000 L 20068.0000,4811.0000 Z M 20190.0000,4866.0000 L 20250.0000,4894.0000 L 20223.0000,4955.0000 L 20162.0000,4927.0000 L 20190.0000,4866.0000 Z M 20311.0000,4921.0000 L 20372.0000,4949.0000 L 20344.0000,5010.0000 L 20284.0000,4982.0000 L 20311.0000,4921.0000 Z M 20433.0000,4976.0000 L 20493.0000,5004.0000 L 20466.0000,5065.0000 L 20405.0000,5037.0000 L 20433.0000,4976.0000 Z M 20554.0000,5031.0000 L 20615.0000,5059.0000 L 20587.0000,5120.0000 L 20527.0000,5092.0000 L 20554.0000,5031.0000 Z M 20676.0000,5086.0000 L 20736.0000,5114.0000 L 20709.0000,5175.0000 L 20648.0000,5147.0000 L 20676.0000,5086.0000 Z M 20797.0000,5141.0000 L 20858.0000,5169.0000 L 20830.0000,5230.0000 L 20770.0000,5202.0000 L 20797.0000,5141.0000 Z M 20918.0000,5196.0000 L 20979.0000,5224.0000 L 20952.0000,5285.0000 L 20891.0000,5257.0000 L 20918.0000,5196.0000 Z M 21040.0000,5251.0000 L 21101.0000,5279.0000 L 21073.0000,5340.0000 L 21012.0000,5312.0000 L 21040.0000,5251.0000 Z M 21161.0000,5306.0000 L 21222.0000,5334.0000 L 21195.0000,5395.0000 L 21134.0000,5367.0000 L 21161.0000,5306.0000 Z M 21283.0000,5361.0000 L 21344.0000,5389.0000 L 21316.0000,5450.0000 L 21255.0000,5422.0000 L 21283.0000,5361.0000 Z M 21404.0000,5416.0000 L 21465.0000,5444.0000 L 21438.0000,5505.0000 L 21377.0000,5477.0000 L 21404.0000,5416.0000 Z M 21526.0000,5471.0000 L 21586.0000,5499.0000 L 21559.0000,5560.0000 L 21498.0000,5532.0000 L 21526.0000,5471.0000 Z M 21647.0000,5526.0000 L 21708.0000,5554.0000 L 21680.0000,5615.0000 L 21620.0000,5587.0000 L 21647.0000,5526.0000 Z M 21769.0000,5581.0000 L 21829.0000,5609.0000 L 21802.0000,5670.0000 L 21741.0000,5642.0000 L 21769.0000,5581.0000 Z M 21890.0000,5637.0000 L 21951.0000,5664.0000 L 21923.0000,5725.0000 L 21863.0000,5697.0000 L 21890.0000,5637.0000 Z M 22012.0000,5692.0000 L 22072.0000,5719.0000 L 22045.0000,5780.0000 L 21984.0000,5752.0000 L 22012.0000,5692.0000 Z M 22133.0000,5747.0000 L 22194.0000,5774.0000 L 22166.0000,5835.0000 L 22106.0000,5807.0000 L 22133.0000,5747.0000 Z M 22254.0000,5802.0000 L 22315.0000,5829.0000 L 22288.0000,5890.0000 L 22227.0000,5862.0000 L 22254.0000,5802.0000 Z M 22376.0000,5857.0000 L 22437.0000,5884.0000 L 22409.0000,5945.0000 L 22348.0000,5917.0000 L 22376.0000,5857.0000 Z M 22497.0000,5912.0000 L 22558.0000,5939.0000 L 22531.0000,6000.0000 L 22470.0000,5972.0000 L 22497.0000,5912.0000 Z M 22619.0000,5967.0000 L 22623.0000,5969.0000 L 22596.0000,6029.0000 L 22591.0000,6027.0000 L 22619.0000,5967.0000 Z M 22631.0000,5789.0000 L 22913.0000,6136.0000 L 22466.0000,6154.0000 L 22631.0000,5789.0000 Z "  fill="#000000" stroke="#000000" stroke-width="8.0000"  stroke-linecap="butt"  stroke-linejoin="bevel" />
</g>
<g transform="matrix(1.0000 0.0000 0.0000 1.0000 0.0000 0.0000)">
</g>
<g transform="matrix(0.1250 0.0000 0.0000 0.1250 0.0000 0.0000)">
<path d="M 26930.0000,13886.0000 L 26930.0000,13620.0000 L 26997.0000,13620.0000 L 26996.0000,13887.0000 L 26930.0000,13886.0000 Z M 26930.0000,13420.0000 L 26931.0000,13153.0000 L 26997.0000,13153.0000 L 26997.0000,13420.0000 L 26930.0000,13420.0000 Z M 26931.0000,12953.0000 L 26931.0000,12686.0000 L 26998.0000,12687.0000 L 26998.0000,12953.0000 L 26931.0000,12953.0000 Z M 26931.0000,12486.0000 L 26932.0000,12220.0000 L 26998.0000,12220.0000 L 26998.0000,12487.0000 L 26931.0000,12486.0000 Z M 26932.0000,12020.0000 L 26932.0000,11753.0000 L 26999.0000,11753.0000 L 26999.0000,12020.0000 L 26932.0000,12020.0000 Z M 26932.0000,11553.0000 L 26933.0000,11286.0000 L 26999.0000,11287.0000 L 26999.0000,11553.0000 L 26932.0000,11553.0000 Z M 26933.0000,11086.0000 L 26933.0000,10820.0000 L 27000.0000,10820.0000 L 27000.0000,11087.0000 L 26933.0000,11086.0000 Z M 26934.0000,10620.0000 L 26934.0000,10353.0000 L 27001.0000,10353.0000 L 27000.0000,10620.0000 L 26934.0000,10620.0000 Z M 26934.0000,10153.0000 L 26934.0000,9886.0000 L 27001.0000,9887.0000 L 27001.0000,10153.0000 L 26934.0000,10153.0000 Z M 26935.0000,9686.0000 L 26935.0000,9420.0000 L 27002.0000,9420.0000 L 27001.0000,9687.0000 L 26935.0000,9686.0000 Z M 26935.0000,9220.0000 L 26935.0000,8953.0000 L 27002.0000,8953.0000 L 27002.0000,9220.0000 L 26935.0000,9220.0000 Z M 26936.0000,8753.0000 L 26936.0000,8486.0000 L 27003.0000,8487.0000 L 27002.0000,8753.0000 L 26936.0000,8753.0000 Z M 26769.0000,8480.0000 L 26970.0000,8080.0000 L 27169.0000,8480.0000 L 26769.0000,8480.0000 Z "  fill="#000000" stroke="#000000" stroke-width="8.0000"  stroke-linecap="butt"  stroke-linejoin="bevel" />
</g>
<g transform="matrix(1.0000 0.0000 0.0000 1.0000 0.0000 0.0000)">
</g>
<g transform="matrix(0.1250 0.0000 0.0000 0.1250 0.0000 0.0000)">
<path d="M 22203.0000,13716.0000 L 22203.0000,16453.0000 L 27806.0000,16453.0000 L 27806.0000,13716.0000 L 22203.0000,13716.0000 Z" stroke-width="1px" stroke="#FFFFFF"  fill="#FFFFFF" />
</g>
<g transform="matrix(1.0000 0.0000 0.0000 1.0000 0.0000 0.0000)">
</g>
<g transform="matrix(0.1250 0.0000 0.0000 0.1250 0.0000 0.0000)">
<path d="M 22203.0000,13716.0000 L 22203.0000,16453.0000 L 27806.0000,16453.0000 L 27806.0000,13716.0000 Z" stroke="#000000" stroke-width="50.0000"  stroke-linecap="round"  stroke-linejoin="miter"  stroke-miterlimit="8.0000" fill="none" />
</g>
<g transform="matrix(1.0000 0.0000 0.0000 1.0000 0.0000 0.0000)">
<defs><clipPath id="clip-719885386"><path d="M 2779.0000,1748.0000 L 3473.0000,1748.0000 L 3473.0000,2024.0000 L 2779.0000,2024.0000 L 2779.0000,1748.0000 Z Z" /></clipPath></defs>
<text  clip-path="url(#clip-719885386)" font-family="Times New Roman" fill="#000000" style ="white-space:pre;" font-weight="400" text-anchor="start" x="2839.0000" y="1824.0000" font-size="83.0000" ><![CDATA[Reference point ]]></text>
<text  clip-path="url(#clip-719885386)" font-family="Times New Roman" fill="#000000" style ="white-space:pre;" font-weight="400" text-anchor="start" x="2839.0000" y="1920.0000" font-size="83.0000" ><![CDATA[for EVM ]]></text>
<text  clip-path="url(#clip-719885386)" font-family="Times New Roman" fill="#000000" style ="white-space:pre;" font-weight="400" text-anchor="start" x="2839.0000" y="2016.0000" font-size="83.0000" ><![CDATA[measurement]]></text>
<text  clip-path="url(#clip-719885386)" font-family="Times New Roman" fill="#000000" style ="white-space:pre;" font-weight="400" text-anchor="start" x="3283.0000" y="2016.0000" font-size="83.0000" ><![CDATA[ ]]></text>
</g>
<g transform="matrix(0.1250 0.0000 0.0000 0.1250 0.0000 0.0000)">
<path d="M 13653.0000,286.0000 L 13653.0000,3916.0000 L 19293.0000,3916.0000 L 19293.0000,286.0000 L 13653.0000,286.0000 Z" stroke-width="1px" stroke="#FFFFFF"  fill="#FFFFFF" />
</g>
<g transform="matrix(1.0000 0.0000 0.0000 1.0000 0.0000 0.0000)">
</g>
<g transform="matrix(0.1250 0.0000 0.0000 0.1250 0.0000 0.0000)">
<path d="M 13653.0000,286.0000 L 13653.0000,3916.0000 L 19293.0000,3916.0000 L 19293.0000,286.0000 Z" stroke="#000000" stroke-width="50.0000"  stroke-linecap="round"  stroke-linejoin="miter"  stroke-miterlimit="8.0000" fill="none" />
</g>
<g transform="matrix(1.0000 0.0000 0.0000 1.0000 0.0000 0.0000)">
<defs><clipPath id="clip-1649760492"><path d="M 1710.0000,70.0000 L 2409.0000,70.0000 L 2409.0000,457.0000 L 1710.0000,457.0000 L 1710.0000,70.0000 Z Z" /></clipPath></defs>
<text  clip-path="url(#clip-1649760492)" font-family="Times New Roman" fill="#000000" style ="white-space:pre;" font-weight="400" text-anchor="start" x="1770.0000" y="145.0000" font-size="83.0000" ><![CDATA[Pre]]></text>
<text  clip-path="url(#clip-1649760492)" font-family="Times New Roman" fill="#000000" style ="white-space:pre;" font-weight="400" text-anchor="start" x="1882.0000" y="145.0000" font-size="83.0000" ><![CDATA[-]]></text>
<text  clip-path="url(#clip-1649760492)" font-family="Times New Roman" fill="#000000" style ="white-space:pre;" font-weight="400" text-anchor="start" x="1909.0000" y="145.0000" font-size="83.0000" ><![CDATA[/post FFT ]]></text>
<text  clip-path="url(#clip-1649760492)" font-family="Times New Roman" fill="#000000" style ="white-space:pre;" font-weight="400" text-anchor="start" x="1770.0000" y="241.0000" font-size="83.0000" ><![CDATA[time / frequency ]]></text>
<text  clip-path="url(#clip-1649760492)" font-family="Times New Roman" fill="#000000" style ="white-space:pre;" font-weight="400" text-anchor="start" x="1770.0000" y="338.0000" font-size="83.0000" ><![CDATA[synchronization]]></text>
<text  clip-path="url(#clip-1649760492)" font-family="Times New Roman" fill="#000000" style ="white-space:pre;" font-weight="400" text-anchor="start" x="2302.0000" y="338.0000" font-size="83.0000" ><![CDATA[ ]]></text>
</g>
</g>
</svg>
