<?xml version="1.0"  encoding="UTF-8" standalone="no"?>
<svg version="1.1" xmlns="http://www.w3.org/2000/svg" xmlns:xlink="http://www.w3.org/1999/xlink" width="3650.0000" height="973.0000">
<g transform="translate(-27.0000, -102.0000)">
<defs><clipPath id="clip-1804289383"><path d="M 0.0000,0.0000 L 3678.0000,0.0000 L 3678.0000,1107.0000 L 0.0000,1107.0000 L 0.0000,0.0000 Z Z" /></clipPath></defs>
<text font-family="Times New Roman" fill="#000000" style ="white-space:pre;" font-weight="400" text-anchor="start" x="3677.0000" y="1055.0000" font-size="88.0000" ><![CDATA[ ]]></text>
<g transform="matrix(1.0000 0.0000 0.0000 1.0000 1304.0000 232.0000)">
<text font-family="Times New Roman" fill="#000000" style ="white-space:pre;" font-weight="400" text-anchor="start" x="0.0000" y="0.0000" font-size="88.0000" ><![CDATA[SAN channel BW]]></text>
</g>
<g transform="matrix(1.0000 0.0000 0.0000 1.0000 1936.0000 232.0000)">
<text font-family="Times New Roman" fill="#000000" style ="white-space:pre;" font-weight="400" text-anchor="start" x="0.0000" y="0.0000" font-size="88.0000" ><![CDATA[ ]]></text>
</g>
<g transform="matrix(0.1250 0.0000 0.0000 0.1250 0.0000 0.0000)">
<path d="M 1997.0000,4627.0000 L 24360.0000,4627.0000 L 24360.0000,4694.0000 L 1997.0000,4694.0000 L 1997.0000,4627.0000 Z M 24293.0000,4460.0000 L 24693.0000,4660.0000 L 24293.0000,4860.0000 L 24293.0000,4460.0000 Z "  fill="#000000" stroke="#000000" stroke-width="1.0000"  stroke-linecap="butt"  stroke-linejoin="round" />
</g>
<g transform="matrix(1.0000 0.0000 0.0000 1.0000 0.0000 0.0000)">
</g>
<g transform="matrix(0.1250 0.0000 0.0000 0.1250 0.0000 0.0000)">
<path d="M 5743.0000,2843.0000 L 5743.0000,4659.0000 L 20292.0000,4659.0000 L 20292.0000,2843.0000 L 5743.0000,2843.0000 Z" stroke-width="1px" stroke="#FFFFFF"  fill="#FFFFFF" />
</g>
<g transform="matrix(1.0000 0.0000 0.0000 1.0000 0.0000 0.0000)">
</g>
<g transform="matrix(0.1250 0.0000 0.0000 0.1250 0.0000 0.0000)">
<path d="M 5710.0000,4659.0000 L 5710.0000,4592.0000 L 5777.0000,4592.0000 L 5777.0000,4659.0000 Z M 5710.0000,4525.0000 L 5710.0000,4459.0000 L 5777.0000,4459.0000 L 5777.0000,4525.0000 Z M 5710.0000,4392.0000 L 5710.0000,4325.0000 L 5777.0000,4325.0000 L 5777.0000,4392.0000 Z M 5710.0000,4259.0000 L 5710.0000,4192.0000 L 5777.0000,4192.0000 L 5777.0000,4259.0000 Z M 5710.0000,4125.0000 L 5710.0000,4059.0000 L 5777.0000,4059.0000 L 5777.0000,4125.0000 Z M 5710.0000,3992.0000 L 5710.0000,3925.0000 L 5777.0000,3925.0000 L 5777.0000,3992.0000 Z M 5710.0000,3859.0000 L 5710.0000,3792.0000 L 5777.0000,3792.0000 L 5777.0000,3859.0000 Z M 5710.0000,3725.0000 L 5710.0000,3659.0000 L 5777.0000,3659.0000 L 5777.0000,3725.0000 Z M 5710.0000,3592.0000 L 5710.0000,3525.0000 L 5777.0000,3525.0000 L 5777.0000,3592.0000 Z M 5710.0000,3459.0000 L 5710.0000,3392.0000 L 5777.0000,3392.0000 L 5777.0000,3459.0000 Z M 5710.0000,3325.0000 L 5710.0000,3259.0000 L 5777.0000,3259.0000 L 5777.0000,3325.0000 Z M 5710.0000,3192.0000 L 5710.0000,3125.0000 L 5777.0000,3125.0000 L 5777.0000,3192.0000 Z M 5710.0000,3059.0000 L 5710.0000,2992.0000 L 5777.0000,2992.0000 L 5777.0000,3059.0000 Z M 5710.0000,2925.0000 L 5710.0000,2859.0000 L 5777.0000,2859.0000 L 5777.0000,2925.0000 Z M 5795.0000,2810.0000 L 5861.0000,2810.0000 L 5861.0000,2876.0000 L 5795.0000,2876.0000 Z M 5928.0000,2810.0000 L 5995.0000,2810.0000 L 5995.0000,2876.0000 L 5928.0000,2876.0000 Z M 6061.0000,2810.0000 L 6128.0000,2810.0000 L 6128.0000,2876.0000 L 6061.0000,2876.0000 Z M 6195.0000,2810.0000 L 6261.0000,2810.0000 L 6261.0000,2876.0000 L 6195.0000,2876.0000 Z M 6328.0000,2810.0000 L 6395.0000,2810.0000 L 6395.0000,2876.0000 L 6328.0000,2876.0000 Z M 6461.0000,2810.0000 L 6528.0000,2810.0000 L 6528.0000,2876.0000 L 6461.0000,2876.0000 Z M 6595.0000,2810.0000 L 6661.0000,2810.0000 L 6661.0000,2876.0000 L 6595.0000,2876.0000 Z M 6728.0000,2810.0000 L 6795.0000,2810.0000 L 6795.0000,2876.0000 L 6728.0000,2876.0000 Z M 6861.0000,2810.0000 L 6928.0000,2810.0000 L 6928.0000,2876.0000 L 6861.0000,2876.0000 Z M 6995.0000,2810.0000 L 7061.0000,2810.0000 L 7061.0000,2876.0000 L 6995.0000,2876.0000 Z M 7128.0000,2810.0000 L 7195.0000,2810.0000 L 7195.0000,2876.0000 L 7128.0000,2876.0000 Z M 7261.0000,2810.0000 L 7328.0000,2810.0000 L 7328.0000,2876.0000 L 7261.0000,2876.0000 Z M 7395.0000,2810.0000 L 7461.0000,2810.0000 L 7461.0000,2876.0000 L 7395.0000,2876.0000 Z M 7528.0000,2810.0000 L 7595.0000,2810.0000 L 7595.0000,2876.0000 L 7528.0000,2876.0000 Z M 7661.0000,2810.0000 L 7728.0000,2810.0000 L 7728.0000,2876.0000 L 7661.0000,2876.0000 Z M 7795.0000,2810.0000 L 7861.0000,2810.0000 L 7861.0000,2876.0000 L 7795.0000,2876.0000 Z M 7928.0000,2810.0000 L 7995.0000,2810.0000 L 7995.0000,2876.0000 L 7928.0000,2876.0000 Z M 8061.0000,2810.0000 L 8128.0000,2810.0000 L 8128.0000,2876.0000 L 8061.0000,2876.0000 Z M 8195.0000,2810.0000 L 8261.0000,2810.0000 L 8261.0000,2876.0000 L 8195.0000,2876.0000 Z M 8328.0000,2810.0000 L 8395.0000,2810.0000 L 8395.0000,2876.0000 L 8328.0000,2876.0000 Z M 8461.0000,2810.0000 L 8528.0000,2810.0000 L 8528.0000,2876.0000 L 8461.0000,2876.0000 Z M 8595.0000,2810.0000 L 8661.0000,2810.0000 L 8661.0000,2876.0000 L 8595.0000,2876.0000 Z M 8728.0000,2810.0000 L 8795.0000,2810.0000 L 8795.0000,2876.0000 L 8728.0000,2876.0000 Z M 8861.0000,2810.0000 L 8928.0000,2810.0000 L 8928.0000,2876.0000 L 8861.0000,2876.0000 Z M 8995.0000,2810.0000 L 9061.0000,2810.0000 L 9061.0000,2876.0000 L 8995.0000,2876.0000 Z M 9128.0000,2810.0000 L 9195.0000,2810.0000 L 9195.0000,2876.0000 L 9128.0000,2876.0000 Z M 9261.0000,2810.0000 L 9328.0000,2810.0000 L 9328.0000,2876.0000 L 9261.0000,2876.0000 Z M 9395.0000,2810.0000 L 9461.0000,2810.0000 L 9461.0000,2876.0000 L 9395.0000,2876.0000 Z M 9528.0000,2810.0000 L 9595.0000,2810.0000 L 9595.0000,2876.0000 L 9528.0000,2876.0000 Z M 9661.0000,2810.0000 L 9728.0000,2810.0000 L 9728.0000,2876.0000 L 9661.0000,2876.0000 Z M 9795.0000,2810.0000 L 9861.0000,2810.0000 L 9861.0000,2876.0000 L 9795.0000,2876.0000 Z M 9928.0000,2810.0000 L 9995.0000,2810.0000 L 9995.0000,2876.0000 L 9928.0000,2876.0000 Z M 10061.0000,2810.0000 L 10128.0000,2810.0000 L 10128.0000,2876.0000 L 10061.0000,2876.0000 Z M 10195.0000,2810.0000 L 10261.0000,2810.0000 L 10261.0000,2876.0000 L 10195.0000,2876.0000 Z M 10328.0000,2810.0000 L 10395.0000,2810.0000 L 10395.0000,2876.0000 L 10328.0000,2876.0000 Z M 10461.0000,2810.0000 L 10528.0000,2810.0000 L 10528.0000,2876.0000 L 10461.0000,2876.0000 Z M 10595.0000,2810.0000 L 10661.0000,2810.0000 L 10661.0000,2876.0000 L 10595.0000,2876.0000 Z M 10728.0000,2810.0000 L 10795.0000,2810.0000 L 10795.0000,2876.0000 L 10728.0000,2876.0000 Z M 10861.0000,2810.0000 L 10928.0000,2810.0000 L 10928.0000,2876.0000 L 10861.0000,2876.0000 Z M 10995.0000,2810.0000 L 11061.0000,2810.0000 L 11061.0000,2876.0000 L 10995.0000,2876.0000 Z M 11128.0000,2810.0000 L 11195.0000,2810.0000 L 11195.0000,2876.0000 L 11128.0000,2876.0000 Z M 11261.0000,2810.0000 L 11328.0000,2810.0000 L 11328.0000,2876.0000 L 11261.0000,2876.0000 Z M 11395.0000,2810.0000 L 11461.0000,2810.0000 L 11461.0000,2876.0000 L 11395.0000,2876.0000 Z M 11528.0000,2810.0000 L 11595.0000,2810.0000 L 11595.0000,2876.0000 L 11528.0000,2876.0000 Z M 11661.0000,2810.0000 L 11728.0000,2810.0000 L 11728.0000,2876.0000 L 11661.0000,2876.0000 Z M 11795.0000,2810.0000 L 11861.0000,2810.0000 L 11861.0000,2876.0000 L 11795.0000,2876.0000 Z M 11928.0000,2810.0000 L 11995.0000,2810.0000 L 11995.0000,2876.0000 L 11928.0000,2876.0000 Z M 12061.0000,2810.0000 L 12128.0000,2810.0000 L 12128.0000,2876.0000 L 12061.0000,2876.0000 Z M 12195.0000,2810.0000 L 12261.0000,2810.0000 L 12261.0000,2876.0000 L 12195.0000,2876.0000 Z M 12328.0000,2810.0000 L 12395.0000,2810.0000 L 12395.0000,2876.0000 L 12328.0000,2876.0000 Z M 12461.0000,2810.0000 L 12528.0000,2810.0000 L 12528.0000,2876.0000 L 12461.0000,2876.0000 Z M 12595.0000,2810.0000 L 12661.0000,2810.0000 L 12661.0000,2876.0000 L 12595.0000,2876.0000 Z M 12728.0000,2810.0000 L 12795.0000,2810.0000 L 12795.0000,2876.0000 L 12728.0000,2876.0000 Z M 12861.0000,2810.0000 L 12928.0000,2810.0000 L 12928.0000,2876.0000 L 12861.0000,2876.0000 Z M 12995.0000,2810.0000 L 13061.0000,2810.0000 L 13061.0000,2876.0000 L 12995.0000,2876.0000 Z M 13128.0000,2810.0000 L 13195.0000,2810.0000 L 13195.0000,2876.0000 L 13128.0000,2876.0000 Z M 13261.0000,2810.0000 L 13328.0000,2810.0000 L 13328.0000,2876.0000 L 13261.0000,2876.0000 Z M 13395.0000,2810.0000 L 13461.0000,2810.0000 L 13461.0000,2876.0000 L 13395.0000,2876.0000 Z M 13528.0000,2810.0000 L 13595.0000,2810.0000 L 13595.0000,2876.0000 L 13528.0000,2876.0000 Z M 13661.0000,2810.0000 L 13728.0000,2810.0000 L 13728.0000,2876.0000 L 13661.0000,2876.0000 Z M 13795.0000,2810.0000 L 13861.0000,2810.0000 L 13861.0000,2876.0000 L 13795.0000,2876.0000 Z M 13928.0000,2810.0000 L 13995.0000,2810.0000 L 13995.0000,2876.0000 L 13928.0000,2876.0000 Z M 14061.0000,2810.0000 L 14128.0000,2810.0000 L 14128.0000,2876.0000 L 14061.0000,2876.0000 Z M 14195.0000,2810.0000 L 14261.0000,2810.0000 L 14261.0000,2876.0000 L 14195.0000,2876.0000 Z M 14328.0000,2810.0000 L 14395.0000,2810.0000 L 14395.0000,2876.0000 L 14328.0000,2876.0000 Z M 14461.0000,2810.0000 L 14528.0000,2810.0000 L 14528.0000,2876.0000 L 14461.0000,2876.0000 Z M 14595.0000,2810.0000 L 14661.0000,2810.0000 L 14661.0000,2876.0000 L 14595.0000,2876.0000 Z M 14728.0000,2810.0000 L 14795.0000,2810.0000 L 14795.0000,2876.0000 L 14728.0000,2876.0000 Z M 14861.0000,2810.0000 L 14928.0000,2810.0000 L 14928.0000,2876.0000 L 14861.0000,2876.0000 Z M 14995.0000,2810.0000 L 15061.0000,2810.0000 L 15061.0000,2876.0000 L 14995.0000,2876.0000 Z M 15128.0000,2810.0000 L 15195.0000,2810.0000 L 15195.0000,2876.0000 L 15128.0000,2876.0000 Z M 15261.0000,2810.0000 L 15328.0000,2810.0000 L 15328.0000,2876.0000 L 15261.0000,2876.0000 Z M 15395.0000,2810.0000 L 15461.0000,2810.0000 L 15461.0000,2876.0000 L 15395.0000,2876.0000 Z M 15528.0000,2810.0000 L 15595.0000,2810.0000 L 15595.0000,2876.0000 L 15528.0000,2876.0000 Z M 15661.0000,2810.0000 L 15728.0000,2810.0000 L 15728.0000,2876.0000 L 15661.0000,2876.0000 Z M 15795.0000,2810.0000 L 15861.0000,2810.0000 L 15861.0000,2876.0000 L 15795.0000,2876.0000 Z M 15928.0000,2810.0000 L 15995.0000,2810.0000 L 15995.0000,2876.0000 L 15928.0000,2876.0000 Z M 16061.0000,2810.0000 L 16128.0000,2810.0000 L 16128.0000,2876.0000 L 16061.0000,2876.0000 Z M 16195.0000,2810.0000 L 16261.0000,2810.0000 L 16261.0000,2876.0000 L 16195.0000,2876.0000 Z M 16328.0000,2810.0000 L 16395.0000,2810.0000 L 16395.0000,2876.0000 L 16328.0000,2876.0000 Z M 16461.0000,2810.0000 L 16528.0000,2810.0000 L 16528.0000,2876.0000 L 16461.0000,2876.0000 Z M 16595.0000,2810.0000 L 16661.0000,2810.0000 L 16661.0000,2876.0000 L 16595.0000,2876.0000 Z M 16728.0000,2810.0000 L 16795.0000,2810.0000 L 16795.0000,2876.0000 L 16728.0000,2876.0000 Z M 16861.0000,2810.0000 L 16928.0000,2810.0000 L 16928.0000,2876.0000 L 16861.0000,2876.0000 Z M 16995.0000,2810.0000 L 17061.0000,2810.0000 L 17061.0000,2876.0000 L 16995.0000,2876.0000 Z M 17128.0000,2810.0000 L 17195.0000,2810.0000 L 17195.0000,2876.0000 L 17128.0000,2876.0000 Z M 17261.0000,2810.0000 L 17328.0000,2810.0000 L 17328.0000,2876.0000 L 17261.0000,2876.0000 Z M 17395.0000,2810.0000 L 17461.0000,2810.0000 L 17461.0000,2876.0000 L 17395.0000,2876.0000 Z M 17528.0000,2810.0000 L 17595.0000,2810.0000 L 17595.0000,2876.0000 L 17528.0000,2876.0000 Z M 17661.0000,2810.0000 L 17728.0000,2810.0000 L 17728.0000,2876.0000 L 17661.0000,2876.0000 Z M 17795.0000,2810.0000 L 17861.0000,2810.0000 L 17861.0000,2876.0000 L 17795.0000,2876.0000 Z M 17928.0000,2810.0000 L 17995.0000,2810.0000 L 17995.0000,2876.0000 L 17928.0000,2876.0000 Z M 18061.0000,2810.0000 L 18128.0000,2810.0000 L 18128.0000,2876.0000 L 18061.0000,2876.0000 Z M 18195.0000,2810.0000 L 18261.0000,2810.0000 L 18261.0000,2876.0000 L 18195.0000,2876.0000 Z M 18328.0000,2810.0000 L 18395.0000,2810.0000 L 18395.0000,2876.0000 L 18328.0000,2876.0000 Z M 18461.0000,2810.0000 L 18528.0000,2810.0000 L 18528.0000,2876.0000 L 18461.0000,2876.0000 Z M 18595.0000,2810.0000 L 18661.0000,2810.0000 L 18661.0000,2876.0000 L 18595.0000,2876.0000 Z M 18728.0000,2810.0000 L 18795.0000,2810.0000 L 18795.0000,2876.0000 L 18728.0000,2876.0000 Z M 18861.0000,2810.0000 L 18928.0000,2810.0000 L 18928.0000,2876.0000 L 18861.0000,2876.0000 Z M 18995.0000,2810.0000 L 19061.0000,2810.0000 L 19061.0000,2876.0000 L 18995.0000,2876.0000 Z M 19128.0000,2810.0000 L 19195.0000,2810.0000 L 19195.0000,2876.0000 L 19128.0000,2876.0000 Z M 19261.0000,2810.0000 L 19328.0000,2810.0000 L 19328.0000,2876.0000 L 19261.0000,2876.0000 Z M 19395.0000,2810.0000 L 19461.0000,2810.0000 L 19461.0000,2876.0000 L 19395.0000,2876.0000 Z M 19528.0000,2810.0000 L 19595.0000,2810.0000 L 19595.0000,2876.0000 L 19528.0000,2876.0000 Z M 19661.0000,2810.0000 L 19728.0000,2810.0000 L 19728.0000,2876.0000 L 19661.0000,2876.0000 Z M 19795.0000,2810.0000 L 19861.0000,2810.0000 L 19861.0000,2876.0000 L 19795.0000,2876.0000 Z M 19928.0000,2810.0000 L 19995.0000,2810.0000 L 19995.0000,2876.0000 L 19928.0000,2876.0000 Z M 20061.0000,2810.0000 L 20128.0000,2810.0000 L 20128.0000,2876.0000 L 20061.0000,2876.0000 Z M 20195.0000,2810.0000 L 20261.0000,2810.0000 L 20261.0000,2876.0000 L 20195.0000,2876.0000 Z M 20326.0000,2879.0000 L 20326.0000,2945.0000 L 20259.0000,2945.0000 L 20259.0000,2879.0000 Z M 20326.0000,3012.0000 L 20326.0000,3079.0000 L 20259.0000,3079.0000 L 20259.0000,3012.0000 Z M 20326.0000,3145.0000 L 20326.0000,3212.0000 L 20259.0000,3212.0000 L 20259.0000,3145.0000 Z M 20326.0000,3279.0000 L 20326.0000,3345.0000 L 20259.0000,3345.0000 L 20259.0000,3279.0000 Z M 20326.0000,3412.0000 L 20326.0000,3479.0000 L 20259.0000,3479.0000 L 20259.0000,3412.0000 Z M 20326.0000,3545.0000 L 20326.0000,3612.0000 L 20259.0000,3612.0000 L 20259.0000,3545.0000 Z M 20326.0000,3679.0000 L 20326.0000,3745.0000 L 20259.0000,3745.0000 L 20259.0000,3679.0000 Z M 20326.0000,3812.0000 L 20326.0000,3879.0000 L 20259.0000,3879.0000 L 20259.0000,3812.0000 Z M 20326.0000,3945.0000 L 20326.0000,4012.0000 L 20259.0000,4012.0000 L 20259.0000,3945.0000 Z M 20326.0000,4079.0000 L 20326.0000,4145.0000 L 20259.0000,4145.0000 L 20259.0000,4079.0000 Z M 20326.0000,4212.0000 L 20326.0000,4279.0000 L 20259.0000,4279.0000 L 20259.0000,4212.0000 Z M 20326.0000,4345.0000 L 20326.0000,4412.0000 L 20259.0000,4412.0000 L 20259.0000,4345.0000 Z M 20326.0000,4479.0000 L 20326.0000,4545.0000 L 20259.0000,4545.0000 L 20259.0000,4479.0000 Z M 20326.0000,4612.0000 L 20326.0000,4659.0000 C 20326.0000,4677.0000 20311.0000,4692.0000 20292.0000,4692.0000 L 20273.0000,4692.0000 L 20273.0000,4625.0000 L 20292.0000,4625.0000 L 20259.0000,4659.0000 L 20259.0000,4612.0000 Z M 20206.0000,4692.0000 L 20139.0000,4692.0000 L 20139.0000,4625.0000 L 20206.0000,4625.0000 Z M 20073.0000,4692.0000 L 20006.0000,4692.0000 L 20006.0000,4625.0000 L 20073.0000,4625.0000 Z M 19939.0000,4692.0000 L 19873.0000,4692.0000 L 19873.0000,4625.0000 L 19939.0000,4625.0000 Z M 19806.0000,4692.0000 L 19739.0000,4692.0000 L 19739.0000,4625.0000 L 19806.0000,4625.0000 Z M 19673.0000,4692.0000 L 19606.0000,4692.0000 L 19606.0000,4625.0000 L 19673.0000,4625.0000 Z M 19539.0000,4692.0000 L 19473.0000,4692.0000 L 19473.0000,4625.0000 L 19539.0000,4625.0000 Z M 19406.0000,4692.0000 L 19339.0000,4692.0000 L 19339.0000,4625.0000 L 19406.0000,4625.0000 Z M 19273.0000,4692.0000 L 19206.0000,4692.0000 L 19206.0000,4625.0000 L 19273.0000,4625.0000 Z M 19139.0000,4692.0000 L 19073.0000,4692.0000 L 19073.0000,4625.0000 L 19139.0000,4625.0000 Z M 19006.0000,4692.0000 L 18939.0000,4692.0000 L 18939.0000,4625.0000 L 19006.0000,4625.0000 Z M 18873.0000,4692.0000 L 18806.0000,4692.0000 L 18806.0000,4625.0000 L 18873.0000,4625.0000 Z M 18739.0000,4692.0000 L 18673.0000,4692.0000 L 18673.0000,4625.0000 L 18739.0000,4625.0000 Z M 18606.0000,4692.0000 L 18539.0000,4692.0000 L 18539.0000,4625.0000 L 18606.0000,4625.0000 Z M 18473.0000,4692.0000 L 18406.0000,4692.0000 L 18406.0000,4625.0000 L 18473.0000,4625.0000 Z M 18339.0000,4692.0000 L 18273.0000,4692.0000 L 18273.0000,4625.0000 L 18339.0000,4625.0000 Z M 18206.0000,4692.0000 L 18139.0000,4692.0000 L 18139.0000,4625.0000 L 18206.0000,4625.0000 Z M 18073.0000,4692.0000 L 18006.0000,4692.0000 L 18006.0000,4625.0000 L 18073.0000,4625.0000 Z M 17939.0000,4692.0000 L 17873.0000,4692.0000 L 17873.0000,4625.0000 L 17939.0000,4625.0000 Z M 17806.0000,4692.0000 L 17739.0000,4692.0000 L 17739.0000,4625.0000 L 17806.0000,4625.0000 Z M 17673.0000,4692.0000 L 17606.0000,4692.0000 L 17606.0000,4625.0000 L 17673.0000,4625.0000 Z M 17539.0000,4692.0000 L 17473.0000,4692.0000 L 17473.0000,4625.0000 L 17539.0000,4625.0000 Z M 17406.0000,4692.0000 L 17339.0000,4692.0000 L 17339.0000,4625.0000 L 17406.0000,4625.0000 Z M 17273.0000,4692.0000 L 17206.0000,4692.0000 L 17206.0000,4625.0000 L 17273.0000,4625.0000 Z M 17139.0000,4692.0000 L 17073.0000,4692.0000 L 17073.0000,4625.0000 L 17139.0000,4625.0000 Z M 17006.0000,4692.0000 L 16939.0000,4692.0000 L 16939.0000,4625.0000 L 17006.0000,4625.0000 Z M 16873.0000,4692.0000 L 16806.0000,4692.0000 L 16806.0000,4625.0000 L 16873.0000,4625.0000 Z M 16739.0000,4692.0000 L 16673.0000,4692.0000 L 16673.0000,4625.0000 L 16739.0000,4625.0000 Z M 16606.0000,4692.0000 L 16539.0000,4692.0000 L 16539.0000,4625.0000 L 16606.0000,4625.0000 Z M 16473.0000,4692.0000 L 16406.0000,4692.0000 L 16406.0000,4625.0000 L 16473.0000,4625.0000 Z M 16339.0000,4692.0000 L 16273.0000,4692.0000 L 16273.0000,4625.0000 L 16339.0000,4625.0000 Z M 16206.0000,4692.0000 L 16139.0000,4692.0000 L 16139.0000,4625.0000 L 16206.0000,4625.0000 Z M 16073.0000,4692.0000 L 16006.0000,4692.0000 L 16006.0000,4625.0000 L 16073.0000,4625.0000 Z M 15939.0000,4692.0000 L 15873.0000,4692.0000 L 15873.0000,4625.0000 L 15939.0000,4625.0000 Z M 15806.0000,4692.0000 L 15739.0000,4692.0000 L 15739.0000,4625.0000 L 15806.0000,4625.0000 Z M 15673.0000,4692.0000 L 15606.0000,4692.0000 L 15606.0000,4625.0000 L 15673.0000,4625.0000 Z M 15539.0000,4692.0000 L 15473.0000,4692.0000 L 15473.0000,4625.0000 L 15539.0000,4625.0000 Z M 15406.0000,4692.0000 L 15339.0000,4692.0000 L 15339.0000,4625.0000 L 15406.0000,4625.0000 Z M 15273.0000,4692.0000 L 15206.0000,4692.0000 L 15206.0000,4625.0000 L 15273.0000,4625.0000 Z M 15139.0000,4692.0000 L 15073.0000,4692.0000 L 15073.0000,4625.0000 L 15139.0000,4625.0000 Z M 15006.0000,4692.0000 L 14939.0000,4692.0000 L 14939.0000,4625.0000 L 15006.0000,4625.0000 Z M 14873.0000,4692.0000 L 14806.0000,4692.0000 L 14806.0000,4625.0000 L 14873.0000,4625.0000 Z M 14739.0000,4692.0000 L 14673.0000,4692.0000 L 14673.0000,4625.0000 L 14739.0000,4625.0000 Z M 14606.0000,4692.0000 L 14539.0000,4692.0000 L 14539.0000,4625.0000 L 14606.0000,4625.0000 Z M 14473.0000,4692.0000 L 14406.0000,4692.0000 L 14406.0000,4625.0000 L 14473.0000,4625.0000 Z M 14339.0000,4692.0000 L 14273.0000,4692.0000 L 14273.0000,4625.0000 L 14339.0000,4625.0000 Z M 14206.0000,4692.0000 L 14139.0000,4692.0000 L 14139.0000,4625.0000 L 14206.0000,4625.0000 Z M 14073.0000,4692.0000 L 14006.0000,4692.0000 L 14006.0000,4625.0000 L 14073.0000,4625.0000 Z M 13939.0000,4692.0000 L 13873.0000,4692.0000 L 13873.0000,4625.0000 L 13939.0000,4625.0000 Z M 13806.0000,4692.0000 L 13739.0000,4692.0000 L 13739.0000,4625.0000 L 13806.0000,4625.0000 Z M 13673.0000,4692.0000 L 13606.0000,4692.0000 L 13606.0000,4625.0000 L 13673.0000,4625.0000 Z M 13539.0000,4692.0000 L 13473.0000,4692.0000 L 13473.0000,4625.0000 L 13539.0000,4625.0000 Z M 13406.0000,4692.0000 L 13339.0000,4692.0000 L 13339.0000,4625.0000 L 13406.0000,4625.0000 Z M 13273.0000,4692.0000 L 13206.0000,4692.0000 L 13206.0000,4625.0000 L 13273.0000,4625.0000 Z M 13139.0000,4692.0000 L 13073.0000,4692.0000 L 13073.0000,4625.0000 L 13139.0000,4625.0000 Z M 13006.0000,4692.0000 L 12939.0000,4692.0000 L 12939.0000,4625.0000 L 13006.0000,4625.0000 Z M 12873.0000,4692.0000 L 12806.0000,4692.0000 L 12806.0000,4625.0000 L 12873.0000,4625.0000 Z M 12739.0000,4692.0000 L 12673.0000,4692.0000 L 12673.0000,4625.0000 L 12739.0000,4625.0000 Z M 12606.0000,4692.0000 L 12539.0000,4692.0000 L 12539.0000,4625.0000 L 12606.0000,4625.0000 Z M 12473.0000,4692.0000 L 12406.0000,4692.0000 L 12406.0000,4625.0000 L 12473.0000,4625.0000 Z M 12339.0000,4692.0000 L 12273.0000,4692.0000 L 12273.0000,4625.0000 L 12339.0000,4625.0000 Z M 12206.0000,4692.0000 L 12139.0000,4692.0000 L 12139.0000,4625.0000 L 12206.0000,4625.0000 Z M 12073.0000,4692.0000 L 12006.0000,4692.0000 L 12006.0000,4625.0000 L 12073.0000,4625.0000 Z M 11939.0000,4692.0000 L 11873.0000,4692.0000 L 11873.0000,4625.0000 L 11939.0000,4625.0000 Z M 11806.0000,4692.0000 L 11739.0000,4692.0000 L 11739.0000,4625.0000 L 11806.0000,4625.0000 Z M 11673.0000,4692.0000 L 11606.0000,4692.0000 L 11606.0000,4625.0000 L 11673.0000,4625.0000 Z M 11539.0000,4692.0000 L 11473.0000,4692.0000 L 11473.0000,4625.0000 L 11539.0000,4625.0000 Z M 11406.0000,4692.0000 L 11339.0000,4692.0000 L 11339.0000,4625.0000 L 11406.0000,4625.0000 Z M 11273.0000,4692.0000 L 11206.0000,4692.0000 L 11206.0000,4625.0000 L 11273.0000,4625.0000 Z M 11139.0000,4692.0000 L 11073.0000,4692.0000 L 11073.0000,4625.0000 L 11139.0000,4625.0000 Z M 11006.0000,4692.0000 L 10939.0000,4692.0000 L 10939.0000,4625.0000 L 11006.0000,4625.0000 Z M 10873.0000,4692.0000 L 10806.0000,4692.0000 L 10806.0000,4625.0000 L 10873.0000,4625.0000 Z M 10739.0000,4692.0000 L 10673.0000,4692.0000 L 10673.0000,4625.0000 L 10739.0000,4625.0000 Z M 10606.0000,4692.0000 L 10539.0000,4692.0000 L 10539.0000,4625.0000 L 10606.0000,4625.0000 Z M 10473.0000,4692.0000 L 10406.0000,4692.0000 L 10406.0000,4625.0000 L 10473.0000,4625.0000 Z M 10339.0000,4692.0000 L 10273.0000,4692.0000 L 10273.0000,4625.0000 L 10339.0000,4625.0000 Z M 10206.0000,4692.0000 L 10139.0000,4692.0000 L 10139.0000,4625.0000 L 10206.0000,4625.0000 Z M 10073.0000,4692.0000 L 10006.0000,4692.0000 L 10006.0000,4625.0000 L 10073.0000,4625.0000 Z M 9939.0000,4692.0000 L 9873.0000,4692.0000 L 9873.0000,4625.0000 L 9939.0000,4625.0000 Z M 9806.0000,4692.0000 L 9739.0000,4692.0000 L 9739.0000,4625.0000 L 9806.0000,4625.0000 Z M 9673.0000,4692.0000 L 9606.0000,4692.0000 L 9606.0000,4625.0000 L 9673.0000,4625.0000 Z M 9539.0000,4692.0000 L 9473.0000,4692.0000 L 9473.0000,4625.0000 L 9539.0000,4625.0000 Z M 9406.0000,4692.0000 L 9339.0000,4692.0000 L 9339.0000,4625.0000 L 9406.0000,4625.0000 Z M 9273.0000,4692.0000 L 9206.0000,4692.0000 L 9206.0000,4625.0000 L 9273.0000,4625.0000 Z M 9139.0000,4692.0000 L 9073.0000,4692.0000 L 9073.0000,4625.0000 L 9139.0000,4625.0000 Z M 9006.0000,4692.0000 L 8939.0000,4692.0000 L 8939.0000,4625.0000 L 9006.0000,4625.0000 Z M 8873.0000,4692.0000 L 8806.0000,4692.0000 L 8806.0000,4625.0000 L 8873.0000,4625.0000 Z M 8739.0000,4692.0000 L 8673.0000,4692.0000 L 8673.0000,4625.0000 L 8739.0000,4625.0000 Z M 8606.0000,4692.0000 L 8539.0000,4692.0000 L 8539.0000,4625.0000 L 8606.0000,4625.0000 Z M 8473.0000,4692.0000 L 8406.0000,4692.0000 L 8406.0000,4625.0000 L 8473.0000,4625.0000 Z M 8339.0000,4692.0000 L 8273.0000,4692.0000 L 8273.0000,4625.0000 L 8339.0000,4625.0000 Z M 8206.0000,4692.0000 L 8139.0000,4692.0000 L 8139.0000,4625.0000 L 8206.0000,4625.0000 Z M 8073.0000,4692.0000 L 8006.0000,4692.0000 L 8006.0000,4625.0000 L 8073.0000,4625.0000 Z M 7939.0000,4692.0000 L 7873.0000,4692.0000 L 7873.0000,4625.0000 L 7939.0000,4625.0000 Z M 7806.0000,4692.0000 L 7739.0000,4692.0000 L 7739.0000,4625.0000 L 7806.0000,4625.0000 Z M 7673.0000,4692.0000 L 7606.0000,4692.0000 L 7606.0000,4625.0000 L 7673.0000,4625.0000 Z M 7539.0000,4692.0000 L 7473.0000,4692.0000 L 7473.0000,4625.0000 L 7539.0000,4625.0000 Z M 7406.0000,4692.0000 L 7339.0000,4692.0000 L 7339.0000,4625.0000 L 7406.0000,4625.0000 Z M 7273.0000,4692.0000 L 7206.0000,4692.0000 L 7206.0000,4625.0000 L 7273.0000,4625.0000 Z M 7139.0000,4692.0000 L 7073.0000,4692.0000 L 7073.0000,4625.0000 L 7139.0000,4625.0000 Z M 7006.0000,4692.0000 L 6939.0000,4692.0000 L 6939.0000,4625.0000 L 7006.0000,4625.0000 Z M 6873.0000,4692.0000 L 6806.0000,4692.0000 L 6806.0000,4625.0000 L 6873.0000,4625.0000 Z M 6739.0000,4692.0000 L 6673.0000,4692.0000 L 6673.0000,4625.0000 L 6739.0000,4625.0000 Z M 6606.0000,4692.0000 L 6539.0000,4692.0000 L 6539.0000,4625.0000 L 6606.0000,4625.0000 Z M 6473.0000,4692.0000 L 6406.0000,4692.0000 L 6406.0000,4625.0000 L 6473.0000,4625.0000 Z M 6339.0000,4692.0000 L 6273.0000,4692.0000 L 6273.0000,4625.0000 L 6339.0000,4625.0000 Z M 6206.0000,4692.0000 L 6139.0000,4692.0000 L 6139.0000,4625.0000 L 6206.0000,4625.0000 Z M 6073.0000,4692.0000 L 6006.0000,4692.0000 L 6006.0000,4625.0000 L 6073.0000,4625.0000 Z M 5939.0000,4692.0000 L 5873.0000,4692.0000 L 5873.0000,4625.0000 L 5939.0000,4625.0000 Z M 5806.0000,4692.0000 L 5743.0000,4692.0000 L 5743.0000,4625.0000 L 5806.0000,4625.0000 Z "  fill="#000000" stroke="#000000" stroke-width="1.0000"  stroke-linecap="butt"  stroke-linejoin="round" />
</g>
<g transform="matrix(1.0000 0.0000 0.0000 1.0000 0.0000 0.0000)">
</g>
<g transform="matrix(0.1250 0.0000 0.0000 0.1250 0.0000 0.0000)">
<path d="M 5809.0000,2192.0000 L 20222.0000,2192.0000 L 20222.0000,2259.0000 L 5809.0000,2259.0000 Z M 6193.0000,2487.0000 L 5743.0000,2225.0000 L 6193.0000,1963.0000 C 6209.0000,1954.0000 6229.0000,1959.0000 6238.0000,1975.0000 C 6248.0000,1991.0000 6242.0000,2011.0000 6226.0000,2021.0000 L 5826.0000,2254.0000 L 5826.0000,2196.0000 L 6226.0000,2430.0000 C 6242.0000,2439.0000 6248.0000,2459.0000 6238.0000,2475.0000 C 6229.0000,2491.0000 6209.0000,2497.0000 6193.0000,2487.0000 Z M 19838.0000,1963.0000 L 20288.0000,2225.0000 L 19838.0000,2487.0000 C 19822.0000,2497.0000 19802.0000,2491.0000 19793.0000,2475.0000 C 19783.0000,2459.0000 19789.0000,2439.0000 19805.0000,2430.0000 L 20205.0000,2196.0000 L 20205.0000,2254.0000 L 19805.0000,2021.0000 C 19789.0000,2011.0000 19783.0000,1991.0000 19793.0000,1975.0000 C 19802.0000,1959.0000 19822.0000,1954.0000 19838.0000,1963.0000 Z "  fill="#000000" stroke="#000000" stroke-width="1.0000"  stroke-linecap="butt"  stroke-linejoin="round" />
</g>
<g transform="matrix(1.0000 0.0000 0.0000 1.0000 0.0000 0.0000)">
</g>
<g transform="matrix(1.0000 0.0000 0.0000 1.0000 1973.0000 848.0000)">
<text font-family="Times New Roman" fill="#000000" style ="white-space:pre;" font-weight="400" text-anchor="start" x="0.0000" y="0.0000" font-size="88.0000" ><![CDATA[Guard ]]></text>
</g>
<g transform="matrix(1.0000 0.0000 0.0000 1.0000 2224.0000 848.0000)">
<text font-family="Times New Roman" fill="#000000" style ="white-space:pre;" font-weight="400" text-anchor="start" x="0.0000" y="0.0000" font-size="88.0000" ><![CDATA[band defined for numerology Y when ]]></text>
</g>
<g transform="matrix(1.0000 0.0000 0.0000 1.0000 1973.0000 948.0000)">
<text font-family="Times New Roman" fill="#000000" style ="white-space:pre;" font-weight="400" text-anchor="start" x="0.0000" y="0.0000" font-size="88.0000" ><![CDATA[transmitted across full ]]></text>
</g>
<g transform="matrix(1.0000 0.0000 0.0000 1.0000 2772.0000 948.0000)">
<text font-family="Times New Roman" fill="#000000" style ="white-space:pre;" font-weight="400" text-anchor="start" x="0.0000" y="0.0000" font-size="88.0000" ><![CDATA[SAN]]></text>
</g>
<g transform="matrix(1.0000 0.0000 0.0000 1.0000 2948.0000 948.0000)">
<text font-family="Times New Roman" fill="#000000" style ="white-space:pre;" font-weight="400" text-anchor="start" x="0.0000" y="0.0000" font-size="88.0000" ><![CDATA[ ]]></text>
</g>
<g transform="matrix(1.0000 0.0000 0.0000 1.0000 2969.0000 948.0000)">
<text font-family="Times New Roman" fill="#000000" style ="white-space:pre;" font-weight="400" text-anchor="start" x="0.0000" y="0.0000" font-size="88.0000" ><![CDATA[channel BW]]></text>
</g>
<g transform="matrix(1.0000 0.0000 0.0000 1.0000 3404.0000 948.0000)">
<text font-family="Times New Roman" fill="#000000" style ="white-space:pre;" font-weight="400" text-anchor="start" x="0.0000" y="0.0000" font-size="88.0000" ><![CDATA[ ]]></text>
</g>
<g transform="matrix(0.1250 0.0000 0.0000 0.1250 0.0000 0.0000)">
<path d="M 20814.0000,5884.0000 L 20662.0000,5754.0000 L 20706.0000,5703.0000 L 20857.0000,5833.0000 Z M 20612.0000,5710.0000 L 20460.0000,5580.0000 L 20503.0000,5530.0000 L 20655.0000,5660.0000 Z M 20409.0000,5537.0000 L 20257.0000,5407.0000 L 20301.0000,5356.0000 L 20453.0000,5486.0000 Z M 20207.0000,5363.0000 L 20055.0000,5233.0000 L 20098.0000,5182.0000 L 20250.0000,5313.0000 Z M 20004.0000,5190.0000 L 19852.0000,5059.0000 L 19896.0000,5009.0000 L 20048.0000,5139.0000 Z M 19802.0000,5016.0000 L 19650.0000,4886.0000 L 19693.0000,4835.0000 L 19845.0000,4965.0000 Z M 19599.0000,4842.0000 L 19594.0000,4838.0000 L 19637.0000,4787.0000 L 19643.0000,4792.0000 Z M 19736.0000,5261.0000 L 19565.0000,4769.0000 L 20077.0000,4863.0000 C 20095.0000,4866.0000 20107.0000,4883.0000 20104.0000,4901.0000 C 20100.0000,4920.0000 20083.0000,4932.0000 20065.0000,4928.0000 L 19609.0000,4845.0000 L 19647.0000,4801.0000 L 19799.0000,5239.0000 C 19805.0000,5256.0000 19796.0000,5275.0000 19778.0000,5281.0000 C 19761.0000,5287.0000 19742.0000,5278.0000 19736.0000,5261.0000 Z "  fill="#000000" stroke="#000000" stroke-width="1.0000"  stroke-linecap="butt"  stroke-linejoin="round" />
</g>
<g transform="matrix(1.0000 0.0000 0.0000 1.0000 0.0000 0.0000)">
</g>
<g transform="matrix(1.0000 0.0000 0.0000 1.0000 949.0000 523.0000)">
<text font-family="Times New Roman" fill="#000000" style ="white-space:pre;" font-weight="400" text-anchor="start" x="0.0000" y="0.0000" font-size="88.0000" ><![CDATA[Numerology X]]></text>
</g>
<g transform="matrix(1.0000 0.0000 0.0000 1.0000 1476.0000 523.0000)">
<text font-family="Times New Roman" fill="#000000" style ="white-space:pre;" font-weight="400" text-anchor="start" x="0.0000" y="0.0000" font-size="88.0000" ><![CDATA[ ]]></text>
</g>
<g transform="matrix(1.0000 0.0000 0.0000 1.0000 1740.0000 523.0000)">
<text font-family="Times New Roman" fill="#000000" style ="white-space:pre;" font-weight="400" text-anchor="start" x="0.0000" y="0.0000" font-size="88.0000" ><![CDATA[Numerology ]]></text>
</g>
<g transform="matrix(1.0000 0.0000 0.0000 1.0000 2203.0000 523.0000)">
<text font-family="Times New Roman" fill="#000000" style ="white-space:pre;" font-weight="400" text-anchor="start" x="0.0000" y="0.0000" font-size="88.0000" ><![CDATA[Y]]></text>
</g>
<g transform="matrix(1.0000 0.0000 0.0000 1.0000 2267.0000 523.0000)">
<text font-family="Times New Roman" fill="#000000" style ="white-space:pre;" font-weight="400" text-anchor="start" x="0.0000" y="0.0000" font-size="88.0000" ><![CDATA[ ]]></text>
</g>
<g transform="matrix(1.0000 0.0000 0.0000 1.0000 87.0000 852.0000)">
<text font-family="Times New Roman" fill="#000000" style ="white-space:pre;" font-weight="400" text-anchor="start" x="0.0000" y="0.0000" font-size="88.0000" ><![CDATA[Guard ]]></text>
</g>
<g transform="matrix(1.0000 0.0000 0.0000 1.0000 338.0000 852.0000)">
<text font-family="Times New Roman" fill="#000000" style ="white-space:pre;" font-weight="400" text-anchor="start" x="0.0000" y="0.0000" font-size="88.0000" ><![CDATA[band defined for numerology ]]></text>
</g>
<g transform="matrix(1.0000 0.0000 0.0000 1.0000 1420.0000 852.0000)">
<text font-family="Times New Roman" fill="#000000" style ="white-space:pre;" font-weight="400" text-anchor="start" x="0.0000" y="0.0000" font-size="88.0000" ><![CDATA[X]]></text>
</g>
<g transform="matrix(1.0000 0.0000 0.0000 1.0000 1484.0000 852.0000)">
<text font-family="Times New Roman" fill="#000000" style ="white-space:pre;" font-weight="400" text-anchor="start" x="0.0000" y="0.0000" font-size="88.0000" ><![CDATA[ ]]></text>
</g>
<g transform="matrix(1.0000 0.0000 0.0000 1.0000 1516.0000 852.0000)">
<text font-family="Times New Roman" fill="#000000" style ="white-space:pre;" font-weight="400" text-anchor="start" x="0.0000" y="0.0000" font-size="88.0000" ><![CDATA[when ]]></text>
</g>
<g transform="matrix(1.0000 0.0000 0.0000 1.0000 87.0000 952.0000)">
<text font-family="Times New Roman" fill="#000000" style ="white-space:pre;" font-weight="400" text-anchor="start" x="0.0000" y="0.0000" font-size="88.0000" ><![CDATA[transmitted across full ]]></text>
</g>
<g transform="matrix(1.0000 0.0000 0.0000 1.0000 886.0000 952.0000)">
<text font-family="Times New Roman" fill="#000000" style ="white-space:pre;" font-weight="400" text-anchor="start" x="0.0000" y="0.0000" font-size="88.0000" ><![CDATA[SAN]]></text>
</g>
<g transform="matrix(1.0000 0.0000 0.0000 1.0000 1062.0000 952.0000)">
<text font-family="Times New Roman" fill="#000000" style ="white-space:pre;" font-weight="400" text-anchor="start" x="0.0000" y="0.0000" font-size="88.0000" ><![CDATA[ ]]></text>
</g>
<g transform="matrix(1.0000 0.0000 0.0000 1.0000 1083.0000 952.0000)">
<text font-family="Times New Roman" fill="#000000" style ="white-space:pre;" font-weight="400" text-anchor="start" x="0.0000" y="0.0000" font-size="88.0000" ><![CDATA[channel BW]]></text>
</g>
<g transform="matrix(1.0000 0.0000 0.0000 1.0000 1518.0000 952.0000)">
<text font-family="Times New Roman" fill="#000000" style ="white-space:pre;" font-weight="400" text-anchor="start" x="0.0000" y="0.0000" font-size="88.0000" ><![CDATA[ ]]></text>
</g>
<g transform="matrix(0.0625 0.0000 0.0000 0.0625 0.0000 0.0000)">
<path d="M 11031.0000,11829.0000 L 11268.0000,11507.0000 L 11160.0000,11428.0000 L 10923.0000,11750.0000 Z M 11347.0000,11399.0000 L 11583.0000,11077.0000 L 11476.0000,10998.0000 L 11239.0000,11320.0000 Z M 11662.0000,10969.0000 L 11899.0000,10647.0000 L 11792.0000,10568.0000 L 11555.0000,10890.0000 Z M 11978.0000,10540.0000 L 12215.0000,10217.0000 L 12108.0000,10138.0000 L 11871.0000,10461.0000 Z M 12294.0000,10110.0000 L 12531.0000,9787.0000 L 12423.0000,9708.0000 L 12186.0000,10031.0000 Z M 12468.0000,10645.0000 L 12578.0000,9611.0000 L 11623.0000,10024.0000 C 11590.0000,10039.0000 11574.0000,10078.0000 11589.0000,10112.0000 C 11603.0000,10146.0000 11643.0000,10161.0000 11676.0000,10147.0000 L 12526.0000,9778.0000 L 12433.0000,9710.0000 L 12336.0000,10631.0000 C 12332.0000,10668.0000 12358.0000,10701.0000 12395.0000,10704.0000 C 12432.0000,10708.0000 12464.0000,10682.0000 12468.0000,10645.0000 Z "  fill="#000000" stroke="#000000" stroke-width="1.0000"  stroke-linecap="butt"  stroke-linejoin="round" />
</g>
<g transform="matrix(1.0000 0.0000 0.0000 1.0000 0.0000 0.0000)">
</g>
<g transform="matrix(0.0625 0.0000 0.0000 0.0625 0.0000 0.0000)">
<path d="M 25940.0000,5758.0000 L 25940.0000,9383.0000 L 25840.0000,9383.0000 L 25840.0000,5758.0000 Z" stroke="#000000" stroke-width="1.0000"  stroke-linecap="butt"  stroke-linejoin="round"  fill="#000000" />
</g>
<g transform="matrix(1.0000 0.0000 0.0000 1.0000 0.0000 0.0000)">
</g>
<g transform="matrix(0.1250 0.0000 0.0000 0.1250 0.0000 0.0000)">
<path d="M 6765.0000,2843.0000 C 6765.0000,2825.0000 6780.0000,2810.0000 6798.0000,2810.0000 L 18802.0000,2810.0000 C 18820.0000,2810.0000 18835.0000,2825.0000 18835.0000,2843.0000 L 18835.0000,4655.0000 C 18835.0000,4674.0000 18820.0000,4689.0000 18802.0000,4689.0000 L 6798.0000,4689.0000 C 6780.0000,4689.0000 6765.0000,4674.0000 6765.0000,4655.0000 Z M 6832.0000,4655.0000 L 6798.0000,4622.0000 L 18802.0000,4622.0000 L 18768.0000,4655.0000 L 18768.0000,2843.0000 L 18802.0000,2876.0000 L 6798.0000,2876.0000 L 6832.0000,2843.0000 Z "  fill="#000000" stroke="#000000" stroke-width="1.0000"  stroke-linecap="butt"  stroke-linejoin="round" />
</g>
<g transform="matrix(1.0000 0.0000 0.0000 1.0000 0.0000 0.0000)">
</g>
</g>
</svg>
