<?xml version="1.0"  encoding="UTF-8" standalone="no"?>
<svg version="1.1" xmlns="http://www.w3.org/2000/svg" xmlns:xlink="http://www.w3.org/1999/xlink" width="369.0000" height="560.0000">
<g transform="translate(-0.0000, -0.0000)">
<g transform="matrix(0.0625 0.0000 0.0000 0.0625 0.0000 0.0000)">
<path d="M 629.0000,478.0000 L 629.0000,1083.0000 L 4862.0000,1083.0000 L 4862.0000,478.0000 L 629.0000,478.0000 Z" stroke-width="1px" stroke="#FFFFFF"  fill="#FFFFFF" />
</g>
<g transform="matrix(1.0000 0.0000 0.0000 1.0000 0.0000 0.0000)">
</g>
<g transform="matrix(0.0625 0.0000 0.0000 0.0625 0.0000 0.0000)">
<path d="M 629.0000,1083.0000 L 4862.0000,1083.0000 L 4862.0000,478.0000 L 629.0000,478.0000 L 629.0000,1083.0000 Z" stroke="#000000" stroke-width="16.0000"  stroke-linecap="round"  stroke-linejoin="round" fill="none" />
</g>
<g transform="matrix(1.0000 0.0000 0.0000 1.0000 0.0000 0.0000)">
</g>
<g transform="matrix(1.0000 0.0000 0.0000 1.0000 159.1101 53.2442)">
<text font-family="Arial" fill="#000000" style ="white-space:pre;" font-weight="400" text-anchor="start" x="0.0000" y="0.0000" font-size="13.0000" ><![CDATA[RSL]]></text>
</g>
<g transform="matrix(0.0625 0.0000 0.0000 0.0625 0.0000 0.0000)">
<path d="M 24.0000,176.0000 L 4862.0000,176.0000 " stroke="#000000" stroke-width="16.0000"  stroke-linecap="round"  stroke-linejoin="round" fill="none" />
</g>
<g transform="matrix(1.0000 0.0000 0.0000 1.0000 0.0000 0.0000)">
</g>
<g transform="matrix(0.0625 0.0000 0.0000 0.0625 0.0000 0.0000)">
<path d="M 24.0000,24.0000 L 24.0000,327.0000 " stroke="#000000" stroke-width="16.0000"  stroke-linecap="round"  stroke-linejoin="round" fill="none" />
</g>
<g transform="matrix(1.0000 0.0000 0.0000 1.0000 0.0000 0.0000)">
</g>
<g transform="matrix(0.0625 0.0000 0.0000 0.0625 0.0000 0.0000)">
<path d="M 629.0000,24.0000 L 629.0000,327.0000 " stroke="#000000" stroke-width="16.0000"  stroke-linecap="round"  stroke-linejoin="round" fill="none" />
</g>
<g transform="matrix(1.0000 0.0000 0.0000 1.0000 0.0000 0.0000)">
</g>
<g transform="matrix(0.0625 0.0000 0.0000 0.0625 0.0000 0.0000)">
<path d="M 1234.0000,24.0000 L 1234.0000,327.0000 " stroke="#000000" stroke-width="16.0000"  stroke-linecap="round"  stroke-linejoin="round" fill="none" />
</g>
<g transform="matrix(1.0000 0.0000 0.0000 1.0000 0.0000 0.0000)">
</g>
<g transform="matrix(0.0625 0.0000 0.0000 0.0625 0.0000 0.0000)">
<path d="M 1839.0000,24.0000 L 1839.0000,327.0000 " stroke="#000000" stroke-width="16.0000"  stroke-linecap="round"  stroke-linejoin="round" fill="none" />
</g>
<g transform="matrix(1.0000 0.0000 0.0000 1.0000 0.0000 0.0000)">
</g>
<g transform="matrix(0.0625 0.0000 0.0000 0.0625 0.0000 0.0000)">
<path d="M 2443.0000,24.0000 L 2443.0000,327.0000 " stroke="#000000" stroke-width="16.0000"  stroke-linecap="round"  stroke-linejoin="round" fill="none" />
</g>
<g transform="matrix(1.0000 0.0000 0.0000 1.0000 0.0000 0.0000)">
</g>
<g transform="matrix(0.0625 0.0000 0.0000 0.0625 0.0000 0.0000)">
<path d="M 3048.0000,24.0000 L 3048.0000,327.0000 " stroke="#000000" stroke-width="16.0000"  stroke-linecap="round"  stroke-linejoin="round" fill="none" />
</g>
<g transform="matrix(1.0000 0.0000 0.0000 1.0000 0.0000 0.0000)">
</g>
<g transform="matrix(0.0625 0.0000 0.0000 0.0625 0.0000 0.0000)">
<path d="M 3653.0000,24.0000 L 3653.0000,327.0000 " stroke="#000000" stroke-width="16.0000"  stroke-linecap="round"  stroke-linejoin="round" fill="none" />
</g>
<g transform="matrix(1.0000 0.0000 0.0000 1.0000 0.0000 0.0000)">
</g>
<g transform="matrix(0.0625 0.0000 0.0000 0.0625 0.0000 0.0000)">
<path d="M 4258.0000,24.0000 L 4258.0000,327.0000 " stroke="#000000" stroke-width="16.0000"  stroke-linecap="round"  stroke-linejoin="round" fill="none" />
</g>
<g transform="matrix(1.0000 0.0000 0.0000 1.0000 0.0000 0.0000)">
</g>
<g transform="matrix(0.0625 0.0000 0.0000 0.0625 0.0000 0.0000)">
<path d="M 4862.0000,24.0000 L 4862.0000,327.0000 " stroke="#000000" stroke-width="16.0000"  stroke-linecap="round"  stroke-linejoin="round" fill="none" />
</g>
<g transform="matrix(1.0000 0.0000 0.0000 1.0000 0.0000 0.0000)">
</g>
<g transform="matrix(0.0625 0.0000 0.0000 0.0625 0.0000 0.0000)">
<path d="M 24.0000,478.0000 L 24.0000,1083.0000 L 629.0000,1083.0000 L 629.0000,478.0000 L 24.0000,478.0000 Z" stroke-width="1px" stroke="#FFFFFF"  fill="#FFFFFF" />
</g>
<g transform="matrix(1.0000 0.0000 0.0000 1.0000 0.0000 0.0000)">
</g>
<g transform="matrix(0.0625 0.0000 0.0000 0.0625 0.0000 0.0000)">
<path d="M 24.0000,1083.0000 L 629.0000,1083.0000 L 629.0000,478.0000 L 24.0000,478.0000 L 24.0000,1083.0000 Z" stroke="#000000" stroke-width="16.0000"  stroke-linecap="round"  stroke-linejoin="round" fill="none" />
</g>
<g transform="matrix(1.0000 0.0000 0.0000 1.0000 0.0000 0.0000)">
</g>
<g transform="matrix(1.0000 0.0000 0.0000 1.0000 12.0111 53.2442)">
<text font-family="Arial" fill="#000000" style ="white-space:pre;" font-weight="400" text-anchor="start" x="0.0000" y="0.0000" font-size="13.0000" ><![CDATA[RT]]></text>
</g>
<g transform="matrix(1.0000 0.0000 0.0000 1.0000 326.2261 53.2442)">
<text font-family="Arial" fill="#000000" style ="white-space:pre;" font-weight="400" text-anchor="start" x="0.0000" y="0.0000" font-size="13.0000" ><![CDATA[O]]></text>
</g>
<g transform="matrix(1.0000 0.0000 0.0000 1.0000 336.5972 53.2442)">
<text font-family="Arial" fill="#000000" style ="white-space:pre;" font-weight="400" text-anchor="start" x="0.0000" y="0.0000" font-size="13.0000" ><![CDATA[c]]></text>
</g>
<g transform="matrix(1.0000 0.0000 0.0000 1.0000 343.2641 53.2442)">
<text font-family="Arial" fill="#000000" style ="white-space:pre;" font-weight="400" text-anchor="start" x="0.0000" y="0.0000" font-size="13.0000" ><![CDATA[t ]]></text>
</g>
<g transform="matrix(1.0000 0.0000 0.0000 1.0000 350.6732 53.2442)">
<text font-family="Arial" fill="#000000" style ="white-space:pre;" font-weight="400" text-anchor="start" x="0.0000" y="0.0000" font-size="13.0000" ><![CDATA[1]]></text>
</g>
<g transform="matrix(0.0625 0.0000 0.0000 0.0625 0.0000 0.0000)">
<path d="M 24.0000,1083.0000 L 24.0000,1687.0000 L 4862.0000,1687.0000 L 4862.0000,1083.0000 L 24.0000,1083.0000 Z" stroke-width="1px" stroke="#FFFFFF"  fill="#FFFFFF" />
</g>
<g transform="matrix(1.0000 0.0000 0.0000 1.0000 0.0000 0.0000)">
</g>
<g transform="matrix(0.0625 0.0000 0.0000 0.0625 0.0000 0.0000)">
<path d="M 24.0000,1687.0000 L 4862.0000,1687.0000 L 4862.0000,1083.0000 L 24.0000,1083.0000 L 24.0000,1687.0000 Z" stroke="#000000" stroke-width="16.0000"  stroke-linecap="round"  stroke-linejoin="round" fill="none" />
</g>
<g transform="matrix(1.0000 0.0000 0.0000 1.0000 0.0000 0.0000)">
</g>
<g transform="matrix(1.0000 0.0000 0.0000 1.0000 140.2124 91.0395)">
<text font-family="Arial" fill="#000000" style ="white-space:pre;" font-weight="400" text-anchor="start" x="0.0000" y="0.0000" font-size="13.0000" ><![CDATA[RSL]]></text>
</g>
<g transform="matrix(0.0625 0.0000 0.0000 0.0625 0.0000 0.0000)">
<path d="M 24.0000,1687.0000 L 24.0000,2292.0000 L 1234.0000,2292.0000 L 1234.0000,1687.0000 L 24.0000,1687.0000 Z" stroke-width="1px" stroke="#FFFFFF"  fill="#FFFFFF" />
</g>
<g transform="matrix(1.0000 0.0000 0.0000 1.0000 0.0000 0.0000)">
</g>
<g transform="matrix(0.0625 0.0000 0.0000 0.0625 0.0000 0.0000)">
<path d="M 24.0000,2292.0000 L 1234.0000,2292.0000 L 1234.0000,1687.0000 L 24.0000,1687.0000 L 24.0000,2292.0000 Z" stroke="#000000" stroke-width="16.0000"  stroke-linecap="round"  stroke-linejoin="round" fill="none" />
</g>
<g transform="matrix(1.0000 0.0000 0.0000 1.0000 0.0000 0.0000)">
</g>
<g transform="matrix(1.0000 0.0000 0.0000 1.0000 26.8265 128.8347)">
<text font-family="Arial" fill="#000000" style ="white-space:pre;" font-weight="400" text-anchor="start" x="0.0000" y="0.0000" font-size="13.0000" ><![CDATA[RSL]]></text>
</g>
<g transform="matrix(0.0625 0.0000 0.0000 0.0625 0.0000 0.0000)">
<path d="M 1234.0000,1687.0000 L 1234.0000,2292.0000 L 4258.0000,2292.0000 L 4258.0000,1687.0000 L 1234.0000,1687.0000 Z" stroke-width="1px" stroke="#FFFFFF"  fill="#FFFFFF" />
</g>
<g transform="matrix(1.0000 0.0000 0.0000 1.0000 0.0000 0.0000)">
</g>
<g transform="matrix(0.0625 0.0000 0.0000 0.0625 0.0000 0.0000)">
<path d="M 1234.0000,2292.0000 L 4258.0000,2292.0000 L 4258.0000,1687.0000 L 1234.0000,1687.0000 L 1234.0000,2292.0000 Z" stroke="#000000" stroke-width="16.0000"  stroke-linecap="round"  stroke-linejoin="round" fill="none" />
</g>
<g transform="matrix(1.0000 0.0000 0.0000 1.0000 0.0000 0.0000)">
</g>
<g transform="matrix(1.0000 0.0000 0.0000 1.0000 159.6624 128.8347)">
<text font-family="Arial" fill="#000000" style ="white-space:pre;" font-weight="400" text-anchor="start" x="0.0000" y="0.0000" font-size="13.0000" ><![CDATA[LSI]]></text>
</g>
<g transform="matrix(1.0000 0.0000 0.0000 1.0000 179.6759 130.6771)">
<text font-family="Arial" fill="#000000" style ="white-space:pre;" font-weight="400" text-anchor="start" x="0.0000" y="0.0000" font-size="9.0000" ><![CDATA[0]]></text>
</g>
<g transform="matrix(0.0625 0.0000 0.0000 0.0625 0.0000 0.0000)">
<path d="M 4258.0000,1687.0000 L 4258.0000,2292.0000 L 4862.0000,2292.0000 L 4862.0000,1687.0000 L 4258.0000,1687.0000 Z" stroke-width="1px" stroke="#FFFFFF"  fill="#FFFFFF" />
</g>
<g transform="matrix(1.0000 0.0000 0.0000 1.0000 0.0000 0.0000)">
</g>
<g transform="matrix(0.0625 0.0000 0.0000 0.0625 0.0000 0.0000)">
<path d="M 4258.0000,2292.0000 L 4862.0000,2292.0000 L 4862.0000,1687.0000 L 4258.0000,1687.0000 L 4258.0000,2292.0000 Z" stroke="#000000" stroke-width="16.0000"  stroke-linecap="round"  stroke-linejoin="round" fill="none" />
</g>
<g transform="matrix(1.0000 0.0000 0.0000 1.0000 0.0000 0.0000)">
</g>
<g transform="matrix(1.0000 0.0000 0.0000 1.0000 273.4261 128.8347)">
<text font-family="Arial" fill="#000000" style ="white-space:pre;" font-weight="400" text-anchor="start" x="0.0000" y="0.0000" font-size="13.0000" ><![CDATA[RC]]></text>
</g>
<g transform="matrix(1.0000 0.0000 0.0000 1.0000 292.6836 130.6771)">
<text font-family="Arial" fill="#000000" style ="white-space:pre;" font-weight="400" text-anchor="start" x="0.0000" y="0.0000" font-size="9.0000" ><![CDATA[0]]></text>
</g>
<g transform="matrix(0.0625 0.0000 0.0000 0.0625 0.0000 0.0000)">
<path d="M 24.0000,2292.0000 L 24.0000,2897.0000 L 4862.0000,2897.0000 L 4862.0000,2292.0000 L 24.0000,2292.0000 Z" stroke-width="1px" stroke="#FFFFFF"  fill="#FFFFFF" />
</g>
<g transform="matrix(1.0000 0.0000 0.0000 1.0000 0.0000 0.0000)">
</g>
<g transform="matrix(0.0625 0.0000 0.0000 0.0625 0.0000 0.0000)">
<path d="M 24.0000,2897.0000 L 4862.0000,2897.0000 L 4862.0000,2292.0000 L 24.0000,2292.0000 L 24.0000,2897.0000 Z" stroke="#000000" stroke-width="16.0000"  stroke-linecap="round"  stroke-linejoin="round" fill="none" />
</g>
<g transform="matrix(1.0000 0.0000 0.0000 1.0000 0.0000 0.0000)">
</g>
<g transform="matrix(1.0000 0.0000 0.0000 1.0000 141.1426 166.6300)">
<text font-family="Arial" fill="#000000" style ="white-space:pre;" font-weight="400" text-anchor="start" x="0.0000" y="0.0000" font-size="13.0000" ><![CDATA[RC]]></text>
</g>
<g transform="matrix(1.0000 0.0000 0.0000 1.0000 160.4001 168.4724)">
<text font-family="Arial" fill="#000000" style ="white-space:pre;" font-weight="400" text-anchor="start" x="0.0000" y="0.0000" font-size="9.0000" ><![CDATA[0]]></text>
</g>
<g transform="matrix(0.0625 0.0000 0.0000 0.0625 0.0000 0.0000)">
<path d="M 24.0000,2897.0000 L 24.0000,3502.0000 L 4862.0000,3502.0000 L 4862.0000,2897.0000 L 24.0000,2897.0000 Z" stroke-width="1px" stroke="#FFFFFF"  fill="#FFFFFF" />
</g>
<g transform="matrix(1.0000 0.0000 0.0000 1.0000 0.0000 0.0000)">
</g>
<g transform="matrix(0.0625 0.0000 0.0000 0.0625 0.0000 0.0000)">
<path d="M 24.0000,3502.0000 L 4862.0000,3502.0000 L 4862.0000,2897.0000 L 24.0000,2897.0000 L 24.0000,3502.0000 Z" stroke="#000000" stroke-width="16.0000"  stroke-linecap="round"  stroke-linejoin="round" fill="none" />
</g>
<g transform="matrix(1.0000 0.0000 0.0000 1.0000 0.0000 0.0000)">
</g>
<g transform="matrix(1.0000 0.0000 0.0000 1.0000 141.1426 204.4253)">
<text font-family="Arial" fill="#000000" style ="white-space:pre;" font-weight="400" text-anchor="start" x="0.0000" y="0.0000" font-size="13.0000" ><![CDATA[RC]]></text>
</g>
<g transform="matrix(1.0000 0.0000 0.0000 1.0000 160.4001 206.2677)">
<text font-family="Arial" fill="#000000" style ="white-space:pre;" font-weight="400" text-anchor="start" x="0.0000" y="0.0000" font-size="9.0000" ><![CDATA[0]]></text>
</g>
<g transform="matrix(0.0625 0.0000 0.0000 0.0625 0.0000 0.0000)">
<path d="M 24.0000,3502.0000 L 24.0000,4106.0000 L 4862.0000,4106.0000 L 4862.0000,3502.0000 L 24.0000,3502.0000 Z" stroke-width="1px" stroke="#FFFFFF"  fill="#FFFFFF" />
</g>
<g transform="matrix(1.0000 0.0000 0.0000 1.0000 0.0000 0.0000)">
</g>
<g transform="matrix(0.0625 0.0000 0.0000 0.0625 0.0000 0.0000)">
<path d="M 24.0000,4106.0000 L 4862.0000,4106.0000 L 4862.0000,3502.0000 L 24.0000,3502.0000 L 24.0000,4106.0000 Z" stroke="#000000" stroke-width="16.0000"  stroke-linecap="round"  stroke-linejoin="round" fill="none" />
</g>
<g transform="matrix(1.0000 0.0000 0.0000 1.0000 0.0000 0.0000)">
</g>
<g transform="matrix(1.0000 0.0000 0.0000 1.0000 141.1426 242.2205)">
<text font-family="Arial" fill="#000000" style ="white-space:pre;" font-weight="400" text-anchor="start" x="0.0000" y="0.0000" font-size="13.0000" ><![CDATA[RC]]></text>
</g>
<g transform="matrix(1.0000 0.0000 0.0000 1.0000 160.4001 244.0629)">
<text font-family="Arial" fill="#000000" style ="white-space:pre;" font-weight="400" text-anchor="start" x="0.0000" y="0.0000" font-size="9.0000" ><![CDATA[0]]></text>
</g>
<g transform="matrix(0.0625 0.0000 0.0000 0.0625 0.0000 0.0000)">
<path d="M 24.0000,4106.0000 L 24.0000,4711.0000 L 629.0000,4711.0000 L 629.0000,4106.0000 L 24.0000,4106.0000 Z" stroke-width="1px" stroke="#FFFFFF"  fill="#FFFFFF" />
</g>
<g transform="matrix(1.0000 0.0000 0.0000 1.0000 0.0000 0.0000)">
</g>
<g transform="matrix(0.0625 0.0000 0.0000 0.0625 0.0000 0.0000)">
<path d="M 24.0000,4711.0000 L 629.0000,4711.0000 L 629.0000,4106.0000 L 24.0000,4106.0000 L 24.0000,4711.0000 Z" stroke="#000000" stroke-width="16.0000"  stroke-linecap="round"  stroke-linejoin="round" fill="none" />
</g>
<g transform="matrix(1.0000 0.0000 0.0000 1.0000 0.0000 0.0000)">
</g>
<g transform="matrix(1.0000 0.0000 0.0000 1.0000 8.8591 280.0158)">
<text font-family="Arial" fill="#000000" style ="white-space:pre;" font-weight="400" text-anchor="start" x="0.0000" y="0.0000" font-size="13.0000" ><![CDATA[RC]]></text>
</g>
<g transform="matrix(1.0000 0.0000 0.0000 1.0000 28.1167 281.8582)">
<text font-family="Arial" fill="#000000" style ="white-space:pre;" font-weight="400" text-anchor="start" x="0.0000" y="0.0000" font-size="9.0000" ><![CDATA[0]]></text>
</g>
<g transform="matrix(0.0625 0.0000 0.0000 0.0625 0.0000 0.0000)">
<path d="M 629.0000,4106.0000 L 629.0000,4711.0000 L 1234.0000,4711.0000 L 1234.0000,4106.0000 L 629.0000,4106.0000 Z" stroke-width="1px" stroke="#FFFFFF"  fill="#FFFFFF" />
</g>
<g transform="matrix(1.0000 0.0000 0.0000 1.0000 0.0000 0.0000)">
</g>
<g transform="matrix(0.0625 0.0000 0.0000 0.0625 0.0000 0.0000)">
<path d="M 629.0000,4711.0000 L 1234.0000,4711.0000 L 1234.0000,4106.0000 L 629.0000,4106.0000 L 629.0000,4711.0000 Z" stroke="#000000" stroke-width="16.0000"  stroke-linecap="round"  stroke-linejoin="round" fill="none" />
</g>
<g transform="matrix(1.0000 0.0000 0.0000 1.0000 0.0000 0.0000)">
</g>
<g transform="matrix(1.0000 0.0000 0.0000 1.0000 53.8787 280.0158)">
<text font-family="Arial" fill="#000000" style ="white-space:pre;" font-weight="400" text-anchor="start" x="0.0000" y="0.0000" font-size="13.0000" ><![CDATA[R]]></text>
</g>
<g transform="matrix(0.0625 0.0000 0.0000 0.0625 0.0000 0.0000)">
<path d="M 1234.0000,4106.0000 L 1234.0000,4711.0000 L 1839.0000,4711.0000 L 1839.0000,4106.0000 L 1234.0000,4106.0000 Z" stroke-width="1px" stroke="#FFFFFF"  fill="#FFFFFF" />
</g>
<g transform="matrix(1.0000 0.0000 0.0000 1.0000 0.0000 0.0000)">
</g>
<g transform="matrix(0.0625 0.0000 0.0000 0.0625 0.0000 0.0000)">
<path d="M 1234.0000,4711.0000 L 1839.0000,4711.0000 L 1839.0000,4106.0000 L 1234.0000,4106.0000 L 1234.0000,4711.0000 Z" stroke="#000000" stroke-width="16.0000"  stroke-linecap="round"  stroke-linejoin="round" fill="none" />
</g>
<g transform="matrix(1.0000 0.0000 0.0000 1.0000 0.0000 0.0000)">
</g>
<g transform="matrix(1.0000 0.0000 0.0000 1.0000 91.6739 280.0158)">
<text font-family="Arial" fill="#000000" style ="white-space:pre;" font-weight="400" text-anchor="start" x="0.0000" y="0.0000" font-size="13.0000" ><![CDATA[R]]></text>
</g>
<g transform="matrix(0.0625 0.0000 0.0000 0.0625 0.0000 0.0000)">
<path d="M 1839.0000,4106.0000 L 1839.0000,4711.0000 L 2443.0000,4711.0000 L 2443.0000,4106.0000 L 1839.0000,4106.0000 Z" stroke-width="1px" stroke="#FFFFFF"  fill="#FFFFFF" />
</g>
<g transform="matrix(1.0000 0.0000 0.0000 1.0000 0.0000 0.0000)">
</g>
<g transform="matrix(0.0625 0.0000 0.0000 0.0625 0.0000 0.0000)">
<path d="M 1839.0000,4711.0000 L 2443.0000,4711.0000 L 2443.0000,4106.0000 L 1839.0000,4106.0000 L 1839.0000,4711.0000 Z" stroke="#000000" stroke-width="16.0000"  stroke-linecap="round"  stroke-linejoin="round" fill="none" />
</g>
<g transform="matrix(1.0000 0.0000 0.0000 1.0000 0.0000 0.0000)">
</g>
<g transform="matrix(1.0000 0.0000 0.0000 1.0000 129.4692 280.0158)">
<text font-family="Arial" fill="#000000" style ="white-space:pre;" font-weight="400" text-anchor="start" x="0.0000" y="0.0000" font-size="13.0000" ><![CDATA[R]]></text>
</g>
<g transform="matrix(0.0625 0.0000 0.0000 0.0625 0.0000 0.0000)">
<path d="M 2443.0000,4106.0000 L 2443.0000,4711.0000 L 3048.0000,4711.0000 L 3048.0000,4106.0000 L 2443.0000,4106.0000 Z" stroke-width="1px" stroke="#FFFFFF"  fill="#FFFFFF" />
</g>
<g transform="matrix(1.0000 0.0000 0.0000 1.0000 0.0000 0.0000)">
</g>
<g transform="matrix(0.0625 0.0000 0.0000 0.0625 0.0000 0.0000)">
<path d="M 2443.0000,4711.0000 L 3048.0000,4711.0000 L 3048.0000,4106.0000 L 2443.0000,4106.0000 L 2443.0000,4711.0000 Z" stroke="#000000" stroke-width="16.0000"  stroke-linecap="round"  stroke-linejoin="round" fill="none" />
</g>
<g transform="matrix(1.0000 0.0000 0.0000 1.0000 0.0000 0.0000)">
</g>
<g transform="matrix(1.0000 0.0000 0.0000 1.0000 167.2645 280.0158)">
<text font-family="Arial" fill="#000000" style ="white-space:pre;" font-weight="400" text-anchor="start" x="0.0000" y="0.0000" font-size="13.0000" ><![CDATA[R]]></text>
</g>
<g transform="matrix(0.0625 0.0000 0.0000 0.0625 0.0000 0.0000)">
<path d="M 3048.0000,4106.0000 L 3048.0000,4711.0000 L 3653.0000,4711.0000 L 3653.0000,4106.0000 L 3048.0000,4106.0000 Z" stroke-width="1px" stroke="#FFFFFF"  fill="#FFFFFF" />
</g>
<g transform="matrix(1.0000 0.0000 0.0000 1.0000 0.0000 0.0000)">
</g>
<g transform="matrix(0.0625 0.0000 0.0000 0.0625 0.0000 0.0000)">
<path d="M 3048.0000,4711.0000 L 3653.0000,4711.0000 L 3653.0000,4106.0000 L 3048.0000,4106.0000 L 3048.0000,4711.0000 Z" stroke="#000000" stroke-width="16.0000"  stroke-linecap="round"  stroke-linejoin="round" fill="none" />
</g>
<g transform="matrix(1.0000 0.0000 0.0000 1.0000 0.0000 0.0000)">
</g>
<g transform="matrix(1.0000 0.0000 0.0000 1.0000 205.0598 280.0158)">
<text font-family="Arial" fill="#000000" style ="white-space:pre;" font-weight="400" text-anchor="start" x="0.0000" y="0.0000" font-size="13.0000" ><![CDATA[R]]></text>
</g>
<g transform="matrix(0.0625 0.0000 0.0000 0.0625 0.0000 0.0000)">
<path d="M 3653.0000,4106.0000 L 3653.0000,4711.0000 L 4258.0000,4711.0000 L 4258.0000,4106.0000 L 3653.0000,4106.0000 Z" stroke-width="1px" stroke="#FFFFFF"  fill="#FFFFFF" />
</g>
<g transform="matrix(1.0000 0.0000 0.0000 1.0000 0.0000 0.0000)">
</g>
<g transform="matrix(0.0625 0.0000 0.0000 0.0625 0.0000 0.0000)">
<path d="M 3653.0000,4711.0000 L 4258.0000,4711.0000 L 4258.0000,4106.0000 L 3653.0000,4106.0000 L 3653.0000,4711.0000 Z" stroke="#000000" stroke-width="16.0000"  stroke-linecap="round"  stroke-linejoin="round" fill="none" />
</g>
<g transform="matrix(1.0000 0.0000 0.0000 1.0000 0.0000 0.0000)">
</g>
<g transform="matrix(1.0000 0.0000 0.0000 1.0000 242.8550 280.0158)">
<text font-family="Arial" fill="#000000" style ="white-space:pre;" font-weight="400" text-anchor="start" x="0.0000" y="0.0000" font-size="13.0000" ><![CDATA[R]]></text>
</g>
<g transform="matrix(0.0625 0.0000 0.0000 0.0625 0.0000 0.0000)">
<path d="M 4258.0000,4106.0000 L 4258.0000,4711.0000 L 4862.0000,4711.0000 L 4862.0000,4106.0000 L 4258.0000,4106.0000 Z" stroke-width="1px" stroke="#FFFFFF"  fill="#FFFFFF" />
</g>
<g transform="matrix(1.0000 0.0000 0.0000 1.0000 0.0000 0.0000)">
</g>
<g transform="matrix(0.0625 0.0000 0.0000 0.0625 0.0000 0.0000)">
<path d="M 4258.0000,4711.0000 L 4862.0000,4711.0000 L 4862.0000,4106.0000 L 4258.0000,4106.0000 L 4258.0000,4711.0000 Z" stroke="#000000" stroke-width="16.0000"  stroke-linecap="round"  stroke-linejoin="round" fill="none" />
</g>
<g transform="matrix(1.0000 0.0000 0.0000 1.0000 0.0000 0.0000)">
</g>
<g transform="matrix(1.0000 0.0000 0.0000 1.0000 280.6503 280.0158)">
<text font-family="Arial" fill="#000000" style ="white-space:pre;" font-weight="400" text-anchor="start" x="0.0000" y="0.0000" font-size="13.0000" ><![CDATA[R]]></text>
</g>
<g transform="matrix(1.0000 0.0000 0.0000 1.0000 146.1132 319.4111)">
<text font-family="Calibri" fill="#000000" style ="white-space:pre;" font-weight="400" text-anchor="start" x="0.0000" y="0.0000" font-size="19.0000" ><![CDATA[...]]></text>
</g>
<g transform="matrix(0.0625 0.0000 0.0000 0.0625 0.0000 0.0000)">
<path d="M 24.0000,5316.0000 L 24.0000,5921.0000 L 4862.0000,5921.0000 L 4862.0000,5316.0000 L 24.0000,5316.0000 Z" stroke-width="1px" stroke="#FFFFFF"  fill="#FFFFFF" />
</g>
<g transform="matrix(1.0000 0.0000 0.0000 1.0000 0.0000 0.0000)">
</g>
<g transform="matrix(0.0625 0.0000 0.0000 0.0625 0.0000 0.0000)">
<path d="M 24.0000,5921.0000 L 4862.0000,5921.0000 L 4862.0000,5316.0000 L 24.0000,5316.0000 L 24.0000,5921.0000 Z" stroke="#000000" stroke-width="16.0000"  stroke-linecap="round"  stroke-linejoin="round" fill="none" />
</g>
<g transform="matrix(1.0000 0.0000 0.0000 1.0000 0.0000 0.0000)">
</g>
<g transform="matrix(1.0000 0.0000 0.0000 1.0000 82.7858 355.6064)">
<text font-family="Arial" fill="#000000" style ="white-space:pre;" font-weight="400" text-anchor="start" x="0.0000" y="0.0000" font-size="13.0000" ><![CDATA[First resource location]]></text>
</g>
<g transform="matrix(1.0000 0.0000 0.0000 1.0000 213.9460 357.4488)">
<text font-family="Arial" fill="#000000" style ="white-space:pre;" font-weight="400" text-anchor="start" x="0.0000" y="0.0000" font-size="9.0000" ><![CDATA[i]]></text>
</g>
<g transform="matrix(1.0000 0.0000 0.0000 1.0000 215.8712 357.4488)">
<text font-family="Arial" fill="#000000" style ="white-space:pre;" font-weight="400" text-anchor="start" x="0.0000" y="0.0000" font-size="9.0000" ><![CDATA[-]]></text>
</g>
<g transform="matrix(1.0000 0.0000 0.0000 1.0000 218.7570 357.4488)">
<text font-family="Arial" fill="#000000" style ="white-space:pre;" font-weight="400" text-anchor="start" x="0.0000" y="0.0000" font-size="9.0000" ><![CDATA[1]]></text>
</g>
<g transform="matrix(0.0625 0.0000 0.0000 0.0625 0.0000 0.0000)">
<path d="M 24.0000,5921.0000 L 24.0000,6525.0000 L 3048.0000,6525.0000 L 3048.0000,5921.0000 L 24.0000,5921.0000 Z" stroke-width="1px" stroke="#FFFFFF"  fill="#FFFFFF" />
</g>
<g transform="matrix(1.0000 0.0000 0.0000 1.0000 0.0000 0.0000)">
</g>
<g transform="matrix(0.0625 0.0000 0.0000 0.0625 0.0000 0.0000)">
<path d="M 24.0000,6525.0000 L 3048.0000,6525.0000 L 3048.0000,5921.0000 L 24.0000,5921.0000 L 24.0000,6525.0000 Z" stroke="#000000" stroke-width="16.0000"  stroke-linecap="round"  stroke-linejoin="round" fill="none" />
</g>
<g transform="matrix(1.0000 0.0000 0.0000 1.0000 0.0000 0.0000)">
</g>
<g transform="matrix(1.0000 0.0000 0.0000 1.0000 26.0930 393.4016)">
<text font-family="Arial" fill="#000000" style ="white-space:pre;" font-weight="400" text-anchor="start" x="0.0000" y="0.0000" font-size="13.0000" ><![CDATA[First resource location]]></text>
</g>
<g transform="matrix(1.0000 0.0000 0.0000 1.0000 157.2533 395.2440)">
<text font-family="Arial" fill="#000000" style ="white-space:pre;" font-weight="400" text-anchor="start" x="0.0000" y="0.0000" font-size="9.0000" ><![CDATA[i]]></text>
</g>
<g transform="matrix(1.0000 0.0000 0.0000 1.0000 159.1785 395.2440)">
<text font-family="Arial" fill="#000000" style ="white-space:pre;" font-weight="400" text-anchor="start" x="0.0000" y="0.0000" font-size="9.0000" ><![CDATA[-]]></text>
</g>
<g transform="matrix(1.0000 0.0000 0.0000 1.0000 162.0642 395.2440)">
<text font-family="Arial" fill="#000000" style ="white-space:pre;" font-weight="400" text-anchor="start" x="0.0000" y="0.0000" font-size="9.0000" ><![CDATA[1]]></text>
</g>
<g transform="matrix(0.0625 0.0000 0.0000 0.0625 0.0000 0.0000)">
<path d="M 3048.0000,5921.0000 L 3048.0000,6525.0000 L 4862.0000,6525.0000 L 4862.0000,5921.0000 L 3048.0000,5921.0000 Z" stroke-width="1px" stroke="#FFFFFF"  fill="#FFFFFF" />
</g>
<g transform="matrix(1.0000 0.0000 0.0000 1.0000 0.0000 0.0000)">
</g>
<g transform="matrix(0.0625 0.0000 0.0000 0.0625 0.0000 0.0000)">
<path d="M 3048.0000,6525.0000 L 4862.0000,6525.0000 L 4862.0000,5921.0000 L 3048.0000,5921.0000 L 3048.0000,6525.0000 Z" stroke="#000000" stroke-width="16.0000"  stroke-linecap="round"  stroke-linejoin="round" fill="none" />
</g>
<g transform="matrix(1.0000 0.0000 0.0000 1.0000 0.0000 0.0000)">
</g>
<g transform="matrix(1.0000 0.0000 0.0000 1.0000 236.7000 393.4016)">
<text font-family="Arial" fill="#000000" style ="white-space:pre;" font-weight="400" text-anchor="start" x="0.0000" y="0.0000" font-size="13.0000" ><![CDATA[LSI]]></text>
</g>
<g transform="matrix(1.0000 0.0000 0.0000 1.0000 256.7134 395.2440)">
<text font-family="Arial" fill="#000000" style ="white-space:pre;" font-weight="400" text-anchor="start" x="0.0000" y="0.0000" font-size="9.0000" ><![CDATA[i]]></text>
</g>
<g transform="matrix(0.0625 0.0000 0.0000 0.0625 0.0000 0.0000)">
<path d="M 24.0000,6525.0000 L 24.0000,7130.0000 L 1234.0000,7130.0000 L 1234.0000,6525.0000 L 24.0000,6525.0000 Z" stroke-width="1px" stroke="#FFFFFF"  fill="#FFFFFF" />
</g>
<g transform="matrix(1.0000 0.0000 0.0000 1.0000 0.0000 0.0000)">
</g>
<g transform="matrix(0.0625 0.0000 0.0000 0.0625 0.0000 0.0000)">
<path d="M 24.0000,7130.0000 L 1234.0000,7130.0000 L 1234.0000,6525.0000 L 24.0000,6525.0000 L 24.0000,7130.0000 Z" stroke="#000000" stroke-width="16.0000"  stroke-linecap="round"  stroke-linejoin="round" fill="none" />
</g>
<g transform="matrix(1.0000 0.0000 0.0000 1.0000 0.0000 0.0000)">
</g>
<g transform="matrix(1.0000 0.0000 0.0000 1.0000 28.8260 431.1969)">
<text font-family="Arial" fill="#000000" style ="white-space:pre;" font-weight="400" text-anchor="start" x="0.0000" y="0.0000" font-size="13.0000" ><![CDATA[LSI]]></text>
</g>
<g transform="matrix(1.0000 0.0000 0.0000 1.0000 48.8395 433.0393)">
<text font-family="Arial" fill="#000000" style ="white-space:pre;" font-weight="400" text-anchor="start" x="0.0000" y="0.0000" font-size="9.0000" ><![CDATA[i]]></text>
</g>
<g transform="matrix(0.0625 0.0000 0.0000 0.0625 0.0000 0.0000)">
<path d="M 1234.0000,6525.0000 L 1234.0000,7130.0000 L 4862.0000,7130.0000 L 4862.0000,6525.0000 L 1234.0000,6525.0000 Z" stroke-width="1px" stroke="#FFFFFF"  fill="#FFFFFF" />
</g>
<g transform="matrix(1.0000 0.0000 0.0000 1.0000 0.0000 0.0000)">
</g>
<g transform="matrix(0.0625 0.0000 0.0000 0.0625 0.0000 0.0000)">
<path d="M 1234.0000,7130.0000 L 4862.0000,7130.0000 L 4862.0000,6525.0000 L 1234.0000,6525.0000 L 1234.0000,7130.0000 Z" stroke="#000000" stroke-width="16.0000"  stroke-linecap="round"  stroke-linejoin="round" fill="none" />
</g>
<g transform="matrix(1.0000 0.0000 0.0000 1.0000 0.0000 0.0000)">
</g>
<g transform="matrix(1.0000 0.0000 0.0000 1.0000 180.3852 431.1969)">
<text font-family="Arial" fill="#000000" style ="white-space:pre;" font-weight="400" text-anchor="start" x="0.0000" y="0.0000" font-size="13.0000" ><![CDATA[RC]]></text>
</g>
<g transform="matrix(1.0000 0.0000 0.0000 1.0000 199.6428 433.0393)">
<text font-family="Arial" fill="#000000" style ="white-space:pre;" font-weight="400" text-anchor="start" x="0.0000" y="0.0000" font-size="9.0000" ><![CDATA[i]]></text>
</g>
<g transform="matrix(0.0625 0.0000 0.0000 0.0625 0.0000 0.0000)">
<path d="M 24.0000,7130.0000 L 24.0000,7735.0000 L 4862.0000,7735.0000 L 4862.0000,7130.0000 L 24.0000,7130.0000 Z" stroke-width="1px" stroke="#FFFFFF"  fill="#FFFFFF" />
</g>
<g transform="matrix(1.0000 0.0000 0.0000 1.0000 0.0000 0.0000)">
</g>
<g transform="matrix(0.0625 0.0000 0.0000 0.0625 0.0000 0.0000)">
<path d="M 24.0000,7735.0000 L 4862.0000,7735.0000 L 4862.0000,7130.0000 L 24.0000,7130.0000 L 24.0000,7735.0000 Z" stroke="#000000" stroke-width="16.0000"  stroke-linecap="round"  stroke-linejoin="round" fill="none" />
</g>
<g transform="matrix(1.0000 0.0000 0.0000 1.0000 0.0000 0.0000)">
</g>
<g transform="matrix(1.0000 0.0000 0.0000 1.0000 142.5898 468.9922)">
<text font-family="Arial" fill="#000000" style ="white-space:pre;" font-weight="400" text-anchor="start" x="0.0000" y="0.0000" font-size="13.0000" ><![CDATA[RC]]></text>
</g>
<g transform="matrix(1.0000 0.0000 0.0000 1.0000 161.8474 470.8346)">
<text font-family="Arial" fill="#000000" style ="white-space:pre;" font-weight="400" text-anchor="start" x="0.0000" y="0.0000" font-size="9.0000" ><![CDATA[i]]></text>
</g>
<g transform="matrix(0.0625 0.0000 0.0000 0.0625 0.0000 0.0000)">
<path d="M 24.0000,7735.0000 L 24.0000,8339.0000 L 4862.0000,8339.0000 L 4862.0000,7735.0000 L 24.0000,7735.0000 Z" stroke-width="1px" stroke="#FFFFFF"  fill="#FFFFFF" />
</g>
<g transform="matrix(1.0000 0.0000 0.0000 1.0000 0.0000 0.0000)">
</g>
<g transform="matrix(0.0625 0.0000 0.0000 0.0625 0.0000 0.0000)">
<path d="M 24.0000,8339.0000 L 4862.0000,8339.0000 L 4862.0000,7735.0000 L 24.0000,7735.0000 L 24.0000,8339.0000 Z" stroke="#000000" stroke-width="16.0000"  stroke-linecap="round"  stroke-linejoin="round" fill="none" />
</g>
<g transform="matrix(1.0000 0.0000 0.0000 1.0000 0.0000 0.0000)">
</g>
<g transform="matrix(1.0000 0.0000 0.0000 1.0000 142.5898 506.7875)">
<text font-family="Arial" fill="#000000" style ="white-space:pre;" font-weight="400" text-anchor="start" x="0.0000" y="0.0000" font-size="13.0000" ><![CDATA[RC]]></text>
</g>
<g transform="matrix(1.0000 0.0000 0.0000 1.0000 161.8474 508.6299)">
<text font-family="Arial" fill="#000000" style ="white-space:pre;" font-weight="400" text-anchor="start" x="0.0000" y="0.0000" font-size="9.0000" ><![CDATA[i]]></text>
</g>
<g transform="matrix(0.0625 0.0000 0.0000 0.0625 0.0000 0.0000)">
<path d="M 24.0000,8339.0000 L 24.0000,8944.0000 L 2443.0000,8944.0000 L 2443.0000,8339.0000 L 24.0000,8339.0000 Z" stroke-width="1px" stroke="#FFFFFF"  fill="#FFFFFF" />
</g>
<g transform="matrix(1.0000 0.0000 0.0000 1.0000 0.0000 0.0000)">
<defs><clipPath id="clip-1804289383"><path d="M 0.0000,0.0000 L 381.0000,0.0000 L 381.0000,561.0000 L 0.0000,561.0000 L 0.0000,0.0000 Z Z" /></clipPath></defs>
</g>
<g transform="matrix(0.0625 0.0000 0.0000 0.0625 0.0000 0.0000)">
<path  clip-path="url(#clip-1804289383)" d="M 24.0000,8944.0000 L 2443.0000,8944.0000 L 2443.0000,8339.0000 L 24.0000,8339.0000 L 24.0000,8944.0000 Z" stroke="#000000" stroke-width="16.0000"  stroke-linecap="round"  stroke-linejoin="round" fill="none" />
</g>
<g transform="matrix(1.0000 0.0000 0.0000 1.0000 0.0000 0.0000)">
</g>
<g transform="matrix(1.0000 0.0000 0.0000 1.0000 66.9991 544.5828)">
<text font-family="Arial" fill="#000000" style ="white-space:pre;" font-weight="400" text-anchor="start" x="0.0000" y="0.0000" font-size="13.0000" ><![CDATA[RC]]></text>
</g>
<g transform="matrix(1.0000 0.0000 0.0000 1.0000 86.2567 546.4252)">
<text font-family="Arial" fill="#000000" style ="white-space:pre;" font-weight="400" text-anchor="start" x="0.0000" y="0.0000" font-size="9.0000" ><![CDATA[i]]></text>
</g>
<g transform="matrix(0.0625 0.0000 0.0000 0.0625 0.0000 0.0000)">
<path d="M 2443.0000,8339.0000 L 2443.0000,8944.0000 L 3048.0000,8944.0000 L 3048.0000,8339.0000 L 2443.0000,8339.0000 Z" stroke-width="1px" stroke="#FFFFFF"  fill="#FFFFFF" />
</g>
<g transform="matrix(1.0000 0.0000 0.0000 1.0000 0.0000 0.0000)">
<defs><clipPath id="clip-846930886"><path d="M 0.0000,0.0000 L 381.0000,0.0000 L 381.0000,561.0000 L 0.0000,561.0000 L 0.0000,0.0000 Z Z" /></clipPath></defs>
</g>
<g transform="matrix(0.0625 0.0000 0.0000 0.0625 0.0000 0.0000)">
<path  clip-path="url(#clip-846930886)" d="M 2443.0000,8944.0000 L 3048.0000,8944.0000 L 3048.0000,8339.0000 L 2443.0000,8339.0000 L 2443.0000,8944.0000 Z" stroke="#000000" stroke-width="16.0000"  stroke-linecap="round"  stroke-linejoin="round" fill="none" />
</g>
<g transform="matrix(1.0000 0.0000 0.0000 1.0000 0.0000 0.0000)">
</g>
<g transform="matrix(1.0000 0.0000 0.0000 1.0000 167.2645 544.5828)">
<text font-family="Arial" fill="#000000" style ="white-space:pre;" font-weight="400" text-anchor="start" x="0.0000" y="0.0000" font-size="13.0000" ><![CDATA[R]]></text>
</g>
<g transform="matrix(0.0625 0.0000 0.0000 0.0625 0.0000 0.0000)">
<path d="M 3048.0000,8339.0000 L 3048.0000,8944.0000 L 3653.0000,8944.0000 L 3653.0000,8339.0000 L 3048.0000,8339.0000 Z" stroke-width="1px" stroke="#FFFFFF"  fill="#FFFFFF" />
</g>
<g transform="matrix(1.0000 0.0000 0.0000 1.0000 0.0000 0.0000)">
<defs><clipPath id="clip-1681692777"><path d="M 0.0000,0.0000 L 381.0000,0.0000 L 381.0000,561.0000 L 0.0000,561.0000 L 0.0000,0.0000 Z Z" /></clipPath></defs>
</g>
<g transform="matrix(0.0625 0.0000 0.0000 0.0625 0.0000 0.0000)">
<path  clip-path="url(#clip-1681692777)" d="M 3048.0000,8944.0000 L 3653.0000,8944.0000 L 3653.0000,8339.0000 L 3048.0000,8339.0000 L 3048.0000,8944.0000 Z" stroke="#000000" stroke-width="16.0000"  stroke-linecap="round"  stroke-linejoin="round" fill="none" />
</g>
<g transform="matrix(1.0000 0.0000 0.0000 1.0000 0.0000 0.0000)">
</g>
<g transform="matrix(1.0000 0.0000 0.0000 1.0000 205.0598 544.5828)">
<text font-family="Arial" fill="#000000" style ="white-space:pre;" font-weight="400" text-anchor="start" x="0.0000" y="0.0000" font-size="13.0000" ><![CDATA[R]]></text>
</g>
<g transform="matrix(0.0625 0.0000 0.0000 0.0625 0.0000 0.0000)">
<path d="M 3653.0000,8339.0000 L 3653.0000,8944.0000 L 4258.0000,8944.0000 L 4258.0000,8339.0000 L 3653.0000,8339.0000 Z" stroke-width="1px" stroke="#FFFFFF"  fill="#FFFFFF" />
</g>
<g transform="matrix(1.0000 0.0000 0.0000 1.0000 0.0000 0.0000)">
<defs><clipPath id="clip-1714636915"><path d="M 0.0000,0.0000 L 381.0000,0.0000 L 381.0000,561.0000 L 0.0000,561.0000 L 0.0000,0.0000 Z Z" /></clipPath></defs>
</g>
<g transform="matrix(0.0625 0.0000 0.0000 0.0625 0.0000 0.0000)">
<path  clip-path="url(#clip-1714636915)" d="M 3653.0000,8944.0000 L 4258.0000,8944.0000 L 4258.0000,8339.0000 L 3653.0000,8339.0000 L 3653.0000,8944.0000 Z" stroke="#000000" stroke-width="16.0000"  stroke-linecap="round"  stroke-linejoin="round" fill="none" />
</g>
<g transform="matrix(1.0000 0.0000 0.0000 1.0000 0.0000 0.0000)">
</g>
<g transform="matrix(1.0000 0.0000 0.0000 1.0000 242.8550 544.5828)">
<text font-family="Arial" fill="#000000" style ="white-space:pre;" font-weight="400" text-anchor="start" x="0.0000" y="0.0000" font-size="13.0000" ><![CDATA[R]]></text>
</g>
<g transform="matrix(0.0625 0.0000 0.0000 0.0625 0.0000 0.0000)">
<path d="M 4258.0000,8339.0000 L 4258.0000,8944.0000 L 4862.0000,8944.0000 L 4862.0000,8339.0000 L 4258.0000,8339.0000 Z" stroke-width="1px" stroke="#FFFFFF"  fill="#FFFFFF" />
</g>
<g transform="matrix(1.0000 0.0000 0.0000 1.0000 0.0000 0.0000)">
<defs><clipPath id="clip-1957747793"><path d="M 0.0000,0.0000 L 381.0000,0.0000 L 381.0000,561.0000 L 0.0000,561.0000 L 0.0000,0.0000 Z Z" /></clipPath></defs>
</g>
<g transform="matrix(0.0625 0.0000 0.0000 0.0625 0.0000 0.0000)">
<path  clip-path="url(#clip-1957747793)" d="M 4258.0000,8944.0000 L 4862.0000,8944.0000 L 4862.0000,8339.0000 L 4258.0000,8339.0000 L 4258.0000,8944.0000 Z" stroke="#000000" stroke-width="16.0000"  stroke-linecap="round"  stroke-linejoin="round" fill="none" />
</g>
<g transform="matrix(1.0000 0.0000 0.0000 1.0000 0.0000 0.0000)">
</g>
<g transform="matrix(1.0000 0.0000 0.0000 1.0000 280.6503 544.5828)">
<text font-family="Arial" fill="#000000" style ="white-space:pre;" font-weight="400" text-anchor="start" x="0.0000" y="0.0000" font-size="13.0000" ><![CDATA[R]]></text>
</g>
<g transform="matrix(1.0000 0.0000 0.0000 1.0000 326.2261 91.0395)">
<text font-family="Arial" fill="#000000" style ="white-space:pre;" font-weight="400" text-anchor="start" x="0.0000" y="0.0000" font-size="13.0000" ><![CDATA[O]]></text>
</g>
<g transform="matrix(1.0000 0.0000 0.0000 1.0000 336.5972 91.0395)">
<text font-family="Arial" fill="#000000" style ="white-space:pre;" font-weight="400" text-anchor="start" x="0.0000" y="0.0000" font-size="13.0000" ><![CDATA[c]]></text>
</g>
<g transform="matrix(1.0000 0.0000 0.0000 1.0000 343.2641 91.0395)">
<text font-family="Arial" fill="#000000" style ="white-space:pre;" font-weight="400" text-anchor="start" x="0.0000" y="0.0000" font-size="13.0000" ><![CDATA[t ]]></text>
</g>
<g transform="matrix(1.0000 0.0000 0.0000 1.0000 350.6732 91.0395)">
<text font-family="Arial" fill="#000000" style ="white-space:pre;" font-weight="400" text-anchor="start" x="0.0000" y="0.0000" font-size="13.0000" ><![CDATA[2]]></text>
</g>
<g transform="matrix(1.0000 0.0000 0.0000 1.0000 326.2261 128.8347)">
<text font-family="Arial" fill="#000000" style ="white-space:pre;" font-weight="400" text-anchor="start" x="0.0000" y="0.0000" font-size="13.0000" ><![CDATA[O]]></text>
</g>
<g transform="matrix(1.0000 0.0000 0.0000 1.0000 336.5972 128.8347)">
<text font-family="Arial" fill="#000000" style ="white-space:pre;" font-weight="400" text-anchor="start" x="0.0000" y="0.0000" font-size="13.0000" ><![CDATA[c]]></text>
</g>
<g transform="matrix(1.0000 0.0000 0.0000 1.0000 343.2641 128.8347)">
<text font-family="Arial" fill="#000000" style ="white-space:pre;" font-weight="400" text-anchor="start" x="0.0000" y="0.0000" font-size="13.0000" ><![CDATA[t ]]></text>
</g>
<g transform="matrix(1.0000 0.0000 0.0000 1.0000 350.6732 128.8347)">
<text font-family="Arial" fill="#000000" style ="white-space:pre;" font-weight="400" text-anchor="start" x="0.0000" y="0.0000" font-size="13.0000" ><![CDATA[3]]></text>
</g>
<g transform="matrix(1.0000 0.0000 0.0000 1.0000 326.2261 166.6300)">
<text font-family="Arial" fill="#000000" style ="white-space:pre;" font-weight="400" text-anchor="start" x="0.0000" y="0.0000" font-size="13.0000" ><![CDATA[O]]></text>
</g>
<g transform="matrix(1.0000 0.0000 0.0000 1.0000 336.5972 166.6300)">
<text font-family="Arial" fill="#000000" style ="white-space:pre;" font-weight="400" text-anchor="start" x="0.0000" y="0.0000" font-size="13.0000" ><![CDATA[c]]></text>
</g>
<g transform="matrix(1.0000 0.0000 0.0000 1.0000 343.2641 166.6300)">
<text font-family="Arial" fill="#000000" style ="white-space:pre;" font-weight="400" text-anchor="start" x="0.0000" y="0.0000" font-size="13.0000" ><![CDATA[t ]]></text>
</g>
<g transform="matrix(1.0000 0.0000 0.0000 1.0000 350.6732 166.6300)">
<text font-family="Arial" fill="#000000" style ="white-space:pre;" font-weight="400" text-anchor="start" x="0.0000" y="0.0000" font-size="13.0000" ><![CDATA[4]]></text>
</g>
<g transform="matrix(1.0000 0.0000 0.0000 1.0000 326.2261 204.4253)">
<text font-family="Arial" fill="#000000" style ="white-space:pre;" font-weight="400" text-anchor="start" x="0.0000" y="0.0000" font-size="13.0000" ><![CDATA[O]]></text>
</g>
<g transform="matrix(1.0000 0.0000 0.0000 1.0000 336.5972 204.4253)">
<text font-family="Arial" fill="#000000" style ="white-space:pre;" font-weight="400" text-anchor="start" x="0.0000" y="0.0000" font-size="13.0000" ><![CDATA[c]]></text>
</g>
<g transform="matrix(1.0000 0.0000 0.0000 1.0000 343.2641 204.4253)">
<text font-family="Arial" fill="#000000" style ="white-space:pre;" font-weight="400" text-anchor="start" x="0.0000" y="0.0000" font-size="13.0000" ><![CDATA[t ]]></text>
</g>
<g transform="matrix(1.0000 0.0000 0.0000 1.0000 350.6732 204.4253)">
<text font-family="Arial" fill="#000000" style ="white-space:pre;" font-weight="400" text-anchor="start" x="0.0000" y="0.0000" font-size="13.0000" ><![CDATA[5]]></text>
</g>
<g transform="matrix(1.0000 0.0000 0.0000 1.0000 326.2261 242.2205)">
<text font-family="Arial" fill="#000000" style ="white-space:pre;" font-weight="400" text-anchor="start" x="0.0000" y="0.0000" font-size="13.0000" ><![CDATA[O]]></text>
</g>
<g transform="matrix(1.0000 0.0000 0.0000 1.0000 336.5972 242.2205)">
<text font-family="Arial" fill="#000000" style ="white-space:pre;" font-weight="400" text-anchor="start" x="0.0000" y="0.0000" font-size="13.0000" ><![CDATA[c]]></text>
</g>
<g transform="matrix(1.0000 0.0000 0.0000 1.0000 343.2641 242.2205)">
<text font-family="Arial" fill="#000000" style ="white-space:pre;" font-weight="400" text-anchor="start" x="0.0000" y="0.0000" font-size="13.0000" ><![CDATA[t ]]></text>
</g>
<g transform="matrix(1.0000 0.0000 0.0000 1.0000 350.6732 242.2205)">
<text font-family="Arial" fill="#000000" style ="white-space:pre;" font-weight="400" text-anchor="start" x="0.0000" y="0.0000" font-size="13.0000" ><![CDATA[6]]></text>
</g>
<g transform="matrix(1.0000 0.0000 0.0000 1.0000 326.2261 280.0158)">
<text font-family="Arial" fill="#000000" style ="white-space:pre;" font-weight="400" text-anchor="start" x="0.0000" y="0.0000" font-size="13.0000" ><![CDATA[O]]></text>
</g>
<g transform="matrix(1.0000 0.0000 0.0000 1.0000 336.5972 280.0158)">
<text font-family="Arial" fill="#000000" style ="white-space:pre;" font-weight="400" text-anchor="start" x="0.0000" y="0.0000" font-size="13.0000" ><![CDATA[c]]></text>
</g>
<g transform="matrix(1.0000 0.0000 0.0000 1.0000 343.2641 280.0158)">
<text font-family="Arial" fill="#000000" style ="white-space:pre;" font-weight="400" text-anchor="start" x="0.0000" y="0.0000" font-size="13.0000" ><![CDATA[t ]]></text>
</g>
<g transform="matrix(1.0000 0.0000 0.0000 1.0000 350.6732 280.0158)">
<text font-family="Arial" fill="#000000" style ="white-space:pre;" font-weight="400" text-anchor="start" x="0.0000" y="0.0000" font-size="13.0000" ><![CDATA[7]]></text>
</g>
<g transform="matrix(1.0000 0.0000 0.0000 1.0000 315.4840 355.6064)">
<text font-family="Arial" fill="#000000" style ="white-space:pre;" font-weight="400" text-anchor="start" x="0.0000" y="0.0000" font-size="13.0000" ><![CDATA[O]]></text>
</g>
<g transform="matrix(1.0000 0.0000 0.0000 1.0000 325.8551 355.6064)">
<text font-family="Arial" fill="#000000" style ="white-space:pre;" font-weight="400" text-anchor="start" x="0.0000" y="0.0000" font-size="13.0000" ><![CDATA[c]]></text>
</g>
<g transform="matrix(1.0000 0.0000 0.0000 1.0000 332.5220 355.6064)">
<text font-family="Arial" fill="#000000" style ="white-space:pre;" font-weight="400" text-anchor="start" x="0.0000" y="0.0000" font-size="13.0000" ><![CDATA[t ]]></text>
</g>
<g transform="matrix(1.0000 0.0000 0.0000 1.0000 339.9312 355.6064)">
<text font-family="Arial" fill="#000000" style ="white-space:pre;" font-weight="400" text-anchor="start" x="0.0000" y="0.0000" font-size="13.0000" ><![CDATA[6]]></text>
</g>
<g transform="matrix(1.0000 0.0000 0.0000 1.0000 347.3466 355.6064)">
<text font-family="Arial" fill="#000000" style ="white-space:pre;" font-weight="400" text-anchor="start" x="0.0000" y="0.0000" font-size="13.0000" ><![CDATA[N]]></text>
</g>
<g transform="matrix(1.0000 0.0000 0.0000 1.0000 356.9754 355.6064)">
<text font-family="Arial" fill="#000000" style ="white-space:pre;" font-weight="400" text-anchor="start" x="0.0000" y="0.0000" font-size="13.0000" ><![CDATA[-]]></text>
</g>
<g transform="matrix(1.0000 0.0000 0.0000 1.0000 361.4153 355.6064)">
<text font-family="Arial" fill="#000000" style ="white-space:pre;" font-weight="400" text-anchor="start" x="0.0000" y="0.0000" font-size="13.0000" ><![CDATA[4]]></text>
</g>
<g transform="matrix(1.0000 0.0000 0.0000 1.0000 315.4840 393.4016)">
<text font-family="Arial" fill="#000000" style ="white-space:pre;" font-weight="400" text-anchor="start" x="0.0000" y="0.0000" font-size="13.0000" ><![CDATA[O]]></text>
</g>
<g transform="matrix(1.0000 0.0000 0.0000 1.0000 325.8551 393.4016)">
<text font-family="Arial" fill="#000000" style ="white-space:pre;" font-weight="400" text-anchor="start" x="0.0000" y="0.0000" font-size="13.0000" ><![CDATA[c]]></text>
</g>
<g transform="matrix(1.0000 0.0000 0.0000 1.0000 332.5220 393.4016)">
<text font-family="Arial" fill="#000000" style ="white-space:pre;" font-weight="400" text-anchor="start" x="0.0000" y="0.0000" font-size="13.0000" ><![CDATA[t ]]></text>
</g>
<g transform="matrix(1.0000 0.0000 0.0000 1.0000 339.9312 393.4016)">
<text font-family="Arial" fill="#000000" style ="white-space:pre;" font-weight="400" text-anchor="start" x="0.0000" y="0.0000" font-size="13.0000" ><![CDATA[6]]></text>
</g>
<g transform="matrix(1.0000 0.0000 0.0000 1.0000 347.3466 393.4016)">
<text font-family="Arial" fill="#000000" style ="white-space:pre;" font-weight="400" text-anchor="start" x="0.0000" y="0.0000" font-size="13.0000" ><![CDATA[N]]></text>
</g>
<g transform="matrix(1.0000 0.0000 0.0000 1.0000 356.9754 393.4016)">
<text font-family="Arial" fill="#000000" style ="white-space:pre;" font-weight="400" text-anchor="start" x="0.0000" y="0.0000" font-size="13.0000" ><![CDATA[-]]></text>
</g>
<g transform="matrix(1.0000 0.0000 0.0000 1.0000 361.4153 393.4016)">
<text font-family="Arial" fill="#000000" style ="white-space:pre;" font-weight="400" text-anchor="start" x="0.0000" y="0.0000" font-size="13.0000" ><![CDATA[3]]></text>
</g>
<g transform="matrix(1.0000 0.0000 0.0000 1.0000 315.4840 431.1969)">
<text font-family="Arial" fill="#000000" style ="white-space:pre;" font-weight="400" text-anchor="start" x="0.0000" y="0.0000" font-size="13.0000" ><![CDATA[O]]></text>
</g>
<g transform="matrix(1.0000 0.0000 0.0000 1.0000 325.8551 431.1969)">
<text font-family="Arial" fill="#000000" style ="white-space:pre;" font-weight="400" text-anchor="start" x="0.0000" y="0.0000" font-size="13.0000" ><![CDATA[c]]></text>
</g>
<g transform="matrix(1.0000 0.0000 0.0000 1.0000 332.5220 431.1969)">
<text font-family="Arial" fill="#000000" style ="white-space:pre;" font-weight="400" text-anchor="start" x="0.0000" y="0.0000" font-size="13.0000" ><![CDATA[t ]]></text>
</g>
<g transform="matrix(1.0000 0.0000 0.0000 1.0000 339.9312 431.1969)">
<text font-family="Arial" fill="#000000" style ="white-space:pre;" font-weight="400" text-anchor="start" x="0.0000" y="0.0000" font-size="13.0000" ><![CDATA[6]]></text>
</g>
<g transform="matrix(1.0000 0.0000 0.0000 1.0000 347.3466 431.1969)">
<text font-family="Arial" fill="#000000" style ="white-space:pre;" font-weight="400" text-anchor="start" x="0.0000" y="0.0000" font-size="13.0000" ><![CDATA[N]]></text>
</g>
<g transform="matrix(1.0000 0.0000 0.0000 1.0000 356.9754 431.1969)">
<text font-family="Arial" fill="#000000" style ="white-space:pre;" font-weight="400" text-anchor="start" x="0.0000" y="0.0000" font-size="13.0000" ><![CDATA[-]]></text>
</g>
<g transform="matrix(1.0000 0.0000 0.0000 1.0000 361.4153 431.1969)">
<text font-family="Arial" fill="#000000" style ="white-space:pre;" font-weight="400" text-anchor="start" x="0.0000" y="0.0000" font-size="13.0000" ><![CDATA[2]]></text>
</g>
<g transform="matrix(1.0000 0.0000 0.0000 1.0000 315.4840 468.9922)">
<text font-family="Arial" fill="#000000" style ="white-space:pre;" font-weight="400" text-anchor="start" x="0.0000" y="0.0000" font-size="13.0000" ><![CDATA[O]]></text>
</g>
<g transform="matrix(1.0000 0.0000 0.0000 1.0000 325.8551 468.9922)">
<text font-family="Arial" fill="#000000" style ="white-space:pre;" font-weight="400" text-anchor="start" x="0.0000" y="0.0000" font-size="13.0000" ><![CDATA[c]]></text>
</g>
<g transform="matrix(1.0000 0.0000 0.0000 1.0000 332.5220 468.9922)">
<text font-family="Arial" fill="#000000" style ="white-space:pre;" font-weight="400" text-anchor="start" x="0.0000" y="0.0000" font-size="13.0000" ><![CDATA[t ]]></text>
</g>
<g transform="matrix(1.0000 0.0000 0.0000 1.0000 339.9312 468.9922)">
<text font-family="Arial" fill="#000000" style ="white-space:pre;" font-weight="400" text-anchor="start" x="0.0000" y="0.0000" font-size="13.0000" ><![CDATA[6]]></text>
</g>
<g transform="matrix(1.0000 0.0000 0.0000 1.0000 347.3466 468.9922)">
<text font-family="Arial" fill="#000000" style ="white-space:pre;" font-weight="400" text-anchor="start" x="0.0000" y="0.0000" font-size="13.0000" ><![CDATA[N]]></text>
</g>
<g transform="matrix(1.0000 0.0000 0.0000 1.0000 356.9754 468.9922)">
<text font-family="Arial" fill="#000000" style ="white-space:pre;" font-weight="400" text-anchor="start" x="0.0000" y="0.0000" font-size="13.0000" ><![CDATA[-]]></text>
</g>
<g transform="matrix(1.0000 0.0000 0.0000 1.0000 361.4153 468.9922)">
<text font-family="Arial" fill="#000000" style ="white-space:pre;" font-weight="400" text-anchor="start" x="0.0000" y="0.0000" font-size="13.0000" ><![CDATA[1]]></text>
</g>
<g transform="matrix(1.0000 0.0000 0.0000 1.0000 321.4119 506.7875)">
<text font-family="Arial" fill="#000000" style ="white-space:pre;" font-weight="400" text-anchor="start" x="0.0000" y="0.0000" font-size="13.0000" ><![CDATA[O]]></text>
</g>
<g transform="matrix(1.0000 0.0000 0.0000 1.0000 331.7830 506.7875)">
<text font-family="Arial" fill="#000000" style ="white-space:pre;" font-weight="400" text-anchor="start" x="0.0000" y="0.0000" font-size="13.0000" ><![CDATA[c]]></text>
</g>
<g transform="matrix(1.0000 0.0000 0.0000 1.0000 338.4499 506.7875)">
<text font-family="Arial" fill="#000000" style ="white-space:pre;" font-weight="400" text-anchor="start" x="0.0000" y="0.0000" font-size="13.0000" ><![CDATA[t ]]></text>
</g>
<g transform="matrix(1.0000 0.0000 0.0000 1.0000 345.8590 506.7875)">
<text font-family="Arial" fill="#000000" style ="white-space:pre;" font-weight="400" text-anchor="start" x="0.0000" y="0.0000" font-size="13.0000" ><![CDATA[6]]></text>
</g>
<g transform="matrix(1.0000 0.0000 0.0000 1.0000 353.2744 506.7875)">
<text font-family="Arial" fill="#000000" style ="white-space:pre;" font-weight="400" text-anchor="start" x="0.0000" y="0.0000" font-size="13.0000" ><![CDATA[N]]></text>
</g>
<g transform="matrix(1.0000 0.0000 0.0000 1.0000 313.8108 544.5828)">
<text font-family="Arial" fill="#000000" style ="white-space:pre;" font-weight="400" text-anchor="start" x="0.0000" y="0.0000" font-size="13.0000" ><![CDATA[O]]></text>
</g>
<g transform="matrix(1.0000 0.0000 0.0000 1.0000 324.1819 544.5828)">
<text font-family="Arial" fill="#000000" style ="white-space:pre;" font-weight="400" text-anchor="start" x="0.0000" y="0.0000" font-size="13.0000" ><![CDATA[c]]></text>
</g>
<g transform="matrix(1.0000 0.0000 0.0000 1.0000 330.8488 544.5828)">
<text font-family="Arial" fill="#000000" style ="white-space:pre;" font-weight="400" text-anchor="start" x="0.0000" y="0.0000" font-size="13.0000" ><![CDATA[t ]]></text>
</g>
<g transform="matrix(1.0000 0.0000 0.0000 1.0000 338.2580 544.5828)">
<text font-family="Arial" fill="#000000" style ="white-space:pre;" font-weight="400" text-anchor="start" x="0.0000" y="0.0000" font-size="13.0000" ><![CDATA[6]]></text>
</g>
<g transform="matrix(1.0000 0.0000 0.0000 1.0000 345.6734 544.5828)">
<text font-family="Arial" fill="#000000" style ="white-space:pre;" font-weight="400" text-anchor="start" x="0.0000" y="0.0000" font-size="13.0000" ><![CDATA[N]]></text>
</g>
<g transform="matrix(1.0000 0.0000 0.0000 1.0000 355.3022 544.5828)">
<text font-family="Arial" fill="#000000" style ="white-space:pre;" font-weight="400" text-anchor="start" x="0.0000" y="0.0000" font-size="13.0000" ><![CDATA[+]]></text>
</g>
<g transform="matrix(1.0000 0.0000 0.0000 1.0000 363.0885 544.5828)">
<text font-family="Arial" fill="#000000" style ="white-space:pre;" font-weight="400" text-anchor="start" x="0.0000" y="0.0000" font-size="13.0000" ><![CDATA[1]]></text>
</g>
</g>
</svg>
