<?xml version="1.0"  encoding="UTF-8" standalone="no"?>
<svg version="1.1" xmlns="http://www.w3.org/2000/svg" xmlns:xlink="http://www.w3.org/1999/xlink" width="782.0000" height="193.0000">
<g transform="translate(4.0000, 1.0000)">
<g transform="matrix(0.0625 0.0000 0.0000 0.0625 0.0000 0.0000)">
<path d="M 19.0000,2438.0000 L 19.0000,3043.0000 L 2136.0000,3043.0000 L 2136.0000,2438.0000 L 19.0000,2438.0000 Z" stroke-width="1px" stroke="#FFFFFF"  fill="#FFFFFF" />
</g>
<g transform="matrix(1.0000 0.0000 0.0000 1.0000 0.0000 0.0000)">
</g>
<g transform="matrix(0.0625 0.0000 0.0000 0.0625 0.0000 0.0000)">
<path d="M 19.0000,3043.0000 L 2136.0000,3043.0000 L 2136.0000,2438.0000 L 19.0000,2438.0000 L 19.0000,3043.0000 Z" stroke="#000000" stroke-width="16.0000"  stroke-linecap="round"  stroke-linejoin="round" fill="none" />
</g>
<g transform="matrix(1.0000 0.0000 0.0000 1.0000 0.0000 0.0000)">
</g>
<g transform="matrix(1.0000 0.0000 0.0000 1.0000 26.3108 167.7389)">
<text font-family="Arial" fill="#000000" style ="white-space:pre;" font-weight="400" text-anchor="start" x="0.0000" y="0.0000" font-size="13.0000" ><![CDATA[MAC subPDU ]]></text>
</g>
<g transform="matrix(1.0000 0.0000 0.0000 1.0000 8.1463 183.7390)">
<text font-family="Arial" fill="#000000" style ="white-space:pre;" font-weight="400" text-anchor="start" x="0.0000" y="0.0000" font-size="13.0000" ><![CDATA[including MAC CE ]]></text>
</g>
<g transform="matrix(1.0000 0.0000 0.0000 1.0000 120.0421 183.7390)">
<text font-family="Arial" fill="#000000" style ="white-space:pre;" font-weight="400" text-anchor="start" x="0.0000" y="0.0000" font-size="13.0000" ><![CDATA[1]]></text>
</g>
<g transform="matrix(0.0625 0.0000 0.0000 0.0625 0.0000 0.0000)">
<path d="M 2136.0000,2438.0000 L 2136.0000,3043.0000 L 4252.0000,3043.0000 L 4252.0000,2438.0000 L 2136.0000,2438.0000 Z" stroke-width="1px" stroke="#FFFFFF"  fill="#FFFFFF" />
</g>
<g transform="matrix(1.0000 0.0000 0.0000 1.0000 0.0000 0.0000)">
</g>
<g transform="matrix(0.0625 0.0000 0.0000 0.0625 0.0000 0.0000)">
<path d="M 2136.0000,3043.0000 L 4252.0000,3043.0000 L 4252.0000,2438.0000 L 2136.0000,2438.0000 L 2136.0000,3043.0000 Z" stroke="#000000" stroke-width="16.0000"  stroke-linecap="round"  stroke-linejoin="round" fill="none" />
</g>
<g transform="matrix(1.0000 0.0000 0.0000 1.0000 0.0000 0.0000)">
</g>
<g transform="matrix(1.0000 0.0000 0.0000 1.0000 158.5942 167.7389)">
<text font-family="Arial" fill="#000000" style ="white-space:pre;" font-weight="400" text-anchor="start" x="0.0000" y="0.0000" font-size="13.0000" ><![CDATA[MAC subPDU ]]></text>
</g>
<g transform="matrix(1.0000 0.0000 0.0000 1.0000 140.4298 183.7390)">
<text font-family="Arial" fill="#000000" style ="white-space:pre;" font-weight="400" text-anchor="start" x="0.0000" y="0.0000" font-size="13.0000" ><![CDATA[including MAC CE ]]></text>
</g>
<g transform="matrix(1.0000 0.0000 0.0000 1.0000 252.3255 183.7390)">
<text font-family="Arial" fill="#000000" style ="white-space:pre;" font-weight="400" text-anchor="start" x="0.0000" y="0.0000" font-size="13.0000" ><![CDATA[2]]></text>
</g>
<g transform="matrix(0.0625 0.0000 0.0000 0.0625 0.0000 0.0000)">
<path d="M 4252.0000,2438.0000 L 4252.0000,3043.0000 L 6671.0000,3043.0000 L 6671.0000,2438.0000 L 4252.0000,2438.0000 Z" stroke-width="1px" stroke="#FFFFFF"  fill="#FFFFFF" />
</g>
<g transform="matrix(1.0000 0.0000 0.0000 1.0000 0.0000 0.0000)">
</g>
<g transform="matrix(0.0625 0.0000 0.0000 0.0625 0.0000 0.0000)">
<path d="M 4252.0000,3043.0000 L 6671.0000,3043.0000 L 6671.0000,2438.0000 L 4252.0000,2438.0000 L 4252.0000,3043.0000 Z" stroke="#000000" stroke-width="16.0000"  stroke-linecap="round"  stroke-linejoin="round" fill="none" />
</g>
<g transform="matrix(1.0000 0.0000 0.0000 1.0000 0.0000 0.0000)">
</g>
<g transform="matrix(1.0000 0.0000 0.0000 1.0000 272.1588 167.7389)">
<text font-family="Arial" fill="#000000" style ="white-space:pre;" font-weight="400" text-anchor="start" x="0.0000" y="0.0000" font-size="13.0000" ><![CDATA[MAC subPDU including ]]></text>
</g>
<g transform="matrix(1.0000 0.0000 0.0000 1.0000 311.0753 183.7390)">
<text font-family="Arial" fill="#000000" style ="white-space:pre;" font-weight="400" text-anchor="start" x="0.0000" y="0.0000" font-size="13.0000" ><![CDATA[MAC SDU]]></text>
</g>
<g transform="matrix(1.0000 0.0000 0.0000 1.0000 432.4187 175.7033)">
<text font-family="Arial" fill="#000000" style ="white-space:pre;" font-weight="400" text-anchor="start" x="0.0000" y="0.0000" font-size="32.0000" ><![CDATA[...]]></text>
</g>
<g transform="matrix(0.0625 0.0000 0.0000 0.0625 0.0000 0.0000)">
<path d="M 7578.0000,2438.0000 L 7578.0000,3043.0000 L 9997.0000,3043.0000 L 9997.0000,2438.0000 L 7578.0000,2438.0000 Z" stroke-width="1px" stroke="#FFFFFF"  fill="#FFFFFF" />
</g>
<g transform="matrix(1.0000 0.0000 0.0000 1.0000 0.0000 0.0000)">
</g>
<g transform="matrix(0.0625 0.0000 0.0000 0.0625 0.0000 0.0000)">
<path d="M 7578.0000,3043.0000 L 9997.0000,3043.0000 L 9997.0000,2438.0000 L 7578.0000,2438.0000 L 7578.0000,3043.0000 Z" stroke="#000000" stroke-width="16.0000"  stroke-linecap="round"  stroke-linejoin="round" fill="none" />
</g>
<g transform="matrix(1.0000 0.0000 0.0000 1.0000 0.0000 0.0000)">
</g>
<g transform="matrix(1.0000 0.0000 0.0000 1.0000 480.0328 167.7389)">
<text font-family="Arial" fill="#000000" style ="white-space:pre;" font-weight="400" text-anchor="start" x="0.0000" y="0.0000" font-size="13.0000" ><![CDATA[MAC subPDU including ]]></text>
</g>
<g transform="matrix(1.0000 0.0000 0.0000 1.0000 518.9493 183.7390)">
<text font-family="Arial" fill="#000000" style ="white-space:pre;" font-weight="400" text-anchor="start" x="0.0000" y="0.0000" font-size="13.0000" ><![CDATA[MAC SDU]]></text>
</g>
<g transform="matrix(0.0625 0.0000 0.0000 0.0625 0.0000 0.0000)">
<path d="M 9997.0000,2438.0000 L 9997.0000,3043.0000 L 12416.0000,3043.0000 L 12416.0000,2438.0000 L 9997.0000,2438.0000 Z" stroke-width="1px" stroke="#FFFFFF"  fill="#FFFFFF" />
</g>
<g transform="matrix(1.0000 0.0000 0.0000 1.0000 0.0000 0.0000)">
</g>
<g transform="matrix(0.0625 0.0000 0.0000 0.0625 0.0000 0.0000)">
<path d="M 9997.0000,3043.0000 L 12416.0000,3043.0000 L 12416.0000,2438.0000 L 9997.0000,2438.0000 L 9997.0000,3043.0000 Z" stroke="#000000" stroke-width="16.0000"  stroke-linecap="round"  stroke-linejoin="round" fill="none" />
</g>
<g transform="matrix(1.0000 0.0000 0.0000 1.0000 0.0000 0.0000)">
</g>
<g transform="matrix(1.0000 0.0000 0.0000 1.0000 631.2139 167.7389)">
<text font-family="Arial" fill="#000000" style ="white-space:pre;" font-weight="400" text-anchor="start" x="0.0000" y="0.0000" font-size="13.0000" ><![CDATA[MAC subPDU including ]]></text>
</g>
<g transform="matrix(1.0000 0.0000 0.0000 1.0000 661.5853 183.7390)">
<text font-family="Arial" fill="#000000" style ="white-space:pre;" font-weight="400" text-anchor="start" x="0.0000" y="0.0000" font-size="13.0000" ><![CDATA[padding ]]></text>
</g>
<g transform="matrix(1.0000 0.0000 0.0000 1.0000 712.7446 183.7390)">
<text font-family="Arial" fill="#000000" style ="white-space:pre;" font-weight="400" text-anchor="start" x="0.0000" y="0.0000" font-size="13.0000" ><![CDATA[(]]></text>
</g>
<g transform="matrix(1.0000 0.0000 0.0000 1.0000 717.1845 183.7390)">
<text font-family="Arial" fill="#000000" style ="white-space:pre;" font-weight="400" text-anchor="start" x="0.0000" y="0.0000" font-size="13.0000" ><![CDATA[opt]]></text>
</g>
<g transform="matrix(1.0000 0.0000 0.0000 1.0000 735.7199 183.7390)">
<text font-family="Arial" fill="#000000" style ="white-space:pre;" font-weight="400" text-anchor="start" x="0.0000" y="0.0000" font-size="13.0000" ><![CDATA[)]]></text>
</g>
<g transform="matrix(0.0625 0.0000 0.0000 0.0625 0.0000 0.0000)">
<path d="M 11.0000,2438.0000 L 11.0000,2326.0000 C 11.0000,2321.0000 15.0000,2318.0000 19.0000,2318.0000 C 23.0000,2318.0000 27.0000,2321.0000 27.0000,2326.0000 L 27.0000,2438.0000 C 27.0000,2442.0000 23.0000,2446.0000 19.0000,2446.0000 C 15.0000,2446.0000 11.0000,2442.0000 11.0000,2438.0000 Z M 11.0000,2246.0000 L 11.0000,2134.0000 C 11.0000,2129.0000 15.0000,2126.0000 19.0000,2126.0000 C 23.0000,2126.0000 27.0000,2129.0000 27.0000,2134.0000 L 27.0000,2246.0000 C 27.0000,2250.0000 23.0000,2254.0000 19.0000,2254.0000 C 15.0000,2254.0000 11.0000,2250.0000 11.0000,2246.0000 Z M 11.0000,2054.0000 L 11.0000,1941.0000 C 11.0000,1937.0000 15.0000,1933.0000 19.0000,1933.0000 C 23.0000,1933.0000 27.0000,1937.0000 27.0000,1941.0000 L 27.0000,2054.0000 C 27.0000,2058.0000 23.0000,2062.0000 19.0000,2062.0000 C 15.0000,2062.0000 11.0000,2058.0000 11.0000,2054.0000 Z M 11.0000,1861.0000 L 11.0000,1749.0000 C 11.0000,1745.0000 15.0000,1741.0000 19.0000,1741.0000 C 23.0000,1741.0000 27.0000,1745.0000 27.0000,1749.0000 L 27.0000,1861.0000 C 27.0000,1866.0000 23.0000,1869.0000 19.0000,1869.0000 C 15.0000,1869.0000 11.0000,1866.0000 11.0000,1861.0000 Z M 11.0000,1669.0000 L 11.0000,1557.0000 C 11.0000,1553.0000 15.0000,1549.0000 19.0000,1549.0000 C 23.0000,1549.0000 27.0000,1553.0000 27.0000,1557.0000 L 27.0000,1669.0000 C 27.0000,1674.0000 23.0000,1677.0000 19.0000,1677.0000 C 15.0000,1677.0000 11.0000,1674.0000 11.0000,1669.0000 Z M 11.0000,1477.0000 L 11.0000,1365.0000 C 11.0000,1360.0000 15.0000,1357.0000 19.0000,1357.0000 C 23.0000,1357.0000 27.0000,1360.0000 27.0000,1365.0000 L 27.0000,1477.0000 C 27.0000,1481.0000 23.0000,1485.0000 19.0000,1485.0000 C 15.0000,1485.0000 11.0000,1481.0000 11.0000,1477.0000 Z M 11.0000,1285.0000 L 11.0000,1173.0000 C 11.0000,1168.0000 15.0000,1165.0000 19.0000,1165.0000 C 23.0000,1165.0000 27.0000,1168.0000 27.0000,1173.0000 L 27.0000,1285.0000 C 27.0000,1289.0000 23.0000,1293.0000 19.0000,1293.0000 C 15.0000,1293.0000 11.0000,1289.0000 11.0000,1285.0000 Z M 11.0000,1093.0000 L 11.0000,980.0000 C 11.0000,976.0000 15.0000,972.0000 19.0000,972.0000 C 23.0000,972.0000 27.0000,976.0000 27.0000,980.0000 L 27.0000,1093.0000 C 27.0000,1097.0000 23.0000,1101.0000 19.0000,1101.0000 C 15.0000,1101.0000 11.0000,1097.0000 11.0000,1093.0000 Z M 11.0000,900.0000 L 11.0000,788.0000 C 11.0000,784.0000 15.0000,780.0000 19.0000,780.0000 C 23.0000,780.0000 27.0000,784.0000 27.0000,788.0000 L 27.0000,900.0000 C 27.0000,905.0000 23.0000,908.0000 19.0000,908.0000 C 15.0000,908.0000 11.0000,905.0000 11.0000,900.0000 Z M 11.0000,708.0000 L 11.0000,624.0000 C 11.0000,619.0000 15.0000,616.0000 19.0000,616.0000 C 23.0000,616.0000 27.0000,619.0000 27.0000,624.0000 L 27.0000,708.0000 C 27.0000,713.0000 23.0000,716.0000 19.0000,716.0000 C 15.0000,716.0000 11.0000,713.0000 11.0000,708.0000 Z "  fill="#000000" stroke="#000000" stroke-width="1.0000"  stroke-linecap="butt"  stroke-linejoin="round" />
</g>
<g transform="matrix(1.0000 0.0000 0.0000 1.0000 0.0000 0.0000)">
</g>
<g transform="matrix(0.0625 0.0000 0.0000 0.0625 0.0000 0.0000)">
<path d="M 19.0000,19.0000 L 19.0000,624.0000 L 1228.0000,624.0000 L 1228.0000,19.0000 L 19.0000,19.0000 Z" stroke-width="1px" stroke="#FFFFFF"  fill="#FFFFFF" />
</g>
<g transform="matrix(1.0000 0.0000 0.0000 1.0000 0.0000 0.0000)">
</g>
<g transform="matrix(0.0625 0.0000 0.0000 0.0625 0.0000 0.0000)">
<path d="M 19.0000,624.0000 L 1228.0000,624.0000 L 1228.0000,19.0000 L 19.0000,19.0000 L 19.0000,624.0000 Z" stroke="#000000" stroke-width="16.0000"  stroke-linecap="round"  stroke-linejoin="round" fill="none" />
</g>
<g transform="matrix(1.0000 0.0000 0.0000 1.0000 0.0000 0.0000)">
</g>
<g transform="matrix(1.0000 0.0000 0.0000 1.0000 19.7852 16.9577)">
<text font-family="Arial" fill="#000000" style ="white-space:pre;" font-weight="400" text-anchor="start" x="0.0000" y="0.0000" font-size="12.0000" ><![CDATA[R]]></text>
</g>
<g transform="matrix(1.0000 0.0000 0.0000 1.0000 28.4513 16.9577)">
<text font-family="Arial" fill="#000000" style ="white-space:pre;" font-weight="400" text-anchor="start" x="0.0000" y="0.0000" font-size="12.0000" ><![CDATA[/]]></text>
</g>
<g transform="matrix(1.0000 0.0000 0.0000 1.0000 31.7852 16.9577)">
<text font-family="Arial" fill="#000000" style ="white-space:pre;" font-weight="400" text-anchor="start" x="0.0000" y="0.0000" font-size="12.0000" ><![CDATA[LCID ]]></text>
</g>
<g transform="matrix(1.0000 0.0000 0.0000 1.0000 11.0987 31.3575)">
<text font-family="Arial" fill="#000000" style ="white-space:pre;" font-weight="400" text-anchor="start" x="0.0000" y="0.0000" font-size="12.0000" ><![CDATA[subheader]]></text>
</g>
<g transform="matrix(0.0625 0.0000 0.0000 0.0625 0.0000 0.0000)">
<path d="M 1228.0000,19.0000 L 1228.0000,624.0000 L 2740.0000,624.0000 L 2740.0000,19.0000 L 1228.0000,19.0000 Z" stroke-width="1px" stroke="#FFFFFF"  fill="#FFFFFF" />
</g>
<g transform="matrix(1.0000 0.0000 0.0000 1.0000 0.0000 0.0000)">
</g>
<g transform="matrix(0.0625 0.0000 0.0000 0.0625 0.0000 0.0000)">
<path d="M 1228.0000,624.0000 L 2740.0000,624.0000 L 2740.0000,19.0000 L 1228.0000,19.0000 L 1228.0000,624.0000 Z" stroke="#000000" stroke-width="16.0000"  stroke-linecap="round"  stroke-linejoin="round" fill="none" />
</g>
<g transform="matrix(1.0000 0.0000 0.0000 1.0000 0.0000 0.0000)">
</g>
<g transform="matrix(1.0000 0.0000 0.0000 1.0000 93.8179 16.9577)">
<text font-family="Arial" fill="#000000" style ="white-space:pre;" font-weight="400" text-anchor="start" x="0.0000" y="0.0000" font-size="12.0000" ><![CDATA[Fixed]]></text>
</g>
<g transform="matrix(1.0000 0.0000 0.0000 1.0000 123.1617 16.9577)">
<text font-family="Arial" fill="#000000" style ="white-space:pre;" font-weight="400" text-anchor="start" x="0.0000" y="0.0000" font-size="12.0000" ><![CDATA[-]]></text>
</g>
<g transform="matrix(1.0000 0.0000 0.0000 1.0000 127.1578 16.9577)">
<text font-family="Arial" fill="#000000" style ="white-space:pre;" font-weight="400" text-anchor="start" x="0.0000" y="0.0000" font-size="12.0000" ><![CDATA[sized ]]></text>
</g>
<g transform="matrix(1.0000 0.0000 0.0000 1.0000 101.1597 31.3575)">
<text font-family="Arial" fill="#000000" style ="white-space:pre;" font-weight="400" text-anchor="start" x="0.0000" y="0.0000" font-size="12.0000" ><![CDATA[MAC CE]]></text>
</g>
<g transform="matrix(0.0625 0.0000 0.0000 0.0625 0.0000 0.0000)">
<path d="M 2128.0000,2435.0000 L 2163.0000,2329.0000 C 2165.0000,2325.0000 2169.0000,2323.0000 2174.0000,2324.0000 C 2178.0000,2325.0000 2180.0000,2330.0000 2179.0000,2334.0000 L 2143.0000,2440.0000 C 2142.0000,2445.0000 2137.0000,2447.0000 2133.0000,2446.0000 C 2129.0000,2444.0000 2127.0000,2440.0000 2128.0000,2435.0000 Z M 2189.0000,2253.0000 L 2224.0000,2147.0000 C 2226.0000,2143.0000 2230.0000,2140.0000 2234.0000,2142.0000 C 2239.0000,2143.0000 2241.0000,2148.0000 2239.0000,2152.0000 L 2204.0000,2258.0000 C 2203.0000,2262.0000 2198.0000,2265.0000 2194.0000,2263.0000 C 2190.0000,2262.0000 2187.0000,2257.0000 2189.0000,2253.0000 Z M 2250.0000,2071.0000 L 2285.0000,1964.0000 C 2286.0000,1960.0000 2291.0000,1958.0000 2295.0000,1959.0000 C 2299.0000,1961.0000 2302.0000,1965.0000 2300.0000,1969.0000 L 2265.0000,2076.0000 C 2263.0000,2080.0000 2259.0000,2082.0000 2255.0000,2081.0000 C 2250.0000,2079.0000 2248.0000,2075.0000 2250.0000,2071.0000 Z M 2310.0000,1888.0000 L 2346.0000,1782.0000 C 2347.0000,1778.0000 2352.0000,1776.0000 2356.0000,1777.0000 C 2360.0000,1778.0000 2362.0000,1783.0000 2361.0000,1787.0000 L 2325.0000,1893.0000 C 2324.0000,1898.0000 2320.0000,1900.0000 2315.0000,1899.0000 C 2311.0000,1897.0000 2309.0000,1893.0000 2310.0000,1888.0000 Z M 2371.0000,1706.0000 L 2407.0000,1600.0000 C 2408.0000,1596.0000 2412.0000,1593.0000 2417.0000,1595.0000 C 2421.0000,1596.0000 2423.0000,1601.0000 2422.0000,1605.0000 L 2386.0000,1711.0000 C 2385.0000,1715.0000 2380.0000,1718.0000 2376.0000,1716.0000 C 2372.0000,1715.0000 2370.0000,1710.0000 2371.0000,1706.0000 Z M 2432.0000,1524.0000 L 2467.0000,1417.0000 C 2469.0000,1413.0000 2473.0000,1411.0000 2477.0000,1412.0000 C 2482.0000,1414.0000 2484.0000,1418.0000 2482.0000,1422.0000 L 2447.0000,1529.0000 C 2446.0000,1533.0000 2441.0000,1535.0000 2437.0000,1534.0000 C 2433.0000,1532.0000 2430.0000,1528.0000 2432.0000,1524.0000 Z M 2493.0000,1341.0000 L 2528.0000,1235.0000 C 2529.0000,1231.0000 2534.0000,1229.0000 2538.0000,1230.0000 C 2542.0000,1231.0000 2545.0000,1236.0000 2543.0000,1240.0000 L 2508.0000,1346.0000 C 2506.0000,1351.0000 2502.0000,1353.0000 2498.0000,1352.0000 C 2493.0000,1350.0000 2491.0000,1346.0000 2493.0000,1341.0000 Z M 2553.0000,1159.0000 L 2589.0000,1053.0000 C 2590.0000,1049.0000 2595.0000,1046.0000 2599.0000,1048.0000 C 2603.0000,1049.0000 2605.0000,1054.0000 2604.0000,1058.0000 L 2569.0000,1164.0000 C 2567.0000,1168.0000 2563.0000,1171.0000 2558.0000,1169.0000 C 2554.0000,1168.0000 2552.0000,1163.0000 2553.0000,1159.0000 Z M 2614.0000,977.0000 L 2650.0000,870.0000 C 2651.0000,866.0000 2656.0000,864.0000 2660.0000,865.0000 C 2664.0000,867.0000 2666.0000,871.0000 2665.0000,875.0000 L 2629.0000,982.0000 C 2628.0000,986.0000 2623.0000,988.0000 2619.0000,987.0000 C 2615.0000,985.0000 2613.0000,981.0000 2614.0000,977.0000 Z M 2675.0000,794.0000 L 2710.0000,688.0000 C 2712.0000,684.0000 2716.0000,682.0000 2721.0000,683.0000 C 2725.0000,684.0000 2727.0000,689.0000 2726.0000,693.0000 L 2690.0000,799.0000 C 2689.0000,804.0000 2684.0000,806.0000 2680.0000,805.0000 C 2676.0000,803.0000 2674.0000,799.0000 2675.0000,794.0000 Z "  fill="#000000" stroke="#000000" stroke-width="1.0000"  stroke-linecap="butt"  stroke-linejoin="round" />
</g>
<g transform="matrix(1.0000 0.0000 0.0000 1.0000 0.0000 0.0000)">
</g>
<g transform="matrix(0.0625 0.0000 0.0000 0.0625 0.0000 0.0000)">
<path d="M 3043.0000,19.0000 L 3043.0000,624.0000 L 4252.0000,624.0000 L 4252.0000,19.0000 L 3043.0000,19.0000 Z" stroke-width="1px" stroke="#FFFFFF"  fill="#FFFFFF" />
</g>
<g transform="matrix(1.0000 0.0000 0.0000 1.0000 0.0000 0.0000)">
</g>
<g transform="matrix(0.0625 0.0000 0.0000 0.0625 0.0000 0.0000)">
<path d="M 3043.0000,624.0000 L 4252.0000,624.0000 L 4252.0000,19.0000 L 3043.0000,19.0000 L 3043.0000,624.0000 Z" stroke="#000000" stroke-width="16.0000"  stroke-linecap="round"  stroke-linejoin="round" fill="none" />
</g>
<g transform="matrix(1.0000 0.0000 0.0000 1.0000 0.0000 0.0000)">
</g>
<g transform="matrix(1.0000 0.0000 0.0000 1.0000 198.4257 16.9577)">
<text font-family="Arial" fill="#000000" style ="white-space:pre;" font-weight="400" text-anchor="start" x="0.0000" y="0.0000" font-size="12.0000" ><![CDATA[R]]></text>
</g>
<g transform="matrix(1.0000 0.0000 0.0000 1.0000 207.0917 16.9577)">
<text font-family="Arial" fill="#000000" style ="white-space:pre;" font-weight="400" text-anchor="start" x="0.0000" y="0.0000" font-size="12.0000" ><![CDATA[/]]></text>
</g>
<g transform="matrix(1.0000 0.0000 0.0000 1.0000 210.4257 16.9577)">
<text font-family="Arial" fill="#000000" style ="white-space:pre;" font-weight="400" text-anchor="start" x="0.0000" y="0.0000" font-size="12.0000" ><![CDATA[F]]></text>
</g>
<g transform="matrix(1.0000 0.0000 0.0000 1.0000 217.7558 16.9577)">
<text font-family="Arial" fill="#000000" style ="white-space:pre;" font-weight="400" text-anchor="start" x="0.0000" y="0.0000" font-size="12.0000" ><![CDATA[/]]></text>
</g>
<g transform="matrix(1.0000 0.0000 0.0000 1.0000 221.0898 16.9577)">
<text font-family="Arial" fill="#000000" style ="white-space:pre;" font-weight="400" text-anchor="start" x="0.0000" y="0.0000" font-size="12.0000" ><![CDATA[LCID]]></text>
</g>
<g transform="matrix(1.0000 0.0000 0.0000 1.0000 248.4296 16.9577)">
<text font-family="Arial" fill="#000000" style ="white-space:pre;" font-weight="400" text-anchor="start" x="0.0000" y="0.0000" font-size="12.0000" ><![CDATA[/]]></text>
</g>
<g transform="matrix(1.0000 0.0000 0.0000 1.0000 251.7636 16.9577)">
<text font-family="Arial" fill="#000000" style ="white-space:pre;" font-weight="400" text-anchor="start" x="0.0000" y="0.0000" font-size="12.0000" ><![CDATA[L ]]></text>
</g>
<g transform="matrix(1.0000 0.0000 0.0000 1.0000 200.0751 31.3575)">
<text font-family="Arial" fill="#000000" style ="white-space:pre;" font-weight="400" text-anchor="start" x="0.0000" y="0.0000" font-size="12.0000" ><![CDATA[subheader]]></text>
</g>
<g transform="matrix(0.0625 0.0000 0.0000 0.0625 0.0000 0.0000)">
<path d="M 4252.0000,19.0000 L 4252.0000,624.0000 L 5764.0000,624.0000 L 5764.0000,19.0000 L 4252.0000,19.0000 Z" stroke-width="1px" stroke="#FFFFFF"  fill="#FFFFFF" />
</g>
<g transform="matrix(1.0000 0.0000 0.0000 1.0000 0.0000 0.0000)">
</g>
<g transform="matrix(0.0625 0.0000 0.0000 0.0625 0.0000 0.0000)">
<path d="M 4252.0000,624.0000 L 5764.0000,624.0000 L 5764.0000,19.0000 L 4252.0000,19.0000 L 4252.0000,624.0000 Z" stroke="#000000" stroke-width="16.0000"  stroke-linecap="round"  stroke-linejoin="round" fill="none" />
</g>
<g transform="matrix(1.0000 0.0000 0.0000 1.0000 0.0000 0.0000)">
</g>
<g transform="matrix(1.0000 0.0000 0.0000 1.0000 275.4525 16.9577)">
<text font-family="Arial" fill="#000000" style ="white-space:pre;" font-weight="400" text-anchor="start" x="0.0000" y="0.0000" font-size="12.0000" ><![CDATA[Variable]]></text>
</g>
<g transform="matrix(1.0000 0.0000 0.0000 1.0000 319.4799 16.9577)">
<text font-family="Arial" fill="#000000" style ="white-space:pre;" font-weight="400" text-anchor="start" x="0.0000" y="0.0000" font-size="12.0000" ><![CDATA[-]]></text>
</g>
<g transform="matrix(1.0000 0.0000 0.0000 1.0000 323.4760 16.9577)">
<text font-family="Arial" fill="#000000" style ="white-space:pre;" font-weight="400" text-anchor="start" x="0.0000" y="0.0000" font-size="12.0000" ><![CDATA[sized ]]></text>
</g>
<g transform="matrix(1.0000 0.0000 0.0000 1.0000 290.1361 31.3575)">
<text font-family="Arial" fill="#000000" style ="white-space:pre;" font-weight="400" text-anchor="start" x="0.0000" y="0.0000" font-size="12.0000" ><![CDATA[MAC CE]]></text>
</g>
<g transform="matrix(0.0625 0.0000 0.0000 0.0625 0.0000 0.0000)">
<path d="M 2128.0000,2434.0000 L 2179.0000,2334.0000 C 2181.0000,2330.0000 2185.0000,2329.0000 2189.0000,2330.0000 C 2193.0000,2332.0000 2195.0000,2337.0000 2193.0000,2341.0000 L 2143.0000,2442.0000 C 2141.0000,2445.0000 2136.0000,2447.0000 2132.0000,2445.0000 C 2128.0000,2443.0000 2126.0000,2438.0000 2128.0000,2434.0000 Z M 2214.0000,2262.0000 L 2264.0000,2162.0000 C 2266.0000,2158.0000 2271.0000,2157.0000 2275.0000,2159.0000 C 2279.0000,2161.0000 2281.0000,2165.0000 2279.0000,2169.0000 L 2229.0000,2270.0000 C 2227.0000,2274.0000 2222.0000,2275.0000 2218.0000,2273.0000 C 2214.0000,2271.0000 2212.0000,2266.0000 2214.0000,2262.0000 Z M 2300.0000,2091.0000 L 2350.0000,1990.0000 C 2352.0000,1986.0000 2357.0000,1985.0000 2361.0000,1987.0000 C 2365.0000,1989.0000 2367.0000,1993.0000 2365.0000,1997.0000 L 2315.0000,2098.0000 C 2313.0000,2102.0000 2308.0000,2103.0000 2304.0000,2101.0000 C 2300.0000,2099.0000 2298.0000,2094.0000 2300.0000,2091.0000 Z M 2386.0000,1919.0000 L 2436.0000,1818.0000 C 2438.0000,1814.0000 2443.0000,1813.0000 2447.0000,1815.0000 C 2451.0000,1817.0000 2453.0000,1822.0000 2451.0000,1826.0000 L 2401.0000,1926.0000 C 2399.0000,1930.0000 2394.0000,1931.0000 2390.0000,1929.0000 C 2386.0000,1927.0000 2384.0000,1923.0000 2386.0000,1919.0000 Z M 2472.0000,1747.0000 L 2522.0000,1646.0000 C 2524.0000,1643.0000 2529.0000,1641.0000 2533.0000,1643.0000 C 2537.0000,1645.0000 2539.0000,1650.0000 2537.0000,1654.0000 L 2487.0000,1754.0000 C 2485.0000,1758.0000 2480.0000,1759.0000 2476.0000,1757.0000 C 2472.0000,1756.0000 2470.0000,1751.0000 2472.0000,1747.0000 Z M 2558.0000,1575.0000 L 2608.0000,1475.0000 C 2610.0000,1471.0000 2615.0000,1469.0000 2619.0000,1471.0000 C 2623.0000,1473.0000 2625.0000,1478.0000 2623.0000,1482.0000 L 2572.0000,1582.0000 C 2571.0000,1586.0000 2566.0000,1588.0000 2562.0000,1586.0000 C 2558.0000,1584.0000 2556.0000,1579.0000 2558.0000,1575.0000 Z M 2644.0000,1403.0000 L 2694.0000,1303.0000 C 2696.0000,1299.0000 2701.0000,1297.0000 2705.0000,1299.0000 C 2709.0000,1301.0000 2711.0000,1306.0000 2709.0000,1310.0000 L 2658.0000,1410.0000 C 2656.0000,1414.0000 2652.0000,1416.0000 2648.0000,1414.0000 C 2644.0000,1412.0000 2642.0000,1407.0000 2644.0000,1403.0000 Z M 2730.0000,1231.0000 L 2780.0000,1131.0000 C 2782.0000,1127.0000 2787.0000,1125.0000 2791.0000,1127.0000 C 2795.0000,1129.0000 2796.0000,1134.0000 2795.0000,1138.0000 L 2744.0000,1238.0000 C 2742.0000,1242.0000 2738.0000,1244.0000 2734.0000,1242.0000 C 2730.0000,1240.0000 2728.0000,1235.0000 2730.0000,1231.0000 Z M 2816.0000,1059.0000 L 2866.0000,959.0000 C 2868.0000,955.0000 2873.0000,953.0000 2877.0000,955.0000 C 2881.0000,957.0000 2882.0000,962.0000 2880.0000,966.0000 L 2830.0000,1066.0000 C 2828.0000,1070.0000 2824.0000,1072.0000 2820.0000,1070.0000 C 2816.0000,1068.0000 2814.0000,1063.0000 2816.0000,1059.0000 Z M 2902.0000,887.0000 L 2952.0000,787.0000 C 2954.0000,783.0000 2959.0000,781.0000 2963.0000,783.0000 C 2967.0000,785.0000 2968.0000,790.0000 2966.0000,794.0000 L 2916.0000,894.0000 C 2914.0000,898.0000 2909.0000,900.0000 2906.0000,898.0000 C 2902.0000,896.0000 2900.0000,891.0000 2902.0000,887.0000 Z M 2988.0000,715.0000 L 3035.0000,620.0000 C 3037.0000,616.0000 3042.0000,615.0000 3046.0000,617.0000 C 3050.0000,619.0000 3052.0000,623.0000 3050.0000,627.0000 L 3002.0000,722.0000 C 3000.0000,726.0000 2995.0000,728.0000 2991.0000,726.0000 C 2988.0000,724.0000 2986.0000,719.0000 2988.0000,715.0000 Z "  fill="#000000" stroke="#000000" stroke-width="1.0000"  stroke-linecap="butt"  stroke-linejoin="round" />
</g>
<g transform="matrix(1.0000 0.0000 0.0000 1.0000 0.0000 0.0000)">
</g>
<g transform="matrix(0.0625 0.0000 0.0000 0.0625 0.0000 0.0000)">
<path d="M 4246.0000,2433.0000 L 4318.0000,2347.0000 C 4321.0000,2343.0000 4326.0000,2343.0000 4329.0000,2346.0000 C 4332.0000,2348.0000 4333.0000,2354.0000 4330.0000,2357.0000 L 4258.0000,2443.0000 C 4255.0000,2446.0000 4250.0000,2447.0000 4247.0000,2444.0000 C 4244.0000,2441.0000 4243.0000,2436.0000 4246.0000,2433.0000 Z M 4369.0000,2285.0000 L 4441.0000,2199.0000 C 4444.0000,2196.0000 4449.0000,2195.0000 4452.0000,2198.0000 C 4455.0000,2201.0000 4456.0000,2206.0000 4453.0000,2209.0000 L 4381.0000,2295.0000 C 4378.0000,2299.0000 4373.0000,2299.0000 4370.0000,2296.0000 C 4367.0000,2294.0000 4366.0000,2289.0000 4369.0000,2285.0000 Z M 4492.0000,2138.0000 L 4564.0000,2051.0000 C 4567.0000,2048.0000 4572.0000,2048.0000 4575.0000,2050.0000 C 4578.0000,2053.0000 4579.0000,2058.0000 4576.0000,2062.0000 L 4504.0000,2148.0000 C 4501.0000,2151.0000 4496.0000,2152.0000 4493.0000,2149.0000 C 4490.0000,2146.0000 4489.0000,2141.0000 4492.0000,2138.0000 Z M 4615.0000,1990.0000 L 4687.0000,1904.0000 C 4690.0000,1900.0000 4695.0000,1900.0000 4698.0000,1903.0000 C 4702.0000,1906.0000 4702.0000,1911.0000 4699.0000,1914.0000 L 4627.0000,2000.0000 C 4625.0000,2004.0000 4619.0000,2004.0000 4616.0000,2001.0000 C 4613.0000,1998.0000 4612.0000,1993.0000 4615.0000,1990.0000 Z M 4738.0000,1842.0000 L 4810.0000,1756.0000 C 4813.0000,1753.0000 4818.0000,1752.0000 4821.0000,1755.0000 C 4825.0000,1758.0000 4825.0000,1763.0000 4822.0000,1766.0000 L 4750.0000,1852.0000 C 4748.0000,1856.0000 4743.0000,1856.0000 4739.0000,1853.0000 C 4736.0000,1851.0000 4735.0000,1846.0000 4738.0000,1842.0000 Z M 4861.0000,1695.0000 L 4933.0000,1608.0000 C 4936.0000,1605.0000 4941.0000,1605.0000 4944.0000,1607.0000 C 4948.0000,1610.0000 4948.0000,1615.0000 4945.0000,1619.0000 L 4873.0000,1705.0000 C 4871.0000,1708.0000 4866.0000,1709.0000 4862.0000,1706.0000 C 4859.0000,1703.0000 4858.0000,1698.0000 4861.0000,1695.0000 Z M 4984.0000,1547.0000 L 5056.0000,1461.0000 C 5059.0000,1457.0000 5064.0000,1457.0000 5067.0000,1460.0000 C 5071.0000,1463.0000 5071.0000,1468.0000 5068.0000,1471.0000 L 4996.0000,1557.0000 C 4994.0000,1561.0000 4989.0000,1561.0000 4985.0000,1558.0000 C 4982.0000,1555.0000 4981.0000,1550.0000 4984.0000,1547.0000 Z M 5107.0000,1399.0000 L 5179.0000,1313.0000 C 5182.0000,1310.0000 5187.0000,1309.0000 5190.0000,1312.0000 C 5194.0000,1315.0000 5194.0000,1320.0000 5191.0000,1323.0000 L 5120.0000,1410.0000 C 5117.0000,1413.0000 5112.0000,1413.0000 5108.0000,1411.0000 C 5105.0000,1408.0000 5104.0000,1403.0000 5107.0000,1399.0000 Z M 5230.0000,1252.0000 L 5302.0000,1166.0000 C 5305.0000,1162.0000 5310.0000,1162.0000 5313.0000,1164.0000 C 5317.0000,1167.0000 5317.0000,1172.0000 5314.0000,1176.0000 L 5243.0000,1262.0000 C 5240.0000,1265.0000 5235.0000,1266.0000 5231.0000,1263.0000 C 5228.0000,1260.0000 5227.0000,1255.0000 5230.0000,1252.0000 Z M 5353.0000,1104.0000 L 5425.0000,1018.0000 C 5428.0000,1014.0000 5433.0000,1014.0000 5436.0000,1017.0000 C 5440.0000,1020.0000 5440.0000,1025.0000 5437.0000,1028.0000 L 5366.0000,1114.0000 C 5363.0000,1118.0000 5358.0000,1118.0000 5354.0000,1115.0000 C 5351.0000,1112.0000 5350.0000,1107.0000 5353.0000,1104.0000 Z M 5476.0000,956.0000 L 5548.0000,870.0000 C 5551.0000,867.0000 5556.0000,866.0000 5559.0000,869.0000 C 5563.0000,872.0000 5563.0000,877.0000 5560.0000,880.0000 L 5489.0000,967.0000 C 5486.0000,970.0000 5481.0000,970.0000 5477.0000,968.0000 C 5474.0000,965.0000 5473.0000,960.0000 5476.0000,956.0000 Z M 5599.0000,809.0000 L 5671.0000,723.0000 C 5674.0000,719.0000 5679.0000,719.0000 5682.0000,722.0000 C 5686.0000,724.0000 5686.0000,729.0000 5683.0000,733.0000 L 5612.0000,819.0000 C 5609.0000,822.0000 5604.0000,823.0000 5600.0000,820.0000 C 5597.0000,817.0000 5597.0000,812.0000 5599.0000,809.0000 Z M 5722.0000,661.0000 L 5758.0000,619.0000 C 5761.0000,615.0000 5766.0000,615.0000 5769.0000,618.0000 C 5772.0000,620.0000 5773.0000,625.0000 5770.0000,629.0000 L 5735.0000,671.0000 C 5732.0000,675.0000 5727.0000,675.0000 5723.0000,672.0000 C 5720.0000,669.0000 5720.0000,664.0000 5722.0000,661.0000 Z "  fill="#000000" stroke="#000000" stroke-width="1.0000"  stroke-linecap="butt"  stroke-linejoin="round" />
</g>
<g transform="matrix(1.0000 0.0000 0.0000 1.0000 0.0000 0.0000)">
</g>
<g transform="matrix(0.0625 0.0000 0.0000 0.0625 0.0000 0.0000)">
<path d="M 6671.0000,19.0000 L 6671.0000,624.0000 L 7880.0000,624.0000 L 7880.0000,19.0000 L 6671.0000,19.0000 Z" stroke-width="1px" stroke="#FFFFFF"  fill="#FFFFFF" />
</g>
<g transform="matrix(1.0000 0.0000 0.0000 1.0000 0.0000 0.0000)">
</g>
<g transform="matrix(0.0625 0.0000 0.0000 0.0625 0.0000 0.0000)">
<path d="M 6671.0000,624.0000 L 7880.0000,624.0000 L 7880.0000,19.0000 L 6671.0000,19.0000 L 6671.0000,624.0000 Z" stroke="#000000" stroke-width="16.0000"  stroke-linecap="round"  stroke-linejoin="round" fill="none" />
</g>
<g transform="matrix(1.0000 0.0000 0.0000 1.0000 0.0000 0.0000)">
</g>
<g transform="matrix(1.0000 0.0000 0.0000 1.0000 425.1974 16.9577)">
<text font-family="Arial" fill="#000000" style ="white-space:pre;" font-weight="400" text-anchor="start" x="0.0000" y="0.0000" font-size="12.0000" ><![CDATA[R]]></text>
</g>
<g transform="matrix(1.0000 0.0000 0.0000 1.0000 433.8634 16.9577)">
<text font-family="Arial" fill="#000000" style ="white-space:pre;" font-weight="400" text-anchor="start" x="0.0000" y="0.0000" font-size="12.0000" ><![CDATA[/]]></text>
</g>
<g transform="matrix(1.0000 0.0000 0.0000 1.0000 437.1974 16.9577)">
<text font-family="Arial" fill="#000000" style ="white-space:pre;" font-weight="400" text-anchor="start" x="0.0000" y="0.0000" font-size="12.0000" ><![CDATA[F]]></text>
</g>
<g transform="matrix(1.0000 0.0000 0.0000 1.0000 444.5274 16.9577)">
<text font-family="Arial" fill="#000000" style ="white-space:pre;" font-weight="400" text-anchor="start" x="0.0000" y="0.0000" font-size="12.0000" ><![CDATA[/]]></text>
</g>
<g transform="matrix(1.0000 0.0000 0.0000 1.0000 447.8614 16.9577)">
<text font-family="Arial" fill="#000000" style ="white-space:pre;" font-weight="400" text-anchor="start" x="0.0000" y="0.0000" font-size="12.0000" ><![CDATA[LCID]]></text>
</g>
<g transform="matrix(1.0000 0.0000 0.0000 1.0000 475.2013 16.9577)">
<text font-family="Arial" fill="#000000" style ="white-space:pre;" font-weight="400" text-anchor="start" x="0.0000" y="0.0000" font-size="12.0000" ><![CDATA[/]]></text>
</g>
<g transform="matrix(1.0000 0.0000 0.0000 1.0000 478.5352 16.9577)">
<text font-family="Arial" fill="#000000" style ="white-space:pre;" font-weight="400" text-anchor="start" x="0.0000" y="0.0000" font-size="12.0000" ><![CDATA[L ]]></text>
</g>
<g transform="matrix(1.0000 0.0000 0.0000 1.0000 426.8468 31.3575)">
<text font-family="Arial" fill="#000000" style ="white-space:pre;" font-weight="400" text-anchor="start" x="0.0000" y="0.0000" font-size="12.0000" ><![CDATA[subheader]]></text>
</g>
<g transform="matrix(0.0625 0.0000 0.0000 0.0625 0.0000 0.0000)">
<path d="M 7880.0000,19.0000 L 7880.0000,624.0000 L 9997.0000,624.0000 L 9997.0000,19.0000 L 7880.0000,19.0000 Z" stroke-width="1px" stroke="#FFFFFF"  fill="#FFFFFF" />
</g>
<g transform="matrix(1.0000 0.0000 0.0000 1.0000 0.0000 0.0000)">
</g>
<g transform="matrix(0.0625 0.0000 0.0000 0.0625 0.0000 0.0000)">
<path d="M 7880.0000,624.0000 L 9997.0000,624.0000 L 9997.0000,19.0000 L 7880.0000,19.0000 L 7880.0000,624.0000 Z" stroke="#000000" stroke-width="16.0000"  stroke-linecap="round"  stroke-linejoin="round" fill="none" />
</g>
<g transform="matrix(1.0000 0.0000 0.0000 1.0000 0.0000 0.0000)">
</g>
<g transform="matrix(1.0000 0.0000 0.0000 1.0000 531.4723 24.1578)">
<text font-family="Arial" fill="#000000" style ="white-space:pre;" font-weight="400" text-anchor="start" x="0.0000" y="0.0000" font-size="12.0000" ><![CDATA[MAC SDU]]></text>
</g>
<g transform="matrix(0.0625 0.0000 0.0000 0.0625 0.0000 0.0000)">
<path d="M 9989.0000,2438.0000 L 9989.0000,2326.0000 C 9989.0000,2321.0000 9993.0000,2318.0000 9997.0000,2318.0000 C 10001.0000,2318.0000 10005.0000,2321.0000 10005.0000,2326.0000 L 10005.0000,2438.0000 C 10005.0000,2442.0000 10001.0000,2446.0000 9997.0000,2446.0000 C 9993.0000,2446.0000 9989.0000,2442.0000 9989.0000,2438.0000 Z M 9989.0000,2246.0000 L 9989.0000,2134.0000 C 9989.0000,2129.0000 9993.0000,2126.0000 9997.0000,2126.0000 C 10001.0000,2126.0000 10005.0000,2129.0000 10005.0000,2134.0000 L 10005.0000,2246.0000 C 10005.0000,2250.0000 10001.0000,2254.0000 9997.0000,2254.0000 C 9993.0000,2254.0000 9989.0000,2250.0000 9989.0000,2246.0000 Z M 9989.0000,2054.0000 L 9989.0000,1941.0000 C 9989.0000,1937.0000 9993.0000,1933.0000 9997.0000,1933.0000 C 10001.0000,1933.0000 10005.0000,1937.0000 10005.0000,1941.0000 L 10005.0000,2054.0000 C 10005.0000,2058.0000 10001.0000,2062.0000 9997.0000,2062.0000 C 9993.0000,2062.0000 9989.0000,2058.0000 9989.0000,2054.0000 Z M 9989.0000,1861.0000 L 9989.0000,1749.0000 C 9989.0000,1745.0000 9993.0000,1741.0000 9997.0000,1741.0000 C 10001.0000,1741.0000 10005.0000,1745.0000 10005.0000,1749.0000 L 10005.0000,1861.0000 C 10005.0000,1866.0000 10001.0000,1869.0000 9997.0000,1869.0000 C 9993.0000,1869.0000 9989.0000,1866.0000 9989.0000,1861.0000 Z M 9989.0000,1669.0000 L 9989.0000,1557.0000 C 9989.0000,1553.0000 9993.0000,1549.0000 9997.0000,1549.0000 C 10001.0000,1549.0000 10005.0000,1553.0000 10005.0000,1557.0000 L 10005.0000,1669.0000 C 10005.0000,1674.0000 10001.0000,1677.0000 9997.0000,1677.0000 C 9993.0000,1677.0000 9989.0000,1674.0000 9989.0000,1669.0000 Z M 9989.0000,1477.0000 L 9989.0000,1365.0000 C 9989.0000,1360.0000 9993.0000,1357.0000 9997.0000,1357.0000 C 10001.0000,1357.0000 10005.0000,1360.0000 10005.0000,1365.0000 L 10005.0000,1477.0000 C 10005.0000,1481.0000 10001.0000,1485.0000 9997.0000,1485.0000 C 9993.0000,1485.0000 9989.0000,1481.0000 9989.0000,1477.0000 Z M 9989.0000,1285.0000 L 9989.0000,1173.0000 C 9989.0000,1168.0000 9993.0000,1165.0000 9997.0000,1165.0000 C 10001.0000,1165.0000 10005.0000,1168.0000 10005.0000,1173.0000 L 10005.0000,1285.0000 C 10005.0000,1289.0000 10001.0000,1293.0000 9997.0000,1293.0000 C 9993.0000,1293.0000 9989.0000,1289.0000 9989.0000,1285.0000 Z M 9989.0000,1093.0000 L 9989.0000,980.0000 C 9989.0000,976.0000 9993.0000,972.0000 9997.0000,972.0000 C 10001.0000,972.0000 10005.0000,976.0000 10005.0000,980.0000 L 10005.0000,1093.0000 C 10005.0000,1097.0000 10001.0000,1101.0000 9997.0000,1101.0000 C 9993.0000,1101.0000 9989.0000,1097.0000 9989.0000,1093.0000 Z M 9989.0000,900.0000 L 9989.0000,788.0000 C 9989.0000,784.0000 9993.0000,780.0000 9997.0000,780.0000 C 10001.0000,780.0000 10005.0000,784.0000 10005.0000,788.0000 L 10005.0000,900.0000 C 10005.0000,905.0000 10001.0000,908.0000 9997.0000,908.0000 C 9993.0000,908.0000 9989.0000,905.0000 9989.0000,900.0000 Z M 9989.0000,708.0000 L 9989.0000,624.0000 C 9989.0000,619.0000 9993.0000,616.0000 9997.0000,616.0000 C 10001.0000,616.0000 10005.0000,619.0000 10005.0000,624.0000 L 10005.0000,708.0000 C 10005.0000,713.0000 10001.0000,716.0000 9997.0000,716.0000 C 9993.0000,716.0000 9989.0000,713.0000 9989.0000,708.0000 Z "  fill="#000000" stroke="#000000" stroke-width="1.0000"  stroke-linecap="butt"  stroke-linejoin="round" />
</g>
<g transform="matrix(1.0000 0.0000 0.0000 1.0000 0.0000 0.0000)">
</g>
<g transform="matrix(0.0625 0.0000 0.0000 0.0625 0.0000 0.0000)">
<path d="M 7571.0000,2442.0000 L 7521.0000,2341.0000 C 7519.0000,2337.0000 7520.0000,2332.0000 7524.0000,2330.0000 C 7528.0000,2329.0000 7533.0000,2330.0000 7535.0000,2334.0000 L 7585.0000,2434.0000 C 7587.0000,2438.0000 7586.0000,2443.0000 7582.0000,2445.0000 C 7578.0000,2447.0000 7573.0000,2445.0000 7571.0000,2442.0000 Z M 7485.0000,2270.0000 L 7435.0000,2169.0000 C 7433.0000,2165.0000 7434.0000,2161.0000 7438.0000,2159.0000 C 7442.0000,2157.0000 7447.0000,2158.0000 7449.0000,2162.0000 L 7499.0000,2262.0000 C 7501.0000,2266.0000 7500.0000,2271.0000 7496.0000,2273.0000 C 7492.0000,2275.0000 7487.0000,2274.0000 7485.0000,2270.0000 Z M 7399.0000,2098.0000 L 7349.0000,1997.0000 C 7347.0000,1993.0000 7349.0000,1989.0000 7352.0000,1987.0000 C 7356.0000,1985.0000 7361.0000,1986.0000 7363.0000,1990.0000 L 7413.0000,2091.0000 C 7415.0000,2094.0000 7414.0000,2099.0000 7410.0000,2101.0000 C 7406.0000,2103.0000 7401.0000,2102.0000 7399.0000,2098.0000 Z M 7313.0000,1926.0000 L 7263.0000,1826.0000 C 7261.0000,1822.0000 7263.0000,1817.0000 7267.0000,1815.0000 C 7270.0000,1813.0000 7275.0000,1814.0000 7277.0000,1818.0000 L 7327.0000,1919.0000 C 7329.0000,1923.0000 7328.0000,1927.0000 7324.0000,1929.0000 C 7320.0000,1931.0000 7315.0000,1930.0000 7313.0000,1926.0000 Z M 7227.0000,1754.0000 L 7177.0000,1654.0000 C 7175.0000,1650.0000 7177.0000,1645.0000 7181.0000,1643.0000 C 7185.0000,1641.0000 7189.0000,1643.0000 7191.0000,1646.0000 L 7241.0000,1747.0000 C 7243.0000,1751.0000 7242.0000,1756.0000 7238.0000,1757.0000 C 7234.0000,1759.0000 7229.0000,1758.0000 7227.0000,1754.0000 Z M 7141.0000,1582.0000 L 7091.0000,1482.0000 C 7089.0000,1478.0000 7091.0000,1473.0000 7095.0000,1471.0000 C 7099.0000,1469.0000 7103.0000,1471.0000 7105.0000,1475.0000 L 7155.0000,1575.0000 C 7157.0000,1579.0000 7156.0000,1584.0000 7152.0000,1586.0000 C 7148.0000,1588.0000 7143.0000,1586.0000 7141.0000,1582.0000 Z M 7055.0000,1410.0000 L 7005.0000,1310.0000 C 7003.0000,1306.0000 7005.0000,1301.0000 7009.0000,1299.0000 C 7013.0000,1297.0000 7017.0000,1299.0000 7019.0000,1303.0000 L 7070.0000,1403.0000 C 7072.0000,1407.0000 7070.0000,1412.0000 7066.0000,1414.0000 C 7062.0000,1416.0000 7057.0000,1414.0000 7055.0000,1410.0000 Z M 6969.0000,1238.0000 L 6919.0000,1138.0000 C 6917.0000,1134.0000 6919.0000,1129.0000 6923.0000,1127.0000 C 6927.0000,1125.0000 6931.0000,1127.0000 6933.0000,1131.0000 L 6984.0000,1231.0000 C 6986.0000,1235.0000 6984.0000,1240.0000 6980.0000,1242.0000 C 6976.0000,1244.0000 6971.0000,1242.0000 6969.0000,1238.0000 Z M 6883.0000,1066.0000 L 6833.0000,966.0000 C 6831.0000,962.0000 6833.0000,957.0000 6837.0000,955.0000 C 6841.0000,953.0000 6846.0000,955.0000 6847.0000,959.0000 L 6898.0000,1059.0000 C 6900.0000,1063.0000 6898.0000,1068.0000 6894.0000,1070.0000 C 6890.0000,1072.0000 6885.0000,1070.0000 6883.0000,1066.0000 Z M 6797.0000,894.0000 L 6747.0000,794.0000 C 6745.0000,790.0000 6747.0000,785.0000 6751.0000,783.0000 C 6755.0000,781.0000 6760.0000,783.0000 6762.0000,787.0000 L 6812.0000,887.0000 C 6814.0000,891.0000 6812.0000,896.0000 6808.0000,898.0000 C 6804.0000,900.0000 6799.0000,898.0000 6797.0000,894.0000 Z M 6711.0000,722.0000 L 6664.0000,627.0000 C 6662.0000,623.0000 6663.0000,619.0000 6667.0000,617.0000 C 6671.0000,615.0000 6676.0000,616.0000 6678.0000,620.0000 L 6726.0000,715.0000 C 6728.0000,719.0000 6726.0000,724.0000 6722.0000,726.0000 C 6718.0000,728.0000 6713.0000,726.0000 6711.0000,722.0000 Z "  fill="#000000" stroke="#000000" stroke-width="1.0000"  stroke-linecap="butt"  stroke-linejoin="round" />
</g>
<g transform="matrix(1.0000 0.0000 0.0000 1.0000 0.0000 0.0000)">
</g>
</g>
</svg>
