<?xml version="1.0"  encoding="UTF-8" standalone="no"?>
<svg version="1.1" xmlns="http://www.w3.org/2000/svg" xmlns:xlink="http://www.w3.org/1999/xlink" width="305.0000" height="447.0000">
<g transform="translate(-0.0000, -0.0000)">
<defs><clipPath id="clip-1804289383"><path d="M 0.0000,0.0000 L 306.0000,0.0000 L 306.0000,448.0000 L 0.0000,448.0000 L 0.0000,0.0000 Z Z" /></clipPath></defs>
<g transform="matrix(0.0625 0.0000 0.0000 0.0625 0.0000 0.0000)">
<path  clip-path="url(#clip-1804289383)" d="M 24.0000,176.0000 L 4862.0000,176.0000 " stroke="#000000" stroke-width="16.0000"  stroke-linecap="round"  stroke-linejoin="round" fill="none" />
</g>
<g transform="matrix(1.0000 0.0000 0.0000 1.0000 0.0000 0.0000)">
</g>
<g transform="matrix(0.0625 0.0000 0.0000 0.0625 0.0000 0.0000)">
<path d="M 24.0000,24.0000 L 24.0000,327.0000 " stroke="#000000" stroke-width="16.0000"  stroke-linecap="round"  stroke-linejoin="round" fill="none" />
</g>
<g transform="matrix(1.0000 0.0000 0.0000 1.0000 0.0000 0.0000)">
</g>
<g transform="matrix(0.0625 0.0000 0.0000 0.0625 0.0000 0.0000)">
<path d="M 629.0000,24.0000 L 629.0000,327.0000 " stroke="#000000" stroke-width="16.0000"  stroke-linecap="round"  stroke-linejoin="round" fill="none" />
</g>
<g transform="matrix(1.0000 0.0000 0.0000 1.0000 0.0000 0.0000)">
</g>
<g transform="matrix(0.0625 0.0000 0.0000 0.0625 0.0000 0.0000)">
<path d="M 1234.0000,24.0000 L 1234.0000,327.0000 " stroke="#000000" stroke-width="16.0000"  stroke-linecap="round"  stroke-linejoin="round" fill="none" />
</g>
<g transform="matrix(1.0000 0.0000 0.0000 1.0000 0.0000 0.0000)">
</g>
<g transform="matrix(0.0625 0.0000 0.0000 0.0625 0.0000 0.0000)">
<path d="M 1839.0000,24.0000 L 1839.0000,327.0000 " stroke="#000000" stroke-width="16.0000"  stroke-linecap="round"  stroke-linejoin="round" fill="none" />
</g>
<g transform="matrix(1.0000 0.0000 0.0000 1.0000 0.0000 0.0000)">
</g>
<g transform="matrix(0.0625 0.0000 0.0000 0.0625 0.0000 0.0000)">
<path d="M 2443.0000,24.0000 L 2443.0000,327.0000 " stroke="#000000" stroke-width="16.0000"  stroke-linecap="round"  stroke-linejoin="round" fill="none" />
</g>
<g transform="matrix(1.0000 0.0000 0.0000 1.0000 0.0000 0.0000)">
</g>
<g transform="matrix(0.0625 0.0000 0.0000 0.0625 0.0000 0.0000)">
<path d="M 3048.0000,24.0000 L 3048.0000,327.0000 " stroke="#000000" stroke-width="16.0000"  stroke-linecap="round"  stroke-linejoin="round" fill="none" />
</g>
<g transform="matrix(1.0000 0.0000 0.0000 1.0000 0.0000 0.0000)">
</g>
<g transform="matrix(0.0625 0.0000 0.0000 0.0625 0.0000 0.0000)">
<path d="M 3653.0000,24.0000 L 3653.0000,327.0000 " stroke="#000000" stroke-width="16.0000"  stroke-linecap="round"  stroke-linejoin="round" fill="none" />
</g>
<g transform="matrix(1.0000 0.0000 0.0000 1.0000 0.0000 0.0000)">
</g>
<g transform="matrix(0.0625 0.0000 0.0000 0.0625 0.0000 0.0000)">
<path d="M 4258.0000,24.0000 L 4258.0000,327.0000 " stroke="#000000" stroke-width="16.0000"  stroke-linecap="round"  stroke-linejoin="round" fill="none" />
</g>
<g transform="matrix(1.0000 0.0000 0.0000 1.0000 0.0000 0.0000)">
<defs><clipPath id="clip-846930886"><path d="M 0.0000,0.0000 L 306.0000,0.0000 L 306.0000,448.0000 L 0.0000,448.0000 L 0.0000,0.0000 Z Z" /></clipPath></defs>
</g>
<g transform="matrix(0.0625 0.0000 0.0000 0.0625 0.0000 0.0000)">
<path  clip-path="url(#clip-846930886)" d="M 4862.0000,24.0000 L 4862.0000,327.0000 " stroke="#000000" stroke-width="16.0000"  stroke-linecap="round"  stroke-linejoin="round" fill="none" />
</g>
<g transform="matrix(1.0000 0.0000 0.0000 1.0000 0.0000 0.0000)">
</g>
<g transform="matrix(0.0625 0.0000 0.0000 0.0625 0.0000 0.0000)">
<path d="M 4258.0000,478.0000 L 4258.0000,1083.0000 L 4862.0000,1083.0000 L 4862.0000,478.0000 L 4258.0000,478.0000 Z" stroke-width="1px" stroke="#FFFFFF"  fill="#FFFFFF" />
</g>
<g transform="matrix(1.0000 0.0000 0.0000 1.0000 0.0000 0.0000)">
<defs><clipPath id="clip-1681692777"><path d="M 0.0000,0.0000 L 306.0000,0.0000 L 306.0000,448.0000 L 0.0000,448.0000 L 0.0000,0.0000 Z Z" /></clipPath></defs>
</g>
<g transform="matrix(0.0625 0.0000 0.0000 0.0625 0.0000 0.0000)">
<path  clip-path="url(#clip-1681692777)" d="M 4258.0000,1083.0000 L 4862.0000,1083.0000 L 4862.0000,478.0000 L 4258.0000,478.0000 L 4258.0000,1083.0000 Z" stroke="#000000" stroke-width="16.0000"  stroke-linecap="round"  stroke-linejoin="round" fill="none" />
</g>
<g transform="matrix(1.0000 0.0000 0.0000 1.0000 0.0000 0.0000)">
</g>
<g transform="matrix(1.0000 0.0000 0.0000 1.0000 276.5711 53.2442)">
<text font-family="Arial" fill="#000000" style ="white-space:pre;" font-weight="400" text-anchor="start" x="0.0000" y="0.0000" font-size="13.0000" ><![CDATA[SP]]></text>
</g>
<g transform="matrix(0.0625 0.0000 0.0000 0.0625 0.0000 0.0000)">
<path d="M 3653.0000,478.0000 L 3653.0000,1083.0000 L 4258.0000,1083.0000 L 4258.0000,478.0000 L 3653.0000,478.0000 Z" stroke-width="1px" stroke="#FFFFFF"  fill="#FFFFFF" />
</g>
<g transform="matrix(1.0000 0.0000 0.0000 1.0000 0.0000 0.0000)">
</g>
<g transform="matrix(0.0625 0.0000 0.0000 0.0625 0.0000 0.0000)">
<path d="M 3653.0000,1083.0000 L 4258.0000,1083.0000 L 4258.0000,478.0000 L 3653.0000,478.0000 L 3653.0000,1083.0000 Z" stroke="#000000" stroke-width="16.0000"  stroke-linecap="round"  stroke-linejoin="round" fill="none" />
</g>
<g transform="matrix(1.0000 0.0000 0.0000 1.0000 0.0000 0.0000)">
</g>
<g transform="matrix(1.0000 0.0000 0.0000 1.0000 240.4454 53.2442)">
<text font-family="Arial" fill="#000000" style ="white-space:pre;" font-weight="400" text-anchor="start" x="0.0000" y="0.0000" font-size="13.0000" ><![CDATA[C]]></text>
</g>
<g transform="matrix(1.0000 0.0000 0.0000 1.0000 250.0741 55.0866)">
<text font-family="Arial" fill="#000000" style ="white-space:pre;" font-weight="400" text-anchor="start" x="0.0000" y="0.0000" font-size="9.0000" ><![CDATA[1]]></text>
</g>
<g transform="matrix(0.0625 0.0000 0.0000 0.0625 0.0000 0.0000)">
<path d="M 3048.0000,478.0000 L 3048.0000,1083.0000 L 3653.0000,1083.0000 L 3653.0000,478.0000 L 3048.0000,478.0000 Z" stroke-width="1px" stroke="#FFFFFF"  fill="#FFFFFF" />
</g>
<g transform="matrix(1.0000 0.0000 0.0000 1.0000 0.0000 0.0000)">
</g>
<g transform="matrix(0.0625 0.0000 0.0000 0.0625 0.0000 0.0000)">
<path d="M 3048.0000,1083.0000 L 3653.0000,1083.0000 L 3653.0000,478.0000 L 3048.0000,478.0000 L 3048.0000,1083.0000 Z" stroke="#000000" stroke-width="16.0000"  stroke-linecap="round"  stroke-linejoin="round" fill="none" />
</g>
<g transform="matrix(1.0000 0.0000 0.0000 1.0000 0.0000 0.0000)">
</g>
<g transform="matrix(1.0000 0.0000 0.0000 1.0000 202.6501 53.2442)">
<text font-family="Arial" fill="#000000" style ="white-space:pre;" font-weight="400" text-anchor="start" x="0.0000" y="0.0000" font-size="13.0000" ><![CDATA[C]]></text>
</g>
<g transform="matrix(1.0000 0.0000 0.0000 1.0000 212.2789 55.0866)">
<text font-family="Arial" fill="#000000" style ="white-space:pre;" font-weight="400" text-anchor="start" x="0.0000" y="0.0000" font-size="9.0000" ><![CDATA[2]]></text>
</g>
<g transform="matrix(0.0625 0.0000 0.0000 0.0625 0.0000 0.0000)">
<path d="M 2443.0000,478.0000 L 2443.0000,1083.0000 L 3048.0000,1083.0000 L 3048.0000,478.0000 L 2443.0000,478.0000 Z" stroke-width="1px" stroke="#FFFFFF"  fill="#FFFFFF" />
</g>
<g transform="matrix(1.0000 0.0000 0.0000 1.0000 0.0000 0.0000)">
</g>
<g transform="matrix(0.0625 0.0000 0.0000 0.0625 0.0000 0.0000)">
<path d="M 2443.0000,1083.0000 L 3048.0000,1083.0000 L 3048.0000,478.0000 L 2443.0000,478.0000 L 2443.0000,1083.0000 Z" stroke="#000000" stroke-width="16.0000"  stroke-linecap="round"  stroke-linejoin="round" fill="none" />
</g>
<g transform="matrix(1.0000 0.0000 0.0000 1.0000 0.0000 0.0000)">
</g>
<g transform="matrix(1.0000 0.0000 0.0000 1.0000 164.8548 53.2442)">
<text font-family="Arial" fill="#000000" style ="white-space:pre;" font-weight="400" text-anchor="start" x="0.0000" y="0.0000" font-size="13.0000" ><![CDATA[C]]></text>
</g>
<g transform="matrix(1.0000 0.0000 0.0000 1.0000 174.4836 55.0866)">
<text font-family="Arial" fill="#000000" style ="white-space:pre;" font-weight="400" text-anchor="start" x="0.0000" y="0.0000" font-size="9.0000" ><![CDATA[3]]></text>
</g>
<g transform="matrix(0.0625 0.0000 0.0000 0.0625 0.0000 0.0000)">
<path d="M 1839.0000,478.0000 L 1839.0000,1083.0000 L 2443.0000,1083.0000 L 2443.0000,478.0000 L 1839.0000,478.0000 Z" stroke-width="1px" stroke="#FFFFFF"  fill="#FFFFFF" />
</g>
<g transform="matrix(1.0000 0.0000 0.0000 1.0000 0.0000 0.0000)">
</g>
<g transform="matrix(0.0625 0.0000 0.0000 0.0625 0.0000 0.0000)">
<path d="M 1839.0000,1083.0000 L 2443.0000,1083.0000 L 2443.0000,478.0000 L 1839.0000,478.0000 L 1839.0000,1083.0000 Z" stroke="#000000" stroke-width="16.0000"  stroke-linecap="round"  stroke-linejoin="round" fill="none" />
</g>
<g transform="matrix(1.0000 0.0000 0.0000 1.0000 0.0000 0.0000)">
</g>
<g transform="matrix(1.0000 0.0000 0.0000 1.0000 127.0595 53.2442)">
<text font-family="Arial" fill="#000000" style ="white-space:pre;" font-weight="400" text-anchor="start" x="0.0000" y="0.0000" font-size="13.0000" ><![CDATA[C]]></text>
</g>
<g transform="matrix(1.0000 0.0000 0.0000 1.0000 136.6883 55.0866)">
<text font-family="Arial" fill="#000000" style ="white-space:pre;" font-weight="400" text-anchor="start" x="0.0000" y="0.0000" font-size="9.0000" ><![CDATA[4]]></text>
</g>
<g transform="matrix(0.0625 0.0000 0.0000 0.0625 0.0000 0.0000)">
<path d="M 1234.0000,478.0000 L 1234.0000,1083.0000 L 1839.0000,1083.0000 L 1839.0000,478.0000 L 1234.0000,478.0000 Z" stroke-width="1px" stroke="#FFFFFF"  fill="#FFFFFF" />
</g>
<g transform="matrix(1.0000 0.0000 0.0000 1.0000 0.0000 0.0000)">
</g>
<g transform="matrix(0.0625 0.0000 0.0000 0.0625 0.0000 0.0000)">
<path d="M 1234.0000,1083.0000 L 1839.0000,1083.0000 L 1839.0000,478.0000 L 1234.0000,478.0000 L 1234.0000,1083.0000 Z" stroke="#000000" stroke-width="16.0000"  stroke-linecap="round"  stroke-linejoin="round" fill="none" />
</g>
<g transform="matrix(1.0000 0.0000 0.0000 1.0000 0.0000 0.0000)">
</g>
<g transform="matrix(1.0000 0.0000 0.0000 1.0000 89.2643 53.2442)">
<text font-family="Arial" fill="#000000" style ="white-space:pre;" font-weight="400" text-anchor="start" x="0.0000" y="0.0000" font-size="13.0000" ><![CDATA[C]]></text>
</g>
<g transform="matrix(1.0000 0.0000 0.0000 1.0000 98.8930 55.0866)">
<text font-family="Arial" fill="#000000" style ="white-space:pre;" font-weight="400" text-anchor="start" x="0.0000" y="0.0000" font-size="9.0000" ><![CDATA[5]]></text>
</g>
<g transform="matrix(0.0625 0.0000 0.0000 0.0625 0.0000 0.0000)">
<path d="M 629.0000,478.0000 L 629.0000,1083.0000 L 1234.0000,1083.0000 L 1234.0000,478.0000 L 629.0000,478.0000 Z" stroke-width="1px" stroke="#FFFFFF"  fill="#FFFFFF" />
</g>
<g transform="matrix(1.0000 0.0000 0.0000 1.0000 0.0000 0.0000)">
</g>
<g transform="matrix(0.0625 0.0000 0.0000 0.0625 0.0000 0.0000)">
<path d="M 629.0000,1083.0000 L 1234.0000,1083.0000 L 1234.0000,478.0000 L 629.0000,478.0000 L 629.0000,1083.0000 Z" stroke="#000000" stroke-width="16.0000"  stroke-linecap="round"  stroke-linejoin="round" fill="none" />
</g>
<g transform="matrix(1.0000 0.0000 0.0000 1.0000 0.0000 0.0000)">
</g>
<g transform="matrix(1.0000 0.0000 0.0000 1.0000 51.4690 53.2442)">
<text font-family="Arial" fill="#000000" style ="white-space:pre;" font-weight="400" text-anchor="start" x="0.0000" y="0.0000" font-size="13.0000" ><![CDATA[C]]></text>
</g>
<g transform="matrix(1.0000 0.0000 0.0000 1.0000 61.0978 55.0866)">
<text font-family="Arial" fill="#000000" style ="white-space:pre;" font-weight="400" text-anchor="start" x="0.0000" y="0.0000" font-size="9.0000" ><![CDATA[6]]></text>
</g>
<g transform="matrix(0.0625 0.0000 0.0000 0.0625 0.0000 0.0000)">
<path d="M 24.0000,478.0000 L 24.0000,1083.0000 L 629.0000,1083.0000 L 629.0000,478.0000 L 24.0000,478.0000 Z" stroke-width="1px" stroke="#FFFFFF"  fill="#FFFFFF" />
</g>
<g transform="matrix(1.0000 0.0000 0.0000 1.0000 0.0000 0.0000)">
</g>
<g transform="matrix(0.0625 0.0000 0.0000 0.0625 0.0000 0.0000)">
<path d="M 24.0000,1083.0000 L 629.0000,1083.0000 L 629.0000,478.0000 L 24.0000,478.0000 L 24.0000,1083.0000 Z" stroke="#000000" stroke-width="16.0000"  stroke-linecap="round"  stroke-linejoin="round" fill="none" />
</g>
<g transform="matrix(1.0000 0.0000 0.0000 1.0000 0.0000 0.0000)">
</g>
<g transform="matrix(1.0000 0.0000 0.0000 1.0000 13.6737 53.2442)">
<text font-family="Arial" fill="#000000" style ="white-space:pre;" font-weight="400" text-anchor="start" x="0.0000" y="0.0000" font-size="13.0000" ><![CDATA[C]]></text>
</g>
<g transform="matrix(1.0000 0.0000 0.0000 1.0000 23.3025 55.0866)">
<text font-family="Arial" fill="#000000" style ="white-space:pre;" font-weight="400" text-anchor="start" x="0.0000" y="0.0000" font-size="9.0000" ><![CDATA[7]]></text>
</g>
<g transform="matrix(0.0625 0.0000 0.0000 0.0625 0.0000 0.0000)">
<path d="M 4258.0000,1083.0000 L 4258.0000,1687.0000 L 4862.0000,1687.0000 L 4862.0000,1083.0000 L 4258.0000,1083.0000 Z" stroke-width="1px" stroke="#FFFFFF"  fill="#FFFFFF" />
</g>
<g transform="matrix(1.0000 0.0000 0.0000 1.0000 0.0000 0.0000)">
<defs><clipPath id="clip-1714636915"><path d="M 0.0000,0.0000 L 306.0000,0.0000 L 306.0000,448.0000 L 0.0000,448.0000 L 0.0000,0.0000 Z Z" /></clipPath></defs>
</g>
<g transform="matrix(0.0625 0.0000 0.0000 0.0625 0.0000 0.0000)">
<path  clip-path="url(#clip-1714636915)" d="M 4258.0000,1687.0000 L 4862.0000,1687.0000 L 4862.0000,1083.0000 L 4258.0000,1083.0000 L 4258.0000,1687.0000 Z" stroke="#000000" stroke-width="16.0000"  stroke-linecap="round"  stroke-linejoin="round" fill="none" />
</g>
<g transform="matrix(1.0000 0.0000 0.0000 1.0000 0.0000 0.0000)">
</g>
<g transform="matrix(1.0000 0.0000 0.0000 1.0000 278.2406 91.0394)">
<text font-family="Arial" fill="#000000" style ="white-space:pre;" font-weight="400" text-anchor="start" x="0.0000" y="0.0000" font-size="13.0000" ><![CDATA[C]]></text>
</g>
<g transform="matrix(1.0000 0.0000 0.0000 1.0000 287.8694 92.8819)">
<text font-family="Arial" fill="#000000" style ="white-space:pre;" font-weight="400" text-anchor="start" x="0.0000" y="0.0000" font-size="9.0000" ><![CDATA[8]]></text>
</g>
<g transform="matrix(0.0625 0.0000 0.0000 0.0625 0.0000 0.0000)">
<path d="M 3653.0000,1083.0000 L 3653.0000,1687.0000 L 4258.0000,1687.0000 L 4258.0000,1083.0000 L 3653.0000,1083.0000 Z" stroke-width="1px" stroke="#FFFFFF"  fill="#FFFFFF" />
</g>
<g transform="matrix(1.0000 0.0000 0.0000 1.0000 0.0000 0.0000)">
</g>
<g transform="matrix(0.0625 0.0000 0.0000 0.0625 0.0000 0.0000)">
<path d="M 3653.0000,1687.0000 L 4258.0000,1687.0000 L 4258.0000,1083.0000 L 3653.0000,1083.0000 L 3653.0000,1687.0000 Z" stroke="#000000" stroke-width="16.0000"  stroke-linecap="round"  stroke-linejoin="round" fill="none" />
</g>
<g transform="matrix(1.0000 0.0000 0.0000 1.0000 0.0000 0.0000)">
</g>
<g transform="matrix(1.0000 0.0000 0.0000 1.0000 240.4454 91.0394)">
<text font-family="Arial" fill="#000000" style ="white-space:pre;" font-weight="400" text-anchor="start" x="0.0000" y="0.0000" font-size="13.0000" ><![CDATA[C]]></text>
</g>
<g transform="matrix(1.0000 0.0000 0.0000 1.0000 250.0741 92.8819)">
<text font-family="Arial" fill="#000000" style ="white-space:pre;" font-weight="400" text-anchor="start" x="0.0000" y="0.0000" font-size="9.0000" ><![CDATA[9]]></text>
</g>
<g transform="matrix(0.0625 0.0000 0.0000 0.0625 0.0000 0.0000)">
<path d="M 3048.0000,1083.0000 L 3048.0000,1687.0000 L 3653.0000,1687.0000 L 3653.0000,1083.0000 L 3048.0000,1083.0000 Z" stroke-width="1px" stroke="#FFFFFF"  fill="#FFFFFF" />
</g>
<g transform="matrix(1.0000 0.0000 0.0000 1.0000 0.0000 0.0000)">
</g>
<g transform="matrix(0.0625 0.0000 0.0000 0.0625 0.0000 0.0000)">
<path d="M 3048.0000,1687.0000 L 3653.0000,1687.0000 L 3653.0000,1083.0000 L 3048.0000,1083.0000 L 3048.0000,1687.0000 Z" stroke="#000000" stroke-width="16.0000"  stroke-linecap="round"  stroke-linejoin="round" fill="none" />
</g>
<g transform="matrix(1.0000 0.0000 0.0000 1.0000 0.0000 0.0000)">
</g>
<g transform="matrix(1.0000 0.0000 0.0000 1.0000 200.2404 91.0394)">
<text font-family="Arial" fill="#000000" style ="white-space:pre;" font-weight="400" text-anchor="start" x="0.0000" y="0.0000" font-size="13.0000" ><![CDATA[C]]></text>
</g>
<g transform="matrix(1.0000 0.0000 0.0000 1.0000 209.8692 92.8819)">
<text font-family="Arial" fill="#000000" style ="white-space:pre;" font-weight="400" text-anchor="start" x="0.0000" y="0.0000" font-size="9.0000" ><![CDATA[10]]></text>
</g>
<g transform="matrix(0.0625 0.0000 0.0000 0.0625 0.0000 0.0000)">
<path d="M 2443.0000,1083.0000 L 2443.0000,1687.0000 L 3048.0000,1687.0000 L 3048.0000,1083.0000 L 2443.0000,1083.0000 Z" stroke-width="1px" stroke="#FFFFFF"  fill="#FFFFFF" />
</g>
<g transform="matrix(1.0000 0.0000 0.0000 1.0000 0.0000 0.0000)">
</g>
<g transform="matrix(0.0625 0.0000 0.0000 0.0625 0.0000 0.0000)">
<path d="M 2443.0000,1687.0000 L 3048.0000,1687.0000 L 3048.0000,1083.0000 L 2443.0000,1083.0000 L 2443.0000,1687.0000 Z" stroke="#000000" stroke-width="16.0000"  stroke-linecap="round"  stroke-linejoin="round" fill="none" />
</g>
<g transform="matrix(1.0000 0.0000 0.0000 1.0000 0.0000 0.0000)">
</g>
<g transform="matrix(1.0000 0.0000 0.0000 1.0000 162.4451 91.0394)">
<text font-family="Arial" fill="#000000" style ="white-space:pre;" font-weight="400" text-anchor="start" x="0.0000" y="0.0000" font-size="13.0000" ><![CDATA[C]]></text>
</g>
<g transform="matrix(1.0000 0.0000 0.0000 1.0000 172.0739 92.8819)">
<text font-family="Arial" fill="#000000" style ="white-space:pre;" font-weight="400" text-anchor="start" x="0.0000" y="0.0000" font-size="9.0000" ><![CDATA[11]]></text>
</g>
<g transform="matrix(0.0625 0.0000 0.0000 0.0625 0.0000 0.0000)">
<path d="M 1839.0000,1083.0000 L 1839.0000,1687.0000 L 2443.0000,1687.0000 L 2443.0000,1083.0000 L 1839.0000,1083.0000 Z" stroke-width="1px" stroke="#FFFFFF"  fill="#FFFFFF" />
</g>
<g transform="matrix(1.0000 0.0000 0.0000 1.0000 0.0000 0.0000)">
</g>
<g transform="matrix(0.0625 0.0000 0.0000 0.0625 0.0000 0.0000)">
<path d="M 1839.0000,1687.0000 L 2443.0000,1687.0000 L 2443.0000,1083.0000 L 1839.0000,1083.0000 L 1839.0000,1687.0000 Z" stroke="#000000" stroke-width="16.0000"  stroke-linecap="round"  stroke-linejoin="round" fill="none" />
</g>
<g transform="matrix(1.0000 0.0000 0.0000 1.0000 0.0000 0.0000)">
</g>
<g transform="matrix(1.0000 0.0000 0.0000 1.0000 124.6499 91.0394)">
<text font-family="Arial" fill="#000000" style ="white-space:pre;" font-weight="400" text-anchor="start" x="0.0000" y="0.0000" font-size="13.0000" ><![CDATA[C]]></text>
</g>
<g transform="matrix(1.0000 0.0000 0.0000 1.0000 134.2786 92.8819)">
<text font-family="Arial" fill="#000000" style ="white-space:pre;" font-weight="400" text-anchor="start" x="0.0000" y="0.0000" font-size="9.0000" ><![CDATA[12]]></text>
</g>
<g transform="matrix(0.0625 0.0000 0.0000 0.0625 0.0000 0.0000)">
<path d="M 1234.0000,1083.0000 L 1234.0000,1687.0000 L 1839.0000,1687.0000 L 1839.0000,1083.0000 L 1234.0000,1083.0000 Z" stroke-width="1px" stroke="#FFFFFF"  fill="#FFFFFF" />
</g>
<g transform="matrix(1.0000 0.0000 0.0000 1.0000 0.0000 0.0000)">
</g>
<g transform="matrix(0.0625 0.0000 0.0000 0.0625 0.0000 0.0000)">
<path d="M 1234.0000,1687.0000 L 1839.0000,1687.0000 L 1839.0000,1083.0000 L 1234.0000,1083.0000 L 1234.0000,1687.0000 Z" stroke="#000000" stroke-width="16.0000"  stroke-linecap="round"  stroke-linejoin="round" fill="none" />
</g>
<g transform="matrix(1.0000 0.0000 0.0000 1.0000 0.0000 0.0000)">
</g>
<g transform="matrix(1.0000 0.0000 0.0000 1.0000 86.8546 91.0394)">
<text font-family="Arial" fill="#000000" style ="white-space:pre;" font-weight="400" text-anchor="start" x="0.0000" y="0.0000" font-size="13.0000" ><![CDATA[C]]></text>
</g>
<g transform="matrix(1.0000 0.0000 0.0000 1.0000 96.4834 92.8819)">
<text font-family="Arial" fill="#000000" style ="white-space:pre;" font-weight="400" text-anchor="start" x="0.0000" y="0.0000" font-size="9.0000" ><![CDATA[13]]></text>
</g>
<g transform="matrix(0.0625 0.0000 0.0000 0.0625 0.0000 0.0000)">
<path d="M 629.0000,1083.0000 L 629.0000,1687.0000 L 1234.0000,1687.0000 L 1234.0000,1083.0000 L 629.0000,1083.0000 Z" stroke-width="1px" stroke="#FFFFFF"  fill="#FFFFFF" />
</g>
<g transform="matrix(1.0000 0.0000 0.0000 1.0000 0.0000 0.0000)">
</g>
<g transform="matrix(0.0625 0.0000 0.0000 0.0625 0.0000 0.0000)">
<path d="M 629.0000,1687.0000 L 1234.0000,1687.0000 L 1234.0000,1083.0000 L 629.0000,1083.0000 L 629.0000,1687.0000 Z" stroke="#000000" stroke-width="16.0000"  stroke-linecap="round"  stroke-linejoin="round" fill="none" />
</g>
<g transform="matrix(1.0000 0.0000 0.0000 1.0000 0.0000 0.0000)">
</g>
<g transform="matrix(1.0000 0.0000 0.0000 1.0000 49.0593 91.0394)">
<text font-family="Arial" fill="#000000" style ="white-space:pre;" font-weight="400" text-anchor="start" x="0.0000" y="0.0000" font-size="13.0000" ><![CDATA[C]]></text>
</g>
<g transform="matrix(1.0000 0.0000 0.0000 1.0000 58.6881 92.8819)">
<text font-family="Arial" fill="#000000" style ="white-space:pre;" font-weight="400" text-anchor="start" x="0.0000" y="0.0000" font-size="9.0000" ><![CDATA[14]]></text>
</g>
<g transform="matrix(0.0625 0.0000 0.0000 0.0625 0.0000 0.0000)">
<path d="M 24.0000,1083.0000 L 24.0000,1687.0000 L 629.0000,1687.0000 L 629.0000,1083.0000 L 24.0000,1083.0000 Z" stroke-width="1px" stroke="#FFFFFF"  fill="#FFFFFF" />
</g>
<g transform="matrix(1.0000 0.0000 0.0000 1.0000 0.0000 0.0000)">
</g>
<g transform="matrix(0.0625 0.0000 0.0000 0.0625 0.0000 0.0000)">
<path d="M 24.0000,1687.0000 L 629.0000,1687.0000 L 629.0000,1083.0000 L 24.0000,1083.0000 L 24.0000,1687.0000 Z" stroke="#000000" stroke-width="16.0000"  stroke-linecap="round"  stroke-linejoin="round" fill="none" />
</g>
<g transform="matrix(1.0000 0.0000 0.0000 1.0000 0.0000 0.0000)">
</g>
<g transform="matrix(1.0000 0.0000 0.0000 1.0000 11.2640 91.0394)">
<text font-family="Arial" fill="#000000" style ="white-space:pre;" font-weight="400" text-anchor="start" x="0.0000" y="0.0000" font-size="13.0000" ><![CDATA[C]]></text>
</g>
<g transform="matrix(1.0000 0.0000 0.0000 1.0000 20.8928 92.8819)">
<text font-family="Arial" fill="#000000" style ="white-space:pre;" font-weight="400" text-anchor="start" x="0.0000" y="0.0000" font-size="9.0000" ><![CDATA[15]]></text>
</g>
<g transform="matrix(0.0625 0.0000 0.0000 0.0625 0.0000 0.0000)">
<path d="M 4258.0000,1687.0000 L 4258.0000,2292.0000 L 4862.0000,2292.0000 L 4862.0000,1687.0000 L 4258.0000,1687.0000 Z" stroke-width="1px" stroke="#FFFFFF"  fill="#FFFFFF" />
</g>
<g transform="matrix(1.0000 0.0000 0.0000 1.0000 0.0000 0.0000)">
<defs><clipPath id="clip-1957747793"><path d="M 0.0000,0.0000 L 306.0000,0.0000 L 306.0000,448.0000 L 0.0000,448.0000 L 0.0000,0.0000 Z Z" /></clipPath></defs>
</g>
<g transform="matrix(0.0625 0.0000 0.0000 0.0625 0.0000 0.0000)">
<path  clip-path="url(#clip-1957747793)" d="M 4258.0000,2292.0000 L 4862.0000,2292.0000 L 4862.0000,1687.0000 L 4258.0000,1687.0000 L 4258.0000,2292.0000 Z" stroke="#000000" stroke-width="16.0000"  stroke-linecap="round"  stroke-linejoin="round" fill="none" />
</g>
<g transform="matrix(1.0000 0.0000 0.0000 1.0000 0.0000 0.0000)">
</g>
<g transform="matrix(1.0000 0.0000 0.0000 1.0000 275.8310 128.8347)">
<text font-family="Arial" fill="#000000" style ="white-space:pre;" font-weight="400" text-anchor="start" x="0.0000" y="0.0000" font-size="13.0000" ><![CDATA[C]]></text>
</g>
<g transform="matrix(1.0000 0.0000 0.0000 1.0000 285.4597 130.6771)">
<text font-family="Arial" fill="#000000" style ="white-space:pre;" font-weight="400" text-anchor="start" x="0.0000" y="0.0000" font-size="9.0000" ><![CDATA[16]]></text>
</g>
<g transform="matrix(0.0625 0.0000 0.0000 0.0625 0.0000 0.0000)">
<path d="M 3653.0000,1687.0000 L 3653.0000,2292.0000 L 4258.0000,2292.0000 L 4258.0000,1687.0000 L 3653.0000,1687.0000 Z" stroke-width="1px" stroke="#FFFFFF"  fill="#FFFFFF" />
</g>
<g transform="matrix(1.0000 0.0000 0.0000 1.0000 0.0000 0.0000)">
</g>
<g transform="matrix(0.0625 0.0000 0.0000 0.0625 0.0000 0.0000)">
<path d="M 3653.0000,2292.0000 L 4258.0000,2292.0000 L 4258.0000,1687.0000 L 3653.0000,1687.0000 L 3653.0000,2292.0000 Z" stroke="#000000" stroke-width="16.0000"  stroke-linecap="round"  stroke-linejoin="round" fill="none" />
</g>
<g transform="matrix(1.0000 0.0000 0.0000 1.0000 0.0000 0.0000)">
</g>
<g transform="matrix(1.0000 0.0000 0.0000 1.0000 238.0357 128.8347)">
<text font-family="Arial" fill="#000000" style ="white-space:pre;" font-weight="400" text-anchor="start" x="0.0000" y="0.0000" font-size="13.0000" ><![CDATA[C]]></text>
</g>
<g transform="matrix(1.0000 0.0000 0.0000 1.0000 247.6645 130.6771)">
<text font-family="Arial" fill="#000000" style ="white-space:pre;" font-weight="400" text-anchor="start" x="0.0000" y="0.0000" font-size="9.0000" ><![CDATA[1]]></text>
</g>
<g transform="matrix(1.0000 0.0000 0.0000 1.0000 252.4838 130.6771)">
<text font-family="Arial" fill="#000000" style ="white-space:pre;" font-weight="400" text-anchor="start" x="0.0000" y="0.0000" font-size="9.0000" ><![CDATA[7]]></text>
</g>
<g transform="matrix(0.0625 0.0000 0.0000 0.0625 0.0000 0.0000)">
<path d="M 3048.0000,1687.0000 L 3048.0000,2292.0000 L 3653.0000,2292.0000 L 3653.0000,1687.0000 L 3048.0000,1687.0000 Z" stroke-width="1px" stroke="#FFFFFF"  fill="#FFFFFF" />
</g>
<g transform="matrix(1.0000 0.0000 0.0000 1.0000 0.0000 0.0000)">
</g>
<g transform="matrix(0.0625 0.0000 0.0000 0.0625 0.0000 0.0000)">
<path d="M 3048.0000,2292.0000 L 3653.0000,2292.0000 L 3653.0000,1687.0000 L 3048.0000,1687.0000 L 3048.0000,2292.0000 Z" stroke="#000000" stroke-width="16.0000"  stroke-linecap="round"  stroke-linejoin="round" fill="none" />
</g>
<g transform="matrix(1.0000 0.0000 0.0000 1.0000 0.0000 0.0000)">
</g>
<g transform="matrix(1.0000 0.0000 0.0000 1.0000 200.2404 128.8347)">
<text font-family="Arial" fill="#000000" style ="white-space:pre;" font-weight="400" text-anchor="start" x="0.0000" y="0.0000" font-size="13.0000" ><![CDATA[C]]></text>
</g>
<g transform="matrix(1.0000 0.0000 0.0000 1.0000 209.8692 130.6771)">
<text font-family="Arial" fill="#000000" style ="white-space:pre;" font-weight="400" text-anchor="start" x="0.0000" y="0.0000" font-size="9.0000" ><![CDATA[18]]></text>
</g>
<g transform="matrix(0.0625 0.0000 0.0000 0.0625 0.0000 0.0000)">
<path d="M 2443.0000,1687.0000 L 2443.0000,2292.0000 L 3048.0000,2292.0000 L 3048.0000,1687.0000 L 2443.0000,1687.0000 Z" stroke-width="1px" stroke="#FFFFFF"  fill="#FFFFFF" />
</g>
<g transform="matrix(1.0000 0.0000 0.0000 1.0000 0.0000 0.0000)">
</g>
<g transform="matrix(0.0625 0.0000 0.0000 0.0625 0.0000 0.0000)">
<path d="M 3048.0000,2292.0000 L 2443.0000,2292.0000 L 2443.0000,1687.0000 L 3048.0000,1687.0000 L 3048.0000,2292.0000 Z" stroke="#000000" stroke-width="16.0000"  stroke-linecap="round"  stroke-linejoin="round" fill="none" />
</g>
<g transform="matrix(1.0000 0.0000 0.0000 1.0000 0.0000 0.0000)">
</g>
<g transform="matrix(1.0000 0.0000 0.0000 1.0000 162.4451 128.8347)">
<text font-family="Arial" fill="#000000" style ="white-space:pre;" font-weight="400" text-anchor="start" x="0.0000" y="0.0000" font-size="13.0000" ><![CDATA[C]]></text>
</g>
<g transform="matrix(1.0000 0.0000 0.0000 1.0000 172.0739 130.6771)">
<text font-family="Arial" fill="#000000" style ="white-space:pre;" font-weight="400" text-anchor="start" x="0.0000" y="0.0000" font-size="9.0000" ><![CDATA[19]]></text>
</g>
<g transform="matrix(0.0625 0.0000 0.0000 0.0625 0.0000 0.0000)">
<path d="M 1839.0000,1687.0000 L 1839.0000,2292.0000 L 2443.0000,2292.0000 L 2443.0000,1687.0000 L 1839.0000,1687.0000 Z" stroke-width="1px" stroke="#FFFFFF"  fill="#FFFFFF" />
</g>
<g transform="matrix(1.0000 0.0000 0.0000 1.0000 0.0000 0.0000)">
</g>
<g transform="matrix(0.0625 0.0000 0.0000 0.0625 0.0000 0.0000)">
<path d="M 1839.0000,2292.0000 L 2443.0000,2292.0000 L 2443.0000,1687.0000 L 1839.0000,1687.0000 L 1839.0000,2292.0000 Z" stroke="#000000" stroke-width="16.0000"  stroke-linecap="round"  stroke-linejoin="round" fill="none" />
</g>
<g transform="matrix(1.0000 0.0000 0.0000 1.0000 0.0000 0.0000)">
</g>
<g transform="matrix(1.0000 0.0000 0.0000 1.0000 124.6499 128.8347)">
<text font-family="Arial" fill="#000000" style ="white-space:pre;" font-weight="400" text-anchor="start" x="0.0000" y="0.0000" font-size="13.0000" ><![CDATA[C]]></text>
</g>
<g transform="matrix(1.0000 0.0000 0.0000 1.0000 134.2786 130.6771)">
<text font-family="Arial" fill="#000000" style ="white-space:pre;" font-weight="400" text-anchor="start" x="0.0000" y="0.0000" font-size="9.0000" ><![CDATA[20]]></text>
</g>
<g transform="matrix(0.0625 0.0000 0.0000 0.0625 0.0000 0.0000)">
<path d="M 1234.0000,1687.0000 L 1234.0000,2292.0000 L 1839.0000,2292.0000 L 1839.0000,1687.0000 L 1234.0000,1687.0000 Z" stroke-width="1px" stroke="#FFFFFF"  fill="#FFFFFF" />
</g>
<g transform="matrix(1.0000 0.0000 0.0000 1.0000 0.0000 0.0000)">
</g>
<g transform="matrix(0.0625 0.0000 0.0000 0.0625 0.0000 0.0000)">
<path d="M 1234.0000,2292.0000 L 1839.0000,2292.0000 L 1839.0000,1687.0000 L 1234.0000,1687.0000 L 1234.0000,2292.0000 Z" stroke="#000000" stroke-width="16.0000"  stroke-linecap="round"  stroke-linejoin="round" fill="none" />
</g>
<g transform="matrix(1.0000 0.0000 0.0000 1.0000 0.0000 0.0000)">
</g>
<g transform="matrix(1.0000 0.0000 0.0000 1.0000 86.8546 128.8347)">
<text font-family="Arial" fill="#000000" style ="white-space:pre;" font-weight="400" text-anchor="start" x="0.0000" y="0.0000" font-size="13.0000" ><![CDATA[C]]></text>
</g>
<g transform="matrix(1.0000 0.0000 0.0000 1.0000 96.4834 130.6771)">
<text font-family="Arial" fill="#000000" style ="white-space:pre;" font-weight="400" text-anchor="start" x="0.0000" y="0.0000" font-size="9.0000" ><![CDATA[21]]></text>
</g>
<g transform="matrix(0.0625 0.0000 0.0000 0.0625 0.0000 0.0000)">
<path d="M 629.0000,1687.0000 L 629.0000,2292.0000 L 1234.0000,2292.0000 L 1234.0000,1687.0000 L 629.0000,1687.0000 Z" stroke-width="1px" stroke="#FFFFFF"  fill="#FFFFFF" />
</g>
<g transform="matrix(1.0000 0.0000 0.0000 1.0000 0.0000 0.0000)">
</g>
<g transform="matrix(0.0625 0.0000 0.0000 0.0625 0.0000 0.0000)">
<path d="M 629.0000,2292.0000 L 1234.0000,2292.0000 L 1234.0000,1687.0000 L 629.0000,1687.0000 L 629.0000,2292.0000 Z" stroke="#000000" stroke-width="16.0000"  stroke-linecap="round"  stroke-linejoin="round" fill="none" />
</g>
<g transform="matrix(1.0000 0.0000 0.0000 1.0000 0.0000 0.0000)">
</g>
<g transform="matrix(1.0000 0.0000 0.0000 1.0000 49.0593 128.8347)">
<text font-family="Arial" fill="#000000" style ="white-space:pre;" font-weight="400" text-anchor="start" x="0.0000" y="0.0000" font-size="13.0000" ><![CDATA[C]]></text>
</g>
<g transform="matrix(1.0000 0.0000 0.0000 1.0000 58.6881 130.6771)">
<text font-family="Arial" fill="#000000" style ="white-space:pre;" font-weight="400" text-anchor="start" x="0.0000" y="0.0000" font-size="9.0000" ><![CDATA[22]]></text>
</g>
<g transform="matrix(0.0625 0.0000 0.0000 0.0625 0.0000 0.0000)">
<path d="M 24.0000,1687.0000 L 24.0000,2292.0000 L 629.0000,2292.0000 L 629.0000,1687.0000 L 24.0000,1687.0000 Z" stroke-width="1px" stroke="#FFFFFF"  fill="#FFFFFF" />
</g>
<g transform="matrix(1.0000 0.0000 0.0000 1.0000 0.0000 0.0000)">
</g>
<g transform="matrix(0.0625 0.0000 0.0000 0.0625 0.0000 0.0000)">
<path d="M 24.0000,2292.0000 L 629.0000,2292.0000 L 629.0000,1687.0000 L 24.0000,1687.0000 L 24.0000,2292.0000 Z" stroke="#000000" stroke-width="16.0000"  stroke-linecap="round"  stroke-linejoin="round" fill="none" />
</g>
<g transform="matrix(1.0000 0.0000 0.0000 1.0000 0.0000 0.0000)">
</g>
<g transform="matrix(1.0000 0.0000 0.0000 1.0000 11.2640 128.8347)">
<text font-family="Arial" fill="#000000" style ="white-space:pre;" font-weight="400" text-anchor="start" x="0.0000" y="0.0000" font-size="13.0000" ><![CDATA[C]]></text>
</g>
<g transform="matrix(1.0000 0.0000 0.0000 1.0000 20.8928 130.6771)">
<text font-family="Arial" fill="#000000" style ="white-space:pre;" font-weight="400" text-anchor="start" x="0.0000" y="0.0000" font-size="9.0000" ><![CDATA[23]]></text>
</g>
<g transform="matrix(0.0625 0.0000 0.0000 0.0625 0.0000 0.0000)">
<path d="M 4258.0000,2292.0000 L 4258.0000,2897.0000 L 4862.0000,2897.0000 L 4862.0000,2292.0000 L 4258.0000,2292.0000 Z" stroke-width="1px" stroke="#FFFFFF"  fill="#FFFFFF" />
</g>
<g transform="matrix(1.0000 0.0000 0.0000 1.0000 0.0000 0.0000)">
<defs><clipPath id="clip-424238335"><path d="M 0.0000,0.0000 L 306.0000,0.0000 L 306.0000,448.0000 L 0.0000,448.0000 L 0.0000,0.0000 Z Z" /></clipPath></defs>
</g>
<g transform="matrix(0.0625 0.0000 0.0000 0.0625 0.0000 0.0000)">
<path  clip-path="url(#clip-424238335)" d="M 4258.0000,2897.0000 L 4862.0000,2897.0000 L 4862.0000,2292.0000 L 4258.0000,2292.0000 L 4258.0000,2897.0000 Z" stroke="#000000" stroke-width="16.0000"  stroke-linecap="round"  stroke-linejoin="round" fill="none" />
</g>
<g transform="matrix(1.0000 0.0000 0.0000 1.0000 0.0000 0.0000)">
</g>
<g transform="matrix(1.0000 0.0000 0.0000 1.0000 275.8310 166.6300)">
<text font-family="Arial" fill="#000000" style ="white-space:pre;" font-weight="400" text-anchor="start" x="0.0000" y="0.0000" font-size="13.0000" ><![CDATA[C]]></text>
</g>
<g transform="matrix(1.0000 0.0000 0.0000 1.0000 285.4597 168.4724)">
<text font-family="Arial" fill="#000000" style ="white-space:pre;" font-weight="400" text-anchor="start" x="0.0000" y="0.0000" font-size="9.0000" ><![CDATA[24]]></text>
</g>
<g transform="matrix(0.0625 0.0000 0.0000 0.0625 0.0000 0.0000)">
<path d="M 3653.0000,2292.0000 L 3653.0000,2897.0000 L 4258.0000,2897.0000 L 4258.0000,2292.0000 L 3653.0000,2292.0000 Z" stroke-width="1px" stroke="#FFFFFF"  fill="#FFFFFF" />
</g>
<g transform="matrix(1.0000 0.0000 0.0000 1.0000 0.0000 0.0000)">
</g>
<g transform="matrix(0.0625 0.0000 0.0000 0.0625 0.0000 0.0000)">
<path d="M 3653.0000,2897.0000 L 4258.0000,2897.0000 L 4258.0000,2292.0000 L 3653.0000,2292.0000 L 3653.0000,2897.0000 Z" stroke="#000000" stroke-width="16.0000"  stroke-linecap="round"  stroke-linejoin="round" fill="none" />
</g>
<g transform="matrix(1.0000 0.0000 0.0000 1.0000 0.0000 0.0000)">
</g>
<g transform="matrix(1.0000 0.0000 0.0000 1.0000 238.0357 166.6300)">
<text font-family="Arial" fill="#000000" style ="white-space:pre;" font-weight="400" text-anchor="start" x="0.0000" y="0.0000" font-size="13.0000" ><![CDATA[C]]></text>
</g>
<g transform="matrix(1.0000 0.0000 0.0000 1.0000 247.6645 168.4724)">
<text font-family="Arial" fill="#000000" style ="white-space:pre;" font-weight="400" text-anchor="start" x="0.0000" y="0.0000" font-size="9.0000" ><![CDATA[25]]></text>
</g>
<g transform="matrix(0.0625 0.0000 0.0000 0.0625 0.0000 0.0000)">
<path d="M 3048.0000,2292.0000 L 3048.0000,2897.0000 L 3653.0000,2897.0000 L 3653.0000,2292.0000 L 3048.0000,2292.0000 Z" stroke-width="1px" stroke="#FFFFFF"  fill="#FFFFFF" />
</g>
<g transform="matrix(1.0000 0.0000 0.0000 1.0000 0.0000 0.0000)">
</g>
<g transform="matrix(0.0625 0.0000 0.0000 0.0625 0.0000 0.0000)">
<path d="M 3048.0000,2897.0000 L 3653.0000,2897.0000 L 3653.0000,2292.0000 L 3048.0000,2292.0000 L 3048.0000,2897.0000 Z" stroke="#000000" stroke-width="16.0000"  stroke-linecap="round"  stroke-linejoin="round" fill="none" />
</g>
<g transform="matrix(1.0000 0.0000 0.0000 1.0000 0.0000 0.0000)">
</g>
<g transform="matrix(1.0000 0.0000 0.0000 1.0000 200.2404 166.6300)">
<text font-family="Arial" fill="#000000" style ="white-space:pre;" font-weight="400" text-anchor="start" x="0.0000" y="0.0000" font-size="13.0000" ><![CDATA[C]]></text>
</g>
<g transform="matrix(1.0000 0.0000 0.0000 1.0000 209.8692 168.4724)">
<text font-family="Arial" fill="#000000" style ="white-space:pre;" font-weight="400" text-anchor="start" x="0.0000" y="0.0000" font-size="9.0000" ><![CDATA[2]]></text>
</g>
<g transform="matrix(1.0000 0.0000 0.0000 1.0000 214.6885 168.4724)">
<text font-family="Arial" fill="#000000" style ="white-space:pre;" font-weight="400" text-anchor="start" x="0.0000" y="0.0000" font-size="9.0000" ><![CDATA[6]]></text>
</g>
<g transform="matrix(0.0625 0.0000 0.0000 0.0625 0.0000 0.0000)">
<path d="M 2443.0000,2292.0000 L 2443.0000,2897.0000 L 3048.0000,2897.0000 L 3048.0000,2292.0000 L 2443.0000,2292.0000 Z" stroke-width="1px" stroke="#FFFFFF"  fill="#FFFFFF" />
</g>
<g transform="matrix(1.0000 0.0000 0.0000 1.0000 0.0000 0.0000)">
</g>
<g transform="matrix(0.0625 0.0000 0.0000 0.0625 0.0000 0.0000)">
<path d="M 2443.0000,2897.0000 L 3048.0000,2897.0000 L 3048.0000,2292.0000 L 2443.0000,2292.0000 L 2443.0000,2897.0000 Z" stroke="#000000" stroke-width="16.0000"  stroke-linecap="round"  stroke-linejoin="round" fill="none" />
</g>
<g transform="matrix(1.0000 0.0000 0.0000 1.0000 0.0000 0.0000)">
</g>
<g transform="matrix(1.0000 0.0000 0.0000 1.0000 162.4451 166.6300)">
<text font-family="Arial" fill="#000000" style ="white-space:pre;" font-weight="400" text-anchor="start" x="0.0000" y="0.0000" font-size="13.0000" ><![CDATA[C]]></text>
</g>
<g transform="matrix(1.0000 0.0000 0.0000 1.0000 172.0739 168.4724)">
<text font-family="Arial" fill="#000000" style ="white-space:pre;" font-weight="400" text-anchor="start" x="0.0000" y="0.0000" font-size="9.0000" ><![CDATA[27]]></text>
</g>
<g transform="matrix(0.0625 0.0000 0.0000 0.0625 0.0000 0.0000)">
<path d="M 1839.0000,2292.0000 L 1839.0000,2897.0000 L 2443.0000,2897.0000 L 2443.0000,2292.0000 L 1839.0000,2292.0000 Z" stroke-width="1px" stroke="#FFFFFF"  fill="#FFFFFF" />
</g>
<g transform="matrix(1.0000 0.0000 0.0000 1.0000 0.0000 0.0000)">
</g>
<g transform="matrix(0.0625 0.0000 0.0000 0.0625 0.0000 0.0000)">
<path d="M 1839.0000,2897.0000 L 2443.0000,2897.0000 L 2443.0000,2292.0000 L 1839.0000,2292.0000 L 1839.0000,2897.0000 Z" stroke="#000000" stroke-width="16.0000"  stroke-linecap="round"  stroke-linejoin="round" fill="none" />
</g>
<g transform="matrix(1.0000 0.0000 0.0000 1.0000 0.0000 0.0000)">
</g>
<g transform="matrix(1.0000 0.0000 0.0000 1.0000 124.6499 166.6300)">
<text font-family="Arial" fill="#000000" style ="white-space:pre;" font-weight="400" text-anchor="start" x="0.0000" y="0.0000" font-size="13.0000" ><![CDATA[C]]></text>
</g>
<g transform="matrix(1.0000 0.0000 0.0000 1.0000 134.2786 168.4724)">
<text font-family="Arial" fill="#000000" style ="white-space:pre;" font-weight="400" text-anchor="start" x="0.0000" y="0.0000" font-size="9.0000" ><![CDATA[28]]></text>
</g>
<g transform="matrix(0.0625 0.0000 0.0000 0.0625 0.0000 0.0000)">
<path d="M 1234.0000,2292.0000 L 1234.0000,2897.0000 L 1839.0000,2897.0000 L 1839.0000,2292.0000 L 1234.0000,2292.0000 Z" stroke-width="1px" stroke="#FFFFFF"  fill="#FFFFFF" />
</g>
<g transform="matrix(1.0000 0.0000 0.0000 1.0000 0.0000 0.0000)">
</g>
<g transform="matrix(0.0625 0.0000 0.0000 0.0625 0.0000 0.0000)">
<path d="M 1234.0000,2897.0000 L 1839.0000,2897.0000 L 1839.0000,2292.0000 L 1234.0000,2292.0000 L 1234.0000,2897.0000 Z" stroke="#000000" stroke-width="16.0000"  stroke-linecap="round"  stroke-linejoin="round" fill="none" />
</g>
<g transform="matrix(1.0000 0.0000 0.0000 1.0000 0.0000 0.0000)">
</g>
<g transform="matrix(1.0000 0.0000 0.0000 1.0000 86.8546 166.6300)">
<text font-family="Arial" fill="#000000" style ="white-space:pre;" font-weight="400" text-anchor="start" x="0.0000" y="0.0000" font-size="13.0000" ><![CDATA[C]]></text>
</g>
<g transform="matrix(1.0000 0.0000 0.0000 1.0000 96.4834 168.4724)">
<text font-family="Arial" fill="#000000" style ="white-space:pre;" font-weight="400" text-anchor="start" x="0.0000" y="0.0000" font-size="9.0000" ><![CDATA[29]]></text>
</g>
<g transform="matrix(0.0625 0.0000 0.0000 0.0625 0.0000 0.0000)">
<path d="M 629.0000,2292.0000 L 629.0000,2897.0000 L 1234.0000,2897.0000 L 1234.0000,2292.0000 L 629.0000,2292.0000 Z" stroke-width="1px" stroke="#FFFFFF"  fill="#FFFFFF" />
</g>
<g transform="matrix(1.0000 0.0000 0.0000 1.0000 0.0000 0.0000)">
</g>
<g transform="matrix(0.0625 0.0000 0.0000 0.0625 0.0000 0.0000)">
<path d="M 629.0000,2897.0000 L 1234.0000,2897.0000 L 1234.0000,2292.0000 L 629.0000,2292.0000 L 629.0000,2897.0000 Z" stroke="#000000" stroke-width="16.0000"  stroke-linecap="round"  stroke-linejoin="round" fill="none" />
</g>
<g transform="matrix(1.0000 0.0000 0.0000 1.0000 0.0000 0.0000)">
</g>
<g transform="matrix(1.0000 0.0000 0.0000 1.0000 49.0593 166.6300)">
<text font-family="Arial" fill="#000000" style ="white-space:pre;" font-weight="400" text-anchor="start" x="0.0000" y="0.0000" font-size="13.0000" ><![CDATA[C]]></text>
</g>
<g transform="matrix(1.0000 0.0000 0.0000 1.0000 58.6881 168.4724)">
<text font-family="Arial" fill="#000000" style ="white-space:pre;" font-weight="400" text-anchor="start" x="0.0000" y="0.0000" font-size="9.0000" ><![CDATA[30]]></text>
</g>
<g transform="matrix(0.0625 0.0000 0.0000 0.0625 0.0000 0.0000)">
<path d="M 24.0000,2292.0000 L 24.0000,2897.0000 L 629.0000,2897.0000 L 629.0000,2292.0000 L 24.0000,2292.0000 Z" stroke-width="1px" stroke="#FFFFFF"  fill="#FFFFFF" />
</g>
<g transform="matrix(1.0000 0.0000 0.0000 1.0000 0.0000 0.0000)">
</g>
<g transform="matrix(0.0625 0.0000 0.0000 0.0625 0.0000 0.0000)">
<path d="M 24.0000,2897.0000 L 629.0000,2897.0000 L 629.0000,2292.0000 L 24.0000,2292.0000 L 24.0000,2897.0000 Z" stroke="#000000" stroke-width="16.0000"  stroke-linecap="round"  stroke-linejoin="round" fill="none" />
</g>
<g transform="matrix(1.0000 0.0000 0.0000 1.0000 0.0000 0.0000)">
</g>
<g transform="matrix(1.0000 0.0000 0.0000 1.0000 11.2640 166.6300)">
<text font-family="Arial" fill="#000000" style ="white-space:pre;" font-weight="400" text-anchor="start" x="0.0000" y="0.0000" font-size="13.0000" ><![CDATA[C]]></text>
</g>
<g transform="matrix(1.0000 0.0000 0.0000 1.0000 20.8928 168.4724)">
<text font-family="Arial" fill="#000000" style ="white-space:pre;" font-weight="400" text-anchor="start" x="0.0000" y="0.0000" font-size="9.0000" ><![CDATA[31]]></text>
</g>
<g transform="matrix(0.0625 0.0000 0.0000 0.0625 0.0000 0.0000)">
<path d="M 3653.0000,2897.0000 L 3653.0000,3502.0000 L 4258.0000,3502.0000 L 4258.0000,2897.0000 L 3653.0000,2897.0000 Z" stroke-width="1px" stroke="#FFFFFF"  fill="#FFFFFF" />
</g>
<g transform="matrix(1.0000 0.0000 0.0000 1.0000 0.0000 0.0000)">
</g>
<g transform="matrix(0.0625 0.0000 0.0000 0.0625 0.0000 0.0000)">
<path d="M 3653.0000,3502.0000 L 4258.0000,3502.0000 L 4258.0000,2897.0000 L 3653.0000,2897.0000 L 3653.0000,3502.0000 Z" stroke="#000000" stroke-width="16.0000"  stroke-linecap="round"  stroke-linejoin="round" fill="none" />
</g>
<g transform="matrix(1.0000 0.0000 0.0000 1.0000 0.0000 0.0000)">
</g>
<g transform="matrix(1.0000 0.0000 0.0000 1.0000 240.8130 204.4253)">
<text font-family="Arial" fill="#000000" style ="white-space:pre;" font-weight="400" text-anchor="start" x="0.0000" y="0.0000" font-size="13.0000" ><![CDATA[S]]></text>
</g>
<g transform="matrix(1.0000 0.0000 0.0000 1.0000 249.7065 206.2677)">
<text font-family="Arial" fill="#000000" style ="white-space:pre;" font-weight="400" text-anchor="start" x="0.0000" y="0.0000" font-size="9.0000" ><![CDATA[1]]></text>
</g>
<g transform="matrix(0.0625 0.0000 0.0000 0.0625 0.0000 0.0000)">
<path d="M 3048.0000,2897.0000 L 3048.0000,3502.0000 L 3653.0000,3502.0000 L 3653.0000,2897.0000 L 3048.0000,2897.0000 Z" stroke-width="1px" stroke="#FFFFFF"  fill="#FFFFFF" />
</g>
<g transform="matrix(1.0000 0.0000 0.0000 1.0000 0.0000 0.0000)">
</g>
<g transform="matrix(0.0625 0.0000 0.0000 0.0625 0.0000 0.0000)">
<path d="M 3048.0000,3502.0000 L 3653.0000,3502.0000 L 3653.0000,2897.0000 L 3048.0000,2897.0000 L 3048.0000,3502.0000 Z" stroke="#000000" stroke-width="16.0000"  stroke-linecap="round"  stroke-linejoin="round" fill="none" />
</g>
<g transform="matrix(1.0000 0.0000 0.0000 1.0000 0.0000 0.0000)">
</g>
<g transform="matrix(1.0000 0.0000 0.0000 1.0000 203.0178 204.4253)">
<text font-family="Arial" fill="#000000" style ="white-space:pre;" font-weight="400" text-anchor="start" x="0.0000" y="0.0000" font-size="13.0000" ><![CDATA[S]]></text>
</g>
<g transform="matrix(1.0000 0.0000 0.0000 1.0000 211.9112 206.2677)">
<text font-family="Arial" fill="#000000" style ="white-space:pre;" font-weight="400" text-anchor="start" x="0.0000" y="0.0000" font-size="9.0000" ><![CDATA[2]]></text>
</g>
<g transform="matrix(0.0625 0.0000 0.0000 0.0625 0.0000 0.0000)">
<path d="M 2443.0000,2897.0000 L 2443.0000,3502.0000 L 3048.0000,3502.0000 L 3048.0000,2897.0000 L 2443.0000,2897.0000 Z" stroke-width="1px" stroke="#FFFFFF"  fill="#FFFFFF" />
</g>
<g transform="matrix(1.0000 0.0000 0.0000 1.0000 0.0000 0.0000)">
</g>
<g transform="matrix(0.0625 0.0000 0.0000 0.0625 0.0000 0.0000)">
<path d="M 2443.0000,3502.0000 L 3048.0000,3502.0000 L 3048.0000,2897.0000 L 2443.0000,2897.0000 L 2443.0000,3502.0000 Z" stroke="#000000" stroke-width="16.0000"  stroke-linecap="round"  stroke-linejoin="round" fill="none" />
</g>
<g transform="matrix(1.0000 0.0000 0.0000 1.0000 0.0000 0.0000)">
</g>
<g transform="matrix(1.0000 0.0000 0.0000 1.0000 165.2225 204.4253)">
<text font-family="Arial" fill="#000000" style ="white-space:pre;" font-weight="400" text-anchor="start" x="0.0000" y="0.0000" font-size="13.0000" ><![CDATA[S]]></text>
</g>
<g transform="matrix(1.0000 0.0000 0.0000 1.0000 174.1159 206.2677)">
<text font-family="Arial" fill="#000000" style ="white-space:pre;" font-weight="400" text-anchor="start" x="0.0000" y="0.0000" font-size="9.0000" ><![CDATA[3]]></text>
</g>
<g transform="matrix(0.0625 0.0000 0.0000 0.0625 0.0000 0.0000)">
<path d="M 1839.0000,2897.0000 L 1839.0000,3502.0000 L 2443.0000,3502.0000 L 2443.0000,2897.0000 L 1839.0000,2897.0000 Z" stroke-width="1px" stroke="#FFFFFF"  fill="#FFFFFF" />
</g>
<g transform="matrix(1.0000 0.0000 0.0000 1.0000 0.0000 0.0000)">
</g>
<g transform="matrix(0.0625 0.0000 0.0000 0.0625 0.0000 0.0000)">
<path d="M 1839.0000,3502.0000 L 2443.0000,3502.0000 L 2443.0000,2897.0000 L 1839.0000,2897.0000 L 1839.0000,3502.0000 Z" stroke="#000000" stroke-width="16.0000"  stroke-linecap="round"  stroke-linejoin="round" fill="none" />
</g>
<g transform="matrix(1.0000 0.0000 0.0000 1.0000 0.0000 0.0000)">
</g>
<g transform="matrix(1.0000 0.0000 0.0000 1.0000 127.4272 204.4253)">
<text font-family="Arial" fill="#000000" style ="white-space:pre;" font-weight="400" text-anchor="start" x="0.0000" y="0.0000" font-size="13.0000" ><![CDATA[S]]></text>
</g>
<g transform="matrix(1.0000 0.0000 0.0000 1.0000 136.3206 206.2677)">
<text font-family="Arial" fill="#000000" style ="white-space:pre;" font-weight="400" text-anchor="start" x="0.0000" y="0.0000" font-size="9.0000" ><![CDATA[4]]></text>
</g>
<g transform="matrix(0.0625 0.0000 0.0000 0.0625 0.0000 0.0000)">
<path d="M 1234.0000,2897.0000 L 1234.0000,3502.0000 L 1839.0000,3502.0000 L 1839.0000,2897.0000 L 1234.0000,2897.0000 Z" stroke-width="1px" stroke="#FFFFFF"  fill="#FFFFFF" />
</g>
<g transform="matrix(1.0000 0.0000 0.0000 1.0000 0.0000 0.0000)">
</g>
<g transform="matrix(0.0625 0.0000 0.0000 0.0625 0.0000 0.0000)">
<path d="M 1234.0000,3502.0000 L 1839.0000,3502.0000 L 1839.0000,2897.0000 L 1234.0000,2897.0000 L 1234.0000,3502.0000 Z" stroke="#000000" stroke-width="16.0000"  stroke-linecap="round"  stroke-linejoin="round" fill="none" />
</g>
<g transform="matrix(1.0000 0.0000 0.0000 1.0000 0.0000 0.0000)">
</g>
<g transform="matrix(1.0000 0.0000 0.0000 1.0000 89.6319 204.4253)">
<text font-family="Arial" fill="#000000" style ="white-space:pre;" font-weight="400" text-anchor="start" x="0.0000" y="0.0000" font-size="13.0000" ><![CDATA[S]]></text>
</g>
<g transform="matrix(1.0000 0.0000 0.0000 1.0000 98.5254 206.2677)">
<text font-family="Arial" fill="#000000" style ="white-space:pre;" font-weight="400" text-anchor="start" x="0.0000" y="0.0000" font-size="9.0000" ><![CDATA[5]]></text>
</g>
<g transform="matrix(0.0625 0.0000 0.0000 0.0625 0.0000 0.0000)">
<path d="M 629.0000,2897.0000 L 629.0000,3502.0000 L 1234.0000,3502.0000 L 1234.0000,2897.0000 L 629.0000,2897.0000 Z" stroke-width="1px" stroke="#FFFFFF"  fill="#FFFFFF" />
</g>
<g transform="matrix(1.0000 0.0000 0.0000 1.0000 0.0000 0.0000)">
</g>
<g transform="matrix(0.0625 0.0000 0.0000 0.0625 0.0000 0.0000)">
<path d="M 629.0000,3502.0000 L 1234.0000,3502.0000 L 1234.0000,2897.0000 L 629.0000,2897.0000 L 629.0000,3502.0000 Z" stroke="#000000" stroke-width="16.0000"  stroke-linecap="round"  stroke-linejoin="round" fill="none" />
</g>
<g transform="matrix(1.0000 0.0000 0.0000 1.0000 0.0000 0.0000)">
</g>
<g transform="matrix(1.0000 0.0000 0.0000 1.0000 51.8367 204.4253)">
<text font-family="Arial" fill="#000000" style ="white-space:pre;" font-weight="400" text-anchor="start" x="0.0000" y="0.0000" font-size="13.0000" ><![CDATA[S]]></text>
</g>
<g transform="matrix(1.0000 0.0000 0.0000 1.0000 60.7301 206.2677)">
<text font-family="Arial" fill="#000000" style ="white-space:pre;" font-weight="400" text-anchor="start" x="0.0000" y="0.0000" font-size="9.0000" ><![CDATA[6]]></text>
</g>
<g transform="matrix(0.0625 0.0000 0.0000 0.0625 0.0000 0.0000)">
<path d="M 24.0000,2897.0000 L 24.0000,3502.0000 L 629.0000,3502.0000 L 629.0000,2897.0000 L 24.0000,2897.0000 Z" stroke-width="1px" stroke="#FFFFFF"  fill="#FFFFFF" />
</g>
<g transform="matrix(1.0000 0.0000 0.0000 1.0000 0.0000 0.0000)">
</g>
<g transform="matrix(0.0625 0.0000 0.0000 0.0625 0.0000 0.0000)">
<path d="M 24.0000,3502.0000 L 629.0000,3502.0000 L 629.0000,2897.0000 L 24.0000,2897.0000 L 24.0000,3502.0000 Z" stroke="#000000" stroke-width="16.0000"  stroke-linecap="round"  stroke-linejoin="round" fill="none" />
</g>
<g transform="matrix(1.0000 0.0000 0.0000 1.0000 0.0000 0.0000)">
</g>
<g transform="matrix(1.0000 0.0000 0.0000 1.0000 14.0414 204.4253)">
<text font-family="Arial" fill="#000000" style ="white-space:pre;" font-weight="400" text-anchor="start" x="0.0000" y="0.0000" font-size="13.0000" ><![CDATA[S]]></text>
</g>
<g transform="matrix(1.0000 0.0000 0.0000 1.0000 22.9348 206.2677)">
<text font-family="Arial" fill="#000000" style ="white-space:pre;" font-weight="400" text-anchor="start" x="0.0000" y="0.0000" font-size="9.0000" ><![CDATA[7]]></text>
</g>
<g transform="matrix(0.0625 0.0000 0.0000 0.0625 0.0000 0.0000)">
<path d="M 4258.0000,3502.0000 L 4258.0000,4106.0000 L 4862.0000,4106.0000 L 4862.0000,3502.0000 L 4258.0000,3502.0000 Z" stroke-width="1px" stroke="#FFFFFF"  fill="#FFFFFF" />
</g>
<g transform="matrix(1.0000 0.0000 0.0000 1.0000 0.0000 0.0000)">
<defs><clipPath id="clip-719885386"><path d="M 0.0000,0.0000 L 306.0000,0.0000 L 306.0000,448.0000 L 0.0000,448.0000 L 0.0000,0.0000 Z Z" /></clipPath></defs>
</g>
<g transform="matrix(0.0625 0.0000 0.0000 0.0625 0.0000 0.0000)">
<path  clip-path="url(#clip-719885386)" d="M 4258.0000,4106.0000 L 4862.0000,4106.0000 L 4862.0000,3502.0000 L 4258.0000,3502.0000 L 4258.0000,4106.0000 Z" stroke="#000000" stroke-width="16.0000"  stroke-linecap="round"  stroke-linejoin="round" fill="none" />
</g>
<g transform="matrix(1.0000 0.0000 0.0000 1.0000 0.0000 0.0000)">
</g>
<g transform="matrix(1.0000 0.0000 0.0000 1.0000 278.6083 242.2205)">
<text font-family="Arial" fill="#000000" style ="white-space:pre;" font-weight="400" text-anchor="start" x="0.0000" y="0.0000" font-size="13.0000" ><![CDATA[S]]></text>
</g>
<g transform="matrix(1.0000 0.0000 0.0000 1.0000 287.5017 244.0629)">
<text font-family="Arial" fill="#000000" style ="white-space:pre;" font-weight="400" text-anchor="start" x="0.0000" y="0.0000" font-size="9.0000" ><![CDATA[8]]></text>
</g>
<g transform="matrix(0.0625 0.0000 0.0000 0.0625 0.0000 0.0000)">
<path d="M 3653.0000,3502.0000 L 3653.0000,4106.0000 L 4258.0000,4106.0000 L 4258.0000,3502.0000 L 3653.0000,3502.0000 Z" stroke-width="1px" stroke="#FFFFFF"  fill="#FFFFFF" />
</g>
<g transform="matrix(1.0000 0.0000 0.0000 1.0000 0.0000 0.0000)">
</g>
<g transform="matrix(0.0625 0.0000 0.0000 0.0625 0.0000 0.0000)">
<path d="M 3653.0000,4106.0000 L 4258.0000,4106.0000 L 4258.0000,3502.0000 L 3653.0000,3502.0000 L 3653.0000,4106.0000 Z" stroke="#000000" stroke-width="16.0000"  stroke-linecap="round"  stroke-linejoin="round" fill="none" />
</g>
<g transform="matrix(1.0000 0.0000 0.0000 1.0000 0.0000 0.0000)">
</g>
<g transform="matrix(1.0000 0.0000 0.0000 1.0000 240.8130 242.2205)">
<text font-family="Arial" fill="#000000" style ="white-space:pre;" font-weight="400" text-anchor="start" x="0.0000" y="0.0000" font-size="13.0000" ><![CDATA[S]]></text>
</g>
<g transform="matrix(1.0000 0.0000 0.0000 1.0000 249.7065 244.0629)">
<text font-family="Arial" fill="#000000" style ="white-space:pre;" font-weight="400" text-anchor="start" x="0.0000" y="0.0000" font-size="9.0000" ><![CDATA[9]]></text>
</g>
<g transform="matrix(0.0625 0.0000 0.0000 0.0625 0.0000 0.0000)">
<path d="M 3048.0000,3502.0000 L 3048.0000,4106.0000 L 3653.0000,4106.0000 L 3653.0000,3502.0000 L 3048.0000,3502.0000 Z" stroke-width="1px" stroke="#FFFFFF"  fill="#FFFFFF" />
</g>
<g transform="matrix(1.0000 0.0000 0.0000 1.0000 0.0000 0.0000)">
</g>
<g transform="matrix(0.0625 0.0000 0.0000 0.0625 0.0000 0.0000)">
<path d="M 3048.0000,4106.0000 L 3653.0000,4106.0000 L 3653.0000,3502.0000 L 3048.0000,3502.0000 L 3048.0000,4106.0000 Z" stroke="#000000" stroke-width="16.0000"  stroke-linecap="round"  stroke-linejoin="round" fill="none" />
</g>
<g transform="matrix(1.0000 0.0000 0.0000 1.0000 0.0000 0.0000)">
</g>
<g transform="matrix(1.0000 0.0000 0.0000 1.0000 200.6081 242.2205)">
<text font-family="Arial" fill="#000000" style ="white-space:pre;" font-weight="400" text-anchor="start" x="0.0000" y="0.0000" font-size="13.0000" ><![CDATA[S]]></text>
</g>
<g transform="matrix(1.0000 0.0000 0.0000 1.0000 209.5015 244.0629)">
<text font-family="Arial" fill="#000000" style ="white-space:pre;" font-weight="400" text-anchor="start" x="0.0000" y="0.0000" font-size="9.0000" ><![CDATA[10]]></text>
</g>
<g transform="matrix(0.0625 0.0000 0.0000 0.0625 0.0000 0.0000)">
<path d="M 2443.0000,3502.0000 L 2443.0000,4106.0000 L 3048.0000,4106.0000 L 3048.0000,3502.0000 L 2443.0000,3502.0000 Z" stroke-width="1px" stroke="#FFFFFF"  fill="#FFFFFF" />
</g>
<g transform="matrix(1.0000 0.0000 0.0000 1.0000 0.0000 0.0000)">
</g>
<g transform="matrix(0.0625 0.0000 0.0000 0.0625 0.0000 0.0000)">
<path d="M 2443.0000,4106.0000 L 3048.0000,4106.0000 L 3048.0000,3502.0000 L 2443.0000,3502.0000 L 2443.0000,4106.0000 Z" stroke="#000000" stroke-width="16.0000"  stroke-linecap="round"  stroke-linejoin="round" fill="none" />
</g>
<g transform="matrix(1.0000 0.0000 0.0000 1.0000 0.0000 0.0000)">
</g>
<g transform="matrix(1.0000 0.0000 0.0000 1.0000 162.8128 242.2205)">
<text font-family="Arial" fill="#000000" style ="white-space:pre;" font-weight="400" text-anchor="start" x="0.0000" y="0.0000" font-size="13.0000" ><![CDATA[S]]></text>
</g>
<g transform="matrix(1.0000 0.0000 0.0000 1.0000 171.7063 244.0629)">
<text font-family="Arial" fill="#000000" style ="white-space:pre;" font-weight="400" text-anchor="start" x="0.0000" y="0.0000" font-size="9.0000" ><![CDATA[11]]></text>
</g>
<g transform="matrix(0.0625 0.0000 0.0000 0.0625 0.0000 0.0000)">
<path d="M 1839.0000,3502.0000 L 1839.0000,4106.0000 L 2443.0000,4106.0000 L 2443.0000,3502.0000 L 1839.0000,3502.0000 Z" stroke-width="1px" stroke="#FFFFFF"  fill="#FFFFFF" />
</g>
<g transform="matrix(1.0000 0.0000 0.0000 1.0000 0.0000 0.0000)">
</g>
<g transform="matrix(0.0625 0.0000 0.0000 0.0625 0.0000 0.0000)">
<path d="M 1839.0000,4106.0000 L 2443.0000,4106.0000 L 2443.0000,3502.0000 L 1839.0000,3502.0000 L 1839.0000,4106.0000 Z" stroke="#000000" stroke-width="16.0000"  stroke-linecap="round"  stroke-linejoin="round" fill="none" />
</g>
<g transform="matrix(1.0000 0.0000 0.0000 1.0000 0.0000 0.0000)">
</g>
<g transform="matrix(1.0000 0.0000 0.0000 1.0000 125.0175 242.2205)">
<text font-family="Arial" fill="#000000" style ="white-space:pre;" font-weight="400" text-anchor="start" x="0.0000" y="0.0000" font-size="13.0000" ><![CDATA[S]]></text>
</g>
<g transform="matrix(1.0000 0.0000 0.0000 1.0000 133.9110 244.0629)">
<text font-family="Arial" fill="#000000" style ="white-space:pre;" font-weight="400" text-anchor="start" x="0.0000" y="0.0000" font-size="9.0000" ><![CDATA[12]]></text>
</g>
<g transform="matrix(0.0625 0.0000 0.0000 0.0625 0.0000 0.0000)">
<path d="M 1234.0000,3502.0000 L 1234.0000,4106.0000 L 1839.0000,4106.0000 L 1839.0000,3502.0000 L 1234.0000,3502.0000 Z" stroke-width="1px" stroke="#FFFFFF"  fill="#FFFFFF" />
</g>
<g transform="matrix(1.0000 0.0000 0.0000 1.0000 0.0000 0.0000)">
</g>
<g transform="matrix(0.0625 0.0000 0.0000 0.0625 0.0000 0.0000)">
<path d="M 1234.0000,4106.0000 L 1839.0000,4106.0000 L 1839.0000,3502.0000 L 1234.0000,3502.0000 L 1234.0000,4106.0000 Z" stroke="#000000" stroke-width="16.0000"  stroke-linecap="round"  stroke-linejoin="round" fill="none" />
</g>
<g transform="matrix(1.0000 0.0000 0.0000 1.0000 0.0000 0.0000)">
</g>
<g transform="matrix(1.0000 0.0000 0.0000 1.0000 87.2223 242.2205)">
<text font-family="Arial" fill="#000000" style ="white-space:pre;" font-weight="400" text-anchor="start" x="0.0000" y="0.0000" font-size="13.0000" ><![CDATA[S]]></text>
</g>
<g transform="matrix(1.0000 0.0000 0.0000 1.0000 96.1157 244.0629)">
<text font-family="Arial" fill="#000000" style ="white-space:pre;" font-weight="400" text-anchor="start" x="0.0000" y="0.0000" font-size="9.0000" ><![CDATA[13]]></text>
</g>
<g transform="matrix(0.0625 0.0000 0.0000 0.0625 0.0000 0.0000)">
<path d="M 629.0000,3502.0000 L 629.0000,4106.0000 L 1234.0000,4106.0000 L 1234.0000,3502.0000 L 629.0000,3502.0000 Z" stroke-width="1px" stroke="#FFFFFF"  fill="#FFFFFF" />
</g>
<g transform="matrix(1.0000 0.0000 0.0000 1.0000 0.0000 0.0000)">
</g>
<g transform="matrix(0.0625 0.0000 0.0000 0.0625 0.0000 0.0000)">
<path d="M 629.0000,4106.0000 L 1234.0000,4106.0000 L 1234.0000,3502.0000 L 629.0000,3502.0000 L 629.0000,4106.0000 Z" stroke="#000000" stroke-width="16.0000"  stroke-linecap="round"  stroke-linejoin="round" fill="none" />
</g>
<g transform="matrix(1.0000 0.0000 0.0000 1.0000 0.0000 0.0000)">
</g>
<g transform="matrix(1.0000 0.0000 0.0000 1.0000 49.4270 242.2205)">
<text font-family="Arial" fill="#000000" style ="white-space:pre;" font-weight="400" text-anchor="start" x="0.0000" y="0.0000" font-size="13.0000" ><![CDATA[S]]></text>
</g>
<g transform="matrix(1.0000 0.0000 0.0000 1.0000 58.3204 244.0629)">
<text font-family="Arial" fill="#000000" style ="white-space:pre;" font-weight="400" text-anchor="start" x="0.0000" y="0.0000" font-size="9.0000" ><![CDATA[14]]></text>
</g>
<g transform="matrix(0.0625 0.0000 0.0000 0.0625 0.0000 0.0000)">
<path d="M 24.0000,3502.0000 L 24.0000,4106.0000 L 629.0000,4106.0000 L 629.0000,3502.0000 L 24.0000,3502.0000 Z" stroke-width="1px" stroke="#FFFFFF"  fill="#FFFFFF" />
</g>
<g transform="matrix(1.0000 0.0000 0.0000 1.0000 0.0000 0.0000)">
</g>
<g transform="matrix(0.0625 0.0000 0.0000 0.0625 0.0000 0.0000)">
<path d="M 24.0000,4106.0000 L 629.0000,4106.0000 L 629.0000,3502.0000 L 24.0000,3502.0000 L 24.0000,4106.0000 Z" stroke="#000000" stroke-width="16.0000"  stroke-linecap="round"  stroke-linejoin="round" fill="none" />
</g>
<g transform="matrix(1.0000 0.0000 0.0000 1.0000 0.0000 0.0000)">
</g>
<g transform="matrix(1.0000 0.0000 0.0000 1.0000 11.6317 242.2205)">
<text font-family="Arial" fill="#000000" style ="white-space:pre;" font-weight="400" text-anchor="start" x="0.0000" y="0.0000" font-size="13.0000" ><![CDATA[S]]></text>
</g>
<g transform="matrix(1.0000 0.0000 0.0000 1.0000 20.5251 244.0629)">
<text font-family="Arial" fill="#000000" style ="white-space:pre;" font-weight="400" text-anchor="start" x="0.0000" y="0.0000" font-size="9.0000" ><![CDATA[15]]></text>
</g>
<g transform="matrix(0.0625 0.0000 0.0000 0.0625 0.0000 0.0000)">
<path d="M 4258.0000,4106.0000 L 4258.0000,4711.0000 L 4862.0000,4711.0000 L 4862.0000,4106.0000 L 4258.0000,4106.0000 Z" stroke-width="1px" stroke="#FFFFFF"  fill="#FFFFFF" />
</g>
<g transform="matrix(1.0000 0.0000 0.0000 1.0000 0.0000 0.0000)">
<defs><clipPath id="clip-1649760492"><path d="M 0.0000,0.0000 L 306.0000,0.0000 L 306.0000,448.0000 L 0.0000,448.0000 L 0.0000,0.0000 Z Z" /></clipPath></defs>
</g>
<g transform="matrix(0.0625 0.0000 0.0000 0.0625 0.0000 0.0000)">
<path  clip-path="url(#clip-1649760492)" d="M 4258.0000,4711.0000 L 4862.0000,4711.0000 L 4862.0000,4106.0000 L 4258.0000,4106.0000 L 4258.0000,4711.0000 Z" stroke="#000000" stroke-width="16.0000"  stroke-linecap="round"  stroke-linejoin="round" fill="none" />
</g>
<g transform="matrix(1.0000 0.0000 0.0000 1.0000 0.0000 0.0000)">
</g>
<g transform="matrix(1.0000 0.0000 0.0000 1.0000 276.1986 280.0158)">
<text font-family="Arial" fill="#000000" style ="white-space:pre;" font-weight="400" text-anchor="start" x="0.0000" y="0.0000" font-size="13.0000" ><![CDATA[S]]></text>
</g>
<g transform="matrix(1.0000 0.0000 0.0000 1.0000 285.0921 281.8582)">
<text font-family="Arial" fill="#000000" style ="white-space:pre;" font-weight="400" text-anchor="start" x="0.0000" y="0.0000" font-size="9.0000" ><![CDATA[16]]></text>
</g>
<g transform="matrix(0.0625 0.0000 0.0000 0.0625 0.0000 0.0000)">
<path d="M 3653.0000,4106.0000 L 3653.0000,4711.0000 L 4258.0000,4711.0000 L 4258.0000,4106.0000 L 3653.0000,4106.0000 Z" stroke-width="1px" stroke="#FFFFFF"  fill="#FFFFFF" />
</g>
<g transform="matrix(1.0000 0.0000 0.0000 1.0000 0.0000 0.0000)">
</g>
<g transform="matrix(0.0625 0.0000 0.0000 0.0625 0.0000 0.0000)">
<path d="M 3653.0000,4711.0000 L 4258.0000,4711.0000 L 4258.0000,4106.0000 L 3653.0000,4106.0000 L 3653.0000,4711.0000 Z" stroke="#000000" stroke-width="16.0000"  stroke-linecap="round"  stroke-linejoin="round" fill="none" />
</g>
<g transform="matrix(1.0000 0.0000 0.0000 1.0000 0.0000 0.0000)">
</g>
<g transform="matrix(1.0000 0.0000 0.0000 1.0000 238.4034 280.0158)">
<text font-family="Arial" fill="#000000" style ="white-space:pre;" font-weight="400" text-anchor="start" x="0.0000" y="0.0000" font-size="13.0000" ><![CDATA[S]]></text>
</g>
<g transform="matrix(1.0000 0.0000 0.0000 1.0000 247.2968 281.8582)">
<text font-family="Arial" fill="#000000" style ="white-space:pre;" font-weight="400" text-anchor="start" x="0.0000" y="0.0000" font-size="9.0000" ><![CDATA[1]]></text>
</g>
<g transform="matrix(1.0000 0.0000 0.0000 1.0000 252.1161 281.8582)">
<text font-family="Arial" fill="#000000" style ="white-space:pre;" font-weight="400" text-anchor="start" x="0.0000" y="0.0000" font-size="9.0000" ><![CDATA[7]]></text>
</g>
<g transform="matrix(0.0625 0.0000 0.0000 0.0625 0.0000 0.0000)">
<path d="M 3048.0000,4106.0000 L 3048.0000,4711.0000 L 3653.0000,4711.0000 L 3653.0000,4106.0000 L 3048.0000,4106.0000 Z" stroke-width="1px" stroke="#FFFFFF"  fill="#FFFFFF" />
</g>
<g transform="matrix(1.0000 0.0000 0.0000 1.0000 0.0000 0.0000)">
</g>
<g transform="matrix(0.0625 0.0000 0.0000 0.0625 0.0000 0.0000)">
<path d="M 3048.0000,4711.0000 L 3653.0000,4711.0000 L 3653.0000,4106.0000 L 3048.0000,4106.0000 L 3048.0000,4711.0000 Z" stroke="#000000" stroke-width="16.0000"  stroke-linecap="round"  stroke-linejoin="round" fill="none" />
</g>
<g transform="matrix(1.0000 0.0000 0.0000 1.0000 0.0000 0.0000)">
</g>
<g transform="matrix(1.0000 0.0000 0.0000 1.0000 200.6081 280.0158)">
<text font-family="Arial" fill="#000000" style ="white-space:pre;" font-weight="400" text-anchor="start" x="0.0000" y="0.0000" font-size="13.0000" ><![CDATA[S]]></text>
</g>
<g transform="matrix(1.0000 0.0000 0.0000 1.0000 209.5015 281.8582)">
<text font-family="Arial" fill="#000000" style ="white-space:pre;" font-weight="400" text-anchor="start" x="0.0000" y="0.0000" font-size="9.0000" ><![CDATA[18]]></text>
</g>
<g transform="matrix(0.0625 0.0000 0.0000 0.0625 0.0000 0.0000)">
<path d="M 2443.0000,4106.0000 L 2443.0000,4711.0000 L 3048.0000,4711.0000 L 3048.0000,4106.0000 L 2443.0000,4106.0000 Z" stroke-width="1px" stroke="#FFFFFF"  fill="#FFFFFF" />
</g>
<g transform="matrix(1.0000 0.0000 0.0000 1.0000 0.0000 0.0000)">
</g>
<g transform="matrix(0.0625 0.0000 0.0000 0.0625 0.0000 0.0000)">
<path d="M 3048.0000,4711.0000 L 2443.0000,4711.0000 L 2443.0000,4106.0000 L 3048.0000,4106.0000 L 3048.0000,4711.0000 Z" stroke="#000000" stroke-width="16.0000"  stroke-linecap="round"  stroke-linejoin="round" fill="none" />
</g>
<g transform="matrix(1.0000 0.0000 0.0000 1.0000 0.0000 0.0000)">
</g>
<g transform="matrix(1.0000 0.0000 0.0000 1.0000 162.8128 280.0158)">
<text font-family="Arial" fill="#000000" style ="white-space:pre;" font-weight="400" text-anchor="start" x="0.0000" y="0.0000" font-size="13.0000" ><![CDATA[S]]></text>
</g>
<g transform="matrix(1.0000 0.0000 0.0000 1.0000 171.7063 281.8582)">
<text font-family="Arial" fill="#000000" style ="white-space:pre;" font-weight="400" text-anchor="start" x="0.0000" y="0.0000" font-size="9.0000" ><![CDATA[19]]></text>
</g>
<g transform="matrix(0.0625 0.0000 0.0000 0.0625 0.0000 0.0000)">
<path d="M 1839.0000,4106.0000 L 1839.0000,4711.0000 L 2443.0000,4711.0000 L 2443.0000,4106.0000 L 1839.0000,4106.0000 Z" stroke-width="1px" stroke="#FFFFFF"  fill="#FFFFFF" />
</g>
<g transform="matrix(1.0000 0.0000 0.0000 1.0000 0.0000 0.0000)">
</g>
<g transform="matrix(0.0625 0.0000 0.0000 0.0625 0.0000 0.0000)">
<path d="M 1839.0000,4711.0000 L 2443.0000,4711.0000 L 2443.0000,4106.0000 L 1839.0000,4106.0000 L 1839.0000,4711.0000 Z" stroke="#000000" stroke-width="16.0000"  stroke-linecap="round"  stroke-linejoin="round" fill="none" />
</g>
<g transform="matrix(1.0000 0.0000 0.0000 1.0000 0.0000 0.0000)">
</g>
<g transform="matrix(1.0000 0.0000 0.0000 1.0000 125.0175 280.0158)">
<text font-family="Arial" fill="#000000" style ="white-space:pre;" font-weight="400" text-anchor="start" x="0.0000" y="0.0000" font-size="13.0000" ><![CDATA[S]]></text>
</g>
<g transform="matrix(1.0000 0.0000 0.0000 1.0000 133.9110 281.8582)">
<text font-family="Arial" fill="#000000" style ="white-space:pre;" font-weight="400" text-anchor="start" x="0.0000" y="0.0000" font-size="9.0000" ><![CDATA[20]]></text>
</g>
<g transform="matrix(0.0625 0.0000 0.0000 0.0625 0.0000 0.0000)">
<path d="M 1234.0000,4106.0000 L 1234.0000,4711.0000 L 1839.0000,4711.0000 L 1839.0000,4106.0000 L 1234.0000,4106.0000 Z" stroke-width="1px" stroke="#FFFFFF"  fill="#FFFFFF" />
</g>
<g transform="matrix(1.0000 0.0000 0.0000 1.0000 0.0000 0.0000)">
</g>
<g transform="matrix(0.0625 0.0000 0.0000 0.0625 0.0000 0.0000)">
<path d="M 1234.0000,4711.0000 L 1839.0000,4711.0000 L 1839.0000,4106.0000 L 1234.0000,4106.0000 L 1234.0000,4711.0000 Z" stroke="#000000" stroke-width="16.0000"  stroke-linecap="round"  stroke-linejoin="round" fill="none" />
</g>
<g transform="matrix(1.0000 0.0000 0.0000 1.0000 0.0000 0.0000)">
</g>
<g transform="matrix(1.0000 0.0000 0.0000 1.0000 87.2223 280.0158)">
<text font-family="Arial" fill="#000000" style ="white-space:pre;" font-weight="400" text-anchor="start" x="0.0000" y="0.0000" font-size="13.0000" ><![CDATA[S]]></text>
</g>
<g transform="matrix(1.0000 0.0000 0.0000 1.0000 96.1157 281.8582)">
<text font-family="Arial" fill="#000000" style ="white-space:pre;" font-weight="400" text-anchor="start" x="0.0000" y="0.0000" font-size="9.0000" ><![CDATA[21]]></text>
</g>
<g transform="matrix(0.0625 0.0000 0.0000 0.0625 0.0000 0.0000)">
<path d="M 629.0000,4106.0000 L 629.0000,4711.0000 L 1234.0000,4711.0000 L 1234.0000,4106.0000 L 629.0000,4106.0000 Z" stroke-width="1px" stroke="#FFFFFF"  fill="#FFFFFF" />
</g>
<g transform="matrix(1.0000 0.0000 0.0000 1.0000 0.0000 0.0000)">
</g>
<g transform="matrix(0.0625 0.0000 0.0000 0.0625 0.0000 0.0000)">
<path d="M 629.0000,4711.0000 L 1234.0000,4711.0000 L 1234.0000,4106.0000 L 629.0000,4106.0000 L 629.0000,4711.0000 Z" stroke="#000000" stroke-width="16.0000"  stroke-linecap="round"  stroke-linejoin="round" fill="none" />
</g>
<g transform="matrix(1.0000 0.0000 0.0000 1.0000 0.0000 0.0000)">
</g>
<g transform="matrix(1.0000 0.0000 0.0000 1.0000 49.4270 280.0158)">
<text font-family="Arial" fill="#000000" style ="white-space:pre;" font-weight="400" text-anchor="start" x="0.0000" y="0.0000" font-size="13.0000" ><![CDATA[S]]></text>
</g>
<g transform="matrix(1.0000 0.0000 0.0000 1.0000 58.3204 281.8582)">
<text font-family="Arial" fill="#000000" style ="white-space:pre;" font-weight="400" text-anchor="start" x="0.0000" y="0.0000" font-size="9.0000" ><![CDATA[22]]></text>
</g>
<g transform="matrix(0.0625 0.0000 0.0000 0.0625 0.0000 0.0000)">
<path d="M 24.0000,4106.0000 L 24.0000,4711.0000 L 629.0000,4711.0000 L 629.0000,4106.0000 L 24.0000,4106.0000 Z" stroke-width="1px" stroke="#FFFFFF"  fill="#FFFFFF" />
</g>
<g transform="matrix(1.0000 0.0000 0.0000 1.0000 0.0000 0.0000)">
</g>
<g transform="matrix(0.0625 0.0000 0.0000 0.0625 0.0000 0.0000)">
<path d="M 24.0000,4711.0000 L 629.0000,4711.0000 L 629.0000,4106.0000 L 24.0000,4106.0000 L 24.0000,4711.0000 Z" stroke="#000000" stroke-width="16.0000"  stroke-linecap="round"  stroke-linejoin="round" fill="none" />
</g>
<g transform="matrix(1.0000 0.0000 0.0000 1.0000 0.0000 0.0000)">
</g>
<g transform="matrix(1.0000 0.0000 0.0000 1.0000 11.6317 280.0158)">
<text font-family="Arial" fill="#000000" style ="white-space:pre;" font-weight="400" text-anchor="start" x="0.0000" y="0.0000" font-size="13.0000" ><![CDATA[S]]></text>
</g>
<g transform="matrix(1.0000 0.0000 0.0000 1.0000 20.5251 281.8582)">
<text font-family="Arial" fill="#000000" style ="white-space:pre;" font-weight="400" text-anchor="start" x="0.0000" y="0.0000" font-size="9.0000" ><![CDATA[23]]></text>
</g>
<g transform="matrix(0.0625 0.0000 0.0000 0.0625 0.0000 0.0000)">
<path d="M 4258.0000,4711.0000 L 4258.0000,5316.0000 L 4862.0000,5316.0000 L 4862.0000,4711.0000 L 4258.0000,4711.0000 Z" stroke-width="1px" stroke="#FFFFFF"  fill="#FFFFFF" />
</g>
<g transform="matrix(1.0000 0.0000 0.0000 1.0000 0.0000 0.0000)">
<defs><clipPath id="clip-596516649"><path d="M 0.0000,0.0000 L 306.0000,0.0000 L 306.0000,448.0000 L 0.0000,448.0000 L 0.0000,0.0000 Z Z" /></clipPath></defs>
</g>
<g transform="matrix(0.0625 0.0000 0.0000 0.0625 0.0000 0.0000)">
<path  clip-path="url(#clip-596516649)" d="M 4258.0000,5316.0000 L 4862.0000,5316.0000 L 4862.0000,4711.0000 L 4258.0000,4711.0000 L 4258.0000,5316.0000 Z" stroke="#000000" stroke-width="16.0000"  stroke-linecap="round"  stroke-linejoin="round" fill="none" />
</g>
<g transform="matrix(1.0000 0.0000 0.0000 1.0000 0.0000 0.0000)">
</g>
<g transform="matrix(1.0000 0.0000 0.0000 1.0000 276.1986 317.8111)">
<text font-family="Arial" fill="#000000" style ="white-space:pre;" font-weight="400" text-anchor="start" x="0.0000" y="0.0000" font-size="13.0000" ><![CDATA[S]]></text>
</g>
<g transform="matrix(1.0000 0.0000 0.0000 1.0000 285.0921 319.6535)">
<text font-family="Arial" fill="#000000" style ="white-space:pre;" font-weight="400" text-anchor="start" x="0.0000" y="0.0000" font-size="9.0000" ><![CDATA[24]]></text>
</g>
<g transform="matrix(0.0625 0.0000 0.0000 0.0625 0.0000 0.0000)">
<path d="M 3653.0000,4711.0000 L 3653.0000,5316.0000 L 4258.0000,5316.0000 L 4258.0000,4711.0000 L 3653.0000,4711.0000 Z" stroke-width="1px" stroke="#FFFFFF"  fill="#FFFFFF" />
</g>
<g transform="matrix(1.0000 0.0000 0.0000 1.0000 0.0000 0.0000)">
</g>
<g transform="matrix(0.0625 0.0000 0.0000 0.0625 0.0000 0.0000)">
<path d="M 3653.0000,5316.0000 L 4258.0000,5316.0000 L 4258.0000,4711.0000 L 3653.0000,4711.0000 L 3653.0000,5316.0000 Z" stroke="#000000" stroke-width="16.0000"  stroke-linecap="round"  stroke-linejoin="round" fill="none" />
</g>
<g transform="matrix(1.0000 0.0000 0.0000 1.0000 0.0000 0.0000)">
</g>
<g transform="matrix(1.0000 0.0000 0.0000 1.0000 238.4034 317.8111)">
<text font-family="Arial" fill="#000000" style ="white-space:pre;" font-weight="400" text-anchor="start" x="0.0000" y="0.0000" font-size="13.0000" ><![CDATA[S]]></text>
</g>
<g transform="matrix(1.0000 0.0000 0.0000 1.0000 247.2968 319.6535)">
<text font-family="Arial" fill="#000000" style ="white-space:pre;" font-weight="400" text-anchor="start" x="0.0000" y="0.0000" font-size="9.0000" ><![CDATA[25]]></text>
</g>
<g transform="matrix(0.0625 0.0000 0.0000 0.0625 0.0000 0.0000)">
<path d="M 3048.0000,4711.0000 L 3048.0000,5316.0000 L 3653.0000,5316.0000 L 3653.0000,4711.0000 L 3048.0000,4711.0000 Z" stroke-width="1px" stroke="#FFFFFF"  fill="#FFFFFF" />
</g>
<g transform="matrix(1.0000 0.0000 0.0000 1.0000 0.0000 0.0000)">
</g>
<g transform="matrix(0.0625 0.0000 0.0000 0.0625 0.0000 0.0000)">
<path d="M 3048.0000,5316.0000 L 3653.0000,5316.0000 L 3653.0000,4711.0000 L 3048.0000,4711.0000 L 3048.0000,5316.0000 Z" stroke="#000000" stroke-width="16.0000"  stroke-linecap="round"  stroke-linejoin="round" fill="none" />
</g>
<g transform="matrix(1.0000 0.0000 0.0000 1.0000 0.0000 0.0000)">
</g>
<g transform="matrix(1.0000 0.0000 0.0000 1.0000 200.6081 317.8111)">
<text font-family="Arial" fill="#000000" style ="white-space:pre;" font-weight="400" text-anchor="start" x="0.0000" y="0.0000" font-size="13.0000" ><![CDATA[S]]></text>
</g>
<g transform="matrix(1.0000 0.0000 0.0000 1.0000 209.5015 319.6535)">
<text font-family="Arial" fill="#000000" style ="white-space:pre;" font-weight="400" text-anchor="start" x="0.0000" y="0.0000" font-size="9.0000" ><![CDATA[2]]></text>
</g>
<g transform="matrix(1.0000 0.0000 0.0000 1.0000 214.3209 319.6535)">
<text font-family="Arial" fill="#000000" style ="white-space:pre;" font-weight="400" text-anchor="start" x="0.0000" y="0.0000" font-size="9.0000" ><![CDATA[6]]></text>
</g>
<g transform="matrix(0.0625 0.0000 0.0000 0.0625 0.0000 0.0000)">
<path d="M 2443.0000,4711.0000 L 2443.0000,5316.0000 L 3048.0000,5316.0000 L 3048.0000,4711.0000 L 2443.0000,4711.0000 Z" stroke-width="1px" stroke="#FFFFFF"  fill="#FFFFFF" />
</g>
<g transform="matrix(1.0000 0.0000 0.0000 1.0000 0.0000 0.0000)">
</g>
<g transform="matrix(0.0625 0.0000 0.0000 0.0625 0.0000 0.0000)">
<path d="M 2443.0000,5316.0000 L 3048.0000,5316.0000 L 3048.0000,4711.0000 L 2443.0000,4711.0000 L 2443.0000,5316.0000 Z" stroke="#000000" stroke-width="16.0000"  stroke-linecap="round"  stroke-linejoin="round" fill="none" />
</g>
<g transform="matrix(1.0000 0.0000 0.0000 1.0000 0.0000 0.0000)">
</g>
<g transform="matrix(1.0000 0.0000 0.0000 1.0000 162.8128 317.8111)">
<text font-family="Arial" fill="#000000" style ="white-space:pre;" font-weight="400" text-anchor="start" x="0.0000" y="0.0000" font-size="13.0000" ><![CDATA[S]]></text>
</g>
<g transform="matrix(1.0000 0.0000 0.0000 1.0000 171.7063 319.6535)">
<text font-family="Arial" fill="#000000" style ="white-space:pre;" font-weight="400" text-anchor="start" x="0.0000" y="0.0000" font-size="9.0000" ><![CDATA[27]]></text>
</g>
<g transform="matrix(0.0625 0.0000 0.0000 0.0625 0.0000 0.0000)">
<path d="M 1839.0000,4711.0000 L 1839.0000,5316.0000 L 2443.0000,5316.0000 L 2443.0000,4711.0000 L 1839.0000,4711.0000 Z" stroke-width="1px" stroke="#FFFFFF"  fill="#FFFFFF" />
</g>
<g transform="matrix(1.0000 0.0000 0.0000 1.0000 0.0000 0.0000)">
</g>
<g transform="matrix(0.0625 0.0000 0.0000 0.0625 0.0000 0.0000)">
<path d="M 1839.0000,5316.0000 L 2443.0000,5316.0000 L 2443.0000,4711.0000 L 1839.0000,4711.0000 L 1839.0000,5316.0000 Z" stroke="#000000" stroke-width="16.0000"  stroke-linecap="round"  stroke-linejoin="round" fill="none" />
</g>
<g transform="matrix(1.0000 0.0000 0.0000 1.0000 0.0000 0.0000)">
</g>
<g transform="matrix(1.0000 0.0000 0.0000 1.0000 125.0175 317.8111)">
<text font-family="Arial" fill="#000000" style ="white-space:pre;" font-weight="400" text-anchor="start" x="0.0000" y="0.0000" font-size="13.0000" ><![CDATA[S]]></text>
</g>
<g transform="matrix(1.0000 0.0000 0.0000 1.0000 133.9110 319.6535)">
<text font-family="Arial" fill="#000000" style ="white-space:pre;" font-weight="400" text-anchor="start" x="0.0000" y="0.0000" font-size="9.0000" ><![CDATA[28]]></text>
</g>
<g transform="matrix(0.0625 0.0000 0.0000 0.0625 0.0000 0.0000)">
<path d="M 1234.0000,4711.0000 L 1234.0000,5316.0000 L 1839.0000,5316.0000 L 1839.0000,4711.0000 L 1234.0000,4711.0000 Z" stroke-width="1px" stroke="#FFFFFF"  fill="#FFFFFF" />
</g>
<g transform="matrix(1.0000 0.0000 0.0000 1.0000 0.0000 0.0000)">
</g>
<g transform="matrix(0.0625 0.0000 0.0000 0.0625 0.0000 0.0000)">
<path d="M 1234.0000,5316.0000 L 1839.0000,5316.0000 L 1839.0000,4711.0000 L 1234.0000,4711.0000 L 1234.0000,5316.0000 Z" stroke="#000000" stroke-width="16.0000"  stroke-linecap="round"  stroke-linejoin="round" fill="none" />
</g>
<g transform="matrix(1.0000 0.0000 0.0000 1.0000 0.0000 0.0000)">
</g>
<g transform="matrix(1.0000 0.0000 0.0000 1.0000 87.2223 317.8111)">
<text font-family="Arial" fill="#000000" style ="white-space:pre;" font-weight="400" text-anchor="start" x="0.0000" y="0.0000" font-size="13.0000" ><![CDATA[S]]></text>
</g>
<g transform="matrix(1.0000 0.0000 0.0000 1.0000 96.1157 319.6535)">
<text font-family="Arial" fill="#000000" style ="white-space:pre;" font-weight="400" text-anchor="start" x="0.0000" y="0.0000" font-size="9.0000" ><![CDATA[29]]></text>
</g>
<g transform="matrix(0.0625 0.0000 0.0000 0.0625 0.0000 0.0000)">
<path d="M 629.0000,4711.0000 L 629.0000,5316.0000 L 1234.0000,5316.0000 L 1234.0000,4711.0000 L 629.0000,4711.0000 Z" stroke-width="1px" stroke="#FFFFFF"  fill="#FFFFFF" />
</g>
<g transform="matrix(1.0000 0.0000 0.0000 1.0000 0.0000 0.0000)">
</g>
<g transform="matrix(0.0625 0.0000 0.0000 0.0625 0.0000 0.0000)">
<path d="M 629.0000,5316.0000 L 1234.0000,5316.0000 L 1234.0000,4711.0000 L 629.0000,4711.0000 L 629.0000,5316.0000 Z" stroke="#000000" stroke-width="16.0000"  stroke-linecap="round"  stroke-linejoin="round" fill="none" />
</g>
<g transform="matrix(1.0000 0.0000 0.0000 1.0000 0.0000 0.0000)">
</g>
<g transform="matrix(1.0000 0.0000 0.0000 1.0000 49.4270 317.8111)">
<text font-family="Arial" fill="#000000" style ="white-space:pre;" font-weight="400" text-anchor="start" x="0.0000" y="0.0000" font-size="13.0000" ><![CDATA[S]]></text>
</g>
<g transform="matrix(1.0000 0.0000 0.0000 1.0000 58.3204 319.6535)">
<text font-family="Arial" fill="#000000" style ="white-space:pre;" font-weight="400" text-anchor="start" x="0.0000" y="0.0000" font-size="9.0000" ><![CDATA[30]]></text>
</g>
<g transform="matrix(0.0625 0.0000 0.0000 0.0625 0.0000 0.0000)">
<path d="M 24.0000,4711.0000 L 24.0000,5316.0000 L 629.0000,5316.0000 L 629.0000,4711.0000 L 24.0000,4711.0000 Z" stroke-width="1px" stroke="#FFFFFF"  fill="#FFFFFF" />
</g>
<g transform="matrix(1.0000 0.0000 0.0000 1.0000 0.0000 0.0000)">
</g>
<g transform="matrix(0.0625 0.0000 0.0000 0.0625 0.0000 0.0000)">
<path d="M 24.0000,5316.0000 L 629.0000,5316.0000 L 629.0000,4711.0000 L 24.0000,4711.0000 L 24.0000,5316.0000 Z" stroke="#000000" stroke-width="16.0000"  stroke-linecap="round"  stroke-linejoin="round" fill="none" />
</g>
<g transform="matrix(1.0000 0.0000 0.0000 1.0000 0.0000 0.0000)">
</g>
<g transform="matrix(1.0000 0.0000 0.0000 1.0000 11.6317 317.8111)">
<text font-family="Arial" fill="#000000" style ="white-space:pre;" font-weight="400" text-anchor="start" x="0.0000" y="0.0000" font-size="13.0000" ><![CDATA[S]]></text>
</g>
<g transform="matrix(1.0000 0.0000 0.0000 1.0000 20.5251 319.6535)">
<text font-family="Arial" fill="#000000" style ="white-space:pre;" font-weight="400" text-anchor="start" x="0.0000" y="0.0000" font-size="9.0000" ><![CDATA[31]]></text>
</g>
<g transform="matrix(0.0625 0.0000 0.0000 0.0625 0.0000 0.0000)">
<path d="M 24.0000,5316.0000 L 24.0000,5921.0000 L 629.0000,5921.0000 L 629.0000,5316.0000 L 24.0000,5316.0000 Z" stroke-width="1px" stroke="#FFFFFF"  fill="#FFFFFF" />
</g>
<g transform="matrix(1.0000 0.0000 0.0000 1.0000 0.0000 0.0000)">
</g>
<g transform="matrix(0.0625 0.0000 0.0000 0.0625 0.0000 0.0000)">
<path d="M 24.0000,5921.0000 L 629.0000,5921.0000 L 629.0000,5316.0000 L 24.0000,5316.0000 L 24.0000,5921.0000 Z" stroke="#000000" stroke-width="16.0000"  stroke-linecap="round"  stroke-linejoin="round" fill="none" />
</g>
<g transform="matrix(1.0000 0.0000 0.0000 1.0000 0.0000 0.0000)">
</g>
<g transform="matrix(1.0000 0.0000 0.0000 1.0000 11.6365 355.6064)">
<text font-family="Arial" fill="#000000" style ="white-space:pre;" font-weight="400" text-anchor="start" x="0.0000" y="0.0000" font-size="13.0000" ><![CDATA[AC]]></text>
</g>
<g transform="matrix(0.0625 0.0000 0.0000 0.0625 0.0000 0.0000)">
<path d="M 629.0000,5316.0000 L 629.0000,5921.0000 L 1234.0000,5921.0000 L 1234.0000,5316.0000 L 629.0000,5316.0000 Z" stroke-width="1px" stroke="#FFFFFF"  fill="#FFFFFF" />
</g>
<g transform="matrix(1.0000 0.0000 0.0000 1.0000 0.0000 0.0000)">
</g>
<g transform="matrix(0.0625 0.0000 0.0000 0.0625 0.0000 0.0000)">
<path d="M 629.0000,5921.0000 L 1234.0000,5921.0000 L 1234.0000,5316.0000 L 629.0000,5316.0000 L 629.0000,5921.0000 Z" stroke="#000000" stroke-width="16.0000"  stroke-linecap="round"  stroke-linejoin="round" fill="none" />
</g>
<g transform="matrix(1.0000 0.0000 0.0000 1.0000 0.0000 0.0000)">
</g>
<g transform="matrix(1.0000 0.0000 0.0000 1.0000 52.0264 355.6064)">
<text font-family="Arial" fill="#000000" style ="white-space:pre;" font-weight="400" text-anchor="start" x="0.0000" y="0.0000" font-size="13.0000" ><![CDATA[ID]]></text>
</g>
<g transform="matrix(0.0625 0.0000 0.0000 0.0625 0.0000 0.0000)">
<path d="M 1234.0000,5316.0000 L 1234.0000,5921.0000 L 4862.0000,5921.0000 L 4862.0000,5316.0000 L 1234.0000,5316.0000 Z" stroke-width="1px" stroke="#FFFFFF"  fill="#FFFFFF" />
</g>
<g transform="matrix(1.0000 0.0000 0.0000 1.0000 0.0000 0.0000)">
<defs><clipPath id="clip-1189641421"><path d="M 0.0000,0.0000 L 306.0000,0.0000 L 306.0000,448.0000 L 0.0000,448.0000 L 0.0000,0.0000 Z Z" /></clipPath></defs>
</g>
<g transform="matrix(0.0625 0.0000 0.0000 0.0625 0.0000 0.0000)">
<path  clip-path="url(#clip-1189641421)" d="M 1234.0000,5921.0000 L 4862.0000,5921.0000 L 4862.0000,5316.0000 L 1234.0000,5316.0000 L 1234.0000,5921.0000 Z" stroke="#000000" stroke-width="16.0000"  stroke-linecap="round"  stroke-linejoin="round" fill="none" />
</g>
<g transform="matrix(1.0000 0.0000 0.0000 1.0000 0.0000 0.0000)">
</g>
<g transform="matrix(1.0000 0.0000 0.0000 1.0000 114.2765 355.6064)">
<text font-family="Arial" fill="#000000" style ="white-space:pre;" font-weight="400" text-anchor="start" x="0.0000" y="0.0000" font-size="13.0000" ><![CDATA[Candidate RS ID or R bits]]></text>
</g>
<g transform="matrix(1.0000 0.0000 0.0000 1.0000 146.1132 395.0016)">
<text font-family="Calibri" fill="#000000" style ="white-space:pre;" font-weight="400" text-anchor="start" x="0.0000" y="0.0000" font-size="19.0000" ><![CDATA[...]]></text>
</g>
<g transform="matrix(0.0625 0.0000 0.0000 0.0625 0.0000 0.0000)">
<path d="M 24.0000,6525.0000 L 24.0000,7130.0000 L 629.0000,7130.0000 L 629.0000,6525.0000 L 24.0000,6525.0000 Z" stroke-width="1px" stroke="#FFFFFF"  fill="#FFFFFF" />
</g>
<g transform="matrix(1.0000 0.0000 0.0000 1.0000 0.0000 0.0000)">
<defs><clipPath id="clip-1025202362"><path d="M 0.0000,0.0000 L 306.0000,0.0000 L 306.0000,448.0000 L 0.0000,448.0000 L 0.0000,0.0000 Z Z" /></clipPath></defs>
</g>
<g transform="matrix(0.0625 0.0000 0.0000 0.0625 0.0000 0.0000)">
<path  clip-path="url(#clip-1025202362)" d="M 24.0000,7130.0000 L 629.0000,7130.0000 L 629.0000,6525.0000 L 24.0000,6525.0000 L 24.0000,7130.0000 Z" stroke="#000000" stroke-width="16.0000"  stroke-linecap="round"  stroke-linejoin="round" fill="none" />
</g>
<g transform="matrix(1.0000 0.0000 0.0000 1.0000 0.0000 0.0000)">
</g>
<g transform="matrix(1.0000 0.0000 0.0000 1.0000 11.6365 431.1969)">
<text font-family="Arial" fill="#000000" style ="white-space:pre;" font-weight="400" text-anchor="start" x="0.0000" y="0.0000" font-size="13.0000" ><![CDATA[AC]]></text>
</g>
<g transform="matrix(0.0625 0.0000 0.0000 0.0625 0.0000 0.0000)">
<path d="M 629.0000,6525.0000 L 629.0000,7130.0000 L 1234.0000,7130.0000 L 1234.0000,6525.0000 L 629.0000,6525.0000 Z" stroke-width="1px" stroke="#FFFFFF"  fill="#FFFFFF" />
</g>
<g transform="matrix(1.0000 0.0000 0.0000 1.0000 0.0000 0.0000)">
<defs><clipPath id="clip-1350490027"><path d="M 0.0000,0.0000 L 306.0000,0.0000 L 306.0000,448.0000 L 0.0000,448.0000 L 0.0000,0.0000 Z Z" /></clipPath></defs>
</g>
<g transform="matrix(0.0625 0.0000 0.0000 0.0625 0.0000 0.0000)">
<path  clip-path="url(#clip-1350490027)" d="M 629.0000,7130.0000 L 1234.0000,7130.0000 L 1234.0000,6525.0000 L 629.0000,6525.0000 L 629.0000,7130.0000 Z" stroke="#000000" stroke-width="16.0000"  stroke-linecap="round"  stroke-linejoin="round" fill="none" />
</g>
<g transform="matrix(1.0000 0.0000 0.0000 1.0000 0.0000 0.0000)">
</g>
<g transform="matrix(1.0000 0.0000 0.0000 1.0000 52.0264 431.1969)">
<text font-family="Arial" fill="#000000" style ="white-space:pre;" font-weight="400" text-anchor="start" x="0.0000" y="0.0000" font-size="13.0000" ><![CDATA[ID]]></text>
</g>
<g transform="matrix(0.0625 0.0000 0.0000 0.0625 0.0000 0.0000)">
<path d="M 1234.0000,6525.0000 L 1234.0000,7130.0000 L 4862.0000,7130.0000 L 4862.0000,6525.0000 L 1234.0000,6525.0000 Z" stroke-width="1px" stroke="#FFFFFF"  fill="#FFFFFF" />
</g>
<g transform="matrix(1.0000 0.0000 0.0000 1.0000 0.0000 0.0000)">
<defs><clipPath id="clip-783368690"><path d="M 0.0000,0.0000 L 306.0000,0.0000 L 306.0000,448.0000 L 0.0000,448.0000 L 0.0000,0.0000 Z Z" /></clipPath></defs>
</g>
<g transform="matrix(0.0625 0.0000 0.0000 0.0625 0.0000 0.0000)">
<path  clip-path="url(#clip-783368690)" d="M 1234.0000,7130.0000 L 4862.0000,7130.0000 L 4862.0000,6525.0000 L 1234.0000,6525.0000 L 1234.0000,7130.0000 Z" stroke="#000000" stroke-width="16.0000"  stroke-linecap="round"  stroke-linejoin="round" fill="none" />
</g>
<g transform="matrix(1.0000 0.0000 0.0000 1.0000 0.0000 0.0000)">
</g>
<g transform="matrix(1.0000 0.0000 0.0000 1.0000 114.2765 431.1969)">
<text font-family="Arial" fill="#000000" style ="white-space:pre;" font-weight="400" text-anchor="start" x="0.0000" y="0.0000" font-size="13.0000" ><![CDATA[Candidate RS ID or R bits]]></text>
</g>
<g transform="matrix(0.0625 0.0000 0.0000 0.0625 0.0000 0.0000)">
<path d="M 4258.0000,2897.0000 L 4258.0000,3502.0000 L 4862.0000,3502.0000 L 4862.0000,2897.0000 L 4258.0000,2897.0000 Z" stroke-width="1px" stroke="#FFFFFF"  fill="#FFFFFF" />
</g>
<g transform="matrix(1.0000 0.0000 0.0000 1.0000 0.0000 0.0000)">
<defs><clipPath id="clip-1102520059"><path d="M 0.0000,0.0000 L 306.0000,0.0000 L 306.0000,448.0000 L 0.0000,448.0000 L 0.0000,0.0000 Z Z" /></clipPath></defs>
</g>
<g transform="matrix(0.0625 0.0000 0.0000 0.0625 0.0000 0.0000)">
<path  clip-path="url(#clip-1102520059)" d="M 4258.0000,3502.0000 L 4862.0000,3502.0000 L 4862.0000,2897.0000 L 4258.0000,2897.0000 L 4258.0000,3502.0000 Z" stroke="#000000" stroke-width="16.0000"  stroke-linecap="round"  stroke-linejoin="round" fill="none" />
</g>
<g transform="matrix(1.0000 0.0000 0.0000 1.0000 0.0000 0.0000)">
</g>
<g transform="matrix(1.0000 0.0000 0.0000 1.0000 278.6083 204.4253)">
<text font-family="Arial" fill="#000000" style ="white-space:pre;" font-weight="400" text-anchor="start" x="0.0000" y="0.0000" font-size="13.0000" ><![CDATA[S]]></text>
</g>
<g transform="matrix(1.0000 0.0000 0.0000 1.0000 287.5017 206.2677)">
<text font-family="Arial" fill="#000000" style ="white-space:pre;" font-weight="400" text-anchor="start" x="0.0000" y="0.0000" font-size="9.0000" ><![CDATA[0]]></text>
</g>
</g>
</svg>
