<?xml version="1.0"  encoding="UTF-8" standalone="no"?>
<svg version="1.1" xmlns="http://www.w3.org/2000/svg" xmlns:xlink="http://www.w3.org/1999/xlink" width="777.0000" height="191.0000">
<g transform="translate(-0.0000, -0.0000)">
<g transform="matrix(0.0625 0.0000 0.0000 0.0625 0.0000 0.0000)">
<path d="M 19.0000,2438.0000 L 19.0000,3043.0000 L 1833.0000,3043.0000 L 1833.0000,2438.0000 L 19.0000,2438.0000 Z" stroke-width="1px" stroke="#FFFFFF"  fill="#FFFFFF" />
</g>
<g transform="matrix(1.0000 0.0000 0.0000 1.0000 0.0000 0.0000)">
<defs><clipPath id="clip-1804289383"><path d="M 0.0000,0.0000 L 778.0000,0.0000 L 778.0000,192.0000 L 0.0000,192.0000 L 0.0000,0.0000 Z Z" /></clipPath></defs>
</g>
<g transform="matrix(0.0625 0.0000 0.0000 0.0625 0.0000 0.0000)">
<path  clip-path="url(#clip-1804289383)" d="M 19.0000,3043.0000 L 1833.0000,3043.0000 L 1833.0000,2438.0000 L 19.0000,2438.0000 L 19.0000,3043.0000 Z" stroke="#000000" stroke-width="5.0000"  stroke-linecap="round"  stroke-linejoin="round" fill="none" />
</g>
<g transform="matrix(1.0000 0.0000 0.0000 1.0000 0.0000 0.0000)">
</g>
<g transform="matrix(1.0000 0.0000 0.0000 1.0000 36.3482 168.1388)">
<text font-family="Arial" fill="#000000" style ="white-space:pre;" font-weight="400" text-anchor="start" x="0.0000" y="0.0000" font-size="12.0000" ><![CDATA[SL]]></text>
</g>
<g transform="matrix(1.0000 0.0000 0.0000 1.0000 51.0260 168.1388)">
<text font-family="Arial" fill="#000000" style ="white-space:pre;" font-weight="400" text-anchor="start" x="0.0000" y="0.0000" font-size="12.0000" ><![CDATA[-]]></text>
</g>
<g transform="matrix(1.0000 0.0000 0.0000 1.0000 55.0221 168.1388)">
<text font-family="Arial" fill="#000000" style ="white-space:pre;" font-weight="400" text-anchor="start" x="0.0000" y="0.0000" font-size="12.0000" ><![CDATA[SCH]]></text>
</g>
<g transform="matrix(1.0000 0.0000 0.0000 1.0000 29.9967 182.5386)">
<text font-family="Arial" fill="#000000" style ="white-space:pre;" font-weight="400" text-anchor="start" x="0.0000" y="0.0000" font-size="12.0000" ><![CDATA[subheader]]></text>
</g>
<g transform="matrix(0.0625 0.0000 0.0000 0.0625 0.0000 0.0000)">
<path d="M 1833.0000,2438.0000 L 1833.0000,3043.0000 L 4252.0000,3043.0000 L 4252.0000,2438.0000 L 1833.0000,2438.0000 Z" stroke-width="1px" stroke="#FFFFFF"  fill="#FFFFFF" />
</g>
<g transform="matrix(1.0000 0.0000 0.0000 1.0000 0.0000 0.0000)">
<defs><clipPath id="clip-846930886"><path d="M 0.0000,0.0000 L 778.0000,0.0000 L 778.0000,192.0000 L 0.0000,192.0000 L 0.0000,0.0000 Z Z" /></clipPath></defs>
</g>
<g transform="matrix(0.0625 0.0000 0.0000 0.0625 0.0000 0.0000)">
<path  clip-path="url(#clip-846930886)" d="M 1833.0000,3043.0000 L 4252.0000,3043.0000 L 4252.0000,2438.0000 L 1833.0000,2438.0000 L 1833.0000,3043.0000 Z" stroke="#000000" stroke-width="5.0000"  stroke-linecap="round"  stroke-linejoin="round" fill="none" />
</g>
<g transform="matrix(1.0000 0.0000 0.0000 1.0000 0.0000 0.0000)">
</g>
<g transform="matrix(1.0000 0.0000 0.0000 1.0000 127.9441 168.1388)">
<text font-family="Arial" fill="#000000" style ="white-space:pre;" font-weight="400" text-anchor="start" x="0.0000" y="0.0000" font-size="12.0000" ><![CDATA[MAC subPDU including ]]></text>
</g>
<g transform="matrix(1.0000 0.0000 0.0000 1.0000 162.9686 182.5386)">
<text font-family="Arial" fill="#000000" style ="white-space:pre;" font-weight="400" text-anchor="start" x="0.0000" y="0.0000" font-size="12.0000" ><![CDATA[MAC SDU]]></text>
</g>
<g transform="matrix(0.0625 0.0000 0.0000 0.0625 0.0000 0.0000)">
<path d="M 4252.0000,2438.0000 L 4252.0000,3043.0000 L 6671.0000,3043.0000 L 6671.0000,2438.0000 L 4252.0000,2438.0000 Z" stroke-width="1px" stroke="#FFFFFF"  fill="#FFFFFF" />
</g>
<g transform="matrix(1.0000 0.0000 0.0000 1.0000 0.0000 0.0000)">
<defs><clipPath id="clip-1681692777"><path d="M 0.0000,0.0000 L 778.0000,0.0000 L 778.0000,192.0000 L 0.0000,192.0000 L 0.0000,0.0000 Z Z" /></clipPath></defs>
</g>
<g transform="matrix(0.0625 0.0000 0.0000 0.0625 0.0000 0.0000)">
<path  clip-path="url(#clip-1681692777)" d="M 4252.0000,3043.0000 L 6671.0000,3043.0000 L 6671.0000,2438.0000 L 4252.0000,2438.0000 L 4252.0000,3043.0000 Z" stroke="#000000" stroke-width="5.0000"  stroke-linecap="round"  stroke-linejoin="round" fill="none" />
</g>
<g transform="matrix(1.0000 0.0000 0.0000 1.0000 0.0000 0.0000)">
</g>
<g transform="matrix(1.0000 0.0000 0.0000 1.0000 279.1252 168.1388)">
<text fill="#000000" style ="white-space:pre;" font-weight="400" text-anchor="start" x="0.0000" y="0.0000" font-size="12.0000" ><![CDATA[MAC subPDU including ]]></text>
</g>
<g transform="matrix(1.0000 0.0000 0.0000 1.0000 314.1497 182.5386)">
<text fill="#000000" style ="white-space:pre;" font-weight="400" text-anchor="start" x="0.0000" y="0.0000" font-size="12.0000" ><![CDATA[MAC SDU]]></text>
</g>
<g transform="matrix(1.0000 0.0000 0.0000 1.0000 432.4187 175.7033)">
<text fill="#000000" style ="white-space:pre;" font-weight="400" text-anchor="start" x="0.0000" y="0.0000" font-size="32.0000" ><![CDATA[...]]></text>
</g>
<g transform="matrix(0.0625 0.0000 0.0000 0.0625 0.0000 0.0000)">
<path d="M 7578.0000,2438.0000 L 7578.0000,3043.0000 L 9997.0000,3043.0000 L 9997.0000,2438.0000 L 7578.0000,2438.0000 Z" stroke-width="1px" stroke="#FFFFFF"  fill="#FFFFFF" />
</g>
<g transform="matrix(1.0000 0.0000 0.0000 1.0000 0.0000 0.0000)">
<defs><clipPath id="clip-1714636915"><path d="M 0.0000,0.0000 L 778.0000,0.0000 L 778.0000,192.0000 L 0.0000,192.0000 L 0.0000,0.0000 Z Z" /></clipPath></defs>
</g>
<g transform="matrix(0.0625 0.0000 0.0000 0.0625 0.0000 0.0000)">
<path  clip-path="url(#clip-1714636915)" d="M 7578.0000,3043.0000 L 9997.0000,3043.0000 L 9997.0000,2438.0000 L 7578.0000,2438.0000 L 7578.0000,3043.0000 Z" stroke="#000000" stroke-width="5.0000"  stroke-linecap="round"  stroke-linejoin="round" fill="none" />
</g>
<g transform="matrix(1.0000 0.0000 0.0000 1.0000 0.0000 0.0000)">
</g>
<g transform="matrix(1.0000 0.0000 0.0000 1.0000 486.9993 168.1388)">
<text fill="#000000" style ="white-space:pre;" font-weight="400" text-anchor="start" x="0.0000" y="0.0000" font-size="12.0000" ><![CDATA[MAC subPDU including ]]></text>
</g>
<g transform="matrix(1.0000 0.0000 0.0000 1.0000 526.3567 182.5386)">
<text fill="#000000" style ="white-space:pre;" font-weight="400" text-anchor="start" x="0.0000" y="0.0000" font-size="12.0000" ><![CDATA[MAC ]]></text>
</g>
<g transform="matrix(1.0000 0.0000 0.0000 1.0000 556.3567 182.5386)">
<text fill="#000000" style ="white-space:pre;" font-weight="400" text-anchor="start" x="0.0000" y="0.0000" font-size="12.0000" ><![CDATA[CE]]></text>
</g>
<g transform="matrix(0.0625 0.0000 0.0000 0.0625 0.0000 0.0000)">
<path d="M 9997.0000,2438.0000 L 9997.0000,3043.0000 L 12416.0000,3043.0000 L 12416.0000,2438.0000 L 9997.0000,2438.0000 Z" stroke-width="1px" stroke="#FFFFFF"  fill="#FFFFFF" />
</g>
<g transform="matrix(1.0000 0.0000 0.0000 1.0000 0.0000 0.0000)">
<defs><clipPath id="clip-1957747793"><path d="M 0.0000,0.0000 L 778.0000,0.0000 L 778.0000,192.0000 L 0.0000,192.0000 L 0.0000,0.0000 Z Z" /></clipPath></defs>
</g>
<g transform="matrix(0.0625 0.0000 0.0000 0.0625 0.0000 0.0000)">
<path  clip-path="url(#clip-1957747793)" d="M 9997.0000,3043.0000 L 12416.0000,3043.0000 L 12416.0000,2438.0000 L 9997.0000,2438.0000 L 9997.0000,3043.0000 Z" stroke="#000000" stroke-width="5.0000"  stroke-linecap="round"  stroke-linejoin="round" fill="none" />
</g>
<g transform="matrix(1.0000 0.0000 0.0000 1.0000 0.0000 0.0000)">
</g>
<g transform="matrix(1.0000 0.0000 0.0000 1.0000 638.1804 168.1388)">
<text font-family="Arial" fill="#000000" style ="white-space:pre;" font-weight="400" text-anchor="start" x="0.0000" y="0.0000" font-size="12.0000" ><![CDATA[MAC subPDU including ]]></text>
</g>
<g transform="matrix(1.0000 0.0000 0.0000 1.0000 665.5143 182.5386)">
<text font-family="Arial" fill="#000000" style ="white-space:pre;" font-weight="400" text-anchor="start" x="0.0000" y="0.0000" font-size="12.0000" ><![CDATA[padding ]]></text>
</g>
<g transform="matrix(1.0000 0.0000 0.0000 1.0000 711.5573 182.5386)">
<text font-family="Arial" fill="#000000" style ="white-space:pre;" font-weight="400" text-anchor="start" x="0.0000" y="0.0000" font-size="12.0000" ><![CDATA[(]]></text>
</g>
<g transform="matrix(1.0000 0.0000 0.0000 1.0000 715.5534 182.5386)">
<text font-family="Arial" fill="#000000" style ="white-space:pre;" font-weight="400" text-anchor="start" x="0.0000" y="0.0000" font-size="12.0000" ><![CDATA[opt]]></text>
</g>
<g transform="matrix(1.0000 0.0000 0.0000 1.0000 732.2350 182.5386)">
<text font-family="Arial" fill="#000000" style ="white-space:pre;" font-weight="400" text-anchor="start" x="0.0000" y="0.0000" font-size="12.0000" ><![CDATA[)]]></text>
</g>
<g transform="matrix(0.0625 0.0000 0.0000 0.0625 0.0000 0.0000)">
<path d="M 1831.0000,2438.0000 L 1831.0000,2402.0000 C 1831.0000,2401.0000 1832.0000,2400.0000 1833.0000,2400.0000 C 1835.0000,2400.0000 1836.0000,2401.0000 1836.0000,2402.0000 L 1836.0000,2438.0000 C 1836.0000,2439.0000 1835.0000,2440.0000 1833.0000,2440.0000 C 1832.0000,2440.0000 1831.0000,2439.0000 1831.0000,2438.0000 Z M 1831.0000,2376.0000 L 1831.0000,2341.0000 C 1831.0000,2339.0000 1832.0000,2338.0000 1833.0000,2338.0000 C 1835.0000,2338.0000 1836.0000,2339.0000 1836.0000,2341.0000 L 1836.0000,2376.0000 C 1836.0000,2378.0000 1835.0000,2379.0000 1833.0000,2379.0000 C 1832.0000,2379.0000 1831.0000,2378.0000 1831.0000,2376.0000 Z M 1831.0000,2315.0000 L 1831.0000,2279.0000 C 1831.0000,2278.0000 1832.0000,2277.0000 1833.0000,2277.0000 C 1835.0000,2277.0000 1836.0000,2278.0000 1836.0000,2279.0000 L 1836.0000,2315.0000 C 1836.0000,2316.0000 1835.0000,2318.0000 1833.0000,2318.0000 C 1832.0000,2318.0000 1831.0000,2316.0000 1831.0000,2315.0000 Z M 1831.0000,2254.0000 L 1831.0000,2218.0000 C 1831.0000,2216.0000 1832.0000,2215.0000 1833.0000,2215.0000 C 1835.0000,2215.0000 1836.0000,2216.0000 1836.0000,2218.0000 L 1836.0000,2254.0000 C 1836.0000,2255.0000 1835.0000,2256.0000 1833.0000,2256.0000 C 1832.0000,2256.0000 1831.0000,2255.0000 1831.0000,2254.0000 Z M 1831.0000,2192.0000 L 1831.0000,2156.0000 C 1831.0000,2155.0000 1832.0000,2154.0000 1833.0000,2154.0000 C 1835.0000,2154.0000 1836.0000,2155.0000 1836.0000,2156.0000 L 1836.0000,2192.0000 C 1836.0000,2194.0000 1835.0000,2195.0000 1833.0000,2195.0000 C 1832.0000,2195.0000 1831.0000,2194.0000 1831.0000,2192.0000 Z M 1831.0000,2131.0000 L 1831.0000,2095.0000 C 1831.0000,2093.0000 1832.0000,2092.0000 1833.0000,2092.0000 C 1835.0000,2092.0000 1836.0000,2093.0000 1836.0000,2095.0000 L 1836.0000,2131.0000 C 1836.0000,2132.0000 1835.0000,2133.0000 1833.0000,2133.0000 C 1832.0000,2133.0000 1831.0000,2132.0000 1831.0000,2131.0000 Z M 1831.0000,2069.0000 L 1831.0000,2033.0000 C 1831.0000,2032.0000 1832.0000,2031.0000 1833.0000,2031.0000 C 1835.0000,2031.0000 1836.0000,2032.0000 1836.0000,2033.0000 L 1836.0000,2069.0000 C 1836.0000,2071.0000 1835.0000,2072.0000 1833.0000,2072.0000 C 1832.0000,2072.0000 1831.0000,2071.0000 1831.0000,2069.0000 Z M 1831.0000,2008.0000 L 1831.0000,1972.0000 C 1831.0000,1971.0000 1832.0000,1969.0000 1833.0000,1969.0000 C 1835.0000,1969.0000 1836.0000,1971.0000 1836.0000,1972.0000 L 1836.0000,2008.0000 C 1836.0000,2009.0000 1835.0000,2010.0000 1833.0000,2010.0000 C 1832.0000,2010.0000 1831.0000,2009.0000 1831.0000,2008.0000 Z M 1831.0000,1946.0000 L 1831.0000,1911.0000 C 1831.0000,1909.0000 1832.0000,1908.0000 1833.0000,1908.0000 C 1835.0000,1908.0000 1836.0000,1909.0000 1836.0000,1911.0000 L 1836.0000,1946.0000 C 1836.0000,1948.0000 1835.0000,1949.0000 1833.0000,1949.0000 C 1832.0000,1949.0000 1831.0000,1948.0000 1831.0000,1946.0000 Z M 1831.0000,1885.0000 L 1831.0000,1849.0000 C 1831.0000,1848.0000 1832.0000,1847.0000 1833.0000,1847.0000 C 1835.0000,1847.0000 1836.0000,1848.0000 1836.0000,1849.0000 L 1836.0000,1885.0000 C 1836.0000,1886.0000 1835.0000,1888.0000 1833.0000,1888.0000 C 1832.0000,1888.0000 1831.0000,1886.0000 1831.0000,1885.0000 Z M 1831.0000,1824.0000 L 1831.0000,1788.0000 C 1831.0000,1786.0000 1832.0000,1785.0000 1833.0000,1785.0000 C 1835.0000,1785.0000 1836.0000,1786.0000 1836.0000,1788.0000 L 1836.0000,1824.0000 C 1836.0000,1825.0000 1835.0000,1826.0000 1833.0000,1826.0000 C 1832.0000,1826.0000 1831.0000,1825.0000 1831.0000,1824.0000 Z M 1831.0000,1762.0000 L 1831.0000,1726.0000 C 1831.0000,1725.0000 1832.0000,1724.0000 1833.0000,1724.0000 C 1835.0000,1724.0000 1836.0000,1725.0000 1836.0000,1726.0000 L 1836.0000,1762.0000 C 1836.0000,1764.0000 1835.0000,1765.0000 1833.0000,1765.0000 C 1832.0000,1765.0000 1831.0000,1764.0000 1831.0000,1762.0000 Z M 1831.0000,1701.0000 L 1831.0000,1665.0000 C 1831.0000,1663.0000 1832.0000,1662.0000 1833.0000,1662.0000 C 1835.0000,1662.0000 1836.0000,1663.0000 1836.0000,1665.0000 L 1836.0000,1701.0000 C 1836.0000,1702.0000 1835.0000,1703.0000 1833.0000,1703.0000 C 1832.0000,1703.0000 1831.0000,1702.0000 1831.0000,1701.0000 Z M 1831.0000,1639.0000 L 1831.0000,1603.0000 C 1831.0000,1602.0000 1832.0000,1601.0000 1833.0000,1601.0000 C 1835.0000,1601.0000 1836.0000,1602.0000 1836.0000,1603.0000 L 1836.0000,1639.0000 C 1836.0000,1641.0000 1835.0000,1642.0000 1833.0000,1642.0000 C 1832.0000,1642.0000 1831.0000,1641.0000 1831.0000,1639.0000 Z M 1831.0000,1578.0000 L 1831.0000,1542.0000 C 1831.0000,1541.0000 1832.0000,1539.0000 1833.0000,1539.0000 C 1835.0000,1539.0000 1836.0000,1541.0000 1836.0000,1542.0000 L 1836.0000,1578.0000 C 1836.0000,1579.0000 1835.0000,1580.0000 1833.0000,1580.0000 C 1832.0000,1580.0000 1831.0000,1579.0000 1831.0000,1578.0000 Z M 1831.0000,1516.0000 L 1831.0000,1480.0000 C 1831.0000,1479.0000 1832.0000,1478.0000 1833.0000,1478.0000 C 1835.0000,1478.0000 1836.0000,1479.0000 1836.0000,1480.0000 L 1836.0000,1516.0000 C 1836.0000,1518.0000 1835.0000,1519.0000 1833.0000,1519.0000 C 1832.0000,1519.0000 1831.0000,1518.0000 1831.0000,1516.0000 Z M 1831.0000,1455.0000 L 1831.0000,1419.0000 C 1831.0000,1418.0000 1832.0000,1416.0000 1833.0000,1416.0000 C 1835.0000,1416.0000 1836.0000,1418.0000 1836.0000,1419.0000 L 1836.0000,1455.0000 C 1836.0000,1456.0000 1835.0000,1457.0000 1833.0000,1457.0000 C 1832.0000,1457.0000 1831.0000,1456.0000 1831.0000,1455.0000 Z M 1831.0000,1393.0000 L 1831.0000,1358.0000 C 1831.0000,1356.0000 1832.0000,1355.0000 1833.0000,1355.0000 C 1835.0000,1355.0000 1836.0000,1356.0000 1836.0000,1358.0000 L 1836.0000,1393.0000 C 1836.0000,1395.0000 1835.0000,1396.0000 1833.0000,1396.0000 C 1832.0000,1396.0000 1831.0000,1395.0000 1831.0000,1393.0000 Z M 1831.0000,1332.0000 L 1831.0000,1296.0000 C 1831.0000,1295.0000 1832.0000,1294.0000 1833.0000,1294.0000 C 1835.0000,1294.0000 1836.0000,1295.0000 1836.0000,1296.0000 L 1836.0000,1332.0000 C 1836.0000,1333.0000 1835.0000,1335.0000 1833.0000,1335.0000 C 1832.0000,1335.0000 1831.0000,1333.0000 1831.0000,1332.0000 Z M 1831.0000,1271.0000 L 1831.0000,1235.0000 C 1831.0000,1233.0000 1832.0000,1232.0000 1833.0000,1232.0000 C 1835.0000,1232.0000 1836.0000,1233.0000 1836.0000,1235.0000 L 1836.0000,1271.0000 C 1836.0000,1272.0000 1835.0000,1273.0000 1833.0000,1273.0000 C 1832.0000,1273.0000 1831.0000,1272.0000 1831.0000,1271.0000 Z M 1831.0000,1209.0000 L 1831.0000,1173.0000 C 1831.0000,1172.0000 1832.0000,1171.0000 1833.0000,1171.0000 C 1835.0000,1171.0000 1836.0000,1172.0000 1836.0000,1173.0000 L 1836.0000,1209.0000 C 1836.0000,1211.0000 1835.0000,1212.0000 1833.0000,1212.0000 C 1832.0000,1212.0000 1831.0000,1211.0000 1831.0000,1209.0000 Z M 1831.0000,1148.0000 L 1831.0000,1112.0000 C 1831.0000,1110.0000 1832.0000,1109.0000 1833.0000,1109.0000 C 1835.0000,1109.0000 1836.0000,1110.0000 1836.0000,1112.0000 L 1836.0000,1148.0000 C 1836.0000,1149.0000 1835.0000,1150.0000 1833.0000,1150.0000 C 1832.0000,1150.0000 1831.0000,1149.0000 1831.0000,1148.0000 Z M 1831.0000,1086.0000 L 1831.0000,1050.0000 C 1831.0000,1049.0000 1832.0000,1048.0000 1833.0000,1048.0000 C 1835.0000,1048.0000 1836.0000,1049.0000 1836.0000,1050.0000 L 1836.0000,1086.0000 C 1836.0000,1088.0000 1835.0000,1089.0000 1833.0000,1089.0000 C 1832.0000,1089.0000 1831.0000,1088.0000 1831.0000,1086.0000 Z M 1831.0000,1025.0000 L 1831.0000,989.0000 C 1831.0000,988.0000 1832.0000,986.0000 1833.0000,986.0000 C 1835.0000,986.0000 1836.0000,988.0000 1836.0000,989.0000 L 1836.0000,1025.0000 C 1836.0000,1026.0000 1835.0000,1027.0000 1833.0000,1027.0000 C 1832.0000,1027.0000 1831.0000,1026.0000 1831.0000,1025.0000 Z M 1831.0000,963.0000 L 1831.0000,928.0000 C 1831.0000,926.0000 1832.0000,925.0000 1833.0000,925.0000 C 1835.0000,925.0000 1836.0000,926.0000 1836.0000,928.0000 L 1836.0000,963.0000 C 1836.0000,965.0000 1835.0000,966.0000 1833.0000,966.0000 C 1832.0000,966.0000 1831.0000,965.0000 1831.0000,963.0000 Z M 1831.0000,902.0000 L 1831.0000,866.0000 C 1831.0000,865.0000 1832.0000,864.0000 1833.0000,864.0000 C 1835.0000,864.0000 1836.0000,865.0000 1836.0000,866.0000 L 1836.0000,902.0000 C 1836.0000,903.0000 1835.0000,904.0000 1833.0000,904.0000 C 1832.0000,904.0000 1831.0000,903.0000 1831.0000,902.0000 Z M 1831.0000,840.0000 L 1831.0000,805.0000 C 1831.0000,803.0000 1832.0000,802.0000 1833.0000,802.0000 C 1835.0000,802.0000 1836.0000,803.0000 1836.0000,805.0000 L 1836.0000,840.0000 C 1836.0000,842.0000 1835.0000,843.0000 1833.0000,843.0000 C 1832.0000,843.0000 1831.0000,842.0000 1831.0000,840.0000 Z M 1831.0000,779.0000 L 1831.0000,743.0000 C 1831.0000,742.0000 1832.0000,741.0000 1833.0000,741.0000 C 1835.0000,741.0000 1836.0000,742.0000 1836.0000,743.0000 L 1836.0000,779.0000 C 1836.0000,780.0000 1835.0000,782.0000 1833.0000,782.0000 C 1832.0000,782.0000 1831.0000,780.0000 1831.0000,779.0000 Z M 1831.0000,718.0000 L 1831.0000,682.0000 C 1831.0000,680.0000 1832.0000,679.0000 1833.0000,679.0000 C 1835.0000,679.0000 1836.0000,680.0000 1836.0000,682.0000 L 1836.0000,718.0000 C 1836.0000,719.0000 1835.0000,720.0000 1833.0000,720.0000 C 1832.0000,720.0000 1831.0000,719.0000 1831.0000,718.0000 Z M 1831.0000,656.0000 L 1831.0000,624.0000 C 1831.0000,622.0000 1832.0000,621.0000 1833.0000,621.0000 C 1835.0000,621.0000 1836.0000,622.0000 1836.0000,624.0000 L 1836.0000,656.0000 C 1836.0000,658.0000 1835.0000,659.0000 1833.0000,659.0000 C 1832.0000,659.0000 1831.0000,658.0000 1831.0000,656.0000 Z "  fill="#000000" stroke="#000000" stroke-width="1.0000"  stroke-linecap="butt"  stroke-linejoin="round" />
</g>
<g transform="matrix(1.0000 0.0000 0.0000 1.0000 0.0000 0.0000)">
</g>
<g transform="matrix(0.0625 0.0000 0.0000 0.0625 0.0000 0.0000)">
<path d="M 3647.0000,19.0000 L 3647.0000,624.0000 L 6066.0000,624.0000 L 6066.0000,19.0000 L 3647.0000,19.0000 Z" stroke-width="1px" stroke="#FFFFFF"  fill="#FFFFFF" />
</g>
<g transform="matrix(1.0000 0.0000 0.0000 1.0000 0.0000 0.0000)">
<defs><clipPath id="clip-424238335"><path d="M 0.0000,0.0000 L 778.0000,0.0000 L 778.0000,192.0000 L 0.0000,192.0000 L 0.0000,0.0000 Z Z" /></clipPath></defs>
</g>
<g transform="matrix(0.0625 0.0000 0.0000 0.0625 0.0000 0.0000)">
<path  clip-path="url(#clip-424238335)" d="M 3647.0000,624.0000 L 6066.0000,624.0000 L 6066.0000,19.0000 L 3647.0000,19.0000 L 3647.0000,624.0000 Z" stroke="#000000" stroke-width="5.0000"  stroke-linecap="round"  stroke-linejoin="round" fill="none" />
</g>
<g transform="matrix(1.0000 0.0000 0.0000 1.0000 0.0000 0.0000)">
</g>
<g transform="matrix(1.0000 0.0000 0.0000 1.0000 276.3544 24.1578)">
<text font-family="Arial" fill="#000000" style ="white-space:pre;" font-weight="400" text-anchor="start" x="0.0000" y="0.0000" font-size="12.0000" ><![CDATA[MAC SDU]]></text>
</g>
<g transform="matrix(0.0625 0.0000 0.0000 0.0625 0.0000 0.0000)">
<path d="M 4250.0000,2436.0000 L 4276.0000,2411.0000 C 4277.0000,2410.0000 4278.0000,2410.0000 4279.0000,2411.0000 C 4280.0000,2412.0000 4280.0000,2413.0000 4279.0000,2414.0000 L 4254.0000,2440.0000 C 4253.0000,2441.0000 4251.0000,2441.0000 4250.0000,2440.0000 C 4249.0000,2439.0000 4249.0000,2437.0000 4250.0000,2436.0000 Z M 4294.0000,2393.0000 L 4319.0000,2367.0000 C 4320.0000,2366.0000 4322.0000,2366.0000 4323.0000,2367.0000 C 4324.0000,2368.0000 4324.0000,2370.0000 4323.0000,2371.0000 L 4297.0000,2396.0000 C 4296.0000,2397.0000 4295.0000,2397.0000 4294.0000,2396.0000 C 4293.0000,2395.0000 4293.0000,2394.0000 4294.0000,2393.0000 Z M 4337.0000,2349.0000 L 4363.0000,2324.0000 C 4364.0000,2323.0000 4365.0000,2323.0000 4366.0000,2324.0000 C 4367.0000,2325.0000 4367.0000,2327.0000 4366.0000,2328.0000 L 4341.0000,2353.0000 C 4340.0000,2354.0000 4338.0000,2354.0000 4337.0000,2353.0000 C 4336.0000,2352.0000 4336.0000,2350.0000 4337.0000,2349.0000 Z M 4381.0000,2306.0000 L 4406.0000,2280.0000 C 4407.0000,2279.0000 4409.0000,2279.0000 4410.0000,2280.0000 C 4411.0000,2281.0000 4411.0000,2283.0000 4410.0000,2284.0000 L 4384.0000,2309.0000 C 4383.0000,2310.0000 4382.0000,2310.0000 4381.0000,2309.0000 C 4380.0000,2308.0000 4380.0000,2307.0000 4381.0000,2306.0000 Z M 4424.0000,2262.0000 L 4449.0000,2237.0000 C 4450.0000,2236.0000 4452.0000,2236.0000 4453.0000,2237.0000 C 4454.0000,2238.0000 4454.0000,2240.0000 4453.0000,2241.0000 L 4428.0000,2266.0000 C 4427.0000,2267.0000 4425.0000,2267.0000 4424.0000,2266.0000 C 4423.0000,2265.0000 4423.0000,2263.0000 4424.0000,2262.0000 Z M 4468.0000,2219.0000 L 4493.0000,2194.0000 C 4494.0000,2193.0000 4495.0000,2193.0000 4496.0000,2194.0000 C 4497.0000,2195.0000 4497.0000,2196.0000 4496.0000,2197.0000 L 4471.0000,2223.0000 C 4470.0000,2224.0000 4469.0000,2224.0000 4468.0000,2223.0000 C 4467.0000,2222.0000 4467.0000,2220.0000 4468.0000,2219.0000 Z M 4511.0000,2175.0000 L 4536.0000,2150.0000 C 4537.0000,2149.0000 4539.0000,2149.0000 4540.0000,2150.0000 C 4541.0000,2151.0000 4541.0000,2153.0000 4540.0000,2154.0000 L 4515.0000,2179.0000 C 4514.0000,2180.0000 4512.0000,2180.0000 4511.0000,2179.0000 C 4510.0000,2178.0000 4510.0000,2176.0000 4511.0000,2175.0000 Z M 4554.0000,2132.0000 L 4580.0000,2107.0000 C 4581.0000,2106.0000 4582.0000,2106.0000 4583.0000,2107.0000 C 4584.0000,2108.0000 4584.0000,2109.0000 4583.0000,2110.0000 L 4558.0000,2136.0000 C 4557.0000,2137.0000 4555.0000,2137.0000 4554.0000,2136.0000 C 4553.0000,2135.0000 4553.0000,2133.0000 4554.0000,2132.0000 Z M 4598.0000,2089.0000 L 4623.0000,2063.0000 C 4624.0000,2062.0000 4626.0000,2062.0000 4627.0000,2063.0000 C 4628.0000,2064.0000 4628.0000,2066.0000 4627.0000,2067.0000 L 4601.0000,2092.0000 C 4600.0000,2093.0000 4599.0000,2093.0000 4598.0000,2092.0000 C 4597.0000,2091.0000 4597.0000,2090.0000 4598.0000,2089.0000 Z M 4641.0000,2045.0000 L 4667.0000,2020.0000 C 4668.0000,2019.0000 4669.0000,2019.0000 4670.0000,2020.0000 C 4671.0000,2021.0000 4671.0000,2022.0000 4670.0000,2023.0000 L 4645.0000,2049.0000 C 4644.0000,2050.0000 4642.0000,2050.0000 4641.0000,2049.0000 C 4640.0000,2048.0000 4640.0000,2046.0000 4641.0000,2045.0000 Z M 4685.0000,2002.0000 L 4710.0000,1976.0000 C 4711.0000,1975.0000 4713.0000,1975.0000 4714.0000,1976.0000 C 4715.0000,1977.0000 4715.0000,1979.0000 4714.0000,1980.0000 L 4688.0000,2005.0000 C 4687.0000,2006.0000 4686.0000,2006.0000 4685.0000,2005.0000 C 4684.0000,2004.0000 4684.0000,2003.0000 4685.0000,2002.0000 Z M 4728.0000,1958.0000 L 4754.0000,1933.0000 C 4755.0000,1932.0000 4756.0000,1932.0000 4757.0000,1933.0000 C 4758.0000,1934.0000 4758.0000,1936.0000 4757.0000,1937.0000 L 4732.0000,1962.0000 C 4731.0000,1963.0000 4729.0000,1963.0000 4728.0000,1962.0000 C 4727.0000,1961.0000 4727.0000,1959.0000 4728.0000,1958.0000 Z M 4772.0000,1915.0000 L 4797.0000,1889.0000 C 4798.0000,1888.0000 4800.0000,1888.0000 4801.0000,1889.0000 C 4802.0000,1890.0000 4802.0000,1892.0000 4801.0000,1893.0000 L 4775.0000,1918.0000 C 4774.0000,1919.0000 4773.0000,1919.0000 4772.0000,1918.0000 C 4771.0000,1917.0000 4771.0000,1916.0000 4772.0000,1915.0000 Z M 4815.0000,1871.0000 L 4840.0000,1846.0000 C 4841.0000,1845.0000 4843.0000,1845.0000 4844.0000,1846.0000 C 4845.0000,1847.0000 4845.0000,1849.0000 4844.0000,1850.0000 L 4819.0000,1875.0000 C 4818.0000,1876.0000 4816.0000,1876.0000 4815.0000,1875.0000 C 4814.0000,1874.0000 4814.0000,1872.0000 4815.0000,1871.0000 Z M 4859.0000,1828.0000 L 4884.0000,1803.0000 C 4885.0000,1802.0000 4886.0000,1802.0000 4887.0000,1803.0000 C 4888.0000,1804.0000 4888.0000,1805.0000 4887.0000,1806.0000 L 4862.0000,1832.0000 C 4861.0000,1833.0000 4860.0000,1833.0000 4859.0000,1832.0000 C 4858.0000,1831.0000 4858.0000,1829.0000 4859.0000,1828.0000 Z M 4902.0000,1784.0000 L 4927.0000,1759.0000 C 4928.0000,1758.0000 4930.0000,1758.0000 4931.0000,1759.0000 C 4932.0000,1760.0000 4932.0000,1762.0000 4931.0000,1763.0000 L 4906.0000,1788.0000 C 4905.0000,1789.0000 4903.0000,1789.0000 4902.0000,1788.0000 C 4901.0000,1787.0000 4901.0000,1785.0000 4902.0000,1784.0000 Z M 4945.0000,1741.0000 L 4971.0000,1716.0000 C 4972.0000,1715.0000 4973.0000,1715.0000 4974.0000,1716.0000 C 4975.0000,1717.0000 4975.0000,1718.0000 4974.0000,1719.0000 L 4949.0000,1745.0000 C 4948.0000,1746.0000 4946.0000,1746.0000 4945.0000,1745.0000 C 4944.0000,1744.0000 4944.0000,1742.0000 4945.0000,1741.0000 Z M 4989.0000,1698.0000 L 5014.0000,1672.0000 C 5015.0000,1671.0000 5017.0000,1671.0000 5018.0000,1672.0000 C 5019.0000,1673.0000 5019.0000,1675.0000 5018.0000,1676.0000 L 4992.0000,1701.0000 C 4991.0000,1702.0000 4990.0000,1702.0000 4989.0000,1701.0000 C 4988.0000,1700.0000 4988.0000,1699.0000 4989.0000,1698.0000 Z M 5032.0000,1654.0000 L 5058.0000,1629.0000 C 5059.0000,1628.0000 5060.0000,1628.0000 5061.0000,1629.0000 C 5062.0000,1630.0000 5062.0000,1631.0000 5061.0000,1632.0000 L 5036.0000,1658.0000 C 5035.0000,1659.0000 5033.0000,1659.0000 5032.0000,1658.0000 C 5031.0000,1657.0000 5031.0000,1655.0000 5032.0000,1654.0000 Z M 5076.0000,1611.0000 L 5101.0000,1585.0000 C 5102.0000,1584.0000 5104.0000,1584.0000 5105.0000,1585.0000 C 5106.0000,1586.0000 5106.0000,1588.0000 5105.0000,1589.0000 L 5079.0000,1614.0000 C 5078.0000,1615.0000 5077.0000,1615.0000 5076.0000,1614.0000 C 5075.0000,1613.0000 5075.0000,1612.0000 5076.0000,1611.0000 Z M 5119.0000,1567.0000 L 5145.0000,1542.0000 C 5146.0000,1541.0000 5147.0000,1541.0000 5148.0000,1542.0000 C 5149.0000,1543.0000 5149.0000,1545.0000 5148.0000,1546.0000 L 5123.0000,1571.0000 C 5122.0000,1572.0000 5120.0000,1572.0000 5119.0000,1571.0000 C 5118.0000,1570.0000 5118.0000,1568.0000 5119.0000,1567.0000 Z M 5163.0000,1524.0000 L 5188.0000,1498.0000 C 5189.0000,1497.0000 5191.0000,1497.0000 5192.0000,1498.0000 C 5193.0000,1499.0000 5193.0000,1501.0000 5192.0000,1502.0000 L 5166.0000,1527.0000 C 5165.0000,1528.0000 5164.0000,1528.0000 5163.0000,1527.0000 C 5162.0000,1526.0000 5162.0000,1525.0000 5163.0000,1524.0000 Z M 5206.0000,1480.0000 L 5231.0000,1455.0000 C 5232.0000,1454.0000 5234.0000,1454.0000 5235.0000,1455.0000 C 5236.0000,1456.0000 5236.0000,1458.0000 5235.0000,1459.0000 L 5210.0000,1484.0000 C 5209.0000,1485.0000 5207.0000,1485.0000 5206.0000,1484.0000 C 5205.0000,1483.0000 5205.0000,1481.0000 5206.0000,1480.0000 Z M 5250.0000,1437.0000 L 5275.0000,1412.0000 C 5276.0000,1411.0000 5277.0000,1411.0000 5278.0000,1412.0000 C 5279.0000,1413.0000 5279.0000,1414.0000 5278.0000,1415.0000 L 5253.0000,1441.0000 C 5252.0000,1442.0000 5251.0000,1442.0000 5250.0000,1441.0000 C 5249.0000,1440.0000 5249.0000,1438.0000 5250.0000,1437.0000 Z M 5293.0000,1393.0000 L 5318.0000,1368.0000 C 5319.0000,1367.0000 5321.0000,1367.0000 5322.0000,1368.0000 C 5323.0000,1369.0000 5323.0000,1371.0000 5322.0000,1372.0000 L 5297.0000,1397.0000 C 5296.0000,1398.0000 5294.0000,1398.0000 5293.0000,1397.0000 C 5292.0000,1396.0000 5292.0000,1394.0000 5293.0000,1393.0000 Z M 5336.0000,1350.0000 L 5362.0000,1325.0000 C 5363.0000,1324.0000 5364.0000,1324.0000 5365.0000,1325.0000 C 5366.0000,1326.0000 5366.0000,1327.0000 5365.0000,1328.0000 L 5340.0000,1354.0000 C 5339.0000,1355.0000 5337.0000,1355.0000 5336.0000,1354.0000 C 5335.0000,1353.0000 5335.0000,1351.0000 5336.0000,1350.0000 Z M 5380.0000,1307.0000 L 5405.0000,1281.0000 C 5406.0000,1280.0000 5408.0000,1280.0000 5409.0000,1281.0000 C 5410.0000,1282.0000 5410.0000,1284.0000 5409.0000,1285.0000 L 5383.0000,1310.0000 C 5382.0000,1311.0000 5381.0000,1311.0000 5380.0000,1310.0000 C 5379.0000,1309.0000 5379.0000,1308.0000 5380.0000,1307.0000 Z M 5423.0000,1263.0000 L 5449.0000,1238.0000 C 5450.0000,1237.0000 5451.0000,1237.0000 5452.0000,1238.0000 C 5453.0000,1239.0000 5453.0000,1240.0000 5452.0000,1241.0000 L 5427.0000,1267.0000 C 5426.0000,1268.0000 5424.0000,1268.0000 5423.0000,1267.0000 C 5422.0000,1266.0000 5422.0000,1264.0000 5423.0000,1263.0000 Z M 5467.0000,1220.0000 L 5492.0000,1194.0000 C 5493.0000,1193.0000 5495.0000,1193.0000 5496.0000,1194.0000 C 5497.0000,1195.0000 5497.0000,1197.0000 5496.0000,1198.0000 L 5470.0000,1223.0000 C 5469.0000,1224.0000 5468.0000,1224.0000 5467.0000,1223.0000 C 5466.0000,1222.0000 5466.0000,1221.0000 5467.0000,1220.0000 Z M 5510.0000,1176.0000 L 5536.0000,1151.0000 C 5537.0000,1150.0000 5538.0000,1150.0000 5539.0000,1151.0000 C 5540.0000,1152.0000 5540.0000,1153.0000 5539.0000,1154.0000 L 5514.0000,1180.0000 C 5513.0000,1181.0000 5511.0000,1181.0000 5510.0000,1180.0000 C 5509.0000,1179.0000 5509.0000,1177.0000 5510.0000,1176.0000 Z M 5554.0000,1133.0000 L 5579.0000,1107.0000 C 5580.0000,1106.0000 5582.0000,1106.0000 5583.0000,1107.0000 C 5584.0000,1108.0000 5584.0000,1110.0000 5583.0000,1111.0000 L 5557.0000,1136.0000 C 5556.0000,1137.0000 5555.0000,1137.0000 5554.0000,1136.0000 C 5553.0000,1135.0000 5553.0000,1134.0000 5554.0000,1133.0000 Z M 5597.0000,1089.0000 L 5622.0000,1064.0000 C 5623.0000,1063.0000 5625.0000,1063.0000 5626.0000,1064.0000 C 5627.0000,1065.0000 5627.0000,1067.0000 5626.0000,1068.0000 L 5601.0000,1093.0000 C 5600.0000,1094.0000 5598.0000,1094.0000 5597.0000,1093.0000 C 5596.0000,1092.0000 5596.0000,1090.0000 5597.0000,1089.0000 Z M 5641.0000,1046.0000 L 5666.0000,1021.0000 C 5667.0000,1020.0000 5668.0000,1020.0000 5669.0000,1021.0000 C 5670.0000,1022.0000 5670.0000,1023.0000 5669.0000,1024.0000 L 5644.0000,1050.0000 C 5643.0000,1051.0000 5642.0000,1051.0000 5641.0000,1050.0000 C 5640.0000,1049.0000 5640.0000,1047.0000 5641.0000,1046.0000 Z M 5684.0000,1002.0000 L 5709.0000,977.0000 C 5710.0000,976.0000 5712.0000,976.0000 5713.0000,977.0000 C 5714.0000,978.0000 5714.0000,980.0000 5713.0000,981.0000 L 5688.0000,1006.0000 C 5687.0000,1007.0000 5685.0000,1007.0000 5684.0000,1006.0000 C 5683.0000,1005.0000 5683.0000,1003.0000 5684.0000,1002.0000 Z M 5727.0000,959.0000 L 5753.0000,934.0000 C 5754.0000,933.0000 5755.0000,933.0000 5756.0000,934.0000 C 5757.0000,935.0000 5757.0000,936.0000 5756.0000,937.0000 L 5731.0000,963.0000 C 5730.0000,964.0000 5728.0000,964.0000 5727.0000,963.0000 C 5726.0000,962.0000 5726.0000,960.0000 5727.0000,959.0000 Z M 5771.0000,916.0000 L 5796.0000,890.0000 C 5797.0000,889.0000 5799.0000,889.0000 5800.0000,890.0000 C 5801.0000,891.0000 5801.0000,893.0000 5800.0000,894.0000 L 5774.0000,919.0000 C 5773.0000,920.0000 5772.0000,920.0000 5771.0000,919.0000 C 5770.0000,918.0000 5770.0000,917.0000 5771.0000,916.0000 Z M 5814.0000,872.0000 L 5840.0000,847.0000 C 5841.0000,846.0000 5842.0000,846.0000 5843.0000,847.0000 C 5844.0000,848.0000 5844.0000,849.0000 5843.0000,850.0000 L 5818.0000,876.0000 C 5817.0000,877.0000 5815.0000,877.0000 5814.0000,876.0000 C 5813.0000,875.0000 5813.0000,873.0000 5814.0000,872.0000 Z M 5858.0000,829.0000 L 5883.0000,803.0000 C 5884.0000,802.0000 5886.0000,802.0000 5887.0000,803.0000 C 5888.0000,804.0000 5888.0000,806.0000 5887.0000,807.0000 L 5861.0000,832.0000 C 5860.0000,833.0000 5859.0000,833.0000 5858.0000,832.0000 C 5857.0000,831.0000 5857.0000,830.0000 5858.0000,829.0000 Z M 5901.0000,785.0000 L 5927.0000,760.0000 C 5928.0000,759.0000 5929.0000,759.0000 5930.0000,760.0000 C 5931.0000,761.0000 5931.0000,762.0000 5930.0000,763.0000 L 5905.0000,789.0000 C 5904.0000,790.0000 5902.0000,790.0000 5901.0000,789.0000 C 5900.0000,788.0000 5900.0000,786.0000 5901.0000,785.0000 Z M 5945.0000,742.0000 L 5970.0000,716.0000 C 5971.0000,715.0000 5973.0000,715.0000 5974.0000,716.0000 C 5975.0000,717.0000 5975.0000,719.0000 5974.0000,720.0000 L 5948.0000,745.0000 C 5947.0000,746.0000 5946.0000,746.0000 5945.0000,745.0000 C 5944.0000,744.0000 5944.0000,743.0000 5945.0000,742.0000 Z M 5988.0000,698.0000 L 6013.0000,673.0000 C 6014.0000,672.0000 6016.0000,672.0000 6017.0000,673.0000 C 6018.0000,674.0000 6018.0000,676.0000 6017.0000,677.0000 L 5992.0000,702.0000 C 5991.0000,703.0000 5989.0000,703.0000 5988.0000,702.0000 C 5987.0000,701.0000 5987.0000,699.0000 5988.0000,698.0000 Z M 6032.0000,655.0000 L 6057.0000,630.0000 C 6058.0000,629.0000 6059.0000,629.0000 6060.0000,630.0000 C 6061.0000,631.0000 6061.0000,632.0000 6060.0000,633.0000 L 6035.0000,659.0000 C 6034.0000,660.0000 6033.0000,660.0000 6032.0000,659.0000 C 6031.0000,658.0000 6031.0000,656.0000 6032.0000,655.0000 Z "  fill="#000000" stroke="#000000" stroke-width="1.0000"  stroke-linecap="butt"  stroke-linejoin="round" />
</g>
<g transform="matrix(1.0000 0.0000 0.0000 1.0000 0.0000 0.0000)">
</g>
<g transform="matrix(0.0625 0.0000 0.0000 0.0625 0.0000 0.0000)">
<path d="M 1833.0000,19.0000 L 1833.0000,624.0000 L 3647.0000,624.0000 L 3647.0000,19.0000 L 1833.0000,19.0000 Z" stroke-width="1px" stroke="#FFFFFF"  fill="#FFFFFF" />
</g>
<g transform="matrix(1.0000 0.0000 0.0000 1.0000 0.0000 0.0000)">
<defs><clipPath id="clip-719885386"><path d="M 0.0000,0.0000 L 778.0000,0.0000 L 778.0000,192.0000 L 0.0000,192.0000 L 0.0000,0.0000 Z Z" /></clipPath></defs>
</g>
<g transform="matrix(0.0625 0.0000 0.0000 0.0625 0.0000 0.0000)">
<path  clip-path="url(#clip-719885386)" d="M 1833.0000,624.0000 L 3647.0000,624.0000 L 3647.0000,19.0000 L 1833.0000,19.0000 L 1833.0000,624.0000 Z" stroke="#000000" stroke-width="5.0000"  stroke-linecap="round"  stroke-linejoin="round" fill="none" />
</g>
<g transform="matrix(1.0000 0.0000 0.0000 1.0000 0.0000 0.0000)">
</g>
<g transform="matrix(1.0000 0.0000 0.0000 1.0000 141.7331 16.9577)">
<text font-family="Arial" fill="#000000" style ="white-space:pre;" font-weight="400" text-anchor="start" x="0.0000" y="0.0000" font-size="12.0000" ><![CDATA[R]]></text>
</g>
<g transform="matrix(1.0000 0.0000 0.0000 1.0000 150.3991 16.9577)">
<text font-family="Arial" fill="#000000" style ="white-space:pre;" font-weight="400" text-anchor="start" x="0.0000" y="0.0000" font-size="12.0000" ><![CDATA[/]]></text>
</g>
<g transform="matrix(1.0000 0.0000 0.0000 1.0000 153.7331 16.9577)">
<text font-family="Arial" fill="#000000" style ="white-space:pre;" font-weight="400" text-anchor="start" x="0.0000" y="0.0000" font-size="12.0000" ><![CDATA[F]]></text>
</g>
<g transform="matrix(1.0000 0.0000 0.0000 1.0000 161.0632 16.9577)">
<text font-family="Arial" fill="#000000" style ="white-space:pre;" font-weight="400" text-anchor="start" x="0.0000" y="0.0000" font-size="12.0000" ><![CDATA[/]]></text>
</g>
<g transform="matrix(1.0000 0.0000 0.0000 1.0000 164.3972 16.9577)">
<text font-family="Arial" fill="#000000" style ="white-space:pre;" font-weight="400" text-anchor="start" x="0.0000" y="0.0000" font-size="12.0000" ><![CDATA[LCID]]></text>
</g>
<g transform="matrix(1.0000 0.0000 0.0000 1.0000 191.7370 16.9577)">
<text font-family="Arial" fill="#000000" style ="white-space:pre;" font-weight="400" text-anchor="start" x="0.0000" y="0.0000" font-size="12.0000" ><![CDATA[/]]></text>
</g>
<g transform="matrix(1.0000 0.0000 0.0000 1.0000 195.0710 16.9577)">
<text font-family="Arial" fill="#000000" style ="white-space:pre;" font-weight="400" text-anchor="start" x="0.0000" y="0.0000" font-size="12.0000" ><![CDATA[L]]></text>
</g>
<g transform="matrix(1.0000 0.0000 0.0000 1.0000 143.3825 31.3575)">
<text font-family="Arial" fill="#000000" style ="white-space:pre;" font-weight="400" text-anchor="start" x="0.0000" y="0.0000" font-size="12.0000" ><![CDATA[subheader]]></text>
</g>
<g transform="matrix(0.0625 0.0000 0.0000 0.0625 0.0000 0.0000)">
<path d="M 7576.0000,2438.0000 L 7576.0000,2402.0000 C 7576.0000,2401.0000 7577.0000,2400.0000 7578.0000,2400.0000 C 7579.0000,2400.0000 7581.0000,2401.0000 7581.0000,2402.0000 L 7581.0000,2438.0000 C 7581.0000,2439.0000 7579.0000,2440.0000 7578.0000,2440.0000 C 7577.0000,2440.0000 7576.0000,2439.0000 7576.0000,2438.0000 Z M 7576.0000,2376.0000 L 7576.0000,2341.0000 C 7576.0000,2339.0000 7577.0000,2338.0000 7578.0000,2338.0000 C 7579.0000,2338.0000 7581.0000,2339.0000 7581.0000,2341.0000 L 7581.0000,2376.0000 C 7581.0000,2378.0000 7579.0000,2379.0000 7578.0000,2379.0000 C 7577.0000,2379.0000 7576.0000,2378.0000 7576.0000,2376.0000 Z M 7576.0000,2315.0000 L 7576.0000,2279.0000 C 7576.0000,2278.0000 7577.0000,2277.0000 7578.0000,2277.0000 C 7579.0000,2277.0000 7581.0000,2278.0000 7581.0000,2279.0000 L 7581.0000,2315.0000 C 7581.0000,2316.0000 7579.0000,2318.0000 7578.0000,2318.0000 C 7577.0000,2318.0000 7576.0000,2316.0000 7576.0000,2315.0000 Z M 7576.0000,2254.0000 L 7576.0000,2218.0000 C 7576.0000,2216.0000 7577.0000,2215.0000 7578.0000,2215.0000 C 7579.0000,2215.0000 7581.0000,2216.0000 7581.0000,2218.0000 L 7581.0000,2254.0000 C 7581.0000,2255.0000 7579.0000,2256.0000 7578.0000,2256.0000 C 7577.0000,2256.0000 7576.0000,2255.0000 7576.0000,2254.0000 Z M 7576.0000,2192.0000 L 7576.0000,2156.0000 C 7576.0000,2155.0000 7577.0000,2154.0000 7578.0000,2154.0000 C 7579.0000,2154.0000 7581.0000,2155.0000 7581.0000,2156.0000 L 7581.0000,2192.0000 C 7581.0000,2194.0000 7579.0000,2195.0000 7578.0000,2195.0000 C 7577.0000,2195.0000 7576.0000,2194.0000 7576.0000,2192.0000 Z M 7576.0000,2131.0000 L 7576.0000,2095.0000 C 7576.0000,2093.0000 7577.0000,2092.0000 7578.0000,2092.0000 C 7579.0000,2092.0000 7581.0000,2093.0000 7581.0000,2095.0000 L 7581.0000,2131.0000 C 7581.0000,2132.0000 7579.0000,2133.0000 7578.0000,2133.0000 C 7577.0000,2133.0000 7576.0000,2132.0000 7576.0000,2131.0000 Z M 7576.0000,2069.0000 L 7576.0000,2033.0000 C 7576.0000,2032.0000 7577.0000,2031.0000 7578.0000,2031.0000 C 7579.0000,2031.0000 7581.0000,2032.0000 7581.0000,2033.0000 L 7581.0000,2069.0000 C 7581.0000,2071.0000 7579.0000,2072.0000 7578.0000,2072.0000 C 7577.0000,2072.0000 7576.0000,2071.0000 7576.0000,2069.0000 Z M 7576.0000,2008.0000 L 7576.0000,1972.0000 C 7576.0000,1971.0000 7577.0000,1969.0000 7578.0000,1969.0000 C 7579.0000,1969.0000 7581.0000,1971.0000 7581.0000,1972.0000 L 7581.0000,2008.0000 C 7581.0000,2009.0000 7579.0000,2010.0000 7578.0000,2010.0000 C 7577.0000,2010.0000 7576.0000,2009.0000 7576.0000,2008.0000 Z M 7576.0000,1946.0000 L 7576.0000,1911.0000 C 7576.0000,1909.0000 7577.0000,1908.0000 7578.0000,1908.0000 C 7579.0000,1908.0000 7581.0000,1909.0000 7581.0000,1911.0000 L 7581.0000,1946.0000 C 7581.0000,1948.0000 7579.0000,1949.0000 7578.0000,1949.0000 C 7577.0000,1949.0000 7576.0000,1948.0000 7576.0000,1946.0000 Z M 7576.0000,1885.0000 L 7576.0000,1849.0000 C 7576.0000,1848.0000 7577.0000,1847.0000 7578.0000,1847.0000 C 7579.0000,1847.0000 7581.0000,1848.0000 7581.0000,1849.0000 L 7581.0000,1885.0000 C 7581.0000,1886.0000 7579.0000,1888.0000 7578.0000,1888.0000 C 7577.0000,1888.0000 7576.0000,1886.0000 7576.0000,1885.0000 Z M 7576.0000,1824.0000 L 7576.0000,1788.0000 C 7576.0000,1786.0000 7577.0000,1785.0000 7578.0000,1785.0000 C 7579.0000,1785.0000 7581.0000,1786.0000 7581.0000,1788.0000 L 7581.0000,1824.0000 C 7581.0000,1825.0000 7579.0000,1826.0000 7578.0000,1826.0000 C 7577.0000,1826.0000 7576.0000,1825.0000 7576.0000,1824.0000 Z M 7576.0000,1762.0000 L 7576.0000,1726.0000 C 7576.0000,1725.0000 7577.0000,1724.0000 7578.0000,1724.0000 C 7579.0000,1724.0000 7581.0000,1725.0000 7581.0000,1726.0000 L 7581.0000,1762.0000 C 7581.0000,1764.0000 7579.0000,1765.0000 7578.0000,1765.0000 C 7577.0000,1765.0000 7576.0000,1764.0000 7576.0000,1762.0000 Z M 7576.0000,1701.0000 L 7576.0000,1665.0000 C 7576.0000,1663.0000 7577.0000,1662.0000 7578.0000,1662.0000 C 7579.0000,1662.0000 7581.0000,1663.0000 7581.0000,1665.0000 L 7581.0000,1701.0000 C 7581.0000,1702.0000 7579.0000,1703.0000 7578.0000,1703.0000 C 7577.0000,1703.0000 7576.0000,1702.0000 7576.0000,1701.0000 Z M 7576.0000,1639.0000 L 7576.0000,1603.0000 C 7576.0000,1602.0000 7577.0000,1601.0000 7578.0000,1601.0000 C 7579.0000,1601.0000 7581.0000,1602.0000 7581.0000,1603.0000 L 7581.0000,1639.0000 C 7581.0000,1641.0000 7579.0000,1642.0000 7578.0000,1642.0000 C 7577.0000,1642.0000 7576.0000,1641.0000 7576.0000,1639.0000 Z M 7576.0000,1578.0000 L 7576.0000,1542.0000 C 7576.0000,1541.0000 7577.0000,1539.0000 7578.0000,1539.0000 C 7579.0000,1539.0000 7581.0000,1541.0000 7581.0000,1542.0000 L 7581.0000,1578.0000 C 7581.0000,1579.0000 7579.0000,1580.0000 7578.0000,1580.0000 C 7577.0000,1580.0000 7576.0000,1579.0000 7576.0000,1578.0000 Z M 7576.0000,1516.0000 L 7576.0000,1480.0000 C 7576.0000,1479.0000 7577.0000,1478.0000 7578.0000,1478.0000 C 7579.0000,1478.0000 7581.0000,1479.0000 7581.0000,1480.0000 L 7581.0000,1516.0000 C 7581.0000,1518.0000 7579.0000,1519.0000 7578.0000,1519.0000 C 7577.0000,1519.0000 7576.0000,1518.0000 7576.0000,1516.0000 Z M 7576.0000,1455.0000 L 7576.0000,1419.0000 C 7576.0000,1418.0000 7577.0000,1416.0000 7578.0000,1416.0000 C 7579.0000,1416.0000 7581.0000,1418.0000 7581.0000,1419.0000 L 7581.0000,1455.0000 C 7581.0000,1456.0000 7579.0000,1457.0000 7578.0000,1457.0000 C 7577.0000,1457.0000 7576.0000,1456.0000 7576.0000,1455.0000 Z M 7576.0000,1393.0000 L 7576.0000,1358.0000 C 7576.0000,1356.0000 7577.0000,1355.0000 7578.0000,1355.0000 C 7579.0000,1355.0000 7581.0000,1356.0000 7581.0000,1358.0000 L 7581.0000,1393.0000 C 7581.0000,1395.0000 7579.0000,1396.0000 7578.0000,1396.0000 C 7577.0000,1396.0000 7576.0000,1395.0000 7576.0000,1393.0000 Z M 7576.0000,1332.0000 L 7576.0000,1296.0000 C 7576.0000,1295.0000 7577.0000,1294.0000 7578.0000,1294.0000 C 7579.0000,1294.0000 7581.0000,1295.0000 7581.0000,1296.0000 L 7581.0000,1332.0000 C 7581.0000,1333.0000 7579.0000,1335.0000 7578.0000,1335.0000 C 7577.0000,1335.0000 7576.0000,1333.0000 7576.0000,1332.0000 Z M 7576.0000,1271.0000 L 7576.0000,1235.0000 C 7576.0000,1233.0000 7577.0000,1232.0000 7578.0000,1232.0000 C 7579.0000,1232.0000 7581.0000,1233.0000 7581.0000,1235.0000 L 7581.0000,1271.0000 C 7581.0000,1272.0000 7579.0000,1273.0000 7578.0000,1273.0000 C 7577.0000,1273.0000 7576.0000,1272.0000 7576.0000,1271.0000 Z M 7576.0000,1209.0000 L 7576.0000,1173.0000 C 7576.0000,1172.0000 7577.0000,1171.0000 7578.0000,1171.0000 C 7579.0000,1171.0000 7581.0000,1172.0000 7581.0000,1173.0000 L 7581.0000,1209.0000 C 7581.0000,1211.0000 7579.0000,1212.0000 7578.0000,1212.0000 C 7577.0000,1212.0000 7576.0000,1211.0000 7576.0000,1209.0000 Z M 7576.0000,1148.0000 L 7576.0000,1112.0000 C 7576.0000,1110.0000 7577.0000,1109.0000 7578.0000,1109.0000 C 7579.0000,1109.0000 7581.0000,1110.0000 7581.0000,1112.0000 L 7581.0000,1148.0000 C 7581.0000,1149.0000 7579.0000,1150.0000 7578.0000,1150.0000 C 7577.0000,1150.0000 7576.0000,1149.0000 7576.0000,1148.0000 Z M 7576.0000,1086.0000 L 7576.0000,1050.0000 C 7576.0000,1049.0000 7577.0000,1048.0000 7578.0000,1048.0000 C 7579.0000,1048.0000 7581.0000,1049.0000 7581.0000,1050.0000 L 7581.0000,1086.0000 C 7581.0000,1088.0000 7579.0000,1089.0000 7578.0000,1089.0000 C 7577.0000,1089.0000 7576.0000,1088.0000 7576.0000,1086.0000 Z M 7576.0000,1025.0000 L 7576.0000,989.0000 C 7576.0000,988.0000 7577.0000,986.0000 7578.0000,986.0000 C 7579.0000,986.0000 7581.0000,988.0000 7581.0000,989.0000 L 7581.0000,1025.0000 C 7581.0000,1026.0000 7579.0000,1027.0000 7578.0000,1027.0000 C 7577.0000,1027.0000 7576.0000,1026.0000 7576.0000,1025.0000 Z M 7576.0000,963.0000 L 7576.0000,928.0000 C 7576.0000,926.0000 7577.0000,925.0000 7578.0000,925.0000 C 7579.0000,925.0000 7581.0000,926.0000 7581.0000,928.0000 L 7581.0000,963.0000 C 7581.0000,965.0000 7579.0000,966.0000 7578.0000,966.0000 C 7577.0000,966.0000 7576.0000,965.0000 7576.0000,963.0000 Z M 7576.0000,902.0000 L 7576.0000,866.0000 C 7576.0000,865.0000 7577.0000,864.0000 7578.0000,864.0000 C 7579.0000,864.0000 7581.0000,865.0000 7581.0000,866.0000 L 7581.0000,902.0000 C 7581.0000,903.0000 7579.0000,904.0000 7578.0000,904.0000 C 7577.0000,904.0000 7576.0000,903.0000 7576.0000,902.0000 Z M 7576.0000,840.0000 L 7576.0000,805.0000 C 7576.0000,803.0000 7577.0000,802.0000 7578.0000,802.0000 C 7579.0000,802.0000 7581.0000,803.0000 7581.0000,805.0000 L 7581.0000,840.0000 C 7581.0000,842.0000 7579.0000,843.0000 7578.0000,843.0000 C 7577.0000,843.0000 7576.0000,842.0000 7576.0000,840.0000 Z M 7576.0000,779.0000 L 7576.0000,743.0000 C 7576.0000,742.0000 7577.0000,741.0000 7578.0000,741.0000 C 7579.0000,741.0000 7581.0000,742.0000 7581.0000,743.0000 L 7581.0000,779.0000 C 7581.0000,780.0000 7579.0000,782.0000 7578.0000,782.0000 C 7577.0000,782.0000 7576.0000,780.0000 7576.0000,779.0000 Z M 7576.0000,718.0000 L 7576.0000,682.0000 C 7576.0000,680.0000 7577.0000,679.0000 7578.0000,679.0000 C 7579.0000,679.0000 7581.0000,680.0000 7581.0000,682.0000 L 7581.0000,718.0000 C 7581.0000,719.0000 7579.0000,720.0000 7578.0000,720.0000 C 7577.0000,720.0000 7576.0000,719.0000 7576.0000,718.0000 Z M 7576.0000,656.0000 L 7576.0000,624.0000 C 7576.0000,622.0000 7577.0000,621.0000 7578.0000,621.0000 C 7579.0000,621.0000 7581.0000,622.0000 7581.0000,624.0000 L 7581.0000,656.0000 C 7581.0000,658.0000 7579.0000,659.0000 7578.0000,659.0000 C 7577.0000,659.0000 7576.0000,658.0000 7576.0000,656.0000 Z "  fill="#000000" stroke="#000000" stroke-width="1.0000"  stroke-linecap="butt"  stroke-linejoin="round" />
</g>
<g transform="matrix(1.0000 0.0000 0.0000 1.0000 0.0000 0.0000)">
</g>
<g transform="matrix(0.0625 0.0000 0.0000 0.0625 0.0000 0.0000)">
<path d="M 9392.0000,19.0000 L 9392.0000,624.0000 L 11811.0000,624.0000 L 11811.0000,19.0000 L 9392.0000,19.0000 Z" stroke-width="1px" stroke="#FFFFFF"  fill="#FFFFFF" />
</g>
<g transform="matrix(1.0000 0.0000 0.0000 1.0000 0.0000 0.0000)">
<defs><clipPath id="clip-1649760492"><path d="M 0.0000,0.0000 L 778.0000,0.0000 L 778.0000,192.0000 L 0.0000,192.0000 L 0.0000,0.0000 Z Z" /></clipPath></defs>
</g>
<g transform="matrix(0.0625 0.0000 0.0000 0.0625 0.0000 0.0000)">
<path  clip-path="url(#clip-1649760492)" d="M 9392.0000,624.0000 L 11811.0000,624.0000 L 11811.0000,19.0000 L 9392.0000,19.0000 L 9392.0000,624.0000 Z" stroke="#000000" stroke-width="5.0000"  stroke-linecap="round"  stroke-linejoin="round" fill="none" />
</g>
<g transform="matrix(1.0000 0.0000 0.0000 1.0000 0.0000 0.0000)">
</g>
<g transform="matrix(1.0000 0.0000 0.0000 1.0000 639.7425 24.1578)">
<text font-family="Arial" fill="#000000" style ="white-space:pre;" font-weight="400" text-anchor="start" x="0.0000" y="0.0000" font-size="12.0000" ><![CDATA[MAC CE]]></text>
</g>
<g transform="matrix(0.0625 0.0000 0.0000 0.0625 0.0000 0.0000)">
<path d="M 9995.0000,2436.0000 L 10021.0000,2411.0000 C 10022.0000,2410.0000 10023.0000,2410.0000 10024.0000,2411.0000 C 10025.0000,2412.0000 10025.0000,2413.0000 10024.0000,2414.0000 L 9999.0000,2440.0000 C 9998.0000,2441.0000 9996.0000,2441.0000 9995.0000,2440.0000 C 9994.0000,2439.0000 9994.0000,2437.0000 9995.0000,2436.0000 Z M 10039.0000,2393.0000 L 10064.0000,2367.0000 C 10065.0000,2366.0000 10067.0000,2366.0000 10068.0000,2367.0000 C 10069.0000,2368.0000 10069.0000,2370.0000 10068.0000,2371.0000 L 10042.0000,2396.0000 C 10041.0000,2397.0000 10040.0000,2397.0000 10039.0000,2396.0000 C 10038.0000,2395.0000 10038.0000,2394.0000 10039.0000,2393.0000 Z M 10082.0000,2349.0000 L 10107.0000,2324.0000 C 10108.0000,2323.0000 10110.0000,2323.0000 10111.0000,2324.0000 C 10112.0000,2325.0000 10112.0000,2327.0000 10111.0000,2328.0000 L 10086.0000,2353.0000 C 10085.0000,2354.0000 10083.0000,2354.0000 10082.0000,2353.0000 C 10081.0000,2352.0000 10081.0000,2350.0000 10082.0000,2349.0000 Z M 10125.0000,2306.0000 L 10151.0000,2280.0000 C 10152.0000,2279.0000 10153.0000,2279.0000 10154.0000,2280.0000 C 10155.0000,2281.0000 10155.0000,2283.0000 10154.0000,2284.0000 L 10129.0000,2309.0000 C 10128.0000,2310.0000 10126.0000,2310.0000 10125.0000,2309.0000 C 10124.0000,2308.0000 10124.0000,2307.0000 10125.0000,2306.0000 Z M 10169.0000,2262.0000 L 10194.0000,2237.0000 C 10195.0000,2236.0000 10197.0000,2236.0000 10198.0000,2237.0000 C 10199.0000,2238.0000 10199.0000,2240.0000 10198.0000,2241.0000 L 10173.0000,2266.0000 C 10172.0000,2267.0000 10170.0000,2267.0000 10169.0000,2266.0000 C 10168.0000,2265.0000 10168.0000,2263.0000 10169.0000,2262.0000 Z M 10212.0000,2219.0000 L 10238.0000,2194.0000 C 10239.0000,2193.0000 10240.0000,2193.0000 10241.0000,2194.0000 C 10242.0000,2195.0000 10242.0000,2196.0000 10241.0000,2197.0000 L 10216.0000,2223.0000 C 10215.0000,2224.0000 10213.0000,2224.0000 10212.0000,2223.0000 C 10211.0000,2222.0000 10211.0000,2220.0000 10212.0000,2219.0000 Z M 10256.0000,2175.0000 L 10281.0000,2150.0000 C 10282.0000,2149.0000 10284.0000,2149.0000 10285.0000,2150.0000 C 10286.0000,2151.0000 10286.0000,2153.0000 10285.0000,2154.0000 L 10259.0000,2179.0000 C 10258.0000,2180.0000 10257.0000,2180.0000 10256.0000,2179.0000 C 10255.0000,2178.0000 10255.0000,2176.0000 10256.0000,2175.0000 Z M 10299.0000,2132.0000 L 10325.0000,2107.0000 C 10326.0000,2106.0000 10327.0000,2106.0000 10328.0000,2107.0000 C 10329.0000,2108.0000 10329.0000,2109.0000 10328.0000,2110.0000 L 10303.0000,2136.0000 C 10302.0000,2137.0000 10300.0000,2137.0000 10299.0000,2136.0000 C 10298.0000,2135.0000 10298.0000,2133.0000 10299.0000,2132.0000 Z M 10343.0000,2089.0000 L 10368.0000,2063.0000 C 10369.0000,2062.0000 10371.0000,2062.0000 10372.0000,2063.0000 C 10373.0000,2064.0000 10373.0000,2066.0000 10372.0000,2067.0000 L 10346.0000,2092.0000 C 10345.0000,2093.0000 10344.0000,2093.0000 10343.0000,2092.0000 C 10342.0000,2091.0000 10342.0000,2090.0000 10343.0000,2089.0000 Z M 10386.0000,2045.0000 L 10412.0000,2020.0000 C 10413.0000,2019.0000 10414.0000,2019.0000 10415.0000,2020.0000 C 10416.0000,2021.0000 10416.0000,2022.0000 10415.0000,2023.0000 L 10390.0000,2049.0000 C 10389.0000,2050.0000 10387.0000,2050.0000 10386.0000,2049.0000 C 10385.0000,2048.0000 10385.0000,2046.0000 10386.0000,2045.0000 Z M 10430.0000,2002.0000 L 10455.0000,1976.0000 C 10456.0000,1975.0000 10458.0000,1975.0000 10459.0000,1976.0000 C 10460.0000,1977.0000 10460.0000,1979.0000 10459.0000,1980.0000 L 10433.0000,2005.0000 C 10432.0000,2006.0000 10431.0000,2006.0000 10430.0000,2005.0000 C 10429.0000,2004.0000 10429.0000,2003.0000 10430.0000,2002.0000 Z M 10473.0000,1958.0000 L 10498.0000,1933.0000 C 10499.0000,1932.0000 10501.0000,1932.0000 10502.0000,1933.0000 C 10503.0000,1934.0000 10503.0000,1936.0000 10502.0000,1937.0000 L 10477.0000,1962.0000 C 10476.0000,1963.0000 10474.0000,1963.0000 10473.0000,1962.0000 C 10472.0000,1961.0000 10472.0000,1959.0000 10473.0000,1958.0000 Z M 10517.0000,1915.0000 L 10542.0000,1889.0000 C 10543.0000,1888.0000 10544.0000,1888.0000 10545.0000,1889.0000 C 10546.0000,1890.0000 10546.0000,1892.0000 10545.0000,1893.0000 L 10520.0000,1918.0000 C 10519.0000,1919.0000 10518.0000,1919.0000 10517.0000,1918.0000 C 10516.0000,1917.0000 10516.0000,1916.0000 10517.0000,1915.0000 Z M 10560.0000,1871.0000 L 10585.0000,1846.0000 C 10586.0000,1845.0000 10588.0000,1845.0000 10589.0000,1846.0000 C 10590.0000,1847.0000 10590.0000,1849.0000 10589.0000,1850.0000 L 10564.0000,1875.0000 C 10563.0000,1876.0000 10561.0000,1876.0000 10560.0000,1875.0000 C 10559.0000,1874.0000 10559.0000,1872.0000 10560.0000,1871.0000 Z M 10603.0000,1828.0000 L 10629.0000,1803.0000 C 10630.0000,1802.0000 10631.0000,1802.0000 10632.0000,1803.0000 C 10633.0000,1804.0000 10633.0000,1805.0000 10632.0000,1806.0000 L 10607.0000,1832.0000 C 10606.0000,1833.0000 10604.0000,1833.0000 10603.0000,1832.0000 C 10602.0000,1831.0000 10602.0000,1829.0000 10603.0000,1828.0000 Z M 10647.0000,1784.0000 L 10672.0000,1759.0000 C 10673.0000,1758.0000 10675.0000,1758.0000 10676.0000,1759.0000 C 10677.0000,1760.0000 10677.0000,1762.0000 10676.0000,1763.0000 L 10650.0000,1788.0000 C 10649.0000,1789.0000 10648.0000,1789.0000 10647.0000,1788.0000 C 10646.0000,1787.0000 10646.0000,1785.0000 10647.0000,1784.0000 Z M 10690.0000,1741.0000 L 10716.0000,1716.0000 C 10717.0000,1715.0000 10718.0000,1715.0000 10719.0000,1716.0000 C 10720.0000,1717.0000 10720.0000,1718.0000 10719.0000,1719.0000 L 10694.0000,1745.0000 C 10693.0000,1746.0000 10691.0000,1746.0000 10690.0000,1745.0000 C 10689.0000,1744.0000 10689.0000,1742.0000 10690.0000,1741.0000 Z M 10734.0000,1698.0000 L 10759.0000,1672.0000 C 10760.0000,1671.0000 10762.0000,1671.0000 10763.0000,1672.0000 C 10764.0000,1673.0000 10764.0000,1675.0000 10763.0000,1676.0000 L 10737.0000,1701.0000 C 10736.0000,1702.0000 10735.0000,1702.0000 10734.0000,1701.0000 C 10733.0000,1700.0000 10733.0000,1699.0000 10734.0000,1698.0000 Z M 10777.0000,1654.0000 L 10803.0000,1629.0000 C 10804.0000,1628.0000 10805.0000,1628.0000 10806.0000,1629.0000 C 10807.0000,1630.0000 10807.0000,1631.0000 10806.0000,1632.0000 L 10781.0000,1658.0000 C 10780.0000,1659.0000 10778.0000,1659.0000 10777.0000,1658.0000 C 10776.0000,1657.0000 10776.0000,1655.0000 10777.0000,1654.0000 Z M 10821.0000,1611.0000 L 10846.0000,1585.0000 C 10847.0000,1584.0000 10849.0000,1584.0000 10850.0000,1585.0000 C 10851.0000,1586.0000 10851.0000,1588.0000 10850.0000,1589.0000 L 10824.0000,1614.0000 C 10823.0000,1615.0000 10822.0000,1615.0000 10821.0000,1614.0000 C 10820.0000,1613.0000 10820.0000,1612.0000 10821.0000,1611.0000 Z M 10864.0000,1567.0000 L 10889.0000,1542.0000 C 10890.0000,1541.0000 10892.0000,1541.0000 10893.0000,1542.0000 C 10894.0000,1543.0000 10894.0000,1545.0000 10893.0000,1545.0000 L 10868.0000,1571.0000 C 10867.0000,1572.0000 10865.0000,1572.0000 10864.0000,1571.0000 C 10863.0000,1570.0000 10863.0000,1568.0000 10864.0000,1567.0000 Z M 10908.0000,1524.0000 L 10933.0000,1498.0000 C 10934.0000,1497.0000 10935.0000,1497.0000 10936.0000,1498.0000 C 10937.0000,1499.0000 10937.0000,1501.0000 10936.0000,1502.0000 L 10911.0000,1527.0000 C 10910.0000,1528.0000 10909.0000,1528.0000 10908.0000,1527.0000 C 10907.0000,1526.0000 10907.0000,1525.0000 10908.0000,1524.0000 Z M 10951.0000,1480.0000 L 10976.0000,1455.0000 C 10977.0000,1454.0000 10979.0000,1454.0000 10980.0000,1455.0000 C 10981.0000,1456.0000 10981.0000,1458.0000 10980.0000,1459.0000 L 10955.0000,1484.0000 C 10954.0000,1485.0000 10952.0000,1485.0000 10951.0000,1484.0000 C 10950.0000,1483.0000 10950.0000,1481.0000 10951.0000,1480.0000 Z M 10994.0000,1437.0000 L 11020.0000,1412.0000 C 11021.0000,1411.0000 11022.0000,1411.0000 11023.0000,1412.0000 C 11024.0000,1413.0000 11024.0000,1414.0000 11023.0000,1415.0000 L 10998.0000,1441.0000 C 10997.0000,1442.0000 10995.0000,1442.0000 10994.0000,1441.0000 C 10993.0000,1440.0000 10993.0000,1438.0000 10994.0000,1437.0000 Z M 11038.0000,1393.0000 L 11063.0000,1368.0000 C 11064.0000,1367.0000 11066.0000,1367.0000 11067.0000,1368.0000 C 11068.0000,1369.0000 11068.0000,1371.0000 11067.0000,1372.0000 L 11041.0000,1397.0000 C 11040.0000,1398.0000 11039.0000,1398.0000 11038.0000,1397.0000 C 11037.0000,1396.0000 11037.0000,1394.0000 11038.0000,1393.0000 Z M 11081.0000,1350.0000 L 11107.0000,1325.0000 C 11108.0000,1324.0000 11109.0000,1324.0000 11110.0000,1325.0000 C 11111.0000,1326.0000 11111.0000,1327.0000 11110.0000,1328.0000 L 11085.0000,1354.0000 C 11084.0000,1355.0000 11082.0000,1355.0000 11081.0000,1354.0000 C 11080.0000,1353.0000 11080.0000,1351.0000 11081.0000,1350.0000 Z M 11125.0000,1307.0000 L 11150.0000,1281.0000 C 11151.0000,1280.0000 11153.0000,1280.0000 11154.0000,1281.0000 C 11155.0000,1282.0000 11155.0000,1284.0000 11154.0000,1285.0000 L 11128.0000,1310.0000 C 11127.0000,1311.0000 11126.0000,1311.0000 11125.0000,1310.0000 C 11124.0000,1309.0000 11124.0000,1308.0000 11125.0000,1307.0000 Z M 11168.0000,1263.0000 L 11194.0000,1238.0000 C 11195.0000,1237.0000 11196.0000,1237.0000 11197.0000,1238.0000 C 11198.0000,1239.0000 11198.0000,1240.0000 11197.0000,1241.0000 L 11172.0000,1267.0000 C 11171.0000,1268.0000 11169.0000,1268.0000 11168.0000,1267.0000 C 11167.0000,1266.0000 11167.0000,1264.0000 11168.0000,1263.0000 Z M 11212.0000,1220.0000 L 11237.0000,1194.0000 C 11238.0000,1193.0000 11240.0000,1193.0000 11241.0000,1194.0000 C 11242.0000,1195.0000 11242.0000,1197.0000 11241.0000,1198.0000 L 11215.0000,1223.0000 C 11214.0000,1224.0000 11213.0000,1224.0000 11212.0000,1223.0000 C 11211.0000,1222.0000 11211.0000,1221.0000 11212.0000,1220.0000 Z M 11255.0000,1176.0000 L 11280.0000,1151.0000 C 11281.0000,1150.0000 11283.0000,1150.0000 11284.0000,1151.0000 C 11285.0000,1152.0000 11285.0000,1153.0000 11284.0000,1154.0000 L 11259.0000,1180.0000 C 11258.0000,1181.0000 11256.0000,1181.0000 11255.0000,1180.0000 C 11254.0000,1179.0000 11254.0000,1177.0000 11255.0000,1176.0000 Z M 11299.0000,1133.0000 L 11324.0000,1107.0000 C 11325.0000,1106.0000 11326.0000,1106.0000 11327.0000,1107.0000 C 11328.0000,1108.0000 11328.0000,1110.0000 11327.0000,1111.0000 L 11302.0000,1136.0000 C 11301.0000,1137.0000 11300.0000,1137.0000 11299.0000,1136.0000 C 11298.0000,1135.0000 11298.0000,1134.0000 11299.0000,1133.0000 Z M 11342.0000,1089.0000 L 11367.0000,1064.0000 C 11368.0000,1063.0000 11370.0000,1063.0000 11371.0000,1064.0000 C 11372.0000,1065.0000 11372.0000,1067.0000 11371.0000,1068.0000 L 11346.0000,1093.0000 C 11345.0000,1094.0000 11343.0000,1094.0000 11342.0000,1093.0000 C 11341.0000,1092.0000 11341.0000,1090.0000 11342.0000,1089.0000 Z M 11385.0000,1046.0000 L 11411.0000,1021.0000 C 11412.0000,1020.0000 11413.0000,1020.0000 11414.0000,1021.0000 C 11415.0000,1022.0000 11415.0000,1023.0000 11414.0000,1024.0000 L 11389.0000,1050.0000 C 11388.0000,1051.0000 11386.0000,1051.0000 11385.0000,1050.0000 C 11384.0000,1049.0000 11384.0000,1047.0000 11385.0000,1046.0000 Z M 11429.0000,1002.0000 L 11454.0000,977.0000 C 11455.0000,976.0000 11457.0000,976.0000 11458.0000,977.0000 C 11459.0000,978.0000 11459.0000,980.0000 11458.0000,981.0000 L 11432.0000,1006.0000 C 11431.0000,1007.0000 11430.0000,1007.0000 11429.0000,1006.0000 C 11428.0000,1005.0000 11428.0000,1003.0000 11429.0000,1002.0000 Z M 11472.0000,959.0000 L 11498.0000,934.0000 C 11499.0000,933.0000 11500.0000,933.0000 11501.0000,934.0000 C 11502.0000,935.0000 11502.0000,936.0000 11501.0000,937.0000 L 11476.0000,963.0000 C 11475.0000,964.0000 11473.0000,964.0000 11472.0000,963.0000 C 11471.0000,962.0000 11471.0000,960.0000 11472.0000,959.0000 Z M 11516.0000,916.0000 L 11541.0000,890.0000 C 11542.0000,889.0000 11544.0000,889.0000 11545.0000,890.0000 C 11546.0000,891.0000 11546.0000,893.0000 11545.0000,894.0000 L 11519.0000,919.0000 C 11518.0000,920.0000 11517.0000,920.0000 11516.0000,919.0000 C 11515.0000,918.0000 11515.0000,917.0000 11516.0000,916.0000 Z M 11559.0000,872.0000 L 11585.0000,847.0000 C 11586.0000,846.0000 11587.0000,846.0000 11588.0000,847.0000 C 11589.0000,848.0000 11589.0000,849.0000 11588.0000,850.0000 L 11563.0000,876.0000 C 11562.0000,877.0000 11560.0000,877.0000 11559.0000,876.0000 C 11558.0000,875.0000 11558.0000,873.0000 11559.0000,872.0000 Z M 11603.0000,829.0000 L 11628.0000,803.0000 C 11629.0000,802.0000 11631.0000,802.0000 11632.0000,803.0000 C 11633.0000,804.0000 11633.0000,806.0000 11632.0000,807.0000 L 11606.0000,832.0000 C 11605.0000,833.0000 11604.0000,833.0000 11603.0000,832.0000 C 11602.0000,831.0000 11602.0000,830.0000 11603.0000,829.0000 Z M 11646.0000,785.0000 L 11671.0000,760.0000 C 11672.0000,759.0000 11674.0000,759.0000 11675.0000,760.0000 C 11676.0000,761.0000 11676.0000,762.0000 11675.0000,763.0000 L 11650.0000,789.0000 C 11649.0000,790.0000 11647.0000,790.0000 11646.0000,789.0000 C 11645.0000,788.0000 11645.0000,786.0000 11646.0000,785.0000 Z M 11690.0000,742.0000 L 11715.0000,716.0000 C 11716.0000,715.0000 11717.0000,715.0000 11718.0000,716.0000 C 11719.0000,717.0000 11719.0000,719.0000 11718.0000,720.0000 L 11693.0000,745.0000 C 11692.0000,746.0000 11691.0000,746.0000 11690.0000,745.0000 C 11689.0000,744.0000 11689.0000,743.0000 11690.0000,742.0000 Z M 11733.0000,698.0000 L 11758.0000,673.0000 C 11759.0000,672.0000 11761.0000,672.0000 11762.0000,673.0000 C 11763.0000,674.0000 11763.0000,676.0000 11762.0000,677.0000 L 11737.0000,702.0000 C 11736.0000,703.0000 11734.0000,703.0000 11733.0000,702.0000 C 11732.0000,701.0000 11732.0000,699.0000 11733.0000,698.0000 Z M 11776.0000,655.0000 L 11802.0000,630.0000 C 11803.0000,629.0000 11804.0000,629.0000 11805.0000,630.0000 C 11806.0000,631.0000 11806.0000,632.0000 11805.0000,633.0000 L 11780.0000,659.0000 C 11779.0000,660.0000 11777.0000,660.0000 11776.0000,659.0000 C 11775.0000,658.0000 11775.0000,656.0000 11776.0000,655.0000 Z "  fill="#000000" stroke="#000000" stroke-width="1.0000"  stroke-linecap="butt"  stroke-linejoin="round" />
</g>
<g transform="matrix(1.0000 0.0000 0.0000 1.0000 0.0000 0.0000)">
</g>
<g transform="matrix(0.0625 0.0000 0.0000 0.0625 0.0000 0.0000)">
<path d="M 7578.0000,19.0000 L 7578.0000,624.0000 L 9392.0000,624.0000 L 9392.0000,19.0000 L 7578.0000,19.0000 Z" stroke-width="1px" stroke="#FFFFFF"  fill="#FFFFFF" />
</g>
<g transform="matrix(1.0000 0.0000 0.0000 1.0000 0.0000 0.0000)">
<defs><clipPath id="clip-596516649"><path d="M 0.0000,0.0000 L 778.0000,0.0000 L 778.0000,192.0000 L 0.0000,192.0000 L 0.0000,0.0000 Z Z" /></clipPath></defs>
</g>
<g transform="matrix(0.0625 0.0000 0.0000 0.0625 0.0000 0.0000)">
<path  clip-path="url(#clip-596516649)" d="M 7578.0000,624.0000 L 9392.0000,624.0000 L 9392.0000,19.0000 L 7578.0000,19.0000 L 7578.0000,624.0000 Z" stroke="#000000" stroke-width="5.0000"  stroke-linecap="round"  stroke-linejoin="round" fill="none" />
</g>
<g transform="matrix(1.0000 0.0000 0.0000 1.0000 0.0000 0.0000)">
</g>
<g transform="matrix(1.0000 0.0000 0.0000 1.0000 511.1241 16.9577)">
<text font-family="Arial" fill="#000000" style ="white-space:pre;" font-weight="400" text-anchor="start" x="0.0000" y="0.0000" font-size="12.0000" ><![CDATA[R]]></text>
</g>
<g transform="matrix(1.0000 0.0000 0.0000 1.0000 519.7902 16.9577)">
<text font-family="Arial" fill="#000000" style ="white-space:pre;" font-weight="400" text-anchor="start" x="0.0000" y="0.0000" font-size="12.0000" ><![CDATA[/]]></text>
</g>
<g transform="matrix(1.0000 0.0000 0.0000 1.0000 523.1241 16.9577)">
<text font-family="Arial" fill="#000000" style ="white-space:pre;" font-weight="400" text-anchor="start" x="0.0000" y="0.0000" font-size="12.0000" ><![CDATA[LCID]]></text>
</g>
<g transform="matrix(1.0000 0.0000 0.0000 1.0000 502.4376 31.3575)">
<text font-family="Arial" fill="#000000" style ="white-space:pre;" font-weight="400" text-anchor="start" x="0.0000" y="0.0000" font-size="12.0000" ><![CDATA[subheader]]></text>
</g>
</g>
</svg>
