<?xml version="1.0"  encoding="UTF-8" standalone="no"?>
<svg version="1.1" xmlns="http://www.w3.org/2000/svg" xmlns:xlink="http://www.w3.org/1999/xlink" width="782.0000" height="193.0000">
<g transform="translate(4.0000, 1.0000)">
<g transform="matrix(0.0625 0.0000 0.0000 0.0625 0.0000 0.0000)">
<path d="M 5764.0000,2438.0000 L 5764.0000,3043.0000 L 7880.0000,3043.0000 L 7880.0000,2438.0000 L 5764.0000,2438.0000 Z" stroke-width="1px" stroke="#FFFFFF"  fill="#FFFFFF" />
</g>
<g transform="matrix(1.0000 0.0000 0.0000 1.0000 0.0000 0.0000)">
</g>
<g transform="matrix(0.0625 0.0000 0.0000 0.0625 0.0000 0.0000)">
<path d="M 5764.0000,3043.0000 L 7880.0000,3043.0000 L 7880.0000,2438.0000 L 5764.0000,2438.0000 L 5764.0000,3043.0000 Z" stroke="#000000" stroke-width="16.0000"  stroke-linecap="round"  stroke-linejoin="round" fill="none" />
</g>
<g transform="matrix(1.0000 0.0000 0.0000 1.0000 0.0000 0.0000)">
</g>
<g transform="matrix(1.0000 0.0000 0.0000 1.0000 385.3659 167.7389)">
<text font-family="Arial" fill="#000000" style ="white-space:pre;" font-weight="400" text-anchor="start" x="0.0000" y="0.0000" font-size="13.0000" ><![CDATA[MAC subPDU ]]></text>
</g>
<g transform="matrix(1.0000 0.0000 0.0000 1.0000 367.2014 183.7390)">
<text font-family="Arial" fill="#000000" style ="white-space:pre;" font-weight="400" text-anchor="start" x="0.0000" y="0.0000" font-size="13.0000" ><![CDATA[including MAC CE ]]></text>
</g>
<g transform="matrix(1.0000 0.0000 0.0000 1.0000 479.0972 183.7390)">
<text font-family="Arial" fill="#000000" style ="white-space:pre;" font-weight="400" text-anchor="start" x="0.0000" y="0.0000" font-size="13.0000" ><![CDATA[1]]></text>
</g>
<g transform="matrix(0.0625 0.0000 0.0000 0.0625 0.0000 0.0000)">
<path d="M 7880.0000,2438.0000 L 7880.0000,3043.0000 L 9997.0000,3043.0000 L 9997.0000,2438.0000 L 7880.0000,2438.0000 Z" stroke-width="1px" stroke="#FFFFFF"  fill="#FFFFFF" />
</g>
<g transform="matrix(1.0000 0.0000 0.0000 1.0000 0.0000 0.0000)">
</g>
<g transform="matrix(0.0625 0.0000 0.0000 0.0625 0.0000 0.0000)">
<path d="M 7880.0000,3043.0000 L 9997.0000,3043.0000 L 9997.0000,2438.0000 L 7880.0000,2438.0000 L 7880.0000,3043.0000 Z" stroke="#000000" stroke-width="16.0000"  stroke-linecap="round"  stroke-linejoin="round" fill="none" />
</g>
<g transform="matrix(1.0000 0.0000 0.0000 1.0000 0.0000 0.0000)">
</g>
<g transform="matrix(1.0000 0.0000 0.0000 1.0000 517.6493 167.7389)">
<text font-family="Arial" fill="#000000" style ="white-space:pre;" font-weight="400" text-anchor="start" x="0.0000" y="0.0000" font-size="13.0000" ><![CDATA[MAC subPDU ]]></text>
</g>
<g transform="matrix(1.0000 0.0000 0.0000 1.0000 499.4849 183.7390)">
<text font-family="Arial" fill="#000000" style ="white-space:pre;" font-weight="400" text-anchor="start" x="0.0000" y="0.0000" font-size="13.0000" ><![CDATA[including MAC CE ]]></text>
</g>
<g transform="matrix(1.0000 0.0000 0.0000 1.0000 611.3806 183.7390)">
<text font-family="Arial" fill="#000000" style ="white-space:pre;" font-weight="400" text-anchor="start" x="0.0000" y="0.0000" font-size="13.0000" ><![CDATA[2]]></text>
</g>
<g transform="matrix(0.0625 0.0000 0.0000 0.0625 0.0000 0.0000)">
<path d="M 2438.0000,2438.0000 L 2438.0000,3043.0000 L 4857.0000,3043.0000 L 4857.0000,2438.0000 L 2438.0000,2438.0000 Z" stroke-width="1px" stroke="#FFFFFF"  fill="#FFFFFF" />
</g>
<g transform="matrix(1.0000 0.0000 0.0000 1.0000 0.0000 0.0000)">
</g>
<g transform="matrix(0.0625 0.0000 0.0000 0.0625 0.0000 0.0000)">
<path d="M 2438.0000,3043.0000 L 4857.0000,3043.0000 L 4857.0000,2438.0000 L 2438.0000,2438.0000 L 2438.0000,3043.0000 Z" stroke="#000000" stroke-width="16.0000"  stroke-linecap="round"  stroke-linejoin="round" fill="none" />
</g>
<g transform="matrix(1.0000 0.0000 0.0000 1.0000 0.0000 0.0000)">
</g>
<g transform="matrix(1.0000 0.0000 0.0000 1.0000 186.9405 167.7389)">
<text font-family="Arial" fill="#000000" style ="white-space:pre;" font-weight="400" text-anchor="start" x="0.0000" y="0.0000" font-size="13.0000" ><![CDATA[MAC subPDU]]></text>
</g>
<g transform="matrix(1.0000 0.0000 0.0000 1.0000 169.5216 183.7390)">
<text font-family="Arial" fill="#000000" style ="white-space:pre;" font-weight="400" text-anchor="start" x="0.0000" y="0.0000" font-size="13.0000" ><![CDATA[including MAC SDU]]></text>
</g>
<g transform="matrix(1.0000 0.0000 0.0000 1.0000 319.0328 175.7033)">
<text font-family="Arial" fill="#000000" style ="white-space:pre;" font-weight="400" text-anchor="start" x="0.0000" y="0.0000" font-size="32.0000" ><![CDATA[...]]></text>
</g>
<g transform="matrix(0.0625 0.0000 0.0000 0.0625 0.0000 0.0000)">
<path d="M 19.0000,2438.0000 L 19.0000,3043.0000 L 2438.0000,3043.0000 L 2438.0000,2438.0000 L 19.0000,2438.0000 Z" stroke-width="1px" stroke="#FFFFFF"  fill="#FFFFFF" />
</g>
<g transform="matrix(1.0000 0.0000 0.0000 1.0000 0.0000 0.0000)">
</g>
<g transform="matrix(0.0625 0.0000 0.0000 0.0625 0.0000 0.0000)">
<path d="M 19.0000,3043.0000 L 2438.0000,3043.0000 L 2438.0000,2438.0000 L 19.0000,2438.0000 L 19.0000,3043.0000 Z" stroke="#000000" stroke-width="16.0000"  stroke-linecap="round"  stroke-linejoin="round" fill="none" />
</g>
<g transform="matrix(1.0000 0.0000 0.0000 1.0000 0.0000 0.0000)">
</g>
<g transform="matrix(1.0000 0.0000 0.0000 1.0000 35.7594 167.7389)">
<text font-family="Arial" fill="#000000" style ="white-space:pre;" font-weight="400" text-anchor="start" x="0.0000" y="0.0000" font-size="13.0000" ><![CDATA[MAC subPDU]]></text>
</g>
<g transform="matrix(1.0000 0.0000 0.0000 1.0000 18.3405 183.7390)">
<text font-family="Arial" fill="#000000" style ="white-space:pre;" font-weight="400" text-anchor="start" x="0.0000" y="0.0000" font-size="13.0000" ><![CDATA[including MAC SDU]]></text>
</g>
<g transform="matrix(0.0625 0.0000 0.0000 0.0625 0.0000 0.0000)">
<path d="M 9997.0000,2438.0000 L 9997.0000,3043.0000 L 12416.0000,3043.0000 L 12416.0000,2438.0000 L 9997.0000,2438.0000 Z" stroke-width="1px" stroke="#FFFFFF"  fill="#FFFFFF" />
</g>
<g transform="matrix(1.0000 0.0000 0.0000 1.0000 0.0000 0.0000)">
</g>
<g transform="matrix(0.0625 0.0000 0.0000 0.0625 0.0000 0.0000)">
<path d="M 9997.0000,3043.0000 L 12416.0000,3043.0000 L 12416.0000,2438.0000 L 9997.0000,2438.0000 L 9997.0000,3043.0000 Z" stroke="#000000" stroke-width="16.0000"  stroke-linecap="round"  stroke-linejoin="round" fill="none" />
</g>
<g transform="matrix(1.0000 0.0000 0.0000 1.0000 0.0000 0.0000)">
</g>
<g transform="matrix(1.0000 0.0000 0.0000 1.0000 631.2139 167.7389)">
<text font-family="Arial" fill="#000000" style ="white-space:pre;" font-weight="400" text-anchor="start" x="0.0000" y="0.0000" font-size="13.0000" ><![CDATA[MAC subPDU including ]]></text>
</g>
<g transform="matrix(1.0000 0.0000 0.0000 1.0000 661.5853 183.7390)">
<text font-family="Arial" fill="#000000" style ="white-space:pre;" font-weight="400" text-anchor="start" x="0.0000" y="0.0000" font-size="13.0000" ><![CDATA[padding ]]></text>
</g>
<g transform="matrix(1.0000 0.0000 0.0000 1.0000 712.7446 183.7390)">
<text font-family="Arial" fill="#000000" style ="white-space:pre;" font-weight="400" text-anchor="start" x="0.0000" y="0.0000" font-size="13.0000" ><![CDATA[(]]></text>
</g>
<g transform="matrix(1.0000 0.0000 0.0000 1.0000 717.1845 183.7390)">
<text font-family="Arial" fill="#000000" style ="white-space:pre;" font-weight="400" text-anchor="start" x="0.0000" y="0.0000" font-size="13.0000" ><![CDATA[opt]]></text>
</g>
<g transform="matrix(1.0000 0.0000 0.0000 1.0000 735.7199 183.7390)">
<text font-family="Arial" fill="#000000" style ="white-space:pre;" font-weight="400" text-anchor="start" x="0.0000" y="0.0000" font-size="13.0000" ><![CDATA[)]]></text>
</g>
<g transform="matrix(0.0625 0.0000 0.0000 0.0625 0.0000 0.0000)">
<path d="M 5756.0000,2438.0000 L 5756.0000,2326.0000 C 5756.0000,2321.0000 5759.0000,2318.0000 5764.0000,2318.0000 C 5768.0000,2318.0000 5772.0000,2321.0000 5772.0000,2326.0000 L 5772.0000,2438.0000 C 5772.0000,2442.0000 5768.0000,2446.0000 5764.0000,2446.0000 C 5759.0000,2446.0000 5756.0000,2442.0000 5756.0000,2438.0000 Z M 5756.0000,2246.0000 L 5756.0000,2134.0000 C 5756.0000,2129.0000 5759.0000,2126.0000 5764.0000,2126.0000 C 5768.0000,2126.0000 5772.0000,2129.0000 5772.0000,2134.0000 L 5772.0000,2246.0000 C 5772.0000,2250.0000 5768.0000,2254.0000 5764.0000,2254.0000 C 5759.0000,2254.0000 5756.0000,2250.0000 5756.0000,2246.0000 Z M 5756.0000,2054.0000 L 5756.0000,1941.0000 C 5756.0000,1937.0000 5759.0000,1933.0000 5764.0000,1933.0000 C 5768.0000,1933.0000 5772.0000,1937.0000 5772.0000,1941.0000 L 5772.0000,2054.0000 C 5772.0000,2058.0000 5768.0000,2062.0000 5764.0000,2062.0000 C 5759.0000,2062.0000 5756.0000,2058.0000 5756.0000,2054.0000 Z M 5756.0000,1861.0000 L 5756.0000,1749.0000 C 5756.0000,1745.0000 5759.0000,1741.0000 5764.0000,1741.0000 C 5768.0000,1741.0000 5772.0000,1745.0000 5772.0000,1749.0000 L 5772.0000,1861.0000 C 5772.0000,1866.0000 5768.0000,1869.0000 5764.0000,1869.0000 C 5759.0000,1869.0000 5756.0000,1866.0000 5756.0000,1861.0000 Z M 5756.0000,1669.0000 L 5756.0000,1557.0000 C 5756.0000,1553.0000 5759.0000,1549.0000 5764.0000,1549.0000 C 5768.0000,1549.0000 5772.0000,1553.0000 5772.0000,1557.0000 L 5772.0000,1669.0000 C 5772.0000,1674.0000 5768.0000,1677.0000 5764.0000,1677.0000 C 5759.0000,1677.0000 5756.0000,1674.0000 5756.0000,1669.0000 Z M 5756.0000,1477.0000 L 5756.0000,1365.0000 C 5756.0000,1360.0000 5759.0000,1357.0000 5764.0000,1357.0000 C 5768.0000,1357.0000 5772.0000,1360.0000 5772.0000,1365.0000 L 5772.0000,1477.0000 C 5772.0000,1481.0000 5768.0000,1485.0000 5764.0000,1485.0000 C 5759.0000,1485.0000 5756.0000,1481.0000 5756.0000,1477.0000 Z M 5756.0000,1285.0000 L 5756.0000,1173.0000 C 5756.0000,1168.0000 5759.0000,1165.0000 5764.0000,1165.0000 C 5768.0000,1165.0000 5772.0000,1168.0000 5772.0000,1173.0000 L 5772.0000,1285.0000 C 5772.0000,1289.0000 5768.0000,1293.0000 5764.0000,1293.0000 C 5759.0000,1293.0000 5756.0000,1289.0000 5756.0000,1285.0000 Z M 5756.0000,1093.0000 L 5756.0000,980.0000 C 5756.0000,976.0000 5759.0000,972.0000 5764.0000,972.0000 C 5768.0000,972.0000 5772.0000,976.0000 5772.0000,980.0000 L 5772.0000,1093.0000 C 5772.0000,1097.0000 5768.0000,1101.0000 5764.0000,1101.0000 C 5759.0000,1101.0000 5756.0000,1097.0000 5756.0000,1093.0000 Z M 5756.0000,900.0000 L 5756.0000,788.0000 C 5756.0000,784.0000 5759.0000,780.0000 5764.0000,780.0000 C 5768.0000,780.0000 5772.0000,784.0000 5772.0000,788.0000 L 5772.0000,900.0000 C 5772.0000,905.0000 5768.0000,908.0000 5764.0000,908.0000 C 5759.0000,908.0000 5756.0000,905.0000 5756.0000,900.0000 Z M 5756.0000,708.0000 L 5756.0000,624.0000 C 5756.0000,619.0000 5759.0000,616.0000 5764.0000,616.0000 C 5768.0000,616.0000 5772.0000,619.0000 5772.0000,624.0000 L 5772.0000,708.0000 C 5772.0000,713.0000 5768.0000,716.0000 5764.0000,716.0000 C 5759.0000,716.0000 5756.0000,713.0000 5756.0000,708.0000 Z "  fill="#000000" stroke="#000000" stroke-width="1.0000"  stroke-linecap="butt"  stroke-linejoin="round" />
</g>
<g transform="matrix(1.0000 0.0000 0.0000 1.0000 0.0000 0.0000)">
</g>
<g transform="matrix(0.0625 0.0000 0.0000 0.0625 0.0000 0.0000)">
<path d="M 5764.0000,19.0000 L 5764.0000,624.0000 L 6973.0000,624.0000 L 6973.0000,19.0000 L 5764.0000,19.0000 Z" stroke-width="1px" stroke="#FFFFFF"  fill="#FFFFFF" />
</g>
<g transform="matrix(1.0000 0.0000 0.0000 1.0000 0.0000 0.0000)">
</g>
<g transform="matrix(0.0625 0.0000 0.0000 0.0625 0.0000 0.0000)">
<path d="M 5764.0000,624.0000 L 6973.0000,624.0000 L 6973.0000,19.0000 L 5764.0000,19.0000 L 5764.0000,624.0000 Z" stroke="#000000" stroke-width="16.0000"  stroke-linecap="round"  stroke-linejoin="round" fill="none" />
</g>
<g transform="matrix(1.0000 0.0000 0.0000 1.0000 0.0000 0.0000)">
</g>
<g transform="matrix(1.0000 0.0000 0.0000 1.0000 378.8404 16.9577)">
<text font-family="Arial" fill="#000000" style ="white-space:pre;" font-weight="400" text-anchor="start" x="0.0000" y="0.0000" font-size="12.0000" ><![CDATA[R]]></text>
</g>
<g transform="matrix(1.0000 0.0000 0.0000 1.0000 387.5064 16.9577)">
<text font-family="Arial" fill="#000000" style ="white-space:pre;" font-weight="400" text-anchor="start" x="0.0000" y="0.0000" font-size="12.0000" ><![CDATA[/]]></text>
</g>
<g transform="matrix(1.0000 0.0000 0.0000 1.0000 390.8404 16.9577)">
<text font-family="Arial" fill="#000000" style ="white-space:pre;" font-weight="400" text-anchor="start" x="0.0000" y="0.0000" font-size="12.0000" ><![CDATA[LCID ]]></text>
</g>
<g transform="matrix(1.0000 0.0000 0.0000 1.0000 370.1538 31.3575)">
<text font-family="Arial" fill="#000000" style ="white-space:pre;" font-weight="400" text-anchor="start" x="0.0000" y="0.0000" font-size="12.0000" ><![CDATA[subheader]]></text>
</g>
<g transform="matrix(0.0625 0.0000 0.0000 0.0625 0.0000 0.0000)">
<path d="M 6973.0000,19.0000 L 6973.0000,624.0000 L 8485.0000,624.0000 L 8485.0000,19.0000 L 6973.0000,19.0000 Z" stroke-width="1px" stroke="#FFFFFF"  fill="#FFFFFF" />
</g>
<g transform="matrix(1.0000 0.0000 0.0000 1.0000 0.0000 0.0000)">
</g>
<g transform="matrix(0.0625 0.0000 0.0000 0.0625 0.0000 0.0000)">
<path d="M 6973.0000,624.0000 L 8485.0000,624.0000 L 8485.0000,19.0000 L 6973.0000,19.0000 L 6973.0000,624.0000 Z" stroke="#000000" stroke-width="16.0000"  stroke-linecap="round"  stroke-linejoin="round" fill="none" />
</g>
<g transform="matrix(1.0000 0.0000 0.0000 1.0000 0.0000 0.0000)">
</g>
<g transform="matrix(1.0000 0.0000 0.0000 1.0000 452.8730 16.9577)">
<text font-family="Arial" fill="#000000" style ="white-space:pre;" font-weight="400" text-anchor="start" x="0.0000" y="0.0000" font-size="12.0000" ><![CDATA[Fixed]]></text>
</g>
<g transform="matrix(1.0000 0.0000 0.0000 1.0000 482.2168 16.9577)">
<text font-family="Arial" fill="#000000" style ="white-space:pre;" font-weight="400" text-anchor="start" x="0.0000" y="0.0000" font-size="12.0000" ><![CDATA[-]]></text>
</g>
<g transform="matrix(1.0000 0.0000 0.0000 1.0000 486.2129 16.9577)">
<text font-family="Arial" fill="#000000" style ="white-space:pre;" font-weight="400" text-anchor="start" x="0.0000" y="0.0000" font-size="12.0000" ><![CDATA[sized ]]></text>
</g>
<g transform="matrix(1.0000 0.0000 0.0000 1.0000 460.2148 31.3575)">
<text font-family="Arial" fill="#000000" style ="white-space:pre;" font-weight="400" text-anchor="start" x="0.0000" y="0.0000" font-size="12.0000" ><![CDATA[MAC CE]]></text>
</g>
<g transform="matrix(0.0625 0.0000 0.0000 0.0625 0.0000 0.0000)">
<path d="M 7873.0000,2435.0000 L 7908.0000,2329.0000 C 7910.0000,2325.0000 7914.0000,2323.0000 7918.0000,2324.0000 C 7923.0000,2325.0000 7925.0000,2330.0000 7923.0000,2334.0000 L 7888.0000,2440.0000 C 7887.0000,2445.0000 7882.0000,2447.0000 7878.0000,2446.0000 C 7874.0000,2444.0000 7871.0000,2440.0000 7873.0000,2435.0000 Z M 7934.0000,2253.0000 L 7969.0000,2147.0000 C 7970.0000,2143.0000 7975.0000,2140.0000 7979.0000,2142.0000 C 7983.0000,2143.0000 7986.0000,2148.0000 7984.0000,2152.0000 L 7949.0000,2258.0000 C 7947.0000,2262.0000 7943.0000,2265.0000 7939.0000,2263.0000 C 7934.0000,2262.0000 7932.0000,2257.0000 7934.0000,2253.0000 Z M 7994.0000,2071.0000 L 8030.0000,1964.0000 C 8031.0000,1960.0000 8036.0000,1958.0000 8040.0000,1959.0000 C 8044.0000,1961.0000 8046.0000,1965.0000 8045.0000,1969.0000 L 8010.0000,2076.0000 C 8008.0000,2080.0000 8004.0000,2082.0000 7999.0000,2081.0000 C 7995.0000,2079.0000 7993.0000,2075.0000 7994.0000,2071.0000 Z M 8055.0000,1888.0000 L 8091.0000,1782.0000 C 8092.0000,1778.0000 8097.0000,1776.0000 8101.0000,1777.0000 C 8105.0000,1778.0000 8107.0000,1783.0000 8106.0000,1787.0000 L 8070.0000,1893.0000 C 8069.0000,1898.0000 8064.0000,1900.0000 8060.0000,1899.0000 C 8056.0000,1897.0000 8054.0000,1893.0000 8055.0000,1888.0000 Z M 8116.0000,1706.0000 L 8151.0000,1600.0000 C 8153.0000,1596.0000 8157.0000,1593.0000 8162.0000,1595.0000 C 8166.0000,1596.0000 8168.0000,1601.0000 8167.0000,1605.0000 L 8131.0000,1711.0000 C 8130.0000,1715.0000 8125.0000,1718.0000 8121.0000,1716.0000 C 8117.0000,1715.0000 8115.0000,1710.0000 8116.0000,1706.0000 Z M 8177.0000,1524.0000 L 8212.0000,1417.0000 C 8214.0000,1413.0000 8218.0000,1411.0000 8222.0000,1412.0000 C 8227.0000,1414.0000 8229.0000,1418.0000 8227.0000,1422.0000 L 8192.0000,1529.0000 C 8191.0000,1533.0000 8186.0000,1535.0000 8182.0000,1534.0000 C 8178.0000,1532.0000 8175.0000,1528.0000 8177.0000,1524.0000 Z M 8238.0000,1341.0000 L 8273.0000,1235.0000 C 8274.0000,1231.0000 8279.0000,1229.0000 8283.0000,1230.0000 C 8287.0000,1231.0000 8290.0000,1236.0000 8288.0000,1240.0000 L 8253.0000,1346.0000 C 8251.0000,1351.0000 8247.0000,1353.0000 8243.0000,1352.0000 C 8238.0000,1350.0000 8236.0000,1346.0000 8238.0000,1341.0000 Z M 8298.0000,1159.0000 L 8334.0000,1053.0000 C 8335.0000,1049.0000 8340.0000,1046.0000 8344.0000,1048.0000 C 8348.0000,1049.0000 8350.0000,1054.0000 8349.0000,1058.0000 L 8313.0000,1164.0000 C 8312.0000,1168.0000 8308.0000,1171.0000 8303.0000,1169.0000 C 8299.0000,1168.0000 8297.0000,1163.0000 8298.0000,1159.0000 Z M 8359.0000,977.0000 L 8395.0000,870.0000 C 8396.0000,866.0000 8400.0000,864.0000 8405.0000,865.0000 C 8409.0000,867.0000 8411.0000,871.0000 8410.0000,875.0000 L 8374.0000,982.0000 C 8373.0000,986.0000 8368.0000,988.0000 8364.0000,987.0000 C 8360.0000,985.0000 8358.0000,981.0000 8359.0000,977.0000 Z M 8420.0000,794.0000 L 8455.0000,688.0000 C 8457.0000,684.0000 8461.0000,682.0000 8465.0000,683.0000 C 8470.0000,684.0000 8472.0000,689.0000 8470.0000,693.0000 L 8435.0000,799.0000 C 8434.0000,804.0000 8429.0000,806.0000 8425.0000,805.0000 C 8421.0000,803.0000 8418.0000,799.0000 8420.0000,794.0000 Z "  fill="#000000" stroke="#000000" stroke-width="1.0000"  stroke-linecap="butt"  stroke-linejoin="round" />
</g>
<g transform="matrix(1.0000 0.0000 0.0000 1.0000 0.0000 0.0000)">
</g>
<g transform="matrix(0.0625 0.0000 0.0000 0.0625 0.0000 0.0000)">
<path d="M 8788.0000,19.0000 L 8788.0000,624.0000 L 9997.0000,624.0000 L 9997.0000,19.0000 L 8788.0000,19.0000 Z" stroke-width="1px" stroke="#FFFFFF"  fill="#FFFFFF" />
</g>
<g transform="matrix(1.0000 0.0000 0.0000 1.0000 0.0000 0.0000)">
</g>
<g transform="matrix(0.0625 0.0000 0.0000 0.0625 0.0000 0.0000)">
<path d="M 8788.0000,624.0000 L 9997.0000,624.0000 L 9997.0000,19.0000 L 8788.0000,19.0000 L 8788.0000,624.0000 Z" stroke="#000000" stroke-width="16.0000"  stroke-linecap="round"  stroke-linejoin="round" fill="none" />
</g>
<g transform="matrix(1.0000 0.0000 0.0000 1.0000 0.0000 0.0000)">
</g>
<g transform="matrix(1.0000 0.0000 0.0000 1.0000 557.4808 16.9577)">
<text font-family="Arial" fill="#000000" style ="white-space:pre;" font-weight="400" text-anchor="start" x="0.0000" y="0.0000" font-size="12.0000" ><![CDATA[R]]></text>
</g>
<g transform="matrix(1.0000 0.0000 0.0000 1.0000 566.1469 16.9577)">
<text font-family="Arial" fill="#000000" style ="white-space:pre;" font-weight="400" text-anchor="start" x="0.0000" y="0.0000" font-size="12.0000" ><![CDATA[/]]></text>
</g>
<g transform="matrix(1.0000 0.0000 0.0000 1.0000 569.4808 16.9577)">
<text font-family="Arial" fill="#000000" style ="white-space:pre;" font-weight="400" text-anchor="start" x="0.0000" y="0.0000" font-size="12.0000" ><![CDATA[F]]></text>
</g>
<g transform="matrix(1.0000 0.0000 0.0000 1.0000 576.8109 16.9577)">
<text font-family="Arial" fill="#000000" style ="white-space:pre;" font-weight="400" text-anchor="start" x="0.0000" y="0.0000" font-size="12.0000" ><![CDATA[/]]></text>
</g>
<g transform="matrix(1.0000 0.0000 0.0000 1.0000 580.1449 16.9577)">
<text font-family="Arial" fill="#000000" style ="white-space:pre;" font-weight="400" text-anchor="start" x="0.0000" y="0.0000" font-size="12.0000" ><![CDATA[LCID]]></text>
</g>
<g transform="matrix(1.0000 0.0000 0.0000 1.0000 607.4847 16.9577)">
<text font-family="Arial" fill="#000000" style ="white-space:pre;" font-weight="400" text-anchor="start" x="0.0000" y="0.0000" font-size="12.0000" ><![CDATA[/]]></text>
</g>
<g transform="matrix(1.0000 0.0000 0.0000 1.0000 610.8187 16.9577)">
<text font-family="Arial" fill="#000000" style ="white-space:pre;" font-weight="400" text-anchor="start" x="0.0000" y="0.0000" font-size="12.0000" ><![CDATA[L ]]></text>
</g>
<g transform="matrix(1.0000 0.0000 0.0000 1.0000 559.1302 31.3575)">
<text font-family="Arial" fill="#000000" style ="white-space:pre;" font-weight="400" text-anchor="start" x="0.0000" y="0.0000" font-size="12.0000" ><![CDATA[subheader]]></text>
</g>
<g transform="matrix(0.0625 0.0000 0.0000 0.0625 0.0000 0.0000)">
<path d="M 9997.0000,19.0000 L 9997.0000,624.0000 L 11509.0000,624.0000 L 11509.0000,19.0000 L 9997.0000,19.0000 Z" stroke-width="1px" stroke="#FFFFFF"  fill="#FFFFFF" />
</g>
<g transform="matrix(1.0000 0.0000 0.0000 1.0000 0.0000 0.0000)">
</g>
<g transform="matrix(0.0625 0.0000 0.0000 0.0625 0.0000 0.0000)">
<path d="M 9997.0000,624.0000 L 11509.0000,624.0000 L 11509.0000,19.0000 L 9997.0000,19.0000 L 9997.0000,624.0000 Z" stroke="#000000" stroke-width="16.0000"  stroke-linecap="round"  stroke-linejoin="round" fill="none" />
</g>
<g transform="matrix(1.0000 0.0000 0.0000 1.0000 0.0000 0.0000)">
</g>
<g transform="matrix(1.0000 0.0000 0.0000 1.0000 634.5076 16.9577)">
<text font-family="Arial" fill="#000000" style ="white-space:pre;" font-weight="400" text-anchor="start" x="0.0000" y="0.0000" font-size="12.0000" ><![CDATA[Variable]]></text>
</g>
<g transform="matrix(1.0000 0.0000 0.0000 1.0000 678.5350 16.9577)">
<text font-family="Arial" fill="#000000" style ="white-space:pre;" font-weight="400" text-anchor="start" x="0.0000" y="0.0000" font-size="12.0000" ><![CDATA[-]]></text>
</g>
<g transform="matrix(1.0000 0.0000 0.0000 1.0000 682.5311 16.9577)">
<text font-family="Arial" fill="#000000" style ="white-space:pre;" font-weight="400" text-anchor="start" x="0.0000" y="0.0000" font-size="12.0000" ><![CDATA[sized ]]></text>
</g>
<g transform="matrix(1.0000 0.0000 0.0000 1.0000 649.1912 31.3575)">
<text font-family="Arial" fill="#000000" style ="white-space:pre;" font-weight="400" text-anchor="start" x="0.0000" y="0.0000" font-size="12.0000" ><![CDATA[MAC CE]]></text>
</g>
<g transform="matrix(0.0625 0.0000 0.0000 0.0625 0.0000 0.0000)">
<path d="M 7873.0000,2434.0000 L 7923.0000,2334.0000 C 7925.0000,2330.0000 7930.0000,2329.0000 7934.0000,2330.0000 C 7938.0000,2332.0000 7940.0000,2337.0000 7938.0000,2341.0000 L 7888.0000,2442.0000 C 7886.0000,2445.0000 7881.0000,2447.0000 7877.0000,2445.0000 C 7873.0000,2443.0000 7871.0000,2438.0000 7873.0000,2434.0000 Z M 7959.0000,2262.0000 L 8009.0000,2162.0000 C 8011.0000,2158.0000 8016.0000,2157.0000 8020.0000,2159.0000 C 8024.0000,2161.0000 8026.0000,2165.0000 8024.0000,2169.0000 L 7974.0000,2270.0000 C 7972.0000,2274.0000 7967.0000,2275.0000 7963.0000,2273.0000 C 7959.0000,2271.0000 7957.0000,2266.0000 7959.0000,2262.0000 Z M 8045.0000,2091.0000 L 8095.0000,1990.0000 C 8097.0000,1986.0000 8102.0000,1985.0000 8106.0000,1987.0000 C 8110.0000,1989.0000 8112.0000,1993.0000 8110.0000,1997.0000 L 8060.0000,2098.0000 C 8058.0000,2102.0000 8053.0000,2103.0000 8049.0000,2101.0000 C 8045.0000,2099.0000 8043.0000,2094.0000 8045.0000,2091.0000 Z M 8131.0000,1919.0000 L 8181.0000,1818.0000 C 8183.0000,1814.0000 8188.0000,1813.0000 8192.0000,1815.0000 C 8196.0000,1817.0000 8198.0000,1822.0000 8196.0000,1826.0000 L 8145.0000,1926.0000 C 8143.0000,1930.0000 8139.0000,1931.0000 8135.0000,1929.0000 C 8131.0000,1927.0000 8129.0000,1923.0000 8131.0000,1919.0000 Z M 8217.0000,1747.0000 L 8267.0000,1646.0000 C 8269.0000,1643.0000 8274.0000,1641.0000 8278.0000,1643.0000 C 8282.0000,1645.0000 8284.0000,1650.0000 8282.0000,1654.0000 L 8231.0000,1754.0000 C 8229.0000,1758.0000 8225.0000,1759.0000 8221.0000,1757.0000 C 8217.0000,1756.0000 8215.0000,1751.0000 8217.0000,1747.0000 Z M 8303.0000,1575.0000 L 8353.0000,1475.0000 C 8355.0000,1471.0000 8360.0000,1469.0000 8364.0000,1471.0000 C 8368.0000,1473.0000 8369.0000,1478.0000 8367.0000,1482.0000 L 8317.0000,1582.0000 C 8315.0000,1586.0000 8311.0000,1588.0000 8307.0000,1586.0000 C 8303.0000,1584.0000 8301.0000,1579.0000 8303.0000,1575.0000 Z M 8389.0000,1403.0000 L 8439.0000,1303.0000 C 8441.0000,1299.0000 8446.0000,1297.0000 8450.0000,1299.0000 C 8454.0000,1301.0000 8455.0000,1306.0000 8453.0000,1310.0000 L 8403.0000,1410.0000 C 8401.0000,1414.0000 8397.0000,1416.0000 8393.0000,1414.0000 C 8389.0000,1412.0000 8387.0000,1407.0000 8389.0000,1403.0000 Z M 8475.0000,1231.0000 L 8525.0000,1131.0000 C 8527.0000,1127.0000 8532.0000,1125.0000 8536.0000,1127.0000 C 8540.0000,1129.0000 8541.0000,1134.0000 8539.0000,1138.0000 L 8489.0000,1238.0000 C 8487.0000,1242.0000 8482.0000,1244.0000 8479.0000,1242.0000 C 8475.0000,1240.0000 8473.0000,1235.0000 8475.0000,1231.0000 Z M 8561.0000,1059.0000 L 8611.0000,959.0000 C 8613.0000,955.0000 8618.0000,953.0000 8622.0000,955.0000 C 8626.0000,957.0000 8627.0000,962.0000 8625.0000,966.0000 L 8575.0000,1066.0000 C 8573.0000,1070.0000 8568.0000,1072.0000 8564.0000,1070.0000 C 8561.0000,1068.0000 8559.0000,1063.0000 8561.0000,1059.0000 Z M 8647.0000,887.0000 L 8697.0000,787.0000 C 8699.0000,783.0000 8704.0000,781.0000 8708.0000,783.0000 C 8712.0000,785.0000 8713.0000,790.0000 8711.0000,794.0000 L 8661.0000,894.0000 C 8659.0000,898.0000 8654.0000,900.0000 8650.0000,898.0000 C 8646.0000,896.0000 8645.0000,891.0000 8647.0000,887.0000 Z M 8733.0000,715.0000 L 8780.0000,620.0000 C 8782.0000,616.0000 8787.0000,615.0000 8791.0000,617.0000 C 8795.0000,619.0000 8797.0000,623.0000 8795.0000,627.0000 L 8747.0000,722.0000 C 8745.0000,726.0000 8740.0000,728.0000 8736.0000,726.0000 C 8732.0000,724.0000 8731.0000,719.0000 8733.0000,715.0000 Z "  fill="#000000" stroke="#000000" stroke-width="1.0000"  stroke-linecap="butt"  stroke-linejoin="round" />
</g>
<g transform="matrix(1.0000 0.0000 0.0000 1.0000 0.0000 0.0000)">
</g>
<g transform="matrix(0.0625 0.0000 0.0000 0.0625 0.0000 0.0000)">
<path d="M 9991.0000,2433.0000 L 10063.0000,2347.0000 C 10065.0000,2343.0000 10070.0000,2343.0000 10074.0000,2346.0000 C 10077.0000,2348.0000 10078.0000,2354.0000 10075.0000,2357.0000 L 10003.0000,2443.0000 C 10000.0000,2446.0000 9995.0000,2447.0000 9992.0000,2444.0000 C 9988.0000,2441.0000 9988.0000,2436.0000 9991.0000,2433.0000 Z M 10114.0000,2285.0000 L 10186.0000,2199.0000 C 10188.0000,2196.0000 10194.0000,2195.0000 10197.0000,2198.0000 C 10200.0000,2201.0000 10201.0000,2206.0000 10198.0000,2209.0000 L 10126.0000,2295.0000 C 10123.0000,2299.0000 10118.0000,2299.0000 10115.0000,2296.0000 C 10111.0000,2294.0000 10111.0000,2289.0000 10114.0000,2285.0000 Z M 10237.0000,2138.0000 L 10309.0000,2051.0000 C 10312.0000,2048.0000 10317.0000,2048.0000 10320.0000,2050.0000 C 10323.0000,2053.0000 10324.0000,2058.0000 10321.0000,2062.0000 L 10249.0000,2148.0000 C 10246.0000,2151.0000 10241.0000,2152.0000 10238.0000,2149.0000 C 10235.0000,2146.0000 10234.0000,2141.0000 10237.0000,2138.0000 Z M 10360.0000,1990.0000 L 10432.0000,1904.0000 C 10435.0000,1900.0000 10440.0000,1900.0000 10443.0000,1903.0000 C 10446.0000,1906.0000 10447.0000,1911.0000 10444.0000,1914.0000 L 10372.0000,2000.0000 C 10369.0000,2004.0000 10364.0000,2004.0000 10361.0000,2001.0000 C 10358.0000,1998.0000 10357.0000,1993.0000 10360.0000,1990.0000 Z M 10483.0000,1842.0000 L 10555.0000,1756.0000 C 10558.0000,1753.0000 10563.0000,1752.0000 10566.0000,1755.0000 C 10569.0000,1758.0000 10570.0000,1763.0000 10567.0000,1766.0000 L 10495.0000,1852.0000 C 10492.0000,1856.0000 10487.0000,1856.0000 10484.0000,1853.0000 C 10481.0000,1851.0000 10480.0000,1846.0000 10483.0000,1842.0000 Z M 10606.0000,1695.0000 L 10678.0000,1608.0000 C 10681.0000,1605.0000 10686.0000,1605.0000 10689.0000,1607.0000 C 10692.0000,1610.0000 10693.0000,1615.0000 10690.0000,1619.0000 L 10618.0000,1705.0000 C 10615.0000,1708.0000 10610.0000,1709.0000 10607.0000,1706.0000 C 10604.0000,1703.0000 10603.0000,1698.0000 10606.0000,1695.0000 Z M 10729.0000,1547.0000 L 10801.0000,1461.0000 C 10804.0000,1457.0000 10809.0000,1457.0000 10812.0000,1460.0000 C 10816.0000,1463.0000 10816.0000,1468.0000 10813.0000,1471.0000 L 10741.0000,1557.0000 C 10739.0000,1561.0000 10733.0000,1561.0000 10730.0000,1558.0000 C 10727.0000,1555.0000 10726.0000,1550.0000 10729.0000,1547.0000 Z M 10852.0000,1399.0000 L 10924.0000,1313.0000 C 10927.0000,1310.0000 10932.0000,1309.0000 10935.0000,1312.0000 C 10939.0000,1315.0000 10939.0000,1320.0000 10936.0000,1323.0000 L 10864.0000,1410.0000 C 10862.0000,1413.0000 10857.0000,1413.0000 10853.0000,1411.0000 C 10850.0000,1408.0000 10849.0000,1403.0000 10852.0000,1399.0000 Z M 10975.0000,1252.0000 L 11047.0000,1166.0000 C 11050.0000,1162.0000 11055.0000,1162.0000 11058.0000,1164.0000 C 11062.0000,1167.0000 11062.0000,1172.0000 11059.0000,1176.0000 L 10987.0000,1262.0000 C 10985.0000,1265.0000 10980.0000,1266.0000 10976.0000,1263.0000 C 10973.0000,1260.0000 10972.0000,1255.0000 10975.0000,1252.0000 Z M 11098.0000,1104.0000 L 11170.0000,1018.0000 C 11173.0000,1014.0000 11178.0000,1014.0000 11181.0000,1017.0000 C 11185.0000,1020.0000 11185.0000,1025.0000 11182.0000,1028.0000 L 11110.0000,1114.0000 C 11108.0000,1118.0000 11103.0000,1118.0000 11099.0000,1115.0000 C 11096.0000,1112.0000 11095.0000,1107.0000 11098.0000,1104.0000 Z M 11221.0000,956.0000 L 11293.0000,870.0000 C 11296.0000,867.0000 11301.0000,866.0000 11304.0000,869.0000 C 11308.0000,872.0000 11308.0000,877.0000 11305.0000,880.0000 L 11234.0000,967.0000 C 11231.0000,970.0000 11226.0000,970.0000 11222.0000,968.0000 C 11219.0000,965.0000 11218.0000,960.0000 11221.0000,956.0000 Z M 11344.0000,809.0000 L 11416.0000,723.0000 C 11419.0000,719.0000 11424.0000,719.0000 11427.0000,722.0000 C 11431.0000,724.0000 11431.0000,729.0000 11428.0000,733.0000 L 11357.0000,819.0000 C 11354.0000,822.0000 11349.0000,823.0000 11345.0000,820.0000 C 11342.0000,817.0000 11341.0000,812.0000 11344.0000,809.0000 Z M 11467.0000,661.0000 L 11503.0000,619.0000 C 11505.0000,615.0000 11511.0000,615.0000 11514.0000,618.0000 C 11517.0000,620.0000 11518.0000,625.0000 11515.0000,629.0000 L 11480.0000,671.0000 C 11477.0000,675.0000 11472.0000,675.0000 11468.0000,672.0000 C 11465.0000,669.0000 11464.0000,664.0000 11467.0000,661.0000 Z "  fill="#000000" stroke="#000000" stroke-width="1.0000"  stroke-linecap="butt"  stroke-linejoin="round" />
</g>
<g transform="matrix(1.0000 0.0000 0.0000 1.0000 0.0000 0.0000)">
</g>
<g transform="matrix(0.0625 0.0000 0.0000 0.0625 0.0000 0.0000)">
<path d="M 19.0000,19.0000 L 19.0000,624.0000 L 1228.0000,624.0000 L 1228.0000,19.0000 L 19.0000,19.0000 Z" stroke-width="1px" stroke="#FFFFFF"  fill="#FFFFFF" />
</g>
<g transform="matrix(1.0000 0.0000 0.0000 1.0000 0.0000 0.0000)">
</g>
<g transform="matrix(0.0625 0.0000 0.0000 0.0625 0.0000 0.0000)">
<path d="M 19.0000,624.0000 L 1228.0000,624.0000 L 1228.0000,19.0000 L 19.0000,19.0000 L 19.0000,624.0000 Z" stroke="#000000" stroke-width="16.0000"  stroke-linecap="round"  stroke-linejoin="round" fill="none" />
</g>
<g transform="matrix(1.0000 0.0000 0.0000 1.0000 0.0000 0.0000)">
</g>
<g transform="matrix(1.0000 0.0000 0.0000 1.0000 9.4493 16.9577)">
<text font-family="Arial" fill="#000000" style ="white-space:pre;" font-weight="400" text-anchor="start" x="0.0000" y="0.0000" font-size="12.0000" ><![CDATA[R]]></text>
</g>
<g transform="matrix(1.0000 0.0000 0.0000 1.0000 18.1153 16.9577)">
<text font-family="Arial" fill="#000000" style ="white-space:pre;" font-weight="400" text-anchor="start" x="0.0000" y="0.0000" font-size="12.0000" ><![CDATA[/]]></text>
</g>
<g transform="matrix(1.0000 0.0000 0.0000 1.0000 21.4493 16.9577)">
<text font-family="Arial" fill="#000000" style ="white-space:pre;" font-weight="400" text-anchor="start" x="0.0000" y="0.0000" font-size="12.0000" ><![CDATA[F]]></text>
</g>
<g transform="matrix(1.0000 0.0000 0.0000 1.0000 28.7794 16.9577)">
<text font-family="Arial" fill="#000000" style ="white-space:pre;" font-weight="400" text-anchor="start" x="0.0000" y="0.0000" font-size="12.0000" ><![CDATA[/]]></text>
</g>
<g transform="matrix(1.0000 0.0000 0.0000 1.0000 32.1134 16.9577)">
<text font-family="Arial" fill="#000000" style ="white-space:pre;" font-weight="400" text-anchor="start" x="0.0000" y="0.0000" font-size="12.0000" ><![CDATA[LCID]]></text>
</g>
<g transform="matrix(1.0000 0.0000 0.0000 1.0000 59.4532 16.9577)">
<text font-family="Arial" fill="#000000" style ="white-space:pre;" font-weight="400" text-anchor="start" x="0.0000" y="0.0000" font-size="12.0000" ><![CDATA[/]]></text>
</g>
<g transform="matrix(1.0000 0.0000 0.0000 1.0000 62.7872 16.9577)">
<text font-family="Arial" fill="#000000" style ="white-space:pre;" font-weight="400" text-anchor="start" x="0.0000" y="0.0000" font-size="12.0000" ><![CDATA[L ]]></text>
</g>
<g transform="matrix(1.0000 0.0000 0.0000 1.0000 11.0987 31.3575)">
<text font-family="Arial" fill="#000000" style ="white-space:pre;" font-weight="400" text-anchor="start" x="0.0000" y="0.0000" font-size="12.0000" ><![CDATA[subheader]]></text>
</g>
<g transform="matrix(0.0625 0.0000 0.0000 0.0625 0.0000 0.0000)">
<path d="M 1228.0000,19.0000 L 1228.0000,624.0000 L 3345.0000,624.0000 L 3345.0000,19.0000 L 1228.0000,19.0000 Z" stroke-width="1px" stroke="#FFFFFF"  fill="#FFFFFF" />
</g>
<g transform="matrix(1.0000 0.0000 0.0000 1.0000 0.0000 0.0000)">
</g>
<g transform="matrix(0.0625 0.0000 0.0000 0.0625 0.0000 0.0000)">
<path d="M 1228.0000,624.0000 L 3345.0000,624.0000 L 3345.0000,19.0000 L 1228.0000,19.0000 L 1228.0000,624.0000 Z" stroke="#000000" stroke-width="16.0000"  stroke-linecap="round"  stroke-linejoin="round" fill="none" />
</g>
<g transform="matrix(1.0000 0.0000 0.0000 1.0000 0.0000 0.0000)">
</g>
<g transform="matrix(1.0000 0.0000 0.0000 1.0000 115.7243 24.1578)">
<text font-family="Arial" fill="#000000" style ="white-space:pre;" font-weight="400" text-anchor="start" x="0.0000" y="0.0000" font-size="12.0000" ><![CDATA[MAC SDU]]></text>
</g>
<g transform="matrix(0.0625 0.0000 0.0000 0.0625 0.0000 0.0000)">
<path d="M 2431.0000,2434.0000 L 2481.0000,2334.0000 C 2483.0000,2330.0000 2488.0000,2329.0000 2492.0000,2330.0000 C 2496.0000,2332.0000 2497.0000,2337.0000 2495.0000,2341.0000 L 2445.0000,2442.0000 C 2443.0000,2445.0000 2438.0000,2447.0000 2434.0000,2445.0000 C 2430.0000,2443.0000 2429.0000,2438.0000 2431.0000,2434.0000 Z M 2517.0000,2262.0000 L 2567.0000,2162.0000 C 2569.0000,2158.0000 2574.0000,2157.0000 2578.0000,2159.0000 C 2582.0000,2161.0000 2583.0000,2165.0000 2581.0000,2169.0000 L 2531.0000,2270.0000 C 2529.0000,2274.0000 2524.0000,2275.0000 2520.0000,2273.0000 C 2516.0000,2271.0000 2515.0000,2266.0000 2517.0000,2262.0000 Z M 2603.0000,2091.0000 L 2653.0000,1990.0000 C 2655.0000,1986.0000 2660.0000,1985.0000 2664.0000,1987.0000 C 2668.0000,1989.0000 2669.0000,1993.0000 2667.0000,1997.0000 L 2617.0000,2098.0000 C 2615.0000,2102.0000 2610.0000,2103.0000 2606.0000,2101.0000 C 2602.0000,2099.0000 2601.0000,2094.0000 2603.0000,2091.0000 Z M 2689.0000,1919.0000 L 2739.0000,1818.0000 C 2741.0000,1814.0000 2746.0000,1813.0000 2749.0000,1815.0000 C 2753.0000,1817.0000 2755.0000,1822.0000 2753.0000,1826.0000 L 2703.0000,1926.0000 C 2701.0000,1930.0000 2696.0000,1931.0000 2692.0000,1929.0000 C 2688.0000,1927.0000 2687.0000,1923.0000 2689.0000,1919.0000 Z M 2775.0000,1747.0000 L 2825.0000,1646.0000 C 2827.0000,1643.0000 2831.0000,1641.0000 2835.0000,1643.0000 C 2839.0000,1645.0000 2841.0000,1650.0000 2839.0000,1654.0000 L 2789.0000,1754.0000 C 2787.0000,1758.0000 2782.0000,1759.0000 2778.0000,1757.0000 C 2774.0000,1756.0000 2773.0000,1751.0000 2775.0000,1747.0000 Z M 2861.0000,1575.0000 L 2911.0000,1475.0000 C 2913.0000,1471.0000 2917.0000,1469.0000 2921.0000,1471.0000 C 2925.0000,1473.0000 2927.0000,1478.0000 2925.0000,1482.0000 L 2875.0000,1582.0000 C 2873.0000,1586.0000 2868.0000,1588.0000 2864.0000,1586.0000 C 2860.0000,1584.0000 2859.0000,1579.0000 2861.0000,1575.0000 Z M 2946.0000,1403.0000 L 2997.0000,1303.0000 C 2999.0000,1299.0000 3003.0000,1297.0000 3007.0000,1299.0000 C 3011.0000,1301.0000 3013.0000,1306.0000 3011.0000,1310.0000 L 2961.0000,1410.0000 C 2959.0000,1414.0000 2954.0000,1416.0000 2950.0000,1414.0000 C 2946.0000,1412.0000 2944.0000,1407.0000 2946.0000,1403.0000 Z M 3032.0000,1231.0000 L 3083.0000,1131.0000 C 3085.0000,1127.0000 3089.0000,1125.0000 3093.0000,1127.0000 C 3097.0000,1129.0000 3099.0000,1134.0000 3097.0000,1138.0000 L 3047.0000,1238.0000 C 3045.0000,1242.0000 3040.0000,1244.0000 3036.0000,1242.0000 C 3032.0000,1240.0000 3030.0000,1235.0000 3032.0000,1231.0000 Z M 3118.0000,1059.0000 L 3169.0000,959.0000 C 3170.0000,955.0000 3175.0000,953.0000 3179.0000,955.0000 C 3183.0000,957.0000 3185.0000,962.0000 3183.0000,966.0000 L 3133.0000,1066.0000 C 3131.0000,1070.0000 3126.0000,1072.0000 3122.0000,1070.0000 C 3118.0000,1068.0000 3116.0000,1063.0000 3118.0000,1059.0000 Z M 3204.0000,887.0000 L 3254.0000,787.0000 C 3256.0000,783.0000 3261.0000,781.0000 3265.0000,783.0000 C 3269.0000,785.0000 3271.0000,790.0000 3269.0000,794.0000 L 3219.0000,894.0000 C 3217.0000,898.0000 3212.0000,900.0000 3208.0000,898.0000 C 3204.0000,896.0000 3202.0000,891.0000 3204.0000,887.0000 Z M 3290.0000,715.0000 L 3338.0000,620.0000 C 3340.0000,616.0000 3345.0000,615.0000 3349.0000,617.0000 C 3353.0000,619.0000 3354.0000,623.0000 3352.0000,627.0000 L 3305.0000,722.0000 C 3303.0000,726.0000 3298.0000,728.0000 3294.0000,726.0000 C 3290.0000,724.0000 3288.0000,719.0000 3290.0000,715.0000 Z "  fill="#000000" stroke="#000000" stroke-width="1.0000"  stroke-linecap="butt"  stroke-linejoin="round" />
</g>
<g transform="matrix(1.0000 0.0000 0.0000 1.0000 0.0000 0.0000)">
</g>
<g transform="matrix(0.0625 0.0000 0.0000 0.0625 0.0000 0.0000)">
<path d="M 11.0000,2438.0000 L 11.0000,2326.0000 C 11.0000,2321.0000 15.0000,2318.0000 19.0000,2318.0000 C 23.0000,2318.0000 27.0000,2321.0000 27.0000,2326.0000 L 27.0000,2438.0000 C 27.0000,2442.0000 23.0000,2446.0000 19.0000,2446.0000 C 15.0000,2446.0000 11.0000,2442.0000 11.0000,2438.0000 Z M 11.0000,2246.0000 L 11.0000,2134.0000 C 11.0000,2129.0000 15.0000,2126.0000 19.0000,2126.0000 C 23.0000,2126.0000 27.0000,2129.0000 27.0000,2134.0000 L 27.0000,2246.0000 C 27.0000,2250.0000 23.0000,2254.0000 19.0000,2254.0000 C 15.0000,2254.0000 11.0000,2250.0000 11.0000,2246.0000 Z M 11.0000,2054.0000 L 11.0000,1941.0000 C 11.0000,1937.0000 15.0000,1933.0000 19.0000,1933.0000 C 23.0000,1933.0000 27.0000,1937.0000 27.0000,1941.0000 L 27.0000,2054.0000 C 27.0000,2058.0000 23.0000,2062.0000 19.0000,2062.0000 C 15.0000,2062.0000 11.0000,2058.0000 11.0000,2054.0000 Z M 11.0000,1861.0000 L 11.0000,1749.0000 C 11.0000,1745.0000 15.0000,1741.0000 19.0000,1741.0000 C 23.0000,1741.0000 27.0000,1745.0000 27.0000,1749.0000 L 27.0000,1861.0000 C 27.0000,1866.0000 23.0000,1869.0000 19.0000,1869.0000 C 15.0000,1869.0000 11.0000,1866.0000 11.0000,1861.0000 Z M 11.0000,1669.0000 L 11.0000,1557.0000 C 11.0000,1553.0000 15.0000,1549.0000 19.0000,1549.0000 C 23.0000,1549.0000 27.0000,1553.0000 27.0000,1557.0000 L 27.0000,1669.0000 C 27.0000,1674.0000 23.0000,1677.0000 19.0000,1677.0000 C 15.0000,1677.0000 11.0000,1674.0000 11.0000,1669.0000 Z M 11.0000,1477.0000 L 11.0000,1365.0000 C 11.0000,1360.0000 15.0000,1357.0000 19.0000,1357.0000 C 23.0000,1357.0000 27.0000,1360.0000 27.0000,1365.0000 L 27.0000,1477.0000 C 27.0000,1481.0000 23.0000,1485.0000 19.0000,1485.0000 C 15.0000,1485.0000 11.0000,1481.0000 11.0000,1477.0000 Z M 11.0000,1285.0000 L 11.0000,1173.0000 C 11.0000,1168.0000 15.0000,1165.0000 19.0000,1165.0000 C 23.0000,1165.0000 27.0000,1168.0000 27.0000,1173.0000 L 27.0000,1285.0000 C 27.0000,1289.0000 23.0000,1293.0000 19.0000,1293.0000 C 15.0000,1293.0000 11.0000,1289.0000 11.0000,1285.0000 Z M 11.0000,1093.0000 L 11.0000,980.0000 C 11.0000,976.0000 15.0000,972.0000 19.0000,972.0000 C 23.0000,972.0000 27.0000,976.0000 27.0000,980.0000 L 27.0000,1093.0000 C 27.0000,1097.0000 23.0000,1101.0000 19.0000,1101.0000 C 15.0000,1101.0000 11.0000,1097.0000 11.0000,1093.0000 Z M 11.0000,900.0000 L 11.0000,788.0000 C 11.0000,784.0000 15.0000,780.0000 19.0000,780.0000 C 23.0000,780.0000 27.0000,784.0000 27.0000,788.0000 L 27.0000,900.0000 C 27.0000,905.0000 23.0000,908.0000 19.0000,908.0000 C 15.0000,908.0000 11.0000,905.0000 11.0000,900.0000 Z M 11.0000,708.0000 L 11.0000,624.0000 C 11.0000,619.0000 15.0000,616.0000 19.0000,616.0000 C 23.0000,616.0000 27.0000,619.0000 27.0000,624.0000 L 27.0000,708.0000 C 27.0000,713.0000 23.0000,716.0000 19.0000,716.0000 C 15.0000,716.0000 11.0000,713.0000 11.0000,708.0000 Z "  fill="#000000" stroke="#000000" stroke-width="1.0000"  stroke-linecap="butt"  stroke-linejoin="round" />
</g>
<g transform="matrix(1.0000 0.0000 0.0000 1.0000 0.0000 0.0000)">
</g>
</g>
</svg>
