<?xml version="1.0"  encoding="UTF-8" standalone="no"?>
<svg version="1.1" xmlns="http://www.w3.org/2000/svg" xmlns:xlink="http://www.w3.org/1999/xlink" width="381.0000" height="700.0000">
<g transform="translate(-0.0000, -0.0000)">
<g transform="matrix(0.0625 0.0000 0.0000 0.0625 0.0000 0.0000)">
<path d="M 32.0000,599.0000 L 32.0000,1355.0000 L 6080.0000,1355.0000 L 6080.0000,599.0000 L 32.0000,599.0000 Z" stroke-width="1px" stroke="#FFFFFF"  fill="#FFFFFF" />
</g>
<g transform="matrix(1.0000 0.0000 0.0000 1.0000 0.0000 0.0000)">
<defs><clipPath id="clip-1804289383"><path d="M 0.0000,0.0000 L 382.0000,0.0000 L 382.0000,701.0000 L 0.0000,701.0000 L 0.0000,0.0000 Z Z" /></clipPath></defs>
</g>
<g transform="matrix(0.0625 0.0000 0.0000 0.0625 0.0000 0.0000)">
<path  clip-path="url(#clip-1804289383)" d="M 32.0000,1355.0000 L 6080.0000,1355.0000 L 6080.0000,599.0000 L 32.0000,599.0000 L 32.0000,1355.0000 Z" stroke="#000000" stroke-width="20.0000"  stroke-linecap="round"  stroke-linejoin="round" fill="none" />
</g>
<g transform="matrix(1.0000 0.0000 0.0000 1.0000 0.0000 0.0000)">
</g>
<g transform="matrix(1.0000 0.0000 0.0000 1.0000 93.2782 66.5552)">
<text font-family="Arial" fill="#000000" style ="white-space:pre;" font-weight="400" text-anchor="start" x="0.0000" y="0.0000" font-size="17.0000" ><![CDATA[Resource Configuration ID]]></text>
<defs><clipPath id="clip-846930886"><path d="M 0.0000,0.0000 L 382.0000,0.0000 L 382.0000,701.0000 L 0.0000,701.0000 L 0.0000,0.0000 Z Z" /></clipPath></defs>
</g>
<g transform="matrix(0.0625 0.0000 0.0000 0.0625 0.0000 0.0000)">
<path  clip-path="url(#clip-846930886)" d="M 32.0000,221.0000 L 6080.0000,221.0000 " stroke="#000000" stroke-width="20.0000"  stroke-linecap="round"  stroke-linejoin="round" fill="none" />
</g>
<g transform="matrix(1.0000 0.0000 0.0000 1.0000 0.0000 0.0000)">
</g>
<g transform="matrix(0.0625 0.0000 0.0000 0.0625 0.0000 0.0000)">
<path d="M 32.0000,32.0000 L 32.0000,410.0000 " stroke="#000000" stroke-width="20.0000"  stroke-linecap="round"  stroke-linejoin="round" fill="none" />
</g>
<g transform="matrix(1.0000 0.0000 0.0000 1.0000 0.0000 0.0000)">
</g>
<g transform="matrix(0.0625 0.0000 0.0000 0.0625 0.0000 0.0000)">
<path d="M 788.0000,32.0000 L 788.0000,410.0000 " stroke="#000000" stroke-width="20.0000"  stroke-linecap="round"  stroke-linejoin="round" fill="none" />
</g>
<g transform="matrix(1.0000 0.0000 0.0000 1.0000 0.0000 0.0000)">
</g>
<g transform="matrix(0.0625 0.0000 0.0000 0.0625 0.0000 0.0000)">
<path d="M 1544.0000,32.0000 L 1544.0000,410.0000 " stroke="#000000" stroke-width="20.0000"  stroke-linecap="round"  stroke-linejoin="round" fill="none" />
</g>
<g transform="matrix(1.0000 0.0000 0.0000 1.0000 0.0000 0.0000)">
</g>
<g transform="matrix(0.0625 0.0000 0.0000 0.0625 0.0000 0.0000)">
<path d="M 2300.0000,32.0000 L 2300.0000,410.0000 " stroke="#000000" stroke-width="20.0000"  stroke-linecap="round"  stroke-linejoin="round" fill="none" />
</g>
<g transform="matrix(1.0000 0.0000 0.0000 1.0000 0.0000 0.0000)">
</g>
<g transform="matrix(0.0625 0.0000 0.0000 0.0625 0.0000 0.0000)">
<path d="M 3056.0000,32.0000 L 3056.0000,410.0000 " stroke="#000000" stroke-width="20.0000"  stroke-linecap="round"  stroke-linejoin="round" fill="none" />
</g>
<g transform="matrix(1.0000 0.0000 0.0000 1.0000 0.0000 0.0000)">
</g>
<g transform="matrix(0.0625 0.0000 0.0000 0.0625 0.0000 0.0000)">
<path d="M 3812.0000,32.0000 L 3812.0000,410.0000 " stroke="#000000" stroke-width="20.0000"  stroke-linecap="round"  stroke-linejoin="round" fill="none" />
</g>
<g transform="matrix(1.0000 0.0000 0.0000 1.0000 0.0000 0.0000)">
</g>
<g transform="matrix(0.0625 0.0000 0.0000 0.0625 0.0000 0.0000)">
<path d="M 4568.0000,32.0000 L 4568.0000,410.0000 " stroke="#000000" stroke-width="20.0000"  stroke-linecap="round"  stroke-linejoin="round" fill="none" />
</g>
<g transform="matrix(1.0000 0.0000 0.0000 1.0000 0.0000 0.0000)">
</g>
<g transform="matrix(0.0625 0.0000 0.0000 0.0625 0.0000 0.0000)">
<path d="M 5324.0000,32.0000 L 5324.0000,410.0000 " stroke="#000000" stroke-width="20.0000"  stroke-linecap="round"  stroke-linejoin="round" fill="none" />
</g>
<g transform="matrix(1.0000 0.0000 0.0000 1.0000 0.0000 0.0000)">
</g>
<g transform="matrix(0.0625 0.0000 0.0000 0.0625 0.0000 0.0000)">
<path d="M 3056.0000,3623.0000 L 3056.0000,4379.0000 L 3812.0000,4379.0000 L 3812.0000,3623.0000 L 3056.0000,3623.0000 Z" stroke-width="1px" stroke="#FFFFFF"  fill="#FFFFFF" />
</g>
<g transform="matrix(1.0000 0.0000 0.0000 1.0000 0.0000 0.0000)">
</g>
<g transform="matrix(0.0625 0.0000 0.0000 0.0625 0.0000 0.0000)">
<path d="M 3056.0000,4379.0000 L 3812.0000,4379.0000 L 3812.0000,3623.0000 L 3056.0000,3623.0000 L 3056.0000,4379.0000 Z" stroke="#000000" stroke-width="20.0000"  stroke-linecap="round"  stroke-linejoin="round" fill="none" />
</g>
<g transform="matrix(1.0000 0.0000 0.0000 1.0000 0.0000 0.0000)">
</g>
<g transform="matrix(1.0000 0.0000 0.0000 1.0000 209.0806 255.5316)">
<text font-family="Arial" fill="#000000" style ="white-space:pre;" font-weight="400" text-anchor="start" x="0.0000" y="0.0000" font-size="17.0000" ><![CDATA[R]]></text>
</g>
<g transform="matrix(0.0625 0.0000 0.0000 0.0625 0.0000 0.0000)">
<path d="M 3812.0000,3623.0000 L 3812.0000,4379.0000 L 4568.0000,4379.0000 L 4568.0000,3623.0000 L 3812.0000,3623.0000 Z" stroke-width="1px" stroke="#FFFFFF"  fill="#FFFFFF" />
</g>
<g transform="matrix(1.0000 0.0000 0.0000 1.0000 0.0000 0.0000)">
</g>
<g transform="matrix(0.0625 0.0000 0.0000 0.0625 0.0000 0.0000)">
<path d="M 3812.0000,4379.0000 L 4568.0000,4379.0000 L 4568.0000,3623.0000 L 3812.0000,3623.0000 L 3812.0000,4379.0000 Z" stroke="#000000" stroke-width="20.0000"  stroke-linecap="round"  stroke-linejoin="round" fill="none" />
</g>
<g transform="matrix(1.0000 0.0000 0.0000 1.0000 0.0000 0.0000)">
</g>
<g transform="matrix(1.0000 0.0000 0.0000 1.0000 256.3247 255.5316)">
<text font-family="Arial" fill="#000000" style ="white-space:pre;" font-weight="400" text-anchor="start" x="0.0000" y="0.0000" font-size="17.0000" ><![CDATA[R]]></text>
</g>
<g transform="matrix(0.0625 0.0000 0.0000 0.0625 0.0000 0.0000)">
<path d="M 4568.0000,3623.0000 L 4568.0000,4379.0000 L 5324.0000,4379.0000 L 5324.0000,3623.0000 L 4568.0000,3623.0000 Z" stroke-width="1px" stroke="#FFFFFF"  fill="#FFFFFF" />
</g>
<g transform="matrix(1.0000 0.0000 0.0000 1.0000 0.0000 0.0000)">
</g>
<g transform="matrix(0.0625 0.0000 0.0000 0.0625 0.0000 0.0000)">
<path d="M 4568.0000,4379.0000 L 5324.0000,4379.0000 L 5324.0000,3623.0000 L 4568.0000,3623.0000 L 4568.0000,4379.0000 Z" stroke="#000000" stroke-width="20.0000"  stroke-linecap="round"  stroke-linejoin="round" fill="none" />
</g>
<g transform="matrix(1.0000 0.0000 0.0000 1.0000 0.0000 0.0000)">
</g>
<g transform="matrix(1.0000 0.0000 0.0000 1.0000 303.5688 255.5316)">
<text font-family="Arial" fill="#000000" style ="white-space:pre;" font-weight="400" text-anchor="start" x="0.0000" y="0.0000" font-size="17.0000" ><![CDATA[R]]></text>
</g>
<g transform="matrix(0.0625 0.0000 0.0000 0.0625 0.0000 0.0000)">
<path d="M 32.0000,1355.0000 L 32.0000,2111.0000 L 6080.0000,2111.0000 L 6080.0000,1355.0000 L 32.0000,1355.0000 Z" stroke-width="1px" stroke="#FFFFFF"  fill="#FFFFFF" />
</g>
<g transform="matrix(1.0000 0.0000 0.0000 1.0000 0.0000 0.0000)">
<defs><clipPath id="clip-1681692777"><path d="M 0.0000,0.0000 L 382.0000,0.0000 L 382.0000,701.0000 L 0.0000,701.0000 L 0.0000,0.0000 Z Z" /></clipPath></defs>
</g>
<g transform="matrix(0.0625 0.0000 0.0000 0.0625 0.0000 0.0000)">
<path  clip-path="url(#clip-1681692777)" d="M 32.0000,2111.0000 L 6080.0000,2111.0000 L 6080.0000,1355.0000 L 32.0000,1355.0000 L 32.0000,2111.0000 Z" stroke="#000000" stroke-width="20.0000"  stroke-linecap="round"  stroke-linejoin="round" fill="none" />
</g>
<g transform="matrix(1.0000 0.0000 0.0000 1.0000 0.0000 0.0000)">
</g>
<g transform="matrix(1.0000 0.0000 0.0000 1.0000 93.2782 113.7993)">
<text font-family="Arial" fill="#000000" style ="white-space:pre;" font-weight="400" text-anchor="start" x="0.0000" y="0.0000" font-size="17.0000" ><![CDATA[Resource Configuration ID]]></text>
</g>
<g transform="matrix(0.0625 0.0000 0.0000 0.0625 0.0000 0.0000)">
<path d="M 32.0000,2111.0000 L 32.0000,2867.0000 L 6080.0000,2867.0000 L 6080.0000,2111.0000 L 32.0000,2111.0000 Z" stroke-width="1px" stroke="#FFFFFF"  fill="#FFFFFF" />
</g>
<g transform="matrix(1.0000 0.0000 0.0000 1.0000 0.0000 0.0000)">
<defs><clipPath id="clip-1714636915"><path d="M 0.0000,0.0000 L 382.0000,0.0000 L 382.0000,701.0000 L 0.0000,701.0000 L 0.0000,0.0000 Z Z" /></clipPath></defs>
</g>
<g transform="matrix(0.0625 0.0000 0.0000 0.0625 0.0000 0.0000)">
<path  clip-path="url(#clip-1714636915)" d="M 32.0000,2867.0000 L 6080.0000,2867.0000 L 6080.0000,2111.0000 L 32.0000,2111.0000 L 32.0000,2867.0000 Z" stroke="#000000" stroke-width="20.0000"  stroke-linecap="round"  stroke-linejoin="round" fill="none" />
</g>
<g transform="matrix(1.0000 0.0000 0.0000 1.0000 0.0000 0.0000)">
</g>
<g transform="matrix(1.0000 0.0000 0.0000 1.0000 100.2362 161.0434)">
<text font-family="Arial" fill="#000000" style ="white-space:pre;" font-weight="400" text-anchor="start" x="0.0000" y="0.0000" font-size="17.0000" ><![CDATA[DL Tx Power adjustment]]></text>
</g>
<g transform="matrix(0.0625 0.0000 0.0000 0.0625 0.0000 0.0000)">
<path d="M 32.0000,3623.0000 L 32.0000,4379.0000 L 788.0000,4379.0000 L 788.0000,3623.0000 L 32.0000,3623.0000 Z" stroke-width="1px" stroke="#FFFFFF"  fill="#FFFFFF" />
</g>
<g transform="matrix(1.0000 0.0000 0.0000 1.0000 0.0000 0.0000)">
</g>
<g transform="matrix(0.0625 0.0000 0.0000 0.0625 0.0000 0.0000)">
<path d="M 32.0000,4379.0000 L 788.0000,4379.0000 L 788.0000,3623.0000 L 32.0000,3623.0000 L 32.0000,4379.0000 Z" stroke="#000000" stroke-width="20.0000"  stroke-linecap="round"  stroke-linejoin="round" fill="none" />
</g>
<g transform="matrix(1.0000 0.0000 0.0000 1.0000 0.0000 0.0000)">
</g>
<g transform="matrix(1.0000 0.0000 0.0000 1.0000 17.0921 255.5316)">
<text font-family="Arial" fill="#000000" style ="white-space:pre;" font-weight="400" text-anchor="start" x="0.0000" y="0.0000" font-size="17.0000" ><![CDATA[C]]></text>
</g>
<g transform="matrix(1.0000 0.0000 0.0000 1.0000 29.1281 257.8346)">
<text font-family="Arial" fill="#000000" style ="white-space:pre;" font-weight="400" text-anchor="start" x="0.0000" y="0.0000" font-size="11.0000" ><![CDATA[0]]></text>
</g>
<g transform="matrix(0.0625 0.0000 0.0000 0.0625 0.0000 0.0000)">
<path d="M 788.0000,3623.0000 L 788.0000,4379.0000 L 1544.0000,4379.0000 L 1544.0000,3623.0000 L 788.0000,3623.0000 Z" stroke-width="1px" stroke="#FFFFFF"  fill="#FFFFFF" />
</g>
<g transform="matrix(1.0000 0.0000 0.0000 1.0000 0.0000 0.0000)">
</g>
<g transform="matrix(0.0625 0.0000 0.0000 0.0625 0.0000 0.0000)">
<path d="M 788.0000,4379.0000 L 1544.0000,4379.0000 L 1544.0000,3623.0000 L 788.0000,3623.0000 L 788.0000,4379.0000 Z" stroke="#000000" stroke-width="20.0000"  stroke-linecap="round"  stroke-linejoin="round" fill="none" />
</g>
<g transform="matrix(1.0000 0.0000 0.0000 1.0000 0.0000 0.0000)">
</g>
<g transform="matrix(1.0000 0.0000 0.0000 1.0000 64.3362 255.5316)">
<text font-family="Arial" fill="#000000" style ="white-space:pre;" font-weight="400" text-anchor="start" x="0.0000" y="0.0000" font-size="17.0000" ><![CDATA[C]]></text>
</g>
<g transform="matrix(1.0000 0.0000 0.0000 1.0000 76.3722 257.8346)">
<text font-family="Arial" fill="#000000" style ="white-space:pre;" font-weight="400" text-anchor="start" x="0.0000" y="0.0000" font-size="11.0000" ><![CDATA[1]]></text>
</g>
<g transform="matrix(0.0625 0.0000 0.0000 0.0625 0.0000 0.0000)">
<path d="M 32.0000,4379.0000 L 32.0000,5135.0000 L 6080.0000,5135.0000 L 6080.0000,4379.0000 L 32.0000,4379.0000 Z" stroke-width="1px" stroke="#FFFFFF"  fill="#FFFFFF" />
</g>
<g transform="matrix(1.0000 0.0000 0.0000 1.0000 0.0000 0.0000)">
<defs><clipPath id="clip-1957747793"><path d="M 0.0000,0.0000 L 382.0000,0.0000 L 382.0000,701.0000 L 0.0000,701.0000 L 0.0000,0.0000 Z Z" /></clipPath></defs>
</g>
<g transform="matrix(0.0625 0.0000 0.0000 0.0625 0.0000 0.0000)">
<path  clip-path="url(#clip-1957747793)" d="M 32.0000,5135.0000 L 6080.0000,5135.0000 L 6080.0000,4379.0000 L 32.0000,4379.0000 L 32.0000,5135.0000 Z" stroke="#000000" stroke-width="20.0000"  stroke-linecap="round"  stroke-linejoin="round" fill="none" />
</g>
<g transform="matrix(1.0000 0.0000 0.0000 1.0000 0.0000 0.0000)">
</g>
<g transform="matrix(1.0000 0.0000 0.0000 1.0000 108.5611 302.7757)">
<text font-family="Arial" fill="#000000" style ="white-space:pre;" font-weight="400" text-anchor="start" x="0.0000" y="0.0000" font-size="17.0000" ><![CDATA[Multiplexing mode info]]></text>
</g>
<g transform="matrix(0.0625 0.0000 0.0000 0.0625 0.0000 0.0000)">
<path d="M 32.0000,5135.0000 L 32.0000,5891.0000 L 6080.0000,5891.0000 L 6080.0000,5135.0000 L 32.0000,5135.0000 Z" stroke-width="1px" stroke="#FFFFFF"  fill="#FFFFFF" />
</g>
<g transform="matrix(1.0000 0.0000 0.0000 1.0000 0.0000 0.0000)">
<defs><clipPath id="clip-424238335"><path d="M 0.0000,0.0000 L 382.0000,0.0000 L 382.0000,701.0000 L 0.0000,701.0000 L 0.0000,0.0000 Z Z" /></clipPath></defs>
</g>
<g transform="matrix(0.0625 0.0000 0.0000 0.0625 0.0000 0.0000)">
<path  clip-path="url(#clip-424238335)" d="M 32.0000,5891.0000 L 6080.0000,5891.0000 L 6080.0000,5135.0000 L 32.0000,5135.0000 L 32.0000,5891.0000 Z" stroke="#000000" stroke-width="20.0000"  stroke-linecap="round"  stroke-linejoin="round" fill="none" />
</g>
<g transform="matrix(1.0000 0.0000 0.0000 1.0000 0.0000 0.0000)">
</g>
<g transform="matrix(1.0000 0.0000 0.0000 1.0000 81.7220 350.0198)">
<text font-family="Arial" fill="#000000" style ="white-space:pre;" font-weight="400" text-anchor="start" x="0.0000" y="0.0000" font-size="17.0000" ><![CDATA[Number of IAB]]></text>
</g>
<g transform="matrix(1.0000 0.0000 0.0000 1.0000 191.0249 350.0198)">
<text font-family="Arial" fill="#000000" style ="white-space:pre;" font-weight="400" text-anchor="start" x="0.0000" y="0.0000" font-size="17.0000" ><![CDATA[-]]></text>
</g>
<g transform="matrix(1.0000 0.0000 0.0000 1.0000 196.5749 350.0198)">
<text font-family="Arial" fill="#000000" style ="white-space:pre;" font-weight="400" text-anchor="start" x="0.0000" y="0.0000" font-size="17.0000" ><![CDATA[MT DL beams]]></text>
</g>
<g transform="matrix(0.0625 0.0000 0.0000 0.0625 0.0000 0.0000)">
<path d="M 5324.0000,3623.0000 L 5324.0000,4379.0000 L 6080.0000,4379.0000 L 6080.0000,3623.0000 L 5324.0000,3623.0000 Z" stroke-width="1px" stroke="#FFFFFF"  fill="#FFFFFF" />
</g>
<g transform="matrix(1.0000 0.0000 0.0000 1.0000 0.0000 0.0000)">
<defs><clipPath id="clip-719885386"><path d="M 0.0000,0.0000 L 382.0000,0.0000 L 382.0000,701.0000 L 0.0000,701.0000 L 0.0000,0.0000 Z Z" /></clipPath></defs>
</g>
<g transform="matrix(0.0625 0.0000 0.0000 0.0625 0.0000 0.0000)">
<path  clip-path="url(#clip-719885386)" d="M 5324.0000,4379.0000 L 6080.0000,4379.0000 L 6080.0000,3623.0000 L 5324.0000,3623.0000 L 5324.0000,4379.0000 Z" stroke="#000000" stroke-width="20.0000"  stroke-linecap="round"  stroke-linejoin="round" fill="none" />
</g>
<g transform="matrix(1.0000 0.0000 0.0000 1.0000 0.0000 0.0000)">
</g>
<g transform="matrix(1.0000 0.0000 0.0000 1.0000 350.8129 255.5316)">
<text font-family="Arial" fill="#000000" style ="white-space:pre;" font-weight="400" text-anchor="start" x="0.0000" y="0.0000" font-size="17.0000" ><![CDATA[R]]></text>
</g>
<g transform="matrix(0.0625 0.0000 0.0000 0.0625 0.0000 0.0000)">
<path d="M 32.0000,5891.0000 L 32.0000,6647.0000 L 1544.0000,6647.0000 L 1544.0000,5891.0000 L 32.0000,5891.0000 Z" stroke-width="1px" stroke="#FFFFFF"  fill="#FFFFFF" />
</g>
<g transform="matrix(1.0000 0.0000 0.0000 1.0000 0.0000 0.0000)">
</g>
<g transform="matrix(0.0625 0.0000 0.0000 0.0625 0.0000 0.0000)">
<path d="M 32.0000,6647.0000 L 1544.0000,6647.0000 L 1544.0000,5891.0000 L 32.0000,5891.0000 L 32.0000,6647.0000 Z" stroke="#000000" stroke-width="20.0000"  stroke-linecap="round"  stroke-linejoin="round" fill="none" />
</g>
<g transform="matrix(1.0000 0.0000 0.0000 1.0000 0.0000 0.0000)">
</g>
<g transform="matrix(1.0000 0.0000 0.0000 1.0000 3.4842 387.7639)">
<text font-family="Arial" fill="#000000" style ="white-space:pre;" font-weight="400" text-anchor="start" x="0.0000" y="0.0000" font-size="15.0000" ><![CDATA[IAB]]></text>
</g>
<g transform="matrix(1.0000 0.0000 0.0000 1.0000 27.6614 387.7639)">
<text font-family="Arial" fill="#000000" style ="white-space:pre;" font-weight="400" text-anchor="start" x="0.0000" y="0.0000" font-size="15.0000" ><![CDATA[-]]></text>
</g>
<g transform="matrix(1.0000 0.0000 0.0000 1.0000 32.6566 387.7639)">
<text font-family="Arial" fill="#000000" style ="white-space:pre;" font-weight="400" text-anchor="start" x="0.0000" y="0.0000" font-size="15.0000" ><![CDATA[MT beam ]]></text>
</g>
<g transform="matrix(1.0000 0.0000 0.0000 1.0000 23.2733 405.7636)">
<text font-family="Arial" fill="#000000" style ="white-space:pre;" font-weight="400" text-anchor="start" x="0.0000" y="0.0000" font-size="15.0000" ><![CDATA[type ID]]></text>
</g>
<g transform="matrix(1.0000 0.0000 0.0000 1.0000 70.7928 407.8364)">
<text font-family="Arial" fill="#000000" style ="white-space:pre;" font-weight="400" text-anchor="start" x="0.0000" y="0.0000" font-size="10.0000" ><![CDATA[0]]></text>
</g>
<g transform="matrix(0.0625 0.0000 0.0000 0.0625 0.0000 0.0000)">
<path d="M 3056.0000,5891.0000 L 3056.0000,6647.0000 L 3812.0000,6647.0000 L 3812.0000,5891.0000 L 3056.0000,5891.0000 Z" stroke-width="1px" stroke="#FFFFFF"  fill="#FFFFFF" />
</g>
<g transform="matrix(1.0000 0.0000 0.0000 1.0000 0.0000 0.0000)">
</g>
<g transform="matrix(0.0625 0.0000 0.0000 0.0625 0.0000 0.0000)">
<path d="M 3056.0000,6647.0000 L 3812.0000,6647.0000 L 3812.0000,5891.0000 L 3056.0000,5891.0000 L 3056.0000,6647.0000 Z" stroke="#000000" stroke-width="20.0000"  stroke-linecap="round"  stroke-linejoin="round" fill="none" />
</g>
<g transform="matrix(1.0000 0.0000 0.0000 1.0000 0.0000 0.0000)">
</g>
<g transform="matrix(1.0000 0.0000 0.0000 1.0000 209.0806 397.2639)">
<text font-family="Arial" fill="#000000" style ="white-space:pre;" font-weight="400" text-anchor="start" x="0.0000" y="0.0000" font-size="17.0000" ><![CDATA[R]]></text>
</g>
<g transform="matrix(0.0625 0.0000 0.0000 0.0625 0.0000 0.0000)">
<path d="M 3812.0000,5891.0000 L 3812.0000,6647.0000 L 4568.0000,6647.0000 L 4568.0000,5891.0000 L 3812.0000,5891.0000 Z" stroke-width="1px" stroke="#FFFFFF"  fill="#FFFFFF" />
</g>
<g transform="matrix(1.0000 0.0000 0.0000 1.0000 0.0000 0.0000)">
</g>
<g transform="matrix(0.0625 0.0000 0.0000 0.0625 0.0000 0.0000)">
<path d="M 3812.0000,6647.0000 L 4568.0000,6647.0000 L 4568.0000,5891.0000 L 3812.0000,5891.0000 L 3812.0000,6647.0000 Z" stroke="#000000" stroke-width="20.0000"  stroke-linecap="round"  stroke-linejoin="round" fill="none" />
</g>
<g transform="matrix(1.0000 0.0000 0.0000 1.0000 0.0000 0.0000)">
</g>
<g transform="matrix(1.0000 0.0000 0.0000 1.0000 256.3247 397.2639)">
<text font-family="Arial" fill="#000000" style ="white-space:pre;" font-weight="400" text-anchor="start" x="0.0000" y="0.0000" font-size="17.0000" ><![CDATA[R]]></text>
</g>
<g transform="matrix(0.0625 0.0000 0.0000 0.0625 0.0000 0.0000)">
<path d="M 4568.0000,5891.0000 L 4568.0000,6647.0000 L 5324.0000,6647.0000 L 5324.0000,5891.0000 L 4568.0000,5891.0000 Z" stroke-width="1px" stroke="#FFFFFF"  fill="#FFFFFF" />
</g>
<g transform="matrix(1.0000 0.0000 0.0000 1.0000 0.0000 0.0000)">
</g>
<g transform="matrix(0.0625 0.0000 0.0000 0.0625 0.0000 0.0000)">
<path d="M 4568.0000,6647.0000 L 5324.0000,6647.0000 L 5324.0000,5891.0000 L 4568.0000,5891.0000 L 4568.0000,6647.0000 Z" stroke="#000000" stroke-width="20.0000"  stroke-linecap="round"  stroke-linejoin="round" fill="none" />
</g>
<g transform="matrix(1.0000 0.0000 0.0000 1.0000 0.0000 0.0000)">
</g>
<g transform="matrix(1.0000 0.0000 0.0000 1.0000 303.5688 397.2639)">
<text font-family="Arial" fill="#000000" style ="white-space:pre;" font-weight="400" text-anchor="start" x="0.0000" y="0.0000" font-size="17.0000" ><![CDATA[R]]></text>
</g>
<g transform="matrix(1.0000 0.0000 0.0000 1.0000 182.6414 493.7520)">
<text font-family="Calibri" fill="#000000" style ="white-space:pre;" font-weight="400" text-anchor="start" x="0.0000" y="0.0000" font-size="23.0000" ><![CDATA[...]]></text>
</g>
<g transform="matrix(0.0625 0.0000 0.0000 0.0625 0.0000 0.0000)">
<path d="M 32.0000,6647.0000 L 32.0000,7403.0000 L 6080.0000,7403.0000 L 6080.0000,6647.0000 L 32.0000,6647.0000 Z" stroke-width="1px" stroke="#FFFFFF"  fill="#FFFFFF" />
</g>
<g transform="matrix(1.0000 0.0000 0.0000 1.0000 0.0000 0.0000)">
<defs><clipPath id="clip-1649760492"><path d="M 0.0000,0.0000 L 382.0000,0.0000 L 382.0000,701.0000 L 0.0000,701.0000 L 0.0000,0.0000 Z Z" /></clipPath></defs>
</g>
<g transform="matrix(0.0625 0.0000 0.0000 0.0625 0.0000 0.0000)">
<path  clip-path="url(#clip-1649760492)" d="M 32.0000,7403.0000 L 6080.0000,7403.0000 L 6080.0000,6647.0000 L 32.0000,6647.0000 L 32.0000,7403.0000 Z" stroke="#000000" stroke-width="20.0000"  stroke-linecap="round"  stroke-linejoin="round" fill="none" />
</g>
<g transform="matrix(1.0000 0.0000 0.0000 1.0000 0.0000 0.0000)">
</g>
<g transform="matrix(1.0000 0.0000 0.0000 1.0000 98.1639 444.5080)">
<text font-family="Arial" fill="#000000" style ="white-space:pre;" font-weight="400" text-anchor="start" x="0.0000" y="0.0000" font-size="17.0000" ><![CDATA[IAB]]></text>
</g>
<g transform="matrix(1.0000 0.0000 0.0000 1.0000 125.0282 444.5080)">
<text font-family="Arial" fill="#000000" style ="white-space:pre;" font-weight="400" text-anchor="start" x="0.0000" y="0.0000" font-size="17.0000" ><![CDATA[-]]></text>
</g>
<g transform="matrix(1.0000 0.0000 0.0000 1.0000 130.5782 444.5080)">
<text font-family="Arial" fill="#000000" style ="white-space:pre;" font-weight="400" text-anchor="start" x="0.0000" y="0.0000" font-size="17.0000" ><![CDATA[MT Resource set ID]]></text>
</g>
<g transform="matrix(1.0000 0.0000 0.0000 1.0000 278.7650 446.8110)">
<text font-family="Arial" fill="#000000" style ="white-space:pre;" font-weight="400" text-anchor="start" x="0.0000" y="0.0000" font-size="11.0000" ><![CDATA[0]]></text>
</g>
<g transform="matrix(0.0625 0.0000 0.0000 0.0625 0.0000 0.0000)">
<path d="M 1544.0000,9670.0000 L 1544.0000,10426.0000 L 6080.0000,10426.0000 L 6080.0000,9670.0000 L 1544.0000,9670.0000 Z" stroke-width="1px" stroke="#FFFFFF"  fill="#FFFFFF" />
</g>
<g transform="matrix(1.0000 0.0000 0.0000 1.0000 0.0000 0.0000)">
<defs><clipPath id="clip-596516649"><path d="M 0.0000,0.0000 L 382.0000,0.0000 L 382.0000,701.0000 L 0.0000,701.0000 L 0.0000,0.0000 Z Z" /></clipPath></defs>
</g>
<g transform="matrix(0.0625 0.0000 0.0000 0.0625 0.0000 0.0000)">
<path  clip-path="url(#clip-596516649)" d="M 1544.0000,10426.0000 L 6080.0000,10426.0000 L 6080.0000,9670.0000 L 1544.0000,9670.0000 L 1544.0000,10426.0000 Z" stroke="#000000" stroke-width="20.0000"  stroke-linecap="round"  stroke-linejoin="round" fill="none" />
</g>
<g transform="matrix(1.0000 0.0000 0.0000 1.0000 0.0000 0.0000)">
</g>
<g transform="matrix(1.0000 0.0000 0.0000 1.0000 208.6139 633.4843)">
<text font-family="Arial" fill="#000000" style ="white-space:pre;" font-weight="400" text-anchor="start" x="0.0000" y="0.0000" font-size="17.0000" ><![CDATA[Cell info]]></text>
</g>
<g transform="matrix(0.0625 0.0000 0.0000 0.0625 0.0000 0.0000)">
<path d="M 32.0000,10426.0000 L 32.0000,11182.0000 L 6080.0000,11182.0000 L 6080.0000,10426.0000 L 32.0000,10426.0000 Z" stroke-width="1px" stroke="#FFFFFF"  fill="#FFFFFF" />
</g>
<g transform="matrix(1.0000 0.0000 0.0000 1.0000 0.0000 0.0000)">
<defs><clipPath id="clip-1189641421"><path d="M 0.0000,0.0000 L 382.0000,0.0000 L 382.0000,701.0000 L 0.0000,701.0000 L 0.0000,0.0000 Z Z" /></clipPath></defs>
</g>
<g transform="matrix(0.0625 0.0000 0.0000 0.0625 0.0000 0.0000)">
<path  clip-path="url(#clip-1189641421)" d="M 32.0000,11182.0000 L 6080.0000,11182.0000 L 6080.0000,10426.0000 L 32.0000,10426.0000 L 32.0000,11182.0000 Z" stroke="#000000" stroke-width="20.0000"  stroke-linecap="round"  stroke-linejoin="round" fill="none" />
</g>
<g transform="matrix(1.0000 0.0000 0.0000 1.0000 0.0000 0.0000)">
</g>
<g transform="matrix(1.0000 0.0000 0.0000 1.0000 161.3696 680.7285)">
<text font-family="Arial" fill="#000000" style ="white-space:pre;" font-weight="400" text-anchor="start" x="0.0000" y="0.0000" font-size="17.0000" ><![CDATA[Cell info]]></text>
</g>
<g transform="matrix(0.0625 0.0000 0.0000 0.0625 0.0000 0.0000)">
<path d="M 5324.0000,5891.0000 L 5324.0000,6647.0000 L 6080.0000,6647.0000 L 6080.0000,5891.0000 L 5324.0000,5891.0000 Z" stroke-width="1px" stroke="#FFFFFF"  fill="#FFFFFF" />
</g>
<g transform="matrix(1.0000 0.0000 0.0000 1.0000 0.0000 0.0000)">
<defs><clipPath id="clip-1025202362"><path d="M 0.0000,0.0000 L 382.0000,0.0000 L 382.0000,701.0000 L 0.0000,701.0000 L 0.0000,0.0000 Z Z" /></clipPath></defs>
</g>
<g transform="matrix(0.0625 0.0000 0.0000 0.0625 0.0000 0.0000)">
<path  clip-path="url(#clip-1025202362)" d="M 5324.0000,6647.0000 L 6080.0000,6647.0000 L 6080.0000,5891.0000 L 5324.0000,5891.0000 L 5324.0000,6647.0000 Z" stroke="#000000" stroke-width="20.0000"  stroke-linecap="round"  stroke-linejoin="round" fill="none" />
</g>
<g transform="matrix(1.0000 0.0000 0.0000 1.0000 0.0000 0.0000)">
</g>
<g transform="matrix(1.0000 0.0000 0.0000 1.0000 350.8129 397.2639)">
<text font-family="Arial" fill="#000000" style ="white-space:pre;" font-weight="400" text-anchor="start" x="0.0000" y="0.0000" font-size="17.0000" ><![CDATA[R]]></text>
<defs><clipPath id="clip-1350490027"><path d="M 0.0000,0.0000 L 382.0000,0.0000 L 382.0000,701.0000 L 0.0000,701.0000 L 0.0000,0.0000 Z Z" /></clipPath></defs>
</g>
<g transform="matrix(0.0625 0.0000 0.0000 0.0625 0.0000 0.0000)">
<path  clip-path="url(#clip-1350490027)" d="M 6080.0000,32.0000 L 6080.0000,410.0000 " stroke="#000000" stroke-width="20.0000"  stroke-linecap="round"  stroke-linejoin="round" fill="none" />
</g>
<g transform="matrix(1.0000 0.0000 0.0000 1.0000 0.0000 0.0000)">
</g>
<g transform="matrix(0.0625 0.0000 0.0000 0.0625 0.0000 0.0000)">
<path d="M 1544.0000,3623.0000 L 1544.0000,4379.0000 L 2300.0000,4379.0000 L 2300.0000,3623.0000 L 1544.0000,3623.0000 Z" stroke-width="1px" stroke="#FFFFFF"  fill="#FFFFFF" />
</g>
<g transform="matrix(1.0000 0.0000 0.0000 1.0000 0.0000 0.0000)">
</g>
<g transform="matrix(0.0625 0.0000 0.0000 0.0625 0.0000 0.0000)">
<path d="M 1544.0000,4379.0000 L 2300.0000,4379.0000 L 2300.0000,3623.0000 L 1544.0000,3623.0000 L 1544.0000,4379.0000 Z" stroke="#000000" stroke-width="20.0000"  stroke-linecap="round"  stroke-linejoin="round" fill="none" />
</g>
<g transform="matrix(1.0000 0.0000 0.0000 1.0000 0.0000 0.0000)">
</g>
<g transform="matrix(1.0000 0.0000 0.0000 1.0000 111.5803 255.5316)">
<text font-family="Arial" fill="#000000" style ="white-space:pre;" font-weight="400" text-anchor="start" x="0.0000" y="0.0000" font-size="17.0000" ><![CDATA[C]]></text>
</g>
<g transform="matrix(1.0000 0.0000 0.0000 1.0000 123.6163 257.8346)">
<text font-family="Arial" fill="#000000" style ="white-space:pre;" font-weight="400" text-anchor="start" x="0.0000" y="0.0000" font-size="11.0000" ><![CDATA[2]]></text>
</g>
<g transform="matrix(0.0625 0.0000 0.0000 0.0625 0.0000 0.0000)">
<path d="M 2300.0000,3623.0000 L 2300.0000,4379.0000 L 3056.0000,4379.0000 L 3056.0000,3623.0000 L 2300.0000,3623.0000 Z" stroke-width="1px" stroke="#FFFFFF"  fill="#FFFFFF" />
</g>
<g transform="matrix(1.0000 0.0000 0.0000 1.0000 0.0000 0.0000)">
</g>
<g transform="matrix(0.0625 0.0000 0.0000 0.0625 0.0000 0.0000)">
<path d="M 2300.0000,4379.0000 L 3056.0000,4379.0000 L 3056.0000,3623.0000 L 2300.0000,3623.0000 L 2300.0000,4379.0000 Z" stroke="#000000" stroke-width="20.0000"  stroke-linecap="round"  stroke-linejoin="round" fill="none" />
</g>
<g transform="matrix(1.0000 0.0000 0.0000 1.0000 0.0000 0.0000)">
</g>
<g transform="matrix(1.0000 0.0000 0.0000 1.0000 161.8365 255.5316)">
<text font-family="Arial" fill="#000000" style ="white-space:pre;" font-weight="400" text-anchor="start" x="0.0000" y="0.0000" font-size="17.0000" ><![CDATA[R]]></text>
</g>
<g transform="matrix(0.0625 0.0000 0.0000 0.0625 0.0000 0.0000)">
<path d="M 1544.0000,5891.0000 L 1544.0000,6647.0000 L 2300.0000,6647.0000 L 2300.0000,5891.0000 L 1544.0000,5891.0000 Z" stroke-width="1px" stroke="#FFFFFF"  fill="#FFFFFF" />
</g>
<g transform="matrix(1.0000 0.0000 0.0000 1.0000 0.0000 0.0000)">
</g>
<g transform="matrix(0.0625 0.0000 0.0000 0.0625 0.0000 0.0000)">
<path d="M 1544.0000,6647.0000 L 2300.0000,6647.0000 L 2300.0000,5891.0000 L 1544.0000,5891.0000 L 1544.0000,6647.0000 Z" stroke="#000000" stroke-width="20.0000"  stroke-linecap="round"  stroke-linejoin="round" fill="none" />
</g>
<g transform="matrix(1.0000 0.0000 0.0000 1.0000 0.0000 0.0000)">
</g>
<g transform="matrix(1.0000 0.0000 0.0000 1.0000 114.5924 397.2639)">
<text font-family="Arial" fill="#000000" style ="white-space:pre;" font-weight="400" text-anchor="start" x="0.0000" y="0.0000" font-size="17.0000" ><![CDATA[R]]></text>
</g>
<g transform="matrix(0.0625 0.0000 0.0000 0.0625 0.0000 0.0000)">
<path d="M 2300.0000,5891.0000 L 2300.0000,6647.0000 L 3056.0000,6647.0000 L 3056.0000,5891.0000 L 2300.0000,5891.0000 Z" stroke-width="1px" stroke="#FFFFFF"  fill="#FFFFFF" />
</g>
<g transform="matrix(1.0000 0.0000 0.0000 1.0000 0.0000 0.0000)">
</g>
<g transform="matrix(0.0625 0.0000 0.0000 0.0625 0.0000 0.0000)">
<path d="M 2300.0000,6647.0000 L 3056.0000,6647.0000 L 3056.0000,5891.0000 L 2300.0000,5891.0000 L 2300.0000,6647.0000 Z" stroke="#000000" stroke-width="20.0000"  stroke-linecap="round"  stroke-linejoin="round" fill="none" />
</g>
<g transform="matrix(1.0000 0.0000 0.0000 1.0000 0.0000 0.0000)">
</g>
<g transform="matrix(1.0000 0.0000 0.0000 1.0000 161.8365 397.2639)">
<text font-family="Arial" fill="#000000" style ="white-space:pre;" font-weight="400" text-anchor="start" x="0.0000" y="0.0000" font-size="17.0000" ><![CDATA[R]]></text>
</g>
<g transform="matrix(0.0625 0.0000 0.0000 0.0625 0.0000 0.0000)">
<path d="M 32.0000,8158.0000 L 32.0000,8914.0000 L 1544.0000,8914.0000 L 1544.0000,8158.0000 L 32.0000,8158.0000 Z" stroke-width="1px" stroke="#FFFFFF"  fill="#FFFFFF" />
</g>
<g transform="matrix(1.0000 0.0000 0.0000 1.0000 0.0000 0.0000)">
</g>
<g transform="matrix(0.0625 0.0000 0.0000 0.0625 0.0000 0.0000)">
<path d="M 32.0000,8914.0000 L 1544.0000,8914.0000 L 1544.0000,8158.0000 L 32.0000,8158.0000 L 32.0000,8914.0000 Z" stroke="#000000" stroke-width="20.0000"  stroke-linecap="round"  stroke-linejoin="round" fill="none" />
</g>
<g transform="matrix(1.0000 0.0000 0.0000 1.0000 0.0000 0.0000)">
</g>
<g transform="matrix(1.0000 0.0000 0.0000 1.0000 3.4842 529.4962)">
<text font-family="Arial" fill="#000000" style ="white-space:pre;" font-weight="400" text-anchor="start" x="0.0000" y="0.0000" font-size="15.0000" ><![CDATA[IAB]]></text>
</g>
<g transform="matrix(1.0000 0.0000 0.0000 1.0000 27.6614 529.4962)">
<text font-family="Arial" fill="#000000" style ="white-space:pre;" font-weight="400" text-anchor="start" x="0.0000" y="0.0000" font-size="15.0000" ><![CDATA[-]]></text>
</g>
<g transform="matrix(1.0000 0.0000 0.0000 1.0000 32.6566 529.4962)">
<text font-family="Arial" fill="#000000" style ="white-space:pre;" font-weight="400" text-anchor="start" x="0.0000" y="0.0000" font-size="15.0000" ><![CDATA[MT beam ]]></text>
</g>
<g transform="matrix(1.0000 0.0000 0.0000 1.0000 22.4644 547.4959)">
<text font-family="Arial" fill="#000000" style ="white-space:pre;" font-weight="400" text-anchor="start" x="0.0000" y="0.0000" font-size="15.0000" ><![CDATA[type ID]]></text>
</g>
<g transform="matrix(1.0000 0.0000 0.0000 1.0000 69.9840 549.5687)">
<text font-family="Arial" fill="#000000" style ="white-space:pre;" font-weight="400" text-anchor="start" x="0.0000" y="0.0000" font-size="10.0000" ><![CDATA[N]]></text>
</g>
<g transform="matrix(0.0625 0.0000 0.0000 0.0625 0.0000 0.0000)">
<path d="M 3056.0000,8158.0000 L 3056.0000,8914.0000 L 3812.0000,8914.0000 L 3812.0000,8158.0000 L 3056.0000,8158.0000 Z" stroke-width="1px" stroke="#FFFFFF"  fill="#FFFFFF" />
</g>
<g transform="matrix(1.0000 0.0000 0.0000 1.0000 0.0000 0.0000)">
</g>
<g transform="matrix(0.0625 0.0000 0.0000 0.0625 0.0000 0.0000)">
<path d="M 3056.0000,8914.0000 L 3812.0000,8914.0000 L 3812.0000,8158.0000 L 3056.0000,8158.0000 L 3056.0000,8914.0000 Z" stroke="#000000" stroke-width="20.0000"  stroke-linecap="round"  stroke-linejoin="round" fill="none" />
</g>
<g transform="matrix(1.0000 0.0000 0.0000 1.0000 0.0000 0.0000)">
</g>
<g transform="matrix(1.0000 0.0000 0.0000 1.0000 209.0806 538.9962)">
<text font-family="Arial" fill="#000000" style ="white-space:pre;" font-weight="400" text-anchor="start" x="0.0000" y="0.0000" font-size="17.0000" ><![CDATA[R]]></text>
</g>
<g transform="matrix(0.0625 0.0000 0.0000 0.0625 0.0000 0.0000)">
<path d="M 3812.0000,8158.0000 L 3812.0000,8914.0000 L 4568.0000,8914.0000 L 4568.0000,8158.0000 L 3812.0000,8158.0000 Z" stroke-width="1px" stroke="#FFFFFF"  fill="#FFFFFF" />
</g>
<g transform="matrix(1.0000 0.0000 0.0000 1.0000 0.0000 0.0000)">
</g>
<g transform="matrix(0.0625 0.0000 0.0000 0.0625 0.0000 0.0000)">
<path d="M 3812.0000,8914.0000 L 4568.0000,8914.0000 L 4568.0000,8158.0000 L 3812.0000,8158.0000 L 3812.0000,8914.0000 Z" stroke="#000000" stroke-width="20.0000"  stroke-linecap="round"  stroke-linejoin="round" fill="none" />
</g>
<g transform="matrix(1.0000 0.0000 0.0000 1.0000 0.0000 0.0000)">
</g>
<g transform="matrix(1.0000 0.0000 0.0000 1.0000 256.3247 538.9962)">
<text font-family="Arial" fill="#000000" style ="white-space:pre;" font-weight="400" text-anchor="start" x="0.0000" y="0.0000" font-size="17.0000" ><![CDATA[R]]></text>
</g>
<g transform="matrix(0.0625 0.0000 0.0000 0.0625 0.0000 0.0000)">
<path d="M 4568.0000,8158.0000 L 4568.0000,8914.0000 L 5324.0000,8914.0000 L 5324.0000,8158.0000 L 4568.0000,8158.0000 Z" stroke-width="1px" stroke="#FFFFFF"  fill="#FFFFFF" />
</g>
<g transform="matrix(1.0000 0.0000 0.0000 1.0000 0.0000 0.0000)">
</g>
<g transform="matrix(0.0625 0.0000 0.0000 0.0625 0.0000 0.0000)">
<path d="M 4568.0000,8914.0000 L 5324.0000,8914.0000 L 5324.0000,8158.0000 L 4568.0000,8158.0000 L 4568.0000,8914.0000 Z" stroke="#000000" stroke-width="20.0000"  stroke-linecap="round"  stroke-linejoin="round" fill="none" />
</g>
<g transform="matrix(1.0000 0.0000 0.0000 1.0000 0.0000 0.0000)">
</g>
<g transform="matrix(1.0000 0.0000 0.0000 1.0000 303.5688 538.9962)">
<text font-family="Arial" fill="#000000" style ="white-space:pre;" font-weight="400" text-anchor="start" x="0.0000" y="0.0000" font-size="17.0000" ><![CDATA[R]]></text>
</g>
<g transform="matrix(0.0625 0.0000 0.0000 0.0625 0.0000 0.0000)">
<path d="M 32.0000,8914.0000 L 32.0000,9670.0000 L 6080.0000,9670.0000 L 6080.0000,8914.0000 L 32.0000,8914.0000 Z" stroke-width="1px" stroke="#FFFFFF"  fill="#FFFFFF" />
</g>
<g transform="matrix(1.0000 0.0000 0.0000 1.0000 0.0000 0.0000)">
<defs><clipPath id="clip-783368690"><path d="M 0.0000,0.0000 L 382.0000,0.0000 L 382.0000,701.0000 L 0.0000,701.0000 L 0.0000,0.0000 Z Z" /></clipPath></defs>
</g>
<g transform="matrix(0.0625 0.0000 0.0000 0.0625 0.0000 0.0000)">
<path  clip-path="url(#clip-783368690)" d="M 32.0000,9670.0000 L 6080.0000,9670.0000 L 6080.0000,8914.0000 L 32.0000,8914.0000 L 32.0000,9670.0000 Z" stroke="#000000" stroke-width="20.0000"  stroke-linecap="round"  stroke-linejoin="round" fill="none" />
</g>
<g transform="matrix(1.0000 0.0000 0.0000 1.0000 0.0000 0.0000)">
</g>
<g transform="matrix(1.0000 0.0000 0.0000 1.0000 97.2649 586.2402)">
<text font-family="Arial" fill="#000000" style ="white-space:pre;" font-weight="400" text-anchor="start" x="0.0000" y="0.0000" font-size="17.0000" ><![CDATA[IAB]]></text>
</g>
<g transform="matrix(1.0000 0.0000 0.0000 1.0000 124.1292 586.2402)">
<text font-family="Arial" fill="#000000" style ="white-space:pre;" font-weight="400" text-anchor="start" x="0.0000" y="0.0000" font-size="17.0000" ><![CDATA[-]]></text>
</g>
<g transform="matrix(1.0000 0.0000 0.0000 1.0000 129.6791 586.2402)">
<text font-family="Arial" fill="#000000" style ="white-space:pre;" font-weight="400" text-anchor="start" x="0.0000" y="0.0000" font-size="17.0000" ><![CDATA[MT Resource set ID]]></text>
</g>
<g transform="matrix(1.0000 0.0000 0.0000 1.0000 277.8659 588.5433)">
<text font-family="Arial" fill="#000000" style ="white-space:pre;" font-weight="400" text-anchor="start" x="0.0000" y="0.0000" font-size="11.0000" ><![CDATA[N]]></text>
</g>
<g transform="matrix(0.0625 0.0000 0.0000 0.0625 0.0000 0.0000)">
<path d="M 5324.0000,8158.0000 L 5324.0000,8914.0000 L 6080.0000,8914.0000 L 6080.0000,8158.0000 L 5324.0000,8158.0000 Z" stroke-width="1px" stroke="#FFFFFF"  fill="#FFFFFF" />
</g>
<g transform="matrix(1.0000 0.0000 0.0000 1.0000 0.0000 0.0000)">
<defs><clipPath id="clip-1102520059"><path d="M 0.0000,0.0000 L 382.0000,0.0000 L 382.0000,701.0000 L 0.0000,701.0000 L 0.0000,0.0000 Z Z" /></clipPath></defs>
</g>
<g transform="matrix(0.0625 0.0000 0.0000 0.0625 0.0000 0.0000)">
<path  clip-path="url(#clip-1102520059)" d="M 5324.0000,8914.0000 L 6080.0000,8914.0000 L 6080.0000,8158.0000 L 5324.0000,8158.0000 L 5324.0000,8914.0000 Z" stroke="#000000" stroke-width="20.0000"  stroke-linecap="round"  stroke-linejoin="round" fill="none" />
</g>
<g transform="matrix(1.0000 0.0000 0.0000 1.0000 0.0000 0.0000)">
</g>
<g transform="matrix(1.0000 0.0000 0.0000 1.0000 350.8129 538.9962)">
<text font-family="Arial" fill="#000000" style ="white-space:pre;" font-weight="400" text-anchor="start" x="0.0000" y="0.0000" font-size="17.0000" ><![CDATA[R]]></text>
</g>
<g transform="matrix(0.0625 0.0000 0.0000 0.0625 0.0000 0.0000)">
<path d="M 1544.0000,8158.0000 L 1544.0000,8914.0000 L 2300.0000,8914.0000 L 2300.0000,8158.0000 L 1544.0000,8158.0000 Z" stroke-width="1px" stroke="#FFFFFF"  fill="#FFFFFF" />
</g>
<g transform="matrix(1.0000 0.0000 0.0000 1.0000 0.0000 0.0000)">
</g>
<g transform="matrix(0.0625 0.0000 0.0000 0.0625 0.0000 0.0000)">
<path d="M 1544.0000,8914.0000 L 2300.0000,8914.0000 L 2300.0000,8158.0000 L 1544.0000,8158.0000 L 1544.0000,8914.0000 Z" stroke="#000000" stroke-width="20.0000"  stroke-linecap="round"  stroke-linejoin="round" fill="none" />
</g>
<g transform="matrix(1.0000 0.0000 0.0000 1.0000 0.0000 0.0000)">
</g>
<g transform="matrix(1.0000 0.0000 0.0000 1.0000 114.5924 538.9962)">
<text font-family="Arial" fill="#000000" style ="white-space:pre;" font-weight="400" text-anchor="start" x="0.0000" y="0.0000" font-size="17.0000" ><![CDATA[R]]></text>
</g>
<g transform="matrix(0.0625 0.0000 0.0000 0.0625 0.0000 0.0000)">
<path d="M 2300.0000,8158.0000 L 2300.0000,8914.0000 L 3056.0000,8914.0000 L 3056.0000,8158.0000 L 2300.0000,8158.0000 Z" stroke-width="1px" stroke="#FFFFFF"  fill="#FFFFFF" />
</g>
<g transform="matrix(1.0000 0.0000 0.0000 1.0000 0.0000 0.0000)">
</g>
<g transform="matrix(0.0625 0.0000 0.0000 0.0625 0.0000 0.0000)">
<path d="M 2300.0000,8914.0000 L 3056.0000,8914.0000 L 3056.0000,8158.0000 L 2300.0000,8158.0000 L 2300.0000,8914.0000 Z" stroke="#000000" stroke-width="20.0000"  stroke-linecap="round"  stroke-linejoin="round" fill="none" />
</g>
<g transform="matrix(1.0000 0.0000 0.0000 1.0000 0.0000 0.0000)">
</g>
<g transform="matrix(1.0000 0.0000 0.0000 1.0000 161.8365 538.9962)">
<text font-family="Arial" fill="#000000" style ="white-space:pre;" font-weight="400" text-anchor="start" x="0.0000" y="0.0000" font-size="17.0000" ><![CDATA[R]]></text>
</g>
<g transform="matrix(0.0625 0.0000 0.0000 0.0625 0.0000 0.0000)">
<path d="M 32.0000,9670.0000 L 32.0000,10426.0000 L 1544.0000,10426.0000 L 1544.0000,9670.0000 L 32.0000,9670.0000 Z" stroke-width="1px" stroke="#FFFFFF"  fill="#FFFFFF" />
</g>
<g transform="matrix(1.0000 0.0000 0.0000 1.0000 0.0000 0.0000)">
</g>
<g transform="matrix(0.0625 0.0000 0.0000 0.0625 0.0000 0.0000)">
<path d="M 32.0000,10426.0000 L 1544.0000,10426.0000 L 1544.0000,9670.0000 L 32.0000,9670.0000 L 32.0000,10426.0000 Z" stroke="#000000" stroke-width="20.0000"  stroke-linecap="round"  stroke-linejoin="round" fill="none" />
</g>
<g transform="matrix(1.0000 0.0000 0.0000 1.0000 0.0000 0.0000)">
</g>
<g transform="matrix(1.0000 0.0000 0.0000 1.0000 12.3250 624.4843)">
<text font-family="Arial" fill="#000000" style ="white-space:pre;" font-weight="400" text-anchor="start" x="0.0000" y="0.0000" font-size="13.0000" ><![CDATA[DU resource ]]></text>
</g>
<g transform="matrix(1.0000 0.0000 0.0000 1.0000 11.5706 640.4840)">
<text font-family="Arial" fill="#000000" style ="white-space:pre;" font-weight="400" text-anchor="start" x="0.0000" y="0.0000" font-size="13.0000" ><![CDATA[configuration]]></text>
</g>
<g transform="matrix(0.0625 0.0000 0.0000 0.0625 0.0000 0.0000)">
<path d="M 32.0000,2867.0000 L 32.0000,3623.0000 L 6080.0000,3623.0000 L 6080.0000,2867.0000 L 32.0000,2867.0000 Z" stroke-width="1px" stroke="#FFFFFF"  fill="#FFFFFF" />
</g>
<g transform="matrix(1.0000 0.0000 0.0000 1.0000 0.0000 0.0000)">
<defs><clipPath id="clip-2044897763"><path d="M 0.0000,0.0000 L 382.0000,0.0000 L 382.0000,701.0000 L 0.0000,701.0000 L 0.0000,0.0000 Z Z" /></clipPath></defs>
</g>
<g transform="matrix(0.0625 0.0000 0.0000 0.0625 0.0000 0.0000)">
<path  clip-path="url(#clip-2044897763)" d="M 32.0000,3623.0000 L 6080.0000,3623.0000 L 6080.0000,2867.0000 L 32.0000,2867.0000 L 32.0000,3623.0000 Z" stroke="#000000" stroke-width="20.0000"  stroke-linecap="round"  stroke-linejoin="round" fill="none" />
</g>
<g transform="matrix(1.0000 0.0000 0.0000 1.0000 0.0000 0.0000)">
</g>
<g transform="matrix(1.0000 0.0000 0.0000 1.0000 111.8208 208.2875)">
<text font-family="Arial" fill="#000000" style ="white-space:pre;" font-weight="400" text-anchor="start" x="0.0000" y="0.0000" font-size="17.0000" ><![CDATA[Reference CSI]]></text>
</g>
<g transform="matrix(1.0000 0.0000 0.0000 1.0000 221.1316 208.2875)">
<text font-family="Arial" fill="#000000" style ="white-space:pre;" font-weight="400" text-anchor="start" x="0.0000" y="0.0000" font-size="17.0000" ><![CDATA[-]]></text>
</g>
<g transform="matrix(1.0000 0.0000 0.0000 1.0000 226.6815 208.2875)">
<text font-family="Arial" fill="#000000" style ="white-space:pre;" font-weight="400" text-anchor="start" x="0.0000" y="0.0000" font-size="17.0000" ><![CDATA[RS ID]]></text>
</g>
</g>
</svg>
