<?xml version="1.0"  encoding="UTF-8" standalone="no"?>
<svg version="1.1" xmlns="http://www.w3.org/2000/svg" xmlns:xlink="http://www.w3.org/1999/xlink" width="895.0000" height="193.0000">
<g transform="translate(4.0000, 1.0000)">
<g transform="matrix(0.0625 0.0000 0.0000 0.0625 0.0000 0.0000)">
<path d="M 19.0000,2438.0000 L 19.0000,3043.0000 L 1833.0000,3043.0000 L 1833.0000,2438.0000 L 19.0000,2438.0000 Z" stroke-width="1px" stroke="#FFFFFF"  fill="#FFFFFF" />
</g>
<g transform="matrix(1.0000 0.0000 0.0000 1.0000 0.0000 0.0000)">
</g>
<g transform="matrix(0.0625 0.0000 0.0000 0.0625 0.0000 0.0000)">
<path d="M 19.0000,3043.0000 L 1833.0000,3043.0000 L 1833.0000,2438.0000 L 19.0000,2438.0000 L 19.0000,3043.0000 Z" stroke="#000000" stroke-width="16.0000"  stroke-linecap="round"  stroke-linejoin="round" fill="none" />
</g>
<g transform="matrix(1.0000 0.0000 0.0000 1.0000 0.0000 0.0000)">
</g>
<g transform="matrix(1.0000 0.0000 0.0000 1.0000 11.3020 167.7389)">
<text font-family="Arial" fill="#000000" style ="white-space:pre;" font-weight="400" text-anchor="start" x="0.0000" y="0.0000" font-size="13.0000" ><![CDATA[MAC subPDU ]]></text>
</g>
<g transform="matrix(1.0000 0.0000 0.0000 1.0000 97.9889 167.7389)">
<text font-family="Arial" fill="#000000" style ="white-space:pre;" font-weight="400" text-anchor="start" x="0.0000" y="0.0000" font-size="13.0000" ><![CDATA[1 ]]></text>
</g>
<g transform="matrix(1.0000 0.0000 0.0000 1.0000 33.5317 183.7390)">
<text font-family="Arial" fill="#000000" style ="white-space:pre;" font-weight="400" text-anchor="start" x="0.0000" y="0.0000" font-size="13.0000" ><![CDATA[(]]></text>
</g>
<g transform="matrix(1.0000 0.0000 0.0000 1.0000 37.9716 183.7390)">
<text font-family="Arial" fill="#000000" style ="white-space:pre;" font-weight="400" text-anchor="start" x="0.0000" y="0.0000" font-size="13.0000" ><![CDATA[BI only]]></text>
</g>
<g transform="matrix(1.0000 0.0000 0.0000 1.0000 78.7342 183.7390)">
<text font-family="Arial" fill="#000000" style ="white-space:pre;" font-weight="400" text-anchor="start" x="0.0000" y="0.0000" font-size="13.0000" ><![CDATA[)]]></text>
</g>
<g transform="matrix(0.0625 0.0000 0.0000 0.0625 0.0000 0.0000)">
<path d="M 1833.0000,2438.0000 L 1833.0000,3043.0000 L 3647.0000,3043.0000 L 3647.0000,2438.0000 L 1833.0000,2438.0000 Z" stroke-width="1px" stroke="#FFFFFF"  fill="#FFFFFF" />
</g>
<g transform="matrix(1.0000 0.0000 0.0000 1.0000 0.0000 0.0000)">
</g>
<g transform="matrix(0.0625 0.0000 0.0000 0.0625 0.0000 0.0000)">
<path d="M 1833.0000,3043.0000 L 3647.0000,3043.0000 L 3647.0000,2438.0000 L 1833.0000,2438.0000 L 1833.0000,3043.0000 Z" stroke="#000000" stroke-width="16.0000"  stroke-linecap="round"  stroke-linejoin="round" fill="none" />
</g>
<g transform="matrix(1.0000 0.0000 0.0000 1.0000 0.0000 0.0000)">
</g>
<g transform="matrix(1.0000 0.0000 0.0000 1.0000 124.6878 167.7389)">
<text font-family="Arial" fill="#000000" style ="white-space:pre;" font-weight="400" text-anchor="start" x="0.0000" y="0.0000" font-size="13.0000" ><![CDATA[MAC subPDU ]]></text>
</g>
<g transform="matrix(1.0000 0.0000 0.0000 1.0000 211.3747 167.7389)">
<text font-family="Arial" fill="#000000" style ="white-space:pre;" font-weight="400" text-anchor="start" x="0.0000" y="0.0000" font-size="13.0000" ><![CDATA[2 ]]></text>
</g>
<g transform="matrix(1.0000 0.0000 0.0000 1.0000 132.8422 183.7390)">
<text font-family="Arial" fill="#000000" style ="white-space:pre;" font-weight="400" text-anchor="start" x="0.0000" y="0.0000" font-size="13.0000" ><![CDATA[(]]></text>
</g>
<g transform="matrix(1.0000 0.0000 0.0000 1.0000 137.2822 183.7390)">
<text font-family="Arial" fill="#000000" style ="white-space:pre;" font-weight="400" text-anchor="start" x="0.0000" y="0.0000" font-size="13.0000" ><![CDATA[RAPID only]]></text>
</g>
<g transform="matrix(1.0000 0.0000 0.0000 1.0000 206.1957 183.7390)">
<text font-family="Arial" fill="#000000" style ="white-space:pre;" font-weight="400" text-anchor="start" x="0.0000" y="0.0000" font-size="13.0000" ><![CDATA[)]]></text>
</g>
<g transform="matrix(1.0000 0.0000 0.0000 1.0000 545.8045 175.7033)">
<text font-family="Arial" fill="#000000" style ="white-space:pre;" font-weight="400" text-anchor="start" x="0.0000" y="0.0000" font-size="32.0000" ><![CDATA[...]]></text>
</g>
<g transform="matrix(0.0625 0.0000 0.0000 0.0625 0.0000 0.0000)">
<path d="M 9392.0000,2438.0000 L 9392.0000,3043.0000 L 11811.0000,3043.0000 L 11811.0000,2438.0000 L 9392.0000,2438.0000 Z" stroke-width="1px" stroke="#FFFFFF"  fill="#FFFFFF" />
</g>
<g transform="matrix(1.0000 0.0000 0.0000 1.0000 0.0000 0.0000)">
</g>
<g transform="matrix(0.0625 0.0000 0.0000 0.0625 0.0000 0.0000)">
<path d="M 9392.0000,3043.0000 L 11811.0000,3043.0000 L 11811.0000,2438.0000 L 9392.0000,2438.0000 L 9392.0000,3043.0000 Z" stroke="#000000" stroke-width="16.0000"  stroke-linecap="round"  stroke-linejoin="round" fill="none" />
</g>
<g transform="matrix(1.0000 0.0000 0.0000 1.0000 0.0000 0.0000)">
</g>
<g transform="matrix(1.0000 0.0000 0.0000 1.0000 616.0263 175.7388)">
<text font-family="Arial" fill="#000000" style ="white-space:pre;" font-weight="400" text-anchor="start" x="0.0000" y="0.0000" font-size="13.0000" ><![CDATA[MAC subPDU n]]></text>
</g>
<g transform="matrix(0.0625 0.0000 0.0000 0.0625 0.0000 0.0000)">
<path d="M 11811.0000,2438.0000 L 11811.0000,3043.0000 L 14230.0000,3043.0000 L 14230.0000,2438.0000 L 11811.0000,2438.0000 Z" stroke-width="1px" stroke="#FFFFFF"  fill="#FFFFFF" />
</g>
<g transform="matrix(1.0000 0.0000 0.0000 1.0000 0.0000 0.0000)">
</g>
<g transform="matrix(0.0625 0.0000 0.0000 0.0625 0.0000 0.0000)">
<path d="M 11811.0000,3043.0000 L 14230.0000,3043.0000 L 14230.0000,2438.0000 L 11811.0000,2438.0000 L 11811.0000,3043.0000 Z" stroke="#000000" stroke-width="16.0000"  stroke-linecap="round"  stroke-linejoin="round" fill="none" />
</g>
<g transform="matrix(1.0000 0.0000 0.0000 1.0000 0.0000 0.0000)">
</g>
<g transform="matrix(1.0000 0.0000 0.0000 1.0000 774.2321 175.7388)">
<text font-family="Arial" fill="#000000" style ="white-space:pre;" font-weight="400" text-anchor="start" x="0.0000" y="0.0000" font-size="13.0000" ><![CDATA[Padding ]]></text>
</g>
<g transform="matrix(1.0000 0.0000 0.0000 1.0000 826.8694 175.7388)">
<text font-family="Arial" fill="#000000" style ="white-space:pre;" font-weight="400" text-anchor="start" x="0.0000" y="0.0000" font-size="13.0000" ><![CDATA[(]]></text>
</g>
<g transform="matrix(1.0000 0.0000 0.0000 1.0000 831.3093 175.7388)">
<text font-family="Arial" fill="#000000" style ="white-space:pre;" font-weight="400" text-anchor="start" x="0.0000" y="0.0000" font-size="13.0000" ><![CDATA[opt]]></text>
</g>
<g transform="matrix(1.0000 0.0000 0.0000 1.0000 849.8447 175.7388)">
<text font-family="Arial" fill="#000000" style ="white-space:pre;" font-weight="400" text-anchor="start" x="0.0000" y="0.0000" font-size="13.0000" ><![CDATA[)]]></text>
</g>
<g transform="matrix(0.0625 0.0000 0.0000 0.0625 0.0000 0.0000)">
<path d="M 11.0000,2438.0000 L 11.0000,2326.0000 C 11.0000,2321.0000 15.0000,2318.0000 19.0000,2318.0000 C 23.0000,2318.0000 27.0000,2321.0000 27.0000,2326.0000 L 27.0000,2438.0000 C 27.0000,2442.0000 23.0000,2446.0000 19.0000,2446.0000 C 15.0000,2446.0000 11.0000,2442.0000 11.0000,2438.0000 Z M 11.0000,2246.0000 L 11.0000,2134.0000 C 11.0000,2129.0000 15.0000,2126.0000 19.0000,2126.0000 C 23.0000,2126.0000 27.0000,2129.0000 27.0000,2134.0000 L 27.0000,2246.0000 C 27.0000,2250.0000 23.0000,2254.0000 19.0000,2254.0000 C 15.0000,2254.0000 11.0000,2250.0000 11.0000,2246.0000 Z M 11.0000,2054.0000 L 11.0000,1941.0000 C 11.0000,1937.0000 15.0000,1933.0000 19.0000,1933.0000 C 23.0000,1933.0000 27.0000,1937.0000 27.0000,1941.0000 L 27.0000,2054.0000 C 27.0000,2058.0000 23.0000,2062.0000 19.0000,2062.0000 C 15.0000,2062.0000 11.0000,2058.0000 11.0000,2054.0000 Z M 11.0000,1861.0000 L 11.0000,1749.0000 C 11.0000,1745.0000 15.0000,1741.0000 19.0000,1741.0000 C 23.0000,1741.0000 27.0000,1745.0000 27.0000,1749.0000 L 27.0000,1861.0000 C 27.0000,1866.0000 23.0000,1869.0000 19.0000,1869.0000 C 15.0000,1869.0000 11.0000,1866.0000 11.0000,1861.0000 Z M 11.0000,1669.0000 L 11.0000,1557.0000 C 11.0000,1553.0000 15.0000,1549.0000 19.0000,1549.0000 C 23.0000,1549.0000 27.0000,1553.0000 27.0000,1557.0000 L 27.0000,1669.0000 C 27.0000,1674.0000 23.0000,1677.0000 19.0000,1677.0000 C 15.0000,1677.0000 11.0000,1674.0000 11.0000,1669.0000 Z M 11.0000,1477.0000 L 11.0000,1365.0000 C 11.0000,1360.0000 15.0000,1357.0000 19.0000,1357.0000 C 23.0000,1357.0000 27.0000,1360.0000 27.0000,1365.0000 L 27.0000,1477.0000 C 27.0000,1481.0000 23.0000,1485.0000 19.0000,1485.0000 C 15.0000,1485.0000 11.0000,1481.0000 11.0000,1477.0000 Z M 11.0000,1285.0000 L 11.0000,1173.0000 C 11.0000,1168.0000 15.0000,1165.0000 19.0000,1165.0000 C 23.0000,1165.0000 27.0000,1168.0000 27.0000,1173.0000 L 27.0000,1285.0000 C 27.0000,1289.0000 23.0000,1293.0000 19.0000,1293.0000 C 15.0000,1293.0000 11.0000,1289.0000 11.0000,1285.0000 Z M 11.0000,1093.0000 L 11.0000,980.0000 C 11.0000,976.0000 15.0000,972.0000 19.0000,972.0000 C 23.0000,972.0000 27.0000,976.0000 27.0000,980.0000 L 27.0000,1093.0000 C 27.0000,1097.0000 23.0000,1101.0000 19.0000,1101.0000 C 15.0000,1101.0000 11.0000,1097.0000 11.0000,1093.0000 Z M 11.0000,900.0000 L 11.0000,788.0000 C 11.0000,784.0000 15.0000,780.0000 19.0000,780.0000 C 23.0000,780.0000 27.0000,784.0000 27.0000,788.0000 L 27.0000,900.0000 C 27.0000,905.0000 23.0000,908.0000 19.0000,908.0000 C 15.0000,908.0000 11.0000,905.0000 11.0000,900.0000 Z M 11.0000,708.0000 L 11.0000,624.0000 C 11.0000,619.0000 15.0000,616.0000 19.0000,616.0000 C 23.0000,616.0000 27.0000,619.0000 27.0000,624.0000 L 27.0000,708.0000 C 27.0000,713.0000 23.0000,716.0000 19.0000,716.0000 C 15.0000,716.0000 11.0000,713.0000 11.0000,708.0000 Z "  fill="#000000" stroke="#000000" stroke-width="1.0000"  stroke-linecap="butt"  stroke-linejoin="round" />
</g>
<g transform="matrix(1.0000 0.0000 0.0000 1.0000 0.0000 0.0000)">
</g>
<g transform="matrix(0.0625 0.0000 0.0000 0.0625 0.0000 0.0000)">
<path d="M 19.0000,19.0000 L 19.0000,624.0000 L 1833.0000,624.0000 L 1833.0000,19.0000 L 19.0000,19.0000 Z" stroke-width="1px" stroke="#FFFFFF"  fill="#FFFFFF" />
</g>
<g transform="matrix(1.0000 0.0000 0.0000 1.0000 0.0000 0.0000)">
</g>
<g transform="matrix(0.0625 0.0000 0.0000 0.0625 0.0000 0.0000)">
<path d="M 19.0000,624.0000 L 1833.0000,624.0000 L 1833.0000,19.0000 L 19.0000,19.0000 L 19.0000,624.0000 Z" stroke="#000000" stroke-width="16.0000"  stroke-linecap="round"  stroke-linejoin="round" fill="none" />
</g>
<g transform="matrix(1.0000 0.0000 0.0000 1.0000 0.0000 0.0000)">
</g>
<g transform="matrix(1.0000 0.0000 0.0000 1.0000 29.6832 16.9577)">
<text font-family="Arial" fill="#000000" style ="white-space:pre;" font-weight="400" text-anchor="start" x="0.0000" y="0.0000" font-size="12.0000" ><![CDATA[E]]></text>
</g>
<g transform="matrix(1.0000 0.0000 0.0000 1.0000 37.6871 16.9577)">
<text font-family="Arial" fill="#000000" style ="white-space:pre;" font-weight="400" text-anchor="start" x="0.0000" y="0.0000" font-size="12.0000" ><![CDATA[/]]></text>
</g>
<g transform="matrix(1.0000 0.0000 0.0000 1.0000 41.0211 16.9577)">
<text font-family="Arial" fill="#000000" style ="white-space:pre;" font-weight="400" text-anchor="start" x="0.0000" y="0.0000" font-size="12.0000" ><![CDATA[T]]></text>
</g>
<g transform="matrix(1.0000 0.0000 0.0000 1.0000 48.3512 16.9577)">
<text font-family="Arial" fill="#000000" style ="white-space:pre;" font-weight="400" text-anchor="start" x="0.0000" y="0.0000" font-size="12.0000" ><![CDATA[/]]></text>
</g>
<g transform="matrix(1.0000 0.0000 0.0000 1.0000 51.6851 16.9577)">
<text font-family="Arial" fill="#000000" style ="white-space:pre;" font-weight="400" text-anchor="start" x="0.0000" y="0.0000" font-size="12.0000" ><![CDATA[R]]></text>
</g>
<g transform="matrix(1.0000 0.0000 0.0000 1.0000 60.3512 16.9577)">
<text font-family="Arial" fill="#000000" style ="white-space:pre;" font-weight="400" text-anchor="start" x="0.0000" y="0.0000" font-size="12.0000" ><![CDATA[/]]></text>
</g>
<g transform="matrix(1.0000 0.0000 0.0000 1.0000 63.6851 16.9577)">
<text font-family="Arial" fill="#000000" style ="white-space:pre;" font-weight="400" text-anchor="start" x="0.0000" y="0.0000" font-size="12.0000" ><![CDATA[R]]></text>
</g>
<g transform="matrix(1.0000 0.0000 0.0000 1.0000 72.3512 16.9577)">
<text font-family="Arial" fill="#000000" style ="white-space:pre;" font-weight="400" text-anchor="start" x="0.0000" y="0.0000" font-size="12.0000" ><![CDATA[/]]></text>
</g>
<g transform="matrix(1.0000 0.0000 0.0000 1.0000 75.6852 16.9577)">
<text font-family="Arial" fill="#000000" style ="white-space:pre;" font-weight="400" text-anchor="start" x="0.0000" y="0.0000" font-size="12.0000" ><![CDATA[BI ]]></text>
</g>
<g transform="matrix(1.0000 0.0000 0.0000 1.0000 29.9967 31.3575)">
<text font-family="Arial" fill="#000000" style ="white-space:pre;" font-weight="400" text-anchor="start" x="0.0000" y="0.0000" font-size="12.0000" ><![CDATA[subheader]]></text>
</g>
<g transform="matrix(0.0625 0.0000 0.0000 0.0625 0.0000 0.0000)">
<path d="M 2136.0000,19.0000 L 2136.0000,624.0000 L 3950.0000,624.0000 L 3950.0000,19.0000 L 2136.0000,19.0000 Z" stroke-width="1px" stroke="#FFFFFF"  fill="#FFFFFF" />
</g>
<g transform="matrix(1.0000 0.0000 0.0000 1.0000 0.0000 0.0000)">
</g>
<g transform="matrix(0.0625 0.0000 0.0000 0.0625 0.0000 0.0000)">
<path d="M 2136.0000,624.0000 L 3950.0000,624.0000 L 3950.0000,19.0000 L 2136.0000,19.0000 L 2136.0000,624.0000 Z" stroke="#000000" stroke-width="16.0000"  stroke-linecap="round"  stroke-linejoin="round" fill="none" />
</g>
<g transform="matrix(1.0000 0.0000 0.0000 1.0000 0.0000 0.0000)">
</g>
<g transform="matrix(1.0000 0.0000 0.0000 1.0000 161.2987 16.9577)">
<text font-family="Arial" fill="#000000" style ="white-space:pre;" font-weight="400" text-anchor="start" x="0.0000" y="0.0000" font-size="12.0000" ><![CDATA[E]]></text>
</g>
<g transform="matrix(1.0000 0.0000 0.0000 1.0000 169.3026 16.9577)">
<text font-family="Arial" fill="#000000" style ="white-space:pre;" font-weight="400" text-anchor="start" x="0.0000" y="0.0000" font-size="12.0000" ><![CDATA[/]]></text>
</g>
<g transform="matrix(1.0000 0.0000 0.0000 1.0000 172.6366 16.9577)">
<text font-family="Arial" fill="#000000" style ="white-space:pre;" font-weight="400" text-anchor="start" x="0.0000" y="0.0000" font-size="12.0000" ><![CDATA[T]]></text>
</g>
<g transform="matrix(1.0000 0.0000 0.0000 1.0000 179.9667 16.9577)">
<text font-family="Arial" fill="#000000" style ="white-space:pre;" font-weight="400" text-anchor="start" x="0.0000" y="0.0000" font-size="12.0000" ><![CDATA[/]]></text>
</g>
<g transform="matrix(1.0000 0.0000 0.0000 1.0000 183.3006 16.9577)">
<text font-family="Arial" fill="#000000" style ="white-space:pre;" font-weight="400" text-anchor="start" x="0.0000" y="0.0000" font-size="12.0000" ><![CDATA[RAPID ]]></text>
</g>
<g transform="matrix(1.0000 0.0000 0.0000 1.0000 162.2801 31.3575)">
<text font-family="Arial" fill="#000000" style ="white-space:pre;" font-weight="400" text-anchor="start" x="0.0000" y="0.0000" font-size="12.0000" ><![CDATA[subheader]]></text>
</g>
<g transform="matrix(0.0625 0.0000 0.0000 0.0625 0.0000 0.0000)">
<path d="M 3640.0000,2435.0000 L 3675.0000,2329.0000 C 3677.0000,2325.0000 3681.0000,2323.0000 3685.0000,2324.0000 C 3690.0000,2325.0000 3692.0000,2330.0000 3690.0000,2334.0000 L 3655.0000,2440.0000 C 3654.0000,2445.0000 3649.0000,2447.0000 3645.0000,2446.0000 C 3641.0000,2444.0000 3638.0000,2440.0000 3640.0000,2435.0000 Z M 3701.0000,2253.0000 L 3736.0000,2147.0000 C 3737.0000,2143.0000 3742.0000,2140.0000 3746.0000,2142.0000 C 3750.0000,2143.0000 3753.0000,2148.0000 3751.0000,2152.0000 L 3716.0000,2258.0000 C 3714.0000,2262.0000 3710.0000,2265.0000 3706.0000,2263.0000 C 3701.0000,2262.0000 3699.0000,2257.0000 3701.0000,2253.0000 Z M 3761.0000,2071.0000 L 3797.0000,1964.0000 C 3798.0000,1960.0000 3803.0000,1958.0000 3807.0000,1959.0000 C 3811.0000,1961.0000 3813.0000,1965.0000 3812.0000,1969.0000 L 3777.0000,2076.0000 C 3775.0000,2080.0000 3771.0000,2082.0000 3766.0000,2081.0000 C 3762.0000,2079.0000 3760.0000,2075.0000 3761.0000,2071.0000 Z M 3822.0000,1888.0000 L 3858.0000,1782.0000 C 3859.0000,1778.0000 3863.0000,1776.0000 3868.0000,1777.0000 C 3872.0000,1778.0000 3874.0000,1783.0000 3873.0000,1787.0000 L 3837.0000,1893.0000 C 3836.0000,1898.0000 3831.0000,1900.0000 3827.0000,1899.0000 C 3823.0000,1897.0000 3821.0000,1893.0000 3822.0000,1888.0000 Z M 3883.0000,1706.0000 L 3918.0000,1600.0000 C 3920.0000,1596.0000 3924.0000,1593.0000 3928.0000,1595.0000 C 3933.0000,1596.0000 3935.0000,1601.0000 3934.0000,1605.0000 L 3898.0000,1711.0000 C 3897.0000,1715.0000 3892.0000,1718.0000 3888.0000,1716.0000 C 3884.0000,1715.0000 3881.0000,1710.0000 3883.0000,1706.0000 Z M 3944.0000,1524.0000 L 3979.0000,1417.0000 C 3981.0000,1413.0000 3985.0000,1411.0000 3989.0000,1412.0000 C 3993.0000,1414.0000 3996.0000,1418.0000 3994.0000,1422.0000 L 3959.0000,1529.0000 C 3957.0000,1533.0000 3953.0000,1535.0000 3949.0000,1534.0000 C 3945.0000,1532.0000 3942.0000,1528.0000 3944.0000,1524.0000 Z M 4004.0000,1341.0000 L 4040.0000,1235.0000 C 4041.0000,1231.0000 4046.0000,1229.0000 4050.0000,1230.0000 C 4054.0000,1231.0000 4056.0000,1236.0000 4055.0000,1240.0000 L 4020.0000,1346.0000 C 4018.0000,1351.0000 4014.0000,1353.0000 4009.0000,1352.0000 C 4005.0000,1350.0000 4003.0000,1346.0000 4004.0000,1341.0000 Z M 4065.0000,1159.0000 L 4101.0000,1053.0000 C 4102.0000,1049.0000 4107.0000,1046.0000 4111.0000,1048.0000 C 4115.0000,1049.0000 4117.0000,1054.0000 4116.0000,1058.0000 L 4080.0000,1164.0000 C 4079.0000,1168.0000 4074.0000,1171.0000 4070.0000,1169.0000 C 4066.0000,1168.0000 4064.0000,1163.0000 4065.0000,1159.0000 Z M 4126.0000,977.0000 L 4161.0000,870.0000 C 4163.0000,866.0000 4167.0000,864.0000 4172.0000,865.0000 C 4176.0000,867.0000 4178.0000,871.0000 4177.0000,875.0000 L 4141.0000,982.0000 C 4140.0000,986.0000 4135.0000,988.0000 4131.0000,987.0000 C 4127.0000,985.0000 4125.0000,981.0000 4126.0000,977.0000 Z M 4187.0000,794.0000 L 4222.0000,688.0000 C 4224.0000,684.0000 4228.0000,682.0000 4232.0000,683.0000 C 4237.0000,684.0000 4239.0000,689.0000 4237.0000,693.0000 L 4202.0000,799.0000 C 4201.0000,804.0000 4196.0000,806.0000 4192.0000,805.0000 C 4188.0000,803.0000 4185.0000,799.0000 4187.0000,794.0000 Z "  fill="#000000" stroke="#000000" stroke-width="1.0000"  stroke-linecap="butt"  stroke-linejoin="round" />
</g>
<g transform="matrix(1.0000 0.0000 0.0000 1.0000 0.0000 0.0000)">
</g>
<g transform="matrix(0.0625 0.0000 0.0000 0.0625 0.0000 0.0000)">
<path d="M 6066.0000,19.0000 L 6066.0000,624.0000 L 8485.0000,624.0000 L 8485.0000,19.0000 L 6066.0000,19.0000 Z" stroke-width="1px" stroke="#FFFFFF"  fill="#FFFFFF" />
</g>
<g transform="matrix(1.0000 0.0000 0.0000 1.0000 0.0000 0.0000)">
</g>
<g transform="matrix(0.0625 0.0000 0.0000 0.0625 0.0000 0.0000)">
<path d="M 6066.0000,624.0000 L 8485.0000,624.0000 L 8485.0000,19.0000 L 6066.0000,19.0000 L 6066.0000,624.0000 Z" stroke="#000000" stroke-width="16.0000"  stroke-linecap="round"  stroke-linejoin="round" fill="none" />
</g>
<g transform="matrix(1.0000 0.0000 0.0000 1.0000 0.0000 0.0000)">
</g>
<g transform="matrix(1.0000 0.0000 0.0000 1.0000 427.5355 24.1578)">
<text font-family="Arial" fill="#000000" style ="white-space:pre;" font-weight="400" text-anchor="start" x="0.0000" y="0.0000" font-size="12.0000" ><![CDATA[MAC RAR]]></text>
</g>
<g transform="matrix(0.0625 0.0000 0.0000 0.0625 0.0000 0.0000)">
<path d="M 1825.0000,2438.0000 L 1825.0000,2326.0000 C 1825.0000,2321.0000 1829.0000,2318.0000 1833.0000,2318.0000 C 1838.0000,2318.0000 1841.0000,2321.0000 1841.0000,2326.0000 L 1841.0000,2438.0000 C 1841.0000,2442.0000 1838.0000,2446.0000 1833.0000,2446.0000 C 1829.0000,2446.0000 1825.0000,2442.0000 1825.0000,2438.0000 Z M 1825.0000,2246.0000 L 1825.0000,2134.0000 C 1825.0000,2129.0000 1829.0000,2126.0000 1833.0000,2126.0000 C 1838.0000,2126.0000 1841.0000,2129.0000 1841.0000,2134.0000 L 1841.0000,2246.0000 C 1841.0000,2250.0000 1838.0000,2254.0000 1833.0000,2254.0000 C 1829.0000,2254.0000 1825.0000,2250.0000 1825.0000,2246.0000 Z M 1825.0000,2054.0000 L 1825.0000,1941.0000 C 1825.0000,1937.0000 1829.0000,1933.0000 1833.0000,1933.0000 C 1838.0000,1933.0000 1841.0000,1937.0000 1841.0000,1941.0000 L 1841.0000,2054.0000 C 1841.0000,2058.0000 1838.0000,2062.0000 1833.0000,2062.0000 C 1829.0000,2062.0000 1825.0000,2058.0000 1825.0000,2054.0000 Z M 1825.0000,1861.0000 L 1825.0000,1749.0000 C 1825.0000,1745.0000 1829.0000,1741.0000 1833.0000,1741.0000 C 1838.0000,1741.0000 1841.0000,1745.0000 1841.0000,1749.0000 L 1841.0000,1861.0000 C 1841.0000,1866.0000 1838.0000,1869.0000 1833.0000,1869.0000 C 1829.0000,1869.0000 1825.0000,1866.0000 1825.0000,1861.0000 Z M 1825.0000,1669.0000 L 1825.0000,1557.0000 C 1825.0000,1553.0000 1829.0000,1549.0000 1833.0000,1549.0000 C 1838.0000,1549.0000 1841.0000,1553.0000 1841.0000,1557.0000 L 1841.0000,1669.0000 C 1841.0000,1674.0000 1838.0000,1677.0000 1833.0000,1677.0000 C 1829.0000,1677.0000 1825.0000,1674.0000 1825.0000,1669.0000 Z M 1825.0000,1477.0000 L 1825.0000,1365.0000 C 1825.0000,1360.0000 1829.0000,1357.0000 1833.0000,1357.0000 C 1838.0000,1357.0000 1841.0000,1360.0000 1841.0000,1365.0000 L 1841.0000,1477.0000 C 1841.0000,1481.0000 1838.0000,1485.0000 1833.0000,1485.0000 C 1829.0000,1485.0000 1825.0000,1481.0000 1825.0000,1477.0000 Z M 1825.0000,1285.0000 L 1825.0000,1173.0000 C 1825.0000,1168.0000 1829.0000,1165.0000 1833.0000,1165.0000 C 1838.0000,1165.0000 1841.0000,1168.0000 1841.0000,1173.0000 L 1841.0000,1285.0000 C 1841.0000,1289.0000 1838.0000,1293.0000 1833.0000,1293.0000 C 1829.0000,1293.0000 1825.0000,1289.0000 1825.0000,1285.0000 Z M 1825.0000,1093.0000 L 1825.0000,980.0000 C 1825.0000,976.0000 1829.0000,972.0000 1833.0000,972.0000 C 1838.0000,972.0000 1841.0000,976.0000 1841.0000,980.0000 L 1841.0000,1093.0000 C 1841.0000,1097.0000 1838.0000,1101.0000 1833.0000,1101.0000 C 1829.0000,1101.0000 1825.0000,1097.0000 1825.0000,1093.0000 Z M 1825.0000,900.0000 L 1825.0000,788.0000 C 1825.0000,784.0000 1829.0000,780.0000 1833.0000,780.0000 C 1838.0000,780.0000 1841.0000,784.0000 1841.0000,788.0000 L 1841.0000,900.0000 C 1841.0000,905.0000 1838.0000,908.0000 1833.0000,908.0000 C 1829.0000,908.0000 1825.0000,905.0000 1825.0000,900.0000 Z M 1825.0000,708.0000 L 1825.0000,624.0000 C 1825.0000,619.0000 1829.0000,616.0000 1833.0000,616.0000 C 1838.0000,616.0000 1841.0000,619.0000 1841.0000,624.0000 L 1841.0000,708.0000 C 1841.0000,713.0000 1838.0000,716.0000 1833.0000,716.0000 C 1829.0000,716.0000 1825.0000,713.0000 1825.0000,708.0000 Z "  fill="#000000" stroke="#000000" stroke-width="1.0000"  stroke-linecap="butt"  stroke-linejoin="round" />
</g>
<g transform="matrix(1.0000 0.0000 0.0000 1.0000 0.0000 0.0000)">
</g>
<g transform="matrix(0.0625 0.0000 0.0000 0.0625 0.0000 0.0000)">
<path d="M 3647.0000,2438.0000 L 3647.0000,3043.0000 L 6066.0000,3043.0000 L 6066.0000,2438.0000 L 3647.0000,2438.0000 Z" stroke-width="1px" stroke="#FFFFFF"  fill="#FFFFFF" />
</g>
<g transform="matrix(1.0000 0.0000 0.0000 1.0000 0.0000 0.0000)">
</g>
<g transform="matrix(0.0625 0.0000 0.0000 0.0625 0.0000 0.0000)">
<path d="M 3647.0000,3043.0000 L 6066.0000,3043.0000 L 6066.0000,2438.0000 L 3647.0000,2438.0000 L 3647.0000,3043.0000 Z" stroke="#000000" stroke-width="16.0000"  stroke-linecap="round"  stroke-linejoin="round" fill="none" />
</g>
<g transform="matrix(1.0000 0.0000 0.0000 1.0000 0.0000 0.0000)">
</g>
<g transform="matrix(1.0000 0.0000 0.0000 1.0000 256.9712 167.7389)">
<text font-family="Arial" fill="#000000" style ="white-space:pre;" font-weight="400" text-anchor="start" x="0.0000" y="0.0000" font-size="13.0000" ><![CDATA[MAC subPDU ]]></text>
</g>
<g transform="matrix(1.0000 0.0000 0.0000 1.0000 343.6581 167.7389)">
<text font-family="Arial" fill="#000000" style ="white-space:pre;" font-weight="400" text-anchor="start" x="0.0000" y="0.0000" font-size="13.0000" ><![CDATA[3]]></text>
</g>
<g transform="matrix(1.0000 0.0000 0.0000 1.0000 250.3047 183.7387)">
<text font-family="Arial" fill="#000000" style ="white-space:pre;" font-weight="400" text-anchor="start" x="0.0000" y="0.0000" font-size="13.0000" ><![CDATA[(]]></text>
</g>
<g transform="matrix(1.0000 0.0000 0.0000 1.0000 254.7446 183.7387)">
<text font-family="Arial" fill="#000000" style ="white-space:pre;" font-weight="400" text-anchor="start" x="0.0000" y="0.0000" font-size="13.0000" ><![CDATA[RAPID and RAR]]></text>
</g>
<g transform="matrix(1.0000 0.0000 0.0000 1.0000 353.3000 183.7387)">
<text font-family="Arial" fill="#000000" style ="white-space:pre;" font-weight="400" text-anchor="start" x="0.0000" y="0.0000" font-size="13.0000" ><![CDATA[)]]></text>
</g>
<g transform="matrix(0.0625 0.0000 0.0000 0.0625 0.0000 0.0000)">
<path d="M 6061.0000,2432.0000 L 6151.0000,2364.0000 C 6155.0000,2362.0000 6160.0000,2362.0000 6162.0000,2366.0000 C 6165.0000,2369.0000 6164.0000,2374.0000 6161.0000,2377.0000 L 6071.0000,2444.0000 C 6068.0000,2447.0000 6063.0000,2446.0000 6060.0000,2443.0000 C 6057.0000,2439.0000 6058.0000,2434.0000 6061.0000,2432.0000 Z M 6215.0000,2316.0000 L 6305.0000,2249.0000 C 6308.0000,2246.0000 6313.0000,2247.0000 6316.0000,2251.0000 C 6319.0000,2254.0000 6318.0000,2259.0000 6315.0000,2262.0000 L 6225.0000,2329.0000 C 6221.0000,2332.0000 6216.0000,2331.0000 6214.0000,2327.0000 C 6211.0000,2324.0000 6212.0000,2319.0000 6215.0000,2316.0000 Z M 6369.0000,2201.0000 L 6459.0000,2134.0000 C 6462.0000,2131.0000 6467.0000,2132.0000 6470.0000,2135.0000 C 6473.0000,2139.0000 6472.0000,2144.0000 6468.0000,2146.0000 L 6379.0000,2214.0000 C 6375.0000,2216.0000 6370.0000,2216.0000 6367.0000,2212.0000 C 6365.0000,2209.0000 6365.0000,2204.0000 6369.0000,2201.0000 Z M 6523.0000,2086.0000 L 6612.0000,2018.0000 C 6616.0000,2016.0000 6621.0000,2016.0000 6624.0000,2020.0000 C 6626.0000,2023.0000 6626.0000,2028.0000 6622.0000,2031.0000 L 6532.0000,2098.0000 C 6529.0000,2101.0000 6524.0000,2100.0000 6521.0000,2097.0000 C 6518.0000,2093.0000 6519.0000,2088.0000 6523.0000,2086.0000 Z M 6676.0000,1970.0000 L 6766.0000,1903.0000 C 6770.0000,1900.0000 6775.0000,1901.0000 6777.0000,1905.0000 C 6780.0000,1908.0000 6779.0000,1913.0000 6776.0000,1916.0000 L 6686.0000,1983.0000 C 6683.0000,1986.0000 6678.0000,1985.0000 6675.0000,1981.0000 C 6672.0000,1978.0000 6673.0000,1973.0000 6676.0000,1970.0000 Z M 6830.0000,1855.0000 L 6920.0000,1788.0000 C 6923.0000,1785.0000 6928.0000,1786.0000 6931.0000,1789.0000 C 6934.0000,1793.0000 6933.0000,1798.0000 6930.0000,1800.0000 L 6840.0000,1868.0000 C 6836.0000,1870.0000 6831.0000,1870.0000 6829.0000,1866.0000 C 6826.0000,1863.0000 6827.0000,1858.0000 6830.0000,1855.0000 Z M 6984.0000,1740.0000 L 7074.0000,1672.0000 C 7077.0000,1670.0000 7082.0000,1670.0000 7085.0000,1674.0000 C 7088.0000,1678.0000 7087.0000,1683.0000 7083.0000,1685.0000 L 6994.0000,1752.0000 C 6990.0000,1755.0000 6985.0000,1754.0000 6982.0000,1751.0000 C 6980.0000,1747.0000 6980.0000,1742.0000 6984.0000,1740.0000 Z M 7138.0000,1624.0000 L 7227.0000,1557.0000 C 7231.0000,1554.0000 7236.0000,1555.0000 7239.0000,1559.0000 C 7241.0000,1562.0000 7241.0000,1567.0000 7237.0000,1570.0000 L 7147.0000,1637.0000 C 7144.0000,1640.0000 7139.0000,1639.0000 7136.0000,1636.0000 C 7133.0000,1632.0000 7134.0000,1627.0000 7138.0000,1624.0000 Z M 7291.0000,1509.0000 L 7381.0000,1442.0000 C 7385.0000,1439.0000 7390.0000,1440.0000 7392.0000,1443.0000 C 7395.0000,1447.0000 7394.0000,1452.0000 7391.0000,1455.0000 L 7301.0000,1522.0000 C 7298.0000,1524.0000 7293.0000,1524.0000 7290.0000,1520.0000 C 7287.0000,1517.0000 7288.0000,1512.0000 7291.0000,1509.0000 Z M 7445.0000,1394.0000 L 7535.0000,1326.0000 C 7538.0000,1324.0000 7543.0000,1324.0000 7546.0000,1328.0000 C 7549.0000,1332.0000 7548.0000,1337.0000 7545.0000,1339.0000 L 7455.0000,1406.0000 C 7451.0000,1409.0000 7446.0000,1408.0000 7444.0000,1405.0000 C 7441.0000,1401.0000 7442.0000,1396.0000 7445.0000,1394.0000 Z M 7599.0000,1278.0000 L 7689.0000,1211.0000 C 7692.0000,1208.0000 7697.0000,1209.0000 7700.0000,1213.0000 C 7703.0000,1216.0000 7702.0000,1221.0000 7698.0000,1224.0000 L 7609.0000,1291.0000 C 7605.0000,1294.0000 7600.0000,1293.0000 7597.0000,1290.0000 C 7595.0000,1286.0000 7595.0000,1281.0000 7599.0000,1278.0000 Z M 7753.0000,1163.0000 L 7842.0000,1096.0000 C 7846.0000,1093.0000 7851.0000,1094.0000 7854.0000,1097.0000 C 7856.0000,1101.0000 7856.0000,1106.0000 7852.0000,1109.0000 L 7762.0000,1176.0000 C 7759.0000,1179.0000 7754.0000,1178.0000 7751.0000,1174.0000 C 7748.0000,1171.0000 7749.0000,1166.0000 7753.0000,1163.0000 Z M 7907.0000,1048.0000 L 7996.0000,980.0000 C 8000.0000,978.0000 8005.0000,979.0000 8007.0000,982.0000 C 8010.0000,986.0000 8009.0000,991.0000 8006.0000,993.0000 L 7916.0000,1061.0000 C 7913.0000,1063.0000 7908.0000,1062.0000 7905.0000,1059.0000 C 7902.0000,1055.0000 7903.0000,1050.0000 7907.0000,1048.0000 Z M 8060.0000,932.0000 L 8150.0000,865.0000 C 8153.0000,863.0000 8159.0000,863.0000 8161.0000,867.0000 C 8164.0000,870.0000 8163.0000,875.0000 8160.0000,878.0000 L 8070.0000,945.0000 C 8066.0000,948.0000 8061.0000,947.0000 8059.0000,944.0000 C 8056.0000,940.0000 8057.0000,935.0000 8060.0000,932.0000 Z M 8214.0000,817.0000 L 8304.0000,750.0000 C 8307.0000,747.0000 8312.0000,748.0000 8315.0000,751.0000 C 8318.0000,755.0000 8317.0000,760.0000 8313.0000,763.0000 L 8224.0000,830.0000 C 8220.0000,833.0000 8215.0000,832.0000 8212.0000,828.0000 C 8210.0000,825.0000 8210.0000,820.0000 8214.0000,817.0000 Z M 8368.0000,702.0000 L 8457.0000,635.0000 C 8461.0000,632.0000 8466.0000,633.0000 8469.0000,636.0000 C 8471.0000,640.0000 8471.0000,645.0000 8467.0000,647.0000 L 8377.0000,715.0000 C 8374.0000,717.0000 8369.0000,717.0000 8366.0000,713.0000 C 8364.0000,709.0000 8364.0000,704.0000 8368.0000,702.0000 Z "  fill="#000000" stroke="#000000" stroke-width="1.0000"  stroke-linecap="butt"  stroke-linejoin="round" />
</g>
<g transform="matrix(1.0000 0.0000 0.0000 1.0000 0.0000 0.0000)">
</g>
<g transform="matrix(0.0625 0.0000 0.0000 0.0625 0.0000 0.0000)">
<path d="M 4252.0000,19.0000 L 4252.0000,624.0000 L 6066.0000,624.0000 L 6066.0000,19.0000 L 4252.0000,19.0000 Z" stroke-width="1px" stroke="#FFFFFF"  fill="#FFFFFF" />
</g>
<g transform="matrix(1.0000 0.0000 0.0000 1.0000 0.0000 0.0000)">
</g>
<g transform="matrix(0.0625 0.0000 0.0000 0.0625 0.0000 0.0000)">
<path d="M 4252.0000,624.0000 L 6066.0000,624.0000 L 6066.0000,19.0000 L 4252.0000,19.0000 L 4252.0000,624.0000 Z" stroke="#000000" stroke-width="16.0000"  stroke-linecap="round"  stroke-linejoin="round" fill="none" />
</g>
<g transform="matrix(1.0000 0.0000 0.0000 1.0000 0.0000 0.0000)">
</g>
<g transform="matrix(1.0000 0.0000 0.0000 1.0000 293.5822 16.9577)">
<text font-family="Arial" fill="#000000" style ="white-space:pre;" font-weight="400" text-anchor="start" x="0.0000" y="0.0000" font-size="12.0000" ><![CDATA[E]]></text>
</g>
<g transform="matrix(1.0000 0.0000 0.0000 1.0000 301.5861 16.9577)">
<text font-family="Arial" fill="#000000" style ="white-space:pre;" font-weight="400" text-anchor="start" x="0.0000" y="0.0000" font-size="12.0000" ><![CDATA[/]]></text>
</g>
<g transform="matrix(1.0000 0.0000 0.0000 1.0000 304.9200 16.9577)">
<text font-family="Arial" fill="#000000" style ="white-space:pre;" font-weight="400" text-anchor="start" x="0.0000" y="0.0000" font-size="12.0000" ><![CDATA[T]]></text>
</g>
<g transform="matrix(1.0000 0.0000 0.0000 1.0000 312.2501 16.9577)">
<text font-family="Arial" fill="#000000" style ="white-space:pre;" font-weight="400" text-anchor="start" x="0.0000" y="0.0000" font-size="12.0000" ><![CDATA[/]]></text>
</g>
<g transform="matrix(1.0000 0.0000 0.0000 1.0000 315.5841 16.9577)">
<text font-family="Arial" fill="#000000" style ="white-space:pre;" font-weight="400" text-anchor="start" x="0.0000" y="0.0000" font-size="12.0000" ><![CDATA[RAPID ]]></text>
</g>
<g transform="matrix(1.0000 0.0000 0.0000 1.0000 294.5636 31.3575)">
<text font-family="Arial" fill="#000000" style ="white-space:pre;" font-weight="400" text-anchor="start" x="0.0000" y="0.0000" font-size="12.0000" ><![CDATA[subheader]]></text>
</g>
<g transform="matrix(0.0625 0.0000 0.0000 0.0625 0.0000 0.0000)">
<path d="M 6066.0000,2438.0000 L 6066.0000,3043.0000 L 8485.0000,3043.0000 L 8485.0000,2438.0000 L 6066.0000,2438.0000 Z" stroke-width="1px" stroke="#FFFFFF"  fill="#FFFFFF" />
</g>
<g transform="matrix(1.0000 0.0000 0.0000 1.0000 0.0000 0.0000)">
</g>
<g transform="matrix(0.0625 0.0000 0.0000 0.0625 0.0000 0.0000)">
<path d="M 6066.0000,3043.0000 L 8485.0000,3043.0000 L 8485.0000,2438.0000 L 6066.0000,2438.0000 L 6066.0000,3043.0000 Z" stroke="#000000" stroke-width="16.0000"  stroke-linecap="round"  stroke-linejoin="round" fill="none" />
</g>
<g transform="matrix(1.0000 0.0000 0.0000 1.0000 0.0000 0.0000)">
</g>
<g transform="matrix(1.0000 0.0000 0.0000 1.0000 408.1523 175.7388)">
<text font-family="Arial" fill="#000000" style ="white-space:pre;" font-weight="400" text-anchor="start" x="0.0000" y="0.0000" font-size="13.0000" ><![CDATA[MAC subPDU ]]></text>
</g>
<g transform="matrix(1.0000 0.0000 0.0000 1.0000 494.8392 175.7388)">
<text font-family="Arial" fill="#000000" style ="white-space:pre;" font-weight="400" text-anchor="start" x="0.0000" y="0.0000" font-size="13.0000" ><![CDATA[4]]></text>
</g>
<g transform="matrix(0.0625 0.0000 0.0000 0.0625 0.0000 0.0000)">
<path d="M 1825.0000,2437.0000 L 1844.0000,2326.0000 C 1844.0000,2322.0000 1849.0000,2319.0000 1853.0000,2319.0000 C 1857.0000,2320.0000 1860.0000,2324.0000 1860.0000,2329.0000 L 1841.0000,2439.0000 C 1840.0000,2444.0000 1836.0000,2447.0000 1832.0000,2446.0000 C 1828.0000,2445.0000 1825.0000,2441.0000 1825.0000,2437.0000 Z M 1857.0000,2247.0000 L 1875.0000,2136.0000 C 1876.0000,2132.0000 1880.0000,2129.0000 1885.0000,2130.0000 C 1889.0000,2131.0000 1892.0000,2135.0000 1891.0000,2139.0000 L 1873.0000,2250.0000 C 1872.0000,2254.0000 1868.0000,2257.0000 1863.0000,2256.0000 C 1859.0000,2256.0000 1856.0000,2251.0000 1857.0000,2247.0000 Z M 1888.0000,2057.0000 L 1907.0000,1947.0000 C 1908.0000,1943.0000 1912.0000,1940.0000 1916.0000,1940.0000 C 1921.0000,1941.0000 1923.0000,1945.0000 1923.0000,1950.0000 L 1904.0000,2060.0000 C 1904.0000,2064.0000 1899.0000,2067.0000 1895.0000,2067.0000 C 1891.0000,2066.0000 1888.0000,2062.0000 1888.0000,2057.0000 Z M 1920.0000,1868.0000 L 1939.0000,1757.0000 C 1939.0000,1753.0000 1943.0000,1750.0000 1948.0000,1751.0000 C 1952.0000,1751.0000 1955.0000,1756.0000 1954.0000,1760.0000 L 1936.0000,1871.0000 C 1935.0000,1875.0000 1931.0000,1878.0000 1927.0000,1877.0000 C 1922.0000,1876.0000 1919.0000,1872.0000 1920.0000,1868.0000 Z M 1952.0000,1678.0000 L 1970.0000,1568.0000 C 1971.0000,1563.0000 1975.0000,1560.0000 1979.0000,1561.0000 C 1984.0000,1562.0000 1987.0000,1566.0000 1986.0000,1570.0000 L 1967.0000,1681.0000 C 1967.0000,1685.0000 1963.0000,1688.0000 1958.0000,1688.0000 C 1954.0000,1687.0000 1951.0000,1683.0000 1952.0000,1678.0000 Z M 1983.0000,1489.0000 L 2002.0000,1378.0000 C 2002.0000,1374.0000 2007.0000,1371.0000 2011.0000,1372.0000 C 2015.0000,1372.0000 2018.0000,1376.0000 2018.0000,1381.0000 L 1999.0000,1491.0000 C 1998.0000,1496.0000 1994.0000,1499.0000 1990.0000,1498.0000 C 1986.0000,1497.0000 1983.0000,1493.0000 1983.0000,1489.0000 Z M 2015.0000,1299.0000 L 2033.0000,1189.0000 C 2034.0000,1184.0000 2038.0000,1181.0000 2043.0000,1182.0000 C 2047.0000,1183.0000 2050.0000,1187.0000 2049.0000,1191.0000 L 2031.0000,1302.0000 C 2030.0000,1306.0000 2026.0000,1309.0000 2021.0000,1308.0000 C 2017.0000,1308.0000 2014.0000,1304.0000 2015.0000,1299.0000 Z M 2046.0000,1110.0000 L 2065.0000,999.0000 C 2066.0000,995.0000 2070.0000,992.0000 2074.0000,992.0000 C 2078.0000,993.0000 2081.0000,997.0000 2081.0000,1002.0000 L 2062.0000,1112.0000 C 2062.0000,1117.0000 2057.0000,1120.0000 2053.0000,1119.0000 C 2049.0000,1118.0000 2046.0000,1114.0000 2046.0000,1110.0000 Z M 2078.0000,920.0000 L 2097.0000,809.0000 C 2097.0000,805.0000 2101.0000,802.0000 2106.0000,803.0000 C 2110.0000,804.0000 2113.0000,808.0000 2112.0000,812.0000 L 2094.0000,923.0000 C 2093.0000,927.0000 2089.0000,930.0000 2085.0000,929.0000 C 2080.0000,928.0000 2077.0000,924.0000 2078.0000,920.0000 Z M 2110.0000,730.0000 L 2128.0000,622.0000 C 2128.0000,618.0000 2133.0000,615.0000 2137.0000,616.0000 C 2141.0000,617.0000 2144.0000,621.0000 2143.0000,625.0000 L 2125.0000,733.0000 C 2125.0000,737.0000 2121.0000,740.0000 2116.0000,740.0000 C 2112.0000,739.0000 2109.0000,735.0000 2110.0000,730.0000 Z "  fill="#000000" stroke="#000000" stroke-width="1.0000"  stroke-linecap="butt"  stroke-linejoin="round" />
</g>
<g transform="matrix(1.0000 0.0000 0.0000 1.0000 0.0000 0.0000)">
</g>
<g transform="matrix(0.0625 0.0000 0.0000 0.0625 0.0000 0.0000)">
<path d="M 3639.0000,2437.0000 L 3658.0000,2326.0000 C 3659.0000,2322.0000 3663.0000,2319.0000 3667.0000,2319.0000 C 3671.0000,2320.0000 3674.0000,2324.0000 3674.0000,2329.0000 L 3655.0000,2439.0000 C 3655.0000,2444.0000 3650.0000,2447.0000 3646.0000,2446.0000 C 3642.0000,2445.0000 3639.0000,2441.0000 3639.0000,2437.0000 Z M 3671.0000,2247.0000 L 3690.0000,2136.0000 C 3690.0000,2132.0000 3694.0000,2129.0000 3699.0000,2130.0000 C 3703.0000,2131.0000 3706.0000,2135.0000 3705.0000,2139.0000 L 3687.0000,2250.0000 C 3686.0000,2254.0000 3682.0000,2257.0000 3678.0000,2256.0000 C 3673.0000,2256.0000 3670.0000,2251.0000 3671.0000,2247.0000 Z M 3703.0000,2057.0000 L 3721.0000,1947.0000 C 3722.0000,1943.0000 3726.0000,1940.0000 3730.0000,1940.0000 C 3735.0000,1941.0000 3738.0000,1945.0000 3737.0000,1950.0000 L 3718.0000,2060.0000 C 3718.0000,2064.0000 3714.0000,2067.0000 3709.0000,2067.0000 C 3705.0000,2066.0000 3702.0000,2062.0000 3703.0000,2057.0000 Z M 3734.0000,1868.0000 L 3753.0000,1757.0000 C 3753.0000,1753.0000 3758.0000,1750.0000 3762.0000,1751.0000 C 3766.0000,1751.0000 3769.0000,1756.0000 3768.0000,1760.0000 L 3750.0000,1871.0000 C 3749.0000,1875.0000 3745.0000,1878.0000 3741.0000,1877.0000 C 3736.0000,1876.0000 3734.0000,1872.0000 3734.0000,1868.0000 Z M 3766.0000,1678.0000 L 3784.0000,1568.0000 C 3785.0000,1563.0000 3789.0000,1560.0000 3794.0000,1561.0000 C 3798.0000,1562.0000 3801.0000,1566.0000 3800.0000,1570.0000 L 3782.0000,1681.0000 C 3781.0000,1685.0000 3777.0000,1688.0000 3772.0000,1688.0000 C 3768.0000,1687.0000 3765.0000,1683.0000 3766.0000,1678.0000 Z M 3797.0000,1489.0000 L 3816.0000,1378.0000 C 3817.0000,1374.0000 3821.0000,1371.0000 3825.0000,1372.0000 C 3829.0000,1372.0000 3832.0000,1376.0000 3832.0000,1381.0000 L 3813.0000,1491.0000 C 3813.0000,1496.0000 3808.0000,1499.0000 3804.0000,1498.0000 C 3800.0000,1497.0000 3797.0000,1493.0000 3797.0000,1489.0000 Z M 3829.0000,1299.0000 L 3847.0000,1189.0000 C 3848.0000,1184.0000 3852.0000,1181.0000 3857.0000,1182.0000 C 3861.0000,1183.0000 3864.0000,1187.0000 3863.0000,1191.0000 L 3845.0000,1302.0000 C 3844.0000,1306.0000 3840.0000,1309.0000 3836.0000,1308.0000 C 3831.0000,1308.0000 3828.0000,1304.0000 3829.0000,1299.0000 Z M 3861.0000,1110.0000 L 3879.0000,999.0000 C 3880.0000,995.0000 3884.0000,992.0000 3888.0000,992.0000 C 3893.0000,993.0000 3896.0000,997.0000 3895.0000,1002.0000 L 3876.0000,1112.0000 C 3876.0000,1117.0000 3872.0000,1120.0000 3867.0000,1119.0000 C 3863.0000,1118.0000 3860.0000,1114.0000 3861.0000,1110.0000 Z M 3892.0000,920.0000 L 3911.0000,809.0000 C 3911.0000,805.0000 3916.0000,802.0000 3920.0000,803.0000 C 3924.0000,804.0000 3927.0000,808.0000 3926.0000,812.0000 L 3908.0000,923.0000 C 3907.0000,927.0000 3903.0000,930.0000 3899.0000,929.0000 C 3894.0000,928.0000 3892.0000,924.0000 3892.0000,920.0000 Z M 3924.0000,730.0000 L 3942.0000,622.0000 C 3943.0000,618.0000 3947.0000,615.0000 3951.0000,616.0000 C 3955.0000,617.0000 3958.0000,621.0000 3958.0000,625.0000 L 3940.0000,733.0000 C 3939.0000,737.0000 3935.0000,740.0000 3930.0000,740.0000 C 3926.0000,739.0000 3923.0000,735.0000 3924.0000,730.0000 Z "  fill="#000000" stroke="#000000" stroke-width="1.0000"  stroke-linecap="butt"  stroke-linejoin="round" />
</g>
<g transform="matrix(1.0000 0.0000 0.0000 1.0000 0.0000 0.0000)">
</g>
</g>
</svg>
