<?xml version="1.0"  encoding="UTF-8" standalone="no"?>
<svg version="1.1" xmlns="http://www.w3.org/2000/svg" xmlns:xlink="http://www.w3.org/1999/xlink" width="683.0000" height="492.0000">
<g transform="translate(-0.0000, -1.0000)">
<defs><clipPath id="clip-1804289383"><path d="M 0.0000,0.0000 L 683.0000,0.0000 L 683.0000,494.0000 L 0.0000,494.0000 L 0.0000,0.0000 Z Z" /></clipPath></defs>
<g transform="matrix(0.0625 0.0000 0.0000 0.0625 0.0000 0.0000)">
<path  clip-path="url(#clip-1804289383)" d="M 22.0000,6369.0000 L 10907.0000,6369.0000 " stroke="#000000" stroke-width="11.0000"  stroke-linecap="round"  stroke-linejoin="round" fill="none" />
</g>
<g transform="matrix(1.0000 0.0000 0.0000 1.0000 0.0000 0.0000)">
</g>
<g transform="matrix(0.0625 0.0000 0.0000 0.0625 0.0000 0.0000)">
<path d="M 22.0000,19.0000 L 22.0000,926.0000 L 10907.0000,926.0000 L 10907.0000,19.0000 L 22.0000,19.0000 Z" stroke-width="1px" stroke="#E2E2E2"  fill="#E2E2E2" />
</g>
<g transform="matrix(1.0000 0.0000 0.0000 1.0000 0.0000 0.0000)">
</g>
<g transform="matrix(0.0625 0.0000 0.0000 0.0625 0.0000 0.0000)">
<path d="M 22.0000,2136.0000 L 22.0000,5764.0000 L 10907.0000,5764.0000 L 10907.0000,2136.0000 L 22.0000,2136.0000 Z" stroke-width="1px" stroke="#AEAEAE"  fill="#AEAEAE" />
</g>
<g transform="matrix(1.0000 0.0000 0.0000 1.0000 0.0000 0.0000)">
<defs><clipPath id="clip-846930886"><path d="M 0.0000,0.0000 L 683.0000,0.0000 L 683.0000,494.0000 L 0.0000,494.0000 L 0.0000,0.0000 Z Z" /></clipPath></defs>
</g>
<g transform="matrix(0.0625 0.0000 0.0000 0.0625 0.0000 0.0000)">
<path  clip-path="url(#clip-846930886)" d="M 22.0000,5764.0000 L 10907.0000,5764.0000 L 10907.0000,2136.0000 L 22.0000,2136.0000 L 22.0000,5764.0000 Z" stroke="#000000" stroke-width="5.0000"  stroke-linecap="round"  stroke-linejoin="round" fill="none" />
</g>
<g transform="matrix(1.0000 0.0000 0.0000 1.0000 0.0000 0.0000)">
</g>
<g transform="matrix(1.0000 0.0000 0.0000 1.0000 49.4196 44.2554)">
<text font-family="Arial" fill="#000000" style ="white-space:pre;" font-weight="400" text-anchor="start" x="0.0000" y="0.0000" font-size="16.0000" ><![CDATA[SBCCH]]></text>
</g>
<g transform="matrix(1.0000 0.0000 0.0000 1.0000 296.6385 15.9089)">
<text font-family="Arial" fill="#000000" style ="white-space:pre;" font-weight="400" text-anchor="start" x="0.0000" y="0.0000" font-size="16.0000" ><![CDATA[Upper layers]]></text>
</g>
<g transform="matrix(0.0625 0.0000 0.0000 0.0625 0.0000 0.0000)">
<path d="M 22.0000,6973.0000 L 22.0000,7880.0000 L 10907.0000,7880.0000 L 10907.0000,6973.0000 L 22.0000,6973.0000 Z" stroke-width="1px" stroke="#E2E2E2"  fill="#E2E2E2" />
</g>
<g transform="matrix(1.0000 0.0000 0.0000 1.0000 0.0000 0.0000)">
</g>
<g transform="matrix(0.0625 0.0000 0.0000 0.0625 0.0000 0.0000)">
<path d="M 1231.0000,866.0000 L 1231.0000,7034.0000 " stroke="#000000" stroke-width="48.0000"  stroke-linecap="round"  stroke-linejoin="round" fill="none" />
</g>
<g transform="matrix(1.0000 0.0000 0.0000 1.0000 0.0000 0.0000)">
</g>
<g transform="matrix(0.0625 0.0000 0.0000 0.0625 0.0000 0.0000)">
<path d="M 5464.0000,3849.0000 L 5465.0000,7034.0000 " stroke="#000000" stroke-width="48.0000"  stroke-linecap="round"  stroke-linejoin="round" fill="none" />
</g>
<g transform="matrix(1.0000 0.0000 0.0000 1.0000 0.0000 0.0000)">
</g>
<g transform="matrix(0.0625 0.0000 0.0000 0.0625 0.0000 0.0000)">
<path d="M 9694.0000,866.0000 L 9694.0000,2136.0000 " stroke="#969696" stroke-width="96.0000"  stroke-linecap="round"  stroke-linejoin="round" fill="none" />
</g>
<g transform="matrix(1.0000 0.0000 0.0000 1.0000 0.0000 0.0000)">
<defs><clipPath id="clip-1681692777"><path d="M 0.0000,0.0000 L 683.0000,0.0000 L 683.0000,494.0000 L 0.0000,494.0000 L 0.0000,0.0000 Z Z" /></clipPath></defs>
</g>
<g transform="matrix(0.0625 0.0000 0.0000 0.0625 0.0000 0.0000)">
<path  clip-path="url(#clip-1681692777)" d="M 22.0000,1531.0000 L 10907.0000,1531.0000 " stroke="#000000" stroke-width="11.0000"  stroke-linecap="round"  stroke-linejoin="round" fill="none" />
</g>
<g transform="matrix(1.0000 0.0000 0.0000 1.0000 0.0000 0.0000)">
</g>
<g transform="matrix(0.0625 0.0000 0.0000 0.0625 0.0000 0.0000)">
<path d="M 9089.0000,2438.0000 L 9089.0000,5462.0000 L 10299.0000,5462.0000 L 10299.0000,2438.0000 L 9089.0000,2438.0000 Z" stroke-width="1px" stroke="#FFFFFF"  fill="#FFFFFF" />
</g>
<g transform="matrix(1.0000 0.0000 0.0000 1.0000 0.0000 0.0000)">
</g>
<g transform="matrix(0.0625 0.0000 0.0000 0.0625 0.0000 0.0000)">
<path d="M 9089.0000,5462.0000 L 10299.0000,5462.0000 L 10299.0000,2438.0000 L 9089.0000,2438.0000 L 9089.0000,5462.0000 Z" stroke="#000000" stroke-width="5.0000"  stroke-linecap="round"  stroke-linejoin="round" fill="none" />
</g>
<g transform="matrix(1.0000 0.0000 0.0000 1.0000 0.0000 0.0000)">
</g>
<g transform="matrix(1.0000 0.0000 0.0000 1.0000 580.5536 252.1293)">
<text font-family="Arial" fill="#000000" style ="white-space:pre;" font-weight="400" text-anchor="start" x="0.0000" y="0.0000" font-size="16.0000" ><![CDATA[Control]]></text>
</g>
<g transform="matrix(1.0000 0.0000 0.0000 1.0000 46.4045 460.0034)">
<text font-family="Arial" fill="#000000" style ="white-space:pre;" font-weight="400" text-anchor="start" x="0.0000" y="0.0000" font-size="16.0000" ><![CDATA[SL]]></text>
</g>
<g transform="matrix(1.0000 0.0000 0.0000 1.0000 65.9751 460.0034)">
<text font-family="Arial" fill="#000000" style ="white-space:pre;" font-weight="400" text-anchor="start" x="0.0000" y="0.0000" font-size="16.0000" ><![CDATA[-]]></text>
</g>
<g transform="matrix(1.0000 0.0000 0.0000 1.0000 71.3031 460.0034)">
<text font-family="Arial" fill="#000000" style ="white-space:pre;" font-weight="400" text-anchor="start" x="0.0000" y="0.0000" font-size="16.0000" ><![CDATA[BCH]]></text>
</g>
<g transform="matrix(0.0625 0.0000 0.0000 0.0625 0.0000 0.0000)">
<path d="M 1594.0000,6369.0000 C 1594.0000,6302.0000 1432.0000,6248.0000 1231.0000,6248.0000 C 1031.0000,6248.0000 868.0000,6302.0000 868.0000,6369.0000 C 868.0000,6435.0000 1031.0000,6490.0000 1231.0000,6490.0000 C 1432.0000,6490.0000 1594.0000,6435.0000 1594.0000,6369.0000 "  fill="#FFFFFF" stroke="none" />
</g>
<g transform="matrix(1.0000 0.0000 0.0000 1.0000 0.0000 0.0000)">
</g>
<g transform="matrix(0.0625 0.0000 0.0000 0.0625 0.0000 0.0000)">
<path d="M 1594.0000,6369.0000 M 1594.0000,6369.0000 C 1594.0000,6302.0000 1432.0000,6248.0000 1231.0000,6248.0000 C 1031.0000,6248.0000 868.0000,6302.0000 868.0000,6369.0000 C 868.0000,6435.0000 1031.0000,6490.0000 1231.0000,6490.0000 C 1432.0000,6490.0000 1594.0000,6435.0000 1594.0000,6369.0000 " stroke="#000000" stroke-width="5.0000"  stroke-linecap="round"  stroke-linejoin="round"  fill="none" />
</g>
<g transform="matrix(1.0000 0.0000 0.0000 1.0000 0.0000 0.0000)">
</g>
<g transform="matrix(0.0625 0.0000 0.0000 0.0625 0.0000 0.0000)">
<path d="M 5978.0000,6369.0000 C 5978.0000,6302.0000 5748.0000,6248.0000 5464.0000,6248.0000 C 5180.0000,6248.0000 4950.0000,6302.0000 4950.0000,6369.0000 C 4950.0000,6435.0000 5180.0000,6490.0000 5464.0000,6490.0000 C 5748.0000,6490.0000 5978.0000,6435.0000 5978.0000,6369.0000 "  fill="#FFFFFF" stroke="none" />
</g>
<g transform="matrix(1.0000 0.0000 0.0000 1.0000 0.0000 0.0000)">
</g>
<g transform="matrix(0.0625 0.0000 0.0000 0.0625 0.0000 0.0000)">
<path d="M 5978.0000,6369.0000 M 5978.0000,6369.0000 C 5978.0000,6302.0000 5748.0000,6248.0000 5464.0000,6248.0000 C 5180.0000,6248.0000 4950.0000,6302.0000 4950.0000,6369.0000 C 4950.0000,6435.0000 5180.0000,6490.0000 5464.0000,6490.0000 C 5748.0000,6490.0000 5978.0000,6435.0000 5978.0000,6369.0000 " stroke="#000000" stroke-width="5.0000"  stroke-linecap="round"  stroke-linejoin="round"  fill="none" />
</g>
<g transform="matrix(1.0000 0.0000 0.0000 1.0000 0.0000 0.0000)">
</g>
<g transform="matrix(1.0000 0.0000 0.0000 1.0000 312.6506 460.0034)">
<text font-family="Arial" fill="#000000" style ="white-space:pre;" font-weight="400" text-anchor="start" x="0.0000" y="0.0000" font-size="16.0000" ><![CDATA[SL]]></text>
</g>
<g transform="matrix(1.0000 0.0000 0.0000 1.0000 332.2213 460.0034)">
<text font-family="Arial" fill="#000000" style ="white-space:pre;" font-weight="400" text-anchor="start" x="0.0000" y="0.0000" font-size="16.0000" ><![CDATA[-]]></text>
</g>
<g transform="matrix(1.0000 0.0000 0.0000 1.0000 337.5493 460.0034)">
<text font-family="Arial" fill="#000000" style ="white-space:pre;" font-weight="400" text-anchor="start" x="0.0000" y="0.0000" font-size="16.0000" ><![CDATA[SCH]]></text>
</g>
<g transform="matrix(0.0625 0.0000 0.0000 0.0625 0.0000 0.0000)">
<path d="M 3650.0000,866.0000 L 3650.0000,3244.0000 " stroke="#000000" stroke-width="48.0000"  stroke-linecap="round"  stroke-linejoin="round" fill="none" />
</g>
<g transform="matrix(1.0000 0.0000 0.0000 1.0000 0.0000 0.0000)">
</g>
<g transform="matrix(0.0625 0.0000 0.0000 0.0625 0.0000 0.0000)">
<path d="M 4255.0000,866.0000 L 4255.0000,3244.0000 " stroke="#000000" stroke-width="48.0000"  stroke-linecap="round"  stroke-linejoin="round" fill="none" />
</g>
<g transform="matrix(1.0000 0.0000 0.0000 1.0000 0.0000 0.0000)">
</g>
<g transform="matrix(0.0625 0.0000 0.0000 0.0625 0.0000 0.0000)">
<path d="M 6674.0000,866.0000 L 6674.0000,3244.0000 " stroke="#000000" stroke-width="48.0000"  stroke-linecap="round"  stroke-linejoin="round" fill="none" />
</g>
<g transform="matrix(1.0000 0.0000 0.0000 1.0000 0.0000 0.0000)">
</g>
<g transform="matrix(0.0625 0.0000 0.0000 0.0625 0.0000 0.0000)">
<path d="M 7278.0000,866.0000 L 7278.0000,3244.0000 " stroke="#000000" stroke-width="48.0000"  stroke-linecap="round"  stroke-linejoin="round" fill="none" />
</g>
<g transform="matrix(1.0000 0.0000 0.0000 1.0000 0.0000 0.0000)">
</g>
<g transform="matrix(0.0625 0.0000 0.0000 0.0625 0.0000 0.0000)">
<path d="M 1594.0000,1531.0000 C 1594.0000,1464.0000 1432.0000,1410.0000 1231.0000,1410.0000 C 1031.0000,1410.0000 868.0000,1464.0000 868.0000,1531.0000 C 868.0000,1598.0000 1031.0000,1652.0000 1231.0000,1652.0000 C 1432.0000,1652.0000 1594.0000,1598.0000 1594.0000,1531.0000 "  fill="#FFFFFF" stroke="none" />
</g>
<g transform="matrix(1.0000 0.0000 0.0000 1.0000 0.0000 0.0000)">
</g>
<g transform="matrix(0.0625 0.0000 0.0000 0.0625 0.0000 0.0000)">
<path d="M 1594.0000,1531.0000 M 1594.0000,1531.0000 C 1594.0000,1464.0000 1432.0000,1410.0000 1231.0000,1410.0000 C 1031.0000,1410.0000 868.0000,1464.0000 868.0000,1531.0000 C 868.0000,1598.0000 1031.0000,1652.0000 1231.0000,1652.0000 C 1432.0000,1652.0000 1594.0000,1598.0000 1594.0000,1531.0000 " stroke="#000000" stroke-width="5.0000"  stroke-linecap="round"  stroke-linejoin="round"  fill="none" />
</g>
<g transform="matrix(1.0000 0.0000 0.0000 1.0000 0.0000 0.0000)">
</g>
<g transform="matrix(0.0625 0.0000 0.0000 0.0625 0.0000 0.0000)">
<path d="M 4618.0000,1531.0000 C 4618.0000,1464.0000 4320.0000,1410.0000 3953.0000,1410.0000 C 3585.0000,1410.0000 3287.0000,1464.0000 3287.0000,1531.0000 C 3287.0000,1598.0000 3585.0000,1652.0000 3953.0000,1652.0000 C 4320.0000,1652.0000 4618.0000,1598.0000 4618.0000,1531.0000 "  fill="#FFFFFF" stroke="none" />
</g>
<g transform="matrix(1.0000 0.0000 0.0000 1.0000 0.0000 0.0000)">
</g>
<g transform="matrix(0.0625 0.0000 0.0000 0.0625 0.0000 0.0000)">
<path d="M 4618.0000,1531.0000 M 4618.0000,1531.0000 C 4618.0000,1464.0000 4320.0000,1410.0000 3953.0000,1410.0000 C 3585.0000,1410.0000 3287.0000,1464.0000 3287.0000,1531.0000 C 3287.0000,1598.0000 3585.0000,1652.0000 3953.0000,1652.0000 C 4320.0000,1652.0000 4618.0000,1598.0000 4618.0000,1531.0000 " stroke="#000000" stroke-width="5.0000"  stroke-linecap="round"  stroke-linejoin="round"  fill="none" />
</g>
<g transform="matrix(1.0000 0.0000 0.0000 1.0000 0.0000 0.0000)">
</g>
<g transform="matrix(0.0625 0.0000 0.0000 0.0625 0.0000 0.0000)">
<path d="M 7641.0000,1531.0000 C 7641.0000,1464.0000 7344.0000,1410.0000 6976.0000,1410.0000 C 6609.0000,1410.0000 6311.0000,1464.0000 6311.0000,1531.0000 C 6311.0000,1598.0000 6609.0000,1652.0000 6976.0000,1652.0000 C 7344.0000,1652.0000 7641.0000,1598.0000 7641.0000,1531.0000 "  fill="#FFFFFF" stroke="none" />
</g>
<g transform="matrix(1.0000 0.0000 0.0000 1.0000 0.0000 0.0000)">
</g>
<g transform="matrix(0.0625 0.0000 0.0000 0.0625 0.0000 0.0000)">
<path d="M 7641.0000,1531.0000 M 7641.0000,1531.0000 C 7641.0000,1464.0000 7344.0000,1410.0000 6976.0000,1410.0000 C 6609.0000,1410.0000 6311.0000,1464.0000 6311.0000,1531.0000 C 6311.0000,1598.0000 6609.0000,1652.0000 6976.0000,1652.0000 C 7344.0000,1652.0000 7641.0000,1598.0000 7641.0000,1531.0000 " stroke="#000000" stroke-width="5.0000"  stroke-linecap="round"  stroke-linejoin="round"  fill="none" />
</g>
<g transform="matrix(1.0000 0.0000 0.0000 1.0000 0.0000 0.0000)">
</g>
<g transform="matrix(0.0625 0.0000 0.0000 0.0625 0.0000 0.0000)">
<path d="M 2441.0000,3244.0000 L 2441.0000,3849.0000 L 8488.0000,3849.0000 L 8488.0000,3244.0000 L 2441.0000,3244.0000 Z" stroke-width="1px" stroke="#FFFFFF"  fill="#FFFFFF" />
</g>
<g transform="matrix(1.0000 0.0000 0.0000 1.0000 0.0000 0.0000)">
</g>
<g transform="matrix(0.0625 0.0000 0.0000 0.0625 0.0000 0.0000)">
<path d="M 2441.0000,3849.0000 L 8488.0000,3849.0000 L 8488.0000,3244.0000 L 2441.0000,3244.0000 L 2441.0000,3849.0000 Z" stroke="#000000" stroke-width="5.0000"  stroke-linecap="round"  stroke-linejoin="round" fill="none" />
</g>
<g transform="matrix(1.0000 0.0000 0.0000 1.0000 0.0000 0.0000)">
</g>
<g transform="matrix(1.0000 0.0000 0.0000 1.0000 279.3063 226.9327)">
<text font-family="Arial" fill="#000000" style ="white-space:pre;" font-weight="400" text-anchor="start" x="0.0000" y="0.0000" font-size="16.0000" ><![CDATA[(]]></text>
</g>
<g transform="matrix(1.0000 0.0000 0.0000 1.0000 284.6343 226.9327)">
<text font-family="Arial" fill="#000000" style ="white-space:pre;" font-weight="400" text-anchor="start" x="0.0000" y="0.0000" font-size="16.0000" ><![CDATA[De]]></text>
</g>
<g transform="matrix(1.0000 0.0000 0.0000 1.0000 305.0876 226.9327)">
<text font-family="Arial" fill="#000000" style ="white-space:pre;" font-weight="400" text-anchor="start" x="0.0000" y="0.0000" font-size="16.0000" ><![CDATA[-]]></text>
</g>
<g transform="matrix(1.0000 0.0000 0.0000 1.0000 310.4156 226.9327)">
<text font-family="Arial" fill="#000000" style ="white-space:pre;" font-weight="400" text-anchor="start" x="0.0000" y="0.0000" font-size="16.0000" ><![CDATA[) ]]></text>
</g>
<g transform="matrix(1.0000 0.0000 0.0000 1.0000 320.1890 226.9327)">
<text font-family="Arial" fill="#000000" style ="white-space:pre;" font-weight="400" text-anchor="start" x="0.0000" y="0.0000" font-size="16.0000" ><![CDATA[Multiplexing]]></text>
</g>
<g transform="matrix(0.0625 0.0000 0.0000 0.0625 0.0000 0.0000)">
<path d="M 2441.0000,2438.0000 L 2441.0000,3043.0000 L 8488.0000,3043.0000 L 8488.0000,2438.0000 L 2441.0000,2438.0000 Z" stroke-width="1px" stroke="#FFFFFF"  fill="#FFFFFF" />
</g>
<g transform="matrix(1.0000 0.0000 0.0000 1.0000 0.0000 0.0000)">
</g>
<g transform="matrix(0.0625 0.0000 0.0000 0.0625 0.0000 0.0000)">
<path d="M 2441.0000,3043.0000 L 8488.0000,3043.0000 L 8488.0000,2438.0000 L 2441.0000,2438.0000 L 2441.0000,3043.0000 Z" stroke="#000000" stroke-width="5.0000"  stroke-linecap="round"  stroke-linejoin="round" fill="none" />
</g>
<g transform="matrix(1.0000 0.0000 0.0000 1.0000 0.0000 0.0000)">
</g>
<g transform="matrix(1.0000 0.0000 0.0000 1.0000 203.7035 176.5507)">
<text font-family="Arial" fill="#000000" style ="white-space:pre;" font-weight="400" text-anchor="start" x="0.0000" y="0.0000" font-size="16.0000" ><![CDATA[Logical Channel Prioritization ]]></text>
</g>
<g transform="matrix(1.0000 0.0000 0.0000 1.0000 415.3789 176.5507)">
<text font-family="Arial" fill="#000000" font-style="italic" style ="white-space:pre;" font-weight="400" text-anchor="start" x="0.0000" y="0.0000" font-size="16.0000" ><![CDATA[(]]></text>
</g>
<g transform="matrix(1.0000 0.0000 0.0000 1.0000 420.7069 176.5507)">
<text font-family="Arial" fill="#000000" font-style="italic" style ="white-space:pre;" font-weight="400" text-anchor="start" x="0.0000" y="0.0000" font-size="16.0000" ><![CDATA[TX only]]></text>
</g>
<g transform="matrix(1.0000 0.0000 0.0000 1.0000 474.9501 176.5507)">
<text font-family="Arial" fill="#000000" font-style="italic" style ="white-space:pre;" font-weight="400" text-anchor="start" x="0.0000" y="0.0000" font-size="16.0000" ><![CDATA[)]]></text>
</g>
<g transform="matrix(1.0000 0.0000 0.0000 1.0000 300.6386 488.3499)">
<text font-family="Arial" fill="#000000" style ="white-space:pre;" font-weight="400" text-anchor="start" x="0.0000" y="0.0000" font-size="16.0000" ><![CDATA[Lower layer]]></text>
</g>
<g transform="matrix(0.0625 0.0000 0.0000 0.0625 0.0000 0.0000)">
<path d="M 10060.0000,1531.0000 C 10060.0000,1464.0000 9898.0000,1410.0000 9697.0000,1410.0000 C 9497.0000,1410.0000 9335.0000,1464.0000 9335.0000,1531.0000 C 9335.0000,1598.0000 9497.0000,1652.0000 9697.0000,1652.0000 C 9898.0000,1652.0000 10060.0000,1598.0000 10060.0000,1531.0000 "  fill="#FFFFFF" stroke="none" />
</g>
<g transform="matrix(1.0000 0.0000 0.0000 1.0000 0.0000 0.0000)">
</g>
<g transform="matrix(0.0625 0.0000 0.0000 0.0625 0.0000 0.0000)">
<path d="M 10060.0000,1531.0000 M 10060.0000,1531.0000 C 10060.0000,1464.0000 9898.0000,1410.0000 9697.0000,1410.0000 C 9497.0000,1410.0000 9335.0000,1464.0000 9335.0000,1531.0000 C 9335.0000,1598.0000 9497.0000,1652.0000 9697.0000,1652.0000 C 9898.0000,1652.0000 10060.0000,1598.0000 10060.0000,1531.0000 " stroke="#000000" stroke-width="5.0000"  stroke-linecap="round"  stroke-linejoin="round"  fill="none" />
</g>
<g transform="matrix(1.0000 0.0000 0.0000 1.0000 0.0000 0.0000)">
</g>
<g transform="matrix(1.0000 0.0000 0.0000 1.0000 562.1039 44.2554)">
<text font-family="Arial" fill="#000000" style ="white-space:pre;" font-weight="400" text-anchor="start" x="0.0000" y="0.0000" font-size="16.0000" ><![CDATA[MAC]]></text>
</g>
<g transform="matrix(1.0000 0.0000 0.0000 1.0000 597.6590 44.2554)">
<text font-family="Arial" fill="#000000" style ="white-space:pre;" font-weight="400" text-anchor="start" x="0.0000" y="0.0000" font-size="16.0000" ><![CDATA[-]]></text>
</g>
<g transform="matrix(1.0000 0.0000 0.0000 1.0000 602.9870 44.2554)">
<text font-family="Arial" fill="#000000" style ="white-space:pre;" font-weight="400" text-anchor="start" x="0.0000" y="0.0000" font-size="16.0000" ><![CDATA[control]]></text>
</g>
<g transform="matrix(1.0000 0.0000 0.0000 1.0000 224.8344 44.2554)">
<text font-family="Arial" fill="#000000" style ="white-space:pre;" font-weight="400" text-anchor="start" x="0.0000" y="0.0000" font-size="16.0000" ><![CDATA[SCCH]]></text>
</g>
<g transform="matrix(1.0000 0.0000 0.0000 1.0000 414.7014 44.2554)">
<text font-family="Arial" fill="#000000" style ="white-space:pre;" font-weight="400" text-anchor="start" x="0.0000" y="0.0000" font-size="16.0000" ><![CDATA[STCH]]></text>
</g>
<g transform="matrix(0.0625 0.0000 0.0000 0.0625 0.0000 0.0000)">
<path d="M 2441.0000,4051.0000 L 2441.0000,4655.0000 L 8488.0000,4655.0000 L 8488.0000,4051.0000 L 2441.0000,4051.0000 Z" stroke-width="1px" stroke="#FFFFFF"  fill="#FFFFFF" />
</g>
<g transform="matrix(1.0000 0.0000 0.0000 1.0000 0.0000 0.0000)">
</g>
<g transform="matrix(0.0625 0.0000 0.0000 0.0625 0.0000 0.0000)">
<path d="M 2441.0000,4655.0000 L 8488.0000,4655.0000 L 8488.0000,4051.0000 L 2441.0000,4051.0000 L 2441.0000,4655.0000 Z" stroke="#000000" stroke-width="5.0000"  stroke-linecap="round"  stroke-linejoin="round" fill="none" />
</g>
<g transform="matrix(1.0000 0.0000 0.0000 1.0000 0.0000 0.0000)">
</g>
<g transform="matrix(1.0000 0.0000 0.0000 1.0000 261.5249 277.3381)">
<text font-family="Arial" fill="#000000" style ="white-space:pre;" font-weight="400" text-anchor="start" x="0.0000" y="0.0000" font-size="16.0000" ><![CDATA[PDU filtering ]]></text>
</g>
<g transform="matrix(1.0000 0.0000 0.0000 1.0000 355.7763 277.3381)">
<text font-family="Arial" fill="#000000" style ="white-space:pre;" font-weight="400" text-anchor="start" x="0.0000" y="0.0000" font-size="16.0000" ><![CDATA[(]]></text>
</g>
<g transform="matrix(1.0000 0.0000 0.0000 1.0000 361.1043 277.3381)">
<text font-family="Arial" fill="#000000" font-style="italic" style ="white-space:pre;" font-weight="400" text-anchor="start" x="0.0000" y="0.0000" font-size="16.0000" ><![CDATA[RX only]]></text>
</g>
<g transform="matrix(1.0000 0.0000 0.0000 1.0000 417.1287 277.3381)">
<text font-family="Arial" fill="#000000" style ="white-space:pre;" font-weight="400" text-anchor="start" x="0.0000" y="0.0000" font-size="16.0000" ><![CDATA[)]]></text>
</g>
<g transform="matrix(0.0625 0.0000 0.0000 0.0625 0.0000 0.0000)">
<path d="M 2441.0000,4857.0000 L 2441.0000,5462.0000 L 8488.0000,5462.0000 L 8488.0000,4857.0000 L 2441.0000,4857.0000 Z" stroke-width="1px" stroke="#FFFFFF"  fill="#FFFFFF" />
</g>
<g transform="matrix(1.0000 0.0000 0.0000 1.0000 0.0000 0.0000)">
</g>
<g transform="matrix(0.0625 0.0000 0.0000 0.0625 0.0000 0.0000)">
<path d="M 2441.0000,5462.0000 L 8488.0000,5462.0000 L 8488.0000,4857.0000 L 2441.0000,4857.0000 L 2441.0000,5462.0000 Z" stroke="#000000" stroke-width="5.0000"  stroke-linecap="round"  stroke-linejoin="round" fill="none" />
</g>
<g transform="matrix(1.0000 0.0000 0.0000 1.0000 0.0000 0.0000)">
</g>
<g transform="matrix(1.0000 0.0000 0.0000 1.0000 318.8772 327.7201)">
<text font-family="Arial" fill="#000000" style ="white-space:pre;" font-weight="400" text-anchor="start" x="0.0000" y="0.0000" font-size="16.0000" ><![CDATA[HARQ]]></text>
</g>
<g transform="matrix(0.0625 0.0000 0.0000 0.0625 0.0000 0.0000)">
<path d="M 9093.0000,5182.0000 L 9047.0000,5182.0000 C 9034.0000,5182.0000 9024.0000,5172.0000 9024.0000,5159.0000 C 9024.0000,5146.0000 9034.0000,5136.0000 9047.0000,5136.0000 L 9093.0000,5136.0000 C 9105.0000,5136.0000 9116.0000,5146.0000 9116.0000,5159.0000 C 9116.0000,5172.0000 9105.0000,5182.0000 9093.0000,5182.0000 Z M 8954.0000,5182.0000 L 8908.0000,5182.0000 C 8896.0000,5182.0000 8885.0000,5172.0000 8885.0000,5159.0000 C 8885.0000,5146.0000 8896.0000,5136.0000 8908.0000,5136.0000 L 8954.0000,5136.0000 C 8967.0000,5136.0000 8977.0000,5146.0000 8977.0000,5159.0000 C 8977.0000,5172.0000 8967.0000,5182.0000 8954.0000,5182.0000 Z M 8816.0000,5182.0000 L 8770.0000,5182.0000 C 8757.0000,5182.0000 8747.0000,5172.0000 8747.0000,5159.0000 C 8747.0000,5146.0000 8757.0000,5136.0000 8770.0000,5136.0000 L 8816.0000,5136.0000 C 8829.0000,5136.0000 8839.0000,5146.0000 8839.0000,5159.0000 C 8839.0000,5172.0000 8829.0000,5182.0000 8816.0000,5182.0000 Z M 8678.0000,5182.0000 L 8632.0000,5182.0000 C 8619.0000,5182.0000 8609.0000,5172.0000 8609.0000,5159.0000 C 8609.0000,5146.0000 8619.0000,5136.0000 8632.0000,5136.0000 L 8678.0000,5136.0000 C 8691.0000,5136.0000 8701.0000,5146.0000 8701.0000,5159.0000 C 8701.0000,5172.0000 8691.0000,5182.0000 8678.0000,5182.0000 Z M 8540.0000,5182.0000 L 8494.0000,5182.0000 C 8481.0000,5182.0000 8471.0000,5172.0000 8471.0000,5159.0000 C 8471.0000,5146.0000 8481.0000,5136.0000 8494.0000,5136.0000 L 8540.0000,5136.0000 C 8552.0000,5136.0000 8563.0000,5146.0000 8563.0000,5159.0000 C 8563.0000,5172.0000 8552.0000,5182.0000 8540.0000,5182.0000 Z "  fill="#000000" stroke="#000000" stroke-width="1.0000"  stroke-linecap="butt"  stroke-linejoin="round" />
</g>
<g transform="matrix(1.0000 0.0000 0.0000 1.0000 0.0000 0.0000)">
</g>
<g transform="matrix(0.0625 0.0000 0.0000 0.0625 0.0000 0.0000)">
<path d="M 9093.0000,3567.0000 L 9047.0000,3567.0000 C 9034.0000,3567.0000 9024.0000,3557.0000 9024.0000,3544.0000 C 9024.0000,3531.0000 9034.0000,3521.0000 9047.0000,3521.0000 L 9093.0000,3521.0000 C 9105.0000,3521.0000 9116.0000,3531.0000 9116.0000,3544.0000 C 9116.0000,3557.0000 9105.0000,3567.0000 9093.0000,3567.0000 Z M 8954.0000,3567.0000 L 8908.0000,3567.0000 C 8896.0000,3567.0000 8885.0000,3557.0000 8885.0000,3544.0000 C 8885.0000,3531.0000 8896.0000,3521.0000 8908.0000,3521.0000 L 8954.0000,3521.0000 C 8967.0000,3521.0000 8977.0000,3531.0000 8977.0000,3544.0000 C 8977.0000,3557.0000 8967.0000,3567.0000 8954.0000,3567.0000 Z M 8816.0000,3567.0000 L 8770.0000,3567.0000 C 8757.0000,3567.0000 8747.0000,3557.0000 8747.0000,3544.0000 C 8747.0000,3531.0000 8757.0000,3521.0000 8770.0000,3521.0000 L 8816.0000,3521.0000 C 8829.0000,3521.0000 8839.0000,3531.0000 8839.0000,3544.0000 C 8839.0000,3557.0000 8829.0000,3567.0000 8816.0000,3567.0000 Z M 8678.0000,3567.0000 L 8632.0000,3567.0000 C 8619.0000,3567.0000 8609.0000,3557.0000 8609.0000,3544.0000 C 8609.0000,3531.0000 8619.0000,3521.0000 8632.0000,3521.0000 L 8678.0000,3521.0000 C 8691.0000,3521.0000 8701.0000,3531.0000 8701.0000,3544.0000 C 8701.0000,3557.0000 8691.0000,3567.0000 8678.0000,3567.0000 Z M 8540.0000,3567.0000 L 8494.0000,3567.0000 C 8481.0000,3567.0000 8471.0000,3557.0000 8471.0000,3544.0000 C 8471.0000,3531.0000 8481.0000,3521.0000 8494.0000,3521.0000 L 8540.0000,3521.0000 C 8552.0000,3521.0000 8563.0000,3531.0000 8563.0000,3544.0000 C 8563.0000,3557.0000 8552.0000,3567.0000 8540.0000,3567.0000 Z "  fill="#000000" stroke="#000000" stroke-width="1.0000"  stroke-linecap="butt"  stroke-linejoin="round" />
</g>
<g transform="matrix(1.0000 0.0000 0.0000 1.0000 0.0000 0.0000)">
</g>
<g transform="matrix(0.0625 0.0000 0.0000 0.0625 0.0000 0.0000)">
<path d="M 9093.0000,2763.0000 L 9047.0000,2763.0000 C 9034.0000,2763.0000 9024.0000,2753.0000 9024.0000,2740.0000 C 9024.0000,2728.0000 9034.0000,2717.0000 9047.0000,2717.0000 L 9093.0000,2717.0000 C 9105.0000,2717.0000 9116.0000,2728.0000 9116.0000,2740.0000 C 9116.0000,2753.0000 9105.0000,2763.0000 9093.0000,2763.0000 Z M 8954.0000,2763.0000 L 8908.0000,2763.0000 C 8896.0000,2763.0000 8885.0000,2753.0000 8885.0000,2740.0000 C 8885.0000,2728.0000 8896.0000,2717.0000 8908.0000,2717.0000 L 8954.0000,2717.0000 C 8967.0000,2717.0000 8977.0000,2728.0000 8977.0000,2740.0000 C 8977.0000,2753.0000 8967.0000,2763.0000 8954.0000,2763.0000 Z M 8816.0000,2763.0000 L 8770.0000,2763.0000 C 8757.0000,2763.0000 8747.0000,2753.0000 8747.0000,2740.0000 C 8747.0000,2728.0000 8757.0000,2717.0000 8770.0000,2717.0000 L 8816.0000,2717.0000 C 8829.0000,2717.0000 8839.0000,2728.0000 8839.0000,2740.0000 C 8839.0000,2753.0000 8829.0000,2763.0000 8816.0000,2763.0000 Z M 8678.0000,2763.0000 L 8632.0000,2763.0000 C 8619.0000,2763.0000 8609.0000,2753.0000 8609.0000,2740.0000 C 8609.0000,2728.0000 8619.0000,2717.0000 8632.0000,2717.0000 L 8678.0000,2717.0000 C 8691.0000,2717.0000 8701.0000,2728.0000 8701.0000,2740.0000 C 8701.0000,2753.0000 8691.0000,2763.0000 8678.0000,2763.0000 Z M 8540.0000,2763.0000 L 8494.0000,2763.0000 C 8481.0000,2763.0000 8471.0000,2753.0000 8471.0000,2740.0000 C 8471.0000,2728.0000 8481.0000,2717.0000 8494.0000,2717.0000 L 8540.0000,2717.0000 C 8552.0000,2717.0000 8563.0000,2728.0000 8563.0000,2740.0000 C 8563.0000,2753.0000 8552.0000,2763.0000 8540.0000,2763.0000 Z "  fill="#000000" stroke="#000000" stroke-width="1.0000"  stroke-linecap="butt"  stroke-linejoin="round" />
</g>
<g transform="matrix(1.0000 0.0000 0.0000 1.0000 0.0000 0.0000)">
</g>
<g transform="matrix(0.0625 0.0000 0.0000 0.0625 0.0000 0.0000)">
<path d="M 9089.0000,4379.0000 L 9043.0000,4379.0000 C 9030.0000,4379.0000 9020.0000,4368.0000 9020.0000,4356.0000 C 9020.0000,4343.0000 9030.0000,4333.0000 9043.0000,4333.0000 L 9089.0000,4333.0000 C 9102.0000,4333.0000 9112.0000,4343.0000 9112.0000,4356.0000 C 9112.0000,4368.0000 9102.0000,4379.0000 9089.0000,4379.0000 Z M 8951.0000,4379.0000 L 8905.0000,4379.0000 C 8892.0000,4379.0000 8882.0000,4368.0000 8882.0000,4356.0000 C 8882.0000,4343.0000 8892.0000,4333.0000 8905.0000,4333.0000 L 8951.0000,4333.0000 C 8964.0000,4333.0000 8974.0000,4343.0000 8974.0000,4356.0000 C 8974.0000,4368.0000 8964.0000,4379.0000 8951.0000,4379.0000 Z M 8813.0000,4379.0000 L 8767.0000,4379.0000 C 8754.0000,4379.0000 8744.0000,4368.0000 8744.0000,4356.0000 C 8744.0000,4343.0000 8754.0000,4333.0000 8767.0000,4333.0000 L 8813.0000,4333.0000 C 8825.0000,4333.0000 8836.0000,4343.0000 8836.0000,4356.0000 C 8836.0000,4368.0000 8825.0000,4379.0000 8813.0000,4379.0000 Z M 8675.0000,4379.0000 L 8628.0000,4379.0000 C 8616.0000,4379.0000 8605.0000,4368.0000 8605.0000,4356.0000 C 8605.0000,4343.0000 8616.0000,4333.0000 8628.0000,4333.0000 L 8675.0000,4333.0000 C 8687.0000,4333.0000 8698.0000,4343.0000 8698.0000,4356.0000 C 8698.0000,4368.0000 8687.0000,4379.0000 8675.0000,4379.0000 Z M 8536.0000,4379.0000 L 8490.0000,4379.0000 C 8477.0000,4379.0000 8467.0000,4368.0000 8467.0000,4356.0000 C 8467.0000,4343.0000 8477.0000,4333.0000 8490.0000,4333.0000 L 8536.0000,4333.0000 C 8549.0000,4333.0000 8559.0000,4343.0000 8559.0000,4356.0000 C 8559.0000,4368.0000 8549.0000,4379.0000 8536.0000,4379.0000 Z "  fill="#000000" stroke="#000000" stroke-width="1.0000"  stroke-linecap="butt"  stroke-linejoin="round" />
</g>
<g transform="matrix(1.0000 0.0000 0.0000 1.0000 0.0000 0.0000)">
</g>
</g>
</svg>
