<?xml version="1.0"  encoding="UTF-8" standalone="no"?>
<svg version="1.1" xmlns="http://www.w3.org/2000/svg" xmlns:xlink="http://www.w3.org/1999/xlink" width="1004.0000" height="191.0000">
<g transform="translate(-0.0000, -0.0000)">
<g transform="matrix(0.0625 0.0000 0.0000 0.0625 0.0000 0.0000)">
<path d="M 19.0000,2438.0000 L 19.0000,3043.0000 L 1833.0000,3043.0000 L 1833.0000,2438.0000 L 19.0000,2438.0000 Z" stroke-width="1px" stroke="#FFFFFF"  fill="#FFFFFF" />
</g>
<g transform="matrix(1.0000 0.0000 0.0000 1.0000 0.0000 0.0000)">
<defs><clipPath id="clip-1804289383"><path d="M 0.0000,0.0000 L 1004.0000,0.0000 L 1004.0000,192.0000 L 0.0000,192.0000 L 0.0000,0.0000 Z Z" /></clipPath></defs>
</g>
<g transform="matrix(0.0625 0.0000 0.0000 0.0625 0.0000 0.0000)">
<path  clip-path="url(#clip-1804289383)" d="M 19.0000,3043.0000 L 1833.0000,3043.0000 L 1833.0000,2438.0000 L 19.0000,2438.0000 L 19.0000,3043.0000 Z" stroke="#000000" stroke-width="5.0000"  stroke-linecap="round"  stroke-linejoin="round" fill="none" />
</g>
<g transform="matrix(1.0000 0.0000 0.0000 1.0000 0.0000 0.0000)">
</g>
<g transform="matrix(1.0000 0.0000 0.0000 1.0000 16.8618 167.7389)">
<text fill="#000000" style ="white-space:pre;" font-weight="400" text-anchor="start" x="0.0000" y="0.0000" font-size="13.0000" ><![CDATA[MAC subPDU ]]></text>
</g>
<g transform="matrix(1.0000 0.0000 0.0000 1.0000 33.5317 183.7390)">
<text fill="#000000" style ="white-space:pre;" font-weight="400" text-anchor="start" x="0.0000" y="0.0000" font-size="13.0000" ><![CDATA[(]]></text>
</g>
<g transform="matrix(1.0000 0.0000 0.0000 1.0000 37.9716 183.7390)">
<text fill="#000000" style ="white-space:pre;" font-weight="400" text-anchor="start" x="0.0000" y="0.0000" font-size="13.0000" ><![CDATA[BI only]]></text>
</g>
<g transform="matrix(1.0000 0.0000 0.0000 1.0000 78.7342 183.7390)">
<text fill="#000000" style ="white-space:pre;" font-weight="400" text-anchor="start" x="0.0000" y="0.0000" font-size="13.0000" ><![CDATA[)]]></text>
</g>
<g transform="matrix(0.0625 0.0000 0.0000 0.0625 0.0000 0.0000)">
<path d="M 1833.0000,2438.0000 L 1833.0000,3043.0000 L 4252.0000,3043.0000 L 4252.0000,2438.0000 L 1833.0000,2438.0000 Z" stroke-width="1px" stroke="#FFFFFF"  fill="#FFFFFF" />
</g>
<g transform="matrix(1.0000 0.0000 0.0000 1.0000 0.0000 0.0000)">
<defs><clipPath id="clip-846930886"><path d="M 0.0000,0.0000 L 1004.0000,0.0000 L 1004.0000,192.0000 L 0.0000,192.0000 L 0.0000,0.0000 Z Z" /></clipPath></defs>
</g>
<g transform="matrix(0.0625 0.0000 0.0000 0.0625 0.0000 0.0000)">
<path  clip-path="url(#clip-846930886)" d="M 1833.0000,3043.0000 L 4252.0000,3043.0000 L 4252.0000,2438.0000 L 1833.0000,2438.0000 L 1833.0000,3043.0000 Z" stroke="#000000" stroke-width="5.0000"  stroke-linecap="round"  stroke-linejoin="round" fill="none" />
</g>
<g transform="matrix(1.0000 0.0000 0.0000 1.0000 0.0000 0.0000)">
</g>
<g transform="matrix(1.0000 0.0000 0.0000 1.0000 149.1452 167.7389)">
<text fill="#000000" style ="white-space:pre;" font-weight="400" text-anchor="start" x="0.0000" y="0.0000" font-size="13.0000" ><![CDATA[MAC subPDU]]></text>
</g>
<g transform="matrix(1.0000 0.0000 0.0000 1.0000 232.1275 167.7389)">
<text fill="#000000" style ="white-space:pre;" font-weight="400" text-anchor="start" x="0.0000" y="0.0000" font-size="13.0000" ><![CDATA[ ]]></text>
</g>
<g transform="matrix(1.0000 0.0000 0.0000 1.0000 149.5165 183.7390)">
<text fill="#000000" style ="white-space:pre;" font-weight="400" text-anchor="start" x="0.0000" y="0.0000" font-size="13.0000" ><![CDATA[(]]></text>
</g>
<g transform="matrix(1.0000 0.0000 0.0000 1.0000 153.9565 183.7390)">
<text fill="#000000" style ="white-space:pre;" font-weight="400" text-anchor="start" x="0.0000" y="0.0000" font-size="13.0000" ><![CDATA[fallbackRAR]]></text>
</g>
<g transform="matrix(1.0000 0.0000 0.0000 1.0000 227.3166 183.7390)">
<text fill="#000000" style ="white-space:pre;" font-weight="400" text-anchor="start" x="0.0000" y="0.0000" font-size="13.0000" ><![CDATA[)]]></text>
</g>
<g transform="matrix(1.0000 0.0000 0.0000 1.0000 621.3950 175.7033)">
<text fill="#000000" style ="white-space:pre;" font-weight="400" text-anchor="start" x="0.0000" y="0.0000" font-size="32.0000" ><![CDATA[...]]></text>
<defs><clipPath id="clip-1681692777"><path d="M 0.0000,0.0000 L 1004.0000,0.0000 L 1004.0000,192.0000 L 0.0000,192.0000 L 0.0000,0.0000 Z Z" /></clipPath></defs>
</g>
<g transform="matrix(0.0625 0.0000 0.0000 0.0625 0.0000 0.0000)">
<path d="M 16.0000,2438.0000 L 16.0000,2402.0000 C 16.0000,2401.0000 18.0000,2400.0000 19.0000,2400.0000 C 20.0000,2400.0000 22.0000,2401.0000 22.0000,2402.0000 L 22.0000,2438.0000 C 22.0000,2439.0000 20.0000,2440.0000 19.0000,2440.0000 C 18.0000,2440.0000 16.0000,2439.0000 16.0000,2438.0000 Z M 16.0000,2376.0000 L 16.0000,2341.0000 C 16.0000,2339.0000 18.0000,2338.0000 19.0000,2338.0000 C 20.0000,2338.0000 22.0000,2339.0000 22.0000,2341.0000 L 22.0000,2376.0000 C 22.0000,2378.0000 20.0000,2379.0000 19.0000,2379.0000 C 18.0000,2379.0000 16.0000,2378.0000 16.0000,2376.0000 Z M 16.0000,2315.0000 L 16.0000,2279.0000 C 16.0000,2278.0000 18.0000,2277.0000 19.0000,2277.0000 C 20.0000,2277.0000 22.0000,2278.0000 22.0000,2279.0000 L 22.0000,2315.0000 C 22.0000,2316.0000 20.0000,2318.0000 19.0000,2318.0000 C 18.0000,2318.0000 16.0000,2316.0000 16.0000,2315.0000 Z M 16.0000,2254.0000 L 16.0000,2218.0000 C 16.0000,2216.0000 18.0000,2215.0000 19.0000,2215.0000 C 20.0000,2215.0000 22.0000,2216.0000 22.0000,2218.0000 L 22.0000,2254.0000 C 22.0000,2255.0000 20.0000,2256.0000 19.0000,2256.0000 C 18.0000,2256.0000 16.0000,2255.0000 16.0000,2254.0000 Z M 16.0000,2192.0000 L 16.0000,2156.0000 C 16.0000,2155.0000 18.0000,2154.0000 19.0000,2154.0000 C 20.0000,2154.0000 22.0000,2155.0000 22.0000,2156.0000 L 22.0000,2192.0000 C 22.0000,2194.0000 20.0000,2195.0000 19.0000,2195.0000 C 18.0000,2195.0000 16.0000,2194.0000 16.0000,2192.0000 Z M 16.0000,2131.0000 L 16.0000,2095.0000 C 16.0000,2093.0000 18.0000,2092.0000 19.0000,2092.0000 C 20.0000,2092.0000 22.0000,2093.0000 22.0000,2095.0000 L 22.0000,2131.0000 C 22.0000,2132.0000 20.0000,2133.0000 19.0000,2133.0000 C 18.0000,2133.0000 16.0000,2132.0000 16.0000,2131.0000 Z M 16.0000,2069.0000 L 16.0000,2033.0000 C 16.0000,2032.0000 18.0000,2031.0000 19.0000,2031.0000 C 20.0000,2031.0000 22.0000,2032.0000 22.0000,2033.0000 L 22.0000,2069.0000 C 22.0000,2071.0000 20.0000,2072.0000 19.0000,2072.0000 C 18.0000,2072.0000 16.0000,2071.0000 16.0000,2069.0000 Z M 16.0000,2008.0000 L 16.0000,1972.0000 C 16.0000,1971.0000 18.0000,1969.0000 19.0000,1969.0000 C 20.0000,1969.0000 22.0000,1971.0000 22.0000,1972.0000 L 22.0000,2008.0000 C 22.0000,2009.0000 20.0000,2010.0000 19.0000,2010.0000 C 18.0000,2010.0000 16.0000,2009.0000 16.0000,2008.0000 Z M 16.0000,1946.0000 L 16.0000,1911.0000 C 16.0000,1909.0000 18.0000,1908.0000 19.0000,1908.0000 C 20.0000,1908.0000 22.0000,1909.0000 22.0000,1911.0000 L 22.0000,1946.0000 C 22.0000,1948.0000 20.0000,1949.0000 19.0000,1949.0000 C 18.0000,1949.0000 16.0000,1948.0000 16.0000,1946.0000 Z M 16.0000,1885.0000 L 16.0000,1849.0000 C 16.0000,1848.0000 18.0000,1847.0000 19.0000,1847.0000 C 20.0000,1847.0000 22.0000,1848.0000 22.0000,1849.0000 L 22.0000,1885.0000 C 22.0000,1886.0000 20.0000,1888.0000 19.0000,1888.0000 C 18.0000,1888.0000 16.0000,1886.0000 16.0000,1885.0000 Z M 16.0000,1824.0000 L 16.0000,1788.0000 C 16.0000,1786.0000 18.0000,1785.0000 19.0000,1785.0000 C 20.0000,1785.0000 22.0000,1786.0000 22.0000,1788.0000 L 22.0000,1824.0000 C 22.0000,1825.0000 20.0000,1826.0000 19.0000,1826.0000 C 18.0000,1826.0000 16.0000,1825.0000 16.0000,1824.0000 Z M 16.0000,1762.0000 L 16.0000,1726.0000 C 16.0000,1725.0000 18.0000,1724.0000 19.0000,1724.0000 C 20.0000,1724.0000 22.0000,1725.0000 22.0000,1726.0000 L 22.0000,1762.0000 C 22.0000,1764.0000 20.0000,1765.0000 19.0000,1765.0000 C 18.0000,1765.0000 16.0000,1764.0000 16.0000,1762.0000 Z M 16.0000,1701.0000 L 16.0000,1665.0000 C 16.0000,1663.0000 18.0000,1662.0000 19.0000,1662.0000 C 20.0000,1662.0000 22.0000,1663.0000 22.0000,1665.0000 L 22.0000,1701.0000 C 22.0000,1702.0000 20.0000,1703.0000 19.0000,1703.0000 C 18.0000,1703.0000 16.0000,1702.0000 16.0000,1701.0000 Z M 16.0000,1639.0000 L 16.0000,1603.0000 C 16.0000,1602.0000 18.0000,1601.0000 19.0000,1601.0000 C 20.0000,1601.0000 22.0000,1602.0000 22.0000,1603.0000 L 22.0000,1639.0000 C 22.0000,1641.0000 20.0000,1642.0000 19.0000,1642.0000 C 18.0000,1642.0000 16.0000,1641.0000 16.0000,1639.0000 Z M 16.0000,1578.0000 L 16.0000,1542.0000 C 16.0000,1541.0000 18.0000,1539.0000 19.0000,1539.0000 C 20.0000,1539.0000 22.0000,1541.0000 22.0000,1542.0000 L 22.0000,1578.0000 C 22.0000,1579.0000 20.0000,1580.0000 19.0000,1580.0000 C 18.0000,1580.0000 16.0000,1579.0000 16.0000,1578.0000 Z M 16.0000,1516.0000 L 16.0000,1480.0000 C 16.0000,1479.0000 18.0000,1478.0000 19.0000,1478.0000 C 20.0000,1478.0000 22.0000,1479.0000 22.0000,1480.0000 L 22.0000,1516.0000 C 22.0000,1518.0000 20.0000,1519.0000 19.0000,1519.0000 C 18.0000,1519.0000 16.0000,1518.0000 16.0000,1516.0000 Z M 16.0000,1455.0000 L 16.0000,1419.0000 C 16.0000,1418.0000 18.0000,1416.0000 19.0000,1416.0000 C 20.0000,1416.0000 22.0000,1418.0000 22.0000,1419.0000 L 22.0000,1455.0000 C 22.0000,1456.0000 20.0000,1457.0000 19.0000,1457.0000 C 18.0000,1457.0000 16.0000,1456.0000 16.0000,1455.0000 Z M 16.0000,1393.0000 L 16.0000,1358.0000 C 16.0000,1356.0000 18.0000,1355.0000 19.0000,1355.0000 C 20.0000,1355.0000 22.0000,1356.0000 22.0000,1358.0000 L 22.0000,1393.0000 C 22.0000,1395.0000 20.0000,1396.0000 19.0000,1396.0000 C 18.0000,1396.0000 16.0000,1395.0000 16.0000,1393.0000 Z M 16.0000,1332.0000 L 16.0000,1296.0000 C 16.0000,1295.0000 18.0000,1294.0000 19.0000,1294.0000 C 20.0000,1294.0000 22.0000,1295.0000 22.0000,1296.0000 L 22.0000,1332.0000 C 22.0000,1333.0000 20.0000,1335.0000 19.0000,1335.0000 C 18.0000,1335.0000 16.0000,1333.0000 16.0000,1332.0000 Z M 16.0000,1271.0000 L 16.0000,1235.0000 C 16.0000,1233.0000 18.0000,1232.0000 19.0000,1232.0000 C 20.0000,1232.0000 22.0000,1233.0000 22.0000,1235.0000 L 22.0000,1271.0000 C 22.0000,1272.0000 20.0000,1273.0000 19.0000,1273.0000 C 18.0000,1273.0000 16.0000,1272.0000 16.0000,1271.0000 Z M 16.0000,1209.0000 L 16.0000,1173.0000 C 16.0000,1172.0000 18.0000,1171.0000 19.0000,1171.0000 C 20.0000,1171.0000 22.0000,1172.0000 22.0000,1173.0000 L 22.0000,1209.0000 C 22.0000,1211.0000 20.0000,1212.0000 19.0000,1212.0000 C 18.0000,1212.0000 16.0000,1211.0000 16.0000,1209.0000 Z M 16.0000,1148.0000 L 16.0000,1112.0000 C 16.0000,1110.0000 18.0000,1109.0000 19.0000,1109.0000 C 20.0000,1109.0000 22.0000,1110.0000 22.0000,1112.0000 L 22.0000,1148.0000 C 22.0000,1149.0000 20.0000,1150.0000 19.0000,1150.0000 C 18.0000,1150.0000 16.0000,1149.0000 16.0000,1148.0000 Z M 16.0000,1086.0000 L 16.0000,1050.0000 C 16.0000,1049.0000 18.0000,1048.0000 19.0000,1048.0000 C 20.0000,1048.0000 22.0000,1049.0000 22.0000,1050.0000 L 22.0000,1086.0000 C 22.0000,1088.0000 20.0000,1089.0000 19.0000,1089.0000 C 18.0000,1089.0000 16.0000,1088.0000 16.0000,1086.0000 Z M 16.0000,1025.0000 L 16.0000,989.0000 C 16.0000,988.0000 18.0000,986.0000 19.0000,986.0000 C 20.0000,986.0000 22.0000,988.0000 22.0000,989.0000 L 22.0000,1025.0000 C 22.0000,1026.0000 20.0000,1027.0000 19.0000,1027.0000 C 18.0000,1027.0000 16.0000,1026.0000 16.0000,1025.0000 Z M 16.0000,963.0000 L 16.0000,928.0000 C 16.0000,926.0000 18.0000,925.0000 19.0000,925.0000 C 20.0000,925.0000 22.0000,926.0000 22.0000,928.0000 L 22.0000,963.0000 C 22.0000,965.0000 20.0000,966.0000 19.0000,966.0000 C 18.0000,966.0000 16.0000,965.0000 16.0000,963.0000 Z M 16.0000,902.0000 L 16.0000,866.0000 C 16.0000,865.0000 18.0000,864.0000 19.0000,864.0000 C 20.0000,864.0000 22.0000,865.0000 22.0000,866.0000 L 22.0000,902.0000 C 22.0000,903.0000 20.0000,904.0000 19.0000,904.0000 C 18.0000,904.0000 16.0000,903.0000 16.0000,902.0000 Z M 16.0000,840.0000 L 16.0000,805.0000 C 16.0000,803.0000 18.0000,802.0000 19.0000,802.0000 C 20.0000,802.0000 22.0000,803.0000 22.0000,805.0000 L 22.0000,840.0000 C 22.0000,842.0000 20.0000,843.0000 19.0000,843.0000 C 18.0000,843.0000 16.0000,842.0000 16.0000,840.0000 Z M 16.0000,779.0000 L 16.0000,743.0000 C 16.0000,742.0000 18.0000,741.0000 19.0000,741.0000 C 20.0000,741.0000 22.0000,742.0000 22.0000,743.0000 L 22.0000,779.0000 C 22.0000,780.0000 20.0000,782.0000 19.0000,782.0000 C 18.0000,782.0000 16.0000,780.0000 16.0000,779.0000 Z M 16.0000,718.0000 L 16.0000,682.0000 C 16.0000,680.0000 18.0000,679.0000 19.0000,679.0000 C 20.0000,679.0000 22.0000,680.0000 22.0000,682.0000 L 22.0000,718.0000 C 22.0000,719.0000 20.0000,720.0000 19.0000,720.0000 C 18.0000,720.0000 16.0000,719.0000 16.0000,718.0000 Z M 16.0000,656.0000 L 16.0000,624.0000 C 16.0000,622.0000 18.0000,621.0000 19.0000,621.0000 C 20.0000,621.0000 22.0000,622.0000 22.0000,624.0000 L 22.0000,656.0000 C 22.0000,658.0000 20.0000,659.0000 19.0000,659.0000 C 18.0000,659.0000 16.0000,658.0000 16.0000,656.0000 Z "  fill="#000000" stroke="#000000" stroke-width="1.0000"  stroke-linecap="butt"  stroke-linejoin="round" />
</g>
<g transform="matrix(1.0000 0.0000 0.0000 1.0000 0.0000 0.0000)">
</g>
<g transform="matrix(0.0625 0.0000 0.0000 0.0625 0.0000 0.0000)">
<path d="M 19.0000,19.0000 L 19.0000,624.0000 L 1833.0000,624.0000 L 1833.0000,19.0000 L 19.0000,19.0000 Z" stroke-width="1px" stroke="#FFFFFF"  fill="#FFFFFF" />
</g>
<g transform="matrix(1.0000 0.0000 0.0000 1.0000 0.0000 0.0000)">
<defs><clipPath id="clip-1714636915"><path d="M 0.0000,0.0000 L 1004.0000,0.0000 L 1004.0000,192.0000 L 0.0000,192.0000 L 0.0000,0.0000 Z Z" /></clipPath></defs>
</g>
<g transform="matrix(0.0625 0.0000 0.0000 0.0625 0.0000 0.0000)">
<path  clip-path="url(#clip-1714636915)" d="M 19.0000,624.0000 L 1833.0000,624.0000 L 1833.0000,19.0000 L 19.0000,19.0000 L 19.0000,624.0000 Z" stroke="#000000" stroke-width="5.0000"  stroke-linecap="round"  stroke-linejoin="round" fill="none" />
</g>
<g transform="matrix(1.0000 0.0000 0.0000 1.0000 0.0000 0.0000)">
</g>
<g transform="matrix(1.0000 0.0000 0.0000 1.0000 23.6773 16.9577)">
<text font-family="Arial" fill="#000000" style ="white-space:pre;" font-weight="400" text-anchor="start" x="0.0000" y="0.0000" font-size="12.0000" ><![CDATA[E]]></text>
</g>
<g transform="matrix(1.0000 0.0000 0.0000 1.0000 31.6812 16.9577)">
<text font-family="Arial" fill="#000000" style ="white-space:pre;" font-weight="400" text-anchor="start" x="0.0000" y="0.0000" font-size="12.0000" ><![CDATA[/]]></text>
</g>
<g transform="matrix(1.0000 0.0000 0.0000 1.0000 35.0152 16.9577)">
<text font-family="Arial" fill="#000000" style ="white-space:pre;" font-weight="400" text-anchor="start" x="0.0000" y="0.0000" font-size="12.0000" ><![CDATA[T]]></text>
</g>
<g transform="matrix(1.0000 0.0000 0.0000 1.0000 42.3453 16.9577)">
<text font-family="Arial" fill="#000000" style ="white-space:pre;" font-weight="400" text-anchor="start" x="0.0000" y="0.0000" font-size="12.0000" ><![CDATA[1]]></text>
</g>
<g transform="matrix(1.0000 0.0000 0.0000 1.0000 49.0191 16.9577)">
<text font-family="Arial" fill="#000000" style ="white-space:pre;" font-weight="400" text-anchor="start" x="0.0000" y="0.0000" font-size="12.0000" ><![CDATA[/]]></text>
</g>
<g transform="matrix(1.0000 0.0000 0.0000 1.0000 52.3531 16.9577)">
<text font-family="Arial" fill="#000000" style ="white-space:pre;" font-weight="400" text-anchor="start" x="0.0000" y="0.0000" font-size="12.0000" ><![CDATA[T]]></text>
</g>
<g transform="matrix(1.0000 0.0000 0.0000 1.0000 59.6832 16.9577)">
<text font-family="Arial" fill="#000000" style ="white-space:pre;" font-weight="400" text-anchor="start" x="0.0000" y="0.0000" font-size="12.0000" ><![CDATA[2]]></text>
</g>
<g transform="matrix(1.0000 0.0000 0.0000 1.0000 66.3570 16.9577)">
<text font-family="Arial" fill="#000000" style ="white-space:pre;" font-weight="400" text-anchor="start" x="0.0000" y="0.0000" font-size="12.0000" ><![CDATA[/]]></text>
</g>
<g transform="matrix(1.0000 0.0000 0.0000 1.0000 69.6910 16.9577)">
<text font-family="Arial" fill="#000000" style ="white-space:pre;" font-weight="400" text-anchor="start" x="0.0000" y="0.0000" font-size="12.0000" ><![CDATA[R]]></text>
</g>
<g transform="matrix(1.0000 0.0000 0.0000 1.0000 78.3570 16.9577)">
<text font-family="Arial" fill="#000000" style ="white-space:pre;" font-weight="400" text-anchor="start" x="0.0000" y="0.0000" font-size="12.0000" ><![CDATA[/]]></text>
</g>
<g transform="matrix(1.0000 0.0000 0.0000 1.0000 81.6910 16.9577)">
<text font-family="Arial" fill="#000000" style ="white-space:pre;" font-weight="400" text-anchor="start" x="0.0000" y="0.0000" font-size="12.0000" ><![CDATA[BI]]></text>
</g>
<g transform="matrix(1.0000 0.0000 0.0000 1.0000 29.9967 31.3575)">
<text font-family="Arial" fill="#000000" style ="white-space:pre;" font-weight="400" text-anchor="start" x="0.0000" y="0.0000" font-size="12.0000" ><![CDATA[subheader]]></text>
</g>
<g transform="matrix(0.0625 0.0000 0.0000 0.0625 0.0000 0.0000)">
<path d="M 2136.0000,19.0000 L 2136.0000,624.0000 L 3950.0000,624.0000 L 3950.0000,19.0000 L 2136.0000,19.0000 Z" stroke-width="1px" stroke="#FFFFFF"  fill="#FFFFFF" />
</g>
<g transform="matrix(1.0000 0.0000 0.0000 1.0000 0.0000 0.0000)">
<defs><clipPath id="clip-1957747793"><path d="M 0.0000,0.0000 L 1004.0000,0.0000 L 1004.0000,192.0000 L 0.0000,192.0000 L 0.0000,0.0000 Z Z" /></clipPath></defs>
</g>
<g transform="matrix(0.0625 0.0000 0.0000 0.0625 0.0000 0.0000)">
<path  clip-path="url(#clip-1957747793)" d="M 2136.0000,624.0000 L 3950.0000,624.0000 L 3950.0000,19.0000 L 2136.0000,19.0000 L 2136.0000,624.0000 Z" stroke="#000000" stroke-width="5.0000"  stroke-linecap="round"  stroke-linejoin="round" fill="none" />
</g>
<g transform="matrix(1.0000 0.0000 0.0000 1.0000 0.0000 0.0000)">
</g>
<g transform="matrix(1.0000 0.0000 0.0000 1.0000 157.9618 16.9577)">
<text font-family="Arial" fill="#000000" style ="white-space:pre;" font-weight="400" text-anchor="start" x="0.0000" y="0.0000" font-size="12.0000" ><![CDATA[E]]></text>
</g>
<g transform="matrix(1.0000 0.0000 0.0000 1.0000 165.9657 16.9577)">
<text font-family="Arial" fill="#000000" style ="white-space:pre;" font-weight="400" text-anchor="start" x="0.0000" y="0.0000" font-size="12.0000" ><![CDATA[/]]></text>
</g>
<g transform="matrix(1.0000 0.0000 0.0000 1.0000 169.2997 16.9577)">
<text font-family="Arial" fill="#000000" style ="white-space:pre;" font-weight="400" text-anchor="start" x="0.0000" y="0.0000" font-size="12.0000" ><![CDATA[T]]></text>
</g>
<g transform="matrix(1.0000 0.0000 0.0000 1.0000 176.6297 16.9577)">
<text font-family="Arial" fill="#000000" style ="white-space:pre;" font-weight="400" text-anchor="start" x="0.0000" y="0.0000" font-size="12.0000" ><![CDATA[1]]></text>
</g>
<g transform="matrix(1.0000 0.0000 0.0000 1.0000 183.3036 16.9577)">
<text font-family="Arial" fill="#000000" style ="white-space:pre;" font-weight="400" text-anchor="start" x="0.0000" y="0.0000" font-size="12.0000" ><![CDATA[/]]></text>
</g>
<g transform="matrix(1.0000 0.0000 0.0000 1.0000 186.6376 16.9577)">
<text font-family="Arial" fill="#000000" style ="white-space:pre;" font-weight="400" text-anchor="start" x="0.0000" y="0.0000" font-size="12.0000" ><![CDATA[RAPID ]]></text>
</g>
<g transform="matrix(1.0000 0.0000 0.0000 1.0000 162.2801 31.3575)">
<text font-family="Arial" fill="#000000" style ="white-space:pre;" font-weight="400" text-anchor="start" x="0.0000" y="0.0000" font-size="12.0000" ><![CDATA[subheader]]></text>
</g>
<g transform="matrix(0.0625 0.0000 0.0000 0.0625 0.0000 0.0000)">
<path d="M 4250.0000,2436.0000 L 4276.0000,2411.0000 C 4277.0000,2410.0000 4278.0000,2410.0000 4279.0000,2411.0000 C 4280.0000,2412.0000 4280.0000,2413.0000 4279.0000,2414.0000 L 4254.0000,2440.0000 C 4253.0000,2441.0000 4251.0000,2441.0000 4250.0000,2440.0000 C 4249.0000,2439.0000 4249.0000,2437.0000 4250.0000,2436.0000 Z M 4294.0000,2393.0000 L 4319.0000,2367.0000 C 4320.0000,2366.0000 4322.0000,2366.0000 4323.0000,2367.0000 C 4324.0000,2368.0000 4324.0000,2370.0000 4323.0000,2371.0000 L 4297.0000,2396.0000 C 4296.0000,2397.0000 4295.0000,2397.0000 4294.0000,2396.0000 C 4293.0000,2395.0000 4293.0000,2394.0000 4294.0000,2393.0000 Z M 4337.0000,2349.0000 L 4363.0000,2324.0000 C 4364.0000,2323.0000 4365.0000,2323.0000 4366.0000,2324.0000 C 4367.0000,2325.0000 4367.0000,2327.0000 4366.0000,2328.0000 L 4341.0000,2353.0000 C 4340.0000,2354.0000 4338.0000,2354.0000 4337.0000,2353.0000 C 4336.0000,2352.0000 4336.0000,2350.0000 4337.0000,2349.0000 Z M 4381.0000,2306.0000 L 4406.0000,2280.0000 C 4407.0000,2279.0000 4409.0000,2279.0000 4410.0000,2280.0000 C 4411.0000,2281.0000 4411.0000,2283.0000 4410.0000,2284.0000 L 4384.0000,2309.0000 C 4383.0000,2310.0000 4382.0000,2310.0000 4381.0000,2309.0000 C 4380.0000,2308.0000 4380.0000,2307.0000 4381.0000,2306.0000 Z M 4424.0000,2262.0000 L 4449.0000,2237.0000 C 4450.0000,2236.0000 4452.0000,2236.0000 4453.0000,2237.0000 C 4454.0000,2238.0000 4454.0000,2240.0000 4453.0000,2241.0000 L 4428.0000,2266.0000 C 4427.0000,2267.0000 4425.0000,2267.0000 4424.0000,2266.0000 C 4423.0000,2265.0000 4423.0000,2263.0000 4424.0000,2262.0000 Z M 4468.0000,2219.0000 L 4493.0000,2194.0000 C 4494.0000,2193.0000 4495.0000,2193.0000 4496.0000,2194.0000 C 4497.0000,2195.0000 4497.0000,2196.0000 4496.0000,2197.0000 L 4471.0000,2223.0000 C 4470.0000,2224.0000 4469.0000,2224.0000 4468.0000,2223.0000 C 4467.0000,2222.0000 4467.0000,2220.0000 4468.0000,2219.0000 Z M 4511.0000,2175.0000 L 4536.0000,2150.0000 C 4537.0000,2149.0000 4539.0000,2149.0000 4540.0000,2150.0000 C 4541.0000,2151.0000 4541.0000,2153.0000 4540.0000,2154.0000 L 4515.0000,2179.0000 C 4514.0000,2180.0000 4512.0000,2180.0000 4511.0000,2179.0000 C 4510.0000,2178.0000 4510.0000,2176.0000 4511.0000,2175.0000 Z M 4554.0000,2132.0000 L 4580.0000,2107.0000 C 4581.0000,2106.0000 4582.0000,2106.0000 4583.0000,2107.0000 C 4584.0000,2108.0000 4584.0000,2109.0000 4583.0000,2110.0000 L 4558.0000,2136.0000 C 4557.0000,2137.0000 4555.0000,2137.0000 4554.0000,2136.0000 C 4553.0000,2135.0000 4553.0000,2133.0000 4554.0000,2132.0000 Z M 4598.0000,2089.0000 L 4623.0000,2063.0000 C 4624.0000,2062.0000 4626.0000,2062.0000 4627.0000,2063.0000 C 4628.0000,2064.0000 4628.0000,2066.0000 4627.0000,2067.0000 L 4601.0000,2092.0000 C 4600.0000,2093.0000 4599.0000,2093.0000 4598.0000,2092.0000 C 4597.0000,2091.0000 4597.0000,2090.0000 4598.0000,2089.0000 Z M 4641.0000,2045.0000 L 4667.0000,2020.0000 C 4668.0000,2019.0000 4669.0000,2019.0000 4670.0000,2020.0000 C 4671.0000,2021.0000 4671.0000,2022.0000 4670.0000,2023.0000 L 4645.0000,2049.0000 C 4644.0000,2050.0000 4642.0000,2050.0000 4641.0000,2049.0000 C 4640.0000,2048.0000 4640.0000,2046.0000 4641.0000,2045.0000 Z M 4685.0000,2002.0000 L 4710.0000,1976.0000 C 4711.0000,1975.0000 4713.0000,1975.0000 4714.0000,1976.0000 C 4715.0000,1977.0000 4715.0000,1979.0000 4714.0000,1980.0000 L 4688.0000,2005.0000 C 4687.0000,2006.0000 4686.0000,2006.0000 4685.0000,2005.0000 C 4684.0000,2004.0000 4684.0000,2003.0000 4685.0000,2002.0000 Z M 4728.0000,1958.0000 L 4754.0000,1933.0000 C 4755.0000,1932.0000 4756.0000,1932.0000 4757.0000,1933.0000 C 4758.0000,1934.0000 4758.0000,1936.0000 4757.0000,1937.0000 L 4732.0000,1962.0000 C 4731.0000,1963.0000 4729.0000,1963.0000 4728.0000,1962.0000 C 4727.0000,1961.0000 4727.0000,1959.0000 4728.0000,1958.0000 Z M 4772.0000,1915.0000 L 4797.0000,1889.0000 C 4798.0000,1888.0000 4800.0000,1888.0000 4801.0000,1889.0000 C 4802.0000,1890.0000 4802.0000,1892.0000 4801.0000,1893.0000 L 4775.0000,1918.0000 C 4774.0000,1919.0000 4773.0000,1919.0000 4772.0000,1918.0000 C 4771.0000,1917.0000 4771.0000,1916.0000 4772.0000,1915.0000 Z M 4815.0000,1871.0000 L 4840.0000,1846.0000 C 4841.0000,1845.0000 4843.0000,1845.0000 4844.0000,1846.0000 C 4845.0000,1847.0000 4845.0000,1849.0000 4844.0000,1850.0000 L 4819.0000,1875.0000 C 4818.0000,1876.0000 4816.0000,1876.0000 4815.0000,1875.0000 C 4814.0000,1874.0000 4814.0000,1872.0000 4815.0000,1871.0000 Z M 4859.0000,1828.0000 L 4884.0000,1803.0000 C 4885.0000,1802.0000 4886.0000,1802.0000 4887.0000,1803.0000 C 4888.0000,1804.0000 4888.0000,1805.0000 4887.0000,1806.0000 L 4862.0000,1832.0000 C 4861.0000,1833.0000 4860.0000,1833.0000 4859.0000,1832.0000 C 4858.0000,1831.0000 4858.0000,1829.0000 4859.0000,1828.0000 Z M 4902.0000,1784.0000 L 4927.0000,1759.0000 C 4928.0000,1758.0000 4930.0000,1758.0000 4931.0000,1759.0000 C 4932.0000,1760.0000 4932.0000,1762.0000 4931.0000,1763.0000 L 4906.0000,1788.0000 C 4905.0000,1789.0000 4903.0000,1789.0000 4902.0000,1788.0000 C 4901.0000,1787.0000 4901.0000,1785.0000 4902.0000,1784.0000 Z M 4945.0000,1741.0000 L 4971.0000,1716.0000 C 4972.0000,1715.0000 4973.0000,1715.0000 4974.0000,1716.0000 C 4975.0000,1717.0000 4975.0000,1718.0000 4974.0000,1719.0000 L 4949.0000,1745.0000 C 4948.0000,1746.0000 4946.0000,1746.0000 4945.0000,1745.0000 C 4944.0000,1744.0000 4944.0000,1742.0000 4945.0000,1741.0000 Z M 4989.0000,1698.0000 L 5014.0000,1672.0000 C 5015.0000,1671.0000 5017.0000,1671.0000 5018.0000,1672.0000 C 5019.0000,1673.0000 5019.0000,1675.0000 5018.0000,1676.0000 L 4992.0000,1701.0000 C 4991.0000,1702.0000 4990.0000,1702.0000 4989.0000,1701.0000 C 4988.0000,1700.0000 4988.0000,1699.0000 4989.0000,1698.0000 Z M 5032.0000,1654.0000 L 5058.0000,1629.0000 C 5059.0000,1628.0000 5060.0000,1628.0000 5061.0000,1629.0000 C 5062.0000,1630.0000 5062.0000,1631.0000 5061.0000,1632.0000 L 5036.0000,1658.0000 C 5035.0000,1659.0000 5033.0000,1659.0000 5032.0000,1658.0000 C 5031.0000,1657.0000 5031.0000,1655.0000 5032.0000,1654.0000 Z M 5076.0000,1611.0000 L 5101.0000,1585.0000 C 5102.0000,1584.0000 5104.0000,1584.0000 5105.0000,1585.0000 C 5106.0000,1586.0000 5106.0000,1588.0000 5105.0000,1589.0000 L 5079.0000,1614.0000 C 5078.0000,1615.0000 5077.0000,1615.0000 5076.0000,1614.0000 C 5075.0000,1613.0000 5075.0000,1612.0000 5076.0000,1611.0000 Z M 5119.0000,1567.0000 L 5145.0000,1542.0000 C 5146.0000,1541.0000 5147.0000,1541.0000 5148.0000,1542.0000 C 5149.0000,1543.0000 5149.0000,1545.0000 5148.0000,1546.0000 L 5123.0000,1571.0000 C 5122.0000,1572.0000 5120.0000,1572.0000 5119.0000,1571.0000 C 5118.0000,1570.0000 5118.0000,1568.0000 5119.0000,1567.0000 Z M 5163.0000,1524.0000 L 5188.0000,1498.0000 C 5189.0000,1497.0000 5191.0000,1497.0000 5192.0000,1498.0000 C 5193.0000,1499.0000 5193.0000,1501.0000 5192.0000,1502.0000 L 5166.0000,1527.0000 C 5165.0000,1528.0000 5164.0000,1528.0000 5163.0000,1527.0000 C 5162.0000,1526.0000 5162.0000,1525.0000 5163.0000,1524.0000 Z M 5206.0000,1480.0000 L 5231.0000,1455.0000 C 5232.0000,1454.0000 5234.0000,1454.0000 5235.0000,1455.0000 C 5236.0000,1456.0000 5236.0000,1458.0000 5235.0000,1459.0000 L 5210.0000,1484.0000 C 5209.0000,1485.0000 5207.0000,1485.0000 5206.0000,1484.0000 C 5205.0000,1483.0000 5205.0000,1481.0000 5206.0000,1480.0000 Z M 5250.0000,1437.0000 L 5275.0000,1412.0000 C 5276.0000,1411.0000 5277.0000,1411.0000 5278.0000,1412.0000 C 5279.0000,1413.0000 5279.0000,1414.0000 5278.0000,1415.0000 L 5253.0000,1441.0000 C 5252.0000,1442.0000 5251.0000,1442.0000 5250.0000,1441.0000 C 5249.0000,1440.0000 5249.0000,1438.0000 5250.0000,1437.0000 Z M 5293.0000,1393.0000 L 5318.0000,1368.0000 C 5319.0000,1367.0000 5321.0000,1367.0000 5322.0000,1368.0000 C 5323.0000,1369.0000 5323.0000,1371.0000 5322.0000,1372.0000 L 5297.0000,1397.0000 C 5296.0000,1398.0000 5294.0000,1398.0000 5293.0000,1397.0000 C 5292.0000,1396.0000 5292.0000,1394.0000 5293.0000,1393.0000 Z M 5336.0000,1350.0000 L 5362.0000,1325.0000 C 5363.0000,1324.0000 5364.0000,1324.0000 5365.0000,1325.0000 C 5366.0000,1326.0000 5366.0000,1327.0000 5365.0000,1328.0000 L 5340.0000,1354.0000 C 5339.0000,1355.0000 5337.0000,1355.0000 5336.0000,1354.0000 C 5335.0000,1353.0000 5335.0000,1351.0000 5336.0000,1350.0000 Z M 5380.0000,1307.0000 L 5405.0000,1281.0000 C 5406.0000,1280.0000 5408.0000,1280.0000 5409.0000,1281.0000 C 5410.0000,1282.0000 5410.0000,1284.0000 5409.0000,1285.0000 L 5383.0000,1310.0000 C 5382.0000,1311.0000 5381.0000,1311.0000 5380.0000,1310.0000 C 5379.0000,1309.0000 5379.0000,1308.0000 5380.0000,1307.0000 Z M 5423.0000,1263.0000 L 5449.0000,1238.0000 C 5450.0000,1237.0000 5451.0000,1237.0000 5452.0000,1238.0000 C 5453.0000,1239.0000 5453.0000,1240.0000 5452.0000,1241.0000 L 5427.0000,1267.0000 C 5426.0000,1268.0000 5424.0000,1268.0000 5423.0000,1267.0000 C 5422.0000,1266.0000 5422.0000,1264.0000 5423.0000,1263.0000 Z M 5467.0000,1220.0000 L 5492.0000,1194.0000 C 5493.0000,1193.0000 5495.0000,1193.0000 5496.0000,1194.0000 C 5497.0000,1195.0000 5497.0000,1197.0000 5496.0000,1198.0000 L 5470.0000,1223.0000 C 5469.0000,1224.0000 5468.0000,1224.0000 5467.0000,1223.0000 C 5466.0000,1222.0000 5466.0000,1221.0000 5467.0000,1220.0000 Z M 5510.0000,1176.0000 L 5536.0000,1151.0000 C 5537.0000,1150.0000 5538.0000,1150.0000 5539.0000,1151.0000 C 5540.0000,1152.0000 5540.0000,1153.0000 5539.0000,1154.0000 L 5514.0000,1180.0000 C 5513.0000,1181.0000 5511.0000,1181.0000 5510.0000,1180.0000 C 5509.0000,1179.0000 5509.0000,1177.0000 5510.0000,1176.0000 Z M 5554.0000,1133.0000 L 5579.0000,1107.0000 C 5580.0000,1106.0000 5582.0000,1106.0000 5583.0000,1107.0000 C 5584.0000,1108.0000 5584.0000,1110.0000 5583.0000,1111.0000 L 5557.0000,1136.0000 C 5556.0000,1137.0000 5555.0000,1137.0000 5554.0000,1136.0000 C 5553.0000,1135.0000 5553.0000,1134.0000 5554.0000,1133.0000 Z M 5597.0000,1089.0000 L 5622.0000,1064.0000 C 5623.0000,1063.0000 5625.0000,1063.0000 5626.0000,1064.0000 C 5627.0000,1065.0000 5627.0000,1067.0000 5626.0000,1068.0000 L 5601.0000,1093.0000 C 5600.0000,1094.0000 5598.0000,1094.0000 5597.0000,1093.0000 C 5596.0000,1092.0000 5596.0000,1090.0000 5597.0000,1089.0000 Z M 5641.0000,1046.0000 L 5666.0000,1021.0000 C 5667.0000,1020.0000 5668.0000,1020.0000 5669.0000,1021.0000 C 5670.0000,1022.0000 5670.0000,1023.0000 5669.0000,1024.0000 L 5644.0000,1050.0000 C 5643.0000,1051.0000 5642.0000,1051.0000 5641.0000,1050.0000 C 5640.0000,1049.0000 5640.0000,1047.0000 5641.0000,1046.0000 Z M 5684.0000,1002.0000 L 5709.0000,977.0000 C 5710.0000,976.0000 5712.0000,976.0000 5713.0000,977.0000 C 5714.0000,978.0000 5714.0000,980.0000 5713.0000,981.0000 L 5688.0000,1006.0000 C 5687.0000,1007.0000 5685.0000,1007.0000 5684.0000,1006.0000 C 5683.0000,1005.0000 5683.0000,1003.0000 5684.0000,1002.0000 Z M 5727.0000,959.0000 L 5753.0000,934.0000 C 5754.0000,933.0000 5755.0000,933.0000 5756.0000,934.0000 C 5757.0000,935.0000 5757.0000,936.0000 5756.0000,937.0000 L 5731.0000,963.0000 C 5730.0000,964.0000 5728.0000,964.0000 5727.0000,963.0000 C 5726.0000,962.0000 5726.0000,960.0000 5727.0000,959.0000 Z M 5771.0000,916.0000 L 5796.0000,890.0000 C 5797.0000,889.0000 5799.0000,889.0000 5800.0000,890.0000 C 5801.0000,891.0000 5801.0000,893.0000 5800.0000,894.0000 L 5774.0000,919.0000 C 5773.0000,920.0000 5772.0000,920.0000 5771.0000,919.0000 C 5770.0000,918.0000 5770.0000,917.0000 5771.0000,916.0000 Z M 5814.0000,872.0000 L 5840.0000,847.0000 C 5841.0000,846.0000 5842.0000,846.0000 5843.0000,847.0000 C 5844.0000,848.0000 5844.0000,849.0000 5843.0000,850.0000 L 5818.0000,876.0000 C 5817.0000,877.0000 5815.0000,877.0000 5814.0000,876.0000 C 5813.0000,875.0000 5813.0000,873.0000 5814.0000,872.0000 Z M 5858.0000,829.0000 L 5883.0000,803.0000 C 5884.0000,802.0000 5886.0000,802.0000 5887.0000,803.0000 C 5888.0000,804.0000 5888.0000,806.0000 5887.0000,807.0000 L 5861.0000,832.0000 C 5860.0000,833.0000 5859.0000,833.0000 5858.0000,832.0000 C 5857.0000,831.0000 5857.0000,830.0000 5858.0000,829.0000 Z M 5901.0000,785.0000 L 5927.0000,760.0000 C 5928.0000,759.0000 5929.0000,759.0000 5930.0000,760.0000 C 5931.0000,761.0000 5931.0000,762.0000 5930.0000,763.0000 L 5905.0000,789.0000 C 5904.0000,790.0000 5902.0000,790.0000 5901.0000,789.0000 C 5900.0000,788.0000 5900.0000,786.0000 5901.0000,785.0000 Z M 5945.0000,742.0000 L 5970.0000,716.0000 C 5971.0000,715.0000 5973.0000,715.0000 5974.0000,716.0000 C 5975.0000,717.0000 5975.0000,719.0000 5974.0000,720.0000 L 5948.0000,745.0000 C 5947.0000,746.0000 5946.0000,746.0000 5945.0000,745.0000 C 5944.0000,744.0000 5944.0000,743.0000 5945.0000,742.0000 Z M 5988.0000,698.0000 L 6013.0000,673.0000 C 6014.0000,672.0000 6016.0000,672.0000 6017.0000,673.0000 C 6018.0000,674.0000 6018.0000,676.0000 6017.0000,677.0000 L 5992.0000,702.0000 C 5991.0000,703.0000 5989.0000,703.0000 5988.0000,702.0000 C 5987.0000,701.0000 5987.0000,699.0000 5988.0000,698.0000 Z M 6032.0000,655.0000 L 6057.0000,630.0000 C 6058.0000,629.0000 6059.0000,629.0000 6060.0000,630.0000 C 6061.0000,631.0000 6061.0000,632.0000 6060.0000,633.0000 L 6035.0000,659.0000 C 6034.0000,660.0000 6033.0000,660.0000 6032.0000,659.0000 C 6031.0000,658.0000 6031.0000,656.0000 6032.0000,655.0000 Z "  fill="#000000" stroke="#000000" stroke-width="1.0000"  stroke-linecap="butt"  stroke-linejoin="round" />
</g>
<g transform="matrix(1.0000 0.0000 0.0000 1.0000 0.0000 0.0000)">
</g>
<g transform="matrix(0.0625 0.0000 0.0000 0.0625 0.0000 0.0000)">
<path d="M 7880.0000,19.0000 L 7880.0000,624.0000 L 9695.0000,624.0000 L 9695.0000,19.0000 L 7880.0000,19.0000 Z" stroke-width="1px" stroke="#FFFFFF"  fill="#FFFFFF" />
</g>
<g transform="matrix(1.0000 0.0000 0.0000 1.0000 0.0000 0.0000)">
<defs><clipPath id="clip-424238335"><path d="M 0.0000,0.0000 L 1004.0000,0.0000 L 1004.0000,192.0000 L 0.0000,192.0000 L 0.0000,0.0000 Z Z" /></clipPath></defs>
</g>
<g transform="matrix(0.0625 0.0000 0.0000 0.0625 0.0000 0.0000)">
<path  clip-path="url(#clip-424238335)" d="M 7880.0000,624.0000 L 9695.0000,624.0000 L 9695.0000,19.0000 L 7880.0000,19.0000 L 7880.0000,624.0000 Z" stroke="#000000" stroke-width="5.0000"  stroke-linecap="round"  stroke-linejoin="round" fill="none" />
</g>
<g transform="matrix(1.0000 0.0000 0.0000 1.0000 0.0000 0.0000)">
</g>
<g transform="matrix(1.0000 0.0000 0.0000 1.0000 515.3499 24.1578)">
<text font-family="Arial" fill="#000000" style ="white-space:pre;" font-weight="400" text-anchor="start" x="0.0000" y="0.0000" font-size="12.0000" ><![CDATA[successRAR]]></text>
</g>
<g transform="matrix(0.0625 0.0000 0.0000 0.0625 0.0000 0.0000)">
<path d="M 1831.0000,2438.0000 L 1831.0000,2402.0000 C 1831.0000,2401.0000 1832.0000,2400.0000 1833.0000,2400.0000 C 1835.0000,2400.0000 1836.0000,2401.0000 1836.0000,2402.0000 L 1836.0000,2438.0000 C 1836.0000,2439.0000 1835.0000,2440.0000 1833.0000,2440.0000 C 1832.0000,2440.0000 1831.0000,2439.0000 1831.0000,2438.0000 Z M 1831.0000,2376.0000 L 1831.0000,2341.0000 C 1831.0000,2339.0000 1832.0000,2338.0000 1833.0000,2338.0000 C 1835.0000,2338.0000 1836.0000,2339.0000 1836.0000,2341.0000 L 1836.0000,2376.0000 C 1836.0000,2378.0000 1835.0000,2379.0000 1833.0000,2379.0000 C 1832.0000,2379.0000 1831.0000,2378.0000 1831.0000,2376.0000 Z M 1831.0000,2315.0000 L 1831.0000,2279.0000 C 1831.0000,2278.0000 1832.0000,2277.0000 1833.0000,2277.0000 C 1835.0000,2277.0000 1836.0000,2278.0000 1836.0000,2279.0000 L 1836.0000,2315.0000 C 1836.0000,2316.0000 1835.0000,2318.0000 1833.0000,2318.0000 C 1832.0000,2318.0000 1831.0000,2316.0000 1831.0000,2315.0000 Z M 1831.0000,2254.0000 L 1831.0000,2218.0000 C 1831.0000,2216.0000 1832.0000,2215.0000 1833.0000,2215.0000 C 1835.0000,2215.0000 1836.0000,2216.0000 1836.0000,2218.0000 L 1836.0000,2254.0000 C 1836.0000,2255.0000 1835.0000,2256.0000 1833.0000,2256.0000 C 1832.0000,2256.0000 1831.0000,2255.0000 1831.0000,2254.0000 Z M 1831.0000,2192.0000 L 1831.0000,2156.0000 C 1831.0000,2155.0000 1832.0000,2154.0000 1833.0000,2154.0000 C 1835.0000,2154.0000 1836.0000,2155.0000 1836.0000,2156.0000 L 1836.0000,2192.0000 C 1836.0000,2194.0000 1835.0000,2195.0000 1833.0000,2195.0000 C 1832.0000,2195.0000 1831.0000,2194.0000 1831.0000,2192.0000 Z M 1831.0000,2131.0000 L 1831.0000,2095.0000 C 1831.0000,2093.0000 1832.0000,2092.0000 1833.0000,2092.0000 C 1835.0000,2092.0000 1836.0000,2093.0000 1836.0000,2095.0000 L 1836.0000,2131.0000 C 1836.0000,2132.0000 1835.0000,2133.0000 1833.0000,2133.0000 C 1832.0000,2133.0000 1831.0000,2132.0000 1831.0000,2131.0000 Z M 1831.0000,2069.0000 L 1831.0000,2033.0000 C 1831.0000,2032.0000 1832.0000,2031.0000 1833.0000,2031.0000 C 1835.0000,2031.0000 1836.0000,2032.0000 1836.0000,2033.0000 L 1836.0000,2069.0000 C 1836.0000,2071.0000 1835.0000,2072.0000 1833.0000,2072.0000 C 1832.0000,2072.0000 1831.0000,2071.0000 1831.0000,2069.0000 Z M 1831.0000,2008.0000 L 1831.0000,1972.0000 C 1831.0000,1971.0000 1832.0000,1969.0000 1833.0000,1969.0000 C 1835.0000,1969.0000 1836.0000,1971.0000 1836.0000,1972.0000 L 1836.0000,2008.0000 C 1836.0000,2009.0000 1835.0000,2010.0000 1833.0000,2010.0000 C 1832.0000,2010.0000 1831.0000,2009.0000 1831.0000,2008.0000 Z M 1831.0000,1946.0000 L 1831.0000,1911.0000 C 1831.0000,1909.0000 1832.0000,1908.0000 1833.0000,1908.0000 C 1835.0000,1908.0000 1836.0000,1909.0000 1836.0000,1911.0000 L 1836.0000,1946.0000 C 1836.0000,1948.0000 1835.0000,1949.0000 1833.0000,1949.0000 C 1832.0000,1949.0000 1831.0000,1948.0000 1831.0000,1946.0000 Z M 1831.0000,1885.0000 L 1831.0000,1849.0000 C 1831.0000,1848.0000 1832.0000,1847.0000 1833.0000,1847.0000 C 1835.0000,1847.0000 1836.0000,1848.0000 1836.0000,1849.0000 L 1836.0000,1885.0000 C 1836.0000,1886.0000 1835.0000,1888.0000 1833.0000,1888.0000 C 1832.0000,1888.0000 1831.0000,1886.0000 1831.0000,1885.0000 Z M 1831.0000,1824.0000 L 1831.0000,1788.0000 C 1831.0000,1786.0000 1832.0000,1785.0000 1833.0000,1785.0000 C 1835.0000,1785.0000 1836.0000,1786.0000 1836.0000,1788.0000 L 1836.0000,1824.0000 C 1836.0000,1825.0000 1835.0000,1826.0000 1833.0000,1826.0000 C 1832.0000,1826.0000 1831.0000,1825.0000 1831.0000,1824.0000 Z M 1831.0000,1762.0000 L 1831.0000,1726.0000 C 1831.0000,1725.0000 1832.0000,1724.0000 1833.0000,1724.0000 C 1835.0000,1724.0000 1836.0000,1725.0000 1836.0000,1726.0000 L 1836.0000,1762.0000 C 1836.0000,1764.0000 1835.0000,1765.0000 1833.0000,1765.0000 C 1832.0000,1765.0000 1831.0000,1764.0000 1831.0000,1762.0000 Z M 1831.0000,1701.0000 L 1831.0000,1665.0000 C 1831.0000,1663.0000 1832.0000,1662.0000 1833.0000,1662.0000 C 1835.0000,1662.0000 1836.0000,1663.0000 1836.0000,1665.0000 L 1836.0000,1701.0000 C 1836.0000,1702.0000 1835.0000,1703.0000 1833.0000,1703.0000 C 1832.0000,1703.0000 1831.0000,1702.0000 1831.0000,1701.0000 Z M 1831.0000,1639.0000 L 1831.0000,1603.0000 C 1831.0000,1602.0000 1832.0000,1601.0000 1833.0000,1601.0000 C 1835.0000,1601.0000 1836.0000,1602.0000 1836.0000,1603.0000 L 1836.0000,1639.0000 C 1836.0000,1641.0000 1835.0000,1642.0000 1833.0000,1642.0000 C 1832.0000,1642.0000 1831.0000,1641.0000 1831.0000,1639.0000 Z M 1831.0000,1578.0000 L 1831.0000,1542.0000 C 1831.0000,1541.0000 1832.0000,1539.0000 1833.0000,1539.0000 C 1835.0000,1539.0000 1836.0000,1541.0000 1836.0000,1542.0000 L 1836.0000,1578.0000 C 1836.0000,1579.0000 1835.0000,1580.0000 1833.0000,1580.0000 C 1832.0000,1580.0000 1831.0000,1579.0000 1831.0000,1578.0000 Z M 1831.0000,1516.0000 L 1831.0000,1480.0000 C 1831.0000,1479.0000 1832.0000,1478.0000 1833.0000,1478.0000 C 1835.0000,1478.0000 1836.0000,1479.0000 1836.0000,1480.0000 L 1836.0000,1516.0000 C 1836.0000,1518.0000 1835.0000,1519.0000 1833.0000,1519.0000 C 1832.0000,1519.0000 1831.0000,1518.0000 1831.0000,1516.0000 Z M 1831.0000,1455.0000 L 1831.0000,1419.0000 C 1831.0000,1418.0000 1832.0000,1416.0000 1833.0000,1416.0000 C 1835.0000,1416.0000 1836.0000,1418.0000 1836.0000,1419.0000 L 1836.0000,1455.0000 C 1836.0000,1456.0000 1835.0000,1457.0000 1833.0000,1457.0000 C 1832.0000,1457.0000 1831.0000,1456.0000 1831.0000,1455.0000 Z M 1831.0000,1393.0000 L 1831.0000,1358.0000 C 1831.0000,1356.0000 1832.0000,1355.0000 1833.0000,1355.0000 C 1835.0000,1355.0000 1836.0000,1356.0000 1836.0000,1358.0000 L 1836.0000,1393.0000 C 1836.0000,1395.0000 1835.0000,1396.0000 1833.0000,1396.0000 C 1832.0000,1396.0000 1831.0000,1395.0000 1831.0000,1393.0000 Z M 1831.0000,1332.0000 L 1831.0000,1296.0000 C 1831.0000,1295.0000 1832.0000,1294.0000 1833.0000,1294.0000 C 1835.0000,1294.0000 1836.0000,1295.0000 1836.0000,1296.0000 L 1836.0000,1332.0000 C 1836.0000,1333.0000 1835.0000,1335.0000 1833.0000,1335.0000 C 1832.0000,1335.0000 1831.0000,1333.0000 1831.0000,1332.0000 Z M 1831.0000,1271.0000 L 1831.0000,1235.0000 C 1831.0000,1233.0000 1832.0000,1232.0000 1833.0000,1232.0000 C 1835.0000,1232.0000 1836.0000,1233.0000 1836.0000,1235.0000 L 1836.0000,1271.0000 C 1836.0000,1272.0000 1835.0000,1273.0000 1833.0000,1273.0000 C 1832.0000,1273.0000 1831.0000,1272.0000 1831.0000,1271.0000 Z M 1831.0000,1209.0000 L 1831.0000,1173.0000 C 1831.0000,1172.0000 1832.0000,1171.0000 1833.0000,1171.0000 C 1835.0000,1171.0000 1836.0000,1172.0000 1836.0000,1173.0000 L 1836.0000,1209.0000 C 1836.0000,1211.0000 1835.0000,1212.0000 1833.0000,1212.0000 C 1832.0000,1212.0000 1831.0000,1211.0000 1831.0000,1209.0000 Z M 1831.0000,1148.0000 L 1831.0000,1112.0000 C 1831.0000,1110.0000 1832.0000,1109.0000 1833.0000,1109.0000 C 1835.0000,1109.0000 1836.0000,1110.0000 1836.0000,1112.0000 L 1836.0000,1148.0000 C 1836.0000,1149.0000 1835.0000,1150.0000 1833.0000,1150.0000 C 1832.0000,1150.0000 1831.0000,1149.0000 1831.0000,1148.0000 Z M 1831.0000,1086.0000 L 1831.0000,1050.0000 C 1831.0000,1049.0000 1832.0000,1048.0000 1833.0000,1048.0000 C 1835.0000,1048.0000 1836.0000,1049.0000 1836.0000,1050.0000 L 1836.0000,1086.0000 C 1836.0000,1088.0000 1835.0000,1089.0000 1833.0000,1089.0000 C 1832.0000,1089.0000 1831.0000,1088.0000 1831.0000,1086.0000 Z M 1831.0000,1025.0000 L 1831.0000,989.0000 C 1831.0000,988.0000 1832.0000,986.0000 1833.0000,986.0000 C 1835.0000,986.0000 1836.0000,988.0000 1836.0000,989.0000 L 1836.0000,1025.0000 C 1836.0000,1026.0000 1835.0000,1027.0000 1833.0000,1027.0000 C 1832.0000,1027.0000 1831.0000,1026.0000 1831.0000,1025.0000 Z M 1831.0000,963.0000 L 1831.0000,928.0000 C 1831.0000,926.0000 1832.0000,925.0000 1833.0000,925.0000 C 1835.0000,925.0000 1836.0000,926.0000 1836.0000,928.0000 L 1836.0000,963.0000 C 1836.0000,965.0000 1835.0000,966.0000 1833.0000,966.0000 C 1832.0000,966.0000 1831.0000,965.0000 1831.0000,963.0000 Z M 1831.0000,902.0000 L 1831.0000,866.0000 C 1831.0000,865.0000 1832.0000,864.0000 1833.0000,864.0000 C 1835.0000,864.0000 1836.0000,865.0000 1836.0000,866.0000 L 1836.0000,902.0000 C 1836.0000,903.0000 1835.0000,904.0000 1833.0000,904.0000 C 1832.0000,904.0000 1831.0000,903.0000 1831.0000,902.0000 Z M 1831.0000,840.0000 L 1831.0000,805.0000 C 1831.0000,803.0000 1832.0000,802.0000 1833.0000,802.0000 C 1835.0000,802.0000 1836.0000,803.0000 1836.0000,805.0000 L 1836.0000,840.0000 C 1836.0000,842.0000 1835.0000,843.0000 1833.0000,843.0000 C 1832.0000,843.0000 1831.0000,842.0000 1831.0000,840.0000 Z M 1831.0000,779.0000 L 1831.0000,743.0000 C 1831.0000,742.0000 1832.0000,741.0000 1833.0000,741.0000 C 1835.0000,741.0000 1836.0000,742.0000 1836.0000,743.0000 L 1836.0000,779.0000 C 1836.0000,780.0000 1835.0000,782.0000 1833.0000,782.0000 C 1832.0000,782.0000 1831.0000,780.0000 1831.0000,779.0000 Z M 1831.0000,718.0000 L 1831.0000,682.0000 C 1831.0000,680.0000 1832.0000,679.0000 1833.0000,679.0000 C 1835.0000,679.0000 1836.0000,680.0000 1836.0000,682.0000 L 1836.0000,718.0000 C 1836.0000,719.0000 1835.0000,720.0000 1833.0000,720.0000 C 1832.0000,720.0000 1831.0000,719.0000 1831.0000,718.0000 Z M 1831.0000,656.0000 L 1831.0000,624.0000 C 1831.0000,622.0000 1832.0000,621.0000 1833.0000,621.0000 C 1835.0000,621.0000 1836.0000,622.0000 1836.0000,624.0000 L 1836.0000,656.0000 C 1836.0000,658.0000 1835.0000,659.0000 1833.0000,659.0000 C 1832.0000,659.0000 1831.0000,658.0000 1831.0000,656.0000 Z "  fill="#000000" stroke="#000000" stroke-width="1.0000"  stroke-linecap="butt"  stroke-linejoin="round" />
</g>
<g transform="matrix(1.0000 0.0000 0.0000 1.0000 0.0000 0.0000)">
</g>
<g transform="matrix(0.0625 0.0000 0.0000 0.0625 0.0000 0.0000)">
<path d="M 4252.0000,2438.0000 L 4252.0000,3043.0000 L 6671.0000,3043.0000 L 6671.0000,2438.0000 L 4252.0000,2438.0000 Z" stroke-width="1px" stroke="#FFFFFF"  fill="#FFFFFF" />
</g>
<g transform="matrix(1.0000 0.0000 0.0000 1.0000 0.0000 0.0000)">
<defs><clipPath id="clip-719885386"><path d="M 0.0000,0.0000 L 1004.0000,0.0000 L 1004.0000,192.0000 L 0.0000,192.0000 L 0.0000,0.0000 Z Z" /></clipPath></defs>
</g>
<g transform="matrix(0.0625 0.0000 0.0000 0.0625 0.0000 0.0000)">
<path  clip-path="url(#clip-719885386)" d="M 4252.0000,3043.0000 L 6671.0000,3043.0000 L 6671.0000,2438.0000 L 4252.0000,2438.0000 L 4252.0000,3043.0000 Z" stroke="#000000" stroke-width="5.0000"  stroke-linecap="round"  stroke-linejoin="round" fill="none" />
</g>
<g transform="matrix(1.0000 0.0000 0.0000 1.0000 0.0000 0.0000)">
</g>
<g transform="matrix(1.0000 0.0000 0.0000 1.0000 300.3263 167.7389)">
<text font-family="Arial" fill="#000000" style ="white-space:pre;" font-weight="400" text-anchor="start" x="0.0000" y="0.0000" font-size="13.0000" ><![CDATA[MAC subPDU]]></text>
</g>
<g transform="matrix(1.0000 0.0000 0.0000 1.0000 299.2196 183.7387)">
<text font-family="Arial" fill="#000000" style ="white-space:pre;" font-weight="400" text-anchor="start" x="0.0000" y="0.0000" font-size="13.0000" ><![CDATA[(]]></text>
</g>
<g transform="matrix(1.0000 0.0000 0.0000 1.0000 303.6595 183.7387)">
<text font-family="Arial" fill="#000000" style ="white-space:pre;" font-weight="400" text-anchor="start" x="0.0000" y="0.0000" font-size="13.0000" ><![CDATA[successRAR]]></text>
</g>
<g transform="matrix(1.0000 0.0000 0.0000 1.0000 379.9757 183.7387)">
<text font-family="Arial" fill="#000000" style ="white-space:pre;" font-weight="400" text-anchor="start" x="0.0000" y="0.0000" font-size="13.0000" ><![CDATA[)]]></text>
</g>
<g transform="matrix(0.0625 0.0000 0.0000 0.0625 0.0000 0.0000)">
<path d="M 6670.0000,2436.0000 L 6700.0000,2417.0000 C 6702.0000,2417.0000 6703.0000,2417.0000 6704.0000,2418.0000 C 6705.0000,2419.0000 6704.0000,2421.0000 6703.0000,2422.0000 L 6672.0000,2440.0000 C 6671.0000,2441.0000 6670.0000,2440.0000 6669.0000,2439.0000 C 6668.0000,2438.0000 6668.0000,2436.0000 6670.0000,2436.0000 Z M 6722.0000,2404.0000 L 6753.0000,2386.0000 C 6754.0000,2385.0000 6756.0000,2385.0000 6757.0000,2387.0000 C 6757.0000,2388.0000 6757.0000,2389.0000 6756.0000,2390.0000 L 6725.0000,2409.0000 C 6724.0000,2409.0000 6722.0000,2409.0000 6721.0000,2408.0000 C 6721.0000,2406.0000 6721.0000,2405.0000 6722.0000,2404.0000 Z M 6775.0000,2373.0000 L 6806.0000,2354.0000 C 6807.0000,2353.0000 6809.0000,2354.0000 6809.0000,2355.0000 C 6810.0000,2356.0000 6810.0000,2358.0000 6808.0000,2358.0000 L 6778.0000,2377.0000 C 6776.0000,2378.0000 6775.0000,2377.0000 6774.0000,2376.0000 C 6773.0000,2375.0000 6774.0000,2373.0000 6775.0000,2373.0000 Z M 6828.0000,2341.0000 L 6858.0000,2322.0000 C 6860.0000,2322.0000 6861.0000,2322.0000 6862.0000,2323.0000 C 6863.0000,2325.0000 6862.0000,2326.0000 6861.0000,2327.0000 L 6830.0000,2345.0000 C 6829.0000,2346.0000 6828.0000,2346.0000 6827.0000,2344.0000 C 6826.0000,2343.0000 6827.0000,2342.0000 6828.0000,2341.0000 Z M 6880.0000,2309.0000 L 6911.0000,2291.0000 C 6912.0000,2290.0000 6914.0000,2291.0000 6915.0000,2292.0000 C 6915.0000,2293.0000 6915.0000,2295.0000 6914.0000,2295.0000 L 6883.0000,2314.0000 C 6882.0000,2314.0000 6880.0000,2314.0000 6880.0000,2313.0000 C 6879.0000,2312.0000 6879.0000,2310.0000 6880.0000,2309.0000 Z M 6933.0000,2278.0000 L 6964.0000,2259.0000 C 6965.0000,2259.0000 6967.0000,2259.0000 6967.0000,2260.0000 C 6968.0000,2261.0000 6968.0000,2263.0000 6966.0000,2264.0000 L 6936.0000,2282.0000 C 6935.0000,2283.0000 6933.0000,2282.0000 6932.0000,2281.0000 C 6931.0000,2280.0000 6932.0000,2278.0000 6933.0000,2278.0000 Z M 6986.0000,2246.0000 L 7017.0000,2228.0000 C 7018.0000,2227.0000 7019.0000,2227.0000 7020.0000,2229.0000 C 7021.0000,2230.0000 7020.0000,2231.0000 7019.0000,2232.0000 L 6988.0000,2250.0000 C 6987.0000,2251.0000 6986.0000,2251.0000 6985.0000,2250.0000 C 6984.0000,2248.0000 6985.0000,2247.0000 6986.0000,2246.0000 Z M 7038.0000,2214.0000 L 7069.0000,2196.0000 C 7070.0000,2195.0000 7072.0000,2196.0000 7073.0000,2197.0000 C 7073.0000,2198.0000 7073.0000,2200.0000 7072.0000,2200.0000 L 7041.0000,2219.0000 C 7040.0000,2220.0000 7038.0000,2219.0000 7038.0000,2218.0000 C 7037.0000,2217.0000 7037.0000,2215.0000 7038.0000,2214.0000 Z M 7091.0000,2183.0000 L 7122.0000,2164.0000 C 7123.0000,2164.0000 7125.0000,2164.0000 7125.0000,2165.0000 C 7126.0000,2166.0000 7126.0000,2168.0000 7125.0000,2169.0000 L 7094.0000,2187.0000 C 7093.0000,2188.0000 7091.0000,2188.0000 7090.0000,2186.0000 C 7090.0000,2185.0000 7090.0000,2184.0000 7091.0000,2183.0000 Z M 7144.0000,2151.0000 L 7175.0000,2133.0000 C 7176.0000,2132.0000 7177.0000,2132.0000 7178.0000,2134.0000 C 7179.0000,2135.0000 7178.0000,2136.0000 7177.0000,2137.0000 L 7146.0000,2156.0000 C 7145.0000,2156.0000 7144.0000,2156.0000 7143.0000,2155.0000 C 7142.0000,2154.0000 7143.0000,2152.0000 7144.0000,2151.0000 Z M 7197.0000,2120.0000 L 7227.0000,2101.0000 C 7228.0000,2100.0000 7230.0000,2101.0000 7231.0000,2102.0000 C 7231.0000,2103.0000 7231.0000,2105.0000 7230.0000,2106.0000 L 7199.0000,2124.0000 C 7198.0000,2125.0000 7196.0000,2124.0000 7196.0000,2123.0000 C 7195.0000,2122.0000 7195.0000,2120.0000 7197.0000,2120.0000 Z M 7249.0000,2088.0000 L 7280.0000,2070.0000 C 7281.0000,2069.0000 7283.0000,2069.0000 7283.0000,2070.0000 C 7284.0000,2072.0000 7284.0000,2073.0000 7283.0000,2074.0000 L 7252.0000,2092.0000 C 7251.0000,2093.0000 7249.0000,2093.0000 7248.0000,2092.0000 C 7248.0000,2090.0000 7248.0000,2089.0000 7249.0000,2088.0000 Z M 7302.0000,2056.0000 L 7333.0000,2038.0000 C 7334.0000,2037.0000 7335.0000,2038.0000 7336.0000,2039.0000 C 7337.0000,2040.0000 7336.0000,2042.0000 7335.0000,2042.0000 L 7305.0000,2061.0000 C 7303.0000,2062.0000 7302.0000,2061.0000 7301.0000,2060.0000 C 7300.0000,2059.0000 7301.0000,2057.0000 7302.0000,2056.0000 Z M 7355.0000,2025.0000 L 7385.0000,2006.0000 C 7387.0000,2006.0000 7388.0000,2006.0000 7389.0000,2007.0000 C 7390.0000,2008.0000 7389.0000,2010.0000 7388.0000,2011.0000 L 7357.0000,2029.0000 C 7356.0000,2030.0000 7354.0000,2030.0000 7354.0000,2028.0000 C 7353.0000,2027.0000 7353.0000,2026.0000 7355.0000,2025.0000 Z M 7407.0000,1993.0000 L 7438.0000,1975.0000 C 7439.0000,1974.0000 7441.0000,1974.0000 7442.0000,1976.0000 C 7442.0000,1977.0000 7442.0000,1978.0000 7441.0000,1979.0000 L 7410.0000,1998.0000 C 7409.0000,1998.0000 7407.0000,1998.0000 7406.0000,1997.0000 C 7406.0000,1995.0000 7406.0000,1994.0000 7407.0000,1993.0000 Z M 7460.0000,1962.0000 L 7491.0000,1943.0000 C 7492.0000,1942.0000 7493.0000,1943.0000 7494.0000,1944.0000 C 7495.0000,1945.0000 7495.0000,1947.0000 7493.0000,1948.0000 L 7463.0000,1966.0000 C 7461.0000,1967.0000 7460.0000,1966.0000 7459.0000,1965.0000 C 7458.0000,1964.0000 7459.0000,1962.0000 7460.0000,1962.0000 Z M 7513.0000,1930.0000 L 7543.0000,1912.0000 C 7545.0000,1911.0000 7546.0000,1911.0000 7547.0000,1912.0000 C 7548.0000,1914.0000 7547.0000,1915.0000 7546.0000,1916.0000 L 7515.0000,1934.0000 C 7514.0000,1935.0000 7512.0000,1935.0000 7512.0000,1933.0000 C 7511.0000,1932.0000 7511.0000,1931.0000 7513.0000,1930.0000 Z M 7565.0000,1898.0000 L 7596.0000,1880.0000 C 7597.0000,1879.0000 7599.0000,1880.0000 7600.0000,1881.0000 C 7600.0000,1882.0000 7600.0000,1884.0000 7599.0000,1884.0000 L 7568.0000,1903.0000 C 7567.0000,1903.0000 7565.0000,1903.0000 7564.0000,1902.0000 C 7564.0000,1901.0000 7564.0000,1899.0000 7565.0000,1898.0000 Z M 7618.0000,1867.0000 L 7649.0000,1848.0000 C 7650.0000,1848.0000 7652.0000,1848.0000 7652.0000,1849.0000 C 7653.0000,1850.0000 7653.0000,1852.0000 7651.0000,1853.0000 L 7621.0000,1871.0000 C 7619.0000,1872.0000 7618.0000,1871.0000 7617.0000,1870.0000 C 7616.0000,1869.0000 7617.0000,1867.0000 7618.0000,1867.0000 Z M 7671.0000,1835.0000 L 7701.0000,1817.0000 C 7703.0000,1816.0000 7704.0000,1816.0000 7705.0000,1818.0000 C 7706.0000,1819.0000 7705.0000,1820.0000 7704.0000,1821.0000 L 7673.0000,1840.0000 C 7672.0000,1840.0000 7671.0000,1840.0000 7670.0000,1839.0000 C 7669.0000,1837.0000 7669.0000,1836.0000 7671.0000,1835.0000 Z M 7723.0000,1804.0000 L 7754.0000,1785.0000 C 7755.0000,1784.0000 7757.0000,1785.0000 7758.0000,1786.0000 C 7758.0000,1787.0000 7758.0000,1789.0000 7757.0000,1789.0000 L 7726.0000,1808.0000 C 7725.0000,1809.0000 7723.0000,1808.0000 7722.0000,1807.0000 C 7722.0000,1806.0000 7722.0000,1804.0000 7723.0000,1804.0000 Z M 7776.0000,1772.0000 L 7807.0000,1753.0000 C 7808.0000,1753.0000 7810.0000,1753.0000 7810.0000,1754.0000 C 7811.0000,1756.0000 7811.0000,1757.0000 7809.0000,1758.0000 L 7779.0000,1776.0000 C 7777.0000,1777.0000 7776.0000,1777.0000 7775.0000,1775.0000 C 7774.0000,1774.0000 7775.0000,1773.0000 7776.0000,1772.0000 Z M 7829.0000,1740.0000 L 7859.0000,1722.0000 C 7861.0000,1721.0000 7862.0000,1722.0000 7863.0000,1723.0000 C 7864.0000,1724.0000 7863.0000,1726.0000 7862.0000,1726.0000 L 7831.0000,1745.0000 C 7830.0000,1745.0000 7829.0000,1745.0000 7828.0000,1744.0000 C 7827.0000,1743.0000 7828.0000,1741.0000 7829.0000,1740.0000 Z M 7881.0000,1709.0000 L 7912.0000,1690.0000 C 7913.0000,1690.0000 7915.0000,1690.0000 7916.0000,1691.0000 C 7916.0000,1692.0000 7916.0000,1694.0000 7915.0000,1695.0000 L 7884.0000,1713.0000 C 7883.0000,1714.0000 7881.0000,1713.0000 7881.0000,1712.0000 C 7880.0000,1711.0000 7880.0000,1709.0000 7881.0000,1709.0000 Z M 7934.0000,1677.0000 L 7965.0000,1659.0000 C 7966.0000,1658.0000 7968.0000,1658.0000 7968.0000,1660.0000 C 7969.0000,1661.0000 7969.0000,1662.0000 7967.0000,1663.0000 L 7937.0000,1681.0000 C 7936.0000,1682.0000 7934.0000,1682.0000 7933.0000,1681.0000 C 7932.0000,1679.0000 7933.0000,1678.0000 7934.0000,1677.0000 Z M 7987.0000,1645.0000 L 8018.0000,1627.0000 C 8019.0000,1626.0000 8020.0000,1627.0000 8021.0000,1628.0000 C 8022.0000,1629.0000 8021.0000,1631.0000 8020.0000,1631.0000 L 7989.0000,1650.0000 C 7988.0000,1651.0000 7987.0000,1650.0000 7986.0000,1649.0000 C 7985.0000,1648.0000 7986.0000,1646.0000 7987.0000,1645.0000 Z M 8039.0000,1614.0000 L 8070.0000,1595.0000 C 8071.0000,1595.0000 8073.0000,1595.0000 8074.0000,1596.0000 C 8074.0000,1598.0000 8074.0000,1599.0000 8073.0000,1600.0000 L 8042.0000,1618.0000 C 8041.0000,1619.0000 8039.0000,1619.0000 8039.0000,1617.0000 C 8038.0000,1616.0000 8038.0000,1615.0000 8039.0000,1614.0000 Z M 8092.0000,1582.0000 L 8123.0000,1564.0000 C 8124.0000,1563.0000 8126.0000,1563.0000 8126.0000,1565.0000 C 8127.0000,1566.0000 8127.0000,1567.0000 8126.0000,1568.0000 L 8095.0000,1587.0000 C 8094.0000,1587.0000 8092.0000,1587.0000 8091.0000,1586.0000 C 8091.0000,1585.0000 8091.0000,1583.0000 8092.0000,1582.0000 Z M 8145.0000,1551.0000 L 8176.0000,1532.0000 C 8177.0000,1531.0000 8178.0000,1532.0000 8179.0000,1533.0000 C 8180.0000,1534.0000 8179.0000,1536.0000 8178.0000,1537.0000 L 8147.0000,1555.0000 C 8146.0000,1556.0000 8145.0000,1555.0000 8144.0000,1554.0000 C 8143.0000,1553.0000 8144.0000,1551.0000 8145.0000,1551.0000 Z M 8198.0000,1519.0000 L 8228.0000,1501.0000 C 8229.0000,1500.0000 8231.0000,1500.0000 8232.0000,1501.0000 C 8232.0000,1503.0000 8232.0000,1504.0000 8231.0000,1505.0000 L 8200.0000,1523.0000 C 8199.0000,1524.0000 8197.0000,1524.0000 8197.0000,1523.0000 C 8196.0000,1521.0000 8196.0000,1520.0000 8198.0000,1519.0000 Z M 8250.0000,1487.0000 L 8281.0000,1469.0000 C 8282.0000,1468.0000 8284.0000,1469.0000 8284.0000,1470.0000 C 8285.0000,1471.0000 8285.0000,1473.0000 8284.0000,1473.0000 L 8253.0000,1492.0000 C 8252.0000,1493.0000 8250.0000,1492.0000 8249.0000,1491.0000 C 8249.0000,1490.0000 8249.0000,1488.0000 8250.0000,1487.0000 Z M 8303.0000,1456.0000 L 8334.0000,1437.0000 C 8335.0000,1437.0000 8336.0000,1437.0000 8337.0000,1438.0000 C 8338.0000,1439.0000 8337.0000,1441.0000 8336.0000,1442.0000 L 8306.0000,1460.0000 C 8304.0000,1461.0000 8303.0000,1461.0000 8302.0000,1459.0000 C 8301.0000,1458.0000 8302.0000,1457.0000 8303.0000,1456.0000 Z M 8356.0000,1424.0000 L 8386.0000,1406.0000 C 8388.0000,1405.0000 8389.0000,1405.0000 8390.0000,1407.0000 C 8391.0000,1408.0000 8390.0000,1409.0000 8389.0000,1410.0000 L 8358.0000,1429.0000 C 8357.0000,1429.0000 8355.0000,1429.0000 8355.0000,1428.0000 C 8354.0000,1426.0000 8354.0000,1425.0000 8356.0000,1424.0000 Z M 8408.0000,1393.0000 L 8439.0000,1374.0000 C 8440.0000,1373.0000 8442.0000,1374.0000 8443.0000,1375.0000 C 8443.0000,1376.0000 8443.0000,1378.0000 8442.0000,1379.0000 L 8411.0000,1397.0000 C 8410.0000,1398.0000 8408.0000,1397.0000 8407.0000,1396.0000 C 8407.0000,1395.0000 8407.0000,1393.0000 8408.0000,1393.0000 Z M 8461.0000,1361.0000 L 8492.0000,1343.0000 C 8493.0000,1342.0000 8494.0000,1342.0000 8495.0000,1343.0000 C 8496.0000,1345.0000 8496.0000,1346.0000 8494.0000,1347.0000 L 8464.0000,1365.0000 C 8462.0000,1366.0000 8461.0000,1366.0000 8460.0000,1364.0000 C 8459.0000,1363.0000 8460.0000,1362.0000 8461.0000,1361.0000 Z M 8514.0000,1329.0000 L 8544.0000,1311.0000 C 8546.0000,1310.0000 8547.0000,1311.0000 8548.0000,1312.0000 C 8549.0000,1313.0000 8548.0000,1315.0000 8547.0000,1315.0000 L 8516.0000,1334.0000 C 8515.0000,1334.0000 8513.0000,1334.0000 8513.0000,1333.0000 C 8512.0000,1332.0000 8512.0000,1330.0000 8514.0000,1329.0000 Z M 8566.0000,1298.0000 L 8597.0000,1279.0000 C 8598.0000,1279.0000 8600.0000,1279.0000 8601.0000,1280.0000 C 8601.0000,1281.0000 8601.0000,1283.0000 8600.0000,1284.0000 L 8569.0000,1302.0000 C 8568.0000,1303.0000 8566.0000,1302.0000 8565.0000,1301.0000 C 8565.0000,1300.0000 8565.0000,1298.0000 8566.0000,1298.0000 Z M 8619.0000,1266.0000 L 8650.0000,1248.0000 C 8651.0000,1247.0000 8653.0000,1247.0000 8653.0000,1249.0000 C 8654.0000,1250.0000 8654.0000,1251.0000 8652.0000,1252.0000 L 8622.0000,1271.0000 C 8620.0000,1271.0000 8619.0000,1271.0000 8618.0000,1270.0000 C 8617.0000,1268.0000 8618.0000,1267.0000 8619.0000,1266.0000 Z M 8672.0000,1235.0000 L 8702.0000,1216.0000 C 8704.0000,1215.0000 8705.0000,1216.0000 8706.0000,1217.0000 C 8707.0000,1218.0000 8706.0000,1220.0000 8705.0000,1220.0000 L 8674.0000,1239.0000 C 8673.0000,1240.0000 8672.0000,1239.0000 8671.0000,1238.0000 C 8670.0000,1237.0000 8670.0000,1235.0000 8672.0000,1235.0000 Z M 8724.0000,1203.0000 L 8755.0000,1184.0000 C 8756.0000,1184.0000 8758.0000,1184.0000 8759.0000,1185.0000 C 8759.0000,1187.0000 8759.0000,1188.0000 8758.0000,1189.0000 L 8727.0000,1207.0000 C 8726.0000,1208.0000 8724.0000,1208.0000 8723.0000,1206.0000 C 8723.0000,1205.0000 8723.0000,1204.0000 8724.0000,1203.0000 Z M 8777.0000,1171.0000 L 8808.0000,1153.0000 C 8809.0000,1152.0000 8811.0000,1153.0000 8811.0000,1154.0000 C 8812.0000,1155.0000 8812.0000,1157.0000 8810.0000,1157.0000 L 8780.0000,1176.0000 C 8778.0000,1176.0000 8777.0000,1176.0000 8776.0000,1175.0000 C 8775.0000,1174.0000 8776.0000,1172.0000 8777.0000,1171.0000 Z M 8830.0000,1140.0000 L 8860.0000,1121.0000 C 8862.0000,1121.0000 8863.0000,1121.0000 8864.0000,1122.0000 C 8865.0000,1123.0000 8864.0000,1125.0000 8863.0000,1126.0000 L 8832.0000,1144.0000 C 8831.0000,1145.0000 8830.0000,1144.0000 8829.0000,1143.0000 C 8828.0000,1142.0000 8829.0000,1140.0000 8830.0000,1140.0000 Z M 8882.0000,1108.0000 L 8913.0000,1090.0000 C 8914.0000,1089.0000 8916.0000,1089.0000 8917.0000,1091.0000 C 8917.0000,1092.0000 8917.0000,1093.0000 8916.0000,1094.0000 L 8885.0000,1112.0000 C 8884.0000,1113.0000 8882.0000,1113.0000 8882.0000,1112.0000 C 8881.0000,1110.0000 8881.0000,1109.0000 8882.0000,1108.0000 Z M 8935.0000,1076.0000 L 8966.0000,1058.0000 C 8967.0000,1057.0000 8969.0000,1058.0000 8969.0000,1059.0000 C 8970.0000,1060.0000 8970.0000,1062.0000 8968.0000,1062.0000 L 8938.0000,1081.0000 C 8937.0000,1082.0000 8935.0000,1081.0000 8934.0000,1080.0000 C 8933.0000,1079.0000 8934.0000,1077.0000 8935.0000,1076.0000 Z M 8988.0000,1045.0000 L 9019.0000,1026.0000 C 9020.0000,1026.0000 9021.0000,1026.0000 9022.0000,1027.0000 C 9023.0000,1029.0000 9022.0000,1030.0000 9021.0000,1031.0000 L 8990.0000,1049.0000 C 8989.0000,1050.0000 8988.0000,1050.0000 8987.0000,1048.0000 C 8986.0000,1047.0000 8987.0000,1046.0000 8988.0000,1045.0000 Z M 9040.0000,1013.0000 L 9071.0000,995.0000 C 9072.0000,994.0000 9074.0000,994.0000 9075.0000,996.0000 C 9075.0000,997.0000 9075.0000,998.0000 9074.0000,999.0000 L 9043.0000,1018.0000 C 9042.0000,1018.0000 9040.0000,1018.0000 9040.0000,1017.0000 C 9039.0000,1016.0000 9039.0000,1014.0000 9040.0000,1013.0000 Z M 9093.0000,982.0000 L 9124.0000,963.0000 C 9125.0000,962.0000 9127.0000,963.0000 9127.0000,964.0000 C 9128.0000,965.0000 9128.0000,967.0000 9127.0000,968.0000 L 9096.0000,986.0000 C 9095.0000,987.0000 9093.0000,986.0000 9092.0000,985.0000 C 9092.0000,984.0000 9092.0000,982.0000 9093.0000,982.0000 Z M 9146.0000,950.0000 L 9177.0000,932.0000 C 9178.0000,931.0000 9179.0000,931.0000 9180.0000,932.0000 C 9181.0000,934.0000 9180.0000,935.0000 9179.0000,936.0000 L 9148.0000,954.0000 C 9147.0000,955.0000 9146.0000,955.0000 9145.0000,954.0000 C 9144.0000,952.0000 9145.0000,951.0000 9146.0000,950.0000 Z M 9199.0000,918.0000 L 9229.0000,900.0000 C 9230.0000,899.0000 9232.0000,900.0000 9233.0000,901.0000 C 9233.0000,902.0000 9233.0000,904.0000 9232.0000,904.0000 L 9201.0000,923.0000 C 9200.0000,924.0000 9198.0000,923.0000 9198.0000,922.0000 C 9197.0000,921.0000 9197.0000,919.0000 9199.0000,918.0000 Z M 9251.0000,887.0000 L 9282.0000,868.0000 C 9283.0000,868.0000 9285.0000,868.0000 9285.0000,869.0000 C 9286.0000,870.0000 9286.0000,872.0000 9285.0000,873.0000 L 9254.0000,891.0000 C 9253.0000,892.0000 9251.0000,892.0000 9250.0000,890.0000 C 9250.0000,889.0000 9250.0000,888.0000 9251.0000,887.0000 Z M 9304.0000,855.0000 L 9335.0000,837.0000 C 9336.0000,836.0000 9337.0000,836.0000 9338.0000,838.0000 C 9339.0000,839.0000 9338.0000,840.0000 9337.0000,841.0000 L 9307.0000,860.0000 C 9305.0000,860.0000 9304.0000,860.0000 9303.0000,859.0000 C 9302.0000,857.0000 9303.0000,856.0000 9304.0000,855.0000 Z M 9357.0000,824.0000 L 9387.0000,805.0000 C 9389.0000,804.0000 9390.0000,805.0000 9391.0000,806.0000 C 9392.0000,807.0000 9391.0000,809.0000 9390.0000,810.0000 L 9359.0000,828.0000 C 9358.0000,829.0000 9356.0000,828.0000 9356.0000,827.0000 C 9355.0000,826.0000 9355.0000,824.0000 9357.0000,824.0000 Z M 9409.0000,792.0000 L 9440.0000,774.0000 C 9441.0000,773.0000 9443.0000,773.0000 9444.0000,774.0000 C 9444.0000,776.0000 9444.0000,777.0000 9443.0000,778.0000 L 9412.0000,796.0000 C 9411.0000,797.0000 9409.0000,797.0000 9408.0000,795.0000 C 9408.0000,794.0000 9408.0000,793.0000 9409.0000,792.0000 Z M 9462.0000,760.0000 L 9493.0000,742.0000 C 9494.0000,741.0000 9495.0000,742.0000 9496.0000,743.0000 C 9497.0000,744.0000 9497.0000,746.0000 9495.0000,746.0000 L 9465.0000,765.0000 C 9463.0000,765.0000 9462.0000,765.0000 9461.0000,764.0000 C 9460.0000,763.0000 9461.0000,761.0000 9462.0000,760.0000 Z M 9515.0000,729.0000 L 9545.0000,710.0000 C 9547.0000,710.0000 9548.0000,710.0000 9549.0000,711.0000 C 9550.0000,712.0000 9549.0000,714.0000 9548.0000,715.0000 L 9517.0000,733.0000 C 9516.0000,734.0000 9514.0000,733.0000 9514.0000,732.0000 C 9513.0000,731.0000 9513.0000,729.0000 9515.0000,729.0000 Z M 9567.0000,697.0000 L 9598.0000,679.0000 C 9599.0000,678.0000 9601.0000,678.0000 9602.0000,680.0000 C 9602.0000,681.0000 9602.0000,682.0000 9601.0000,683.0000 L 9570.0000,702.0000 C 9569.0000,702.0000 9567.0000,702.0000 9566.0000,701.0000 C 9566.0000,699.0000 9566.0000,698.0000 9567.0000,697.0000 Z M 9620.0000,666.0000 L 9651.0000,647.0000 C 9652.0000,646.0000 9654.0000,647.0000 9654.0000,648.0000 C 9655.0000,649.0000 9655.0000,651.0000 9653.0000,651.0000 L 9623.0000,670.0000 C 9621.0000,671.0000 9620.0000,670.0000 9619.0000,669.0000 C 9618.0000,668.0000 9619.0000,666.0000 9620.0000,666.0000 Z M 9673.0000,634.0000 L 9693.0000,622.0000 C 9695.0000,621.0000 9696.0000,621.0000 9697.0000,622.0000 C 9698.0000,624.0000 9697.0000,625.0000 9696.0000,626.0000 L 9675.0000,638.0000 C 9674.0000,639.0000 9673.0000,639.0000 9672.0000,637.0000 C 9671.0000,636.0000 9671.0000,635.0000 9673.0000,634.0000 Z "  fill="#000000" stroke="#000000" stroke-width="1.0000"  stroke-linecap="butt"  stroke-linejoin="round" />
</g>
<g transform="matrix(1.0000 0.0000 0.0000 1.0000 0.0000 0.0000)">
</g>
<g transform="matrix(0.0625 0.0000 0.0000 0.0625 0.0000 0.0000)">
<path d="M 6066.0000,19.0000 L 6066.0000,624.0000 L 7880.0000,624.0000 L 7880.0000,19.0000 L 6066.0000,19.0000 Z" stroke-width="1px" stroke="#FFFFFF"  fill="#FFFFFF" />
</g>
<g transform="matrix(1.0000 0.0000 0.0000 1.0000 0.0000 0.0000)">
<defs><clipPath id="clip-1649760492"><path d="M 0.0000,0.0000 L 1004.0000,0.0000 L 1004.0000,192.0000 L 0.0000,192.0000 L 0.0000,0.0000 Z Z" /></clipPath></defs>
</g>
<g transform="matrix(0.0625 0.0000 0.0000 0.0625 0.0000 0.0000)">
<path  clip-path="url(#clip-1649760492)" d="M 6066.0000,624.0000 L 7880.0000,624.0000 L 7880.0000,19.0000 L 6066.0000,19.0000 L 6066.0000,624.0000 Z" stroke="#000000" stroke-width="5.0000"  stroke-linecap="round"  stroke-linejoin="round" fill="none" />
</g>
<g transform="matrix(1.0000 0.0000 0.0000 1.0000 0.0000 0.0000)">
</g>
<g transform="matrix(1.0000 0.0000 0.0000 1.0000 385.2971 16.9577)">
<text font-family="Arial" fill="#000000" style ="white-space:pre;" font-weight="400" text-anchor="start" x="0.0000" y="0.0000" font-size="12.0000" ><![CDATA[E]]></text>
</g>
<g transform="matrix(1.0000 0.0000 0.0000 1.0000 393.3010 16.9577)">
<text font-family="Arial" fill="#000000" style ="white-space:pre;" font-weight="400" text-anchor="start" x="0.0000" y="0.0000" font-size="12.0000" ><![CDATA[/]]></text>
</g>
<g transform="matrix(1.0000 0.0000 0.0000 1.0000 396.6349 16.9577)">
<text font-family="Arial" fill="#000000" style ="white-space:pre;" font-weight="400" text-anchor="start" x="0.0000" y="0.0000" font-size="12.0000" ><![CDATA[T]]></text>
</g>
<g transform="matrix(1.0000 0.0000 0.0000 1.0000 403.9650 16.9577)">
<text font-family="Arial" fill="#000000" style ="white-space:pre;" font-weight="400" text-anchor="start" x="0.0000" y="0.0000" font-size="12.0000" ><![CDATA[1]]></text>
</g>
<g transform="matrix(1.0000 0.0000 0.0000 1.0000 410.6389 16.9577)">
<text font-family="Arial" fill="#000000" style ="white-space:pre;" font-weight="400" text-anchor="start" x="0.0000" y="0.0000" font-size="12.0000" ><![CDATA[/]]></text>
</g>
<g transform="matrix(1.0000 0.0000 0.0000 1.0000 413.9728 16.9577)">
<text font-family="Arial" fill="#000000" style ="white-space:pre;" font-weight="400" text-anchor="start" x="0.0000" y="0.0000" font-size="12.0000" ><![CDATA[T]]></text>
</g>
<g transform="matrix(1.0000 0.0000 0.0000 1.0000 421.3029 16.9577)">
<text font-family="Arial" fill="#000000" style ="white-space:pre;" font-weight="400" text-anchor="start" x="0.0000" y="0.0000" font-size="12.0000" ><![CDATA[2]]></text>
</g>
<g transform="matrix(1.0000 0.0000 0.0000 1.0000 427.9767 16.9577)">
<text font-family="Arial" fill="#000000" style ="white-space:pre;" font-weight="400" text-anchor="start" x="0.0000" y="0.0000" font-size="12.0000" ><![CDATA[/]]></text>
</g>
<g transform="matrix(1.0000 0.0000 0.0000 1.0000 431.3107 16.9577)">
<text font-family="Arial" fill="#000000" style ="white-space:pre;" font-weight="400" text-anchor="start" x="0.0000" y="0.0000" font-size="12.0000" ><![CDATA[S]]></text>
</g>
<g transform="matrix(1.0000 0.0000 0.0000 1.0000 439.3146 16.9577)">
<text font-family="Arial" fill="#000000" style ="white-space:pre;" font-weight="400" text-anchor="start" x="0.0000" y="0.0000" font-size="12.0000" ><![CDATA[/]]></text>
</g>
<g transform="matrix(1.0000 0.0000 0.0000 1.0000 442.6486 16.9577)">
<text font-family="Arial" fill="#000000" style ="white-space:pre;" font-weight="400" text-anchor="start" x="0.0000" y="0.0000" font-size="12.0000" ><![CDATA[R]]></text>
</g>
<g transform="matrix(1.0000 0.0000 0.0000 1.0000 451.3146 16.9577)">
<text font-family="Arial" fill="#000000" style ="white-space:pre;" font-weight="400" text-anchor="start" x="0.0000" y="0.0000" font-size="12.0000" ><![CDATA[/]]></text>
</g>
<g transform="matrix(1.0000 0.0000 0.0000 1.0000 454.6486 16.9577)">
<text font-family="Arial" fill="#000000" style ="white-space:pre;" font-weight="400" text-anchor="start" x="0.0000" y="0.0000" font-size="12.0000" ><![CDATA[R]]></text>
</g>
<g transform="matrix(1.0000 0.0000 0.0000 1.0000 463.3146 16.9577)">
<text font-family="Arial" fill="#000000" style ="white-space:pre;" font-weight="400" text-anchor="start" x="0.0000" y="0.0000" font-size="12.0000" ><![CDATA[/]]></text>
</g>
<g transform="matrix(1.0000 0.0000 0.0000 1.0000 466.6486 16.9577)">
<text font-family="Arial" fill="#000000" style ="white-space:pre;" font-weight="400" text-anchor="start" x="0.0000" y="0.0000" font-size="12.0000" ><![CDATA[R]]></text>
</g>
<g transform="matrix(1.0000 0.0000 0.0000 1.0000 475.3146 16.9577)">
<text font-family="Arial" fill="#000000" style ="white-space:pre;" font-weight="400" text-anchor="start" x="0.0000" y="0.0000" font-size="12.0000" ><![CDATA[/]]></text>
</g>
<g transform="matrix(1.0000 0.0000 0.0000 1.0000 478.6486 16.9577)">
<text font-family="Arial" fill="#000000" style ="white-space:pre;" font-weight="400" text-anchor="start" x="0.0000" y="0.0000" font-size="12.0000" ><![CDATA[R ]]></text>
</g>
<g transform="matrix(1.0000 0.0000 0.0000 1.0000 407.9494 31.3575)">
<text font-family="Arial" fill="#000000" style ="white-space:pre;" font-weight="400" text-anchor="start" x="0.0000" y="0.0000" font-size="12.0000" ><![CDATA[subheader]]></text>
</g>
<g transform="matrix(0.0625 0.0000 0.0000 0.0625 0.0000 0.0000)">
<path d="M 6671.0000,2438.0000 L 6671.0000,3043.0000 L 9695.0000,3043.0000 L 9695.0000,2438.0000 L 6671.0000,2438.0000 Z" stroke-width="1px" stroke="#FFFFFF"  fill="#FFFFFF" />
</g>
<g transform="matrix(1.0000 0.0000 0.0000 1.0000 0.0000 0.0000)">
<defs><clipPath id="clip-596516649"><path d="M 0.0000,0.0000 L 1004.0000,0.0000 L 1004.0000,192.0000 L 0.0000,192.0000 L 0.0000,0.0000 Z Z" /></clipPath></defs>
</g>
<g transform="matrix(0.0625 0.0000 0.0000 0.0625 0.0000 0.0000)">
<path  clip-path="url(#clip-596516649)" d="M 6671.0000,3043.0000 L 9695.0000,3043.0000 L 9695.0000,2438.0000 L 6671.0000,2438.0000 L 6671.0000,3043.0000 Z" stroke="#000000" stroke-width="5.0000"  stroke-linecap="round"  stroke-linejoin="round" fill="none" />
</g>
<g transform="matrix(1.0000 0.0000 0.0000 1.0000 0.0000 0.0000)">
</g>
<g transform="matrix(1.0000 0.0000 0.0000 1.0000 470.4050 167.7389)">
<text font-family="Arial" fill="#000000" style ="white-space:pre;" font-weight="400" text-anchor="start" x="0.0000" y="0.0000" font-size="13.0000" ><![CDATA[MAC subPDU]]></text>
</g>
<g transform="matrix(1.0000 0.0000 0.0000 1.0000 422.9858 183.7390)">
<text font-family="Arial" fill="#000000" style ="white-space:pre;" font-weight="400" text-anchor="start" x="0.0000" y="0.0000" font-size="13.0000" ><![CDATA[(]]></text>
</g>
<g transform="matrix(1.0000 0.0000 0.0000 1.0000 427.4258 183.7390)">
<text font-family="Arial" fill="#000000" style ="white-space:pre;" font-weight="400" text-anchor="start" x="0.0000" y="0.0000" font-size="13.0000" ><![CDATA[fallbackRAR or successRAR]]></text>
</g>
<g transform="matrix(1.0000 0.0000 0.0000 1.0000 596.3666 183.7390)">
<text font-family="Arial" fill="#000000" style ="white-space:pre;" font-weight="400" text-anchor="start" x="0.0000" y="0.0000" font-size="13.0000" ><![CDATA[)]]></text>
</g>
<g transform="matrix(0.0625 0.0000 0.0000 0.0625 0.0000 0.0000)">
<path d="M 1831.0000,2438.0000 L 1837.0000,2402.0000 C 1837.0000,2401.0000 1838.0000,2400.0000 1840.0000,2400.0000 C 1841.0000,2400.0000 1842.0000,2402.0000 1842.0000,2403.0000 L 1836.0000,2438.0000 C 1835.0000,2440.0000 1834.0000,2441.0000 1833.0000,2440.0000 C 1831.0000,2440.0000 1830.0000,2439.0000 1831.0000,2438.0000 Z M 1841.0000,2377.0000 L 1847.0000,2342.0000 C 1847.0000,2340.0000 1848.0000,2339.0000 1850.0000,2339.0000 C 1851.0000,2340.0000 1852.0000,2341.0000 1852.0000,2342.0000 L 1846.0000,2378.0000 C 1846.0000,2379.0000 1844.0000,2380.0000 1843.0000,2380.0000 C 1841.0000,2380.0000 1841.0000,2378.0000 1841.0000,2377.0000 Z M 1851.0000,2316.0000 L 1857.0000,2281.0000 C 1857.0000,2280.0000 1858.0000,2279.0000 1860.0000,2279.0000 C 1861.0000,2279.0000 1862.0000,2280.0000 1862.0000,2282.0000 L 1856.0000,2317.0000 C 1856.0000,2319.0000 1854.0000,2319.0000 1853.0000,2319.0000 C 1852.0000,2319.0000 1851.0000,2318.0000 1851.0000,2316.0000 Z M 1861.0000,2256.0000 L 1867.0000,2220.0000 C 1867.0000,2219.0000 1868.0000,2218.0000 1870.0000,2218.0000 C 1871.0000,2218.0000 1872.0000,2220.0000 1872.0000,2221.0000 L 1866.0000,2257.0000 C 1866.0000,2258.0000 1864.0000,2259.0000 1863.0000,2259.0000 C 1862.0000,2258.0000 1861.0000,2257.0000 1861.0000,2256.0000 Z M 1871.0000,2195.0000 L 1877.0000,2160.0000 C 1877.0000,2158.0000 1879.0000,2157.0000 1880.0000,2158.0000 C 1881.0000,2158.0000 1882.0000,2159.0000 1882.0000,2161.0000 L 1876.0000,2196.0000 C 1876.0000,2197.0000 1875.0000,2198.0000 1873.0000,2198.0000 C 1872.0000,2198.0000 1871.0000,2196.0000 1871.0000,2195.0000 Z M 1881.0000,2134.0000 L 1887.0000,2099.0000 C 1887.0000,2098.0000 1889.0000,2097.0000 1890.0000,2097.0000 C 1891.0000,2097.0000 1892.0000,2099.0000 1892.0000,2100.0000 L 1886.0000,2135.0000 C 1886.0000,2137.0000 1885.0000,2138.0000 1883.0000,2137.0000 C 1882.0000,2137.0000 1881.0000,2136.0000 1881.0000,2134.0000 Z M 1891.0000,2074.0000 L 1897.0000,2039.0000 C 1897.0000,2037.0000 1899.0000,2036.0000 1900.0000,2036.0000 C 1902.0000,2037.0000 1902.0000,2038.0000 1902.0000,2039.0000 L 1896.0000,2075.0000 C 1896.0000,2076.0000 1895.0000,2077.0000 1893.0000,2077.0000 C 1892.0000,2077.0000 1891.0000,2075.0000 1891.0000,2074.0000 Z M 1901.0000,2013.0000 L 1907.0000,1978.0000 C 1908.0000,1977.0000 1909.0000,1976.0000 1910.0000,1976.0000 C 1912.0000,1976.0000 1913.0000,1977.0000 1912.0000,1979.0000 L 1906.0000,2014.0000 C 1906.0000,2016.0000 1905.0000,2016.0000 1903.0000,2016.0000 C 1902.0000,2016.0000 1901.0000,2015.0000 1901.0000,2013.0000 Z M 1911.0000,1953.0000 L 1917.0000,1917.0000 C 1918.0000,1916.0000 1919.0000,1915.0000 1920.0000,1915.0000 C 1922.0000,1915.0000 1923.0000,1917.0000 1922.0000,1918.0000 L 1917.0000,1954.0000 C 1916.0000,1955.0000 1915.0000,1956.0000 1914.0000,1956.0000 C 1912.0000,1955.0000 1911.0000,1954.0000 1911.0000,1953.0000 Z M 1922.0000,1892.0000 L 1927.0000,1857.0000 C 1928.0000,1855.0000 1929.0000,1854.0000 1930.0000,1855.0000 C 1932.0000,1855.0000 1933.0000,1856.0000 1933.0000,1858.0000 L 1927.0000,1893.0000 C 1926.0000,1894.0000 1925.0000,1895.0000 1924.0000,1895.0000 C 1922.0000,1895.0000 1921.0000,1893.0000 1922.0000,1892.0000 Z M 1932.0000,1831.0000 L 1938.0000,1796.0000 C 1938.0000,1795.0000 1939.0000,1794.0000 1941.0000,1794.0000 C 1942.0000,1794.0000 1943.0000,1796.0000 1943.0000,1797.0000 L 1937.0000,1832.0000 C 1937.0000,1834.0000 1935.0000,1835.0000 1934.0000,1834.0000 C 1932.0000,1834.0000 1931.0000,1833.0000 1932.0000,1831.0000 Z M 1942.0000,1771.0000 L 1948.0000,1736.0000 C 1948.0000,1734.0000 1949.0000,1733.0000 1951.0000,1733.0000 C 1952.0000,1734.0000 1953.0000,1735.0000 1953.0000,1736.0000 L 1947.0000,1772.0000 C 1947.0000,1773.0000 1945.0000,1774.0000 1944.0000,1774.0000 C 1942.0000,1774.0000 1942.0000,1772.0000 1942.0000,1771.0000 Z M 1952.0000,1710.0000 L 1958.0000,1675.0000 C 1958.0000,1674.0000 1959.0000,1673.0000 1961.0000,1673.0000 C 1962.0000,1673.0000 1963.0000,1674.0000 1963.0000,1676.0000 L 1957.0000,1711.0000 C 1957.0000,1712.0000 1955.0000,1713.0000 1954.0000,1713.0000 C 1953.0000,1713.0000 1952.0000,1712.0000 1952.0000,1710.0000 Z M 1962.0000,1650.0000 L 1968.0000,1614.0000 C 1968.0000,1613.0000 1969.0000,1612.0000 1971.0000,1612.0000 C 1972.0000,1612.0000 1973.0000,1614.0000 1973.0000,1615.0000 L 1967.0000,1650.0000 C 1967.0000,1652.0000 1965.0000,1653.0000 1964.0000,1653.0000 C 1963.0000,1652.0000 1962.0000,1651.0000 1962.0000,1650.0000 Z M 1972.0000,1589.0000 L 1978.0000,1554.0000 C 1978.0000,1552.0000 1980.0000,1551.0000 1981.0000,1552.0000 C 1982.0000,1552.0000 1983.0000,1553.0000 1983.0000,1555.0000 L 1977.0000,1590.0000 C 1977.0000,1591.0000 1976.0000,1592.0000 1974.0000,1592.0000 C 1973.0000,1592.0000 1972.0000,1590.0000 1972.0000,1589.0000 Z M 1982.0000,1528.0000 L 1988.0000,1493.0000 C 1988.0000,1492.0000 1990.0000,1491.0000 1991.0000,1491.0000 C 1992.0000,1491.0000 1993.0000,1493.0000 1993.0000,1494.0000 L 1987.0000,1529.0000 C 1987.0000,1531.0000 1986.0000,1532.0000 1984.0000,1531.0000 C 1983.0000,1531.0000 1982.0000,1530.0000 1982.0000,1528.0000 Z M 1992.0000,1468.0000 L 1998.0000,1432.0000 C 1998.0000,1431.0000 2000.0000,1430.0000 2001.0000,1430.0000 C 2003.0000,1431.0000 2003.0000,1432.0000 2003.0000,1433.0000 L 1997.0000,1469.0000 C 1997.0000,1470.0000 1996.0000,1471.0000 1994.0000,1471.0000 C 1993.0000,1471.0000 1992.0000,1469.0000 1992.0000,1468.0000 Z M 2002.0000,1407.0000 L 2008.0000,1372.0000 C 2009.0000,1370.0000 2010.0000,1370.0000 2011.0000,1370.0000 C 2013.0000,1370.0000 2014.0000,1371.0000 2013.0000,1373.0000 L 2007.0000,1408.0000 C 2007.0000,1409.0000 2006.0000,1410.0000 2004.0000,1410.0000 C 2003.0000,1410.0000 2002.0000,1409.0000 2002.0000,1407.0000 Z M 2012.0000,1347.0000 L 2018.0000,1311.0000 C 2019.0000,1310.0000 2020.0000,1309.0000 2021.0000,1309.0000 C 2023.0000,1309.0000 2024.0000,1311.0000 2023.0000,1312.0000 L 2018.0000,1347.0000 C 2017.0000,1349.0000 2016.0000,1350.0000 2015.0000,1350.0000 C 2013.0000,1349.0000 2012.0000,1348.0000 2012.0000,1347.0000 Z M 2023.0000,1286.0000 L 2028.0000,1251.0000 C 2029.0000,1249.0000 2030.0000,1248.0000 2031.0000,1249.0000 C 2033.0000,1249.0000 2034.0000,1250.0000 2034.0000,1252.0000 L 2028.0000,1287.0000 C 2027.0000,1288.0000 2026.0000,1289.0000 2025.0000,1289.0000 C 2023.0000,1289.0000 2022.0000,1287.0000 2023.0000,1286.0000 Z M 2033.0000,1225.0000 L 2039.0000,1190.0000 C 2039.0000,1189.0000 2040.0000,1188.0000 2042.0000,1188.0000 C 2043.0000,1188.0000 2044.0000,1190.0000 2044.0000,1191.0000 L 2038.0000,1226.0000 C 2038.0000,1228.0000 2036.0000,1229.0000 2035.0000,1228.0000 C 2033.0000,1228.0000 2032.0000,1227.0000 2033.0000,1225.0000 Z M 2043.0000,1165.0000 L 2049.0000,1129.0000 C 2049.0000,1128.0000 2050.0000,1127.0000 2052.0000,1127.0000 C 2053.0000,1128.0000 2054.0000,1129.0000 2054.0000,1130.0000 L 2048.0000,1166.0000 C 2048.0000,1167.0000 2046.0000,1168.0000 2045.0000,1168.0000 C 2043.0000,1168.0000 2043.0000,1166.0000 2043.0000,1165.0000 Z M 2053.0000,1104.0000 L 2059.0000,1069.0000 C 2059.0000,1067.0000 2060.0000,1067.0000 2062.0000,1067.0000 C 2063.0000,1067.0000 2064.0000,1068.0000 2064.0000,1070.0000 L 2058.0000,1105.0000 C 2058.0000,1106.0000 2056.0000,1107.0000 2055.0000,1107.0000 C 2054.0000,1107.0000 2053.0000,1106.0000 2053.0000,1104.0000 Z M 2063.0000,1044.0000 L 2069.0000,1008.0000 C 2069.0000,1007.0000 2070.0000,1006.0000 2072.0000,1006.0000 C 2073.0000,1006.0000 2074.0000,1008.0000 2074.0000,1009.0000 L 2068.0000,1044.0000 C 2068.0000,1046.0000 2066.0000,1047.0000 2065.0000,1047.0000 C 2064.0000,1046.0000 2063.0000,1045.0000 2063.0000,1044.0000 Z M 2073.0000,983.0000 L 2079.0000,948.0000 C 2079.0000,946.0000 2081.0000,945.0000 2082.0000,946.0000 C 2083.0000,946.0000 2084.0000,947.0000 2084.0000,948.0000 L 2078.0000,984.0000 C 2078.0000,985.0000 2077.0000,986.0000 2075.0000,986.0000 C 2074.0000,986.0000 2073.0000,984.0000 2073.0000,983.0000 Z M 2083.0000,922.0000 L 2089.0000,887.0000 C 2089.0000,886.0000 2091.0000,885.0000 2092.0000,885.0000 C 2093.0000,885.0000 2094.0000,886.0000 2094.0000,888.0000 L 2088.0000,923.0000 C 2088.0000,925.0000 2087.0000,926.0000 2085.0000,925.0000 C 2084.0000,925.0000 2083.0000,924.0000 2083.0000,922.0000 Z M 2093.0000,862.0000 L 2099.0000,826.0000 C 2099.0000,825.0000 2101.0000,824.0000 2102.0000,824.0000 C 2104.0000,825.0000 2104.0000,826.0000 2104.0000,827.0000 L 2098.0000,863.0000 C 2098.0000,864.0000 2097.0000,865.0000 2095.0000,865.0000 C 2094.0000,865.0000 2093.0000,863.0000 2093.0000,862.0000 Z M 2103.0000,801.0000 L 2109.0000,766.0000 C 2110.0000,764.0000 2111.0000,764.0000 2112.0000,764.0000 C 2114.0000,764.0000 2115.0000,765.0000 2114.0000,767.0000 L 2108.0000,802.0000 C 2108.0000,803.0000 2107.0000,804.0000 2105.0000,804.0000 C 2104.0000,804.0000 2103.0000,803.0000 2103.0000,801.0000 Z M 2113.0000,741.0000 L 2119.0000,705.0000 C 2120.0000,704.0000 2121.0000,703.0000 2122.0000,703.0000 C 2124.0000,703.0000 2125.0000,705.0000 2124.0000,706.0000 L 2119.0000,741.0000 C 2118.0000,743.0000 2117.0000,744.0000 2116.0000,744.0000 C 2114.0000,743.0000 2113.0000,742.0000 2113.0000,741.0000 Z M 2124.0000,680.0000 L 2129.0000,645.0000 C 2130.0000,643.0000 2131.0000,642.0000 2132.0000,643.0000 C 2134.0000,643.0000 2135.0000,644.0000 2135.0000,645.0000 L 2129.0000,681.0000 C 2128.0000,682.0000 2127.0000,683.0000 2126.0000,683.0000 C 2124.0000,683.0000 2123.0000,681.0000 2124.0000,680.0000 Z "  fill="#000000" stroke="#000000" stroke-width="1.0000"  stroke-linecap="butt"  stroke-linejoin="round" />
</g>
<g transform="matrix(1.0000 0.0000 0.0000 1.0000 0.0000 0.0000)">
</g>
<g transform="matrix(0.0625 0.0000 0.0000 0.0625 0.0000 0.0000)">
<path d="M 4250.0000,2436.0000 L 4273.0000,2409.0000 C 4274.0000,2408.0000 4276.0000,2408.0000 4277.0000,2408.0000 C 4278.0000,2409.0000 4278.0000,2411.0000 4277.0000,2412.0000 L 4254.0000,2440.0000 C 4253.0000,2441.0000 4252.0000,2441.0000 4250.0000,2440.0000 C 4249.0000,2439.0000 4249.0000,2437.0000 4250.0000,2436.0000 Z M 4289.0000,2389.0000 L 4312.0000,2362.0000 C 4313.0000,2360.0000 4315.0000,2360.0000 4316.0000,2361.0000 C 4317.0000,2362.0000 4317.0000,2364.0000 4316.0000,2365.0000 L 4293.0000,2392.0000 C 4292.0000,2393.0000 4291.0000,2394.0000 4290.0000,2393.0000 C 4289.0000,2392.0000 4289.0000,2390.0000 4289.0000,2389.0000 Z M 4329.0000,2342.0000 L 4352.0000,2314.0000 C 4353.0000,2313.0000 4354.0000,2313.0000 4355.0000,2314.0000 C 4356.0000,2315.0000 4357.0000,2317.0000 4356.0000,2318.0000 L 4333.0000,2345.0000 C 4332.0000,2346.0000 4330.0000,2346.0000 4329.0000,2345.0000 C 4328.0000,2345.0000 4328.0000,2343.0000 4329.0000,2342.0000 Z M 4368.0000,2295.0000 L 4391.0000,2267.0000 C 4392.0000,2266.0000 4394.0000,2266.0000 4395.0000,2267.0000 C 4396.0000,2268.0000 4396.0000,2269.0000 4395.0000,2270.0000 L 4372.0000,2298.0000 C 4371.0000,2299.0000 4370.0000,2299.0000 4368.0000,2298.0000 C 4367.0000,2297.0000 4367.0000,2296.0000 4368.0000,2295.0000 Z M 4407.0000,2247.0000 L 4430.0000,2220.0000 C 4431.0000,2219.0000 4433.0000,2219.0000 4434.0000,2220.0000 C 4435.0000,2221.0000 4435.0000,2222.0000 4434.0000,2223.0000 L 4411.0000,2251.0000 C 4410.0000,2252.0000 4409.0000,2252.0000 4408.0000,2251.0000 C 4407.0000,2250.0000 4407.0000,2249.0000 4407.0000,2247.0000 Z M 4447.0000,2200.0000 L 4470.0000,2173.0000 C 4471.0000,2172.0000 4472.0000,2172.0000 4473.0000,2172.0000 C 4474.0000,2173.0000 4475.0000,2175.0000 4474.0000,2176.0000 L 4451.0000,2204.0000 C 4450.0000,2205.0000 4448.0000,2205.0000 4447.0000,2204.0000 C 4446.0000,2203.0000 4446.0000,2201.0000 4447.0000,2200.0000 Z M 4486.0000,2153.0000 L 4509.0000,2126.0000 C 4510.0000,2124.0000 4512.0000,2124.0000 4513.0000,2125.0000 C 4514.0000,2126.0000 4514.0000,2128.0000 4513.0000,2129.0000 L 4490.0000,2156.0000 C 4489.0000,2157.0000 4488.0000,2158.0000 4486.0000,2157.0000 C 4485.0000,2156.0000 4485.0000,2154.0000 4486.0000,2153.0000 Z M 4525.0000,2106.0000 L 4548.0000,2078.0000 C 4549.0000,2077.0000 4551.0000,2077.0000 4552.0000,2078.0000 C 4553.0000,2079.0000 4553.0000,2081.0000 4552.0000,2082.0000 L 4529.0000,2109.0000 C 4528.0000,2110.0000 4527.0000,2110.0000 4526.0000,2109.0000 C 4525.0000,2109.0000 4525.0000,2107.0000 4525.0000,2106.0000 Z M 4565.0000,2059.0000 L 4588.0000,2031.0000 C 4589.0000,2030.0000 4590.0000,2030.0000 4591.0000,2031.0000 C 4592.0000,2032.0000 4593.0000,2033.0000 4592.0000,2034.0000 L 4569.0000,2062.0000 C 4568.0000,2063.0000 4566.0000,2063.0000 4565.0000,2062.0000 C 4564.0000,2061.0000 4564.0000,2060.0000 4565.0000,2059.0000 Z M 4604.0000,2011.0000 L 4627.0000,1984.0000 C 4628.0000,1983.0000 4630.0000,1983.0000 4631.0000,1984.0000 C 4632.0000,1985.0000 4632.0000,1986.0000 4631.0000,1987.0000 L 4608.0000,2015.0000 C 4607.0000,2016.0000 4606.0000,2016.0000 4604.0000,2015.0000 C 4603.0000,2014.0000 4603.0000,2013.0000 4604.0000,2011.0000 Z M 4643.0000,1964.0000 L 4666.0000,1937.0000 C 4667.0000,1936.0000 4669.0000,1936.0000 4670.0000,1936.0000 C 4671.0000,1937.0000 4671.0000,1939.0000 4670.0000,1940.0000 L 4647.0000,1968.0000 C 4646.0000,1969.0000 4645.0000,1969.0000 4644.0000,1968.0000 C 4643.0000,1967.0000 4643.0000,1965.0000 4643.0000,1964.0000 Z M 4683.0000,1917.0000 L 4706.0000,1890.0000 C 4707.0000,1888.0000 4708.0000,1888.0000 4709.0000,1889.0000 C 4710.0000,1890.0000 4711.0000,1892.0000 4710.0000,1893.0000 L 4687.0000,1920.0000 C 4686.0000,1921.0000 4684.0000,1922.0000 4683.0000,1921.0000 C 4682.0000,1920.0000 4682.0000,1918.0000 4683.0000,1917.0000 Z M 4722.0000,1870.0000 L 4745.0000,1842.0000 C 4746.0000,1841.0000 4748.0000,1841.0000 4749.0000,1842.0000 C 4750.0000,1843.0000 4750.0000,1845.0000 4749.0000,1846.0000 L 4726.0000,1873.0000 C 4725.0000,1874.0000 4724.0000,1874.0000 4722.0000,1873.0000 C 4721.0000,1873.0000 4721.0000,1871.0000 4722.0000,1870.0000 Z M 4761.0000,1823.0000 L 4784.0000,1795.0000 C 4785.0000,1794.0000 4787.0000,1794.0000 4788.0000,1795.0000 C 4789.0000,1796.0000 4789.0000,1797.0000 4788.0000,1798.0000 L 4765.0000,1826.0000 C 4764.0000,1827.0000 4763.0000,1827.0000 4762.0000,1826.0000 C 4761.0000,1825.0000 4761.0000,1824.0000 4761.0000,1823.0000 Z M 4801.0000,1775.0000 L 4824.0000,1748.0000 C 4825.0000,1747.0000 4826.0000,1747.0000 4827.0000,1748.0000 C 4828.0000,1749.0000 4829.0000,1750.0000 4828.0000,1751.0000 L 4805.0000,1779.0000 C 4804.0000,1780.0000 4802.0000,1780.0000 4801.0000,1779.0000 C 4800.0000,1778.0000 4800.0000,1777.0000 4801.0000,1775.0000 Z M 4840.0000,1728.0000 L 4863.0000,1701.0000 C 4864.0000,1700.0000 4866.0000,1700.0000 4867.0000,1700.0000 C 4868.0000,1701.0000 4868.0000,1703.0000 4867.0000,1704.0000 L 4844.0000,1732.0000 C 4843.0000,1733.0000 4842.0000,1733.0000 4840.0000,1732.0000 C 4839.0000,1731.0000 4839.0000,1729.0000 4840.0000,1728.0000 Z M 4879.0000,1681.0000 L 4902.0000,1654.0000 C 4903.0000,1652.0000 4905.0000,1652.0000 4906.0000,1653.0000 C 4907.0000,1654.0000 4907.0000,1656.0000 4906.0000,1657.0000 L 4883.0000,1684.0000 C 4882.0000,1685.0000 4881.0000,1686.0000 4880.0000,1685.0000 C 4879.0000,1684.0000 4879.0000,1682.0000 4879.0000,1681.0000 Z M 4919.0000,1634.0000 L 4942.0000,1606.0000 C 4943.0000,1605.0000 4944.0000,1605.0000 4945.0000,1606.0000 C 4946.0000,1607.0000 4947.0000,1609.0000 4946.0000,1610.0000 L 4923.0000,1637.0000 C 4922.0000,1638.0000 4920.0000,1638.0000 4919.0000,1638.0000 C 4918.0000,1637.0000 4918.0000,1635.0000 4919.0000,1634.0000 Z M 4958.0000,1587.0000 L 4981.0000,1559.0000 C 4982.0000,1558.0000 4984.0000,1558.0000 4985.0000,1559.0000 C 4986.0000,1560.0000 4986.0000,1561.0000 4985.0000,1562.0000 L 4962.0000,1590.0000 C 4961.0000,1591.0000 4960.0000,1591.0000 4958.0000,1590.0000 C 4957.0000,1589.0000 4957.0000,1588.0000 4958.0000,1587.0000 Z M 4997.0000,1539.0000 L 5020.0000,1512.0000 C 5021.0000,1511.0000 5023.0000,1511.0000 5024.0000,1512.0000 C 5025.0000,1513.0000 5025.0000,1514.0000 5024.0000,1515.0000 L 5001.0000,1543.0000 C 5000.0000,1544.0000 4999.0000,1544.0000 4998.0000,1543.0000 C 4997.0000,1542.0000 4997.0000,1541.0000 4997.0000,1539.0000 Z M 5037.0000,1492.0000 L 5060.0000,1465.0000 C 5061.0000,1464.0000 5062.0000,1464.0000 5063.0000,1464.0000 C 5064.0000,1465.0000 5065.0000,1467.0000 5064.0000,1468.0000 L 5041.0000,1496.0000 C 5040.0000,1497.0000 5038.0000,1497.0000 5037.0000,1496.0000 C 5036.0000,1495.0000 5036.0000,1493.0000 5037.0000,1492.0000 Z M 5076.0000,1445.0000 L 5099.0000,1418.0000 C 5100.0000,1416.0000 5102.0000,1416.0000 5103.0000,1417.0000 C 5104.0000,1418.0000 5104.0000,1420.0000 5103.0000,1421.0000 L 5080.0000,1448.0000 C 5079.0000,1449.0000 5078.0000,1450.0000 5076.0000,1449.0000 C 5075.0000,1448.0000 5075.0000,1446.0000 5076.0000,1445.0000 Z M 5115.0000,1398.0000 L 5138.0000,1370.0000 C 5139.0000,1369.0000 5141.0000,1369.0000 5142.0000,1370.0000 C 5143.0000,1371.0000 5143.0000,1373.0000 5142.0000,1374.0000 L 5119.0000,1401.0000 C 5118.0000,1402.0000 5117.0000,1402.0000 5116.0000,1402.0000 C 5115.0000,1401.0000 5115.0000,1399.0000 5115.0000,1398.0000 Z M 5155.0000,1351.0000 L 5178.0000,1323.0000 C 5179.0000,1322.0000 5180.0000,1322.0000 5181.0000,1323.0000 C 5182.0000,1324.0000 5183.0000,1325.0000 5182.0000,1326.0000 L 5159.0000,1354.0000 C 5158.0000,1355.0000 5156.0000,1355.0000 5155.0000,1354.0000 C 5154.0000,1353.0000 5154.0000,1352.0000 5155.0000,1351.0000 Z M 5194.0000,1303.0000 L 5217.0000,1276.0000 C 5218.0000,1275.0000 5220.0000,1275.0000 5221.0000,1276.0000 C 5222.0000,1277.0000 5222.0000,1278.0000 5221.0000,1279.0000 L 5198.0000,1307.0000 C 5197.0000,1308.0000 5196.0000,1308.0000 5194.0000,1307.0000 C 5193.0000,1306.0000 5193.0000,1305.0000 5194.0000,1303.0000 Z M 5233.0000,1256.0000 L 5256.0000,1229.0000 C 5257.0000,1228.0000 5259.0000,1228.0000 5260.0000,1228.0000 C 5261.0000,1229.0000 5261.0000,1231.0000 5260.0000,1232.0000 L 5237.0000,1260.0000 C 5236.0000,1261.0000 5235.0000,1261.0000 5234.0000,1260.0000 C 5233.0000,1259.0000 5233.0000,1257.0000 5233.0000,1256.0000 Z M 5273.0000,1209.0000 L 5296.0000,1182.0000 C 5297.0000,1180.0000 5298.0000,1180.0000 5299.0000,1181.0000 C 5300.0000,1182.0000 5301.0000,1184.0000 5300.0000,1185.0000 L 5277.0000,1212.0000 C 5276.0000,1213.0000 5274.0000,1214.0000 5273.0000,1213.0000 C 5272.0000,1212.0000 5272.0000,1210.0000 5273.0000,1209.0000 Z M 5312.0000,1162.0000 L 5335.0000,1134.0000 C 5336.0000,1133.0000 5338.0000,1133.0000 5339.0000,1134.0000 C 5340.0000,1135.0000 5340.0000,1137.0000 5339.0000,1138.0000 L 5316.0000,1165.0000 C 5315.0000,1166.0000 5314.0000,1166.0000 5312.0000,1166.0000 C 5311.0000,1165.0000 5311.0000,1163.0000 5312.0000,1162.0000 Z M 5351.0000,1115.0000 L 5374.0000,1087.0000 C 5375.0000,1086.0000 5377.0000,1086.0000 5378.0000,1087.0000 C 5379.0000,1088.0000 5379.0000,1089.0000 5378.0000,1090.0000 L 5355.0000,1118.0000 C 5354.0000,1119.0000 5353.0000,1119.0000 5352.0000,1118.0000 C 5351.0000,1117.0000 5351.0000,1116.0000 5351.0000,1115.0000 Z M 5391.0000,1068.0000 L 5414.0000,1040.0000 C 5415.0000,1039.0000 5416.0000,1039.0000 5417.0000,1040.0000 C 5418.0000,1041.0000 5419.0000,1042.0000 5418.0000,1043.0000 L 5395.0000,1071.0000 C 5394.0000,1072.0000 5392.0000,1072.0000 5391.0000,1071.0000 C 5390.0000,1070.0000 5390.0000,1069.0000 5391.0000,1068.0000 Z M 5430.0000,1020.0000 L 5453.0000,993.0000 C 5454.0000,992.0000 5456.0000,992.0000 5457.0000,992.0000 C 5458.0000,993.0000 5458.0000,995.0000 5457.0000,996.0000 L 5434.0000,1024.0000 C 5433.0000,1025.0000 5432.0000,1025.0000 5430.0000,1024.0000 C 5429.0000,1023.0000 5429.0000,1021.0000 5430.0000,1020.0000 Z M 5469.0000,973.0000 L 5492.0000,946.0000 C 5493.0000,944.0000 5495.0000,944.0000 5496.0000,945.0000 C 5497.0000,946.0000 5497.0000,948.0000 5496.0000,949.0000 L 5473.0000,976.0000 C 5472.0000,977.0000 5471.0000,978.0000 5470.0000,977.0000 C 5469.0000,976.0000 5469.0000,974.0000 5469.0000,973.0000 Z M 5509.0000,926.0000 L 5532.0000,898.0000 C 5533.0000,897.0000 5534.0000,897.0000 5535.0000,898.0000 C 5536.0000,899.0000 5537.0000,901.0000 5536.0000,902.0000 L 5513.0000,929.0000 C 5512.0000,930.0000 5510.0000,930.0000 5509.0000,930.0000 C 5508.0000,929.0000 5508.0000,927.0000 5509.0000,926.0000 Z M 5548.0000,879.0000 L 5571.0000,851.0000 C 5572.0000,850.0000 5574.0000,850.0000 5575.0000,851.0000 C 5576.0000,852.0000 5576.0000,853.0000 5575.0000,854.0000 L 5552.0000,882.0000 C 5551.0000,883.0000 5550.0000,883.0000 5548.0000,882.0000 C 5547.0000,881.0000 5547.0000,880.0000 5548.0000,879.0000 Z M 5587.0000,832.0000 L 5610.0000,804.0000 C 5611.0000,803.0000 5613.0000,803.0000 5614.0000,804.0000 C 5615.0000,805.0000 5615.0000,806.0000 5614.0000,807.0000 L 5591.0000,835.0000 C 5590.0000,836.0000 5589.0000,836.0000 5588.0000,835.0000 C 5587.0000,834.0000 5587.0000,833.0000 5587.0000,832.0000 Z M 5627.0000,784.0000 L 5650.0000,757.0000 C 5651.0000,756.0000 5652.0000,756.0000 5653.0000,756.0000 C 5654.0000,757.0000 5655.0000,759.0000 5654.0000,760.0000 L 5631.0000,788.0000 C 5630.0000,789.0000 5628.0000,789.0000 5627.0000,788.0000 C 5626.0000,787.0000 5626.0000,785.0000 5627.0000,784.0000 Z M 5666.0000,737.0000 L 5689.0000,710.0000 C 5690.0000,708.0000 5692.0000,708.0000 5693.0000,709.0000 C 5694.0000,710.0000 5694.0000,712.0000 5693.0000,713.0000 L 5670.0000,740.0000 C 5669.0000,741.0000 5668.0000,742.0000 5666.0000,741.0000 C 5665.0000,740.0000 5665.0000,738.0000 5666.0000,737.0000 Z M 5705.0000,690.0000 L 5728.0000,662.0000 C 5729.0000,661.0000 5731.0000,661.0000 5732.0000,662.0000 C 5733.0000,663.0000 5733.0000,665.0000 5732.0000,666.0000 L 5709.0000,693.0000 C 5708.0000,694.0000 5707.0000,694.0000 5706.0000,694.0000 C 5705.0000,693.0000 5705.0000,691.0000 5705.0000,690.0000 Z M 5745.0000,643.0000 L 5762.0000,622.0000 C 5763.0000,621.0000 5764.0000,621.0000 5766.0000,622.0000 C 5767.0000,623.0000 5767.0000,624.0000 5766.0000,625.0000 L 5749.0000,646.0000 C 5748.0000,647.0000 5746.0000,647.0000 5745.0000,646.0000 C 5744.0000,645.0000 5744.0000,644.0000 5745.0000,643.0000 Z "  fill="#000000" stroke="#000000" stroke-width="1.0000"  stroke-linecap="butt"  stroke-linejoin="round" />
</g>
<g transform="matrix(1.0000 0.0000 0.0000 1.0000 0.0000 0.0000)">
</g>
<g transform="matrix(0.0625 0.0000 0.0000 0.0625 0.0000 0.0000)">
<path d="M 3950.0000,19.0000 L 3950.0000,624.0000 L 5764.0000,624.0000 L 5764.0000,19.0000 L 3950.0000,19.0000 Z" stroke-width="1px" stroke="#FFFFFF"  fill="#FFFFFF" />
</g>
<g transform="matrix(1.0000 0.0000 0.0000 1.0000 0.0000 0.0000)">
<defs><clipPath id="clip-1189641421"><path d="M 0.0000,0.0000 L 1004.0000,0.0000 L 1004.0000,192.0000 L 0.0000,192.0000 L 0.0000,0.0000 Z Z" /></clipPath></defs>
</g>
<g transform="matrix(0.0625 0.0000 0.0000 0.0625 0.0000 0.0000)">
<path  clip-path="url(#clip-1189641421)" d="M 3950.0000,624.0000 L 5764.0000,624.0000 L 5764.0000,19.0000 L 3950.0000,19.0000 L 3950.0000,624.0000 Z" stroke="#000000" stroke-width="5.0000"  stroke-linecap="round"  stroke-linejoin="round" fill="none" />
</g>
<g transform="matrix(1.0000 0.0000 0.0000 1.0000 0.0000 0.0000)">
</g>
<g transform="matrix(1.0000 0.0000 0.0000 1.0000 271.0107 24.1578)">
<text font-family="Arial" fill="#000000" style ="white-space:pre;" font-weight="400" text-anchor="start" x="0.0000" y="0.0000" font-size="12.0000" ><![CDATA[fallbackRAR]]></text>
</g>
<g transform="matrix(0.0625 0.0000 0.0000 0.0625 0.0000 0.0000)">
<path d="M 10602.0000,2438.0000 L 10602.0000,3043.0000 L 13625.0000,3043.0000 L 13625.0000,2438.0000 L 10602.0000,2438.0000 Z" stroke-width="1px" stroke="#FFFFFF"  fill="#FFFFFF" />
</g>
<g transform="matrix(1.0000 0.0000 0.0000 1.0000 0.0000 0.0000)">
<defs><clipPath id="clip-1025202362"><path d="M 0.0000,0.0000 L 1004.0000,0.0000 L 1004.0000,192.0000 L 0.0000,192.0000 L 0.0000,0.0000 Z Z" /></clipPath></defs>
</g>
<g transform="matrix(0.0625 0.0000 0.0000 0.0625 0.0000 0.0000)">
<path  clip-path="url(#clip-1025202362)" d="M 10602.0000,3043.0000 L 13625.0000,3043.0000 L 13625.0000,2438.0000 L 10602.0000,2438.0000 L 10602.0000,3043.0000 Z" stroke="#000000" stroke-width="5.0000"  stroke-linecap="round"  stroke-linejoin="round" fill="none" />
</g>
<g transform="matrix(1.0000 0.0000 0.0000 1.0000 0.0000 0.0000)">
</g>
<g transform="matrix(1.0000 0.0000 0.0000 1.0000 716.0743 167.7389)">
<text font-family="Arial" fill="#000000" style ="white-space:pre;" font-weight="400" text-anchor="start" x="0.0000" y="0.0000" font-size="13.0000" ><![CDATA[MAC subPDU]]></text>
</g>
<g transform="matrix(1.0000 0.0000 0.0000 1.0000 668.6551 183.7390)">
<text font-family="Arial" fill="#000000" style ="white-space:pre;" font-weight="400" text-anchor="start" x="0.0000" y="0.0000" font-size="13.0000" ><![CDATA[(]]></text>
</g>
<g transform="matrix(1.0000 0.0000 0.0000 1.0000 673.0950 183.7390)">
<text font-family="Arial" fill="#000000" style ="white-space:pre;" font-weight="400" text-anchor="start" x="0.0000" y="0.0000" font-size="13.0000" ><![CDATA[fallbackRAR or successRAR]]></text>
</g>
<g transform="matrix(1.0000 0.0000 0.0000 1.0000 842.0358 183.7390)">
<text font-family="Arial" fill="#000000" style ="white-space:pre;" font-weight="400" text-anchor="start" x="0.0000" y="0.0000" font-size="13.0000" ><![CDATA[)]]></text>
</g>
<g transform="matrix(0.0625 0.0000 0.0000 0.0625 0.0000 0.0000)">
<path d="M 13625.0000,2438.0000 L 13625.0000,3043.0000 L 16044.0000,3043.0000 L 16044.0000,2438.0000 L 13625.0000,2438.0000 Z" stroke-width="1px" stroke="#FFFFFF"  fill="#FFFFFF" />
</g>
<g transform="matrix(1.0000 0.0000 0.0000 1.0000 0.0000 0.0000)">
<defs><clipPath id="clip-1350490027"><path d="M 0.0000,0.0000 L 1004.0000,0.0000 L 1004.0000,192.0000 L 0.0000,192.0000 L 0.0000,0.0000 Z Z" /></clipPath></defs>
</g>
<g transform="matrix(0.0625 0.0000 0.0000 0.0625 0.0000 0.0000)">
<path  clip-path="url(#clip-1350490027)" d="M 13625.0000,3043.0000 L 16044.0000,3043.0000 L 16044.0000,2438.0000 L 13625.0000,2438.0000 L 13625.0000,3043.0000 Z" stroke="#000000" stroke-width="5.0000"  stroke-linecap="round"  stroke-linejoin="round" fill="none" />
</g>
<g transform="matrix(1.0000 0.0000 0.0000 1.0000 0.0000 0.0000)">
</g>
<g transform="matrix(1.0000 0.0000 0.0000 1.0000 887.6179 175.7388)">
<text font-family="Arial" fill="#000000" style ="white-space:pre;" font-weight="400" text-anchor="start" x="0.0000" y="0.0000" font-size="13.0000" ><![CDATA[Padding ]]></text>
</g>
<g transform="matrix(1.0000 0.0000 0.0000 1.0000 940.2552 175.7388)">
<text font-family="Arial" fill="#000000" style ="white-space:pre;" font-weight="400" text-anchor="start" x="0.0000" y="0.0000" font-size="13.0000" ><![CDATA[(]]></text>
</g>
<g transform="matrix(1.0000 0.0000 0.0000 1.0000 944.6952 175.7388)">
<text font-family="Arial" fill="#000000" style ="white-space:pre;" font-weight="400" text-anchor="start" x="0.0000" y="0.0000" font-size="13.0000" ><![CDATA[opt]]></text>
</g>
<g transform="matrix(1.0000 0.0000 0.0000 1.0000 963.2306 175.7388)">
<text font-family="Arial" fill="#000000" style ="white-space:pre;" font-weight="400" text-anchor="start" x="0.0000" y="0.0000" font-size="13.0000" ><![CDATA[)]]></text>
</g>
</g>
</svg>
