<?xml version="1.0"  encoding="UTF-8" standalone="no"?>
<svg version="1.1" xmlns="http://www.w3.org/2000/svg" xmlns:xlink="http://www.w3.org/1999/xlink" width="367.0000" height="295.0000">
<g transform="translate(-0.0000, -0.0000)">
<g transform="matrix(0.0625 0.0000 0.0000 0.0625 0.0000 0.0000)">
<path d="M 24.0000,176.0000 L 4862.0000,176.0000 " stroke="#000000" stroke-width="5.0000"  stroke-linecap="round"  stroke-linejoin="round" fill="none" />
</g>
<g transform="matrix(1.0000 0.0000 0.0000 1.0000 0.0000 0.0000)">
</g>
<g transform="matrix(0.0625 0.0000 0.0000 0.0625 0.0000 0.0000)">
<path d="M 24.0000,24.0000 L 24.0000,327.0000 " stroke="#000000" stroke-width="16.0000"  stroke-linecap="round"  stroke-linejoin="round" fill="none" />
</g>
<g transform="matrix(1.0000 0.0000 0.0000 1.0000 0.0000 0.0000)">
</g>
<g transform="matrix(0.0625 0.0000 0.0000 0.0625 0.0000 0.0000)">
<path d="M 629.0000,24.0000 L 629.0000,327.0000 " stroke="#000000" stroke-width="16.0000"  stroke-linecap="round"  stroke-linejoin="round" fill="none" />
</g>
<g transform="matrix(1.0000 0.0000 0.0000 1.0000 0.0000 0.0000)">
</g>
<g transform="matrix(0.0625 0.0000 0.0000 0.0625 0.0000 0.0000)">
<path d="M 1234.0000,24.0000 L 1234.0000,327.0000 " stroke="#000000" stroke-width="16.0000"  stroke-linecap="round"  stroke-linejoin="round" fill="none" />
</g>
<g transform="matrix(1.0000 0.0000 0.0000 1.0000 0.0000 0.0000)">
</g>
<g transform="matrix(0.0625 0.0000 0.0000 0.0625 0.0000 0.0000)">
<path d="M 1839.0000,24.0000 L 1839.0000,327.0000 " stroke="#000000" stroke-width="16.0000"  stroke-linecap="round"  stroke-linejoin="round" fill="none" />
</g>
<g transform="matrix(1.0000 0.0000 0.0000 1.0000 0.0000 0.0000)">
</g>
<g transform="matrix(0.0625 0.0000 0.0000 0.0625 0.0000 0.0000)">
<path d="M 2443.0000,24.0000 L 2443.0000,327.0000 " stroke="#000000" stroke-width="16.0000"  stroke-linecap="round"  stroke-linejoin="round" fill="none" />
</g>
<g transform="matrix(1.0000 0.0000 0.0000 1.0000 0.0000 0.0000)">
</g>
<g transform="matrix(0.0625 0.0000 0.0000 0.0625 0.0000 0.0000)">
<path d="M 3048.0000,24.0000 L 3048.0000,327.0000 " stroke="#000000" stroke-width="16.0000"  stroke-linecap="round"  stroke-linejoin="round" fill="none" />
</g>
<g transform="matrix(1.0000 0.0000 0.0000 1.0000 0.0000 0.0000)">
</g>
<g transform="matrix(0.0625 0.0000 0.0000 0.0625 0.0000 0.0000)">
<path d="M 3653.0000,24.0000 L 3653.0000,327.0000 " stroke="#000000" stroke-width="16.0000"  stroke-linecap="round"  stroke-linejoin="round" fill="none" />
</g>
<g transform="matrix(1.0000 0.0000 0.0000 1.0000 0.0000 0.0000)">
</g>
<g transform="matrix(0.0625 0.0000 0.0000 0.0625 0.0000 0.0000)">
<path d="M 4258.0000,24.0000 L 4258.0000,327.0000 " stroke="#000000" stroke-width="16.0000"  stroke-linecap="round"  stroke-linejoin="round" fill="none" />
</g>
<g transform="matrix(1.0000 0.0000 0.0000 1.0000 0.0000 0.0000)">
</g>
<g transform="matrix(0.0625 0.0000 0.0000 0.0625 0.0000 0.0000)">
<path d="M 4862.0000,24.0000 L 4862.0000,327.0000 " stroke="#000000" stroke-width="16.0000"  stroke-linecap="round"  stroke-linejoin="round" fill="none" />
</g>
<g transform="matrix(1.0000 0.0000 0.0000 1.0000 0.0000 0.0000)">
</g>
<g transform="matrix(0.0625 0.0000 0.0000 0.0625 0.0000 0.0000)">
<path d="M 3048.0000,478.0000 L 3048.0000,1083.0000 L 4862.0000,1083.0000 L 4862.0000,478.0000 L 3048.0000,478.0000 Z" stroke-width="1px" stroke="#FFFFFF"  fill="#FFFFFF" />
</g>
<g transform="matrix(1.0000 0.0000 0.0000 1.0000 0.0000 0.0000)">
</g>
<g transform="matrix(0.0625 0.0000 0.0000 0.0625 0.0000 0.0000)">
<path d="M 3048.0000,1083.0000 L 4862.0000,1083.0000 L 4862.0000,478.0000 L 3048.0000,478.0000 L 3048.0000,1083.0000 Z" stroke="#000000" stroke-width="16.0000"  stroke-linecap="round"  stroke-linejoin="round" fill="none" />
</g>
<g transform="matrix(1.0000 0.0000 0.0000 1.0000 0.0000 0.0000)">
</g>
<g transform="matrix(1.0000 0.0000 0.0000 1.0000 223.0330 53.2442)">
<text font-family="Arial" fill="#000000" style ="white-space:pre;" font-weight="400" text-anchor="start" x="0.0000" y="0.0000" font-size="13.0000" ><![CDATA[LCG ID]]></text>
</g>
<g transform="matrix(1.0000 0.0000 0.0000 1.0000 267.4863 55.0866)">
<text font-family="Arial" fill="#000000" style ="white-space:pre;" font-weight="400" text-anchor="start" x="0.0000" y="0.0000" font-size="9.0000" ><![CDATA[1]]></text>
</g>
<g transform="matrix(0.0625 0.0000 0.0000 0.0625 0.0000 0.0000)">
<path d="M 24.0000,478.0000 L 24.0000,1083.0000 L 3048.0000,1083.0000 L 3048.0000,478.0000 L 24.0000,478.0000 Z" stroke-width="1px" stroke="#FFFFFF"  fill="#FFFFFF" />
</g>
<g transform="matrix(1.0000 0.0000 0.0000 1.0000 0.0000 0.0000)">
</g>
<g transform="matrix(0.0625 0.0000 0.0000 0.0625 0.0000 0.0000)">
<path d="M 24.0000,1083.0000 L 3048.0000,1083.0000 L 3048.0000,478.0000 L 24.0000,478.0000 L 24.0000,1083.0000 Z" stroke="#000000" stroke-width="16.0000"  stroke-linecap="round"  stroke-linejoin="round" fill="none" />
</g>
<g transform="matrix(1.0000 0.0000 0.0000 1.0000 0.0000 0.0000)">
</g>
<g transform="matrix(1.0000 0.0000 0.0000 1.0000 42.5641 53.2442)">
<text font-family="Arial" fill="#000000" style ="white-space:pre;" font-weight="400" text-anchor="start" x="0.0000" y="0.0000" font-size="13.0000" ><![CDATA[Destination Index]]></text>
</g>
<g transform="matrix(1.0000 0.0000 0.0000 1.0000 145.5928 55.0866)">
<text font-family="Arial" fill="#000000" style ="white-space:pre;" font-weight="400" text-anchor="start" x="0.0000" y="0.0000" font-size="9.0000" ><![CDATA[1]]></text>
</g>
<g transform="matrix(1.0000 0.0000 0.0000 1.0000 326.2261 53.2442)">
<text font-family="Arial" fill="#000000" style ="white-space:pre;" font-weight="400" text-anchor="start" x="0.0000" y="0.0000" font-size="13.0000" ><![CDATA[O]]></text>
</g>
<g transform="matrix(1.0000 0.0000 0.0000 1.0000 336.5972 53.2442)">
<text font-family="Arial" fill="#000000" style ="white-space:pre;" font-weight="400" text-anchor="start" x="0.0000" y="0.0000" font-size="13.0000" ><![CDATA[c]]></text>
</g>
<g transform="matrix(1.0000 0.0000 0.0000 1.0000 343.2641 53.2442)">
<text font-family="Arial" fill="#000000" style ="white-space:pre;" font-weight="400" text-anchor="start" x="0.0000" y="0.0000" font-size="13.0000" ><![CDATA[t ]]></text>
</g>
<g transform="matrix(1.0000 0.0000 0.0000 1.0000 350.6732 53.2442)">
<text font-family="Arial" fill="#000000" style ="white-space:pre;" font-weight="400" text-anchor="start" x="0.0000" y="0.0000" font-size="13.0000" ><![CDATA[1]]></text>
</g>
<g transform="matrix(0.0625 0.0000 0.0000 0.0625 0.0000 0.0000)">
<path d="M 24.0000,1083.0000 L 24.0000,1687.0000 L 4862.0000,1687.0000 L 4862.0000,1083.0000 L 24.0000,1083.0000 Z" stroke-width="1px" stroke="#FFFFFF"  fill="#FFFFFF" />
</g>
<g transform="matrix(1.0000 0.0000 0.0000 1.0000 0.0000 0.0000)">
</g>
<g transform="matrix(0.0625 0.0000 0.0000 0.0625 0.0000 0.0000)">
<path d="M 24.0000,1687.0000 L 4862.0000,1687.0000 L 4862.0000,1083.0000 L 24.0000,1083.0000 L 24.0000,1687.0000 Z" stroke="#000000" stroke-width="16.0000"  stroke-linecap="round"  stroke-linejoin="round" fill="none" />
</g>
<g transform="matrix(1.0000 0.0000 0.0000 1.0000 0.0000 0.0000)">
</g>
<g transform="matrix(1.0000 0.0000 0.0000 1.0000 118.1632 91.0394)">
<text font-family="Arial" fill="#000000" style ="white-space:pre;" font-weight="400" text-anchor="start" x="0.0000" y="0.0000" font-size="13.0000" ><![CDATA[Buffer Size]]></text>
</g>
<g transform="matrix(1.0000 0.0000 0.0000 1.0000 183.3792 92.8818)">
<text font-family="Arial" fill="#000000" style ="white-space:pre;" font-weight="400" text-anchor="start" x="0.0000" y="0.0000" font-size="9.0000" ><![CDATA[1]]></text>
</g>
<g transform="matrix(0.0625 0.0000 0.0000 0.0625 0.0000 0.0000)">
<path d="M 3048.0000,1687.0000 L 3048.0000,2292.0000 L 4862.0000,2292.0000 L 4862.0000,1687.0000 L 3048.0000,1687.0000 Z" stroke-width="1px" stroke="#FFFFFF"  fill="#FFFFFF" />
</g>
<g transform="matrix(1.0000 0.0000 0.0000 1.0000 0.0000 0.0000)">
</g>
<g transform="matrix(0.0625 0.0000 0.0000 0.0625 0.0000 0.0000)">
<path d="M 3048.0000,2292.0000 L 4862.0000,2292.0000 L 4862.0000,1687.0000 L 3048.0000,1687.0000 L 3048.0000,2292.0000 Z" stroke="#000000" stroke-width="16.0000"  stroke-linecap="round"  stroke-linejoin="round" fill="none" />
</g>
<g transform="matrix(1.0000 0.0000 0.0000 1.0000 0.0000 0.0000)">
</g>
<g transform="matrix(1.0000 0.0000 0.0000 1.0000 223.0330 128.8347)">
<text font-family="Arial" fill="#000000" style ="white-space:pre;" font-weight="400" text-anchor="start" x="0.0000" y="0.0000" font-size="13.0000" ><![CDATA[LCG ID]]></text>
</g>
<g transform="matrix(1.0000 0.0000 0.0000 1.0000 267.4863 130.6771)">
<text font-family="Arial" fill="#000000" style ="white-space:pre;" font-weight="400" text-anchor="start" x="0.0000" y="0.0000" font-size="9.0000" ><![CDATA[2]]></text>
</g>
<g transform="matrix(0.0625 0.0000 0.0000 0.0625 0.0000 0.0000)">
<path d="M 24.0000,1687.0000 L 24.0000,2292.0000 L 3048.0000,2292.0000 L 3048.0000,1687.0000 L 24.0000,1687.0000 Z" stroke-width="1px" stroke="#FFFFFF"  fill="#FFFFFF" />
</g>
<g transform="matrix(1.0000 0.0000 0.0000 1.0000 0.0000 0.0000)">
</g>
<g transform="matrix(0.0625 0.0000 0.0000 0.0625 0.0000 0.0000)">
<path d="M 24.0000,2292.0000 L 3048.0000,2292.0000 L 3048.0000,1687.0000 L 24.0000,1687.0000 L 24.0000,2292.0000 Z" stroke="#000000" stroke-width="16.0000"  stroke-linecap="round"  stroke-linejoin="round" fill="none" />
</g>
<g transform="matrix(1.0000 0.0000 0.0000 1.0000 0.0000 0.0000)">
</g>
<g transform="matrix(1.0000 0.0000 0.0000 1.0000 42.5641 128.8347)">
<text font-family="Arial" fill="#000000" style ="white-space:pre;" font-weight="400" text-anchor="start" x="0.0000" y="0.0000" font-size="13.0000" ><![CDATA[Destination Index]]></text>
</g>
<g transform="matrix(1.0000 0.0000 0.0000 1.0000 145.5928 130.6771)">
<text font-family="Arial" fill="#000000" style ="white-space:pre;" font-weight="400" text-anchor="start" x="0.0000" y="0.0000" font-size="9.0000" ><![CDATA[2]]></text>
</g>
<g transform="matrix(0.0625 0.0000 0.0000 0.0625 0.0000 0.0000)">
<path d="M 24.0000,2292.0000 L 24.0000,2897.0000 L 4862.0000,2897.0000 L 4862.0000,2292.0000 L 24.0000,2292.0000 Z" stroke-width="1px" stroke="#FFFFFF"  fill="#FFFFFF" />
</g>
<g transform="matrix(1.0000 0.0000 0.0000 1.0000 0.0000 0.0000)">
</g>
<g transform="matrix(0.0625 0.0000 0.0000 0.0625 0.0000 0.0000)">
<path d="M 24.0000,2897.0000 L 4862.0000,2897.0000 L 4862.0000,2292.0000 L 24.0000,2292.0000 L 24.0000,2897.0000 Z" stroke="#000000" stroke-width="16.0000"  stroke-linecap="round"  stroke-linejoin="round" fill="none" />
</g>
<g transform="matrix(1.0000 0.0000 0.0000 1.0000 0.0000 0.0000)">
</g>
<g transform="matrix(1.0000 0.0000 0.0000 1.0000 118.1632 166.6300)">
<text font-family="Arial" fill="#000000" style ="white-space:pre;" font-weight="400" text-anchor="start" x="0.0000" y="0.0000" font-size="13.0000" ><![CDATA[Buffer Size]]></text>
</g>
<g transform="matrix(1.0000 0.0000 0.0000 1.0000 183.3792 168.4724)">
<text font-family="Arial" fill="#000000" style ="white-space:pre;" font-weight="400" text-anchor="start" x="0.0000" y="0.0000" font-size="9.0000" ><![CDATA[2]]></text>
</g>
<g transform="matrix(1.0000 0.0000 0.0000 1.0000 146.1132 206.0252)">
<text font-family="Calibri" fill="#000000" style ="white-space:pre;" font-weight="400" text-anchor="start" x="0.0000" y="0.0000" font-size="19.0000" ><![CDATA[...]]></text>
</g>
<g transform="matrix(1.0000 0.0000 0.0000 1.0000 326.2261 91.0394)">
<text font-family="Arial" fill="#000000" style ="white-space:pre;" font-weight="400" text-anchor="start" x="0.0000" y="0.0000" font-size="13.0000" ><![CDATA[O]]></text>
</g>
<g transform="matrix(1.0000 0.0000 0.0000 1.0000 336.5972 91.0394)">
<text font-family="Arial" fill="#000000" style ="white-space:pre;" font-weight="400" text-anchor="start" x="0.0000" y="0.0000" font-size="13.0000" ><![CDATA[c]]></text>
</g>
<g transform="matrix(1.0000 0.0000 0.0000 1.0000 343.2641 91.0394)">
<text font-family="Arial" fill="#000000" style ="white-space:pre;" font-weight="400" text-anchor="start" x="0.0000" y="0.0000" font-size="13.0000" ><![CDATA[t ]]></text>
</g>
<g transform="matrix(1.0000 0.0000 0.0000 1.0000 350.6732 91.0394)">
<text font-family="Arial" fill="#000000" style ="white-space:pre;" font-weight="400" text-anchor="start" x="0.0000" y="0.0000" font-size="13.0000" ><![CDATA[2]]></text>
</g>
<g transform="matrix(1.0000 0.0000 0.0000 1.0000 326.2261 128.8347)">
<text font-family="Arial" fill="#000000" style ="white-space:pre;" font-weight="400" text-anchor="start" x="0.0000" y="0.0000" font-size="13.0000" ><![CDATA[O]]></text>
</g>
<g transform="matrix(1.0000 0.0000 0.0000 1.0000 336.5972 128.8347)">
<text font-family="Arial" fill="#000000" style ="white-space:pre;" font-weight="400" text-anchor="start" x="0.0000" y="0.0000" font-size="13.0000" ><![CDATA[c]]></text>
</g>
<g transform="matrix(1.0000 0.0000 0.0000 1.0000 343.2641 128.8347)">
<text font-family="Arial" fill="#000000" style ="white-space:pre;" font-weight="400" text-anchor="start" x="0.0000" y="0.0000" font-size="13.0000" ><![CDATA[t ]]></text>
</g>
<g transform="matrix(1.0000 0.0000 0.0000 1.0000 350.6732 128.8347)">
<text font-family="Arial" fill="#000000" style ="white-space:pre;" font-weight="400" text-anchor="start" x="0.0000" y="0.0000" font-size="13.0000" ><![CDATA[3]]></text>
</g>
<g transform="matrix(1.0000 0.0000 0.0000 1.0000 326.2261 166.6300)">
<text font-family="Arial" fill="#000000" style ="white-space:pre;" font-weight="400" text-anchor="start" x="0.0000" y="0.0000" font-size="13.0000" ><![CDATA[O]]></text>
</g>
<g transform="matrix(1.0000 0.0000 0.0000 1.0000 336.5972 166.6300)">
<text font-family="Arial" fill="#000000" style ="white-space:pre;" font-weight="400" text-anchor="start" x="0.0000" y="0.0000" font-size="13.0000" ><![CDATA[c]]></text>
</g>
<g transform="matrix(1.0000 0.0000 0.0000 1.0000 343.2641 166.6300)">
<text font-family="Arial" fill="#000000" style ="white-space:pre;" font-weight="400" text-anchor="start" x="0.0000" y="0.0000" font-size="13.0000" ><![CDATA[t ]]></text>
</g>
<g transform="matrix(1.0000 0.0000 0.0000 1.0000 350.6732 166.6300)">
<text font-family="Arial" fill="#000000" style ="white-space:pre;" font-weight="400" text-anchor="start" x="0.0000" y="0.0000" font-size="13.0000" ><![CDATA[4]]></text>
</g>
<g transform="matrix(0.0625 0.0000 0.0000 0.0625 0.0000 0.0000)">
<path d="M 3048.0000,3502.0000 L 3048.0000,4106.0000 L 4862.0000,4106.0000 L 4862.0000,3502.0000 L 3048.0000,3502.0000 Z" stroke-width="1px" stroke="#FFFFFF"  fill="#FFFFFF" />
</g>
<g transform="matrix(1.0000 0.0000 0.0000 1.0000 0.0000 0.0000)">
</g>
<g transform="matrix(0.0625 0.0000 0.0000 0.0625 0.0000 0.0000)">
<path d="M 3048.0000,4106.0000 L 4862.0000,4106.0000 L 4862.0000,3502.0000 L 3048.0000,3502.0000 L 3048.0000,4106.0000 Z" stroke="#000000" stroke-width="16.0000"  stroke-linecap="round"  stroke-linejoin="round" fill="none" />
</g>
<g transform="matrix(1.0000 0.0000 0.0000 1.0000 0.0000 0.0000)">
</g>
<g transform="matrix(1.0000 0.0000 0.0000 1.0000 222.3138 242.2205)">
<text font-family="Arial" fill="#000000" style ="white-space:pre;" font-weight="400" text-anchor="start" x="0.0000" y="0.0000" font-size="13.0000" ><![CDATA[LCG ID]]></text>
</g>
<g transform="matrix(1.0000 0.0000 0.0000 1.0000 266.7670 244.0629)">
<text font-family="Arial" fill="#000000" style ="white-space:pre;" font-weight="400" text-anchor="start" x="0.0000" y="0.0000" font-size="9.0000" ><![CDATA[N]]></text>
</g>
<g transform="matrix(0.0625 0.0000 0.0000 0.0625 0.0000 0.0000)">
<path d="M 24.0000,3502.0000 L 24.0000,4106.0000 L 3048.0000,4106.0000 L 3048.0000,3502.0000 L 24.0000,3502.0000 Z" stroke-width="1px" stroke="#FFFFFF"  fill="#FFFFFF" />
</g>
<g transform="matrix(1.0000 0.0000 0.0000 1.0000 0.0000 0.0000)">
</g>
<g transform="matrix(0.0625 0.0000 0.0000 0.0625 0.0000 0.0000)">
<path d="M 24.0000,4106.0000 L 3048.0000,4106.0000 L 3048.0000,3502.0000 L 24.0000,3502.0000 L 24.0000,4106.0000 Z" stroke="#000000" stroke-width="16.0000"  stroke-linecap="round"  stroke-linejoin="round" fill="none" />
</g>
<g transform="matrix(1.0000 0.0000 0.0000 1.0000 0.0000 0.0000)">
</g>
<g transform="matrix(1.0000 0.0000 0.0000 1.0000 41.8448 242.2205)">
<text font-family="Arial" fill="#000000" style ="white-space:pre;" font-weight="400" text-anchor="start" x="0.0000" y="0.0000" font-size="13.0000" ><![CDATA[Destination Index]]></text>
</g>
<g transform="matrix(1.0000 0.0000 0.0000 1.0000 144.8735 244.0629)">
<text font-family="Arial" fill="#000000" style ="white-space:pre;" font-weight="400" text-anchor="start" x="0.0000" y="0.0000" font-size="9.0000" ><![CDATA[N]]></text>
</g>
<g transform="matrix(0.0625 0.0000 0.0000 0.0625 0.0000 0.0000)">
<path d="M 24.0000,4106.0000 L 24.0000,4711.0000 L 4862.0000,4711.0000 L 4862.0000,4106.0000 L 24.0000,4106.0000 Z" stroke-width="1px" stroke="#FFFFFF"  fill="#FFFFFF" />
</g>
<g transform="matrix(1.0000 0.0000 0.0000 1.0000 0.0000 0.0000)">
<defs><clipPath id="clip-1804289383"><path d="M 0.0000,0.0000 L 381.0000,0.0000 L 381.0000,296.0000 L 0.0000,296.0000 L 0.0000,0.0000 Z Z" /></clipPath></defs>
</g>
<g transform="matrix(0.0625 0.0000 0.0000 0.0625 0.0000 0.0000)">
<path  clip-path="url(#clip-1804289383)" d="M 24.0000,4711.0000 L 4862.0000,4711.0000 L 4862.0000,4106.0000 L 24.0000,4106.0000 L 24.0000,4711.0000 Z" stroke="#000000" stroke-width="16.0000"  stroke-linecap="round"  stroke-linejoin="round" fill="none" />
</g>
<g transform="matrix(1.0000 0.0000 0.0000 1.0000 0.0000 0.0000)">
</g>
<g transform="matrix(1.0000 0.0000 0.0000 1.0000 117.4440 280.0158)">
<text font-family="Arial" fill="#000000" style ="white-space:pre;" font-weight="400" text-anchor="start" x="0.0000" y="0.0000" font-size="13.0000" ><![CDATA[Buffer Size]]></text>
</g>
<g transform="matrix(1.0000 0.0000 0.0000 1.0000 182.6599 281.8582)">
<text font-family="Arial" fill="#000000" style ="white-space:pre;" font-weight="400" text-anchor="start" x="0.0000" y="0.0000" font-size="9.0000" ><![CDATA[N]]></text>
</g>
<g transform="matrix(1.0000 0.0000 0.0000 1.0000 315.4840 242.2205)">
<text font-family="Arial" fill="#000000" style ="white-space:pre;" font-weight="400" text-anchor="start" x="0.0000" y="0.0000" font-size="13.0000" ><![CDATA[O]]></text>
</g>
<g transform="matrix(1.0000 0.0000 0.0000 1.0000 325.8551 242.2205)">
<text font-family="Arial" fill="#000000" style ="white-space:pre;" font-weight="400" text-anchor="start" x="0.0000" y="0.0000" font-size="13.0000" ><![CDATA[c]]></text>
</g>
<g transform="matrix(1.0000 0.0000 0.0000 1.0000 332.5220 242.2205)">
<text font-family="Arial" fill="#000000" style ="white-space:pre;" font-weight="400" text-anchor="start" x="0.0000" y="0.0000" font-size="13.0000" ><![CDATA[t ]]></text>
</g>
<g transform="matrix(1.0000 0.0000 0.0000 1.0000 339.9312 242.2205)">
<text font-family="Arial" fill="#000000" style ="white-space:pre;" font-weight="400" text-anchor="start" x="0.0000" y="0.0000" font-size="13.0000" ><![CDATA[2]]></text>
</g>
<g transform="matrix(1.0000 0.0000 0.0000 1.0000 347.3466 242.2205)">
<text font-family="Arial" fill="#000000" style ="white-space:pre;" font-weight="400" text-anchor="start" x="0.0000" y="0.0000" font-size="13.0000" ><![CDATA[N]]></text>
</g>
<g transform="matrix(1.0000 0.0000 0.0000 1.0000 356.9754 242.2205)">
<text font-family="Arial" fill="#000000" style ="white-space:pre;" font-weight="400" text-anchor="start" x="0.0000" y="0.0000" font-size="13.0000" ><![CDATA[-]]></text>
</g>
<g transform="matrix(1.0000 0.0000 0.0000 1.0000 361.4153 242.2205)">
<text font-family="Arial" fill="#000000" style ="white-space:pre;" font-weight="400" text-anchor="start" x="0.0000" y="0.0000" font-size="13.0000" ><![CDATA[1]]></text>
</g>
<g transform="matrix(1.0000 0.0000 0.0000 1.0000 321.4119 280.0158)">
<text font-family="Arial" fill="#000000" style ="white-space:pre;" font-weight="400" text-anchor="start" x="0.0000" y="0.0000" font-size="13.0000" ><![CDATA[O]]></text>
</g>
<g transform="matrix(1.0000 0.0000 0.0000 1.0000 331.7830 280.0158)">
<text font-family="Arial" fill="#000000" style ="white-space:pre;" font-weight="400" text-anchor="start" x="0.0000" y="0.0000" font-size="13.0000" ><![CDATA[c]]></text>
</g>
<g transform="matrix(1.0000 0.0000 0.0000 1.0000 338.4499 280.0158)">
<text font-family="Arial" fill="#000000" style ="white-space:pre;" font-weight="400" text-anchor="start" x="0.0000" y="0.0000" font-size="13.0000" ><![CDATA[t ]]></text>
</g>
<g transform="matrix(1.0000 0.0000 0.0000 1.0000 345.8590 280.0158)">
<text font-family="Arial" fill="#000000" style ="white-space:pre;" font-weight="400" text-anchor="start" x="0.0000" y="0.0000" font-size="13.0000" ><![CDATA[2]]></text>
</g>
<g transform="matrix(1.0000 0.0000 0.0000 1.0000 353.2744 280.0158)">
<text font-family="Arial" fill="#000000" style ="white-space:pre;" font-weight="400" text-anchor="start" x="0.0000" y="0.0000" font-size="13.0000" ><![CDATA[N]]></text>
</g>
</g>
</svg>
