<?xml version="1.0"  encoding="UTF-8" standalone="no"?>
<svg version="1.1" xmlns="http://www.w3.org/2000/svg" xmlns:xlink="http://www.w3.org/1999/xlink" width="474.0000" height="404.0000">
<g transform="translate(-45.0000, 2.0000)">
<g transform="matrix(0.0625 0.0000 0.0000 0.0625 0.0000 0.0000)">
<path d="M 1496.0000,-4.0000 L 1496.0000,601.0000 L 2705.0000,601.0000 L 2705.0000,-4.0000 L 1496.0000,-4.0000 Z" stroke-width="1px" stroke="#E8EEF7"  fill="#E8EEF7" />
</g>
<g transform="matrix(1.0000 0.0000 0.0000 1.0000 0.0000 0.0000)">
</g>
<g transform="matrix(0.0625 0.0000 0.0000 0.0625 0.0000 0.0000)">
<path d="M 1496.0000,601.0000 L 2705.0000,601.0000 L 2705.0000,-4.0000 L 1496.0000,-4.0000 L 1496.0000,601.0000 Z" stroke="#000000" stroke-width="5.0000"  stroke-linecap="round"  stroke-linejoin="round" fill="none" />
</g>
<g transform="matrix(1.0000 0.0000 0.0000 1.0000 0.0000 0.0000)">
<text font-family="Arial" fill="#000000" style ="white-space:pre;" font-weight="400" text-anchor="start" x="116.0000" y="23.0000" font-size="16.0000" ><![CDATA[gNB]]></text>
</g>
<g transform="matrix(0.0625 0.0000 0.0000 0.0625 0.0000 0.0000)">
<path d="M 7076.0000,99.0000 L 7076.0000,704.0000 L 8285.0000,704.0000 L 8285.0000,99.0000 L 7076.0000,99.0000 Z" stroke-width="1px" stroke="#E8EEF7"  fill="#E8EEF7" />
</g>
<g transform="matrix(1.0000 0.0000 0.0000 1.0000 0.0000 0.0000)">
</g>
<g transform="matrix(0.0625 0.0000 0.0000 0.0625 0.0000 0.0000)">
<path d="M 7076.0000,704.0000 L 8285.0000,704.0000 L 8285.0000,99.0000 L 7076.0000,99.0000 L 7076.0000,704.0000 Z" stroke="#000000" stroke-width="5.0000"  stroke-linecap="round"  stroke-linejoin="round" fill="none" />
</g>
<g transform="matrix(1.0000 0.0000 0.0000 1.0000 0.0000 0.0000)">
<text font-family="Arial" fill="#000000" style ="white-space:pre;" font-weight="400" text-anchor="start" x="455.0000" y="30.0000" font-size="16.0000" ><![CDATA[UPGW]]></text>
</g>
<g transform="matrix(0.0625 0.0000 0.0000 0.0625 0.0000 0.0000)">
<path d="M 2093.0000,601.0000 L 2093.0000,6407.0000 " stroke="#000000" stroke-width="5.0000"  stroke-linecap="round"  stroke-linejoin="round" fill="none" />
</g>
<g transform="matrix(1.0000 0.0000 0.0000 1.0000 0.0000 0.0000)">
</g>
<g transform="matrix(0.0625 0.0000 0.0000 0.0625 0.0000 0.0000)">
<path d="M 7796.0000,704.0000 L 7796.0000,6407.0000 " stroke="#000000" stroke-width="5.0000"  stroke-linecap="round"  stroke-linejoin="round" fill="none" />
</g>
<g transform="matrix(1.0000 0.0000 0.0000 1.0000 0.0000 0.0000)">
</g>
<g transform="matrix(0.0625 0.0000 0.0000 0.0625 0.0000 0.0000)">
<path d="M 746.0000,4416.0000 L 8247.0000,4416.0000 L 8247.0000,1004.0000 L 746.0000,1004.0000 L 746.0000,4416.0000 Z" stroke="#000000" stroke-width="15.0000"  stroke-linecap="round"  stroke-linejoin="round" fill="none" />
</g>
<g transform="matrix(1.0000 0.0000 0.0000 1.0000 0.0000 0.0000)">
</g>
<g transform="matrix(0.0625 0.0000 0.0000 0.0625 0.0000 0.0000)">
<path d="M 4614.0000,99.0000 L 4614.0000,704.0000 L 5824.0000,704.0000 L 5824.0000,99.0000 L 4614.0000,99.0000 Z" stroke-width="1px" stroke="#E8EEF7"  fill="#E8EEF7" />
</g>
<g transform="matrix(1.0000 0.0000 0.0000 1.0000 0.0000 0.0000)">
</g>
<g transform="matrix(0.0625 0.0000 0.0000 0.0625 0.0000 0.0000)">
<path d="M 4614.0000,704.0000 L 5824.0000,704.0000 L 5824.0000,99.0000 L 4614.0000,99.0000 L 4614.0000,704.0000 Z" stroke="#000000" stroke-width="5.0000"  stroke-linecap="round"  stroke-linejoin="round" fill="none" />
</g>
<g transform="matrix(1.0000 0.0000 0.0000 1.0000 0.0000 0.0000)">
<text font-family="Arial" fill="#000000" style ="white-space:pre;" font-weight="400" text-anchor="start" x="301.0000" y="30.0000" font-size="16.0000" ><![CDATA[NG CP]]></text>
</g>
<g transform="matrix(0.0625 0.0000 0.0000 0.0625 0.0000 0.0000)">
<path d="M 5275.0000,704.0000 L 5275.0000,6407.0000 " stroke="#000000" stroke-width="5.0000"  stroke-linecap="round"  stroke-linejoin="round" fill="none" />
</g>
<g transform="matrix(1.0000 0.0000 0.0000 1.0000 0.0000 0.0000)">
<text font-family="Arial" fill="#000000" style ="white-space:pre;" font-weight="400" text-anchor="start" x="206.0000" y="315.0000" font-size="11.0000" ><![CDATA[UL data]]></text>
</g>
<g transform="matrix(0.0625 0.0000 0.0000 0.0625 0.0000 0.0000)">
<path d="M 2093.0000,5199.0000 L 2093.0000,5199.0000 C 2097.0000,5199.0000 2101.0000,5202.0000 2101.0000,5207.0000 C 2101.0000,5211.0000 2097.0000,5215.0000 2093.0000,5215.0000 L 2093.0000,5215.0000 C 2088.0000,5215.0000 2085.0000,5211.0000 2085.0000,5207.0000 C 2085.0000,5202.0000 2088.0000,5199.0000 2093.0000,5199.0000 Z M 2173.0000,5199.0000 L 2173.0000,5199.0000 C 2177.0000,5199.0000 2181.0000,5202.0000 2181.0000,5207.0000 C 2181.0000,5211.0000 2177.0000,5215.0000 2173.0000,5215.0000 L 2173.0000,5215.0000 C 2168.0000,5215.0000 2165.0000,5211.0000 2165.0000,5207.0000 C 2165.0000,5202.0000 2168.0000,5199.0000 2173.0000,5199.0000 Z M 2253.0000,5199.0000 L 2253.0000,5199.0000 C 2257.0000,5199.0000 2261.0000,5202.0000 2261.0000,5207.0000 C 2261.0000,5211.0000 2257.0000,5215.0000 2253.0000,5215.0000 L 2253.0000,5215.0000 C 2248.0000,5215.0000 2245.0000,5211.0000 2245.0000,5207.0000 C 2245.0000,5202.0000 2248.0000,5199.0000 2253.0000,5199.0000 Z M 2333.0000,5199.0000 L 2333.0000,5199.0000 C 2337.0000,5199.0000 2341.0000,5202.0000 2341.0000,5207.0000 C 2341.0000,5211.0000 2337.0000,5215.0000 2333.0000,5215.0000 L 2333.0000,5215.0000 C 2328.0000,5215.0000 2325.0000,5211.0000 2325.0000,5207.0000 C 2325.0000,5202.0000 2328.0000,5199.0000 2333.0000,5199.0000 Z M 2413.0000,5199.0000 L 2413.0000,5199.0000 C 2417.0000,5199.0000 2421.0000,5202.0000 2421.0000,5207.0000 C 2421.0000,5211.0000 2417.0000,5215.0000 2413.0000,5215.0000 L 2413.0000,5215.0000 C 2408.0000,5215.0000 2405.0000,5211.0000 2405.0000,5207.0000 C 2405.0000,5202.0000 2408.0000,5199.0000 2413.0000,5199.0000 Z M 2493.0000,5199.0000 L 2493.0000,5199.0000 C 2497.0000,5199.0000 2501.0000,5202.0000 2501.0000,5207.0000 C 2501.0000,5211.0000 2497.0000,5215.0000 2493.0000,5215.0000 L 2493.0000,5215.0000 C 2488.0000,5215.0000 2485.0000,5211.0000 2485.0000,5207.0000 C 2485.0000,5202.0000 2488.0000,5199.0000 2493.0000,5199.0000 Z M 2573.0000,5199.0000 L 2573.0000,5199.0000 C 2577.0000,5199.0000 2581.0000,5202.0000 2581.0000,5207.0000 C 2581.0000,5211.0000 2577.0000,5215.0000 2573.0000,5215.0000 L 2573.0000,5215.0000 C 2568.0000,5215.0000 2565.0000,5211.0000 2565.0000,5207.0000 C 2565.0000,5202.0000 2568.0000,5199.0000 2573.0000,5199.0000 Z M 2653.0000,5199.0000 L 2653.0000,5199.0000 C 2657.0000,5199.0000 2661.0000,5202.0000 2661.0000,5207.0000 C 2661.0000,5211.0000 2657.0000,5215.0000 2653.0000,5215.0000 L 2653.0000,5215.0000 C 2648.0000,5215.0000 2645.0000,5211.0000 2645.0000,5207.0000 C 2645.0000,5202.0000 2648.0000,5199.0000 2653.0000,5199.0000 Z M 2733.0000,5199.0000 L 2733.0000,5199.0000 C 2737.0000,5199.0000 2741.0000,5202.0000 2741.0000,5207.0000 C 2741.0000,5211.0000 2737.0000,5215.0000 2733.0000,5215.0000 L 2733.0000,5215.0000 C 2728.0000,5215.0000 2725.0000,5211.0000 2725.0000,5207.0000 C 2725.0000,5202.0000 2728.0000,5199.0000 2733.0000,5199.0000 Z M 2813.0000,5199.0000 L 2813.0000,5199.0000 C 2817.0000,5199.0000 2821.0000,5202.0000 2821.0000,5207.0000 C 2821.0000,5211.0000 2817.0000,5215.0000 2813.0000,5215.0000 L 2813.0000,5215.0000 C 2808.0000,5215.0000 2805.0000,5211.0000 2805.0000,5207.0000 C 2805.0000,5202.0000 2808.0000,5199.0000 2813.0000,5199.0000 Z M 2893.0000,5199.0000 L 2893.0000,5199.0000 C 2897.0000,5199.0000 2901.0000,5202.0000 2901.0000,5207.0000 C 2901.0000,5211.0000 2897.0000,5215.0000 2893.0000,5215.0000 L 2893.0000,5215.0000 C 2888.0000,5215.0000 2885.0000,5211.0000 2885.0000,5207.0000 C 2885.0000,5202.0000 2888.0000,5199.0000 2893.0000,5199.0000 Z M 2973.0000,5199.0000 L 2973.0000,5199.0000 C 2977.0000,5199.0000 2981.0000,5202.0000 2981.0000,5207.0000 C 2981.0000,5211.0000 2977.0000,5215.0000 2973.0000,5215.0000 L 2973.0000,5215.0000 C 2968.0000,5215.0000 2965.0000,5211.0000 2965.0000,5207.0000 C 2965.0000,5202.0000 2968.0000,5199.0000 2973.0000,5199.0000 Z M 3053.0000,5199.0000 L 3053.0000,5199.0000 C 3057.0000,5199.0000 3061.0000,5202.0000 3061.0000,5207.0000 C 3061.0000,5211.0000 3057.0000,5215.0000 3053.0000,5215.0000 L 3053.0000,5215.0000 C 3048.0000,5215.0000 3045.0000,5211.0000 3045.0000,5207.0000 C 3045.0000,5202.0000 3048.0000,5199.0000 3053.0000,5199.0000 Z M 3133.0000,5199.0000 L 3133.0000,5199.0000 C 3137.0000,5199.0000 3141.0000,5202.0000 3141.0000,5207.0000 C 3141.0000,5211.0000 3137.0000,5215.0000 3133.0000,5215.0000 L 3133.0000,5215.0000 C 3128.0000,5215.0000 3125.0000,5211.0000 3125.0000,5207.0000 C 3125.0000,5202.0000 3128.0000,5199.0000 3133.0000,5199.0000 Z M 3213.0000,5199.0000 L 3213.0000,5199.0000 C 3217.0000,5199.0000 3221.0000,5202.0000 3221.0000,5207.0000 C 3221.0000,5211.0000 3217.0000,5215.0000 3213.0000,5215.0000 L 3213.0000,5215.0000 C 3208.0000,5215.0000 3205.0000,5211.0000 3205.0000,5207.0000 C 3205.0000,5202.0000 3208.0000,5199.0000 3213.0000,5199.0000 Z M 3293.0000,5199.0000 L 3293.0000,5199.0000 C 3297.0000,5199.0000 3301.0000,5202.0000 3301.0000,5207.0000 C 3301.0000,5211.0000 3297.0000,5215.0000 3293.0000,5215.0000 L 3293.0000,5215.0000 C 3288.0000,5215.0000 3285.0000,5211.0000 3285.0000,5207.0000 C 3285.0000,5202.0000 3288.0000,5199.0000 3293.0000,5199.0000 Z M 3373.0000,5199.0000 L 3373.0000,5199.0000 C 3377.0000,5199.0000 3381.0000,5202.0000 3381.0000,5207.0000 C 3381.0000,5211.0000 3377.0000,5215.0000 3373.0000,5215.0000 L 3373.0000,5215.0000 C 3368.0000,5215.0000 3365.0000,5211.0000 3365.0000,5207.0000 C 3365.0000,5202.0000 3368.0000,5199.0000 3373.0000,5199.0000 Z M 3453.0000,5199.0000 L 3453.0000,5199.0000 C 3457.0000,5199.0000 3461.0000,5202.0000 3461.0000,5207.0000 C 3461.0000,5211.0000 3457.0000,5215.0000 3453.0000,5215.0000 L 3453.0000,5215.0000 C 3449.0000,5215.0000 3445.0000,5211.0000 3445.0000,5207.0000 C 3445.0000,5202.0000 3449.0000,5199.0000 3453.0000,5199.0000 Z M 3533.0000,5199.0000 L 3533.0000,5199.0000 C 3537.0000,5199.0000 3541.0000,5202.0000 3541.0000,5207.0000 C 3541.0000,5211.0000 3537.0000,5215.0000 3533.0000,5215.0000 L 3533.0000,5215.0000 C 3529.0000,5215.0000 3525.0000,5211.0000 3525.0000,5207.0000 C 3525.0000,5202.0000 3529.0000,5199.0000 3533.0000,5199.0000 Z M 3613.0000,5199.0000 L 3613.0000,5199.0000 C 3617.0000,5199.0000 3621.0000,5202.0000 3621.0000,5207.0000 C 3621.0000,5211.0000 3617.0000,5215.0000 3613.0000,5215.0000 L 3613.0000,5215.0000 C 3609.0000,5215.0000 3605.0000,5211.0000 3605.0000,5207.0000 C 3605.0000,5202.0000 3609.0000,5199.0000 3613.0000,5199.0000 Z M 3693.0000,5199.0000 L 3693.0000,5199.0000 C 3697.0000,5199.0000 3701.0000,5202.0000 3701.0000,5207.0000 C 3701.0000,5211.0000 3697.0000,5215.0000 3693.0000,5215.0000 L 3693.0000,5215.0000 C 3689.0000,5215.0000 3685.0000,5211.0000 3685.0000,5207.0000 C 3685.0000,5202.0000 3689.0000,5199.0000 3693.0000,5199.0000 Z M 3773.0000,5199.0000 L 3773.0000,5199.0000 C 3777.0000,5199.0000 3781.0000,5202.0000 3781.0000,5207.0000 C 3781.0000,5211.0000 3777.0000,5215.0000 3773.0000,5215.0000 L 3773.0000,5215.0000 C 3769.0000,5215.0000 3765.0000,5211.0000 3765.0000,5207.0000 C 3765.0000,5202.0000 3769.0000,5199.0000 3773.0000,5199.0000 Z M 3853.0000,5199.0000 L 3853.0000,5199.0000 C 3857.0000,5199.0000 3861.0000,5202.0000 3861.0000,5207.0000 C 3861.0000,5211.0000 3857.0000,5215.0000 3853.0000,5215.0000 L 3853.0000,5215.0000 C 3849.0000,5215.0000 3845.0000,5211.0000 3845.0000,5207.0000 C 3845.0000,5202.0000 3849.0000,5199.0000 3853.0000,5199.0000 Z M 3933.0000,5199.0000 L 3933.0000,5199.0000 C 3937.0000,5199.0000 3941.0000,5202.0000 3941.0000,5207.0000 C 3941.0000,5211.0000 3937.0000,5215.0000 3933.0000,5215.0000 L 3933.0000,5215.0000 C 3929.0000,5215.0000 3925.0000,5211.0000 3925.0000,5207.0000 C 3925.0000,5202.0000 3929.0000,5199.0000 3933.0000,5199.0000 Z M 4013.0000,5199.0000 L 4013.0000,5199.0000 C 4017.0000,5199.0000 4021.0000,5202.0000 4021.0000,5207.0000 C 4021.0000,5211.0000 4017.0000,5215.0000 4013.0000,5215.0000 L 4013.0000,5215.0000 C 4009.0000,5215.0000 4005.0000,5211.0000 4005.0000,5207.0000 C 4005.0000,5202.0000 4009.0000,5199.0000 4013.0000,5199.0000 Z M 4093.0000,5199.0000 L 4093.0000,5199.0000 C 4097.0000,5199.0000 4101.0000,5202.0000 4101.0000,5207.0000 C 4101.0000,5211.0000 4097.0000,5215.0000 4093.0000,5215.0000 L 4093.0000,5215.0000 C 4089.0000,5215.0000 4085.0000,5211.0000 4085.0000,5207.0000 C 4085.0000,5202.0000 4089.0000,5199.0000 4093.0000,5199.0000 Z M 4173.0000,5199.0000 L 4173.0000,5199.0000 C 4178.0000,5199.0000 4181.0000,5202.0000 4181.0000,5207.0000 C 4181.0000,5211.0000 4178.0000,5215.0000 4173.0000,5215.0000 L 4173.0000,5215.0000 C 4169.0000,5215.0000 4165.0000,5211.0000 4165.0000,5207.0000 C 4165.0000,5202.0000 4169.0000,5199.0000 4173.0000,5199.0000 Z M 4253.0000,5199.0000 L 4253.0000,5199.0000 C 4258.0000,5199.0000 4261.0000,5202.0000 4261.0000,5207.0000 C 4261.0000,5211.0000 4258.0000,5215.0000 4253.0000,5215.0000 L 4253.0000,5215.0000 C 4249.0000,5215.0000 4245.0000,5211.0000 4245.0000,5207.0000 C 4245.0000,5202.0000 4249.0000,5199.0000 4253.0000,5199.0000 Z M 4333.0000,5199.0000 L 4333.0000,5199.0000 C 4338.0000,5199.0000 4341.0000,5202.0000 4341.0000,5207.0000 C 4341.0000,5211.0000 4338.0000,5215.0000 4333.0000,5215.0000 L 4333.0000,5215.0000 C 4329.0000,5215.0000 4325.0000,5211.0000 4325.0000,5207.0000 C 4325.0000,5202.0000 4329.0000,5199.0000 4333.0000,5199.0000 Z M 4413.0000,5199.0000 L 4413.0000,5199.0000 C 4418.0000,5199.0000 4421.0000,5202.0000 4421.0000,5207.0000 C 4421.0000,5211.0000 4418.0000,5215.0000 4413.0000,5215.0000 L 4413.0000,5215.0000 C 4409.0000,5215.0000 4405.0000,5211.0000 4405.0000,5207.0000 C 4405.0000,5202.0000 4409.0000,5199.0000 4413.0000,5199.0000 Z M 4493.0000,5199.0000 L 4493.0000,5199.0000 C 4498.0000,5199.0000 4501.0000,5202.0000 4501.0000,5207.0000 C 4501.0000,5211.0000 4498.0000,5215.0000 4493.0000,5215.0000 L 4493.0000,5215.0000 C 4489.0000,5215.0000 4485.0000,5211.0000 4485.0000,5207.0000 C 4485.0000,5202.0000 4489.0000,5199.0000 4493.0000,5199.0000 Z M 4573.0000,5199.0000 L 4573.0000,5199.0000 C 4578.0000,5199.0000 4581.0000,5202.0000 4581.0000,5207.0000 C 4581.0000,5211.0000 4578.0000,5215.0000 4573.0000,5215.0000 L 4573.0000,5215.0000 C 4569.0000,5215.0000 4565.0000,5211.0000 4565.0000,5207.0000 C 4565.0000,5202.0000 4569.0000,5199.0000 4573.0000,5199.0000 Z M 4653.0000,5199.0000 L 4653.0000,5199.0000 C 4658.0000,5199.0000 4661.0000,5202.0000 4661.0000,5207.0000 C 4661.0000,5211.0000 4658.0000,5215.0000 4653.0000,5215.0000 L 4653.0000,5215.0000 C 4649.0000,5215.0000 4645.0000,5211.0000 4645.0000,5207.0000 C 4645.0000,5202.0000 4649.0000,5199.0000 4653.0000,5199.0000 Z M 4733.0000,5199.0000 L 4733.0000,5199.0000 C 4738.0000,5199.0000 4741.0000,5202.0000 4741.0000,5207.0000 C 4741.0000,5211.0000 4738.0000,5215.0000 4733.0000,5215.0000 L 4733.0000,5215.0000 C 4729.0000,5215.0000 4725.0000,5211.0000 4725.0000,5207.0000 C 4725.0000,5202.0000 4729.0000,5199.0000 4733.0000,5199.0000 Z M 4813.0000,5199.0000 L 4813.0000,5199.0000 C 4818.0000,5199.0000 4821.0000,5202.0000 4821.0000,5207.0000 C 4821.0000,5211.0000 4818.0000,5215.0000 4813.0000,5215.0000 L 4813.0000,5215.0000 C 4809.0000,5215.0000 4805.0000,5211.0000 4805.0000,5207.0000 C 4805.0000,5202.0000 4809.0000,5199.0000 4813.0000,5199.0000 Z M 4893.0000,5199.0000 L 4893.0000,5199.0000 C 4898.0000,5199.0000 4901.0000,5202.0000 4901.0000,5207.0000 C 4901.0000,5211.0000 4898.0000,5215.0000 4893.0000,5215.0000 L 4893.0000,5215.0000 C 4889.0000,5215.0000 4885.0000,5211.0000 4885.0000,5207.0000 C 4885.0000,5202.0000 4889.0000,5199.0000 4893.0000,5199.0000 Z M 4973.0000,5199.0000 L 4973.0000,5199.0000 C 4978.0000,5199.0000 4981.0000,5202.0000 4981.0000,5207.0000 C 4981.0000,5211.0000 4978.0000,5215.0000 4973.0000,5215.0000 L 4973.0000,5215.0000 C 4969.0000,5215.0000 4965.0000,5211.0000 4965.0000,5207.0000 C 4965.0000,5202.0000 4969.0000,5199.0000 4973.0000,5199.0000 Z M 5053.0000,5199.0000 L 5053.0000,5199.0000 C 5058.0000,5199.0000 5061.0000,5202.0000 5061.0000,5207.0000 C 5061.0000,5211.0000 5058.0000,5215.0000 5053.0000,5215.0000 L 5053.0000,5215.0000 C 5049.0000,5215.0000 5045.0000,5211.0000 5045.0000,5207.0000 C 5045.0000,5202.0000 5049.0000,5199.0000 5053.0000,5199.0000 Z M 5133.0000,5199.0000 L 5133.0000,5199.0000 C 5138.0000,5199.0000 5141.0000,5202.0000 5141.0000,5207.0000 C 5141.0000,5211.0000 5138.0000,5215.0000 5133.0000,5215.0000 L 5133.0000,5215.0000 C 5129.0000,5215.0000 5125.0000,5211.0000 5125.0000,5207.0000 C 5125.0000,5202.0000 5129.0000,5199.0000 5133.0000,5199.0000 Z M 5213.0000,5199.0000 L 5213.0000,5199.0000 C 5218.0000,5199.0000 5221.0000,5202.0000 5221.0000,5207.0000 C 5221.0000,5211.0000 5218.0000,5215.0000 5213.0000,5215.0000 L 5213.0000,5215.0000 C 5209.0000,5215.0000 5205.0000,5211.0000 5205.0000,5207.0000 C 5205.0000,5202.0000 5209.0000,5199.0000 5213.0000,5199.0000 Z M 5293.0000,5199.0000 L 5293.0000,5199.0000 C 5298.0000,5199.0000 5301.0000,5202.0000 5301.0000,5207.0000 C 5301.0000,5211.0000 5298.0000,5215.0000 5293.0000,5215.0000 L 5293.0000,5215.0000 C 5289.0000,5215.0000 5285.0000,5211.0000 5285.0000,5207.0000 C 5285.0000,5202.0000 5289.0000,5199.0000 5293.0000,5199.0000 Z M 5373.0000,5199.0000 L 5373.0000,5199.0000 C 5378.0000,5199.0000 5381.0000,5202.0000 5381.0000,5207.0000 C 5381.0000,5211.0000 5378.0000,5215.0000 5373.0000,5215.0000 L 5373.0000,5215.0000 C 5369.0000,5215.0000 5365.0000,5211.0000 5365.0000,5207.0000 C 5365.0000,5202.0000 5369.0000,5199.0000 5373.0000,5199.0000 Z M 5453.0000,5199.0000 L 5453.0000,5199.0000 C 5458.0000,5199.0000 5461.0000,5202.0000 5461.0000,5207.0000 C 5461.0000,5211.0000 5458.0000,5215.0000 5453.0000,5215.0000 L 5453.0000,5215.0000 C 5449.0000,5215.0000 5445.0000,5211.0000 5445.0000,5207.0000 C 5445.0000,5202.0000 5449.0000,5199.0000 5453.0000,5199.0000 Z M 5533.0000,5199.0000 L 5533.0000,5199.0000 C 5538.0000,5199.0000 5541.0000,5202.0000 5541.0000,5207.0000 C 5541.0000,5211.0000 5538.0000,5215.0000 5533.0000,5215.0000 L 5533.0000,5215.0000 C 5529.0000,5215.0000 5525.0000,5211.0000 5525.0000,5207.0000 C 5525.0000,5202.0000 5529.0000,5199.0000 5533.0000,5199.0000 Z M 5613.0000,5199.0000 L 5613.0000,5199.0000 C 5618.0000,5199.0000 5621.0000,5202.0000 5621.0000,5207.0000 C 5621.0000,5211.0000 5618.0000,5215.0000 5613.0000,5215.0000 L 5613.0000,5215.0000 C 5609.0000,5215.0000 5605.0000,5211.0000 5605.0000,5207.0000 C 5605.0000,5202.0000 5609.0000,5199.0000 5613.0000,5199.0000 Z M 5693.0000,5199.0000 L 5693.0000,5199.0000 C 5698.0000,5199.0000 5701.0000,5202.0000 5701.0000,5207.0000 C 5701.0000,5211.0000 5698.0000,5215.0000 5693.0000,5215.0000 L 5693.0000,5215.0000 C 5689.0000,5215.0000 5685.0000,5211.0000 5685.0000,5207.0000 C 5685.0000,5202.0000 5689.0000,5199.0000 5693.0000,5199.0000 Z M 5773.0000,5199.0000 L 5773.0000,5199.0000 C 5778.0000,5199.0000 5781.0000,5202.0000 5781.0000,5207.0000 C 5781.0000,5211.0000 5778.0000,5215.0000 5773.0000,5215.0000 L 5773.0000,5215.0000 C 5769.0000,5215.0000 5765.0000,5211.0000 5765.0000,5207.0000 C 5765.0000,5202.0000 5769.0000,5199.0000 5773.0000,5199.0000 Z M 5853.0000,5199.0000 L 5853.0000,5199.0000 C 5858.0000,5199.0000 5861.0000,5202.0000 5861.0000,5207.0000 C 5861.0000,5211.0000 5858.0000,5215.0000 5853.0000,5215.0000 L 5853.0000,5215.0000 C 5849.0000,5215.0000 5845.0000,5211.0000 5845.0000,5207.0000 C 5845.0000,5202.0000 5849.0000,5199.0000 5853.0000,5199.0000 Z M 5933.0000,5199.0000 L 5933.0000,5199.0000 C 5938.0000,5199.0000 5941.0000,5202.0000 5941.0000,5207.0000 C 5941.0000,5211.0000 5938.0000,5215.0000 5933.0000,5215.0000 L 5933.0000,5215.0000 C 5929.0000,5215.0000 5925.0000,5211.0000 5925.0000,5207.0000 C 5925.0000,5202.0000 5929.0000,5199.0000 5933.0000,5199.0000 Z M 6013.0000,5199.0000 L 6013.0000,5199.0000 C 6018.0000,5199.0000 6021.0000,5202.0000 6021.0000,5207.0000 C 6021.0000,5211.0000 6018.0000,5215.0000 6013.0000,5215.0000 L 6013.0000,5215.0000 C 6009.0000,5215.0000 6005.0000,5211.0000 6005.0000,5207.0000 C 6005.0000,5202.0000 6009.0000,5199.0000 6013.0000,5199.0000 Z M 6093.0000,5199.0000 L 6093.0000,5199.0000 C 6098.0000,5199.0000 6101.0000,5202.0000 6101.0000,5207.0000 C 6101.0000,5211.0000 6098.0000,5215.0000 6093.0000,5215.0000 L 6093.0000,5215.0000 C 6089.0000,5215.0000 6085.0000,5211.0000 6085.0000,5207.0000 C 6085.0000,5202.0000 6089.0000,5199.0000 6093.0000,5199.0000 Z M 6173.0000,5199.0000 L 6173.0000,5199.0000 C 6178.0000,5199.0000 6181.0000,5202.0000 6181.0000,5207.0000 C 6181.0000,5211.0000 6178.0000,5215.0000 6173.0000,5215.0000 L 6173.0000,5215.0000 C 6169.0000,5215.0000 6165.0000,5211.0000 6165.0000,5207.0000 C 6165.0000,5202.0000 6169.0000,5199.0000 6173.0000,5199.0000 Z M 6253.0000,5199.0000 L 6253.0000,5199.0000 C 6258.0000,5199.0000 6261.0000,5202.0000 6261.0000,5207.0000 C 6261.0000,5211.0000 6258.0000,5215.0000 6253.0000,5215.0000 L 6253.0000,5215.0000 C 6249.0000,5215.0000 6245.0000,5211.0000 6245.0000,5207.0000 C 6245.0000,5202.0000 6249.0000,5199.0000 6253.0000,5199.0000 Z M 6333.0000,5199.0000 L 6334.0000,5199.0000 C 6338.0000,5199.0000 6342.0000,5202.0000 6342.0000,5207.0000 C 6342.0000,5211.0000 6338.0000,5215.0000 6334.0000,5215.0000 L 6333.0000,5215.0000 C 6329.0000,5215.0000 6325.0000,5211.0000 6325.0000,5207.0000 C 6325.0000,5202.0000 6329.0000,5199.0000 6333.0000,5199.0000 Z M 6414.0000,5199.0000 L 6414.0000,5199.0000 C 6418.0000,5199.0000 6422.0000,5202.0000 6422.0000,5207.0000 C 6422.0000,5211.0000 6418.0000,5215.0000 6414.0000,5215.0000 L 6414.0000,5215.0000 C 6409.0000,5215.0000 6406.0000,5211.0000 6406.0000,5207.0000 C 6406.0000,5202.0000 6409.0000,5199.0000 6414.0000,5199.0000 Z M 6494.0000,5199.0000 L 6494.0000,5199.0000 C 6498.0000,5199.0000 6502.0000,5202.0000 6502.0000,5207.0000 C 6502.0000,5211.0000 6498.0000,5215.0000 6494.0000,5215.0000 L 6494.0000,5215.0000 C 6489.0000,5215.0000 6486.0000,5211.0000 6486.0000,5207.0000 C 6486.0000,5202.0000 6489.0000,5199.0000 6494.0000,5199.0000 Z M 6574.0000,5199.0000 L 6574.0000,5199.0000 C 6578.0000,5199.0000 6582.0000,5202.0000 6582.0000,5207.0000 C 6582.0000,5211.0000 6578.0000,5215.0000 6574.0000,5215.0000 L 6574.0000,5215.0000 C 6569.0000,5215.0000 6566.0000,5211.0000 6566.0000,5207.0000 C 6566.0000,5202.0000 6569.0000,5199.0000 6574.0000,5199.0000 Z M 6654.0000,5199.0000 L 6654.0000,5199.0000 C 6658.0000,5199.0000 6662.0000,5202.0000 6662.0000,5207.0000 C 6662.0000,5211.0000 6658.0000,5215.0000 6654.0000,5215.0000 L 6654.0000,5215.0000 C 6649.0000,5215.0000 6646.0000,5211.0000 6646.0000,5207.0000 C 6646.0000,5202.0000 6649.0000,5199.0000 6654.0000,5199.0000 Z M 6734.0000,5199.0000 L 6734.0000,5199.0000 C 6738.0000,5199.0000 6742.0000,5202.0000 6742.0000,5207.0000 C 6742.0000,5211.0000 6738.0000,5215.0000 6734.0000,5215.0000 L 6734.0000,5215.0000 C 6729.0000,5215.0000 6726.0000,5211.0000 6726.0000,5207.0000 C 6726.0000,5202.0000 6729.0000,5199.0000 6734.0000,5199.0000 Z M 6814.0000,5199.0000 L 6814.0000,5199.0000 C 6818.0000,5199.0000 6822.0000,5202.0000 6822.0000,5207.0000 C 6822.0000,5211.0000 6818.0000,5215.0000 6814.0000,5215.0000 L 6814.0000,5215.0000 C 6809.0000,5215.0000 6806.0000,5211.0000 6806.0000,5207.0000 C 6806.0000,5202.0000 6809.0000,5199.0000 6814.0000,5199.0000 Z M 6894.0000,5199.0000 L 6894.0000,5199.0000 C 6898.0000,5199.0000 6902.0000,5202.0000 6902.0000,5207.0000 C 6902.0000,5211.0000 6898.0000,5215.0000 6894.0000,5215.0000 L 6894.0000,5215.0000 C 6889.0000,5215.0000 6886.0000,5211.0000 6886.0000,5207.0000 C 6886.0000,5202.0000 6889.0000,5199.0000 6894.0000,5199.0000 Z M 6974.0000,5199.0000 L 6974.0000,5199.0000 C 6978.0000,5199.0000 6982.0000,5202.0000 6982.0000,5207.0000 C 6982.0000,5211.0000 6978.0000,5215.0000 6974.0000,5215.0000 L 6974.0000,5215.0000 C 6969.0000,5215.0000 6966.0000,5211.0000 6966.0000,5207.0000 C 6966.0000,5202.0000 6969.0000,5199.0000 6974.0000,5199.0000 Z M 7054.0000,5199.0000 L 7054.0000,5199.0000 C 7058.0000,5199.0000 7062.0000,5202.0000 7062.0000,5207.0000 C 7062.0000,5211.0000 7058.0000,5215.0000 7054.0000,5215.0000 L 7054.0000,5215.0000 C 7049.0000,5215.0000 7046.0000,5211.0000 7046.0000,5207.0000 C 7046.0000,5202.0000 7049.0000,5199.0000 7054.0000,5199.0000 Z M 7134.0000,5199.0000 L 7134.0000,5199.0000 C 7138.0000,5199.0000 7142.0000,5202.0000 7142.0000,5207.0000 C 7142.0000,5211.0000 7138.0000,5215.0000 7134.0000,5215.0000 L 7134.0000,5215.0000 C 7129.0000,5215.0000 7126.0000,5211.0000 7126.0000,5207.0000 C 7126.0000,5202.0000 7129.0000,5199.0000 7134.0000,5199.0000 Z M 7214.0000,5199.0000 L 7214.0000,5199.0000 C 7218.0000,5199.0000 7222.0000,5202.0000 7222.0000,5207.0000 C 7222.0000,5211.0000 7218.0000,5215.0000 7214.0000,5215.0000 L 7214.0000,5215.0000 C 7209.0000,5215.0000 7206.0000,5211.0000 7206.0000,5207.0000 C 7206.0000,5202.0000 7209.0000,5199.0000 7214.0000,5199.0000 Z M 7294.0000,5199.0000 L 7294.0000,5199.0000 C 7298.0000,5199.0000 7302.0000,5202.0000 7302.0000,5207.0000 C 7302.0000,5211.0000 7298.0000,5215.0000 7294.0000,5215.0000 L 7294.0000,5215.0000 C 7289.0000,5215.0000 7286.0000,5211.0000 7286.0000,5207.0000 C 7286.0000,5202.0000 7289.0000,5199.0000 7294.0000,5199.0000 Z M 7374.0000,5199.0000 L 7374.0000,5199.0000 C 7378.0000,5199.0000 7382.0000,5202.0000 7382.0000,5207.0000 C 7382.0000,5211.0000 7378.0000,5215.0000 7374.0000,5215.0000 L 7374.0000,5215.0000 C 7369.0000,5215.0000 7366.0000,5211.0000 7366.0000,5207.0000 C 7366.0000,5202.0000 7369.0000,5199.0000 7374.0000,5199.0000 Z M 7454.0000,5199.0000 L 7454.0000,5199.0000 C 7458.0000,5199.0000 7462.0000,5202.0000 7462.0000,5207.0000 C 7462.0000,5211.0000 7458.0000,5215.0000 7454.0000,5215.0000 L 7454.0000,5215.0000 C 7449.0000,5215.0000 7446.0000,5211.0000 7446.0000,5207.0000 C 7446.0000,5202.0000 7449.0000,5199.0000 7454.0000,5199.0000 Z M 7534.0000,5199.0000 L 7534.0000,5199.0000 C 7538.0000,5199.0000 7542.0000,5202.0000 7542.0000,5207.0000 C 7542.0000,5211.0000 7538.0000,5215.0000 7534.0000,5215.0000 L 7534.0000,5215.0000 C 7529.0000,5215.0000 7526.0000,5211.0000 7526.0000,5207.0000 C 7526.0000,5202.0000 7529.0000,5199.0000 7534.0000,5199.0000 Z M 7614.0000,5199.0000 L 7614.0000,5199.0000 C 7618.0000,5199.0000 7622.0000,5202.0000 7622.0000,5207.0000 C 7622.0000,5211.0000 7618.0000,5215.0000 7614.0000,5215.0000 L 7614.0000,5215.0000 C 7609.0000,5215.0000 7606.0000,5211.0000 7606.0000,5207.0000 C 7606.0000,5202.0000 7609.0000,5199.0000 7614.0000,5199.0000 Z "  fill="#000000" stroke="#000000" stroke-width="16.0000"  stroke-linecap="butt"  stroke-linejoin="bevel" />
</g>
<g transform="matrix(1.0000 0.0000 0.0000 1.0000 0.0000 0.0000)">
</g>
<g transform="matrix(0.0625 0.0000 0.0000 0.0625 0.0000 0.0000)">
<path d="M 7620.0000,5148.0000 L 7796.0000,5207.0000 L 7620.0000,5266.0000 L 7620.0000,5148.0000 Z" stroke-width="1px" stroke="#000000"  fill="#000000" />
</g>
<g transform="matrix(1.0000 0.0000 0.0000 1.0000 0.0000 0.0000)">
</g>
<g transform="matrix(0.0625 0.0000 0.0000 0.0625 0.0000 0.0000)">
<path d="M 2255.0000,5499.0000 L 2255.0000,5499.0000 C 2259.0000,5499.0000 2263.0000,5502.0000 2263.0000,5507.0000 C 2263.0000,5511.0000 2259.0000,5515.0000 2255.0000,5515.0000 L 2255.0000,5515.0000 C 2250.0000,5515.0000 2247.0000,5511.0000 2247.0000,5507.0000 C 2247.0000,5502.0000 2250.0000,5499.0000 2255.0000,5499.0000 Z M 2335.0000,5499.0000 L 2335.0000,5499.0000 C 2339.0000,5499.0000 2343.0000,5502.0000 2343.0000,5507.0000 C 2343.0000,5511.0000 2339.0000,5515.0000 2335.0000,5515.0000 L 2335.0000,5515.0000 C 2330.0000,5515.0000 2327.0000,5511.0000 2327.0000,5507.0000 C 2327.0000,5502.0000 2330.0000,5499.0000 2335.0000,5499.0000 Z M 2415.0000,5499.0000 L 2415.0000,5499.0000 C 2419.0000,5499.0000 2423.0000,5502.0000 2423.0000,5507.0000 C 2423.0000,5511.0000 2419.0000,5515.0000 2415.0000,5515.0000 L 2415.0000,5515.0000 C 2410.0000,5515.0000 2407.0000,5511.0000 2407.0000,5507.0000 C 2407.0000,5502.0000 2410.0000,5499.0000 2415.0000,5499.0000 Z M 2495.0000,5499.0000 L 2495.0000,5499.0000 C 2499.0000,5499.0000 2503.0000,5502.0000 2503.0000,5507.0000 C 2503.0000,5511.0000 2499.0000,5515.0000 2495.0000,5515.0000 L 2495.0000,5515.0000 C 2490.0000,5515.0000 2487.0000,5511.0000 2487.0000,5507.0000 C 2487.0000,5502.0000 2490.0000,5499.0000 2495.0000,5499.0000 Z M 2575.0000,5499.0000 L 2575.0000,5499.0000 C 2579.0000,5499.0000 2583.0000,5502.0000 2583.0000,5507.0000 C 2583.0000,5511.0000 2579.0000,5515.0000 2575.0000,5515.0000 L 2575.0000,5515.0000 C 2570.0000,5515.0000 2567.0000,5511.0000 2567.0000,5507.0000 C 2567.0000,5502.0000 2570.0000,5499.0000 2575.0000,5499.0000 Z M 2655.0000,5499.0000 L 2655.0000,5499.0000 C 2659.0000,5499.0000 2663.0000,5502.0000 2663.0000,5507.0000 C 2663.0000,5511.0000 2659.0000,5515.0000 2655.0000,5515.0000 L 2655.0000,5515.0000 C 2650.0000,5515.0000 2647.0000,5511.0000 2647.0000,5507.0000 C 2647.0000,5502.0000 2650.0000,5499.0000 2655.0000,5499.0000 Z M 2735.0000,5499.0000 L 2735.0000,5499.0000 C 2739.0000,5499.0000 2743.0000,5502.0000 2743.0000,5507.0000 C 2743.0000,5511.0000 2739.0000,5515.0000 2735.0000,5515.0000 L 2735.0000,5515.0000 C 2730.0000,5515.0000 2727.0000,5511.0000 2727.0000,5507.0000 C 2727.0000,5502.0000 2730.0000,5499.0000 2735.0000,5499.0000 Z M 2815.0000,5499.0000 L 2815.0000,5499.0000 C 2819.0000,5499.0000 2823.0000,5502.0000 2823.0000,5507.0000 C 2823.0000,5511.0000 2819.0000,5515.0000 2815.0000,5515.0000 L 2815.0000,5515.0000 C 2810.0000,5515.0000 2807.0000,5511.0000 2807.0000,5507.0000 C 2807.0000,5502.0000 2810.0000,5499.0000 2815.0000,5499.0000 Z M 2895.0000,5499.0000 L 2895.0000,5499.0000 C 2899.0000,5499.0000 2903.0000,5502.0000 2903.0000,5507.0000 C 2903.0000,5511.0000 2899.0000,5515.0000 2895.0000,5515.0000 L 2895.0000,5515.0000 C 2890.0000,5515.0000 2887.0000,5511.0000 2887.0000,5507.0000 C 2887.0000,5502.0000 2890.0000,5499.0000 2895.0000,5499.0000 Z M 2975.0000,5499.0000 L 2975.0000,5499.0000 C 2979.0000,5499.0000 2983.0000,5502.0000 2983.0000,5507.0000 C 2983.0000,5511.0000 2979.0000,5515.0000 2975.0000,5515.0000 L 2975.0000,5515.0000 C 2970.0000,5515.0000 2967.0000,5511.0000 2967.0000,5507.0000 C 2967.0000,5502.0000 2970.0000,5499.0000 2975.0000,5499.0000 Z M 3055.0000,5499.0000 L 3055.0000,5499.0000 C 3059.0000,5499.0000 3063.0000,5502.0000 3063.0000,5507.0000 C 3063.0000,5511.0000 3059.0000,5515.0000 3055.0000,5515.0000 L 3055.0000,5515.0000 C 3050.0000,5515.0000 3047.0000,5511.0000 3047.0000,5507.0000 C 3047.0000,5502.0000 3050.0000,5499.0000 3055.0000,5499.0000 Z M 3135.0000,5499.0000 L 3135.0000,5499.0000 C 3139.0000,5499.0000 3143.0000,5502.0000 3143.0000,5507.0000 C 3143.0000,5511.0000 3139.0000,5515.0000 3135.0000,5515.0000 L 3135.0000,5515.0000 C 3130.0000,5515.0000 3127.0000,5511.0000 3127.0000,5507.0000 C 3127.0000,5502.0000 3130.0000,5499.0000 3135.0000,5499.0000 Z M 3215.0000,5499.0000 L 3215.0000,5499.0000 C 3219.0000,5499.0000 3223.0000,5502.0000 3223.0000,5507.0000 C 3223.0000,5511.0000 3219.0000,5515.0000 3215.0000,5515.0000 L 3215.0000,5515.0000 C 3210.0000,5515.0000 3207.0000,5511.0000 3207.0000,5507.0000 C 3207.0000,5502.0000 3210.0000,5499.0000 3215.0000,5499.0000 Z M 3295.0000,5499.0000 L 3295.0000,5499.0000 C 3299.0000,5499.0000 3303.0000,5502.0000 3303.0000,5507.0000 C 3303.0000,5511.0000 3299.0000,5515.0000 3295.0000,5515.0000 L 3295.0000,5515.0000 C 3290.0000,5515.0000 3287.0000,5511.0000 3287.0000,5507.0000 C 3287.0000,5502.0000 3290.0000,5499.0000 3295.0000,5499.0000 Z M 3375.0000,5499.0000 L 3375.0000,5499.0000 C 3379.0000,5499.0000 3383.0000,5502.0000 3383.0000,5507.0000 C 3383.0000,5511.0000 3379.0000,5515.0000 3375.0000,5515.0000 L 3375.0000,5515.0000 C 3370.0000,5515.0000 3367.0000,5511.0000 3367.0000,5507.0000 C 3367.0000,5502.0000 3370.0000,5499.0000 3375.0000,5499.0000 Z M 3455.0000,5499.0000 L 3455.0000,5499.0000 C 3459.0000,5499.0000 3463.0000,5502.0000 3463.0000,5507.0000 C 3463.0000,5511.0000 3459.0000,5515.0000 3455.0000,5515.0000 L 3455.0000,5515.0000 C 3450.0000,5515.0000 3447.0000,5511.0000 3447.0000,5507.0000 C 3447.0000,5502.0000 3450.0000,5499.0000 3455.0000,5499.0000 Z M 3535.0000,5499.0000 L 3535.0000,5499.0000 C 3539.0000,5499.0000 3543.0000,5502.0000 3543.0000,5507.0000 C 3543.0000,5511.0000 3539.0000,5515.0000 3535.0000,5515.0000 L 3535.0000,5515.0000 C 3530.0000,5515.0000 3527.0000,5511.0000 3527.0000,5507.0000 C 3527.0000,5502.0000 3530.0000,5499.0000 3535.0000,5499.0000 Z M 3615.0000,5499.0000 L 3615.0000,5499.0000 C 3619.0000,5499.0000 3623.0000,5502.0000 3623.0000,5507.0000 C 3623.0000,5511.0000 3619.0000,5515.0000 3615.0000,5515.0000 L 3615.0000,5515.0000 C 3610.0000,5515.0000 3607.0000,5511.0000 3607.0000,5507.0000 C 3607.0000,5502.0000 3610.0000,5499.0000 3615.0000,5499.0000 Z M 3695.0000,5499.0000 L 3695.0000,5499.0000 C 3699.0000,5499.0000 3703.0000,5502.0000 3703.0000,5507.0000 C 3703.0000,5511.0000 3699.0000,5515.0000 3695.0000,5515.0000 L 3695.0000,5515.0000 C 3690.0000,5515.0000 3687.0000,5511.0000 3687.0000,5507.0000 C 3687.0000,5502.0000 3690.0000,5499.0000 3695.0000,5499.0000 Z M 3775.0000,5499.0000 L 3775.0000,5499.0000 C 3779.0000,5499.0000 3783.0000,5502.0000 3783.0000,5507.0000 C 3783.0000,5511.0000 3779.0000,5515.0000 3775.0000,5515.0000 L 3775.0000,5515.0000 C 3770.0000,5515.0000 3767.0000,5511.0000 3767.0000,5507.0000 C 3767.0000,5502.0000 3770.0000,5499.0000 3775.0000,5499.0000 Z M 3855.0000,5499.0000 L 3855.0000,5499.0000 C 3859.0000,5499.0000 3863.0000,5502.0000 3863.0000,5507.0000 C 3863.0000,5511.0000 3859.0000,5515.0000 3855.0000,5515.0000 L 3855.0000,5515.0000 C 3850.0000,5515.0000 3847.0000,5511.0000 3847.0000,5507.0000 C 3847.0000,5502.0000 3850.0000,5499.0000 3855.0000,5499.0000 Z M 3935.0000,5499.0000 L 3935.0000,5499.0000 C 3939.0000,5499.0000 3943.0000,5502.0000 3943.0000,5507.0000 C 3943.0000,5511.0000 3939.0000,5515.0000 3935.0000,5515.0000 L 3935.0000,5515.0000 C 3930.0000,5515.0000 3927.0000,5511.0000 3927.0000,5507.0000 C 3927.0000,5502.0000 3930.0000,5499.0000 3935.0000,5499.0000 Z M 4015.0000,5499.0000 L 4015.0000,5499.0000 C 4019.0000,5499.0000 4023.0000,5502.0000 4023.0000,5507.0000 C 4023.0000,5511.0000 4019.0000,5515.0000 4015.0000,5515.0000 L 4015.0000,5515.0000 C 4011.0000,5515.0000 4007.0000,5511.0000 4007.0000,5507.0000 C 4007.0000,5502.0000 4011.0000,5499.0000 4015.0000,5499.0000 Z M 4095.0000,5499.0000 L 4095.0000,5499.0000 C 4099.0000,5499.0000 4103.0000,5502.0000 4103.0000,5507.0000 C 4103.0000,5511.0000 4099.0000,5515.0000 4095.0000,5515.0000 L 4095.0000,5515.0000 C 4091.0000,5515.0000 4087.0000,5511.0000 4087.0000,5507.0000 C 4087.0000,5502.0000 4091.0000,5499.0000 4095.0000,5499.0000 Z M 4175.0000,5499.0000 L 4175.0000,5499.0000 C 4179.0000,5499.0000 4183.0000,5502.0000 4183.0000,5507.0000 C 4183.0000,5511.0000 4179.0000,5515.0000 4175.0000,5515.0000 L 4175.0000,5515.0000 C 4171.0000,5515.0000 4167.0000,5511.0000 4167.0000,5507.0000 C 4167.0000,5502.0000 4171.0000,5499.0000 4175.0000,5499.0000 Z M 4255.0000,5499.0000 L 4255.0000,5499.0000 C 4259.0000,5499.0000 4263.0000,5502.0000 4263.0000,5507.0000 C 4263.0000,5511.0000 4259.0000,5515.0000 4255.0000,5515.0000 L 4255.0000,5515.0000 C 4251.0000,5515.0000 4247.0000,5511.0000 4247.0000,5507.0000 C 4247.0000,5502.0000 4251.0000,5499.0000 4255.0000,5499.0000 Z M 4335.0000,5499.0000 L 4335.0000,5499.0000 C 4339.0000,5499.0000 4343.0000,5502.0000 4343.0000,5507.0000 C 4343.0000,5511.0000 4339.0000,5515.0000 4335.0000,5515.0000 L 4335.0000,5515.0000 C 4331.0000,5515.0000 4327.0000,5511.0000 4327.0000,5507.0000 C 4327.0000,5502.0000 4331.0000,5499.0000 4335.0000,5499.0000 Z M 4415.0000,5499.0000 L 4415.0000,5499.0000 C 4419.0000,5499.0000 4423.0000,5502.0000 4423.0000,5507.0000 C 4423.0000,5511.0000 4419.0000,5515.0000 4415.0000,5515.0000 L 4415.0000,5515.0000 C 4411.0000,5515.0000 4407.0000,5511.0000 4407.0000,5507.0000 C 4407.0000,5502.0000 4411.0000,5499.0000 4415.0000,5499.0000 Z M 4495.0000,5499.0000 L 4495.0000,5499.0000 C 4499.0000,5499.0000 4503.0000,5502.0000 4503.0000,5507.0000 C 4503.0000,5511.0000 4499.0000,5515.0000 4495.0000,5515.0000 L 4495.0000,5515.0000 C 4491.0000,5515.0000 4487.0000,5511.0000 4487.0000,5507.0000 C 4487.0000,5502.0000 4491.0000,5499.0000 4495.0000,5499.0000 Z M 4575.0000,5499.0000 L 4575.0000,5499.0000 C 4579.0000,5499.0000 4583.0000,5502.0000 4583.0000,5507.0000 C 4583.0000,5511.0000 4579.0000,5515.0000 4575.0000,5515.0000 L 4575.0000,5515.0000 C 4571.0000,5515.0000 4567.0000,5511.0000 4567.0000,5507.0000 C 4567.0000,5502.0000 4571.0000,5499.0000 4575.0000,5499.0000 Z M 4655.0000,5499.0000 L 4655.0000,5499.0000 C 4659.0000,5499.0000 4663.0000,5502.0000 4663.0000,5507.0000 C 4663.0000,5511.0000 4659.0000,5515.0000 4655.0000,5515.0000 L 4655.0000,5515.0000 C 4651.0000,5515.0000 4647.0000,5511.0000 4647.0000,5507.0000 C 4647.0000,5502.0000 4651.0000,5499.0000 4655.0000,5499.0000 Z M 4735.0000,5499.0000 L 4735.0000,5499.0000 C 4739.0000,5499.0000 4743.0000,5502.0000 4743.0000,5507.0000 C 4743.0000,5511.0000 4739.0000,5515.0000 4735.0000,5515.0000 L 4735.0000,5515.0000 C 4731.0000,5515.0000 4727.0000,5511.0000 4727.0000,5507.0000 C 4727.0000,5502.0000 4731.0000,5499.0000 4735.0000,5499.0000 Z M 4815.0000,5499.0000 L 4815.0000,5499.0000 C 4820.0000,5499.0000 4823.0000,5502.0000 4823.0000,5507.0000 C 4823.0000,5511.0000 4820.0000,5515.0000 4815.0000,5515.0000 L 4815.0000,5515.0000 C 4811.0000,5515.0000 4807.0000,5511.0000 4807.0000,5507.0000 C 4807.0000,5502.0000 4811.0000,5499.0000 4815.0000,5499.0000 Z M 4895.0000,5499.0000 L 4895.0000,5499.0000 C 4900.0000,5499.0000 4903.0000,5502.0000 4903.0000,5507.0000 C 4903.0000,5511.0000 4900.0000,5515.0000 4895.0000,5515.0000 L 4895.0000,5515.0000 C 4891.0000,5515.0000 4887.0000,5511.0000 4887.0000,5507.0000 C 4887.0000,5502.0000 4891.0000,5499.0000 4895.0000,5499.0000 Z M 4975.0000,5499.0000 L 4975.0000,5499.0000 C 4980.0000,5499.0000 4983.0000,5502.0000 4983.0000,5507.0000 C 4983.0000,5511.0000 4980.0000,5515.0000 4975.0000,5515.0000 L 4975.0000,5515.0000 C 4971.0000,5515.0000 4967.0000,5511.0000 4967.0000,5507.0000 C 4967.0000,5502.0000 4971.0000,5499.0000 4975.0000,5499.0000 Z M 5055.0000,5499.0000 L 5055.0000,5499.0000 C 5060.0000,5499.0000 5063.0000,5502.0000 5063.0000,5507.0000 C 5063.0000,5511.0000 5060.0000,5515.0000 5055.0000,5515.0000 L 5055.0000,5515.0000 C 5051.0000,5515.0000 5047.0000,5511.0000 5047.0000,5507.0000 C 5047.0000,5502.0000 5051.0000,5499.0000 5055.0000,5499.0000 Z M 5135.0000,5499.0000 L 5135.0000,5499.0000 C 5140.0000,5499.0000 5143.0000,5502.0000 5143.0000,5507.0000 C 5143.0000,5511.0000 5140.0000,5515.0000 5135.0000,5515.0000 L 5135.0000,5515.0000 C 5131.0000,5515.0000 5127.0000,5511.0000 5127.0000,5507.0000 C 5127.0000,5502.0000 5131.0000,5499.0000 5135.0000,5499.0000 Z M 5215.0000,5499.0000 L 5215.0000,5499.0000 C 5220.0000,5499.0000 5223.0000,5502.0000 5223.0000,5507.0000 C 5223.0000,5511.0000 5220.0000,5515.0000 5215.0000,5515.0000 L 5215.0000,5515.0000 C 5211.0000,5515.0000 5207.0000,5511.0000 5207.0000,5507.0000 C 5207.0000,5502.0000 5211.0000,5499.0000 5215.0000,5499.0000 Z M 5295.0000,5499.0000 L 5295.0000,5499.0000 C 5300.0000,5499.0000 5303.0000,5502.0000 5303.0000,5507.0000 C 5303.0000,5511.0000 5300.0000,5515.0000 5295.0000,5515.0000 L 5295.0000,5515.0000 C 5291.0000,5515.0000 5287.0000,5511.0000 5287.0000,5507.0000 C 5287.0000,5502.0000 5291.0000,5499.0000 5295.0000,5499.0000 Z M 5375.0000,5499.0000 L 5375.0000,5499.0000 C 5380.0000,5499.0000 5383.0000,5502.0000 5383.0000,5507.0000 C 5383.0000,5511.0000 5380.0000,5515.0000 5375.0000,5515.0000 L 5375.0000,5515.0000 C 5371.0000,5515.0000 5367.0000,5511.0000 5367.0000,5507.0000 C 5367.0000,5502.0000 5371.0000,5499.0000 5375.0000,5499.0000 Z M 5455.0000,5499.0000 L 5455.0000,5499.0000 C 5460.0000,5499.0000 5463.0000,5502.0000 5463.0000,5507.0000 C 5463.0000,5511.0000 5460.0000,5515.0000 5455.0000,5515.0000 L 5455.0000,5515.0000 C 5451.0000,5515.0000 5447.0000,5511.0000 5447.0000,5507.0000 C 5447.0000,5502.0000 5451.0000,5499.0000 5455.0000,5499.0000 Z M 5535.0000,5499.0000 L 5535.0000,5499.0000 C 5540.0000,5499.0000 5543.0000,5502.0000 5543.0000,5507.0000 C 5543.0000,5511.0000 5540.0000,5515.0000 5535.0000,5515.0000 L 5535.0000,5515.0000 C 5531.0000,5515.0000 5527.0000,5511.0000 5527.0000,5507.0000 C 5527.0000,5502.0000 5531.0000,5499.0000 5535.0000,5499.0000 Z M 5615.0000,5499.0000 L 5615.0000,5499.0000 C 5620.0000,5499.0000 5623.0000,5502.0000 5623.0000,5507.0000 C 5623.0000,5511.0000 5620.0000,5515.0000 5615.0000,5515.0000 L 5615.0000,5515.0000 C 5611.0000,5515.0000 5607.0000,5511.0000 5607.0000,5507.0000 C 5607.0000,5502.0000 5611.0000,5499.0000 5615.0000,5499.0000 Z M 5695.0000,5499.0000 L 5695.0000,5499.0000 C 5700.0000,5499.0000 5703.0000,5502.0000 5703.0000,5507.0000 C 5703.0000,5511.0000 5700.0000,5515.0000 5695.0000,5515.0000 L 5695.0000,5515.0000 C 5691.0000,5515.0000 5687.0000,5511.0000 5687.0000,5507.0000 C 5687.0000,5502.0000 5691.0000,5499.0000 5695.0000,5499.0000 Z M 5775.0000,5499.0000 L 5775.0000,5499.0000 C 5780.0000,5499.0000 5783.0000,5502.0000 5783.0000,5507.0000 C 5783.0000,5511.0000 5780.0000,5515.0000 5775.0000,5515.0000 L 5775.0000,5515.0000 C 5771.0000,5515.0000 5767.0000,5511.0000 5767.0000,5507.0000 C 5767.0000,5502.0000 5771.0000,5499.0000 5775.0000,5499.0000 Z M 5855.0000,5499.0000 L 5855.0000,5499.0000 C 5860.0000,5499.0000 5863.0000,5502.0000 5863.0000,5507.0000 C 5863.0000,5511.0000 5860.0000,5515.0000 5855.0000,5515.0000 L 5855.0000,5515.0000 C 5851.0000,5515.0000 5847.0000,5511.0000 5847.0000,5507.0000 C 5847.0000,5502.0000 5851.0000,5499.0000 5855.0000,5499.0000 Z M 5935.0000,5499.0000 L 5935.0000,5499.0000 C 5940.0000,5499.0000 5943.0000,5502.0000 5943.0000,5507.0000 C 5943.0000,5511.0000 5940.0000,5515.0000 5935.0000,5515.0000 L 5935.0000,5515.0000 C 5931.0000,5515.0000 5927.0000,5511.0000 5927.0000,5507.0000 C 5927.0000,5502.0000 5931.0000,5499.0000 5935.0000,5499.0000 Z M 6015.0000,5499.0000 L 6015.0000,5499.0000 C 6020.0000,5499.0000 6023.0000,5502.0000 6023.0000,5507.0000 C 6023.0000,5511.0000 6020.0000,5515.0000 6015.0000,5515.0000 L 6015.0000,5515.0000 C 6011.0000,5515.0000 6007.0000,5511.0000 6007.0000,5507.0000 C 6007.0000,5502.0000 6011.0000,5499.0000 6015.0000,5499.0000 Z M 6095.0000,5499.0000 L 6095.0000,5499.0000 C 6100.0000,5499.0000 6103.0000,5502.0000 6103.0000,5507.0000 C 6103.0000,5511.0000 6100.0000,5515.0000 6095.0000,5515.0000 L 6095.0000,5515.0000 C 6091.0000,5515.0000 6087.0000,5511.0000 6087.0000,5507.0000 C 6087.0000,5502.0000 6091.0000,5499.0000 6095.0000,5499.0000 Z M 6175.0000,5499.0000 L 6175.0000,5499.0000 C 6180.0000,5499.0000 6183.0000,5502.0000 6183.0000,5507.0000 C 6183.0000,5511.0000 6180.0000,5515.0000 6175.0000,5515.0000 L 6175.0000,5515.0000 C 6171.0000,5515.0000 6167.0000,5511.0000 6167.0000,5507.0000 C 6167.0000,5502.0000 6171.0000,5499.0000 6175.0000,5499.0000 Z M 6255.0000,5499.0000 L 6255.0000,5499.0000 C 6260.0000,5499.0000 6263.0000,5502.0000 6263.0000,5507.0000 C 6263.0000,5511.0000 6260.0000,5515.0000 6255.0000,5515.0000 L 6255.0000,5515.0000 C 6251.0000,5515.0000 6247.0000,5511.0000 6247.0000,5507.0000 C 6247.0000,5502.0000 6251.0000,5499.0000 6255.0000,5499.0000 Z M 6335.0000,5499.0000 L 6335.0000,5499.0000 C 6340.0000,5499.0000 6343.0000,5502.0000 6343.0000,5507.0000 C 6343.0000,5511.0000 6340.0000,5515.0000 6335.0000,5515.0000 L 6335.0000,5515.0000 C 6331.0000,5515.0000 6327.0000,5511.0000 6327.0000,5507.0000 C 6327.0000,5502.0000 6331.0000,5499.0000 6335.0000,5499.0000 Z M 6415.0000,5499.0000 L 6415.0000,5499.0000 C 6420.0000,5499.0000 6423.0000,5502.0000 6423.0000,5507.0000 C 6423.0000,5511.0000 6420.0000,5515.0000 6415.0000,5515.0000 L 6415.0000,5515.0000 C 6411.0000,5515.0000 6407.0000,5511.0000 6407.0000,5507.0000 C 6407.0000,5502.0000 6411.0000,5499.0000 6415.0000,5499.0000 Z M 6495.0000,5499.0000 L 6495.0000,5499.0000 C 6500.0000,5499.0000 6503.0000,5502.0000 6503.0000,5507.0000 C 6503.0000,5511.0000 6500.0000,5515.0000 6495.0000,5515.0000 L 6495.0000,5515.0000 C 6491.0000,5515.0000 6487.0000,5511.0000 6487.0000,5507.0000 C 6487.0000,5502.0000 6491.0000,5499.0000 6495.0000,5499.0000 Z M 6575.0000,5499.0000 L 6575.0000,5499.0000 C 6580.0000,5499.0000 6583.0000,5502.0000 6583.0000,5507.0000 C 6583.0000,5511.0000 6580.0000,5515.0000 6575.0000,5515.0000 L 6575.0000,5515.0000 C 6571.0000,5515.0000 6567.0000,5511.0000 6567.0000,5507.0000 C 6567.0000,5502.0000 6571.0000,5499.0000 6575.0000,5499.0000 Z M 6655.0000,5499.0000 L 6655.0000,5499.0000 C 6660.0000,5499.0000 6663.0000,5502.0000 6663.0000,5507.0000 C 6663.0000,5511.0000 6660.0000,5515.0000 6655.0000,5515.0000 L 6655.0000,5515.0000 C 6651.0000,5515.0000 6647.0000,5511.0000 6647.0000,5507.0000 C 6647.0000,5502.0000 6651.0000,5499.0000 6655.0000,5499.0000 Z M 6735.0000,5499.0000 L 6735.0000,5499.0000 C 6740.0000,5499.0000 6743.0000,5502.0000 6743.0000,5507.0000 C 6743.0000,5511.0000 6740.0000,5515.0000 6735.0000,5515.0000 L 6735.0000,5515.0000 C 6731.0000,5515.0000 6727.0000,5511.0000 6727.0000,5507.0000 C 6727.0000,5502.0000 6731.0000,5499.0000 6735.0000,5499.0000 Z M 6815.0000,5499.0000 L 6815.0000,5499.0000 C 6820.0000,5499.0000 6823.0000,5502.0000 6823.0000,5507.0000 C 6823.0000,5511.0000 6820.0000,5515.0000 6815.0000,5515.0000 L 6815.0000,5515.0000 C 6811.0000,5515.0000 6807.0000,5511.0000 6807.0000,5507.0000 C 6807.0000,5502.0000 6811.0000,5499.0000 6815.0000,5499.0000 Z M 6895.0000,5499.0000 L 6896.0000,5499.0000 C 6900.0000,5499.0000 6904.0000,5502.0000 6904.0000,5507.0000 C 6904.0000,5511.0000 6900.0000,5515.0000 6896.0000,5515.0000 L 6895.0000,5515.0000 C 6891.0000,5515.0000 6887.0000,5511.0000 6887.0000,5507.0000 C 6887.0000,5502.0000 6891.0000,5499.0000 6895.0000,5499.0000 Z M 6976.0000,5499.0000 L 6976.0000,5499.0000 C 6980.0000,5499.0000 6984.0000,5502.0000 6984.0000,5507.0000 C 6984.0000,5511.0000 6980.0000,5515.0000 6976.0000,5515.0000 L 6976.0000,5515.0000 C 6971.0000,5515.0000 6968.0000,5511.0000 6968.0000,5507.0000 C 6968.0000,5502.0000 6971.0000,5499.0000 6976.0000,5499.0000 Z M 7056.0000,5499.0000 L 7056.0000,5499.0000 C 7060.0000,5499.0000 7064.0000,5502.0000 7064.0000,5507.0000 C 7064.0000,5511.0000 7060.0000,5515.0000 7056.0000,5515.0000 L 7056.0000,5515.0000 C 7051.0000,5515.0000 7048.0000,5511.0000 7048.0000,5507.0000 C 7048.0000,5502.0000 7051.0000,5499.0000 7056.0000,5499.0000 Z M 7136.0000,5499.0000 L 7136.0000,5499.0000 C 7140.0000,5499.0000 7144.0000,5502.0000 7144.0000,5507.0000 C 7144.0000,5511.0000 7140.0000,5515.0000 7136.0000,5515.0000 L 7136.0000,5515.0000 C 7131.0000,5515.0000 7128.0000,5511.0000 7128.0000,5507.0000 C 7128.0000,5502.0000 7131.0000,5499.0000 7136.0000,5499.0000 Z M 7216.0000,5499.0000 L 7216.0000,5499.0000 C 7220.0000,5499.0000 7224.0000,5502.0000 7224.0000,5507.0000 C 7224.0000,5511.0000 7220.0000,5515.0000 7216.0000,5515.0000 L 7216.0000,5515.0000 C 7211.0000,5515.0000 7208.0000,5511.0000 7208.0000,5507.0000 C 7208.0000,5502.0000 7211.0000,5499.0000 7216.0000,5499.0000 Z M 7296.0000,5499.0000 L 7296.0000,5499.0000 C 7300.0000,5499.0000 7304.0000,5502.0000 7304.0000,5507.0000 C 7304.0000,5511.0000 7300.0000,5515.0000 7296.0000,5515.0000 L 7296.0000,5515.0000 C 7291.0000,5515.0000 7288.0000,5511.0000 7288.0000,5507.0000 C 7288.0000,5502.0000 7291.0000,5499.0000 7296.0000,5499.0000 Z M 7376.0000,5499.0000 L 7376.0000,5499.0000 C 7380.0000,5499.0000 7384.0000,5502.0000 7384.0000,5507.0000 C 7384.0000,5511.0000 7380.0000,5515.0000 7376.0000,5515.0000 L 7376.0000,5515.0000 C 7371.0000,5515.0000 7368.0000,5511.0000 7368.0000,5507.0000 C 7368.0000,5502.0000 7371.0000,5499.0000 7376.0000,5499.0000 Z M 7456.0000,5499.0000 L 7456.0000,5499.0000 C 7460.0000,5499.0000 7464.0000,5502.0000 7464.0000,5507.0000 C 7464.0000,5511.0000 7460.0000,5515.0000 7456.0000,5515.0000 L 7456.0000,5515.0000 C 7451.0000,5515.0000 7448.0000,5511.0000 7448.0000,5507.0000 C 7448.0000,5502.0000 7451.0000,5499.0000 7456.0000,5499.0000 Z M 7536.0000,5499.0000 L 7536.0000,5499.0000 C 7540.0000,5499.0000 7544.0000,5502.0000 7544.0000,5507.0000 C 7544.0000,5511.0000 7540.0000,5515.0000 7536.0000,5515.0000 L 7536.0000,5515.0000 C 7531.0000,5515.0000 7528.0000,5511.0000 7528.0000,5507.0000 C 7528.0000,5502.0000 7531.0000,5499.0000 7536.0000,5499.0000 Z M 7616.0000,5499.0000 L 7616.0000,5499.0000 C 7620.0000,5499.0000 7624.0000,5502.0000 7624.0000,5507.0000 C 7624.0000,5511.0000 7620.0000,5515.0000 7616.0000,5515.0000 L 7616.0000,5515.0000 C 7611.0000,5515.0000 7608.0000,5511.0000 7608.0000,5507.0000 C 7608.0000,5502.0000 7611.0000,5499.0000 7616.0000,5499.0000 Z M 7696.0000,5499.0000 L 7696.0000,5499.0000 C 7700.0000,5499.0000 7704.0000,5502.0000 7704.0000,5507.0000 C 7704.0000,5511.0000 7700.0000,5515.0000 7696.0000,5515.0000 L 7696.0000,5515.0000 C 7691.0000,5515.0000 7688.0000,5511.0000 7688.0000,5507.0000 C 7688.0000,5502.0000 7691.0000,5499.0000 7696.0000,5499.0000 Z M 7776.0000,5499.0000 L 7776.0000,5499.0000 C 7780.0000,5499.0000 7784.0000,5502.0000 7784.0000,5507.0000 C 7784.0000,5511.0000 7780.0000,5515.0000 7776.0000,5515.0000 L 7776.0000,5515.0000 C 7771.0000,5515.0000 7768.0000,5511.0000 7768.0000,5507.0000 C 7768.0000,5502.0000 7771.0000,5499.0000 7776.0000,5499.0000 Z "  fill="#000000" stroke="#000000" stroke-width="16.0000"  stroke-linecap="butt"  stroke-linejoin="bevel" />
</g>
<g transform="matrix(1.0000 0.0000 0.0000 1.0000 0.0000 0.0000)">
</g>
<g transform="matrix(0.0625 0.0000 0.0000 0.0625 0.0000 0.0000)">
<path d="M 2269.0000,5566.0000 L 2093.0000,5507.0000 L 2269.0000,5448.0000 L 2269.0000,5566.0000 Z" stroke-width="1px" stroke="#000000"  fill="#000000" />
</g>
<g transform="matrix(1.0000 0.0000 0.0000 1.0000 0.0000 0.0000)">
</g>
<g transform="matrix(0.0625 0.0000 0.0000 0.0625 0.0000 0.0000)">
<path d="M 997.0000,2596.0000 L 997.0000,3202.0000 L 3927.0000,3202.0000 L 3927.0000,2596.0000 L 997.0000,2596.0000 Z" stroke-width="1px" stroke="#FFFFFF"  fill="#FFFFFF" />
</g>
<g transform="matrix(1.0000 0.0000 0.0000 1.0000 0.0000 0.0000)">
</g>
<g transform="matrix(0.0625 0.0000 0.0000 0.0625 0.0000 0.0000)">
<path d="M 997.0000,3202.0000 L 3927.0000,3202.0000 L 3927.0000,2596.0000 L 997.0000,2596.0000 L 997.0000,3202.0000 Z" stroke="#000000" stroke-width="15.0000"  stroke-linecap="round"  stroke-linejoin="round" fill="none" />
</g>
<g transform="matrix(1.0000 0.0000 0.0000 1.0000 0.0000 0.0000)">
<text font-family="Arial" fill="#000000" style ="white-space:pre;" font-weight="400" text-anchor="start" x="79.0000" y="178.0000" font-size="11.0000" ><![CDATA[Step ]]></text>
<text font-family="Arial" fill="#000000" style ="white-space:pre;" font-weight="400" text-anchor="start" x="104.0000" y="178.0000" font-size="11.0000" ><![CDATA[2]]></text>
<text font-family="Arial" fill="#000000" style ="white-space:pre;" font-weight="400" text-anchor="start" x="110.0000" y="178.0000" font-size="11.0000" ><![CDATA[: ]]></text>
<text font-family="Arial" fill="#000000" style ="white-space:pre;" font-weight="400" text-anchor="start" x="116.0000" y="178.0000" font-size="11.0000" ><![CDATA[Release of gNB context]]></text>
</g>
<g transform="matrix(0.0625 0.0000 0.0000 0.0625 0.0000 0.0000)">
<path d="M 1227.0000,1395.0000 L 1227.0000,2001.0000 L 5729.0000,2001.0000 L 5729.0000,1395.0000 L 1227.0000,1395.0000 Z" stroke-width="1px" stroke="#FFFFFF"  fill="#FFFFFF" />
</g>
<g transform="matrix(1.0000 0.0000 0.0000 1.0000 0.0000 0.0000)">
</g>
<g transform="matrix(0.0625 0.0000 0.0000 0.0625 0.0000 0.0000)">
<path d="M 1227.0000,2001.0000 L 5729.0000,2001.0000 L 5729.0000,1395.0000 L 1227.0000,1395.0000 L 1227.0000,2001.0000 Z" stroke="#000000" stroke-width="15.0000"  stroke-linecap="round"  stroke-linejoin="round" fill="none" />
</g>
<g transform="matrix(1.0000 0.0000 0.0000 1.0000 0.0000 0.0000)">
<text font-family="Arial" fill="#000000" style ="white-space:pre;" font-weight="400" text-anchor="start" x="126.0000" y="103.0000" font-size="11.0000" ><![CDATA[Step ]]></text>
<text font-family="Arial" fill="#000000" style ="white-space:pre;" font-weight="400" text-anchor="start" x="151.0000" y="103.0000" font-size="11.0000" ><![CDATA[1]]></text>
<text font-family="Arial" fill="#000000" style ="white-space:pre;" font-weight="400" text-anchor="start" x="157.0000" y="103.0000" font-size="11.0000" ><![CDATA[: ]]></text>
<text font-family="Arial" fill="#000000" style ="white-space:pre;" font-weight="400" text-anchor="start" x="162.0000" y="103.0000" font-size="11.0000" ><![CDATA[PDU session]]></text>
<text font-family="Arial" fill="#000000" style ="white-space:pre;" font-weight="400" text-anchor="start" x="227.0000" y="103.0000" font-size="11.0000" ><![CDATA[Release Request ]]></text>
</g>
<g transform="matrix(0.0625 0.0000 0.0000 0.0625 0.0000 0.0000)">
<path d="M 1225.0000,3614.0000 L 1225.0000,4220.0000 L 5729.0000,4220.0000 L 5729.0000,3614.0000 L 1225.0000,3614.0000 Z" stroke-width="1px" stroke="#FFFFFF"  fill="#FFFFFF" />
</g>
<g transform="matrix(1.0000 0.0000 0.0000 1.0000 0.0000 0.0000)">
</g>
<g transform="matrix(0.0625 0.0000 0.0000 0.0625 0.0000 0.0000)">
<path d="M 1225.0000,4220.0000 L 5729.0000,4220.0000 L 5729.0000,3614.0000 L 1225.0000,3614.0000 L 1225.0000,4220.0000 Z" stroke="#000000" stroke-width="15.0000"  stroke-linecap="round"  stroke-linejoin="round" fill="none" />
</g>
<g transform="matrix(1.0000 0.0000 0.0000 1.0000 0.0000 0.0000)">
<text font-family="Arial" fill="#000000" style ="white-space:pre;" font-weight="400" text-anchor="start" x="122.0000" y="248.0000" font-size="11.0000" ><![CDATA[Step ]]></text>
<text font-family="Arial" fill="#000000" style ="white-space:pre;" font-weight="400" text-anchor="start" x="147.0000" y="248.0000" font-size="11.0000" ><![CDATA[3]]></text>
<text font-family="Arial" fill="#000000" style ="white-space:pre;" font-weight="400" text-anchor="start" x="153.0000" y="248.0000" font-size="11.0000" ><![CDATA[: ]]></text>
<text font-family="Arial" fill="#000000" style ="white-space:pre;" font-weight="400" text-anchor="start" x="159.0000" y="248.0000" font-size="11.0000" ><![CDATA[PDU Session Release Complete]]></text>
</g>
</g>
</svg>
