<?xml version="1.0"  encoding="UTF-8" standalone="no"?>
<svg version="1.1" xmlns="http://www.w3.org/2000/svg" xmlns:xlink="http://www.w3.org/1999/xlink" width="383.0000" height="204.0000">
<g transform="translate(1.0000, 1.0000)">
<g transform="matrix(0.0625 0.0000 0.0000 0.0625 0.0000 0.0000)">
<path d="M 2305.0000,46.0000 L 2305.0000,158.0000 C 2305.0000,162.0000 2302.0000,166.0000 2297.0000,166.0000 C 2293.0000,166.0000 2289.0000,162.0000 2289.0000,158.0000 L 2289.0000,46.0000 C 2289.0000,41.0000 2293.0000,38.0000 2297.0000,38.0000 C 2302.0000,38.0000 2305.0000,41.0000 2305.0000,46.0000 Z M 2305.0000,238.0000 L 2305.0000,350.0000 C 2305.0000,354.0000 2302.0000,358.0000 2297.0000,358.0000 C 2293.0000,358.0000 2289.0000,354.0000 2289.0000,350.0000 L 2289.0000,238.0000 C 2289.0000,233.0000 2293.0000,230.0000 2297.0000,230.0000 C 2302.0000,230.0000 2305.0000,233.0000 2305.0000,238.0000 Z M 2305.0000,430.0000 L 2305.0000,542.0000 C 2305.0000,546.0000 2302.0000,550.0000 2297.0000,550.0000 C 2293.0000,550.0000 2289.0000,546.0000 2289.0000,542.0000 L 2289.0000,430.0000 C 2289.0000,425.0000 2293.0000,422.0000 2297.0000,422.0000 C 2302.0000,422.0000 2305.0000,425.0000 2305.0000,430.0000 Z M 2305.0000,622.0000 L 2305.0000,734.0000 C 2305.0000,738.0000 2302.0000,742.0000 2297.0000,742.0000 C 2293.0000,742.0000 2289.0000,738.0000 2289.0000,734.0000 L 2289.0000,622.0000 C 2289.0000,617.0000 2293.0000,614.0000 2297.0000,614.0000 C 2302.0000,614.0000 2305.0000,617.0000 2305.0000,622.0000 Z M 2305.0000,814.0000 L 2305.0000,926.0000 C 2305.0000,930.0000 2302.0000,934.0000 2297.0000,934.0000 C 2293.0000,934.0000 2289.0000,930.0000 2289.0000,926.0000 L 2289.0000,814.0000 C 2289.0000,809.0000 2293.0000,806.0000 2297.0000,806.0000 C 2302.0000,806.0000 2305.0000,809.0000 2305.0000,814.0000 Z M 2305.0000,1006.0000 L 2305.0000,1118.0000 C 2305.0000,1122.0000 2302.0000,1126.0000 2297.0000,1126.0000 C 2293.0000,1126.0000 2289.0000,1122.0000 2289.0000,1118.0000 L 2289.0000,1006.0000 C 2289.0000,1001.0000 2293.0000,998.0000 2297.0000,998.0000 C 2302.0000,998.0000 2305.0000,1001.0000 2305.0000,1006.0000 Z M 2305.0000,1198.0000 L 2305.0000,1310.0000 C 2305.0000,1314.0000 2302.0000,1318.0000 2297.0000,1318.0000 C 2293.0000,1318.0000 2289.0000,1314.0000 2289.0000,1310.0000 L 2289.0000,1198.0000 C 2289.0000,1193.0000 2293.0000,1190.0000 2297.0000,1190.0000 C 2302.0000,1190.0000 2305.0000,1193.0000 2305.0000,1198.0000 Z M 2305.0000,1390.0000 L 2305.0000,1502.0000 C 2305.0000,1506.0000 2302.0000,1510.0000 2297.0000,1510.0000 C 2293.0000,1510.0000 2289.0000,1506.0000 2289.0000,1502.0000 L 2289.0000,1390.0000 C 2289.0000,1385.0000 2293.0000,1382.0000 2297.0000,1382.0000 C 2302.0000,1382.0000 2305.0000,1385.0000 2305.0000,1390.0000 Z M 2305.0000,1582.0000 L 2305.0000,1694.0000 C 2305.0000,1698.0000 2302.0000,1702.0000 2297.0000,1702.0000 C 2293.0000,1702.0000 2289.0000,1698.0000 2289.0000,1694.0000 L 2289.0000,1582.0000 C 2289.0000,1577.0000 2293.0000,1574.0000 2297.0000,1574.0000 C 2302.0000,1574.0000 2305.0000,1577.0000 2305.0000,1582.0000 Z M 2305.0000,1774.0000 L 2305.0000,1886.0000 C 2305.0000,1890.0000 2302.0000,1894.0000 2297.0000,1894.0000 C 2293.0000,1894.0000 2289.0000,1890.0000 2289.0000,1886.0000 L 2289.0000,1774.0000 C 2289.0000,1769.0000 2293.0000,1766.0000 2297.0000,1766.0000 C 2302.0000,1766.0000 2305.0000,1769.0000 2305.0000,1774.0000 Z M 2305.0000,1966.0000 L 2305.0000,2078.0000 C 2305.0000,2082.0000 2302.0000,2086.0000 2297.0000,2086.0000 C 2293.0000,2086.0000 2289.0000,2082.0000 2289.0000,2078.0000 L 2289.0000,1966.0000 C 2289.0000,1961.0000 2293.0000,1958.0000 2297.0000,1958.0000 C 2302.0000,1958.0000 2305.0000,1961.0000 2305.0000,1966.0000 Z M 2305.0000,2158.0000 L 2305.0000,2270.0000 C 2305.0000,2274.0000 2302.0000,2278.0000 2297.0000,2278.0000 C 2293.0000,2278.0000 2289.0000,2274.0000 2289.0000,2270.0000 L 2289.0000,2158.0000 C 2289.0000,2153.0000 2293.0000,2150.0000 2297.0000,2150.0000 C 2302.0000,2150.0000 2305.0000,2153.0000 2305.0000,2158.0000 Z M 2305.0000,2350.0000 L 2305.0000,2462.0000 C 2305.0000,2466.0000 2302.0000,2470.0000 2297.0000,2470.0000 C 2293.0000,2470.0000 2289.0000,2466.0000 2289.0000,2462.0000 L 2289.0000,2350.0000 C 2289.0000,2345.0000 2293.0000,2342.0000 2297.0000,2342.0000 C 2302.0000,2342.0000 2305.0000,2345.0000 2305.0000,2350.0000 Z M 2305.0000,2542.0000 L 2305.0000,2654.0000 C 2305.0000,2658.0000 2302.0000,2662.0000 2297.0000,2662.0000 C 2293.0000,2662.0000 2289.0000,2658.0000 2289.0000,2654.0000 L 2289.0000,2542.0000 C 2289.0000,2537.0000 2293.0000,2534.0000 2297.0000,2534.0000 C 2302.0000,2534.0000 2305.0000,2537.0000 2305.0000,2542.0000 Z M 2305.0000,2734.0000 L 2305.0000,2846.0000 C 2305.0000,2850.0000 2302.0000,2854.0000 2297.0000,2854.0000 C 2293.0000,2854.0000 2289.0000,2850.0000 2289.0000,2846.0000 L 2289.0000,2734.0000 C 2289.0000,2729.0000 2293.0000,2726.0000 2297.0000,2726.0000 C 2302.0000,2726.0000 2305.0000,2729.0000 2305.0000,2734.0000 Z M 2305.0000,2926.0000 L 2305.0000,3038.0000 C 2305.0000,3042.0000 2302.0000,3046.0000 2297.0000,3046.0000 C 2293.0000,3046.0000 2289.0000,3042.0000 2289.0000,3038.0000 L 2289.0000,2926.0000 C 2289.0000,2921.0000 2293.0000,2918.0000 2297.0000,2918.0000 C 2302.0000,2918.0000 2305.0000,2921.0000 2305.0000,2926.0000 Z M 2305.0000,3118.0000 L 2305.0000,3204.0000 L 2297.0000,3196.0000 L 2323.0000,3196.0000 C 2327.0000,3196.0000 2331.0000,3200.0000 2331.0000,3204.0000 C 2331.0000,3209.0000 2327.0000,3212.0000 2323.0000,3212.0000 L 2297.0000,3212.0000 C 2293.0000,3212.0000 2289.0000,3209.0000 2289.0000,3204.0000 L 2289.0000,3118.0000 C 2289.0000,3113.0000 2293.0000,3110.0000 2297.0000,3110.0000 C 2302.0000,3110.0000 2305.0000,3113.0000 2305.0000,3118.0000 Z M 2403.0000,3196.0000 L 2515.0000,3196.0000 C 2519.0000,3196.0000 2523.0000,3200.0000 2523.0000,3204.0000 C 2523.0000,3209.0000 2519.0000,3212.0000 2515.0000,3212.0000 L 2403.0000,3212.0000 C 2398.0000,3212.0000 2395.0000,3209.0000 2395.0000,3204.0000 C 2395.0000,3200.0000 2398.0000,3196.0000 2403.0000,3196.0000 Z M 2595.0000,3196.0000 L 2707.0000,3196.0000 C 2711.0000,3196.0000 2715.0000,3200.0000 2715.0000,3204.0000 C 2715.0000,3209.0000 2711.0000,3212.0000 2707.0000,3212.0000 L 2595.0000,3212.0000 C 2590.0000,3212.0000 2587.0000,3209.0000 2587.0000,3204.0000 C 2587.0000,3200.0000 2590.0000,3196.0000 2595.0000,3196.0000 Z M 2787.0000,3196.0000 L 2899.0000,3196.0000 C 2903.0000,3196.0000 2907.0000,3200.0000 2907.0000,3204.0000 C 2907.0000,3209.0000 2903.0000,3212.0000 2899.0000,3212.0000 L 2787.0000,3212.0000 C 2782.0000,3212.0000 2779.0000,3209.0000 2779.0000,3204.0000 C 2779.0000,3200.0000 2782.0000,3196.0000 2787.0000,3196.0000 Z M 2979.0000,3196.0000 L 3091.0000,3196.0000 C 3095.0000,3196.0000 3099.0000,3200.0000 3099.0000,3204.0000 C 3099.0000,3209.0000 3095.0000,3212.0000 3091.0000,3212.0000 L 2979.0000,3212.0000 C 2974.0000,3212.0000 2971.0000,3209.0000 2971.0000,3204.0000 C 2971.0000,3200.0000 2974.0000,3196.0000 2979.0000,3196.0000 Z M 3171.0000,3196.0000 L 3283.0000,3196.0000 C 3287.0000,3196.0000 3291.0000,3200.0000 3291.0000,3204.0000 C 3291.0000,3209.0000 3287.0000,3212.0000 3283.0000,3212.0000 L 3171.0000,3212.0000 C 3166.0000,3212.0000 3163.0000,3209.0000 3163.0000,3204.0000 C 3163.0000,3200.0000 3166.0000,3196.0000 3171.0000,3196.0000 Z M 3363.0000,3196.0000 L 3475.0000,3196.0000 C 3479.0000,3196.0000 3483.0000,3200.0000 3483.0000,3204.0000 C 3483.0000,3209.0000 3479.0000,3212.0000 3475.0000,3212.0000 L 3363.0000,3212.0000 C 3358.0000,3212.0000 3355.0000,3209.0000 3355.0000,3204.0000 C 3355.0000,3200.0000 3358.0000,3196.0000 3363.0000,3196.0000 Z M 3555.0000,3196.0000 L 3667.0000,3196.0000 C 3671.0000,3196.0000 3675.0000,3200.0000 3675.0000,3204.0000 C 3675.0000,3209.0000 3671.0000,3212.0000 3667.0000,3212.0000 L 3555.0000,3212.0000 C 3550.0000,3212.0000 3547.0000,3209.0000 3547.0000,3204.0000 C 3547.0000,3200.0000 3550.0000,3196.0000 3555.0000,3196.0000 Z M 3747.0000,3196.0000 L 3809.0000,3196.0000 L 3801.0000,3204.0000 L 3801.0000,3155.0000 C 3801.0000,3151.0000 3805.0000,3147.0000 3809.0000,3147.0000 C 3814.0000,3147.0000 3817.0000,3151.0000 3817.0000,3155.0000 L 3817.0000,3204.0000 C 3817.0000,3209.0000 3814.0000,3212.0000 3809.0000,3212.0000 L 3747.0000,3212.0000 C 3742.0000,3212.0000 3739.0000,3209.0000 3739.0000,3204.0000 C 3739.0000,3200.0000 3742.0000,3196.0000 3747.0000,3196.0000 Z M 3801.0000,3075.0000 L 3801.0000,2963.0000 C 3801.0000,2959.0000 3805.0000,2955.0000 3809.0000,2955.0000 C 3814.0000,2955.0000 3817.0000,2959.0000 3817.0000,2963.0000 L 3817.0000,3075.0000 C 3817.0000,3079.0000 3814.0000,3083.0000 3809.0000,3083.0000 C 3805.0000,3083.0000 3801.0000,3079.0000 3801.0000,3075.0000 Z M 3801.0000,2883.0000 L 3801.0000,2771.0000 C 3801.0000,2767.0000 3805.0000,2763.0000 3809.0000,2763.0000 C 3814.0000,2763.0000 3817.0000,2767.0000 3817.0000,2771.0000 L 3817.0000,2883.0000 C 3817.0000,2887.0000 3814.0000,2891.0000 3809.0000,2891.0000 C 3805.0000,2891.0000 3801.0000,2887.0000 3801.0000,2883.0000 Z M 3801.0000,2691.0000 L 3801.0000,2579.0000 C 3801.0000,2575.0000 3805.0000,2571.0000 3809.0000,2571.0000 C 3814.0000,2571.0000 3817.0000,2575.0000 3817.0000,2579.0000 L 3817.0000,2691.0000 C 3817.0000,2695.0000 3814.0000,2699.0000 3809.0000,2699.0000 C 3805.0000,2699.0000 3801.0000,2695.0000 3801.0000,2691.0000 Z M 3801.0000,2499.0000 L 3801.0000,2387.0000 C 3801.0000,2383.0000 3805.0000,2379.0000 3809.0000,2379.0000 C 3814.0000,2379.0000 3817.0000,2383.0000 3817.0000,2387.0000 L 3817.0000,2499.0000 C 3817.0000,2503.0000 3814.0000,2507.0000 3809.0000,2507.0000 C 3805.0000,2507.0000 3801.0000,2503.0000 3801.0000,2499.0000 Z M 3801.0000,2307.0000 L 3801.0000,2195.0000 C 3801.0000,2191.0000 3805.0000,2187.0000 3809.0000,2187.0000 C 3814.0000,2187.0000 3817.0000,2191.0000 3817.0000,2195.0000 L 3817.0000,2307.0000 C 3817.0000,2311.0000 3814.0000,2315.0000 3809.0000,2315.0000 C 3805.0000,2315.0000 3801.0000,2311.0000 3801.0000,2307.0000 Z M 3801.0000,2115.0000 L 3801.0000,2003.0000 C 3801.0000,1999.0000 3805.0000,1995.0000 3809.0000,1995.0000 C 3814.0000,1995.0000 3817.0000,1999.0000 3817.0000,2003.0000 L 3817.0000,2115.0000 C 3817.0000,2119.0000 3814.0000,2123.0000 3809.0000,2123.0000 C 3805.0000,2123.0000 3801.0000,2119.0000 3801.0000,2115.0000 Z M 3801.0000,1923.0000 L 3801.0000,1811.0000 C 3801.0000,1807.0000 3805.0000,1803.0000 3809.0000,1803.0000 C 3814.0000,1803.0000 3817.0000,1807.0000 3817.0000,1811.0000 L 3817.0000,1923.0000 C 3817.0000,1927.0000 3814.0000,1931.0000 3809.0000,1931.0000 C 3805.0000,1931.0000 3801.0000,1927.0000 3801.0000,1923.0000 Z M 3801.0000,1731.0000 L 3801.0000,1619.0000 C 3801.0000,1615.0000 3805.0000,1611.0000 3809.0000,1611.0000 C 3814.0000,1611.0000 3817.0000,1615.0000 3817.0000,1619.0000 L 3817.0000,1731.0000 C 3817.0000,1735.0000 3814.0000,1739.0000 3809.0000,1739.0000 C 3805.0000,1739.0000 3801.0000,1735.0000 3801.0000,1731.0000 Z M 3801.0000,1539.0000 L 3801.0000,1427.0000 C 3801.0000,1423.0000 3805.0000,1419.0000 3809.0000,1419.0000 C 3814.0000,1419.0000 3817.0000,1423.0000 3817.0000,1427.0000 L 3817.0000,1539.0000 C 3817.0000,1543.0000 3814.0000,1547.0000 3809.0000,1547.0000 C 3805.0000,1547.0000 3801.0000,1543.0000 3801.0000,1539.0000 Z M 3801.0000,1347.0000 L 3801.0000,1235.0000 C 3801.0000,1231.0000 3805.0000,1227.0000 3809.0000,1227.0000 C 3814.0000,1227.0000 3817.0000,1231.0000 3817.0000,1235.0000 L 3817.0000,1347.0000 C 3817.0000,1351.0000 3814.0000,1355.0000 3809.0000,1355.0000 C 3805.0000,1355.0000 3801.0000,1351.0000 3801.0000,1347.0000 Z M 3801.0000,1155.0000 L 3801.0000,1043.0000 C 3801.0000,1039.0000 3805.0000,1035.0000 3809.0000,1035.0000 C 3814.0000,1035.0000 3817.0000,1039.0000 3817.0000,1043.0000 L 3817.0000,1155.0000 C 3817.0000,1159.0000 3814.0000,1163.0000 3809.0000,1163.0000 C 3805.0000,1163.0000 3801.0000,1159.0000 3801.0000,1155.0000 Z M 3801.0000,963.0000 L 3801.0000,851.0000 C 3801.0000,847.0000 3805.0000,843.0000 3809.0000,843.0000 C 3814.0000,843.0000 3817.0000,847.0000 3817.0000,851.0000 L 3817.0000,963.0000 C 3817.0000,967.0000 3814.0000,971.0000 3809.0000,971.0000 C 3805.0000,971.0000 3801.0000,967.0000 3801.0000,963.0000 Z M 3801.0000,771.0000 L 3801.0000,659.0000 C 3801.0000,655.0000 3805.0000,651.0000 3809.0000,651.0000 C 3814.0000,651.0000 3817.0000,655.0000 3817.0000,659.0000 L 3817.0000,771.0000 C 3817.0000,775.0000 3814.0000,779.0000 3809.0000,779.0000 C 3805.0000,779.0000 3801.0000,775.0000 3801.0000,771.0000 Z M 3801.0000,579.0000 L 3801.0000,467.0000 C 3801.0000,463.0000 3805.0000,459.0000 3809.0000,459.0000 C 3814.0000,459.0000 3817.0000,463.0000 3817.0000,467.0000 L 3817.0000,579.0000 C 3817.0000,583.0000 3814.0000,587.0000 3809.0000,587.0000 C 3805.0000,587.0000 3801.0000,583.0000 3801.0000,579.0000 Z M 3801.0000,387.0000 L 3801.0000,275.0000 C 3801.0000,271.0000 3805.0000,267.0000 3809.0000,267.0000 C 3814.0000,267.0000 3817.0000,271.0000 3817.0000,275.0000 L 3817.0000,387.0000 C 3817.0000,391.0000 3814.0000,395.0000 3809.0000,395.0000 C 3805.0000,395.0000 3801.0000,391.0000 3801.0000,387.0000 Z M 3801.0000,195.0000 L 3801.0000,83.0000 C 3801.0000,79.0000 3805.0000,75.0000 3809.0000,75.0000 C 3814.0000,75.0000 3817.0000,79.0000 3817.0000,83.0000 L 3817.0000,195.0000 C 3817.0000,199.0000 3814.0000,203.0000 3809.0000,203.0000 C 3805.0000,203.0000 3801.0000,199.0000 3801.0000,195.0000 Z M 3783.0000,38.0000 L 3671.0000,38.0000 C 3666.0000,38.0000 3663.0000,34.0000 3663.0000,30.0000 C 3663.0000,25.0000 3666.0000,22.0000 3671.0000,22.0000 L 3783.0000,22.0000 C 3787.0000,22.0000 3791.0000,25.0000 3791.0000,30.0000 C 3791.0000,34.0000 3787.0000,38.0000 3783.0000,38.0000 Z M 3591.0000,38.0000 L 3479.0000,38.0000 C 3474.0000,38.0000 3471.0000,34.0000 3471.0000,30.0000 C 3471.0000,25.0000 3474.0000,22.0000 3479.0000,22.0000 L 3591.0000,22.0000 C 3595.0000,22.0000 3599.0000,25.0000 3599.0000,30.0000 C 3599.0000,34.0000 3595.0000,38.0000 3591.0000,38.0000 Z M 3399.0000,38.0000 L 3287.0000,38.0000 C 3282.0000,38.0000 3279.0000,34.0000 3279.0000,30.0000 C 3279.0000,25.0000 3282.0000,22.0000 3287.0000,22.0000 L 3399.0000,22.0000 C 3403.0000,22.0000 3407.0000,25.0000 3407.0000,30.0000 C 3407.0000,34.0000 3403.0000,38.0000 3399.0000,38.0000 Z M 3207.0000,38.0000 L 3095.0000,38.0000 C 3090.0000,38.0000 3087.0000,34.0000 3087.0000,30.0000 C 3087.0000,25.0000 3090.0000,22.0000 3095.0000,22.0000 L 3207.0000,22.0000 C 3211.0000,22.0000 3215.0000,25.0000 3215.0000,30.0000 C 3215.0000,34.0000 3211.0000,38.0000 3207.0000,38.0000 Z M 3015.0000,38.0000 L 2903.0000,38.0000 C 2898.0000,38.0000 2895.0000,34.0000 2895.0000,30.0000 C 2895.0000,25.0000 2898.0000,22.0000 2903.0000,22.0000 L 3015.0000,22.0000 C 3019.0000,22.0000 3023.0000,25.0000 3023.0000,30.0000 C 3023.0000,34.0000 3019.0000,38.0000 3015.0000,38.0000 Z M 2823.0000,38.0000 L 2711.0000,38.0000 C 2706.0000,38.0000 2703.0000,34.0000 2703.0000,30.0000 C 2703.0000,25.0000 2706.0000,22.0000 2711.0000,22.0000 L 2823.0000,22.0000 C 2827.0000,22.0000 2831.0000,25.0000 2831.0000,30.0000 C 2831.0000,34.0000 2827.0000,38.0000 2823.0000,38.0000 Z M 2631.0000,38.0000 L 2519.0000,38.0000 C 2514.0000,38.0000 2511.0000,34.0000 2511.0000,30.0000 C 2511.0000,25.0000 2514.0000,22.0000 2519.0000,22.0000 L 2631.0000,22.0000 C 2635.0000,22.0000 2639.0000,25.0000 2639.0000,30.0000 C 2639.0000,34.0000 2635.0000,38.0000 2631.0000,38.0000 Z M 2439.0000,38.0000 L 2327.0000,38.0000 C 2322.0000,38.0000 2319.0000,34.0000 2319.0000,30.0000 C 2319.0000,25.0000 2322.0000,22.0000 2327.0000,22.0000 L 2439.0000,22.0000 C 2443.0000,22.0000 2447.0000,25.0000 2447.0000,30.0000 C 2447.0000,34.0000 2443.0000,38.0000 2439.0000,38.0000 Z "  fill="#000000" stroke="#000000" stroke-width="16.0000"  stroke-linecap="butt"  stroke-linejoin="bevel" />
</g>
<g transform="matrix(1.0000 0.0000 0.0000 1.0000 0.0000 0.0000)">
<text font-family="Arial" fill="#000000" style ="white-space:pre;" font-weight="400" text-anchor="start" x="149.0000" y="17.0000" font-size="11.0000" ><![CDATA[g]]></text>
<text font-family="Arial" fill="#000000" style ="white-space:pre;" font-weight="400" text-anchor="start" x="155.0000" y="17.0000" font-size="11.0000" ><![CDATA[NB]]></text>
</g>
<g transform="matrix(0.0625 0.0000 0.0000 0.0625 0.0000 0.0000)">
<path d="M 2448.0000,3053.0000 L 3658.0000,3053.0000 L 3658.0000,2751.0000 L 2448.0000,2751.0000 L 2448.0000,3053.0000 Z" stroke="#000000" stroke-width="5.0000"  stroke-linecap="round"  stroke-linejoin="round" fill="none" />
</g>
<g transform="matrix(1.0000 0.0000 0.0000 1.0000 0.0000 0.0000)">
<text font-family="Arial" fill="#000000" style ="white-space:pre;" font-weight="400" text-anchor="start" x="180.0000" y="185.0000" font-size="11.0000" ><![CDATA[PHY]]></text>
</g>
<g transform="matrix(0.0625 0.0000 0.0000 0.0625 0.0000 0.0000)">
<path d="M 38.0000,46.0000 L 38.0000,158.0000 C 38.0000,162.0000 34.0000,166.0000 30.0000,166.0000 C 25.0000,166.0000 22.0000,162.0000 22.0000,158.0000 L 22.0000,46.0000 C 22.0000,41.0000 25.0000,38.0000 30.0000,38.0000 C 34.0000,38.0000 38.0000,41.0000 38.0000,46.0000 Z M 38.0000,238.0000 L 38.0000,350.0000 C 38.0000,354.0000 34.0000,358.0000 30.0000,358.0000 C 25.0000,358.0000 22.0000,354.0000 22.0000,350.0000 L 22.0000,238.0000 C 22.0000,233.0000 25.0000,230.0000 30.0000,230.0000 C 34.0000,230.0000 38.0000,233.0000 38.0000,238.0000 Z M 38.0000,430.0000 L 38.0000,542.0000 C 38.0000,546.0000 34.0000,550.0000 30.0000,550.0000 C 25.0000,550.0000 22.0000,546.0000 22.0000,542.0000 L 22.0000,430.0000 C 22.0000,425.0000 25.0000,422.0000 30.0000,422.0000 C 34.0000,422.0000 38.0000,425.0000 38.0000,430.0000 Z M 38.0000,622.0000 L 38.0000,734.0000 C 38.0000,738.0000 34.0000,742.0000 30.0000,742.0000 C 25.0000,742.0000 22.0000,738.0000 22.0000,734.0000 L 22.0000,622.0000 C 22.0000,617.0000 25.0000,614.0000 30.0000,614.0000 C 34.0000,614.0000 38.0000,617.0000 38.0000,622.0000 Z M 38.0000,814.0000 L 38.0000,926.0000 C 38.0000,930.0000 34.0000,934.0000 30.0000,934.0000 C 25.0000,934.0000 22.0000,930.0000 22.0000,926.0000 L 22.0000,814.0000 C 22.0000,809.0000 25.0000,806.0000 30.0000,806.0000 C 34.0000,806.0000 38.0000,809.0000 38.0000,814.0000 Z M 38.0000,1006.0000 L 38.0000,1118.0000 C 38.0000,1122.0000 34.0000,1126.0000 30.0000,1126.0000 C 25.0000,1126.0000 22.0000,1122.0000 22.0000,1118.0000 L 22.0000,1006.0000 C 22.0000,1001.0000 25.0000,998.0000 30.0000,998.0000 C 34.0000,998.0000 38.0000,1001.0000 38.0000,1006.0000 Z M 38.0000,1198.0000 L 38.0000,1310.0000 C 38.0000,1314.0000 34.0000,1318.0000 30.0000,1318.0000 C 25.0000,1318.0000 22.0000,1314.0000 22.0000,1310.0000 L 22.0000,1198.0000 C 22.0000,1193.0000 25.0000,1190.0000 30.0000,1190.0000 C 34.0000,1190.0000 38.0000,1193.0000 38.0000,1198.0000 Z M 38.0000,1390.0000 L 38.0000,1502.0000 C 38.0000,1506.0000 34.0000,1510.0000 30.0000,1510.0000 C 25.0000,1510.0000 22.0000,1506.0000 22.0000,1502.0000 L 22.0000,1390.0000 C 22.0000,1385.0000 25.0000,1382.0000 30.0000,1382.0000 C 34.0000,1382.0000 38.0000,1385.0000 38.0000,1390.0000 Z M 38.0000,1582.0000 L 38.0000,1694.0000 C 38.0000,1698.0000 34.0000,1702.0000 30.0000,1702.0000 C 25.0000,1702.0000 22.0000,1698.0000 22.0000,1694.0000 L 22.0000,1582.0000 C 22.0000,1577.0000 25.0000,1574.0000 30.0000,1574.0000 C 34.0000,1574.0000 38.0000,1577.0000 38.0000,1582.0000 Z M 38.0000,1774.0000 L 38.0000,1886.0000 C 38.0000,1890.0000 34.0000,1894.0000 30.0000,1894.0000 C 25.0000,1894.0000 22.0000,1890.0000 22.0000,1886.0000 L 22.0000,1774.0000 C 22.0000,1769.0000 25.0000,1766.0000 30.0000,1766.0000 C 34.0000,1766.0000 38.0000,1769.0000 38.0000,1774.0000 Z M 38.0000,1966.0000 L 38.0000,2078.0000 C 38.0000,2082.0000 34.0000,2086.0000 30.0000,2086.0000 C 25.0000,2086.0000 22.0000,2082.0000 22.0000,2078.0000 L 22.0000,1966.0000 C 22.0000,1961.0000 25.0000,1958.0000 30.0000,1958.0000 C 34.0000,1958.0000 38.0000,1961.0000 38.0000,1966.0000 Z M 38.0000,2158.0000 L 38.0000,2270.0000 C 38.0000,2274.0000 34.0000,2278.0000 30.0000,2278.0000 C 25.0000,2278.0000 22.0000,2274.0000 22.0000,2270.0000 L 22.0000,2158.0000 C 22.0000,2153.0000 25.0000,2150.0000 30.0000,2150.0000 C 34.0000,2150.0000 38.0000,2153.0000 38.0000,2158.0000 Z M 38.0000,2350.0000 L 38.0000,2462.0000 C 38.0000,2466.0000 34.0000,2470.0000 30.0000,2470.0000 C 25.0000,2470.0000 22.0000,2466.0000 22.0000,2462.0000 L 22.0000,2350.0000 C 22.0000,2345.0000 25.0000,2342.0000 30.0000,2342.0000 C 34.0000,2342.0000 38.0000,2345.0000 38.0000,2350.0000 Z M 38.0000,2542.0000 L 38.0000,2654.0000 C 38.0000,2658.0000 34.0000,2662.0000 30.0000,2662.0000 C 25.0000,2662.0000 22.0000,2658.0000 22.0000,2654.0000 L 22.0000,2542.0000 C 22.0000,2537.0000 25.0000,2534.0000 30.0000,2534.0000 C 34.0000,2534.0000 38.0000,2537.0000 38.0000,2542.0000 Z M 38.0000,2734.0000 L 38.0000,2846.0000 C 38.0000,2850.0000 34.0000,2854.0000 30.0000,2854.0000 C 25.0000,2854.0000 22.0000,2850.0000 22.0000,2846.0000 L 22.0000,2734.0000 C 22.0000,2729.0000 25.0000,2726.0000 30.0000,2726.0000 C 34.0000,2726.0000 38.0000,2729.0000 38.0000,2734.0000 Z M 38.0000,2926.0000 L 38.0000,3038.0000 C 38.0000,3042.0000 34.0000,3046.0000 30.0000,3046.0000 C 25.0000,3046.0000 22.0000,3042.0000 22.0000,3038.0000 L 22.0000,2926.0000 C 22.0000,2921.0000 25.0000,2918.0000 30.0000,2918.0000 C 34.0000,2918.0000 38.0000,2921.0000 38.0000,2926.0000 Z M 38.0000,3118.0000 L 38.0000,3204.0000 L 30.0000,3196.0000 L 55.0000,3196.0000 C 59.0000,3196.0000 63.0000,3200.0000 63.0000,3204.0000 C 63.0000,3209.0000 59.0000,3212.0000 55.0000,3212.0000 L 30.0000,3212.0000 C 25.0000,3212.0000 22.0000,3209.0000 22.0000,3204.0000 L 22.0000,3118.0000 C 22.0000,3113.0000 25.0000,3110.0000 30.0000,3110.0000 C 34.0000,3110.0000 38.0000,3113.0000 38.0000,3118.0000 Z M 135.0000,3196.0000 L 247.0000,3196.0000 C 251.0000,3196.0000 255.0000,3200.0000 255.0000,3204.0000 C 255.0000,3209.0000 251.0000,3212.0000 247.0000,3212.0000 L 135.0000,3212.0000 C 130.0000,3212.0000 127.0000,3209.0000 127.0000,3204.0000 C 127.0000,3200.0000 130.0000,3196.0000 135.0000,3196.0000 Z M 327.0000,3196.0000 L 439.0000,3196.0000 C 443.0000,3196.0000 447.0000,3200.0000 447.0000,3204.0000 C 447.0000,3209.0000 443.0000,3212.0000 439.0000,3212.0000 L 327.0000,3212.0000 C 322.0000,3212.0000 319.0000,3209.0000 319.0000,3204.0000 C 319.0000,3200.0000 322.0000,3196.0000 327.0000,3196.0000 Z M 519.0000,3196.0000 L 631.0000,3196.0000 C 635.0000,3196.0000 639.0000,3200.0000 639.0000,3204.0000 C 639.0000,3209.0000 635.0000,3212.0000 631.0000,3212.0000 L 519.0000,3212.0000 C 514.0000,3212.0000 511.0000,3209.0000 511.0000,3204.0000 C 511.0000,3200.0000 514.0000,3196.0000 519.0000,3196.0000 Z M 711.0000,3196.0000 L 823.0000,3196.0000 C 827.0000,3196.0000 831.0000,3200.0000 831.0000,3204.0000 C 831.0000,3209.0000 827.0000,3212.0000 823.0000,3212.0000 L 711.0000,3212.0000 C 706.0000,3212.0000 703.0000,3209.0000 703.0000,3204.0000 C 703.0000,3200.0000 706.0000,3196.0000 711.0000,3196.0000 Z M 903.0000,3196.0000 L 1015.0000,3196.0000 C 1019.0000,3196.0000 1023.0000,3200.0000 1023.0000,3204.0000 C 1023.0000,3209.0000 1019.0000,3212.0000 1015.0000,3212.0000 L 903.0000,3212.0000 C 898.0000,3212.0000 895.0000,3209.0000 895.0000,3204.0000 C 895.0000,3200.0000 898.0000,3196.0000 903.0000,3196.0000 Z M 1095.0000,3196.0000 L 1207.0000,3196.0000 C 1211.0000,3196.0000 1215.0000,3200.0000 1215.0000,3204.0000 C 1215.0000,3209.0000 1211.0000,3212.0000 1207.0000,3212.0000 L 1095.0000,3212.0000 C 1090.0000,3212.0000 1087.0000,3209.0000 1087.0000,3204.0000 C 1087.0000,3200.0000 1090.0000,3196.0000 1095.0000,3196.0000 Z M 1287.0000,3196.0000 L 1399.0000,3196.0000 C 1403.0000,3196.0000 1407.0000,3200.0000 1407.0000,3204.0000 C 1407.0000,3209.0000 1403.0000,3212.0000 1399.0000,3212.0000 L 1287.0000,3212.0000 C 1282.0000,3212.0000 1279.0000,3209.0000 1279.0000,3204.0000 C 1279.0000,3200.0000 1282.0000,3196.0000 1287.0000,3196.0000 Z M 1479.0000,3196.0000 L 1541.0000,3196.0000 L 1533.0000,3204.0000 L 1533.0000,3155.0000 C 1533.0000,3151.0000 1537.0000,3147.0000 1541.0000,3147.0000 C 1546.0000,3147.0000 1549.0000,3151.0000 1549.0000,3155.0000 L 1549.0000,3204.0000 C 1549.0000,3209.0000 1546.0000,3212.0000 1541.0000,3212.0000 L 1479.0000,3212.0000 C 1474.0000,3212.0000 1471.0000,3209.0000 1471.0000,3204.0000 C 1471.0000,3200.0000 1474.0000,3196.0000 1479.0000,3196.0000 Z M 1533.0000,3075.0000 L 1533.0000,2963.0000 C 1533.0000,2959.0000 1537.0000,2955.0000 1541.0000,2955.0000 C 1546.0000,2955.0000 1549.0000,2959.0000 1549.0000,2963.0000 L 1549.0000,3075.0000 C 1549.0000,3079.0000 1546.0000,3083.0000 1541.0000,3083.0000 C 1537.0000,3083.0000 1533.0000,3079.0000 1533.0000,3075.0000 Z M 1533.0000,2883.0000 L 1533.0000,2771.0000 C 1533.0000,2767.0000 1537.0000,2763.0000 1541.0000,2763.0000 C 1546.0000,2763.0000 1549.0000,2767.0000 1549.0000,2771.0000 L 1549.0000,2883.0000 C 1549.0000,2887.0000 1546.0000,2891.0000 1541.0000,2891.0000 C 1537.0000,2891.0000 1533.0000,2887.0000 1533.0000,2883.0000 Z M 1533.0000,2691.0000 L 1533.0000,2579.0000 C 1533.0000,2575.0000 1537.0000,2571.0000 1541.0000,2571.0000 C 1546.0000,2571.0000 1549.0000,2575.0000 1549.0000,2579.0000 L 1549.0000,2691.0000 C 1549.0000,2695.0000 1546.0000,2699.0000 1541.0000,2699.0000 C 1537.0000,2699.0000 1533.0000,2695.0000 1533.0000,2691.0000 Z M 1533.0000,2499.0000 L 1533.0000,2387.0000 C 1533.0000,2383.0000 1537.0000,2379.0000 1541.0000,2379.0000 C 1546.0000,2379.0000 1549.0000,2383.0000 1549.0000,2387.0000 L 1549.0000,2499.0000 C 1549.0000,2503.0000 1546.0000,2507.0000 1541.0000,2507.0000 C 1537.0000,2507.0000 1533.0000,2503.0000 1533.0000,2499.0000 Z M 1533.0000,2307.0000 L 1533.0000,2195.0000 C 1533.0000,2191.0000 1537.0000,2187.0000 1541.0000,2187.0000 C 1546.0000,2187.0000 1549.0000,2191.0000 1549.0000,2195.0000 L 1549.0000,2307.0000 C 1549.0000,2311.0000 1546.0000,2315.0000 1541.0000,2315.0000 C 1537.0000,2315.0000 1533.0000,2311.0000 1533.0000,2307.0000 Z M 1533.0000,2115.0000 L 1533.0000,2003.0000 C 1533.0000,1999.0000 1537.0000,1995.0000 1541.0000,1995.0000 C 1546.0000,1995.0000 1549.0000,1999.0000 1549.0000,2003.0000 L 1549.0000,2115.0000 C 1549.0000,2119.0000 1546.0000,2123.0000 1541.0000,2123.0000 C 1537.0000,2123.0000 1533.0000,2119.0000 1533.0000,2115.0000 Z M 1533.0000,1923.0000 L 1533.0000,1811.0000 C 1533.0000,1807.0000 1537.0000,1803.0000 1541.0000,1803.0000 C 1546.0000,1803.0000 1549.0000,1807.0000 1549.0000,1811.0000 L 1549.0000,1923.0000 C 1549.0000,1927.0000 1546.0000,1931.0000 1541.0000,1931.0000 C 1537.0000,1931.0000 1533.0000,1927.0000 1533.0000,1923.0000 Z M 1533.0000,1731.0000 L 1533.0000,1619.0000 C 1533.0000,1615.0000 1537.0000,1611.0000 1541.0000,1611.0000 C 1546.0000,1611.0000 1549.0000,1615.0000 1549.0000,1619.0000 L 1549.0000,1731.0000 C 1549.0000,1735.0000 1546.0000,1739.0000 1541.0000,1739.0000 C 1537.0000,1739.0000 1533.0000,1735.0000 1533.0000,1731.0000 Z M 1533.0000,1539.0000 L 1533.0000,1427.0000 C 1533.0000,1423.0000 1537.0000,1419.0000 1541.0000,1419.0000 C 1546.0000,1419.0000 1549.0000,1423.0000 1549.0000,1427.0000 L 1549.0000,1539.0000 C 1549.0000,1543.0000 1546.0000,1547.0000 1541.0000,1547.0000 C 1537.0000,1547.0000 1533.0000,1543.0000 1533.0000,1539.0000 Z M 1533.0000,1347.0000 L 1533.0000,1235.0000 C 1533.0000,1231.0000 1537.0000,1227.0000 1541.0000,1227.0000 C 1546.0000,1227.0000 1549.0000,1231.0000 1549.0000,1235.0000 L 1549.0000,1347.0000 C 1549.0000,1351.0000 1546.0000,1355.0000 1541.0000,1355.0000 C 1537.0000,1355.0000 1533.0000,1351.0000 1533.0000,1347.0000 Z M 1533.0000,1155.0000 L 1533.0000,1043.0000 C 1533.0000,1039.0000 1537.0000,1035.0000 1541.0000,1035.0000 C 1546.0000,1035.0000 1549.0000,1039.0000 1549.0000,1043.0000 L 1549.0000,1155.0000 C 1549.0000,1159.0000 1546.0000,1163.0000 1541.0000,1163.0000 C 1537.0000,1163.0000 1533.0000,1159.0000 1533.0000,1155.0000 Z M 1533.0000,963.0000 L 1533.0000,851.0000 C 1533.0000,847.0000 1537.0000,843.0000 1541.0000,843.0000 C 1546.0000,843.0000 1549.0000,847.0000 1549.0000,851.0000 L 1549.0000,963.0000 C 1549.0000,967.0000 1546.0000,971.0000 1541.0000,971.0000 C 1537.0000,971.0000 1533.0000,967.0000 1533.0000,963.0000 Z M 1533.0000,771.0000 L 1533.0000,659.0000 C 1533.0000,655.0000 1537.0000,651.0000 1541.0000,651.0000 C 1546.0000,651.0000 1549.0000,655.0000 1549.0000,659.0000 L 1549.0000,771.0000 C 1549.0000,775.0000 1546.0000,779.0000 1541.0000,779.0000 C 1537.0000,779.0000 1533.0000,775.0000 1533.0000,771.0000 Z M 1533.0000,579.0000 L 1533.0000,467.0000 C 1533.0000,463.0000 1537.0000,459.0000 1541.0000,459.0000 C 1546.0000,459.0000 1549.0000,463.0000 1549.0000,467.0000 L 1549.0000,579.0000 C 1549.0000,583.0000 1546.0000,587.0000 1541.0000,587.0000 C 1537.0000,587.0000 1533.0000,583.0000 1533.0000,579.0000 Z M 1533.0000,387.0000 L 1533.0000,275.0000 C 1533.0000,271.0000 1537.0000,267.0000 1541.0000,267.0000 C 1546.0000,267.0000 1549.0000,271.0000 1549.0000,275.0000 L 1549.0000,387.0000 C 1549.0000,391.0000 1546.0000,395.0000 1541.0000,395.0000 C 1537.0000,395.0000 1533.0000,391.0000 1533.0000,387.0000 Z M 1533.0000,195.0000 L 1533.0000,83.0000 C 1533.0000,79.0000 1537.0000,75.0000 1541.0000,75.0000 C 1546.0000,75.0000 1549.0000,79.0000 1549.0000,83.0000 L 1549.0000,195.0000 C 1549.0000,199.0000 1546.0000,203.0000 1541.0000,203.0000 C 1537.0000,203.0000 1533.0000,199.0000 1533.0000,195.0000 Z M 1515.0000,38.0000 L 1403.0000,38.0000 C 1398.0000,38.0000 1395.0000,34.0000 1395.0000,30.0000 C 1395.0000,25.0000 1398.0000,22.0000 1403.0000,22.0000 L 1515.0000,22.0000 C 1519.0000,22.0000 1523.0000,25.0000 1523.0000,30.0000 C 1523.0000,34.0000 1519.0000,38.0000 1515.0000,38.0000 Z M 1323.0000,38.0000 L 1211.0000,38.0000 C 1206.0000,38.0000 1203.0000,34.0000 1203.0000,30.0000 C 1203.0000,25.0000 1206.0000,22.0000 1211.0000,22.0000 L 1323.0000,22.0000 C 1327.0000,22.0000 1331.0000,25.0000 1331.0000,30.0000 C 1331.0000,34.0000 1327.0000,38.0000 1323.0000,38.0000 Z M 1131.0000,38.0000 L 1019.0000,38.0000 C 1014.0000,38.0000 1011.0000,34.0000 1011.0000,30.0000 C 1011.0000,25.0000 1014.0000,22.0000 1019.0000,22.0000 L 1131.0000,22.0000 C 1135.0000,22.0000 1139.0000,25.0000 1139.0000,30.0000 C 1139.0000,34.0000 1135.0000,38.0000 1131.0000,38.0000 Z M 939.0000,38.0000 L 827.0000,38.0000 C 822.0000,38.0000 819.0000,34.0000 819.0000,30.0000 C 819.0000,25.0000 822.0000,22.0000 827.0000,22.0000 L 939.0000,22.0000 C 943.0000,22.0000 947.0000,25.0000 947.0000,30.0000 C 947.0000,34.0000 943.0000,38.0000 939.0000,38.0000 Z M 747.0000,38.0000 L 635.0000,38.0000 C 630.0000,38.0000 627.0000,34.0000 627.0000,30.0000 C 627.0000,25.0000 630.0000,22.0000 635.0000,22.0000 L 747.0000,22.0000 C 751.0000,22.0000 755.0000,25.0000 755.0000,30.0000 C 755.0000,34.0000 751.0000,38.0000 747.0000,38.0000 Z M 555.0000,38.0000 L 443.0000,38.0000 C 438.0000,38.0000 435.0000,34.0000 435.0000,30.0000 C 435.0000,25.0000 438.0000,22.0000 443.0000,22.0000 L 555.0000,22.0000 C 559.0000,22.0000 563.0000,25.0000 563.0000,30.0000 C 563.0000,34.0000 559.0000,38.0000 555.0000,38.0000 Z M 363.0000,38.0000 L 251.0000,38.0000 C 246.0000,38.0000 243.0000,34.0000 243.0000,30.0000 C 243.0000,25.0000 246.0000,22.0000 251.0000,22.0000 L 363.0000,22.0000 C 367.0000,22.0000 371.0000,25.0000 371.0000,30.0000 C 371.0000,34.0000 367.0000,38.0000 363.0000,38.0000 Z M 171.0000,38.0000 L 59.0000,38.0000 C 54.0000,38.0000 51.0000,34.0000 51.0000,30.0000 C 51.0000,25.0000 54.0000,22.0000 59.0000,22.0000 L 171.0000,22.0000 C 175.0000,22.0000 179.0000,25.0000 179.0000,30.0000 C 179.0000,34.0000 175.0000,38.0000 171.0000,38.0000 Z "  fill="#000000" stroke="#000000" stroke-width="16.0000"  stroke-linecap="butt"  stroke-linejoin="bevel" />
</g>
<g transform="matrix(1.0000 0.0000 0.0000 1.0000 0.0000 0.0000)">
<text font-family="Arial" fill="#000000" style ="white-space:pre;" font-weight="400" text-anchor="start" x="7.0000" y="17.0000" font-size="11.0000" ><![CDATA[UE]]></text>
</g>
<g transform="matrix(0.0625 0.0000 0.0000 0.0625 0.0000 0.0000)">
<path d="M 181.0000,3053.0000 L 1390.0000,3053.0000 L 1390.0000,2751.0000 L 181.0000,2751.0000 L 181.0000,3053.0000 Z" stroke="#000000" stroke-width="5.0000"  stroke-linecap="round"  stroke-linejoin="round" fill="none" />
</g>
<g transform="matrix(1.0000 0.0000 0.0000 1.0000 0.0000 0.0000)">
<text font-family="Arial" fill="#000000" style ="white-space:pre;" font-weight="400" text-anchor="start" x="38.0000" y="185.0000" font-size="11.0000" ><![CDATA[PHY]]></text>
</g>
<g transform="matrix(0.0625 0.0000 0.0000 0.0625 0.0000 0.0000)">
<path d="M 181.0000,2600.0000 L 1390.0000,2600.0000 L 1390.0000,2297.0000 L 181.0000,2297.0000 L 181.0000,2600.0000 Z" stroke="#000000" stroke-width="5.0000"  stroke-linecap="round"  stroke-linejoin="round" fill="none" />
</g>
<g transform="matrix(1.0000 0.0000 0.0000 1.0000 0.0000 0.0000)">
<text font-family="Arial" fill="#000000" style ="white-space:pre;" font-weight="400" text-anchor="start" x="37.0000" y="156.0000" font-size="11.0000" ><![CDATA[MAC]]></text>
</g>
<g transform="matrix(0.0625 0.0000 0.0000 0.0625 0.0000 0.0000)">
<path d="M 181.0000,2146.0000 L 1390.0000,2146.0000 L 1390.0000,1844.0000 L 181.0000,1844.0000 L 181.0000,2146.0000 Z" stroke="#000000" stroke-width="5.0000"  stroke-linecap="round"  stroke-linejoin="round" fill="none" />
</g>
<g transform="matrix(1.0000 0.0000 0.0000 1.0000 0.0000 0.0000)">
<text font-family="Arial" fill="#000000" style ="white-space:pre;" font-weight="400" text-anchor="start" x="38.0000" y="128.0000" font-size="11.0000" ><![CDATA[RLC]]></text>
</g>
<g transform="matrix(0.0625 0.0000 0.0000 0.0625 0.0000 0.0000)">
<path d="M 2448.0000,2600.0000 L 3658.0000,2600.0000 L 3658.0000,2297.0000 L 2448.0000,2297.0000 L 2448.0000,2600.0000 Z" stroke="#000000" stroke-width="5.0000"  stroke-linecap="round"  stroke-linejoin="round" fill="none" />
</g>
<g transform="matrix(1.0000 0.0000 0.0000 1.0000 0.0000 0.0000)">
<text font-family="Arial" fill="#000000" style ="white-space:pre;" font-weight="400" text-anchor="start" x="179.0000" y="156.0000" font-size="11.0000" ><![CDATA[MAC]]></text>
</g>
<g transform="matrix(0.0625 0.0000 0.0000 0.0625 0.0000 0.0000)">
<path d="M 4573.0000,46.0000 L 4573.0000,158.0000 C 4573.0000,162.0000 4569.0000,166.0000 4565.0000,166.0000 C 4561.0000,166.0000 4557.0000,162.0000 4557.0000,158.0000 L 4557.0000,46.0000 C 4557.0000,41.0000 4561.0000,38.0000 4565.0000,38.0000 C 4569.0000,38.0000 4573.0000,41.0000 4573.0000,46.0000 Z M 4573.0000,238.0000 L 4573.0000,350.0000 C 4573.0000,354.0000 4569.0000,358.0000 4565.0000,358.0000 C 4561.0000,358.0000 4557.0000,354.0000 4557.0000,350.0000 L 4557.0000,238.0000 C 4557.0000,233.0000 4561.0000,230.0000 4565.0000,230.0000 C 4569.0000,230.0000 4573.0000,233.0000 4573.0000,238.0000 Z M 4573.0000,430.0000 L 4573.0000,542.0000 C 4573.0000,546.0000 4569.0000,550.0000 4565.0000,550.0000 C 4561.0000,550.0000 4557.0000,546.0000 4557.0000,542.0000 L 4557.0000,430.0000 C 4557.0000,425.0000 4561.0000,422.0000 4565.0000,422.0000 C 4569.0000,422.0000 4573.0000,425.0000 4573.0000,430.0000 Z M 4573.0000,622.0000 L 4573.0000,734.0000 C 4573.0000,738.0000 4569.0000,742.0000 4565.0000,742.0000 C 4561.0000,742.0000 4557.0000,738.0000 4557.0000,734.0000 L 4557.0000,622.0000 C 4557.0000,617.0000 4561.0000,614.0000 4565.0000,614.0000 C 4569.0000,614.0000 4573.0000,617.0000 4573.0000,622.0000 Z M 4573.0000,814.0000 L 4573.0000,926.0000 C 4573.0000,930.0000 4569.0000,934.0000 4565.0000,934.0000 C 4561.0000,934.0000 4557.0000,930.0000 4557.0000,926.0000 L 4557.0000,814.0000 C 4557.0000,809.0000 4561.0000,806.0000 4565.0000,806.0000 C 4569.0000,806.0000 4573.0000,809.0000 4573.0000,814.0000 Z M 4573.0000,1006.0000 L 4573.0000,1118.0000 C 4573.0000,1122.0000 4569.0000,1126.0000 4565.0000,1126.0000 C 4561.0000,1126.0000 4557.0000,1122.0000 4557.0000,1118.0000 L 4557.0000,1006.0000 C 4557.0000,1001.0000 4561.0000,998.0000 4565.0000,998.0000 C 4569.0000,998.0000 4573.0000,1001.0000 4573.0000,1006.0000 Z M 4573.0000,1198.0000 L 4573.0000,1310.0000 C 4573.0000,1314.0000 4569.0000,1318.0000 4565.0000,1318.0000 C 4561.0000,1318.0000 4557.0000,1314.0000 4557.0000,1310.0000 L 4557.0000,1198.0000 C 4557.0000,1193.0000 4561.0000,1190.0000 4565.0000,1190.0000 C 4569.0000,1190.0000 4573.0000,1193.0000 4573.0000,1198.0000 Z M 4573.0000,1390.0000 L 4573.0000,1502.0000 C 4573.0000,1506.0000 4569.0000,1510.0000 4565.0000,1510.0000 C 4561.0000,1510.0000 4557.0000,1506.0000 4557.0000,1502.0000 L 4557.0000,1390.0000 C 4557.0000,1385.0000 4561.0000,1382.0000 4565.0000,1382.0000 C 4569.0000,1382.0000 4573.0000,1385.0000 4573.0000,1390.0000 Z M 4573.0000,1582.0000 L 4573.0000,1694.0000 C 4573.0000,1698.0000 4569.0000,1702.0000 4565.0000,1702.0000 C 4561.0000,1702.0000 4557.0000,1698.0000 4557.0000,1694.0000 L 4557.0000,1582.0000 C 4557.0000,1577.0000 4561.0000,1574.0000 4565.0000,1574.0000 C 4569.0000,1574.0000 4573.0000,1577.0000 4573.0000,1582.0000 Z M 4573.0000,1774.0000 L 4573.0000,1886.0000 C 4573.0000,1890.0000 4569.0000,1894.0000 4565.0000,1894.0000 C 4561.0000,1894.0000 4557.0000,1890.0000 4557.0000,1886.0000 L 4557.0000,1774.0000 C 4557.0000,1769.0000 4561.0000,1766.0000 4565.0000,1766.0000 C 4569.0000,1766.0000 4573.0000,1769.0000 4573.0000,1774.0000 Z M 4573.0000,1966.0000 L 4573.0000,2078.0000 C 4573.0000,2082.0000 4569.0000,2086.0000 4565.0000,2086.0000 C 4561.0000,2086.0000 4557.0000,2082.0000 4557.0000,2078.0000 L 4557.0000,1966.0000 C 4557.0000,1961.0000 4561.0000,1958.0000 4565.0000,1958.0000 C 4569.0000,1958.0000 4573.0000,1961.0000 4573.0000,1966.0000 Z M 4573.0000,2158.0000 L 4573.0000,2270.0000 C 4573.0000,2274.0000 4569.0000,2278.0000 4565.0000,2278.0000 C 4561.0000,2278.0000 4557.0000,2274.0000 4557.0000,2270.0000 L 4557.0000,2158.0000 C 4557.0000,2153.0000 4561.0000,2150.0000 4565.0000,2150.0000 C 4569.0000,2150.0000 4573.0000,2153.0000 4573.0000,2158.0000 Z M 4573.0000,2350.0000 L 4573.0000,2462.0000 C 4573.0000,2466.0000 4569.0000,2470.0000 4565.0000,2470.0000 C 4561.0000,2470.0000 4557.0000,2466.0000 4557.0000,2462.0000 L 4557.0000,2350.0000 C 4557.0000,2345.0000 4561.0000,2342.0000 4565.0000,2342.0000 C 4569.0000,2342.0000 4573.0000,2345.0000 4573.0000,2350.0000 Z M 4573.0000,2542.0000 L 4573.0000,2654.0000 C 4573.0000,2658.0000 4569.0000,2662.0000 4565.0000,2662.0000 C 4561.0000,2662.0000 4557.0000,2658.0000 4557.0000,2654.0000 L 4557.0000,2542.0000 C 4557.0000,2537.0000 4561.0000,2534.0000 4565.0000,2534.0000 C 4569.0000,2534.0000 4573.0000,2537.0000 4573.0000,2542.0000 Z M 4573.0000,2734.0000 L 4573.0000,2846.0000 C 4573.0000,2850.0000 4569.0000,2854.0000 4565.0000,2854.0000 C 4561.0000,2854.0000 4557.0000,2850.0000 4557.0000,2846.0000 L 4557.0000,2734.0000 C 4557.0000,2729.0000 4561.0000,2726.0000 4565.0000,2726.0000 C 4569.0000,2726.0000 4573.0000,2729.0000 4573.0000,2734.0000 Z M 4573.0000,2926.0000 L 4573.0000,3038.0000 C 4573.0000,3042.0000 4569.0000,3046.0000 4565.0000,3046.0000 C 4561.0000,3046.0000 4557.0000,3042.0000 4557.0000,3038.0000 L 4557.0000,2926.0000 C 4557.0000,2921.0000 4561.0000,2918.0000 4565.0000,2918.0000 C 4569.0000,2918.0000 4573.0000,2921.0000 4573.0000,2926.0000 Z M 4573.0000,3118.0000 L 4573.0000,3204.0000 L 4565.0000,3196.0000 L 4590.0000,3196.0000 C 4595.0000,3196.0000 4598.0000,3200.0000 4598.0000,3204.0000 C 4598.0000,3209.0000 4595.0000,3212.0000 4590.0000,3212.0000 L 4565.0000,3212.0000 C 4561.0000,3212.0000 4557.0000,3209.0000 4557.0000,3204.0000 L 4557.0000,3118.0000 C 4557.0000,3113.0000 4561.0000,3110.0000 4565.0000,3110.0000 C 4569.0000,3110.0000 4573.0000,3113.0000 4573.0000,3118.0000 Z M 4670.0000,3196.0000 L 4782.0000,3196.0000 C 4787.0000,3196.0000 4790.0000,3200.0000 4790.0000,3204.0000 C 4790.0000,3209.0000 4787.0000,3212.0000 4782.0000,3212.0000 L 4670.0000,3212.0000 C 4666.0000,3212.0000 4662.0000,3209.0000 4662.0000,3204.0000 C 4662.0000,3200.0000 4666.0000,3196.0000 4670.0000,3196.0000 Z M 4862.0000,3196.0000 L 4974.0000,3196.0000 C 4979.0000,3196.0000 4982.0000,3200.0000 4982.0000,3204.0000 C 4982.0000,3209.0000 4979.0000,3212.0000 4974.0000,3212.0000 L 4862.0000,3212.0000 C 4858.0000,3212.0000 4854.0000,3209.0000 4854.0000,3204.0000 C 4854.0000,3200.0000 4858.0000,3196.0000 4862.0000,3196.0000 Z M 5054.0000,3196.0000 L 5166.0000,3196.0000 C 5171.0000,3196.0000 5174.0000,3200.0000 5174.0000,3204.0000 C 5174.0000,3209.0000 5171.0000,3212.0000 5166.0000,3212.0000 L 5054.0000,3212.0000 C 5050.0000,3212.0000 5046.0000,3209.0000 5046.0000,3204.0000 C 5046.0000,3200.0000 5050.0000,3196.0000 5054.0000,3196.0000 Z M 5246.0000,3196.0000 L 5358.0000,3196.0000 C 5363.0000,3196.0000 5366.0000,3200.0000 5366.0000,3204.0000 C 5366.0000,3209.0000 5363.0000,3212.0000 5358.0000,3212.0000 L 5246.0000,3212.0000 C 5242.0000,3212.0000 5238.0000,3209.0000 5238.0000,3204.0000 C 5238.0000,3200.0000 5242.0000,3196.0000 5246.0000,3196.0000 Z M 5438.0000,3196.0000 L 5550.0000,3196.0000 C 5555.0000,3196.0000 5558.0000,3200.0000 5558.0000,3204.0000 C 5558.0000,3209.0000 5555.0000,3212.0000 5550.0000,3212.0000 L 5438.0000,3212.0000 C 5434.0000,3212.0000 5430.0000,3209.0000 5430.0000,3204.0000 C 5430.0000,3200.0000 5434.0000,3196.0000 5438.0000,3196.0000 Z M 5630.0000,3196.0000 L 5742.0000,3196.0000 C 5747.0000,3196.0000 5750.0000,3200.0000 5750.0000,3204.0000 C 5750.0000,3209.0000 5747.0000,3212.0000 5742.0000,3212.0000 L 5630.0000,3212.0000 C 5626.0000,3212.0000 5622.0000,3209.0000 5622.0000,3204.0000 C 5622.0000,3200.0000 5626.0000,3196.0000 5630.0000,3196.0000 Z M 5822.0000,3196.0000 L 5934.0000,3196.0000 C 5939.0000,3196.0000 5942.0000,3200.0000 5942.0000,3204.0000 C 5942.0000,3209.0000 5939.0000,3212.0000 5934.0000,3212.0000 L 5822.0000,3212.0000 C 5818.0000,3212.0000 5814.0000,3209.0000 5814.0000,3204.0000 C 5814.0000,3200.0000 5818.0000,3196.0000 5822.0000,3196.0000 Z M 6014.0000,3196.0000 L 6077.0000,3196.0000 L 6069.0000,3204.0000 L 6069.0000,3155.0000 C 6069.0000,3151.0000 6072.0000,3147.0000 6077.0000,3147.0000 C 6081.0000,3147.0000 6085.0000,3151.0000 6085.0000,3155.0000 L 6085.0000,3204.0000 C 6085.0000,3209.0000 6081.0000,3212.0000 6077.0000,3212.0000 L 6014.0000,3212.0000 C 6010.0000,3212.0000 6006.0000,3209.0000 6006.0000,3204.0000 C 6006.0000,3200.0000 6010.0000,3196.0000 6014.0000,3196.0000 Z M 6069.0000,3075.0000 L 6069.0000,2963.0000 C 6069.0000,2959.0000 6072.0000,2955.0000 6077.0000,2955.0000 C 6081.0000,2955.0000 6085.0000,2959.0000 6085.0000,2963.0000 L 6085.0000,3075.0000 C 6085.0000,3079.0000 6081.0000,3083.0000 6077.0000,3083.0000 C 6072.0000,3083.0000 6069.0000,3079.0000 6069.0000,3075.0000 Z M 6069.0000,2883.0000 L 6069.0000,2771.0000 C 6069.0000,2767.0000 6072.0000,2763.0000 6077.0000,2763.0000 C 6081.0000,2763.0000 6085.0000,2767.0000 6085.0000,2771.0000 L 6085.0000,2883.0000 C 6085.0000,2887.0000 6081.0000,2891.0000 6077.0000,2891.0000 C 6072.0000,2891.0000 6069.0000,2887.0000 6069.0000,2883.0000 Z M 6069.0000,2691.0000 L 6069.0000,2579.0000 C 6069.0000,2575.0000 6072.0000,2571.0000 6077.0000,2571.0000 C 6081.0000,2571.0000 6085.0000,2575.0000 6085.0000,2579.0000 L 6085.0000,2691.0000 C 6085.0000,2695.0000 6081.0000,2699.0000 6077.0000,2699.0000 C 6072.0000,2699.0000 6069.0000,2695.0000 6069.0000,2691.0000 Z M 6069.0000,2499.0000 L 6069.0000,2387.0000 C 6069.0000,2383.0000 6072.0000,2379.0000 6077.0000,2379.0000 C 6081.0000,2379.0000 6085.0000,2383.0000 6085.0000,2387.0000 L 6085.0000,2499.0000 C 6085.0000,2503.0000 6081.0000,2507.0000 6077.0000,2507.0000 C 6072.0000,2507.0000 6069.0000,2503.0000 6069.0000,2499.0000 Z M 6069.0000,2307.0000 L 6069.0000,2195.0000 C 6069.0000,2191.0000 6072.0000,2187.0000 6077.0000,2187.0000 C 6081.0000,2187.0000 6085.0000,2191.0000 6085.0000,2195.0000 L 6085.0000,2307.0000 C 6085.0000,2311.0000 6081.0000,2315.0000 6077.0000,2315.0000 C 6072.0000,2315.0000 6069.0000,2311.0000 6069.0000,2307.0000 Z M 6069.0000,2115.0000 L 6069.0000,2003.0000 C 6069.0000,1999.0000 6072.0000,1995.0000 6077.0000,1995.0000 C 6081.0000,1995.0000 6085.0000,1999.0000 6085.0000,2003.0000 L 6085.0000,2115.0000 C 6085.0000,2119.0000 6081.0000,2123.0000 6077.0000,2123.0000 C 6072.0000,2123.0000 6069.0000,2119.0000 6069.0000,2115.0000 Z M 6069.0000,1923.0000 L 6069.0000,1811.0000 C 6069.0000,1807.0000 6072.0000,1803.0000 6077.0000,1803.0000 C 6081.0000,1803.0000 6085.0000,1807.0000 6085.0000,1811.0000 L 6085.0000,1923.0000 C 6085.0000,1927.0000 6081.0000,1931.0000 6077.0000,1931.0000 C 6072.0000,1931.0000 6069.0000,1927.0000 6069.0000,1923.0000 Z M 6069.0000,1731.0000 L 6069.0000,1619.0000 C 6069.0000,1615.0000 6072.0000,1611.0000 6077.0000,1611.0000 C 6081.0000,1611.0000 6085.0000,1615.0000 6085.0000,1619.0000 L 6085.0000,1731.0000 C 6085.0000,1735.0000 6081.0000,1739.0000 6077.0000,1739.0000 C 6072.0000,1739.0000 6069.0000,1735.0000 6069.0000,1731.0000 Z M 6069.0000,1539.0000 L 6069.0000,1427.0000 C 6069.0000,1423.0000 6072.0000,1419.0000 6077.0000,1419.0000 C 6081.0000,1419.0000 6085.0000,1423.0000 6085.0000,1427.0000 L 6085.0000,1539.0000 C 6085.0000,1543.0000 6081.0000,1547.0000 6077.0000,1547.0000 C 6072.0000,1547.0000 6069.0000,1543.0000 6069.0000,1539.0000 Z M 6069.0000,1347.0000 L 6069.0000,1235.0000 C 6069.0000,1231.0000 6072.0000,1227.0000 6077.0000,1227.0000 C 6081.0000,1227.0000 6085.0000,1231.0000 6085.0000,1235.0000 L 6085.0000,1347.0000 C 6085.0000,1351.0000 6081.0000,1355.0000 6077.0000,1355.0000 C 6072.0000,1355.0000 6069.0000,1351.0000 6069.0000,1347.0000 Z M 6069.0000,1155.0000 L 6069.0000,1043.0000 C 6069.0000,1039.0000 6072.0000,1035.0000 6077.0000,1035.0000 C 6081.0000,1035.0000 6085.0000,1039.0000 6085.0000,1043.0000 L 6085.0000,1155.0000 C 6085.0000,1159.0000 6081.0000,1163.0000 6077.0000,1163.0000 C 6072.0000,1163.0000 6069.0000,1159.0000 6069.0000,1155.0000 Z M 6069.0000,963.0000 L 6069.0000,851.0000 C 6069.0000,847.0000 6072.0000,843.0000 6077.0000,843.0000 C 6081.0000,843.0000 6085.0000,847.0000 6085.0000,851.0000 L 6085.0000,963.0000 C 6085.0000,967.0000 6081.0000,971.0000 6077.0000,971.0000 C 6072.0000,971.0000 6069.0000,967.0000 6069.0000,963.0000 Z M 6069.0000,771.0000 L 6069.0000,659.0000 C 6069.0000,655.0000 6072.0000,651.0000 6077.0000,651.0000 C 6081.0000,651.0000 6085.0000,655.0000 6085.0000,659.0000 L 6085.0000,771.0000 C 6085.0000,775.0000 6081.0000,779.0000 6077.0000,779.0000 C 6072.0000,779.0000 6069.0000,775.0000 6069.0000,771.0000 Z M 6069.0000,579.0000 L 6069.0000,467.0000 C 6069.0000,463.0000 6072.0000,459.0000 6077.0000,459.0000 C 6081.0000,459.0000 6085.0000,463.0000 6085.0000,467.0000 L 6085.0000,579.0000 C 6085.0000,583.0000 6081.0000,587.0000 6077.0000,587.0000 C 6072.0000,587.0000 6069.0000,583.0000 6069.0000,579.0000 Z M 6069.0000,387.0000 L 6069.0000,275.0000 C 6069.0000,271.0000 6072.0000,267.0000 6077.0000,267.0000 C 6081.0000,267.0000 6085.0000,271.0000 6085.0000,275.0000 L 6085.0000,387.0000 C 6085.0000,391.0000 6081.0000,395.0000 6077.0000,395.0000 C 6072.0000,395.0000 6069.0000,391.0000 6069.0000,387.0000 Z M 6069.0000,195.0000 L 6069.0000,83.0000 C 6069.0000,79.0000 6072.0000,75.0000 6077.0000,75.0000 C 6081.0000,75.0000 6085.0000,79.0000 6085.0000,83.0000 L 6085.0000,195.0000 C 6085.0000,199.0000 6081.0000,203.0000 6077.0000,203.0000 C 6072.0000,203.0000 6069.0000,199.0000 6069.0000,195.0000 Z M 6050.0000,38.0000 L 5938.0000,38.0000 C 5934.0000,38.0000 5930.0000,34.0000 5930.0000,30.0000 C 5930.0000,25.0000 5934.0000,22.0000 5938.0000,22.0000 L 6050.0000,22.0000 C 6055.0000,22.0000 6058.0000,25.0000 6058.0000,30.0000 C 6058.0000,34.0000 6055.0000,38.0000 6050.0000,38.0000 Z M 5858.0000,38.0000 L 5746.0000,38.0000 C 5742.0000,38.0000 5738.0000,34.0000 5738.0000,30.0000 C 5738.0000,25.0000 5742.0000,22.0000 5746.0000,22.0000 L 5858.0000,22.0000 C 5863.0000,22.0000 5866.0000,25.0000 5866.0000,30.0000 C 5866.0000,34.0000 5863.0000,38.0000 5858.0000,38.0000 Z M 5666.0000,38.0000 L 5554.0000,38.0000 C 5550.0000,38.0000 5546.0000,34.0000 5546.0000,30.0000 C 5546.0000,25.0000 5550.0000,22.0000 5554.0000,22.0000 L 5666.0000,22.0000 C 5671.0000,22.0000 5674.0000,25.0000 5674.0000,30.0000 C 5674.0000,34.0000 5671.0000,38.0000 5666.0000,38.0000 Z M 5474.0000,38.0000 L 5362.0000,38.0000 C 5358.0000,38.0000 5354.0000,34.0000 5354.0000,30.0000 C 5354.0000,25.0000 5358.0000,22.0000 5362.0000,22.0000 L 5474.0000,22.0000 C 5479.0000,22.0000 5482.0000,25.0000 5482.0000,30.0000 C 5482.0000,34.0000 5479.0000,38.0000 5474.0000,38.0000 Z M 5282.0000,38.0000 L 5170.0000,38.0000 C 5166.0000,38.0000 5162.0000,34.0000 5162.0000,30.0000 C 5162.0000,25.0000 5166.0000,22.0000 5170.0000,22.0000 L 5282.0000,22.0000 C 5287.0000,22.0000 5290.0000,25.0000 5290.0000,30.0000 C 5290.0000,34.0000 5287.0000,38.0000 5282.0000,38.0000 Z M 5090.0000,38.0000 L 4978.0000,38.0000 C 4974.0000,38.0000 4970.0000,34.0000 4970.0000,30.0000 C 4970.0000,25.0000 4974.0000,22.0000 4978.0000,22.0000 L 5090.0000,22.0000 C 5095.0000,22.0000 5098.0000,25.0000 5098.0000,30.0000 C 5098.0000,34.0000 5095.0000,38.0000 5090.0000,38.0000 Z M 4898.0000,38.0000 L 4786.0000,38.0000 C 4782.0000,38.0000 4778.0000,34.0000 4778.0000,30.0000 C 4778.0000,25.0000 4782.0000,22.0000 4786.0000,22.0000 L 4898.0000,22.0000 C 4903.0000,22.0000 4906.0000,25.0000 4906.0000,30.0000 C 4906.0000,34.0000 4903.0000,38.0000 4898.0000,38.0000 Z M 4706.0000,38.0000 L 4594.0000,38.0000 C 4590.0000,38.0000 4586.0000,34.0000 4586.0000,30.0000 C 4586.0000,25.0000 4590.0000,22.0000 4594.0000,22.0000 L 4706.0000,22.0000 C 4711.0000,22.0000 4714.0000,25.0000 4714.0000,30.0000 C 4714.0000,34.0000 4711.0000,38.0000 4706.0000,38.0000 Z "  fill="#000000" stroke="#000000" stroke-width="16.0000"  stroke-linecap="butt"  stroke-linejoin="bevel" />
</g>
<g transform="matrix(1.0000 0.0000 0.0000 1.0000 0.0000 0.0000)">
<text font-family="Arial" fill="#000000" style ="white-space:pre;" font-weight="400" text-anchor="start" x="291.0000" y="17.0000" font-size="11.0000" ><![CDATA[NG]]></text>
<text font-family="Arial" fill="#000000" style ="white-space:pre;" font-weight="400" text-anchor="start" x="307.0000" y="17.0000" font-size="11.0000" ><![CDATA[-]]></text>
<text font-family="Arial" fill="#000000" style ="white-space:pre;" font-weight="400" text-anchor="start" x="310.0000" y="17.0000" font-size="11.0000" ><![CDATA[CP]]></text>
</g>
<g transform="matrix(0.0625 0.0000 0.0000 0.0625 0.0000 0.0000)">
<path d="M 1460.0000,2448.0000 L 2379.0000,2448.0000 " stroke="#000000" stroke-width="15.0000"  stroke-linecap="round"  stroke-linejoin="round" fill="none" />
</g>
<g transform="matrix(1.0000 0.0000 0.0000 1.0000 0.0000 0.0000)">
</g>
<g transform="matrix(0.0625 0.0000 0.0000 0.0625 0.0000 0.0000)">
<path d="M 1390.0000,2448.0000 L 1482.0000,2402.0000 C 1468.0000,2431.0000 1468.0000,2466.0000 1482.0000,2495.0000 L 1390.0000,2448.0000 Z "  fill="#000000" stroke="none" />
</g>
<g transform="matrix(1.0000 0.0000 0.0000 1.0000 0.0000 0.0000)">
</g>
<g transform="matrix(0.0625 0.0000 0.0000 0.0625 0.0000 0.0000)">
<path d="M 2448.0000,2448.0000 L 2356.0000,2495.0000 C 2371.0000,2466.0000 2371.0000,2431.0000 2356.0000,2402.0000 L 2356.0000,2402.0000 L 2448.0000,2448.0000 Z "  fill="#000000" stroke="none" />
</g>
<g transform="matrix(1.0000 0.0000 0.0000 1.0000 0.0000 0.0000)">
</g>
<g transform="matrix(0.0625 0.0000 0.0000 0.0625 0.0000 0.0000)">
<path d="M 1460.0000,2902.0000 L 2379.0000,2902.0000 " stroke="#000000" stroke-width="15.0000"  stroke-linecap="round"  stroke-linejoin="round" fill="none" />
</g>
<g transform="matrix(1.0000 0.0000 0.0000 1.0000 0.0000 0.0000)">
</g>
<g transform="matrix(0.0625 0.0000 0.0000 0.0625 0.0000 0.0000)">
<path d="M 1390.0000,2902.0000 L 1482.0000,2856.0000 C 1468.0000,2885.0000 1468.0000,2919.0000 1482.0000,2948.0000 L 1482.0000,2948.0000 L 1390.0000,2902.0000 Z "  fill="#000000" stroke="none" />
</g>
<g transform="matrix(1.0000 0.0000 0.0000 1.0000 0.0000 0.0000)">
</g>
<g transform="matrix(0.0625 0.0000 0.0000 0.0625 0.0000 0.0000)">
<path d="M 2448.0000,2902.0000 L 2356.0000,2948.0000 C 2371.0000,2919.0000 2371.0000,2885.0000 2356.0000,2856.0000 L 2448.0000,2902.0000 Z "  fill="#000000" stroke="none" />
</g>
<g transform="matrix(1.0000 0.0000 0.0000 1.0000 0.0000 0.0000)">
</g>
<g transform="matrix(0.0625 0.0000 0.0000 0.0625 0.0000 0.0000)">
<path d="M 2448.0000,2146.0000 L 3658.0000,2146.0000 L 3658.0000,1844.0000 L 2448.0000,1844.0000 L 2448.0000,2146.0000 Z" stroke="#000000" stroke-width="5.0000"  stroke-linecap="round"  stroke-linejoin="round" fill="none" />
</g>
<g transform="matrix(1.0000 0.0000 0.0000 1.0000 0.0000 0.0000)">
<text font-family="Arial" fill="#000000" style ="white-space:pre;" font-weight="400" text-anchor="start" x="180.0000" y="128.0000" font-size="11.0000" ><![CDATA[RLC]]></text>
</g>
<g transform="matrix(0.0625 0.0000 0.0000 0.0625 0.0000 0.0000)">
<path d="M 1460.0000,1995.0000 L 2379.0000,1995.0000 " stroke="#000000" stroke-width="15.0000"  stroke-linecap="round"  stroke-linejoin="round" fill="none" />
</g>
<g transform="matrix(1.0000 0.0000 0.0000 1.0000 0.0000 0.0000)">
</g>
<g transform="matrix(0.0625 0.0000 0.0000 0.0625 0.0000 0.0000)">
<path d="M 1390.0000,1995.0000 L 1482.0000,1949.0000 C 1468.0000,1978.0000 1468.0000,2012.0000 1482.0000,2041.0000 L 1390.0000,1995.0000 Z "  fill="#000000" stroke="none" />
</g>
<g transform="matrix(1.0000 0.0000 0.0000 1.0000 0.0000 0.0000)">
</g>
<g transform="matrix(0.0625 0.0000 0.0000 0.0625 0.0000 0.0000)">
<path d="M 2448.0000,1995.0000 L 2356.0000,2041.0000 C 2371.0000,2012.0000 2371.0000,1978.0000 2356.0000,1949.0000 L 2356.0000,1949.0000 L 2448.0000,1995.0000 Z "  fill="#000000" stroke="none" />
</g>
<g transform="matrix(1.0000 0.0000 0.0000 1.0000 0.0000 0.0000)">
</g>
<g transform="matrix(0.0625 0.0000 0.0000 0.0625 0.0000 0.0000)">
<path d="M 181.0000,785.0000 L 1390.0000,785.0000 L 1390.0000,483.0000 L 181.0000,483.0000 L 181.0000,785.0000 Z" stroke="#000000" stroke-width="5.0000"  stroke-linecap="round"  stroke-linejoin="round" fill="none" />
</g>
<g transform="matrix(1.0000 0.0000 0.0000 1.0000 0.0000 0.0000)">
<text font-family="Arial" fill="#000000" style ="white-space:pre;" font-weight="400" text-anchor="start" x="38.0000" y="43.0000" font-size="11.0000" ><![CDATA[NAS]]></text>
</g>
<g transform="matrix(0.0625 0.0000 0.0000 0.0625 0.0000 0.0000)">
<path d="M 4716.0000,785.0000 L 5926.0000,785.0000 L 5926.0000,483.0000 L 4716.0000,483.0000 L 4716.0000,785.0000 Z" stroke="#000000" stroke-width="5.0000"  stroke-linecap="round"  stroke-linejoin="round" fill="none" />
</g>
<g transform="matrix(1.0000 0.0000 0.0000 1.0000 0.0000 0.0000)">
<text font-family="Arial" fill="#000000" style ="white-space:pre;" font-weight="400" text-anchor="start" x="322.0000" y="43.0000" font-size="11.0000" ><![CDATA[NAS]]></text>
</g>
<g transform="matrix(0.0625 0.0000 0.0000 0.0625 0.0000 0.0000)">
<path d="M 1460.0000,634.0000 L 4646.0000,634.0000 " stroke="#000000" stroke-width="15.0000"  stroke-linecap="round"  stroke-linejoin="round" fill="none" />
</g>
<g transform="matrix(1.0000 0.0000 0.0000 1.0000 0.0000 0.0000)">
</g>
<g transform="matrix(0.0625 0.0000 0.0000 0.0625 0.0000 0.0000)">
<path d="M 1390.0000,634.0000 L 1482.0000,588.0000 C 1468.0000,617.0000 1468.0000,651.0000 1482.0000,680.0000 L 1390.0000,634.0000 Z "  fill="#000000" stroke="none" />
</g>
<g transform="matrix(1.0000 0.0000 0.0000 1.0000 0.0000 0.0000)">
</g>
<g transform="matrix(0.0625 0.0000 0.0000 0.0625 0.0000 0.0000)">
<path d="M 4716.0000,634.0000 L 4624.0000,680.0000 C 4639.0000,651.0000 4639.0000,617.0000 4624.0000,588.0000 L 4716.0000,634.0000 Z "  fill="#000000" stroke="none" />
</g>
<g transform="matrix(1.0000 0.0000 0.0000 1.0000 0.0000 0.0000)">
</g>
<g transform="matrix(0.0625 0.0000 0.0000 0.0625 0.0000 0.0000)">
<path d="M 181.0000,1239.0000 L 1390.0000,1239.0000 L 1390.0000,937.0000 L 181.0000,937.0000 L 181.0000,1239.0000 Z" stroke="#000000" stroke-width="5.0000"  stroke-linecap="round"  stroke-linejoin="round" fill="none" />
</g>
<g transform="matrix(1.0000 0.0000 0.0000 1.0000 0.0000 0.0000)">
<text font-family="Arial" fill="#000000" style ="white-space:pre;" font-weight="400" text-anchor="start" x="38.0000" y="71.0000" font-size="11.0000" ><![CDATA[RRC]]></text>
</g>
<g transform="matrix(0.0625 0.0000 0.0000 0.0625 0.0000 0.0000)">
<path d="M 2448.0000,1239.0000 L 3658.0000,1239.0000 L 3658.0000,937.0000 L 2448.0000,937.0000 L 2448.0000,1239.0000 Z" stroke="#000000" stroke-width="5.0000"  stroke-linecap="round"  stroke-linejoin="round" fill="none" />
</g>
<g transform="matrix(1.0000 0.0000 0.0000 1.0000 0.0000 0.0000)">
<text font-family="Arial" fill="#000000" style ="white-space:pre;" font-weight="400" text-anchor="start" x="179.0000" y="71.0000" font-size="11.0000" ><![CDATA[RRC]]></text>
</g>
<g transform="matrix(0.0625 0.0000 0.0000 0.0625 0.0000 0.0000)">
<path d="M 1460.0000,1088.0000 L 2379.0000,1088.0000 " stroke="#000000" stroke-width="15.0000"  stroke-linecap="round"  stroke-linejoin="round" fill="none" />
</g>
<g transform="matrix(1.0000 0.0000 0.0000 1.0000 0.0000 0.0000)">
</g>
<g transform="matrix(0.0625 0.0000 0.0000 0.0625 0.0000 0.0000)">
<path d="M 1390.0000,1088.0000 L 1482.0000,1042.0000 C 1468.0000,1071.0000 1468.0000,1105.0000 1482.0000,1134.0000 L 1482.0000,1134.0000 L 1390.0000,1088.0000 Z "  fill="#000000" stroke="none" />
</g>
<g transform="matrix(1.0000 0.0000 0.0000 1.0000 0.0000 0.0000)">
</g>
<g transform="matrix(0.0625 0.0000 0.0000 0.0625 0.0000 0.0000)">
<path d="M 2448.0000,1088.0000 L 2356.0000,1134.0000 C 2371.0000,1105.0000 2371.0000,1071.0000 2356.0000,1042.0000 L 2448.0000,1088.0000 Z "  fill="#000000" stroke="none" />
</g>
<g transform="matrix(1.0000 0.0000 0.0000 1.0000 0.0000 0.0000)">
</g>
<g transform="matrix(0.0625 0.0000 0.0000 0.0625 0.0000 0.0000)">
<path d="M 181.0000,1693.0000 L 1390.0000,1693.0000 L 1390.0000,1390.0000 L 181.0000,1390.0000 L 181.0000,1693.0000 Z" stroke="#000000" stroke-width="5.0000"  stroke-linecap="round"  stroke-linejoin="round" fill="none" />
</g>
<g transform="matrix(1.0000 0.0000 0.0000 1.0000 0.0000 0.0000)">
<text font-family="Arial" fill="#000000" style ="white-space:pre;" font-weight="400" text-anchor="start" x="34.0000" y="100.0000" font-size="11.0000" ><![CDATA[PDCP]]></text>
</g>
<g transform="matrix(0.0625 0.0000 0.0000 0.0625 0.0000 0.0000)">
<path d="M 2448.0000,1693.0000 L 3658.0000,1693.0000 L 3658.0000,1390.0000 L 2448.0000,1390.0000 L 2448.0000,1693.0000 Z" stroke="#000000" stroke-width="5.0000"  stroke-linecap="round"  stroke-linejoin="round" fill="none" />
</g>
<g transform="matrix(1.0000 0.0000 0.0000 1.0000 0.0000 0.0000)">
<text font-family="Arial" fill="#000000" style ="white-space:pre;" font-weight="400" text-anchor="start" x="176.0000" y="100.0000" font-size="11.0000" ><![CDATA[PDCP]]></text>
</g>
<g transform="matrix(0.0625 0.0000 0.0000 0.0625 0.0000 0.0000)">
<path d="M 1460.0000,1541.0000 L 2379.0000,1541.0000 " stroke="#000000" stroke-width="15.0000"  stroke-linecap="round"  stroke-linejoin="round" fill="none" />
</g>
<g transform="matrix(1.0000 0.0000 0.0000 1.0000 0.0000 0.0000)">
</g>
<g transform="matrix(0.0625 0.0000 0.0000 0.0625 0.0000 0.0000)">
<path d="M 1390.0000,1541.0000 L 1482.0000,1495.0000 C 1468.0000,1524.0000 1468.0000,1558.0000 1482.0000,1587.0000 L 1390.0000,1541.0000 Z "  fill="#000000" stroke="none" />
</g>
<g transform="matrix(1.0000 0.0000 0.0000 1.0000 0.0000 0.0000)">
</g>
<g transform="matrix(0.0625 0.0000 0.0000 0.0625 0.0000 0.0000)">
<path d="M 2448.0000,1541.0000 L 2356.0000,1587.0000 C 2371.0000,1558.0000 2371.0000,1524.0000 2356.0000,1495.0000 L 2448.0000,1541.0000 Z "  fill="#000000" stroke="none" />
</g>
<g transform="matrix(1.0000 0.0000 0.0000 1.0000 0.0000 0.0000)">
</g>
</g>
</svg>
