<?xml version="1.0"  encoding="UTF-8" standalone="no"?>
<svg version="1.1" xmlns="http://www.w3.org/2000/svg" xmlns:xlink="http://www.w3.org/1999/xlink" width="242.0000" height="171.0000">
<g transform="translate(1.0000, 1.0000)">
<g transform="matrix(0.0625 0.0000 0.0000 0.0625 0.0000 0.0000)">
<path d="M 2305.0000,46.0000 L 2305.0000,158.0000 C 2305.0000,162.0000 2302.0000,166.0000 2297.0000,166.0000 C 2293.0000,166.0000 2289.0000,162.0000 2289.0000,158.0000 L 2289.0000,46.0000 C 2289.0000,41.0000 2293.0000,38.0000 2297.0000,38.0000 C 2302.0000,38.0000 2305.0000,41.0000 2305.0000,46.0000 Z M 2305.0000,238.0000 L 2305.0000,350.0000 C 2305.0000,354.0000 2302.0000,358.0000 2297.0000,358.0000 C 2293.0000,358.0000 2289.0000,354.0000 2289.0000,350.0000 L 2289.0000,238.0000 C 2289.0000,233.0000 2293.0000,230.0000 2297.0000,230.0000 C 2302.0000,230.0000 2305.0000,233.0000 2305.0000,238.0000 Z M 2305.0000,430.0000 L 2305.0000,542.0000 C 2305.0000,546.0000 2302.0000,550.0000 2297.0000,550.0000 C 2293.0000,550.0000 2289.0000,546.0000 2289.0000,542.0000 L 2289.0000,430.0000 C 2289.0000,425.0000 2293.0000,422.0000 2297.0000,422.0000 C 2302.0000,422.0000 2305.0000,425.0000 2305.0000,430.0000 Z M 2305.0000,622.0000 L 2305.0000,734.0000 C 2305.0000,738.0000 2302.0000,742.0000 2297.0000,742.0000 C 2293.0000,742.0000 2289.0000,738.0000 2289.0000,734.0000 L 2289.0000,622.0000 C 2289.0000,617.0000 2293.0000,614.0000 2297.0000,614.0000 C 2302.0000,614.0000 2305.0000,617.0000 2305.0000,622.0000 Z M 2305.0000,814.0000 L 2305.0000,926.0000 C 2305.0000,930.0000 2302.0000,934.0000 2297.0000,934.0000 C 2293.0000,934.0000 2289.0000,930.0000 2289.0000,926.0000 L 2289.0000,814.0000 C 2289.0000,809.0000 2293.0000,806.0000 2297.0000,806.0000 C 2302.0000,806.0000 2305.0000,809.0000 2305.0000,814.0000 Z M 2305.0000,1006.0000 L 2305.0000,1118.0000 C 2305.0000,1122.0000 2302.0000,1126.0000 2297.0000,1126.0000 C 2293.0000,1126.0000 2289.0000,1122.0000 2289.0000,1118.0000 L 2289.0000,1006.0000 C 2289.0000,1001.0000 2293.0000,998.0000 2297.0000,998.0000 C 2302.0000,998.0000 2305.0000,1001.0000 2305.0000,1006.0000 Z M 2305.0000,1198.0000 L 2305.0000,1310.0000 C 2305.0000,1314.0000 2302.0000,1318.0000 2297.0000,1318.0000 C 2293.0000,1318.0000 2289.0000,1314.0000 2289.0000,1310.0000 L 2289.0000,1198.0000 C 2289.0000,1193.0000 2293.0000,1190.0000 2297.0000,1190.0000 C 2302.0000,1190.0000 2305.0000,1193.0000 2305.0000,1198.0000 Z M 2305.0000,1390.0000 L 2305.0000,1502.0000 C 2305.0000,1506.0000 2302.0000,1510.0000 2297.0000,1510.0000 C 2293.0000,1510.0000 2289.0000,1506.0000 2289.0000,1502.0000 L 2289.0000,1390.0000 C 2289.0000,1385.0000 2293.0000,1382.0000 2297.0000,1382.0000 C 2302.0000,1382.0000 2305.0000,1385.0000 2305.0000,1390.0000 Z M 2305.0000,1582.0000 L 2305.0000,1694.0000 C 2305.0000,1698.0000 2302.0000,1702.0000 2297.0000,1702.0000 C 2293.0000,1702.0000 2289.0000,1698.0000 2289.0000,1694.0000 L 2289.0000,1582.0000 C 2289.0000,1577.0000 2293.0000,1574.0000 2297.0000,1574.0000 C 2302.0000,1574.0000 2305.0000,1577.0000 2305.0000,1582.0000 Z M 2305.0000,1774.0000 L 2305.0000,1886.0000 C 2305.0000,1890.0000 2302.0000,1894.0000 2297.0000,1894.0000 C 2293.0000,1894.0000 2289.0000,1890.0000 2289.0000,1886.0000 L 2289.0000,1774.0000 C 2289.0000,1769.0000 2293.0000,1766.0000 2297.0000,1766.0000 C 2302.0000,1766.0000 2305.0000,1769.0000 2305.0000,1774.0000 Z M 2305.0000,1966.0000 L 2305.0000,2078.0000 C 2305.0000,2082.0000 2302.0000,2086.0000 2297.0000,2086.0000 C 2293.0000,2086.0000 2289.0000,2082.0000 2289.0000,2078.0000 L 2289.0000,1966.0000 C 2289.0000,1961.0000 2293.0000,1958.0000 2297.0000,1958.0000 C 2302.0000,1958.0000 2305.0000,1961.0000 2305.0000,1966.0000 Z M 2305.0000,2158.0000 L 2305.0000,2270.0000 C 2305.0000,2274.0000 2302.0000,2278.0000 2297.0000,2278.0000 C 2293.0000,2278.0000 2289.0000,2274.0000 2289.0000,2270.0000 L 2289.0000,2158.0000 C 2289.0000,2153.0000 2293.0000,2150.0000 2297.0000,2150.0000 C 2302.0000,2150.0000 2305.0000,2153.0000 2305.0000,2158.0000 Z M 2305.0000,2350.0000 L 2305.0000,2462.0000 C 2305.0000,2466.0000 2302.0000,2470.0000 2297.0000,2470.0000 C 2293.0000,2470.0000 2289.0000,2466.0000 2289.0000,2462.0000 L 2289.0000,2350.0000 C 2289.0000,2345.0000 2293.0000,2342.0000 2297.0000,2342.0000 C 2302.0000,2342.0000 2305.0000,2345.0000 2305.0000,2350.0000 Z M 2305.0000,2542.0000 L 2305.0000,2654.0000 C 2305.0000,2658.0000 2302.0000,2662.0000 2297.0000,2662.0000 C 2293.0000,2662.0000 2289.0000,2658.0000 2289.0000,2654.0000 L 2289.0000,2542.0000 C 2289.0000,2537.0000 2293.0000,2534.0000 2297.0000,2534.0000 C 2302.0000,2534.0000 2305.0000,2537.0000 2305.0000,2542.0000 Z M 2346.0000,2677.0000 L 2458.0000,2677.0000 C 2462.0000,2677.0000 2466.0000,2681.0000 2466.0000,2685.0000 C 2466.0000,2690.0000 2462.0000,2693.0000 2458.0000,2693.0000 L 2346.0000,2693.0000 C 2341.0000,2693.0000 2338.0000,2690.0000 2338.0000,2685.0000 C 2338.0000,2681.0000 2341.0000,2677.0000 2346.0000,2677.0000 Z M 2538.0000,2677.0000 L 2650.0000,2677.0000 C 2654.0000,2677.0000 2658.0000,2681.0000 2658.0000,2685.0000 C 2658.0000,2690.0000 2654.0000,2693.0000 2650.0000,2693.0000 L 2538.0000,2693.0000 C 2533.0000,2693.0000 2530.0000,2690.0000 2530.0000,2685.0000 C 2530.0000,2681.0000 2533.0000,2677.0000 2538.0000,2677.0000 Z M 2730.0000,2677.0000 L 2842.0000,2677.0000 C 2846.0000,2677.0000 2850.0000,2681.0000 2850.0000,2685.0000 C 2850.0000,2690.0000 2846.0000,2693.0000 2842.0000,2693.0000 L 2730.0000,2693.0000 C 2725.0000,2693.0000 2722.0000,2690.0000 2722.0000,2685.0000 C 2722.0000,2681.0000 2725.0000,2677.0000 2730.0000,2677.0000 Z M 2922.0000,2677.0000 L 3034.0000,2677.0000 C 3038.0000,2677.0000 3042.0000,2681.0000 3042.0000,2685.0000 C 3042.0000,2690.0000 3038.0000,2693.0000 3034.0000,2693.0000 L 2922.0000,2693.0000 C 2917.0000,2693.0000 2914.0000,2690.0000 2914.0000,2685.0000 C 2914.0000,2681.0000 2917.0000,2677.0000 2922.0000,2677.0000 Z M 3114.0000,2677.0000 L 3226.0000,2677.0000 C 3230.0000,2677.0000 3234.0000,2681.0000 3234.0000,2685.0000 C 3234.0000,2690.0000 3230.0000,2693.0000 3226.0000,2693.0000 L 3114.0000,2693.0000 C 3109.0000,2693.0000 3106.0000,2690.0000 3106.0000,2685.0000 C 3106.0000,2681.0000 3109.0000,2677.0000 3114.0000,2677.0000 Z M 3306.0000,2677.0000 L 3418.0000,2677.0000 C 3422.0000,2677.0000 3426.0000,2681.0000 3426.0000,2685.0000 C 3426.0000,2690.0000 3422.0000,2693.0000 3418.0000,2693.0000 L 3306.0000,2693.0000 C 3301.0000,2693.0000 3298.0000,2690.0000 3298.0000,2685.0000 C 3298.0000,2681.0000 3301.0000,2677.0000 3306.0000,2677.0000 Z M 3498.0000,2677.0000 L 3610.0000,2677.0000 C 3614.0000,2677.0000 3618.0000,2681.0000 3618.0000,2685.0000 C 3618.0000,2690.0000 3614.0000,2693.0000 3610.0000,2693.0000 L 3498.0000,2693.0000 C 3493.0000,2693.0000 3490.0000,2690.0000 3490.0000,2685.0000 C 3490.0000,2681.0000 3493.0000,2677.0000 3498.0000,2677.0000 Z M 3690.0000,2677.0000 L 3802.0000,2677.0000 C 3806.0000,2677.0000 3810.0000,2681.0000 3810.0000,2685.0000 C 3810.0000,2690.0000 3806.0000,2693.0000 3802.0000,2693.0000 L 3690.0000,2693.0000 C 3685.0000,2693.0000 3682.0000,2690.0000 3682.0000,2685.0000 C 3682.0000,2681.0000 3685.0000,2677.0000 3690.0000,2677.0000 Z M 3801.0000,2613.0000 L 3801.0000,2501.0000 C 3801.0000,2496.0000 3805.0000,2493.0000 3809.0000,2493.0000 C 3814.0000,2493.0000 3817.0000,2496.0000 3817.0000,2501.0000 L 3817.0000,2613.0000 C 3817.0000,2617.0000 3814.0000,2621.0000 3809.0000,2621.0000 C 3805.0000,2621.0000 3801.0000,2617.0000 3801.0000,2613.0000 Z M 3801.0000,2421.0000 L 3801.0000,2309.0000 C 3801.0000,2304.0000 3805.0000,2301.0000 3809.0000,2301.0000 C 3814.0000,2301.0000 3817.0000,2304.0000 3817.0000,2309.0000 L 3817.0000,2421.0000 C 3817.0000,2425.0000 3814.0000,2429.0000 3809.0000,2429.0000 C 3805.0000,2429.0000 3801.0000,2425.0000 3801.0000,2421.0000 Z M 3801.0000,2229.0000 L 3801.0000,2117.0000 C 3801.0000,2112.0000 3805.0000,2109.0000 3809.0000,2109.0000 C 3814.0000,2109.0000 3817.0000,2112.0000 3817.0000,2117.0000 L 3817.0000,2229.0000 C 3817.0000,2233.0000 3814.0000,2237.0000 3809.0000,2237.0000 C 3805.0000,2237.0000 3801.0000,2233.0000 3801.0000,2229.0000 Z M 3801.0000,2037.0000 L 3801.0000,1925.0000 C 3801.0000,1920.0000 3805.0000,1917.0000 3809.0000,1917.0000 C 3814.0000,1917.0000 3817.0000,1920.0000 3817.0000,1925.0000 L 3817.0000,2037.0000 C 3817.0000,2041.0000 3814.0000,2045.0000 3809.0000,2045.0000 C 3805.0000,2045.0000 3801.0000,2041.0000 3801.0000,2037.0000 Z M 3801.0000,1845.0000 L 3801.0000,1733.0000 C 3801.0000,1728.0000 3805.0000,1725.0000 3809.0000,1725.0000 C 3814.0000,1725.0000 3817.0000,1728.0000 3817.0000,1733.0000 L 3817.0000,1845.0000 C 3817.0000,1849.0000 3814.0000,1853.0000 3809.0000,1853.0000 C 3805.0000,1853.0000 3801.0000,1849.0000 3801.0000,1845.0000 Z M 3801.0000,1653.0000 L 3801.0000,1541.0000 C 3801.0000,1536.0000 3805.0000,1533.0000 3809.0000,1533.0000 C 3814.0000,1533.0000 3817.0000,1536.0000 3817.0000,1541.0000 L 3817.0000,1653.0000 C 3817.0000,1657.0000 3814.0000,1661.0000 3809.0000,1661.0000 C 3805.0000,1661.0000 3801.0000,1657.0000 3801.0000,1653.0000 Z M 3801.0000,1461.0000 L 3801.0000,1349.0000 C 3801.0000,1344.0000 3805.0000,1341.0000 3809.0000,1341.0000 C 3814.0000,1341.0000 3817.0000,1344.0000 3817.0000,1349.0000 L 3817.0000,1461.0000 C 3817.0000,1465.0000 3814.0000,1469.0000 3809.0000,1469.0000 C 3805.0000,1469.0000 3801.0000,1465.0000 3801.0000,1461.0000 Z M 3801.0000,1269.0000 L 3801.0000,1157.0000 C 3801.0000,1152.0000 3805.0000,1149.0000 3809.0000,1149.0000 C 3814.0000,1149.0000 3817.0000,1152.0000 3817.0000,1157.0000 L 3817.0000,1269.0000 C 3817.0000,1273.0000 3814.0000,1277.0000 3809.0000,1277.0000 C 3805.0000,1277.0000 3801.0000,1273.0000 3801.0000,1269.0000 Z M 3801.0000,1077.0000 L 3801.0000,965.0000 C 3801.0000,960.0000 3805.0000,957.0000 3809.0000,957.0000 C 3814.0000,957.0000 3817.0000,960.0000 3817.0000,965.0000 L 3817.0000,1077.0000 C 3817.0000,1081.0000 3814.0000,1085.0000 3809.0000,1085.0000 C 3805.0000,1085.0000 3801.0000,1081.0000 3801.0000,1077.0000 Z M 3801.0000,885.0000 L 3801.0000,773.0000 C 3801.0000,768.0000 3805.0000,765.0000 3809.0000,765.0000 C 3814.0000,765.0000 3817.0000,768.0000 3817.0000,773.0000 L 3817.0000,885.0000 C 3817.0000,889.0000 3814.0000,893.0000 3809.0000,893.0000 C 3805.0000,893.0000 3801.0000,889.0000 3801.0000,885.0000 Z M 3801.0000,693.0000 L 3801.0000,581.0000 C 3801.0000,576.0000 3805.0000,573.0000 3809.0000,573.0000 C 3814.0000,573.0000 3817.0000,576.0000 3817.0000,581.0000 L 3817.0000,693.0000 C 3817.0000,697.0000 3814.0000,701.0000 3809.0000,701.0000 C 3805.0000,701.0000 3801.0000,697.0000 3801.0000,693.0000 Z M 3801.0000,501.0000 L 3801.0000,389.0000 C 3801.0000,384.0000 3805.0000,381.0000 3809.0000,381.0000 C 3814.0000,381.0000 3817.0000,384.0000 3817.0000,389.0000 L 3817.0000,501.0000 C 3817.0000,505.0000 3814.0000,509.0000 3809.0000,509.0000 C 3805.0000,509.0000 3801.0000,505.0000 3801.0000,501.0000 Z M 3801.0000,309.0000 L 3801.0000,197.0000 C 3801.0000,192.0000 3805.0000,189.0000 3809.0000,189.0000 C 3814.0000,189.0000 3817.0000,192.0000 3817.0000,197.0000 L 3817.0000,309.0000 C 3817.0000,313.0000 3814.0000,317.0000 3809.0000,317.0000 C 3805.0000,317.0000 3801.0000,313.0000 3801.0000,309.0000 Z M 3801.0000,117.0000 L 3801.0000,30.0000 L 3809.0000,38.0000 L 3784.0000,38.0000 C 3780.0000,38.0000 3776.0000,34.0000 3776.0000,30.0000 C 3776.0000,25.0000 3780.0000,22.0000 3784.0000,22.0000 L 3809.0000,22.0000 C 3814.0000,22.0000 3817.0000,25.0000 3817.0000,30.0000 L 3817.0000,117.0000 C 3817.0000,121.0000 3814.0000,125.0000 3809.0000,125.0000 C 3805.0000,125.0000 3801.0000,121.0000 3801.0000,117.0000 Z M 3704.0000,38.0000 L 3592.0000,38.0000 C 3588.0000,38.0000 3584.0000,34.0000 3584.0000,30.0000 C 3584.0000,25.0000 3588.0000,22.0000 3592.0000,22.0000 L 3704.0000,22.0000 C 3709.0000,22.0000 3712.0000,25.0000 3712.0000,30.0000 C 3712.0000,34.0000 3709.0000,38.0000 3704.0000,38.0000 Z M 3512.0000,38.0000 L 3400.0000,38.0000 C 3396.0000,38.0000 3392.0000,34.0000 3392.0000,30.0000 C 3392.0000,25.0000 3396.0000,22.0000 3400.0000,22.0000 L 3512.0000,22.0000 C 3517.0000,22.0000 3520.0000,25.0000 3520.0000,30.0000 C 3520.0000,34.0000 3517.0000,38.0000 3512.0000,38.0000 Z M 3320.0000,38.0000 L 3208.0000,38.0000 C 3204.0000,38.0000 3200.0000,34.0000 3200.0000,30.0000 C 3200.0000,25.0000 3204.0000,22.0000 3208.0000,22.0000 L 3320.0000,22.0000 C 3325.0000,22.0000 3328.0000,25.0000 3328.0000,30.0000 C 3328.0000,34.0000 3325.0000,38.0000 3320.0000,38.0000 Z M 3128.0000,38.0000 L 3016.0000,38.0000 C 3012.0000,38.0000 3008.0000,34.0000 3008.0000,30.0000 C 3008.0000,25.0000 3012.0000,22.0000 3016.0000,22.0000 L 3128.0000,22.0000 C 3133.0000,22.0000 3136.0000,25.0000 3136.0000,30.0000 C 3136.0000,34.0000 3133.0000,38.0000 3128.0000,38.0000 Z M 2936.0000,38.0000 L 2824.0000,38.0000 C 2820.0000,38.0000 2816.0000,34.0000 2816.0000,30.0000 C 2816.0000,25.0000 2820.0000,22.0000 2824.0000,22.0000 L 2936.0000,22.0000 C 2941.0000,22.0000 2944.0000,25.0000 2944.0000,30.0000 C 2944.0000,34.0000 2941.0000,38.0000 2936.0000,38.0000 Z M 2744.0000,38.0000 L 2632.0000,38.0000 C 2628.0000,38.0000 2624.0000,34.0000 2624.0000,30.0000 C 2624.0000,25.0000 2628.0000,22.0000 2632.0000,22.0000 L 2744.0000,22.0000 C 2749.0000,22.0000 2752.0000,25.0000 2752.0000,30.0000 C 2752.0000,34.0000 2749.0000,38.0000 2744.0000,38.0000 Z M 2552.0000,38.0000 L 2440.0000,38.0000 C 2436.0000,38.0000 2432.0000,34.0000 2432.0000,30.0000 C 2432.0000,25.0000 2436.0000,22.0000 2440.0000,22.0000 L 2552.0000,22.0000 C 2557.0000,22.0000 2560.0000,25.0000 2560.0000,30.0000 C 2560.0000,34.0000 2557.0000,38.0000 2552.0000,38.0000 Z M 2360.0000,38.0000 L 2297.0000,38.0000 C 2293.0000,38.0000 2289.0000,34.0000 2289.0000,30.0000 C 2289.0000,25.0000 2293.0000,22.0000 2297.0000,22.0000 L 2360.0000,22.0000 C 2365.0000,22.0000 2368.0000,25.0000 2368.0000,30.0000 C 2368.0000,34.0000 2365.0000,38.0000 2360.0000,38.0000 Z "  fill="#000000" stroke="#000000" stroke-width="16.0000"  stroke-linecap="butt"  stroke-linejoin="bevel" />
</g>
<g transform="matrix(1.0000 0.0000 0.0000 1.0000 0.0000 0.0000)">
<text font-family="Arial" fill="#000000" style ="white-space:pre;" font-weight="400" text-anchor="start" x="149.0000" y="17.0000" font-size="11.0000" ><![CDATA[g]]></text>
<text font-family="Arial" fill="#000000" style ="white-space:pre;" font-weight="400" text-anchor="start" x="155.0000" y="17.0000" font-size="11.0000" ><![CDATA[NB]]></text>
</g>
<g transform="matrix(0.0625 0.0000 0.0000 0.0625 0.0000 0.0000)">
<path d="M 2448.0000,2534.0000 L 3658.0000,2534.0000 L 3658.0000,2232.0000 L 2448.0000,2232.0000 L 2448.0000,2534.0000 Z" stroke="#000000" stroke-width="5.0000"  stroke-linecap="round"  stroke-linejoin="round" fill="none" />
</g>
<g transform="matrix(1.0000 0.0000 0.0000 1.0000 0.0000 0.0000)">
<text font-family="Arial" fill="#000000" style ="white-space:pre;" font-weight="400" text-anchor="start" x="180.0000" y="152.0000" font-size="11.0000" ><![CDATA[PHY]]></text>
</g>
<g transform="matrix(0.0625 0.0000 0.0000 0.0625 0.0000 0.0000)">
<path d="M 38.0000,46.0000 L 38.0000,158.0000 C 38.0000,162.0000 34.0000,166.0000 30.0000,166.0000 C 25.0000,166.0000 22.0000,162.0000 22.0000,158.0000 L 22.0000,46.0000 C 22.0000,41.0000 25.0000,38.0000 30.0000,38.0000 C 34.0000,38.0000 38.0000,41.0000 38.0000,46.0000 Z M 38.0000,238.0000 L 38.0000,350.0000 C 38.0000,354.0000 34.0000,358.0000 30.0000,358.0000 C 25.0000,358.0000 22.0000,354.0000 22.0000,350.0000 L 22.0000,238.0000 C 22.0000,233.0000 25.0000,230.0000 30.0000,230.0000 C 34.0000,230.0000 38.0000,233.0000 38.0000,238.0000 Z M 38.0000,430.0000 L 38.0000,542.0000 C 38.0000,546.0000 34.0000,550.0000 30.0000,550.0000 C 25.0000,550.0000 22.0000,546.0000 22.0000,542.0000 L 22.0000,430.0000 C 22.0000,425.0000 25.0000,422.0000 30.0000,422.0000 C 34.0000,422.0000 38.0000,425.0000 38.0000,430.0000 Z M 38.0000,622.0000 L 38.0000,734.0000 C 38.0000,738.0000 34.0000,742.0000 30.0000,742.0000 C 25.0000,742.0000 22.0000,738.0000 22.0000,734.0000 L 22.0000,622.0000 C 22.0000,617.0000 25.0000,614.0000 30.0000,614.0000 C 34.0000,614.0000 38.0000,617.0000 38.0000,622.0000 Z M 38.0000,814.0000 L 38.0000,926.0000 C 38.0000,930.0000 34.0000,934.0000 30.0000,934.0000 C 25.0000,934.0000 22.0000,930.0000 22.0000,926.0000 L 22.0000,814.0000 C 22.0000,809.0000 25.0000,806.0000 30.0000,806.0000 C 34.0000,806.0000 38.0000,809.0000 38.0000,814.0000 Z M 38.0000,1006.0000 L 38.0000,1118.0000 C 38.0000,1122.0000 34.0000,1126.0000 30.0000,1126.0000 C 25.0000,1126.0000 22.0000,1122.0000 22.0000,1118.0000 L 22.0000,1006.0000 C 22.0000,1001.0000 25.0000,998.0000 30.0000,998.0000 C 34.0000,998.0000 38.0000,1001.0000 38.0000,1006.0000 Z M 38.0000,1198.0000 L 38.0000,1310.0000 C 38.0000,1314.0000 34.0000,1318.0000 30.0000,1318.0000 C 25.0000,1318.0000 22.0000,1314.0000 22.0000,1310.0000 L 22.0000,1198.0000 C 22.0000,1193.0000 25.0000,1190.0000 30.0000,1190.0000 C 34.0000,1190.0000 38.0000,1193.0000 38.0000,1198.0000 Z M 38.0000,1390.0000 L 38.0000,1502.0000 C 38.0000,1506.0000 34.0000,1510.0000 30.0000,1510.0000 C 25.0000,1510.0000 22.0000,1506.0000 22.0000,1502.0000 L 22.0000,1390.0000 C 22.0000,1385.0000 25.0000,1382.0000 30.0000,1382.0000 C 34.0000,1382.0000 38.0000,1385.0000 38.0000,1390.0000 Z M 38.0000,1582.0000 L 38.0000,1694.0000 C 38.0000,1698.0000 34.0000,1702.0000 30.0000,1702.0000 C 25.0000,1702.0000 22.0000,1698.0000 22.0000,1694.0000 L 22.0000,1582.0000 C 22.0000,1577.0000 25.0000,1574.0000 30.0000,1574.0000 C 34.0000,1574.0000 38.0000,1577.0000 38.0000,1582.0000 Z M 38.0000,1774.0000 L 38.0000,1886.0000 C 38.0000,1890.0000 34.0000,1894.0000 30.0000,1894.0000 C 25.0000,1894.0000 22.0000,1890.0000 22.0000,1886.0000 L 22.0000,1774.0000 C 22.0000,1769.0000 25.0000,1766.0000 30.0000,1766.0000 C 34.0000,1766.0000 38.0000,1769.0000 38.0000,1774.0000 Z M 38.0000,1966.0000 L 38.0000,2078.0000 C 38.0000,2082.0000 34.0000,2086.0000 30.0000,2086.0000 C 25.0000,2086.0000 22.0000,2082.0000 22.0000,2078.0000 L 22.0000,1966.0000 C 22.0000,1961.0000 25.0000,1958.0000 30.0000,1958.0000 C 34.0000,1958.0000 38.0000,1961.0000 38.0000,1966.0000 Z M 38.0000,2158.0000 L 38.0000,2270.0000 C 38.0000,2274.0000 34.0000,2278.0000 30.0000,2278.0000 C 25.0000,2278.0000 22.0000,2274.0000 22.0000,2270.0000 L 22.0000,2158.0000 C 22.0000,2153.0000 25.0000,2150.0000 30.0000,2150.0000 C 34.0000,2150.0000 38.0000,2153.0000 38.0000,2158.0000 Z M 38.0000,2350.0000 L 38.0000,2462.0000 C 38.0000,2466.0000 34.0000,2470.0000 30.0000,2470.0000 C 25.0000,2470.0000 22.0000,2466.0000 22.0000,2462.0000 L 22.0000,2350.0000 C 22.0000,2345.0000 25.0000,2342.0000 30.0000,2342.0000 C 34.0000,2342.0000 38.0000,2345.0000 38.0000,2350.0000 Z M 38.0000,2542.0000 L 38.0000,2654.0000 C 38.0000,2658.0000 34.0000,2662.0000 30.0000,2662.0000 C 25.0000,2662.0000 22.0000,2658.0000 22.0000,2654.0000 L 22.0000,2542.0000 C 22.0000,2537.0000 25.0000,2534.0000 30.0000,2534.0000 C 34.0000,2534.0000 38.0000,2537.0000 38.0000,2542.0000 Z M 78.0000,2677.0000 L 190.0000,2677.0000 C 194.0000,2677.0000 198.0000,2681.0000 198.0000,2685.0000 C 198.0000,2690.0000 194.0000,2693.0000 190.0000,2693.0000 L 78.0000,2693.0000 C 74.0000,2693.0000 70.0000,2690.0000 70.0000,2685.0000 C 70.0000,2681.0000 74.0000,2677.0000 78.0000,2677.0000 Z M 270.0000,2677.0000 L 382.0000,2677.0000 C 386.0000,2677.0000 390.0000,2681.0000 390.0000,2685.0000 C 390.0000,2690.0000 386.0000,2693.0000 382.0000,2693.0000 L 270.0000,2693.0000 C 266.0000,2693.0000 262.0000,2690.0000 262.0000,2685.0000 C 262.0000,2681.0000 266.0000,2677.0000 270.0000,2677.0000 Z M 462.0000,2677.0000 L 574.0000,2677.0000 C 578.0000,2677.0000 582.0000,2681.0000 582.0000,2685.0000 C 582.0000,2690.0000 578.0000,2693.0000 574.0000,2693.0000 L 462.0000,2693.0000 C 458.0000,2693.0000 454.0000,2690.0000 454.0000,2685.0000 C 454.0000,2681.0000 458.0000,2677.0000 462.0000,2677.0000 Z M 654.0000,2677.0000 L 766.0000,2677.0000 C 770.0000,2677.0000 774.0000,2681.0000 774.0000,2685.0000 C 774.0000,2690.0000 770.0000,2693.0000 766.0000,2693.0000 L 654.0000,2693.0000 C 650.0000,2693.0000 646.0000,2690.0000 646.0000,2685.0000 C 646.0000,2681.0000 650.0000,2677.0000 654.0000,2677.0000 Z M 846.0000,2677.0000 L 958.0000,2677.0000 C 962.0000,2677.0000 966.0000,2681.0000 966.0000,2685.0000 C 966.0000,2690.0000 962.0000,2693.0000 958.0000,2693.0000 L 846.0000,2693.0000 C 842.0000,2693.0000 838.0000,2690.0000 838.0000,2685.0000 C 838.0000,2681.0000 842.0000,2677.0000 846.0000,2677.0000 Z M 1038.0000,2677.0000 L 1150.0000,2677.0000 C 1154.0000,2677.0000 1158.0000,2681.0000 1158.0000,2685.0000 C 1158.0000,2690.0000 1154.0000,2693.0000 1150.0000,2693.0000 L 1038.0000,2693.0000 C 1034.0000,2693.0000 1030.0000,2690.0000 1030.0000,2685.0000 C 1030.0000,2681.0000 1034.0000,2677.0000 1038.0000,2677.0000 Z M 1230.0000,2677.0000 L 1342.0000,2677.0000 C 1346.0000,2677.0000 1350.0000,2681.0000 1350.0000,2685.0000 C 1350.0000,2690.0000 1346.0000,2693.0000 1342.0000,2693.0000 L 1230.0000,2693.0000 C 1226.0000,2693.0000 1222.0000,2690.0000 1222.0000,2685.0000 C 1222.0000,2681.0000 1226.0000,2677.0000 1230.0000,2677.0000 Z M 1422.0000,2677.0000 L 1534.0000,2677.0000 C 1538.0000,2677.0000 1542.0000,2681.0000 1542.0000,2685.0000 C 1542.0000,2690.0000 1538.0000,2693.0000 1534.0000,2693.0000 L 1422.0000,2693.0000 C 1418.0000,2693.0000 1414.0000,2690.0000 1414.0000,2685.0000 C 1414.0000,2681.0000 1418.0000,2677.0000 1422.0000,2677.0000 Z M 1533.0000,2613.0000 L 1533.0000,2501.0000 C 1533.0000,2496.0000 1537.0000,2493.0000 1541.0000,2493.0000 C 1546.0000,2493.0000 1549.0000,2496.0000 1549.0000,2501.0000 L 1549.0000,2613.0000 C 1549.0000,2617.0000 1546.0000,2621.0000 1541.0000,2621.0000 C 1537.0000,2621.0000 1533.0000,2617.0000 1533.0000,2613.0000 Z M 1533.0000,2421.0000 L 1533.0000,2309.0000 C 1533.0000,2304.0000 1537.0000,2301.0000 1541.0000,2301.0000 C 1546.0000,2301.0000 1549.0000,2304.0000 1549.0000,2309.0000 L 1549.0000,2421.0000 C 1549.0000,2425.0000 1546.0000,2429.0000 1541.0000,2429.0000 C 1537.0000,2429.0000 1533.0000,2425.0000 1533.0000,2421.0000 Z M 1533.0000,2229.0000 L 1533.0000,2117.0000 C 1533.0000,2112.0000 1537.0000,2109.0000 1541.0000,2109.0000 C 1546.0000,2109.0000 1549.0000,2112.0000 1549.0000,2117.0000 L 1549.0000,2229.0000 C 1549.0000,2233.0000 1546.0000,2237.0000 1541.0000,2237.0000 C 1537.0000,2237.0000 1533.0000,2233.0000 1533.0000,2229.0000 Z M 1533.0000,2037.0000 L 1533.0000,1925.0000 C 1533.0000,1920.0000 1537.0000,1917.0000 1541.0000,1917.0000 C 1546.0000,1917.0000 1549.0000,1920.0000 1549.0000,1925.0000 L 1549.0000,2037.0000 C 1549.0000,2041.0000 1546.0000,2045.0000 1541.0000,2045.0000 C 1537.0000,2045.0000 1533.0000,2041.0000 1533.0000,2037.0000 Z M 1533.0000,1845.0000 L 1533.0000,1733.0000 C 1533.0000,1728.0000 1537.0000,1725.0000 1541.0000,1725.0000 C 1546.0000,1725.0000 1549.0000,1728.0000 1549.0000,1733.0000 L 1549.0000,1845.0000 C 1549.0000,1849.0000 1546.0000,1853.0000 1541.0000,1853.0000 C 1537.0000,1853.0000 1533.0000,1849.0000 1533.0000,1845.0000 Z M 1533.0000,1653.0000 L 1533.0000,1541.0000 C 1533.0000,1536.0000 1537.0000,1533.0000 1541.0000,1533.0000 C 1546.0000,1533.0000 1549.0000,1536.0000 1549.0000,1541.0000 L 1549.0000,1653.0000 C 1549.0000,1657.0000 1546.0000,1661.0000 1541.0000,1661.0000 C 1537.0000,1661.0000 1533.0000,1657.0000 1533.0000,1653.0000 Z M 1533.0000,1461.0000 L 1533.0000,1349.0000 C 1533.0000,1344.0000 1537.0000,1341.0000 1541.0000,1341.0000 C 1546.0000,1341.0000 1549.0000,1344.0000 1549.0000,1349.0000 L 1549.0000,1461.0000 C 1549.0000,1465.0000 1546.0000,1469.0000 1541.0000,1469.0000 C 1537.0000,1469.0000 1533.0000,1465.0000 1533.0000,1461.0000 Z M 1533.0000,1269.0000 L 1533.0000,1157.0000 C 1533.0000,1152.0000 1537.0000,1149.0000 1541.0000,1149.0000 C 1546.0000,1149.0000 1549.0000,1152.0000 1549.0000,1157.0000 L 1549.0000,1269.0000 C 1549.0000,1273.0000 1546.0000,1277.0000 1541.0000,1277.0000 C 1537.0000,1277.0000 1533.0000,1273.0000 1533.0000,1269.0000 Z M 1533.0000,1077.0000 L 1533.0000,965.0000 C 1533.0000,960.0000 1537.0000,957.0000 1541.0000,957.0000 C 1546.0000,957.0000 1549.0000,960.0000 1549.0000,965.0000 L 1549.0000,1077.0000 C 1549.0000,1081.0000 1546.0000,1085.0000 1541.0000,1085.0000 C 1537.0000,1085.0000 1533.0000,1081.0000 1533.0000,1077.0000 Z M 1533.0000,885.0000 L 1533.0000,773.0000 C 1533.0000,768.0000 1537.0000,765.0000 1541.0000,765.0000 C 1546.0000,765.0000 1549.0000,768.0000 1549.0000,773.0000 L 1549.0000,885.0000 C 1549.0000,889.0000 1546.0000,893.0000 1541.0000,893.0000 C 1537.0000,893.0000 1533.0000,889.0000 1533.0000,885.0000 Z M 1533.0000,693.0000 L 1533.0000,581.0000 C 1533.0000,576.0000 1537.0000,573.0000 1541.0000,573.0000 C 1546.0000,573.0000 1549.0000,576.0000 1549.0000,581.0000 L 1549.0000,693.0000 C 1549.0000,697.0000 1546.0000,701.0000 1541.0000,701.0000 C 1537.0000,701.0000 1533.0000,697.0000 1533.0000,693.0000 Z M 1533.0000,501.0000 L 1533.0000,389.0000 C 1533.0000,384.0000 1537.0000,381.0000 1541.0000,381.0000 C 1546.0000,381.0000 1549.0000,384.0000 1549.0000,389.0000 L 1549.0000,501.0000 C 1549.0000,505.0000 1546.0000,509.0000 1541.0000,509.0000 C 1537.0000,509.0000 1533.0000,505.0000 1533.0000,501.0000 Z M 1533.0000,309.0000 L 1533.0000,197.0000 C 1533.0000,192.0000 1537.0000,189.0000 1541.0000,189.0000 C 1546.0000,189.0000 1549.0000,192.0000 1549.0000,197.0000 L 1549.0000,309.0000 C 1549.0000,313.0000 1546.0000,317.0000 1541.0000,317.0000 C 1537.0000,317.0000 1533.0000,313.0000 1533.0000,309.0000 Z M 1533.0000,117.0000 L 1533.0000,30.0000 L 1541.0000,38.0000 L 1517.0000,38.0000 C 1512.0000,38.0000 1509.0000,34.0000 1509.0000,30.0000 C 1509.0000,25.0000 1512.0000,22.0000 1517.0000,22.0000 L 1541.0000,22.0000 C 1546.0000,22.0000 1549.0000,25.0000 1549.0000,30.0000 L 1549.0000,117.0000 C 1549.0000,121.0000 1546.0000,125.0000 1541.0000,125.0000 C 1537.0000,125.0000 1533.0000,121.0000 1533.0000,117.0000 Z M 1437.0000,38.0000 L 1325.0000,38.0000 C 1320.0000,38.0000 1317.0000,34.0000 1317.0000,30.0000 C 1317.0000,25.0000 1320.0000,22.0000 1325.0000,22.0000 L 1437.0000,22.0000 C 1441.0000,22.0000 1445.0000,25.0000 1445.0000,30.0000 C 1445.0000,34.0000 1441.0000,38.0000 1437.0000,38.0000 Z M 1245.0000,38.0000 L 1133.0000,38.0000 C 1128.0000,38.0000 1125.0000,34.0000 1125.0000,30.0000 C 1125.0000,25.0000 1128.0000,22.0000 1133.0000,22.0000 L 1245.0000,22.0000 C 1249.0000,22.0000 1253.0000,25.0000 1253.0000,30.0000 C 1253.0000,34.0000 1249.0000,38.0000 1245.0000,38.0000 Z M 1053.0000,38.0000 L 941.0000,38.0000 C 936.0000,38.0000 933.0000,34.0000 933.0000,30.0000 C 933.0000,25.0000 936.0000,22.0000 941.0000,22.0000 L 1053.0000,22.0000 C 1057.0000,22.0000 1061.0000,25.0000 1061.0000,30.0000 C 1061.0000,34.0000 1057.0000,38.0000 1053.0000,38.0000 Z M 861.0000,38.0000 L 749.0000,38.0000 C 744.0000,38.0000 741.0000,34.0000 741.0000,30.0000 C 741.0000,25.0000 744.0000,22.0000 749.0000,22.0000 L 861.0000,22.0000 C 865.0000,22.0000 869.0000,25.0000 869.0000,30.0000 C 869.0000,34.0000 865.0000,38.0000 861.0000,38.0000 Z M 669.0000,38.0000 L 557.0000,38.0000 C 552.0000,38.0000 549.0000,34.0000 549.0000,30.0000 C 549.0000,25.0000 552.0000,22.0000 557.0000,22.0000 L 669.0000,22.0000 C 673.0000,22.0000 677.0000,25.0000 677.0000,30.0000 C 677.0000,34.0000 673.0000,38.0000 669.0000,38.0000 Z M 477.0000,38.0000 L 365.0000,38.0000 C 360.0000,38.0000 357.0000,34.0000 357.0000,30.0000 C 357.0000,25.0000 360.0000,22.0000 365.0000,22.0000 L 477.0000,22.0000 C 481.0000,22.0000 485.0000,25.0000 485.0000,30.0000 C 485.0000,34.0000 481.0000,38.0000 477.0000,38.0000 Z M 285.0000,38.0000 L 173.0000,38.0000 C 168.0000,38.0000 165.0000,34.0000 165.0000,30.0000 C 165.0000,25.0000 168.0000,22.0000 173.0000,22.0000 L 285.0000,22.0000 C 289.0000,22.0000 293.0000,25.0000 293.0000,30.0000 C 293.0000,34.0000 289.0000,38.0000 285.0000,38.0000 Z M 93.0000,38.0000 L 30.0000,38.0000 C 25.0000,38.0000 22.0000,34.0000 22.0000,30.0000 C 22.0000,25.0000 25.0000,22.0000 30.0000,22.0000 L 93.0000,22.0000 C 97.0000,22.0000 101.0000,25.0000 101.0000,30.0000 C 101.0000,34.0000 97.0000,38.0000 93.0000,38.0000 Z "  fill="#000000" stroke="#000000" stroke-width="16.0000"  stroke-linecap="butt"  stroke-linejoin="bevel" />
</g>
<g transform="matrix(1.0000 0.0000 0.0000 1.0000 0.0000 0.0000)">
<text font-family="Arial" fill="#000000" style ="white-space:pre;" font-weight="400" text-anchor="start" x="7.0000" y="17.0000" font-size="11.0000" ><![CDATA[UE]]></text>
</g>
<g transform="matrix(0.0625 0.0000 0.0000 0.0625 0.0000 0.0000)">
<path d="M 181.0000,2534.0000 L 1390.0000,2534.0000 L 1390.0000,2232.0000 L 181.0000,2232.0000 L 181.0000,2534.0000 Z" stroke="#000000" stroke-width="5.0000"  stroke-linecap="round"  stroke-linejoin="round" fill="none" />
</g>
<g transform="matrix(1.0000 0.0000 0.0000 1.0000 0.0000 0.0000)">
<text font-family="Arial" fill="#000000" style ="white-space:pre;" font-weight="400" text-anchor="start" x="38.0000" y="152.0000" font-size="11.0000" ><![CDATA[PHY]]></text>
</g>
<g transform="matrix(0.0625 0.0000 0.0000 0.0625 0.0000 0.0000)">
<path d="M 181.0000,2081.0000 L 1390.0000,2081.0000 L 1390.0000,1778.0000 L 181.0000,1778.0000 L 181.0000,2081.0000 Z" stroke="#000000" stroke-width="5.0000"  stroke-linecap="round"  stroke-linejoin="round" fill="none" />
</g>
<g transform="matrix(1.0000 0.0000 0.0000 1.0000 0.0000 0.0000)">
<text font-family="Arial" fill="#000000" style ="white-space:pre;" font-weight="400" text-anchor="start" x="37.0000" y="124.0000" font-size="11.0000" ><![CDATA[MAC]]></text>
</g>
<g transform="matrix(0.0625 0.0000 0.0000 0.0625 0.0000 0.0000)">
<path d="M 181.0000,1627.0000 L 1390.0000,1627.0000 L 1390.0000,1325.0000 L 181.0000,1325.0000 L 181.0000,1627.0000 Z" stroke="#000000" stroke-width="5.0000"  stroke-linecap="round"  stroke-linejoin="round" fill="none" />
</g>
<g transform="matrix(1.0000 0.0000 0.0000 1.0000 0.0000 0.0000)">
<text font-family="Arial" fill="#000000" style ="white-space:pre;" font-weight="400" text-anchor="start" x="38.0000" y="95.0000" font-size="11.0000" ><![CDATA[RLC]]></text>
</g>
<g transform="matrix(0.0625 0.0000 0.0000 0.0625 0.0000 0.0000)">
<path d="M 2448.0000,2081.0000 L 3658.0000,2081.0000 L 3658.0000,1778.0000 L 2448.0000,1778.0000 L 2448.0000,2081.0000 Z" stroke="#000000" stroke-width="5.0000"  stroke-linecap="round"  stroke-linejoin="round" fill="none" />
</g>
<g transform="matrix(1.0000 0.0000 0.0000 1.0000 0.0000 0.0000)">
<text font-family="Arial" fill="#000000" style ="white-space:pre;" font-weight="400" text-anchor="start" x="179.0000" y="124.0000" font-size="11.0000" ><![CDATA[MAC]]></text>
</g>
<g transform="matrix(0.0625 0.0000 0.0000 0.0625 0.0000 0.0000)">
<path d="M 2448.0000,1173.0000 L 3658.0000,1173.0000 L 3658.0000,871.0000 L 2448.0000,871.0000 L 2448.0000,1173.0000 Z" stroke="#000000" stroke-width="5.0000"  stroke-linecap="round"  stroke-linejoin="round" fill="none" />
</g>
<g transform="matrix(1.0000 0.0000 0.0000 1.0000 0.0000 0.0000)">
<text font-family="Arial" fill="#000000" style ="white-space:pre;" font-weight="400" text-anchor="start" x="176.0000" y="67.0000" font-size="11.0000" ><![CDATA[PDCP]]></text>
</g>
<g transform="matrix(0.0625 0.0000 0.0000 0.0625 0.0000 0.0000)">
<path d="M 1460.0000,1022.0000 L 2379.0000,1022.0000 " stroke="#000000" stroke-width="15.0000"  stroke-linecap="round"  stroke-linejoin="round" fill="none" />
</g>
<g transform="matrix(1.0000 0.0000 0.0000 1.0000 0.0000 0.0000)">
</g>
<g transform="matrix(0.0625 0.0000 0.0000 0.0625 0.0000 0.0000)">
<path d="M 1390.0000,1022.0000 L 1482.0000,976.0000 C 1468.0000,1005.0000 1468.0000,1039.0000 1482.0000,1068.0000 L 1390.0000,1022.0000 Z "  fill="#000000" stroke="none" />
</g>
<g transform="matrix(1.0000 0.0000 0.0000 1.0000 0.0000 0.0000)">
</g>
<g transform="matrix(0.0625 0.0000 0.0000 0.0625 0.0000 0.0000)">
<path d="M 2448.0000,1022.0000 L 2356.0000,1068.0000 C 2371.0000,1039.0000 2371.0000,1005.0000 2356.0000,976.0000 L 2448.0000,1022.0000 Z "  fill="#000000" stroke="none" />
</g>
<g transform="matrix(1.0000 0.0000 0.0000 1.0000 0.0000 0.0000)">
</g>
<g transform="matrix(0.0625 0.0000 0.0000 0.0625 0.0000 0.0000)">
<path d="M 1460.0000,1929.0000 L 2379.0000,1929.0000 " stroke="#000000" stroke-width="15.0000"  stroke-linecap="round"  stroke-linejoin="round" fill="none" />
</g>
<g transform="matrix(1.0000 0.0000 0.0000 1.0000 0.0000 0.0000)">
</g>
<g transform="matrix(0.0625 0.0000 0.0000 0.0625 0.0000 0.0000)">
<path d="M 1390.0000,1929.0000 L 1482.0000,1883.0000 C 1468.0000,1912.0000 1468.0000,1946.0000 1482.0000,1975.0000 L 1482.0000,1975.0000 L 1390.0000,1929.0000 Z "  fill="#000000" stroke="none" />
</g>
<g transform="matrix(1.0000 0.0000 0.0000 1.0000 0.0000 0.0000)">
</g>
<g transform="matrix(0.0625 0.0000 0.0000 0.0625 0.0000 0.0000)">
<path d="M 2448.0000,1929.0000 L 2356.0000,1975.0000 C 2371.0000,1946.0000 2371.0000,1912.0000 2356.0000,1883.0000 L 2448.0000,1929.0000 Z "  fill="#000000" stroke="none" />
</g>
<g transform="matrix(1.0000 0.0000 0.0000 1.0000 0.0000 0.0000)">
</g>
<g transform="matrix(0.0625 0.0000 0.0000 0.0625 0.0000 0.0000)">
<path d="M 1460.0000,2383.0000 L 2379.0000,2383.0000 " stroke="#000000" stroke-width="15.0000"  stroke-linecap="round"  stroke-linejoin="round" fill="none" />
</g>
<g transform="matrix(1.0000 0.0000 0.0000 1.0000 0.0000 0.0000)">
</g>
<g transform="matrix(0.0625 0.0000 0.0000 0.0625 0.0000 0.0000)">
<path d="M 1390.0000,2383.0000 L 1482.0000,2337.0000 C 1468.0000,2366.0000 1468.0000,2400.0000 1482.0000,2429.0000 L 1482.0000,2429.0000 L 1390.0000,2383.0000 Z "  fill="#000000" stroke="none" />
</g>
<g transform="matrix(1.0000 0.0000 0.0000 1.0000 0.0000 0.0000)">
</g>
<g transform="matrix(0.0625 0.0000 0.0000 0.0625 0.0000 0.0000)">
<path d="M 2448.0000,2383.0000 L 2356.0000,2429.0000 C 2371.0000,2400.0000 2371.0000,2366.0000 2356.0000,2337.0000 L 2448.0000,2383.0000 Z "  fill="#000000" stroke="none" />
</g>
<g transform="matrix(1.0000 0.0000 0.0000 1.0000 0.0000 0.0000)">
</g>
<g transform="matrix(0.0625 0.0000 0.0000 0.0625 0.0000 0.0000)">
<path d="M 181.0000,1173.0000 L 1390.0000,1173.0000 L 1390.0000,871.0000 L 181.0000,871.0000 L 181.0000,1173.0000 Z" stroke="#000000" stroke-width="5.0000"  stroke-linecap="round"  stroke-linejoin="round" fill="none" />
</g>
<g transform="matrix(1.0000 0.0000 0.0000 1.0000 0.0000 0.0000)">
<text font-family="Arial" fill="#000000" style ="white-space:pre;" font-weight="400" text-anchor="start" x="34.0000" y="67.0000" font-size="11.0000" ><![CDATA[PDCP]]></text>
</g>
<g transform="matrix(0.0625 0.0000 0.0000 0.0625 0.0000 0.0000)">
<path d="M 2448.0000,1627.0000 L 3658.0000,1627.0000 L 3658.0000,1325.0000 L 2448.0000,1325.0000 L 2448.0000,1627.0000 Z" stroke="#000000" stroke-width="5.0000"  stroke-linecap="round"  stroke-linejoin="round" fill="none" />
</g>
<g transform="matrix(1.0000 0.0000 0.0000 1.0000 0.0000 0.0000)">
<text font-family="Arial" fill="#000000" style ="white-space:pre;" font-weight="400" text-anchor="start" x="180.0000" y="95.0000" font-size="11.0000" ><![CDATA[RLC]]></text>
</g>
<g transform="matrix(0.0625 0.0000 0.0000 0.0625 0.0000 0.0000)">
<path d="M 1460.0000,1476.0000 L 2379.0000,1476.0000 " stroke="#000000" stroke-width="15.0000"  stroke-linecap="round"  stroke-linejoin="round" fill="none" />
</g>
<g transform="matrix(1.0000 0.0000 0.0000 1.0000 0.0000 0.0000)">
</g>
<g transform="matrix(0.0625 0.0000 0.0000 0.0625 0.0000 0.0000)">
<path d="M 1390.0000,1476.0000 L 1482.0000,1430.0000 C 1468.0000,1459.0000 1468.0000,1493.0000 1482.0000,1522.0000 L 1390.0000,1476.0000 Z "  fill="#000000" stroke="none" />
</g>
<g transform="matrix(1.0000 0.0000 0.0000 1.0000 0.0000 0.0000)">
</g>
<g transform="matrix(0.0625 0.0000 0.0000 0.0625 0.0000 0.0000)">
<path d="M 2448.0000,1476.0000 L 2356.0000,1522.0000 C 2371.0000,1493.0000 2371.0000,1459.0000 2356.0000,1430.0000 L 2356.0000,1430.0000 L 2448.0000,1476.0000 Z "  fill="#000000" stroke="none" />
</g>
<g transform="matrix(1.0000 0.0000 0.0000 1.0000 0.0000 0.0000)">
</g>
<g transform="matrix(0.0625 0.0000 0.0000 0.0625 0.0000 0.0000)">
<path d="M 2448.0000,725.0000 L 3658.0000,725.0000 L 3658.0000,332.0000 L 2448.0000,332.0000 L 2448.0000,725.0000 Z" stroke="#000000" stroke-width="5.0000"  stroke-linecap="round"  stroke-linejoin="round" fill="none" />
</g>
<g transform="matrix(1.0000 0.0000 0.0000 1.0000 0.0000 0.0000)">
<text font-family="Arial" fill="#000000" style ="white-space:pre;" font-weight="400" text-anchor="start" x="172.0000" y="30.0000" font-size="11.0000" ><![CDATA[New AS ]]></text>
<text font-family="Arial" fill="#000000" style ="white-space:pre;" font-weight="400" text-anchor="start" x="171.0000" y="43.0000" font-size="11.0000" ><![CDATA[sublayer]]></text>
</g>
<g transform="matrix(0.0625 0.0000 0.0000 0.0625 0.0000 0.0000)">
<path d="M 1460.0000,528.0000 L 2379.0000,528.0000 " stroke="#000000" stroke-width="15.0000"  stroke-linecap="round"  stroke-linejoin="round" fill="none" />
</g>
<g transform="matrix(1.0000 0.0000 0.0000 1.0000 0.0000 0.0000)">
</g>
<g transform="matrix(0.0625 0.0000 0.0000 0.0625 0.0000 0.0000)">
<path d="M 1390.0000,528.0000 L 1482.0000,482.0000 C 1468.0000,511.0000 1468.0000,546.0000 1482.0000,575.0000 L 1390.0000,528.0000 Z "  fill="#000000" stroke="none" />
</g>
<g transform="matrix(1.0000 0.0000 0.0000 1.0000 0.0000 0.0000)">
</g>
<g transform="matrix(0.0625 0.0000 0.0000 0.0625 0.0000 0.0000)">
<path d="M 2448.0000,528.0000 L 2356.0000,575.0000 C 2371.0000,546.0000 2371.0000,511.0000 2356.0000,482.0000 L 2356.0000,482.0000 L 2448.0000,528.0000 Z "  fill="#000000" stroke="none" />
</g>
<g transform="matrix(1.0000 0.0000 0.0000 1.0000 0.0000 0.0000)">
</g>
<g transform="matrix(0.0625 0.0000 0.0000 0.0625 0.0000 0.0000)">
<path d="M 181.0000,725.0000 L 1390.0000,725.0000 L 1390.0000,332.0000 L 181.0000,332.0000 L 181.0000,725.0000 Z" stroke="#000000" stroke-width="5.0000"  stroke-linecap="round"  stroke-linejoin="round" fill="none" />
</g>
<g transform="matrix(1.0000 0.0000 0.0000 1.0000 0.0000 0.0000)">
<text font-family="Arial" fill="#000000" style ="white-space:pre;" font-weight="400" text-anchor="start" x="30.0000" y="30.0000" font-size="11.0000" ><![CDATA[New AS ]]></text>
<text font-family="Arial" fill="#000000" style ="white-space:pre;" font-weight="400" text-anchor="start" x="29.0000" y="43.0000" font-size="11.0000" ><![CDATA[sublayer]]></text>
</g>
</g>
</svg>
