<?xml version="1.0"  encoding="UTF-8" standalone="no"?>
<svg version="1.1" xmlns="http://www.w3.org/2000/svg" xmlns:xlink="http://www.w3.org/1999/xlink" width="4876.0000" height="2143.0000">
<g transform="translate(1.0000, -0.0000)">
<text font-family="Times New Roman" fill="#000000" style ="white-space:pre;" font-weight="400" text-anchor="start" x="0.0000" y="90.0000" font-size="100.0000" ><![CDATA[ ]]></text>
<g transform="matrix(0.0625 0.0000 0.0000 0.0625 0.0000 0.0000)">
<path d="M 2302.0000,14399.0000 C 1741.0000,14399.0000 1286.0000,14854.0000 1286.0000,15416.0000 L 1286.0000,19482.0000 C 1286.0000,20044.0000 1741.0000,20499.0000 2302.0000,20499.0000 L 15869.0000,20499.0000 C 16431.0000,20499.0000 16886.0000,20044.0000 16886.0000,19482.0000 L 16886.0000,15416.0000 C 16886.0000,14854.0000 16431.0000,14399.0000 15869.0000,14399.0000 Z "  fill="#FFFFFF" stroke="none" />
</g>
<g transform="matrix(1.0000 0.0000 0.0000 1.0000 0.0000 0.0000)">
</g>
<g transform="matrix(0.0625 0.0000 0.0000 0.0625 0.0000 0.0000)">
<path d="M 2302.0000,14399.0000 C 1741.0000,14399.0000 1286.0000,14854.0000 1286.0000,15416.0000 L 1286.0000,19482.0000 C 1286.0000,20044.0000 1741.0000,20499.0000 2302.0000,20499.0000 L 15869.0000,20499.0000 C 16431.0000,20499.0000 16886.0000,20044.0000 16886.0000,19482.0000 L 16886.0000,15416.0000 C 16886.0000,14854.0000 16431.0000,14399.0000 15869.0000,14399.0000 Z " stroke="#000000" stroke-width="100.0000"  stroke-linecap="round"  stroke-linejoin="round" fill="none" />
</g>
<g transform="matrix(1.0000 0.0000 0.0000 1.0000 0.0000 0.0000)">
<defs><clipPath id="clip-1804289383"><path d="M 75.0000,943.0000 L 1049.0000,943.0000 L 1049.0000,1245.0000 L 75.0000,1245.0000 L 75.0000,943.0000 Z Z" /></clipPath></defs>
<text  clip-path="url(#clip-1804289383)" font-family="Times New Roman" fill="#000000" style ="white-space:pre;" font-weight="400" text-anchor="start" x="314.0000" y="1058.0000" font-size="100.0000" ><![CDATA[CELL_PCH]]></text>
<text  clip-path="url(#clip-1804289383)" font-family="Times New Roman" fill="#000000" style ="white-space:pre;" font-weight="400" text-anchor="start" x="809.0000" y="1058.0000" font-size="100.0000" ><![CDATA[ ]]></text>
<text  clip-path="url(#clip-1804289383)" font-family="Times New Roman" fill="#000000" style ="white-space:pre;" font-weight="400" text-anchor="start" x="333.0000" y="1202.0000" font-size="100.0000" ><![CDATA[URA_PCH]]></text>
<text  clip-path="url(#clip-1804289383)" font-family="Times New Roman" fill="#000000" style ="white-space:pre;" font-weight="400" text-anchor="start" x="789.0000" y="1202.0000" font-size="100.0000" ><![CDATA[ ]]></text>
</g>
<g transform="matrix(0.0625 0.0000 0.0000 0.0625 0.0000 0.0000)">
<path d="M 2086.0000,2399.0000 C 1644.0000,2399.0000 1286.0000,2757.0000 1286.0000,3199.0000 L 1286.0000,6399.0000 C 1286.0000,6841.0000 1644.0000,7199.0000 2086.0000,7199.0000 L 16086.0000,7199.0000 C 16528.0000,7199.0000 16886.0000,6841.0000 16886.0000,6399.0000 L 16886.0000,3199.0000 C 16886.0000,2757.0000 16528.0000,2399.0000 16086.0000,2399.0000 Z "  fill="#FFFFFF" stroke="none" />
</g>
<g transform="matrix(1.0000 0.0000 0.0000 1.0000 0.0000 0.0000)">
</g>
<g transform="matrix(0.0625 0.0000 0.0000 0.0625 0.0000 0.0000)">
<path d="M 2086.0000,2399.0000 C 1644.0000,2399.0000 1286.0000,2757.0000 1286.0000,3199.0000 L 1286.0000,6399.0000 C 1286.0000,6841.0000 1644.0000,7199.0000 2086.0000,7199.0000 L 16086.0000,7199.0000 C 16528.0000,7199.0000 16886.0000,6841.0000 16886.0000,6399.0000 L 16886.0000,3199.0000 C 16886.0000,2757.0000 16528.0000,2399.0000 16086.0000,2399.0000 Z " stroke="#000000" stroke-width="100.0000"  stroke-linecap="round"  stroke-linejoin="round" fill="none" />
</g>
<g transform="matrix(1.0000 0.0000 0.0000 1.0000 0.0000 0.0000)">
<defs><clipPath id="clip-846930886"><path d="M 81.0000,180.0000 L 1055.0000,180.0000 L 1055.0000,420.0000 L 81.0000,420.0000 L 81.0000,180.0000 Z Z" /></clipPath></defs>
<text  clip-path="url(#clip-846930886)" font-family="Times New Roman" fill="#000000" style ="white-space:pre;" font-weight="400" text-anchor="start" x="313.0000" y="323.0000" font-size="100.0000" ><![CDATA[CELL_DCH]]></text>
<text  clip-path="url(#clip-846930886)" font-family="Times New Roman" fill="#000000" style ="white-space:pre;" font-weight="400" text-anchor="start" x="824.0000" y="323.0000" font-size="100.0000" ><![CDATA[ ]]></text>
</g>
<g transform="matrix(0.0625 0.0000 0.0000 0.0625 0.0000 0.0000)">
<path d="M 2086.0000,27799.0000 C 1644.0000,27799.0000 1286.0000,28157.0000 1286.0000,28599.0000 L 1286.0000,31799.0000 C 1286.0000,32241.0000 1644.0000,32599.0000 2086.0000,32599.0000 L 16086.0000,32599.0000 C 16528.0000,32599.0000 16886.0000,32241.0000 16886.0000,31799.0000 L 16886.0000,28599.0000 C 16886.0000,28157.0000 16528.0000,27799.0000 16086.0000,27799.0000 Z "  fill="#FFFFFF" stroke="none" />
</g>
<g transform="matrix(1.0000 0.0000 0.0000 1.0000 0.0000 0.0000)">
</g>
<g transform="matrix(0.0625 0.0000 0.0000 0.0625 0.0000 0.0000)">
<path d="M 2086.0000,27799.0000 C 1644.0000,27799.0000 1286.0000,28157.0000 1286.0000,28599.0000 L 1286.0000,31799.0000 C 1286.0000,32241.0000 1644.0000,32599.0000 2086.0000,32599.0000 L 16086.0000,32599.0000 C 16528.0000,32599.0000 16886.0000,32241.0000 16886.0000,31799.0000 L 16886.0000,28599.0000 C 16886.0000,28157.0000 16528.0000,27799.0000 16086.0000,27799.0000 Z " stroke="#000000" stroke-width="100.0000"  stroke-linecap="round"  stroke-linejoin="round" fill="none" />
</g>
<g transform="matrix(1.0000 0.0000 0.0000 1.0000 0.0000 0.0000)">
<defs><clipPath id="clip-1681692777"><path d="M 81.0000,1762.0000 L 1055.0000,1762.0000 L 1055.0000,2001.0000 L 81.0000,2001.0000 L 81.0000,1762.0000 Z Z" /></clipPath></defs>
<text  clip-path="url(#clip-1681692777)" font-family="Times New Roman" fill="#000000" style ="white-space:pre;" font-weight="400" text-anchor="start" x="329.0000" y="1906.0000" font-size="100.0000" ><![CDATA[UTRA_Idle]]></text>
<text  clip-path="url(#clip-1681692777)" font-family="Times New Roman" fill="#000000" style ="white-space:pre;" font-weight="400" text-anchor="start" x="807.0000" y="1906.0000" font-size="100.0000" ><![CDATA[ ]]></text>
</g>
<g transform="matrix(0.1250 0.0000 0.0000 0.1250 0.0000 0.0000)">
<path d="M 16110.0000,350.0000 C 15889.0000,350.0000 15710.0000,529.0000 15710.0000,750.0000 L 15710.0000,2350.0000 C 15710.0000,2571.0000 15889.0000,2750.0000 16110.0000,2750.0000 L 23043.0000,2750.0000 C 23264.0000,2750.0000 23443.0000,2571.0000 23443.0000,2350.0000 L 23443.0000,750.0000 C 23443.0000,529.0000 23264.0000,350.0000 23043.0000,350.0000 Z "  fill="#FFFFFF" stroke="none" />
</g>
<g transform="matrix(1.0000 0.0000 0.0000 1.0000 0.0000 0.0000)">
</g>
<g transform="matrix(0.1250 0.0000 0.0000 0.1250 0.0000 0.0000)">
<path d="M 16110.0000,350.0000 C 15889.0000,350.0000 15710.0000,529.0000 15710.0000,750.0000 L 15710.0000,2350.0000 C 15710.0000,2571.0000 15889.0000,2750.0000 16110.0000,2750.0000 L 23043.0000,2750.0000 C 23264.0000,2750.0000 23443.0000,2571.0000 23443.0000,2350.0000 L 23443.0000,750.0000 C 23443.0000,529.0000 23264.0000,350.0000 23043.0000,350.0000 Z " stroke="#000000" stroke-width="50.0000"  stroke-linecap="round"  stroke-linejoin="round" fill="none" />
</g>
<g transform="matrix(1.0000 0.0000 0.0000 1.0000 0.0000 0.0000)">
<defs><clipPath id="clip-1714636915"><path d="M 1875.0000,68.0000 L 2999.0000,68.0000 L 2999.0000,307.0000 L 1875.0000,307.0000 L 1875.0000,68.0000 Z Z" /></clipPath></defs>
<text  clip-path="url(#clip-1714636915)" font-family="Times New Roman" fill="#000000" style ="white-space:pre;" font-weight="400" text-anchor="start" x="2367.0000" y="183.0000" font-size="100.0000" ><![CDATA[NR]]></text>
<text  clip-path="url(#clip-1714636915)" font-family="Times New Roman" fill="#000000" style ="white-space:pre;" font-weight="400" text-anchor="start" x="2506.0000" y="183.0000" font-size="100.0000" ><![CDATA[ ]]></text>
<text  clip-path="url(#clip-1714636915)" font-family="Times New Roman" fill="#000000" style ="white-space:pre;" font-weight="400" text-anchor="start" x="2008.0000" y="298.0000" font-size="100.0000" ><![CDATA[RRC_CONNECTED]]></text>
<text  clip-path="url(#clip-1714636915)" font-family="Times New Roman" fill="#000000" style ="white-space:pre;" font-weight="400" text-anchor="start" x="2864.0000" y="298.0000" font-size="100.0000" ><![CDATA[ ]]></text>
</g>
<g transform="matrix(0.1250 0.0000 0.0000 0.1250 0.0000 0.0000)">
<path d="M 16110.0000,13850.0000 C 15889.0000,13850.0000 15710.0000,14029.0000 15710.0000,14250.0000 L 15710.0000,15850.0000 C 15710.0000,16071.0000 15889.0000,16250.0000 16110.0000,16250.0000 L 23043.0000,16250.0000 C 23264.0000,16250.0000 23443.0000,16071.0000 23443.0000,15850.0000 L 23443.0000,14250.0000 C 23443.0000,14029.0000 23264.0000,13850.0000 23043.0000,13850.0000 Z "  fill="#FFFFFF" stroke="none" />
</g>
<g transform="matrix(1.0000 0.0000 0.0000 1.0000 0.0000 0.0000)">
</g>
<g transform="matrix(0.1250 0.0000 0.0000 0.1250 0.0000 0.0000)">
<path d="M 16110.0000,13850.0000 C 15889.0000,13850.0000 15710.0000,14029.0000 15710.0000,14250.0000 L 15710.0000,15850.0000 C 15710.0000,16071.0000 15889.0000,16250.0000 16110.0000,16250.0000 L 23043.0000,16250.0000 C 23264.0000,16250.0000 23443.0000,16071.0000 23443.0000,15850.0000 L 23443.0000,14250.0000 C 23443.0000,14029.0000 23264.0000,13850.0000 23043.0000,13850.0000 Z " stroke="#000000" stroke-width="50.0000"  stroke-linecap="round"  stroke-linejoin="round" fill="none" />
</g>
<g transform="matrix(1.0000 0.0000 0.0000 1.0000 0.0000 0.0000)">
<defs><clipPath id="clip-1957747793"><path d="M 1956.0000,1755.0000 L 2930.0000,1755.0000 L 2930.0000,1995.0000 L 1956.0000,1995.0000 L 1956.0000,1755.0000 Z Z" /></clipPath></defs>
<text  clip-path="url(#clip-1957747793)" font-family="Times New Roman" fill="#000000" style ="white-space:pre;" font-weight="400" text-anchor="start" x="2374.0000" y="1870.0000" font-size="100.0000" ><![CDATA[NR         ]]></text>
<text  clip-path="url(#clip-1957747793)" font-family="Times New Roman" fill="#000000" style ="white-space:pre;" font-weight="400" text-anchor="start" x="2738.0000" y="1870.0000" font-size="100.0000" ><![CDATA[ ]]></text>
<text  clip-path="url(#clip-1957747793)" font-family="Times New Roman" fill="#000000" style ="white-space:pre;" font-weight="400" text-anchor="start" x="2204.0000" y="1985.0000" font-size="100.0000" ><![CDATA[RRC_IDLE]]></text>
<text  clip-path="url(#clip-1957747793)" font-family="Times New Roman" fill="#000000" style ="white-space:pre;" font-weight="400" text-anchor="start" x="2682.0000" y="1985.0000" font-size="100.0000" ><![CDATA[ ]]></text>
</g>
<g transform="matrix(0.2500 0.0000 0.0000 0.2500 0.0000 0.0000)">
<path d="M 15555.0000,6925.0000 C 15445.0000,6925.0000 15355.0000,7015.0000 15355.0000,7125.0000 L 15355.0000,7925.0000 C 15355.0000,8036.0000 15445.0000,8125.0000 15555.0000,8125.0000 L 19022.0000,8125.0000 C 19132.0000,8125.0000 19222.0000,8036.0000 19222.0000,7925.0000 L 19222.0000,7125.0000 C 19222.0000,7015.0000 19132.0000,6925.0000 19022.0000,6925.0000 Z "  fill="#FFFFFF" stroke="none" />
</g>
<g transform="matrix(1.0000 0.0000 0.0000 1.0000 0.0000 0.0000)">
</g>
<g transform="matrix(0.2500 0.0000 0.0000 0.2500 0.0000 0.0000)">
<path d="M 15555.0000,6925.0000 C 15445.0000,6925.0000 15355.0000,7015.0000 15355.0000,7125.0000 L 15355.0000,7925.0000 C 15355.0000,8036.0000 15445.0000,8125.0000 15555.0000,8125.0000 L 19022.0000,8125.0000 C 19132.0000,8125.0000 19222.0000,8036.0000 19222.0000,7925.0000 L 19222.0000,7125.0000 C 19222.0000,7015.0000 19132.0000,6925.0000 19022.0000,6925.0000 Z " stroke="#000000" stroke-width="25.0000"  stroke-linecap="round"  stroke-linejoin="round" fill="none" />
</g>
<g transform="matrix(1.0000 0.0000 0.0000 1.0000 0.0000 0.0000)">
<defs><clipPath id="clip-424238335"><path d="M 3831.0000,1755.0000 L 4805.0000,1755.0000 L 4805.0000,1995.0000 L 3831.0000,1995.0000 L 3831.0000,1755.0000 Z Z" /></clipPath></defs>
<text  clip-path="url(#clip-424238335)" font-family="Times New Roman" fill="#000000" style ="white-space:pre;" font-weight="400" text-anchor="start" x="3968.0000" y="1845.0000" font-size="100.0000" ><![CDATA[GSM_Idle/GPRS ]]></text>
<text  clip-path="url(#clip-424238335)" font-family="Times New Roman" fill="#000000" style ="white-space:pre;" font-weight="400" text-anchor="start" x="4082.0000" y="1963.0000" font-size="100.0000" ><![CDATA[Packet_Idle]]></text>
<text  clip-path="url(#clip-424238335)" font-family="Times New Roman" fill="#000000" style ="white-space:pre;" font-weight="400" text-anchor="start" x="4554.0000" y="1963.0000" font-size="100.0000" ><![CDATA[ ]]></text>
</g>
<g transform="matrix(0.0625 0.0000 0.0000 0.0625 0.0000 0.0000)">
<path d="M 8452.0000,21066.0000 L 8452.0000,26932.0000 C 8452.0000,26969.0000 8423.0000,26999.0000 8386.0000,26999.0000 C 8349.0000,26999.0000 8319.0000,26969.0000 8319.0000,26932.0000 L 8319.0000,21066.0000 C 8319.0000,21029.0000 8349.0000,20999.0000 8386.0000,20999.0000 C 8423.0000,20999.0000 8452.0000,21029.0000 8452.0000,21066.0000 Z M 7986.0000,21199.0000 L 8386.0000,20399.0000 L 8786.0000,21199.0000 Z M 8786.0000,26799.0000 L 8386.0000,27599.0000 L 7986.0000,26799.0000 Z "  fill="#000000" stroke="#000000" stroke-width="16.0000"  stroke-linecap="butt"  stroke-linejoin="bevel" />
</g>
<g transform="matrix(1.0000 0.0000 0.0000 1.0000 0.0000 0.0000)">
</g>
<g transform="matrix(0.2500 0.0000 0.0000 0.2500 0.0000 0.0000)">
<path d="M 15555.0000,1550.0000 C 15445.0000,1550.0000 15355.0000,1640.0000 15355.0000,1750.0000 L 15355.0000,2550.0000 C 15355.0000,2661.0000 15445.0000,2750.0000 15555.0000,2750.0000 L 19022.0000,2750.0000 C 19132.0000,2750.0000 19222.0000,2661.0000 19222.0000,2550.0000 L 19222.0000,1750.0000 C 19222.0000,1640.0000 19132.0000,1550.0000 19022.0000,1550.0000 Z "  fill="#FFFFFF" stroke="none" />
</g>
<g transform="matrix(1.0000 0.0000 0.0000 1.0000 0.0000 0.0000)">
</g>
<g transform="matrix(0.2500 0.0000 0.0000 0.2500 0.0000 0.0000)">
<path d="M 15555.0000,1550.0000 C 15445.0000,1550.0000 15355.0000,1640.0000 15355.0000,1750.0000 L 15355.0000,2550.0000 C 15355.0000,2661.0000 15445.0000,2750.0000 15555.0000,2750.0000 L 19022.0000,2750.0000 C 19132.0000,2750.0000 19222.0000,2661.0000 19222.0000,2550.0000 L 19222.0000,1750.0000 C 19222.0000,1640.0000 19132.0000,1550.0000 19022.0000,1550.0000 Z " stroke="#000000" stroke-width="25.0000"  stroke-linecap="round"  stroke-linejoin="round" fill="none" />
</g>
<g transform="matrix(1.0000 0.0000 0.0000 1.0000 0.0000 0.0000)">
<defs><clipPath id="clip-719885386"><path d="M 3831.0000,405.0000 L 4805.0000,405.0000 L 4805.0000,645.0000 L 3831.0000,645.0000 L 3831.0000,405.0000 Z Z" /></clipPath></defs>
<text  clip-path="url(#clip-719885386)" font-family="Times New Roman" fill="#000000" style ="white-space:pre;" font-weight="400" text-anchor="start" x="4047.0000" y="495.0000" font-size="100.0000" ><![CDATA[GPRS Packet ]]></text>
<text  clip-path="url(#clip-719885386)" font-family="Times New Roman" fill="#000000" style ="white-space:pre;" font-weight="400" text-anchor="start" x="4042.0000" y="613.0000" font-size="100.0000" ><![CDATA[transfer mode]]></text>
<text  clip-path="url(#clip-719885386)" font-family="Times New Roman" fill="#000000" style ="white-space:pre;" font-weight="400" text-anchor="start" x="4595.0000" y="613.0000" font-size="100.0000" ><![CDATA[ ]]></text>
</g>
<g transform="matrix(0.2500 0.0000 0.0000 0.2500 0.0000 0.0000)">
<path d="M 15555.0000,25.0000 C 15445.0000,25.0000 15355.0000,115.0000 15355.0000,225.0000 L 15355.0000,1025.0000 C 15355.0000,1136.0000 15445.0000,1225.0000 15555.0000,1225.0000 L 19022.0000,1225.0000 C 19132.0000,1225.0000 19222.0000,1136.0000 19222.0000,1025.0000 L 19222.0000,225.0000 C 19222.0000,115.0000 19132.0000,25.0000 19022.0000,25.0000 Z "  fill="#FFFFFF" stroke="none" />
</g>
<g transform="matrix(1.0000 0.0000 0.0000 1.0000 0.0000 0.0000)">
</g>
<g transform="matrix(0.2500 0.0000 0.0000 0.2500 0.0000 0.0000)">
<path d="M 15555.0000,25.0000 C 15445.0000,25.0000 15355.0000,115.0000 15355.0000,225.0000 L 15355.0000,1025.0000 C 15355.0000,1136.0000 15445.0000,1225.0000 15555.0000,1225.0000 L 19022.0000,1225.0000 C 19132.0000,1225.0000 19222.0000,1136.0000 19222.0000,1025.0000 L 19222.0000,225.0000 C 19222.0000,115.0000 19132.0000,25.0000 19022.0000,25.0000 Z " stroke="#000000" stroke-width="25.0000"  stroke-linecap="round"  stroke-linejoin="round" fill="none" />
</g>
<g transform="matrix(1.0000 0.0000 0.0000 1.0000 0.0000 0.0000)">
<defs><clipPath id="clip-1649760492"><path d="M 3831.0000,30.0000 L 4805.0000,30.0000 L 4805.0000,270.0000 L 3831.0000,270.0000 L 3831.0000,30.0000 Z Z" /></clipPath></defs>
<text  clip-path="url(#clip-1649760492)" font-family="Times New Roman" fill="#000000" style ="white-space:pre;" font-weight="400" text-anchor="start" x="3971.0000" y="173.0000" font-size="100.0000" ><![CDATA[GSM_Connected]]></text>
<text  clip-path="url(#clip-1649760492)" font-family="Times New Roman" fill="#000000" style ="white-space:pre;" font-weight="400" text-anchor="start" x="4665.0000" y="173.0000" font-size="100.0000" ><![CDATA[ ]]></text>
</g>
<g transform="matrix(0.0625 0.0000 0.0000 0.0625 0.0000 0.0000)">
<path d="M 17452.0000,29932.0000 L 30519.0000,29932.0000 C 30556.0000,29932.0000 30586.0000,29962.0000 30586.0000,29999.0000 C 30586.0000,30036.0000 30556.0000,30066.0000 30519.0000,30066.0000 L 17452.0000,30066.0000 C 17416.0000,30066.0000 17386.0000,30036.0000 17386.0000,29999.0000 C 17386.0000,29962.0000 17416.0000,29932.0000 17452.0000,29932.0000 Z M 17586.0000,30399.0000 L 16786.0000,29999.0000 L 17586.0000,29599.0000 Z M 30386.0000,29599.0000 L 31186.0000,29999.0000 L 30386.0000,30399.0000 Z "  fill="#000000" stroke="#000000" stroke-width="16.0000"  stroke-linecap="butt"  stroke-linejoin="bevel" />
</g>
<g transform="matrix(1.0000 0.0000 0.0000 1.0000 0.0000 0.0000)">
<defs><clipPath id="clip-596516649"><path d="M 1125.0000,1680.0000 L 1874.0000,1680.0000 L 1874.0000,1920.0000 L 1125.0000,1920.0000 L 1125.0000,1680.0000 Z Z" /></clipPath></defs>
<text  clip-path="url(#clip-596516649)" font-family="Times New Roman" fill="#000000" style ="white-space:pre;" font-weight="400" text-anchor="start" x="1265.0000" y="1823.0000" font-size="100.0000" ><![CDATA[Resele]]></text>
<text  clip-path="url(#clip-596516649)" font-family="Times New Roman" fill="#000000" style ="white-space:pre;" font-weight="400" text-anchor="start" x="1531.0000" y="1823.0000" font-size="100.0000" ><![CDATA[ction]]></text>
<text  clip-path="url(#clip-596516649)" font-family="Times New Roman" fill="#000000" style ="white-space:pre;" font-weight="400" text-anchor="start" x="1732.0000" y="1823.0000" font-size="100.0000" ><![CDATA[ ]]></text>
</g>
<g transform="matrix(0.1250 0.0000 0.0000 0.1250 0.0000 0.0000)">
<path d="M 22676.0000,3083.0000 L 22676.0000,13466.0000 C 22676.0000,13485.0000 22662.0000,13500.0000 22643.0000,13500.0000 C 22625.0000,13500.0000 22610.0000,13485.0000 22610.0000,13466.0000 L 22610.0000,3083.0000 C 22610.0000,3065.0000 22625.0000,3050.0000 22643.0000,3050.0000 C 22662.0000,3050.0000 22676.0000,3065.0000 22676.0000,3083.0000 Z M 22443.0000,3150.0000 L 22643.0000,2750.0000 L 22843.0000,3150.0000 Z M 22843.0000,13400.0000 L 22643.0000,13800.0000 L 22443.0000,13400.0000 Z "  fill="#000000" stroke="#000000" stroke-width="8.0000"  stroke-linecap="butt"  stroke-linejoin="bevel" />
</g>
<g transform="matrix(1.0000 0.0000 0.0000 1.0000 0.0000 0.0000)">
</g>
<g transform="matrix(0.1250 0.0000 0.0000 0.1250 0.0000 0.0000)">
<path d="M 23393.0000,14966.0000 L 30260.0000,14966.0000 C 30278.0000,14966.0000 30293.0000,14981.0000 30293.0000,15000.0000 C 30293.0000,15018.0000 30278.0000,15033.0000 30260.0000,15033.0000 L 23393.0000,15033.0000 C 23375.0000,15033.0000 23360.0000,15018.0000 23360.0000,15000.0000 C 23360.0000,14981.0000 23375.0000,14966.0000 23393.0000,14966.0000 Z M 30193.0000,14800.0000 L 30593.0000,15000.0000 L 30193.0000,15200.0000 Z "  fill="#000000" stroke="#000000" stroke-width="8.0000"  stroke-linecap="butt"  stroke-linejoin="bevel" />
</g>
<g transform="matrix(1.0000 0.0000 0.0000 1.0000 0.0000 0.0000)">
<defs><clipPath id="clip-1189641421"><path d="M 2925.0000,1680.0000 L 3824.0000,1680.0000 L 3824.0000,1845.0000 L 2925.0000,1845.0000 L 2925.0000,1680.0000 Z Z" /></clipPath></defs>
<text  clip-path="url(#clip-1189641421)" font-family="Times New Roman" fill="#000000" style ="white-space:pre;" font-weight="400" text-anchor="start" x="3140.0000" y="1820.0000" font-size="100.0000" ><![CDATA[Reselection]]></text>
<text  clip-path="url(#clip-1189641421)" font-family="Times New Roman" fill="#000000" style ="white-space:pre;" font-weight="400" text-anchor="start" x="3607.0000" y="1820.0000" font-size="100.0000" ><![CDATA[ ]]></text>
</g>
<g transform="matrix(0.2500 0.0000 0.0000 0.2500 0.0000 0.0000)">
<path d="M 17113.0000,2867.0000 L 17113.0000,6733.0000 C 17113.0000,6743.0000 17106.0000,6750.0000 17097.0000,6750.0000 C 17088.0000,6750.0000 17080.0000,6743.0000 17080.0000,6733.0000 L 17080.0000,2867.0000 C 17080.0000,2858.0000 17088.0000,2850.0000 17097.0000,2850.0000 C 17106.0000,2850.0000 17113.0000,2858.0000 17113.0000,2867.0000 Z M 16997.0000,2900.0000 L 17097.0000,2700.0000 L 17197.0000,2900.0000 Z M 17197.0000,6700.0000 L 17097.0000,6900.0000 L 16997.0000,6700.0000 Z "  fill="#000000" stroke="#000000" stroke-width="4.0000"  stroke-linecap="butt"  stroke-linejoin="bevel" />
</g>
<g transform="matrix(1.0000 0.0000 0.0000 1.0000 0.0000 0.0000)">
</g>
<g transform="matrix(0.0625 0.0000 0.0000 0.0625 0.0000 0.0000)">
<path d="M 17325.0000,18145.0000 L 30482.0000,27557.0000 C 30512.0000,27578.0000 30519.0000,27620.0000 30498.0000,27650.0000 C 30476.0000,27680.0000 30435.0000,27687.0000 30405.0000,27666.0000 L 17247.0000,18253.0000 C 17217.0000,18232.0000 17210.0000,18190.0000 17232.0000,18160.0000 C 17253.0000,18130.0000 17295.0000,18123.0000 17325.0000,18145.0000 Z M 30568.0000,27208.0000 L 30986.0000,27999.0000 L 30102.0000,27859.0000 Z "  fill="#000000" stroke="#000000" stroke-width="16.0000"  stroke-linecap="butt"  stroke-linejoin="bevel" />
</g>
<g transform="matrix(1.0000 0.0000 0.0000 1.0000 0.0000 0.0000)">
</g>
<g transform="matrix(0.0625 0.0000 0.0000 0.0625 0.0000 0.0000)">
<path d="M -14.0000,21699.0000 L -14.0000,26499.0000 L 17986.0000,26499.0000 L 17986.0000,21699.0000 L -14.0000,21699.0000 Z" stroke-width="1px" stroke="#FFFFFF"  fill="#FFFFFF" />
</g>
<g transform="matrix(1.0000 0.0000 0.0000 1.0000 0.0000 0.0000)">
<defs><clipPath id="clip-1025202362"><path d="M 0.0000,1387.0000 L 1124.0000,1387.0000 L 1124.0000,1626.0000 L 0.0000,1626.0000 L 0.0000,1387.0000 Z Z" /></clipPath></defs>
<text  clip-path="url(#clip-1025202362)" font-family="Times New Roman" fill="#000000" style ="white-space:pre;" font-weight="400" text-anchor="start" x="331.0000" y="1477.0000" font-size="100.0000" ><![CDATA[Connection ]]></text>
<text  clip-path="url(#clip-1025202362)" font-family="Times New Roman" fill="#000000" style ="white-space:pre;" font-weight="400" text-anchor="start" x="134.0000" y="1594.0000" font-size="100.0000" ><![CDATA[establishment/release]]></text>
<text  clip-path="url(#clip-1025202362)" font-family="Times New Roman" fill="#000000" style ="white-space:pre;" font-weight="400" text-anchor="start" x="989.0000" y="1594.0000" font-size="100.0000" ><![CDATA[ ]]></text>
</g>
<g transform="matrix(0.1250 0.0000 0.0000 0.1250 0.0000 0.0000)">
<path d="M 18143.0000,3650.0000 L 18143.0000,6050.0000 L 27143.0000,6050.0000 L 27143.0000,3650.0000 L 18143.0000,3650.0000 Z" stroke-width="1px" stroke="#FFFFFF"  fill="#FFFFFF" />
</g>
<g transform="matrix(1.0000 0.0000 0.0000 1.0000 0.0000 0.0000)">
<defs><clipPath id="clip-1350490027"><path d="M 2268.0000,487.0000 L 3393.0000,487.0000 L 3393.0000,726.0000 L 2268.0000,726.0000 L 2268.0000,487.0000 Z Z" /></clipPath></defs>
<text  clip-path="url(#clip-1350490027)" font-family="Times New Roman" fill="#000000" style ="white-space:pre;" font-weight="400" text-anchor="start" x="2600.0000" y="577.0000" font-size="100.0000" ><![CDATA[Connection ]]></text>
<text  clip-path="url(#clip-1350490027)" font-family="Times New Roman" fill="#000000" style ="white-space:pre;" font-weight="400" text-anchor="start" x="2403.0000" y="694.0000" font-size="100.0000" ><![CDATA[establishment/release]]></text>
<text  clip-path="url(#clip-1350490027)" font-family="Times New Roman" fill="#000000" style ="white-space:pre;" font-weight="400" text-anchor="start" x="3258.0000" y="694.0000" font-size="100.0000" ><![CDATA[ ]]></text>
</g>
<g transform="matrix(0.2500 0.0000 0.0000 0.2500 0.0000 0.0000)">
<path d="M 14997.0000,4825.0000 L 14997.0000,6025.0000 L 19497.0000,6025.0000 L 19497.0000,4825.0000 L 14997.0000,4825.0000 Z" stroke-width="1px" stroke="#FFFFFF"  fill="#FFFFFF" />
</g>
<g transform="matrix(1.0000 0.0000 0.0000 1.0000 0.0000 0.0000)">
<defs><clipPath id="clip-783368690"><path d="M 3750.0000,1237.0000 L 4874.0000,1237.0000 L 4874.0000,1476.0000 L 3750.0000,1476.0000 L 3750.0000,1237.0000 Z Z" /></clipPath></defs>
<text  clip-path="url(#clip-783368690)" font-family="Times New Roman" fill="#000000" style ="white-space:pre;" font-weight="400" text-anchor="start" x="4081.0000" y="1327.0000" font-size="100.0000" ><![CDATA[Connection ]]></text>
<text  clip-path="url(#clip-783368690)" font-family="Times New Roman" fill="#000000" style ="white-space:pre;" font-weight="400" text-anchor="start" x="3884.0000" y="1444.0000" font-size="100.0000" ><![CDATA[establishment/release]]></text>
<text  clip-path="url(#clip-783368690)" font-family="Times New Roman" fill="#000000" style ="white-space:pre;" font-weight="400" text-anchor="start" x="4739.0000" y="1444.0000" font-size="100.0000" ><![CDATA[ ]]></text>
</g>
<g transform="matrix(0.1250 0.0000 0.0000 0.1250 0.0000 0.0000)">
<path d="M 30619.0000,4821.0000 L 23627.0000,13560.0000 C 23616.0000,13575.0000 23595.0000,13577.0000 23581.0000,13566.0000 C 23566.0000,13554.0000 23564.0000,13533.0000 23575.0000,13519.0000 L 30567.0000,4779.0000 C 30579.0000,4765.0000 30600.0000,4762.0000 30614.0000,4774.0000 C 30628.0000,4785.0000 30631.0000,4806.0000 30619.0000,4821.0000 Z M 23799.0000,13612.0000 L 23393.0000,13800.0000 L 23487.0000,13363.0000 Z "  fill="#000000" stroke="#000000" stroke-width="8.0000"  stroke-linecap="butt"  stroke-linejoin="bevel" />
</g>
<g transform="matrix(1.0000 0.0000 0.0000 1.0000 0.0000 0.0000)">
<defs><clipPath id="clip-1102520059"><path d="M 3312.0000,855.0000 L 4062.0000,855.0000 L 4062.0000,1170.0000 L 3312.0000,1170.0000 L 3312.0000,855.0000 Z Z" /></clipPath></defs>
<text  clip-path="url(#clip-1102520059)" font-family="Times New Roman" fill="#000000" style ="white-space:pre;" font-weight="400" text-anchor="start" x="3771.0000" y="945.0000" font-size="100.0000" ><![CDATA[CCO, ]]></text>
<text  clip-path="url(#clip-1102520059)" font-family="Times New Roman" fill="#000000" style ="white-space:pre;" font-weight="400" text-anchor="start" x="3535.0000" y="1063.0000" font-size="100.0000" ><![CDATA[Res]]></text>
<text  clip-path="url(#clip-1102520059)" font-family="Times New Roman" fill="#000000" style ="white-space:pre;" font-weight="400" text-anchor="start" x="3685.0000" y="1063.0000" font-size="100.0000" ><![CDATA[election]]></text>
<text  clip-path="url(#clip-1102520059)" font-family="Times New Roman" fill="#000000" style ="white-space:pre;" font-weight="400" text-anchor="start" x="4002.0000" y="1063.0000" font-size="100.0000" ><![CDATA[ ]]></text>
</g>
<g transform="matrix(0.0625 0.0000 0.0000 0.0625 0.0000 0.0000)">
<path d="M 1986.0000,8399.0000 C 1544.0000,8399.0000 1186.0000,8757.0000 1186.0000,9199.0000 L 1186.0000,12399.0000 C 1186.0000,12841.0000 1544.0000,13199.0000 1986.0000,13199.0000 L 15986.0000,13199.0000 C 16428.0000,13199.0000 16786.0000,12841.0000 16786.0000,12399.0000 L 16786.0000,9199.0000 C 16786.0000,8757.0000 16428.0000,8399.0000 15986.0000,8399.0000 Z "  fill="#FFFFFF" stroke="none" />
</g>
<g transform="matrix(1.0000 0.0000 0.0000 1.0000 0.0000 0.0000)">
</g>
<g transform="matrix(0.0625 0.0000 0.0000 0.0625 0.0000 0.0000)">
<path d="M 1986.0000,8399.0000 C 1544.0000,8399.0000 1186.0000,8757.0000 1186.0000,9199.0000 L 1186.0000,12399.0000 C 1186.0000,12841.0000 1544.0000,13199.0000 1986.0000,13199.0000 L 15986.0000,13199.0000 C 16428.0000,13199.0000 16786.0000,12841.0000 16786.0000,12399.0000 L 16786.0000,9199.0000 C 16786.0000,8757.0000 16428.0000,8399.0000 15986.0000,8399.0000 Z " stroke="#000000" stroke-width="100.0000"  stroke-linecap="round"  stroke-linejoin="round" fill="none" />
</g>
<g transform="matrix(1.0000 0.0000 0.0000 1.0000 0.0000 0.0000)">
<defs><clipPath id="clip-2044897763"><path d="M 75.0000,555.0000 L 1049.0000,555.0000 L 1049.0000,795.0000 L 75.0000,795.0000 L 75.0000,555.0000 Z Z" /></clipPath></defs>
<text  clip-path="url(#clip-2044897763)" font-family="Times New Roman" fill="#000000" style ="white-space:pre;" font-weight="400" text-anchor="start" x="278.0000" y="698.0000" font-size="100.0000" ><![CDATA[CELL_FACH]]></text>
<text  clip-path="url(#clip-2044897763)" font-family="Times New Roman" fill="#000000" style ="white-space:pre;" font-weight="400" text-anchor="start" x="845.0000" y="698.0000" font-size="100.0000" ><![CDATA[ ]]></text>
<defs><clipPath id="clip-1967513926"><path d="M 2925.0000,1980.0000 L 3824.0000,1980.0000 L 3824.0000,2145.0000 L 2925.0000,2145.0000 L 2925.0000,1980.0000 Z Z" /></clipPath></defs>
<text  clip-path="url(#clip-1967513926)" font-family="Times New Roman" fill="#000000" style ="white-space:pre;" font-weight="400" text-anchor="start" x="3013.0000" y="2120.0000" font-size="100.0000" ><![CDATA[CCO, Reselection]]></text>
<text  clip-path="url(#clip-1967513926)" font-family="Times New Roman" fill="#000000" style ="white-space:pre;" font-weight="400" text-anchor="start" x="3735.0000" y="2120.0000" font-size="100.0000" ><![CDATA[ ]]></text>
</g>
<g transform="matrix(0.1250 0.0000 0.0000 0.1250 0.0000 0.0000)">
<path d="M 23726.0000,15566.0000 L 30593.0000,15566.0000 C 30612.0000,15566.0000 30626.0000,15581.0000 30626.0000,15600.0000 C 30626.0000,15618.0000 30612.0000,15633.0000 30593.0000,15633.0000 L 23726.0000,15633.0000 C 23708.0000,15633.0000 23693.0000,15618.0000 23693.0000,15600.0000 C 23693.0000,15581.0000 23708.0000,15566.0000 23726.0000,15566.0000 Z M 23793.0000,15800.0000 L 23393.0000,15600.0000 L 23793.0000,15400.0000 Z "  fill="#000000" stroke="#000000" stroke-width="8.0000"  stroke-linecap="butt"  stroke-linejoin="bevel" />
</g>
<g transform="matrix(1.0000 0.0000 0.0000 1.0000 0.0000 0.0000)">
</g>
<g transform="matrix(0.0625 0.0000 0.0000 0.0625 0.0000 0.0000)">
<path d="M 17536.0000,11055.0000 L 31396.0000,26854.0000 C 31421.0000,26882.0000 31418.0000,26924.0000 31390.0000,26948.0000 C 31362.0000,26972.0000 31320.0000,26970.0000 31296.0000,26942.0000 L 17436.0000,11143.0000 C 17411.0000,11115.0000 17414.0000,11073.0000 17442.0000,11049.0000 C 17470.0000,11025.0000 17512.0000,11027.0000 17536.0000,11055.0000 Z M 31559.0000,26534.0000 L 31786.0000,27399.0000 L 30958.0000,27062.0000 Z "  fill="#000000" stroke="#000000" stroke-width="16.0000"  stroke-linecap="butt"  stroke-linejoin="bevel" />
</g>
<g transform="matrix(1.0000 0.0000 0.0000 1.0000 0.0000 0.0000)">
<defs><clipPath id="clip-1365180540"><path d="M 1006.0000,549.0000 L 1755.0000,549.0000 L 1755.0000,789.0000 L 1006.0000,789.0000 L 1006.0000,549.0000 Z Z" /></clipPath></defs>
<text  clip-path="url(#clip-1365180540)" font-family="Times New Roman" fill="#000000" style ="white-space:pre;" font-weight="400" text-anchor="start" x="1147.0000" y="692.0000" font-size="100.0000" ><![CDATA[Reselection]]></text>
<text  clip-path="url(#clip-1365180540)" font-family="Times New Roman" fill="#000000" style ="white-space:pre;" font-weight="400" text-anchor="start" x="1614.0000" y="692.0000" font-size="100.0000" ><![CDATA[ ]]></text>
</g>
<g transform="matrix(0.1250 0.0000 0.0000 0.1250 0.0000 0.0000)">
<path d="M 16193.0000,8450.0000 C 15972.0000,8450.0000 15793.0000,8629.0000 15793.0000,8850.0000 L 15793.0000,10450.0000 C 15793.0000,10671.0000 15972.0000,10850.0000 16193.0000,10850.0000 L 21893.0000,10850.0000 C 22114.0000,10850.0000 22293.0000,10671.0000 22293.0000,10450.0000 L 22293.0000,8850.0000 C 22293.0000,8629.0000 22114.0000,8450.0000 21893.0000,8450.0000 Z "  fill="#FFFFFF" stroke="none" />
</g>
<g transform="matrix(1.0000 0.0000 0.0000 1.0000 0.0000 0.0000)">
</g>
<g transform="matrix(0.1250 0.0000 0.0000 0.1250 0.0000 0.0000)">
<path d="M 16193.0000,8450.0000 C 15972.0000,8450.0000 15793.0000,8629.0000 15793.0000,8850.0000 L 15793.0000,10450.0000 C 15793.0000,10671.0000 15972.0000,10850.0000 16193.0000,10850.0000 L 21893.0000,10850.0000 C 22114.0000,10850.0000 22293.0000,10671.0000 22293.0000,10450.0000 L 22293.0000,8850.0000 C 22293.0000,8629.0000 22114.0000,8450.0000 21893.0000,8450.0000 Z " stroke="#000000" stroke-width="50.0000"  stroke-linecap="round"  stroke-linejoin="round" fill="none" />
</g>
<g transform="matrix(1.0000 0.0000 0.0000 1.0000 0.0000 0.0000)">
<defs><clipPath id="clip-1540383426"><path d="M 1943.0000,1080.0000 L 2787.0000,1080.0000 L 2787.0000,1320.0000 L 1943.0000,1320.0000 L 1943.0000,1080.0000 Z Z" /></clipPath></defs>
<text  clip-path="url(#clip-1540383426)" font-family="Times New Roman" fill="#000000" style ="white-space:pre;" font-weight="400" text-anchor="start" x="2295.0000" y="1195.0000" font-size="100.0000" ><![CDATA[NR]]></text>
<text  clip-path="url(#clip-1540383426)" font-family="Times New Roman" fill="#000000" style ="white-space:pre;" font-weight="400" text-anchor="start" x="2434.0000" y="1195.0000" font-size="100.0000" ><![CDATA[ ]]></text>
<text  clip-path="url(#clip-1540383426)" font-family="Times New Roman" fill="#000000" style ="white-space:pre;" font-weight="400" text-anchor="start" x="2004.0000" y="1310.0000" font-size="100.0000" ><![CDATA[RRC_]]></text>
<text  clip-path="url(#clip-1540383426)" font-family="Times New Roman" fill="#000000" style ="white-space:pre;" font-weight="400" text-anchor="start" x="2255.0000" y="1310.0000" font-size="100.0000" ><![CDATA[INACTIVE]]></text>
<text  clip-path="url(#clip-1540383426)" font-family="Times New Roman" fill="#000000" style ="white-space:pre;" font-weight="400" text-anchor="start" x="2726.0000" y="1310.0000" font-size="100.0000" ><![CDATA[ ]]></text>
</g>
<g transform="matrix(0.1250 0.0000 0.0000 0.1250 0.0000 0.0000)">
<path d="M 17576.0000,3083.0000 L 17576.0000,8116.0000 C 17576.0000,8135.0000 17562.0000,8150.0000 17543.0000,8150.0000 C 17525.0000,8150.0000 17510.0000,8135.0000 17510.0000,8116.0000 L 17510.0000,3083.0000 C 17510.0000,3065.0000 17525.0000,3050.0000 17543.0000,3050.0000 C 17562.0000,3050.0000 17576.0000,3065.0000 17576.0000,3083.0000 Z M 17343.0000,3150.0000 L 17543.0000,2750.0000 L 17743.0000,3150.0000 Z M 17743.0000,8050.0000 L 17543.0000,8450.0000 L 17343.0000,8050.0000 Z "  fill="#000000" stroke="#000000" stroke-width="8.0000"  stroke-linecap="butt"  stroke-linejoin="bevel" />
</g>
<g transform="matrix(1.0000 0.0000 0.0000 1.0000 0.0000 0.0000)">
</g>
<g transform="matrix(0.1250 0.0000 0.0000 0.1250 0.0000 0.0000)">
<path d="M 13043.0000,5600.0000 L 13043.0000,8000.0000 L 22043.0000,8000.0000 L 22043.0000,5600.0000 L 13043.0000,5600.0000 Z" stroke-width="1px" stroke="#FFFFFF"  fill="#FFFFFF" />
</g>
<g transform="matrix(1.0000 0.0000 0.0000 1.0000 0.0000 0.0000)">
<defs><clipPath id="clip-304089172"><path d="M 1631.0000,730.0000 L 2755.0000,730.0000 L 2755.0000,970.0000 L 1631.0000,970.0000 L 1631.0000,730.0000 Z Z" /></clipPath></defs>
<text  clip-path="url(#clip-304089172)" font-family="Times New Roman" fill="#FF0000" style ="white-space:pre;" font-weight="400" text-anchor="start" x="1866.0000" y="820.0000" font-size="100.0000" ><![CDATA[FFS]]></text>
<text  clip-path="url(#clip-304089172)" font-family="Times New Roman" fill="#000000" style ="white-space:pre;" font-weight="400" text-anchor="start" x="2032.0000" y="820.0000" font-size="100.0000" ><![CDATA[/Connection ]]></text>
<text  clip-path="url(#clip-304089172)" font-family="Times New Roman" fill="#000000" style ="white-space:pre;" font-weight="400" text-anchor="start" x="1957.0000" y="938.0000" font-size="100.0000" ><![CDATA[inactivation]]></text>
<text  clip-path="url(#clip-304089172)" font-family="Times New Roman" fill="#FF0000" style ="white-space:pre;" font-weight="400" text-anchor="start" x="2429.0000" y="938.0000" font-size="100.0000" ><![CDATA[ ]]></text>
</g>
<g transform="matrix(0.1250 0.0000 0.0000 0.1250 0.0000 0.0000)">
<path d="M 17576.0000,10850.0000 L 17576.0000,13516.0000 C 17576.0000,13535.0000 17562.0000,13550.0000 17543.0000,13550.0000 C 17525.0000,13550.0000 17510.0000,13535.0000 17510.0000,13516.0000 L 17510.0000,10850.0000 C 17510.0000,10831.0000 17525.0000,10816.0000 17543.0000,10816.0000 C 17562.0000,10816.0000 17576.0000,10831.0000 17576.0000,10850.0000 Z M 17743.0000,13450.0000 L 17543.0000,13850.0000 L 17343.0000,13450.0000 Z "  fill="#000000" stroke="#000000" stroke-width="8.0000"  stroke-linecap="butt"  stroke-linejoin="bevel" />
</g>
<g transform="matrix(1.0000 0.0000 0.0000 1.0000 0.0000 0.0000)">
</g>
<g transform="matrix(0.1250 0.0000 0.0000 0.1250 0.0000 0.0000)">
<path d="M 15443.0000,11400.0000 L 15443.0000,13050.0000 L 19593.0000,13050.0000 L 19593.0000,11400.0000 L 15443.0000,11400.0000 Z" stroke-width="1px" stroke="#FFFFFF"  fill="#FFFFFF" />
</g>
<g transform="matrix(1.0000 0.0000 0.0000 1.0000 0.0000 0.0000)">
<defs><clipPath id="clip-1303455736"><path d="M 1931.0000,1455.0000 L 2449.0000,1455.0000 L 2449.0000,1601.0000 L 1931.0000,1601.0000 L 1931.0000,1455.0000 Z Z" /></clipPath></defs>
<text  clip-path="url(#clip-1303455736)" font-family="Times New Roman" fill="#FF0000" style ="white-space:pre;" font-weight="400" text-anchor="start" x="2107.0000" y="1548.0000" font-size="100.0000" ><![CDATA[FFS]]></text>
<text  clip-path="url(#clip-1303455736)" font-family="Times New Roman" fill="#FF0000" style ="white-space:pre;" font-weight="400" text-anchor="start" x="2274.0000" y="1548.0000" font-size="100.0000" ><![CDATA[ ]]></text>
</g>
<g transform="matrix(0.1250 0.0000 0.0000 0.1250 0.0000 0.0000)">
<path d="M 22308.0000,9620.0000 L 30308.0000,13524.0000 C 30325.0000,13532.0000 30332.0000,13552.0000 30324.0000,13568.0000 C 30315.0000,13585.0000 30295.0000,13592.0000 30279.0000,13584.0000 L 22279.0000,9680.0000 C 22262.0000,9672.0000 22255.0000,9652.0000 22263.0000,9635.0000 C 22271.0000,9619.0000 22291.0000,9612.0000 22308.0000,9620.0000 Z M 30321.0000,13345.0000 L 30593.0000,13700.0000 L 30146.0000,13704.0000 Z "  fill="#000000" stroke="#000000" stroke-width="8.0000"  stroke-linecap="butt"  stroke-linejoin="bevel" />
</g>
<g transform="matrix(1.0000 0.0000 0.0000 1.0000 0.0000 0.0000)">
</g>
<g transform="matrix(0.0625 0.0000 0.0000 0.0625 0.0000 0.0000)">
<path d="M 31453.0000,19356.0000 L 17492.0000,27714.0000 C 17460.0000,27733.0000 17420.0000,27723.0000 17401.0000,27691.0000 C 17382.0000,27659.0000 17392.0000,27618.0000 17424.0000,27600.0000 L 31385.0000,19242.0000 C 31416.0000,19223.0000 31457.0000,19233.0000 31476.0000,19265.0000 C 31495.0000,19296.0000 31485.0000,19337.0000 31453.0000,19356.0000 Z M 17778.0000,27931.0000 L 16886.0000,27999.0000 L 17367.0000,27245.0000 Z "  fill="#000000" stroke="#000000" stroke-width="16.0000"  stroke-linecap="butt"  stroke-linejoin="bevel" />
</g>
<g transform="matrix(1.0000 0.0000 0.0000 1.0000 0.0000 0.0000)">
<defs><clipPath id="clip-35005211"><path d="M 3150.0000,1293.0000 L 3899.0000,1293.0000 L 3899.0000,1532.0000 L 3150.0000,1532.0000 L 3150.0000,1293.0000 Z Z" /></clipPath></defs>
<text  clip-path="url(#clip-35005211)" font-family="Times New Roman" fill="#000000" style ="white-space:pre;" font-weight="400" text-anchor="start" x="3290.0000" y="1437.0000" font-size="100.0000" ><![CDATA[Reselection]]></text>
<text  clip-path="url(#clip-35005211)" font-family="Times New Roman" fill="#000000" style ="white-space:pre;" font-weight="400" text-anchor="start" x="3757.0000" y="1437.0000" font-size="100.0000" ><![CDATA[ ]]></text>
<defs><clipPath id="clip-521595368"><path d="M 912.0000,1193.0000 L 1662.0000,1193.0000 L 1662.0000,1432.0000 L 912.0000,1432.0000 L 912.0000,1193.0000 Z Z" /></clipPath></defs>
<text  clip-path="url(#clip-521595368)" font-family="Times New Roman" fill="#000000" style ="white-space:pre;" font-weight="400" text-anchor="start" x="1053.0000" y="1337.0000" font-size="100.0000" ><![CDATA[Reselection]]></text>
<text  clip-path="url(#clip-521595368)" font-family="Times New Roman" fill="#000000" style ="white-space:pre;" font-weight="400" text-anchor="start" x="1520.0000" y="1337.0000" font-size="100.0000" ><![CDATA[ ]]></text>
<defs><clipPath id="clip-294702567"><path d="M 1343.0000,1005.0000 L 2093.0000,1005.0000 L 2093.0000,1245.0000 L 1343.0000,1245.0000 L 1343.0000,1005.0000 Z Z" /></clipPath></defs>
<text  clip-path="url(#clip-294702567)" font-family="Times New Roman" fill="#000000" style ="white-space:pre;" font-weight="400" text-anchor="start" x="1484.0000" y="1148.0000" font-size="100.0000" ><![CDATA[Reselection]]></text>
<text  clip-path="url(#clip-294702567)" font-family="Times New Roman" fill="#000000" style ="white-space:pre;" font-weight="400" text-anchor="start" x="1951.0000" y="1148.0000" font-size="100.0000" ><![CDATA[ ]]></text>
</g>
</g>
</svg>
