<?xml version="1.0"  encoding="UTF-8" standalone="no"?>
<svg version="1.1" xmlns="http://www.w3.org/2000/svg" xmlns:xlink="http://www.w3.org/1999/xlink" width="269.0000" height="214.0000">
<g transform="translate(-0.0000, -9.0000)">
<g transform="matrix(0.0625 0.0000 0.0000 0.0625 0.0000 0.0000)">
<path d="M 498.0000,493.0000 L 498.0000,3532.0000 " stroke="#000000" stroke-width="15.0000"  stroke-linecap="round"  stroke-linejoin="round" fill="none" />
</g>
<g transform="matrix(1.0000 0.0000 0.0000 1.0000 0.0000 0.0000)">
</g>
<g transform="matrix(0.0625 0.0000 0.0000 0.0625 0.0000 0.0000)">
<path d="M 3824.0000,493.0000 L 3824.0000,3532.0000 " stroke="#000000" stroke-width="15.0000"  stroke-linecap="round"  stroke-linejoin="round" fill="none" />
</g>
<g transform="matrix(1.0000 0.0000 0.0000 1.0000 0.0000 0.0000)">
<text font-family="Arial" fill="#000000" style ="white-space:pre;" font-weight="400" text-anchor="start" x="24.0000" y="20.0000" font-size="11.0000" ><![CDATA[UE]]></text>
<text font-family="Arial" fill="#000000" style ="white-space:pre;" font-weight="400" text-anchor="start" x="229.0000" y="20.0000" font-size="11.0000" ><![CDATA[g]]></text>
<text font-family="Arial" fill="#000000" style ="white-space:pre;" font-weight="400" text-anchor="start" x="235.0000" y="20.0000" font-size="11.0000" ><![CDATA[NB]]></text>
</g>
<g transform="matrix(0.0625 0.0000 0.0000 0.0625 0.0000 0.0000)">
<path d="M 603.0000,1098.0000 L 3824.0000,1098.0000 " stroke="#000000" stroke-width="15.0000"  stroke-linecap="round"  stroke-linejoin="round" fill="none" />
</g>
<g transform="matrix(1.0000 0.0000 0.0000 1.0000 0.0000 0.0000)">
</g>
<g transform="matrix(0.0625 0.0000 0.0000 0.0625 0.0000 0.0000)">
<path d="M 498.0000,1098.0000 L 636.0000,1029.0000 C 615.0000,1072.0000 615.0000,1124.0000 636.0000,1167.0000 L 498.0000,1098.0000 Z "  fill="#000000" stroke="none" />
</g>
<g transform="matrix(1.0000 0.0000 0.0000 1.0000 0.0000 0.0000)">
</g>
<g transform="matrix(0.0625 0.0000 0.0000 0.0625 0.0000 0.0000)">
<path d="M 1194.0000,996.0000 L 1194.0000,1200.0000 L 3129.0000,1200.0000 L 3129.0000,996.0000 L 1194.0000,996.0000 Z" stroke-width="1px" stroke="#FFFFFF"  fill="#FFFFFF" />
</g>
<g transform="matrix(1.0000 0.0000 0.0000 1.0000 0.0000 0.0000)">
<text font-family="Arial" fill="#000000" style ="white-space:pre;" font-weight="400" text-anchor="start" x="75.0000" y="72.0000" font-size="11.0000" ><![CDATA[RA Preamble]]></text>
<text font-family="Arial" fill="#000000" style ="white-space:pre;" font-weight="400" text-anchor="start" x="141.0000" y="72.0000" font-size="11.0000" ><![CDATA[assignment]]></text>
</g>
<g transform="matrix(0.0625 0.0000 0.0000 0.0625 0.0000 0.0000)">
<path d="M 30.0000,1106.0000 C 30.0000,1018.0000 101.0000,947.0000 188.0000,947.0000 C 276.0000,947.0000 347.0000,1018.0000 347.0000,1106.0000 C 347.0000,1106.0000 347.0000,1106.0000 347.0000,1106.0000 C 347.0000,1193.0000 276.0000,1264.0000 188.0000,1264.0000 C 101.0000,1264.0000 30.0000,1193.0000 30.0000,1106.0000 "  fill="#CCFFCC" stroke="none" />
</g>
<g transform="matrix(1.0000 0.0000 0.0000 1.0000 0.0000 0.0000)">
</g>
<g transform="matrix(0.0625 0.0000 0.0000 0.0625 0.0000 0.0000)">
<path d="M 30.0000,1106.0000 M 30.0000,1106.0000 C 30.0000,1018.0000 101.0000,947.0000 188.0000,947.0000 C 276.0000,947.0000 347.0000,1018.0000 347.0000,1106.0000 C 347.0000,1106.0000 347.0000,1106.0000 347.0000,1106.0000 C 347.0000,1193.0000 276.0000,1264.0000 188.0000,1264.0000 C 101.0000,1264.0000 30.0000,1193.0000 30.0000,1106.0000 " stroke="#000000" stroke-width="5.0000"  stroke-linecap="round"  stroke-linejoin="round"  fill="none" />
</g>
<g transform="matrix(1.0000 0.0000 0.0000 1.0000 0.0000 0.0000)">
<text font-family="Arial" fill="#000000" style ="white-space:pre;" font-weight="400" text-anchor="start" x="9.0000" y="72.0000" font-size="11.0000" ><![CDATA[0]]></text>
</g>
<g transform="matrix(0.0625 0.0000 0.0000 0.0625 0.0000 0.0000)">
<path d="M 483.0000,2005.0000 L 3704.0000,2005.0000 " stroke="#000000" stroke-width="15.0000"  stroke-linecap="round"  stroke-linejoin="round" fill="none" />
</g>
<g transform="matrix(1.0000 0.0000 0.0000 1.0000 0.0000 0.0000)">
</g>
<g transform="matrix(0.0625 0.0000 0.0000 0.0625 0.0000 0.0000)">
<path d="M 3809.0000,2005.0000 L 3671.0000,2074.0000 C 3693.0000,2031.0000 3693.0000,1980.0000 3671.0000,1936.0000 L 3809.0000,2005.0000 Z "  fill="#000000" stroke="none" />
</g>
<g transform="matrix(1.0000 0.0000 0.0000 1.0000 0.0000 0.0000)">
</g>
<g transform="matrix(0.0625 0.0000 0.0000 0.0625 0.0000 0.0000)">
<path d="M 1136.0000,1903.0000 L 1136.0000,2108.0000 L 3156.0000,2108.0000 L 3156.0000,1903.0000 L 1136.0000,1903.0000 Z" stroke-width="1px" stroke="#FFFFFF"  fill="#FFFFFF" />
</g>
<g transform="matrix(1.0000 0.0000 0.0000 1.0000 0.0000 0.0000)">
<text font-family="Arial" fill="#000000" style ="white-space:pre;" font-weight="400" text-anchor="start" x="71.0000" y="128.0000" font-size="11.0000" ><![CDATA[Random Access Preamble]]></text>
</g>
<g transform="matrix(0.0625 0.0000 0.0000 0.0625 0.0000 0.0000)">
<path d="M 3960.0000,1998.0000 C 3960.0000,1910.0000 4031.0000,1839.0000 4119.0000,1839.0000 C 4207.0000,1839.0000 4278.0000,1910.0000 4278.0000,1998.0000 C 4278.0000,1998.0000 4278.0000,1998.0000 4278.0000,1998.0000 C 4278.0000,2085.0000 4207.0000,2156.0000 4119.0000,2156.0000 C 4031.0000,2156.0000 3960.0000,2085.0000 3960.0000,1998.0000 "  fill="#CCFFCC" stroke="none" />
</g>
<g transform="matrix(1.0000 0.0000 0.0000 1.0000 0.0000 0.0000)">
</g>
<g transform="matrix(0.0625 0.0000 0.0000 0.0625 0.0000 0.0000)">
<path d="M 3960.0000,1998.0000 M 3960.0000,1998.0000 C 3960.0000,1910.0000 4031.0000,1839.0000 4119.0000,1839.0000 C 4207.0000,1839.0000 4278.0000,1910.0000 4278.0000,1998.0000 C 4278.0000,1998.0000 4278.0000,1998.0000 4278.0000,1998.0000 C 4278.0000,2085.0000 4207.0000,2156.0000 4119.0000,2156.0000 C 4031.0000,2156.0000 3960.0000,2085.0000 3960.0000,1998.0000 " stroke="#000000" stroke-width="5.0000"  stroke-linecap="round"  stroke-linejoin="round"  fill="none" />
</g>
<g transform="matrix(1.0000 0.0000 0.0000 1.0000 0.0000 0.0000)">
<text font-family="Arial" fill="#000000" style ="white-space:pre;" font-weight="400" text-anchor="start" x="254.0000" y="128.0000" font-size="11.0000" ><![CDATA[1]]></text>
</g>
<g transform="matrix(0.0625 0.0000 0.0000 0.0625 0.0000 0.0000)">
<path d="M 603.0000,2905.0000 L 3824.0000,2905.0000 " stroke="#000000" stroke-width="15.0000"  stroke-linecap="round"  stroke-linejoin="round" fill="none" />
</g>
<g transform="matrix(1.0000 0.0000 0.0000 1.0000 0.0000 0.0000)">
</g>
<g transform="matrix(0.0625 0.0000 0.0000 0.0625 0.0000 0.0000)">
<path d="M 498.0000,2905.0000 L 636.0000,2836.0000 C 615.0000,2879.0000 615.0000,2930.0000 636.0000,2974.0000 L 636.0000,2974.0000 L 498.0000,2905.0000 Z "  fill="#000000" stroke="none" />
</g>
<g transform="matrix(1.0000 0.0000 0.0000 1.0000 0.0000 0.0000)">
</g>
<g transform="matrix(0.0625 0.0000 0.0000 0.0625 0.0000 0.0000)">
<path d="M 1132.0000,2802.0000 L 1132.0000,3007.0000 L 3190.0000,3007.0000 L 3190.0000,2802.0000 L 1132.0000,2802.0000 Z" stroke-width="1px" stroke="#FFFFFF"  fill="#FFFFFF" />
</g>
<g transform="matrix(1.0000 0.0000 0.0000 1.0000 0.0000 0.0000)">
<text font-family="Arial" fill="#000000" style ="white-space:pre;" font-weight="400" text-anchor="start" x="71.0000" y="185.0000" font-size="11.0000" ><![CDATA[Random Access Response]]></text>
</g>
<g transform="matrix(0.0625 0.0000 0.0000 0.0625 0.0000 0.0000)">
<path d="M 30.0000,2912.0000 C 30.0000,2825.0000 101.0000,2754.0000 188.0000,2754.0000 C 276.0000,2754.0000 347.0000,2825.0000 347.0000,2912.0000 C 347.0000,2912.0000 347.0000,2912.0000 347.0000,2912.0000 C 347.0000,3000.0000 276.0000,3071.0000 188.0000,3071.0000 C 101.0000,3071.0000 30.0000,3000.0000 30.0000,2912.0000 "  fill="#CCFFCC" stroke="none" />
</g>
<g transform="matrix(1.0000 0.0000 0.0000 1.0000 0.0000 0.0000)">
</g>
<g transform="matrix(0.0625 0.0000 0.0000 0.0625 0.0000 0.0000)">
<path d="M 30.0000,2912.0000 M 30.0000,2912.0000 C 30.0000,2825.0000 101.0000,2754.0000 188.0000,2754.0000 C 276.0000,2754.0000 347.0000,2825.0000 347.0000,2912.0000 C 347.0000,2912.0000 347.0000,2912.0000 347.0000,2912.0000 C 347.0000,3000.0000 276.0000,3071.0000 188.0000,3071.0000 C 101.0000,3071.0000 30.0000,3000.0000 30.0000,2912.0000 " stroke="#000000" stroke-width="5.0000"  stroke-linecap="round"  stroke-linejoin="round"  fill="none" />
</g>
<g transform="matrix(1.0000 0.0000 0.0000 1.0000 0.0000 0.0000)">
<text font-family="Arial" fill="#000000" style ="white-space:pre;" font-weight="400" text-anchor="start" x="9.0000" y="185.0000" font-size="11.0000" ><![CDATA[2]]></text>
</g>
</g>
</svg>
