<?xml version="1.0"  encoding="UTF-8" standalone="no"?>
<svg version="1.1" xmlns="http://www.w3.org/2000/svg" xmlns:xlink="http://www.w3.org/1999/xlink" width="776.0000" height="582.0000">
<g transform="translate(-0.0000, -0.0000)">
<path d="M 0.0000,0.0000 L 0.0000,0.0000 L 0.0000,583.8335 L 777.8335,583.8335 L 777.8335,0.0000 " fill="none" stroke="none" />
<defs><clipPath id="clip-1804289383"><path d="M 0.0000,0.0000 L 0.0000,0.0000 L 0.0000,583.8335 L 777.8335,583.8335 L 777.8335,0.0000 Z" /></clipPath></defs>
<path d="M 101.3705,519.0325 L 101.3705,519.0325 L 704.1758,519.0325 L 704.1758,43.3395 L 101.3705,43.3395 L 101.3705,519.0325 Z "  fill="#FFFFFF" stroke="none" />
<path d="M 101.3705,519.0325 L 101.3705,519.0325 L 704.1758,519.0325 " stroke="#262626" stroke-width="1px"  stroke-linecap="square"  stroke-linejoin="round" fill="none" />
<path d="M 101.3705,519.0325 L 101.3705,519.0325 L 101.3705,512.9900 " stroke="#262626" stroke-width="1px"  stroke-linecap="square"  stroke-linejoin="round" fill="none" />
<path d="M 161.5885,519.0325 L 161.5885,519.0325 L 161.5885,512.9900 " stroke="#262626" stroke-width="1px"  stroke-linecap="square"  stroke-linejoin="round" fill="none" />
<path d="M 221.9107,519.0325 L 221.9107,519.0325 L 221.9107,512.9900 " stroke="#262626" stroke-width="1px"  stroke-linecap="square"  stroke-linejoin="round" fill="none" />
<path d="M 282.2329,519.0325 L 282.2329,519.0325 L 282.2329,512.9900 " stroke="#262626" stroke-width="1px"  stroke-linecap="square"  stroke-linejoin="round" fill="none" />
<path d="M 342.5551,519.0325 L 342.5551,519.0325 L 342.5551,512.9900 " stroke="#262626" stroke-width="1px"  stroke-linecap="square"  stroke-linejoin="round" fill="none" />
<path d="M 402.7731,519.0325 L 402.7731,519.0325 L 402.7731,512.9900 " stroke="#262626" stroke-width="1px"  stroke-linecap="square"  stroke-linejoin="round" fill="none" />
<path d="M 463.0953,519.0325 L 463.0953,519.0325 L 463.0953,512.9900 " stroke="#262626" stroke-width="1px"  stroke-linecap="square"  stroke-linejoin="round" fill="none" />
<path d="M 523.3134,519.0325 L 523.3134,519.0325 L 523.3134,512.9900 " stroke="#262626" stroke-width="1px"  stroke-linecap="square"  stroke-linejoin="round" fill="none" />
<path d="M 583.6356,519.0325 L 583.6356,519.0325 L 583.6356,512.9900 " stroke="#262626" stroke-width="1px"  stroke-linecap="square"  stroke-linejoin="round" fill="none" />
<path d="M 643.9578,519.0325 L 643.9578,519.0325 L 643.9578,512.9900 " stroke="#262626" stroke-width="1px"  stroke-linecap="square"  stroke-linejoin="round" fill="none" />
<path d="M 704.1758,519.0325 L 704.1758,519.0325 L 704.1758,512.9900 " stroke="#262626" stroke-width="1px"  stroke-linecap="square"  stroke-linejoin="round" fill="none" />
<text  clip-path="url(#clip-1804289383)" font-family="Helvetica" fill="#262626" style ="white-space:pre;" font-weight="400" text-anchor="start" x="95.8488" y="543.5152" font-size="18.0237" ><![CDATA[0]]></text>
<text  clip-path="url(#clip-1804289383)" font-family="Helvetica" fill="#262626" style ="white-space:pre;" font-weight="400" text-anchor="start" x="148.4614" y="543.5152" font-size="18.0237" ><![CDATA[0.2]]></text>
<text  clip-path="url(#clip-1804289383)" font-family="Helvetica" fill="#262626" style ="white-space:pre;" font-weight="400" text-anchor="start" x="208.7836" y="543.5152" font-size="18.0237" ><![CDATA[0.4]]></text>
<text  clip-path="url(#clip-1804289383)" font-family="Helvetica" fill="#262626" style ="white-space:pre;" font-weight="400" text-anchor="start" x="269.1058" y="543.5152" font-size="18.0237" ><![CDATA[0.6]]></text>
<text  clip-path="url(#clip-1804289383)" font-family="Helvetica" fill="#262626" style ="white-space:pre;" font-weight="400" text-anchor="start" x="329.3238" y="543.5152" font-size="18.0237" ><![CDATA[0.8]]></text>
<text  clip-path="url(#clip-1804289383)" font-family="Helvetica" fill="#262626" style ="white-space:pre;" font-weight="400" text-anchor="start" x="397.2514" y="543.5152" font-size="18.0237" ><![CDATA[1]]></text>
<text  clip-path="url(#clip-1804289383)" font-family="Helvetica" fill="#262626" style ="white-space:pre;" font-weight="400" text-anchor="start" x="449.9682" y="543.5152" font-size="18.0237" ><![CDATA[1.2]]></text>
<text  clip-path="url(#clip-1804289383)" font-family="Helvetica" fill="#262626" style ="white-space:pre;" font-weight="400" text-anchor="start" x="510.1862" y="543.5152" font-size="18.0237" ><![CDATA[1.4]]></text>
<text  clip-path="url(#clip-1804289383)" font-family="Helvetica" fill="#262626" style ="white-space:pre;" font-weight="400" text-anchor="start" x="570.5084" y="543.5152" font-size="18.0237" ><![CDATA[1.6]]></text>
<text  clip-path="url(#clip-1804289383)" font-family="Helvetica" fill="#262626" style ="white-space:pre;" font-weight="400" text-anchor="start" x="630.8307" y="543.5152" font-size="18.0237" ><![CDATA[1.8]]></text>
<text  clip-path="url(#clip-1804289383)" font-family="Helvetica" fill="#262626" style ="white-space:pre;" font-weight="400" text-anchor="start" x="698.7582" y="543.5152" font-size="18.0237" ><![CDATA[2]]></text>
<text  clip-path="url(#clip-1804289383)" font-family="Helvetica" fill="#262626" style ="white-space:pre;" font-weight="400" text-anchor="start" x="265.9803" y="567.8937" font-size="19.7949" ><![CDATA[Horizontal positioning error [m]]]></text>
<path d="M 101.3705,519.0325 L 101.3705,519.0325 L 101.3705,43.3395 " stroke="#262626" stroke-width="1px"  stroke-linecap="square"  stroke-linejoin="round" fill="none" />
<path d="M 101.3705,519.0325 L 101.3705,519.0325 L 107.4131,519.0325 " stroke="#262626" stroke-width="1px"  stroke-linecap="square"  stroke-linejoin="round" fill="none" />
<path d="M 101.3705,471.5257 L 101.3705,471.5257 L 107.4131,471.5257 " stroke="#262626" stroke-width="1px"  stroke-linecap="square"  stroke-linejoin="round" fill="none" />
<path d="M 101.3705,423.9148 L 101.3705,423.9148 L 107.4131,423.9148 " stroke="#262626" stroke-width="1px"  stroke-linecap="square"  stroke-linejoin="round" fill="none" />
<path d="M 101.3705,376.3038 L 101.3705,376.3038 L 107.4131,376.3038 " stroke="#262626" stroke-width="1px"  stroke-linecap="square"  stroke-linejoin="round" fill="none" />
<path d="M 101.3705,328.7970 L 101.3705,328.7970 L 107.4131,328.7970 " stroke="#262626" stroke-width="1px"  stroke-linecap="square"  stroke-linejoin="round" fill="none" />
<path d="M 101.3705,281.1860 L 101.3705,281.1860 L 107.4131,281.1860 " stroke="#262626" stroke-width="1px"  stroke-linecap="square"  stroke-linejoin="round" fill="none" />
<path d="M 101.3705,233.5751 L 101.3705,233.5751 L 107.4131,233.5751 " stroke="#262626" stroke-width="1px"  stroke-linecap="square"  stroke-linejoin="round" fill="none" />
<path d="M 101.3705,186.0683 L 101.3705,186.0683 L 107.4131,186.0683 " stroke="#262626" stroke-width="1px"  stroke-linecap="square"  stroke-linejoin="round" fill="none" />
<path d="M 101.3705,138.4573 L 101.3705,138.4573 L 107.4131,138.4573 " stroke="#262626" stroke-width="1px"  stroke-linecap="square"  stroke-linejoin="round" fill="none" />
<path d="M 101.3705,90.8463 L 101.3705,90.8463 L 107.4131,90.8463 " stroke="#262626" stroke-width="1px"  stroke-linecap="square"  stroke-linejoin="round" fill="none" />
<path d="M 101.3705,43.3395 L 101.3705,43.3395 L 107.4131,43.3395 " stroke="#262626" stroke-width="1px"  stroke-linecap="square"  stroke-linejoin="round" fill="none" />
<text  clip-path="url(#clip-1804289383)" font-family="Helvetica" fill="#262626" style ="white-space:pre;" font-weight="400" text-anchor="start" x="83.8677" y="526.0127" font-size="18.0237" ><![CDATA[0]]></text>
<text  clip-path="url(#clip-1804289383)" font-family="Helvetica" fill="#262626" style ="white-space:pre;" font-weight="400" text-anchor="start" x="74.1786" y="478.5059" font-size="18.0237" ><![CDATA[10]]></text>
<text  clip-path="url(#clip-1804289383)" font-family="Helvetica" fill="#262626" style ="white-space:pre;" font-weight="400" text-anchor="start" x="74.1786" y="430.8949" font-size="18.0237" ><![CDATA[20]]></text>
<text  clip-path="url(#clip-1804289383)" font-family="Helvetica" fill="#262626" style ="white-space:pre;" font-weight="400" text-anchor="start" x="74.1786" y="383.2840" font-size="18.0237" ><![CDATA[30]]></text>
<text  clip-path="url(#clip-1804289383)" font-family="Helvetica" fill="#262626" style ="white-space:pre;" font-weight="400" text-anchor="start" x="74.1786" y="335.7772" font-size="18.0237" ><![CDATA[40]]></text>
<text  clip-path="url(#clip-1804289383)" font-family="Helvetica" fill="#262626" style ="white-space:pre;" font-weight="400" text-anchor="start" x="74.1786" y="288.1662" font-size="18.0237" ><![CDATA[50]]></text>
<text  clip-path="url(#clip-1804289383)" font-family="Helvetica" fill="#262626" style ="white-space:pre;" font-weight="400" text-anchor="start" x="74.1786" y="240.5552" font-size="18.0237" ><![CDATA[60]]></text>
<text  clip-path="url(#clip-1804289383)" font-family="Helvetica" fill="#262626" style ="white-space:pre;" font-weight="400" text-anchor="start" x="74.1786" y="193.0484" font-size="18.0237" ><![CDATA[70]]></text>
<text  clip-path="url(#clip-1804289383)" font-family="Helvetica" fill="#262626" style ="white-space:pre;" font-weight="400" text-anchor="start" x="74.1786" y="145.4375" font-size="18.0237" ><![CDATA[80]]></text>
<text  clip-path="url(#clip-1804289383)" font-family="Helvetica" fill="#262626" style ="white-space:pre;" font-weight="400" text-anchor="start" x="74.1786" y="97.8265" font-size="18.0237" ><![CDATA[90]]></text>
<text  clip-path="url(#clip-1804289383)" font-family="Helvetica" fill="#262626" style ="white-space:pre;" font-weight="400" text-anchor="start" x="64.4895" y="50.3197" font-size="18.0237" ><![CDATA[100]]></text>
<text  clip-path="url(#clip-1804289383)" font-family="Helvetica" fill="#262626" transform="rotate(-90, 54.6963, 364.3232) translate(0, 17.8154)" style ="white-space:pre;" font-weight="400" text-anchor="start" x="54.6963" y="346.5079" font-size="19.7949" ><![CDATA[P]]></text>
<text  clip-path="url(#clip-1804289383)" font-family="Helvetica" fill="#262626" transform="rotate(-90, 54.6963, 351.0922) translate(0, 17.8154)" style ="white-space:pre;" font-weight="400" text-anchor="start" x="54.6963" y="333.2768" font-size="19.7949" ><![CDATA[r]]></text>
<text  clip-path="url(#clip-1804289383)" font-family="Helvetica" fill="#262626" transform="rotate(-90, 54.6963, 344.4246) translate(0, 17.8154)" style ="white-space:pre;" font-weight="400" text-anchor="start" x="54.6963" y="326.6092" font-size="19.7949" ><![CDATA[o]]></text>
<text  clip-path="url(#clip-1804289383)" font-family="Helvetica" fill="#262626" transform="rotate(-90, 54.6963, 333.3813) translate(0, 17.8154)" style ="white-space:pre;" font-weight="400" text-anchor="start" x="54.6963" y="315.5659" font-size="19.7949" ><![CDATA[b]]></text>
<text  clip-path="url(#clip-1804289383)" font-family="Helvetica" fill="#262626" transform="rotate(-90, 54.6963, 322.3381) translate(0, 17.8154)" style ="white-space:pre;" font-weight="400" text-anchor="start" x="54.6963" y="304.5227" font-size="19.7949" ><![CDATA[a]]></text>
<text  clip-path="url(#clip-1804289383)" font-family="Helvetica" fill="#262626" transform="rotate(-90, 54.6963, 311.2948) translate(0, 17.8154)" style ="white-space:pre;" font-weight="400" text-anchor="start" x="54.6963" y="293.4794" font-size="19.7949" ><![CDATA[b]]></text>
<text  clip-path="url(#clip-1804289383)" font-family="Helvetica" fill="#262626" transform="rotate(-90, 54.6963, 300.2516) translate(0, 17.8154)" style ="white-space:pre;" font-weight="400" text-anchor="start" x="54.6963" y="282.4362" font-size="19.7949" ><![CDATA[i]]></text>
<text  clip-path="url(#clip-1804289383)" font-family="Helvetica" fill="#262626" transform="rotate(-90, 54.6963, 295.8759) translate(0, 17.8154)" style ="white-space:pre;" font-weight="400" text-anchor="start" x="54.6963" y="278.0606" font-size="19.7949" ><![CDATA[l]]></text>
<text  clip-path="url(#clip-1804289383)" font-family="Helvetica" fill="#262626" transform="rotate(-90, 54.6963, 291.5003) translate(0, 17.8154)" style ="white-space:pre;" font-weight="400" text-anchor="start" x="54.6963" y="273.6850" font-size="19.7949" ><![CDATA[i]]></text>
<text  clip-path="url(#clip-1804289383)" font-family="Helvetica" fill="#262626" transform="rotate(-90, 54.6963, 287.0205) translate(0, 17.8154)" style ="white-space:pre;" font-weight="400" text-anchor="start" x="54.6963" y="269.2051" font-size="19.7949" ><![CDATA[t]]></text>
<text  clip-path="url(#clip-1804289383)" font-family="Helvetica" fill="#262626" transform="rotate(-90, 54.6963, 281.4989) translate(0, 17.8154)" style ="white-space:pre;" font-weight="400" text-anchor="start" x="54.6963" y="263.6835" font-size="19.7949" ><![CDATA[y]]></text>
<text  clip-path="url(#clip-1804289383)" font-family="Helvetica" fill="#262626" transform="rotate(-90, 54.6963, 271.6016) translate(0, 17.8154)" style ="white-space:pre;" font-weight="400" text-anchor="start" x="54.6963" y="253.7863" font-size="19.7949" ><![CDATA[ ]]></text>
<text  clip-path="url(#clip-1804289383)" font-family="Helvetica" fill="#262626" transform="rotate(-90, 54.6963, 266.0800) translate(0, 17.8154)" style ="white-space:pre;" font-weight="400" text-anchor="start" x="54.6963" y="248.2647" font-size="19.7949" ><![CDATA[[]]></text>
<text  clip-path="url(#clip-1804289383)" font-family="Helvetica" fill="#262626" transform="rotate(-90, 54.6963, 260.5584) translate(0, 17.8154)" style ="white-space:pre;" font-weight="400" text-anchor="start" x="54.6963" y="242.7430" font-size="19.7949" ><![CDATA[%]]></text>
<text  clip-path="url(#clip-1804289383)" font-family="Helvetica" fill="#262626" transform="rotate(-90, 54.6963, 242.8475) translate(0, 17.8154)" style ="white-space:pre;" font-weight="400" text-anchor="start" x="54.6963" y="225.0322" font-size="19.7949" ><![CDATA[]]]></text>
<text  clip-path="url(#clip-1804289383)" font-family="Helvetica Bold" fill="#000000" style ="white-space:pre;" font-weight="700" text-anchor="start" x="135.4385" y="35.3175" font-size="19.7949" ><![CDATA[InF-SH, 3.5 GHz, 100 MHz, UL-TDOA, comb-2, 2 symbols]]></text>
<path d="M 102.4123,518.4074 L 102.4123,518.4074 L 102.6207,517.8865 L 102.8290,517.2614 L 103.0374,516.6363 L 103.1416,516.1154 L 103.1416,515.4904 L 103.1416,514.8653 L 103.3500,514.3444 L 103.5583,513.7193 L 103.6625,513.0942 L 103.7667,512.4691 L 103.9751,511.9482 L 103.9751,511.3231 L 104.1834,510.6980 L 104.2876,510.1771 L 104.3918,509.5520 L 104.3918,508.9269 L 104.4960,508.3018 L 104.4960,507.7809 L 104.6002,507.1558 L 104.6002,506.5307 L 104.9127,506.0098 L 105.0169,505.3847 L 105.1211,504.7596 L 105.5378,504.1346 L 105.5378,503.6137 L 105.6420,502.9886 L 105.6420,502.3635 L 105.7462,501.8426 L 106.1629,501.2175 L 106.2671,500.5924 L 106.2671,499.9673 L 106.2671,499.4464 L 106.3713,498.8213 L 106.4755,498.1962 L 106.5796,497.6753 L 106.6838,497.0502 L 106.6838,496.4251 L 106.6838,495.9042 L 106.6838,495.2791 L 106.7880,494.6540 L 106.8922,494.0289 L 106.8922,493.5080 L 107.2047,492.8830 L 107.2047,492.2579 L 107.3089,491.7370 L 107.4131,491.1119 L 107.4131,490.4868 L 107.6215,489.8617 L 107.7257,489.3408 L 107.7257,488.7157 L 107.8298,488.0906 L 107.8298,487.5697 L 107.9340,486.9446 L 108.0382,486.3195 L 108.0382,485.6944 L 108.0382,485.1735 L 108.3508,484.5484 L 108.3508,483.9233 L 108.5591,483.4024 L 108.6633,482.7773 L 108.6633,482.1523 L 108.6633,481.6313 L 108.7675,481.0063 L 108.7675,480.3812 L 108.7675,479.7561 L 108.7675,479.2352 L 108.8717,478.6101 L 108.9759,477.9850 L 109.0800,477.4641 L 109.0800,476.8390 L 109.0800,476.2139 L 109.2884,475.5888 L 109.2884,475.0679 L 109.4968,474.4428 L 109.8093,473.8177 L 109.8093,473.2968 L 109.9135,472.6717 L 110.1219,472.0466 L 110.2261,471.5257 L 110.2261,470.9006 L 110.3302,470.2756 L 110.3302,469.6505 L 110.3302,469.1296 L 110.3302,468.5045 L 110.3302,467.8794 L 110.4344,467.3585 L 110.4344,466.7334 L 110.4344,466.1083 L 110.6428,465.4832 L 110.9553,464.9623 L 110.9553,464.3372 L 111.0595,463.7121 L 111.1637,463.1912 L 111.1637,462.5661 L 111.2679,461.9410 L 111.2679,461.3159 L 111.2679,460.7950 L 111.2679,460.1699 L 111.2679,459.5449 L 111.3721,459.0239 L 111.3721,458.3989 L 111.3721,457.7738 L 111.3721,457.2529 L 111.3721,456.6278 L 111.3721,456.0027 L 111.4763,455.3776 L 111.6846,454.8567 L 111.6846,454.2316 L 111.6846,453.6065 L 111.7888,453.0856 L 111.7888,452.4605 L 111.7888,451.8354 L 111.7888,451.2103 L 111.9972,450.6894 L 111.9972,450.0643 L 111.9972,449.4392 L 112.1014,448.9183 L 112.1014,448.2932 L 112.2056,447.6682 L 112.2056,447.0431 L 112.3097,446.5222 L 112.4139,445.8971 L 112.4139,445.2720 L 112.4139,444.7511 L 112.5181,444.1260 L 112.5181,443.5009 L 112.5181,442.9800 L 112.6223,442.3549 L 112.7265,441.7298 L 112.7265,441.1047 L 112.7265,440.5838 L 112.7265,439.9587 L 112.7265,439.3336 L 112.8307,438.8127 L 112.8307,438.1876 L 112.9348,437.5625 L 112.9348,436.9375 L 113.0390,436.4165 L 113.0390,435.7915 L 113.0390,435.1664 L 113.1432,434.6455 L 113.1432,434.0204 L 113.1432,433.3953 L 113.2474,432.7702 L 113.2474,432.2493 L 113.2474,431.6242 L 113.2474,430.9991 L 113.3516,430.4782 L 113.3516,429.8531 L 113.3516,429.2280 L 113.3516,428.6029 L 113.4558,428.0820 L 113.4558,427.4569 L 113.4558,426.8318 L 113.4558,426.3109 L 113.5599,425.6858 L 113.5599,425.0608 L 113.6641,424.5398 L 113.6641,423.9148 L 113.6641,423.2897 L 113.6641,422.6646 L 113.7683,422.1437 L 113.8725,421.5186 L 113.9767,420.8935 L 113.9767,420.3726 L 114.0809,419.7475 L 114.0809,419.1224 L 114.0809,418.4973 L 114.0809,417.9764 L 114.1850,417.3513 L 114.1850,416.7262 L 114.1850,416.2053 L 114.3934,415.5802 L 114.3934,414.9551 L 114.3934,414.3301 L 114.3934,413.8091 L 114.4976,413.1841 L 114.6018,412.5590 L 114.6018,412.0381 L 114.6018,411.4130 L 114.7060,410.7879 L 114.7060,410.2670 L 114.8101,409.6419 L 115.0185,409.0168 L 115.0185,408.3917 L 115.0185,407.8708 L 115.2269,407.2457 L 115.4352,406.6206 L 115.4352,406.0997 L 115.5394,405.4746 L 115.6436,404.8495 L 115.7478,404.2244 L 115.7478,403.7035 L 115.7478,403.0784 L 115.8520,402.4534 L 115.9562,401.9325 L 115.9562,401.3074 L 115.9562,400.6823 L 115.9562,400.1614 L 115.9562,399.5363 L 116.0603,398.9112 L 116.0603,398.2861 L 116.2687,397.7652 L 116.2687,397.1401 L 116.2687,396.5150 L 116.3729,395.9941 L 116.3729,395.3690 L 116.6854,394.7439 L 116.7896,394.1188 L 116.7896,393.5979 L 116.8938,392.9728 L 116.8938,392.3477 L 116.9980,391.8268 L 116.9980,391.2018 L 116.9980,390.5767 L 116.9980,389.9516 L 117.1022,389.4307 L 117.2064,388.8056 L 117.2064,388.1805 L 117.2064,387.6596 L 117.4147,387.0345 L 117.5189,386.4094 L 117.6231,385.8885 L 117.6231,385.2634 L 117.6231,384.6383 L 117.8315,384.0132 L 117.9356,383.4923 L 118.0398,382.8672 L 118.0398,382.2421 L 118.1440,381.7212 L 118.1440,381.0961 L 118.2482,380.4711 L 118.3524,379.8460 L 118.4566,379.3251 L 118.4566,378.7000 L 118.4566,378.0749 L 118.5607,377.5540 L 118.6649,376.9289 L 118.7691,376.3038 L 118.7691,375.6787 L 118.9775,375.1578 L 118.9775,374.5327 L 118.9775,373.9076 L 118.9775,373.3867 L 119.0817,372.7616 L 119.0817,372.1365 L 119.0817,371.6156 L 119.1858,370.9905 L 119.1858,370.3654 L 119.2900,369.7404 L 119.2900,369.2194 L 119.3942,368.5944 L 119.3942,367.9693 L 119.3942,367.4484 L 119.4984,366.8233 L 119.4984,366.1982 L 119.4984,365.5731 L 119.7068,365.0522 L 119.7068,364.4271 L 119.7068,363.8020 L 119.9151,363.2811 L 120.0193,362.6560 L 120.0193,362.0309 L 120.0193,361.4058 L 120.0193,360.8849 L 120.0193,360.2598 L 120.1235,359.6347 L 120.1235,359.1138 L 120.1235,358.4887 L 120.2277,357.8637 L 120.3319,357.2386 L 120.4360,356.7177 L 120.4360,356.0926 L 120.5402,355.4675 L 120.7486,354.9466 L 120.7486,354.3215 L 120.8528,353.6964 L 120.9570,353.1755 L 120.9570,352.5504 L 120.9570,351.9253 L 121.1653,351.3002 L 121.1653,350.7793 L 121.3737,350.1542 L 121.3737,349.5291 L 121.3737,349.0082 L 121.4779,348.3831 L 121.4779,347.7580 L 121.5821,347.1330 L 121.5821,346.6120 L 121.6862,345.9870 L 121.6862,345.3619 L 121.6862,344.8410 L 121.6862,344.2159 L 121.6862,343.5908 L 121.6862,342.9657 L 121.7904,342.4448 L 121.7904,341.8197 L 121.8946,341.1946 L 121.8946,340.6737 L 121.9988,340.0486 L 121.9988,339.4235 L 122.2072,338.9026 L 122.2072,338.2775 L 122.3113,337.6524 L 122.3113,337.0273 L 122.4155,336.5064 L 122.5197,335.8813 L 122.6239,335.2563 L 122.7281,334.7353 L 122.7281,334.1103 L 122.7281,333.4852 L 122.7281,332.8601 L 122.8323,332.3392 L 122.9364,331.7141 L 123.0406,331.0890 L 123.0406,330.5681 L 123.0406,329.9430 L 123.0406,329.3179 L 123.1448,328.7970 L 123.1448,328.1719 L 123.1448,327.5468 L 123.2490,326.9217 L 123.3532,326.4008 L 123.4574,325.7757 L 123.4574,325.1506 L 123.4574,324.6297 L 123.5615,324.0046 L 123.5615,323.3796 L 123.6657,322.7545 L 123.7699,322.2336 L 123.8741,321.6085 L 123.8741,320.9834 L 123.8741,320.4625 L 123.9783,319.8374 L 123.9783,319.2123 L 124.2908,318.5872 L 124.2908,318.0663 L 124.2908,317.4412 L 124.3950,316.8161 L 124.3950,316.2952 L 124.3950,315.6701 L 124.4992,315.0450 L 124.4992,314.5241 L 124.6034,313.8990 L 124.7076,313.2739 L 124.7076,312.6489 L 124.9159,312.1279 L 124.9159,311.5029 L 125.0201,310.8778 L 125.0201,310.3569 L 125.0201,309.7318 L 125.1243,309.1067 L 125.1243,308.4816 L 125.1243,307.9607 L 125.3327,307.3356 L 125.3327,306.7105 L 125.3327,306.1896 L 125.5410,305.5645 L 125.5410,304.9394 L 125.5410,304.3143 L 125.6452,303.7934 L 125.6452,303.1683 L 125.7494,302.5432 L 125.7494,302.0223 L 125.7494,301.3972 L 125.8536,300.7722 L 125.8536,300.2513 L 125.8536,299.6262 L 126.0619,299.0011 L 126.0619,298.3760 L 126.0619,297.8551 L 126.0619,297.2300 L 126.1661,296.6049 L 126.2703,296.0840 L 126.2703,295.4589 L 126.2703,294.8338 L 126.3745,294.2087 L 126.3745,293.6878 L 126.5829,293.0627 L 126.6870,292.4376 L 126.6870,291.9167 L 126.8954,291.2916 L 126.9996,290.6665 L 126.9996,290.0415 L 127.1038,289.5206 L 127.1038,288.8955 L 127.2080,288.2704 L 127.2080,287.7495 L 127.2080,287.1244 L 127.3121,286.4993 L 127.4163,285.9784 L 127.4163,285.3533 L 127.4163,284.7282 L 127.5205,284.1031 L 127.6247,283.5822 L 127.6247,282.9571 L 127.6247,282.3320 L 127.7289,281.8111 L 127.8331,281.1860 L 127.9372,280.5609 L 128.0414,279.9358 L 128.0414,279.4149 L 128.1456,278.7898 L 128.2498,278.1648 L 128.2498,277.6439 L 128.3540,277.0188 L 128.4582,276.3937 L 128.4582,275.7686 L 128.4582,275.2477 L 128.5623,274.6226 L 128.5623,273.9975 L 128.6665,273.4766 L 128.8749,272.8515 L 128.8749,272.2264 L 128.9791,271.6013 L 129.1874,271.0804 L 129.1874,270.4553 L 129.2916,269.8302 L 129.2916,269.3093 L 129.3958,268.6842 L 129.5000,268.0591 L 129.7084,267.5382 L 129.8126,266.9132 L 129.9167,266.2881 L 130.0209,265.6630 L 130.0209,265.1421 L 130.3335,264.5170 L 130.4377,263.8919 L 130.5418,263.3710 L 130.5418,262.7459 L 130.5418,262.1208 L 131.0628,261.4957 L 131.1669,260.9748 L 131.3753,260.3497 L 131.4795,259.7246 L 131.5837,259.2037 L 131.7920,258.5786 L 131.7920,257.9535 L 131.8962,257.4326 L 132.0004,256.8075 L 132.2088,256.1825 L 132.2088,255.5574 L 132.2088,255.0365 L 132.3130,254.4114 L 132.3130,253.7863 L 132.4171,253.2654 L 132.4171,252.6403 L 132.4171,252.0152 L 132.4171,251.3901 L 132.4171,250.8692 L 132.6255,250.2441 L 132.7297,249.6190 L 132.8339,249.0981 L 132.9381,248.4730 L 133.0422,247.8479 L 133.0422,247.2228 L 133.0422,246.7019 L 133.1464,246.0768 L 133.2506,245.4518 L 133.2506,244.9308 L 133.3548,244.3058 L 133.3548,243.6807 L 133.4590,243.1598 L 133.4590,242.5347 L 133.7715,241.9096 L 134.0841,241.2845 L 134.5008,240.7636 L 134.5008,240.1385 L 134.5008,239.5134 L 134.6050,238.9925 L 134.7092,238.3674 L 134.7092,237.7423 L 134.8134,237.1172 L 134.8134,236.5963 L 134.9175,235.9712 L 135.0217,235.3461 L 135.0217,234.8252 L 135.1259,234.2001 L 135.2301,233.5751 L 135.3343,232.9500 L 135.3343,232.4291 L 136.1677,231.8040 L 136.1677,231.1789 L 136.2719,230.6580 L 136.2719,230.0329 L 136.5845,229.4078 L 136.7928,228.8869 L 136.8970,228.2618 L 136.8970,227.6367 L 137.0012,227.0116 L 137.0012,226.4907 L 137.1054,225.8656 L 137.1054,225.2405 L 137.3138,224.7196 L 137.6263,224.0945 L 137.7305,223.4694 L 137.8347,222.8444 L 137.8347,222.3234 L 138.2514,221.6984 L 138.4598,221.0733 L 138.6681,220.5524 L 138.6681,219.9273 L 138.7723,219.3022 L 138.7723,218.6771 L 138.7723,218.1562 L 138.8765,217.5311 L 138.8765,216.9060 L 138.9807,216.3851 L 138.9807,215.7600 L 139.0849,215.1349 L 139.1891,214.6140 L 139.2932,213.9889 L 139.2932,213.3638 L 139.5016,212.7387 L 139.6058,212.2178 L 139.8142,211.5927 L 139.9183,210.9677 L 139.9183,210.4467 L 140.3351,209.8217 L 140.6476,209.1966 L 140.6476,208.5715 L 140.7518,208.0506 L 140.9602,207.4255 L 141.3769,206.8004 L 141.3769,206.2795 L 141.4811,205.6544 L 141.5853,205.0293 L 141.6895,204.4042 L 141.7936,203.8833 L 141.7936,203.2582 L 141.8978,202.6331 L 142.1062,202.1122 L 142.2104,201.4871 L 142.2104,200.8620 L 142.4187,200.3411 L 142.5229,199.7160 L 142.7313,199.0910 L 143.1480,198.4659 L 143.2522,197.9450 L 143.3564,197.3199 L 143.5648,196.6948 L 143.6689,196.1739 L 143.6689,195.5488 L 143.7731,194.9237 L 143.8773,194.2986 L 144.2940,193.7777 L 144.3982,193.1526 L 144.5024,192.5275 L 144.5024,192.0066 L 144.6066,191.3815 L 144.7108,190.7564 L 144.8150,190.1313 L 145.0233,189.6104 L 145.0233,188.9853 L 145.1275,188.3603 L 145.3359,187.8393 L 145.3359,187.2143 L 145.7526,186.5892 L 145.9610,186.0683 L 146.1693,185.4432 L 146.5861,184.8181 L 146.7944,184.1930 L 146.7944,183.6721 L 147.4195,183.0470 L 147.5237,182.4219 L 147.8363,181.9010 L 147.9405,181.2759 L 147.9405,180.6508 L 148.0447,180.0257 L 148.3572,179.5048 L 148.4614,178.8797 L 148.9823,178.2546 L 149.0865,177.7337 L 149.5032,177.1086 L 149.7116,176.4836 L 149.8158,175.8585 L 149.8158,175.3376 L 150.1283,174.7125 L 150.4409,174.0874 L 150.7534,173.5665 L 150.7534,172.9414 L 151.1702,172.3163 L 151.5869,171.7954 L 151.7953,171.1703 L 152.0036,170.5452 L 152.2120,169.9201 L 152.3162,169.3992 L 152.5245,168.7741 L 152.5245,168.1490 L 152.8371,167.6281 L 153.2538,167.0030 L 153.2538,166.3779 L 153.5664,165.7529 L 153.6706,165.2320 L 153.9831,164.6069 L 154.2957,163.9818 L 154.3998,163.4609 L 154.3998,162.8358 L 154.5040,162.2107 L 154.5040,161.5856 L 154.7124,161.0647 L 154.8166,160.4396 L 155.0249,159.8145 L 155.1291,159.2936 L 155.2333,158.6685 L 155.4417,158.0434 L 155.7542,157.5225 L 155.8584,156.8974 L 155.9626,156.2723 L 155.9626,155.6472 L 156.3793,155.1263 L 156.3793,154.5013 L 156.5877,153.8762 L 156.5877,153.3553 L 157.2128,152.7302 L 157.5253,152.1051 L 157.5253,151.4800 L 157.8379,150.9591 L 158.0463,150.3340 L 158.2546,149.7089 L 158.4630,149.1880 L 158.8797,148.5629 L 159.0881,147.9378 L 159.0881,147.3127 L 159.2965,146.7918 L 159.4006,146.1667 L 159.7132,145.5416 L 159.9216,145.0207 L 159.9216,144.3956 L 160.3383,143.7706 L 160.4425,143.2496 L 160.7550,142.6246 L 161.2759,141.9995 L 161.4843,141.3744 L 162.3178,140.8535 L 162.8387,140.2284 L 162.8387,139.6033 L 163.5680,139.0824 L 163.7763,138.4573 L 163.9847,137.8322 L 164.0889,137.2071 L 164.2973,136.6862 L 164.4014,136.0611 L 164.7140,135.4360 L 165.2349,134.9151 L 165.2349,134.2900 L 165.4433,133.6649 L 165.7558,133.0398 L 165.9642,132.5189 L 166.2767,131.8939 L 166.3809,131.2688 L 166.5893,130.7479 L 167.8395,130.1228 L 168.0479,129.4977 L 169.4023,128.9768 L 169.4023,128.3517 L 170.1315,127.7266 L 170.2357,127.1015 L 170.3399,126.5806 L 171.4859,125.9555 L 171.9027,125.3304 L 173.7780,124.8095 L 173.7780,124.1844 L 174.1947,123.5593 L 174.1947,122.9342 L 174.2989,122.4133 L 174.8198,121.7882 L 175.8616,121.1632 L 175.9658,120.6422 L 176.0700,120.0172 L 176.1742,119.3921 L 176.5909,118.7670 L 178.3620,118.2461 L 179.0913,117.6210 L 179.0913,116.9959 L 180.3415,116.4750 L 180.5499,115.8499 L 180.6541,115.2248 L 180.7582,114.7039 L 180.7582,114.0788 L 180.9666,113.4537 L 181.0708,112.8286 L 181.4875,112.3077 L 181.4875,111.6826 L 181.5917,111.0575 L 182.2168,110.5366 L 182.4252,109.9115 L 182.8419,109.2865 L 182.9461,108.6614 L 184.0921,108.1405 L 184.9256,107.5154 L 185.4465,106.8903 L 186.1758,106.3694 L 186.3842,105.7443 L 187.5302,105.1192 L 187.6344,104.4941 L 187.9469,103.9732 L 189.1971,103.3481 L 190.7599,102.7230 L 192.2184,102.2021 L 193.1561,101.5770 L 193.6770,100.9519 L 194.1979,100.4310 L 195.0314,99.8059 L 195.2397,99.1808 L 195.6565,98.5558 L 195.9690,98.0348 L 197.3234,97.4098 L 197.7401,96.7847 L 199.0945,96.2638 L 200.8656,95.6387 L 200.9698,95.0136 L 202.4284,94.3885 L 203.2619,93.8676 L 203.7828,93.2425 L 204.0953,92.6174 L 204.7204,92.0965 L 206.4916,91.4714 L 209.3045,90.8463 L 209.8254,90.2212 L 211.2840,89.7003 L 211.9091,89.0752 L 212.1175,88.4501 L 214.8262,87.9292 L 217.6392,87.3041 L 219.6187,86.6791 L 222.4316,86.1581 L 222.5358,85.5331 L 222.6400,84.9080 L 223.6818,84.2829 L 227.8492,83.7620 L 227.9533,83.1369 L 228.5784,82.5118 L 228.9952,81.9909 L 229.5161,81.3658 L 229.6203,80.7407 L 230.7663,80.1156 L 233.0583,79.5947 L 234.3085,78.9696 L 235.2462,78.3445 L 235.8713,77.8236 L 237.2257,77.1985 L 239.1010,76.5734 L 239.5177,75.9484 L 241.4972,75.4274 L 243.5809,74.8024 L 247.2273,74.1773 L 247.2273,73.6564 L 247.4356,73.0313 L 248.6858,72.4062 L 248.7900,71.8853 L 255.4578,71.2602 L 256.2912,70.6351 L 257.9582,70.0100 L 259.7293,69.4891 L 261.9171,68.8640 L 262.3339,68.2389 L 265.7719,67.7180 L 284.0040,67.0929 L 292.1303,66.4678 L 294.0056,65.8427 L 294.3182,65.3218 L 301.4027,64.6967 L 301.5068,64.0717 L 304.4240,63.5508 L 306.5076,62.9257 L 307.1327,62.3006 L 313.4879,61.6755 L 318.1762,61.1546 L 334.9497,60.5295 L 336.7208,59.9044 L 349.8479,59.3835 L 353.0776,58.7584 L 353.2860,58.1333 L 365.2671,57.6124 L 437.7788,56.9873 L 466.1167,56.3622 L 517.3749,55.7371 L 704.2800,55.3204 " stroke="#0072BD" stroke-width="1.3544"  stroke-linecap="butt"  stroke-linejoin="round" fill="none" />
<path d="M 102.4123,517.9907 L 102.4123,517.9907 L 102.6207,516.9489 L 103.0374,516.0113 L 103.1416,514.9694 L 103.1416,513.9276 L 103.1416,512.8858 L 103.3500,511.8440 L 103.5583,510.8022 L 103.6625,509.7604 L 103.7667,508.7185 L 103.9751,507.6767 L 104.3918,506.7391 L 104.4960,505.6973 L 104.4960,504.6555 L 104.6002,503.6137 L 105.1211,502.5718 L 105.5378,501.5300 L 105.5378,500.4882 L 105.6420,499.4464 L 105.6420,498.4046 L 105.7462,497.4669 L 106.1629,496.4251 L 106.2671,495.3833 L 106.2671,494.3415 L 106.4755,493.2997 L 106.6838,492.2579 L 106.6838,491.2160 L 106.6838,490.1742 L 106.7880,489.2366 L 107.2047,488.1948 L 107.2047,487.1530 L 107.3089,486.1112 L 107.4131,485.0693 L 107.4131,484.0275 L 107.7257,482.9857 L 107.7257,481.9439 L 107.8298,480.9021 L 107.8298,479.9644 L 107.9340,478.9226 L 108.0382,477.8808 L 108.0382,476.8390 L 108.0382,475.7972 L 108.3508,474.7554 L 108.3508,473.7135 L 108.5591,472.6717 L 108.6633,471.6299 L 108.6633,470.6923 L 108.7675,469.6505 L 108.7675,468.6086 L 108.8717,467.5668 L 108.9759,466.5250 L 109.0800,465.4832 L 109.0800,464.4414 L 109.2884,463.3996 L 109.2884,462.4619 L 109.4968,461.4201 L 109.8093,460.3783 L 109.9135,459.3365 L 110.1219,458.2947 L 110.2261,457.2529 L 110.2261,456.2110 L 110.3302,455.1692 L 110.3302,454.1274 L 110.3302,453.1898 L 110.4344,452.1480 L 110.6428,451.1061 L 110.9553,450.0643 L 110.9553,449.0225 L 111.0595,447.9807 L 111.1637,446.9389 L 111.1637,445.8971 L 111.2679,444.8553 L 111.2679,443.9176 L 111.2679,442.8758 L 111.2679,441.8340 L 111.3721,440.7922 L 111.3721,439.7504 L 111.3721,438.7085 L 111.3721,437.6667 L 111.3721,436.6249 L 111.3721,435.6873 L 111.4763,434.6455 L 111.6846,433.6036 L 111.6846,432.5618 L 111.7888,431.5200 L 111.7888,430.4782 L 111.7888,429.4364 L 111.9972,428.3946 L 112.1014,427.3528 L 112.1014,426.4151 L 112.3097,425.3733 L 112.4139,424.3315 L 112.4139,423.2897 L 112.4139,422.2479 L 112.5181,421.2060 L 112.5181,420.1642 L 112.5181,419.1224 L 112.6223,418.0806 L 112.7265,417.1430 L 112.8307,416.1011 L 112.8307,415.0593 L 112.9348,414.0175 L 113.0390,412.9757 L 113.0390,411.9339 L 113.1432,410.8921 L 113.1432,409.8503 L 113.2474,408.9126 L 113.2474,407.8708 L 113.2474,406.8290 L 113.3516,405.7872 L 113.3516,404.7454 L 113.3516,403.7035 L 113.4558,402.6617 L 113.4558,401.6199 L 113.4558,400.5781 L 113.4558,399.6405 L 113.5599,398.5986 L 113.6641,397.5568 L 113.6641,396.5150 L 113.7683,395.4732 L 113.8725,394.4314 L 113.9767,393.3896 L 113.9767,392.3477 L 114.0809,391.3059 L 114.0809,390.3683 L 114.0809,389.3265 L 114.0809,388.2847 L 114.1850,387.2429 L 114.1850,386.2010 L 114.1850,385.1592 L 114.3934,384.1174 L 114.3934,383.0756 L 114.3934,382.1380 L 114.4976,381.0961 L 114.6018,380.0543 L 114.6018,379.0125 L 114.6018,377.9707 L 114.7060,376.9289 L 115.0185,375.8871 L 115.0185,374.8452 L 115.0185,373.8034 L 115.2269,372.8658 L 115.4352,371.8240 L 115.4352,370.7822 L 115.5394,369.7404 L 115.6436,368.6985 L 115.7478,367.6567 L 115.7478,366.6149 L 115.8520,365.5731 L 115.9562,364.5313 L 115.9562,363.5936 L 115.9562,362.5518 L 115.9562,361.5100 L 116.0603,360.4682 L 116.2687,359.4264 L 116.2687,358.3846 L 116.3729,357.3427 L 116.3729,356.3009 L 116.6854,355.3633 L 116.7896,354.3215 L 116.7896,353.2797 L 116.8938,352.2378 L 116.9980,351.1960 L 116.9980,350.1542 L 116.9980,349.1124 L 116.9980,348.0706 L 117.1022,347.0288 L 117.2064,346.0911 L 117.2064,345.0493 L 117.2064,344.0075 L 117.6231,342.9657 L 117.8315,341.9239 L 118.0398,340.8821 L 118.0398,339.8402 L 118.1440,338.7984 L 118.1440,337.7566 L 118.2482,336.8190 L 118.3524,335.7772 L 118.4566,334.7353 L 118.4566,333.6935 L 118.4566,332.6517 L 118.6649,331.6099 L 118.7691,330.5681 L 118.7691,329.5263 L 118.9775,328.5886 L 118.9775,327.5468 L 119.0817,326.5050 L 119.1858,325.4632 L 119.2900,324.4214 L 119.2900,323.3796 L 119.3942,322.3377 L 119.4984,321.2959 L 119.7068,320.2541 L 119.7068,319.3165 L 119.7068,318.2747 L 119.9151,317.2328 L 120.0193,316.1910 L 120.0193,315.1492 L 120.0193,314.1074 L 120.0193,313.0656 L 120.0193,312.0238 L 120.1235,310.9820 L 120.1235,310.0443 L 120.2277,309.0025 L 120.3319,307.9607 L 120.4360,306.9189 L 120.5402,305.8771 L 120.7486,304.8352 L 120.7486,303.7934 L 120.8528,302.7516 L 120.9570,301.8140 L 120.9570,300.7722 L 120.9570,299.7303 L 121.1653,298.6885 L 121.3737,297.6467 L 121.3737,296.6049 L 121.3737,295.5631 L 121.4779,294.5213 L 121.5821,293.4794 L 121.6862,292.5418 L 121.6862,291.5000 L 121.6862,290.4582 L 121.7904,289.4164 L 121.7904,288.3746 L 121.8946,287.3327 L 121.9988,286.2909 L 121.9988,285.2491 L 122.2072,284.2073 L 122.2072,283.2697 L 122.3113,282.2278 L 122.3113,281.1860 L 122.4155,280.1442 L 122.5197,279.1024 L 122.6239,278.0606 L 122.7281,277.0188 L 122.7281,275.9769 L 122.7281,275.0393 L 122.8323,273.9975 L 122.9364,272.9557 L 123.0406,271.9139 L 123.0406,270.8721 L 123.0406,269.8302 L 123.1448,268.7884 L 123.1448,267.7466 L 123.1448,266.7048 L 123.2490,265.7672 L 123.3532,264.7253 L 123.4574,263.6835 L 123.4574,262.6417 L 123.5615,261.5999 L 123.5615,260.5581 L 123.6657,259.5163 L 123.7699,258.4744 L 123.8741,257.4326 L 123.8741,256.4950 L 123.9783,255.4532 L 123.9783,254.4114 L 124.2908,253.3695 L 124.2908,252.3277 L 124.3950,251.2859 L 124.3950,250.2441 L 124.4992,249.2023 L 124.4992,248.2647 L 124.6034,247.2228 L 124.7076,246.1810 L 124.7076,245.1392 L 124.9159,244.0974 L 124.9159,243.0556 L 125.0201,242.0138 L 125.1243,240.9719 L 125.1243,239.9301 L 125.1243,238.9925 L 125.3327,237.9507 L 125.3327,236.9089 L 125.5410,235.8670 L 125.5410,234.8252 L 125.6452,233.7834 L 125.6452,232.7416 L 125.7494,231.6998 L 125.8536,230.6580 L 125.8536,229.7203 L 126.0619,228.6785 L 126.0619,227.6367 L 126.2703,226.5949 L 126.2703,225.5531 L 126.3745,224.5113 L 126.5829,223.4694 L 126.6870,222.4276 L 126.9996,221.4900 L 127.1038,220.4482 L 127.2080,219.4064 L 127.3121,218.3645 L 127.4163,217.3227 L 127.4163,216.2809 L 127.4163,215.2391 L 127.5205,214.1973 L 127.6247,213.1555 L 127.6247,212.2178 L 127.7289,211.1760 L 127.8331,210.1342 L 128.1456,209.0924 L 128.4582,208.0506 L 128.4582,207.0088 L 128.5623,205.9669 L 128.6665,204.9251 L 128.8749,203.8833 L 128.9791,202.9457 L 129.2916,201.9039 L 129.3958,200.8620 L 129.9167,199.8202 L 130.0209,198.7784 L 130.0209,197.7366 L 130.5418,196.6948 L 130.5418,195.6530 L 131.0628,194.7153 L 131.4795,193.6735 L 131.5837,192.6317 L 131.7920,191.5899 L 131.7920,190.5481 L 132.0004,189.5063 L 132.2088,188.4644 L 132.2088,187.4226 L 132.2088,186.3808 L 132.3130,185.4432 L 132.3130,184.4014 L 132.4171,183.3595 L 132.4171,182.3177 L 132.4171,181.2759 L 132.6255,180.2341 L 132.9381,179.1923 L 133.0422,178.1505 L 133.0422,177.1086 L 133.1464,176.1710 L 133.2506,175.1292 L 133.3548,174.0874 L 133.3548,173.0456 L 133.7715,172.0038 L 134.0841,170.9619 L 134.5008,169.9201 L 134.5008,168.8783 L 134.6050,167.9407 L 134.7092,166.8989 L 134.7092,165.8570 L 134.8134,164.8152 L 134.9175,163.7734 L 135.0217,162.7316 L 136.1677,161.6898 L 136.2719,160.6480 L 136.5845,159.6061 L 136.7928,158.6685 L 137.0012,157.6267 L 137.1054,156.5849 L 137.1054,155.5431 L 137.3138,154.5013 L 137.7305,153.4594 L 137.8347,152.4176 L 138.2514,151.3758 L 138.4598,150.3340 L 138.6681,149.3964 L 138.7723,148.3545 L 138.8765,147.3127 L 138.9807,146.2709 L 139.1891,145.2291 L 139.2932,144.1873 L 139.2932,143.1455 L 139.5016,142.1036 L 139.8142,141.1660 L 139.9183,140.1242 L 140.6476,139.0824 L 140.9602,138.0406 L 141.4811,136.9987 L 141.5853,135.9569 L 141.7936,134.9151 L 141.7936,133.8733 L 142.2104,132.8315 L 142.4187,131.8939 L 142.5229,130.8520 L 143.1480,129.8102 L 143.3564,128.7684 L 143.5648,127.7266 L 143.6689,126.6848 L 143.6689,125.6430 L 144.2940,124.6011 L 144.5024,123.5593 L 144.6066,122.6217 L 144.8150,121.5799 L 145.0233,120.5381 L 145.0233,119.4962 L 145.1275,118.4544 L 145.7526,117.4126 L 145.9610,116.3708 L 146.5861,115.3290 L 146.7944,114.3914 L 147.5237,113.3495 L 147.9405,112.3077 L 147.9405,111.2659 L 149.7116,110.2241 L 149.8158,109.1823 L 150.1283,108.1405 L 150.7534,107.0986 L 151.1702,106.0568 L 151.7953,105.1192 L 152.0036,104.0774 L 152.3162,103.0356 L 152.5245,101.9937 L 153.6706,100.9519 L 154.2957,99.9101 L 154.3998,98.8683 L 154.3998,97.8265 L 154.5040,96.7847 L 154.5040,95.8470 L 154.7124,94.8052 L 154.8166,93.7634 L 155.2333,92.7216 L 155.4417,91.6798 L 155.9626,90.6380 L 155.9626,89.5961 L 156.3793,88.5543 L 157.2128,87.6167 L 157.5253,86.5749 L 157.8379,85.5331 L 158.0463,84.4912 L 158.2546,83.4494 L 158.4630,82.4076 L 159.0881,81.3658 L 159.0881,80.3240 L 159.4006,79.2822 L 159.7132,78.3445 L 162.3178,77.3027 L 163.7763,76.2609 L 164.0889,75.2191 L 164.2973,74.1773 L 165.2349,73.1355 L 165.7558,72.0936 L 166.2767,71.0518 L 170.2357,70.0100 L 170.3399,69.0724 L 173.7780,68.0306 L 174.2989,66.9887 L 178.3620,65.9469 L 179.0913,64.9051 L 180.5499,63.8633 L 181.0708,62.8215 L 182.2168,61.7797 L 186.1758,60.8420 L 186.3842,59.8002 L 189.1971,58.7584 L 192.2184,57.7166 L 195.2397,56.6748 L 200.9698,55.6330 L 230.7663,54.5911 L 237.2257,53.5493 L 248.7900,52.5075 L 257.9582,51.5699 L 301.4027,50.5281 L 334.9497,49.4862 L 704.2800,48.5486 " stroke="#FF0000" stroke-width="1.3544"  stroke-linecap="butt"  stroke-linejoin="round" fill="none" />
<path d="M 693.1323,103.7648 L 693.1323,103.7648 L 693.1323,54.3828 L 499.9763,54.3828 L 499.9763,103.7648 L 693.1323,103.7648 Z "  fill="#FFFFFF" stroke="none" />
<text  clip-path="url(#clip-1804289383)" font-family="Helvetica" fill="#000000" style ="white-space:pre;" font-weight="400" text-anchor="start" x="551.4429" y="74.9065" font-size="18.0237" ><![CDATA[All UEs]]></text>
<path d="M 505.6022,67.9264 L 505.6022,67.9264 L 547.2755,67.9264 " stroke="#0072BD" stroke-width="1.3544"  stroke-linecap="butt"  stroke-linejoin="round" fill="none" />
<text  clip-path="url(#clip-1804289383)" font-family="Helvetica" fill="#000000" style ="white-space:pre;" font-weight="400" text-anchor="start" x="551.4429" y="97.2014" font-size="18.0237" ><![CDATA[Convex Hull UEs]]></text>
<path d="M 505.6022,90.2212 L 505.6022,90.2212 L 547.2755,90.2212 " stroke="#FF0000" stroke-width="1.3544"  stroke-linecap="butt"  stroke-linejoin="round" fill="none" />
<path d="M 499.9763,103.7648 L 499.9763,103.7648 L 499.9763,54.3828 L 693.1323,54.3828 L 693.1323,103.7648 L 499.9763,103.7648 Z " stroke="#262626" stroke-width="1px"  stroke-linecap="butt"  stroke-linejoin="miter"  stroke-miterlimit="10.0000" fill="none" />
</g>
</svg>
