<?xml version="1.0"  encoding="UTF-8" standalone="no"?>
<svg version="1.1" xmlns="http://www.w3.org/2000/svg" xmlns:xlink="http://www.w3.org/1999/xlink" width="776.0000" height="582.0000">
<g transform="translate(-0.0000, -0.0000)">
<path d="M 0.0000,0.0000 L 0.0000,0.0000 L 0.0000,583.8335 L 777.8335,583.8335 L 777.8335,0.0000 " fill="none" stroke="none" />
<defs><clipPath id="clip-1804289383"><path d="M 0.0000,0.0000 L 0.0000,0.0000 L 0.0000,583.8335 L 777.8335,583.8335 L 777.8335,0.0000 Z" /></clipPath></defs>
<path d="M 101.3705,519.0325 L 101.3705,519.0325 L 704.1758,519.0325 L 704.1758,43.3395 L 101.3705,43.3395 L 101.3705,519.0325 Z "  fill="#FFFFFF" stroke="none" />
<path d="M 101.3705,519.0325 L 101.3705,519.0325 L 704.1758,519.0325 " stroke="#262626" stroke-width="1px"  stroke-linecap="square"  stroke-linejoin="round" fill="none" />
<path d="M 101.3705,519.0325 L 101.3705,519.0325 L 101.3705,512.9900 " stroke="#262626" stroke-width="1px"  stroke-linecap="square"  stroke-linejoin="round" fill="none" />
<path d="M 161.5885,519.0325 L 161.5885,519.0325 L 161.5885,512.9900 " stroke="#262626" stroke-width="1px"  stroke-linecap="square"  stroke-linejoin="round" fill="none" />
<path d="M 221.9107,519.0325 L 221.9107,519.0325 L 221.9107,512.9900 " stroke="#262626" stroke-width="1px"  stroke-linecap="square"  stroke-linejoin="round" fill="none" />
<path d="M 282.2329,519.0325 L 282.2329,519.0325 L 282.2329,512.9900 " stroke="#262626" stroke-width="1px"  stroke-linecap="square"  stroke-linejoin="round" fill="none" />
<path d="M 342.5551,519.0325 L 342.5551,519.0325 L 342.5551,512.9900 " stroke="#262626" stroke-width="1px"  stroke-linecap="square"  stroke-linejoin="round" fill="none" />
<path d="M 402.7731,519.0325 L 402.7731,519.0325 L 402.7731,512.9900 " stroke="#262626" stroke-width="1px"  stroke-linecap="square"  stroke-linejoin="round" fill="none" />
<path d="M 463.0953,519.0325 L 463.0953,519.0325 L 463.0953,512.9900 " stroke="#262626" stroke-width="1px"  stroke-linecap="square"  stroke-linejoin="round" fill="none" />
<path d="M 523.3134,519.0325 L 523.3134,519.0325 L 523.3134,512.9900 " stroke="#262626" stroke-width="1px"  stroke-linecap="square"  stroke-linejoin="round" fill="none" />
<path d="M 583.6356,519.0325 L 583.6356,519.0325 L 583.6356,512.9900 " stroke="#262626" stroke-width="1px"  stroke-linecap="square"  stroke-linejoin="round" fill="none" />
<path d="M 643.9578,519.0325 L 643.9578,519.0325 L 643.9578,512.9900 " stroke="#262626" stroke-width="1px"  stroke-linecap="square"  stroke-linejoin="round" fill="none" />
<path d="M 704.1758,519.0325 L 704.1758,519.0325 L 704.1758,512.9900 " stroke="#262626" stroke-width="1px"  stroke-linecap="square"  stroke-linejoin="round" fill="none" />
<text  clip-path="url(#clip-1804289383)" font-family="Helvetica" fill="#262626" style ="white-space:pre;" font-weight="400" text-anchor="start" x="95.8488" y="543.5152" font-size="18.0237" ><![CDATA[0]]></text>
<text  clip-path="url(#clip-1804289383)" font-family="Helvetica" fill="#262626" style ="white-space:pre;" font-weight="400" text-anchor="start" x="156.1710" y="543.5152" font-size="18.0237" ><![CDATA[5]]></text>
<text  clip-path="url(#clip-1804289383)" font-family="Helvetica" fill="#262626" style ="white-space:pre;" font-weight="400" text-anchor="start" x="211.5965" y="543.5152" font-size="18.0237" ><![CDATA[10]]></text>
<text  clip-path="url(#clip-1804289383)" font-family="Helvetica" fill="#262626" style ="white-space:pre;" font-weight="400" text-anchor="start" x="271.8146" y="543.5152" font-size="18.0237" ><![CDATA[15]]></text>
<text  clip-path="url(#clip-1804289383)" font-family="Helvetica" fill="#262626" style ="white-space:pre;" font-weight="400" text-anchor="start" x="332.1368" y="543.5152" font-size="18.0237" ><![CDATA[20]]></text>
<text  clip-path="url(#clip-1804289383)" font-family="Helvetica" fill="#262626" style ="white-space:pre;" font-weight="400" text-anchor="start" x="392.4590" y="543.5152" font-size="18.0237" ><![CDATA[25]]></text>
<text  clip-path="url(#clip-1804289383)" font-family="Helvetica" fill="#262626" style ="white-space:pre;" font-weight="400" text-anchor="start" x="452.6770" y="543.5152" font-size="18.0237" ><![CDATA[30]]></text>
<text  clip-path="url(#clip-1804289383)" font-family="Helvetica" fill="#262626" style ="white-space:pre;" font-weight="400" text-anchor="start" x="512.9992" y="543.5152" font-size="18.0237" ><![CDATA[35]]></text>
<text  clip-path="url(#clip-1804289383)" font-family="Helvetica" fill="#262626" style ="white-space:pre;" font-weight="400" text-anchor="start" x="573.3214" y="543.5152" font-size="18.0237" ><![CDATA[40]]></text>
<text  clip-path="url(#clip-1804289383)" font-family="Helvetica" fill="#262626" style ="white-space:pre;" font-weight="400" text-anchor="start" x="633.5394" y="543.5152" font-size="18.0237" ><![CDATA[45]]></text>
<text  clip-path="url(#clip-1804289383)" font-family="Helvetica" fill="#262626" style ="white-space:pre;" font-weight="400" text-anchor="start" x="693.8616" y="543.5152" font-size="18.0237" ><![CDATA[50]]></text>
<text  clip-path="url(#clip-1804289383)" font-family="Helvetica" fill="#262626" style ="white-space:pre;" font-weight="400" text-anchor="start" x="265.9803" y="567.8937" font-size="19.7949" ><![CDATA[Horizontal positioning error [m]]]></text>
<path d="M 101.3705,519.0325 L 101.3705,519.0325 L 101.3705,43.3395 " stroke="#262626" stroke-width="1px"  stroke-linecap="square"  stroke-linejoin="round" fill="none" />
<path d="M 101.3705,519.0325 L 101.3705,519.0325 L 107.4131,519.0325 " stroke="#262626" stroke-width="1px"  stroke-linecap="square"  stroke-linejoin="round" fill="none" />
<path d="M 101.3705,471.5257 L 101.3705,471.5257 L 107.4131,471.5257 " stroke="#262626" stroke-width="1px"  stroke-linecap="square"  stroke-linejoin="round" fill="none" />
<path d="M 101.3705,423.9148 L 101.3705,423.9148 L 107.4131,423.9148 " stroke="#262626" stroke-width="1px"  stroke-linecap="square"  stroke-linejoin="round" fill="none" />
<path d="M 101.3705,376.3038 L 101.3705,376.3038 L 107.4131,376.3038 " stroke="#262626" stroke-width="1px"  stroke-linecap="square"  stroke-linejoin="round" fill="none" />
<path d="M 101.3705,328.7970 L 101.3705,328.7970 L 107.4131,328.7970 " stroke="#262626" stroke-width="1px"  stroke-linecap="square"  stroke-linejoin="round" fill="none" />
<path d="M 101.3705,281.1860 L 101.3705,281.1860 L 107.4131,281.1860 " stroke="#262626" stroke-width="1px"  stroke-linecap="square"  stroke-linejoin="round" fill="none" />
<path d="M 101.3705,233.5751 L 101.3705,233.5751 L 107.4131,233.5751 " stroke="#262626" stroke-width="1px"  stroke-linecap="square"  stroke-linejoin="round" fill="none" />
<path d="M 101.3705,186.0683 L 101.3705,186.0683 L 107.4131,186.0683 " stroke="#262626" stroke-width="1px"  stroke-linecap="square"  stroke-linejoin="round" fill="none" />
<path d="M 101.3705,138.4573 L 101.3705,138.4573 L 107.4131,138.4573 " stroke="#262626" stroke-width="1px"  stroke-linecap="square"  stroke-linejoin="round" fill="none" />
<path d="M 101.3705,90.8463 L 101.3705,90.8463 L 107.4131,90.8463 " stroke="#262626" stroke-width="1px"  stroke-linecap="square"  stroke-linejoin="round" fill="none" />
<path d="M 101.3705,43.3395 L 101.3705,43.3395 L 107.4131,43.3395 " stroke="#262626" stroke-width="1px"  stroke-linecap="square"  stroke-linejoin="round" fill="none" />
<text  clip-path="url(#clip-1804289383)" font-family="Helvetica" fill="#262626" style ="white-space:pre;" font-weight="400" text-anchor="start" x="83.8677" y="526.0127" font-size="18.0237" ><![CDATA[0]]></text>
<text  clip-path="url(#clip-1804289383)" font-family="Helvetica" fill="#262626" style ="white-space:pre;" font-weight="400" text-anchor="start" x="74.1786" y="478.5059" font-size="18.0237" ><![CDATA[10]]></text>
<text  clip-path="url(#clip-1804289383)" font-family="Helvetica" fill="#262626" style ="white-space:pre;" font-weight="400" text-anchor="start" x="74.1786" y="430.8949" font-size="18.0237" ><![CDATA[20]]></text>
<text  clip-path="url(#clip-1804289383)" font-family="Helvetica" fill="#262626" style ="white-space:pre;" font-weight="400" text-anchor="start" x="74.1786" y="383.2840" font-size="18.0237" ><![CDATA[30]]></text>
<text  clip-path="url(#clip-1804289383)" font-family="Helvetica" fill="#262626" style ="white-space:pre;" font-weight="400" text-anchor="start" x="74.1786" y="335.7772" font-size="18.0237" ><![CDATA[40]]></text>
<text  clip-path="url(#clip-1804289383)" font-family="Helvetica" fill="#262626" style ="white-space:pre;" font-weight="400" text-anchor="start" x="74.1786" y="288.1662" font-size="18.0237" ><![CDATA[50]]></text>
<text  clip-path="url(#clip-1804289383)" font-family="Helvetica" fill="#262626" style ="white-space:pre;" font-weight="400" text-anchor="start" x="74.1786" y="240.5552" font-size="18.0237" ><![CDATA[60]]></text>
<text  clip-path="url(#clip-1804289383)" font-family="Helvetica" fill="#262626" style ="white-space:pre;" font-weight="400" text-anchor="start" x="74.1786" y="193.0484" font-size="18.0237" ><![CDATA[70]]></text>
<text  clip-path="url(#clip-1804289383)" font-family="Helvetica" fill="#262626" style ="white-space:pre;" font-weight="400" text-anchor="start" x="74.1786" y="145.4375" font-size="18.0237" ><![CDATA[80]]></text>
<text  clip-path="url(#clip-1804289383)" font-family="Helvetica" fill="#262626" style ="white-space:pre;" font-weight="400" text-anchor="start" x="74.1786" y="97.8265" font-size="18.0237" ><![CDATA[90]]></text>
<text  clip-path="url(#clip-1804289383)" font-family="Helvetica" fill="#262626" style ="white-space:pre;" font-weight="400" text-anchor="start" x="64.4895" y="50.3197" font-size="18.0237" ><![CDATA[100]]></text>
<text  clip-path="url(#clip-1804289383)" font-family="Helvetica" fill="#262626" transform="rotate(-90, 54.6963, 364.3232) translate(0, 17.8154)" style ="white-space:pre;" font-weight="400" text-anchor="start" x="54.6963" y="346.5079" font-size="19.7949" ><![CDATA[P]]></text>
<text  clip-path="url(#clip-1804289383)" font-family="Helvetica" fill="#262626" transform="rotate(-90, 54.6963, 351.0922) translate(0, 17.8154)" style ="white-space:pre;" font-weight="400" text-anchor="start" x="54.6963" y="333.2768" font-size="19.7949" ><![CDATA[r]]></text>
<text  clip-path="url(#clip-1804289383)" font-family="Helvetica" fill="#262626" transform="rotate(-90, 54.6963, 344.4246) translate(0, 17.8154)" style ="white-space:pre;" font-weight="400" text-anchor="start" x="54.6963" y="326.6092" font-size="19.7949" ><![CDATA[o]]></text>
<text  clip-path="url(#clip-1804289383)" font-family="Helvetica" fill="#262626" transform="rotate(-90, 54.6963, 333.3813) translate(0, 17.8154)" style ="white-space:pre;" font-weight="400" text-anchor="start" x="54.6963" y="315.5659" font-size="19.7949" ><![CDATA[b]]></text>
<text  clip-path="url(#clip-1804289383)" font-family="Helvetica" fill="#262626" transform="rotate(-90, 54.6963, 322.3381) translate(0, 17.8154)" style ="white-space:pre;" font-weight="400" text-anchor="start" x="54.6963" y="304.5227" font-size="19.7949" ><![CDATA[a]]></text>
<text  clip-path="url(#clip-1804289383)" font-family="Helvetica" fill="#262626" transform="rotate(-90, 54.6963, 311.2948) translate(0, 17.8154)" style ="white-space:pre;" font-weight="400" text-anchor="start" x="54.6963" y="293.4794" font-size="19.7949" ><![CDATA[b]]></text>
<text  clip-path="url(#clip-1804289383)" font-family="Helvetica" fill="#262626" transform="rotate(-90, 54.6963, 300.2516) translate(0, 17.8154)" style ="white-space:pre;" font-weight="400" text-anchor="start" x="54.6963" y="282.4362" font-size="19.7949" ><![CDATA[i]]></text>
<text  clip-path="url(#clip-1804289383)" font-family="Helvetica" fill="#262626" transform="rotate(-90, 54.6963, 295.8759) translate(0, 17.8154)" style ="white-space:pre;" font-weight="400" text-anchor="start" x="54.6963" y="278.0606" font-size="19.7949" ><![CDATA[l]]></text>
<text  clip-path="url(#clip-1804289383)" font-family="Helvetica" fill="#262626" transform="rotate(-90, 54.6963, 291.5003) translate(0, 17.8154)" style ="white-space:pre;" font-weight="400" text-anchor="start" x="54.6963" y="273.6850" font-size="19.7949" ><![CDATA[i]]></text>
<text  clip-path="url(#clip-1804289383)" font-family="Helvetica" fill="#262626" transform="rotate(-90, 54.6963, 287.0205) translate(0, 17.8154)" style ="white-space:pre;" font-weight="400" text-anchor="start" x="54.6963" y="269.2051" font-size="19.7949" ><![CDATA[t]]></text>
<text  clip-path="url(#clip-1804289383)" font-family="Helvetica" fill="#262626" transform="rotate(-90, 54.6963, 281.4989) translate(0, 17.8154)" style ="white-space:pre;" font-weight="400" text-anchor="start" x="54.6963" y="263.6835" font-size="19.7949" ><![CDATA[y]]></text>
<text  clip-path="url(#clip-1804289383)" font-family="Helvetica" fill="#262626" transform="rotate(-90, 54.6963, 271.6016) translate(0, 17.8154)" style ="white-space:pre;" font-weight="400" text-anchor="start" x="54.6963" y="253.7863" font-size="19.7949" ><![CDATA[ ]]></text>
<text  clip-path="url(#clip-1804289383)" font-family="Helvetica" fill="#262626" transform="rotate(-90, 54.6963, 266.0800) translate(0, 17.8154)" style ="white-space:pre;" font-weight="400" text-anchor="start" x="54.6963" y="248.2647" font-size="19.7949" ><![CDATA[[]]></text>
<text  clip-path="url(#clip-1804289383)" font-family="Helvetica" fill="#262626" transform="rotate(-90, 54.6963, 260.5584) translate(0, 17.8154)" style ="white-space:pre;" font-weight="400" text-anchor="start" x="54.6963" y="242.7430" font-size="19.7949" ><![CDATA[%]]></text>
<text  clip-path="url(#clip-1804289383)" font-family="Helvetica" fill="#262626" transform="rotate(-90, 54.6963, 242.8475) translate(0, 17.8154)" style ="white-space:pre;" font-weight="400" text-anchor="start" x="54.6963" y="225.0322" font-size="19.7949" ><![CDATA[]]]></text>
<text  clip-path="url(#clip-1804289383)" font-family="Helvetica Bold" fill="#000000" style ="white-space:pre;" font-weight="700" text-anchor="start" x="185.4465" y="35.3175" font-size="19.7949" ><![CDATA[InF-DH, 3.5 GHz, 100 MHz, comb-2, 2 symbols]]></text>
<path d="M 101.4747,518.4074 L 101.4747,518.4074 L 101.4747,517.8865 L 101.4747,517.2614 L 101.5788,516.6363 L 101.5788,516.1154 L 101.5788,515.4904 L 101.5788,514.8653 L 101.5788,514.3444 L 101.5788,513.7193 L 101.5788,513.0942 L 101.5788,512.4691 L 101.6830,511.9482 L 101.6830,511.3231 L 101.6830,510.6980 L 101.6830,510.1771 L 101.6830,509.5520 L 101.6830,508.9269 L 101.6830,508.3018 L 101.6830,507.7809 L 101.7872,507.1558 L 101.7872,506.5307 L 101.7872,506.0098 L 101.7872,505.3847 L 101.7872,504.7596 L 101.7872,504.1346 L 101.7872,503.6137 L 101.8914,502.9886 L 101.8914,502.3635 L 101.8914,501.8426 L 101.8914,501.2175 L 101.8914,500.5924 L 101.8914,499.9673 L 101.8914,499.4464 L 101.8914,498.8213 L 101.8914,498.1962 L 101.8914,497.6753 L 101.8914,497.0502 L 101.9956,496.4251 L 101.9956,495.9042 L 101.9956,495.2791 L 101.9956,494.6540 L 101.9956,494.0289 L 101.9956,493.5080 L 101.9956,492.8830 L 101.9956,492.2579 L 101.9956,491.7370 L 101.9956,491.1119 L 102.0998,490.4868 L 102.0998,489.8617 L 102.0998,489.3408 L 102.0998,488.7157 L 102.0998,488.0906 L 102.0998,487.5697 L 102.0998,486.9446 L 102.0998,486.3195 L 102.0998,485.6944 L 102.0998,485.1735 L 102.0998,484.5484 L 102.0998,483.9233 L 102.0998,483.4024 L 102.0998,482.7773 L 102.0998,482.1523 L 102.0998,481.6313 L 102.2039,481.0063 L 102.2039,480.3812 L 102.2039,479.7561 L 102.2039,479.2352 L 102.2039,478.6101 L 102.2039,477.9850 L 102.2039,477.4641 L 102.2039,476.8390 L 102.2039,476.2139 L 102.2039,475.5888 L 102.2039,475.0679 L 102.3081,474.4428 L 102.3081,473.8177 L 102.3081,473.2968 L 102.3081,472.6717 L 102.3081,472.0466 L 102.3081,471.5257 L 102.3081,470.9006 L 102.3081,470.2756 L 102.3081,469.6505 L 102.3081,469.1296 L 102.3081,468.5045 L 102.3081,467.8794 L 102.3081,467.3585 L 102.3081,466.7334 L 102.3081,466.1083 L 102.3081,465.4832 L 102.3081,464.9623 L 102.3081,464.3372 L 102.3081,463.7121 L 102.4123,463.1912 L 102.4123,462.5661 L 102.4123,461.9410 L 102.4123,461.3159 L 102.4123,460.7950 L 102.4123,460.1699 L 102.4123,459.5449 L 102.4123,459.0239 L 102.4123,458.3989 L 102.4123,457.7738 L 102.5165,457.2529 L 102.5165,456.6278 L 102.5165,456.0027 L 102.5165,455.3776 L 102.6207,454.8567 L 102.6207,454.2316 L 102.6207,453.6065 L 102.6207,453.0856 L 102.6207,452.4605 L 102.6207,451.8354 L 102.6207,451.2103 L 102.6207,450.6894 L 102.6207,450.0643 L 102.7249,449.4392 L 102.7249,448.9183 L 102.8290,448.2932 L 102.8290,447.6682 L 102.8290,447.0431 L 102.8290,446.5222 L 102.8290,445.8971 L 102.9332,445.2720 L 102.9332,444.7511 L 102.9332,444.1260 L 102.9332,443.5009 L 103.0374,442.9800 L 103.0374,442.3549 L 103.0374,441.7298 L 103.0374,441.1047 L 103.0374,440.5838 L 103.0374,439.9587 L 103.0374,439.3336 L 103.0374,438.8127 L 103.0374,438.1876 L 103.1416,437.5625 L 103.1416,436.9375 L 103.1416,436.4165 L 103.1416,435.7915 L 103.1416,435.1664 L 103.1416,434.6455 L 103.2458,434.0204 L 103.3500,433.3953 L 103.3500,432.7702 L 103.3500,432.2493 L 103.3500,431.6242 L 103.3500,430.9991 L 103.3500,430.4782 L 103.3500,429.8531 L 103.3500,429.2280 L 103.4541,428.6029 L 103.4541,428.0820 L 103.4541,427.4569 L 103.4541,426.8318 L 103.5583,426.3109 L 103.5583,425.6858 L 103.5583,425.0608 L 103.5583,424.5398 L 103.5583,423.9148 L 103.5583,423.2897 L 103.6625,422.6646 L 103.6625,422.1437 L 103.6625,421.5186 L 103.7667,420.8935 L 103.7667,420.3726 L 103.7667,419.7475 L 103.7667,419.1224 L 103.8709,418.4973 L 103.9751,417.9764 L 103.9751,417.3513 L 103.9751,416.7262 L 103.9751,416.2053 L 103.9751,415.5802 L 103.9751,414.9551 L 104.0792,414.3301 L 104.0792,413.8091 L 104.1834,413.1841 L 104.1834,412.5590 L 104.2876,412.0381 L 104.4960,411.4130 L 104.4960,410.7879 L 104.4960,410.2670 L 104.6002,409.6419 L 104.6002,409.0168 L 104.7043,408.3917 L 104.8085,407.8708 L 104.8085,407.2457 L 104.9127,406.6206 L 105.1211,406.0997 L 105.1211,405.4746 L 105.1211,404.8495 L 105.2253,404.2244 L 105.2253,403.7035 L 105.2253,403.0784 L 105.3294,402.4534 L 105.4336,401.9325 L 105.5378,401.3074 L 105.5378,400.6823 L 105.5378,400.1614 L 105.5378,399.5363 L 105.5378,398.9112 L 105.8504,398.2861 L 105.8504,397.7652 L 106.0587,397.1401 L 106.0587,396.5150 L 106.0587,395.9941 L 106.2671,395.3690 L 106.2671,394.7439 L 106.2671,394.1188 L 106.3713,393.5979 L 106.3713,392.9728 L 106.5796,392.3477 L 106.7880,391.8268 L 106.8922,391.2018 L 106.8922,390.5767 L 106.8922,389.9516 L 106.8922,389.4307 L 107.1006,388.8056 L 107.1006,388.1805 L 107.1006,387.6596 L 107.1006,387.0345 L 107.3089,386.4094 L 107.3089,385.8885 L 107.4131,385.2634 L 107.4131,384.6383 L 107.6215,384.0132 L 107.7257,383.4923 L 107.7257,382.8672 L 108.0382,382.2421 L 108.1424,381.7212 L 108.5591,381.0961 L 108.6633,380.4711 L 108.8717,379.8460 L 108.8717,379.3251 L 109.0800,378.7000 L 109.2884,378.0749 L 109.2884,377.5540 L 109.7051,376.9289 L 109.9135,376.3038 L 110.0177,375.6787 L 110.3302,375.1578 L 110.3302,374.5327 L 110.6428,373.9076 L 110.6428,373.3867 L 110.6428,372.7616 L 110.7470,372.1365 L 110.7470,371.6156 L 110.9553,370.9905 L 111.0595,370.3654 L 111.2679,369.7404 L 111.2679,369.2194 L 111.3721,368.5944 L 111.3721,367.9693 L 111.6846,367.4484 L 111.8930,366.8233 L 111.9972,366.1982 L 111.9972,365.5731 L 111.9972,365.0522 L 112.1014,364.4271 L 112.1014,363.8020 L 112.2056,363.2811 L 112.2056,362.6560 L 112.3097,362.0309 L 112.5181,361.4058 L 112.7265,360.8849 L 112.8307,360.2598 L 113.1432,359.6347 L 113.3516,359.1138 L 113.7683,358.4887 L 114.0809,357.8637 L 114.2892,357.2386 L 114.8101,356.7177 L 114.9143,356.0926 L 114.9143,355.4675 L 115.2269,354.9466 L 115.5394,354.3215 L 115.7478,353.6964 L 115.7478,353.1755 L 115.8520,352.5504 L 115.9562,351.9253 L 115.9562,351.3002 L 115.9562,350.7793 L 116.0603,350.1542 L 116.0603,349.5291 L 116.0603,349.0082 L 116.1645,348.3831 L 116.1645,347.7580 L 116.3729,347.1330 L 116.5813,346.6120 L 116.6854,345.9870 L 117.1022,345.3619 L 117.2064,344.8410 L 117.2064,344.2159 L 117.7273,343.5908 L 117.9356,342.9657 L 118.0398,342.4448 L 118.1440,341.8197 L 118.6649,341.1946 L 119.2900,340.6737 L 119.4984,340.0486 L 119.6026,339.4235 L 119.8109,338.9026 L 119.9151,338.2775 L 120.0193,337.6524 L 120.0193,337.0273 L 120.1235,336.5064 L 120.4360,335.8813 L 121.1653,335.2563 L 121.1653,334.7353 L 121.2695,334.1103 L 121.3737,333.4852 L 121.4779,332.8601 L 121.8946,332.3392 L 121.8946,331.7141 L 121.8946,331.0890 L 121.9988,330.5681 L 122.1030,329.9430 L 122.4155,329.3179 L 122.6239,328.7970 L 122.7281,328.1719 L 122.8323,327.5468 L 122.9364,326.9217 L 123.0406,326.4008 L 123.1448,325.7757 L 123.9783,325.1506 L 124.2908,324.6297 L 124.6034,324.0046 L 124.7076,323.3796 L 124.7076,322.7545 L 124.8117,322.2336 L 125.0201,321.6085 L 125.2285,320.9834 L 125.4368,320.4625 L 125.8536,319.8374 L 125.9578,319.2123 L 125.9578,318.5872 L 126.0619,318.0663 L 126.0619,317.4412 L 126.2703,316.8161 L 126.6870,316.2952 L 126.7912,315.6701 L 126.8954,315.0450 L 126.9996,314.5241 L 127.7289,313.8990 L 127.9372,313.2739 L 128.0414,312.6489 L 128.0414,312.1279 L 128.1456,311.5029 L 128.2498,310.8778 L 128.4582,310.3569 L 128.8749,309.7318 L 129.5000,309.1067 L 129.8126,308.4816 L 129.8126,307.9607 L 130.1251,307.3356 L 130.2293,306.7105 L 130.6460,306.1896 L 130.7502,305.5645 L 130.7502,304.9394 L 130.7502,304.3143 L 130.9586,303.7934 L 130.9586,303.1683 L 130.9586,302.5432 L 131.0628,302.0223 L 131.2711,301.3972 L 131.6879,300.7722 L 132.4171,300.2513 L 132.7297,299.6262 L 132.7297,299.0011 L 132.9381,298.3760 L 132.9381,297.8551 L 133.2506,297.2300 L 133.2506,296.6049 L 133.5632,296.0840 L 133.6673,295.4589 L 133.8757,294.8338 L 133.9799,294.2087 L 134.0841,293.6878 L 134.2924,293.0627 L 134.3966,292.4376 L 134.6050,291.9167 L 135.2301,291.2916 L 135.3343,290.6665 L 135.4385,290.0415 L 135.5426,289.5206 L 135.7510,288.8955 L 135.7510,288.2704 L 135.8552,287.7495 L 135.9594,287.1244 L 136.0636,286.4993 L 136.2719,285.9784 L 136.6887,285.3533 L 136.8970,284.7282 L 137.2096,284.1031 L 137.4179,283.5822 L 137.6263,282.9571 L 137.7305,282.3320 L 137.9389,281.8111 L 137.9389,281.1860 L 138.0430,280.5609 L 138.2514,279.9358 L 138.4598,279.4149 L 138.4598,278.7898 L 138.7723,278.1648 L 138.8765,277.6439 L 139.5016,277.0188 L 139.5016,276.3937 L 139.5016,275.7686 L 139.7100,275.2477 L 139.7100,274.6226 L 139.8142,273.9975 L 140.0225,273.4766 L 140.0225,272.8515 L 140.1267,272.2264 L 140.2309,271.6013 L 140.3351,271.0804 L 140.3351,270.4553 L 140.3351,269.8302 L 140.4393,269.3093 L 140.5434,268.6842 L 140.5434,268.0591 L 141.1685,267.5382 L 141.3769,266.9132 L 141.6895,266.2881 L 141.7936,265.6630 L 142.4187,265.1421 L 142.6271,264.5170 L 142.7313,263.8919 L 143.1480,263.3710 L 143.2522,262.7459 L 143.3564,262.1208 L 143.4606,261.4957 L 143.6689,260.9748 L 143.9815,260.3497 L 144.0857,259.7246 L 144.1899,259.2037 L 144.1899,258.5786 L 144.6066,257.9535 L 144.8150,257.4326 L 145.1275,256.8075 L 145.2317,256.1825 L 145.3359,255.5574 L 145.7526,255.0365 L 145.7526,254.4114 L 146.0652,253.7863 L 146.0652,253.2654 L 146.4819,252.6403 L 146.5861,252.0152 L 146.6903,251.3901 L 146.6903,250.8692 L 146.7944,250.2441 L 146.7944,249.6190 L 147.2112,249.0981 L 147.4195,248.4730 L 147.4195,247.8479 L 147.4195,247.2228 L 147.5237,246.7019 L 147.8363,246.0768 L 148.0447,245.4518 L 148.1488,244.9308 L 148.4614,244.3058 L 148.6698,243.6807 L 148.9823,243.1598 L 148.9823,242.5347 L 149.0865,241.9096 L 149.0865,241.2845 L 149.1907,240.7636 L 149.6074,240.1385 L 149.8158,239.5134 L 149.9200,238.9925 L 150.1283,238.3674 L 150.1283,237.7423 L 150.3367,237.1172 L 150.4409,236.5963 L 150.4409,235.9712 L 150.4409,235.3461 L 150.7534,234.8252 L 150.8576,234.2001 L 150.9618,233.5751 L 150.9618,232.9500 L 151.3785,232.4291 L 151.5869,231.8040 L 151.6911,231.1789 L 151.8994,230.6580 L 152.1078,230.0329 L 152.4204,229.4078 L 152.8371,228.8869 L 152.8371,228.2618 L 152.9413,227.6367 L 153.1496,227.0116 L 153.3580,226.4907 L 153.4622,225.8656 L 153.5664,225.2405 L 153.7747,224.7196 L 153.9831,224.0945 L 153.9831,223.4694 L 154.2957,222.8444 L 154.2957,222.3234 L 154.2957,221.6984 L 154.6082,221.0733 L 154.6082,220.5524 L 154.7124,219.9273 L 154.9208,219.3022 L 155.1291,218.6771 L 155.3375,218.1562 L 155.9626,217.5311 L 156.0668,216.9060 L 156.0668,216.3851 L 156.3793,215.7600 L 156.3793,215.1349 L 156.9002,214.6140 L 157.7337,213.9889 L 158.0463,213.3638 L 158.3588,212.7387 L 158.6714,212.2178 L 158.7755,211.5927 L 158.8797,210.9677 L 158.9839,210.4467 L 158.9839,209.8217 L 159.1923,209.1966 L 159.2965,208.5715 L 159.4006,208.0506 L 160.6508,207.4255 L 160.7550,206.8004 L 160.8592,206.2795 L 160.8592,205.6544 L 160.8592,205.0293 L 161.0676,204.4042 L 161.3801,203.8833 L 161.6927,203.2582 L 162.0052,202.6331 L 162.3178,202.1122 L 162.3178,201.4871 L 162.4220,200.8620 L 162.5261,200.3411 L 162.9429,199.7160 L 163.1512,199.0910 L 163.1512,198.4659 L 163.4638,197.9450 L 163.9847,197.3199 L 164.7140,196.6948 L 164.9224,196.1739 L 165.0265,195.5488 L 165.3391,194.9237 L 165.4433,194.2986 L 165.5475,193.7777 L 165.7558,193.1526 L 165.8600,192.5275 L 165.9642,192.0066 L 166.2767,191.3815 L 167.4228,190.7564 L 167.6311,190.1313 L 167.9437,189.6104 L 167.9437,188.9853 L 168.6730,188.3603 L 168.8813,187.8393 L 168.9855,187.2143 L 168.9855,186.5892 L 169.1939,186.0683 L 169.5064,185.4432 L 170.0274,184.8181 L 170.1315,184.1930 L 170.3399,183.6721 L 170.5483,183.0470 L 171.0692,182.4219 L 171.0692,181.9010 L 171.4859,181.2759 L 171.6943,180.6508 L 171.6943,180.0257 L 171.7985,179.5048 L 171.9027,178.8797 L 172.1110,178.2546 L 172.3194,177.7337 L 172.3194,177.1086 L 172.4236,176.4836 L 172.5278,175.8585 L 172.6319,175.3376 L 173.0487,174.7125 L 173.1529,174.0874 L 173.3612,173.5665 L 173.7780,172.9414 L 173.7780,172.3163 L 173.9863,171.7954 L 174.5072,171.1703 L 174.9240,170.5452 L 175.2365,169.9201 L 175.3407,169.3992 L 175.6533,168.7741 L 175.8616,168.1490 L 176.2784,167.6281 L 176.7993,167.0030 L 176.9035,166.3779 L 177.2160,165.7529 L 177.3202,165.2320 L 177.7369,164.6069 L 177.8411,163.9818 L 177.9453,163.4609 L 178.8829,162.8358 L 180.4457,162.2107 L 180.7582,161.5856 L 181.1750,161.0647 L 181.1750,160.4396 L 181.6959,159.8145 L 181.9043,159.2936 L 181.9043,158.6685 L 182.4252,158.0434 L 182.6335,157.5225 L 182.8419,156.8974 L 183.0503,156.2723 L 183.0503,155.6472 L 184.8214,155.1263 L 185.3423,154.5013 L 186.3842,153.8762 L 187.0093,153.3553 L 187.5302,152.7302 L 187.8427,152.1051 L 187.9469,151.4800 L 188.3636,150.9591 L 189.6138,150.3340 L 190.3431,149.7089 L 190.3431,149.1880 L 191.4891,148.5629 L 191.5933,147.9378 L 191.8017,147.3127 L 191.9059,146.7918 L 193.1561,146.1667 L 193.6770,145.5416 L 193.7812,145.0207 L 194.1979,144.3956 L 194.6146,143.7706 L 195.4481,143.2496 L 195.4481,142.6246 L 195.4481,141.9995 L 195.6565,141.3744 L 195.9690,140.8535 L 196.0732,140.2284 L 196.4899,139.6033 L 196.6983,139.0824 L 196.8025,138.4573 L 196.9067,137.8322 L 197.3234,137.2071 L 198.7820,136.6862 L 198.8862,136.0611 L 199.9280,135.4360 L 200.2405,134.9151 L 200.3447,134.2900 L 200.4489,133.6649 L 200.8656,133.0398 L 201.0740,132.5189 L 201.4907,131.8939 L 201.6991,131.2688 L 202.1158,130.7479 L 202.1158,130.1228 L 203.9912,129.4977 L 205.1372,128.9768 L 205.5539,128.3517 L 205.6581,127.7266 L 205.7623,127.1015 L 205.9706,126.5806 L 207.3250,125.9555 L 207.8459,125.3304 L 209.0961,124.8095 L 209.2003,124.1844 L 209.7212,123.5593 L 209.8254,122.9342 L 209.9296,122.4133 L 210.0338,121.7882 L 210.4505,121.1632 L 210.5547,120.6422 L 210.9714,120.0172 L 211.8049,119.3921 L 212.0133,118.7670 L 212.4300,118.2461 L 212.5342,117.6210 L 213.8886,116.9959 L 215.0346,116.4750 L 215.4513,115.8499 L 215.6597,115.2248 L 216.7015,114.7039 L 216.9099,114.0788 L 217.3266,113.4537 L 218.4726,112.8286 L 218.7852,112.3077 L 219.0977,111.6826 L 219.8270,111.0575 L 221.0772,110.5366 L 222.4316,109.9115 L 223.4735,109.2865 L 223.5776,108.6614 L 227.4324,108.1405 L 227.6408,107.5154 L 228.1617,106.8903 L 228.2659,106.3694 L 229.2035,105.7443 L 231.3914,105.1192 L 232.1207,104.4941 L 232.6416,103.9732 L 232.7458,103.3481 L 233.5792,102.7230 L 237.2257,102.2021 L 240.5595,101.5770 L 243.5809,100.9519 L 244.8311,100.4310 L 248.2691,99.8059 L 248.6858,99.1808 L 254.2076,98.5558 L 254.6243,98.0348 L 257.7498,97.4098 L 258.8958,96.7847 L 262.1255,96.2638 L 262.2297,95.6387 L 265.0426,95.0136 L 265.3552,94.3885 L 267.7514,93.8676 L 269.7309,93.2425 L 270.5644,92.6174 L 275.7735,92.0965 L 276.3986,91.4714 L 276.8154,90.8463 L 276.8154,90.2212 L 280.3576,89.7003 L 283.6915,89.0752 L 285.0459,88.4501 L 287.9630,87.9292 L 289.1090,87.3041 L 292.9638,86.6791 L 293.9014,86.1581 L 297.7562,85.5331 L 298.5897,84.9080 L 306.2993,84.2829 L 308.4871,83.7620 L 310.1541,83.1369 L 315.3632,82.5118 L 315.8842,81.9909 L 317.3427,81.3658 L 317.5511,80.7407 L 319.9473,80.1156 L 323.1770,79.5947 L 330.7824,78.9696 L 332.1368,78.3445 L 336.3041,77.8236 L 340.6798,77.1985 L 342.9718,76.5734 L 343.7011,75.9484 L 344.4304,75.4274 L 353.4944,74.8024 L 356.0990,74.1773 L 356.3073,73.6564 L 357.9743,73.0313 L 358.7035,72.4062 L 364.1211,71.8853 L 373.1850,71.2602 L 378.3942,70.6351 L 385.4787,70.0100 L 387.2498,69.4891 L 407.5656,68.8640 L 417.8797,68.2389 L 440.1750,67.7180 L 444.7591,67.0929 L 444.9674,66.4678 L 453.0937,65.8427 L 459.5531,65.3218 L 462.8870,64.6967 L 467.0543,64.0717 L 474.1388,63.5508 L 477.5768,62.9257 L 477.9936,62.3006 L 480.9107,61.6755 L 491.5374,61.1546 L 498.3093,60.5295 L 499.0386,59.9044 L 500.0805,59.3835 L 500.8097,58.7584 L 513.5201,58.1333 L 517.3749,57.6124 L 540.5036,56.9873 L 552.6931,56.3622 L 644.0619,55.7371 L 662.9191,55.2162 L 679.6927,54.5911 L 704.2800,54.1744 " stroke="#0072BD" stroke-width="1.3544"  stroke-linecap="butt"  stroke-linejoin="round" fill="none" />
<path d="M 101.4747,517.9907 L 101.4747,517.9907 L 101.4747,516.8447 L 101.4747,515.6987 L 101.5788,514.6569 L 101.5788,513.5109 L 101.5788,512.3649 L 101.5788,511.3231 L 101.5788,510.1771 L 101.6830,509.0311 L 101.6830,507.9893 L 101.6830,506.8433 L 101.6830,505.6973 L 101.6830,504.6555 L 101.6830,503.5095 L 101.7872,502.3635 L 101.7872,501.3217 L 101.7872,500.1757 L 101.7872,499.1338 L 101.7872,497.9878 L 101.7872,496.8419 L 101.7872,495.8000 L 101.8914,494.6540 L 101.8914,493.5080 L 101.8914,492.4662 L 101.8914,491.3202 L 101.8914,490.1742 L 101.8914,489.1324 L 101.8914,487.9864 L 101.8914,486.8404 L 101.8914,485.7986 L 101.8914,484.6526 L 101.9956,483.6108 L 101.9956,482.4648 L 101.9956,481.3188 L 101.9956,480.2770 L 101.9956,479.1310 L 101.9956,477.9850 L 101.9956,476.9432 L 101.9956,475.7972 L 101.9956,474.6512 L 102.0998,473.6094 L 102.0998,472.4634 L 102.0998,471.3174 L 102.0998,470.2756 L 102.0998,469.1296 L 102.0998,468.0877 L 102.0998,466.9417 L 102.0998,465.7957 L 102.0998,464.7539 L 102.0998,463.6079 L 102.0998,462.4619 L 102.0998,461.4201 L 102.2039,460.2741 L 102.2039,459.1281 L 102.2039,458.0863 L 102.2039,456.9403 L 102.2039,455.7943 L 102.2039,454.7525 L 102.2039,453.6065 L 102.2039,452.4605 L 102.2039,451.4187 L 102.2039,450.2727 L 102.2039,449.2309 L 102.3081,448.0849 L 102.3081,446.9389 L 102.3081,445.8971 L 102.3081,444.7511 L 102.3081,443.6051 L 102.3081,442.5633 L 102.3081,441.4173 L 102.3081,440.2713 L 102.3081,439.2294 L 102.3081,438.0835 L 102.3081,436.9375 L 102.3081,435.8956 L 102.3081,434.7496 L 102.4123,433.7078 L 102.4123,432.5618 L 102.4123,431.4158 L 102.4123,430.3740 L 102.4123,429.2280 L 102.5165,428.0820 L 102.5165,427.0402 L 102.5165,425.8942 L 102.5165,424.7482 L 102.6207,423.7064 L 102.6207,422.5604 L 102.6207,421.4144 L 102.6207,420.3726 L 102.6207,419.2266 L 102.6207,418.0806 L 102.7249,417.0388 L 102.7249,415.8928 L 102.8290,414.8510 L 102.8290,413.7050 L 102.8290,412.5590 L 102.8290,411.5172 L 102.8290,410.3712 L 102.9332,409.2252 L 102.9332,408.1833 L 103.0374,407.0373 L 103.0374,405.8914 L 103.0374,404.8495 L 103.0374,403.7035 L 103.1416,402.5575 L 103.1416,401.5157 L 103.1416,400.3697 L 103.3500,399.3279 L 103.3500,398.1819 L 103.3500,397.0359 L 103.3500,395.9941 L 103.3500,394.8481 L 103.3500,393.7021 L 103.3500,392.6603 L 103.3500,391.5143 L 103.4541,390.3683 L 103.4541,389.3265 L 103.4541,388.1805 L 103.5583,387.0345 L 103.5583,385.9927 L 103.5583,384.8467 L 103.5583,383.7007 L 103.5583,382.6589 L 103.6625,381.5129 L 103.7667,380.4711 L 103.7667,379.3251 L 103.8709,378.1791 L 103.9751,377.1372 L 103.9751,375.9912 L 103.9751,374.8452 L 103.9751,373.8034 L 103.9751,372.6574 L 104.0792,371.5114 L 104.4960,370.4696 L 104.4960,369.3236 L 104.6002,368.1776 L 104.6002,367.1358 L 104.7043,365.9898 L 104.8085,364.9480 L 104.8085,363.8020 L 105.1211,362.6560 L 105.1211,361.6142 L 105.2253,360.4682 L 105.4336,359.3222 L 105.5378,358.2804 L 105.5378,357.1344 L 105.8504,355.9884 L 106.0587,354.9466 L 106.0587,353.8006 L 106.2671,352.6546 L 106.3713,351.6128 L 106.8922,350.4668 L 106.8922,349.3208 L 107.1006,348.2789 L 107.1006,347.1330 L 107.1006,346.0911 L 107.3089,344.9451 L 107.3089,343.7991 L 107.6215,342.7573 L 107.7257,341.6113 L 107.7257,340.4653 L 108.0382,339.4235 L 108.1424,338.2775 L 108.5591,337.1315 L 108.6633,336.0897 L 108.8717,334.9437 L 108.8717,333.7977 L 109.0800,332.7559 L 110.3302,331.6099 L 110.6428,330.5681 L 110.7470,329.4221 L 110.7470,328.2761 L 111.2679,327.2343 L 111.2679,326.0883 L 111.3721,324.9423 L 111.3721,323.9005 L 111.6846,322.7545 L 111.9972,321.6085 L 111.9972,320.5667 L 112.1014,319.4207 L 112.2056,318.2747 L 112.5181,317.2328 L 113.3516,316.0868 L 113.7683,315.0450 L 114.2892,313.8990 L 114.8101,312.7530 L 114.9143,311.7112 L 115.2269,310.5652 L 115.7478,309.4192 L 115.9562,308.3774 L 115.9562,307.2314 L 116.0603,306.0854 L 116.0603,305.0436 L 116.1645,303.8976 L 116.1645,302.7516 L 116.3729,301.7098 L 116.6854,300.5638 L 117.1022,299.4178 L 117.2064,298.3760 L 117.7273,297.2300 L 117.9356,296.1882 L 119.2900,295.0422 L 119.4984,293.8962 L 119.8109,292.8544 L 119.9151,291.7084 L 120.4360,290.5624 L 121.1653,289.5206 L 121.1653,288.3746 L 121.3737,287.2286 L 121.4779,286.1867 L 121.8946,285.0407 L 121.8946,283.8947 L 121.9988,282.8529 L 122.1030,281.7069 L 122.4155,280.6651 L 122.7281,279.5191 L 122.9364,278.3731 L 123.1448,277.3313 L 123.9783,276.1853 L 124.2908,275.0393 L 124.6034,273.9975 L 124.7076,272.8515 L 124.8117,271.7055 L 125.0201,270.6637 L 125.2285,269.5177 L 125.8536,268.3717 L 125.9578,267.3299 L 125.9578,266.1839 L 126.0619,265.0379 L 126.2703,263.9961 L 126.7912,262.8501 L 126.8954,261.8083 L 126.9996,260.6623 L 128.0414,259.5163 L 128.2498,258.4744 L 128.4582,257.3284 L 128.8749,256.1825 L 129.5000,255.1406 L 129.8126,253.9946 L 130.2293,252.8486 L 130.7502,251.8068 L 130.7502,250.6608 L 130.7502,249.5148 L 130.9586,248.4730 L 130.9586,247.3270 L 131.0628,246.2852 L 131.2711,245.1392 L 131.6879,243.9932 L 132.7297,242.9514 L 132.9381,241.8054 L 132.9381,240.6594 L 133.2506,239.6176 L 133.2506,238.4716 L 133.8757,237.3256 L 133.9799,236.2838 L 134.2924,235.1378 L 134.3966,233.9918 L 134.6050,232.9500 L 135.2301,231.8040 L 135.3343,230.6580 L 135.9594,229.6162 L 136.2719,228.4702 L 136.6887,227.4283 L 137.2096,226.2823 L 137.4179,225.1363 L 137.6263,224.0945 L 137.9389,222.9485 L 138.2514,221.8025 L 138.4598,220.7607 L 138.8765,219.6147 L 139.7100,218.4687 L 140.0225,217.4269 L 140.2309,216.2809 L 140.3351,215.1349 L 140.4393,214.0931 L 140.5434,212.9471 L 140.5434,211.9053 L 141.1685,210.7593 L 141.3769,209.6133 L 141.6895,208.5715 L 141.7936,207.4255 L 142.4187,206.2795 L 142.6271,205.2377 L 143.1480,204.0917 L 143.2522,202.9457 L 143.4606,201.9039 L 143.9815,200.7579 L 144.1899,199.6119 L 144.6066,198.5701 L 145.7526,197.4241 L 146.0652,196.2781 L 146.0652,195.2362 L 146.4819,194.0902 L 146.6903,193.0484 L 146.6903,191.9024 L 146.7944,190.7564 L 146.7944,189.7146 L 147.2112,188.5686 L 147.4195,187.4226 L 147.4195,186.3808 L 147.4195,185.2348 L 147.8363,184.0888 L 148.1488,183.0470 L 148.9823,181.9010 L 148.9823,180.7550 L 149.0865,179.7132 L 149.6074,178.5672 L 149.8158,177.5254 L 150.1283,176.3794 L 150.4409,175.2334 L 150.4409,174.1916 L 150.4409,173.0456 L 150.7534,171.8996 L 150.9618,170.8578 L 151.6911,169.7118 L 151.8994,168.5658 L 152.4204,167.5239 L 152.8371,166.3779 L 152.8371,165.2320 L 152.9413,164.1901 L 153.1496,163.0441 L 153.3580,162.0023 L 153.5664,160.8563 L 153.9831,159.7103 L 153.9831,158.6685 L 154.2957,157.5225 L 154.7124,156.3765 L 155.1291,155.3347 L 155.3375,154.1887 L 155.9626,153.0427 L 156.0668,152.0009 L 156.0668,150.8549 L 156.3793,149.7089 L 156.9002,148.6671 L 158.0463,147.5211 L 158.6714,146.3751 L 158.7755,145.3333 L 158.9839,144.1873 L 159.1923,143.1455 L 160.7550,141.9995 L 160.8592,140.8535 L 160.8592,139.8117 L 161.0676,138.6657 L 161.3801,137.5197 L 161.6927,136.4778 L 162.3178,135.3318 L 162.4220,134.1858 L 162.5261,133.1440 L 164.9224,131.9980 L 165.0265,130.8520 L 165.3391,129.8102 L 165.5475,128.6642 L 165.7558,127.6224 L 166.2767,126.4764 L 167.4228,125.3304 L 167.6311,124.2886 L 168.6730,123.1426 L 168.9855,121.9966 L 169.1939,120.9548 L 169.5064,119.8088 L 170.0274,118.6628 L 170.1315,117.6210 L 170.3399,116.4750 L 171.0692,115.3290 L 171.4859,114.2872 L 171.9027,113.1412 L 172.3194,111.9952 L 172.4236,110.9534 L 173.0487,109.8074 L 173.9863,108.7655 L 174.9240,107.6195 L 175.2365,106.4736 L 175.8616,105.4317 L 176.7993,104.2857 L 177.3202,103.1397 L 177.7369,102.0979 L 180.4457,100.9519 L 181.1750,99.8059 L 181.1750,98.7641 L 186.3842,97.6181 L 187.5302,96.4721 L 190.3431,95.4303 L 191.4891,94.2843 L 191.5933,93.2425 L 191.8017,92.0965 L 191.9059,90.9505 L 193.1561,89.9087 L 193.7812,88.7627 L 194.6146,87.6167 L 195.4481,86.5749 L 195.4481,85.4289 L 196.6983,84.2829 L 196.9067,83.2411 L 197.3234,82.0951 L 201.4907,80.9491 L 205.7623,79.9073 L 209.2003,78.7613 L 209.7212,77.6153 L 209.9296,76.5734 L 210.0338,75.4274 L 210.4505,74.3856 L 210.9714,73.2396 L 211.8049,72.0936 L 212.4300,71.0518 L 215.0346,69.9058 L 215.6597,68.7598 L 219.8270,67.7180 L 221.0772,66.5720 L 223.4735,65.4260 L 223.5776,64.3842 L 227.6408,63.2382 L 228.2659,62.0922 L 229.2035,61.0504 L 232.1207,59.9044 L 232.6416,58.8626 L 232.7458,57.7166 L 248.6858,56.5706 L 258.8958,55.5288 L 262.1255,54.3828 L 262.2297,53.2368 L 267.7514,52.1950 L 275.7735,51.0490 L 297.7562,49.9030 L 306.2993,48.8612 L 308.4871,47.7152 L 315.8842,46.5692 L 356.0990,45.5273 L 462.8870,44.3813 L 500.0805,43.3395 " stroke="#FF0000" stroke-width="1.3544"  stroke-linecap="butt"  stroke-linejoin="round" fill="none" />
<path d="M 693.1323,103.7648 L 693.1323,103.7648 L 693.1323,54.3828 L 499.9763,54.3828 L 499.9763,103.7648 L 693.1323,103.7648 Z "  fill="#FFFFFF" stroke="none" />
<text  clip-path="url(#clip-1804289383)" font-family="Helvetica" fill="#000000" style ="white-space:pre;" font-weight="400" text-anchor="start" x="551.4429" y="74.9065" font-size="18.0237" ><![CDATA[All UEs]]></text>
<path d="M 505.6022,67.9264 L 505.6022,67.9264 L 547.2755,67.9264 " stroke="#0072BD" stroke-width="1.3544"  stroke-linecap="butt"  stroke-linejoin="round" fill="none" />
<text  clip-path="url(#clip-1804289383)" font-family="Helvetica" fill="#000000" style ="white-space:pre;" font-weight="400" text-anchor="start" x="551.4429" y="97.2014" font-size="18.0237" ><![CDATA[Convex Hull UEs]]></text>
<path d="M 505.6022,90.2212 L 505.6022,90.2212 L 547.2755,90.2212 " stroke="#FF0000" stroke-width="1.3544"  stroke-linecap="butt"  stroke-linejoin="round" fill="none" />
<path d="M 499.9763,103.7648 L 499.9763,103.7648 L 499.9763,54.3828 L 693.1323,54.3828 L 693.1323,103.7648 L 499.9763,103.7648 Z " stroke="#262626" stroke-width="1px"  stroke-linecap="butt"  stroke-linejoin="miter"  stroke-miterlimit="10.0000" fill="none" />
</g>
</svg>
