<?xml version="1.0"  encoding="UTF-8" standalone="no"?>
<svg version="1.1" xmlns="http://www.w3.org/2000/svg" xmlns:xlink="http://www.w3.org/1999/xlink" width="755.0000" height="1682.0000">
<g transform="translate(25.0000, 28.0000)">
<text font-family="Times New Roman" fill="#000000" style ="white-space:pre;" font-weight="400" text-anchor="start" x="0.0000" y="90.0000" font-size="100.0000" ><![CDATA[ ]]></text>
<g transform="matrix(0.0625 0.0000 0.0000 0.0625 0.0000 0.0000)">
<path d="M 132.0000,10732.0000 L 132.0000,13772.0000 L 11152.0000,13772.0000 L 11152.0000,10732.0000 L 132.0000,10732.0000 Z" stroke-width="1px" stroke="#FFFFFF"  fill="#FFFFFF" />
</g>
<g transform="matrix(1.0000 0.0000 0.0000 1.0000 0.0000 0.0000)">
</g>
<g transform="matrix(0.0625 0.0000 0.0000 0.0625 0.0000 0.0000)">
<path d="M 132.0000,10732.0000 L 132.0000,13772.0000 L 11152.0000,13772.0000 L 11152.0000,10732.0000 Z" stroke="#000000" stroke-width="100.0000"  stroke-linecap="round"  stroke-linejoin="miter"  stroke-miterlimit="8.0000" fill="none" />
</g>
<g transform="matrix(1.0000 0.0000 0.0000 1.0000 0.0000 0.0000)">
<defs><clipPath id="clip-1804289383"><path d="M 12.0000,705.0000 L 694.0000,705.0000 L 694.0000,828.0000 L 12.0000,828.0000 L 12.0000,705.0000 Z Z" /></clipPath></defs>
<text  clip-path="url(#clip-1804289383)" font-family="Times New Roman" fill="#000000" style ="white-space:pre;" font-weight="400" text-anchor="start" x="230.0000" y="783.0000" font-size="83.0000" ><![CDATA[GTP]]></text>
<text  clip-path="url(#clip-1804289383)" font-family="Times New Roman" fill="#000000" style ="white-space:pre;" font-weight="400" text-anchor="start" x="388.0000" y="783.0000" font-size="83.0000" ><![CDATA[-]]></text>
<text  clip-path="url(#clip-1804289383)" font-family="Times New Roman" fill="#000000" style ="white-space:pre;" font-weight="400" text-anchor="start" x="415.0000" y="783.0000" font-size="83.0000" ><![CDATA[U]]></text>
<text  clip-path="url(#clip-1804289383)" font-family="Times New Roman" fill="#000000" style ="white-space:pre;" font-weight="400" text-anchor="start" x="475.0000" y="783.0000" font-size="83.0000" ><![CDATA[ ]]></text>
</g>
<g transform="matrix(0.0625 0.0000 0.0000 0.0625 0.0000 0.0000)">
<path d="M 132.0000,13772.0000 L 132.0000,16812.0000 L 11152.0000,16812.0000 L 11152.0000,13772.0000 L 132.0000,13772.0000 Z" stroke-width="1px" stroke="#FFFFFF"  fill="#FFFFFF" />
</g>
<g transform="matrix(1.0000 0.0000 0.0000 1.0000 0.0000 0.0000)">
</g>
<g transform="matrix(0.0625 0.0000 0.0000 0.0625 0.0000 0.0000)">
<path d="M 132.0000,13772.0000 L 132.0000,16812.0000 L 11152.0000,16812.0000 L 11152.0000,13772.0000 Z" stroke="#000000" stroke-width="100.0000"  stroke-linecap="round"  stroke-linejoin="miter"  stroke-miterlimit="8.0000" fill="none" />
</g>
<g transform="matrix(1.0000 0.0000 0.0000 1.0000 0.0000 0.0000)">
<defs><clipPath id="clip-846930886"><path d="M 12.0000,895.0000 L 694.0000,895.0000 L 694.0000,1018.0000 L 12.0000,1018.0000 L 12.0000,895.0000 Z Z" /></clipPath></defs>
<text  clip-path="url(#clip-846930886)" font-family="Times New Roman" fill="#000000" style ="white-space:pre;" font-weight="400" text-anchor="start" x="269.0000" y="973.0000" font-size="83.0000" ><![CDATA[UDP]]></text>
<text  clip-path="url(#clip-846930886)" font-family="Times New Roman" fill="#000000" style ="white-space:pre;" font-weight="400" text-anchor="start" x="436.0000" y="973.0000" font-size="83.0000" ><![CDATA[ ]]></text>
</g>
<g transform="matrix(0.0625 0.0000 0.0000 0.0625 0.0000 0.0000)">
<path d="M 132.0000,16812.0000 L 132.0000,19852.0000 L 11152.0000,19852.0000 L 11152.0000,16812.0000 L 132.0000,16812.0000 Z" stroke-width="1px" stroke="#FFFFFF"  fill="#FFFFFF" />
</g>
<g transform="matrix(1.0000 0.0000 0.0000 1.0000 0.0000 0.0000)">
</g>
<g transform="matrix(0.0625 0.0000 0.0000 0.0625 0.0000 0.0000)">
<path d="M 132.0000,16812.0000 L 132.0000,19852.0000 L 11152.0000,19852.0000 L 11152.0000,16812.0000 Z" stroke="#000000" stroke-width="100.0000"  stroke-linecap="round"  stroke-linejoin="miter"  stroke-miterlimit="8.0000" fill="none" />
</g>
<g transform="matrix(1.0000 0.0000 0.0000 1.0000 0.0000 0.0000)">
<defs><clipPath id="clip-1681692777"><path d="M 12.0000,1085.0000 L 694.0000,1085.0000 L 694.0000,1208.0000 L 12.0000,1208.0000 L 12.0000,1085.0000 Z Z" /></clipPath></defs>
<text  clip-path="url(#clip-1681692777)" font-family="Times New Roman" fill="#000000" style ="white-space:pre;" font-weight="400" text-anchor="start" x="316.0000" y="1163.0000" font-size="83.0000" ><![CDATA[IP]]></text>
<text  clip-path="url(#clip-1681692777)" font-family="Times New Roman" fill="#000000" style ="white-space:pre;" font-weight="400" text-anchor="start" x="390.0000" y="1163.0000" font-size="83.0000" ><![CDATA[ ]]></text>
</g>
<g transform="matrix(0.0625 0.0000 0.0000 0.0625 0.0000 0.0000)">
<path d="M 132.0000,19852.0000 L 132.0000,22892.0000 L 11152.0000,22892.0000 L 11152.0000,19852.0000 L 132.0000,19852.0000 Z" stroke-width="1px" stroke="#FFFFFF"  fill="#FFFFFF" />
</g>
<g transform="matrix(1.0000 0.0000 0.0000 1.0000 0.0000 0.0000)">
</g>
<g transform="matrix(0.0625 0.0000 0.0000 0.0625 0.0000 0.0000)">
<path d="M 132.0000,19852.0000 L 132.0000,22892.0000 L 11152.0000,22892.0000 L 11152.0000,19852.0000 Z" stroke="#000000" stroke-width="100.0000"  stroke-linecap="round"  stroke-linejoin="miter"  stroke-miterlimit="8.0000" fill="none" />
</g>
<g transform="matrix(1.0000 0.0000 0.0000 1.0000 0.0000 0.0000)">
<defs><clipPath id="clip-1714636915"><path d="M 12.0000,1275.0000 L 694.0000,1275.0000 L 694.0000,1398.0000 L 12.0000,1398.0000 L 12.0000,1275.0000 Z Z" /></clipPath></defs>
<text  clip-path="url(#clip-1714636915)" font-family="Times New Roman" fill="#000000" style ="white-space:pre;" font-weight="400" text-anchor="start" x="106.0000" y="1353.0000" font-size="83.0000" ><![CDATA[Data link layer]]></text>
<text  clip-path="url(#clip-1714636915)" font-family="Times New Roman" fill="#000000" style ="white-space:pre;" font-weight="400" text-anchor="start" x="601.0000" y="1353.0000" font-size="83.0000" ><![CDATA[ ]]></text>
</g>
<g transform="matrix(0.0625 0.0000 0.0000 0.0625 0.0000 0.0000)">
<path d="M 132.0000,92.0000 L 132.0000,4272.0000 L 11152.0000,4272.0000 L 11152.0000,92.0000 L 132.0000,92.0000 Z" stroke-width="1px" stroke="#FFFFFF"  fill="#FFFFFF" />
</g>
<g transform="matrix(1.0000 0.0000 0.0000 1.0000 0.0000 0.0000)">
</g>
<g transform="matrix(0.0625 0.0000 0.0000 0.0625 0.0000 0.0000)">
<path d="M 132.0000,92.0000 L 132.0000,4272.0000 L 11152.0000,4272.0000 L 11152.0000,92.0000 Z" stroke="#000000" stroke-width="100.0000"  stroke-linecap="round"  stroke-linejoin="miter"  stroke-miterlimit="8.0000" fill="none" />
</g>
<g transform="matrix(1.0000 0.0000 0.0000 1.0000 0.0000 0.0000)">
<defs><clipPath id="clip-1957747793"><path d="M 12.0000,40.0000 L 694.0000,40.0000 L 694.0000,234.0000 L 12.0000,234.0000 L 12.0000,40.0000 Z Z" /></clipPath></defs>
<text  clip-path="url(#clip-1957747793)" font-family="Times New Roman" fill="#000000" style ="white-space:pre;" font-weight="400" text-anchor="start" x="64.0000" y="108.0000" font-size="75.0000" ><![CDATA[PDU]]></text>
<text  clip-path="url(#clip-1957747793)" font-family="Times New Roman" fill="#000000" style ="white-space:pre;" font-weight="400" text-anchor="start" x="215.0000" y="108.0000" font-size="75.0000" ><![CDATA[/MBS]]></text>
<text  clip-path="url(#clip-1957747793)" font-family="Times New Roman" fill="#000000" style ="white-space:pre;" font-weight="400" text-anchor="start" x="394.0000" y="108.0000" font-size="75.0000" ><![CDATA[ ]]></text>
<text  clip-path="url(#clip-1957747793)" font-family="Times New Roman" fill="#000000" style ="white-space:pre;" font-weight="400" text-anchor="start" x="413.0000" y="108.0000" font-size="75.0000" ><![CDATA[Session]]></text>
<text  clip-path="url(#clip-1957747793)" font-family="Times New Roman" fill="#000000" style ="white-space:pre;" font-weight="400" text-anchor="start" x="641.0000" y="108.0000" font-size="75.0000" ><![CDATA[ ]]></text>
<text  clip-path="url(#clip-1957747793)" font-family="Times New Roman" fill="#000000" style ="white-space:pre;" font-weight="400" text-anchor="start" x="92.0000" y="196.0000" font-size="75.0000" ><![CDATA[User plane PDUs]]></text>
<text  clip-path="url(#clip-1957747793)" font-family="Times New Roman" fill="#000000" style ="white-space:pre;" font-weight="400" text-anchor="start" x="613.0000" y="196.0000" font-size="75.0000" ><![CDATA[ ]]></text>
</g>
<g transform="matrix(0.0625 0.0000 0.0000 0.0625 0.0000 0.0000)">
<path d="M 132.0000,22892.0000 L 132.0000,25932.0000 L 11152.0000,25932.0000 L 11152.0000,22892.0000 L 132.0000,22892.0000 Z" stroke-width="1px" stroke="#FFFFFF"  fill="#FFFFFF" />
</g>
<g transform="matrix(1.0000 0.0000 0.0000 1.0000 0.0000 0.0000)">
</g>
<g transform="matrix(0.0625 0.0000 0.0000 0.0625 0.0000 0.0000)">
<path d="M 132.0000,22892.0000 L 132.0000,25932.0000 L 11152.0000,25932.0000 L 11152.0000,22892.0000 Z" stroke="#000000" stroke-width="100.0000"  stroke-linecap="round"  stroke-linejoin="miter"  stroke-miterlimit="8.0000" fill="none" />
</g>
<g transform="matrix(1.0000 0.0000 0.0000 1.0000 0.0000 0.0000)">
<defs><clipPath id="clip-424238335"><path d="M 12.0000,1465.0000 L 694.0000,1465.0000 L 694.0000,1588.0000 L 12.0000,1588.0000 L 12.0000,1465.0000 Z Z" /></clipPath></defs>
<text  clip-path="url(#clip-424238335)" font-family="Times New Roman" fill="#000000" style ="white-space:pre;" font-weight="400" text-anchor="start" x="118.0000" y="1543.0000" font-size="83.0000" ><![CDATA[Physical]]></text>
<text  clip-path="url(#clip-424238335)" font-family="Times New Roman" fill="#000000" style ="white-space:pre;" font-weight="400" text-anchor="start" x="399.0000" y="1543.0000" font-size="83.0000" ><![CDATA[ ]]></text>
<text  clip-path="url(#clip-424238335)" font-family="Times New Roman" fill="#000000" style ="white-space:pre;" font-weight="400" text-anchor="start" x="420.0000" y="1543.0000" font-size="83.0000" ><![CDATA[layer]]></text>
<text  clip-path="url(#clip-424238335)" font-family="Times New Roman" fill="#000000" style ="white-space:pre;" font-weight="400" text-anchor="start" x="588.0000" y="1543.0000" font-size="83.0000" ><![CDATA[ ]]></text>
</g>
<g transform="matrix(0.0625 0.0000 0.0000 0.0625 0.0000 0.0000)">
<path d="M 5519.0000,4939.0000 L 5519.0000,10066.0000 L 5386.0000,10066.0000 L 5386.0000,4939.0000 L 5519.0000,4939.0000 Z M 5052.0000,5072.0000 L 5452.0000,4272.0000 L 5852.0000,5072.0000 L 5052.0000,5072.0000 Z M 5852.0000,9932.0000 L 5452.0000,10732.0000 L 5052.0000,9932.0000 L 5852.0000,9932.0000 Z "  fill="#000000" stroke="#000000" stroke-width="16.0000"  stroke-linecap="butt"  stroke-linejoin="bevel" />
</g>
<g transform="matrix(1.0000 0.0000 0.0000 1.0000 0.0000 0.0000)">
</g>
</g>
</svg>
