<?xml version="1.0" encoding="UTF-8" standalone="no"?>
<!DOCTYPE svg PUBLIC "-//W3C//DTD SVG 1.0//EN" "http://www.w3.org/TR/2001/REC-SVG-20010904/DTD/svg10.dtd">
<svg xmlns="http://www.w3.org/2000/svg" xmlns:xlink="http://www.w3.org/1999/xlink" fill-rule="evenodd" height="0.4861111111111111in" preserveAspectRatio="none" stroke-linecap="round" viewBox="0 0 8000 1120" width="3.4722222222222223in">
    <style type="text/css">
.brush0 { fill: rgb(255,255,255); }
.pen0 { stroke: rgb(0,0,0); stroke-width: 1; stroke-linejoin: round; }
.pen1 { stroke: rgb(0,0,0); stroke-width: 1; stroke-linejoin: round; }
.brush1 { fill: rgb(0,0,0); }
.pen2 { stroke: none; }
.pen3 { stroke: rgb(0,0,0); stroke-width: 16; stroke-linejoin: round; }
.font0 { font-size: 202px; font-family: "Times New Roman", serif; }
.font1 { font-size: 288px; font-family: "Times New Roman", serif; }
.font2 { font-style: italic; font-size: 202px; font-family: "Times New Roman", serif; }
.font3 { font-style: italic; font-size: 288px; font-family: "Times New Roman", serif; }
.font4 { font-style: italic; font-size: 261px; font-family: Symbol, serif; }
.font5 { font-size: 182px; font-family: Symbol, serif; }
.font6 { font-size: 261px; font-family: Symbol, serif; }
.brush2 { fill: rgb(0,0,0); }
.font7 { font-weight: bold; font-size: 16px; font-family: System, sans-serif; }
</style>
    <g>
        <line class="pen1" fill="none" x1="1643" x2="1675" y1="898" y2="875"/>
        <line class="pen1" fill="none" x1="1675" x2="1753" y1="875" y2="1034"/>
        <line class="pen1" fill="none" x1="1753" x2="1838" y1="1034" y2="616"/>
        <line class="pen1" fill="none" x1="1838" x2="2903" y1="616" y2="616"/>
        <polygon class="pen2 brush1" points="1640,894 1684,864 1753,994 1832,608 2903,608 2903,624 1844,624 1761,1034 1745,1034 1667,887 1646,903"/>
        <line class="pen3" fill="none" x1="1615" x2="2928" y1="560" y2="560"/>
        <text class="font0" fill="rgb(0,0,0)" stroke="none" style="dominant-baseline: alphabetic;" x="3500 4645 5892 7221" xml:lang="en" xml:space="preserve" y="428">,,,,</text>
        <text class="font0" fill="rgb(0,0,0)" stroke="none" style="dominant-baseline: alphabetic;" x="347 435 554" xml:lang="en" xml:space="preserve" y="493">(4)</text>
        <text class="font0" fill="rgb(0,0,0)" stroke="none" style="dominant-baseline: alphabetic;" x="358 550 785 1065" xml:lang="en" xml:space="preserve" y="741">,,,.</text>
        <text class="font0" fill="rgb(0,0,0)" stroke="none" style="dominant-baseline: alphabetic;" x="3657 4801 6141 7470" xml:lang="en" xml:space="preserve" y="968">,,,,</text>
        <text class="font0" fill="rgb(0,0,0)" stroke="none" style="dominant-baseline: alphabetic;" x="2168 2318 2444 2514 2584 2734" xml:lang="en" xml:space="preserve" y="1006">CSI-RS</text>
        <text class="font1" fill="rgb(0,0,0)" stroke="none" style="dominant-baseline: alphabetic;" x="2191" xml:lang="en" xml:space="preserve" y="436">1</text>
        <text class="font1" fill="rgb(0,0,0)" stroke="none" style="dominant-baseline: alphabetic;" x="1852" xml:lang="en" xml:space="preserve" y="923">4</text>
        <text class="font2" fill="rgb(0,0,0)" stroke="none" style="dominant-baseline: alphabetic;" x="3408 3566 4512 4711 5800 5958 7088 7287" xml:lang="en" xml:space="preserve" y="428">lmlmlmlm</text>
        <text class="font2" fill="rgb(0,0,0)" stroke="none" style="dominant-baseline: alphabetic;" x="277 417 616 851 1122" xml:lang="en" xml:space="preserve" y="741">llmmn</text>
        <text class="font2" fill="rgb(0,0,0)" stroke="none" style="dominant-baseline: alphabetic;" x="3302 3565 3723 4405 4668 4867 5786 6049 6207 7074 7337 7536" xml:lang="en" xml:space="preserve" y="968">nlmnlmnlmnlm</text>
        <text class="font3" fill="rgb(0,0,0)" stroke="none" style="dominant-baseline: alphabetic;" x="3276 4380 5668 6956" xml:lang="en" xml:space="preserve" y="345">vvvv</text>
        <text class="font3" fill="rgb(0,0,0)" stroke="none" style="dominant-baseline: alphabetic;" x="29" xml:lang="en" xml:space="preserve" y="640">W</text>
        <text class="font3" fill="rgb(0,0,0)" stroke="none" style="dominant-baseline: alphabetic;" x="3433 4536 5917 7205" xml:lang="en" xml:space="preserve" y="885">vvvv</text>
        <text class="font3" fill="rgb(0,0,0)" stroke="none" style="dominant-baseline: alphabetic;" x="2027" xml:lang="en" xml:space="preserve" y="923">P</text>
        <text class="font4" fill="rgb(0,0,0)" stroke="none" style="dominant-baseline: alphabetic;" x="3100 4203 5584 6872" xml:space="preserve" y="885">jjjj</text>
        <text class="font5" fill="rgb(0,0,0)" stroke="none" style="dominant-baseline: alphabetic;" x="4588 4875 7164 7451" xml:space="preserve" y="415">¢¢¢¢</text>
        <text class="font5" fill="rgb(0,0,0)" stroke="none" style="dominant-baseline: alphabetic;" x="493 1015" xml:space="preserve" y="728">¢¢</text>
        <text class="font5" fill="rgb(0,0,0)" stroke="none" style="dominant-baseline: alphabetic;" x="4744 5031 7413 7700" xml:space="preserve" y="955">¢¢¢¢</text>
        <text class="font6" fill="rgb(0,0,0)" stroke="none" style="dominant-baseline: alphabetic;" x="2988 7805" xml:space="preserve" y="370">éù</text>
        <text class="font6" fill="rgb(0,0,0)" stroke="none" style="dominant-baseline: alphabetic;" x="1354" xml:space="preserve" y="640">=</text>
        <text class="font6" fill="rgb(0,0,0)" stroke="none" style="dominant-baseline: alphabetic;" x="2988 7805" xml:space="preserve" y="674">êú</text>
        <text class="font6" fill="rgb(0,0,0)" stroke="none" style="dominant-baseline: alphabetic;" x="5424 6712" xml:space="preserve" y="885">--</text>
        <text class="font6" fill="rgb(0,0,0)" stroke="none" style="dominant-baseline: alphabetic;" x="2988 7805" xml:space="preserve" y="966">êú</text>
        <text class="font6" fill="rgb(0,0,0)" stroke="none" style="dominant-baseline: alphabetic;" x="2988 7805" xml:space="preserve" y="1020">ëû</text>
    </g>
</svg>
