<?xml version="1.0" encoding="UTF-8" standalone="no"?>
<!DOCTYPE svg PUBLIC "-//W3C//DTD SVG 1.0//EN" "http://www.w3.org/TR/2001/REC-SVG-20010904/DTD/svg10.dtd">
<svg xmlns="http://www.w3.org/2000/svg" xmlns:xlink="http://www.w3.org/1999/xlink" fill-rule="evenodd" height="0.2777777777777778in" preserveAspectRatio="none" stroke-linecap="round" viewBox="0 0 4384 640" width="1.9027777777777777in">
    <style type="text/css">
.brush0 { fill: rgb(255,255,255); }
.pen0 { stroke: rgb(0,0,0); stroke-width: 1; stroke-linejoin: round; }
.font0 { font-size: 121px; font-family: "Times New Roman", serif; }
.font1 { font-size: 202px; font-family: "Times New Roman", serif; }
.font2 { font-style: italic; font-size: 202px; font-family: "Times New Roman", serif; }
.font3 { font-style: italic; font-size: 288px; font-family: "Times New Roman", serif; }
.font4 { font-size: 182px; font-family: Symbol, serif; }
.font5 { font-weight: bold; font-size: 16px; font-family: System, sans-serif; }
</style>
    <g>
        <text class="font0" fill="rgb(0,0,0)" stroke="none" style="dominant-baseline: alphabetic;" x="320 389 412 603 672 695 1062 1253 1322 1345 1536 1605 1628 1995 2186 2255 2292 2493 2562 2599 2800 2869 2906 3297 3498 3567 3604 3995 4210" xml:lang="en" xml:space="preserve" y="551">1,11,111,11,111,21,21,221,222</text>
        <text class="font1" fill="rgb(0,0,0)" stroke="none" style="dominant-baseline: alphabetic;" x="347 431 554" xml:lang="en" xml:space="preserve" y="237">(7)</text>
        <text class="font1" fill="rgb(0,0,0)" stroke="none" style="dominant-baseline: alphabetic;" x="501 1151 1434 2084 2391 2698 3396 4094" xml:lang="en" xml:space="preserve" y="493">,,,,,,,,</text>
        <text class="font2" fill="rgb(0,0,0)" stroke="none" style="dominant-baseline: alphabetic;" x="277 560 923 1210 1493 1856 2143 2450 2757 3144 3455 3842 4153" xml:lang="en" xml:space="preserve" y="493">iiOiiOiiiOiOi</text>
        <text class="font3" fill="rgb(0,0,0)" stroke="none" style="dominant-baseline: alphabetic;" x="29" xml:lang="en" xml:space="preserve" y="384">W</text>
        <text class="font4" fill="rgb(0,0,0)" stroke="none" style="dominant-baseline: alphabetic;" x="790 1723 3011 3709" xml:space="preserve" y="493">++++</text>
    </g>
</svg>
