<?xml version="1.0" encoding="UTF-8" standalone="no"?>
<!DOCTYPE svg PUBLIC "-//W3C//DTD SVG 1.0//EN" "http://www.w3.org/TR/2001/REC-SVG-20010904/DTD/svg10.dtd">
<svg xmlns="http://www.w3.org/2000/svg" xmlns:xlink="http://www.w3.org/1999/xlink" fill-rule="evenodd" height="0.5416666666666666in" preserveAspectRatio="none" stroke-linecap="round" viewBox="0 0 8448 1248" width="3.6666666666666665in">
    <style type="text/css">
.brush0 { fill: rgb(255,255,255); }
.pen0 { stroke: rgb(0,0,0); stroke-width: 1; stroke-linejoin: round; }
.pen1 { stroke: rgb(0,0,0); stroke-width: 16; stroke-linejoin: round; }
.font0 { font-size: 144px; font-family: "Times New Roman", serif; }
.font1 { font-size: 202px; font-family: "Times New Roman", serif; }
.font2 { font-size: 288px; font-family: "Times New Roman", serif; }
.font3 { font-style: italic; font-size: 144px; font-family: "Times New Roman", serif; }
.font4 { font-style: italic; font-size: 202px; font-family: "Times New Roman", serif; }
.font5 { font-style: italic; font-size: 288px; font-family: "Times New Roman", serif; }
.font6 { font-style: italic; font-size: 130px; font-family: Symbol, serif; }
.font7 { font-size: 261px; font-family: Symbol, serif; }
.font8 { font-weight: bold; font-size: 16px; font-family: System, sans-serif; }
</style>
    <g>
        <line class="pen1" fill="none" x1="530" x2="1503" y1="624" y2="624"/>
        <line class="pen1" fill="none" x1="2822" x2="4925" y1="624" y2="624"/>
        <line class="pen1" fill="none" x1="5229" x2="7133" y1="624" y2="624"/>
        <text class="font0" fill="rgb(0,0,0)" stroke="none" style="dominant-baseline: alphabetic;" x="3857 6236" xml:lang="en" xml:space="preserve" y="943">,,</text>
        <text class="font1" fill="rgb(0,0,0)" stroke="none" style="dominant-baseline: alphabetic;" x="3440 4006 5847 6413" xml:lang="en" xml:space="preserve" y="527">,,,,</text>
        <text class="font2" fill="rgb(0,0,0)" stroke="none" style="dominant-baseline: alphabetic;" x="628" xml:lang="en" xml:space="preserve" y="500">2</text>
        <text class="font2" fill="rgb(0,0,0)" stroke="none" style="dominant-baseline: alphabetic;" x="7464" xml:lang="en" xml:space="preserve" y="704">2</text>
        <text class="font2" fill="rgb(0,0,0)" stroke="none" style="dominant-baseline: alphabetic;" x="557" xml:lang="en" xml:space="preserve" y="1033">2</text>
        <text class="font2" fill="rgb(0,0,0)" stroke="none" style="dominant-baseline: alphabetic;" x="3211 5590" xml:lang="en" xml:space="preserve" y="1066">22</text>
        <text class="font3" fill="rgb(0,0,0)" stroke="none" style="dominant-baseline: alphabetic;" x="905 1012 1092 1144 1241" xml:lang="en" xml:space="preserve" y="410">CSIRS</text>
        <text class="font3" fill="rgb(0,0,0)" stroke="none" style="dominant-baseline: alphabetic;" x="7741 7848 7928 7980 8077" xml:lang="en" xml:space="preserve" y="614">CSIRS</text>
        <text class="font3" fill="rgb(0,0,0)" stroke="none" style="dominant-baseline: alphabetic;" x="843 940 1055 1162 1269 3490 3570 3615 3660 3722 3792 3903 4000 4115 4222 4329 5869 5949 5994 6039 6101 6171 6273 6380 6460 6512 6609" xml:lang="en" xml:space="preserve" y="943">PDCCHoffsetPDCCHoffsetCSIRS</text>
        <text class="font4" fill="rgb(0,0,0)" stroke="none" style="dominant-baseline: alphabetic;" x="3114 3264 5521 5671" xml:lang="en" xml:space="preserve" y="300">CACA</text>
        <text class="font4" fill="rgb(0,0,0)" stroke="none" style="dominant-baseline: alphabetic;" x="3097 3184 3247 3359 3502 3614 3677 3740 3827 3925 4078 4214 4375 4525 4675 5504 5591 5654 5766 5909 6021 6084 6147 6234 6332 6472 6622 6734 6807 6943" xml:lang="en" xml:space="preserve" y="527">slotoffsetPDCCHslotoffsetCSIRS</text>
        <text class="font5" fill="rgb(0,0,0)" stroke="none" style="dominant-baseline: alphabetic;" x="2864 5271" xml:lang="en" xml:space="preserve" y="444">NN</text>
        <text class="font5" fill="rgb(0,0,0)" stroke="none" style="dominant-baseline: alphabetic;" x="201 1979" xml:lang="en" xml:space="preserve" y="704">nX</text>
        <text class="font6" fill="rgb(0,0,0)" stroke="none" style="dominant-baseline: alphabetic;" x="815" xml:space="preserve" y="368">m</text>
        <text class="font6" fill="rgb(0,0,0)" stroke="none" style="dominant-baseline: alphabetic;" x="7651" xml:space="preserve" y="572">m</text>
        <text class="font6" fill="rgb(0,0,0)" stroke="none" style="dominant-baseline: alphabetic;" x="744 3398 5777" xml:space="preserve" y="901">mmm</text>
        <text class="font7" fill="rgb(0,0,0)" stroke="none" style="dominant-baseline: alphabetic;" x="2523 8263" xml:space="preserve" y="360">êú</text>
        <text class="font7" fill="rgb(0,0,0)" stroke="none" style="dominant-baseline: alphabetic;" x="2650 7180" xml:space="preserve" y="392">æö</text>
        <text class="font7" fill="rgb(0,0,0)" stroke="none" style="dominant-baseline: alphabetic;" x="64 1530" xml:space="preserve" y="402">êú</text>
        <text class="font7" fill="rgb(0,0,0)" stroke="none" style="dominant-baseline: alphabetic;" x="2523 8263" xml:space="preserve" y="664">êú</text>
        <text class="font7" fill="rgb(0,0,0)" stroke="none" style="dominant-baseline: alphabetic;" x="2650 7180" xml:space="preserve" y="680">ç÷</text>
        <text class="font7" fill="rgb(0,0,0)" stroke="none" style="dominant-baseline: alphabetic;" x="403 1717 2281 4992 7342" xml:space="preserve" y="704">×++-×</text>
        <text class="font7" fill="rgb(0,0,0)" stroke="none" style="dominant-baseline: alphabetic;" x="64 1530" xml:space="preserve" y="706">êú</text>
        <text class="font7" fill="rgb(0,0,0)" stroke="none" style="dominant-baseline: alphabetic;" x="2650 7180" xml:space="preserve" y="925">ç÷</text>
        <text class="font7" fill="rgb(0,0,0)" stroke="none" style="dominant-baseline: alphabetic;" x="2523 8263" xml:space="preserve" y="968">êú</text>
        <text class="font7" fill="rgb(0,0,0)" stroke="none" style="dominant-baseline: alphabetic;" x="64 1530" xml:space="preserve" y="1010">êú</text>
        <text class="font7" fill="rgb(0,0,0)" stroke="none" style="dominant-baseline: alphabetic;" x="64 1530" xml:space="preserve" y="1116">ëû</text>
        <text class="font7" fill="rgb(0,0,0)" stroke="none" style="dominant-baseline: alphabetic;" x="2650 7180" xml:space="preserve" y="1126">èø</text>
        <text class="font7" fill="rgb(0,0,0)" stroke="none" style="dominant-baseline: alphabetic;" x="2523 8263" xml:space="preserve" y="1158">ëû</text>
    </g>
</svg>
