<?xml version="1.0" encoding="UTF-8" standalone="no"?>
<!DOCTYPE svg PUBLIC "-//W3C//DTD SVG 1.0//EN" "http://www.w3.org/TR/2001/REC-SVG-20010904/DTD/svg10.dtd">
<svg xmlns="http://www.w3.org/2000/svg" xmlns:xlink="http://www.w3.org/1999/xlink" fill-rule="evenodd" height="2.4791666666666665in" preserveAspectRatio="none" stroke-linecap="round" viewBox="0 0 719 742" width="2.3958333333333335in">
    <style type="text/css">
.brush0 { fill: rgb(255,255,255); }
.pen0 { stroke: rgb(0,0,0); stroke-width: 1; stroke-linejoin: round; }
.brush1 { fill: none; }
.brush2 { fill: rgb(0,0,0); }
.pen1 { stroke: none; }
.font0 { font-weight: bold; font-size: 895px; font-family: Arial; }
.font1 { font-weight: bold; font-size: 63px; font-family: Arial; }
.font2 { font-size: 895px; font-family: Arial; }
.font3 { font-size: 63px; font-family: Arial; }
.font4 { font-weight: bold; font-size: 16px; font-family: System, sans-serif; }
</style>
    <g>
        <polyline class="pen0" fill="none" points="119,655 639,655"/>
        <polygon class="pen1 brush2" fill-rule="nonzero" points="473,557 474,557 474,556 475,556 475,554 474,554 474,553 468,553 467,554 465,554 463,556 463,557 462,556 460,558 460,559 459,559 455,563 455,564 454,565 454,567 454,566 455,566 456,565 454,566 454,567 453,567 450,570 451,571 450,571 447,574 447,576 446,577 446,578 445,579 445,581 444,582 444,584 443,585 443,589 442,590 442,596 441,597 441,608 440,609 440,633 441,635 441,650 442,652 442,656 443,657 445,657 446,656 446,655 446,652 445,650 445,635 444,633 444,611 445,610 445,599 446,598 446,592 447,591 447,587 448,586 448,584 449,583 449,581 450,580 450,579 451,578 451,576 453,574 452,573 453,573 456,570 455,569 456,569 456,568 456,569 458,568 458,567 459,566 459,565 462,562 461,561 462,561 462,560 463,561 465,559 465,558 466,559 467,558 469,558 470,557 473,557"/>
        <polygon class="pen1 brush2" fill-rule="nonzero" points="601,435 600,436 600,438 601,439 603,439 604,437 603,437 603,438 605,440 606,440 606,441 607,441 607,442 609,443 608,443 608,442 607,441 608,443 609,443 609,445 610,445 609,447 610,448 611,450 612,450 611,453 612,454 612,453 613,453 610,455 611,456 610,456 610,457 609,457 604,462 605,463 604,463 603,465 602,466 602,469 604,467 601,468 601,469 600,469 600,470 599,470 597,472 597,474 596,475 596,484 596,483 597,483 595,484 595,487 594,488 594,502 595,503 595,512 596,514 596,526 595,527 595,531 594,532 595,535 594,535 594,537 593,537 592,539 591,540 591,541 590,542 590,544 590,543 591,543 592,542 590,543 590,544 589,544 589,545 588,545 588,546 587,546 587,547 586,547 586,548 585,548 578,555 578,556 577,555 575,557 574,557 572,560 572,559 573,559 570,559 569,560 566,560 565,561 561,561 560,562 558,562 557,563 552,563 551,564 542,564 541,565 537,565 535,564 530,564 528,563 522,563 520,562 516,562 514,561 510,561 508,560 506,560 504,559 499,559 497,558 495,558 493,557 491,557 489,556 487,556 485,555 482,555 480,554 478,554 476,553 474,553 475,553 472,552 465,549 462,549 461,548 458,547 456,546 453,544 449,542 446,541 444,540 441,539 439,537 437,536 434,535 432,533 430,532 427,531 425,529 423,528 421,526 419,525 417,523 415,522 411,518 409,517 404,513 401,509 400,506 396,502 395,499 393,497 392,494 390,492 389,489 388,487 386,484 385,481 384,479 383,476 382,474 380,471 379,468 377,464 376,461 375,460 375,458 372,452 372,450 371,447 370,446 370,444 369,443 369,442 368,441 368,439 366,437 366,436 364,434 363,434 362,432 361,437 362,437 362,439 363,439 362,441 364,443 364,444 366,445 365,445 366,445 366,446 368,446 368,445 369,445 369,443 368,443 368,441 366,439 365,437 364,437 364,435 363,435 362,436 361,436 362,436 361,437 362,438 362,439 364,441 365,444 365,443 365,445 366,446 366,448 368,450 368,452 371,458 371,460 372,463 373,466 375,470 376,473 378,476 379,478 380,481 381,483 382,486 384,489 385,491 386,494 388,496 389,499 391,501 392,504 396,508 397,511 402,515 407,521 409,522 413,526 415,527 417,529 419,530 421,532 423,533 425,535 428,536 430,537 432,539 435,540 437,541 439,543 442,544 444,545 447,546 451,548 454,550 456,551 459,552 462,553 465,553 470,556 473,557 476,557 478,558 480,558 482,559 485,559 487,560 489,560 491,561 493,561 495,562 497,562 499,563 504,563 506,564 508,564 510,565 514,565 516,566 520,566 522,567 528,567 530,568 535,568 537,569 543,569 544,568 553,568 554,567 559,567 560,566 562,566 563,565 567,565 568,564 571,564 572,563 574,563 574,562 576,561 577,561 580,558 580,557 581,558 583,556 582,555 583,556 588,551 587,550 588,550 588,549 589,549 589,548 590,548 590,547 591,547 591,546 592,546 592,545 592,546 594,545 594,544 595,543 595,542 596,541 595,539 596,539 596,537 597,537 598,534 599,533 599,529 600,528 600,514 599,512 599,501 598,500 598,490 599,489 599,485 600,484 600,477 601,476 601,474 602,473 601,472 602,472 602,471 603,471 603,470 604,471 606,469 606,468 607,467 606,465 607,465 612,460 611,459 612,459 612,458 613,458 614,457 615,455 616,454 616,452 615,451 614,448 613,448 614,446 613,445 612,443 611,443 611,441 610,441 611,441 610,439 609,439 609,440 609,439 608,439 608,438 607,438 608,437 606,435 605,436 605,435 601,435 600,437 601,435"/>
        <polygon class="pen1 brush2" fill-rule="nonzero" points="599,273 599,271 598,270 596,270 595,271 596,271 594,272 595,274 594,274 594,280 595,280 595,283 596,283 595,283 595,284 595,283 596,286 597,286 597,287 598,287 598,289 599,289 599,290 600,290 600,291 601,291 601,292 602,292 601,293 603,294 602,294 603,294 603,295 604,296 605,296 604,297 606,299 606,300 608,302 608,303 609,304 609,305 610,306 610,307 612,309 612,310 613,311 613,312 615,314 615,315 618,318 618,319 621,321 620,321 621,321 621,322 622,323 623,323 622,324 624,326 624,327 627,330 627,331 630,334 630,335 633,338 633,339 636,342 636,343 639,346 639,347 641,349 642,348 641,349 643,350 642,350 642,349 643,351 644,351 643,352 645,354 646,354 645,356 646,357 647,359 648,359 647,363 648,364 648,366 648,365 650,364 648,365 648,367 647,367 647,368 646,368 643,371 644,372 643,371 640,374 640,375 639,375 639,376 637,376 636,378 637,376 638,376 633,376 632,377 629,377 628,378 626,378 625,379 623,380 623,381 621,381 621,382 619,382 618,384 619,382 620,382 612,383 612,384 609,384 609,385 606,385 606,386 605,386 605,387 603,387 602,389 603,387 604,387 602,387 599,390 599,393 600,394 601,396 602,396 602,398 603,398 602,398 603,403 604,403 604,406 605,406 605,408 606,408 605,408 605,409 605,408 606,412 607,412 607,414 608,414 607,416 609,418 610,418 609,420 610,421 610,423 611,424 611,425 610,426 611,427 610,427 610,428 609,428 609,429 608,429 608,430 607,430 607,431 606,430 604,432 603,432 600,435 600,436 599,436 598,438 599,437 598,437 598,439 599,439 599,440 601,440 601,439 602,438 601,438 602,438 602,437 603,438 605,436 606,436 609,433 609,432 610,432 610,431 611,431 611,430 612,430 612,429 613,429 615,427 615,422 614,421 614,419 613,418 612,416 611,416 612,415 611,414 610,412 609,412 609,410 608,410 609,408 608,406 607,406 607,404 606,404 606,401 605,401 606,398 605,396 604,396 604,394 603,394 604,392 603,391 603,392 604,391 605,391 606,389 605,389 607,389 607,388 608,388 608,387 611,387 611,386 614,386 614,385 620,386 621,386 622,384 621,384 623,384 623,383 625,383 625,382 627,383 628,382 630,382 631,381 634,381 635,380 639,380 640,378 639,378 641,378 641,377 642,377 642,376 643,377 649,371 648,370 649,370 649,369 650,369 650,367 650,368 652,367 652,362 651,361 650,357 649,357 650,355 649,354 648,352 647,352 648,351 646,349 645,349 646,349 646,348 645,348 645,347 643,345 643,344 640,341 640,340 637,337 637,336 634,333 634,332 631,329 631,328 628,325 628,324 625,321 624,321 625,320 623,319 624,319 623,319 622,317 622,316 619,313 619,312 617,310 617,309 616,308 616,307 614,305 614,304 613,303 613,302 612,301 612,300 610,298 610,297 607,294 606,294 607,293 605,292 606,292 605,292 605,291 604,290 603,290 603,289 602,289 602,288 601,288 601,287 600,287 600,285 599,285 599,284 598,284 599,283 598,281 597,281 597,278 596,278 596,276 597,276 598,274 598,273 599,273"/>
        <polygon class="pen1 brush2" fill-rule="nonzero" points="587,274 588,273 588,271 587,270 585,270 560,280 584,294 586,294 586,293 587,293 587,291 586,291 586,290 565,278 565,282 587,274"/>
        <polygon class="pen1 brush2" fill-rule="nonzero" points="581,274 581,273 579,273 579,274 578,274 578,276 579,276 578,275 579,281 580,281 579,281 579,282 580,280 581,279 579,280 578,287 578,286 578,288 579,288 579,289 581,289 581,288 582,288 582,287 581,282 581,283 583,281 582,279 581,279 582,275 581,274"/>
        <polygon class="pen1 brush2" fill-rule="nonzero" points="596,270 596,271 595,271 595,273 596,273 596,274 598,274 599,272 598,272 600,272 600,271 601,271 601,270 602,271 604,269 603,268 604,268 604,267 605,267 605,266 606,266 610,262 610,261 611,260 610,259 611,260 613,258 612,257 612,258 614,257 614,253 613,252 612,249 614,248 612,247 613,241 612,240 612,238 611,238 611,235 610,233 610,230 609,229 608,227 608,223 607,222 607,219 606,218 606,215 605,214 605,212 604,211 604,209 603,207 603,205 602,203 602,201 601,199 601,196 600,195 600,194 599,192 599,191 598,189 598,186 597,185 597,184 596,182 596,179 595,178 595,177 594,175 594,173 593,171 593,170 592,168 592,166 591,164 591,163 590,161 590,159 589,157 589,156 588,154 588,153 587,151 587,150 586,148 586,146 585,145 585,144 584,142 582,140 582,139 581,136 579,134 579,133 577,128 576,127 576,125 574,123 573,121 571,119 571,118 570,115 568,113 567,111 556,101 556,100 556,101 552,96 550,95 549,94 547,93 546,92 544,91 543,90 541,89 540,88 535,86 534,86 532,84 529,83 527,83 525,81 522,81 518,79 517,79 515,78 513,78 509,76 507,76 505,74 502,74 503,74 500,73 497,72 495,72 492,71 490,71 487,70 485,70 482,69 477,69 475,68 472,68 469,67 461,67 458,66 450,66 447,65 436,65 433,64 410,64 407,63 388,63 385,62 347,62 343,63 334,63 331,64 328,64 325,65 322,65 315,67 316,67 313,67 310,68 304,68 301,69 298,69 295,70 292,70 289,71 286,71 284,72 281,72 278,73 276,73 269,75 268,76 265,76 261,77 259,78 256,79 254,80 251,81 249,82 246,83 244,84 242,86 239,87 237,88 234,90 232,91 230,94 230,93 227,94 225,95 222,96 220,98 217,99 215,101 213,102 210,104 208,105 206,107 203,109 199,113 197,114 194,117 192,120 182,130 180,133 178,135 176,138 175,140 173,143 171,145 170,148 168,151 167,153 165,156 164,159 165,159 162,161 160,164 159,167 157,170 156,173 154,176 153,179 152,183 150,186 149,189 148,193 147,196 146,200 144,203 143,208 143,212 142,214 139,226 138,230 138,234 137,238 137,242 136,246 136,253 135,257 135,286 136,290 136,293 137,297 137,301 138,305 140,312 140,316 141,320 143,328 147,326 145,318 144,316 144,312 142,303 141,301 141,297 140,293 140,290 139,286 139,257 140,253 140,246 141,242 141,238 142,234 142,230 143,228 146,216 147,212 147,208 148,205 150,202 151,198 152,195 153,191 154,188 156,185 157,181 158,178 160,175 161,172 163,169 164,166 166,163 167,161 168,161 169,158 171,155 172,153 174,150 175,147 177,145 179,142 180,140 182,137 184,135 186,132 196,122 198,119 199,118 201,117 205,113 208,111 210,109 212,108 215,106 217,105 219,103 222,102 224,100 227,99 229,98 232,97 232,96 234,95 236,94 239,92 241,91 244,90 246,88 248,87 251,86 253,85 256,84 258,83 261,82 263,81 265,80 268,80 271,79 276,77 278,77 281,76 284,76 286,75 289,75 292,74 295,74 298,73 301,73 304,72 310,72 313,71 317,71 322,69 325,69 328,68 331,68 334,67 343,67 347,66 385,66 388,67 407,67 410,68 433,68 436,69 447,69 450,70 458,70 461,71 469,71 472,72 475,72 477,73 482,73 485,74 487,74 490,75 492,75 495,76 497,76 498,77 501,78 503,78 504,79 507,80 509,80 513,82 515,82 517,83 518,83 522,85 523,85 524,86 527,87 529,87 531,89 534,90 535,90 538,92 539,93 541,94 542,95 544,96 545,97 547,98 548,99 550,100 554,103 554,104 554,103 563,113 564,115 567,118 567,119 568,122 569,123 570,125 572,127 572,129 573,130 575,133 575,134 576,137 578,139 578,140 579,143 580,144 581,146 581,145 581,147 582,148 583,150 583,151 584,153 584,154 585,156 585,157 586,159 586,161 587,163 587,164 588,166 588,168 589,170 589,171 590,173 590,175 591,177 591,180 592,181 592,182 593,184 593,187 594,188 594,189 595,191 595,192 596,194 596,195 597,198 597,197 597,199 598,201 598,203 599,205 599,207 600,209 600,213 601,214 601,216 602,217 602,220 603,221 603,224 604,225 604,227 605,229 605,231 606,232 606,233 607,235 607,239 609,240 608,240 608,239 608,242 609,243 610,249 610,247 609,254 610,255 610,256 612,254 610,255 606,259 606,260 603,263 604,264 603,264 603,265 602,265 602,266 601,266 599,268 599,269 598,269 598,270 596,270 595,272 596,270"/>
        <polygon class="pen1 brush2" fill-rule="nonzero" points="143,328 144,331 145,335 147,339 148,342 149,346 150,349 151,353 152,356 154,360 156,366 158,370 161,379 163,382 164,385 165,387 166,390 167,392 168,395 171,401 172,404 173,406 175,408 179,416 181,418 185,426 187,428 190,434 191,435 192,437 194,439 196,443 197,444 200,450 200,449 200,452 201,453 201,454 202,456 202,457 203,459 203,462 204,463 204,465 205,466 205,468 206,469 206,471 207,473 207,476 208,477 208,479 209,481 209,484 210,486 210,491 211,493 211,499 212,501 212,511 211,512 211,525 210,527 210,534 209,536 209,542 208,544 208,548 207,550 207,555 206,557 206,562 206,561 205,564 205,567 204,568 203,572 203,574 202,576 201,579 201,582 200,584 199,586 196,596 196,599 195,600 187,624 186,628 184,631 183,634 182,638 180,644 178,648 177,651 176,656 176,655 176,657 177,658 179,658 180,657 180,656 181,653 182,650 184,646 186,640 187,636 188,633 190,630 191,626 199,602 200,599 200,596 203,588 204,586 205,582 205,579 206,578 207,574 207,572 208,570 209,567 209,564 210,563 210,557 211,555 211,550 212,548 212,544 213,542 213,536 214,534 214,527 215,525 215,514 216,513 216,501 215,499 215,493 214,491 214,486 213,484 213,481 212,479 212,475 211,474 211,473 210,471 210,467 209,466 209,464 208,463 208,461 207,460 207,459 206,457 206,456 205,454 205,451 204,450 204,448 201,442 200,441 198,437 196,435 195,433 194,432 191,426 189,424 185,416 183,414 179,406 177,404 176,402 175,399 172,393 171,390 170,388 169,385 168,383 167,380 165,377 162,368 160,364 158,358 156,354 155,351 154,347 153,344 152,340 151,337 149,333 148,329 147,326 143,328"/>
        <polygon class="pen1 brush2" fill-rule="nonzero" points="41,654 41,739 705,739 705,654 41,654 42,657 704,657 702,655 702,738 704,736 42,736 44,738 44,655 42,657 41,654"/>
        <polygon class="pen1 brush2" fill-rule="nonzero" points="423,295 424,296 422,293 419,290 418,288 410,280 408,279 407,278 405,277 401,273 398,273 397,272 390,268 388,268 387,267 385,267 383,266 379,266 377,265 358,265 339,271 336,272 334,274 330,275 326,280 323,282 319,286 317,289 312,293 311,297 309,299 308,302 302,321 302,340 303,345 305,351 306,353 309,362 311,366 312,368 323,379 326,381 330,385 334,388 336,389 338,391 352,395 355,395 358,396 361,396 364,397 375,397 375,391 364,391 361,390 358,390 355,389 352,389 342,385 340,383 336,382 334,381 330,377 327,375 319,367 318,364 317,362 315,360 312,351 311,349 309,343 308,340 308,321 314,304 315,303 317,299 318,297 321,293 323,290 327,286 330,284 334,281 336,280 340,278 341,277 358,271 375,271 377,272 381,272 383,273 385,273 386,274 388,274 393,276 394,277 397,279 399,279 401,281 403,282 404,283 406,284 414,292 415,294 418,297 418,298 419,299 423,295"/>
        <polygon class="pen1 brush2" fill-rule="nonzero" points="419,293 370,394 376,396 425,295 419,293"/>
        <ellipse class="pen0 brush2" cx="368" cy="333" rx="11" ry="15"/>
        <ellipse class="pen0 brush2" cx="604" cy="449" rx="11" ry="15"/>
        <text class="font1" fill="rgb(0,0,0)" stroke="none" style="dominant-baseline: text-before-edge;" x="632" xml:lang="en" xml:space="preserve" y="395">M</text>
        <text class="font1" fill="rgb(0,0,0)" stroke="none" style="dominant-baseline: text-before-edge;" x="323 374" xml:lang="en" xml:space="preserve" y="188">RE</text>
        <polygon class="pen1 brush2" fill-rule="nonzero" points="59,177 70,183 72,177 61,171 59,177"/>
        <polygon class="pen1 brush2" fill-rule="nonzero" points="80,188 91,194 93,188 82,182 80,188"/>
        <polygon class="pen1 brush2" fill-rule="nonzero" points="101,199 111,205 115,199 105,193 101,199"/>
        <polygon class="pen1 brush2" fill-rule="nonzero" points="123,210 134,216 136,210 125,204 123,210"/>
        <polygon class="pen1 brush2" fill-rule="nonzero" points="144,221 155,227 157,221 146,215 144,221"/>
        <polygon class="pen1 brush2" fill-rule="nonzero" points="165,232 176,238 178,232 167,226 165,232"/>
        <polygon class="pen1 brush2" fill-rule="nonzero" points="186,243 196,249 200,243 190,237 186,243"/>
        <polygon class="pen1 brush2" fill-rule="nonzero" points="208,255 219,260 221,254 210,249 208,255"/>
        <polygon class="pen1 brush2" fill-rule="nonzero" points="229,266 240,271 242,265 231,260 229,266"/>
        <polygon class="pen1 brush2" fill-rule="nonzero" points="251,277 261,282 263,276 253,271 251,277"/>
        <polygon class="pen1 brush2" fill-rule="nonzero" points="272,288 283,293 285,287 274,282 272,288"/>
        <polygon class="pen1 brush2" fill-rule="nonzero" points="293,299 304,304 306,298 295,293 293,299"/>
        <polygon class="pen1 brush2" fill-rule="nonzero" points="314,310 325,316 327,310 316,304 314,310"/>
        <polygon class="pen1 brush2" fill-rule="nonzero" points="335,321 345,327 349,321 339,315 335,321"/>
        <polygon class="pen1 brush2" fill-rule="nonzero" points="357,332 368,338 370,332 359,326 357,332"/>
        <polygon class="pen1 brush2" fill-rule="nonzero" points="378,343 389,349 391,343 380,337 378,343"/>
        <polygon class="pen1 brush2" fill-rule="nonzero" points="399,354 409,360 413,354 403,348 399,354"/>
        <polygon class="pen1 brush2" fill-rule="nonzero" points="421,365 432,371 434,365 423,359 421,365"/>
        <polygon class="pen1 brush2" fill-rule="nonzero" points="442,376 453,382 455,376 444,370 442,376"/>
        <polygon class="pen1 brush2" fill-rule="nonzero" points="463,388 474,393 476,387 465,382 463,388"/>
        <polygon class="pen1 brush2" fill-rule="nonzero" points="485,399 495,404 497,398 487,393 485,399"/>
        <polygon class="pen1 brush2" fill-rule="nonzero" points="506,410 517,415 519,409 508,404 506,410"/>
        <polygon class="pen1 brush2" fill-rule="nonzero" points="527,421 538,426 540,420 529,415 527,421"/>
        <polygon class="pen1 brush2" fill-rule="nonzero" points="549,432 559,437 561,431 551,426 549,432"/>
        <polygon class="pen1 brush2" fill-rule="nonzero" points="570,443 581,448 583,442 572,437 570,443"/>
        <polygon class="pen1 brush2" fill-rule="nonzero" points="591,454 602,460 604,454 593,448 591,454"/>
        <polygon class="pen1 brush2" fill-rule="nonzero" points="612,465 623,471 625,465 614,459 612,465"/>
        <polygon class="pen1 brush2" fill-rule="nonzero" points="633,476 643,482 647,476 637,470 633,476"/>
        <polygon class="pen1 brush2" fill-rule="nonzero" points="655,487 666,493 668,487 657,481 655,487"/>
        <polygon class="pen1 brush2" fill-rule="nonzero" points="676,498 687,504 689,498 678,492 676,498"/>
        <polygon class="pen1 brush2" fill-rule="nonzero" points="697,509 707,515 711,509 701,503 697,509"/>
        <text class="font3" fill="rgb(0,0,0)" stroke="none" style="dominant-baseline: text-before-edge;" x="0 51 91 110 150 173 213 252 288" xml:lang="en" xml:space="preserve" y="0">Reference</text>
        <text class="font3" fill="rgb(0,0,0)" stroke="none" style="dominant-baseline: text-before-edge;" x="0 39 55 95 134" xml:lang="en" xml:space="preserve" y="82">plane</text>
    </g>
</svg>
