<?xml version="1.0"  encoding="UTF-8" standalone="no"?>
<svg version="1.1" xmlns="http://www.w3.org/2000/svg" xmlns:xlink="http://www.w3.org/1999/xlink" width="437.0000" height="138.0000">
<g transform="translate(-11.0000, -0.0000)">
<g transform="matrix(0.0625 0.0000 0.0000 0.0625 0.0000 0.0000)">
<path d="M 945.0000,22.0000 L 945.0000,626.0000 L 7157.0000,626.0000 L 7157.0000,22.0000 L 945.0000,22.0000 Z" stroke-width="1px" stroke="#FFFFFF"  fill="#FFFFFF" />
</g>
<g transform="matrix(1.0000 0.0000 0.0000 1.0000 0.0000 0.0000)">
<defs><clipPath id="clip-1804289383"><path d="M 0.0000,0.0000 L 449.0000,0.0000 L 449.0000,147.0000 L 0.0000,147.0000 L 0.0000,0.0000 Z Z" /></clipPath></defs>
</g>
<g transform="matrix(0.0625 0.0000 0.0000 0.0625 0.0000 0.0000)">
<path  clip-path="url(#clip-1804289383)" d="M 945.0000,626.0000 L 7157.0000,626.0000 L 7157.0000,22.0000 L 945.0000,22.0000 L 945.0000,626.0000 Z" stroke="#000000" stroke-width="5.0000"  stroke-linecap="round"  stroke-linejoin="round" fill="none" />
</g>
<g transform="matrix(1.0000 0.0000 0.0000 1.0000 0.0000 0.0000)">
</g>
<g transform="matrix(1.0000 0.0000 0.0000 1.0000 196.7828 25.5190)">
<text font-family="Times New Roman" fill="#000000" style ="white-space:pre;" font-weight="400" text-anchor="start" x="0.0000" y="0.0000" font-size="16.0000" ><![CDATA[Downlink frame ]]></text>
</g>
<g transform="matrix(1.0000 0.0000 0.0000 1.0000 306.0887 25.5190)">
<text font-family="Times New Roman" fill="#000000" font-style="italic" style ="white-space:pre;" font-weight="400" text-anchor="start" x="0.0000" y="0.0000" font-size="16.0000" ><![CDATA[i]]></text>
</g>
<g transform="matrix(0.0625 0.0000 0.0000 0.0625 0.0000 0.0000)">
<path d="M 508.0000,1539.0000 L 508.0000,1544.0000 C 508.0000,1545.0000 506.0000,1546.0000 505.0000,1546.0000 C 504.0000,1546.0000 502.0000,1545.0000 502.0000,1544.0000 L 502.0000,1539.0000 C 502.0000,1537.0000 504.0000,1536.0000 505.0000,1536.0000 C 506.0000,1536.0000 508.0000,1537.0000 508.0000,1539.0000 Z M 508.0000,1554.0000 L 508.0000,1559.0000 C 508.0000,1560.0000 506.0000,1562.0000 505.0000,1562.0000 C 504.0000,1562.0000 502.0000,1560.0000 502.0000,1559.0000 L 502.0000,1554.0000 C 502.0000,1552.0000 504.0000,1551.0000 505.0000,1551.0000 C 506.0000,1551.0000 508.0000,1552.0000 508.0000,1554.0000 Z M 508.0000,1569.0000 L 508.0000,1574.0000 C 508.0000,1576.0000 506.0000,1577.0000 505.0000,1577.0000 C 504.0000,1577.0000 502.0000,1576.0000 502.0000,1574.0000 L 502.0000,1569.0000 C 502.0000,1568.0000 504.0000,1567.0000 505.0000,1567.0000 C 506.0000,1567.0000 508.0000,1568.0000 508.0000,1569.0000 Z M 508.0000,1585.0000 L 508.0000,1590.0000 C 508.0000,1591.0000 506.0000,1592.0000 505.0000,1592.0000 C 504.0000,1592.0000 502.0000,1591.0000 502.0000,1590.0000 L 502.0000,1585.0000 C 502.0000,1583.0000 504.0000,1582.0000 505.0000,1582.0000 C 506.0000,1582.0000 508.0000,1583.0000 508.0000,1585.0000 Z M 508.0000,1600.0000 L 508.0000,1605.0000 C 508.0000,1606.0000 506.0000,1608.0000 505.0000,1608.0000 C 504.0000,1608.0000 502.0000,1606.0000 502.0000,1605.0000 L 502.0000,1600.0000 C 502.0000,1599.0000 504.0000,1597.0000 505.0000,1597.0000 C 506.0000,1597.0000 508.0000,1599.0000 508.0000,1600.0000 Z M 508.0000,1615.0000 L 508.0000,1620.0000 C 508.0000,1622.0000 506.0000,1623.0000 505.0000,1623.0000 C 504.0000,1623.0000 502.0000,1622.0000 502.0000,1620.0000 L 502.0000,1615.0000 C 502.0000,1614.0000 504.0000,1613.0000 505.0000,1613.0000 C 506.0000,1613.0000 508.0000,1614.0000 508.0000,1615.0000 Z M 508.0000,1631.0000 L 508.0000,1636.0000 C 508.0000,1637.0000 506.0000,1638.0000 505.0000,1638.0000 C 504.0000,1638.0000 502.0000,1637.0000 502.0000,1636.0000 L 502.0000,1631.0000 C 502.0000,1629.0000 504.0000,1628.0000 505.0000,1628.0000 C 506.0000,1628.0000 508.0000,1629.0000 508.0000,1631.0000 Z M 508.0000,1646.0000 L 508.0000,1651.0000 C 508.0000,1653.0000 506.0000,1654.0000 505.0000,1654.0000 C 504.0000,1654.0000 502.0000,1653.0000 502.0000,1651.0000 L 502.0000,1646.0000 C 502.0000,1645.0000 504.0000,1643.0000 505.0000,1643.0000 C 506.0000,1643.0000 508.0000,1645.0000 508.0000,1646.0000 Z M 508.0000,1661.0000 L 508.0000,1667.0000 C 508.0000,1668.0000 506.0000,1669.0000 505.0000,1669.0000 C 504.0000,1669.0000 502.0000,1668.0000 502.0000,1667.0000 L 502.0000,1661.0000 C 502.0000,1660.0000 504.0000,1659.0000 505.0000,1659.0000 C 506.0000,1659.0000 508.0000,1660.0000 508.0000,1661.0000 Z M 508.0000,1677.0000 L 508.0000,1682.0000 C 508.0000,1683.0000 506.0000,1684.0000 505.0000,1684.0000 C 504.0000,1684.0000 502.0000,1683.0000 502.0000,1682.0000 L 502.0000,1677.0000 C 502.0000,1675.0000 504.0000,1674.0000 505.0000,1674.0000 C 506.0000,1674.0000 508.0000,1675.0000 508.0000,1677.0000 Z M 508.0000,1692.0000 L 508.0000,1697.0000 C 508.0000,1699.0000 506.0000,1700.0000 505.0000,1700.0000 C 504.0000,1700.0000 502.0000,1699.0000 502.0000,1697.0000 L 502.0000,1692.0000 C 502.0000,1691.0000 504.0000,1690.0000 505.0000,1690.0000 C 506.0000,1690.0000 508.0000,1691.0000 508.0000,1692.0000 Z M 508.0000,1707.0000 L 508.0000,1713.0000 C 508.0000,1714.0000 506.0000,1715.0000 505.0000,1715.0000 C 504.0000,1715.0000 502.0000,1714.0000 502.0000,1713.0000 L 502.0000,1707.0000 C 502.0000,1706.0000 504.0000,1705.0000 505.0000,1705.0000 C 506.0000,1705.0000 508.0000,1706.0000 508.0000,1707.0000 Z M 508.0000,1723.0000 L 508.0000,1728.0000 C 508.0000,1729.0000 506.0000,1731.0000 505.0000,1731.0000 C 504.0000,1731.0000 502.0000,1729.0000 502.0000,1728.0000 L 502.0000,1723.0000 C 502.0000,1721.0000 504.0000,1720.0000 505.0000,1720.0000 C 506.0000,1720.0000 508.0000,1721.0000 508.0000,1723.0000 Z M 508.0000,1738.0000 L 508.0000,1743.0000 C 508.0000,1745.0000 506.0000,1746.0000 505.0000,1746.0000 C 504.0000,1746.0000 502.0000,1745.0000 502.0000,1743.0000 L 502.0000,1738.0000 C 502.0000,1737.0000 504.0000,1736.0000 505.0000,1736.0000 C 506.0000,1736.0000 508.0000,1737.0000 508.0000,1738.0000 Z M 508.0000,1754.0000 L 508.0000,1759.0000 C 508.0000,1760.0000 506.0000,1761.0000 505.0000,1761.0000 C 504.0000,1761.0000 502.0000,1760.0000 502.0000,1759.0000 L 502.0000,1754.0000 C 502.0000,1752.0000 504.0000,1751.0000 505.0000,1751.0000 C 506.0000,1751.0000 508.0000,1752.0000 508.0000,1754.0000 Z M 508.0000,1769.0000 L 508.0000,1774.0000 C 508.0000,1775.0000 506.0000,1777.0000 505.0000,1777.0000 C 504.0000,1777.0000 502.0000,1775.0000 502.0000,1774.0000 L 502.0000,1769.0000 C 502.0000,1768.0000 504.0000,1766.0000 505.0000,1766.0000 C 506.0000,1766.0000 508.0000,1768.0000 508.0000,1769.0000 Z M 508.0000,1784.0000 L 508.0000,1789.0000 C 508.0000,1791.0000 506.0000,1792.0000 505.0000,1792.0000 C 504.0000,1792.0000 502.0000,1791.0000 502.0000,1789.0000 L 502.0000,1784.0000 C 502.0000,1783.0000 504.0000,1782.0000 505.0000,1782.0000 C 506.0000,1782.0000 508.0000,1783.0000 508.0000,1784.0000 Z M 508.0000,1800.0000 L 508.0000,1805.0000 C 508.0000,1806.0000 506.0000,1807.0000 505.0000,1807.0000 C 504.0000,1807.0000 502.0000,1806.0000 502.0000,1805.0000 L 502.0000,1800.0000 C 502.0000,1798.0000 504.0000,1797.0000 505.0000,1797.0000 C 506.0000,1797.0000 508.0000,1798.0000 508.0000,1800.0000 Z M 508.0000,1815.0000 L 508.0000,1820.0000 C 508.0000,1822.0000 506.0000,1823.0000 505.0000,1823.0000 C 504.0000,1823.0000 502.0000,1822.0000 502.0000,1820.0000 L 502.0000,1815.0000 C 502.0000,1814.0000 504.0000,1812.0000 505.0000,1812.0000 C 506.0000,1812.0000 508.0000,1814.0000 508.0000,1815.0000 Z M 508.0000,1830.0000 L 508.0000,1835.0000 C 508.0000,1837.0000 506.0000,1838.0000 505.0000,1838.0000 C 504.0000,1838.0000 502.0000,1837.0000 502.0000,1835.0000 L 502.0000,1830.0000 C 502.0000,1829.0000 504.0000,1828.0000 505.0000,1828.0000 C 506.0000,1828.0000 508.0000,1829.0000 508.0000,1830.0000 Z M 508.0000,1846.0000 L 508.0000,1851.0000 C 508.0000,1852.0000 506.0000,1853.0000 505.0000,1853.0000 C 504.0000,1853.0000 502.0000,1852.0000 502.0000,1851.0000 L 502.0000,1846.0000 C 502.0000,1844.0000 504.0000,1843.0000 505.0000,1843.0000 C 506.0000,1843.0000 508.0000,1844.0000 508.0000,1846.0000 Z M 508.0000,1861.0000 L 508.0000,1866.0000 C 508.0000,1868.0000 506.0000,1869.0000 505.0000,1869.0000 C 504.0000,1869.0000 502.0000,1868.0000 502.0000,1866.0000 L 502.0000,1861.0000 C 502.0000,1860.0000 504.0000,1859.0000 505.0000,1859.0000 C 506.0000,1859.0000 508.0000,1860.0000 508.0000,1861.0000 Z M 508.0000,1876.0000 L 508.0000,1882.0000 C 508.0000,1883.0000 506.0000,1884.0000 505.0000,1884.0000 C 504.0000,1884.0000 502.0000,1883.0000 502.0000,1882.0000 L 502.0000,1876.0000 C 502.0000,1875.0000 504.0000,1874.0000 505.0000,1874.0000 C 506.0000,1874.0000 508.0000,1875.0000 508.0000,1876.0000 Z M 508.0000,1892.0000 L 508.0000,1897.0000 C 508.0000,1898.0000 506.0000,1899.0000 505.0000,1899.0000 C 504.0000,1899.0000 502.0000,1898.0000 502.0000,1897.0000 L 502.0000,1892.0000 C 502.0000,1890.0000 504.0000,1889.0000 505.0000,1889.0000 C 506.0000,1889.0000 508.0000,1890.0000 508.0000,1892.0000 Z M 508.0000,1907.0000 L 508.0000,1912.0000 C 508.0000,1914.0000 506.0000,1915.0000 505.0000,1915.0000 C 504.0000,1915.0000 502.0000,1914.0000 502.0000,1912.0000 L 502.0000,1907.0000 C 502.0000,1906.0000 504.0000,1905.0000 505.0000,1905.0000 C 506.0000,1905.0000 508.0000,1906.0000 508.0000,1907.0000 Z M 508.0000,1923.0000 L 508.0000,1928.0000 C 508.0000,1929.0000 506.0000,1930.0000 505.0000,1930.0000 C 504.0000,1930.0000 502.0000,1929.0000 502.0000,1928.0000 L 502.0000,1923.0000 C 502.0000,1921.0000 504.0000,1920.0000 505.0000,1920.0000 C 506.0000,1920.0000 508.0000,1921.0000 508.0000,1923.0000 Z M 508.0000,1938.0000 L 508.0000,1943.0000 C 508.0000,1944.0000 506.0000,1946.0000 505.0000,1946.0000 C 504.0000,1946.0000 502.0000,1944.0000 502.0000,1943.0000 L 502.0000,1938.0000 C 502.0000,1936.0000 504.0000,1935.0000 505.0000,1935.0000 C 506.0000,1935.0000 508.0000,1936.0000 508.0000,1938.0000 Z M 508.0000,1953.0000 L 508.0000,1958.0000 C 508.0000,1960.0000 506.0000,1961.0000 505.0000,1961.0000 C 504.0000,1961.0000 502.0000,1960.0000 502.0000,1958.0000 L 502.0000,1953.0000 C 502.0000,1952.0000 504.0000,1951.0000 505.0000,1951.0000 C 506.0000,1951.0000 508.0000,1952.0000 508.0000,1953.0000 Z M 508.0000,1969.0000 L 508.0000,1974.0000 C 508.0000,1975.0000 506.0000,1976.0000 505.0000,1976.0000 C 504.0000,1976.0000 502.0000,1975.0000 502.0000,1974.0000 L 502.0000,1969.0000 C 502.0000,1967.0000 504.0000,1966.0000 505.0000,1966.0000 C 506.0000,1966.0000 508.0000,1967.0000 508.0000,1969.0000 Z M 508.0000,1984.0000 L 508.0000,1989.0000 C 508.0000,1990.0000 506.0000,1992.0000 505.0000,1992.0000 C 504.0000,1992.0000 502.0000,1990.0000 502.0000,1989.0000 L 502.0000,1984.0000 C 502.0000,1983.0000 504.0000,1981.0000 505.0000,1981.0000 C 506.0000,1981.0000 508.0000,1983.0000 508.0000,1984.0000 Z M 508.0000,1999.0000 L 508.0000,2004.0000 C 508.0000,2006.0000 506.0000,2007.0000 505.0000,2007.0000 C 504.0000,2007.0000 502.0000,2006.0000 502.0000,2004.0000 L 502.0000,1999.0000 C 502.0000,1998.0000 504.0000,1997.0000 505.0000,1997.0000 C 506.0000,1997.0000 508.0000,1998.0000 508.0000,1999.0000 Z M 508.0000,2015.0000 L 508.0000,2020.0000 C 508.0000,2021.0000 506.0000,2022.0000 505.0000,2022.0000 C 504.0000,2022.0000 502.0000,2021.0000 502.0000,2020.0000 L 502.0000,2015.0000 C 502.0000,2013.0000 504.0000,2012.0000 505.0000,2012.0000 C 506.0000,2012.0000 508.0000,2013.0000 508.0000,2015.0000 Z M 508.0000,2030.0000 L 508.0000,2035.0000 C 508.0000,2037.0000 506.0000,2038.0000 505.0000,2038.0000 C 504.0000,2038.0000 502.0000,2037.0000 502.0000,2035.0000 L 502.0000,2030.0000 C 502.0000,2029.0000 504.0000,2027.0000 505.0000,2027.0000 C 506.0000,2027.0000 508.0000,2029.0000 508.0000,2030.0000 Z M 508.0000,2045.0000 L 508.0000,2051.0000 C 508.0000,2052.0000 506.0000,2053.0000 505.0000,2053.0000 C 504.0000,2053.0000 502.0000,2052.0000 502.0000,2051.0000 L 502.0000,2045.0000 C 502.0000,2044.0000 504.0000,2043.0000 505.0000,2043.0000 C 506.0000,2043.0000 508.0000,2044.0000 508.0000,2045.0000 Z M 508.0000,2061.0000 L 508.0000,2066.0000 C 508.0000,2067.0000 506.0000,2068.0000 505.0000,2068.0000 C 504.0000,2068.0000 502.0000,2067.0000 502.0000,2066.0000 L 502.0000,2061.0000 C 502.0000,2059.0000 504.0000,2058.0000 505.0000,2058.0000 C 506.0000,2058.0000 508.0000,2059.0000 508.0000,2061.0000 Z M 508.0000,2076.0000 L 508.0000,2081.0000 C 508.0000,2083.0000 506.0000,2084.0000 505.0000,2084.0000 C 504.0000,2084.0000 502.0000,2083.0000 502.0000,2081.0000 L 502.0000,2076.0000 C 502.0000,2075.0000 504.0000,2074.0000 505.0000,2074.0000 C 506.0000,2074.0000 508.0000,2075.0000 508.0000,2076.0000 Z M 508.0000,2091.0000 L 508.0000,2097.0000 C 508.0000,2098.0000 506.0000,2099.0000 505.0000,2099.0000 C 504.0000,2099.0000 502.0000,2098.0000 502.0000,2097.0000 L 502.0000,2091.0000 C 502.0000,2090.0000 504.0000,2089.0000 505.0000,2089.0000 C 506.0000,2089.0000 508.0000,2090.0000 508.0000,2091.0000 Z M 508.0000,2107.0000 L 508.0000,2112.0000 C 508.0000,2113.0000 506.0000,2115.0000 505.0000,2115.0000 C 504.0000,2115.0000 502.0000,2113.0000 502.0000,2112.0000 L 502.0000,2107.0000 C 502.0000,2105.0000 504.0000,2104.0000 505.0000,2104.0000 C 506.0000,2104.0000 508.0000,2105.0000 508.0000,2107.0000 Z M 508.0000,2122.0000 L 508.0000,2127.0000 C 508.0000,2129.0000 506.0000,2130.0000 505.0000,2130.0000 C 504.0000,2130.0000 502.0000,2129.0000 502.0000,2127.0000 L 502.0000,2122.0000 C 502.0000,2121.0000 504.0000,2120.0000 505.0000,2120.0000 C 506.0000,2120.0000 508.0000,2121.0000 508.0000,2122.0000 Z M 508.0000,2138.0000 L 508.0000,2143.0000 C 508.0000,2144.0000 506.0000,2145.0000 505.0000,2145.0000 C 504.0000,2145.0000 502.0000,2144.0000 502.0000,2143.0000 L 502.0000,2138.0000 C 502.0000,2136.0000 504.0000,2135.0000 505.0000,2135.0000 C 506.0000,2135.0000 508.0000,2136.0000 508.0000,2138.0000 Z "  fill="#000000" stroke="#000000" stroke-width="1.0000"  stroke-linecap="butt"  stroke-linejoin="round" />
</g>
<g transform="matrix(1.0000 0.0000 0.0000 1.0000 0.0000 0.0000)">
</g>
<g transform="matrix(0.0625 0.0000 0.0000 0.0625 0.0000 0.0000)">
<path d="M 948.0000,626.0000 L 948.0000,631.0000 C 948.0000,633.0000 946.0000,634.0000 945.0000,634.0000 C 944.0000,634.0000 942.0000,633.0000 942.0000,631.0000 L 942.0000,626.0000 C 942.0000,625.0000 944.0000,624.0000 945.0000,624.0000 C 946.0000,624.0000 948.0000,625.0000 948.0000,626.0000 Z M 948.0000,642.0000 L 948.0000,647.0000 C 948.0000,648.0000 946.0000,649.0000 945.0000,649.0000 C 944.0000,649.0000 942.0000,648.0000 942.0000,647.0000 L 942.0000,642.0000 C 942.0000,640.0000 944.0000,639.0000 945.0000,639.0000 C 946.0000,639.0000 948.0000,640.0000 948.0000,642.0000 Z M 948.0000,657.0000 L 948.0000,662.0000 C 948.0000,664.0000 946.0000,665.0000 945.0000,665.0000 C 944.0000,665.0000 942.0000,664.0000 942.0000,662.0000 L 942.0000,657.0000 C 942.0000,656.0000 944.0000,654.0000 945.0000,654.0000 C 946.0000,654.0000 948.0000,656.0000 948.0000,657.0000 Z M 948.0000,672.0000 L 948.0000,678.0000 C 948.0000,679.0000 946.0000,680.0000 945.0000,680.0000 C 944.0000,680.0000 942.0000,679.0000 942.0000,678.0000 L 942.0000,672.0000 C 942.0000,671.0000 944.0000,670.0000 945.0000,670.0000 C 946.0000,670.0000 948.0000,671.0000 948.0000,672.0000 Z M 948.0000,688.0000 L 948.0000,693.0000 C 948.0000,694.0000 946.0000,695.0000 945.0000,695.0000 C 944.0000,695.0000 942.0000,694.0000 942.0000,693.0000 L 942.0000,688.0000 C 942.0000,686.0000 944.0000,685.0000 945.0000,685.0000 C 946.0000,685.0000 948.0000,686.0000 948.0000,688.0000 Z M 948.0000,703.0000 L 948.0000,708.0000 C 948.0000,710.0000 946.0000,711.0000 945.0000,711.0000 C 944.0000,711.0000 942.0000,710.0000 942.0000,708.0000 L 942.0000,703.0000 C 942.0000,702.0000 944.0000,701.0000 945.0000,701.0000 C 946.0000,701.0000 948.0000,702.0000 948.0000,703.0000 Z M 948.0000,718.0000 L 948.0000,724.0000 C 948.0000,725.0000 946.0000,726.0000 945.0000,726.0000 C 944.0000,726.0000 942.0000,725.0000 942.0000,724.0000 L 942.0000,718.0000 C 942.0000,717.0000 944.0000,716.0000 945.0000,716.0000 C 946.0000,716.0000 948.0000,717.0000 948.0000,718.0000 Z M 948.0000,734.0000 L 948.0000,739.0000 C 948.0000,740.0000 946.0000,742.0000 945.0000,742.0000 C 944.0000,742.0000 942.0000,740.0000 942.0000,739.0000 L 942.0000,734.0000 C 942.0000,732.0000 944.0000,731.0000 945.0000,731.0000 C 946.0000,731.0000 948.0000,732.0000 948.0000,734.0000 Z M 948.0000,749.0000 L 948.0000,754.0000 C 948.0000,756.0000 946.0000,757.0000 945.0000,757.0000 C 944.0000,757.0000 942.0000,756.0000 942.0000,754.0000 L 942.0000,749.0000 C 942.0000,748.0000 944.0000,747.0000 945.0000,747.0000 C 946.0000,747.0000 948.0000,748.0000 948.0000,749.0000 Z M 948.0000,765.0000 L 948.0000,770.0000 C 948.0000,771.0000 946.0000,772.0000 945.0000,772.0000 C 944.0000,772.0000 942.0000,771.0000 942.0000,770.0000 L 942.0000,765.0000 C 942.0000,763.0000 944.0000,762.0000 945.0000,762.0000 C 946.0000,762.0000 948.0000,763.0000 948.0000,765.0000 Z M 948.0000,780.0000 L 948.0000,785.0000 C 948.0000,786.0000 946.0000,788.0000 945.0000,788.0000 C 944.0000,788.0000 942.0000,786.0000 942.0000,785.0000 L 942.0000,780.0000 C 942.0000,778.0000 944.0000,777.0000 945.0000,777.0000 C 946.0000,777.0000 948.0000,778.0000 948.0000,780.0000 Z M 948.0000,795.0000 L 948.0000,800.0000 C 948.0000,802.0000 946.0000,803.0000 945.0000,803.0000 C 944.0000,803.0000 942.0000,802.0000 942.0000,800.0000 L 942.0000,795.0000 C 942.0000,794.0000 944.0000,793.0000 945.0000,793.0000 C 946.0000,793.0000 948.0000,794.0000 948.0000,795.0000 Z M 948.0000,811.0000 L 948.0000,816.0000 C 948.0000,817.0000 946.0000,818.0000 945.0000,818.0000 C 944.0000,818.0000 942.0000,817.0000 942.0000,816.0000 L 942.0000,811.0000 C 942.0000,809.0000 944.0000,808.0000 945.0000,808.0000 C 946.0000,808.0000 948.0000,809.0000 948.0000,811.0000 Z M 948.0000,826.0000 L 948.0000,831.0000 C 948.0000,833.0000 946.0000,834.0000 945.0000,834.0000 C 944.0000,834.0000 942.0000,833.0000 942.0000,831.0000 L 942.0000,826.0000 C 942.0000,825.0000 944.0000,823.0000 945.0000,823.0000 C 946.0000,823.0000 948.0000,825.0000 948.0000,826.0000 Z M 948.0000,841.0000 L 948.0000,846.0000 C 948.0000,848.0000 946.0000,849.0000 945.0000,849.0000 C 944.0000,849.0000 942.0000,848.0000 942.0000,846.0000 L 942.0000,841.0000 C 942.0000,840.0000 944.0000,839.0000 945.0000,839.0000 C 946.0000,839.0000 948.0000,840.0000 948.0000,841.0000 Z M 948.0000,857.0000 L 948.0000,862.0000 C 948.0000,863.0000 946.0000,864.0000 945.0000,864.0000 C 944.0000,864.0000 942.0000,863.0000 942.0000,862.0000 L 942.0000,857.0000 C 942.0000,855.0000 944.0000,854.0000 945.0000,854.0000 C 946.0000,854.0000 948.0000,855.0000 948.0000,857.0000 Z M 948.0000,872.0000 L 948.0000,877.0000 C 948.0000,879.0000 946.0000,880.0000 945.0000,880.0000 C 944.0000,880.0000 942.0000,879.0000 942.0000,877.0000 L 942.0000,872.0000 C 942.0000,871.0000 944.0000,870.0000 945.0000,870.0000 C 946.0000,870.0000 948.0000,871.0000 948.0000,872.0000 Z M 948.0000,887.0000 L 948.0000,893.0000 C 948.0000,894.0000 946.0000,895.0000 945.0000,895.0000 C 944.0000,895.0000 942.0000,894.0000 942.0000,893.0000 L 942.0000,887.0000 C 942.0000,886.0000 944.0000,885.0000 945.0000,885.0000 C 946.0000,885.0000 948.0000,886.0000 948.0000,887.0000 Z M 948.0000,903.0000 L 948.0000,908.0000 C 948.0000,909.0000 946.0000,910.0000 945.0000,910.0000 C 944.0000,910.0000 942.0000,909.0000 942.0000,908.0000 L 942.0000,903.0000 C 942.0000,901.0000 944.0000,900.0000 945.0000,900.0000 C 946.0000,900.0000 948.0000,901.0000 948.0000,903.0000 Z M 948.0000,918.0000 L 948.0000,923.0000 C 948.0000,925.0000 946.0000,926.0000 945.0000,926.0000 C 944.0000,926.0000 942.0000,925.0000 942.0000,923.0000 L 942.0000,918.0000 C 942.0000,917.0000 944.0000,916.0000 945.0000,916.0000 C 946.0000,916.0000 948.0000,917.0000 948.0000,918.0000 Z M 948.0000,934.0000 L 948.0000,939.0000 C 948.0000,940.0000 946.0000,941.0000 945.0000,941.0000 C 944.0000,941.0000 942.0000,940.0000 942.0000,939.0000 L 942.0000,934.0000 C 942.0000,932.0000 944.0000,931.0000 945.0000,931.0000 C 946.0000,931.0000 948.0000,932.0000 948.0000,934.0000 Z M 948.0000,949.0000 L 948.0000,954.0000 C 948.0000,955.0000 946.0000,957.0000 945.0000,957.0000 C 944.0000,957.0000 942.0000,955.0000 942.0000,954.0000 L 942.0000,949.0000 C 942.0000,947.0000 944.0000,946.0000 945.0000,946.0000 C 946.0000,946.0000 948.0000,947.0000 948.0000,949.0000 Z M 948.0000,964.0000 L 948.0000,969.0000 C 948.0000,971.0000 946.0000,972.0000 945.0000,972.0000 C 944.0000,972.0000 942.0000,971.0000 942.0000,969.0000 L 942.0000,964.0000 C 942.0000,963.0000 944.0000,962.0000 945.0000,962.0000 C 946.0000,962.0000 948.0000,963.0000 948.0000,964.0000 Z M 948.0000,980.0000 L 948.0000,985.0000 C 948.0000,986.0000 946.0000,987.0000 945.0000,987.0000 C 944.0000,987.0000 942.0000,986.0000 942.0000,985.0000 L 942.0000,980.0000 C 942.0000,978.0000 944.0000,977.0000 945.0000,977.0000 C 946.0000,977.0000 948.0000,978.0000 948.0000,980.0000 Z M 948.0000,995.0000 L 948.0000,1000.0000 C 948.0000,1001.0000 946.0000,1003.0000 945.0000,1003.0000 C 944.0000,1003.0000 942.0000,1001.0000 942.0000,1000.0000 L 942.0000,995.0000 C 942.0000,994.0000 944.0000,992.0000 945.0000,992.0000 C 946.0000,992.0000 948.0000,994.0000 948.0000,995.0000 Z M 948.0000,1010.0000 L 948.0000,1015.0000 C 948.0000,1017.0000 946.0000,1018.0000 945.0000,1018.0000 C 944.0000,1018.0000 942.0000,1017.0000 942.0000,1015.0000 L 942.0000,1010.0000 C 942.0000,1009.0000 944.0000,1008.0000 945.0000,1008.0000 C 946.0000,1008.0000 948.0000,1009.0000 948.0000,1010.0000 Z M 948.0000,1026.0000 L 948.0000,1031.0000 C 948.0000,1032.0000 946.0000,1033.0000 945.0000,1033.0000 C 944.0000,1033.0000 942.0000,1032.0000 942.0000,1031.0000 L 942.0000,1026.0000 C 942.0000,1024.0000 944.0000,1023.0000 945.0000,1023.0000 C 946.0000,1023.0000 948.0000,1024.0000 948.0000,1026.0000 Z M 948.0000,1041.0000 L 948.0000,1046.0000 C 948.0000,1048.0000 946.0000,1049.0000 945.0000,1049.0000 C 944.0000,1049.0000 942.0000,1048.0000 942.0000,1046.0000 L 942.0000,1041.0000 C 942.0000,1040.0000 944.0000,1038.0000 945.0000,1038.0000 C 946.0000,1038.0000 948.0000,1040.0000 948.0000,1041.0000 Z M 948.0000,1056.0000 L 948.0000,1062.0000 C 948.0000,1063.0000 946.0000,1064.0000 945.0000,1064.0000 C 944.0000,1064.0000 942.0000,1063.0000 942.0000,1062.0000 L 942.0000,1056.0000 C 942.0000,1055.0000 944.0000,1054.0000 945.0000,1054.0000 C 946.0000,1054.0000 948.0000,1055.0000 948.0000,1056.0000 Z M 948.0000,1072.0000 L 948.0000,1077.0000 C 948.0000,1078.0000 946.0000,1079.0000 945.0000,1079.0000 C 944.0000,1079.0000 942.0000,1078.0000 942.0000,1077.0000 L 942.0000,1072.0000 C 942.0000,1070.0000 944.0000,1069.0000 945.0000,1069.0000 C 946.0000,1069.0000 948.0000,1070.0000 948.0000,1072.0000 Z M 948.0000,1087.0000 L 948.0000,1092.0000 C 948.0000,1094.0000 946.0000,1095.0000 945.0000,1095.0000 C 944.0000,1095.0000 942.0000,1094.0000 942.0000,1092.0000 L 942.0000,1087.0000 C 942.0000,1086.0000 944.0000,1085.0000 945.0000,1085.0000 C 946.0000,1085.0000 948.0000,1086.0000 948.0000,1087.0000 Z M 948.0000,1102.0000 L 948.0000,1108.0000 C 948.0000,1109.0000 946.0000,1110.0000 945.0000,1110.0000 C 944.0000,1110.0000 942.0000,1109.0000 942.0000,1108.0000 L 942.0000,1102.0000 C 942.0000,1101.0000 944.0000,1100.0000 945.0000,1100.0000 C 946.0000,1100.0000 948.0000,1101.0000 948.0000,1102.0000 Z M 948.0000,1118.0000 L 948.0000,1123.0000 C 948.0000,1124.0000 946.0000,1126.0000 945.0000,1126.0000 C 944.0000,1126.0000 942.0000,1124.0000 942.0000,1123.0000 L 942.0000,1118.0000 C 942.0000,1116.0000 944.0000,1115.0000 945.0000,1115.0000 C 946.0000,1115.0000 948.0000,1116.0000 948.0000,1118.0000 Z M 948.0000,1133.0000 L 948.0000,1138.0000 C 948.0000,1140.0000 946.0000,1141.0000 945.0000,1141.0000 C 944.0000,1141.0000 942.0000,1140.0000 942.0000,1138.0000 L 942.0000,1133.0000 C 942.0000,1132.0000 944.0000,1131.0000 945.0000,1131.0000 C 946.0000,1131.0000 948.0000,1132.0000 948.0000,1133.0000 Z M 948.0000,1149.0000 L 948.0000,1154.0000 C 948.0000,1155.0000 946.0000,1156.0000 945.0000,1156.0000 C 944.0000,1156.0000 942.0000,1155.0000 942.0000,1154.0000 L 942.0000,1149.0000 C 942.0000,1147.0000 944.0000,1146.0000 945.0000,1146.0000 C 946.0000,1146.0000 948.0000,1147.0000 948.0000,1149.0000 Z M 948.0000,1164.0000 L 948.0000,1169.0000 C 948.0000,1170.0000 946.0000,1172.0000 945.0000,1172.0000 C 944.0000,1172.0000 942.0000,1170.0000 942.0000,1169.0000 L 942.0000,1164.0000 C 942.0000,1162.0000 944.0000,1161.0000 945.0000,1161.0000 C 946.0000,1161.0000 948.0000,1162.0000 948.0000,1164.0000 Z M 948.0000,1179.0000 L 948.0000,1184.0000 C 948.0000,1186.0000 946.0000,1187.0000 945.0000,1187.0000 C 944.0000,1187.0000 942.0000,1186.0000 942.0000,1184.0000 L 942.0000,1179.0000 C 942.0000,1178.0000 944.0000,1177.0000 945.0000,1177.0000 C 946.0000,1177.0000 948.0000,1178.0000 948.0000,1179.0000 Z M 948.0000,1195.0000 L 948.0000,1200.0000 C 948.0000,1201.0000 946.0000,1202.0000 945.0000,1202.0000 C 944.0000,1202.0000 942.0000,1201.0000 942.0000,1200.0000 L 942.0000,1195.0000 C 942.0000,1193.0000 944.0000,1192.0000 945.0000,1192.0000 C 946.0000,1192.0000 948.0000,1193.0000 948.0000,1195.0000 Z M 948.0000,1210.0000 L 948.0000,1215.0000 C 948.0000,1217.0000 946.0000,1218.0000 945.0000,1218.0000 C 944.0000,1218.0000 942.0000,1217.0000 942.0000,1215.0000 L 942.0000,1210.0000 C 942.0000,1209.0000 944.0000,1207.0000 945.0000,1207.0000 C 946.0000,1207.0000 948.0000,1209.0000 948.0000,1210.0000 Z M 948.0000,1225.0000 L 948.0000,1230.0000 C 948.0000,1232.0000 946.0000,1233.0000 945.0000,1233.0000 C 944.0000,1233.0000 942.0000,1232.0000 942.0000,1230.0000 L 942.0000,1225.0000 C 942.0000,1224.0000 944.0000,1223.0000 945.0000,1223.0000 C 946.0000,1223.0000 948.0000,1224.0000 948.0000,1225.0000 Z M 948.0000,1241.0000 L 948.0000,1246.0000 C 948.0000,1247.0000 946.0000,1248.0000 945.0000,1248.0000 C 944.0000,1248.0000 942.0000,1247.0000 942.0000,1246.0000 L 942.0000,1241.0000 C 942.0000,1239.0000 944.0000,1238.0000 945.0000,1238.0000 C 946.0000,1238.0000 948.0000,1239.0000 948.0000,1241.0000 Z M 948.0000,1256.0000 L 948.0000,1261.0000 C 948.0000,1263.0000 946.0000,1264.0000 945.0000,1264.0000 C 944.0000,1264.0000 942.0000,1263.0000 942.0000,1261.0000 L 942.0000,1256.0000 C 942.0000,1255.0000 944.0000,1254.0000 945.0000,1254.0000 C 946.0000,1254.0000 948.0000,1255.0000 948.0000,1256.0000 Z M 948.0000,1271.0000 L 948.0000,1277.0000 C 948.0000,1278.0000 946.0000,1279.0000 945.0000,1279.0000 C 944.0000,1279.0000 942.0000,1278.0000 942.0000,1277.0000 L 942.0000,1271.0000 C 942.0000,1270.0000 944.0000,1269.0000 945.0000,1269.0000 C 946.0000,1269.0000 948.0000,1270.0000 948.0000,1271.0000 Z M 948.0000,1287.0000 L 948.0000,1292.0000 C 948.0000,1293.0000 946.0000,1294.0000 945.0000,1294.0000 C 944.0000,1294.0000 942.0000,1293.0000 942.0000,1292.0000 L 942.0000,1287.0000 C 942.0000,1285.0000 944.0000,1284.0000 945.0000,1284.0000 C 946.0000,1284.0000 948.0000,1285.0000 948.0000,1287.0000 Z M 948.0000,1302.0000 L 948.0000,1307.0000 C 948.0000,1309.0000 946.0000,1310.0000 945.0000,1310.0000 C 944.0000,1310.0000 942.0000,1309.0000 942.0000,1307.0000 L 942.0000,1302.0000 C 942.0000,1301.0000 944.0000,1300.0000 945.0000,1300.0000 C 946.0000,1300.0000 948.0000,1301.0000 948.0000,1302.0000 Z M 948.0000,1318.0000 L 948.0000,1323.0000 C 948.0000,1324.0000 946.0000,1325.0000 945.0000,1325.0000 C 944.0000,1325.0000 942.0000,1324.0000 942.0000,1323.0000 L 942.0000,1318.0000 C 942.0000,1316.0000 944.0000,1315.0000 945.0000,1315.0000 C 946.0000,1315.0000 948.0000,1316.0000 948.0000,1318.0000 Z M 948.0000,1333.0000 L 948.0000,1338.0000 C 948.0000,1339.0000 946.0000,1341.0000 945.0000,1341.0000 C 944.0000,1341.0000 942.0000,1339.0000 942.0000,1338.0000 L 942.0000,1333.0000 C 942.0000,1331.0000 944.0000,1330.0000 945.0000,1330.0000 C 946.0000,1330.0000 948.0000,1331.0000 948.0000,1333.0000 Z M 948.0000,1348.0000 L 948.0000,1353.0000 C 948.0000,1355.0000 946.0000,1356.0000 945.0000,1356.0000 C 944.0000,1356.0000 942.0000,1355.0000 942.0000,1353.0000 L 942.0000,1348.0000 C 942.0000,1347.0000 944.0000,1346.0000 945.0000,1346.0000 C 946.0000,1346.0000 948.0000,1347.0000 948.0000,1348.0000 Z M 948.0000,1364.0000 L 948.0000,1369.0000 C 948.0000,1370.0000 946.0000,1371.0000 945.0000,1371.0000 C 944.0000,1371.0000 942.0000,1370.0000 942.0000,1369.0000 L 942.0000,1364.0000 C 942.0000,1362.0000 944.0000,1361.0000 945.0000,1361.0000 C 946.0000,1361.0000 948.0000,1362.0000 948.0000,1364.0000 Z M 948.0000,1379.0000 L 948.0000,1384.0000 C 948.0000,1385.0000 946.0000,1387.0000 945.0000,1387.0000 C 944.0000,1387.0000 942.0000,1385.0000 942.0000,1384.0000 L 942.0000,1379.0000 C 942.0000,1378.0000 944.0000,1376.0000 945.0000,1376.0000 C 946.0000,1376.0000 948.0000,1378.0000 948.0000,1379.0000 Z M 948.0000,1394.0000 L 948.0000,1399.0000 C 948.0000,1401.0000 946.0000,1402.0000 945.0000,1402.0000 C 944.0000,1402.0000 942.0000,1401.0000 942.0000,1399.0000 L 942.0000,1394.0000 C 942.0000,1393.0000 944.0000,1392.0000 945.0000,1392.0000 C 946.0000,1392.0000 948.0000,1393.0000 948.0000,1394.0000 Z M 948.0000,1410.0000 L 948.0000,1415.0000 C 948.0000,1416.0000 946.0000,1417.0000 945.0000,1417.0000 C 944.0000,1417.0000 942.0000,1416.0000 942.0000,1415.0000 L 942.0000,1410.0000 C 942.0000,1408.0000 944.0000,1407.0000 945.0000,1407.0000 C 946.0000,1407.0000 948.0000,1408.0000 948.0000,1410.0000 Z M 948.0000,1425.0000 L 948.0000,1430.0000 C 948.0000,1432.0000 946.0000,1433.0000 945.0000,1433.0000 C 944.0000,1433.0000 942.0000,1432.0000 942.0000,1430.0000 L 942.0000,1425.0000 C 942.0000,1424.0000 944.0000,1422.0000 945.0000,1422.0000 C 946.0000,1422.0000 948.0000,1424.0000 948.0000,1425.0000 Z M 948.0000,1440.0000 L 948.0000,1446.0000 C 948.0000,1447.0000 946.0000,1448.0000 945.0000,1448.0000 C 944.0000,1448.0000 942.0000,1447.0000 942.0000,1446.0000 L 942.0000,1440.0000 C 942.0000,1439.0000 944.0000,1438.0000 945.0000,1438.0000 C 946.0000,1438.0000 948.0000,1439.0000 948.0000,1440.0000 Z M 948.0000,1456.0000 L 948.0000,1461.0000 C 948.0000,1462.0000 946.0000,1463.0000 945.0000,1463.0000 C 944.0000,1463.0000 942.0000,1462.0000 942.0000,1461.0000 L 942.0000,1456.0000 C 942.0000,1454.0000 944.0000,1453.0000 945.0000,1453.0000 C 946.0000,1453.0000 948.0000,1454.0000 948.0000,1456.0000 Z M 948.0000,1471.0000 L 948.0000,1476.0000 C 948.0000,1478.0000 946.0000,1479.0000 945.0000,1479.0000 C 944.0000,1479.0000 942.0000,1478.0000 942.0000,1476.0000 L 942.0000,1471.0000 C 942.0000,1470.0000 944.0000,1469.0000 945.0000,1469.0000 C 946.0000,1469.0000 948.0000,1470.0000 948.0000,1471.0000 Z M 948.0000,1486.0000 L 948.0000,1492.0000 C 948.0000,1493.0000 946.0000,1494.0000 945.0000,1494.0000 C 944.0000,1494.0000 942.0000,1493.0000 942.0000,1492.0000 L 942.0000,1486.0000 C 942.0000,1485.0000 944.0000,1484.0000 945.0000,1484.0000 C 946.0000,1484.0000 948.0000,1485.0000 948.0000,1486.0000 Z M 948.0000,1502.0000 L 948.0000,1507.0000 C 948.0000,1508.0000 946.0000,1510.0000 945.0000,1510.0000 C 944.0000,1510.0000 942.0000,1508.0000 942.0000,1507.0000 L 942.0000,1502.0000 C 942.0000,1500.0000 944.0000,1499.0000 945.0000,1499.0000 C 946.0000,1499.0000 948.0000,1500.0000 948.0000,1502.0000 Z M 948.0000,1517.0000 L 948.0000,1522.0000 C 948.0000,1524.0000 946.0000,1525.0000 945.0000,1525.0000 C 944.0000,1525.0000 942.0000,1524.0000 942.0000,1522.0000 L 942.0000,1517.0000 C 942.0000,1516.0000 944.0000,1515.0000 945.0000,1515.0000 C 946.0000,1515.0000 948.0000,1516.0000 948.0000,1517.0000 Z M 948.0000,1533.0000 L 948.0000,1538.0000 C 948.0000,1539.0000 946.0000,1540.0000 945.0000,1540.0000 C 944.0000,1540.0000 942.0000,1539.0000 942.0000,1538.0000 L 942.0000,1533.0000 C 942.0000,1531.0000 944.0000,1530.0000 945.0000,1530.0000 C 946.0000,1530.0000 948.0000,1531.0000 948.0000,1533.0000 Z M 948.0000,1548.0000 L 948.0000,1553.0000 C 948.0000,1554.0000 946.0000,1556.0000 945.0000,1556.0000 C 944.0000,1556.0000 942.0000,1554.0000 942.0000,1553.0000 L 942.0000,1548.0000 C 942.0000,1546.0000 944.0000,1545.0000 945.0000,1545.0000 C 946.0000,1545.0000 948.0000,1546.0000 948.0000,1548.0000 Z M 948.0000,1563.0000 L 948.0000,1568.0000 C 948.0000,1570.0000 946.0000,1571.0000 945.0000,1571.0000 C 944.0000,1571.0000 942.0000,1570.0000 942.0000,1568.0000 L 942.0000,1563.0000 C 942.0000,1562.0000 944.0000,1561.0000 945.0000,1561.0000 C 946.0000,1561.0000 948.0000,1562.0000 948.0000,1563.0000 Z M 948.0000,1579.0000 L 948.0000,1584.0000 C 948.0000,1585.0000 946.0000,1586.0000 945.0000,1586.0000 C 944.0000,1586.0000 942.0000,1585.0000 942.0000,1584.0000 L 942.0000,1579.0000 C 942.0000,1577.0000 944.0000,1576.0000 945.0000,1576.0000 C 946.0000,1576.0000 948.0000,1577.0000 948.0000,1579.0000 Z M 948.0000,1594.0000 L 948.0000,1599.0000 C 948.0000,1601.0000 946.0000,1602.0000 945.0000,1602.0000 C 944.0000,1602.0000 942.0000,1601.0000 942.0000,1599.0000 L 942.0000,1594.0000 C 942.0000,1593.0000 944.0000,1591.0000 945.0000,1591.0000 C 946.0000,1591.0000 948.0000,1593.0000 948.0000,1594.0000 Z M 948.0000,1609.0000 L 948.0000,1614.0000 C 948.0000,1616.0000 946.0000,1617.0000 945.0000,1617.0000 C 944.0000,1617.0000 942.0000,1616.0000 942.0000,1614.0000 L 942.0000,1609.0000 C 942.0000,1608.0000 944.0000,1607.0000 945.0000,1607.0000 C 946.0000,1607.0000 948.0000,1608.0000 948.0000,1609.0000 Z M 948.0000,1625.0000 L 948.0000,1630.0000 C 948.0000,1631.0000 946.0000,1632.0000 945.0000,1632.0000 C 944.0000,1632.0000 942.0000,1631.0000 942.0000,1630.0000 L 942.0000,1625.0000 C 942.0000,1623.0000 944.0000,1622.0000 945.0000,1622.0000 C 946.0000,1622.0000 948.0000,1623.0000 948.0000,1625.0000 Z M 948.0000,1640.0000 L 948.0000,1645.0000 C 948.0000,1647.0000 946.0000,1648.0000 945.0000,1648.0000 C 944.0000,1648.0000 942.0000,1647.0000 942.0000,1645.0000 L 942.0000,1640.0000 C 942.0000,1639.0000 944.0000,1638.0000 945.0000,1638.0000 C 946.0000,1638.0000 948.0000,1639.0000 948.0000,1640.0000 Z M 948.0000,1655.0000 L 948.0000,1661.0000 C 948.0000,1662.0000 946.0000,1663.0000 945.0000,1663.0000 C 944.0000,1663.0000 942.0000,1662.0000 942.0000,1661.0000 L 942.0000,1655.0000 C 942.0000,1654.0000 944.0000,1653.0000 945.0000,1653.0000 C 946.0000,1653.0000 948.0000,1654.0000 948.0000,1655.0000 Z M 948.0000,1671.0000 L 948.0000,1676.0000 C 948.0000,1677.0000 946.0000,1678.0000 945.0000,1678.0000 C 944.0000,1678.0000 942.0000,1677.0000 942.0000,1676.0000 L 942.0000,1671.0000 C 942.0000,1669.0000 944.0000,1668.0000 945.0000,1668.0000 C 946.0000,1668.0000 948.0000,1669.0000 948.0000,1671.0000 Z M 948.0000,1686.0000 L 948.0000,1691.0000 C 948.0000,1693.0000 946.0000,1694.0000 945.0000,1694.0000 C 944.0000,1694.0000 942.0000,1693.0000 942.0000,1691.0000 L 942.0000,1686.0000 C 942.0000,1685.0000 944.0000,1684.0000 945.0000,1684.0000 C 946.0000,1684.0000 948.0000,1685.0000 948.0000,1686.0000 Z M 948.0000,1702.0000 L 948.0000,1707.0000 C 948.0000,1708.0000 946.0000,1709.0000 945.0000,1709.0000 C 944.0000,1709.0000 942.0000,1708.0000 942.0000,1707.0000 L 942.0000,1702.0000 C 942.0000,1700.0000 944.0000,1699.0000 945.0000,1699.0000 C 946.0000,1699.0000 948.0000,1700.0000 948.0000,1702.0000 Z M 948.0000,1717.0000 L 948.0000,1722.0000 C 948.0000,1723.0000 946.0000,1725.0000 945.0000,1725.0000 C 944.0000,1725.0000 942.0000,1723.0000 942.0000,1722.0000 L 942.0000,1717.0000 C 942.0000,1715.0000 944.0000,1714.0000 945.0000,1714.0000 C 946.0000,1714.0000 948.0000,1715.0000 948.0000,1717.0000 Z M 948.0000,1732.0000 L 948.0000,1737.0000 C 948.0000,1739.0000 946.0000,1740.0000 945.0000,1740.0000 C 944.0000,1740.0000 942.0000,1739.0000 942.0000,1737.0000 L 942.0000,1732.0000 C 942.0000,1731.0000 944.0000,1730.0000 945.0000,1730.0000 C 946.0000,1730.0000 948.0000,1731.0000 948.0000,1732.0000 Z M 948.0000,1748.0000 L 948.0000,1753.0000 C 948.0000,1754.0000 946.0000,1755.0000 945.0000,1755.0000 C 944.0000,1755.0000 942.0000,1754.0000 942.0000,1753.0000 L 942.0000,1748.0000 C 942.0000,1746.0000 944.0000,1745.0000 945.0000,1745.0000 C 946.0000,1745.0000 948.0000,1746.0000 948.0000,1748.0000 Z M 948.0000,1763.0000 L 948.0000,1768.0000 C 948.0000,1769.0000 946.0000,1771.0000 945.0000,1771.0000 C 944.0000,1771.0000 942.0000,1769.0000 942.0000,1768.0000 L 942.0000,1763.0000 C 942.0000,1762.0000 944.0000,1760.0000 945.0000,1760.0000 C 946.0000,1760.0000 948.0000,1762.0000 948.0000,1763.0000 Z M 948.0000,1778.0000 L 948.0000,1783.0000 C 948.0000,1785.0000 946.0000,1786.0000 945.0000,1786.0000 C 944.0000,1786.0000 942.0000,1785.0000 942.0000,1783.0000 L 942.0000,1778.0000 C 942.0000,1777.0000 944.0000,1776.0000 945.0000,1776.0000 C 946.0000,1776.0000 948.0000,1777.0000 948.0000,1778.0000 Z M 948.0000,1794.0000 L 948.0000,1799.0000 C 948.0000,1800.0000 946.0000,1801.0000 945.0000,1801.0000 C 944.0000,1801.0000 942.0000,1800.0000 942.0000,1799.0000 L 942.0000,1794.0000 C 942.0000,1792.0000 944.0000,1791.0000 945.0000,1791.0000 C 946.0000,1791.0000 948.0000,1792.0000 948.0000,1794.0000 Z M 948.0000,1809.0000 L 948.0000,1814.0000 C 948.0000,1816.0000 946.0000,1817.0000 945.0000,1817.0000 C 944.0000,1817.0000 942.0000,1816.0000 942.0000,1814.0000 L 942.0000,1809.0000 C 942.0000,1808.0000 944.0000,1806.0000 945.0000,1806.0000 C 946.0000,1806.0000 948.0000,1808.0000 948.0000,1809.0000 Z M 948.0000,1824.0000 L 948.0000,1830.0000 C 948.0000,1831.0000 946.0000,1832.0000 945.0000,1832.0000 C 944.0000,1832.0000 942.0000,1831.0000 942.0000,1830.0000 L 942.0000,1824.0000 C 942.0000,1823.0000 944.0000,1822.0000 945.0000,1822.0000 C 946.0000,1822.0000 948.0000,1823.0000 948.0000,1824.0000 Z M 948.0000,1840.0000 L 948.0000,1845.0000 C 948.0000,1846.0000 946.0000,1847.0000 945.0000,1847.0000 C 944.0000,1847.0000 942.0000,1846.0000 942.0000,1845.0000 L 942.0000,1840.0000 C 942.0000,1838.0000 944.0000,1837.0000 945.0000,1837.0000 C 946.0000,1837.0000 948.0000,1838.0000 948.0000,1840.0000 Z M 948.0000,1855.0000 L 948.0000,1860.0000 C 948.0000,1862.0000 946.0000,1863.0000 945.0000,1863.0000 C 944.0000,1863.0000 942.0000,1862.0000 942.0000,1860.0000 L 942.0000,1855.0000 C 942.0000,1854.0000 944.0000,1853.0000 945.0000,1853.0000 C 946.0000,1853.0000 948.0000,1854.0000 948.0000,1855.0000 Z M 948.0000,1870.0000 L 948.0000,1876.0000 C 948.0000,1877.0000 946.0000,1878.0000 945.0000,1878.0000 C 944.0000,1878.0000 942.0000,1877.0000 942.0000,1876.0000 L 942.0000,1870.0000 C 942.0000,1869.0000 944.0000,1868.0000 945.0000,1868.0000 C 946.0000,1868.0000 948.0000,1869.0000 948.0000,1870.0000 Z M 948.0000,1886.0000 L 948.0000,1891.0000 C 948.0000,1892.0000 946.0000,1894.0000 945.0000,1894.0000 C 944.0000,1894.0000 942.0000,1892.0000 942.0000,1891.0000 L 942.0000,1886.0000 C 942.0000,1884.0000 944.0000,1883.0000 945.0000,1883.0000 C 946.0000,1883.0000 948.0000,1884.0000 948.0000,1886.0000 Z M 948.0000,1901.0000 L 948.0000,1906.0000 C 948.0000,1908.0000 946.0000,1909.0000 945.0000,1909.0000 C 944.0000,1909.0000 942.0000,1908.0000 942.0000,1906.0000 L 942.0000,1901.0000 C 942.0000,1900.0000 944.0000,1899.0000 945.0000,1899.0000 C 946.0000,1899.0000 948.0000,1900.0000 948.0000,1901.0000 Z M 948.0000,1917.0000 L 948.0000,1922.0000 C 948.0000,1923.0000 946.0000,1924.0000 945.0000,1924.0000 C 944.0000,1924.0000 942.0000,1923.0000 942.0000,1922.0000 L 942.0000,1917.0000 C 942.0000,1915.0000 944.0000,1914.0000 945.0000,1914.0000 C 946.0000,1914.0000 948.0000,1915.0000 948.0000,1917.0000 Z M 948.0000,1932.0000 L 948.0000,1937.0000 C 948.0000,1938.0000 946.0000,1940.0000 945.0000,1940.0000 C 944.0000,1940.0000 942.0000,1938.0000 942.0000,1937.0000 L 942.0000,1932.0000 C 942.0000,1930.0000 944.0000,1929.0000 945.0000,1929.0000 C 946.0000,1929.0000 948.0000,1930.0000 948.0000,1932.0000 Z M 948.0000,1947.0000 L 948.0000,1952.0000 C 948.0000,1954.0000 946.0000,1955.0000 945.0000,1955.0000 C 944.0000,1955.0000 942.0000,1954.0000 942.0000,1952.0000 L 942.0000,1947.0000 C 942.0000,1946.0000 944.0000,1945.0000 945.0000,1945.0000 C 946.0000,1945.0000 948.0000,1946.0000 948.0000,1947.0000 Z M 948.0000,1963.0000 L 948.0000,1968.0000 C 948.0000,1969.0000 946.0000,1970.0000 945.0000,1970.0000 C 944.0000,1970.0000 942.0000,1969.0000 942.0000,1968.0000 L 942.0000,1963.0000 C 942.0000,1961.0000 944.0000,1960.0000 945.0000,1960.0000 C 946.0000,1960.0000 948.0000,1961.0000 948.0000,1963.0000 Z M 948.0000,1978.0000 L 948.0000,1983.0000 C 948.0000,1985.0000 946.0000,1986.0000 945.0000,1986.0000 C 944.0000,1986.0000 942.0000,1985.0000 942.0000,1983.0000 L 942.0000,1978.0000 C 942.0000,1977.0000 944.0000,1975.0000 945.0000,1975.0000 C 946.0000,1975.0000 948.0000,1977.0000 948.0000,1978.0000 Z M 948.0000,1993.0000 L 948.0000,1998.0000 C 948.0000,2000.0000 946.0000,2001.0000 945.0000,2001.0000 C 944.0000,2001.0000 942.0000,2000.0000 942.0000,1998.0000 L 942.0000,1993.0000 C 942.0000,1992.0000 944.0000,1991.0000 945.0000,1991.0000 C 946.0000,1991.0000 948.0000,1992.0000 948.0000,1993.0000 Z M 948.0000,2009.0000 L 948.0000,2014.0000 C 948.0000,2015.0000 946.0000,2016.0000 945.0000,2016.0000 C 944.0000,2016.0000 942.0000,2015.0000 942.0000,2014.0000 L 942.0000,2009.0000 C 942.0000,2007.0000 944.0000,2006.0000 945.0000,2006.0000 C 946.0000,2006.0000 948.0000,2007.0000 948.0000,2009.0000 Z M 948.0000,2024.0000 L 948.0000,2029.0000 C 948.0000,2031.0000 946.0000,2032.0000 945.0000,2032.0000 C 944.0000,2032.0000 942.0000,2031.0000 942.0000,2029.0000 L 942.0000,2024.0000 C 942.0000,2023.0000 944.0000,2022.0000 945.0000,2022.0000 C 946.0000,2022.0000 948.0000,2023.0000 948.0000,2024.0000 Z M 948.0000,2039.0000 L 948.0000,2045.0000 C 948.0000,2046.0000 946.0000,2047.0000 945.0000,2047.0000 C 944.0000,2047.0000 942.0000,2046.0000 942.0000,2045.0000 L 942.0000,2039.0000 C 942.0000,2038.0000 944.0000,2037.0000 945.0000,2037.0000 C 946.0000,2037.0000 948.0000,2038.0000 948.0000,2039.0000 Z M 948.0000,2055.0000 L 948.0000,2060.0000 C 948.0000,2061.0000 946.0000,2062.0000 945.0000,2062.0000 C 944.0000,2062.0000 942.0000,2061.0000 942.0000,2060.0000 L 942.0000,2055.0000 C 942.0000,2053.0000 944.0000,2052.0000 945.0000,2052.0000 C 946.0000,2052.0000 948.0000,2053.0000 948.0000,2055.0000 Z M 948.0000,2070.0000 L 948.0000,2075.0000 C 948.0000,2077.0000 946.0000,2078.0000 945.0000,2078.0000 C 944.0000,2078.0000 942.0000,2077.0000 942.0000,2075.0000 L 942.0000,2070.0000 C 942.0000,2069.0000 944.0000,2068.0000 945.0000,2068.0000 C 946.0000,2068.0000 948.0000,2069.0000 948.0000,2070.0000 Z M 948.0000,2086.0000 L 948.0000,2091.0000 C 948.0000,2092.0000 946.0000,2093.0000 945.0000,2093.0000 C 944.0000,2093.0000 942.0000,2092.0000 942.0000,2091.0000 L 942.0000,2086.0000 C 942.0000,2084.0000 944.0000,2083.0000 945.0000,2083.0000 C 946.0000,2083.0000 948.0000,2084.0000 948.0000,2086.0000 Z M 948.0000,2101.0000 L 948.0000,2106.0000 C 948.0000,2107.0000 946.0000,2109.0000 945.0000,2109.0000 C 944.0000,2109.0000 942.0000,2107.0000 942.0000,2106.0000 L 942.0000,2101.0000 C 942.0000,2099.0000 944.0000,2098.0000 945.0000,2098.0000 C 946.0000,2098.0000 948.0000,2099.0000 948.0000,2101.0000 Z M 948.0000,2116.0000 L 948.0000,2121.0000 C 948.0000,2123.0000 946.0000,2124.0000 945.0000,2124.0000 C 944.0000,2124.0000 942.0000,2123.0000 942.0000,2121.0000 L 942.0000,2116.0000 C 942.0000,2115.0000 944.0000,2114.0000 945.0000,2114.0000 C 946.0000,2114.0000 948.0000,2115.0000 948.0000,2116.0000 Z M 948.0000,2132.0000 L 948.0000,2137.0000 C 948.0000,2138.0000 946.0000,2139.0000 945.0000,2139.0000 C 944.0000,2139.0000 942.0000,2138.0000 942.0000,2137.0000 L 942.0000,2132.0000 C 942.0000,2130.0000 944.0000,2129.0000 945.0000,2129.0000 C 946.0000,2129.0000 948.0000,2130.0000 948.0000,2132.0000 Z "  fill="#000000" stroke="#000000" stroke-width="1.0000"  stroke-linecap="butt"  stroke-linejoin="round" />
</g>
<g transform="matrix(1.0000 0.0000 0.0000 1.0000 0.0000 0.0000)">
</g>
<g transform="matrix(0.0625 0.0000 0.0000 0.0625 0.0000 0.0000)">
<path d="M 505.0000,934.0000 L 505.0000,1539.0000 L 6717.0000,1539.0000 L 6717.0000,934.0000 L 505.0000,934.0000 Z" stroke-width="1px" stroke="#FFFFFF"  fill="#FFFFFF" />
</g>
<g transform="matrix(1.0000 0.0000 0.0000 1.0000 0.0000 0.0000)">
</g>
<g transform="matrix(0.0625 0.0000 0.0000 0.0625 0.0000 0.0000)">
<path d="M 505.0000,1539.0000 L 6717.0000,1539.0000 L 6717.0000,934.0000 L 505.0000,934.0000 L 505.0000,1539.0000 Z" stroke="#000000" stroke-width="5.0000"  stroke-linecap="round"  stroke-linejoin="round" fill="none" />
</g>
<g transform="matrix(1.0000 0.0000 0.0000 1.0000 0.0000 0.0000)">
</g>
<g transform="matrix(1.0000 0.0000 0.0000 1.0000 179.0612 82.5319)">
<text font-family="Times New Roman" fill="#000000" style ="white-space:pre;" font-weight="400" text-anchor="start" x="0.0000" y="0.0000" font-size="16.0000" ><![CDATA[Uplink frame ]]></text>
</g>
<g transform="matrix(1.0000 0.0000 0.0000 1.0000 268.8122 82.5319)">
<text font-family="Times New Roman" fill="#000000" font-style="italic" style ="white-space:pre;" font-weight="400" text-anchor="start" x="0.0000" y="0.0000" font-size="16.0000" ><![CDATA[i]]></text>
</g>
<g transform="matrix(0.0625 0.0000 0.0000 0.0625 0.0000 0.0000)">
<path d="M 203.0000,2143.0000 L 343.0000,2143.0000 " stroke="#000000" stroke-width="5.0000"  stroke-linecap="round"  stroke-linejoin="round" fill="none" />
</g>
<g transform="matrix(1.0000 0.0000 0.0000 1.0000 0.0000 0.0000)">
</g>
<g transform="matrix(0.0625 0.0000 0.0000 0.0625 0.0000 0.0000)">
<path d="M 328.0000,2084.0000 L 505.0000,2143.0000 L 328.0000,2202.0000 L 328.0000,2084.0000 Z" stroke-width="1px" stroke="#000000"  fill="#000000" />
</g>
<g transform="matrix(1.0000 0.0000 0.0000 1.0000 0.0000 0.0000)">
</g>
<g transform="matrix(0.0625 0.0000 0.0000 0.0625 0.0000 0.0000)">
<path d="M 1779.0000,2143.0000 L 1107.0000,2143.0000 " stroke="#000000" stroke-width="5.0000"  stroke-linecap="round"  stroke-linejoin="round" fill="none" />
</g>
<g transform="matrix(1.0000 0.0000 0.0000 1.0000 0.0000 0.0000)">
</g>
<g transform="matrix(0.0625 0.0000 0.0000 0.0625 0.0000 0.0000)">
<path d="M 1122.0000,2202.0000 L 945.0000,2143.0000 L 1122.0000,2084.0000 L 1122.0000,2202.0000 Z" stroke-width="1px" stroke="#000000"  fill="#000000" />
</g>
<g transform="matrix(1.0000 0.0000 0.0000 1.0000 0.0000 0.0000)">
</g>
<g transform="matrix(1.0000 0.0000 0.0000 1.0000 79.8204 128.8568)">
<text font-family="Times New Roman" fill="#000000" font-style="italic" style ="white-space:pre;" font-weight="400" text-anchor="start" x="0.0000" y="0.0000" font-size="16.0000" ><![CDATA[T]]></text>
</g>
<g transform="matrix(1.0000 0.0000 0.0000 1.0000 88.7189 131.1456)">
<text font-family="Times New Roman" fill="#000000" style ="white-space:pre;" font-weight="400" text-anchor="start" x="0.0000" y="0.0000" font-size="10.0000" ><![CDATA[TA]]></text>
</g>
</g>
</svg>
