<?xml version="1.0"  encoding="UTF-8" standalone="no"?>
<svg version="1.1" xmlns="http://www.w3.org/2000/svg" xmlns:xlink="http://www.w3.org/1999/xlink" width="439.0000" height="138.0000">
<g transform="translate(-11.0000, -0.0000)">
<g transform="matrix(0.0625 0.0000 0.0000 0.0625 0.0000 0.0000)">
<path d="M 960.0000,32.0000 L 960.0000,640.0000 L 7168.0000,640.0000 L 7168.0000,32.0000 L 960.0000,32.0000 Z" stroke-width="1px" stroke="#FFFFFF"  fill="#FFFFFF" />
</g>
<g transform="matrix(1.0000 0.0000 0.0000 1.0000 0.0000 0.0000)">
</g>
<g transform="matrix(0.0625 0.0000 0.0000 0.0625 0.0000 0.0000)">
<path d="M 968.0000,48.0000 L 968.0000,160.0000 C 968.0000,165.0000 965.0000,168.0000 960.0000,168.0000 C 956.0000,168.0000 952.0000,165.0000 952.0000,160.0000 L 952.0000,48.0000 C 952.0000,44.0000 956.0000,40.0000 960.0000,40.0000 C 965.0000,40.0000 968.0000,44.0000 968.0000,48.0000 Z M 968.0000,240.0000 L 968.0000,352.0000 C 968.0000,357.0000 965.0000,360.0000 960.0000,360.0000 C 956.0000,360.0000 952.0000,357.0000 952.0000,352.0000 L 952.0000,240.0000 C 952.0000,236.0000 956.0000,232.0000 960.0000,232.0000 C 965.0000,232.0000 968.0000,236.0000 968.0000,240.0000 Z M 968.0000,432.0000 L 968.0000,544.0000 C 968.0000,549.0000 965.0000,552.0000 960.0000,552.0000 C 956.0000,552.0000 952.0000,549.0000 952.0000,544.0000 L 952.0000,432.0000 C 952.0000,428.0000 956.0000,424.0000 960.0000,424.0000 C 965.0000,424.0000 968.0000,428.0000 968.0000,432.0000 Z M 968.0000,624.0000 L 968.0000,640.0000 L 960.0000,632.0000 L 1056.0000,632.0000 C 1061.0000,632.0000 1064.0000,636.0000 1064.0000,640.0000 C 1064.0000,645.0000 1061.0000,648.0000 1056.0000,648.0000 L 960.0000,648.0000 C 956.0000,648.0000 952.0000,645.0000 952.0000,640.0000 L 952.0000,624.0000 C 952.0000,620.0000 956.0000,616.0000 960.0000,616.0000 C 965.0000,616.0000 968.0000,620.0000 968.0000,624.0000 Z M 1136.0000,632.0000 L 1248.0000,632.0000 C 1253.0000,632.0000 1256.0000,636.0000 1256.0000,640.0000 C 1256.0000,645.0000 1253.0000,648.0000 1248.0000,648.0000 L 1136.0000,648.0000 C 1132.0000,648.0000 1128.0000,645.0000 1128.0000,640.0000 C 1128.0000,636.0000 1132.0000,632.0000 1136.0000,632.0000 Z M 1328.0000,632.0000 L 1440.0000,632.0000 C 1445.0000,632.0000 1448.0000,636.0000 1448.0000,640.0000 C 1448.0000,645.0000 1445.0000,648.0000 1440.0000,648.0000 L 1328.0000,648.0000 C 1324.0000,648.0000 1320.0000,645.0000 1320.0000,640.0000 C 1320.0000,636.0000 1324.0000,632.0000 1328.0000,632.0000 Z M 1520.0000,632.0000 L 1632.0000,632.0000 C 1637.0000,632.0000 1640.0000,636.0000 1640.0000,640.0000 C 1640.0000,645.0000 1637.0000,648.0000 1632.0000,648.0000 L 1520.0000,648.0000 C 1516.0000,648.0000 1512.0000,645.0000 1512.0000,640.0000 C 1512.0000,636.0000 1516.0000,632.0000 1520.0000,632.0000 Z M 1712.0000,632.0000 L 1824.0000,632.0000 C 1829.0000,632.0000 1832.0000,636.0000 1832.0000,640.0000 C 1832.0000,645.0000 1829.0000,648.0000 1824.0000,648.0000 L 1712.0000,648.0000 C 1708.0000,648.0000 1704.0000,645.0000 1704.0000,640.0000 C 1704.0000,636.0000 1708.0000,632.0000 1712.0000,632.0000 Z M 1904.0000,632.0000 L 2016.0000,632.0000 C 2021.0000,632.0000 2024.0000,636.0000 2024.0000,640.0000 C 2024.0000,645.0000 2021.0000,648.0000 2016.0000,648.0000 L 1904.0000,648.0000 C 1900.0000,648.0000 1896.0000,645.0000 1896.0000,640.0000 C 1896.0000,636.0000 1900.0000,632.0000 1904.0000,632.0000 Z M 2096.0000,632.0000 L 2208.0000,632.0000 C 2213.0000,632.0000 2216.0000,636.0000 2216.0000,640.0000 C 2216.0000,645.0000 2213.0000,648.0000 2208.0000,648.0000 L 2096.0000,648.0000 C 2092.0000,648.0000 2088.0000,645.0000 2088.0000,640.0000 C 2088.0000,636.0000 2092.0000,632.0000 2096.0000,632.0000 Z M 2288.0000,632.0000 L 2400.0000,632.0000 C 2405.0000,632.0000 2408.0000,636.0000 2408.0000,640.0000 C 2408.0000,645.0000 2405.0000,648.0000 2400.0000,648.0000 L 2288.0000,648.0000 C 2284.0000,648.0000 2280.0000,645.0000 2280.0000,640.0000 C 2280.0000,636.0000 2284.0000,632.0000 2288.0000,632.0000 Z M 2480.0000,632.0000 L 2592.0000,632.0000 C 2597.0000,632.0000 2600.0000,636.0000 2600.0000,640.0000 C 2600.0000,645.0000 2597.0000,648.0000 2592.0000,648.0000 L 2480.0000,648.0000 C 2476.0000,648.0000 2472.0000,645.0000 2472.0000,640.0000 C 2472.0000,636.0000 2476.0000,632.0000 2480.0000,632.0000 Z M 2672.0000,632.0000 L 2784.0000,632.0000 C 2789.0000,632.0000 2792.0000,636.0000 2792.0000,640.0000 C 2792.0000,645.0000 2789.0000,648.0000 2784.0000,648.0000 L 2672.0000,648.0000 C 2668.0000,648.0000 2664.0000,645.0000 2664.0000,640.0000 C 2664.0000,636.0000 2668.0000,632.0000 2672.0000,632.0000 Z M 2864.0000,632.0000 L 2976.0000,632.0000 C 2981.0000,632.0000 2984.0000,636.0000 2984.0000,640.0000 C 2984.0000,645.0000 2981.0000,648.0000 2976.0000,648.0000 L 2864.0000,648.0000 C 2860.0000,648.0000 2856.0000,645.0000 2856.0000,640.0000 C 2856.0000,636.0000 2860.0000,632.0000 2864.0000,632.0000 Z M 3056.0000,632.0000 L 3168.0000,632.0000 C 3173.0000,632.0000 3176.0000,636.0000 3176.0000,640.0000 C 3176.0000,645.0000 3173.0000,648.0000 3168.0000,648.0000 L 3056.0000,648.0000 C 3052.0000,648.0000 3048.0000,645.0000 3048.0000,640.0000 C 3048.0000,636.0000 3052.0000,632.0000 3056.0000,632.0000 Z M 3248.0000,632.0000 L 3360.0000,632.0000 C 3365.0000,632.0000 3368.0000,636.0000 3368.0000,640.0000 C 3368.0000,645.0000 3365.0000,648.0000 3360.0000,648.0000 L 3248.0000,648.0000 C 3244.0000,648.0000 3240.0000,645.0000 3240.0000,640.0000 C 3240.0000,636.0000 3244.0000,632.0000 3248.0000,632.0000 Z M 3440.0000,632.0000 L 3552.0000,632.0000 C 3557.0000,632.0000 3560.0000,636.0000 3560.0000,640.0000 C 3560.0000,645.0000 3557.0000,648.0000 3552.0000,648.0000 L 3440.0000,648.0000 C 3436.0000,648.0000 3432.0000,645.0000 3432.0000,640.0000 C 3432.0000,636.0000 3436.0000,632.0000 3440.0000,632.0000 Z M 3632.0000,632.0000 L 3744.0000,632.0000 C 3749.0000,632.0000 3752.0000,636.0000 3752.0000,640.0000 C 3752.0000,645.0000 3749.0000,648.0000 3744.0000,648.0000 L 3632.0000,648.0000 C 3628.0000,648.0000 3624.0000,645.0000 3624.0000,640.0000 C 3624.0000,636.0000 3628.0000,632.0000 3632.0000,632.0000 Z M 3824.0000,632.0000 L 3936.0000,632.0000 C 3941.0000,632.0000 3944.0000,636.0000 3944.0000,640.0000 C 3944.0000,645.0000 3941.0000,648.0000 3936.0000,648.0000 L 3824.0000,648.0000 C 3820.0000,648.0000 3816.0000,645.0000 3816.0000,640.0000 C 3816.0000,636.0000 3820.0000,632.0000 3824.0000,632.0000 Z M 4016.0000,632.0000 L 4128.0000,632.0000 C 4133.0000,632.0000 4136.0000,636.0000 4136.0000,640.0000 C 4136.0000,645.0000 4133.0000,648.0000 4128.0000,648.0000 L 4016.0000,648.0000 C 4012.0000,648.0000 4008.0000,645.0000 4008.0000,640.0000 C 4008.0000,636.0000 4012.0000,632.0000 4016.0000,632.0000 Z M 4208.0000,632.0000 L 4320.0000,632.0000 C 4325.0000,632.0000 4328.0000,636.0000 4328.0000,640.0000 C 4328.0000,645.0000 4325.0000,648.0000 4320.0000,648.0000 L 4208.0000,648.0000 C 4204.0000,648.0000 4200.0000,645.0000 4200.0000,640.0000 C 4200.0000,636.0000 4204.0000,632.0000 4208.0000,632.0000 Z M 4400.0000,632.0000 L 4512.0000,632.0000 C 4517.0000,632.0000 4520.0000,636.0000 4520.0000,640.0000 C 4520.0000,645.0000 4517.0000,648.0000 4512.0000,648.0000 L 4400.0000,648.0000 C 4396.0000,648.0000 4392.0000,645.0000 4392.0000,640.0000 C 4392.0000,636.0000 4396.0000,632.0000 4400.0000,632.0000 Z M 4592.0000,632.0000 L 4704.0000,632.0000 C 4709.0000,632.0000 4712.0000,636.0000 4712.0000,640.0000 C 4712.0000,645.0000 4709.0000,648.0000 4704.0000,648.0000 L 4592.0000,648.0000 C 4588.0000,648.0000 4584.0000,645.0000 4584.0000,640.0000 C 4584.0000,636.0000 4588.0000,632.0000 4592.0000,632.0000 Z M 4784.0000,632.0000 L 4896.0000,632.0000 C 4901.0000,632.0000 4904.0000,636.0000 4904.0000,640.0000 C 4904.0000,645.0000 4901.0000,648.0000 4896.0000,648.0000 L 4784.0000,648.0000 C 4780.0000,648.0000 4776.0000,645.0000 4776.0000,640.0000 C 4776.0000,636.0000 4780.0000,632.0000 4784.0000,632.0000 Z M 4976.0000,632.0000 L 5088.0000,632.0000 C 5093.0000,632.0000 5096.0000,636.0000 5096.0000,640.0000 C 5096.0000,645.0000 5093.0000,648.0000 5088.0000,648.0000 L 4976.0000,648.0000 C 4972.0000,648.0000 4968.0000,645.0000 4968.0000,640.0000 C 4968.0000,636.0000 4972.0000,632.0000 4976.0000,632.0000 Z M 5168.0000,632.0000 L 5280.0000,632.0000 C 5285.0000,632.0000 5288.0000,636.0000 5288.0000,640.0000 C 5288.0000,645.0000 5285.0000,648.0000 5280.0000,648.0000 L 5168.0000,648.0000 C 5164.0000,648.0000 5160.0000,645.0000 5160.0000,640.0000 C 5160.0000,636.0000 5164.0000,632.0000 5168.0000,632.0000 Z M 5360.0000,632.0000 L 5472.0000,632.0000 C 5477.0000,632.0000 5480.0000,636.0000 5480.0000,640.0000 C 5480.0000,645.0000 5477.0000,648.0000 5472.0000,648.0000 L 5360.0000,648.0000 C 5356.0000,648.0000 5352.0000,645.0000 5352.0000,640.0000 C 5352.0000,636.0000 5356.0000,632.0000 5360.0000,632.0000 Z M 5552.0000,632.0000 L 5664.0000,632.0000 C 5669.0000,632.0000 5672.0000,636.0000 5672.0000,640.0000 C 5672.0000,645.0000 5669.0000,648.0000 5664.0000,648.0000 L 5552.0000,648.0000 C 5548.0000,648.0000 5544.0000,645.0000 5544.0000,640.0000 C 5544.0000,636.0000 5548.0000,632.0000 5552.0000,632.0000 Z M 5744.0000,632.0000 L 5856.0000,632.0000 C 5861.0000,632.0000 5864.0000,636.0000 5864.0000,640.0000 C 5864.0000,645.0000 5861.0000,648.0000 5856.0000,648.0000 L 5744.0000,648.0000 C 5740.0000,648.0000 5736.0000,645.0000 5736.0000,640.0000 C 5736.0000,636.0000 5740.0000,632.0000 5744.0000,632.0000 Z M 5936.0000,632.0000 L 6048.0000,632.0000 C 6053.0000,632.0000 6056.0000,636.0000 6056.0000,640.0000 C 6056.0000,645.0000 6053.0000,648.0000 6048.0000,648.0000 L 5936.0000,648.0000 C 5932.0000,648.0000 5928.0000,645.0000 5928.0000,640.0000 C 5928.0000,636.0000 5932.0000,632.0000 5936.0000,632.0000 Z M 6128.0000,632.0000 L 6240.0000,632.0000 C 6245.0000,632.0000 6248.0000,636.0000 6248.0000,640.0000 C 6248.0000,645.0000 6245.0000,648.0000 6240.0000,648.0000 L 6128.0000,648.0000 C 6124.0000,648.0000 6120.0000,645.0000 6120.0000,640.0000 C 6120.0000,636.0000 6124.0000,632.0000 6128.0000,632.0000 Z M 6320.0000,632.0000 L 6432.0000,632.0000 C 6437.0000,632.0000 6440.0000,636.0000 6440.0000,640.0000 C 6440.0000,645.0000 6437.0000,648.0000 6432.0000,648.0000 L 6320.0000,648.0000 C 6316.0000,648.0000 6312.0000,645.0000 6312.0000,640.0000 C 6312.0000,636.0000 6316.0000,632.0000 6320.0000,632.0000 Z M 6512.0000,632.0000 L 6624.0000,632.0000 C 6629.0000,632.0000 6632.0000,636.0000 6632.0000,640.0000 C 6632.0000,645.0000 6629.0000,648.0000 6624.0000,648.0000 L 6512.0000,648.0000 C 6508.0000,648.0000 6504.0000,645.0000 6504.0000,640.0000 C 6504.0000,636.0000 6508.0000,632.0000 6512.0000,632.0000 Z M 6704.0000,632.0000 L 6816.0000,632.0000 C 6821.0000,632.0000 6824.0000,636.0000 6824.0000,640.0000 C 6824.0000,645.0000 6821.0000,648.0000 6816.0000,648.0000 L 6704.0000,648.0000 C 6700.0000,648.0000 6696.0000,645.0000 6696.0000,640.0000 C 6696.0000,636.0000 6700.0000,632.0000 6704.0000,632.0000 Z M 6896.0000,632.0000 L 7008.0000,632.0000 C 7013.0000,632.0000 7016.0000,636.0000 7016.0000,640.0000 C 7016.0000,645.0000 7013.0000,648.0000 7008.0000,648.0000 L 6896.0000,648.0000 C 6892.0000,648.0000 6888.0000,645.0000 6888.0000,640.0000 C 6888.0000,636.0000 6892.0000,632.0000 6896.0000,632.0000 Z M 7088.0000,632.0000 L 7168.0000,632.0000 L 7160.0000,640.0000 L 7160.0000,608.0000 C 7160.0000,604.0000 7164.0000,600.0000 7168.0000,600.0000 C 7173.0000,600.0000 7176.0000,604.0000 7176.0000,608.0000 L 7176.0000,640.0000 C 7176.0000,645.0000 7173.0000,648.0000 7168.0000,648.0000 L 7088.0000,648.0000 C 7084.0000,648.0000 7080.0000,645.0000 7080.0000,640.0000 C 7080.0000,636.0000 7084.0000,632.0000 7088.0000,632.0000 Z M 7160.0000,528.0000 L 7160.0000,416.0000 C 7160.0000,412.0000 7164.0000,408.0000 7168.0000,408.0000 C 7173.0000,408.0000 7176.0000,412.0000 7176.0000,416.0000 L 7176.0000,528.0000 C 7176.0000,533.0000 7173.0000,536.0000 7168.0000,536.0000 C 7164.0000,536.0000 7160.0000,533.0000 7160.0000,528.0000 Z M 7160.0000,336.0000 L 7160.0000,224.0000 C 7160.0000,220.0000 7164.0000,216.0000 7168.0000,216.0000 C 7173.0000,216.0000 7176.0000,220.0000 7176.0000,224.0000 L 7176.0000,336.0000 C 7176.0000,341.0000 7173.0000,344.0000 7168.0000,344.0000 C 7164.0000,344.0000 7160.0000,341.0000 7160.0000,336.0000 Z M 7160.0000,144.0000 L 7160.0000,32.0000 C 7160.0000,28.0000 7164.0000,24.0000 7168.0000,24.0000 C 7173.0000,24.0000 7176.0000,28.0000 7176.0000,32.0000 L 7176.0000,144.0000 C 7176.0000,149.0000 7173.0000,152.0000 7168.0000,152.0000 C 7164.0000,152.0000 7160.0000,149.0000 7160.0000,144.0000 Z M 7088.0000,40.0000 L 6976.0000,40.0000 C 6972.0000,40.0000 6968.0000,37.0000 6968.0000,32.0000 C 6968.0000,28.0000 6972.0000,24.0000 6976.0000,24.0000 L 7088.0000,24.0000 C 7093.0000,24.0000 7096.0000,28.0000 7096.0000,32.0000 C 7096.0000,37.0000 7093.0000,40.0000 7088.0000,40.0000 Z M 6896.0000,40.0000 L 6784.0000,40.0000 C 6780.0000,40.0000 6776.0000,37.0000 6776.0000,32.0000 C 6776.0000,28.0000 6780.0000,24.0000 6784.0000,24.0000 L 6896.0000,24.0000 C 6901.0000,24.0000 6904.0000,28.0000 6904.0000,32.0000 C 6904.0000,37.0000 6901.0000,40.0000 6896.0000,40.0000 Z M 6704.0000,40.0000 L 6592.0000,40.0000 C 6588.0000,40.0000 6584.0000,37.0000 6584.0000,32.0000 C 6584.0000,28.0000 6588.0000,24.0000 6592.0000,24.0000 L 6704.0000,24.0000 C 6709.0000,24.0000 6712.0000,28.0000 6712.0000,32.0000 C 6712.0000,37.0000 6709.0000,40.0000 6704.0000,40.0000 Z M 6512.0000,40.0000 L 6400.0000,40.0000 C 6396.0000,40.0000 6392.0000,37.0000 6392.0000,32.0000 C 6392.0000,28.0000 6396.0000,24.0000 6400.0000,24.0000 L 6512.0000,24.0000 C 6517.0000,24.0000 6520.0000,28.0000 6520.0000,32.0000 C 6520.0000,37.0000 6517.0000,40.0000 6512.0000,40.0000 Z M 6320.0000,40.0000 L 6208.0000,40.0000 C 6204.0000,40.0000 6200.0000,37.0000 6200.0000,32.0000 C 6200.0000,28.0000 6204.0000,24.0000 6208.0000,24.0000 L 6320.0000,24.0000 C 6325.0000,24.0000 6328.0000,28.0000 6328.0000,32.0000 C 6328.0000,37.0000 6325.0000,40.0000 6320.0000,40.0000 Z M 6128.0000,40.0000 L 6016.0000,40.0000 C 6012.0000,40.0000 6008.0000,37.0000 6008.0000,32.0000 C 6008.0000,28.0000 6012.0000,24.0000 6016.0000,24.0000 L 6128.0000,24.0000 C 6133.0000,24.0000 6136.0000,28.0000 6136.0000,32.0000 C 6136.0000,37.0000 6133.0000,40.0000 6128.0000,40.0000 Z M 5936.0000,40.0000 L 5824.0000,40.0000 C 5820.0000,40.0000 5816.0000,37.0000 5816.0000,32.0000 C 5816.0000,28.0000 5820.0000,24.0000 5824.0000,24.0000 L 5936.0000,24.0000 C 5941.0000,24.0000 5944.0000,28.0000 5944.0000,32.0000 C 5944.0000,37.0000 5941.0000,40.0000 5936.0000,40.0000 Z M 5744.0000,40.0000 L 5632.0000,40.0000 C 5628.0000,40.0000 5624.0000,37.0000 5624.0000,32.0000 C 5624.0000,28.0000 5628.0000,24.0000 5632.0000,24.0000 L 5744.0000,24.0000 C 5749.0000,24.0000 5752.0000,28.0000 5752.0000,32.0000 C 5752.0000,37.0000 5749.0000,40.0000 5744.0000,40.0000 Z M 5552.0000,40.0000 L 5440.0000,40.0000 C 5436.0000,40.0000 5432.0000,37.0000 5432.0000,32.0000 C 5432.0000,28.0000 5436.0000,24.0000 5440.0000,24.0000 L 5552.0000,24.0000 C 5557.0000,24.0000 5560.0000,28.0000 5560.0000,32.0000 C 5560.0000,37.0000 5557.0000,40.0000 5552.0000,40.0000 Z M 5360.0000,40.0000 L 5248.0000,40.0000 C 5244.0000,40.0000 5240.0000,37.0000 5240.0000,32.0000 C 5240.0000,28.0000 5244.0000,24.0000 5248.0000,24.0000 L 5360.0000,24.0000 C 5365.0000,24.0000 5368.0000,28.0000 5368.0000,32.0000 C 5368.0000,37.0000 5365.0000,40.0000 5360.0000,40.0000 Z M 5168.0000,40.0000 L 5056.0000,40.0000 C 5052.0000,40.0000 5048.0000,37.0000 5048.0000,32.0000 C 5048.0000,28.0000 5052.0000,24.0000 5056.0000,24.0000 L 5168.0000,24.0000 C 5173.0000,24.0000 5176.0000,28.0000 5176.0000,32.0000 C 5176.0000,37.0000 5173.0000,40.0000 5168.0000,40.0000 Z M 4976.0000,40.0000 L 4864.0000,40.0000 C 4860.0000,40.0000 4856.0000,37.0000 4856.0000,32.0000 C 4856.0000,28.0000 4860.0000,24.0000 4864.0000,24.0000 L 4976.0000,24.0000 C 4981.0000,24.0000 4984.0000,28.0000 4984.0000,32.0000 C 4984.0000,37.0000 4981.0000,40.0000 4976.0000,40.0000 Z M 4784.0000,40.0000 L 4672.0000,40.0000 C 4668.0000,40.0000 4664.0000,37.0000 4664.0000,32.0000 C 4664.0000,28.0000 4668.0000,24.0000 4672.0000,24.0000 L 4784.0000,24.0000 C 4789.0000,24.0000 4792.0000,28.0000 4792.0000,32.0000 C 4792.0000,37.0000 4789.0000,40.0000 4784.0000,40.0000 Z M 4592.0000,40.0000 L 4480.0000,40.0000 C 4476.0000,40.0000 4472.0000,37.0000 4472.0000,32.0000 C 4472.0000,28.0000 4476.0000,24.0000 4480.0000,24.0000 L 4592.0000,24.0000 C 4597.0000,24.0000 4600.0000,28.0000 4600.0000,32.0000 C 4600.0000,37.0000 4597.0000,40.0000 4592.0000,40.0000 Z M 4400.0000,40.0000 L 4288.0000,40.0000 C 4284.0000,40.0000 4280.0000,37.0000 4280.0000,32.0000 C 4280.0000,28.0000 4284.0000,24.0000 4288.0000,24.0000 L 4400.0000,24.0000 C 4405.0000,24.0000 4408.0000,28.0000 4408.0000,32.0000 C 4408.0000,37.0000 4405.0000,40.0000 4400.0000,40.0000 Z M 4208.0000,40.0000 L 4096.0000,40.0000 C 4092.0000,40.0000 4088.0000,37.0000 4088.0000,32.0000 C 4088.0000,28.0000 4092.0000,24.0000 4096.0000,24.0000 L 4208.0000,24.0000 C 4213.0000,24.0000 4216.0000,28.0000 4216.0000,32.0000 C 4216.0000,37.0000 4213.0000,40.0000 4208.0000,40.0000 Z M 4016.0000,40.0000 L 3904.0000,40.0000 C 3900.0000,40.0000 3896.0000,37.0000 3896.0000,32.0000 C 3896.0000,28.0000 3900.0000,24.0000 3904.0000,24.0000 L 4016.0000,24.0000 C 4021.0000,24.0000 4024.0000,28.0000 4024.0000,32.0000 C 4024.0000,37.0000 4021.0000,40.0000 4016.0000,40.0000 Z M 3824.0000,40.0000 L 3712.0000,40.0000 C 3708.0000,40.0000 3704.0000,37.0000 3704.0000,32.0000 C 3704.0000,28.0000 3708.0000,24.0000 3712.0000,24.0000 L 3824.0000,24.0000 C 3829.0000,24.0000 3832.0000,28.0000 3832.0000,32.0000 C 3832.0000,37.0000 3829.0000,40.0000 3824.0000,40.0000 Z M 3632.0000,40.0000 L 3520.0000,40.0000 C 3516.0000,40.0000 3512.0000,37.0000 3512.0000,32.0000 C 3512.0000,28.0000 3516.0000,24.0000 3520.0000,24.0000 L 3632.0000,24.0000 C 3637.0000,24.0000 3640.0000,28.0000 3640.0000,32.0000 C 3640.0000,37.0000 3637.0000,40.0000 3632.0000,40.0000 Z M 3440.0000,40.0000 L 3328.0000,40.0000 C 3324.0000,40.0000 3320.0000,37.0000 3320.0000,32.0000 C 3320.0000,28.0000 3324.0000,24.0000 3328.0000,24.0000 L 3440.0000,24.0000 C 3445.0000,24.0000 3448.0000,28.0000 3448.0000,32.0000 C 3448.0000,37.0000 3445.0000,40.0000 3440.0000,40.0000 Z M 3248.0000,40.0000 L 3136.0000,40.0000 C 3132.0000,40.0000 3128.0000,37.0000 3128.0000,32.0000 C 3128.0000,28.0000 3132.0000,24.0000 3136.0000,24.0000 L 3248.0000,24.0000 C 3253.0000,24.0000 3256.0000,28.0000 3256.0000,32.0000 C 3256.0000,37.0000 3253.0000,40.0000 3248.0000,40.0000 Z M 3056.0000,40.0000 L 2944.0000,40.0000 C 2940.0000,40.0000 2936.0000,37.0000 2936.0000,32.0000 C 2936.0000,28.0000 2940.0000,24.0000 2944.0000,24.0000 L 3056.0000,24.0000 C 3061.0000,24.0000 3064.0000,28.0000 3064.0000,32.0000 C 3064.0000,37.0000 3061.0000,40.0000 3056.0000,40.0000 Z M 2864.0000,40.0000 L 2752.0000,40.0000 C 2748.0000,40.0000 2744.0000,37.0000 2744.0000,32.0000 C 2744.0000,28.0000 2748.0000,24.0000 2752.0000,24.0000 L 2864.0000,24.0000 C 2869.0000,24.0000 2872.0000,28.0000 2872.0000,32.0000 C 2872.0000,37.0000 2869.0000,40.0000 2864.0000,40.0000 Z M 2672.0000,40.0000 L 2560.0000,40.0000 C 2556.0000,40.0000 2552.0000,37.0000 2552.0000,32.0000 C 2552.0000,28.0000 2556.0000,24.0000 2560.0000,24.0000 L 2672.0000,24.0000 C 2677.0000,24.0000 2680.0000,28.0000 2680.0000,32.0000 C 2680.0000,37.0000 2677.0000,40.0000 2672.0000,40.0000 Z M 2480.0000,40.0000 L 2368.0000,40.0000 C 2364.0000,40.0000 2360.0000,37.0000 2360.0000,32.0000 C 2360.0000,28.0000 2364.0000,24.0000 2368.0000,24.0000 L 2480.0000,24.0000 C 2485.0000,24.0000 2488.0000,28.0000 2488.0000,32.0000 C 2488.0000,37.0000 2485.0000,40.0000 2480.0000,40.0000 Z M 2288.0000,40.0000 L 2176.0000,40.0000 C 2172.0000,40.0000 2168.0000,37.0000 2168.0000,32.0000 C 2168.0000,28.0000 2172.0000,24.0000 2176.0000,24.0000 L 2288.0000,24.0000 C 2293.0000,24.0000 2296.0000,28.0000 2296.0000,32.0000 C 2296.0000,37.0000 2293.0000,40.0000 2288.0000,40.0000 Z M 2096.0000,40.0000 L 1984.0000,40.0000 C 1980.0000,40.0000 1976.0000,37.0000 1976.0000,32.0000 C 1976.0000,28.0000 1980.0000,24.0000 1984.0000,24.0000 L 2096.0000,24.0000 C 2101.0000,24.0000 2104.0000,28.0000 2104.0000,32.0000 C 2104.0000,37.0000 2101.0000,40.0000 2096.0000,40.0000 Z M 1904.0000,40.0000 L 1792.0000,40.0000 C 1788.0000,40.0000 1784.0000,37.0000 1784.0000,32.0000 C 1784.0000,28.0000 1788.0000,24.0000 1792.0000,24.0000 L 1904.0000,24.0000 C 1909.0000,24.0000 1912.0000,28.0000 1912.0000,32.0000 C 1912.0000,37.0000 1909.0000,40.0000 1904.0000,40.0000 Z M 1712.0000,40.0000 L 1600.0000,40.0000 C 1596.0000,40.0000 1592.0000,37.0000 1592.0000,32.0000 C 1592.0000,28.0000 1596.0000,24.0000 1600.0000,24.0000 L 1712.0000,24.0000 C 1717.0000,24.0000 1720.0000,28.0000 1720.0000,32.0000 C 1720.0000,37.0000 1717.0000,40.0000 1712.0000,40.0000 Z M 1520.0000,40.0000 L 1408.0000,40.0000 C 1404.0000,40.0000 1400.0000,37.0000 1400.0000,32.0000 C 1400.0000,28.0000 1404.0000,24.0000 1408.0000,24.0000 L 1520.0000,24.0000 C 1525.0000,24.0000 1528.0000,28.0000 1528.0000,32.0000 C 1528.0000,37.0000 1525.0000,40.0000 1520.0000,40.0000 Z M 1328.0000,40.0000 L 1216.0000,40.0000 C 1212.0000,40.0000 1208.0000,37.0000 1208.0000,32.0000 C 1208.0000,28.0000 1212.0000,24.0000 1216.0000,24.0000 L 1328.0000,24.0000 C 1333.0000,24.0000 1336.0000,28.0000 1336.0000,32.0000 C 1336.0000,37.0000 1333.0000,40.0000 1328.0000,40.0000 Z M 1136.0000,40.0000 L 1024.0000,40.0000 C 1020.0000,40.0000 1016.0000,37.0000 1016.0000,32.0000 C 1016.0000,28.0000 1020.0000,24.0000 1024.0000,24.0000 L 1136.0000,24.0000 C 1141.0000,24.0000 1144.0000,28.0000 1144.0000,32.0000 C 1144.0000,37.0000 1141.0000,40.0000 1136.0000,40.0000 Z "  fill="#000000" stroke="#000000" stroke-width="16.0000"  stroke-linecap="butt"  stroke-linejoin="bevel" />
</g>
<g transform="matrix(1.0000 0.0000 0.0000 1.0000 0.0000 0.0000)">
<text font-family="Times New Roman" fill="#000000" style ="white-space:pre;" font-weight="400" text-anchor="start" x="155.0000" y="26.0000" font-size="16.0000" ><![CDATA[Timing reference radio frame ]]></text>
<text font-family="Times New Roman" fill="#000000" font-style="italic" style ="white-space:pre;" font-weight="400" text-anchor="start" x="348.0000" y="26.0000" font-size="16.0000" ><![CDATA[i]]></text>
</g>
<g transform="matrix(0.0625 0.0000 0.0000 0.0625 0.0000 0.0000)">
<path d="M 520.0000,1552.0000 L 520.0000,1568.0000 C 520.0000,1573.0000 517.0000,1576.0000 512.0000,1576.0000 C 508.0000,1576.0000 504.0000,1573.0000 504.0000,1568.0000 L 504.0000,1552.0000 C 504.0000,1548.0000 508.0000,1544.0000 512.0000,1544.0000 C 517.0000,1544.0000 520.0000,1548.0000 520.0000,1552.0000 Z M 520.0000,1600.0000 L 520.0000,1616.0000 C 520.0000,1621.0000 517.0000,1624.0000 512.0000,1624.0000 C 508.0000,1624.0000 504.0000,1621.0000 504.0000,1616.0000 L 504.0000,1600.0000 C 504.0000,1596.0000 508.0000,1592.0000 512.0000,1592.0000 C 517.0000,1592.0000 520.0000,1596.0000 520.0000,1600.0000 Z M 520.0000,1648.0000 L 520.0000,1664.0000 C 520.0000,1669.0000 517.0000,1672.0000 512.0000,1672.0000 C 508.0000,1672.0000 504.0000,1669.0000 504.0000,1664.0000 L 504.0000,1648.0000 C 504.0000,1644.0000 508.0000,1640.0000 512.0000,1640.0000 C 517.0000,1640.0000 520.0000,1644.0000 520.0000,1648.0000 Z M 520.0000,1696.0000 L 520.0000,1712.0000 C 520.0000,1717.0000 517.0000,1720.0000 512.0000,1720.0000 C 508.0000,1720.0000 504.0000,1717.0000 504.0000,1712.0000 L 504.0000,1696.0000 C 504.0000,1692.0000 508.0000,1688.0000 512.0000,1688.0000 C 517.0000,1688.0000 520.0000,1692.0000 520.0000,1696.0000 Z M 520.0000,1744.0000 L 520.0000,1760.0000 C 520.0000,1765.0000 517.0000,1768.0000 512.0000,1768.0000 C 508.0000,1768.0000 504.0000,1765.0000 504.0000,1760.0000 L 504.0000,1744.0000 C 504.0000,1740.0000 508.0000,1736.0000 512.0000,1736.0000 C 517.0000,1736.0000 520.0000,1740.0000 520.0000,1744.0000 Z M 520.0000,1792.0000 L 520.0000,1808.0000 C 520.0000,1813.0000 517.0000,1816.0000 512.0000,1816.0000 C 508.0000,1816.0000 504.0000,1813.0000 504.0000,1808.0000 L 504.0000,1792.0000 C 504.0000,1788.0000 508.0000,1784.0000 512.0000,1784.0000 C 517.0000,1784.0000 520.0000,1788.0000 520.0000,1792.0000 Z M 520.0000,1840.0000 L 520.0000,1856.0000 C 520.0000,1861.0000 517.0000,1864.0000 512.0000,1864.0000 C 508.0000,1864.0000 504.0000,1861.0000 504.0000,1856.0000 L 504.0000,1840.0000 C 504.0000,1836.0000 508.0000,1832.0000 512.0000,1832.0000 C 517.0000,1832.0000 520.0000,1836.0000 520.0000,1840.0000 Z M 520.0000,1888.0000 L 520.0000,1904.0000 C 520.0000,1909.0000 517.0000,1912.0000 512.0000,1912.0000 C 508.0000,1912.0000 504.0000,1909.0000 504.0000,1904.0000 L 504.0000,1888.0000 C 504.0000,1884.0000 508.0000,1880.0000 512.0000,1880.0000 C 517.0000,1880.0000 520.0000,1884.0000 520.0000,1888.0000 Z M 520.0000,1936.0000 L 520.0000,1952.0000 C 520.0000,1957.0000 517.0000,1960.0000 512.0000,1960.0000 C 508.0000,1960.0000 504.0000,1957.0000 504.0000,1952.0000 L 504.0000,1936.0000 C 504.0000,1932.0000 508.0000,1928.0000 512.0000,1928.0000 C 517.0000,1928.0000 520.0000,1932.0000 520.0000,1936.0000 Z M 520.0000,1984.0000 L 520.0000,2000.0000 C 520.0000,2005.0000 517.0000,2008.0000 512.0000,2008.0000 C 508.0000,2008.0000 504.0000,2005.0000 504.0000,2000.0000 L 504.0000,1984.0000 C 504.0000,1980.0000 508.0000,1976.0000 512.0000,1976.0000 C 517.0000,1976.0000 520.0000,1980.0000 520.0000,1984.0000 Z M 520.0000,2032.0000 L 520.0000,2048.0000 C 520.0000,2053.0000 517.0000,2056.0000 512.0000,2056.0000 C 508.0000,2056.0000 504.0000,2053.0000 504.0000,2048.0000 L 504.0000,2032.0000 C 504.0000,2028.0000 508.0000,2024.0000 512.0000,2024.0000 C 517.0000,2024.0000 520.0000,2028.0000 520.0000,2032.0000 Z M 520.0000,2080.0000 L 520.0000,2096.0000 C 520.0000,2101.0000 517.0000,2104.0000 512.0000,2104.0000 C 508.0000,2104.0000 504.0000,2101.0000 504.0000,2096.0000 L 504.0000,2080.0000 C 504.0000,2076.0000 508.0000,2072.0000 512.0000,2072.0000 C 517.0000,2072.0000 520.0000,2076.0000 520.0000,2080.0000 Z M 520.0000,2128.0000 L 520.0000,2144.0000 C 520.0000,2149.0000 517.0000,2152.0000 512.0000,2152.0000 C 508.0000,2152.0000 504.0000,2149.0000 504.0000,2144.0000 L 504.0000,2128.0000 C 504.0000,2124.0000 508.0000,2120.0000 512.0000,2120.0000 C 517.0000,2120.0000 520.0000,2124.0000 520.0000,2128.0000 Z "  fill="#000000" stroke="#000000" stroke-width="16.0000"  stroke-linecap="butt"  stroke-linejoin="bevel" />
</g>
<g transform="matrix(1.0000 0.0000 0.0000 1.0000 0.0000 0.0000)">
</g>
<g transform="matrix(0.0625 0.0000 0.0000 0.0625 0.0000 0.0000)">
<path d="M 968.0000,640.0000 L 968.0000,656.0000 C 968.0000,661.0000 965.0000,664.0000 960.0000,664.0000 C 956.0000,664.0000 952.0000,661.0000 952.0000,656.0000 L 952.0000,640.0000 C 952.0000,636.0000 956.0000,632.0000 960.0000,632.0000 C 965.0000,632.0000 968.0000,636.0000 968.0000,640.0000 Z M 968.0000,688.0000 L 968.0000,704.0000 C 968.0000,709.0000 965.0000,712.0000 960.0000,712.0000 C 956.0000,712.0000 952.0000,709.0000 952.0000,704.0000 L 952.0000,688.0000 C 952.0000,684.0000 956.0000,680.0000 960.0000,680.0000 C 965.0000,680.0000 968.0000,684.0000 968.0000,688.0000 Z M 968.0000,736.0000 L 968.0000,752.0000 C 968.0000,757.0000 965.0000,760.0000 960.0000,760.0000 C 956.0000,760.0000 952.0000,757.0000 952.0000,752.0000 L 952.0000,736.0000 C 952.0000,732.0000 956.0000,728.0000 960.0000,728.0000 C 965.0000,728.0000 968.0000,732.0000 968.0000,736.0000 Z M 968.0000,784.0000 L 968.0000,800.0000 C 968.0000,805.0000 965.0000,808.0000 960.0000,808.0000 C 956.0000,808.0000 952.0000,805.0000 952.0000,800.0000 L 952.0000,784.0000 C 952.0000,780.0000 956.0000,776.0000 960.0000,776.0000 C 965.0000,776.0000 968.0000,780.0000 968.0000,784.0000 Z M 968.0000,832.0000 L 968.0000,848.0000 C 968.0000,853.0000 965.0000,856.0000 960.0000,856.0000 C 956.0000,856.0000 952.0000,853.0000 952.0000,848.0000 L 952.0000,832.0000 C 952.0000,828.0000 956.0000,824.0000 960.0000,824.0000 C 965.0000,824.0000 968.0000,828.0000 968.0000,832.0000 Z M 968.0000,880.0000 L 968.0000,896.0000 C 968.0000,901.0000 965.0000,904.0000 960.0000,904.0000 C 956.0000,904.0000 952.0000,901.0000 952.0000,896.0000 L 952.0000,880.0000 C 952.0000,876.0000 956.0000,872.0000 960.0000,872.0000 C 965.0000,872.0000 968.0000,876.0000 968.0000,880.0000 Z M 968.0000,928.0000 L 968.0000,944.0000 C 968.0000,949.0000 965.0000,952.0000 960.0000,952.0000 C 956.0000,952.0000 952.0000,949.0000 952.0000,944.0000 L 952.0000,928.0000 C 952.0000,924.0000 956.0000,920.0000 960.0000,920.0000 C 965.0000,920.0000 968.0000,924.0000 968.0000,928.0000 Z M 968.0000,976.0000 L 968.0000,992.0000 C 968.0000,997.0000 965.0000,1000.0000 960.0000,1000.0000 C 956.0000,1000.0000 952.0000,997.0000 952.0000,992.0000 L 952.0000,976.0000 C 952.0000,972.0000 956.0000,968.0000 960.0000,968.0000 C 965.0000,968.0000 968.0000,972.0000 968.0000,976.0000 Z M 968.0000,1024.0000 L 968.0000,1040.0000 C 968.0000,1045.0000 965.0000,1048.0000 960.0000,1048.0000 C 956.0000,1048.0000 952.0000,1045.0000 952.0000,1040.0000 L 952.0000,1024.0000 C 952.0000,1020.0000 956.0000,1016.0000 960.0000,1016.0000 C 965.0000,1016.0000 968.0000,1020.0000 968.0000,1024.0000 Z M 968.0000,1072.0000 L 968.0000,1088.0000 C 968.0000,1093.0000 965.0000,1096.0000 960.0000,1096.0000 C 956.0000,1096.0000 952.0000,1093.0000 952.0000,1088.0000 L 952.0000,1072.0000 C 952.0000,1068.0000 956.0000,1064.0000 960.0000,1064.0000 C 965.0000,1064.0000 968.0000,1068.0000 968.0000,1072.0000 Z M 968.0000,1120.0000 L 968.0000,1136.0000 C 968.0000,1141.0000 965.0000,1144.0000 960.0000,1144.0000 C 956.0000,1144.0000 952.0000,1141.0000 952.0000,1136.0000 L 952.0000,1120.0000 C 952.0000,1116.0000 956.0000,1112.0000 960.0000,1112.0000 C 965.0000,1112.0000 968.0000,1116.0000 968.0000,1120.0000 Z M 968.0000,1168.0000 L 968.0000,1184.0000 C 968.0000,1189.0000 965.0000,1192.0000 960.0000,1192.0000 C 956.0000,1192.0000 952.0000,1189.0000 952.0000,1184.0000 L 952.0000,1168.0000 C 952.0000,1164.0000 956.0000,1160.0000 960.0000,1160.0000 C 965.0000,1160.0000 968.0000,1164.0000 968.0000,1168.0000 Z M 968.0000,1216.0000 L 968.0000,1232.0000 C 968.0000,1237.0000 965.0000,1240.0000 960.0000,1240.0000 C 956.0000,1240.0000 952.0000,1237.0000 952.0000,1232.0000 L 952.0000,1216.0000 C 952.0000,1212.0000 956.0000,1208.0000 960.0000,1208.0000 C 965.0000,1208.0000 968.0000,1212.0000 968.0000,1216.0000 Z M 968.0000,1264.0000 L 968.0000,1280.0000 C 968.0000,1285.0000 965.0000,1288.0000 960.0000,1288.0000 C 956.0000,1288.0000 952.0000,1285.0000 952.0000,1280.0000 L 952.0000,1264.0000 C 952.0000,1260.0000 956.0000,1256.0000 960.0000,1256.0000 C 965.0000,1256.0000 968.0000,1260.0000 968.0000,1264.0000 Z M 968.0000,1312.0000 L 968.0000,1328.0000 C 968.0000,1333.0000 965.0000,1336.0000 960.0000,1336.0000 C 956.0000,1336.0000 952.0000,1333.0000 952.0000,1328.0000 L 952.0000,1312.0000 C 952.0000,1308.0000 956.0000,1304.0000 960.0000,1304.0000 C 965.0000,1304.0000 968.0000,1308.0000 968.0000,1312.0000 Z M 968.0000,1360.0000 L 968.0000,1376.0000 C 968.0000,1381.0000 965.0000,1384.0000 960.0000,1384.0000 C 956.0000,1384.0000 952.0000,1381.0000 952.0000,1376.0000 L 952.0000,1360.0000 C 952.0000,1356.0000 956.0000,1352.0000 960.0000,1352.0000 C 965.0000,1352.0000 968.0000,1356.0000 968.0000,1360.0000 Z M 968.0000,1408.0000 L 968.0000,1424.0000 C 968.0000,1429.0000 965.0000,1432.0000 960.0000,1432.0000 C 956.0000,1432.0000 952.0000,1429.0000 952.0000,1424.0000 L 952.0000,1408.0000 C 952.0000,1404.0000 956.0000,1400.0000 960.0000,1400.0000 C 965.0000,1400.0000 968.0000,1404.0000 968.0000,1408.0000 Z M 968.0000,1456.0000 L 968.0000,1472.0000 C 968.0000,1477.0000 965.0000,1480.0000 960.0000,1480.0000 C 956.0000,1480.0000 952.0000,1477.0000 952.0000,1472.0000 L 952.0000,1456.0000 C 952.0000,1452.0000 956.0000,1448.0000 960.0000,1448.0000 C 965.0000,1448.0000 968.0000,1452.0000 968.0000,1456.0000 Z M 968.0000,1504.0000 L 968.0000,1520.0000 C 968.0000,1525.0000 965.0000,1528.0000 960.0000,1528.0000 C 956.0000,1528.0000 952.0000,1525.0000 952.0000,1520.0000 L 952.0000,1504.0000 C 952.0000,1500.0000 956.0000,1496.0000 960.0000,1496.0000 C 965.0000,1496.0000 968.0000,1500.0000 968.0000,1504.0000 Z M 968.0000,1552.0000 L 968.0000,1568.0000 C 968.0000,1573.0000 965.0000,1576.0000 960.0000,1576.0000 C 956.0000,1576.0000 952.0000,1573.0000 952.0000,1568.0000 L 952.0000,1552.0000 C 952.0000,1548.0000 956.0000,1544.0000 960.0000,1544.0000 C 965.0000,1544.0000 968.0000,1548.0000 968.0000,1552.0000 Z M 968.0000,1600.0000 L 968.0000,1616.0000 C 968.0000,1621.0000 965.0000,1624.0000 960.0000,1624.0000 C 956.0000,1624.0000 952.0000,1621.0000 952.0000,1616.0000 L 952.0000,1600.0000 C 952.0000,1596.0000 956.0000,1592.0000 960.0000,1592.0000 C 965.0000,1592.0000 968.0000,1596.0000 968.0000,1600.0000 Z M 968.0000,1648.0000 L 968.0000,1664.0000 C 968.0000,1669.0000 965.0000,1672.0000 960.0000,1672.0000 C 956.0000,1672.0000 952.0000,1669.0000 952.0000,1664.0000 L 952.0000,1648.0000 C 952.0000,1644.0000 956.0000,1640.0000 960.0000,1640.0000 C 965.0000,1640.0000 968.0000,1644.0000 968.0000,1648.0000 Z M 968.0000,1696.0000 L 968.0000,1712.0000 C 968.0000,1717.0000 965.0000,1720.0000 960.0000,1720.0000 C 956.0000,1720.0000 952.0000,1717.0000 952.0000,1712.0000 L 952.0000,1696.0000 C 952.0000,1692.0000 956.0000,1688.0000 960.0000,1688.0000 C 965.0000,1688.0000 968.0000,1692.0000 968.0000,1696.0000 Z M 968.0000,1744.0000 L 968.0000,1760.0000 C 968.0000,1765.0000 965.0000,1768.0000 960.0000,1768.0000 C 956.0000,1768.0000 952.0000,1765.0000 952.0000,1760.0000 L 952.0000,1744.0000 C 952.0000,1740.0000 956.0000,1736.0000 960.0000,1736.0000 C 965.0000,1736.0000 968.0000,1740.0000 968.0000,1744.0000 Z M 968.0000,1792.0000 L 968.0000,1808.0000 C 968.0000,1813.0000 965.0000,1816.0000 960.0000,1816.0000 C 956.0000,1816.0000 952.0000,1813.0000 952.0000,1808.0000 L 952.0000,1792.0000 C 952.0000,1788.0000 956.0000,1784.0000 960.0000,1784.0000 C 965.0000,1784.0000 968.0000,1788.0000 968.0000,1792.0000 Z M 968.0000,1840.0000 L 968.0000,1856.0000 C 968.0000,1861.0000 965.0000,1864.0000 960.0000,1864.0000 C 956.0000,1864.0000 952.0000,1861.0000 952.0000,1856.0000 L 952.0000,1840.0000 C 952.0000,1836.0000 956.0000,1832.0000 960.0000,1832.0000 C 965.0000,1832.0000 968.0000,1836.0000 968.0000,1840.0000 Z M 968.0000,1888.0000 L 968.0000,1904.0000 C 968.0000,1909.0000 965.0000,1912.0000 960.0000,1912.0000 C 956.0000,1912.0000 952.0000,1909.0000 952.0000,1904.0000 L 952.0000,1888.0000 C 952.0000,1884.0000 956.0000,1880.0000 960.0000,1880.0000 C 965.0000,1880.0000 968.0000,1884.0000 968.0000,1888.0000 Z M 968.0000,1936.0000 L 968.0000,1952.0000 C 968.0000,1957.0000 965.0000,1960.0000 960.0000,1960.0000 C 956.0000,1960.0000 952.0000,1957.0000 952.0000,1952.0000 L 952.0000,1936.0000 C 952.0000,1932.0000 956.0000,1928.0000 960.0000,1928.0000 C 965.0000,1928.0000 968.0000,1932.0000 968.0000,1936.0000 Z M 968.0000,1984.0000 L 968.0000,2000.0000 C 968.0000,2005.0000 965.0000,2008.0000 960.0000,2008.0000 C 956.0000,2008.0000 952.0000,2005.0000 952.0000,2000.0000 L 952.0000,1984.0000 C 952.0000,1980.0000 956.0000,1976.0000 960.0000,1976.0000 C 965.0000,1976.0000 968.0000,1980.0000 968.0000,1984.0000 Z M 968.0000,2032.0000 L 968.0000,2048.0000 C 968.0000,2053.0000 965.0000,2056.0000 960.0000,2056.0000 C 956.0000,2056.0000 952.0000,2053.0000 952.0000,2048.0000 L 952.0000,2032.0000 C 952.0000,2028.0000 956.0000,2024.0000 960.0000,2024.0000 C 965.0000,2024.0000 968.0000,2028.0000 968.0000,2032.0000 Z M 968.0000,2080.0000 L 968.0000,2096.0000 C 968.0000,2101.0000 965.0000,2104.0000 960.0000,2104.0000 C 956.0000,2104.0000 952.0000,2101.0000 952.0000,2096.0000 L 952.0000,2080.0000 C 952.0000,2076.0000 956.0000,2072.0000 960.0000,2072.0000 C 965.0000,2072.0000 968.0000,2076.0000 968.0000,2080.0000 Z M 968.0000,2128.0000 L 968.0000,2144.0000 C 968.0000,2149.0000 965.0000,2152.0000 960.0000,2152.0000 C 956.0000,2152.0000 952.0000,2149.0000 952.0000,2144.0000 L 952.0000,2128.0000 C 952.0000,2124.0000 956.0000,2120.0000 960.0000,2120.0000 C 965.0000,2120.0000 968.0000,2124.0000 968.0000,2128.0000 Z "  fill="#000000" stroke="#000000" stroke-width="16.0000"  stroke-linecap="butt"  stroke-linejoin="bevel" />
</g>
<g transform="matrix(1.0000 0.0000 0.0000 1.0000 0.0000 0.0000)">
</g>
<g transform="matrix(0.0625 0.0000 0.0000 0.0625 0.0000 0.0000)">
<path d="M 512.0000,944.0000 L 512.0000,1552.0000 L 6720.0000,1552.0000 L 6720.0000,944.0000 L 512.0000,944.0000 Z" stroke-width="1px" stroke="#FFFFFF"  fill="#FFFFFF" />
</g>
<g transform="matrix(1.0000 0.0000 0.0000 1.0000 0.0000 0.0000)">
</g>
<g transform="matrix(0.0625 0.0000 0.0000 0.0625 0.0000 0.0000)">
<path d="M 512.0000,1552.0000 L 6720.0000,1552.0000 L 6720.0000,944.0000 L 512.0000,944.0000 L 512.0000,1552.0000 Z" stroke="#000000" stroke-width="5.0000"  stroke-linecap="round"  stroke-linejoin="round" fill="none" />
</g>
<g transform="matrix(1.0000 0.0000 0.0000 1.0000 0.0000 0.0000)">
<text font-family="Times New Roman" fill="#000000" style ="white-space:pre;" font-weight="400" text-anchor="start" x="156.0000" y="83.0000" font-size="16.0000" ><![CDATA[Sidelink radio frame ]]></text>
<text font-family="Times New Roman" fill="#000000" font-style="italic" style ="white-space:pre;" font-weight="400" text-anchor="start" x="292.0000" y="83.0000" font-size="16.0000" ><![CDATA[i]]></text>
</g>
<g transform="matrix(0.0625 0.0000 0.0000 0.0625 0.0000 0.0000)">
<path d="M 208.0000,2144.0000 L 352.0000,2144.0000 " stroke="#000000" stroke-width="5.0000"  stroke-linecap="round"  stroke-linejoin="round" fill="none" />
</g>
<g transform="matrix(1.0000 0.0000 0.0000 1.0000 0.0000 0.0000)">
</g>
<g transform="matrix(0.0625 0.0000 0.0000 0.0625 0.0000 0.0000)">
<path d="M 336.0000,2096.0000 L 512.0000,2144.0000 L 336.0000,2208.0000 L 336.0000,2096.0000 Z" stroke-width="1px" stroke="#000000"  fill="#000000" />
</g>
<g transform="matrix(1.0000 0.0000 0.0000 1.0000 0.0000 0.0000)">
</g>
<g transform="matrix(0.0625 0.0000 0.0000 0.0625 0.0000 0.0000)">
<path d="M 4016.0000,2144.0000 L 1120.0000,2144.0000 " stroke="#000000" stroke-width="5.0000"  stroke-linecap="round"  stroke-linejoin="round" fill="none" />
</g>
<g transform="matrix(1.0000 0.0000 0.0000 1.0000 0.0000 0.0000)">
</g>
<g transform="matrix(0.0625 0.0000 0.0000 0.0625 0.0000 0.0000)">
<path d="M 1136.0000,2208.0000 L 960.0000,2144.0000 L 1136.0000,2096.0000 L 1136.0000,2208.0000 Z" stroke-width="1px" stroke="#000000"  fill="#000000" />
</g>
<g transform="matrix(1.0000 0.0000 0.0000 1.0000 0.0000 0.0000)">
</g>
<g transform="matrix(0.4889 0.0000 0.0000 0.4672 113.0000 112.0000)">
</g>
<g transform="matrix(0.4889 0.0000 0.0000 0.4672 113.0000 112.0000)">
<defs><clipPath id="clip-1804289383"><path d="M 0.0000,0.0000 L 464.0000,0.0000 L 464.0000,49.0000 L 0.0000,49.0000 L 0.0000,0.0000 Z Z" /></clipPath></defs>
</g>
<g transform="matrix(0.4889 0.0000 0.0000 0.4672 113.0000 112.0000)">
</g>
<g transform="matrix(0.4889 0.0000 0.0000 0.4672 113.0000 112.0000)">
</g>
<g transform="matrix(0.4889 0.0000 0.0000 0.4672 113.0000 112.0000)">
</g>
<g transform="matrix(0.4889 0.0000 0.0000 0.4672 113.0000 112.0000)">
</g>
<g transform="matrix(226.8403 0.0000 0.0000 22.8946 113.0000 112.0000)">
</g>
<g transform="matrix(226.8403 0.0000 0.0000 22.8946 113.0000 112.0000)">
</g>
<g transform="matrix(226.8403 0.0000 0.0000 22.8946 113.0000 112.0000)">
</g>
<g transform="matrix(226.8403 0.0000 0.0000 22.8946 113.0000 112.0000)">
</g>
<g transform="matrix(0.0415 0.0000 0.0000 0.0377 113.0000 112.0000)">
</g>
<g transform="matrix(0.0415 0.0000 0.0000 0.0377 113.0000 112.0000)">
<text  clip-path="url(#clip-1804289383)" font-family="Symbol" fill="#000000" style ="white-space:pre;" font-weight="400" text-anchor="start" x="53.0000" y="413.0000" font-size="587.0000" ><![CDATA[]]></text>
<text  clip-path="url(#clip-1804289383)" font-family="Symbol" fill="#000000" style ="white-space:pre;" font-weight="400" text-anchor="start" x="2811.0000" y="413.0000" font-size="587.0000" ><![CDATA[]]></text>
<text  clip-path="url(#clip-1804289383)" font-family="宋体" fill="#000000" style ="white-space:pre;" font-weight="400" text-anchor="start" x="4064.0000" y="416.0000" font-size="384.0000" ><![CDATA[seconds]]></text>
<text  clip-path="url(#clip-1804289383)" font-family="宋体" fill="#000000" style ="white-space:pre;" font-weight="400" text-anchor="start" x="3518.0000" y="416.0000" font-size="384.0000" ><![CDATA[   ]]></text>
<text  clip-path="url(#clip-1804289383)" font-family="宋体" fill="#000000" style ="white-space:pre;" font-weight="400" text-anchor="start" x="3384.0000" y="512.0000" font-size="224.0000" ><![CDATA[c]]></text>
<text  clip-path="url(#clip-1804289383)" font-family="宋体" fill="#000000" style ="white-space:pre;" font-weight="400" text-anchor="start" x="2087.0000" y="512.0000" font-size="224.0000" ><![CDATA[offset]]></text>
<text  clip-path="url(#clip-1804289383)" font-family="宋体" fill="#000000" style ="white-space:pre;" font-weight="400" text-anchor="start" x="1985.0000" y="512.0000" font-size="224.0000" ><![CDATA[ ]]></text>
<text  clip-path="url(#clip-1804289383)" font-family="宋体" fill="#000000" style ="white-space:pre;" font-weight="400" text-anchor="start" x="1765.0000" y="512.0000" font-size="224.0000" ><![CDATA[TA]]></text>
<text  clip-path="url(#clip-1804289383)" font-family="宋体" fill="#000000" style ="white-space:pre;" font-weight="400" text-anchor="start" x="721.0000" y="512.0000" font-size="224.0000" ><![CDATA[SL]]></text>
<text  clip-path="url(#clip-1804289383)" font-family="宋体" fill="#000000" style ="white-space:pre;" font-weight="400" text-anchor="start" x="423.0000" y="512.0000" font-size="224.0000" ><![CDATA[TA,]]></text>
<text  clip-path="url(#clip-1804289383)" font-family="宋体" fill="#000000" font-style="italic" style ="white-space:pre;" font-weight="400" text-anchor="start" x="3194.0000" y="416.0000" font-size="384.0000" ><![CDATA[T]]></text>
<text  clip-path="url(#clip-1804289383)" font-family="宋体" fill="#000000" font-style="italic" style ="white-space:pre;" font-weight="400" text-anchor="start" x="1496.0000" y="416.0000" font-size="384.0000" ><![CDATA[N]]></text>
<text  clip-path="url(#clip-1804289383)" font-family="宋体" fill="#000000" font-style="italic" style ="white-space:pre;" font-weight="400" text-anchor="start" x="154.0000" y="416.0000" font-size="384.0000" ><![CDATA[N]]></text>
<text  clip-path="url(#clip-1804289383)" font-family="Symbol" fill="#000000" style ="white-space:pre;" font-weight="400" text-anchor="start" x="3026.0000" y="416.0000" font-size="384.0000" ><![CDATA[]]></text>
<text  clip-path="url(#clip-1804289383)" font-family="Symbol" fill="#000000" style ="white-space:pre;" font-weight="400" text-anchor="start" x="1136.0000" y="416.0000" font-size="384.0000" ><![CDATA[]]></text>
</g>
</g>
</svg>
