<?xml version="1.0" encoding="UTF-8" standalone="no"?>
<!DOCTYPE svg PUBLIC "-//W3C//DTD SVG 1.0//EN" "http://www.w3.org/TR/2001/REC-SVG-20010904/DTD/svg10.dtd">
<svg xmlns="http://www.w3.org/2000/svg" xmlns:xlink="http://www.w3.org/1999/xlink" fill-rule="evenodd" height="0.7083333333333334in" preserveAspectRatio="none" stroke-linecap="round" viewBox="0 0 11136 1632" width="4.833333333333333in">
    <style type="text/css">
.brush0 { fill: rgb(255,255,255); }
.pen0 { stroke: rgb(0,0,0); stroke-width: 1; stroke-linejoin: round; }
.pen1 { stroke: rgb(0,0,0); stroke-width: 1; stroke-linejoin: round; }
.brush1 { fill: rgb(0,0,0); }
.pen2 { stroke: none; }
.pen3 { stroke: rgb(0,0,0); stroke-width: 16; stroke-linejoin: round; }
.font0 { font-size: 342px; font-family: Symbol, serif; }
.font1 { font-size: 519px; font-family: Symbol, serif; }
.font2 { font-size: 288px; font-family: "Times New Roman", serif; }
.font3 { font-style: italic; font-size: 288px; font-family: "Times New Roman", serif; }
.font4 { font-size: 261px; font-family: Symbol, serif; }
.brush2 { fill: rgb(0,0,0); }
.font5 { font-weight: bold; font-size: 16px; font-family: System, sans-serif; }
</style>
    <g>
        <line class="pen1" fill="none" x1="933" x2="966" y1="720" y2="701"/>
        <line class="pen1" fill="none" x1="966" x2="1044" y1="701" y2="829"/>
        <line class="pen1" fill="none" x1="1044" x2="1128" y1="829" y2="492"/>
        <line class="pen1" fill="none" x1="1128" x2="1598" y1="492" y2="492"/>
        <polygon class="pen2 brush1" points="931,716 975,691 1044,797 1123,484 1598,484 1598,500 1134,500 1052,829 1036,829 958,711 936,725"/>
        <line class="pen3" fill="none" x1="906" x2="1623" y1="436" y2="436"/>
        <text class="font0" fill="rgb(0,0,0)" stroke="none" style="dominant-baseline: alphabetic;" x="1795" xml:space="preserve" y="539">(</text>
        <text class="font0" fill="rgb(0,0,0)" stroke="none" style="dominant-baseline: alphabetic;" x="3108" xml:space="preserve" y="539">)</text>
        <text class="font0" fill="rgb(0,0,0)" stroke="none" style="dominant-baseline: alphabetic;" x="3809" xml:space="preserve" y="539">(</text>
        <text class="font0" fill="rgb(0,0,0)" stroke="none" style="dominant-baseline: alphabetic;" x="5571" xml:space="preserve" y="539">)</text>
        <text class="font0" fill="rgb(0,0,0)" stroke="none" style="dominant-baseline: alphabetic;" x="6292" xml:space="preserve" y="539">(</text>
        <text class="font0" fill="rgb(0,0,0)" stroke="none" style="dominant-baseline: alphabetic;" x="8054" xml:space="preserve" y="539">)</text>
        <text class="font0" fill="rgb(0,0,0)" stroke="none" style="dominant-baseline: alphabetic;" x="8775" xml:space="preserve" y="539">(</text>
        <text class="font0" fill="rgb(0,0,0)" stroke="none" style="dominant-baseline: alphabetic;" x="10532" xml:space="preserve" y="539">)</text>
        <text class="font1" fill="rgb(0,0,0)" stroke="none" style="dominant-baseline: alphabetic;" x="1653" xml:space="preserve" y="589">{</text>
        <text class="font0" fill="rgb(0,0,0)" stroke="none" style="dominant-baseline: alphabetic;" x="1110" xml:space="preserve" y="1380">(</text>
        <text class="font0" fill="rgb(0,0,0)" stroke="none" style="dominant-baseline: alphabetic;" x="2812" xml:space="preserve" y="1380">)</text>
        <text class="font0" fill="rgb(0,0,0)" stroke="none" style="dominant-baseline: alphabetic;" x="3513" xml:space="preserve" y="1380">(</text>
        <text class="font0" fill="rgb(0,0,0)" stroke="none" style="dominant-baseline: alphabetic;" x="5255" xml:space="preserve" y="1380">)</text>
        <text class="font0" fill="rgb(0,0,0)" stroke="none" style="dominant-baseline: alphabetic;" x="5976" xml:space="preserve" y="1380">(</text>
        <text class="font0" fill="rgb(0,0,0)" stroke="none" style="dominant-baseline: alphabetic;" x="7723" xml:space="preserve" y="1380">)</text>
        <text class="font0" fill="rgb(0,0,0)" stroke="none" style="dominant-baseline: alphabetic;" x="8444" xml:space="preserve" y="1380">(</text>
        <text class="font0" fill="rgb(0,0,0)" stroke="none" style="dominant-baseline: alphabetic;" x="10206" xml:space="preserve" y="1380">)</text>
        <text class="font1" fill="rgb(0,0,0)" stroke="none" style="dominant-baseline: alphabetic;" x="10734" xml:space="preserve" y="1430">}</text>
        <text class="font2" fill="rgb(0,0,0)" stroke="none" style="dominant-baseline: alphabetic;" x="1184" xml:lang="en" xml:space="preserve" y="312">1</text>
        <text class="font2" fill="rgb(0,0,0)" stroke="none" style="dominant-baseline: alphabetic;" x="254 459 1892 2311 2631 2731 2981 3380 3906 4325 4645 4745 5284 5444 5858 6389 6808 7128 7228 7767 7927 8341 8872 9291 9611 9711 10245 10405" xml:lang="en" xml:space="preserve" y="516">()12(8)812(82)412(84)212(86)</text>
        <text class="font2" fill="rgb(0,0,0)" stroke="none" style="dominant-baseline: alphabetic;" x="1108 1268 1428" xml:lang="en" xml:space="preserve" y="799">170</text>
        <text class="font2" fill="rgb(0,0,0)" stroke="none" style="dominant-baseline: alphabetic;" x="1207 1626 1946 2046 2550 2685 3084 3610 4029 4349 4449 4978 5128 5542 6073 6492 6812 6912 7441 7596 8010 8541 8960 9280 9380 9914 10079" xml:lang="en" xml:space="preserve" y="1357">12(81)812(83)412(85)212(87)</text>
        <text class="font3" fill="rgb(0,0,0)" stroke="none" style="dominant-baseline: alphabetic;" x="59 359 2466 2881 4480 4895 6963 7378 9446 9861" xml:lang="en" xml:space="preserve" y="516">dibibibibi</text>
        <text class="font3" fill="rgb(0,0,0)" stroke="none" style="dominant-baseline: alphabetic;" x="975 1781 2196 4184 4599 6647 7062 9115 9530" xml:lang="en" xml:space="preserve" y="1357">jbibibibi</text>
        <text class="font4" fill="rgb(0,0,0)" stroke="none" style="dominant-baseline: alphabetic;" x="3258 10943" xml:space="preserve" y="467">éù</text>
        <text class="font4" fill="rgb(0,0,0)" stroke="none" style="dominant-baseline: alphabetic;" x="5721 10796" xml:space="preserve" y="492">éù</text>
        <text class="font4" fill="rgb(0,0,0)" stroke="none" style="dominant-baseline: alphabetic;" x="645 2079 3587 4093 5047 6070 6576 7530 8553 9059 10013" xml:space="preserve" y="516">=---+--+--+</text>
        <text class="font4" fill="rgb(0,0,0)" stroke="none" style="dominant-baseline: alphabetic;" x="8204 10649" xml:space="preserve" y="517">éù</text>
        <text class="font4" fill="rgb(0,0,0)" stroke="none" style="dominant-baseline: alphabetic;" x="8204 10649" xml:space="preserve" y="625">ëû</text>
        <text class="font4" fill="rgb(0,0,0)" stroke="none" style="dominant-baseline: alphabetic;" x="5721 10796" xml:space="preserve" y="650">ëû</text>
        <text class="font4" fill="rgb(0,0,0)" stroke="none" style="dominant-baseline: alphabetic;" x="3258 10943" xml:space="preserve" y="675">ëû</text>
        <text class="font4" fill="rgb(0,0,0)" stroke="none" style="dominant-baseline: alphabetic;" x="2962 10617" xml:space="preserve" y="1308">éù</text>
        <text class="font4" fill="rgb(0,0,0)" stroke="none" style="dominant-baseline: alphabetic;" x="5405 10470" xml:space="preserve" y="1333">éù</text>
        <text class="font4" fill="rgb(0,0,0)" stroke="none" style="dominant-baseline: alphabetic;" x="725 1394 2348 3291 3797 4751 5754 6260 7214 8222 8728 9682" xml:space="preserve" y="1357">+-+--+--+--+</text>
        <text class="font4" fill="rgb(0,0,0)" stroke="none" style="dominant-baseline: alphabetic;" x="7873 10323" xml:space="preserve" y="1358">éù</text>
        <text class="font4" fill="rgb(0,0,0)" stroke="none" style="dominant-baseline: alphabetic;" x="7873 10323" xml:space="preserve" y="1466">ëû</text>
        <text class="font4" fill="rgb(0,0,0)" stroke="none" style="dominant-baseline: alphabetic;" x="5405 10470" xml:space="preserve" y="1491">ëû</text>
        <text class="font4" fill="rgb(0,0,0)" stroke="none" style="dominant-baseline: alphabetic;" x="2962 10617" xml:space="preserve" y="1516">ëû</text>
    </g>
</svg>
