<?xml version="1.0" encoding="UTF-8" standalone="no"?>
<!DOCTYPE svg PUBLIC "-//W3C//DTD SVG 1.0//EN" "http://www.w3.org/TR/2001/REC-SVG-20010904/DTD/svg10.dtd">
<svg xmlns="http://www.w3.org/2000/svg" xmlns:xlink="http://www.w3.org/1999/xlink" fill-rule="evenodd" height="0.4027777777777778in" preserveAspectRatio="none" stroke-linecap="round" viewBox="0 0 16160 928" width="7.013888888888889in">
    <style type="text/css">
.brush0 { fill: rgb(255,255,255); }
.pen0 { stroke: rgb(0,0,0); stroke-width: 1; stroke-linejoin: round; }
.pen1 { stroke: rgb(0,0,0); stroke-width: 1; stroke-linejoin: round; }
.brush1 { fill: rgb(0,0,0); }
.pen2 { stroke: none; }
.pen3 { stroke: rgb(0,0,0); stroke-width: 16; stroke-linejoin: round; }
.font0 { font-size: 342px; font-family: Symbol, serif; }
.font1 { font-size: 475px; font-family: Symbol, serif; }
.font2 { font-size: 288px; font-family: "Times New Roman", serif; }
.font3 { font-style: italic; font-size: 288px; font-family: "Times New Roman", serif; }
.font4 { font-size: 261px; font-family: Symbol, serif; }
.brush2 { fill: rgb(0,0,0); }
.font5 { font-weight: bold; font-size: 16px; font-family: System, sans-serif; }
</style>
    <g>
        <line class="pen1" fill="none" x1="933" x2="966" y1="744" y2="726"/>
        <line class="pen1" fill="none" x1="966" x2="1044" y1="726" y2="852"/>
        <line class="pen1" fill="none" x1="1044" x2="1128" y1="852" y2="520"/>
        <line class="pen1" fill="none" x1="1128" x2="1473" y1="520" y2="520"/>
        <polygon class="pen2 brush1" points="931,740 975,716 1044,820 1123,512 1473,512 1473,528 1134,528 1052,852 1036,852 958,736 936,749"/>
        <line class="pen3" fill="none" x1="906" x2="1498" y1="464" y2="464"/>
        <text class="font0" fill="rgb(0,0,0)" stroke="none" style="dominant-baseline: alphabetic;" x="1670" xml:space="preserve" y="567">(</text>
        <text class="font0" fill="rgb(0,0,0)" stroke="none" style="dominant-baseline: alphabetic;" x="2998" xml:space="preserve" y="567">)</text>
        <text class="font0" fill="rgb(0,0,0)" stroke="none" style="dominant-baseline: alphabetic;" x="3719" xml:space="preserve" y="567">(</text>
        <text class="font0" fill="rgb(0,0,0)" stroke="none" style="dominant-baseline: alphabetic;" x="5496" xml:space="preserve" y="567">)</text>
        <text class="font0" fill="rgb(0,0,0)" stroke="none" style="dominant-baseline: alphabetic;" x="6217" xml:space="preserve" y="567">(</text>
        <text class="font0" fill="rgb(0,0,0)" stroke="none" style="dominant-baseline: alphabetic;" x="7994" xml:space="preserve" y="567">)</text>
        <text class="font0" fill="rgb(0,0,0)" stroke="none" style="dominant-baseline: alphabetic;" x="8877" xml:space="preserve" y="567">(</text>
        <text class="font0" fill="rgb(0,0,0)" stroke="none" style="dominant-baseline: alphabetic;" x="10594" xml:space="preserve" y="567">)</text>
        <text class="font0" fill="rgb(0,0,0)" stroke="none" style="dominant-baseline: alphabetic;" x="11315" xml:space="preserve" y="567">(</text>
        <text class="font0" fill="rgb(0,0,0)" stroke="none" style="dominant-baseline: alphabetic;" x="13072" xml:space="preserve" y="567">)</text>
        <text class="font0" fill="rgb(0,0,0)" stroke="none" style="dominant-baseline: alphabetic;" x="13793" xml:space="preserve" y="567">(</text>
        <text class="font0" fill="rgb(0,0,0)" stroke="none" style="dominant-baseline: alphabetic;" x="15555" xml:space="preserve" y="567">)</text>
        <text class="font1" fill="rgb(0,0,0)" stroke="none" style="dominant-baseline: alphabetic;" x="1528" xml:space="preserve" y="604">{</text>
        <text class="font1" fill="rgb(0,0,0)" stroke="none" style="dominant-baseline: alphabetic;" x="15936" xml:space="preserve" y="604">}</text>
        <text class="font2" fill="rgb(0,0,0)" stroke="none" style="dominant-baseline: alphabetic;" x="1122" xml:lang="en" xml:space="preserve" y="340">1</text>
        <text class="font2" fill="rgb(0,0,0)" stroke="none" style="dominant-baseline: alphabetic;" x="254 459 1767 2186 2506 2616 2871 3285 3816 4235 4555 4665 5209 5369 5783 6314 6733 7053 7163 7707 7867 8974 9393 9713 9823 10332 10467 10881 11412 11831 12151 12261 12795 12945 13359 13890 14309 14629 14739 15273" xml:lang="en" xml:space="preserve" y="544">()12(6)412(62)212(64)12(61)412(63)212(65</text>
        <text class="font2" fill="rgb(0,0,0)" stroke="none" style="dominant-baseline: alphabetic;" x="15428" xml:lang="en" xml:space="preserve" y="544">)</text>
        <text class="font2" fill="rgb(0,0,0)" stroke="none" style="dominant-baseline: alphabetic;" x="1143 1303" xml:lang="en" xml:space="preserve" y="827">42</text>
        <text class="font3" fill="rgb(0,0,0)" stroke="none" style="dominant-baseline: alphabetic;" x="59 359 2341 2771 4390 4820 6888 7318 8742 9548 9978 11986 12416 14464 14894" xml:lang="en" xml:space="preserve" y="544">dibibibijbibibi</text>
        <text class="font4" fill="rgb(0,0,0)" stroke="none" style="dominant-baseline: alphabetic;" x="3148 8258 10744 15819" xml:space="preserve" y="520">éùéù</text>
        <text class="font4" fill="rgb(0,0,0)" stroke="none" style="dominant-baseline: alphabetic;" x="645 1954 3497 4003 4972 5995 6501 7470 8445 9161 10130 11093 11599 12568 13571 14077 15046" xml:space="preserve" y="544">=---+--++-+--+--+</text>
        <text class="font4" fill="rgb(0,0,0)" stroke="none" style="dominant-baseline: alphabetic;" x="5646 8111 13222 15672" xml:space="preserve" y="545">éùéù</text>
        <text class="font4" fill="rgb(0,0,0)" stroke="none" style="dominant-baseline: alphabetic;" x="5646 8111 13222 15672" xml:space="preserve" y="653">ëûëû</text>
        <text class="font4" fill="rgb(0,0,0)" stroke="none" style="dominant-baseline: alphabetic;" x="3148 8258 10744 15819" xml:space="preserve" y="678">ëûëû</text>
    </g>
</svg>
