<?xml version="1.0" encoding="UTF-8" standalone="no"?>
<!DOCTYPE svg PUBLIC "-//W3C//DTD SVG 1.0//EN" "http://www.w3.org/TR/2001/REC-SVG-20010904/DTD/svg10.dtd">
<svg xmlns="http://www.w3.org/2000/svg" xmlns:xlink="http://www.w3.org/1999/xlink" fill-rule="evenodd" height="1.08in" preserveAspectRatio="none" stroke-linecap="round" viewBox="0 0 1660 1080" width="1.66in">
    <style type="text/css">
.brush0 { fill: rgb(255,255,255); }
.pen0 { stroke: rgb(0,0,0); stroke-width: 1; stroke-linejoin: round; }
.pen1 { stroke: none; }
.pen2 { stroke: rgb(0,0,0); stroke-width: 10; stroke-linejoin: round; }
.font0 { font-weight: bold; font-size: 125px; font-family: Arial; }
.font1 { font-style: italic; font-size: 150px; font-family: Times; }
.brush1 { fill: rgb(0,0,0); }
</style>
    <g>
        <path class="pen1 brush0" d="M 0,0  L 10,0 10,10 0,10 0,0 z" fill-rule="nonzero"/>
        <path class="pen1 brush0" d="M 1650,1070  L 1660,1070 1660,1080 1650,1080 1650,1070 z" fill-rule="nonzero"/>
    </g>
    <g>
        <polyline class="pen2" fill="none" points="530,-70 310,-70 310,1190 90,1190"/>
    </g>
    <g>
        <polyline class="pen2" fill="none" points="1380,-70 1160,-70 1160,1190 940,1190"/>
    </g>
    <g>
        <path class="pen1 brush0" d="M 185,45  L 435,45 435,255 185,255 185,45 z" fill-rule="nonzero"/>
        <polyline class="pen2" fill="none" points="185,45 435,45 435,255 185,255 185,45"/>
    </g>
    <g>
        <text class="font0" fill="rgb(0,0,0)" stroke="none" style="dominant-baseline: alphabetic;" x="213" xml:space="preserve" y="200">U</text>
    </g>
    <g>
        <text class="font0" fill="rgb(0,0,0)" stroke="none" style="dominant-baseline: alphabetic;" x="314" xml:space="preserve" y="200">E</text>
    </g>
    <g>
        <path class="pen1 brush0" d="M 855,45  L 1465,45 1465,255 855,255 855,45 z" fill-rule="nonzero"/>
        <polyline class="pen2" fill="none" points="855,45 1465,45 1465,255 855,255 855,45"/>
    </g>
    <g>
        <text class="font0" fill="rgb(0,0,0)" stroke="none" style="dominant-baseline: alphabetic;" x="884" xml:space="preserve" y="200">N</text>
    </g>
    <g>
        <text class="font0" fill="rgb(0,0,0)" stroke="none" style="dominant-baseline: alphabetic;" x="985" xml:space="preserve" y="200">e</text>
    </g>
    <g>
        <text class="font0" fill="rgb(0,0,0)" stroke="none" style="dominant-baseline: alphabetic;" x="1063" xml:space="preserve" y="200">t</text>
    </g>
    <g>
        <text class="font0" fill="rgb(0,0,0)" stroke="none" style="dominant-baseline: alphabetic;" x="1109" xml:space="preserve" y="200">w</text>
    </g>
    <g>
        <text class="font0" fill="rgb(0,0,0)" stroke="none" style="dominant-baseline: alphabetic;" x="1218" xml:space="preserve" y="200">o</text>
    </g>
    <g>
        <text class="font0" fill="rgb(0,0,0)" stroke="none" style="dominant-baseline: alphabetic;" x="1304" xml:space="preserve" y="200">r</text>
    </g>
    <g>
        <text class="font0" fill="rgb(0,0,0)" stroke="none" style="dominant-baseline: alphabetic;" x="1358" xml:space="preserve" y="200">k</text>
    </g>
    <g>
        <text class="font1" fill="rgb(0,0,0)" stroke="none" style="dominant-baseline: alphabetic;" x="518" xml:space="preserve" y="690">P</text>
    </g>
    <g>
        <text class="font1" fill="rgb(0,0,0)" stroke="none" style="dominant-baseline: alphabetic;" x="610" xml:space="preserve" y="690">a</text>
    </g>
    <g>
        <text class="font1" fill="rgb(0,0,0)" stroke="none" style="dominant-baseline: alphabetic;" x="685" xml:space="preserve" y="690">g</text>
    </g>
    <g>
        <text class="font1" fill="rgb(0,0,0)" stroke="none" style="dominant-baseline: alphabetic;" x="760" xml:space="preserve" y="690">i</text>
    </g>
    <g>
        <text class="font1" fill="rgb(0,0,0)" stroke="none" style="dominant-baseline: alphabetic;" x="802" xml:space="preserve" y="690">n</text>
    </g>
    <g>
        <text class="font1" fill="rgb(0,0,0)" stroke="none" style="dominant-baseline: alphabetic;" x="877" xml:space="preserve" y="690">g</text>
    </g>
    <g>
        <polyline class="pen2" fill="none" points="427,745 1155,745"/>
    </g>
    <g>
        <path class="pen1 brush1" d="M 427,685  L 315,685 315,805 427,805 427,685 z" fill-rule="nonzero"/>
    </g>
    <g/>
</svg>
