<?xml version="1.0"  encoding="UTF-8" standalone="no"?>
<svg version="1.1" xmlns="http://www.w3.org/2000/svg" xmlns:xlink="http://www.w3.org/1999/xlink" width="3209.0000" height="1158.0000">
<g transform="translate(26.0000, 28.0000)">
<text font-family="Times New Roman" fill="#000000" style ="white-space:pre;" font-weight="400" text-anchor="start" x="0.0000" y="330.0000" font-size="100.0000" ><![CDATA[ ]]></text>
<g transform="matrix(0.1250 0.0000 0.0000 0.1250 0.0000 0.0000)">
<path d="M 2993.0000,6673.0000 L 2993.0000,8073.0000 L 22193.0000,8073.0000 L 22193.0000,6673.0000 L 2993.0000,6673.0000 Z" stroke-width="1px" stroke="#FFFFFF"  fill="#FFFFFF" />
</g>
<g transform="matrix(1.0000 0.0000 0.0000 1.0000 0.0000 0.0000)">
<defs><clipPath id="clip-1804289383"><path d="M 375.0000,865.0000 L 2774.0000,865.0000 L 2774.0000,979.0000 L 375.0000,979.0000 L 375.0000,865.0000 Z Z" /></clipPath></defs>
<text  clip-path="url(#clip-1804289383)" font-family="Times New Roman" fill="#000000" font-style="italic" style ="white-space:pre;" font-weight="400" text-anchor="start" x="1080.0000" y="958.0000" font-size="100.0000" ><![CDATA[UE]]></text>
<text  clip-path="url(#clip-1804289383)" font-family="Times New Roman" fill="#000000" font-style="italic" style ="white-space:pre;" font-weight="400" text-anchor="start" x="1213.0000" y="958.0000" font-size="100.0000" ><![CDATA[I]]></text>
<text  clip-path="url(#clip-1804289383)" font-family="Times New Roman" fill="#000000" font-style="italic" style ="white-space:pre;" font-weight="400" text-anchor="start" x="1246.0000" y="958.0000" font-size="100.0000" ><![CDATA[nformation]]></text>
<text  clip-path="url(#clip-1804289383)" font-family="Times New Roman" fill="#000000" font-style="italic" style ="white-space:pre;" font-weight="400" text-anchor="start" x="1691.0000" y="958.0000" font-size="100.0000" ><![CDATA[Response]]></text>
<text  clip-path="url(#clip-1804289383)" font-family="Times New Roman" fill="#000000" font-style="italic" style ="white-space:pre;" font-weight="400" text-anchor="start" x="2069.0000" y="958.0000" font-size="100.0000" ><![CDATA[ ]]></text>
</g>
<g transform="matrix(0.1250 0.0000 0.0000 0.1250 0.0000 0.0000)">
<path d="M 3060.0000,3593.0000 L 3060.0000,4993.0000 L 22193.0000,4993.0000 L 22193.0000,3593.0000 L 3060.0000,3593.0000 Z" stroke-width="1px" stroke="#FFFFFF"  fill="#FFFFFF" />
</g>
<g transform="matrix(1.0000 0.0000 0.0000 1.0000 0.0000 0.0000)">
<defs><clipPath id="clip-846930886"><path d="M 383.0000,480.0000 L 2774.0000,480.0000 L 2774.0000,594.0000 L 383.0000,594.0000 L 383.0000,480.0000 Z Z" /></clipPath></defs>
<text  clip-path="url(#clip-846930886)" font-family="Times New Roman" fill="#000000" font-style="italic" style ="white-space:pre;" font-weight="400" text-anchor="start" x="1115.0000" y="573.0000" font-size="100.0000" ><![CDATA[UE]]></text>
<text  clip-path="url(#clip-846930886)" font-family="Times New Roman" fill="#000000" font-style="italic" style ="white-space:pre;" font-weight="400" text-anchor="start" x="1248.0000" y="573.0000" font-size="100.0000" ><![CDATA[I]]></text>
<text  clip-path="url(#clip-846930886)" font-family="Times New Roman" fill="#000000" font-style="italic" style ="white-space:pre;" font-weight="400" text-anchor="start" x="1281.0000" y="573.0000" font-size="100.0000" ><![CDATA[nformationRequest]]></text>
<text  clip-path="url(#clip-846930886)" font-family="Times New Roman" fill="#000000" font-style="italic" style ="white-space:pre;" font-weight="400" text-anchor="start" x="2043.0000" y="573.0000" font-size="100.0000" ><![CDATA[ ]]></text>
</g>
<g transform="matrix(0.0625 0.0000 0.0000 0.0625 0.0000 0.0000)">
<path d="M 119.0000,86.0000 L 119.0000,3686.0000 L 12119.0000,3686.0000 L 12119.0000,86.0000 L 119.0000,86.0000 Z" stroke-width="1px" stroke="#FFFFFF"  fill="#FFFFFF" />
</g>
<g transform="matrix(1.0000 0.0000 0.0000 1.0000 0.0000 0.0000)">
</g>
<g transform="matrix(0.0625 0.0000 0.0000 0.0625 0.0000 0.0000)">
<path d="M 119.0000,86.0000 L 119.0000,3686.0000 L 12119.0000,3686.0000 L 12119.0000,86.0000 Z" stroke="#000000" stroke-width="100.0000"  stroke-linecap="round"  stroke-linejoin="miter"  stroke-miterlimit="8.0000" fill="none" />
</g>
<g transform="matrix(1.0000 0.0000 0.0000 1.0000 0.0000 0.0000)">
<defs><clipPath id="clip-1681692777"><path d="M 11.0000,39.0000 L 755.0000,39.0000 L 755.0000,198.0000 L 11.0000,198.0000 L 11.0000,39.0000 Z Z" /></clipPath></defs>
<text  clip-path="url(#clip-1681692777)" font-family="Times New Roman" fill="#000000" style ="white-space:pre;" font-weight="400" text-anchor="start" x="316.0000" y="132.0000" font-size="100.0000" ><![CDATA[UE]]></text>
<text  clip-path="url(#clip-1681692777)" font-family="Times New Roman" fill="#000000" style ="white-space:pre;" font-weight="400" text-anchor="start" x="449.0000" y="132.0000" font-size="100.0000" ><![CDATA[ ]]></text>
</g>
<g transform="matrix(0.1250 0.0000 0.0000 0.1250 0.0000 0.0000)">
<path d="M 19193.0000,43.0000 L 19193.0000,1843.0000 L 25193.0000,1843.0000 L 25193.0000,43.0000 L 19193.0000,43.0000 Z" stroke-width="1px" stroke="#FFFFFF"  fill="#FFFFFF" />
</g>
<g transform="matrix(1.0000 0.0000 0.0000 1.0000 0.0000 0.0000)">
</g>
<g transform="matrix(0.1250 0.0000 0.0000 0.1250 0.0000 0.0000)">
<path d="M 19193.0000,43.0000 L 19193.0000,1843.0000 L 25193.0000,1843.0000 L 25193.0000,43.0000 Z" stroke="#000000" stroke-width="50.0000"  stroke-linecap="round"  stroke-linejoin="miter"  stroke-miterlimit="8.0000" fill="none" />
</g>
<g transform="matrix(1.0000 0.0000 0.0000 1.0000 0.0000 0.0000)">
<defs><clipPath id="clip-1714636915"><path d="M 2403.0000,39.0000 L 3146.0000,39.0000 L 3146.0000,198.0000 L 2403.0000,198.0000 L 2403.0000,39.0000 Z Z" /></clipPath></defs>
<text  clip-path="url(#clip-1714636915)" font-family="Times New Roman" fill="#000000" style ="white-space:pre;" font-weight="400" text-anchor="start" x="2600.0000" y="132.0000" font-size="100.0000" ><![CDATA[Network]]></text>
<text  clip-path="url(#clip-1714636915)" font-family="Times New Roman" fill="#000000" style ="white-space:pre;" font-weight="400" text-anchor="start" x="2950.0000" y="132.0000" font-size="100.0000" ><![CDATA[ ]]></text>
</g>
<g transform="matrix(0.1250 0.0000 0.0000 0.1250 0.0000 0.0000)">
<path d="M 3326.0000,4760.0000 L 22193.0000,4760.0000 L 22193.0000,4826.0000 L 3326.0000,4826.0000 L 3326.0000,4760.0000 Z M 3393.0000,4993.0000 L 2993.0000,4793.0000 L 3393.0000,4593.0000 L 3393.0000,4993.0000 Z "  fill="#000000" stroke="#000000" stroke-width="8.0000"  stroke-linecap="butt"  stroke-linejoin="bevel" />
</g>
<g transform="matrix(1.0000 0.0000 0.0000 1.0000 0.0000 0.0000)">
</g>
<g transform="matrix(0.0625 0.0000 0.0000 0.0625 0.0000 0.0000)">
<path d="M 6119.0000,3686.0000 L 6119.0000,17986.0000 " stroke="#000000" stroke-width="100.0000"  stroke-linecap="butt"  stroke-linejoin="round" fill="none" />
</g>
<g transform="matrix(1.0000 0.0000 0.0000 1.0000 0.0000 0.0000)">
</g>
<g transform="matrix(0.1250 0.0000 0.0000 0.1250 0.0000 0.0000)">
<path d="M 22193.0000,1843.0000 L 22193.0000,8993.0000 " stroke="#000000" stroke-width="50.0000"  stroke-linecap="butt"  stroke-linejoin="round" fill="none" />
</g>
<g transform="matrix(1.0000 0.0000 0.0000 1.0000 0.0000 0.0000)">
</g>
<g transform="matrix(0.1250 0.0000 0.0000 0.1250 0.0000 0.0000)">
<path d="M 2993.0000,7760.0000 L 21860.0000,7760.0000 L 21860.0000,7826.0000 L 2993.0000,7826.0000 L 2993.0000,7760.0000 Z M 21793.0000,7593.0000 L 22193.0000,7793.0000 L 21793.0000,7993.0000 L 21793.0000,7593.0000 Z "  fill="#000000" stroke="#000000" stroke-width="8.0000"  stroke-linecap="butt"  stroke-linejoin="bevel" />
</g>
<g transform="matrix(1.0000 0.0000 0.0000 1.0000 0.0000 0.0000)">
</g>
</g>
</svg>
