<?xml version="1.0"  encoding="UTF-8" standalone="no"?>
<svg version="1.1" xmlns="http://www.w3.org/2000/svg" xmlns:xlink="http://www.w3.org/1999/xlink" width="1930.0000" height="1986.0000">
<g transform="translate(-0.0000, 2.0000)">
<text font-family="Calibri" fill="#000000" style ="white-space:pre;" font-weight="400" text-anchor="start" x="201.0000" y="87.0000" font-size="92.0000" ><![CDATA[ ]]></text>
<g transform="matrix(0.0625 0.0000 0.0000 0.0625 0.0000 0.0000)">
<path d="M 3728.0000,800.0000 C 3728.0000,360.0000 4090.0000,0.0000 4532.0000,0.0000 L 29133.0000,0.0000 C 29577.0000,0.0000 29936.0000,360.0000 29936.0000,800.0000 L 29936.0000,4000.0000 C 29936.0000,4442.0000 29577.0000,4800.0000 29133.0000,4800.0000 L 4532.0000,4800.0000 C 4090.0000,4800.0000 3728.0000,4442.0000 3728.0000,4000.0000 L 3728.0000,800.0000 Z "  fill="#FFFFFF" stroke="none" />
</g>
<g transform="matrix(1.0000 0.0000 0.0000 1.0000 0.0000 0.0000)">
</g>
<g transform="matrix(0.0625 0.0000 0.0000 0.0625 0.0000 0.0000)">
<path d="M 3728.0000,800.0000 C 3728.0000,360.0000 4090.0000,0.0000 4532.0000,0.0000 L 29133.0000,0.0000 C 29577.0000,0.0000 29936.0000,360.0000 29936.0000,800.0000 L 29936.0000,4000.0000 C 29936.0000,4442.0000 29577.0000,4800.0000 29133.0000,4800.0000 L 4532.0000,4800.0000 C 4090.0000,4800.0000 3728.0000,4442.0000 3728.0000,4000.0000 L 3728.0000,800.0000 Z " stroke="#000000" stroke-width="16.0000"  stroke-linecap="butt"  stroke-linejoin="round" fill="none" />
</g>
<g transform="matrix(1.0000 0.0000 0.0000 1.0000 0.0000 0.0000)">
<defs><clipPath id="clip-1804289383"><path d="M 564.0000,63.0000 L 1583.0000,63.0000 L 1583.0000,254.0000 L 564.0000,254.0000 L 564.0000,63.0000 Z Z" /></clipPath></defs>
<text  clip-path="url(#clip-1804289383)" font-family="Times New Roman" fill="#000000" style ="white-space:pre;" font-weight="400" text-anchor="start" x="564.0000" y="156.0000" font-size="100.0000" ><![CDATA[NR]]></text>
<text  clip-path="url(#clip-1804289383)" font-family="Times New Roman" fill="#000000" style ="white-space:pre;" font-weight="400" text-anchor="start" x="703.0000" y="156.0000" font-size="100.0000" ><![CDATA[ ]]></text>
<text  clip-path="url(#clip-1804289383)" font-family="Times New Roman" fill="#000000" style ="white-space:pre;" font-weight="400" text-anchor="start" x="728.0000" y="156.0000" font-size="100.0000" ><![CDATA[RRC_CONNECTED]]></text>
<text  clip-path="url(#clip-1804289383)" font-family="Times New Roman" fill="#000000" style ="white-space:pre;" font-weight="400" text-anchor="start" x="1584.0000" y="156.0000" font-size="100.0000" ><![CDATA[ ]]></text>
<defs><clipPath id="clip-846930886"><path d="M 1113.0000,50.0000 L 1134.0000,50.0000 L 1134.0000,238.0000 L 1113.0000,238.0000 L 1113.0000,50.0000 Z Z" /></clipPath></defs>
<text  clip-path="url(#clip-846930886)" font-family="Calibri" fill="#000000" style ="white-space:pre;" font-weight="400" text-anchor="start" x="1113.0000" y="137.0000" font-size="92.0000" ><![CDATA[ ]]></text>
<text  clip-path="url(#clip-846930886)" font-family="Calibri" fill="#000000" style ="white-space:pre;" font-weight="400" text-anchor="start" x="1134.0000" y="137.0000" font-size="92.0000" ><![CDATA[ ]]></text>
<defs><clipPath id="clip-1681692777"><path d="M 1473.0000,165.0000 L 1493.0000,165.0000 L 1493.0000,353.0000 L 1473.0000,353.0000 L 1473.0000,165.0000 Z Z" /></clipPath></defs>
<text  clip-path="url(#clip-1681692777)" font-family="Calibri" fill="#000000" style ="white-space:pre;" font-weight="400" text-anchor="start" x="1473.0000" y="252.0000" font-size="92.0000" ><![CDATA[ ]]></text>
<text  clip-path="url(#clip-1681692777)" font-family="Calibri" fill="#000000" style ="white-space:pre;" font-weight="400" text-anchor="start" x="1494.0000" y="252.0000" font-size="92.0000" ><![CDATA[ ]]></text>
</g>
<g transform="matrix(0.0625 0.0000 0.0000 0.0625 0.0000 0.0000)">
<path d="M 3216.0000,27726.0000 C 3216.0000,27287.0000 3578.0000,26928.0000 4020.0000,26928.0000 L 28637.0000,26928.0000 C 29081.0000,26928.0000 29440.0000,27287.0000 29440.0000,27726.0000 L 29440.0000,30915.0000 C 29440.0000,31356.0000 29081.0000,31712.0000 28637.0000,31712.0000 L 4020.0000,31712.0000 C 3578.0000,31712.0000 3216.0000,31356.0000 3216.0000,30915.0000 L 3216.0000,27726.0000 Z "  fill="#FFFFFF" stroke="none" />
</g>
<g transform="matrix(1.0000 0.0000 0.0000 1.0000 0.0000 0.0000)">
</g>
<g transform="matrix(0.0625 0.0000 0.0000 0.0625 0.0000 0.0000)">
<path d="M 3216.0000,27726.0000 C 3216.0000,27287.0000 3578.0000,26928.0000 4020.0000,26928.0000 L 28637.0000,26928.0000 C 29081.0000,26928.0000 29440.0000,27287.0000 29440.0000,27726.0000 L 29440.0000,30915.0000 C 29440.0000,31356.0000 29081.0000,31712.0000 28637.0000,31712.0000 L 4020.0000,31712.0000 C 3578.0000,31712.0000 3216.0000,31356.0000 3216.0000,30915.0000 L 3216.0000,27726.0000 Z " stroke="#000000" stroke-width="16.0000"  stroke-linecap="butt"  stroke-linejoin="round" fill="none" />
</g>
<g transform="matrix(1.0000 0.0000 0.0000 1.0000 0.0000 0.0000)">
<defs><clipPath id="clip-1714636915"><path d="M 733.0000,1760.0000 L 1367.0000,1760.0000 L 1367.0000,1940.0000 L 733.0000,1940.0000 L 733.0000,1760.0000 Z Z" /></clipPath></defs>
<text  clip-path="url(#clip-1714636915)" font-family="Times New Roman" fill="#000000" style ="white-space:pre;" font-weight="400" text-anchor="start" x="756.0000" y="1846.0000" font-size="92.0000" ><![CDATA[NR]]></text>
<text  clip-path="url(#clip-1714636915)" font-family="Times New Roman" fill="#000000" style ="white-space:pre;" font-weight="400" text-anchor="start" x="883.0000" y="1846.0000" font-size="92.0000" ><![CDATA[ ]]></text>
<text  clip-path="url(#clip-1714636915)" font-family="Times New Roman" fill="#000000" style ="white-space:pre;" font-weight="400" text-anchor="start" x="906.0000" y="1846.0000" font-size="92.0000" ><![CDATA[RRC_IDLE]]></text>
<text  clip-path="url(#clip-1714636915)" font-family="Times New Roman" fill="#000000" style ="white-space:pre;" font-weight="400" text-anchor="start" x="1344.0000" y="1846.0000" font-size="92.0000" ><![CDATA[ ]]></text>
<defs><clipPath id="clip-1957747793"><path d="M 1075.0000,1734.0000 L 1096.0000,1734.0000 L 1096.0000,1921.0000 L 1075.0000,1921.0000 L 1075.0000,1734.0000 Z Z" /></clipPath></defs>
<text  clip-path="url(#clip-1957747793)" font-family="Calibri" fill="#000000" style ="white-space:pre;" font-weight="400" text-anchor="start" x="1075.0000" y="1821.0000" font-size="92.0000" ><![CDATA[ ]]></text>
<text  clip-path="url(#clip-1957747793)" font-family="Calibri" fill="#000000" style ="white-space:pre;" font-weight="400" text-anchor="start" x="1096.0000" y="1821.0000" font-size="92.0000" ><![CDATA[ ]]></text>
<defs><clipPath id="clip-424238335"><path d="M 1245.0000,1848.0000 L 1266.0000,1848.0000 L 1266.0000,2035.0000 L 1245.0000,2035.0000 L 1245.0000,1848.0000 Z Z" /></clipPath></defs>
<text  clip-path="url(#clip-424238335)" font-family="Calibri" fill="#000000" style ="white-space:pre;" font-weight="400" text-anchor="start" x="1245.0000" y="1935.0000" font-size="92.0000" ><![CDATA[ ]]></text>
<text  clip-path="url(#clip-424238335)" font-family="Calibri" fill="#000000" style ="white-space:pre;" font-weight="400" text-anchor="start" x="1266.0000" y="1935.0000" font-size="92.0000" ><![CDATA[ ]]></text>
</g>
<g transform="matrix(0.0625 0.0000 0.0000 0.0625 0.0000 0.0000)">
<path d="M 23487.0000,5355.0000 L 23487.0000,26358.0000 L 23352.0000,26358.0000 L 23352.0000,5355.0000 L 23487.0000,5355.0000 Z M 23008.0000,5489.0000 L 23420.0000,4688.0000 L 23824.0000,5489.0000 L 23008.0000,5489.0000 Z M 23824.0000,26224.0000 L 23420.0000,27024.0000 L 23008.0000,26224.0000 L 23824.0000,26224.0000 Z "  fill="#000000" stroke-width="1px" stroke="#000000" />
</g>
<g transform="matrix(1.0000 0.0000 0.0000 1.0000 0.0000 0.0000)">
</g>
<g transform="matrix(0.0625 0.0000 0.0000 0.0625 0.0000 0.0000)">
<path d="M 23487.0000,5355.0000 L 23487.0000,26358.0000 L 23352.0000,26358.0000 L 23352.0000,5355.0000 L 23487.0000,5355.0000 Z" stroke="#000000" stroke-width="16.0000"  stroke-linecap="butt"  stroke-linejoin="round" fill="none" />
<path d="M 23008.0000,5489.0000 L 23420.0000,4688.0000 L 23824.0000,5489.0000 L 23008.0000,5489.0000 " stroke="#000000" stroke-width="16.0000"  stroke-linecap="butt"  stroke-linejoin="round" fill="none" />
<path d="M 23824.0000,26224.0000 L 23420.0000,27024.0000 L 23008.0000,26224.0000 L 23824.0000,26224.0000 " stroke="#000000" stroke-width="16.0000"  stroke-linecap="butt"  stroke-linejoin="round" fill="none" />
</g>
<g transform="matrix(1.0000 0.0000 0.0000 1.0000 0.0000 0.0000)">
<defs><clipPath id="clip-719885386"><path d="M 1524.0000,703.0000 L 2049.0000,703.0000 L 2049.0000,997.0000 L 1524.0000,997.0000 L 1524.0000,703.0000 Z Z" /></clipPath></defs>
<text  clip-path="url(#clip-719885386)" font-family="Times New Roman" fill="#000000" style ="white-space:pre;" font-weight="400" text-anchor="start" x="1524.0000" y="789.0000" font-size="92.0000" ><![CDATA[Establish / ]]></text>
<text  clip-path="url(#clip-719885386)" font-family="Times New Roman" fill="#000000" style ="white-space:pre;" font-weight="400" text-anchor="start" x="1524.0000" y="903.0000" font-size="92.0000" ><![CDATA[Release ]]></text>
<text  clip-path="url(#clip-719885386)" font-family="Times New Roman" fill="#000000" style ="white-space:pre;" font-weight="400" text-anchor="start" x="1832.0000" y="903.0000" font-size="92.0000" ><![CDATA[ ]]></text>
</g>
<g transform="matrix(0.0625 0.0000 0.0000 0.0625 0.0000 0.0000)">
<path d="M 3664.0000,13360.0000 C 3664.0000,12920.0000 4024.0000,12560.0000 4468.0000,12560.0000 L 18397.0000,12560.0000 C 18841.0000,12560.0000 19200.0000,12920.0000 19200.0000,13360.0000 L 19200.0000,16560.0000 C 19200.0000,17002.0000 18841.0000,17360.0000 18397.0000,17360.0000 L 4468.0000,17360.0000 C 4024.0000,17360.0000 3664.0000,17002.0000 3664.0000,16560.0000 L 3664.0000,13360.0000 Z "  fill="#FFFFFF" stroke="none" />
</g>
<g transform="matrix(1.0000 0.0000 0.0000 1.0000 0.0000 0.0000)">
</g>
<g transform="matrix(0.0625 0.0000 0.0000 0.0625 0.0000 0.0000)">
<path d="M 3664.0000,13360.0000 C 3664.0000,12920.0000 4024.0000,12560.0000 4468.0000,12560.0000 L 18397.0000,12560.0000 C 18841.0000,12560.0000 19200.0000,12920.0000 19200.0000,13360.0000 L 19200.0000,16560.0000 C 19200.0000,17002.0000 18841.0000,17360.0000 18397.0000,17360.0000 L 4468.0000,17360.0000 C 4024.0000,17360.0000 3664.0000,17002.0000 3664.0000,16560.0000 L 3664.0000,13360.0000 Z " stroke="#000000" stroke-width="16.0000"  stroke-linecap="butt"  stroke-linejoin="round" fill="none" />
</g>
<g transform="matrix(1.0000 0.0000 0.0000 1.0000 0.0000 0.0000)">
<defs><clipPath id="clip-1649760492"><path d="M 241.0000,871.0000 L 1200.0000,871.0000 L 1200.0000,1052.0000 L 241.0000,1052.0000 L 241.0000,871.0000 Z Z" /></clipPath></defs>
<text  clip-path="url(#clip-1649760492)" font-family="Times New Roman" fill="#000000" style ="white-space:pre;" font-weight="400" text-anchor="start" x="314.0000" y="957.0000" font-size="92.0000" ><![CDATA[N]]></text>
<text  clip-path="url(#clip-1649760492)" font-family="Times New Roman" fill="#000000" style ="white-space:pre;" font-weight="400" text-anchor="start" x="380.0000" y="957.0000" font-size="92.0000" ><![CDATA[R RRC_INACTIVE]]></text>
<text  clip-path="url(#clip-1649760492)" font-family="Times New Roman" fill="#000000" style ="white-space:pre;" font-weight="400" text-anchor="start" x="1126.0000" y="957.0000" font-size="92.0000" ><![CDATA[ ]]></text>
<defs><clipPath id="clip-596516649"><path d="M 824.0000,836.0000 L 845.0000,836.0000 L 845.0000,1023.0000 L 824.0000,1023.0000 L 824.0000,836.0000 Z Z" /></clipPath></defs>
<text  clip-path="url(#clip-596516649)" font-family="Calibri" fill="#000000" style ="white-space:pre;" font-weight="400" text-anchor="start" x="824.0000" y="923.0000" font-size="92.0000" ><![CDATA[   ]]></text>
<text  clip-path="url(#clip-596516649)" font-family="Calibri" fill="#000000" style ="white-space:pre;" font-weight="400" text-anchor="start" x="886.0000" y="923.0000" font-size="92.0000" ><![CDATA[ ]]></text>
<defs><clipPath id="clip-1189641421"><path d="M 899.0000,836.0000 L 920.0000,836.0000 L 920.0000,1023.0000 L 899.0000,1023.0000 L 899.0000,836.0000 Z Z" /></clipPath></defs>
<text  clip-path="url(#clip-1189641421)" font-family="Calibri" fill="#000000" style ="white-space:pre;" font-weight="400" text-anchor="start" x="899.0000" y="923.0000" font-size="92.0000" ><![CDATA[ ]]></text>
<text  clip-path="url(#clip-1189641421)" font-family="Calibri" fill="#000000" style ="white-space:pre;" font-weight="400" text-anchor="start" x="920.0000" y="923.0000" font-size="92.0000" ><![CDATA[ ]]></text>
<defs><clipPath id="clip-1025202362"><path d="M 1066.0000,950.0000 L 1087.0000,950.0000 L 1087.0000,1138.0000 L 1066.0000,1138.0000 L 1066.0000,950.0000 Z Z" /></clipPath></defs>
<text  clip-path="url(#clip-1025202362)" font-family="Calibri" fill="#000000" style ="white-space:pre;" font-weight="400" text-anchor="start" x="1066.0000" y="1037.0000" font-size="92.0000" ><![CDATA[ ]]></text>
<text  clip-path="url(#clip-1025202362)" font-family="Calibri" fill="#000000" style ="white-space:pre;" font-weight="400" text-anchor="start" x="1087.0000" y="1037.0000" font-size="92.0000" ><![CDATA[ ]]></text>
</g>
<g transform="matrix(0.0625 0.0000 0.0000 0.0625 0.0000 0.0000)">
<path d="M 11430.0000,5562.0000 L 11430.0000,11901.0000 L 11298.0000,11901.0000 L 11298.0000,5562.0000 L 11430.0000,5562.0000 Z M 10960.0000,5695.0000 L 11364.0000,4896.0000 L 11760.0000,5695.0000 L 10960.0000,5695.0000 Z M 11760.0000,11768.0000 L 11364.0000,12560.0000 L 10960.0000,11768.0000 L 11760.0000,11768.0000 Z "  fill="#000000" stroke-width="1px" stroke="#000000" />
</g>
<g transform="matrix(1.0000 0.0000 0.0000 1.0000 0.0000 0.0000)">
</g>
<g transform="matrix(0.0625 0.0000 0.0000 0.0625 0.0000 0.0000)">
<path d="M 11430.0000,5562.0000 L 11430.0000,11901.0000 L 11298.0000,11901.0000 L 11298.0000,5562.0000 L 11430.0000,5562.0000 Z" stroke="#000000" stroke-width="16.0000"  stroke-linecap="butt"  stroke-linejoin="round" fill="none" />
<path d="M 10960.0000,5695.0000 L 11364.0000,4896.0000 L 11760.0000,5695.0000 L 10960.0000,5695.0000 " stroke="#000000" stroke-width="16.0000"  stroke-linecap="butt"  stroke-linejoin="round" fill="none" />
<path d="M 11760.0000,11768.0000 L 11364.0000,12560.0000 L 10960.0000,11768.0000 L 11760.0000,11768.0000 " stroke="#000000" stroke-width="16.0000"  stroke-linecap="butt"  stroke-linejoin="round" fill="none" />
</g>
<g transform="matrix(1.0000 0.0000 0.0000 1.0000 0.0000 0.0000)">
</g>
<g transform="matrix(0.0625 0.0000 0.0000 0.0625 0.0000 0.0000)">
<path d="M 11430.0000,17360.0000 L 11430.0000,26262.0000 L 11298.0000,26262.0000 L 11298.0000,17360.0000 L 11430.0000,17360.0000 Z M 11760.0000,26129.0000 L 11364.0000,26928.0000 L 10960.0000,26129.0000 L 11760.0000,26129.0000 Z "  fill="#000000" stroke-width="1px" stroke="#000000" />
</g>
<g transform="matrix(1.0000 0.0000 0.0000 1.0000 0.0000 0.0000)">
</g>
<g transform="matrix(0.0625 0.0000 0.0000 0.0625 0.0000 0.0000)">
<path d="M 11430.0000,17360.0000 L 11430.0000,26262.0000 L 11298.0000,26262.0000 L 11298.0000,17360.0000 L 11430.0000,17360.0000 Z" stroke="#000000" stroke-width="16.0000"  stroke-linecap="butt"  stroke-linejoin="round" fill="none" />
<path d="M 11760.0000,26129.0000 L 11364.0000,26928.0000 L 10960.0000,26129.0000 L 11760.0000,26129.0000 " stroke="#000000" stroke-width="16.0000"  stroke-linecap="butt"  stroke-linejoin="round" fill="none" />
</g>
<g transform="matrix(1.0000 0.0000 0.0000 1.0000 0.0000 0.0000)">
<defs><clipPath id="clip-1350490027"><path d="M 736.0000,1310.0000 L 1200.0000,1310.0000 L 1200.0000,1490.0000 L 736.0000,1490.0000 L 736.0000,1310.0000 Z Z" /></clipPath></defs>
<text  clip-path="url(#clip-1350490027)" font-family="Times New Roman" fill="#000000" style ="white-space:pre;" font-weight="400" text-anchor="start" x="736.0000" y="1396.0000" font-size="92.0000" ><![CDATA[Release]]></text>
<text  clip-path="url(#clip-1350490027)" font-family="Times New Roman" fill="#000000" style ="white-space:pre;" font-weight="400" text-anchor="start" x="1022.0000" y="1396.0000" font-size="92.0000" ><![CDATA[ ]]></text>
<text  clip-path="url(#clip-1350490027)" font-family="Times New Roman" fill="#000000" style ="white-space:pre;" font-weight="400" text-anchor="start" x="1044.0000" y="1396.0000" font-size="92.0000" ><![CDATA[ ]]></text>
<defs><clipPath id="clip-783368690"><path d="M 0.0000,412.0000 L 755.0000,412.0000 L 755.0000,706.0000 L 0.0000,706.0000 L 0.0000,412.0000 Z Z" /></clipPath></defs>
<text  clip-path="url(#clip-783368690)" font-family="Times New Roman" fill="#000000" style ="white-space:pre;" font-weight="400" text-anchor="start" x="0.0000" y="498.0000" font-size="92.0000" ><![CDATA[Resume / ]]></text>
<text  clip-path="url(#clip-783368690)" font-family="Times New Roman" fill="#000000" style ="white-space:pre;" font-weight="400" text-anchor="start" x="367.0000" y="498.0000" font-size="92.0000" ><![CDATA[Release ]]></text>
<text  clip-path="url(#clip-783368690)" font-family="Times New Roman" fill="#000000" style ="white-space:pre;" font-weight="400" text-anchor="start" x="0.0000" y="611.0000" font-size="92.0000" ><![CDATA[with ]]></text>
<text  clip-path="url(#clip-783368690)" font-family="Times New Roman" fill="#000000" style ="white-space:pre;" font-weight="400" text-anchor="start" x="187.0000" y="611.0000" font-size="92.0000" ><![CDATA[Suspend]]></text>
<text  clip-path="url(#clip-783368690)" font-family="Times New Roman" fill="#000000" style ="white-space:pre;" font-weight="400" text-anchor="start" x="498.0000" y="611.0000" font-size="92.0000" ><![CDATA[ ]]></text>
<text  clip-path="url(#clip-783368690)" font-family="Times New Roman" fill="#000000" style ="white-space:pre;" font-weight="400" text-anchor="start" x="520.0000" y="611.0000" font-size="92.0000" ><![CDATA[ ]]></text>
</g>
</g>
</svg>
