<?xml version="1.0"  encoding="UTF-8" standalone="no"?>
<svg version="1.1" xmlns="http://www.w3.org/2000/svg" xmlns:xlink="http://www.w3.org/1999/xlink" width="2917.0000" height="1083.0000">
<g transform="translate(34.0000, 28.0000)">
<text font-family="Times New Roman" fill="#000000" style ="white-space:pre;" font-weight="400" text-anchor="start" x="0.0000" y="330.0000" font-size="100.0000" ><![CDATA[ ]]></text>
<g transform="matrix(0.1250 0.0000 0.0000 0.1250 0.0000 0.0000)">
<path d="M 3060.0000,5993.0000 L 3060.0000,7393.0000 L 19193.0000,7393.0000 L 19193.0000,5993.0000 L 3060.0000,5993.0000 Z" stroke-width="1px" stroke="#FFFFFF"  fill="#FFFFFF" />
</g>
<g transform="matrix(1.0000 0.0000 0.0000 1.0000 0.0000 0.0000)">
<defs><clipPath id="clip-1804289383"><path d="M 383.0000,780.0000 L 2399.0000,780.0000 L 2399.0000,894.0000 L 383.0000,894.0000 L 383.0000,780.0000 Z Z" /></clipPath></defs>
<text  clip-path="url(#clip-1804289383)" font-family="Times New Roman" fill="#000000" font-style="italic" style ="white-space:pre;" font-weight="400" text-anchor="start" x="891.0000" y="873.0000" font-size="100.0000" ><![CDATA[M]]></text>
<text  clip-path="url(#clip-1804289383)" font-family="Times New Roman" fill="#000000" font-style="italic" style ="white-space:pre;" font-weight="400" text-anchor="start" x="974.0000" y="873.0000" font-size="100.0000" ><![CDATA[CG]]></text>
<text  clip-path="url(#clip-1804289383)" font-family="Times New Roman" fill="#000000" font-style="italic" style ="white-space:pre;" font-weight="400" text-anchor="start" x="1113.0000" y="873.0000" font-size="100.0000" ><![CDATA[Failure]]></text>
<text  clip-path="url(#clip-1804289383)" font-family="Times New Roman" fill="#000000" font-style="italic" style ="white-space:pre;" font-weight="400" text-anchor="start" x="1413.0000" y="873.0000" font-size="100.0000" ><![CDATA[In]]></text>
<text  clip-path="url(#clip-1804289383)" font-family="Times New Roman" fill="#000000" font-style="italic" style ="white-space:pre;" font-weight="400" text-anchor="start" x="1496.0000" y="873.0000" font-size="100.0000" ><![CDATA[formation]]></text>
<text  clip-path="url(#clip-1804289383)" font-family="Times New Roman" fill="#000000" font-style="italic" style ="white-space:pre;" font-weight="400" text-anchor="start" x="1891.0000" y="873.0000" font-size="100.0000" ><![CDATA[ ]]></text>
</g>
<g transform="matrix(0.0625 0.0000 0.0000 0.0625 0.0000 0.0000)">
<path d="M -14.0000,86.0000 L -14.0000,3686.0000 L 11986.0000,3686.0000 L 11986.0000,86.0000 L -14.0000,86.0000 Z" stroke-width="1px" stroke="#FFFFFF"  fill="#FFFFFF" />
</g>
<g transform="matrix(1.0000 0.0000 0.0000 1.0000 0.0000 0.0000)">
</g>
<g transform="matrix(0.0625 0.0000 0.0000 0.0625 0.0000 0.0000)">
<path d="M -14.0000,86.0000 L -14.0000,3686.0000 L 11986.0000,3686.0000 L 11986.0000,86.0000 Z" stroke="#000000" stroke-width="100.0000"  stroke-linecap="round"  stroke-linejoin="miter"  stroke-miterlimit="8.0000" fill="none" />
</g>
<g transform="matrix(1.0000 0.0000 0.0000 1.0000 0.0000 0.0000)">
<defs><clipPath id="clip-846930886"><path d="M 3.0000,39.0000 L 746.0000,39.0000 L 746.0000,198.0000 L 3.0000,198.0000 L 3.0000,39.0000 Z Z" /></clipPath></defs>
<text  clip-path="url(#clip-846930886)" font-family="Times New Roman" fill="#000000" style ="white-space:pre;" font-weight="400" text-anchor="start" x="308.0000" y="132.0000" font-size="100.0000" ><![CDATA[UE]]></text>
<text  clip-path="url(#clip-846930886)" font-family="Times New Roman" fill="#000000" style ="white-space:pre;" font-weight="400" text-anchor="start" x="441.0000" y="132.0000" font-size="100.0000" ><![CDATA[ ]]></text>
</g>
<g transform="matrix(0.1250 0.0000 0.0000 0.1250 0.0000 0.0000)">
<path d="M 16793.0000,43.0000 L 16793.0000,1843.0000 L 22793.0000,1843.0000 L 22793.0000,43.0000 L 16793.0000,43.0000 Z" stroke-width="1px" stroke="#FFFFFF"  fill="#FFFFFF" />
</g>
<g transform="matrix(1.0000 0.0000 0.0000 1.0000 0.0000 0.0000)">
</g>
<g transform="matrix(0.1250 0.0000 0.0000 0.1250 0.0000 0.0000)">
<path d="M 16793.0000,43.0000 L 16793.0000,1843.0000 L 22793.0000,1843.0000 L 22793.0000,43.0000 Z" stroke="#000000" stroke-width="50.0000"  stroke-linecap="round"  stroke-linejoin="miter"  stroke-miterlimit="8.0000" fill="none" />
</g>
<g transform="matrix(1.0000 0.0000 0.0000 1.0000 0.0000 0.0000)">
<defs><clipPath id="clip-1681692777"><path d="M 2103.0000,39.0000 L 2846.0000,39.0000 L 2846.0000,198.0000 L 2103.0000,198.0000 L 2103.0000,39.0000 Z Z" /></clipPath></defs>
<text  clip-path="url(#clip-1681692777)" font-family="Times New Roman" fill="#000000" style ="white-space:pre;" font-weight="400" text-anchor="start" x="2300.0000" y="132.0000" font-size="100.0000" ><![CDATA[Network]]></text>
<text  clip-path="url(#clip-1681692777)" font-family="Times New Roman" fill="#000000" style ="white-space:pre;" font-weight="400" text-anchor="start" x="2650.0000" y="132.0000" font-size="100.0000" ><![CDATA[ ]]></text>
</g>
<g transform="matrix(0.1250 0.0000 0.0000 0.1250 0.0000 0.0000)">
<path d="M 2993.0000,7160.0000 L 19393.0000,7160.0000 L 19393.0000,7226.0000 L 2993.0000,7226.0000 L 2993.0000,7160.0000 Z M 19326.0000,6993.0000 L 19726.0000,7193.0000 L 19326.0000,7393.0000 L 19326.0000,6993.0000 Z "  fill="#000000" stroke="#000000" stroke-width="8.0000"  stroke-linecap="butt"  stroke-linejoin="bevel" />
</g>
<g transform="matrix(1.0000 0.0000 0.0000 1.0000 0.0000 0.0000)">
</g>
<g transform="matrix(0.0625 0.0000 0.0000 0.0625 0.0000 0.0000)">
<path d="M 5986.0000,3686.0000 L 5986.0000,16786.0000 " stroke="#000000" stroke-width="100.0000"  stroke-linecap="butt"  stroke-linejoin="round" fill="none" />
</g>
<g transform="matrix(1.0000 0.0000 0.0000 1.0000 0.0000 0.0000)">
</g>
<g transform="matrix(0.1250 0.0000 0.0000 0.1250 0.0000 0.0000)">
<path d="M 19726.0000,1843.0000 L 19726.0000,8393.0000 " stroke="#000000" stroke-width="50.0000"  stroke-linecap="butt"  stroke-linejoin="round" fill="none" />
</g>
<g transform="matrix(1.0000 0.0000 0.0000 1.0000 0.0000 0.0000)">
<defs><clipPath id="clip-1714636915"><path d="M 375.0000,475.0000 L 2399.0000,475.0000 L 2399.0000,704.0000 L 375.0000,704.0000 L 375.0000,475.0000 Z Z" /></clipPath></defs>
<text  clip-path="url(#clip-1714636915)" font-family="Times New Roman" fill="#000000" style ="white-space:pre;" font-weight="400" text-anchor="start" x="966.0000" y="568.0000" font-size="100.0000" ><![CDATA[RRC]]></text>
<text  clip-path="url(#clip-1714636915)" font-family="Times New Roman" fill="#000000" style ="white-space:pre;" font-weight="400" text-anchor="start" x="1167.0000" y="568.0000" font-size="100.0000" ><![CDATA[ ]]></text>
<text  clip-path="url(#clip-1714636915)" font-family="Times New Roman" fill="#000000" style ="white-space:pre;" font-weight="400" text-anchor="start" x="1192.0000" y="568.0000" font-size="100.0000" ><![CDATA[r]]></text>
<text  clip-path="url(#clip-1714636915)" font-family="Times New Roman" fill="#000000" style ="white-space:pre;" font-weight="400" text-anchor="start" x="1225.0000" y="568.0000" font-size="100.0000" ><![CDATA[e]]></text>
<text  clip-path="url(#clip-1714636915)" font-family="Times New Roman" fill="#000000" style ="white-space:pre;" font-weight="400" text-anchor="start" x="1269.0000" y="568.0000" font-size="100.0000" ><![CDATA[configuration]]></text>
<text  clip-path="url(#clip-1714636915)" font-family="Times New Roman" fill="#000000" style ="white-space:pre;" font-weight="400" text-anchor="start" x="1808.0000" y="568.0000" font-size="100.0000" ><![CDATA[ ]]></text>
<text  clip-path="url(#clip-1714636915)" font-family="Times New Roman" fill="#000000" style ="white-space:pre;" font-weight="400" text-anchor="start" x="1387.0000" y="683.0000" font-size="100.0000" ><![CDATA[ ]]></text>
</g>
<g transform="matrix(0.1250 0.0000 0.0000 0.1250 0.0000 0.0000)">
<path d="M 3493.0000,4693.0000 L 19227.0000,4693.0000 L 19227.0000,4760.0000 L 3493.0000,4760.0000 L 3493.0000,4693.0000 Z M 3493.0000,4826.0000 L 19227.0000,4826.0000 L 19227.0000,4893.0000 L 3493.0000,4893.0000 L 3493.0000,4826.0000 Z M 3593.0000,5093.0000 L 2993.0000,4793.0000 L 3593.0000,4493.0000 L 3593.0000,5093.0000 Z M 19126.0000,4493.0000 L 19726.0000,4793.0000 L 19126.0000,5093.0000 L 19126.0000,4493.0000 Z "  fill="#000000" stroke="#000000" stroke-width="8.0000"  stroke-linecap="butt"  stroke-linejoin="bevel" />
</g>
<g transform="matrix(1.0000 0.0000 0.0000 1.0000 0.0000 0.0000)">
</g>
</g>
</svg>
