<?xml version="1.0"  encoding="UTF-8" standalone="no"?>
<svg version="1.1" xmlns="http://www.w3.org/2000/svg" xmlns:xlink="http://www.w3.org/1999/xlink" width="826.0000" height="88.0000">
<g transform="translate(-0.0000, -15.0000)">
<g transform="matrix(0.0625 0.0000 0.0000 0.0625 0.0000 0.0000)">
<path d="M 8340.0000,948.0000 L 4568.0000,948.0000 " stroke="#000000" stroke-width="32.0000"  stroke-linecap="round"  stroke-linejoin="round" fill="none" />
</g>
<g transform="matrix(1.0000 0.0000 0.0000 1.0000 0.0000 0.0000)">
</g>
<g transform="matrix(0.0625 0.0000 0.0000 0.0625 0.0000 0.0000)">
<path d="M 8312.0000,835.0000 L 8650.0000,948.0000 L 8312.0000,1060.0000 L 8312.0000,835.0000 Z" stroke-width="1px" stroke="#000000"  fill="#000000" />
</g>
<g transform="matrix(1.0000 0.0000 0.0000 1.0000 0.0000 0.0000)">
</g>
<g transform="matrix(1.0000 0.0000 0.0000 1.0000 413.5131 66.8933)">
<text font-family="Calibri" fill="#000000" style ="white-space:pre;" font-weight="400" text-anchor="start" x="0.0000" y="0.0000" font-size="24.0000" ><![CDATA[ ]]></text>
</g>
<g transform="matrix(0.0625 0.0000 0.0000 0.0625 0.0000 0.0000)">
<path d="M 486.0000,1628.0000 L 4114.0000,1628.0000 C 4365.0000,1628.0000 4568.0000,1425.0000 4568.0000,1174.0000 L 4568.0000,721.0000 C 4568.0000,470.0000 4365.0000,267.0000 4114.0000,267.0000 L 486.0000,267.0000 C 235.0000,267.0000 32.0000,470.0000 32.0000,721.0000 L 32.0000,1174.0000 C 32.0000,1425.0000 235.0000,1628.0000 486.0000,1628.0000 Z "  fill="#FFFFFF" stroke="none" />
</g>
<g transform="matrix(1.0000 0.0000 0.0000 1.0000 0.0000 0.0000)">
<defs><clipPath id="clip-1804289383"><path d="M 0.0000,0.0000 L 827.0000,0.0000 L 827.0000,104.0000 L 0.0000,104.0000 L 0.0000,0.0000 Z Z" /></clipPath></defs>
</g>
<g transform="matrix(0.0625 0.0000 0.0000 0.0625 0.0000 0.0000)">
<path d="M 486.0000,1628.0000 L 4114.0000,1628.0000 C 4365.0000,1628.0000 4568.0000,1425.0000 4568.0000,1174.0000 L 4568.0000,721.0000 C 4568.0000,470.0000 4365.0000,267.0000 4114.0000,267.0000 L 486.0000,267.0000 C 235.0000,267.0000 32.0000,470.0000 32.0000,721.0000 L 32.0000,1174.0000 C 32.0000,1425.0000 235.0000,1628.0000 486.0000,1628.0000 Z " stroke="#000000" stroke-width="8.0000"  stroke-linecap="round"  stroke-linejoin="round" fill="none" />
</g>
<g transform="matrix(1.0000 0.0000 0.0000 1.0000 0.0000 0.0000)">
</g>
<g transform="matrix(1.0000 0.0000 0.0000 1.0000 128.9411 53.0930)">
<text font-family="Times New Roman" fill="#000000" style ="white-space:pre;" font-weight="400" text-anchor="start" x="0.0000" y="0.0000" font-size="22.0000" ><![CDATA[NR]]></text>
</g>
<g transform="matrix(1.0000 0.0000 0.0000 1.0000 50.1037 79.4932)">
<text font-family="Times New Roman" fill="#000000" style ="white-space:pre;" font-weight="400" text-anchor="start" x="0.0000" y="0.0000" font-size="22.0000" ><![CDATA[RRC_CONNECTED]]></text>
</g>
<g transform="matrix(0.0625 0.0000 0.0000 0.0625 0.0000 0.0000)">
<path d="M 9103.0000,1628.0000 L 12732.0000,1628.0000 C 12982.0000,1628.0000 13185.0000,1425.0000 13185.0000,1174.0000 L 13185.0000,721.0000 C 13185.0000,470.0000 12982.0000,267.0000 12732.0000,267.0000 L 9103.0000,267.0000 C 8853.0000,267.0000 8650.0000,470.0000 8650.0000,721.0000 L 8650.0000,1174.0000 C 8650.0000,1425.0000 8853.0000,1628.0000 9103.0000,1628.0000 Z "  fill="#FFFFFF" stroke="none" />
</g>
<g transform="matrix(1.0000 0.0000 0.0000 1.0000 0.0000 0.0000)">
<defs><clipPath id="clip-846930886"><path d="M 0.0000,0.0000 L 827.0000,0.0000 L 827.0000,104.0000 L 0.0000,104.0000 L 0.0000,0.0000 Z Z" /></clipPath></defs>
</g>
<g transform="matrix(0.0625 0.0000 0.0000 0.0625 0.0000 0.0000)">
<path d="M 9103.0000,1628.0000 L 12732.0000,1628.0000 C 12982.0000,1628.0000 13185.0000,1425.0000 13185.0000,1174.0000 L 13185.0000,721.0000 C 13185.0000,470.0000 12982.0000,267.0000 12732.0000,267.0000 L 9103.0000,267.0000 C 8853.0000,267.0000 8650.0000,470.0000 8650.0000,721.0000 L 8650.0000,1174.0000 C 8650.0000,1425.0000 8853.0000,1628.0000 9103.0000,1628.0000 Z " stroke="#000000" stroke-width="8.0000"  stroke-linecap="round"  stroke-linejoin="round" fill="none" />
</g>
<g transform="matrix(1.0000 0.0000 0.0000 1.0000 0.0000 0.0000)">
</g>
<g transform="matrix(1.0000 0.0000 0.0000 1.0000 627.1918 53.0930)">
<text font-family="Times New Roman" fill="#000000" style ="white-space:pre;" font-weight="400" text-anchor="start" x="0.0000" y="0.0000" font-size="22.0000" ><![CDATA[UTRA]]></text>
</g>
<g transform="matrix(1.0000 0.0000 0.0000 1.0000 687.0800 53.0930)">
<text font-family="Times New Roman" fill="#000000" style ="white-space:pre;" font-weight="400" text-anchor="start" x="0.0000" y="0.0000" font-size="22.0000" ><![CDATA[-]]></text>
</g>
<g transform="matrix(1.0000 0.0000 0.0000 1.0000 694.4062 53.0930)">
<text font-family="Times New Roman" fill="#000000" style ="white-space:pre;" font-weight="400" text-anchor="start" x="0.0000" y="0.0000" font-size="22.0000" ><![CDATA[FDD]]></text>
</g>
<g transform="matrix(1.0000 0.0000 0.0000 1.0000 626.5848 79.4932)">
<text font-family="Times New Roman" fill="#000000" style ="white-space:pre;" font-weight="400" text-anchor="start" x="0.0000" y="0.0000" font-size="22.0000" ><![CDATA[CELL_DCH]]></text>
</g>
<g transform="matrix(1.0000 0.0000 0.0000 1.0000 365.7764 38.5468)">
<text font-family="Calibri" fill="#000000" style ="white-space:pre;" font-weight="400" text-anchor="start" x="0.0000" y="0.0000" font-size="24.0000" ><![CDATA[Handover]]></text>
</g>
</g>
</svg>
