<?xml version="1.0" encoding="UTF-8" standalone="no"?>
<!DOCTYPE svg PUBLIC "-//W3C//DTD SVG 1.0//EN" "http://www.w3.org/TR/2001/REC-SVG-20010904/DTD/svg10.dtd">
<svg xmlns="http://www.w3.org/2000/svg" xmlns:xlink="http://www.w3.org/1999/xlink" fill-rule="evenodd" height="1.0810810810810811in" preserveAspectRatio="none" stroke-linecap="round" viewBox="0 0 1970 1080" width="1.971971971971972in">
    <style type="text/css">
.brush0 { fill: rgb(255,255,255); }
.pen0 { stroke: rgb(0,0,0); stroke-width: 1; stroke-linejoin: round; }
.pen1 { stroke: none; }
.pen2 { stroke: rgb(0,0,0); stroke-width: 10; stroke-linejoin: round; }
.font0 { font-weight: bold; font-size: 125px; font-family: Arial; }
.font1 { font-style: italic; font-size: 150px; font-family: Times; }
.brush1 { fill: rgb(0,0,0); }
</style>
    <g>
        <path class="pen1 brush0" d="M 0,0  L 10,0 10,10 0,10 0,0 z" fill-rule="nonzero"/>
        <path class="pen1 brush0" d="M 1960,1070  L 1970,1070 1970,1080 1960,1080 1960,1070 z" fill-rule="nonzero"/>
    </g>
    <g>
        <polyline class="pen2" fill="none" points="530,-70 310,-70 310,1190 90,1190"/>
    </g>
    <g>
        <polyline class="pen2" fill="none" points="1690,-70 1470,-70 1470,1190 1250,1190"/>
    </g>
    <g>
        <path class="pen1 brush0" d="M 185,45  L 435,45 435,255 185,255 185,45 z" fill-rule="nonzero"/>
        <polyline class="pen2" fill="none" points="185,45 435,45 435,255 185,255 185,45"/>
    </g>
    <g>
        <text class="font0" fill="rgb(0,0,0)" stroke="none" style="dominant-baseline: alphabetic;" x="213" xml:space="preserve" y="200">U</text>
    </g>
    <g>
        <text class="font0" fill="rgb(0,0,0)" stroke="none" style="dominant-baseline: alphabetic;" x="314" xml:space="preserve" y="200">E</text>
    </g>
    <g>
        <path class="pen1 brush0" d="M 1165,45  L 1775,45 1775,255 1165,255 1165,45 z" fill-rule="nonzero"/>
        <polyline class="pen2" fill="none" points="1165,45 1775,45 1775,255 1165,255 1165,45"/>
    </g>
    <g>
        <text class="font0" fill="rgb(0,0,0)" stroke="none" style="dominant-baseline: alphabetic;" x="1194" xml:space="preserve" y="200">N</text>
    </g>
    <g>
        <text class="font0" fill="rgb(0,0,0)" stroke="none" style="dominant-baseline: alphabetic;" x="1295" xml:space="preserve" y="200">e</text>
    </g>
    <g>
        <text class="font0" fill="rgb(0,0,0)" stroke="none" style="dominant-baseline: alphabetic;" x="1373" xml:space="preserve" y="200">t</text>
    </g>
    <g>
        <text class="font0" fill="rgb(0,0,0)" stroke="none" style="dominant-baseline: alphabetic;" x="1419" xml:space="preserve" y="200">w</text>
    </g>
    <g>
        <text class="font0" fill="rgb(0,0,0)" stroke="none" style="dominant-baseline: alphabetic;" x="1528" xml:space="preserve" y="200">o</text>
    </g>
    <g>
        <text class="font0" fill="rgb(0,0,0)" stroke="none" style="dominant-baseline: alphabetic;" x="1614" xml:space="preserve" y="200">r</text>
    </g>
    <g>
        <text class="font0" fill="rgb(0,0,0)" stroke="none" style="dominant-baseline: alphabetic;" x="1668" xml:space="preserve" y="200">k</text>
    </g>
    <g>
        <text class="font1" fill="rgb(0,0,0)" stroke="none" style="dominant-baseline: alphabetic;" x="515" xml:space="preserve" y="690">R</text>
    </g>
    <g>
        <text class="font1" fill="rgb(0,0,0)" stroke="none" style="dominant-baseline: alphabetic;" x="607" xml:space="preserve" y="690">R</text>
    </g>
    <g>
        <text class="font1" fill="rgb(0,0,0)" stroke="none" style="dominant-baseline: alphabetic;" x="698" xml:space="preserve" y="690">C</text>
    </g>
    <g>
        <text class="font1" fill="rgb(0,0,0)" stroke="none" style="dominant-baseline: alphabetic;" x="798" xml:space="preserve" y="690">R</text>
    </g>
    <g>
        <text class="font1" fill="rgb(0,0,0)" stroke="none" style="dominant-baseline: alphabetic;" x="890" xml:space="preserve" y="690">e</text>
    </g>
    <g>
        <text class="font1" fill="rgb(0,0,0)" stroke="none" style="dominant-baseline: alphabetic;" x="957" xml:space="preserve" y="690">l</text>
    </g>
    <g>
        <text class="font1" fill="rgb(0,0,0)" stroke="none" style="dominant-baseline: alphabetic;" x="998" xml:space="preserve" y="690">e</text>
    </g>
    <g>
        <text class="font1" fill="rgb(0,0,0)" stroke="none" style="dominant-baseline: alphabetic;" x="1065" xml:space="preserve" y="690">a</text>
    </g>
    <g>
        <text class="font1" fill="rgb(0,0,0)" stroke="none" style="dominant-baseline: alphabetic;" x="1140" xml:space="preserve" y="690">s</text>
    </g>
    <g>
        <text class="font1" fill="rgb(0,0,0)" stroke="none" style="dominant-baseline: alphabetic;" x="1198" xml:space="preserve" y="690">e</text>
    </g>
    <g>
        <polyline class="pen2" fill="none" points="427,745 1465,745"/>
    </g>
    <g>
        <path class="pen1 brush1" d="M 427,685  L 315,685 315,805 427,805 427,685 z" fill-rule="nonzero"/>
    </g>
    <g/>
</svg>
