<?xml version="1.0"  encoding="UTF-8" standalone="no"?>
<svg version="1.1" xmlns="http://www.w3.org/2000/svg" xmlns:xlink="http://www.w3.org/1999/xlink" width="527.0000" height="143.0000">
<g transform="translate(11.0000, 11.0000)">
<g transform="matrix(0.0625 0.0000 0.0000 0.0625 0.0000 0.0000)">
<path d="M 976.0000,1152.0000 L 976.0000,1600.0000 L 7104.0000,1600.0000 L 7104.0000,1152.0000 L 976.0000,1152.0000 Z" stroke-width="1px" stroke="#FFFFFF"  fill="#FFFFFF" />
</g>
<g transform="matrix(1.0000 0.0000 0.0000 1.0000 0.0000 0.0000)">
</g>
<g transform="matrix(0.0667 0.0000 0.0000 0.0667 -143.0000 -527.0000)">
</g>
<g transform="matrix(0.0667 0.0000 0.0000 0.0667 -143.0000 -527.0000)">
<text font-family="Times New Roman" fill="#000000" font-style="italic" style ="white-space:pre;" text-anchor="start" x="5880.0000" y="9285.0000" font-size="240.0000" ><![CDATA[ULInformationTransferIRAT]]></text>
</g>
<g transform="matrix(0.0625 0.0000 0.0000 0.0625 0.0000 0.0000)">
<path d="M 16.0000,16.0000 L 16.0000,592.0000 L 1936.0000,592.0000 L 1936.0000,16.0000 L 16.0000,16.0000 Z" stroke-width="1px" stroke="#FFFFFF"  fill="#FFFFFF" />
</g>
<g transform="matrix(1.0000 0.0000 0.0000 1.0000 0.0000 0.0000)">
</g>
<g transform="matrix(0.0625 0.0000 0.0000 0.0625 0.0000 0.0000)">
<path d="M 22.0000,16.0000 L 22.0000,592.0000 L 1942.0000,592.0000 L 1942.0000,16.0000 L 22.0000,16.0000 Z" stroke="#000000" stroke-width="16.0000"  stroke-linecap="butt"  stroke-linejoin="miter"  stroke-miterlimit="8.0000" fill="none" />
</g>
<g transform="matrix(1.0000 0.0000 0.0000 1.0000 0.0000 0.0000)">
</g>
<g transform="matrix(0.0667 0.0000 0.0000 0.0667 -143.0000 -527.0000)">
</g>
<g transform="matrix(0.0667 0.0000 0.0000 0.0667 -143.0000 -527.0000)">
<text font-family="Times New Roman" fill="#000000" style ="white-space:pre;" text-anchor="start" x="2910.0000" y="8220.0000" font-size="240.0000" ><![CDATA[UE]]></text>
</g>
<g transform="matrix(0.0625 0.0000 0.0000 0.0625 0.0000 0.0000)">
<path d="M 6144.0000,16.0000 L 6144.0000,592.0000 L 8064.0000,592.0000 L 8064.0000,16.0000 L 6144.0000,16.0000 Z" stroke-width="1px" stroke="#FFFFFF"  fill="#FFFFFF" />
</g>
<g transform="matrix(1.0000 0.0000 0.0000 1.0000 0.0000 0.0000)">
</g>
<g transform="matrix(0.0625 0.0000 0.0000 0.0625 0.0000 0.0000)">
<path d="M 6144.0000,16.0000 L 6144.0000,592.0000 L 8064.0000,592.0000 L 8064.0000,16.0000 L 6144.0000,16.0000 Z" stroke="#000000" stroke-width="16.0000"  stroke-linecap="butt"  stroke-linejoin="miter"  stroke-miterlimit="8.0000" fill="none" />
</g>
<g transform="matrix(1.0000 0.0000 0.0000 1.0000 0.0000 0.0000)">
</g>
<g transform="matrix(0.0667 0.0000 0.0000 0.0667 -143.0000 -527.0000)">
</g>
<g transform="matrix(0.0667 0.0000 0.0000 0.0667 -143.0000 -527.0000)">
<text font-family="Times New Roman" fill="#000000" style ="white-space:pre;" text-anchor="start" x="8640.0000" y="8220.0000" font-size="240.0000" ><![CDATA[NR]]></text>
</g>
<g transform="matrix(0.0625 0.0000 0.0000 0.0625 0.0000 0.0000)">
<path d="M 6976.0000,1600.0000 L 6976.0000,1536.0000 L 6976.0000,1472.0000 L 7104.0000,1536.0000 L 6976.0000,1600.0000 Z M 960.0000,1528.0000 L 7008.0000,1528.0000 L 7008.0000,1528.0000 L 7008.0000,1544.0000 L 7008.0000,1544.0000 L 960.0000,1544.0000 L 960.0000,1544.0000 L 960.0000,1528.0000 Z "  fill="#000000" stroke-width="1px" stroke="#000000" />
</g>
<g transform="matrix(1.0000 0.0000 0.0000 1.0000 0.0000 0.0000)">
</g>
<g transform="matrix(0.0625 0.0000 0.0000 0.0625 0.0000 0.0000)">
<path d="M 982.0000,592.0000 L 982.0000,1920.0000 " stroke="#000000" stroke-width="16.0000"  stroke-linecap="butt"  stroke-linejoin="miter"  stroke-miterlimit="8.0000" fill="none" />
</g>
<g transform="matrix(1.0000 0.0000 0.0000 1.0000 0.0000 0.0000)">
</g>
<g transform="matrix(0.0625 0.0000 0.0000 0.0625 0.0000 0.0000)">
<path d="M 7104.0000,592.0000 L 7104.0000,1920.0000 " stroke="#000000" stroke-width="16.0000"  stroke-linecap="butt"  stroke-linejoin="miter"  stroke-miterlimit="8.0000" fill="none" />
</g>
<g transform="matrix(1.0000 0.0000 0.0000 1.0000 0.0000 0.0000)">
</g>
</g>
</svg>
