<?xml version="1.0"  encoding="UTF-8" standalone="no"?>
<svg version="1.1" xmlns="http://www.w3.org/2000/svg" xmlns:xlink="http://www.w3.org/1999/xlink" width="1612.0000" height="374.0000">
<g transform="translate(17.0000, 19.0000)">
<text font-family="Times New Roman" fill="#000000" style ="white-space:pre;" font-weight="400" text-anchor="start" x="0.0000" y="164.0000" font-size="50.0000" ><![CDATA[ ]]></text>
<g transform="matrix(0.0625 0.0000 0.0000 0.0625 0.0000 0.0000)">
<path d="M 3056.0000,3139.0000 L 3056.0000,4539.0000 L 22189.0000,4539.0000 L 22189.0000,3139.0000 L 3056.0000,3139.0000 Z" stroke-width="1px" stroke="#FFFFFF"  fill="#FFFFFF" />
</g>
<g transform="matrix(1.0000 0.0000 0.0000 1.0000 0.0000 0.0000)">
<defs><clipPath id="clip-1804289383"><path d="M 192.0000,212.0000 L 1387.0000,212.0000 L 1387.0000,269.0000 L 192.0000,269.0000 L 192.0000,212.0000 Z Z" /></clipPath></defs>
<text  clip-path="url(#clip-1804289383)" font-family="Times New Roman" fill="#000000" font-style="italic" style ="white-space:pre;" font-weight="400" text-anchor="start" x="222.0000" y="257.0000" font-size="50.0000" ><![CDATA[LoggedMeasurement]]></text>
<text  clip-path="url(#clip-1804289383)" font-family="Times New Roman" fill="#000000" font-style="italic" style ="white-space:pre;" font-weight="400" text-anchor="start" x="643.0000" y="257.0000" font-size="50.0000" ><![CDATA[Configuration]]></text>
<text  clip-path="url(#clip-1804289383)" font-family="Times New Roman" fill="#000000" font-style="italic" style ="white-space:pre;" font-weight="400" text-anchor="start" x="927.0000" y="257.0000" font-size="50.0000" ><![CDATA[ ]]></text>
</g>
<g transform="matrix(0.0625 0.0000 0.0000 0.0625 0.0000 0.0000)">
<path d="M 56.0000,39.0000 L 56.0000,1839.0000 L 6056.0000,1839.0000 L 6056.0000,39.0000 L 56.0000,39.0000 Z" stroke-width="1px" stroke="#FFFFFF"  fill="#FFFFFF" />
</g>
<g transform="matrix(1.0000 0.0000 0.0000 1.0000 0.0000 0.0000)">
</g>
<g transform="matrix(0.0625 0.0000 0.0000 0.0625 0.0000 0.0000)">
<path d="M 56.0000,39.0000 L 56.0000,1839.0000 L 6056.0000,1839.0000 L 6056.0000,39.0000 Z" stroke="#000000" stroke-width="50.0000"  stroke-linecap="round"  stroke-linejoin="miter"  stroke-miterlimit="8.0000" fill="none" />
</g>
<g transform="matrix(1.0000 0.0000 0.0000 1.0000 0.0000 0.0000)">
<defs><clipPath id="clip-846930886"><path d="M 6.0000,20.0000 L 377.0000,20.0000 L 377.0000,99.0000 L 6.0000,99.0000 L 6.0000,20.0000 Z Z" /></clipPath></defs>
<text  clip-path="url(#clip-846930886)" font-family="Times New Roman" fill="#000000" style ="white-space:pre;" font-weight="400" text-anchor="start" x="158.0000" y="67.0000" font-size="50.0000" ><![CDATA[UE]]></text>
<text  clip-path="url(#clip-846930886)" font-family="Times New Roman" fill="#000000" style ="white-space:pre;" font-weight="400" text-anchor="start" x="225.0000" y="67.0000" font-size="50.0000" ><![CDATA[ ]]></text>
</g>
<g transform="matrix(0.0625 0.0000 0.0000 0.0625 0.0000 0.0000)">
<path d="M 19189.0000,39.0000 L 19189.0000,1839.0000 L 25189.0000,1839.0000 L 25189.0000,39.0000 L 19189.0000,39.0000 Z" stroke-width="1px" stroke="#FFFFFF"  fill="#FFFFFF" />
</g>
<g transform="matrix(1.0000 0.0000 0.0000 1.0000 0.0000 0.0000)">
</g>
<g transform="matrix(0.0625 0.0000 0.0000 0.0625 0.0000 0.0000)">
<path d="M 19189.0000,39.0000 L 19189.0000,1839.0000 L 25189.0000,1839.0000 L 25189.0000,39.0000 Z" stroke="#000000" stroke-width="50.0000"  stroke-linecap="round"  stroke-linejoin="miter"  stroke-miterlimit="8.0000" fill="none" />
</g>
<g transform="matrix(1.0000 0.0000 0.0000 1.0000 0.0000 0.0000)">
<defs><clipPath id="clip-1681692777"><path d="M 1202.0000,20.0000 L 1573.0000,20.0000 L 1573.0000,99.0000 L 1202.0000,99.0000 L 1202.0000,20.0000 Z Z" /></clipPath></defs>
<text  clip-path="url(#clip-1681692777)" font-family="Times New Roman" fill="#000000" style ="white-space:pre;" font-weight="400" text-anchor="start" x="1300.0000" y="67.0000" font-size="50.0000" ><![CDATA[Network]]></text>
<text  clip-path="url(#clip-1681692777)" font-family="Times New Roman" fill="#000000" style ="white-space:pre;" font-weight="400" text-anchor="start" x="1475.0000" y="67.0000" font-size="50.0000" ><![CDATA[ ]]></text>
</g>
<g transform="matrix(0.0625 0.0000 0.0000 0.0625 0.0000 0.0000)">
<path d="M 3322.0000,4306.0000 L 22189.0000,4306.0000 L 22189.0000,4372.0000 L 3322.0000,4372.0000 L 3322.0000,4306.0000 Z M 3389.0000,4539.0000 L 2989.0000,4339.0000 L 3389.0000,4139.0000 L 3389.0000,4539.0000 Z "  fill="#000000" stroke="#000000" stroke-width="16.0000"  stroke-linecap="butt"  stroke-linejoin="bevel" />
</g>
<g transform="matrix(1.0000 0.0000 0.0000 1.0000 0.0000 0.0000)">
</g>
<g transform="matrix(0.0625 0.0000 0.0000 0.0625 0.0000 0.0000)">
<path d="M 3056.0000,1839.0000 L 3056.0000,5639.0000 " stroke="#000000" stroke-width="50.0000"  stroke-linecap="butt"  stroke-linejoin="round" fill="none" />
</g>
<g transform="matrix(1.0000 0.0000 0.0000 1.0000 0.0000 0.0000)">
</g>
<g transform="matrix(0.0625 0.0000 0.0000 0.0625 0.0000 0.0000)">
<path d="M 22189.0000,1839.0000 L 22189.0000,5639.0000 " stroke="#000000" stroke-width="50.0000"  stroke-linecap="butt"  stroke-linejoin="round" fill="none" />
</g>
<g transform="matrix(1.0000 0.0000 0.0000 1.0000 0.0000 0.0000)">
</g>
</g>
</svg>
