<?xml version="1.0"  encoding="UTF-8" standalone="no"?>
<svg version="1.1" xmlns="http://www.w3.org/2000/svg" xmlns:xlink="http://www.w3.org/1999/xlink" width="1408.0000" height="1136.0000">
<g transform="translate(-25.0000, -31.0000)">
<g transform="matrix(0.0625 0.0000 0.0000 0.0625 0.0000 0.0000)">
<path d="M 3018.0000,3606.0000 L 3018.0000,5165.0000 L 3320.0000,5165.0000 L 2715.0000,5467.0000 L 2111.0000,5165.0000 L 2413.0000,5165.0000 L 2413.0000,3606.0000 L 3018.0000,3606.0000 Z" stroke-width="1px" stroke="#7F7F7F"  fill="#7F7F7F" />
</g>
<g transform="matrix(1.0000 0.0000 0.0000 1.0000 0.0000 0.0000)">
</g>
<g transform="matrix(0.0625 0.0000 0.0000 0.0625 0.0000 0.0000)">
<path d="M 3018.0000,3606.0000 L 3018.0000,5165.0000 L 3320.0000,5165.0000 L 2715.0000,5467.0000 L 2111.0000,5165.0000 L 2413.0000,5165.0000 L 2413.0000,3606.0000 L 3018.0000,3606.0000 Z" stroke="#7F7F7F" stroke-width="5.0000"  stroke-linecap="round"  stroke-linejoin="round" fill="none" />
</g>
<g transform="matrix(1.0000 0.0000 0.0000 1.0000 0.0000 0.0000)">
</g>
<g transform="matrix(0.0625 0.0000 0.0000 0.0625 0.0000 0.0000)">
<path d="M 826.0000,5467.0000 L 826.0000,15022.0000 L 8929.0000,15022.0000 L 8929.0000,5467.0000 L 826.0000,5467.0000 Z" stroke-width="1px" stroke="#BFBFBF"  fill="#BFBFBF" />
</g>
<g transform="matrix(1.0000 0.0000 0.0000 1.0000 0.0000 0.0000)">
</g>
<g transform="matrix(0.0625 0.0000 0.0000 0.0625 0.0000 0.0000)">
<path d="M 826.0000,15022.0000 L 8929.0000,15022.0000 L 8929.0000,5467.0000 L 826.0000,5467.0000 L 826.0000,15022.0000 Z" stroke="#000000" stroke-width="32.0000"  stroke-linecap="round"  stroke-linejoin="round" fill="none" />
</g>
<g transform="matrix(1.0000 0.0000 0.0000 1.0000 0.0000 0.0000)">
</g>
<g transform="matrix(0.0625 0.0000 0.0000 0.0625 0.0000 0.0000)">
<path d="M 5860.0000,10193.0000 L 5860.0000,11403.0000 L 8188.0000,11403.0000 L 8188.0000,10193.0000 L 5860.0000,10193.0000 Z" stroke-width="1px" stroke="#FFFFFF"  fill="#FFFFFF" />
</g>
<g transform="matrix(1.0000 0.0000 0.0000 1.0000 0.0000 0.0000)">
</g>
<g transform="matrix(0.0625 0.0000 0.0000 0.0625 0.0000 0.0000)">
<path d="M 5860.0000,11403.0000 L 8188.0000,11403.0000 L 8188.0000,10193.0000 L 5860.0000,10193.0000 L 5860.0000,11403.0000 Z" stroke="#000000" stroke-width="32.0000"  stroke-linecap="round"  stroke-linejoin="round" fill="none" />
</g>
<g transform="matrix(1.0000 0.0000 0.0000 1.0000 0.0000 0.0000)">
</g>
<g transform="matrix(1.0000 0.0000 0.0000 1.0000 386.1472 668.9513)">
<text font-family="Arial" fill="#000000" style ="white-space:pre;" font-weight="700" text-anchor="start" x="0.0000" y="0.0000" font-size="21.0000" ><![CDATA[Add ]]></text>
</g>
<g transform="matrix(1.0000 0.0000 0.0000 1.0000 433.5429 668.9513)">
<text font-family="Arial" fill="#000000" style ="white-space:pre;" font-weight="700" text-anchor="start" x="0.0000" y="0.0000" font-size="21.0000" ><![CDATA[SRAP]]></text>
</g>
<g transform="matrix(1.0000 0.0000 0.0000 1.0000 492.8134 668.9513)">
<text font-family="Arial" fill="#000000" style ="white-space:pre;" font-weight="700" text-anchor="start" x="0.0000" y="0.0000" font-size="21.0000" ><![CDATA[ ]]></text>
</g>
<g transform="matrix(1.0000 0.0000 0.0000 1.0000 404.5013 694.5513)">
<text font-family="Arial" fill="#000000" style ="white-space:pre;" font-weight="700" text-anchor="start" x="0.0000" y="0.0000" font-size="21.0000" ><![CDATA[header]]></text>
</g>
<g transform="matrix(0.0625 0.0000 0.0000 0.0625 0.0000 0.0000)">
<path d="M 5860.0000,11403.0000 M 1424.0000,4694.0000 C 1424.0000,4518.0000 1983.0000,4375.0000 2673.0000,4375.0000 C 3363.0000,4375.0000 3923.0000,4518.0000 3923.0000,4694.0000 C 3923.0000,4871.0000 3363.0000,5013.0000 2673.0000,5013.0000 C 1983.0000,5013.0000 1424.0000,4871.0000 1424.0000,4694.0000 " stroke="#262626" stroke-width="48.0000"  stroke-linecap="round"  stroke-linejoin="round"  fill="none" />
</g>
<g transform="matrix(1.0000 0.0000 0.0000 1.0000 0.0000 0.0000)">
</g>
<g transform="matrix(0.0625 0.0000 0.0000 0.0625 0.0000 0.0000)">
<path d="M 3923.0000,4694.0000 L 4756.0000,4693.0000 " stroke="#262626" stroke-width="48.0000"  stroke-linecap="round"  stroke-linejoin="round" fill="none" />
</g>
<g transform="matrix(1.0000 0.0000 0.0000 1.0000 0.0000 0.0000)">
</g>
<g transform="matrix(0.0625 0.0000 0.0000 0.0625 0.0000 0.0000)">
<path d="M 1424.0000,4694.0000 L 675.0000,4694.0000 " stroke="#262626" stroke-width="48.0000"  stroke-linecap="round"  stroke-linejoin="round" fill="none" />
</g>
<g transform="matrix(1.0000 0.0000 0.0000 1.0000 0.0000 0.0000)">
</g>
<g transform="matrix(0.0625 0.0000 0.0000 0.0625 0.0000 0.0000)">
<path d="M 675.0000,4694.0000 M 5718.0000,4694.0000 C 5718.0000,4518.0000 6277.0000,4375.0000 6967.0000,4375.0000 C 7657.0000,4375.0000 8216.0000,4518.0000 8216.0000,4694.0000 C 8216.0000,4871.0000 7657.0000,5013.0000 6967.0000,5013.0000 C 6277.0000,5013.0000 5718.0000,4871.0000 5718.0000,4694.0000 " stroke="#262626" stroke-width="48.0000"  stroke-linecap="round"  stroke-linejoin="round"  fill="none" />
</g>
<g transform="matrix(1.0000 0.0000 0.0000 1.0000 0.0000 0.0000)">
</g>
<g transform="matrix(0.0625 0.0000 0.0000 0.0625 0.0000 0.0000)">
<path d="M 8216.0000,4694.0000 L 9050.0000,4693.0000 " stroke="#262626" stroke-width="48.0000"  stroke-linecap="round"  stroke-linejoin="round" fill="none" />
</g>
<g transform="matrix(1.0000 0.0000 0.0000 1.0000 0.0000 0.0000)">
</g>
<g transform="matrix(0.0625 0.0000 0.0000 0.0625 0.0000 0.0000)">
<path d="M 5718.0000,4694.0000 L 4968.0000,4694.0000 " stroke="#262626" stroke-width="48.0000"  stroke-linecap="round"  stroke-linejoin="round" fill="none" />
</g>
<g transform="matrix(1.0000 0.0000 0.0000 1.0000 0.0000 0.0000)">
</g>
<g transform="matrix(0.0625 0.0000 0.0000 0.0625 0.0000 0.0000)">
<path d="M 14277.0000,5480.0000 L 14277.0000,15035.0000 L 22381.0000,15035.0000 L 22381.0000,5480.0000 L 14277.0000,5480.0000 Z" stroke-width="1px" stroke="#BFBFBF"  fill="#BFBFBF" />
</g>
<g transform="matrix(1.0000 0.0000 0.0000 1.0000 0.0000 0.0000)">
</g>
<g transform="matrix(0.0625 0.0000 0.0000 0.0625 0.0000 0.0000)">
<path d="M 14277.0000,15035.0000 L 22381.0000,15035.0000 L 22381.0000,5480.0000 L 14277.0000,5480.0000 L 14277.0000,15035.0000 Z" stroke="#000000" stroke-width="32.0000"  stroke-linecap="round"  stroke-linejoin="round" fill="none" />
</g>
<g transform="matrix(1.0000 0.0000 0.0000 1.0000 0.0000 0.0000)">
</g>
<g transform="matrix(0.0625 0.0000 0.0000 0.0625 0.0000 0.0000)">
<path d="M 11556.0000,17259.0000 L 11556.0000,2443.0000 L 11556.0000,17259.0000 Z" stroke="#000000" stroke-width="5.0000"  stroke-linecap="round"  stroke-linejoin="round" fill="none" />
</g>
<g transform="matrix(1.0000 0.0000 0.0000 1.0000 0.0000 0.0000)">
</g>
<g transform="matrix(0.0625 0.0000 0.0000 0.0625 0.0000 0.0000)">
<path d="M 4558.0000,15022.0000 L 4558.0000,17441.0000 L 5197.0000,17441.0000 L 5197.0000,15022.0000 L 4558.0000,15022.0000 Z" stroke-width="1px" stroke="#7F7F7F"  fill="#7F7F7F" />
</g>
<g transform="matrix(1.0000 0.0000 0.0000 1.0000 0.0000 0.0000)">
</g>
<g transform="matrix(0.0625 0.0000 0.0000 0.0625 0.0000 0.0000)">
<path d="M 4558.0000,15022.0000 L 4558.0000,17441.0000 L 5197.0000,17441.0000 L 5197.0000,15022.0000 L 4558.0000,15022.0000 Z" stroke="#7F7F7F" stroke-width="5.0000"  stroke-linecap="round"  stroke-linejoin="round" fill="none" />
</g>
<g transform="matrix(1.0000 0.0000 0.0000 1.0000 0.0000 0.0000)">
</g>
<g transform="matrix(0.0625 0.0000 0.0000 0.0625 0.0000 0.0000)">
<path d="M 4558.0000,15022.0000 M 3586.0000,15868.0000 C 3586.0000,15692.0000 4145.0000,15549.0000 4835.0000,15549.0000 C 5525.0000,15549.0000 6084.0000,15692.0000 6084.0000,15868.0000 C 6084.0000,16045.0000 5525.0000,16187.0000 4835.0000,16187.0000 C 4145.0000,16187.0000 3586.0000,16045.0000 3586.0000,15868.0000 " stroke="#262626" stroke-width="48.0000"  stroke-linecap="round"  stroke-linejoin="round"  fill="none" />
</g>
<g transform="matrix(1.0000 0.0000 0.0000 1.0000 0.0000 0.0000)">
</g>
<g transform="matrix(0.0625 0.0000 0.0000 0.0625 0.0000 0.0000)">
<path d="M 6084.0000,15868.0000 L 6918.0000,15867.0000 " stroke="#262626" stroke-width="48.0000"  stroke-linecap="round"  stroke-linejoin="round" fill="none" />
</g>
<g transform="matrix(1.0000 0.0000 0.0000 1.0000 0.0000 0.0000)">
</g>
<g transform="matrix(0.0625 0.0000 0.0000 0.0625 0.0000 0.0000)">
<path d="M 3586.0000,15868.0000 L 2836.0000,15868.0000 " stroke="#262626" stroke-width="48.0000"  stroke-linecap="round"  stroke-linejoin="round" fill="none" />
</g>
<g transform="matrix(1.0000 0.0000 0.0000 1.0000 0.0000 0.0000)">
</g>
<g transform="matrix(0.0625 0.0000 0.0000 0.0625 0.0000 0.0000)">
<path d="M 4558.0000,16802.0000 L 4558.0000,17441.0000 L 18635.0000,17441.0000 L 18635.0000,16802.0000 L 4558.0000,16802.0000 Z" stroke-width="1px" stroke="#7F7F7F"  fill="#7F7F7F" />
</g>
<g transform="matrix(1.0000 0.0000 0.0000 1.0000 0.0000 0.0000)">
</g>
<g transform="matrix(0.0625 0.0000 0.0000 0.0625 0.0000 0.0000)">
<path d="M 4558.0000,17441.0000 L 18635.0000,17441.0000 L 18635.0000,16802.0000 L 4558.0000,16802.0000 L 4558.0000,17441.0000 Z" stroke="#7F7F7F" stroke-width="5.0000"  stroke-linecap="round"  stroke-linejoin="round" fill="none" />
</g>
<g transform="matrix(1.0000 0.0000 0.0000 1.0000 0.0000 0.0000)">
</g>
<g transform="matrix(0.0625 0.0000 0.0000 0.0625 0.0000 0.0000)">
<path d="M 4558.0000,17441.0000 M 17038.0000,15882.0000 C 17038.0000,15705.0000 17597.0000,15562.0000 18287.0000,15562.0000 C 18977.0000,15562.0000 19536.0000,15705.0000 19536.0000,15882.0000 C 19536.0000,16058.0000 18977.0000,16201.0000 18287.0000,16201.0000 C 17597.0000,16201.0000 17038.0000,16058.0000 17038.0000,15882.0000 " stroke="#262626" stroke-width="48.0000"  stroke-linecap="round"  stroke-linejoin="round"  fill="none" />
</g>
<g transform="matrix(1.0000 0.0000 0.0000 1.0000 0.0000 0.0000)">
</g>
<g transform="matrix(0.0625 0.0000 0.0000 0.0625 0.0000 0.0000)">
<path d="M 19536.0000,15882.0000 L 20370.0000,15880.0000 " stroke="#262626" stroke-width="48.0000"  stroke-linecap="round"  stroke-linejoin="round" fill="none" />
</g>
<g transform="matrix(1.0000 0.0000 0.0000 1.0000 0.0000 0.0000)">
</g>
<g transform="matrix(0.0625 0.0000 0.0000 0.0625 0.0000 0.0000)">
<path d="M 17038.0000,15882.0000 L 16288.0000,15881.0000 " stroke="#262626" stroke-width="48.0000"  stroke-linecap="round"  stroke-linejoin="round" fill="none" />
</g>
<g transform="matrix(1.0000 0.0000 0.0000 1.0000 0.0000 0.0000)">
</g>
<g transform="matrix(0.0625 0.0000 0.0000 0.0625 0.0000 0.0000)">
<path d="M 8905.0000,17689.0000 L 8905.0000,18644.0000 L 14288.0000,18644.0000 L 14288.0000,17689.0000 L 8905.0000,17689.0000 Z" stroke-width="1px" stroke="#FFFFFF"  fill="#FFFFFF" />
</g>
<g transform="matrix(1.0000 0.0000 0.0000 1.0000 0.0000 0.0000)">
<defs><clipPath id="clip-1804289383"><path d="M 0.0000,0.0000 L 1471.0000,0.0000 L 1471.0000,1168.0000 L 0.0000,1168.0000 L 0.0000,0.0000 Z Z" /></clipPath></defs>
</g>
<g transform="matrix(0.0625 0.0000 0.0000 0.0625 0.0000 0.0000)">
<path  clip-path="url(#clip-1804289383)" d="M 8905.0000,18644.0000 L 14288.0000,18644.0000 L 14288.0000,17689.0000 L 8905.0000,17689.0000 L 8905.0000,18644.0000 Z" stroke="#000000" stroke-width="32.0000"  stroke-linecap="round"  stroke-linejoin="round" fill="none" />
</g>
<g transform="matrix(1.0000 0.0000 0.0000 1.0000 0.0000 0.0000)">
</g>
<g transform="matrix(1.0000 0.0000 0.0000 1.0000 609.2025 1143.0582)">
<text font-family="Arial" fill="#000000" style ="white-space:pre;" font-weight="400" text-anchor="start" x="0.0000" y="0.0000" font-size="24.0000" ><![CDATA[Radio Interface (]]></text>
</g>
<g transform="matrix(1.0000 0.0000 0.0000 1.0000 786.6243 1143.0582)">
<text font-family="Arial" fill="#000000" style ="white-space:pre;" font-weight="400" text-anchor="start" x="0.0000" y="0.0000" font-size="24.0000" ><![CDATA[PC5]]></text>
</g>
<g transform="matrix(1.0000 0.0000 0.0000 1.0000 833.3118 1143.0582)">
<text font-family="Arial" fill="#000000" style ="white-space:pre;" font-weight="400" text-anchor="start" x="0.0000" y="0.0000" font-size="24.0000" ><![CDATA[)]]></text>
</g>
<g transform="matrix(0.0625 0.0000 0.0000 0.0625 0.0000 0.0000)">
<path d="M 21005.0000,5467.0000 L 21005.0000,3908.0000 L 21307.0000,3908.0000 L 20703.0000,3606.0000 L 20098.0000,3908.0000 L 20400.0000,3908.0000 L 20400.0000,5467.0000 L 21005.0000,5467.0000 Z" stroke-width="1px" stroke="#7F7F7F"  fill="#7F7F7F" />
</g>
<g transform="matrix(1.0000 0.0000 0.0000 1.0000 0.0000 0.0000)">
</g>
<g transform="matrix(0.0625 0.0000 0.0000 0.0625 0.0000 0.0000)">
<path d="M 21005.0000,5467.0000 L 21005.0000,3908.0000 L 21307.0000,3908.0000 L 20703.0000,3606.0000 L 20098.0000,3908.0000 L 20400.0000,3908.0000 L 20400.0000,5467.0000 L 21005.0000,5467.0000 Z" stroke="#7F7F7F" stroke-width="5.0000"  stroke-linecap="round"  stroke-linejoin="round" fill="none" />
</g>
<g transform="matrix(1.0000 0.0000 0.0000 1.0000 0.0000 0.0000)">
</g>
<g transform="matrix(0.0625 0.0000 0.0000 0.0625 0.0000 0.0000)">
<path d="M 21005.0000,5467.0000 M 19411.0000,4708.0000 C 19411.0000,4531.0000 19970.0000,4388.0000 20660.0000,4388.0000 C 21350.0000,4388.0000 21910.0000,4531.0000 21910.0000,4708.0000 C 21910.0000,4884.0000 21350.0000,5027.0000 20660.0000,5027.0000 C 19970.0000,5027.0000 19411.0000,4884.0000 19411.0000,4708.0000 " stroke="#262626" stroke-width="48.0000"  stroke-linecap="round"  stroke-linejoin="round"  fill="none" />
</g>
<g transform="matrix(1.0000 0.0000 0.0000 1.0000 0.0000 0.0000)">
</g>
<g transform="matrix(0.0625 0.0000 0.0000 0.0625 0.0000 0.0000)">
<path d="M 21910.0000,4708.0000 L 22744.0000,4706.0000 " stroke="#262626" stroke-width="48.0000"  stroke-linecap="round"  stroke-linejoin="round" fill="none" />
</g>
<g transform="matrix(1.0000 0.0000 0.0000 1.0000 0.0000 0.0000)">
</g>
<g transform="matrix(0.0625 0.0000 0.0000 0.0625 0.0000 0.0000)">
<path d="M 19411.0000,4708.0000 L 18662.0000,4707.0000 " stroke="#262626" stroke-width="48.0000"  stroke-linecap="round"  stroke-linejoin="round" fill="none" />
</g>
<g transform="matrix(1.0000 0.0000 0.0000 1.0000 0.0000 0.0000)">
</g>
<g transform="matrix(0.0625 0.0000 0.0000 0.0625 0.0000 0.0000)">
<path d="M 18662.0000,4707.0000 M 14728.0000,4708.0000 C 14728.0000,4531.0000 15287.0000,4388.0000 15977.0000,4388.0000 C 16667.0000,4388.0000 17226.0000,4531.0000 17226.0000,4708.0000 C 17226.0000,4884.0000 16667.0000,5027.0000 15977.0000,5027.0000 C 15287.0000,5027.0000 14728.0000,4884.0000 14728.0000,4708.0000 " stroke="#262626" stroke-width="48.0000"  stroke-linecap="round"  stroke-linejoin="round"  fill="none" />
</g>
<g transform="matrix(1.0000 0.0000 0.0000 1.0000 0.0000 0.0000)">
</g>
<g transform="matrix(0.0625 0.0000 0.0000 0.0625 0.0000 0.0000)">
<path d="M 17226.0000,4708.0000 L 18060.0000,4706.0000 " stroke="#262626" stroke-width="48.0000"  stroke-linecap="round"  stroke-linejoin="round" fill="none" />
</g>
<g transform="matrix(1.0000 0.0000 0.0000 1.0000 0.0000 0.0000)">
</g>
<g transform="matrix(0.0625 0.0000 0.0000 0.0625 0.0000 0.0000)">
<path d="M 14728.0000,4708.0000 L 13978.0000,4707.0000 " stroke="#262626" stroke-width="48.0000"  stroke-linecap="round"  stroke-linejoin="round" fill="none" />
</g>
<g transform="matrix(1.0000 0.0000 0.0000 1.0000 0.0000 0.0000)">
</g>
<g transform="matrix(0.0625 0.0000 0.0000 0.0625 0.0000 0.0000)">
<path d="M 7311.0000,3606.0000 L 7311.0000,5165.0000 L 7614.0000,5165.0000 L 7009.0000,5467.0000 L 6404.0000,5165.0000 L 6707.0000,5165.0000 L 6707.0000,3606.0000 L 7311.0000,3606.0000 Z" stroke-width="1px" stroke="#7F7F7F"  fill="#7F7F7F" />
</g>
<g transform="matrix(1.0000 0.0000 0.0000 1.0000 0.0000 0.0000)">
</g>
<g transform="matrix(0.0625 0.0000 0.0000 0.0625 0.0000 0.0000)">
<path d="M 7311.0000,3606.0000 L 7311.0000,5165.0000 L 7614.0000,5165.0000 L 7009.0000,5467.0000 L 6404.0000,5165.0000 L 6707.0000,5165.0000 L 6707.0000,3606.0000 L 7311.0000,3606.0000 Z" stroke="#7F7F7F" stroke-width="5.0000"  stroke-linecap="round"  stroke-linejoin="round" fill="none" />
</g>
<g transform="matrix(1.0000 0.0000 0.0000 1.0000 0.0000 0.0000)">
</g>
<g transform="matrix(0.0625 0.0000 0.0000 0.0625 0.0000 0.0000)">
<path d="M 5824.0000,6867.0000 L 5824.0000,8379.0000 L 8288.0000,8379.0000 L 8288.0000,6867.0000 L 5824.0000,6867.0000 Z" stroke-width="1px" stroke="#FFFFFF"  fill="#FFFFFF" />
</g>
<g transform="matrix(1.0000 0.0000 0.0000 1.0000 0.0000 0.0000)">
</g>
<g transform="matrix(0.0625 0.0000 0.0000 0.0625 0.0000 0.0000)">
<path d="M 5824.0000,8379.0000 L 8288.0000,8379.0000 L 8288.0000,6867.0000 L 5824.0000,6867.0000 L 5824.0000,8379.0000 Z" stroke="#000000" stroke-width="32.0000"  stroke-linecap="round"  stroke-linejoin="round" fill="none" />
</g>
<g transform="matrix(1.0000 0.0000 0.0000 1.0000 0.0000 0.0000)">
</g>
<g transform="matrix(1.0000 0.0000 0.0000 1.0000 371.5302 457.7261)">
<text font-family="Arial" fill="#000000" style ="white-space:pre;" font-weight="700" text-anchor="start" x="0.0000" y="0.0000" font-size="21.0000" ><![CDATA[Determine ]]></text>
</g>
<g transform="matrix(1.0000 0.0000 0.0000 1.0000 481.7901 457.7261)">
<text font-family="Arial" fill="#000000" style ="white-space:pre;" font-weight="700" text-anchor="start" x="0.0000" y="0.0000" font-size="21.0000" ><![CDATA[UE ]]></text>
</g>
<g transform="matrix(1.0000 0.0000 0.0000 1.0000 408.8841 483.3260)">
<text font-family="Arial" fill="#000000" style ="white-space:pre;" font-weight="700" text-anchor="start" x="0.0000" y="0.0000" font-size="21.0000" ><![CDATA[ID and ]]></text>
</g>
<g transform="matrix(1.0000 0.0000 0.0000 1.0000 382.8062 508.9260)">
<text font-family="Arial" fill="#000000" style ="white-space:pre;" font-weight="700" text-anchor="start" x="0.0000" y="0.0000" font-size="21.0000" ><![CDATA[BEARER]]></text>
</g>
<g transform="matrix(1.0000 0.0000 0.0000 1.0000 472.8889 508.9260)">
<text font-family="Arial" fill="#000000" style ="white-space:pre;" font-weight="700" text-anchor="start" x="0.0000" y="0.0000" font-size="21.0000" ><![CDATA[ ]]></text>
</g>
<g transform="matrix(1.0000 0.0000 0.0000 1.0000 478.8161 508.9260)">
<text font-family="Arial" fill="#000000" style ="white-space:pre;" font-weight="700" text-anchor="start" x="0.0000" y="0.0000" font-size="21.0000" ><![CDATA[ID]]></text>
</g>
<g transform="matrix(0.0625 0.0000 0.0000 0.0625 0.0000 0.0000)">
<path d="M 4896.0000,15020.0000 L 4889.0000,15035.0000 L 4908.0000,15034.0000 L 4896.0000,15020.0000 Z" stroke-width="1px" stroke="#000000"  fill="#000000" />
</g>
<g transform="matrix(1.0000 0.0000 0.0000 1.0000 0.0000 0.0000)">
</g>
<g transform="matrix(0.0625 0.0000 0.0000 0.0625 0.0000 0.0000)">
<path d="M 4896.0000,15020.0000 L 4889.0000,15035.0000 L 4908.0000,15034.0000 L 4896.0000,15020.0000 Z M 4877.0000,15022.0000 L 4892.0000,15028.0000 Z " fill="none" stroke="#000000" stroke-width="96.0000"  stroke-linecap="round"  stroke-linejoin="round" />
</g>
<g transform="matrix(1.0000 0.0000 0.0000 1.0000 0.0000 0.0000)">
</g>
<g transform="matrix(0.0625 0.0000 0.0000 0.0625 0.0000 0.0000)">
<path d="M 2186.0000,12979.0000 L 2186.0000,13933.0000 L 7568.0000,13933.0000 L 7568.0000,12979.0000 L 2186.0000,12979.0000 Z" stroke-width="1px" stroke="#FFFFFF"  fill="#FFFFFF" />
</g>
<g transform="matrix(1.0000 0.0000 0.0000 1.0000 0.0000 0.0000)">
</g>
<g transform="matrix(0.0625 0.0000 0.0000 0.0625 0.0000 0.0000)">
<path d="M 2186.0000,13933.0000 L 7568.0000,13933.0000 L 7568.0000,12979.0000 L 2186.0000,12979.0000 L 2186.0000,13933.0000 Z" stroke="#000000" stroke-width="32.0000"  stroke-linecap="round"  stroke-linejoin="round" fill="none" />
</g>
<g transform="matrix(1.0000 0.0000 0.0000 1.0000 0.0000 0.0000)">
</g>
<g transform="matrix(1.0000 0.0000 0.0000 1.0000 142.9171 847.8602)">
<text font-family="Arial" fill="#000000" style ="white-space:pre;" font-weight="700" text-anchor="start" x="0.0000" y="0.0000" font-size="21.0000" ><![CDATA[Mapping to ]]></text>
</g>
<g transform="matrix(1.0000 0.0000 0.0000 1.0000 262.5941 847.8602)">
<text font-family="Arial" fill="#000000" style ="white-space:pre;" font-weight="700" text-anchor="start" x="0.0000" y="0.0000" font-size="21.0000" ><![CDATA[egress]]></text>
</g>
<g transform="matrix(1.0000 0.0000 0.0000 1.0000 331.3853 847.8602)">
<text font-family="Arial" fill="#000000" style ="white-space:pre;" font-weight="700" text-anchor="start" x="0.0000" y="0.0000" font-size="21.0000" ><![CDATA[ ]]></text>
</g>
<g transform="matrix(1.0000 0.0000 0.0000 1.0000 337.3124 847.8602)">
<text font-family="Arial" fill="#000000" style ="white-space:pre;" font-weight="700" text-anchor="start" x="0.0000" y="0.0000" font-size="21.0000" ><![CDATA[RLC channel]]></text>
</g>
<g transform="matrix(0.0625 0.0000 0.0000 0.0625 0.0000 0.0000)">
<path d="M 16322.0000,5467.0000 L 16322.0000,3908.0000 L 16624.0000,3908.0000 L 16019.0000,3606.0000 L 15415.0000,3908.0000 L 15717.0000,3908.0000 L 15717.0000,5467.0000 L 16322.0000,5467.0000 Z" stroke-width="1px" stroke="#7F7F7F"  fill="#7F7F7F" />
</g>
<g transform="matrix(1.0000 0.0000 0.0000 1.0000 0.0000 0.0000)">
</g>
<g transform="matrix(0.0625 0.0000 0.0000 0.0625 0.0000 0.0000)">
<path d="M 16322.0000,5467.0000 L 16322.0000,3908.0000 L 16624.0000,3908.0000 L 16019.0000,3606.0000 L 15415.0000,3908.0000 L 15717.0000,3908.0000 L 15717.0000,5467.0000 L 16322.0000,5467.0000 Z" stroke="#7F7F7F" stroke-width="5.0000"  stroke-linecap="round"  stroke-linejoin="round" fill="none" />
</g>
<g transform="matrix(1.0000 0.0000 0.0000 1.0000 0.0000 0.0000)">
</g>
<g transform="matrix(0.0625 0.0000 0.0000 0.0625 0.0000 0.0000)">
<path d="M 16131.0000,5674.0000 L 15938.0000,5674.0000 L 16035.0000,5480.0000 L 16131.0000,5674.0000 Z" stroke-width="1px" stroke="#000000"  fill="#000000" />
</g>
<g transform="matrix(1.0000 0.0000 0.0000 1.0000 0.0000 0.0000)">
</g>
<g transform="matrix(0.0625 0.0000 0.0000 0.0625 0.0000 0.0000)">
<path d="M 16131.0000,5674.0000 L 15938.0000,5674.0000 L 16035.0000,5480.0000 L 16131.0000,5674.0000 Z M 16035.0000,8806.0000 L 16035.0000,5674.0000 Z " fill="none" stroke="#000000" stroke-width="96.0000"  stroke-linecap="round"  stroke-linejoin="round" />
</g>
<g transform="matrix(1.0000 0.0000 0.0000 1.0000 0.0000 0.0000)">
</g>
<g transform="matrix(0.0625 0.0000 0.0000 0.0625 0.0000 0.0000)">
<path d="M 14855.0000,7556.0000 L 14855.0000,9068.0000 L 17184.0000,9068.0000 L 17184.0000,7556.0000 L 14855.0000,7556.0000 Z" stroke-width="1px" stroke="#FFFFFF"  fill="#FFFFFF" />
</g>
<g transform="matrix(1.0000 0.0000 0.0000 1.0000 0.0000 0.0000)">
</g>
<g transform="matrix(0.0625 0.0000 0.0000 0.0625 0.0000 0.0000)">
<path d="M 14855.0000,9068.0000 L 17184.0000,9068.0000 L 17184.0000,7556.0000 L 14855.0000,7556.0000 L 14855.0000,9068.0000 Z" stroke="#000000" stroke-width="32.0000"  stroke-linecap="round"  stroke-linejoin="round" fill="none" />
</g>
<g transform="matrix(1.0000 0.0000 0.0000 1.0000 0.0000 0.0000)">
</g>
<g transform="matrix(1.0000 0.0000 0.0000 1.0000 960.1852 500.7817)">
<text font-family="Arial" fill="#000000" style ="white-space:pre;" font-weight="700" text-anchor="start" x="0.0000" y="0.0000" font-size="21.0000" ><![CDATA[Remove ]]></text>
</g>
<g transform="matrix(1.0000 0.0000 0.0000 1.0000 972.0497 526.3817)">
<text font-family="Arial" fill="#000000" style ="white-space:pre;" font-weight="700" text-anchor="start" x="0.0000" y="0.0000" font-size="21.0000" ><![CDATA[SRA]]></text>
</g>
<g transform="matrix(1.0000 0.0000 0.0000 1.0000 1017.0911 526.3817)">
<text font-family="Arial" fill="#000000" style ="white-space:pre;" font-weight="700" text-anchor="start" x="0.0000" y="0.0000" font-size="21.0000" ><![CDATA[P ]]></text>
</g>
<g transform="matrix(1.0000 0.0000 0.0000 1.0000 966.7059 551.9816)">
<text font-family="Arial" fill="#000000" style ="white-space:pre;" font-weight="700" text-anchor="start" x="0.0000" y="0.0000" font-size="21.0000" ><![CDATA[header]]></text>
</g>
<g transform="matrix(0.0625 0.0000 0.0000 0.0625 0.0000 0.0000)">
<path d="M 20788.0000,5721.0000 L 20594.0000,5721.0000 L 20691.0000,5527.0000 L 20788.0000,5721.0000 Z" stroke-width="1px" stroke="#000000"  fill="#000000" />
</g>
<g transform="matrix(1.0000 0.0000 0.0000 1.0000 0.0000 0.0000)">
</g>
<g transform="matrix(0.0625 0.0000 0.0000 0.0625 0.0000 0.0000)">
<path d="M 20788.0000,5721.0000 L 20594.0000,5721.0000 L 20691.0000,5527.0000 L 20788.0000,5721.0000 Z M 20691.0000,11514.0000 L 20691.0000,5721.0000 Z " fill="none" stroke="#000000" stroke-width="96.0000"  stroke-linecap="round"  stroke-linejoin="round" />
</g>
<g transform="matrix(1.0000 0.0000 0.0000 1.0000 0.0000 0.0000)">
</g>
<g transform="matrix(0.0625 0.0000 0.0000 0.0625 0.0000 0.0000)">
<path d="M 16101.0000,9368.0000 L 15908.0000,9368.0000 L 16004.0000,9174.0000 L 16101.0000,9368.0000 Z" stroke-width="1px" stroke="#000000"  fill="#000000" />
</g>
<g transform="matrix(1.0000 0.0000 0.0000 1.0000 0.0000 0.0000)">
</g>
<g transform="matrix(0.0625 0.0000 0.0000 0.0625 0.0000 0.0000)">
<path d="M 16101.0000,9368.0000 L 15908.0000,9368.0000 L 16004.0000,9174.0000 L 16101.0000,9368.0000 Z M 16004.0000,11454.0000 L 16004.0000,9368.0000 Z " fill="none" stroke="#000000" stroke-width="96.0000"  stroke-linecap="round"  stroke-linejoin="round" />
</g>
<g transform="matrix(1.0000 0.0000 0.0000 1.0000 0.0000 0.0000)">
</g>
<g transform="matrix(0.0625 0.0000 0.0000 0.0625 0.0000 0.0000)">
<path d="M 18399.0000,11752.0000 L 18206.0000,11752.0000 L 18302.0000,11558.0000 L 18399.0000,11752.0000 Z" stroke-width="1px" stroke="#000000"  fill="#000000" />
</g>
<g transform="matrix(1.0000 0.0000 0.0000 1.0000 0.0000 0.0000)">
</g>
<g transform="matrix(0.0625 0.0000 0.0000 0.0625 0.0000 0.0000)">
<path d="M 18399.0000,11752.0000 L 18206.0000,11752.0000 L 18302.0000,11558.0000 L 18399.0000,11752.0000 Z M 18302.0000,15046.0000 L 18302.0000,11752.0000 Z " fill="none" stroke="#000000" stroke-width="96.0000"  stroke-linecap="round"  stroke-linejoin="round" />
</g>
<g transform="matrix(1.0000 0.0000 0.0000 1.0000 0.0000 0.0000)">
</g>
<g transform="matrix(0.0625 0.0000 0.0000 0.0625 0.0000 0.0000)">
<path d="M 18631.0000,16836.0000 L 18631.0000,15277.0000 L 18934.0000,15277.0000 L 18329.0000,14975.0000 L 17724.0000,15277.0000 L 18027.0000,15277.0000 L 18027.0000,16836.0000 L 18631.0000,16836.0000 Z" stroke-width="1px" stroke="#7F7F7F"  fill="#7F7F7F" />
</g>
<g transform="matrix(1.0000 0.0000 0.0000 1.0000 0.0000 0.0000)">
</g>
<g transform="matrix(0.0625 0.0000 0.0000 0.0625 0.0000 0.0000)">
<path d="M 18631.0000,16836.0000 L 18631.0000,15277.0000 L 18934.0000,15277.0000 L 18329.0000,14975.0000 L 17724.0000,15277.0000 L 18027.0000,15277.0000 L 18027.0000,16836.0000 L 18631.0000,16836.0000 Z" stroke="#7F7F7F" stroke-width="5.0000"  stroke-linecap="round"  stroke-linejoin="round" fill="none" />
</g>
<g transform="matrix(1.0000 0.0000 0.0000 1.0000 0.0000 0.0000)">
</g>
<g transform="matrix(1.0000 0.0000 0.0000 1.0000 175.2640 51.4930)">
<text font-family="Arial" fill="#000000" style ="white-space:pre;" font-weight="400" text-anchor="start" x="0.0000" y="0.0000" font-size="24.0000" ><![CDATA[Remote UE or ]]></text>
</g>
<g transform="matrix(1.0000 0.0000 0.0000 1.0000 333.9828 51.4930)">
<text font-family="Arial" fill="#000000" style ="white-space:pre;" font-weight="400" text-anchor="start" x="0.0000" y="0.0000" font-size="24.0000" ><![CDATA[R]]></text>
</g>
<g transform="matrix(1.0000 0.0000 0.0000 1.0000 351.3148 51.4930)">
<text font-family="Arial" fill="#000000" style ="white-space:pre;" font-weight="400" text-anchor="start" x="0.0000" y="0.0000" font-size="24.0000" ><![CDATA[elay UE]]></text>
</g>
<g transform="matrix(1.0000 0.0000 0.0000 1.0000 102.6078 80.2930)">
<text font-family="Arial" fill="#000000" style ="white-space:pre;" font-weight="700" text-anchor="start" x="0.0000" y="0.0000" font-size="24.0000" ><![CDATA[Transmitting part of SRAP sublayer]]></text>
</g>
<g transform="matrix(1.0000 0.0000 0.0000 1.0000 66.8237 150.4786)">
<text font-family="Arial" fill="#000000" style ="white-space:pre;" font-weight="400" text-anchor="start" x="0.0000" y="0.0000" font-size="24.0000" ><![CDATA[From receiving part ]]></text>
</g>
<g transform="matrix(1.0000 0.0000 0.0000 1.0000 24.7944 179.2786)">
<text font-family="Arial" fill="#000000" style ="white-space:pre;" font-weight="400" text-anchor="start" x="0.0000" y="0.0000" font-size="24.0000" ><![CDATA[of ]]></text>
</g>
<g transform="matrix(1.0000 0.0000 0.0000 1.0000 51.4780 179.2786)">
<text font-family="Arial" fill="#000000" style ="white-space:pre;" font-weight="400" text-anchor="start" x="0.0000" y="0.0000" font-size="24.0000" ><![CDATA[Relay UE SRAP entity at ]]></text>
</g>
<g transform="matrix(1.0000 0.0000 0.0000 1.0000 105.4897 208.0785)">
<text font-family="Arial" fill="#000000" style ="white-space:pre;" font-weight="400" text-anchor="start" x="0.0000" y="0.0000" font-size="24.0000" ><![CDATA[Uu]]></text>
</g>
<g transform="matrix(1.0000 0.0000 0.0000 1.0000 136.1694 208.0785)">
<text font-family="Arial" fill="#000000" style ="white-space:pre;" font-weight="400" text-anchor="start" x="0.0000" y="0.0000" font-size="24.0000" ><![CDATA[ ]]></text>
</g>
<g transform="matrix(1.0000 0.0000 0.0000 1.0000 142.8374 208.0785)">
<text font-family="Arial" fill="#000000" style ="white-space:pre;" font-weight="400" text-anchor="start" x="0.0000" y="0.0000" font-size="24.0000" ><![CDATA[interface]]></text>
</g>
<g transform="matrix(1.0000 0.0000 0.0000 1.0000 329.6855 163.4076)">
<text font-family="Arial" fill="#000000" style ="white-space:pre;" font-weight="400" text-anchor="start" x="0.0000" y="0.0000" font-size="24.0000" ><![CDATA[From upper layers]]></text>
</g>
<g transform="matrix(1.0000 0.0000 0.0000 1.0000 524.4159 163.4076)">
<text font-family="Arial" fill="#000000" style ="white-space:pre;" font-weight="400" text-anchor="start" x="0.0000" y="0.0000" font-size="24.0000" ><![CDATA[ ]]></text>
</g>
<g transform="matrix(1.0000 0.0000 0.0000 1.0000 531.0839 163.4076)">
<text font-family="Arial" fill="#000000" style ="white-space:pre;" font-weight="400" text-anchor="start" x="0.0000" y="0.0000" font-size="24.0000" ><![CDATA[on ]]></text>
</g>
<g transform="matrix(1.0000 0.0000 0.0000 1.0000 381.7108 192.2076)">
<text font-family="Arial" fill="#000000" style ="white-space:pre;" font-weight="400" text-anchor="start" x="0.0000" y="0.0000" font-size="24.0000" ><![CDATA[Remote UE]]></text>
</g>
<g transform="matrix(1.0000 0.0000 0.0000 1.0000 353.1895 962.9832)">
<text font-family="Arial" fill="#000000" style ="white-space:pre;" font-weight="400" text-anchor="start" x="0.0000" y="0.0000" font-size="19.0000" ><![CDATA[Egress RLC ]]></text>
</g>
<g transform="matrix(1.0000 0.0000 0.0000 1.0000 458.9995 962.9832)">
<text font-family="Arial" fill="#000000" style ="white-space:pre;" font-weight="400" text-anchor="start" x="0.0000" y="0.0000" font-size="19.0000" ><![CDATA[Channel]]></text>
</g>
<g transform="matrix(1.0000 0.0000 0.0000 1.0000 528.5334 962.9832)">
<text font-family="Arial" fill="#000000" style ="white-space:pre;" font-weight="400" text-anchor="start" x="0.0000" y="0.0000" font-size="19.0000" ><![CDATA[ ]]></text>
</g>
<g transform="matrix(1.0000 0.0000 0.0000 1.0000 533.7197 962.9832)">
<text font-family="Arial" fill="#000000" style ="white-space:pre;" font-weight="400" text-anchor="start" x="0.0000" y="0.0000" font-size="19.0000" ><![CDATA[(]]></text>
</g>
<g transform="matrix(1.0000 0.0000 0.0000 1.0000 539.9358 962.9832)">
<text font-family="Arial" fill="#000000" style ="white-space:pre;" font-weight="400" text-anchor="start" x="0.0000" y="0.0000" font-size="19.0000" ><![CDATA[PC5]]></text>
</g>
<g transform="matrix(1.0000 0.0000 0.0000 1.0000 576.2478 962.9832)">
<text font-family="Arial" fill="#000000" style ="white-space:pre;" font-weight="400" text-anchor="start" x="0.0000" y="0.0000" font-size="19.0000" ><![CDATA[)]]></text>
</g>
<g transform="matrix(1.0000 0.0000 0.0000 1.0000 1202.0247 961.9307)">
<text font-family="Arial" fill="#000000" style ="white-space:pre;" font-weight="400" text-anchor="start" x="0.0000" y="0.0000" font-size="19.0000" ><![CDATA[Ingress RLC ]]></text>
</g>
<g transform="matrix(1.0000 0.0000 0.0000 1.0000 1310.9519 961.9307)">
<text font-family="Arial" fill="#000000" style ="white-space:pre;" font-weight="400" text-anchor="start" x="0.0000" y="0.0000" font-size="19.0000" ><![CDATA[Channel]]></text>
</g>
<g transform="matrix(1.0000 0.0000 0.0000 1.0000 1380.4858 961.9307)">
<text font-family="Arial" fill="#000000" style ="white-space:pre;" font-weight="400" text-anchor="start" x="0.0000" y="0.0000" font-size="19.0000" ><![CDATA[ ]]></text>
</g>
<g transform="matrix(1.0000 0.0000 0.0000 1.0000 1385.6721 961.9307)">
<text font-family="Arial" fill="#000000" style ="white-space:pre;" font-weight="400" text-anchor="start" x="0.0000" y="0.0000" font-size="19.0000" ><![CDATA[(]]></text>
</g>
<g transform="matrix(1.0000 0.0000 0.0000 1.0000 1391.8882 961.9307)">
<text font-family="Arial" fill="#000000" style ="white-space:pre;" font-weight="400" text-anchor="start" x="0.0000" y="0.0000" font-size="19.0000" ><![CDATA[PC5]]></text>
</g>
<g transform="matrix(1.0000 0.0000 0.0000 1.0000 1428.2002 961.9307)">
<text font-family="Arial" fill="#000000" style ="white-space:pre;" font-weight="400" text-anchor="start" x="0.0000" y="0.0000" font-size="19.0000" ><![CDATA[)]]></text>
</g>
<g transform="matrix(1.0000 0.0000 0.0000 1.0000 1010.5397 51.4930)">
<text font-family="Arial" fill="#000000" style ="white-space:pre;" font-weight="400" text-anchor="start" x="0.0000" y="0.0000" font-size="24.0000" ><![CDATA[Remote UE or Relay UE]]></text>
</g>
<g transform="matrix(1.0000 0.0000 0.0000 1.0000 953.8619 80.2930)">
<text font-family="Arial" fill="#000000" style ="white-space:pre;" font-weight="700" text-anchor="start" x="0.0000" y="0.0000" font-size="24.0000" ><![CDATA[Receiving part of ]]></text>
</g>
<g transform="matrix(1.0000 0.0000 0.0000 1.0000 1155.2369 80.2930)">
<text font-family="Arial" fill="#000000" style ="white-space:pre;" font-weight="700" text-anchor="start" x="0.0000" y="0.0000" font-size="24.0000" ><![CDATA[SRAP]]></text>
</g>
<g transform="matrix(1.0000 0.0000 0.0000 1.0000 1221.9166 80.2930)">
<text font-family="Arial" fill="#000000" style ="white-space:pre;" font-weight="700" text-anchor="start" x="0.0000" y="0.0000" font-size="24.0000" ><![CDATA[ ]]></text>
</g>
<g transform="matrix(1.0000 0.0000 0.0000 1.0000 1228.5846 80.2930)">
<text font-family="Arial" fill="#000000" style ="white-space:pre;" font-weight="700" text-anchor="start" x="0.0000" y="0.0000" font-size="24.0000" ><![CDATA[sublayer]]></text>
</g>
<g transform="matrix(1.0000 0.0000 0.0000 1.0000 1177.8855 149.0075)">
<text font-family="Arial" fill="#000000" style ="white-space:pre;" font-weight="400" text-anchor="start" x="0.0000" y="0.0000" font-size="24.0000" ><![CDATA[To transmitting part of ]]></text>
</g>
<g transform="matrix(1.0000 0.0000 0.0000 1.0000 1175.8875 177.8074)">
<text font-family="Arial" fill="#000000" style ="white-space:pre;" font-weight="400" text-anchor="start" x="0.0000" y="0.0000" font-size="24.0000" ><![CDATA[Relay UE SRAP entity ]]></text>
</g>
<g transform="matrix(1.0000 0.0000 0.0000 1.0000 1216.5574 206.6073)">
<text font-family="Arial" fill="#000000" style ="white-space:pre;" font-weight="400" text-anchor="start" x="0.0000" y="0.0000" font-size="24.0000" ><![CDATA[at ]]></text>
</g>
<g transform="matrix(1.0000 0.0000 0.0000 1.0000 1243.2410 206.6073)">
<text font-family="Arial" fill="#000000" style ="white-space:pre;" font-weight="400" text-anchor="start" x="0.0000" y="0.0000" font-size="24.0000" ><![CDATA[Uu]]></text>
</g>
<g transform="matrix(1.0000 0.0000 0.0000 1.0000 1273.9207 206.6073)">
<text font-family="Arial" fill="#000000" style ="white-space:pre;" font-weight="400" text-anchor="start" x="0.0000" y="0.0000" font-size="24.0000" ><![CDATA[ ]]></text>
</g>
<g transform="matrix(1.0000 0.0000 0.0000 1.0000 1280.5886 206.6073)">
<text font-family="Arial" fill="#000000" style ="white-space:pre;" font-weight="400" text-anchor="start" x="0.0000" y="0.0000" font-size="24.0000" ><![CDATA[interface]]></text>
</g>
<g transform="matrix(1.0000 0.0000 0.0000 1.0000 917.8396 163.4076)">
<text font-family="Arial" fill="#000000" style ="white-space:pre;" font-weight="400" text-anchor="start" x="0.0000" y="0.0000" font-size="24.0000" ><![CDATA[To upper layers]]></text>
</g>
<g transform="matrix(1.0000 0.0000 0.0000 1.0000 922.5095 192.2076)">
<text font-family="Arial" fill="#000000" style ="white-space:pre;" font-weight="400" text-anchor="start" x="0.0000" y="0.0000" font-size="24.0000" ><![CDATA[on Remote UE]]></text>
</g>
<g transform="matrix(0.0625 0.0000 0.0000 0.0625 0.0000 0.0000)">
<path d="M 16004.0000,11497.0000 L 20652.0000,11497.0000 L 20652.0000,11501.0000 " stroke="#000000" stroke-width="64.0000"  stroke-linecap="round"  stroke-linejoin="round" fill="none" />
</g>
<g transform="matrix(1.0000 0.0000 0.0000 1.0000 0.0000 0.0000)">
</g>
<g transform="matrix(0.0625 0.0000 0.0000 0.0625 0.0000 0.0000)">
<path d="M 1551.0000,6565.0000 L 1551.0000,7774.0000 L 3880.0000,7774.0000 L 3880.0000,6565.0000 L 1551.0000,6565.0000 Z" stroke-width="1px" stroke="#FFFFFF"  fill="#FFFFFF" />
</g>
<g transform="matrix(1.0000 0.0000 0.0000 1.0000 0.0000 0.0000)">
</g>
<g transform="matrix(0.0625 0.0000 0.0000 0.0625 0.0000 0.0000)">
<path d="M 1551.0000,7774.0000 L 3880.0000,7774.0000 L 3880.0000,6565.0000 L 1551.0000,6565.0000 L 1551.0000,7774.0000 Z" stroke="#000000" stroke-width="32.0000"  stroke-linecap="round"  stroke-linejoin="round" fill="none" />
</g>
<g transform="matrix(1.0000 0.0000 0.0000 1.0000 0.0000 0.0000)">
</g>
<g transform="matrix(1.0000 0.0000 0.0000 1.0000 118.0225 442.1797)">
<text font-family="Arial" fill="#000000" style ="white-space:pre;" font-weight="700" text-anchor="start" x="0.0000" y="0.0000" font-size="21.0000" ><![CDATA[Determine ]]></text>
</g>
<g transform="matrix(1.0000 0.0000 0.0000 1.0000 114.4549 467.7797)">
<text font-family="Arial" fill="#000000" style ="white-space:pre;" font-weight="700" text-anchor="start" x="0.0000" y="0.0000" font-size="21.0000" ><![CDATA[egress link]]></text>
</g>
<g transform="matrix(0.0625 0.0000 0.0000 0.0625 0.0000 0.0000)">
<path d="M 1548.0000,9891.0000 L 1548.0000,11403.0000 L 3876.0000,11403.0000 L 3876.0000,9891.0000 L 1548.0000,9891.0000 Z" stroke-width="1px" stroke="#FFFFFF"  fill="#FFFFFF" />
</g>
<g transform="matrix(1.0000 0.0000 0.0000 1.0000 0.0000 0.0000)">
</g>
<g transform="matrix(0.0625 0.0000 0.0000 0.0625 0.0000 0.0000)">
<path d="M 1548.0000,11403.0000 L 3876.0000,11403.0000 L 3876.0000,9891.0000 L 1548.0000,9891.0000 L 1548.0000,11403.0000 Z" stroke="#000000" stroke-width="32.0000"  stroke-linecap="round"  stroke-linejoin="round" fill="none" />
</g>
<g transform="matrix(1.0000 0.0000 0.0000 1.0000 0.0000 0.0000)">
</g>
<g transform="matrix(1.0000 0.0000 0.0000 1.0000 128.4706 646.7025)">
<text font-family="Arial" fill="#000000" style ="white-space:pre;" font-weight="700" text-anchor="start" x="0.0000" y="0.0000" font-size="21.0000" ><![CDATA[Remove]]></text>
</g>
<g transform="matrix(1.0000 0.0000 0.0000 1.0000 211.4701 646.7025)">
<text font-family="Arial" fill="#000000" style ="white-space:pre;" font-weight="700" text-anchor="start" x="0.0000" y="0.0000" font-size="21.0000" ><![CDATA[ ]]></text>
</g>
<g transform="matrix(1.0000 0.0000 0.0000 1.0000 140.3351 672.3025)">
<text font-family="Arial" fill="#000000" style ="white-space:pre;" font-weight="700" text-anchor="start" x="0.0000" y="0.0000" font-size="21.0000" ><![CDATA[SRAP]]></text>
</g>
<g transform="matrix(1.0000 0.0000 0.0000 1.0000 199.6056 672.3025)">
<text font-family="Arial" fill="#000000" style ="white-space:pre;" font-weight="700" text-anchor="start" x="0.0000" y="0.0000" font-size="21.0000" ><![CDATA[ ]]></text>
</g>
<g transform="matrix(1.0000 0.0000 0.0000 1.0000 134.9914 697.9025)">
<text font-family="Arial" fill="#000000" style ="white-space:pre;" font-weight="700" text-anchor="start" x="0.0000" y="0.0000" font-size="21.0000" ><![CDATA[header]]></text>
</g>
<g transform="matrix(0.0000 1.0000 -1.0000 0.0000 146.2809 524.3619)">
<text font-family="Arial" fill="#000000" style ="white-space:pre;" font-weight="700" text-anchor="start" x="0.0000" y="0.0000" font-size="21.0000" ><![CDATA[SRB0]]></text>
</g>
<g transform="matrix(0.0000 1.0000 -1.0000 0.0000 272.4901 562.6838)">
<text font-family="Arial" fill="#000000" style ="white-space:pre;" font-weight="700" text-anchor="start" x="0.0000" y="0.0000" font-size="21.0000" ><![CDATA[Except SRB0]]></text>
</g>
<g transform="matrix(0.0625 0.0000 0.0000 0.0625 0.0000 0.0000)">
<path d="M 2738.0000,8146.0000 L 4197.0000,8146.0000 " stroke="#000000" stroke-width="64.0000"  stroke-linecap="round"  stroke-linejoin="round" fill="none" />
</g>
<g transform="matrix(1.0000 0.0000 0.0000 1.0000 0.0000 0.0000)">
</g>
<g transform="matrix(0.0625 0.0000 0.0000 0.0625 0.0000 0.0000)">
<path d="M 5343.0000,5677.0000 L 6971.0000,5677.0000 L 6971.0000,5658.0000 " stroke="#000000" stroke-width="64.0000"  stroke-linecap="round"  stroke-linejoin="round" fill="none" />
</g>
<g transform="matrix(1.0000 0.0000 0.0000 1.0000 0.0000 0.0000)">
</g>
<g transform="matrix(0.0000 1.0000 -1.0000 0.0000 340.8391 600.6266)">
<text font-family="Arial" fill="#000000" style ="white-space:pre;" font-weight="700" text-anchor="start" x="0.0000" y="0.0000" font-size="21.0000" ><![CDATA[SRB0]]></text>
</g>
<g transform="matrix(0.0625 0.0000 0.0000 0.0625 0.0000 0.0000)">
<path d="M 5440.0000,12721.0000 L 5246.0000,12721.0000 L 5343.0000,12915.0000 L 5440.0000,12721.0000 Z" stroke-width="1px" stroke="#000000"  fill="#000000" />
</g>
<g transform="matrix(1.0000 0.0000 0.0000 1.0000 0.0000 0.0000)">
</g>
<g transform="matrix(0.0625 0.0000 0.0000 0.0625 0.0000 0.0000)">
<path d="M 5440.0000,12721.0000 L 5246.0000,12721.0000 L 5343.0000,12915.0000 L 5440.0000,12721.0000 Z M 5343.0000,5677.0000 L 5343.0000,12721.0000 Z " fill="none" stroke="#000000" stroke-width="96.0000"  stroke-linecap="round"  stroke-linejoin="round" />
</g>
<g transform="matrix(1.0000 0.0000 0.0000 1.0000 0.0000 0.0000)">
</g>
<g transform="matrix(0.0000 1.0000 -1.0000 0.0000 470.8917 351.3280)">
<text font-family="Arial" fill="#000000" style ="white-space:pre;" font-weight="700" text-anchor="start" x="0.0000" y="0.0000" font-size="21.0000" ><![CDATA[Except ]]></text>
</g>
<g transform="matrix(0.0000 1.0000 -1.0000 0.0000 445.2917 357.8543)">
<text font-family="Arial" fill="#000000" style ="white-space:pre;" font-weight="700" text-anchor="start" x="0.0000" y="0.0000" font-size="21.0000" ><![CDATA[SRB0]]></text>
</g>
<g transform="matrix(0.0625 0.0000 0.0000 0.0625 0.0000 0.0000)">
<path d="M 7132.0000,12797.0000 L 6939.0000,12797.0000 L 7036.0000,12990.0000 L 7132.0000,12797.0000 Z" stroke-width="1px" stroke="#000000"  fill="#000000" />
</g>
<g transform="matrix(1.0000 0.0000 0.0000 1.0000 0.0000 0.0000)">
</g>
<g transform="matrix(0.0625 0.0000 0.0000 0.0625 0.0000 0.0000)">
<path d="M 7132.0000,12797.0000 L 6939.0000,12797.0000 L 7036.0000,12990.0000 L 7132.0000,12797.0000 Z M 7036.0000,11419.0000 L 7036.0000,12797.0000 Z " fill="none" stroke="#000000" stroke-width="96.0000"  stroke-linecap="round"  stroke-linejoin="round" />
</g>
<g transform="matrix(1.0000 0.0000 0.0000 1.0000 0.0000 0.0000)">
</g>
<g transform="matrix(0.0625 0.0000 0.0000 0.0625 0.0000 0.0000)">
<path d="M 7128.0000,10000.0000 L 6935.0000,10000.0000 L 7031.0000,10193.0000 L 7128.0000,10000.0000 Z" stroke-width="1px" stroke="#000000"  fill="#000000" />
</g>
<g transform="matrix(1.0000 0.0000 0.0000 1.0000 0.0000 0.0000)">
</g>
<g transform="matrix(0.0625 0.0000 0.0000 0.0625 0.0000 0.0000)">
<path d="M 7128.0000,10000.0000 L 6935.0000,10000.0000 L 7031.0000,10193.0000 L 7128.0000,10000.0000 Z M 7031.0000,8372.0000 L 7031.0000,10000.0000 Z " fill="none" stroke="#000000" stroke-width="96.0000"  stroke-linecap="round"  stroke-linejoin="round" />
</g>
<g transform="matrix(1.0000 0.0000 0.0000 1.0000 0.0000 0.0000)">
</g>
<g transform="matrix(0.0625 0.0000 0.0000 0.0625 0.0000 0.0000)">
<path d="M 2834.0000,9710.0000 L 2641.0000,9710.0000 L 2738.0000,9903.0000 L 2834.0000,9710.0000 Z" stroke-width="1px" stroke="#000000"  fill="#000000" />
</g>
<g transform="matrix(1.0000 0.0000 0.0000 1.0000 0.0000 0.0000)">
</g>
<g transform="matrix(0.0625 0.0000 0.0000 0.0625 0.0000 0.0000)">
<path d="M 2834.0000,9710.0000 L 2641.0000,9710.0000 L 2738.0000,9903.0000 L 2834.0000,9710.0000 Z M 2738.0000,7749.0000 L 2738.0000,9710.0000 Z " fill="none" stroke="#000000" stroke-width="96.0000"  stroke-linecap="round"  stroke-linejoin="round" />
</g>
<g transform="matrix(1.0000 0.0000 0.0000 1.0000 0.0000 0.0000)">
</g>
<g transform="matrix(0.0625 0.0000 0.0000 0.0625 0.0000 0.0000)">
<path d="M 4346.0000,12736.0000 L 4153.0000,12736.0000 L 4250.0000,12929.0000 L 4346.0000,12736.0000 Z" stroke-width="1px" stroke="#000000"  fill="#000000" />
</g>
<g transform="matrix(1.0000 0.0000 0.0000 1.0000 0.0000 0.0000)">
</g>
<g transform="matrix(0.0625 0.0000 0.0000 0.0625 0.0000 0.0000)">
<path d="M 4346.0000,12736.0000 L 4153.0000,12736.0000 L 4250.0000,12929.0000 L 4346.0000,12736.0000 Z M 4250.0000,8114.0000 L 4250.0000,12736.0000 Z " fill="none" stroke="#000000" stroke-width="96.0000"  stroke-linecap="round"  stroke-linejoin="round" />
</g>
<g transform="matrix(1.0000 0.0000 0.0000 1.0000 0.0000 0.0000)">
</g>
<g transform="matrix(0.0625 0.0000 0.0000 0.0625 0.0000 0.0000)">
<path d="M 2834.0000,12721.0000 L 2641.0000,12721.0000 L 2738.0000,12915.0000 L 2834.0000,12721.0000 Z" stroke-width="1px" stroke="#000000"  fill="#000000" />
</g>
<g transform="matrix(1.0000 0.0000 0.0000 1.0000 0.0000 0.0000)">
</g>
<g transform="matrix(0.0625 0.0000 0.0000 0.0625 0.0000 0.0000)">
<path d="M 2834.0000,12721.0000 L 2641.0000,12721.0000 L 2738.0000,12915.0000 L 2834.0000,12721.0000 Z M 2738.0000,11403.0000 L 2738.0000,12721.0000 Z " fill="none" stroke="#000000" stroke-width="96.0000"  stroke-linecap="round"  stroke-linejoin="round" />
</g>
<g transform="matrix(1.0000 0.0000 0.0000 1.0000 0.0000 0.0000)">
</g>
<g transform="matrix(0.0000 1.0000 -1.0000 0.0000 976.3123 587.3876)">
<text font-family="Arial" fill="#000000" style ="white-space:pre;" font-weight="700" text-anchor="start" x="0.0000" y="0.0000" font-size="21.0000" ><![CDATA[Except SRB0]]></text>
</g>
<g transform="matrix(0.0625 0.0000 0.0000 0.0625 0.0000 0.0000)">
<path d="M 16334.0000,6625.0000 L 16334.0000,6431.0000 L 16141.0000,6528.0000 L 16334.0000,6625.0000 Z" stroke-width="1px" stroke="#000000"  fill="#000000" />
</g>
<g transform="matrix(1.0000 0.0000 0.0000 1.0000 0.0000 0.0000)">
</g>
<g transform="matrix(0.0625 0.0000 0.0000 0.0625 0.0000 0.0000)">
<path d="M 16334.0000,6625.0000 L 16334.0000,6431.0000 L 16141.0000,6528.0000 L 16334.0000,6625.0000 Z M 17470.0000,6528.0000 L 16334.0000,6528.0000 Z " fill="none" stroke="#000000" stroke-width="96.0000"  stroke-linecap="round"  stroke-linejoin="round" />
</g>
<g transform="matrix(1.0000 0.0000 0.0000 1.0000 0.0000 0.0000)">
</g>
<g transform="matrix(0.0625 0.0000 0.0000 0.0625 0.0000 0.0000)">
<path d="M 17470.0000,6528.0000 L 17470.0000,11497.0000 " stroke="#000000" stroke-width="96.0000"  stroke-linecap="round"  stroke-linejoin="round" fill="none" />
</g>
<g transform="matrix(1.0000 0.0000 0.0000 1.0000 0.0000 0.0000)">
</g>
<g transform="matrix(0.0000 1.0000 -1.0000 0.0000 1099.2778 625.3303)">
<text font-family="Arial" fill="#000000" style ="white-space:pre;" font-weight="700" text-anchor="start" x="0.0000" y="0.0000" font-size="21.0000" ><![CDATA[SRB0]]></text>
</g>
<g transform="matrix(0.0625 0.0000 0.0000 0.0625 0.0000 0.0000)">
<path d="M 7110.0000,6643.0000 L 6917.0000,6643.0000 L 7013.0000,6836.0000 L 7110.0000,6643.0000 Z" stroke-width="1px" stroke="#000000"  fill="#000000" />
</g>
<g transform="matrix(1.0000 0.0000 0.0000 1.0000 0.0000 0.0000)">
</g>
<g transform="matrix(0.0625 0.0000 0.0000 0.0625 0.0000 0.0000)">
<path d="M 7110.0000,6643.0000 L 6917.0000,6643.0000 L 7013.0000,6836.0000 L 7110.0000,6643.0000 Z M 7013.0000,5457.0000 L 7013.0000,6643.0000 Z " fill="none" stroke="#000000" stroke-width="96.0000"  stroke-linecap="round"  stroke-linejoin="round" />
</g>
<g transform="matrix(1.0000 0.0000 0.0000 1.0000 0.0000 0.0000)">
</g>
<g transform="matrix(0.0625 0.0000 0.0000 0.0625 0.0000 0.0000)">
<path d="M 2834.0000,6296.0000 L 2641.0000,6296.0000 L 2738.0000,6490.0000 L 2834.0000,6296.0000 Z" stroke-width="1px" stroke="#000000"  fill="#000000" />
</g>
<g transform="matrix(1.0000 0.0000 0.0000 1.0000 0.0000 0.0000)">
</g>
<g transform="matrix(0.0625 0.0000 0.0000 0.0625 0.0000 0.0000)">
<path d="M 2834.0000,6296.0000 L 2641.0000,6296.0000 L 2738.0000,6490.0000 L 2834.0000,6296.0000 Z M 2738.0000,5477.0000 L 2738.0000,6296.0000 Z " fill="none" stroke="#000000" stroke-width="96.0000"  stroke-linecap="round"  stroke-linejoin="round" />
</g>
<g transform="matrix(1.0000 0.0000 0.0000 1.0000 0.0000 0.0000)">
</g>
</g>
</svg>
