<?xml version="1.0"  encoding="UTF-8" standalone="no"?>
<svg version="1.1" xmlns="http://www.w3.org/2000/svg" xmlns:xlink="http://www.w3.org/1999/xlink" width="483.0000" height="402.0000">
<g transform="translate(-27.0000, -8.0000)">
<path d="M 73.0000,374.0000 L 73.0000,32.0000 L 507.0000,32.0000 L 507.0000,374.0000 Z" stroke-width="1px" stroke="#FFFFFF"  fill="#FFFFFF" />
<path d="M 73.0000,374.0000 L 73.0000,32.0000 L 507.0000,32.0000 L 507.0000,374.0000 L 73.0000,374.0000 " stroke="#FFFFFF" stroke-width="1.0000"  stroke-linecap="round"  stroke-linejoin="round" fill="none" />
<path d="M 73.0000,374.0000 L 73.0000,32.0000 " stroke="#000000" stroke-width="1.0000" stroke-dasharray="1.0000,1.0000"  stroke-linecap="round"  stroke-linejoin="round"  fill="none" />
<path d="M 116.0000,374.0000 L 116.0000,32.0000 " stroke="#000000" stroke-width="1.0000" stroke-dasharray="1.0000,1.0000"  stroke-linecap="round"  stroke-linejoin="round"  fill="none" />
<path d="M 159.0000,374.0000 L 159.0000,32.0000 " stroke="#000000" stroke-width="1.0000" stroke-dasharray="1.0000,1.0000"  stroke-linecap="round"  stroke-linejoin="round"  fill="none" />
<path d="M 203.0000,374.0000 L 203.0000,32.0000 " stroke="#000000" stroke-width="1.0000" stroke-dasharray="1.0000,1.0000"  stroke-linecap="round"  stroke-linejoin="round"  fill="none" />
<path d="M 246.0000,374.0000 L 246.0000,32.0000 " stroke="#000000" stroke-width="1.0000" stroke-dasharray="1.0000,1.0000"  stroke-linecap="round"  stroke-linejoin="round"  fill="none" />
<path d="M 290.0000,374.0000 L 290.0000,32.0000 " stroke="#000000" stroke-width="1.0000" stroke-dasharray="1.0000,1.0000"  stroke-linecap="round"  stroke-linejoin="round"  fill="none" />
<path d="M 333.0000,374.0000 L 333.0000,32.0000 " stroke="#000000" stroke-width="1.0000" stroke-dasharray="1.0000,1.0000"  stroke-linecap="round"  stroke-linejoin="round"  fill="none" />
<path d="M 376.0000,374.0000 L 376.0000,32.0000 " stroke="#000000" stroke-width="1.0000" stroke-dasharray="1.0000,1.0000"  stroke-linecap="round"  stroke-linejoin="round"  fill="none" />
<path d="M 420.0000,374.0000 L 420.0000,32.0000 " stroke="#000000" stroke-width="1.0000" stroke-dasharray="1.0000,1.0000"  stroke-linecap="round"  stroke-linejoin="round"  fill="none" />
<path d="M 463.0000,374.0000 L 463.0000,32.0000 " stroke="#000000" stroke-width="1.0000" stroke-dasharray="1.0000,1.0000"  stroke-linecap="round"  stroke-linejoin="round"  fill="none" />
<path d="M 507.0000,374.0000 L 507.0000,32.0000 " stroke="#000000" stroke-width="1.0000" stroke-dasharray="1.0000,1.0000"  stroke-linecap="round"  stroke-linejoin="round"  fill="none" />
<path d="M 73.0000,374.0000 L 507.0000,374.0000 " stroke="#000000" stroke-width="1.0000" stroke-dasharray="1.0000,1.0000"  stroke-linecap="round"  stroke-linejoin="round"  fill="none" />
<path d="M 73.0000,339.0000 L 507.0000,339.0000 " stroke="#000000" stroke-width="1.0000" stroke-dasharray="1.0000,1.0000"  stroke-linecap="round"  stroke-linejoin="round"  fill="none" />
<path d="M 73.0000,305.0000 L 507.0000,305.0000 " stroke="#000000" stroke-width="1.0000" stroke-dasharray="1.0000,1.0000"  stroke-linecap="round"  stroke-linejoin="round"  fill="none" />
<path d="M 73.0000,271.0000 L 507.0000,271.0000 " stroke="#000000" stroke-width="1.0000" stroke-dasharray="1.0000,1.0000"  stroke-linecap="round"  stroke-linejoin="round"  fill="none" />
<path d="M 73.0000,237.0000 L 507.0000,237.0000 " stroke="#000000" stroke-width="1.0000" stroke-dasharray="1.0000,1.0000"  stroke-linecap="round"  stroke-linejoin="round"  fill="none" />
<path d="M 73.0000,203.0000 L 507.0000,203.0000 " stroke="#000000" stroke-width="1.0000" stroke-dasharray="1.0000,1.0000"  stroke-linecap="round"  stroke-linejoin="round"  fill="none" />
<path d="M 73.0000,168.0000 L 507.0000,168.0000 " stroke="#000000" stroke-width="1.0000" stroke-dasharray="1.0000,1.0000"  stroke-linecap="round"  stroke-linejoin="round"  fill="none" />
<path d="M 73.0000,134.0000 L 507.0000,134.0000 " stroke="#000000" stroke-width="1.0000" stroke-dasharray="1.0000,1.0000"  stroke-linecap="round"  stroke-linejoin="round"  fill="none" />
<path d="M 73.0000,100.0000 L 507.0000,100.0000 " stroke="#000000" stroke-width="1.0000" stroke-dasharray="1.0000,1.0000"  stroke-linecap="round"  stroke-linejoin="round"  fill="none" />
<path d="M 73.0000,66.0000 L 507.0000,66.0000 " stroke="#000000" stroke-width="1.0000" stroke-dasharray="1.0000,1.0000"  stroke-linecap="round"  stroke-linejoin="round"  fill="none" />
<path d="M 73.0000,32.0000 L 507.0000,32.0000 " stroke="#000000" stroke-width="1.0000" stroke-dasharray="1.0000,1.0000"  stroke-linecap="round"  stroke-linejoin="round"  fill="none" />
<path d="M 73.0000,32.0000 L 507.0000,32.0000 " stroke="#000000" stroke-width="1.0000"  stroke-linecap="round"  stroke-linejoin="round"  fill="none" />
<path d="M 73.0000,374.0000 L 507.0000,374.0000 " stroke="#000000" stroke-width="1.0000"  stroke-linecap="round"  stroke-linejoin="round"  fill="none" />
<path d="M 507.0000,374.0000 L 507.0000,32.0000 " stroke="#000000" stroke-width="1.0000"  stroke-linecap="round"  stroke-linejoin="round"  fill="none" />
<path d="M 73.0000,374.0000 L 73.0000,32.0000 " stroke="#000000" stroke-width="1.0000"  stroke-linecap="round"  stroke-linejoin="round"  fill="none" />
<path d="M 73.0000,374.0000 L 507.0000,374.0000 " stroke="#000000" stroke-width="1.0000"  stroke-linecap="round"  stroke-linejoin="round"  fill="none" />
<path d="M 73.0000,374.0000 L 73.0000,32.0000 " stroke="#000000" stroke-width="1.0000"  stroke-linecap="round"  stroke-linejoin="round"  fill="none" />
<path d="M 73.0000,374.0000 L 73.0000,369.0000 " stroke="#000000" stroke-width="1.0000"  stroke-linecap="round"  stroke-linejoin="round"  fill="none" />
<path d="M 73.0000,32.0000 L 73.0000,36.0000 " stroke="#000000" stroke-width="1.0000"  stroke-linecap="round"  stroke-linejoin="round"  fill="none" />
<text font-family="Helvetica" fill="#000000" style ="white-space:pre;" font-weight="400" text-anchor="start" x="70.0000" y="388.7000" font-size="13.0000" ><![CDATA[0]]></text>
<path d="M 116.0000,374.0000 L 116.0000,369.0000 " stroke="#000000" stroke-width="1.0000"  stroke-linecap="round"  stroke-linejoin="round"  fill="none" />
<path d="M 116.0000,32.0000 L 116.0000,36.0000 " stroke="#000000" stroke-width="1.0000"  stroke-linecap="round"  stroke-linejoin="round"  fill="none" />
<text font-family="Helvetica" fill="#000000" style ="white-space:pre;" font-weight="400" text-anchor="start" x="107.0000" y="388.7000" font-size="13.0000" ><![CDATA[0.5]]></text>
<path d="M 159.0000,374.0000 L 159.0000,369.0000 " stroke="#000000" stroke-width="1.0000"  stroke-linecap="round"  stroke-linejoin="round"  fill="none" />
<path d="M 159.0000,32.0000 L 159.0000,36.0000 " stroke="#000000" stroke-width="1.0000"  stroke-linecap="round"  stroke-linejoin="round"  fill="none" />
<text font-family="Helvetica" fill="#000000" style ="white-space:pre;" font-weight="400" text-anchor="start" x="156.0000" y="388.7000" font-size="13.0000" ><![CDATA[1]]></text>
<path d="M 203.0000,374.0000 L 203.0000,369.0000 " stroke="#000000" stroke-width="1.0000"  stroke-linecap="round"  stroke-linejoin="round"  fill="none" />
<path d="M 203.0000,32.0000 L 203.0000,36.0000 " stroke="#000000" stroke-width="1.0000"  stroke-linecap="round"  stroke-linejoin="round"  fill="none" />
<text font-family="Helvetica" fill="#000000" style ="white-space:pre;" font-weight="400" text-anchor="start" x="194.0000" y="388.7000" font-size="13.0000" ><![CDATA[1.5]]></text>
<path d="M 246.0000,374.0000 L 246.0000,369.0000 " stroke="#000000" stroke-width="1.0000"  stroke-linecap="round"  stroke-linejoin="round"  fill="none" />
<path d="M 246.0000,32.0000 L 246.0000,36.0000 " stroke="#000000" stroke-width="1.0000"  stroke-linecap="round"  stroke-linejoin="round"  fill="none" />
<text font-family="Helvetica" fill="#000000" style ="white-space:pre;" font-weight="400" text-anchor="start" x="243.0000" y="388.7000" font-size="13.0000" ><![CDATA[2]]></text>
<path d="M 290.0000,374.0000 L 290.0000,369.0000 " stroke="#000000" stroke-width="1.0000"  stroke-linecap="round"  stroke-linejoin="round"  fill="none" />
<path d="M 290.0000,32.0000 L 290.0000,36.0000 " stroke="#000000" stroke-width="1.0000"  stroke-linecap="round"  stroke-linejoin="round"  fill="none" />
<text font-family="Helvetica" fill="#000000" style ="white-space:pre;" font-weight="400" text-anchor="start" x="281.0000" y="388.7000" font-size="13.0000" ><![CDATA[2.5]]></text>
<path d="M 333.0000,374.0000 L 333.0000,369.0000 " stroke="#000000" stroke-width="1.0000"  stroke-linecap="round"  stroke-linejoin="round"  fill="none" />
<path d="M 333.0000,32.0000 L 333.0000,36.0000 " stroke="#000000" stroke-width="1.0000"  stroke-linecap="round"  stroke-linejoin="round"  fill="none" />
<text font-family="Helvetica" fill="#000000" style ="white-space:pre;" font-weight="400" text-anchor="start" x="330.0000" y="388.7000" font-size="13.0000" ><![CDATA[3]]></text>
<path d="M 376.0000,374.0000 L 376.0000,369.0000 " stroke="#000000" stroke-width="1.0000"  stroke-linecap="round"  stroke-linejoin="round"  fill="none" />
<path d="M 376.0000,32.0000 L 376.0000,36.0000 " stroke="#000000" stroke-width="1.0000"  stroke-linecap="round"  stroke-linejoin="round"  fill="none" />
<text font-family="Helvetica" fill="#000000" style ="white-space:pre;" font-weight="400" text-anchor="start" x="367.0000" y="388.7000" font-size="13.0000" ><![CDATA[3.5]]></text>
<path d="M 420.0000,374.0000 L 420.0000,369.0000 " stroke="#000000" stroke-width="1.0000"  stroke-linecap="round"  stroke-linejoin="round"  fill="none" />
<path d="M 420.0000,32.0000 L 420.0000,36.0000 " stroke="#000000" stroke-width="1.0000"  stroke-linecap="round"  stroke-linejoin="round"  fill="none" />
<text font-family="Helvetica" fill="#000000" style ="white-space:pre;" font-weight="400" text-anchor="start" x="417.0000" y="388.7000" font-size="13.0000" ><![CDATA[4]]></text>
<path d="M 463.0000,374.0000 L 463.0000,369.0000 " stroke="#000000" stroke-width="1.0000"  stroke-linecap="round"  stroke-linejoin="round"  fill="none" />
<path d="M 463.0000,32.0000 L 463.0000,36.0000 " stroke="#000000" stroke-width="1.0000"  stroke-linecap="round"  stroke-linejoin="round"  fill="none" />
<text font-family="Helvetica" fill="#000000" style ="white-space:pre;" font-weight="400" text-anchor="start" x="454.0000" y="388.7000" font-size="13.0000" ><![CDATA[4.5]]></text>
<path d="M 507.0000,374.0000 L 507.0000,369.0000 " stroke="#000000" stroke-width="1.0000"  stroke-linecap="round"  stroke-linejoin="round"  fill="none" />
<path d="M 507.0000,32.0000 L 507.0000,36.0000 " stroke="#000000" stroke-width="1.0000"  stroke-linecap="round"  stroke-linejoin="round"  fill="none" />
<text font-family="Helvetica" fill="#000000" style ="white-space:pre;" font-weight="400" text-anchor="start" x="504.0000" y="388.7000" font-size="13.0000" ><![CDATA[5]]></text>
<path d="M 73.0000,374.0000 L 77.0000,374.0000 " stroke="#000000" stroke-width="1.0000"  stroke-linecap="round"  stroke-linejoin="round"  fill="none" />
<path d="M 507.0000,374.0000 L 502.0000,374.0000 " stroke="#000000" stroke-width="1.0000"  stroke-linecap="round"  stroke-linejoin="round"  fill="none" />
<text font-family="Helvetica" fill="#000000" style ="white-space:pre;" font-weight="400" text-anchor="start" x="62.0000" y="377.7000" font-size="13.0000" ><![CDATA[0]]></text>
<path d="M 73.0000,339.0000 L 77.0000,339.0000 " stroke="#000000" stroke-width="1.0000"  stroke-linecap="round"  stroke-linejoin="round"  fill="none" />
<path d="M 507.0000,339.0000 L 502.0000,339.0000 " stroke="#000000" stroke-width="1.0000"  stroke-linecap="round"  stroke-linejoin="round"  fill="none" />
<text font-family="Helvetica" fill="#000000" style ="white-space:pre;" font-weight="400" text-anchor="start" x="51.0000" y="342.7000" font-size="13.0000" ><![CDATA[0.1]]></text>
<path d="M 73.0000,305.0000 L 77.0000,305.0000 " stroke="#000000" stroke-width="1.0000"  stroke-linecap="round"  stroke-linejoin="round"  fill="none" />
<path d="M 507.0000,305.0000 L 502.0000,305.0000 " stroke="#000000" stroke-width="1.0000"  stroke-linecap="round"  stroke-linejoin="round"  fill="none" />
<text font-family="Helvetica" fill="#000000" style ="white-space:pre;" font-weight="400" text-anchor="start" x="51.0000" y="308.7000" font-size="13.0000" ><![CDATA[0.2]]></text>
<path d="M 73.0000,271.0000 L 77.0000,271.0000 " stroke="#000000" stroke-width="1.0000"  stroke-linecap="round"  stroke-linejoin="round"  fill="none" />
<path d="M 507.0000,271.0000 L 502.0000,271.0000 " stroke="#000000" stroke-width="1.0000"  stroke-linecap="round"  stroke-linejoin="round"  fill="none" />
<text font-family="Helvetica" fill="#000000" style ="white-space:pre;" font-weight="400" text-anchor="start" x="51.0000" y="274.7000" font-size="13.0000" ><![CDATA[0.3]]></text>
<path d="M 73.0000,237.0000 L 77.0000,237.0000 " stroke="#000000" stroke-width="1.0000"  stroke-linecap="round"  stroke-linejoin="round"  fill="none" />
<path d="M 507.0000,237.0000 L 502.0000,237.0000 " stroke="#000000" stroke-width="1.0000"  stroke-linecap="round"  stroke-linejoin="round"  fill="none" />
<text font-family="Helvetica" fill="#000000" style ="white-space:pre;" font-weight="400" text-anchor="start" x="51.0000" y="240.7000" font-size="13.0000" ><![CDATA[0.4]]></text>
<path d="M 73.0000,203.0000 L 77.0000,203.0000 " stroke="#000000" stroke-width="1.0000"  stroke-linecap="round"  stroke-linejoin="round"  fill="none" />
<path d="M 507.0000,203.0000 L 502.0000,203.0000 " stroke="#000000" stroke-width="1.0000"  stroke-linecap="round"  stroke-linejoin="round"  fill="none" />
<text font-family="Helvetica" fill="#000000" style ="white-space:pre;" font-weight="400" text-anchor="start" x="51.0000" y="206.7000" font-size="13.0000" ><![CDATA[0.5]]></text>
<path d="M 73.0000,168.0000 L 77.0000,168.0000 " stroke="#000000" stroke-width="1.0000"  stroke-linecap="round"  stroke-linejoin="round"  fill="none" />
<path d="M 507.0000,168.0000 L 502.0000,168.0000 " stroke="#000000" stroke-width="1.0000"  stroke-linecap="round"  stroke-linejoin="round"  fill="none" />
<text font-family="Helvetica" fill="#000000" style ="white-space:pre;" font-weight="400" text-anchor="start" x="51.0000" y="171.7000" font-size="13.0000" ><![CDATA[0.6]]></text>
<path d="M 73.0000,134.0000 L 77.0000,134.0000 " stroke="#000000" stroke-width="1.0000"  stroke-linecap="round"  stroke-linejoin="round"  fill="none" />
<path d="M 507.0000,134.0000 L 502.0000,134.0000 " stroke="#000000" stroke-width="1.0000"  stroke-linecap="round"  stroke-linejoin="round"  fill="none" />
<text font-family="Helvetica" fill="#000000" style ="white-space:pre;" font-weight="400" text-anchor="start" x="51.0000" y="137.7000" font-size="13.0000" ><![CDATA[0.7]]></text>
<path d="M 73.0000,100.0000 L 77.0000,100.0000 " stroke="#000000" stroke-width="1.0000"  stroke-linecap="round"  stroke-linejoin="round"  fill="none" />
<path d="M 507.0000,100.0000 L 502.0000,100.0000 " stroke="#000000" stroke-width="1.0000"  stroke-linecap="round"  stroke-linejoin="round"  fill="none" />
<text font-family="Helvetica" fill="#000000" style ="white-space:pre;" font-weight="400" text-anchor="start" x="51.0000" y="103.7000" font-size="13.0000" ><![CDATA[0.8]]></text>
<path d="M 73.0000,66.0000 L 77.0000,66.0000 " stroke="#000000" stroke-width="1.0000"  stroke-linecap="round"  stroke-linejoin="round"  fill="none" />
<path d="M 507.0000,66.0000 L 502.0000,66.0000 " stroke="#000000" stroke-width="1.0000"  stroke-linecap="round"  stroke-linejoin="round"  fill="none" />
<text font-family="Helvetica" fill="#000000" style ="white-space:pre;" font-weight="400" text-anchor="start" x="51.0000" y="69.7000" font-size="13.0000" ><![CDATA[0.9]]></text>
<path d="M 73.0000,32.0000 L 77.0000,32.0000 " stroke="#000000" stroke-width="1.0000"  stroke-linecap="round"  stroke-linejoin="round"  fill="none" />
<path d="M 507.0000,32.0000 L 502.0000,32.0000 " stroke="#000000" stroke-width="1.0000"  stroke-linecap="round"  stroke-linejoin="round"  fill="none" />
<text font-family="Helvetica" fill="#000000" style ="white-space:pre;" font-weight="400" text-anchor="start" x="62.0000" y="35.7000" font-size="13.0000" ><![CDATA[1]]></text>
<path d="M 73.0000,32.0000 L 507.0000,32.0000 " stroke="#000000" stroke-width="1.0000"  stroke-linecap="round"  stroke-linejoin="round"  fill="none" />
<path d="M 73.0000,374.0000 L 507.0000,374.0000 " stroke="#000000" stroke-width="1.0000"  stroke-linecap="round"  stroke-linejoin="round"  fill="none" />
<path d="M 507.0000,374.0000 L 507.0000,32.0000 " stroke="#000000" stroke-width="1.0000"  stroke-linecap="round"  stroke-linejoin="round"  fill="none" />
<path d="M 73.0000,374.0000 L 73.0000,32.0000 " stroke="#000000" stroke-width="1.0000"  stroke-linecap="round"  stroke-linejoin="round"  fill="none" />
<path d="M 73.0000,32.0000 L 81.0000,33.0000 L 90.0000,38.0000 L 99.0000,44.0000 L 107.0000,53.0000 L 116.0000,64.0000 L 125.0000,75.0000 L 133.0000,88.0000 L 142.0000,102.0000 L 151.0000,117.0000 L 159.0000,132.0000 L 168.0000,148.0000 L 177.0000,164.0000 L 185.0000,179.0000 L 194.0000,193.0000 L 203.0000,207.0000 L 211.0000,220.0000 L 220.0000,231.0000 L 229.0000,241.0000 L 237.0000,250.0000 L 246.0000,258.0000 L 255.0000,265.0000 L 263.0000,272.0000 L 272.0000,279.0000 L 281.0000,285.0000 L 290.0000,292.0000 L 298.0000,299.0000 L 307.0000,306.0000 L 316.0000,313.0000 L 324.0000,319.0000 L 333.0000,326.0000 L 342.0000,332.0000 L 350.0000,338.0000 L 359.0000,343.0000 L 368.0000,348.0000 L 376.0000,351.0000 L 385.0000,354.0000 L 394.0000,356.0000 L 402.0000,358.0000 L 411.0000,359.0000 L 420.0000,360.0000 L 428.0000,361.0000 L 437.0000,361.0000 L 446.0000,361.0000 L 454.0000,359.0000 L 463.0000,356.0000 L 472.0000,353.0000 L 480.0000,349.0000 L 489.0000,344.0000 L 498.0000,341.0000 L 507.0000,337.0000 " stroke="#FF0000" stroke-width="1.0000"  stroke-linecap="round"  stroke-linejoin="round" fill="none" />
<path d="M 73.0000,32.0000 L 81.0000,32.0000 L 90.0000,32.0000 L 99.0000,32.0000 L 107.0000,32.0000 L 116.0000,32.0000 L 125.0000,41.0000 L 133.0000,54.0000 L 142.0000,68.0000 L 151.0000,83.0000 L 159.0000,98.0000 L 168.0000,114.0000 L 177.0000,129.0000 L 185.0000,145.0000 L 194.0000,159.0000 L 203.0000,173.0000 L 211.0000,185.0000 L 220.0000,197.0000 L 229.0000,207.0000 L 237.0000,216.0000 L 246.0000,224.0000 L 255.0000,231.0000 L 263.0000,238.0000 L 272.0000,245.0000 L 281.0000,251.0000 L 290.0000,258.0000 L 298.0000,264.0000 L 307.0000,271.0000 L 316.0000,271.0000 L 324.0000,271.0000 L 333.0000,271.0000 L 342.0000,271.0000 L 350.0000,271.0000 L 359.0000,271.0000 L 368.0000,271.0000 L 376.0000,271.0000 L 385.0000,271.0000 L 394.0000,271.0000 L 402.0000,271.0000 L 411.0000,271.0000 L 420.0000,271.0000 L 428.0000,271.0000 L 437.0000,271.0000 L 446.0000,271.0000 L 454.0000,271.0000 L 463.0000,271.0000 L 472.0000,271.0000 L 480.0000,271.0000 L 489.0000,271.0000 L 498.0000,271.0000 L 507.0000,271.0000 " stroke="#0000FF" stroke-width="2.0000"  stroke-linecap="butt"  stroke-linejoin="round" fill="none" />
<path d="M 73.0000,66.0000 L 81.0000,67.0000 L 90.0000,72.0000 L 99.0000,79.0000 L 107.0000,88.0000 L 116.0000,98.0000 L 125.0000,109.0000 L 133.0000,122.0000 L 142.0000,136.0000 L 151.0000,151.0000 L 159.0000,167.0000 L 168.0000,182.0000 L 177.0000,198.0000 L 185.0000,213.0000 L 194.0000,227.0000 L 203.0000,241.0000 L 211.0000,254.0000 L 220.0000,265.0000 L 229.0000,275.0000 L 237.0000,284.0000 L 246.0000,292.0000 L 255.0000,300.0000 L 263.0000,306.0000 L 272.0000,313.0000 L 281.0000,319.0000 L 290.0000,326.0000 L 298.0000,333.0000 L 307.0000,374.0000 L 316.0000,374.0000 L 324.0000,374.0000 L 333.0000,374.0000 L 342.0000,374.0000 L 350.0000,374.0000 L 359.0000,374.0000 L 368.0000,374.0000 L 376.0000,374.0000 L 385.0000,374.0000 L 394.0000,374.0000 L 402.0000,374.0000 L 411.0000,374.0000 L 420.0000,374.0000 L 428.0000,374.0000 L 437.0000,374.0000 L 446.0000,374.0000 L 454.0000,374.0000 L 463.0000,374.0000 L 472.0000,374.0000 L 480.0000,374.0000 L 489.0000,374.0000 L 498.0000,374.0000 L 507.0000,374.0000 " stroke="#00FF00" stroke-width="2.0000"  stroke-linecap="butt"  stroke-linejoin="round" fill="none" />
<text font-family="Helvetica" fill="#000000" style ="white-space:pre;" font-weight="400" text-anchor="start" x="193.0000" y="20.7000" font-size="13.0000" ><![CDATA[CDL-C UMi beam 1 at ]]></text>
<text font-family="Symbol" fill="#000000" style ="white-space:pre;" font-weight="400" text-anchor="start" x="324.0000" y="20.6000" font-size="14.0000" ><![CDATA[]]></text>
<text font-family="Helvetica" fill="#000000" style ="white-space:pre;" font-weight="400" text-anchor="start" x="332.0000" y="20.7000" font-size="13.0000" ><![CDATA[ 2.5 GHz]]></text>
<text font-family="Symbol" fill="#000000" style ="white-space:pre;" font-weight="400" text-anchor="start" x="285.0000" y="406.6000" font-size="14.0000" ><![CDATA[]]></text>
<text font-family="Symbol" fill="#000000" transform="rotate(-90, 27.0000, 220.6000) translate(0, 12.6000)" style ="white-space:pre;" font-weight="400" text-anchor="start" x="27.0000" y="220.6000" font-size="14.0000" ><![CDATA[]]></text>
</g>
</svg>
