<?xml version="1.0"  encoding="UTF-8" standalone="no"?>
<svg version="1.1" xmlns="http://www.w3.org/2000/svg" xmlns:xlink="http://www.w3.org/1999/xlink" width="738.0000" height="326.0000">
<g transform="translate(-20.0000, -13.0000)">
<g transform="matrix(0.0625 0.0000 0.0000 0.0625 0.0000 0.0000)">
<path d="M 788.0000,3056.0000 L 11995.0000,3056.0000 " stroke="#000000" stroke-width="20.0000"  stroke-linecap="round"  stroke-linejoin="round" fill="none" />
</g>
<g transform="matrix(1.0000 0.0000 0.0000 1.0000 0.0000 0.0000)">
</g>
<g transform="matrix(0.0625 0.0000 0.0000 0.0625 0.0000 0.0000)">
<path d="M 12127.0000,3056.0000 L 11953.0000,3143.0000 C 11980.0000,3088.0000 11980.0000,3024.0000 11953.0000,2969.0000 L 12127.0000,3056.0000 Z "  fill="#000000" stroke="none" />
</g>
<g transform="matrix(1.0000 0.0000 0.0000 1.0000 0.0000 0.0000)">
</g>
<g transform="matrix(0.0625 0.0000 0.0000 0.0625 0.0000 0.0000)">
<path d="M 637.0000,788.0000 L 637.0000,1393.0000 L 940.0000,1393.0000 L 940.0000,788.0000 L 637.0000,788.0000 Z" stroke-width="1px" stroke="#FFFFFF"  fill="#FFFFFF" />
</g>
<g transform="matrix(1.0000 0.0000 0.0000 1.0000 0.0000 0.0000)">
</g>
<g transform="matrix(0.0625 0.0000 0.0000 0.0625 0.0000 0.0000)">
<path d="M 637.0000,1393.0000 L 940.0000,1393.0000 L 940.0000,788.0000 L 637.0000,788.0000 L 637.0000,1393.0000 Z" stroke="#000000" stroke-width="20.0000"  stroke-linecap="round"  stroke-linejoin="round" fill="none" />
</g>
<g transform="matrix(1.0000 0.0000 0.0000 1.0000 0.0000 0.0000)">
</g>
<g transform="matrix(1.0000 0.0000 0.0000 1.0000 20.3445 32.1223)">
<text font-family="Calibri" fill="#000000" style ="white-space:pre;" font-weight="400" text-anchor="start" x="0.0000" y="0.0000" font-size="20.0000" ><![CDATA[RRH #0]]></text>
</g>
<g transform="matrix(0.0625 0.0000 0.0000 0.0625 0.0000 0.0000)">
<path d="M 2149.0000,788.0000 L 2149.0000,1393.0000 L 2451.0000,1393.0000 L 2451.0000,788.0000 L 2149.0000,788.0000 Z" stroke-width="1px" stroke="#FFFFFF"  fill="#FFFFFF" />
</g>
<g transform="matrix(1.0000 0.0000 0.0000 1.0000 0.0000 0.0000)">
</g>
<g transform="matrix(0.0625 0.0000 0.0000 0.0625 0.0000 0.0000)">
<path d="M 2149.0000,1393.0000 L 2451.0000,1393.0000 L 2451.0000,788.0000 L 2149.0000,788.0000 L 2149.0000,1393.0000 Z" stroke="#000000" stroke-width="20.0000"  stroke-linecap="round"  stroke-linejoin="round" fill="none" />
</g>
<g transform="matrix(1.0000 0.0000 0.0000 1.0000 0.0000 0.0000)">
</g>
<g transform="matrix(1.0000 0.0000 0.0000 1.0000 114.8327 32.1223)">
<text font-family="Calibri" fill="#000000" style ="white-space:pre;" font-weight="400" text-anchor="start" x="0.0000" y="0.0000" font-size="20.0000" ><![CDATA[RRH #1]]></text>
</g>
<g transform="matrix(0.0625 0.0000 0.0000 0.0625 0.0000 0.0000)">
<path d="M 3661.0000,788.0000 L 3661.0000,1393.0000 L 3963.0000,1393.0000 L 3963.0000,788.0000 L 3661.0000,788.0000 Z" stroke-width="1px" stroke="#FFFFFF"  fill="#FFFFFF" />
</g>
<g transform="matrix(1.0000 0.0000 0.0000 1.0000 0.0000 0.0000)">
</g>
<g transform="matrix(0.0625 0.0000 0.0000 0.0625 0.0000 0.0000)">
<path d="M 3661.0000,1393.0000 L 3963.0000,1393.0000 L 3963.0000,788.0000 L 3661.0000,788.0000 L 3661.0000,1393.0000 Z" stroke="#000000" stroke-width="20.0000"  stroke-linecap="round"  stroke-linejoin="round" fill="none" />
</g>
<g transform="matrix(1.0000 0.0000 0.0000 1.0000 0.0000 0.0000)">
</g>
<g transform="matrix(1.0000 0.0000 0.0000 1.0000 209.3209 32.1223)">
<text font-family="Calibri" fill="#000000" style ="white-space:pre;" font-weight="400" text-anchor="start" x="0.0000" y="0.0000" font-size="20.0000" ><![CDATA[RRH #2]]></text>
</g>
<g transform="matrix(0.0625 0.0000 0.0000 0.0625 0.0000 0.0000)">
<path d="M 5173.0000,788.0000 L 5173.0000,1393.0000 L 5475.0000,1393.0000 L 5475.0000,788.0000 L 5173.0000,788.0000 Z" stroke-width="1px" stroke="#FFFFFF"  fill="#FFFFFF" />
</g>
<g transform="matrix(1.0000 0.0000 0.0000 1.0000 0.0000 0.0000)">
</g>
<g transform="matrix(0.0625 0.0000 0.0000 0.0625 0.0000 0.0000)">
<path d="M 5173.0000,1393.0000 L 5475.0000,1393.0000 L 5475.0000,788.0000 L 5173.0000,788.0000 L 5173.0000,1393.0000 Z" stroke="#000000" stroke-width="20.0000"  stroke-linecap="round"  stroke-linejoin="round" fill="none" />
</g>
<g transform="matrix(1.0000 0.0000 0.0000 1.0000 0.0000 0.0000)">
</g>
<g transform="matrix(1.0000 0.0000 0.0000 1.0000 303.8091 32.1223)">
<text font-family="Calibri" fill="#000000" style ="white-space:pre;" font-weight="400" text-anchor="start" x="0.0000" y="0.0000" font-size="20.0000" ><![CDATA[RRH #3]]></text>
</g>
<g transform="matrix(0.0625 0.0000 0.0000 0.0625 0.0000 0.0000)">
<path d="M 6684.0000,788.0000 L 6684.0000,1393.0000 L 6987.0000,1393.0000 L 6987.0000,788.0000 L 6684.0000,788.0000 Z" stroke-width="1px" stroke="#FFFFFF"  fill="#FFFFFF" />
</g>
<g transform="matrix(1.0000 0.0000 0.0000 1.0000 0.0000 0.0000)">
</g>
<g transform="matrix(0.0625 0.0000 0.0000 0.0625 0.0000 0.0000)">
<path d="M 6684.0000,1393.0000 L 6987.0000,1393.0000 L 6987.0000,788.0000 L 6684.0000,788.0000 L 6684.0000,1393.0000 Z" stroke="#000000" stroke-width="20.0000"  stroke-linecap="round"  stroke-linejoin="round" fill="none" />
</g>
<g transform="matrix(1.0000 0.0000 0.0000 1.0000 0.0000 0.0000)">
</g>
<g transform="matrix(1.0000 0.0000 0.0000 1.0000 390.6897 32.1223)">
<text font-family="Calibri" fill="#000000" style ="white-space:pre;" font-weight="400" text-anchor="start" x="0.0000" y="0.0000" font-size="20.0000" ><![CDATA[RRH #k]]></text>
</g>
<g transform="matrix(1.0000 0.0000 0.0000 1.0000 448.4439 32.1223)">
<text font-family="Calibri" fill="#000000" style ="white-space:pre;" font-weight="400" text-anchor="start" x="0.0000" y="0.0000" font-size="20.0000" ><![CDATA[-]]></text>
</g>
<g transform="matrix(1.0000 0.0000 0.0000 1.0000 454.5670 32.1223)">
<text font-family="Calibri" fill="#000000" style ="white-space:pre;" font-weight="400" text-anchor="start" x="0.0000" y="0.0000" font-size="20.0000" ><![CDATA[1]]></text>
</g>
<g transform="matrix(0.0625 0.0000 0.0000 0.0625 0.0000 0.0000)">
<path d="M 8196.0000,788.0000 L 8196.0000,1393.0000 L 8499.0000,1393.0000 L 8499.0000,788.0000 L 8196.0000,788.0000 Z" stroke-width="1px" stroke="#FFFFFF"  fill="#FFFFFF" />
</g>
<g transform="matrix(1.0000 0.0000 0.0000 1.0000 0.0000 0.0000)">
</g>
<g transform="matrix(0.0625 0.0000 0.0000 0.0625 0.0000 0.0000)">
<path d="M 8196.0000,1393.0000 L 8499.0000,1393.0000 L 8499.0000,788.0000 L 8196.0000,788.0000 L 8196.0000,1393.0000 Z" stroke="#000000" stroke-width="20.0000"  stroke-linecap="round"  stroke-linejoin="round" fill="none" />
</g>
<g transform="matrix(1.0000 0.0000 0.0000 1.0000 0.0000 0.0000)">
</g>
<g transform="matrix(1.0000 0.0000 0.0000 1.0000 493.3078 32.1223)">
<text font-family="Calibri" fill="#000000" style ="white-space:pre;" font-weight="400" text-anchor="start" x="0.0000" y="0.0000" font-size="20.0000" ><![CDATA[RRH #k]]></text>
</g>
<g transform="matrix(1.0000 0.0000 0.0000 1.0000 67.1780 306.1382)">
<text font-family="Calibri" fill="#000000" style ="white-space:pre;" font-weight="400" text-anchor="start" x="0.0000" y="0.0000" font-size="20.0000" ><![CDATA[(2k+1)*0.5Ds]]></text>
</g>
<g transform="matrix(0.0625 0.0000 0.0000 0.0625 0.0000 0.0000)">
<path d="M 2300.0000,1393.0000 L 788.0000,3056.0000 L 1544.0000,3056.0000 L 2300.0000,1393.0000 Z" stroke="#000000" stroke-width="20.0000"  stroke-linecap="round"  stroke-linejoin="round" fill="none" />
</g>
<g transform="matrix(1.0000 0.0000 0.0000 1.0000 0.0000 0.0000)">
</g>
<g transform="matrix(0.0625 0.0000 0.0000 0.0625 0.0000 0.0000)">
<path d="M 3812.0000,1393.0000 L 2300.0000,3056.0000 L 3056.0000,3056.0000 L 3812.0000,1393.0000 Z" stroke="#000000" stroke-width="20.0000"  stroke-linecap="round"  stroke-linejoin="round" fill="none" />
</g>
<g transform="matrix(1.0000 0.0000 0.0000 1.0000 0.0000 0.0000)">
</g>
<g transform="matrix(0.0625 0.0000 0.0000 0.0625 0.0000 0.0000)">
<path d="M 5324.0000,1393.0000 L 3812.0000,3056.0000 L 4568.0000,3056.0000 L 5324.0000,1393.0000 Z" stroke="#000000" stroke-width="20.0000"  stroke-linecap="round"  stroke-linejoin="round" fill="none" />
</g>
<g transform="matrix(1.0000 0.0000 0.0000 1.0000 0.0000 0.0000)">
</g>
<g transform="matrix(0.0625 0.0000 0.0000 0.0625 0.0000 0.0000)">
<path d="M 8347.0000,1393.0000 L 6836.0000,3056.0000 L 7592.0000,3056.0000 L 8347.0000,1393.0000 Z" stroke="#000000" stroke-width="20.0000"  stroke-linecap="round"  stroke-linejoin="round" fill="none" />
</g>
<g transform="matrix(1.0000 0.0000 0.0000 1.0000 0.0000 0.0000)">
</g>
<g transform="matrix(0.0625 0.0000 0.0000 0.0625 0.0000 0.0000)">
<path d="M 788.0000,1393.0000 L 2300.0000,3056.0000 L 1544.0000,3056.0000 L 788.0000,1393.0000 Z" stroke="#000000" stroke-width="20.0000"  stroke-linecap="round"  stroke-linejoin="round" fill="none" />
</g>
<g transform="matrix(1.0000 0.0000 0.0000 1.0000 0.0000 0.0000)">
</g>
<g transform="matrix(0.0625 0.0000 0.0000 0.0625 0.0000 0.0000)">
<path d="M 2300.0000,1393.0000 L 3812.0000,3056.0000 L 3056.0000,3056.0000 L 2300.0000,1393.0000 Z" stroke="#000000" stroke-width="20.0000"  stroke-linecap="round"  stroke-linejoin="round" fill="none" />
</g>
<g transform="matrix(1.0000 0.0000 0.0000 1.0000 0.0000 0.0000)">
</g>
<g transform="matrix(0.0625 0.0000 0.0000 0.0625 0.0000 0.0000)">
<path d="M 3812.0000,1393.0000 L 5324.0000,3056.0000 L 4568.0000,3056.0000 L 3812.0000,1393.0000 Z" stroke="#000000" stroke-width="20.0000"  stroke-linecap="round"  stroke-linejoin="round" fill="none" />
</g>
<g transform="matrix(1.0000 0.0000 0.0000 1.0000 0.0000 0.0000)">
</g>
<g transform="matrix(0.0625 0.0000 0.0000 0.0625 0.0000 0.0000)">
<path d="M 6836.0000,1393.0000 L 8347.0000,3056.0000 L 7592.0000,3056.0000 L 6836.0000,1393.0000 Z" stroke="#000000" stroke-width="20.0000"  stroke-linecap="round"  stroke-linejoin="round" fill="none" />
</g>
<g transform="matrix(1.0000 0.0000 0.0000 1.0000 0.0000 0.0000)">
</g>
<g transform="matrix(1.0000 0.0000 0.0000 1.0000 64.9922 210.6498)">
<text font-family="Calibri" fill="#000000" style ="white-space:pre;" font-weight="400" text-anchor="start" x="0.0000" y="0.0000" font-size="17.0000" ><![CDATA[#1]]></text>
</g>
<g transform="matrix(1.0000 0.0000 0.0000 1.0000 112.2363 210.6498)">
<text font-family="Calibri" fill="#000000" style ="white-space:pre;" font-weight="400" text-anchor="start" x="0.0000" y="0.0000" font-size="17.0000" ><![CDATA[#0]]></text>
</g>
<g transform="matrix(1.0000 0.0000 0.0000 1.0000 159.4804 210.6498)">
<text font-family="Calibri" fill="#000000" style ="white-space:pre;" font-weight="400" text-anchor="start" x="0.0000" y="0.0000" font-size="17.0000" ><![CDATA[#2]]></text>
</g>
<g transform="matrix(1.0000 0.0000 0.0000 1.0000 206.7245 210.6498)">
<text font-family="Calibri" fill="#000000" style ="white-space:pre;" font-weight="400" text-anchor="start" x="0.0000" y="0.0000" font-size="17.0000" ><![CDATA[#1]]></text>
</g>
<g transform="matrix(1.0000 0.0000 0.0000 1.0000 253.9686 210.6498)">
<text font-family="Calibri" fill="#000000" style ="white-space:pre;" font-weight="400" text-anchor="start" x="0.0000" y="0.0000" font-size="17.0000" ><![CDATA[#3]]></text>
</g>
<g transform="matrix(1.0000 0.0000 0.0000 1.0000 301.2127 210.6498)">
<text font-family="Calibri" fill="#000000" style ="white-space:pre;" font-weight="400" text-anchor="start" x="0.0000" y="0.0000" font-size="17.0000" ><![CDATA[#2]]></text>
</g>
<g transform="matrix(1.0000 0.0000 0.0000 1.0000 443.3803 210.6498)">
<text font-family="Calibri" fill="#000000" style ="white-space:pre;" font-weight="400" text-anchor="start" x="0.0000" y="0.0000" font-size="17.0000" ><![CDATA[#k]]></text>
</g>
<g transform="matrix(1.0000 0.0000 0.0000 1.0000 483.8495 210.6498)">
<text font-family="Calibri" fill="#000000" style ="white-space:pre;" font-weight="400" text-anchor="start" x="0.0000" y="0.0000" font-size="17.0000" ><![CDATA[#k]]></text>
</g>
<g transform="matrix(1.0000 0.0000 0.0000 1.0000 499.7266 210.6498)">
<text font-family="Calibri" fill="#000000" style ="white-space:pre;" font-weight="400" text-anchor="start" x="0.0000" y="0.0000" font-size="17.0000" ><![CDATA[-]]></text>
</g>
<g transform="matrix(1.0000 0.0000 0.0000 1.0000 504.8293 210.6498)">
<text font-family="Calibri" fill="#000000" style ="white-space:pre;" font-weight="400" text-anchor="start" x="0.0000" y="0.0000" font-size="17.0000" ><![CDATA[1]]></text>
</g>
<g transform="matrix(0.0625 0.0000 0.0000 0.0625 0.0000 0.0000)">
<path d="M 788.0000,4568.0000 L 8951.0000,4568.0000 " stroke="#000000" stroke-width="20.0000"  stroke-linecap="round"  stroke-linejoin="round" fill="none" />
</g>
<g transform="matrix(1.0000 0.0000 0.0000 1.0000 0.0000 0.0000)">
</g>
<g transform="matrix(0.0625 0.0000 0.0000 0.0625 0.0000 0.0000)">
<path d="M 8929.0000,4481.0000 L 9103.0000,4568.0000 L 8929.0000,4655.0000 L 8929.0000,4481.0000 Z" stroke-width="1px" stroke="#000000"  fill="#000000" />
</g>
<g transform="matrix(1.0000 0.0000 0.0000 1.0000 0.0000 0.0000)">
</g>
<g transform="matrix(1.0000 0.0000 0.0000 1.0000 62.1976 334.4847)">
<text font-family="Calibri" fill="#000000" style ="white-space:pre;" font-weight="400" text-anchor="start" x="0.0000" y="0.0000" font-size="20.0000" ><![CDATA[2*(k+1)*0.5Ds]]></text>
</g>
<g transform="matrix(0.0625 0.0000 0.0000 0.0625 0.0000 0.0000)">
<path d="M 788.0000,5021.0000 L 9707.0000,5021.0000 " stroke="#000000" stroke-width="20.0000"  stroke-linecap="round"  stroke-linejoin="round" fill="none" />
</g>
<g transform="matrix(1.0000 0.0000 0.0000 1.0000 0.0000 0.0000)">
</g>
<g transform="matrix(0.0625 0.0000 0.0000 0.0625 0.0000 0.0000)">
<path d="M 9685.0000,4934.0000 L 9859.0000,5021.0000 L 9685.0000,5109.0000 L 9685.0000,4934.0000 Z" stroke-width="1px" stroke="#000000"  fill="#000000" />
</g>
<g transform="matrix(1.0000 0.0000 0.0000 1.0000 0.0000 0.0000)">
</g>
<g transform="matrix(1.0000 0.0000 0.0000 1.0000 83.2913 277.7917)">
<text font-family="Calibri" fill="#000000" style ="white-space:pre;" font-weight="400" text-anchor="start" x="0.0000" y="0.0000" font-size="20.0000" ><![CDATA[2k*0.5Ds]]></text>
</g>
<g transform="matrix(0.0625 0.0000 0.0000 0.0625 0.0000 0.0000)">
<path d="M 788.0000,4114.0000 L 8195.0000,4114.0000 " stroke="#000000" stroke-width="20.0000"  stroke-linecap="round"  stroke-linejoin="round" fill="none" />
</g>
<g transform="matrix(1.0000 0.0000 0.0000 1.0000 0.0000 0.0000)">
</g>
<g transform="matrix(0.0625 0.0000 0.0000 0.0625 0.0000 0.0000)">
<path d="M 8173.0000,4027.0000 L 8347.0000,4114.0000 L 8173.0000,4202.0000 L 8173.0000,4027.0000 Z" stroke-width="1px" stroke="#000000"  fill="#000000" />
</g>
<g transform="matrix(1.0000 0.0000 0.0000 1.0000 0.0000 0.0000)">
</g>
<g transform="matrix(0.0625 0.0000 0.0000 0.0625 0.0000 0.0000)">
<path d="M 9708.0000,788.0000 L 9708.0000,1393.0000 L 10010.0000,1393.0000 L 10010.0000,788.0000 L 9708.0000,788.0000 Z" stroke-width="1px" stroke="#FFFFFF"  fill="#FFFFFF" />
</g>
<g transform="matrix(1.0000 0.0000 0.0000 1.0000 0.0000 0.0000)">
</g>
<g transform="matrix(0.0625 0.0000 0.0000 0.0625 0.0000 0.0000)">
<path d="M 9708.0000,1393.0000 L 10010.0000,1393.0000 L 10010.0000,788.0000 L 9708.0000,788.0000 L 9708.0000,1393.0000 Z" stroke="#000000" stroke-width="20.0000"  stroke-linecap="round"  stroke-linejoin="round" fill="none" />
</g>
<g transform="matrix(1.0000 0.0000 0.0000 1.0000 0.0000 0.0000)">
</g>
<g transform="matrix(1.0000 0.0000 0.0000 1.0000 577.7471 32.1223)">
<text font-family="Calibri" fill="#000000" style ="white-space:pre;" font-weight="400" text-anchor="start" x="0.0000" y="0.0000" font-size="20.0000" ><![CDATA[RRH #k+1]]></text>
</g>
<g transform="matrix(0.0625 0.0000 0.0000 0.0625 0.0000 0.0000)">
<path d="M 8347.0000,1393.0000 L 9859.0000,3056.0000 L 9103.0000,3056.0000 L 8347.0000,1393.0000 Z" stroke="#000000" stroke-width="20.0000"  stroke-linecap="round"  stroke-linejoin="round" fill="none" />
</g>
<g transform="matrix(1.0000 0.0000 0.0000 1.0000 0.0000 0.0000)">
</g>
<g transform="matrix(0.0625 0.0000 0.0000 0.0625 0.0000 0.0000)">
<path d="M 9859.0000,1393.0000 L 11371.0000,3056.0000 L 10615.0000,3056.0000 L 9859.0000,1393.0000 Z" stroke="#000000" stroke-width="20.0000"  stroke-linecap="round"  stroke-linejoin="round" fill="none" />
</g>
<g transform="matrix(1.0000 0.0000 0.0000 1.0000 0.0000 0.0000)">
</g>
<g transform="matrix(0.0625 0.0000 0.0000 0.0625 0.0000 0.0000)">
<path d="M 9859.0000,1393.0000 L 8347.0000,3056.0000 L 9103.0000,3056.0000 L 9859.0000,1393.0000 Z" stroke="#000000" stroke-width="20.0000"  stroke-linecap="round"  stroke-linejoin="round" fill="none" />
</g>
<g transform="matrix(1.0000 0.0000 0.0000 1.0000 0.0000 0.0000)">
</g>
<g transform="matrix(1.0000 0.0000 0.0000 1.0000 529.4946 210.6498)">
<text font-family="Calibri" fill="#000000" style ="white-space:pre;" font-weight="400" text-anchor="start" x="0.0000" y="0.0000" font-size="17.0000" ><![CDATA[#k+1]]></text>
</g>
<g transform="matrix(1.0000 0.0000 0.0000 1.0000 585.1125 210.6498)">
<text font-family="Calibri" fill="#000000" style ="white-space:pre;" font-weight="400" text-anchor="start" x="0.0000" y="0.0000" font-size="17.0000" ><![CDATA[#k]]></text>
</g>
<g transform="matrix(1.0000 0.0000 0.0000 1.0000 623.9828 210.6498)">
<text font-family="Calibri" fill="#000000" style ="white-space:pre;" font-weight="400" text-anchor="start" x="0.0000" y="0.0000" font-size="17.0000" ><![CDATA[#k+2]]></text>
</g>
<g transform="matrix(0.0625 0.0000 0.0000 0.0625 0.0000 0.0000)">
<path d="M 788.0000,3661.0000 L 7439.0000,3661.0000 " stroke="#000000" stroke-width="20.0000"  stroke-linecap="round"  stroke-linejoin="round" fill="none" />
</g>
<g transform="matrix(1.0000 0.0000 0.0000 1.0000 0.0000 0.0000)">
</g>
<g transform="matrix(0.0625 0.0000 0.0000 0.0625 0.0000 0.0000)">
<path d="M 7417.0000,3574.0000 L 7592.0000,3661.0000 L 7417.0000,3748.0000 L 7417.0000,3574.0000 Z" stroke-width="1px" stroke="#000000"  fill="#000000" />
</g>
<g transform="matrix(1.0000 0.0000 0.0000 1.0000 0.0000 0.0000)">
</g>
<g transform="matrix(1.0000 0.0000 0.0000 1.0000 69.0970 249.4453)">
<text font-family="Calibri" fill="#000000" style ="white-space:pre;" font-weight="400" text-anchor="start" x="0.0000" y="0.0000" font-size="20.0000" ><![CDATA[(2k]]></text>
</g>
<g transform="matrix(1.0000 0.0000 0.0000 1.0000 94.3898 249.4453)">
<text font-family="Calibri" fill="#000000" style ="white-space:pre;" font-weight="400" text-anchor="start" x="0.0000" y="0.0000" font-size="20.0000" ><![CDATA[-]]></text>
</g>
<g transform="matrix(1.0000 0.0000 0.0000 1.0000 100.5128 249.4453)">
<text font-family="Calibri" fill="#000000" style ="white-space:pre;" font-weight="400" text-anchor="start" x="0.0000" y="0.0000" font-size="20.0000" ><![CDATA[1)*0.5Ds]]></text>
</g>
<g transform="matrix(0.0625 0.0000 0.0000 0.0625 0.0000 0.0000)">
<path d="M 5777.0000,1166.0000 C 5777.0000,1125.0000 5744.0000,1091.0000 5702.0000,1091.0000 C 5660.0000,1091.0000 5626.0000,1125.0000 5626.0000,1166.0000 C 5626.0000,1208.0000 5660.0000,1242.0000 5702.0000,1242.0000 C 5744.0000,1242.0000 5777.0000,1208.0000 5777.0000,1166.0000 "  fill="#000000" stroke="none" />
</g>
<g transform="matrix(1.0000 0.0000 0.0000 1.0000 0.0000 0.0000)">
</g>
<g transform="matrix(0.0625 0.0000 0.0000 0.0625 0.0000 0.0000)">
<path d="M 5777.0000,1166.0000 M 5777.0000,1166.0000 C 5777.0000,1125.0000 5744.0000,1091.0000 5702.0000,1091.0000 C 5660.0000,1091.0000 5626.0000,1125.0000 5626.0000,1166.0000 C 5626.0000,1208.0000 5660.0000,1242.0000 5702.0000,1242.0000 C 5744.0000,1242.0000 5777.0000,1208.0000 5777.0000,1166.0000 " stroke="#000000" stroke-width="20.0000"  stroke-linecap="round"  stroke-linejoin="round"  fill="none" />
</g>
<g transform="matrix(1.0000 0.0000 0.0000 1.0000 0.0000 0.0000)">
</g>
<g transform="matrix(0.0625 0.0000 0.0000 0.0625 0.0000 0.0000)">
<path d="M 6080.0000,1166.0000 C 6080.0000,1125.0000 6046.0000,1091.0000 6004.0000,1091.0000 C 5962.0000,1091.0000 5929.0000,1125.0000 5929.0000,1166.0000 C 5929.0000,1208.0000 5962.0000,1242.0000 6004.0000,1242.0000 C 6046.0000,1242.0000 6080.0000,1208.0000 6080.0000,1166.0000 "  fill="#000000" stroke="none" />
</g>
<g transform="matrix(1.0000 0.0000 0.0000 1.0000 0.0000 0.0000)">
</g>
<g transform="matrix(0.0625 0.0000 0.0000 0.0625 0.0000 0.0000)">
<path d="M 6080.0000,1166.0000 M 6080.0000,1166.0000 C 6080.0000,1125.0000 6046.0000,1091.0000 6004.0000,1091.0000 C 5962.0000,1091.0000 5929.0000,1125.0000 5929.0000,1166.0000 C 5929.0000,1208.0000 5962.0000,1242.0000 6004.0000,1242.0000 C 6046.0000,1242.0000 6080.0000,1208.0000 6080.0000,1166.0000 " stroke="#000000" stroke-width="20.0000"  stroke-linecap="round"  stroke-linejoin="round"  fill="none" />
</g>
<g transform="matrix(1.0000 0.0000 0.0000 1.0000 0.0000 0.0000)">
</g>
<g transform="matrix(0.0625 0.0000 0.0000 0.0625 0.0000 0.0000)">
<path d="M 6382.0000,1166.0000 C 6382.0000,1125.0000 6348.0000,1091.0000 6306.0000,1091.0000 C 6265.0000,1091.0000 6231.0000,1125.0000 6231.0000,1166.0000 C 6231.0000,1208.0000 6265.0000,1242.0000 6306.0000,1242.0000 C 6348.0000,1242.0000 6382.0000,1208.0000 6382.0000,1166.0000 "  fill="#000000" stroke="none" />
</g>
<g transform="matrix(1.0000 0.0000 0.0000 1.0000 0.0000 0.0000)">
</g>
<g transform="matrix(0.0625 0.0000 0.0000 0.0625 0.0000 0.0000)">
<path d="M 6382.0000,1166.0000 M 6382.0000,1166.0000 C 6382.0000,1125.0000 6348.0000,1091.0000 6306.0000,1091.0000 C 6265.0000,1091.0000 6231.0000,1125.0000 6231.0000,1166.0000 C 6231.0000,1208.0000 6265.0000,1242.0000 6306.0000,1242.0000 C 6348.0000,1242.0000 6382.0000,1208.0000 6382.0000,1166.0000 " stroke="#000000" stroke-width="20.0000"  stroke-linecap="round"  stroke-linejoin="round"  fill="none" />
</g>
<g transform="matrix(1.0000 0.0000 0.0000 1.0000 0.0000 0.0000)">
</g>
</g>
</svg>
