<?xml version="1.0"  encoding="UTF-8" standalone="no"?>
<svg version="1.1" xmlns="http://www.w3.org/2000/svg" xmlns:xlink="http://www.w3.org/1999/xlink" width="517.0000" height="400.0000">
<g transform="translate(-21.0000, -9.0000)">
<path d="M 73.0000,374.0000 L 73.0000,32.0000 L 507.0000,32.0000 L 507.0000,374.0000 Z" stroke-width="1px" stroke="#FFFFFF"  fill="#FFFFFF" />
<path d="M 73.0000,374.0000 L 73.0000,32.0000 L 507.0000,32.0000 L 507.0000,374.0000 L 73.0000,374.0000 " stroke="#FFFFFF" stroke-width="1.0000"  stroke-linecap="round"  stroke-linejoin="round" fill="none" />
<path d="M 73.0000,374.0000 L 73.0000,32.0000 " stroke="#000000" stroke-width="1.0000" stroke-dasharray="1.0000,1.0000"  stroke-linecap="round"  stroke-linejoin="round"  fill="none" />
<path d="M 114.0000,374.0000 L 114.0000,32.0000 " stroke="#000000" stroke-width="1.0000" stroke-dasharray="1.0000,1.0000"  stroke-linecap="round"  stroke-linejoin="round"  fill="none" />
<path d="M 155.0000,374.0000 L 155.0000,32.0000 " stroke="#000000" stroke-width="1.0000" stroke-dasharray="1.0000,1.0000"  stroke-linecap="round"  stroke-linejoin="round"  fill="none" />
<path d="M 197.0000,374.0000 L 197.0000,32.0000 " stroke="#000000" stroke-width="1.0000" stroke-dasharray="1.0000,1.0000"  stroke-linecap="round"  stroke-linejoin="round"  fill="none" />
<path d="M 238.0000,374.0000 L 238.0000,32.0000 " stroke="#000000" stroke-width="1.0000" stroke-dasharray="1.0000,1.0000"  stroke-linecap="round"  stroke-linejoin="round"  fill="none" />
<path d="M 279.0000,374.0000 L 279.0000,32.0000 " stroke="#000000" stroke-width="1.0000" stroke-dasharray="1.0000,1.0000"  stroke-linecap="round"  stroke-linejoin="round"  fill="none" />
<path d="M 321.0000,374.0000 L 321.0000,32.0000 " stroke="#000000" stroke-width="1.0000" stroke-dasharray="1.0000,1.0000"  stroke-linecap="round"  stroke-linejoin="round"  fill="none" />
<path d="M 362.0000,374.0000 L 362.0000,32.0000 " stroke="#000000" stroke-width="1.0000" stroke-dasharray="1.0000,1.0000"  stroke-linecap="round"  stroke-linejoin="round"  fill="none" />
<path d="M 403.0000,374.0000 L 403.0000,32.0000 " stroke="#000000" stroke-width="1.0000" stroke-dasharray="1.0000,1.0000"  stroke-linecap="round"  stroke-linejoin="round"  fill="none" />
<path d="M 445.0000,374.0000 L 445.0000,32.0000 " stroke="#000000" stroke-width="1.0000" stroke-dasharray="1.0000,1.0000"  stroke-linecap="round"  stroke-linejoin="round"  fill="none" />
<path d="M 486.0000,374.0000 L 486.0000,32.0000 " stroke="#000000" stroke-width="1.0000" stroke-dasharray="1.0000,1.0000"  stroke-linecap="round"  stroke-linejoin="round"  fill="none" />
<path d="M 73.0000,374.0000 L 507.0000,374.0000 " stroke="#000000" stroke-width="1.0000" stroke-dasharray="1.0000,1.0000"  stroke-linecap="round"  stroke-linejoin="round"  fill="none" />
<path d="M 73.0000,331.0000 L 507.0000,331.0000 " stroke="#000000" stroke-width="1.0000" stroke-dasharray="1.0000,1.0000"  stroke-linecap="round"  stroke-linejoin="round"  fill="none" />
<path d="M 73.0000,288.0000 L 507.0000,288.0000 " stroke="#000000" stroke-width="1.0000" stroke-dasharray="1.0000,1.0000"  stroke-linecap="round"  stroke-linejoin="round"  fill="none" />
<path d="M 73.0000,245.0000 L 507.0000,245.0000 " stroke="#000000" stroke-width="1.0000" stroke-dasharray="1.0000,1.0000"  stroke-linecap="round"  stroke-linejoin="round"  fill="none" />
<path d="M 73.0000,203.0000 L 507.0000,203.0000 " stroke="#000000" stroke-width="1.0000" stroke-dasharray="1.0000,1.0000"  stroke-linecap="round"  stroke-linejoin="round"  fill="none" />
<path d="M 73.0000,160.0000 L 507.0000,160.0000 " stroke="#000000" stroke-width="1.0000" stroke-dasharray="1.0000,1.0000"  stroke-linecap="round"  stroke-linejoin="round"  fill="none" />
<path d="M 73.0000,117.0000 L 507.0000,117.0000 " stroke="#000000" stroke-width="1.0000" stroke-dasharray="1.0000,1.0000"  stroke-linecap="round"  stroke-linejoin="round"  fill="none" />
<path d="M 73.0000,74.0000 L 507.0000,74.0000 " stroke="#000000" stroke-width="1.0000" stroke-dasharray="1.0000,1.0000"  stroke-linecap="round"  stroke-linejoin="round"  fill="none" />
<path d="M 73.0000,32.0000 L 507.0000,32.0000 " stroke="#000000" stroke-width="1.0000" stroke-dasharray="1.0000,1.0000"  stroke-linecap="round"  stroke-linejoin="round"  fill="none" />
<path d="M 73.0000,32.0000 L 507.0000,32.0000 " stroke="#000000" stroke-width="1.0000"  stroke-linecap="round"  stroke-linejoin="round"  fill="none" />
<path d="M 73.0000,374.0000 L 507.0000,374.0000 " stroke="#000000" stroke-width="1.0000"  stroke-linecap="round"  stroke-linejoin="round"  fill="none" />
<path d="M 507.0000,374.0000 L 507.0000,32.0000 " stroke="#000000" stroke-width="1.0000"  stroke-linecap="round"  stroke-linejoin="round"  fill="none" />
<path d="M 73.0000,374.0000 L 73.0000,32.0000 " stroke="#000000" stroke-width="1.0000"  stroke-linecap="round"  stroke-linejoin="round"  fill="none" />
<path d="M 73.0000,374.0000 L 507.0000,374.0000 " stroke="#000000" stroke-width="1.0000"  stroke-linecap="round"  stroke-linejoin="round"  fill="none" />
<path d="M 73.0000,374.0000 L 73.0000,32.0000 " stroke="#000000" stroke-width="1.0000"  stroke-linecap="round"  stroke-linejoin="round"  fill="none" />
<path d="M 73.0000,374.0000 L 73.0000,369.0000 " stroke="#000000" stroke-width="1.0000"  stroke-linecap="round"  stroke-linejoin="round"  fill="none" />
<path d="M 73.0000,32.0000 L 73.0000,36.0000 " stroke="#000000" stroke-width="1.0000"  stroke-linecap="round"  stroke-linejoin="round"  fill="none" />
<text font-family="Helvetica" fill="#000000" style ="white-space:pre;" font-weight="400" text-anchor="start" x="70.0000" y="388.7000" font-size="13.0000" ><![CDATA[0]]></text>
<path d="M 114.0000,374.0000 L 114.0000,369.0000 " stroke="#000000" stroke-width="1.0000"  stroke-linecap="round"  stroke-linejoin="round"  fill="none" />
<path d="M 114.0000,32.0000 L 114.0000,36.0000 " stroke="#000000" stroke-width="1.0000"  stroke-linecap="round"  stroke-linejoin="round"  fill="none" />
<text font-family="Helvetica" fill="#000000" style ="white-space:pre;" font-weight="400" text-anchor="start" x="104.0000" y="388.7000" font-size="13.0000" ><![CDATA[200]]></text>
<path d="M 155.0000,374.0000 L 155.0000,369.0000 " stroke="#000000" stroke-width="1.0000"  stroke-linecap="round"  stroke-linejoin="round"  fill="none" />
<path d="M 155.0000,32.0000 L 155.0000,36.0000 " stroke="#000000" stroke-width="1.0000"  stroke-linecap="round"  stroke-linejoin="round"  fill="none" />
<text font-family="Helvetica" fill="#000000" style ="white-space:pre;" font-weight="400" text-anchor="start" x="145.0000" y="388.7000" font-size="13.0000" ><![CDATA[400]]></text>
<path d="M 197.0000,374.0000 L 197.0000,369.0000 " stroke="#000000" stroke-width="1.0000"  stroke-linecap="round"  stroke-linejoin="round"  fill="none" />
<path d="M 197.0000,32.0000 L 197.0000,36.0000 " stroke="#000000" stroke-width="1.0000"  stroke-linecap="round"  stroke-linejoin="round"  fill="none" />
<text font-family="Helvetica" fill="#000000" style ="white-space:pre;" font-weight="400" text-anchor="start" x="187.0000" y="388.7000" font-size="13.0000" ><![CDATA[600]]></text>
<path d="M 238.0000,374.0000 L 238.0000,369.0000 " stroke="#000000" stroke-width="1.0000"  stroke-linecap="round"  stroke-linejoin="round"  fill="none" />
<path d="M 238.0000,32.0000 L 238.0000,36.0000 " stroke="#000000" stroke-width="1.0000"  stroke-linecap="round"  stroke-linejoin="round"  fill="none" />
<text font-family="Helvetica" fill="#000000" style ="white-space:pre;" font-weight="400" text-anchor="start" x="228.0000" y="388.7000" font-size="13.0000" ><![CDATA[800]]></text>
<path d="M 279.0000,374.0000 L 279.0000,369.0000 " stroke="#000000" stroke-width="1.0000"  stroke-linecap="round"  stroke-linejoin="round"  fill="none" />
<path d="M 279.0000,32.0000 L 279.0000,36.0000 " stroke="#000000" stroke-width="1.0000"  stroke-linecap="round"  stroke-linejoin="round"  fill="none" />
<text font-family="Helvetica" fill="#000000" style ="white-space:pre;" font-weight="400" text-anchor="start" x="265.0000" y="388.7000" font-size="13.0000" ><![CDATA[1000]]></text>
<path d="M 321.0000,374.0000 L 321.0000,369.0000 " stroke="#000000" stroke-width="1.0000"  stroke-linecap="round"  stroke-linejoin="round"  fill="none" />
<path d="M 321.0000,32.0000 L 321.0000,36.0000 " stroke="#000000" stroke-width="1.0000"  stroke-linecap="round"  stroke-linejoin="round"  fill="none" />
<text font-family="Helvetica" fill="#000000" style ="white-space:pre;" font-weight="400" text-anchor="start" x="307.0000" y="388.7000" font-size="13.0000" ><![CDATA[1200]]></text>
<path d="M 362.0000,374.0000 L 362.0000,369.0000 " stroke="#000000" stroke-width="1.0000"  stroke-linecap="round"  stroke-linejoin="round"  fill="none" />
<path d="M 362.0000,32.0000 L 362.0000,36.0000 " stroke="#000000" stroke-width="1.0000"  stroke-linecap="round"  stroke-linejoin="round"  fill="none" />
<text font-family="Helvetica" fill="#000000" style ="white-space:pre;" font-weight="400" text-anchor="start" x="348.0000" y="388.7000" font-size="13.0000" ><![CDATA[1400]]></text>
<path d="M 403.0000,374.0000 L 403.0000,369.0000 " stroke="#000000" stroke-width="1.0000"  stroke-linecap="round"  stroke-linejoin="round"  fill="none" />
<path d="M 403.0000,32.0000 L 403.0000,36.0000 " stroke="#000000" stroke-width="1.0000"  stroke-linecap="round"  stroke-linejoin="round"  fill="none" />
<text font-family="Helvetica" fill="#000000" style ="white-space:pre;" font-weight="400" text-anchor="start" x="389.0000" y="388.7000" font-size="13.0000" ><![CDATA[1600]]></text>
<path d="M 445.0000,374.0000 L 445.0000,369.0000 " stroke="#000000" stroke-width="1.0000"  stroke-linecap="round"  stroke-linejoin="round"  fill="none" />
<path d="M 445.0000,32.0000 L 445.0000,36.0000 " stroke="#000000" stroke-width="1.0000"  stroke-linecap="round"  stroke-linejoin="round"  fill="none" />
<text font-family="Helvetica" fill="#000000" style ="white-space:pre;" font-weight="400" text-anchor="start" x="431.0000" y="388.7000" font-size="13.0000" ><![CDATA[1800]]></text>
<path d="M 486.0000,374.0000 L 486.0000,369.0000 " stroke="#000000" stroke-width="1.0000"  stroke-linecap="round"  stroke-linejoin="round"  fill="none" />
<path d="M 486.0000,32.0000 L 486.0000,36.0000 " stroke="#000000" stroke-width="1.0000"  stroke-linecap="round"  stroke-linejoin="round"  fill="none" />
<text font-family="Helvetica" fill="#000000" style ="white-space:pre;" font-weight="400" text-anchor="start" x="472.0000" y="388.7000" font-size="13.0000" ><![CDATA[2000]]></text>
<path d="M 73.0000,374.0000 L 77.0000,374.0000 " stroke="#000000" stroke-width="1.0000"  stroke-linecap="round"  stroke-linejoin="round"  fill="none" />
<path d="M 507.0000,374.0000 L 502.0000,374.0000 " stroke="#000000" stroke-width="1.0000"  stroke-linecap="round"  stroke-linejoin="round"  fill="none" />
<text font-family="Helvetica" fill="#000000" style ="white-space:pre;" font-weight="400" text-anchor="start" x="44.0000" y="377.7000" font-size="13.0000" ><![CDATA[-130]]></text>
<path d="M 73.0000,331.0000 L 77.0000,331.0000 " stroke="#000000" stroke-width="1.0000"  stroke-linecap="round"  stroke-linejoin="round"  fill="none" />
<path d="M 507.0000,331.0000 L 502.0000,331.0000 " stroke="#000000" stroke-width="1.0000"  stroke-linecap="round"  stroke-linejoin="round"  fill="none" />
<text font-family="Helvetica" fill="#000000" style ="white-space:pre;" font-weight="400" text-anchor="start" x="44.0000" y="334.7000" font-size="13.0000" ><![CDATA[-120]]></text>
<path d="M 73.0000,288.0000 L 77.0000,288.0000 " stroke="#000000" stroke-width="1.0000"  stroke-linecap="round"  stroke-linejoin="round"  fill="none" />
<path d="M 507.0000,288.0000 L 502.0000,288.0000 " stroke="#000000" stroke-width="1.0000"  stroke-linecap="round"  stroke-linejoin="round"  fill="none" />
<text font-family="Helvetica" fill="#000000" style ="white-space:pre;" font-weight="400" text-anchor="start" x="44.0000" y="291.7000" font-size="13.0000" ><![CDATA[-110]]></text>
<path d="M 73.0000,245.0000 L 77.0000,245.0000 " stroke="#000000" stroke-width="1.0000"  stroke-linecap="round"  stroke-linejoin="round"  fill="none" />
<path d="M 507.0000,245.0000 L 502.0000,245.0000 " stroke="#000000" stroke-width="1.0000"  stroke-linecap="round"  stroke-linejoin="round"  fill="none" />
<text font-family="Helvetica" fill="#000000" style ="white-space:pre;" font-weight="400" text-anchor="start" x="44.0000" y="248.7000" font-size="13.0000" ><![CDATA[-100]]></text>
<path d="M 73.0000,203.0000 L 77.0000,203.0000 " stroke="#000000" stroke-width="1.0000"  stroke-linecap="round"  stroke-linejoin="round"  fill="none" />
<path d="M 507.0000,203.0000 L 502.0000,203.0000 " stroke="#000000" stroke-width="1.0000"  stroke-linecap="round"  stroke-linejoin="round"  fill="none" />
<text font-family="Helvetica" fill="#000000" style ="white-space:pre;" font-weight="400" text-anchor="start" x="51.0000" y="206.7000" font-size="13.0000" ><![CDATA[-90]]></text>
<path d="M 73.0000,160.0000 L 77.0000,160.0000 " stroke="#000000" stroke-width="1.0000"  stroke-linecap="round"  stroke-linejoin="round"  fill="none" />
<path d="M 507.0000,160.0000 L 502.0000,160.0000 " stroke="#000000" stroke-width="1.0000"  stroke-linecap="round"  stroke-linejoin="round"  fill="none" />
<text font-family="Helvetica" fill="#000000" style ="white-space:pre;" font-weight="400" text-anchor="start" x="51.0000" y="163.7000" font-size="13.0000" ><![CDATA[-80]]></text>
<path d="M 73.0000,117.0000 L 77.0000,117.0000 " stroke="#000000" stroke-width="1.0000"  stroke-linecap="round"  stroke-linejoin="round"  fill="none" />
<path d="M 507.0000,117.0000 L 502.0000,117.0000 " stroke="#000000" stroke-width="1.0000"  stroke-linecap="round"  stroke-linejoin="round"  fill="none" />
<text font-family="Helvetica" fill="#000000" style ="white-space:pre;" font-weight="400" text-anchor="start" x="51.0000" y="120.7000" font-size="13.0000" ><![CDATA[-70]]></text>
<path d="M 73.0000,74.0000 L 77.0000,74.0000 " stroke="#000000" stroke-width="1.0000"  stroke-linecap="round"  stroke-linejoin="round"  fill="none" />
<path d="M 507.0000,74.0000 L 502.0000,74.0000 " stroke="#000000" stroke-width="1.0000"  stroke-linecap="round"  stroke-linejoin="round"  fill="none" />
<text font-family="Helvetica" fill="#000000" style ="white-space:pre;" font-weight="400" text-anchor="start" x="51.0000" y="77.7000" font-size="13.0000" ><![CDATA[-60]]></text>
<path d="M 73.0000,32.0000 L 77.0000,32.0000 " stroke="#000000" stroke-width="1.0000"  stroke-linecap="round"  stroke-linejoin="round"  fill="none" />
<path d="M 507.0000,32.0000 L 502.0000,32.0000 " stroke="#000000" stroke-width="1.0000"  stroke-linecap="round"  stroke-linejoin="round"  fill="none" />
<text font-family="Helvetica" fill="#000000" style ="white-space:pre;" font-weight="400" text-anchor="start" x="51.0000" y="35.7000" font-size="13.0000" ><![CDATA[-50]]></text>
<path d="M 73.0000,32.0000 L 507.0000,32.0000 " stroke="#000000" stroke-width="1.0000"  stroke-linecap="round"  stroke-linejoin="round"  fill="none" />
<path d="M 73.0000,374.0000 L 507.0000,374.0000 " stroke="#000000" stroke-width="1.0000"  stroke-linecap="round"  stroke-linejoin="round"  fill="none" />
<path d="M 507.0000,374.0000 L 507.0000,32.0000 " stroke="#000000" stroke-width="1.0000"  stroke-linecap="round"  stroke-linejoin="round"  fill="none" />
<path d="M 73.0000,374.0000 L 73.0000,32.0000 " stroke="#000000" stroke-width="1.0000"  stroke-linecap="round"  stroke-linejoin="round"  fill="none" />
<path d="M 73.0000,208.0000 L 73.0000,146.0000 L 74.0000,122.0000 L 74.0000,117.0000 L 75.0000,137.0000 L 75.0000,222.0000 L 76.0000,200.0000 L 76.0000,97.0000 L 77.0000,86.0000 L 77.0000,85.0000 L 78.0000,92.0000 L 78.0000,105.0000 L 79.0000,127.0000 L 79.0000,247.0000 L 80.0000,299.0000 L 80.0000,176.0000 L 81.0000,138.0000 L 81.0000,114.0000 L 82.0000,98.0000 L 82.0000,76.0000 L 83.0000,69.0000 L 83.0000,63.0000 L 84.0000,58.0000 L 84.0000,54.0000 L 85.0000,50.0000 L 85.0000,47.0000 L 86.0000,45.0000 L 86.0000,41.0000 L 87.0000,40.0000 L 87.0000,38.0000 L 88.0000,37.0000 L 89.0000,36.0000 L 89.0000,35.0000 L 90.0000,34.0000 L 91.0000,34.0000 L 92.0000,34.0000 L 93.0000,34.0000 L 94.0000,34.0000 L 95.0000,34.0000 L 96.0000,35.0000 L 97.0000,36.0000 L 98.0000,36.0000 L 99.0000,37.0000 L 100.0000,38.0000 L 101.0000,38.0000 L 102.0000,39.0000 L 103.0000,40.0000 L 104.0000,41.0000 L 105.0000,42.0000 L 106.0000,43.0000 L 107.0000,43.0000 L 108.0000,44.0000 L 109.0000,45.0000 L 110.0000,46.0000 L 111.0000,47.0000 L 112.0000,48.0000 L 113.0000,48.0000 L 114.0000,49.0000 L 115.0000,50.0000 L 116.0000,51.0000 L 117.0000,51.0000 L 118.0000,52.0000 L 119.0000,53.0000 L 120.0000,54.0000 L 121.0000,54.0000 L 122.0000,55.0000 L 123.0000,56.0000 L 124.0000,56.0000 L 125.0000,57.0000 L 126.0000,58.0000 L 127.0000,58.0000 L 128.0000,59.0000 L 129.0000,60.0000 L 130.0000,60.0000 L 131.0000,61.0000 L 132.0000,62.0000 L 133.0000,62.0000 L 134.0000,63.0000 L 135.0000,64.0000 L 136.0000,64.0000 L 137.0000,65.0000 L 138.0000,65.0000 L 139.0000,66.0000 L 140.0000,66.0000 L 141.0000,67.0000 L 142.0000,68.0000 L 143.0000,68.0000 L 144.0000,69.0000 L 145.0000,69.0000 L 146.0000,70.0000 L 147.0000,70.0000 L 148.0000,71.0000 L 149.0000,71.0000 L 150.0000,72.0000 L 151.0000,72.0000 L 152.0000,73.0000 L 153.0000,73.0000 L 154.0000,74.0000 L 155.0000,74.0000 L 156.0000,75.0000 L 157.0000,75.0000 L 158.0000,76.0000 L 159.0000,76.0000 L 160.0000,77.0000 L 161.0000,77.0000 L 162.0000,78.0000 L 163.0000,78.0000 L 164.0000,78.0000 L 165.0000,79.0000 L 166.0000,79.0000 L 167.0000,80.0000 L 168.0000,80.0000 L 169.0000,81.0000 L 170.0000,81.0000 L 171.0000,81.0000 L 172.0000,82.0000 L 173.0000,82.0000 L 174.0000,83.0000 L 175.0000,83.0000 L 176.0000,83.0000 L 177.0000,84.0000 L 178.0000,84.0000 L 179.0000,85.0000 L 180.0000,85.0000 L 181.0000,85.0000 L 182.0000,86.0000 L 183.0000,86.0000 L 184.0000,87.0000 " stroke="#000000" stroke-width="2.0000"  stroke-linecap="butt"  stroke-linejoin="round" fill="none" />
<path d="M 184.0000,87.0000 L 185.0000,87.0000 L 186.0000,87.0000 L 187.0000,87.0000 L 188.0000,88.0000 L 189.0000,88.0000 L 190.0000,89.0000 L 191.0000,89.0000 L 192.0000,89.0000 L 193.0000,90.0000 L 194.0000,90.0000 L 195.0000,90.0000 L 196.0000,91.0000 L 197.0000,91.0000 L 198.0000,91.0000 L 199.0000,92.0000 L 200.0000,92.0000 L 201.0000,92.0000 L 202.0000,93.0000 L 203.0000,93.0000 L 204.0000,93.0000 L 205.0000,94.0000 L 206.0000,94.0000 L 207.0000,94.0000 L 208.0000,95.0000 L 209.0000,95.0000 L 210.0000,95.0000 L 211.0000,96.0000 L 212.0000,96.0000 L 213.0000,96.0000 L 214.0000,96.0000 L 215.0000,97.0000 L 216.0000,97.0000 L 217.0000,97.0000 L 218.0000,98.0000 L 219.0000,98.0000 L 220.0000,98.0000 L 221.0000,98.0000 L 222.0000,99.0000 L 223.0000,99.0000 L 224.0000,99.0000 L 225.0000,100.0000 L 226.0000,100.0000 L 227.0000,100.0000 L 228.0000,100.0000 L 229.0000,101.0000 L 230.0000,101.0000 L 231.0000,101.0000 L 232.0000,101.0000 L 233.0000,102.0000 L 234.0000,102.0000 L 235.0000,102.0000 L 236.0000,102.0000 L 237.0000,103.0000 L 238.0000,103.0000 L 239.0000,103.0000 L 240.0000,104.0000 L 241.0000,104.0000 L 242.0000,104.0000 L 243.0000,104.0000 L 244.0000,105.0000 L 245.0000,105.0000 L 246.0000,105.0000 L 247.0000,105.0000 L 248.0000,106.0000 L 249.0000,106.0000 L 250.0000,106.0000 L 251.0000,106.0000 L 252.0000,107.0000 L 253.0000,107.0000 L 254.0000,107.0000 L 255.0000,107.0000 L 256.0000,107.0000 L 257.0000,108.0000 L 258.0000,108.0000 L 259.0000,108.0000 L 260.0000,108.0000 L 261.0000,109.0000 L 262.0000,109.0000 L 263.0000,109.0000 L 264.0000,109.0000 L 265.0000,110.0000 L 266.0000,110.0000 L 267.0000,110.0000 L 268.0000,110.0000 L 269.0000,110.0000 L 270.0000,111.0000 L 271.0000,111.0000 L 272.0000,111.0000 L 273.0000,111.0000 L 274.0000,112.0000 L 275.0000,112.0000 L 276.0000,112.0000 L 277.0000,112.0000 L 278.0000,112.0000 L 279.0000,113.0000 L 280.0000,113.0000 L 281.0000,113.0000 L 282.0000,113.0000 L 283.0000,114.0000 L 284.0000,114.0000 L 285.0000,114.0000 L 286.0000,114.0000 L 287.0000,114.0000 L 288.0000,115.0000 L 289.0000,115.0000 L 290.0000,115.0000 L 291.0000,115.0000 L 292.0000,115.0000 L 293.0000,116.0000 L 294.0000,116.0000 L 295.0000,116.0000 L 296.0000,116.0000 L 297.0000,116.0000 L 298.0000,117.0000 L 299.0000,117.0000 L 300.0000,117.0000 L 301.0000,117.0000 L 302.0000,117.0000 L 303.0000,118.0000 L 304.0000,118.0000 L 305.0000,118.0000 L 306.0000,118.0000 L 307.0000,118.0000 L 308.0000,119.0000 L 309.0000,119.0000 L 310.0000,119.0000 L 311.0000,119.0000 " stroke="#000000" stroke-width="2.0000"  stroke-linecap="butt"  stroke-linejoin="round" fill="none" />
<path d="M 311.0000,119.0000 L 312.0000,119.0000 L 313.0000,120.0000 L 314.0000,120.0000 L 315.0000,120.0000 L 316.0000,120.0000 L 317.0000,120.0000 L 318.0000,120.0000 L 319.0000,121.0000 L 320.0000,121.0000 L 321.0000,121.0000 L 322.0000,121.0000 L 323.0000,121.0000 L 324.0000,122.0000 L 325.0000,122.0000 L 326.0000,122.0000 L 327.0000,122.0000 L 328.0000,122.0000 L 329.0000,122.0000 L 330.0000,123.0000 L 331.0000,123.0000 L 332.0000,123.0000 L 333.0000,123.0000 L 334.0000,123.0000 L 335.0000,123.0000 L 336.0000,124.0000 L 337.0000,124.0000 L 338.0000,124.0000 L 339.0000,124.0000 L 340.0000,124.0000 L 341.0000,125.0000 L 342.0000,125.0000 L 343.0000,125.0000 L 344.0000,125.0000 L 345.0000,125.0000 L 346.0000,125.0000 L 347.0000,126.0000 L 348.0000,126.0000 L 349.0000,126.0000 L 350.0000,126.0000 L 351.0000,126.0000 L 352.0000,126.0000 L 353.0000,127.0000 L 354.0000,127.0000 L 355.0000,127.0000 L 356.0000,127.0000 L 357.0000,127.0000 L 358.0000,127.0000 L 359.0000,128.0000 L 360.0000,128.0000 L 361.0000,128.0000 L 362.0000,128.0000 L 363.0000,128.0000 L 364.0000,128.0000 L 365.0000,129.0000 L 366.0000,129.0000 L 367.0000,129.0000 L 368.0000,129.0000 L 369.0000,129.0000 L 370.0000,129.0000 L 371.0000,129.0000 L 372.0000,130.0000 L 373.0000,130.0000 L 374.0000,130.0000 L 375.0000,130.0000 L 376.0000,130.0000 L 377.0000,130.0000 L 378.0000,131.0000 L 379.0000,131.0000 L 380.0000,131.0000 L 381.0000,131.0000 L 382.0000,131.0000 L 383.0000,131.0000 L 384.0000,131.0000 L 385.0000,132.0000 L 386.0000,132.0000 L 387.0000,132.0000 L 388.0000,132.0000 L 389.0000,132.0000 L 390.0000,132.0000 L 391.0000,133.0000 L 392.0000,133.0000 L 393.0000,133.0000 L 394.0000,133.0000 L 395.0000,133.0000 L 396.0000,133.0000 L 397.0000,133.0000 L 398.0000,134.0000 L 399.0000,134.0000 L 400.0000,134.0000 L 401.0000,134.0000 L 402.0000,134.0000 L 403.0000,134.0000 L 404.0000,134.0000 L 405.0000,135.0000 L 406.0000,135.0000 L 407.0000,135.0000 L 408.0000,135.0000 L 409.0000,135.0000 L 410.0000,135.0000 L 411.0000,135.0000 L 412.0000,136.0000 L 413.0000,136.0000 L 414.0000,136.0000 L 415.0000,136.0000 L 416.0000,136.0000 L 417.0000,136.0000 L 418.0000,136.0000 L 419.0000,137.0000 L 420.0000,137.0000 L 421.0000,137.0000 L 422.0000,137.0000 L 423.0000,137.0000 L 424.0000,137.0000 L 425.0000,137.0000 L 426.0000,138.0000 L 427.0000,138.0000 L 428.0000,138.0000 L 429.0000,138.0000 L 430.0000,138.0000 L 431.0000,138.0000 L 432.0000,138.0000 L 433.0000,138.0000 L 434.0000,139.0000 L 435.0000,139.0000 L 436.0000,139.0000 L 437.0000,139.0000 L 438.0000,139.0000 " stroke="#000000" stroke-width="2.0000"  stroke-linecap="butt"  stroke-linejoin="round" fill="none" />
<path d="M 438.0000,139.0000 L 439.0000,139.0000 L 440.0000,139.0000 L 441.0000,140.0000 L 442.0000,140.0000 L 443.0000,140.0000 L 444.0000,140.0000 L 445.0000,140.0000 L 446.0000,140.0000 L 447.0000,140.0000 L 448.0000,140.0000 L 449.0000,141.0000 L 450.0000,141.0000 L 451.0000,141.0000 L 452.0000,141.0000 L 453.0000,141.0000 L 454.0000,141.0000 L 455.0000,141.0000 L 456.0000,141.0000 L 457.0000,142.0000 L 458.0000,142.0000 L 459.0000,142.0000 L 460.0000,142.0000 L 461.0000,142.0000 L 462.0000,142.0000 L 463.0000,142.0000 L 464.0000,143.0000 L 465.0000,143.0000 L 466.0000,143.0000 L 467.0000,143.0000 L 468.0000,143.0000 L 469.0000,143.0000 L 470.0000,143.0000 L 471.0000,143.0000 L 472.0000,144.0000 L 473.0000,144.0000 L 474.0000,144.0000 L 475.0000,144.0000 L 476.0000,144.0000 L 477.0000,144.0000 L 478.0000,144.0000 L 479.0000,144.0000 L 480.0000,145.0000 L 481.0000,145.0000 L 482.0000,145.0000 L 483.0000,145.0000 L 484.0000,145.0000 L 485.0000,145.0000 L 486.0000,145.0000 L 487.0000,145.0000 L 488.0000,145.0000 L 489.0000,146.0000 L 490.0000,146.0000 L 491.0000,146.0000 L 492.0000,146.0000 L 493.0000,146.0000 L 494.0000,146.0000 L 495.0000,146.0000 L 496.0000,146.0000 L 497.0000,147.0000 L 498.0000,147.0000 L 499.0000,147.0000 L 500.0000,147.0000 L 501.0000,147.0000 L 502.0000,147.0000 L 503.0000,147.0000 L 504.0000,147.0000 L 505.0000,147.0000 L 506.0000,148.0000 L 507.0000,148.0000 " stroke="#000000" stroke-width="2.0000"  stroke-linecap="butt"  stroke-linejoin="round" fill="none" />
<path d="M 73.0000,227.0000 L 74.0000,227.0000 L 75.0000,227.0000 L 76.0000,226.0000 L 77.0000,226.0000 L 78.0000,226.0000 L 79.0000,225.0000 L 80.0000,225.0000 L 81.0000,225.0000 L 82.0000,225.0000 L 83.0000,224.0000 L 84.0000,224.0000 L 85.0000,224.0000 L 86.0000,223.0000 L 87.0000,223.0000 L 88.0000,223.0000 L 89.0000,222.0000 L 90.0000,222.0000 L 91.0000,222.0000 L 92.0000,221.0000 L 93.0000,221.0000 L 94.0000,221.0000 L 95.0000,221.0000 L 96.0000,220.0000 L 97.0000,220.0000 L 98.0000,220.0000 L 99.0000,219.0000 L 100.0000,219.0000 L 101.0000,219.0000 L 102.0000,218.0000 L 103.0000,218.0000 L 104.0000,218.0000 L 105.0000,217.0000 L 106.0000,217.0000 L 107.0000,217.0000 L 108.0000,216.0000 L 109.0000,216.0000 L 110.0000,215.0000 L 111.0000,215.0000 L 112.0000,215.0000 L 113.0000,214.0000 L 114.0000,214.0000 L 115.0000,214.0000 L 116.0000,213.0000 L 117.0000,213.0000 L 118.0000,213.0000 L 119.0000,212.0000 L 120.0000,212.0000 L 121.0000,211.0000 L 122.0000,211.0000 L 123.0000,211.0000 L 124.0000,210.0000 L 125.0000,210.0000 L 126.0000,209.0000 L 127.0000,209.0000 L 128.0000,208.0000 L 129.0000,208.0000 L 130.0000,208.0000 L 131.0000,207.0000 L 132.0000,207.0000 L 133.0000,206.0000 L 134.0000,206.0000 L 135.0000,205.0000 L 136.0000,205.0000 L 137.0000,205.0000 L 138.0000,204.0000 L 139.0000,204.0000 L 140.0000,203.0000 L 141.0000,203.0000 L 142.0000,202.0000 L 143.0000,202.0000 L 144.0000,201.0000 L 145.0000,201.0000 L 146.0000,200.0000 L 147.0000,200.0000 L 148.0000,199.0000 L 149.0000,199.0000 L 150.0000,199.0000 L 151.0000,198.0000 L 152.0000,197.0000 L 153.0000,197.0000 L 154.0000,196.0000 L 155.0000,196.0000 L 156.0000,195.0000 L 157.0000,195.0000 L 158.0000,194.0000 L 159.0000,194.0000 L 160.0000,193.0000 L 161.0000,192.0000 L 162.0000,192.0000 L 163.0000,191.0000 L 164.0000,191.0000 L 165.0000,190.0000 L 166.0000,190.0000 L 167.0000,189.0000 L 168.0000,188.0000 L 169.0000,188.0000 L 170.0000,187.0000 L 171.0000,187.0000 L 172.0000,186.0000 L 173.0000,185.0000 L 174.0000,185.0000 L 175.0000,184.0000 L 176.0000,184.0000 L 177.0000,183.0000 L 178.0000,182.0000 L 179.0000,182.0000 L 180.0000,181.0000 L 181.0000,180.0000 L 182.0000,180.0000 L 183.0000,179.0000 L 184.0000,179.0000 L 185.0000,178.0000 L 186.0000,178.0000 L 187.0000,177.0000 L 188.0000,177.0000 L 189.0000,176.0000 L 190.0000,176.0000 L 191.0000,176.0000 L 192.0000,176.0000 L 193.0000,176.0000 L 194.0000,176.0000 L 195.0000,176.0000 L 196.0000,176.0000 L 197.0000,177.0000 L 198.0000,178.0000 L 200.0000,180.0000 L 200.0000,181.0000 " stroke="#FF0000" stroke-width="2.0000"  stroke-linecap="butt"  stroke-linejoin="round" fill="none" />
<path d="M 200.0000,181.0000 L 201.0000,182.0000 L 201.0000,185.0000 L 202.0000,187.0000 L 202.0000,189.0000 L 203.0000,191.0000 L 203.0000,193.0000 L 204.0000,196.0000 L 204.0000,204.0000 L 205.0000,208.0000 L 205.0000,214.0000 L 206.0000,221.0000 L 206.0000,229.0000 L 207.0000,239.0000 L 207.0000,271.0000 L 208.0000,298.0000 L 208.0000,346.0000 L 209.0000,375.0000 " stroke="#FF0000" stroke-width="2.0000"  stroke-linecap="butt"  stroke-linejoin="round" fill="none" />
<path d="M 209.0000,375.0000 L 209.0000,363.0000 L 210.0000,299.0000 L 210.0000,266.0000 L 211.0000,244.0000 L 211.0000,217.0000 L 212.0000,211.0000 L 212.0000,210.0000 L 213.0000,215.0000 L 213.0000,230.0000 L 214.0000,264.0000 L 214.0000,375.0000 L 214.0000,306.0000 L 215.0000,243.0000 L 215.0000,222.0000 L 216.0000,221.0000 L 216.0000,234.0000 L 217.0000,256.0000 L 217.0000,272.0000 L 217.0000,191.0000 L 218.0000,157.0000 L 218.0000,129.0000 L 219.0000,116.0000 L 219.0000,127.0000 L 220.0000,177.0000 L 220.0000,307.0000 L 220.0000,141.0000 L 221.0000,104.0000 L 221.0000,88.0000 L 222.0000,85.0000 L 222.0000,89.0000 L 223.0000,100.0000 L 223.0000,118.0000 L 224.0000,149.0000 L 224.0000,286.0000 L 225.0000,197.0000 L 225.0000,148.0000 L 226.0000,121.0000 L 226.0000,103.0000 L 227.0000,89.0000 L 227.0000,71.0000 L 228.0000,65.0000 L 228.0000,59.0000 L 229.0000,55.0000 L 229.0000,51.0000 L 230.0000,48.0000 L 230.0000,43.0000 L 231.0000,42.0000 L 231.0000,40.0000 L 232.0000,39.0000 L 232.0000,38.0000 L 233.0000,37.0000 L 233.0000,36.0000 L 235.0000,34.0000 L 234.0000,34.0000 L 235.0000,34.0000 L 236.0000,34.0000 L 237.0000,34.0000 L 238.0000,34.0000 L 239.0000,34.0000 L 240.0000,35.0000 L 241.0000,35.0000 L 242.0000,36.0000 L 243.0000,37.0000 L 244.0000,37.0000 L 245.0000,38.0000 L 246.0000,39.0000 L 247.0000,40.0000 L 248.0000,40.0000 L 249.0000,41.0000 L 250.0000,42.0000 L 251.0000,43.0000 L 252.0000,44.0000 L 253.0000,45.0000 L 254.0000,45.0000 L 255.0000,46.0000 L 256.0000,47.0000 L 257.0000,48.0000 L 258.0000,49.0000 L 259.0000,49.0000 L 260.0000,50.0000 L 261.0000,51.0000 L 262.0000,52.0000 L 263.0000,53.0000 L 264.0000,53.0000 L 265.0000,54.0000 L 266.0000,55.0000 L 267.0000,55.0000 L 268.0000,56.0000 L 269.0000,57.0000 L 270.0000,58.0000 L 271.0000,58.0000 L 272.0000,59.0000 L 273.0000,60.0000 L 274.0000,60.0000 L 275.0000,61.0000 L 276.0000,61.0000 L 277.0000,62.0000 L 278.0000,63.0000 L 279.0000,63.0000 L 280.0000,64.0000 L 281.0000,64.0000 L 282.0000,65.0000 L 283.0000,66.0000 L 284.0000,66.0000 L 285.0000,67.0000 L 286.0000,67.0000 L 287.0000,68.0000 L 288.0000,68.0000 L 289.0000,69.0000 L 290.0000,69.0000 L 291.0000,70.0000 L 292.0000,70.0000 L 293.0000,71.0000 L 294.0000,72.0000 L 295.0000,72.0000 L 296.0000,73.0000 L 297.0000,73.0000 L 298.0000,73.0000 L 299.0000,74.0000 L 300.0000,75.0000 L 301.0000,75.0000 L 302.0000,75.0000 L 303.0000,76.0000 L 304.0000,76.0000 L 305.0000,77.0000 L 306.0000,77.0000 L 307.0000,78.0000 " stroke="#FF0000" stroke-width="2.0000"  stroke-linecap="butt"  stroke-linejoin="round" fill="none" />
<path d="M 307.0000,78.0000 L 308.0000,78.0000 L 309.0000,79.0000 L 310.0000,79.0000 L 311.0000,79.0000 L 312.0000,80.0000 L 313.0000,80.0000 L 314.0000,81.0000 L 315.0000,81.0000 L 316.0000,82.0000 L 317.0000,82.0000 L 318.0000,82.0000 L 319.0000,83.0000 L 320.0000,83.0000 L 321.0000,84.0000 L 322.0000,84.0000 L 323.0000,84.0000 L 324.0000,85.0000 L 325.0000,85.0000 L 326.0000,86.0000 L 327.0000,86.0000 L 328.0000,86.0000 L 329.0000,87.0000 L 330.0000,87.0000 L 331.0000,87.0000 L 332.0000,88.0000 L 333.0000,88.0000 L 334.0000,88.0000 L 335.0000,89.0000 L 336.0000,89.0000 L 337.0000,89.0000 L 338.0000,90.0000 L 339.0000,90.0000 L 340.0000,90.0000 L 341.0000,91.0000 L 342.0000,91.0000 L 343.0000,91.0000 L 344.0000,92.0000 L 345.0000,92.0000 L 346.0000,92.0000 L 347.0000,93.0000 L 348.0000,93.0000 L 349.0000,93.0000 L 350.0000,94.0000 L 351.0000,94.0000 L 352.0000,94.0000 L 353.0000,95.0000 L 354.0000,95.0000 L 355.0000,95.0000 L 356.0000,96.0000 L 357.0000,96.0000 L 358.0000,96.0000 L 359.0000,97.0000 L 360.0000,97.0000 L 361.0000,97.0000 L 362.0000,97.0000 L 363.0000,98.0000 L 364.0000,98.0000 L 365.0000,98.0000 L 366.0000,99.0000 L 367.0000,99.0000 L 368.0000,99.0000 L 369.0000,99.0000 L 370.0000,100.0000 L 371.0000,100.0000 L 372.0000,100.0000 L 373.0000,100.0000 L 374.0000,101.0000 L 375.0000,101.0000 L 376.0000,101.0000 L 377.0000,102.0000 L 378.0000,102.0000 L 379.0000,102.0000 L 380.0000,102.0000 L 381.0000,103.0000 L 382.0000,103.0000 L 383.0000,103.0000 L 384.0000,103.0000 L 385.0000,104.0000 L 386.0000,104.0000 L 387.0000,104.0000 L 388.0000,104.0000 L 389.0000,105.0000 L 390.0000,105.0000 L 391.0000,105.0000 L 392.0000,105.0000 L 393.0000,106.0000 L 394.0000,106.0000 L 395.0000,106.0000 L 396.0000,106.0000 L 397.0000,107.0000 L 398.0000,107.0000 L 399.0000,107.0000 L 400.0000,107.0000 L 401.0000,108.0000 L 402.0000,108.0000 L 403.0000,108.0000 L 404.0000,108.0000 L 405.0000,109.0000 L 406.0000,109.0000 L 407.0000,109.0000 L 408.0000,109.0000 L 409.0000,109.0000 L 410.0000,110.0000 L 411.0000,110.0000 L 412.0000,110.0000 L 413.0000,110.0000 L 414.0000,111.0000 L 415.0000,111.0000 L 416.0000,111.0000 L 417.0000,111.0000 L 418.0000,111.0000 L 419.0000,112.0000 L 420.0000,112.0000 L 421.0000,112.0000 L 422.0000,112.0000 L 423.0000,113.0000 L 424.0000,113.0000 L 425.0000,113.0000 L 426.0000,113.0000 L 427.0000,113.0000 L 428.0000,114.0000 L 429.0000,114.0000 L 430.0000,114.0000 L 431.0000,114.0000 L 432.0000,114.0000 L 433.0000,115.0000 L 434.0000,115.0000 " stroke="#FF0000" stroke-width="2.0000"  stroke-linecap="butt"  stroke-linejoin="round" fill="none" />
<path d="M 434.0000,115.0000 L 435.0000,115.0000 L 436.0000,115.0000 L 437.0000,116.0000 L 438.0000,116.0000 L 439.0000,116.0000 L 440.0000,116.0000 L 441.0000,116.0000 L 442.0000,116.0000 L 443.0000,117.0000 L 444.0000,117.0000 L 445.0000,117.0000 L 446.0000,117.0000 L 447.0000,117.0000 L 448.0000,118.0000 L 449.0000,118.0000 L 450.0000,118.0000 L 451.0000,118.0000 L 452.0000,118.0000 L 453.0000,119.0000 L 454.0000,119.0000 L 455.0000,119.0000 L 456.0000,119.0000 L 457.0000,119.0000 L 458.0000,120.0000 L 459.0000,120.0000 L 460.0000,120.0000 L 461.0000,120.0000 L 462.0000,120.0000 L 463.0000,120.0000 L 464.0000,121.0000 L 465.0000,121.0000 L 466.0000,121.0000 L 467.0000,121.0000 L 468.0000,121.0000 L 469.0000,122.0000 L 470.0000,122.0000 L 471.0000,122.0000 L 472.0000,122.0000 L 473.0000,122.0000 L 474.0000,123.0000 L 475.0000,123.0000 L 476.0000,123.0000 L 477.0000,123.0000 L 478.0000,123.0000 L 479.0000,123.0000 L 480.0000,124.0000 L 481.0000,124.0000 L 482.0000,124.0000 L 483.0000,124.0000 L 484.0000,124.0000 L 485.0000,124.0000 L 486.0000,125.0000 L 487.0000,125.0000 L 488.0000,125.0000 L 489.0000,125.0000 L 490.0000,125.0000 L 491.0000,125.0000 L 492.0000,126.0000 L 493.0000,126.0000 L 494.0000,126.0000 L 495.0000,126.0000 L 496.0000,126.0000 L 497.0000,126.0000 L 498.0000,127.0000 L 499.0000,127.0000 L 500.0000,127.0000 L 501.0000,127.0000 L 502.0000,127.0000 L 503.0000,127.0000 L 504.0000,128.0000 L 505.0000,128.0000 L 506.0000,128.0000 L 507.0000,128.0000 " stroke="#FF0000" stroke-width="2.0000"  stroke-linecap="butt"  stroke-linejoin="round" fill="none" />
<path d="M 73.0000,220.0000 L 74.0000,220.0000 L 75.0000,220.0000 L 76.0000,220.0000 L 77.0000,220.0000 L 78.0000,220.0000 L 79.0000,220.0000 L 80.0000,220.0000 L 81.0000,220.0000 L 82.0000,220.0000 L 83.0000,220.0000 L 84.0000,220.0000 L 85.0000,220.0000 L 86.0000,220.0000 L 87.0000,220.0000 L 88.0000,220.0000 L 89.0000,220.0000 L 90.0000,220.0000 L 91.0000,220.0000 L 92.0000,220.0000 L 93.0000,220.0000 L 94.0000,220.0000 L 95.0000,220.0000 L 96.0000,220.0000 L 97.0000,220.0000 L 98.0000,220.0000 L 99.0000,220.0000 L 100.0000,220.0000 L 101.0000,220.0000 L 102.0000,220.0000 L 103.0000,220.0000 L 104.0000,220.0000 L 105.0000,220.0000 L 106.0000,220.0000 L 107.0000,220.0000 L 108.0000,220.0000 L 109.0000,220.0000 L 110.0000,220.0000 L 111.0000,220.0000 L 112.0000,220.0000 L 113.0000,220.0000 L 114.0000,220.0000 L 115.0000,220.0000 L 116.0000,220.0000 L 117.0000,220.0000 L 118.0000,220.0000 L 119.0000,220.0000 L 120.0000,220.0000 L 121.0000,220.0000 L 122.0000,220.0000 L 123.0000,220.0000 L 124.0000,220.0000 L 125.0000,220.0000 L 126.0000,220.0000 L 127.0000,220.0000 L 128.0000,220.0000 L 129.0000,220.0000 L 130.0000,220.0000 L 131.0000,220.0000 L 132.0000,220.0000 L 133.0000,220.0000 L 134.0000,220.0000 L 135.0000,220.0000 L 136.0000,220.0000 L 137.0000,220.0000 L 138.0000,220.0000 L 139.0000,220.0000 L 140.0000,220.0000 L 141.0000,220.0000 L 142.0000,220.0000 L 143.0000,220.0000 L 144.0000,220.0000 L 145.0000,220.0000 L 146.0000,220.0000 L 147.0000,220.0000 L 148.0000,220.0000 L 149.0000,220.0000 L 150.0000,220.0000 L 151.0000,220.0000 L 152.0000,220.0000 L 153.0000,220.0000 L 154.0000,220.0000 L 155.0000,220.0000 L 156.0000,220.0000 L 157.0000,220.0000 L 158.0000,220.0000 L 159.0000,220.0000 L 160.0000,220.0000 L 161.0000,220.0000 L 162.0000,220.0000 L 163.0000,220.0000 L 164.0000,220.0000 L 165.0000,220.0000 L 166.0000,220.0000 L 167.0000,220.0000 L 168.0000,220.0000 L 169.0000,220.0000 L 170.0000,220.0000 L 171.0000,220.0000 L 172.0000,220.0000 L 173.0000,220.0000 L 174.0000,220.0000 L 175.0000,220.0000 L 176.0000,220.0000 L 177.0000,220.0000 L 178.0000,220.0000 L 179.0000,220.0000 L 180.0000,220.0000 L 181.0000,220.0000 L 182.0000,220.0000 L 183.0000,220.0000 L 184.0000,220.0000 L 185.0000,220.0000 L 186.0000,220.0000 L 187.0000,220.0000 L 188.0000,220.0000 L 189.0000,220.0000 L 190.0000,220.0000 L 191.0000,220.0000 L 192.0000,220.0000 L 193.0000,220.0000 L 194.0000,220.0000 L 195.0000,220.0000 L 196.0000,220.0000 L 197.0000,220.0000 L 198.0000,220.0000 L 199.0000,220.0000 L 200.0000,220.0000 " stroke="#0000FF" stroke-width="1.0000"  stroke-linecap="round"  stroke-linejoin="round" fill="none" />
<path d="M 200.0000,220.0000 L 201.0000,220.0000 L 202.0000,220.0000 L 203.0000,220.0000 L 204.0000,220.0000 L 205.0000,220.0000 L 206.0000,220.0000 L 207.0000,220.0000 L 208.0000,220.0000 L 209.0000,220.0000 L 210.0000,220.0000 L 211.0000,220.0000 L 212.0000,220.0000 L 213.0000,220.0000 L 214.0000,220.0000 L 215.0000,220.0000 L 216.0000,220.0000 L 217.0000,220.0000 L 218.0000,220.0000 L 219.0000,220.0000 L 220.0000,220.0000 L 221.0000,220.0000 L 222.0000,220.0000 L 223.0000,220.0000 L 224.0000,220.0000 L 225.0000,220.0000 L 226.0000,220.0000 L 227.0000,220.0000 L 228.0000,220.0000 L 229.0000,220.0000 L 230.0000,220.0000 L 231.0000,220.0000 L 232.0000,220.0000 L 233.0000,220.0000 L 234.0000,220.0000 L 235.0000,220.0000 L 236.0000,220.0000 L 237.0000,220.0000 L 238.0000,220.0000 L 239.0000,220.0000 L 240.0000,220.0000 L 241.0000,220.0000 L 242.0000,220.0000 L 243.0000,220.0000 L 244.0000,220.0000 L 245.0000,220.0000 L 246.0000,220.0000 L 247.0000,220.0000 L 248.0000,220.0000 L 249.0000,220.0000 L 250.0000,220.0000 L 251.0000,220.0000 L 252.0000,220.0000 L 253.0000,220.0000 L 254.0000,220.0000 L 255.0000,220.0000 L 256.0000,220.0000 L 257.0000,220.0000 L 258.0000,220.0000 L 259.0000,220.0000 L 260.0000,220.0000 L 261.0000,220.0000 L 262.0000,220.0000 L 263.0000,220.0000 L 264.0000,220.0000 L 265.0000,220.0000 L 266.0000,220.0000 L 267.0000,220.0000 L 268.0000,220.0000 L 269.0000,220.0000 L 270.0000,220.0000 L 271.0000,220.0000 L 272.0000,220.0000 L 273.0000,220.0000 L 274.0000,220.0000 L 275.0000,220.0000 L 276.0000,220.0000 L 277.0000,220.0000 L 278.0000,220.0000 L 279.0000,220.0000 L 280.0000,220.0000 L 281.0000,220.0000 L 282.0000,220.0000 L 283.0000,220.0000 L 284.0000,220.0000 L 285.0000,220.0000 L 286.0000,220.0000 L 287.0000,220.0000 L 288.0000,220.0000 L 289.0000,220.0000 L 290.0000,220.0000 L 291.0000,220.0000 L 292.0000,220.0000 L 293.0000,220.0000 L 294.0000,220.0000 L 295.0000,220.0000 L 296.0000,220.0000 L 297.0000,220.0000 L 298.0000,220.0000 L 299.0000,220.0000 L 300.0000,220.0000 L 301.0000,220.0000 L 302.0000,220.0000 L 303.0000,220.0000 L 304.0000,220.0000 L 305.0000,220.0000 L 306.0000,220.0000 L 307.0000,220.0000 L 308.0000,220.0000 L 309.0000,220.0000 L 310.0000,220.0000 L 311.0000,220.0000 L 312.0000,220.0000 L 313.0000,220.0000 L 314.0000,220.0000 L 315.0000,220.0000 L 316.0000,220.0000 L 317.0000,220.0000 L 318.0000,220.0000 L 319.0000,220.0000 L 320.0000,220.0000 L 321.0000,220.0000 L 322.0000,220.0000 L 323.0000,220.0000 L 324.0000,220.0000 L 325.0000,220.0000 L 326.0000,220.0000 L 327.0000,220.0000 " stroke="#0000FF" stroke-width="1.0000"  stroke-linecap="round"  stroke-linejoin="round" fill="none" />
<path d="M 327.0000,220.0000 L 328.0000,220.0000 L 329.0000,220.0000 L 330.0000,220.0000 L 331.0000,220.0000 L 332.0000,220.0000 L 333.0000,220.0000 L 334.0000,220.0000 L 335.0000,220.0000 L 336.0000,220.0000 L 337.0000,220.0000 L 338.0000,220.0000 L 339.0000,220.0000 L 340.0000,220.0000 L 341.0000,220.0000 L 342.0000,220.0000 L 343.0000,220.0000 L 344.0000,220.0000 L 345.0000,220.0000 L 346.0000,220.0000 L 347.0000,220.0000 L 348.0000,220.0000 L 349.0000,220.0000 L 350.0000,220.0000 L 351.0000,220.0000 L 352.0000,220.0000 L 353.0000,220.0000 L 354.0000,220.0000 L 355.0000,220.0000 L 356.0000,220.0000 L 357.0000,220.0000 L 358.0000,220.0000 L 359.0000,220.0000 L 360.0000,220.0000 L 361.0000,220.0000 L 362.0000,220.0000 L 363.0000,220.0000 L 364.0000,220.0000 L 365.0000,220.0000 L 366.0000,220.0000 L 367.0000,220.0000 L 368.0000,220.0000 L 369.0000,220.0000 L 370.0000,220.0000 L 371.0000,220.0000 L 372.0000,220.0000 L 373.0000,220.0000 L 374.0000,220.0000 L 375.0000,220.0000 L 376.0000,220.0000 L 377.0000,220.0000 L 378.0000,220.0000 L 379.0000,220.0000 L 380.0000,220.0000 L 381.0000,220.0000 L 382.0000,220.0000 L 383.0000,220.0000 L 384.0000,220.0000 L 385.0000,220.0000 L 386.0000,220.0000 L 387.0000,220.0000 L 388.0000,220.0000 L 389.0000,220.0000 L 390.0000,220.0000 L 391.0000,220.0000 L 392.0000,220.0000 L 393.0000,220.0000 L 394.0000,220.0000 L 395.0000,220.0000 L 396.0000,220.0000 L 397.0000,220.0000 L 398.0000,220.0000 L 399.0000,220.0000 L 400.0000,220.0000 L 401.0000,220.0000 L 402.0000,220.0000 L 403.0000,220.0000 L 404.0000,220.0000 L 405.0000,220.0000 L 406.0000,220.0000 L 407.0000,220.0000 L 408.0000,220.0000 L 409.0000,220.0000 L 410.0000,220.0000 L 411.0000,220.0000 L 412.0000,220.0000 L 413.0000,220.0000 L 414.0000,220.0000 L 415.0000,220.0000 L 416.0000,220.0000 L 417.0000,220.0000 L 418.0000,220.0000 L 419.0000,220.0000 L 420.0000,220.0000 L 421.0000,220.0000 L 422.0000,220.0000 L 423.0000,220.0000 L 424.0000,220.0000 L 425.0000,220.0000 L 426.0000,220.0000 L 427.0000,220.0000 L 428.0000,220.0000 L 429.0000,220.0000 L 430.0000,220.0000 L 431.0000,220.0000 L 432.0000,220.0000 L 433.0000,220.0000 L 434.0000,220.0000 L 435.0000,220.0000 L 436.0000,220.0000 L 437.0000,220.0000 L 438.0000,220.0000 L 439.0000,220.0000 L 440.0000,220.0000 L 441.0000,220.0000 L 442.0000,220.0000 L 443.0000,220.0000 L 444.0000,220.0000 L 445.0000,220.0000 L 446.0000,220.0000 L 447.0000,220.0000 L 448.0000,220.0000 L 449.0000,220.0000 L 450.0000,220.0000 L 451.0000,220.0000 L 452.0000,220.0000 L 453.0000,220.0000 L 454.0000,220.0000 " stroke="#0000FF" stroke-width="1.0000"  stroke-linecap="round"  stroke-linejoin="round" fill="none" />
<path d="M 454.0000,220.0000 L 455.0000,220.0000 L 456.0000,220.0000 L 457.0000,220.0000 L 458.0000,220.0000 L 459.0000,220.0000 L 460.0000,220.0000 L 461.0000,220.0000 L 462.0000,220.0000 L 463.0000,220.0000 L 464.0000,220.0000 L 465.0000,220.0000 L 466.0000,220.0000 L 467.0000,220.0000 L 468.0000,220.0000 L 469.0000,220.0000 L 470.0000,220.0000 L 471.0000,220.0000 L 472.0000,220.0000 L 473.0000,220.0000 L 474.0000,220.0000 L 475.0000,220.0000 L 476.0000,220.0000 L 477.0000,220.0000 L 478.0000,220.0000 L 479.0000,220.0000 L 480.0000,220.0000 L 481.0000,220.0000 L 482.0000,220.0000 L 483.0000,220.0000 L 484.0000,220.0000 L 485.0000,220.0000 L 486.0000,220.0000 L 487.0000,220.0000 L 488.0000,220.0000 L 489.0000,220.0000 L 490.0000,220.0000 L 491.0000,220.0000 L 492.0000,220.0000 L 493.0000,220.0000 L 494.0000,220.0000 L 495.0000,220.0000 L 496.0000,220.0000 L 497.0000,220.0000 L 498.0000,220.0000 L 499.0000,220.0000 L 500.0000,220.0000 L 501.0000,220.0000 L 502.0000,220.0000 L 503.0000,220.0000 L 504.0000,220.0000 L 505.0000,220.0000 L 506.0000,220.0000 L 507.0000,220.0000 " stroke="#0000FF" stroke-width="1.0000"  stroke-linecap="round"  stroke-linejoin="round" fill="none" />
<text font-family="Helvetica" fill="#000000" style ="white-space:pre;" font-weight="400" text-anchor="start" x="57.0000" y="20.7000" font-size="13.0000" ><![CDATA[RxPower w/o UE beamforming [RRH M=8 N=8 beamtheta=0deg beamphi=0deg]]]></text>
<text font-family="Helvetica" fill="#000000" style ="white-space:pre;" font-weight="400" text-anchor="start" x="185.0000" y="405.7000" font-size="13.0000" ><![CDATA[Location (meter) [Ds=700 Dmin=10]]]></text>
<text font-family="Helvetica" fill="#000000" transform="rotate(-90, 21.0000, 263.7000) translate(0, 11.7000)" style ="white-space:pre;" font-weight="400" text-anchor="start" x="21.0000" y="263.7000" font-size="13.0000" ><![CDATA[RX Power (dBm)]]></text>
<text font-family="Helvetica" fill="#000000" style ="white-space:pre;" font-weight="400" text-anchor="start" x="71.0000" y="378.7000" font-size="13.0000" ><![CDATA[ ]]></text>
<text font-family="Helvetica" fill="#000000" style ="white-space:pre;" font-weight="400" text-anchor="start" x="506.0000" y="35.7000" font-size="13.0000" ><![CDATA[ ]]></text>
<path d="M 73.0000,32.0000 L 73.0000,331.0000 " stroke="#0000FF" stroke-width="1.0000"  stroke-linecap="round"  stroke-linejoin="round" fill="none" />
<text font-family="Helvetica" fill="#000000" style ="white-space:pre;" font-weight="400" text-anchor="start" x="71.0000" y="35.7000" font-size="13.0000" ><![CDATA[RRH1]]></text>
<path d="M 217.0000,32.0000 L 217.0000,331.0000 " stroke="#0000FF" stroke-width="1.0000"  stroke-linecap="round"  stroke-linejoin="round" fill="none" />
<text font-family="Helvetica" fill="#000000" style ="white-space:pre;" font-weight="400" text-anchor="start" x="216.0000" y="35.7000" font-size="13.0000" ><![CDATA[RRH2]]></text>
<path d="M 362.0000,32.0000 L 362.0000,331.0000 " stroke="#0000FF" stroke-width="1.0000"  stroke-linecap="round"  stroke-linejoin="round" fill="none" />
<text font-family="Helvetica" fill="#000000" style ="white-space:pre;" font-weight="400" text-anchor="start" x="361.0000" y="35.7000" font-size="13.0000" ><![CDATA[RRH3]]></text>
<path d="M 507.0000,32.0000 L 507.0000,331.0000 " stroke="#0000FF" stroke-width="1.0000"  stroke-linecap="round"  stroke-linejoin="round" fill="none" />
<text font-family="Helvetica" fill="#000000" style ="white-space:pre;" font-weight="400" text-anchor="start" x="505.0000" y="35.7000" font-size="13.0000" ><![CDATA[RRH4]]></text>
<path d="M 254.0000,362.0000 L 254.0000,302.0000 L 528.0000,302.0000 L 528.0000,362.0000 Z" stroke-width="1px" stroke="#FFFFFF"  fill="#FFFFFF" />
<path d="M 254.0000,362.0000 L 254.0000,302.0000 L 528.0000,302.0000 L 528.0000,362.0000 L 254.0000,362.0000 " stroke="#FFFFFF" stroke-width="1.0000"  stroke-linecap="round"  stroke-linejoin="round" fill="none" />
<path d="M 254.0000,302.0000 L 528.0000,302.0000 " stroke="#000000" stroke-width="1.0000"  stroke-linecap="round"  stroke-linejoin="round"  fill="none" />
<path d="M 254.0000,362.0000 L 528.0000,362.0000 " stroke="#000000" stroke-width="1.0000"  stroke-linecap="round"  stroke-linejoin="round"  fill="none" />
<path d="M 528.0000,362.0000 L 528.0000,302.0000 " stroke="#000000" stroke-width="1.0000"  stroke-linecap="round"  stroke-linejoin="round"  fill="none" />
<path d="M 254.0000,362.0000 L 254.0000,302.0000 " stroke="#000000" stroke-width="1.0000"  stroke-linecap="round"  stroke-linejoin="round"  fill="none" />
<path d="M 254.0000,362.0000 L 528.0000,362.0000 " stroke="#000000" stroke-width="1.0000"  stroke-linecap="round"  stroke-linejoin="round"  fill="none" />
<path d="M 254.0000,362.0000 L 254.0000,302.0000 " stroke="#000000" stroke-width="1.0000"  stroke-linecap="round"  stroke-linejoin="round"  fill="none" />
<path d="M 254.0000,302.0000 L 528.0000,302.0000 " stroke="#000000" stroke-width="1.0000"  stroke-linecap="round"  stroke-linejoin="round"  fill="none" />
<path d="M 254.0000,362.0000 L 528.0000,362.0000 " stroke="#000000" stroke-width="1.0000"  stroke-linecap="round"  stroke-linejoin="round"  fill="none" />
<path d="M 528.0000,362.0000 L 528.0000,302.0000 " stroke="#000000" stroke-width="1.0000"  stroke-linecap="round"  stroke-linejoin="round"  fill="none" />
<path d="M 254.0000,362.0000 L 254.0000,302.0000 " stroke="#000000" stroke-width="1.0000"  stroke-linecap="round"  stroke-linejoin="round"  fill="none" />
<text font-family="Helvetica" fill="#000000" style ="white-space:pre;" font-weight="400" text-anchor="start" x="306.0000" y="317.7000" font-size="13.0000" ><![CDATA[RRH-1, beam-1]]></text>
<path d="M 262.0000,313.0000 L 302.0000,313.0000 " stroke="#000000" stroke-width="2.0000"  stroke-linecap="butt"  stroke-linejoin="round" fill="none" />
<text font-family="Helvetica" fill="#000000" style ="white-space:pre;" font-weight="400" text-anchor="start" x="306.0000" y="336.7000" font-size="13.0000" ><![CDATA[RRH-2, beam-1]]></text>
<path d="M 262.0000,332.0000 L 302.0000,332.0000 " stroke="#FF0000" stroke-width="2.0000"  stroke-linecap="butt"  stroke-linejoin="round" fill="none" />
<text font-family="Helvetica" fill="#000000" style ="white-space:pre;" font-weight="400" text-anchor="start" x="306.0000" y="354.7000" font-size="13.0000" ><![CDATA[CPE-PC4 REFSENS -94dBm@100M]]></text>
<path d="M 262.0000,350.0000 L 302.0000,350.0000 " stroke="#0000FF" stroke-width="1.0000"  stroke-linecap="round"  stroke-linejoin="round" fill="none" />
</g>
</svg>
