<?xml version="1.0"  encoding="UTF-8" standalone="no"?>
<svg version="1.1" xmlns="http://www.w3.org/2000/svg" xmlns:xlink="http://www.w3.org/1999/xlink" width="712.0000" height="345.0000">
<g transform="translate(-11.0000, -13.0000)">
<g transform="matrix(0.0625 0.0000 0.0000 0.0625 0.0000 0.0000)">
<path d="M 217.0000,3056.0000 L 11424.0000,3056.0000 " stroke="#000000" stroke-width="20.0000"  stroke-linecap="round"  stroke-linejoin="round" fill="none" />
</g>
<g transform="matrix(1.0000 0.0000 0.0000 1.0000 0.0000 0.0000)">
</g>
<g transform="matrix(0.0625 0.0000 0.0000 0.0625 0.0000 0.0000)">
<path d="M 11556.0000,3056.0000 L 11382.0000,3143.0000 C 11409.0000,3088.0000 11409.0000,3024.0000 11382.0000,2969.0000 L 11556.0000,3056.0000 Z "  fill="#000000" stroke="none" />
</g>
<g transform="matrix(1.0000 0.0000 0.0000 1.0000 0.0000 0.0000)">
</g>
<g transform="matrix(0.0625 0.0000 0.0000 0.0625 0.0000 0.0000)">
<path d="M 2485.0000,788.0000 L 2485.0000,1393.0000 L 2788.0000,1393.0000 L 2788.0000,788.0000 L 2485.0000,788.0000 Z" stroke-width="1px" stroke="#FFFFFF"  fill="#FFFFFF" />
</g>
<g transform="matrix(1.0000 0.0000 0.0000 1.0000 0.0000 0.0000)">
</g>
<g transform="matrix(0.0625 0.0000 0.0000 0.0625 0.0000 0.0000)">
<path d="M 2485.0000,1393.0000 L 2788.0000,1393.0000 L 2788.0000,788.0000 L 2485.0000,788.0000 L 2485.0000,1393.0000 Z" stroke="#000000" stroke-width="20.0000"  stroke-linecap="round"  stroke-linejoin="round" fill="none" />
</g>
<g transform="matrix(1.0000 0.0000 0.0000 1.0000 0.0000 0.0000)">
</g>
<g transform="matrix(1.0000 0.0000 0.0000 1.0000 135.8431 32.1223)">
<text font-family="Calibri" fill="#000000" style ="white-space:pre;" font-weight="400" text-anchor="start" x="0.0000" y="0.0000" font-size="20.0000" ><![CDATA[RRH #0]]></text>
</g>
<g transform="matrix(0.0625 0.0000 0.0000 0.0625 0.0000 0.0000)">
<path d="M 3997.0000,788.0000 L 3997.0000,1393.0000 L 4299.0000,1393.0000 L 4299.0000,788.0000 L 3997.0000,788.0000 Z" stroke-width="1px" stroke="#FFFFFF"  fill="#FFFFFF" />
</g>
<g transform="matrix(1.0000 0.0000 0.0000 1.0000 0.0000 0.0000)">
</g>
<g transform="matrix(0.0625 0.0000 0.0000 0.0625 0.0000 0.0000)">
<path d="M 3997.0000,1393.0000 L 4299.0000,1393.0000 L 4299.0000,788.0000 L 3997.0000,788.0000 L 3997.0000,1393.0000 Z" stroke="#000000" stroke-width="20.0000"  stroke-linecap="round"  stroke-linejoin="round" fill="none" />
</g>
<g transform="matrix(1.0000 0.0000 0.0000 1.0000 0.0000 0.0000)">
</g>
<g transform="matrix(1.0000 0.0000 0.0000 1.0000 230.3313 32.1223)">
<text font-family="Calibri" fill="#000000" style ="white-space:pre;" font-weight="400" text-anchor="start" x="0.0000" y="0.0000" font-size="20.0000" ><![CDATA[RRH #1]]></text>
</g>
<g transform="matrix(0.0625 0.0000 0.0000 0.0625 0.0000 0.0000)">
<path d="M 5509.0000,788.0000 L 5509.0000,1393.0000 L 5811.0000,1393.0000 L 5811.0000,788.0000 L 5509.0000,788.0000 Z" stroke-width="1px" stroke="#FFFFFF"  fill="#FFFFFF" />
</g>
<g transform="matrix(1.0000 0.0000 0.0000 1.0000 0.0000 0.0000)">
</g>
<g transform="matrix(0.0625 0.0000 0.0000 0.0625 0.0000 0.0000)">
<path d="M 5509.0000,1393.0000 L 5811.0000,1393.0000 L 5811.0000,788.0000 L 5509.0000,788.0000 L 5509.0000,1393.0000 Z" stroke="#000000" stroke-width="20.0000"  stroke-linecap="round"  stroke-linejoin="round" fill="none" />
</g>
<g transform="matrix(1.0000 0.0000 0.0000 1.0000 0.0000 0.0000)">
</g>
<g transform="matrix(1.0000 0.0000 0.0000 1.0000 324.8195 32.1223)">
<text font-family="Calibri" fill="#000000" style ="white-space:pre;" font-weight="400" text-anchor="start" x="0.0000" y="0.0000" font-size="20.0000" ><![CDATA[RRH #2]]></text>
</g>
<g transform="matrix(0.0625 0.0000 0.0000 0.0625 0.0000 0.0000)">
<path d="M 7021.0000,788.0000 L 7021.0000,1393.0000 L 7323.0000,1393.0000 L 7323.0000,788.0000 L 7021.0000,788.0000 Z" stroke-width="1px" stroke="#FFFFFF"  fill="#FFFFFF" />
</g>
<g transform="matrix(1.0000 0.0000 0.0000 1.0000 0.0000 0.0000)">
</g>
<g transform="matrix(0.0625 0.0000 0.0000 0.0625 0.0000 0.0000)">
<path d="M 7021.0000,1393.0000 L 7323.0000,1393.0000 L 7323.0000,788.0000 L 7021.0000,788.0000 L 7021.0000,1393.0000 Z" stroke="#000000" stroke-width="20.0000"  stroke-linecap="round"  stroke-linejoin="round" fill="none" />
</g>
<g transform="matrix(1.0000 0.0000 0.0000 1.0000 0.0000 0.0000)">
</g>
<g transform="matrix(1.0000 0.0000 0.0000 1.0000 411.7001 32.1223)">
<text font-family="Calibri" fill="#000000" style ="white-space:pre;" font-weight="400" text-anchor="start" x="0.0000" y="0.0000" font-size="20.0000" ><![CDATA[RRH #k]]></text>
</g>
<g transform="matrix(1.0000 0.0000 0.0000 1.0000 469.4543 32.1223)">
<text font-family="Calibri" fill="#000000" style ="white-space:pre;" font-weight="400" text-anchor="start" x="0.0000" y="0.0000" font-size="20.0000" ><![CDATA[-]]></text>
</g>
<g transform="matrix(1.0000 0.0000 0.0000 1.0000 475.5774 32.1223)">
<text font-family="Calibri" fill="#000000" style ="white-space:pre;" font-weight="400" text-anchor="start" x="0.0000" y="0.0000" font-size="20.0000" ><![CDATA[1]]></text>
</g>
<g transform="matrix(0.0625 0.0000 0.0000 0.0625 0.0000 0.0000)">
<path d="M 8532.0000,788.0000 L 8532.0000,1393.0000 L 8835.0000,1393.0000 L 8835.0000,788.0000 L 8532.0000,788.0000 Z" stroke-width="1px" stroke="#FFFFFF"  fill="#FFFFFF" />
</g>
<g transform="matrix(1.0000 0.0000 0.0000 1.0000 0.0000 0.0000)">
</g>
<g transform="matrix(0.0625 0.0000 0.0000 0.0625 0.0000 0.0000)">
<path d="M 8532.0000,1393.0000 L 8835.0000,1393.0000 L 8835.0000,788.0000 L 8532.0000,788.0000 L 8532.0000,1393.0000 Z" stroke="#000000" stroke-width="20.0000"  stroke-linecap="round"  stroke-linejoin="round" fill="none" />
</g>
<g transform="matrix(1.0000 0.0000 0.0000 1.0000 0.0000 0.0000)">
</g>
<g transform="matrix(1.0000 0.0000 0.0000 1.0000 514.3182 32.1223)">
<text font-family="Calibri" fill="#000000" style ="white-space:pre;" font-weight="400" text-anchor="start" x="0.0000" y="0.0000" font-size="20.0000" ><![CDATA[RRH #k]]></text>
</g>
<g transform="matrix(1.0000 0.0000 0.0000 1.0000 81.2781 210.6498)">
<text font-family="Calibri" fill="#000000" style ="white-space:pre;" font-weight="400" text-anchor="start" x="0.0000" y="0.0000" font-size="17.0000" ><![CDATA[#0]]></text>
</g>
<g transform="matrix(0.0625 0.0000 0.0000 0.0625 0.0000 0.0000)">
<path d="M 2636.0000,4870.0000 L 6566.0000,4870.0000 " stroke="#000000" stroke-width="20.0000"  stroke-linecap="round"  stroke-linejoin="round" fill="none" />
</g>
<g transform="matrix(1.0000 0.0000 0.0000 1.0000 0.0000 0.0000)">
</g>
<g transform="matrix(0.0625 0.0000 0.0000 0.0625 0.0000 0.0000)">
<path d="M 6544.0000,4783.0000 L 6718.0000,4870.0000 L 6544.0000,4957.0000 L 6544.0000,4783.0000 Z" stroke-width="1px" stroke="#000000"  fill="#000000" />
</g>
<g transform="matrix(1.0000 0.0000 0.0000 1.0000 0.0000 0.0000)">
</g>
<g transform="matrix(0.0625 0.0000 0.0000 0.0625 0.0000 0.0000)">
<path d="M 2636.0000,5324.0000 L 8077.0000,5324.0000 " stroke="#000000" stroke-width="20.0000"  stroke-linecap="round"  stroke-linejoin="round" fill="none" />
</g>
<g transform="matrix(1.0000 0.0000 0.0000 1.0000 0.0000 0.0000)">
</g>
<g transform="matrix(0.0625 0.0000 0.0000 0.0625 0.0000 0.0000)">
<path d="M 8056.0000,5237.0000 L 8230.0000,5324.0000 L 8056.0000,5411.0000 L 8056.0000,5237.0000 Z" stroke-width="1px" stroke="#000000"  fill="#000000" />
</g>
<g transform="matrix(1.0000 0.0000 0.0000 1.0000 0.0000 0.0000)">
</g>
<g transform="matrix(0.0625 0.0000 0.0000 0.0625 0.0000 0.0000)">
<path d="M 2636.0000,4417.0000 L 5054.0000,4417.0000 " stroke="#000000" stroke-width="20.0000"  stroke-linecap="round"  stroke-linejoin="round" fill="none" />
</g>
<g transform="matrix(1.0000 0.0000 0.0000 1.0000 0.0000 0.0000)">
</g>
<g transform="matrix(0.0625 0.0000 0.0000 0.0625 0.0000 0.0000)">
<path d="M 5032.0000,4330.0000 L 5206.0000,4417.0000 L 5032.0000,4504.0000 L 5032.0000,4330.0000 Z" stroke-width="1px" stroke="#000000"  fill="#000000" />
</g>
<g transform="matrix(1.0000 0.0000 0.0000 1.0000 0.0000 0.0000)">
</g>
<g transform="matrix(0.0625 0.0000 0.0000 0.0625 0.0000 0.0000)">
<path d="M 10044.0000,788.0000 L 10044.0000,1393.0000 L 10347.0000,1393.0000 L 10347.0000,788.0000 L 10044.0000,788.0000 Z" stroke-width="1px" stroke="#FFFFFF"  fill="#FFFFFF" />
</g>
<g transform="matrix(1.0000 0.0000 0.0000 1.0000 0.0000 0.0000)">
</g>
<g transform="matrix(0.0625 0.0000 0.0000 0.0625 0.0000 0.0000)">
<path d="M 10044.0000,1393.0000 L 10347.0000,1393.0000 L 10347.0000,788.0000 L 10044.0000,788.0000 L 10044.0000,1393.0000 Z" stroke="#000000" stroke-width="20.0000"  stroke-linecap="round"  stroke-linejoin="round" fill="none" />
</g>
<g transform="matrix(1.0000 0.0000 0.0000 1.0000 0.0000 0.0000)">
</g>
<g transform="matrix(1.0000 0.0000 0.0000 1.0000 598.7575 32.1223)">
<text font-family="Calibri" fill="#000000" style ="white-space:pre;" font-weight="400" text-anchor="start" x="0.0000" y="0.0000" font-size="20.0000" ><![CDATA[RRH #k+1]]></text>
</g>
<g transform="matrix(0.0625 0.0000 0.0000 0.0625 0.0000 0.0000)">
<path d="M 2636.0000,3963.0000 L 3542.0000,3963.0000 " stroke="#000000" stroke-width="20.0000"  stroke-linecap="round"  stroke-linejoin="round" fill="none" />
</g>
<g transform="matrix(1.0000 0.0000 0.0000 1.0000 0.0000 0.0000)">
</g>
<g transform="matrix(0.0625 0.0000 0.0000 0.0625 0.0000 0.0000)">
<path d="M 3520.0000,3876.0000 L 3695.0000,3963.0000 L 3520.0000,4050.0000 L 3520.0000,3876.0000 Z" stroke-width="1px" stroke="#000000"  fill="#000000" />
</g>
<g transform="matrix(1.0000 0.0000 0.0000 1.0000 0.0000 0.0000)">
</g>
<g transform="matrix(0.0625 0.0000 0.0000 0.0625 0.0000 0.0000)">
<path d="M 6114.0000,1166.0000 C 6114.0000,1125.0000 6080.0000,1091.0000 6038.0000,1091.0000 C 5996.0000,1091.0000 5962.0000,1125.0000 5962.0000,1166.0000 C 5962.0000,1208.0000 5996.0000,1242.0000 6038.0000,1242.0000 C 6080.0000,1242.0000 6114.0000,1208.0000 6114.0000,1166.0000 "  fill="#000000" stroke="none" />
</g>
<g transform="matrix(1.0000 0.0000 0.0000 1.0000 0.0000 0.0000)">
</g>
<g transform="matrix(0.0625 0.0000 0.0000 0.0625 0.0000 0.0000)">
<path d="M 6114.0000,1166.0000 M 6114.0000,1166.0000 C 6114.0000,1125.0000 6080.0000,1091.0000 6038.0000,1091.0000 C 5996.0000,1091.0000 5962.0000,1125.0000 5962.0000,1166.0000 C 5962.0000,1208.0000 5996.0000,1242.0000 6038.0000,1242.0000 C 6080.0000,1242.0000 6114.0000,1208.0000 6114.0000,1166.0000 " stroke="#000000" stroke-width="20.0000"  stroke-linecap="round"  stroke-linejoin="round"  fill="none" />
</g>
<g transform="matrix(1.0000 0.0000 0.0000 1.0000 0.0000 0.0000)">
</g>
<g transform="matrix(0.0625 0.0000 0.0000 0.0625 0.0000 0.0000)">
<path d="M 6416.0000,1166.0000 C 6416.0000,1125.0000 6382.0000,1091.0000 6340.0000,1091.0000 C 6299.0000,1091.0000 6265.0000,1125.0000 6265.0000,1166.0000 C 6265.0000,1208.0000 6299.0000,1242.0000 6340.0000,1242.0000 C 6382.0000,1242.0000 6416.0000,1208.0000 6416.0000,1166.0000 "  fill="#000000" stroke="none" />
</g>
<g transform="matrix(1.0000 0.0000 0.0000 1.0000 0.0000 0.0000)">
</g>
<g transform="matrix(0.0625 0.0000 0.0000 0.0625 0.0000 0.0000)">
<path d="M 6416.0000,1166.0000 M 6416.0000,1166.0000 C 6416.0000,1125.0000 6382.0000,1091.0000 6340.0000,1091.0000 C 6299.0000,1091.0000 6265.0000,1125.0000 6265.0000,1166.0000 C 6265.0000,1208.0000 6299.0000,1242.0000 6340.0000,1242.0000 C 6382.0000,1242.0000 6416.0000,1208.0000 6416.0000,1166.0000 " stroke="#000000" stroke-width="20.0000"  stroke-linecap="round"  stroke-linejoin="round"  fill="none" />
</g>
<g transform="matrix(1.0000 0.0000 0.0000 1.0000 0.0000 0.0000)">
</g>
<g transform="matrix(0.0625 0.0000 0.0000 0.0625 0.0000 0.0000)">
<path d="M 6718.0000,1166.0000 C 6718.0000,1125.0000 6684.0000,1091.0000 6643.0000,1091.0000 C 6601.0000,1091.0000 6567.0000,1125.0000 6567.0000,1166.0000 C 6567.0000,1208.0000 6601.0000,1242.0000 6643.0000,1242.0000 C 6684.0000,1242.0000 6718.0000,1208.0000 6718.0000,1166.0000 "  fill="#000000" stroke="none" />
</g>
<g transform="matrix(1.0000 0.0000 0.0000 1.0000 0.0000 0.0000)">
</g>
<g transform="matrix(0.0625 0.0000 0.0000 0.0625 0.0000 0.0000)">
<path d="M 6718.0000,1166.0000 M 6718.0000,1166.0000 C 6718.0000,1125.0000 6684.0000,1091.0000 6643.0000,1091.0000 C 6601.0000,1091.0000 6567.0000,1125.0000 6567.0000,1166.0000 C 6567.0000,1208.0000 6601.0000,1242.0000 6643.0000,1242.0000 C 6684.0000,1242.0000 6718.0000,1208.0000 6718.0000,1166.0000 " stroke="#000000" stroke-width="20.0000"  stroke-linecap="round"  stroke-linejoin="round"  fill="none" />
</g>
<g transform="matrix(1.0000 0.0000 0.0000 1.0000 0.0000 0.0000)">
</g>
<g transform="matrix(0.0625 0.0000 0.0000 0.0625 0.0000 0.0000)">
<path d="M 4148.0000,1393.0000 L 2183.0000,3056.0000 L 3695.0000,3056.0000 L 4148.0000,1393.0000 Z" stroke="#000000" stroke-width="20.0000"  stroke-linecap="round"  stroke-linejoin="round" fill="none" />
</g>
<g transform="matrix(1.0000 0.0000 0.0000 1.0000 0.0000 0.0000)">
</g>
<g transform="matrix(0.0625 0.0000 0.0000 0.0625 0.0000 0.0000)">
<path d="M 2636.0000,1393.0000 L 671.0000,3056.0000 L 2183.0000,3056.0000 L 2636.0000,1393.0000 Z" stroke="#000000" stroke-width="20.0000"  stroke-linecap="round"  stroke-linejoin="round" fill="none" />
</g>
<g transform="matrix(1.0000 0.0000 0.0000 1.0000 0.0000 0.0000)">
</g>
<g transform="matrix(0.0625 0.0000 0.0000 0.0625 0.0000 0.0000)">
<path d="M 5660.0000,1393.0000 L 3695.0000,3056.0000 L 5206.0000,3056.0000 L 5660.0000,1393.0000 Z" stroke="#000000" stroke-width="20.0000"  stroke-linecap="round"  stroke-linejoin="round" fill="none" />
</g>
<g transform="matrix(1.0000 0.0000 0.0000 1.0000 0.0000 0.0000)">
</g>
<g transform="matrix(0.0625 0.0000 0.0000 0.0625 0.0000 0.0000)">
<path d="M 7172.0000,1393.0000 L 5206.0000,3056.0000 L 6718.0000,3056.0000 L 7172.0000,1393.0000 Z" stroke="#000000" stroke-width="20.0000"  stroke-linecap="round"  stroke-linejoin="round" fill="none" />
</g>
<g transform="matrix(1.0000 0.0000 0.0000 1.0000 0.0000 0.0000)">
</g>
<g transform="matrix(0.0625 0.0000 0.0000 0.0625 0.0000 0.0000)">
<path d="M 8684.0000,1393.0000 L 6718.0000,3056.0000 L 8230.0000,3056.0000 L 8684.0000,1393.0000 Z" stroke="#000000" stroke-width="20.0000"  stroke-linecap="round"  stroke-linejoin="round" fill="none" />
</g>
<g transform="matrix(1.0000 0.0000 0.0000 1.0000 0.0000 0.0000)">
</g>
<g transform="matrix(0.0625 0.0000 0.0000 0.0625 0.0000 0.0000)">
<path d="M 10195.0000,1393.0000 L 8230.0000,3056.0000 L 9742.0000,3056.0000 L 10195.0000,1393.0000 Z" stroke="#000000" stroke-width="20.0000"  stroke-linecap="round"  stroke-linejoin="round" fill="none" />
</g>
<g transform="matrix(1.0000 0.0000 0.0000 1.0000 0.0000 0.0000)">
</g>
<g transform="matrix(1.0000 0.0000 0.0000 1.0000 175.7663 210.6498)">
<text font-family="Calibri" fill="#000000" style ="white-space:pre;" font-weight="400" text-anchor="start" x="0.0000" y="0.0000" font-size="17.0000" ><![CDATA[#1]]></text>
</g>
<g transform="matrix(1.0000 0.0000 0.0000 1.0000 270.2545 210.6498)">
<text font-family="Calibri" fill="#000000" style ="white-space:pre;" font-weight="400" text-anchor="start" x="0.0000" y="0.0000" font-size="17.0000" ><![CDATA[#2]]></text>
</g>
<g transform="matrix(1.0000 0.0000 0.0000 1.0000 358.4031 210.6498)">
<text font-family="Calibri" fill="#000000" style ="white-space:pre;" font-weight="400" text-anchor="start" x="0.0000" y="0.0000" font-size="17.0000" ><![CDATA[#k]]></text>
</g>
<g transform="matrix(1.0000 0.0000 0.0000 1.0000 374.2802 210.6498)">
<text font-family="Calibri" fill="#000000" style ="white-space:pre;" font-weight="400" text-anchor="start" x="0.0000" y="0.0000" font-size="17.0000" ><![CDATA[-]]></text>
</g>
<g transform="matrix(1.0000 0.0000 0.0000 1.0000 379.3829 210.6498)">
<text font-family="Calibri" fill="#000000" style ="white-space:pre;" font-weight="400" text-anchor="start" x="0.0000" y="0.0000" font-size="17.0000" ><![CDATA[1]]></text>
</g>
<g transform="matrix(1.0000 0.0000 0.0000 1.0000 459.6662 210.6498)">
<text font-family="Calibri" fill="#000000" style ="white-space:pre;" font-weight="400" text-anchor="start" x="0.0000" y="0.0000" font-size="17.0000" ><![CDATA[#k]]></text>
</g>
<g transform="matrix(1.0000 0.0000 0.0000 1.0000 545.7805 210.6498)">
<text font-family="Calibri" fill="#000000" style ="white-space:pre;" font-weight="400" text-anchor="start" x="0.0000" y="0.0000" font-size="17.0000" ><![CDATA[#k+1]]></text>
</g>
<g transform="matrix(1.0000 0.0000 0.0000 1.0000 171.9095 268.3429)">
<text font-family="Calibri" fill="#000000" style ="white-space:pre;" font-weight="400" text-anchor="start" x="0.0000" y="0.0000" font-size="20.0000" ><![CDATA[1*D]]></text>
</g>
<g transform="matrix(1.0000 0.0000 0.0000 1.0000 204.3119 271.1357)">
<text font-family="Calibri" fill="#000000" style ="white-space:pre;" font-weight="400" text-anchor="start" x="0.0000" y="0.0000" font-size="13.0000" ><![CDATA[s ]]></text>
</g>
<g transform="matrix(1.0000 0.0000 0.0000 1.0000 212.3337 268.3429)">
<text font-family="Calibri" fill="#000000" style ="white-space:pre;" font-weight="400" text-anchor="start" x="0.0000" y="0.0000" font-size="20.0000" ><![CDATA[-]]></text>
</g>
<g transform="matrix(1.0000 0.0000 0.0000 1.0000 218.4568 268.3429)">
<text font-family="Calibri" fill="#000000" style ="white-space:pre;" font-weight="400" text-anchor="start" x="0.0000" y="0.0000" font-size="20.0000" ><![CDATA[ ]]></text>
</g>
<g transform="matrix(1.0000 0.0000 0.0000 1.0000 222.9781 268.3429)">
<text font-family="Calibri" fill="#000000" style ="white-space:pre;" font-weight="400" text-anchor="start" x="0.0000" y="0.0000" font-size="20.0000" ><![CDATA[D]]></text>
</g>
<g transform="matrix(1.0000 0.0000 0.0000 1.0000 235.2828 271.1357)">
<text font-family="Calibri" fill="#000000" style ="white-space:pre;" font-weight="400" text-anchor="start" x="0.0000" y="0.0000" font-size="13.0000" ><![CDATA[s_offset]]></text>
</g>
<g transform="matrix(0.0625 0.0000 0.0000 0.0625 0.0000 0.0000)">
<path d="M 2646.0000,637.0000 L 2646.0000,777.0000 C 2646.0000,783.0000 2642.0000,787.0000 2636.0000,787.0000 C 2631.0000,787.0000 2626.0000,783.0000 2626.0000,777.0000 L 2626.0000,637.0000 C 2626.0000,632.0000 2631.0000,627.0000 2636.0000,627.0000 C 2642.0000,627.0000 2646.0000,632.0000 2646.0000,637.0000 Z M 2646.0000,877.0000 L 2646.0000,1017.0000 C 2646.0000,1023.0000 2642.0000,1027.0000 2636.0000,1027.0000 C 2631.0000,1027.0000 2626.0000,1023.0000 2626.0000,1017.0000 L 2626.0000,877.0000 C 2626.0000,872.0000 2631.0000,867.0000 2636.0000,867.0000 C 2642.0000,867.0000 2646.0000,872.0000 2646.0000,877.0000 Z M 2646.0000,1117.0000 L 2646.0000,1257.0000 C 2646.0000,1263.0000 2642.0000,1267.0000 2636.0000,1267.0000 C 2631.0000,1267.0000 2626.0000,1263.0000 2626.0000,1257.0000 L 2626.0000,1117.0000 C 2626.0000,1112.0000 2631.0000,1107.0000 2636.0000,1107.0000 C 2642.0000,1107.0000 2646.0000,1112.0000 2646.0000,1117.0000 Z M 2646.0000,1357.0000 L 2646.0000,1497.0000 C 2646.0000,1503.0000 2642.0000,1507.0000 2636.0000,1507.0000 C 2631.0000,1507.0000 2626.0000,1503.0000 2626.0000,1497.0000 L 2626.0000,1357.0000 C 2626.0000,1352.0000 2631.0000,1347.0000 2636.0000,1347.0000 C 2642.0000,1347.0000 2646.0000,1352.0000 2646.0000,1357.0000 Z M 2646.0000,1597.0000 L 2646.0000,1737.0000 C 2646.0000,1743.0000 2642.0000,1747.0000 2636.0000,1747.0000 C 2631.0000,1747.0000 2626.0000,1743.0000 2626.0000,1737.0000 L 2626.0000,1597.0000 C 2626.0000,1592.0000 2631.0000,1587.0000 2636.0000,1587.0000 C 2642.0000,1587.0000 2646.0000,1592.0000 2646.0000,1597.0000 Z M 2646.0000,1837.0000 L 2646.0000,1977.0000 C 2646.0000,1983.0000 2642.0000,1987.0000 2636.0000,1987.0000 C 2631.0000,1987.0000 2626.0000,1983.0000 2626.0000,1977.0000 L 2626.0000,1837.0000 C 2626.0000,1832.0000 2631.0000,1827.0000 2636.0000,1827.0000 C 2642.0000,1827.0000 2646.0000,1832.0000 2646.0000,1837.0000 Z M 2646.0000,2077.0000 L 2646.0000,2217.0000 C 2646.0000,2223.0000 2642.0000,2227.0000 2636.0000,2227.0000 C 2631.0000,2227.0000 2626.0000,2223.0000 2626.0000,2217.0000 L 2626.0000,2077.0000 C 2626.0000,2072.0000 2631.0000,2067.0000 2636.0000,2067.0000 C 2642.0000,2067.0000 2646.0000,2072.0000 2646.0000,2077.0000 Z M 2646.0000,2317.0000 L 2646.0000,2457.0000 C 2646.0000,2463.0000 2642.0000,2467.0000 2636.0000,2467.0000 C 2631.0000,2467.0000 2626.0000,2463.0000 2626.0000,2457.0000 L 2626.0000,2317.0000 C 2626.0000,2312.0000 2631.0000,2307.0000 2636.0000,2307.0000 C 2642.0000,2307.0000 2646.0000,2312.0000 2646.0000,2317.0000 Z M 2646.0000,2557.0000 L 2646.0000,2697.0000 C 2646.0000,2703.0000 2642.0000,2707.0000 2636.0000,2707.0000 C 2631.0000,2707.0000 2626.0000,2703.0000 2626.0000,2697.0000 L 2626.0000,2557.0000 C 2626.0000,2552.0000 2631.0000,2547.0000 2636.0000,2547.0000 C 2642.0000,2547.0000 2646.0000,2552.0000 2646.0000,2557.0000 Z M 2646.0000,2797.0000 L 2646.0000,2937.0000 C 2646.0000,2943.0000 2642.0000,2947.0000 2636.0000,2947.0000 C 2631.0000,2947.0000 2626.0000,2943.0000 2626.0000,2937.0000 L 2626.0000,2797.0000 C 2626.0000,2792.0000 2631.0000,2787.0000 2636.0000,2787.0000 C 2642.0000,2787.0000 2646.0000,2792.0000 2646.0000,2797.0000 Z M 2646.0000,3037.0000 L 2646.0000,3177.0000 C 2646.0000,3183.0000 2642.0000,3187.0000 2636.0000,3187.0000 C 2631.0000,3187.0000 2626.0000,3183.0000 2626.0000,3177.0000 L 2626.0000,3037.0000 C 2626.0000,3032.0000 2631.0000,3027.0000 2636.0000,3027.0000 C 2642.0000,3027.0000 2646.0000,3032.0000 2646.0000,3037.0000 Z M 2646.0000,3277.0000 L 2646.0000,3417.0000 C 2646.0000,3423.0000 2642.0000,3427.0000 2636.0000,3427.0000 C 2631.0000,3427.0000 2626.0000,3423.0000 2626.0000,3417.0000 L 2626.0000,3277.0000 C 2626.0000,3272.0000 2631.0000,3267.0000 2636.0000,3267.0000 C 2642.0000,3267.0000 2646.0000,3272.0000 2646.0000,3277.0000 Z M 2646.0000,3517.0000 L 2646.0000,3657.0000 C 2646.0000,3663.0000 2642.0000,3667.0000 2636.0000,3667.0000 C 2631.0000,3667.0000 2626.0000,3663.0000 2626.0000,3657.0000 L 2626.0000,3517.0000 C 2626.0000,3512.0000 2631.0000,3507.0000 2636.0000,3507.0000 C 2642.0000,3507.0000 2646.0000,3512.0000 2646.0000,3517.0000 Z M 2646.0000,3757.0000 L 2646.0000,3897.0000 C 2646.0000,3903.0000 2642.0000,3907.0000 2636.0000,3907.0000 C 2631.0000,3907.0000 2626.0000,3903.0000 2626.0000,3897.0000 L 2626.0000,3757.0000 C 2626.0000,3752.0000 2631.0000,3747.0000 2636.0000,3747.0000 C 2642.0000,3747.0000 2646.0000,3752.0000 2646.0000,3757.0000 Z M 2646.0000,3997.0000 L 2646.0000,4137.0000 C 2646.0000,4143.0000 2642.0000,4147.0000 2636.0000,4147.0000 C 2631.0000,4147.0000 2626.0000,4143.0000 2626.0000,4137.0000 L 2626.0000,3997.0000 C 2626.0000,3992.0000 2631.0000,3987.0000 2636.0000,3987.0000 C 2642.0000,3987.0000 2646.0000,3992.0000 2646.0000,3997.0000 Z M 2646.0000,4237.0000 L 2646.0000,4377.0000 C 2646.0000,4383.0000 2642.0000,4387.0000 2636.0000,4387.0000 C 2631.0000,4387.0000 2626.0000,4383.0000 2626.0000,4377.0000 L 2626.0000,4237.0000 C 2626.0000,4232.0000 2631.0000,4227.0000 2636.0000,4227.0000 C 2642.0000,4227.0000 2646.0000,4232.0000 2646.0000,4237.0000 Z M 2646.0000,4477.0000 L 2646.0000,4617.0000 C 2646.0000,4623.0000 2642.0000,4627.0000 2636.0000,4627.0000 C 2631.0000,4627.0000 2626.0000,4623.0000 2626.0000,4617.0000 L 2626.0000,4477.0000 C 2626.0000,4472.0000 2631.0000,4467.0000 2636.0000,4467.0000 C 2642.0000,4467.0000 2646.0000,4472.0000 2646.0000,4477.0000 Z M 2646.0000,4717.0000 L 2646.0000,4857.0000 C 2646.0000,4863.0000 2642.0000,4867.0000 2636.0000,4867.0000 C 2631.0000,4867.0000 2626.0000,4863.0000 2626.0000,4857.0000 L 2626.0000,4717.0000 C 2626.0000,4712.0000 2631.0000,4707.0000 2636.0000,4707.0000 C 2642.0000,4707.0000 2646.0000,4712.0000 2646.0000,4717.0000 Z M 2646.0000,4957.0000 L 2646.0000,5097.0000 C 2646.0000,5103.0000 2642.0000,5107.0000 2636.0000,5107.0000 C 2631.0000,5107.0000 2626.0000,5103.0000 2626.0000,5097.0000 L 2626.0000,4957.0000 C 2626.0000,4952.0000 2631.0000,4947.0000 2636.0000,4947.0000 C 2642.0000,4947.0000 2646.0000,4952.0000 2646.0000,4957.0000 Z M 2646.0000,5197.0000 L 2646.0000,5337.0000 C 2646.0000,5343.0000 2642.0000,5347.0000 2636.0000,5347.0000 C 2631.0000,5347.0000 2626.0000,5343.0000 2626.0000,5337.0000 L 2626.0000,5197.0000 C 2626.0000,5192.0000 2631.0000,5187.0000 2636.0000,5187.0000 C 2642.0000,5187.0000 2646.0000,5192.0000 2646.0000,5197.0000 Z M 2646.0000,5437.0000 L 2646.0000,5577.0000 C 2646.0000,5583.0000 2642.0000,5587.0000 2636.0000,5587.0000 C 2631.0000,5587.0000 2626.0000,5583.0000 2626.0000,5577.0000 L 2626.0000,5437.0000 C 2626.0000,5432.0000 2631.0000,5427.0000 2636.0000,5427.0000 C 2642.0000,5427.0000 2646.0000,5432.0000 2646.0000,5437.0000 Z "  fill="#000000" stroke="#000000" stroke-width="1.0000"  stroke-linecap="butt"  stroke-linejoin="round" />
</g>
<g transform="matrix(1.0000 0.0000 0.0000 1.0000 0.0000 0.0000)">
</g>
<g transform="matrix(0.0625 0.0000 0.0000 0.0625 0.0000 0.0000)">
<path d="M 2315.0000,3510.0000 L 2504.0000,3510.0000 " stroke="#000000" stroke-width="20.0000"  stroke-linecap="round"  stroke-linejoin="round" fill="none" />
</g>
<g transform="matrix(1.0000 0.0000 0.0000 1.0000 0.0000 0.0000)">
</g>
<g transform="matrix(0.0625 0.0000 0.0000 0.0625 0.0000 0.0000)">
<path d="M 2183.0000,3510.0000 L 2357.0000,3422.0000 C 2330.0000,3477.0000 2330.0000,3542.0000 2357.0000,3597.0000 L 2183.0000,3510.0000 Z "  fill="#000000" stroke="none" />
</g>
<g transform="matrix(1.0000 0.0000 0.0000 1.0000 0.0000 0.0000)">
</g>
<g transform="matrix(0.0625 0.0000 0.0000 0.0625 0.0000 0.0000)">
<path d="M 2636.0000,3510.0000 L 2462.0000,3597.0000 C 2489.0000,3542.0000 2489.0000,3477.0000 2462.0000,3422.0000 L 2636.0000,3510.0000 Z "  fill="#000000" stroke="none" />
</g>
<g transform="matrix(1.0000 0.0000 0.0000 1.0000 0.0000 0.0000)">
</g>
<g transform="matrix(1.0000 0.0000 0.0000 1.0000 100.1706 239.9965)">
<text font-family="Calibri" fill="#000000" style ="white-space:pre;" font-weight="400" text-anchor="start" x="0.0000" y="0.0000" font-size="20.0000" ><![CDATA[D]]></text>
</g>
<g transform="matrix(1.0000 0.0000 0.0000 1.0000 112.4753 242.7893)">
<text font-family="Calibri" fill="#000000" style ="white-space:pre;" font-weight="400" text-anchor="start" x="0.0000" y="0.0000" font-size="13.0000" ><![CDATA[s_offset]]></text>
</g>
<g transform="matrix(1.0000 0.0000 0.0000 1.0000 202.1956 296.6894)">
<text font-family="Calibri" fill="#000000" style ="white-space:pre;" font-weight="400" text-anchor="start" x="0.0000" y="0.0000" font-size="20.0000" ><![CDATA[2*D]]></text>
</g>
<g transform="matrix(1.0000 0.0000 0.0000 1.0000 234.5980 299.4822)">
<text font-family="Calibri" fill="#000000" style ="white-space:pre;" font-weight="400" text-anchor="start" x="0.0000" y="0.0000" font-size="13.0000" ><![CDATA[s ]]></text>
</g>
<g transform="matrix(1.0000 0.0000 0.0000 1.0000 242.6198 296.6894)">
<text font-family="Calibri" fill="#000000" style ="white-space:pre;" font-weight="400" text-anchor="start" x="0.0000" y="0.0000" font-size="20.0000" ><![CDATA[-]]></text>
</g>
<g transform="matrix(1.0000 0.0000 0.0000 1.0000 248.7429 296.6894)">
<text font-family="Calibri" fill="#000000" style ="white-space:pre;" font-weight="400" text-anchor="start" x="0.0000" y="0.0000" font-size="20.0000" ><![CDATA[ ]]></text>
</g>
<g transform="matrix(1.0000 0.0000 0.0000 1.0000 253.2642 296.6894)">
<text font-family="Calibri" fill="#000000" style ="white-space:pre;" font-weight="400" text-anchor="start" x="0.0000" y="0.0000" font-size="20.0000" ><![CDATA[D]]></text>
</g>
<g transform="matrix(1.0000 0.0000 0.0000 1.0000 265.5689 299.4822)">
<text font-family="Calibri" fill="#000000" style ="white-space:pre;" font-weight="400" text-anchor="start" x="0.0000" y="0.0000" font-size="13.0000" ><![CDATA[s_offset]]></text>
</g>
<g transform="matrix(1.0000 0.0000 0.0000 1.0000 226.3189 325.0359)">
<text font-family="Calibri" fill="#000000" style ="white-space:pre;" font-weight="400" text-anchor="start" x="0.0000" y="0.0000" font-size="20.0000" ><![CDATA[(k]]></text>
</g>
<g transform="matrix(1.0000 0.0000 0.0000 1.0000 241.4750 325.0359)">
<text font-family="Calibri" fill="#000000" style ="white-space:pre;" font-weight="400" text-anchor="start" x="0.0000" y="0.0000" font-size="20.0000" ><![CDATA[-]]></text>
</g>
<g transform="matrix(1.0000 0.0000 0.0000 1.0000 247.5980 325.0359)">
<text font-family="Calibri" fill="#000000" style ="white-space:pre;" font-weight="400" text-anchor="start" x="0.0000" y="0.0000" font-size="20.0000" ><![CDATA[1)*D]]></text>
</g>
<g transform="matrix(1.0000 0.0000 0.0000 1.0000 286.0648 327.8287)">
<text font-family="Calibri" fill="#000000" style ="white-space:pre;" font-weight="400" text-anchor="start" x="0.0000" y="0.0000" font-size="13.0000" ><![CDATA[s ]]></text>
</g>
<g transform="matrix(1.0000 0.0000 0.0000 1.0000 294.0867 325.0359)">
<text font-family="Calibri" fill="#000000" style ="white-space:pre;" font-weight="400" text-anchor="start" x="0.0000" y="0.0000" font-size="20.0000" ><![CDATA[-]]></text>
</g>
<g transform="matrix(1.0000 0.0000 0.0000 1.0000 300.2097 325.0359)">
<text font-family="Calibri" fill="#000000" style ="white-space:pre;" font-weight="400" text-anchor="start" x="0.0000" y="0.0000" font-size="20.0000" ><![CDATA[ ]]></text>
</g>
<g transform="matrix(1.0000 0.0000 0.0000 1.0000 304.7310 325.0359)">
<text font-family="Calibri" fill="#000000" style ="white-space:pre;" font-weight="400" text-anchor="start" x="0.0000" y="0.0000" font-size="20.0000" ><![CDATA[D]]></text>
</g>
<g transform="matrix(1.0000 0.0000 0.0000 1.0000 317.0357 327.8287)">
<text font-family="Calibri" fill="#000000" style ="white-space:pre;" font-weight="400" text-anchor="start" x="0.0000" y="0.0000" font-size="13.0000" ><![CDATA[s_offset]]></text>
</g>
<g transform="matrix(1.0000 0.0000 0.0000 1.0000 287.7572 353.3823)">
<text font-family="Calibri" fill="#000000" style ="white-space:pre;" font-weight="400" text-anchor="start" x="0.0000" y="0.0000" font-size="20.0000" ><![CDATA[k*D]]></text>
</g>
<g transform="matrix(1.0000 0.0000 0.0000 1.0000 319.1144 356.1751)">
<text font-family="Calibri" fill="#000000" style ="white-space:pre;" font-weight="400" text-anchor="start" x="0.0000" y="0.0000" font-size="13.0000" ><![CDATA[s ]]></text>
</g>
<g transform="matrix(1.0000 0.0000 0.0000 1.0000 327.1363 353.3823)">
<text font-family="Calibri" fill="#000000" style ="white-space:pre;" font-weight="400" text-anchor="start" x="0.0000" y="0.0000" font-size="20.0000" ><![CDATA[-]]></text>
</g>
<g transform="matrix(1.0000 0.0000 0.0000 1.0000 333.2593 353.3823)">
<text font-family="Calibri" fill="#000000" style ="white-space:pre;" font-weight="400" text-anchor="start" x="0.0000" y="0.0000" font-size="20.0000" ><![CDATA[ ]]></text>
</g>
<g transform="matrix(1.0000 0.0000 0.0000 1.0000 337.7807 353.3823)">
<text font-family="Calibri" fill="#000000" style ="white-space:pre;" font-weight="400" text-anchor="start" x="0.0000" y="0.0000" font-size="20.0000" ><![CDATA[D]]></text>
</g>
<g transform="matrix(1.0000 0.0000 0.0000 1.0000 350.0854 356.1751)">
<text font-family="Calibri" fill="#000000" style ="white-space:pre;" font-weight="400" text-anchor="start" x="0.0000" y="0.0000" font-size="13.0000" ><![CDATA[s_offset]]></text>
</g>
</g>
</svg>
