<?xml version="1.0"  encoding="UTF-8" standalone="no"?>
<svg version="1.1" xmlns="http://www.w3.org/2000/svg" xmlns:xlink="http://www.w3.org/1999/xlink" width="891.0000" height="292.0000">
<g transform="translate(-11.0000, -4.0000)">
<g transform="matrix(0.0625 0.0000 0.0000 0.0625 0.0000 0.0000)">
<path d="M 217.0000,940.0000 L 14296.0000,940.0000 " stroke="#000000" stroke-width="20.0000"  stroke-linecap="round"  stroke-linejoin="round" fill="none" />
</g>
<g transform="matrix(1.0000 0.0000 0.0000 1.0000 0.0000 0.0000)">
</g>
<g transform="matrix(0.0625 0.0000 0.0000 0.0625 0.0000 0.0000)">
<path d="M 14428.0000,940.0000 L 14254.0000,1027.0000 C 14282.0000,972.0000 14282.0000,907.0000 14254.0000,852.0000 L 14428.0000,940.0000 Z "  fill="#000000" stroke="none" />
</g>
<g transform="matrix(1.0000 0.0000 0.0000 1.0000 0.0000 0.0000)">
</g>
<g transform="matrix(0.0625 0.0000 0.0000 0.0625 0.0000 0.0000)">
<path d="M 1729.0000,486.0000 L 1729.0000,940.0000 " stroke="#000000" stroke-width="20.0000"  stroke-linecap="round"  stroke-linejoin="round" fill="none" />
</g>
<g transform="matrix(1.0000 0.0000 0.0000 1.0000 0.0000 0.0000)">
</g>
<g transform="matrix(1.0000 0.0000 0.0000 1.0000 83.7261 22.6736)">
<text font-family="Calibri" fill="#000000" style ="white-space:pre;" font-weight="400" text-anchor="start" x="0.0000" y="0.0000" font-size="20.0000" ><![CDATA[28800/1]]></text>
</g>
<g transform="matrix(1.0000 0.0000 0.0000 1.0000 461.6789 22.6736)">
<text font-family="Calibri" fill="#000000" style ="white-space:pre;" font-weight="400" text-anchor="start" x="0.0000" y="0.0000" font-size="20.0000" ><![CDATA[28960/1]]></text>
</g>
<g transform="matrix(0.0625 0.0000 0.0000 0.0625 0.0000 0.0000)">
<path d="M 1729.0000,1695.0000 L 1768.0000,1695.0000 " stroke="#000000" stroke-width="20.0000"  stroke-linecap="round"  stroke-linejoin="round" fill="none" />
</g>
<g transform="matrix(1.0000 0.0000 0.0000 1.0000 0.0000 0.0000)">
</g>
<g transform="matrix(0.0625 0.0000 0.0000 0.0625 0.0000 0.0000)">
<path d="M 1900.0000,1695.0000 L 1726.0000,1783.0000 C 1753.0000,1728.0000 1753.0000,1663.0000 1726.0000,1608.0000 L 1900.0000,1695.0000 Z "  fill="#000000" stroke="none" />
</g>
<g transform="matrix(1.0000 0.0000 0.0000 1.0000 0.0000 0.0000)">
</g>
<g transform="matrix(1.0000 0.0000 0.0000 1.0000 30.1773 112.4371)">
<text font-family="Calibri" fill="#000000" style ="white-space:pre;" font-weight="400" text-anchor="start" x="0.0000" y="0.0000" font-size="20.0000" ><![CDATA[T]]></text>
</g>
<g transform="matrix(1.0000 0.0000 0.0000 1.0000 39.9235 115.2300)">
<text font-family="Calibri" fill="#000000" style ="white-space:pre;" font-weight="400" text-anchor="start" x="0.0000" y="0.0000" font-size="13.0000" ><![CDATA[HARQ]]></text>
</g>
<g transform="matrix(1.0000 0.0000 0.0000 1.0000 71.3453 112.4371)">
<text font-family="Calibri" fill="#000000" style ="white-space:pre;" font-weight="400" text-anchor="start" x="0.0000" y="0.0000" font-size="20.0000" ><![CDATA[=4]]></text>
</g>
<g transform="matrix(0.0625 0.0000 0.0000 0.0625 0.0000 0.0000)">
<path d="M 2012.0000,2149.0000 L 2656.0000,2149.0000 " stroke="#000000" stroke-width="20.0000"  stroke-linecap="round"  stroke-linejoin="round" fill="none" />
</g>
<g transform="matrix(1.0000 0.0000 0.0000 1.0000 0.0000 0.0000)">
</g>
<g transform="matrix(0.0625 0.0000 0.0000 0.0625 0.0000 0.0000)">
<path d="M 1880.0000,2149.0000 L 2055.0000,2062.0000 C 2027.0000,2117.0000 2027.0000,2181.0000 2055.0000,2236.0000 L 1880.0000,2149.0000 Z "  fill="#000000" stroke="none" />
</g>
<g transform="matrix(1.0000 0.0000 0.0000 1.0000 0.0000 0.0000)">
</g>
<g transform="matrix(0.0625 0.0000 0.0000 0.0625 0.0000 0.0000)">
<path d="M 2788.0000,2149.0000 L 2613.0000,2236.0000 C 2641.0000,2181.0000 2641.0000,2117.0000 2613.0000,2062.0000 L 2788.0000,2149.0000 Z "  fill="#000000" stroke="none" />
</g>
<g transform="matrix(1.0000 0.0000 0.0000 1.0000 0.0000 0.0000)">
</g>
<g transform="matrix(1.0000 0.0000 0.0000 1.0000 11.2796 140.7836)">
<text font-family="Calibri" fill="#000000" style ="white-space:pre;" font-weight="400" text-anchor="start" x="0.0000" y="0.0000" font-size="20.0000" ><![CDATA[T]]></text>
</g>
<g transform="matrix(1.0000 0.0000 0.0000 1.0000 21.0259 143.5764)">
<text font-family="Calibri" fill="#000000" style ="white-space:pre;" font-weight="400" text-anchor="start" x="0.0000" y="0.0000" font-size="13.0000" ><![CDATA[MAC proc]]></text>
</g>
<g transform="matrix(1.0000 0.0000 0.0000 1.0000 73.2384 140.7836)">
<text font-family="Calibri" fill="#000000" style ="white-space:pre;" font-weight="400" text-anchor="start" x="0.0000" y="0.0000" font-size="20.0000" ><![CDATA[=24]]></text>
</g>
<g transform="matrix(1.0000 0.0000 0.0000 1.0000 18.3301 41.5713)">
<text font-family="Calibri" fill="#000000" style ="white-space:pre;" font-weight="400" text-anchor="start" x="0.0000" y="0.0000" font-size="20.0000" ><![CDATA[SSB]]></text>
</g>
<g transform="matrix(0.0625 0.0000 0.0000 0.0625 0.0000 0.0000)">
<path d="M 975.0000,627.0000 L 1113.0000,655.0000 C 1118.0000,656.0000 1122.0000,661.0000 1120.0000,667.0000 C 1119.0000,672.0000 1114.0000,676.0000 1109.0000,674.0000 L 971.0000,647.0000 C 966.0000,646.0000 962.0000,641.0000 964.0000,635.0000 C 965.0000,630.0000 970.0000,626.0000 975.0000,627.0000 Z M 1211.0000,674.0000 L 1348.0000,702.0000 C 1353.0000,703.0000 1357.0000,708.0000 1356.0000,714.0000 C 1355.0000,719.0000 1349.0000,723.0000 1344.0000,722.0000 L 1207.0000,694.0000 C 1201.0000,693.0000 1198.0000,688.0000 1199.0000,682.0000 C 1200.0000,677.0000 1205.0000,673.0000 1211.0000,674.0000 Z M 1446.0000,722.0000 L 1583.0000,749.0000 C 1589.0000,750.0000 1592.0000,755.0000 1591.0000,761.0000 C 1590.0000,766.0000 1585.0000,770.0000 1579.0000,769.0000 L 1442.0000,741.0000 C 1437.0000,740.0000 1433.0000,735.0000 1434.0000,729.0000 C 1435.0000,724.0000 1441.0000,720.0000 1446.0000,722.0000 Z "  fill="#000000" stroke="#000000" stroke-width="1.0000"  stroke-linecap="butt"  stroke-linejoin="round" />
</g>
<g transform="matrix(1.0000 0.0000 0.0000 1.0000 0.0000 0.0000)">
</g>
<g transform="matrix(0.0625 0.0000 0.0000 0.0625 0.0000 0.0000)">
<path d="M 1729.0000,788.0000 L 1541.0000,840.0000 C 1579.0000,791.0000 1592.0000,728.0000 1575.0000,669.0000 L 1729.0000,788.0000 Z "  fill="#000000" stroke="none" />
</g>
<g transform="matrix(1.0000 0.0000 0.0000 1.0000 0.0000 0.0000)">
</g>
<g transform="matrix(0.0625 0.0000 0.0000 0.0625 0.0000 0.0000)">
<path d="M 1880.0000,486.0000 L 1880.0000,940.0000 " stroke="#000000" stroke-width="20.0000"  stroke-linecap="round"  stroke-linejoin="round" fill="none" />
</g>
<g transform="matrix(1.0000 0.0000 0.0000 1.0000 0.0000 0.0000)">
</g>
<g transform="matrix(0.0625 0.0000 0.0000 0.0625 0.0000 0.0000)">
<path d="M 4753.0000,486.0000 L 4753.0000,940.0000 " stroke="#000000" stroke-width="20.0000"  stroke-linecap="round"  stroke-linejoin="round" fill="none" />
</g>
<g transform="matrix(1.0000 0.0000 0.0000 1.0000 0.0000 0.0000)">
</g>
<g transform="matrix(1.0000 0.0000 0.0000 1.0000 93.1749 79.3666)">
<text font-family="Calibri" fill="#000000" style ="white-space:pre;" font-weight="400" text-anchor="start" x="0.0000" y="0.0000" font-size="20.0000" ><![CDATA[28802/3]]></text>
</g>
<g transform="matrix(1.0000 0.0000 0.0000 1.0000 272.7025 79.3666)">
<text font-family="Calibri" fill="#000000" style ="white-space:pre;" font-weight="400" text-anchor="start" x="0.0000" y="0.0000" font-size="20.0000" ><![CDATA[28882/3]]></text>
</g>
<g transform="matrix(1.0000 0.0000 0.0000 1.0000 396.2829 41.5713)">
<text font-family="Calibri" fill="#000000" style ="white-space:pre;" font-weight="400" text-anchor="start" x="0.0000" y="0.0000" font-size="20.0000" ><![CDATA[SSB]]></text>
</g>
<g transform="matrix(0.0625 0.0000 0.0000 0.0625 0.0000 0.0000)">
<path d="M 7023.0000,627.0000 L 7160.0000,655.0000 C 7165.0000,656.0000 7169.0000,661.0000 7168.0000,667.0000 C 7167.0000,672.0000 7161.0000,676.0000 7156.0000,674.0000 L 7019.0000,647.0000 C 7013.0000,646.0000 7010.0000,641.0000 7011.0000,635.0000 C 7012.0000,630.0000 7017.0000,626.0000 7023.0000,627.0000 Z M 7258.0000,674.0000 L 7395.0000,702.0000 C 7401.0000,703.0000 7404.0000,708.0000 7403.0000,714.0000 C 7402.0000,719.0000 7397.0000,723.0000 7391.0000,722.0000 L 7254.0000,694.0000 C 7249.0000,693.0000 7245.0000,688.0000 7246.0000,682.0000 C 7247.0000,677.0000 7252.0000,673.0000 7258.0000,674.0000 Z M 7493.0000,722.0000 L 7631.0000,749.0000 C 7636.0000,750.0000 7639.0000,755.0000 7638.0000,761.0000 C 7637.0000,766.0000 7632.0000,770.0000 7627.0000,769.0000 L 7489.0000,741.0000 C 7484.0000,740.0000 7480.0000,735.0000 7481.0000,729.0000 C 7483.0000,724.0000 7488.0000,720.0000 7493.0000,722.0000 Z "  fill="#000000" stroke="#000000" stroke-width="1.0000"  stroke-linecap="butt"  stroke-linejoin="round" />
</g>
<g transform="matrix(1.0000 0.0000 0.0000 1.0000 0.0000 0.0000)">
</g>
<g transform="matrix(0.0625 0.0000 0.0000 0.0625 0.0000 0.0000)">
<path d="M 7777.0000,788.0000 L 7588.0000,840.0000 C 7626.0000,791.0000 7639.0000,728.0000 7623.0000,669.0000 L 7777.0000,788.0000 Z "  fill="#000000" stroke="none" />
</g>
<g transform="matrix(1.0000 0.0000 0.0000 1.0000 0.0000 0.0000)">
</g>
<g transform="matrix(1.0000 0.0000 0.0000 1.0000 169.2425 41.5713)">
<text font-family="Calibri" fill="#000000" style ="white-space:pre;" font-weight="400" text-anchor="start" x="0.0000" y="0.0000" font-size="20.0000" ><![CDATA[TRS]]></text>
</g>
<g transform="matrix(0.0625 0.0000 0.0000 0.0625 0.0000 0.0000)">
<path d="M 2638.0000,647.0000 L 2501.0000,674.0000 C 2496.0000,676.0000 2490.0000,672.0000 2489.0000,667.0000 C 2488.0000,661.0000 2492.0000,656.0000 2497.0000,655.0000 L 2634.0000,627.0000 C 2640.0000,626.0000 2645.0000,630.0000 2646.0000,635.0000 C 2647.0000,641.0000 2644.0000,646.0000 2638.0000,647.0000 Z M 2403.0000,694.0000 L 2266.0000,722.0000 C 2260.0000,723.0000 2255.0000,719.0000 2254.0000,714.0000 C 2253.0000,708.0000 2256.0000,703.0000 2262.0000,702.0000 L 2399.0000,674.0000 C 2404.0000,673.0000 2410.0000,677.0000 2411.0000,682.0000 C 2412.0000,688.0000 2408.0000,693.0000 2403.0000,694.0000 Z M 2168.0000,741.0000 L 2030.0000,769.0000 C 2025.0000,770.0000 2020.0000,766.0000 2019.0000,761.0000 C 2018.0000,755.0000 2021.0000,750.0000 2026.0000,749.0000 L 2164.0000,722.0000 C 2169.0000,720.0000 2174.0000,724.0000 2175.0000,729.0000 C 2177.0000,735.0000 2173.0000,740.0000 2168.0000,741.0000 Z "  fill="#000000" stroke="#000000" stroke-width="1.0000"  stroke-linecap="butt"  stroke-linejoin="round" />
</g>
<g transform="matrix(1.0000 0.0000 0.0000 1.0000 0.0000 0.0000)">
</g>
<g transform="matrix(0.0625 0.0000 0.0000 0.0625 0.0000 0.0000)">
<path d="M 1880.0000,788.0000 L 2034.0000,669.0000 C 2018.0000,728.0000 2031.0000,791.0000 2069.0000,840.0000 L 1880.0000,788.0000 Z "  fill="#000000" stroke="none" />
</g>
<g transform="matrix(1.0000 0.0000 0.0000 1.0000 0.0000 0.0000)">
</g>
<g transform="matrix(1.0000 0.0000 0.0000 1.0000 348.7701 41.5713)">
<text font-family="Calibri" fill="#000000" style ="white-space:pre;" font-weight="400" text-anchor="start" x="0.0000" y="0.0000" font-size="20.0000" ><![CDATA[TRS]]></text>
</g>
<g transform="matrix(0.0625 0.0000 0.0000 0.0625 0.0000 0.0000)">
<path d="M 5511.0000,647.0000 L 5373.0000,674.0000 C 5368.0000,676.0000 5363.0000,672.0000 5362.0000,667.0000 C 5361.0000,661.0000 5364.0000,656.0000 5370.0000,655.0000 L 5507.0000,627.0000 C 5512.0000,626.0000 5518.0000,630.0000 5519.0000,635.0000 C 5520.0000,641.0000 5516.0000,646.0000 5511.0000,647.0000 Z M 5275.0000,694.0000 L 5138.0000,722.0000 C 5133.0000,723.0000 5127.0000,719.0000 5126.0000,714.0000 C 5125.0000,708.0000 5129.0000,703.0000 5134.0000,702.0000 L 5271.0000,674.0000 C 5277.0000,673.0000 5282.0000,677.0000 5283.0000,682.0000 C 5284.0000,688.0000 5281.0000,693.0000 5275.0000,694.0000 Z M 5040.0000,741.0000 L 4903.0000,769.0000 C 4897.0000,770.0000 4892.0000,766.0000 4891.0000,761.0000 C 4890.0000,755.0000 4893.0000,750.0000 4899.0000,749.0000 L 5036.0000,722.0000 C 5042.0000,720.0000 5047.0000,724.0000 5048.0000,729.0000 C 5049.0000,735.0000 5045.0000,740.0000 5040.0000,741.0000 Z "  fill="#000000" stroke="#000000" stroke-width="1.0000"  stroke-linecap="butt"  stroke-linejoin="round" />
</g>
<g transform="matrix(1.0000 0.0000 0.0000 1.0000 0.0000 0.0000)">
</g>
<g transform="matrix(0.0625 0.0000 0.0000 0.0625 0.0000 0.0000)">
<path d="M 4753.0000,788.0000 L 4907.0000,669.0000 C 4891.0000,728.0000 4903.0000,791.0000 4941.0000,840.0000 L 4753.0000,788.0000 Z "  fill="#000000" stroke="none" />
</g>
<g transform="matrix(1.0000 0.0000 0.0000 1.0000 0.0000 0.0000)">
</g>
<g transform="matrix(0.0625 0.0000 0.0000 0.0625 0.0000 0.0000)">
<path d="M 2920.0000,2451.0000 L 7644.0000,2451.0000 " stroke="#000000" stroke-width="20.0000"  stroke-linecap="round"  stroke-linejoin="round" fill="none" />
</g>
<g transform="matrix(1.0000 0.0000 0.0000 1.0000 0.0000 0.0000)">
</g>
<g transform="matrix(0.0625 0.0000 0.0000 0.0625 0.0000 0.0000)">
<path d="M 2788.0000,2451.0000 L 2962.0000,2364.0000 C 2934.0000,2419.0000 2934.0000,2484.0000 2962.0000,2539.0000 L 2788.0000,2451.0000 Z "  fill="#000000" stroke="none" />
</g>
<g transform="matrix(1.0000 0.0000 0.0000 1.0000 0.0000 0.0000)">
</g>
<g transform="matrix(0.0625 0.0000 0.0000 0.0625 0.0000 0.0000)">
<path d="M 7777.0000,2451.0000 L 7602.0000,2539.0000 C 7630.0000,2484.0000 7630.0000,2419.0000 7602.0000,2364.0000 L 7777.0000,2451.0000 Z "  fill="#000000" stroke="none" />
</g>
<g transform="matrix(1.0000 0.0000 0.0000 1.0000 0.0000 0.0000)">
</g>
<g transform="matrix(0.0625 0.0000 0.0000 0.0625 0.0000 0.0000)">
<path d="M 4562.0000,2259.0000 L 4562.0000,2660.0000 L 6002.0000,2660.0000 L 6002.0000,2259.0000 L 4562.0000,2259.0000 Z" stroke-width="1px" stroke="#FFFFFF"  fill="#FFFFFF" />
</g>
<g transform="matrix(1.0000 0.0000 0.0000 1.0000 0.0000 0.0000)">
</g>
<g transform="matrix(1.0000 0.0000 0.0000 1.0000 285.5724 159.6815)">
<text font-family="Calibri" fill="#000000" style ="white-space:pre;" font-weight="400" text-anchor="start" x="0.0000" y="0.0000" font-size="20.0000" ><![CDATA[T]]></text>
</g>
<g transform="matrix(1.0000 0.0000 0.0000 1.0000 295.3186 162.4743)">
<text font-family="Calibri" fill="#000000" style ="white-space:pre;" font-weight="400" text-anchor="start" x="0.0000" y="0.0000" font-size="13.0000" ><![CDATA[firstSSB]]></text>
</g>
<g transform="matrix(1.0000 0.0000 0.0000 1.0000 335.2507 159.6815)">
<text font-family="Calibri" fill="#000000" style ="white-space:pre;" font-weight="400" text-anchor="start" x="0.0000" y="0.0000" font-size="20.0000" ><![CDATA[=132]]></text>
</g>
<g transform="matrix(0.0625 0.0000 0.0000 0.0625 0.0000 0.0000)">
<path d="M 1861.0000,3510.0000 L 4621.0000,3510.0000 " stroke="#000000" stroke-width="20.0000"  stroke-linecap="round"  stroke-linejoin="round" fill="none" />
</g>
<g transform="matrix(1.0000 0.0000 0.0000 1.0000 0.0000 0.0000)">
</g>
<g transform="matrix(0.0625 0.0000 0.0000 0.0625 0.0000 0.0000)">
<path d="M 1729.0000,3510.0000 L 1904.0000,3422.0000 C 1876.0000,3477.0000 1876.0000,3542.0000 1904.0000,3597.0000 L 1729.0000,3510.0000 Z "  fill="#000000" stroke="none" />
</g>
<g transform="matrix(1.0000 0.0000 0.0000 1.0000 0.0000 0.0000)">
</g>
<g transform="matrix(0.0625 0.0000 0.0000 0.0625 0.0000 0.0000)">
<path d="M 4753.0000,3510.0000 L 4578.0000,3597.0000 C 4606.0000,3542.0000 4606.0000,3477.0000 4578.0000,3422.0000 L 4753.0000,3510.0000 Z "  fill="#000000" stroke="none" />
</g>
<g transform="matrix(1.0000 0.0000 0.0000 1.0000 0.0000 0.0000)">
</g>
<g transform="matrix(0.0625 0.0000 0.0000 0.0625 0.0000 0.0000)">
<path d="M 2593.0000,3318.0000 L 2593.0000,3702.0000 L 3889.0000,3702.0000 L 3889.0000,3318.0000 L 2593.0000,3318.0000 Z" stroke-width="1px" stroke="#FFFFFF"  fill="#FFFFFF" />
</g>
<g transform="matrix(1.0000 0.0000 0.0000 1.0000 0.0000 0.0000)">
</g>
<g transform="matrix(1.0000 0.0000 0.0000 1.0000 162.5398 225.8232)">
<text font-family="Calibri" fill="#000000" style ="white-space:pre;" font-weight="400" text-anchor="start" x="0.0000" y="0.0000" font-size="20.0000" ><![CDATA[80 (10ms)]]></text>
</g>
<g transform="matrix(0.0625 0.0000 0.0000 0.0625 0.0000 0.0000)">
<path d="M 7777.0000,486.0000 L 7777.0000,940.0000 " stroke="#000000" stroke-width="20.0000"  stroke-linecap="round"  stroke-linejoin="round" fill="none" />
</g>
<g transform="matrix(1.0000 0.0000 0.0000 1.0000 0.0000 0.0000)">
</g>
<g transform="matrix(1.0000 0.0000 0.0000 1.0000 471.1277 79.3666)">
<text font-family="Calibri" fill="#000000" style ="white-space:pre;" font-weight="400" text-anchor="start" x="0.0000" y="0.0000" font-size="20.0000" ><![CDATA[28962/3]]></text>
</g>
<g transform="matrix(1.0000 0.0000 0.0000 1.0000 547.1953 41.5713)">
<text font-family="Calibri" fill="#000000" style ="white-space:pre;" font-weight="400" text-anchor="start" x="0.0000" y="0.0000" font-size="20.0000" ><![CDATA[TRS]]></text>
</g>
<g transform="matrix(0.0625 0.0000 0.0000 0.0625 0.0000 0.0000)">
<path d="M 8686.0000,647.0000 L 8548.0000,674.0000 C 8543.0000,676.0000 8538.0000,672.0000 8537.0000,667.0000 C 8535.0000,661.0000 8539.0000,656.0000 8544.0000,655.0000 L 8682.0000,627.0000 C 8687.0000,626.0000 8692.0000,630.0000 8693.0000,635.0000 C 8694.0000,641.0000 8691.0000,646.0000 8686.0000,647.0000 Z M 8450.0000,694.0000 L 8313.0000,722.0000 C 8308.0000,723.0000 8302.0000,719.0000 8301.0000,714.0000 C 8300.0000,708.0000 8304.0000,703.0000 8309.0000,702.0000 L 8446.0000,674.0000 C 8452.0000,673.0000 8457.0000,677.0000 8458.0000,682.0000 C 8459.0000,688.0000 8456.0000,693.0000 8450.0000,694.0000 Z M 8215.0000,741.0000 L 8078.0000,769.0000 C 8072.0000,770.0000 8067.0000,766.0000 8066.0000,761.0000 C 8065.0000,755.0000 8068.0000,750.0000 8074.0000,749.0000 L 8211.0000,722.0000 C 8216.0000,720.0000 8222.0000,724.0000 8223.0000,729.0000 C 8224.0000,735.0000 8220.0000,740.0000 8215.0000,741.0000 Z "  fill="#000000" stroke="#000000" stroke-width="1.0000"  stroke-linecap="butt"  stroke-linejoin="round" />
</g>
<g transform="matrix(1.0000 0.0000 0.0000 1.0000 0.0000 0.0000)">
</g>
<g transform="matrix(0.0625 0.0000 0.0000 0.0625 0.0000 0.0000)">
<path d="M 7928.0000,788.0000 L 8082.0000,669.0000 C 8065.0000,728.0000 8078.0000,791.0000 8116.0000,840.0000 L 7928.0000,788.0000 Z "  fill="#000000" stroke="none" />
</g>
<g transform="matrix(1.0000 0.0000 0.0000 1.0000 0.0000 0.0000)">
</g>
<g transform="matrix(0.0625 0.0000 0.0000 0.0625 0.0000 0.0000)">
<path d="M 7928.0000,486.0000 L 7928.0000,940.0000 " stroke="#000000" stroke-width="20.0000"  stroke-linecap="round"  stroke-linejoin="round" fill="none" />
</g>
<g transform="matrix(1.0000 0.0000 0.0000 1.0000 0.0000 0.0000)">
</g>
<g transform="matrix(0.0625 0.0000 0.0000 0.0625 0.0000 0.0000)">
<path d="M 10951.0000,486.0000 L 10951.0000,940.0000 " stroke="#000000" stroke-width="20.0000"  stroke-linecap="round"  stroke-linejoin="round" fill="none" />
</g>
<g transform="matrix(1.0000 0.0000 0.0000 1.0000 0.0000 0.0000)">
</g>
<g transform="matrix(1.0000 0.0000 0.0000 1.0000 660.1041 79.3666)">
<text font-family="Calibri" fill="#000000" style ="white-space:pre;" font-weight="400" text-anchor="start" x="0.0000" y="0.0000" font-size="20.0000" ><![CDATA[29042/3]]></text>
</g>
<g transform="matrix(1.0000 0.0000 0.0000 1.0000 736.1716 41.5713)">
<text font-family="Calibri" fill="#000000" style ="white-space:pre;" font-weight="400" text-anchor="start" x="0.0000" y="0.0000" font-size="20.0000" ><![CDATA[TRS]]></text>
</g>
<g transform="matrix(0.0625 0.0000 0.0000 0.0625 0.0000 0.0000)">
<path d="M 11709.0000,647.0000 L 11572.0000,674.0000 C 11566.0000,676.0000 11561.0000,672.0000 11560.0000,667.0000 C 11559.0000,661.0000 11563.0000,656.0000 11568.0000,655.0000 L 11705.0000,627.0000 C 11711.0000,626.0000 11716.0000,630.0000 11717.0000,635.0000 C 11718.0000,641.0000 11715.0000,646.0000 11709.0000,647.0000 Z M 11474.0000,694.0000 L 11337.0000,722.0000 C 11331.0000,723.0000 11326.0000,719.0000 11325.0000,714.0000 C 11324.0000,708.0000 11327.0000,703.0000 11333.0000,702.0000 L 11470.0000,674.0000 C 11475.0000,673.0000 11481.0000,677.0000 11482.0000,682.0000 C 11483.0000,688.0000 11479.0000,693.0000 11474.0000,694.0000 Z M 11239.0000,741.0000 L 11101.0000,769.0000 C 11096.0000,770.0000 11091.0000,766.0000 11089.0000,761.0000 C 11088.0000,755.0000 11092.0000,750.0000 11097.0000,749.0000 L 11235.0000,722.0000 C 11240.0000,720.0000 11245.0000,724.0000 11246.0000,729.0000 C 11247.0000,735.0000 11244.0000,740.0000 11239.0000,741.0000 Z "  fill="#000000" stroke="#000000" stroke-width="1.0000"  stroke-linecap="butt"  stroke-linejoin="round" />
</g>
<g transform="matrix(1.0000 0.0000 0.0000 1.0000 0.0000 0.0000)">
</g>
<g transform="matrix(0.0625 0.0000 0.0000 0.0625 0.0000 0.0000)">
<path d="M 10951.0000,788.0000 L 11105.0000,669.0000 C 11089.0000,728.0000 11102.0000,791.0000 11139.0000,840.0000 L 10951.0000,788.0000 Z "  fill="#000000" stroke="none" />
</g>
<g transform="matrix(1.0000 0.0000 0.0000 1.0000 0.0000 0.0000)">
</g>
<g transform="matrix(0.0625 0.0000 0.0000 0.0625 0.0000 0.0000)">
<path d="M 4885.0000,3510.0000 L 7644.0000,3510.0000 " stroke="#000000" stroke-width="20.0000"  stroke-linecap="round"  stroke-linejoin="round" fill="none" />
</g>
<g transform="matrix(1.0000 0.0000 0.0000 1.0000 0.0000 0.0000)">
</g>
<g transform="matrix(0.0625 0.0000 0.0000 0.0625 0.0000 0.0000)">
<path d="M 4753.0000,3510.0000 L 4927.0000,3422.0000 C 4900.0000,3477.0000 4900.0000,3542.0000 4927.0000,3597.0000 L 4753.0000,3510.0000 Z "  fill="#000000" stroke="none" />
</g>
<g transform="matrix(1.0000 0.0000 0.0000 1.0000 0.0000 0.0000)">
</g>
<g transform="matrix(0.0625 0.0000 0.0000 0.0625 0.0000 0.0000)">
<path d="M 7777.0000,3510.0000 L 7602.0000,3597.0000 C 7630.0000,3542.0000 7630.0000,3477.0000 7602.0000,3422.0000 L 7777.0000,3510.0000 Z "  fill="#000000" stroke="none" />
</g>
<g transform="matrix(1.0000 0.0000 0.0000 1.0000 0.0000 0.0000)">
</g>
<g transform="matrix(0.0625 0.0000 0.0000 0.0625 0.0000 0.0000)">
<path d="M 5617.0000,3318.0000 L 5617.0000,3702.0000 L 6913.0000,3702.0000 L 6913.0000,3318.0000 L 5617.0000,3318.0000 Z" stroke-width="1px" stroke="#FFFFFF"  fill="#FFFFFF" />
</g>
<g transform="matrix(1.0000 0.0000 0.0000 1.0000 0.0000 0.0000)">
</g>
<g transform="matrix(1.0000 0.0000 0.0000 1.0000 351.5161 225.8232)">
<text font-family="Calibri" fill="#000000" style ="white-space:pre;" font-weight="400" text-anchor="start" x="0.0000" y="0.0000" font-size="20.0000" ><![CDATA[80 (10ms)]]></text>
</g>
<g transform="matrix(0.0625 0.0000 0.0000 0.0625 0.0000 0.0000)">
<path d="M 7909.0000,3510.0000 L 10668.0000,3510.0000 " stroke="#000000" stroke-width="20.0000"  stroke-linecap="round"  stroke-linejoin="round" fill="none" />
</g>
<g transform="matrix(1.0000 0.0000 0.0000 1.0000 0.0000 0.0000)">
</g>
<g transform="matrix(0.0625 0.0000 0.0000 0.0625 0.0000 0.0000)">
<path d="M 7777.0000,3510.0000 L 7951.0000,3422.0000 C 7923.0000,3477.0000 7923.0000,3542.0000 7951.0000,3597.0000 L 7777.0000,3510.0000 Z "  fill="#000000" stroke="none" />
</g>
<g transform="matrix(1.0000 0.0000 0.0000 1.0000 0.0000 0.0000)">
</g>
<g transform="matrix(0.0625 0.0000 0.0000 0.0625 0.0000 0.0000)">
<path d="M 10800.0000,3510.0000 L 10626.0000,3597.0000 C 10653.0000,3542.0000 10653.0000,3477.0000 10626.0000,3422.0000 L 10800.0000,3510.0000 Z "  fill="#000000" stroke="none" />
</g>
<g transform="matrix(1.0000 0.0000 0.0000 1.0000 0.0000 0.0000)">
</g>
<g transform="matrix(0.0625 0.0000 0.0000 0.0625 0.0000 0.0000)">
<path d="M 8640.0000,3318.0000 L 8640.0000,3702.0000 L 9936.0000,3702.0000 L 9936.0000,3318.0000 L 8640.0000,3318.0000 Z" stroke-width="1px" stroke="#FFFFFF"  fill="#FFFFFF" />
</g>
<g transform="matrix(1.0000 0.0000 0.0000 1.0000 0.0000 0.0000)">
</g>
<g transform="matrix(1.0000 0.0000 0.0000 1.0000 540.4926 225.8232)">
<text font-family="Calibri" fill="#000000" style ="white-space:pre;" font-weight="400" text-anchor="start" x="0.0000" y="0.0000" font-size="20.0000" ><![CDATA[80 (10ms)]]></text>
</g>
<g transform="matrix(0.0625 0.0000 0.0000 0.0625 0.0000 0.0000)">
<path d="M 10932.0000,3510.0000 L 13692.0000,3510.0000 " stroke="#000000" stroke-width="20.0000"  stroke-linecap="round"  stroke-linejoin="round" fill="none" />
</g>
<g transform="matrix(1.0000 0.0000 0.0000 1.0000 0.0000 0.0000)">
</g>
<g transform="matrix(0.0625 0.0000 0.0000 0.0625 0.0000 0.0000)">
<path d="M 10800.0000,3510.0000 L 10975.0000,3422.0000 C 10947.0000,3477.0000 10947.0000,3542.0000 10975.0000,3597.0000 L 10800.0000,3510.0000 Z "  fill="#000000" stroke="none" />
</g>
<g transform="matrix(1.0000 0.0000 0.0000 1.0000 0.0000 0.0000)">
</g>
<g transform="matrix(0.0625 0.0000 0.0000 0.0625 0.0000 0.0000)">
<path d="M 13824.0000,3510.0000 L 13649.0000,3597.0000 C 13677.0000,3542.0000 13677.0000,3477.0000 13649.0000,3422.0000 L 13824.0000,3510.0000 Z "  fill="#000000" stroke="none" />
</g>
<g transform="matrix(1.0000 0.0000 0.0000 1.0000 0.0000 0.0000)">
</g>
<g transform="matrix(0.0625 0.0000 0.0000 0.0625 0.0000 0.0000)">
<path d="M 11664.0000,3318.0000 L 11664.0000,3702.0000 L 12960.0000,3702.0000 L 12960.0000,3318.0000 L 11664.0000,3318.0000 Z" stroke-width="1px" stroke="#FFFFFF"  fill="#FFFFFF" />
</g>
<g transform="matrix(1.0000 0.0000 0.0000 1.0000 0.0000 0.0000)">
</g>
<g transform="matrix(1.0000 0.0000 0.0000 1.0000 729.4689 225.8232)">
<text font-family="Calibri" fill="#000000" style ="white-space:pre;" font-weight="400" text-anchor="start" x="0.0000" y="0.0000" font-size="20.0000" ><![CDATA[80 (10ms)]]></text>
</g>
<g transform="matrix(0.0625 0.0000 0.0000 0.0625 0.0000 0.0000)">
<path d="M 7909.0000,1695.0000 L 8249.0000,1695.0000 " stroke="#000000" stroke-width="20.0000"  stroke-linecap="round"  stroke-linejoin="round" fill="none" />
</g>
<g transform="matrix(1.0000 0.0000 0.0000 1.0000 0.0000 0.0000)">
</g>
<g transform="matrix(0.0625 0.0000 0.0000 0.0625 0.0000 0.0000)">
<path d="M 7777.0000,1695.0000 L 7951.0000,1608.0000 C 7923.0000,1663.0000 7923.0000,1728.0000 7951.0000,1783.0000 L 7777.0000,1695.0000 Z "  fill="#000000" stroke="none" />
</g>
<g transform="matrix(1.0000 0.0000 0.0000 1.0000 0.0000 0.0000)">
</g>
<g transform="matrix(0.0625 0.0000 0.0000 0.0625 0.0000 0.0000)">
<path d="M 8381.0000,1695.0000 L 8207.0000,1783.0000 C 8234.0000,1728.0000 8234.0000,1663.0000 8207.0000,1608.0000 L 8381.0000,1695.0000 Z "  fill="#000000" stroke="none" />
</g>
<g transform="matrix(1.0000 0.0000 0.0000 1.0000 0.0000 0.0000)">
</g>
<g transform="matrix(1.0000 0.0000 0.0000 1.0000 389.2324 112.4371)">
<text font-family="Calibri" fill="#000000" style ="white-space:pre;" font-weight="400" text-anchor="start" x="0.0000" y="0.0000" font-size="20.0000" ><![CDATA[T]]></text>
</g>
<g transform="matrix(1.0000 0.0000 0.0000 1.0000 398.9786 115.2300)">
<text font-family="Calibri" fill="#000000" style ="white-space:pre;" font-weight="400" text-anchor="start" x="0.0000" y="0.0000" font-size="13.0000" ><![CDATA[SSB proc]]></text>
</g>
<g transform="matrix(1.0000 0.0000 0.0000 1.0000 444.6415 112.4371)">
<text font-family="Calibri" fill="#000000" style ="white-space:pre;" font-weight="400" text-anchor="start" x="0.0000" y="0.0000" font-size="20.0000" ><![CDATA[=16]]></text>
</g>
<g transform="matrix(0.0625 0.0000 0.0000 0.0625 0.0000 0.0000)">
<path d="M 8513.0000,2451.0000 L 10819.0000,2451.0000 " stroke="#000000" stroke-width="20.0000"  stroke-linecap="round"  stroke-linejoin="round" fill="none" />
</g>
<g transform="matrix(1.0000 0.0000 0.0000 1.0000 0.0000 0.0000)">
</g>
<g transform="matrix(0.0625 0.0000 0.0000 0.0625 0.0000 0.0000)">
<path d="M 8381.0000,2451.0000 L 8556.0000,2364.0000 C 8528.0000,2419.0000 8528.0000,2484.0000 8556.0000,2539.0000 L 8381.0000,2451.0000 Z "  fill="#000000" stroke="none" />
</g>
<g transform="matrix(1.0000 0.0000 0.0000 1.0000 0.0000 0.0000)">
</g>
<g transform="matrix(0.0625 0.0000 0.0000 0.0625 0.0000 0.0000)">
<path d="M 10951.0000,2451.0000 L 10777.0000,2539.0000 C 10804.0000,2484.0000 10804.0000,2419.0000 10777.0000,2364.0000 L 10951.0000,2451.0000 Z "  fill="#000000" stroke="none" />
</g>
<g transform="matrix(1.0000 0.0000 0.0000 1.0000 0.0000 0.0000)">
</g>
<g transform="matrix(0.0625 0.0000 0.0000 0.0625 0.0000 0.0000)">
<path d="M 8668.0000,2259.0000 L 8668.0000,2660.0000 L 10665.0000,2660.0000 L 10665.0000,2259.0000 L 8668.0000,2259.0000 Z" stroke-width="1px" stroke="#FFFFFF"  fill="#FFFFFF" />
</g>
<g transform="matrix(1.0000 0.0000 0.0000 1.0000 0.0000 0.0000)">
</g>
<g transform="matrix(1.0000 0.0000 0.0000 1.0000 542.2023 159.6815)">
<text font-family="Calibri" fill="#000000" style ="white-space:pre;" font-weight="400" text-anchor="start" x="0.0000" y="0.0000" font-size="20.0000" ><![CDATA[T]]></text>
</g>
<g transform="matrix(1.0000 0.0000 0.0000 1.0000 551.9485 162.4743)">
<text font-family="Calibri" fill="#000000" style ="white-space:pre;" font-weight="400" text-anchor="start" x="0.0000" y="0.0000" font-size="13.0000" ><![CDATA[firstTRSafterSSB]]></text>
</g>
<g transform="matrix(1.0000 0.0000 0.0000 1.0000 636.7891 159.6815)">
<text font-family="Calibri" fill="#000000" style ="white-space:pre;" font-weight="400" text-anchor="start" x="0.0000" y="0.0000" font-size="20.0000" ><![CDATA[=66]]></text>
</g>
<g transform="matrix(0.0625 0.0000 0.0000 0.0625 0.0000 0.0000)">
<path d="M 11083.0000,1695.0000 L 11424.0000,1695.0000 " stroke="#000000" stroke-width="20.0000"  stroke-linecap="round"  stroke-linejoin="round" fill="none" />
</g>
<g transform="matrix(1.0000 0.0000 0.0000 1.0000 0.0000 0.0000)">
</g>
<g transform="matrix(0.0625 0.0000 0.0000 0.0625 0.0000 0.0000)">
<path d="M 10951.0000,1695.0000 L 11126.0000,1608.0000 C 11098.0000,1663.0000 11098.0000,1728.0000 11126.0000,1783.0000 L 10951.0000,1695.0000 Z "  fill="#000000" stroke="none" />
</g>
<g transform="matrix(1.0000 0.0000 0.0000 1.0000 0.0000 0.0000)">
</g>
<g transform="matrix(0.0625 0.0000 0.0000 0.0625 0.0000 0.0000)">
<path d="M 11556.0000,1695.0000 L 11382.0000,1783.0000 C 11409.0000,1728.0000 11409.0000,1663.0000 11382.0000,1608.0000 L 11556.0000,1695.0000 Z "  fill="#000000" stroke="none" />
</g>
<g transform="matrix(1.0000 0.0000 0.0000 1.0000 0.0000 0.0000)">
</g>
<g transform="matrix(1.0000 0.0000 0.0000 1.0000 587.6575 112.4371)">
<text font-family="Calibri" fill="#000000" style ="white-space:pre;" font-weight="400" text-anchor="start" x="0.0000" y="0.0000" font-size="20.0000" ><![CDATA[T]]></text>
</g>
<g transform="matrix(1.0000 0.0000 0.0000 1.0000 597.4038 115.2300)">
<text font-family="Calibri" fill="#000000" style ="white-space:pre;" font-weight="400" text-anchor="start" x="0.0000" y="0.0000" font-size="13.0000" ><![CDATA[TRS proc]]></text>
</g>
<g transform="matrix(1.0000 0.0000 0.0000 1.0000 643.4159 112.4371)">
<text font-family="Calibri" fill="#000000" style ="white-space:pre;" font-weight="400" text-anchor="start" x="0.0000" y="0.0000" font-size="20.0000" ><![CDATA[=16]]></text>
<defs><clipPath id="clip-1804289383"><path d="M 0.0000,0.0000 L 916.0000,0.0000 L 916.0000,297.0000 L 0.0000,297.0000 L 0.0000,0.0000 Z Z" /></clipPath></defs>
</g>
<g transform="matrix(0.0625 0.0000 0.0000 0.0625 0.0000 0.0000)">
<path  clip-path="url(#clip-1804289383)" d="M 11556.0000,1393.0000 L 11556.0000,4719.0000 " stroke="#000000" stroke-width="20.0000"  stroke-linecap="round"  stroke-linejoin="round" fill="none" />
</g>
<g transform="matrix(1.0000 0.0000 0.0000 1.0000 0.0000 0.0000)">
</g>
<g transform="matrix(1.0000 0.0000 0.0000 1.0000 767.1851 261.0671)">
<text font-family="Calibri" fill="#000000" style ="white-space:pre;" font-weight="400" text-anchor="start" x="0.0000" y="0.0000" font-size="20.0000" ><![CDATA[PDSCH ]]></text>
</g>
<g transform="matrix(1.0000 0.0000 0.0000 1.0000 767.1851 285.0672)">
<text font-family="Calibri" fill="#000000" style ="white-space:pre;" font-weight="400" text-anchor="start" x="0.0000" y="0.0000" font-size="20.0000" ><![CDATA[scheduling]]></text>
</g>
<g transform="matrix(0.0625 0.0000 0.0000 0.0625 0.0000 0.0000)">
<path d="M 11556.0000,4266.0000 L 12029.0000,4266.0000 " stroke="#000000" stroke-width="20.0000"  stroke-linecap="round"  stroke-linejoin="round" fill="none" />
</g>
<g transform="matrix(1.0000 0.0000 0.0000 1.0000 0.0000 0.0000)">
</g>
<g transform="matrix(0.0625 0.0000 0.0000 0.0625 0.0000 0.0000)">
<path d="M 12161.0000,4266.0000 L 11986.0000,4353.0000 C 12014.0000,4298.0000 12014.0000,4233.0000 11986.0000,4178.0000 L 12161.0000,4266.0000 Z "  fill="#000000" stroke="none" />
</g>
<g transform="matrix(1.0000 0.0000 0.0000 1.0000 0.0000 0.0000)">
</g>
<g transform="matrix(1.0000 0.0000 0.0000 1.0000 855.1636 51.0201)">
<text font-family="Calibri" fill="#000000" style ="white-space:pre;" font-weight="400" text-anchor="start" x="0.0000" y="0.0000" font-size="20.0000" ><![CDATA[slots]]></text>
</g>
</g>
</svg>
