<?xml version="1.0" encoding="UTF-8" standalone="no"?>
<!DOCTYPE svg PUBLIC "-//W3C//DTD SVG 1.0//EN" "http://www.w3.org/TR/2001/REC-SVG-20010904/DTD/svg10.dtd">
<svg xmlns="http://www.w3.org/2000/svg" xmlns:xlink="http://www.w3.org/1999/xlink" fill-rule="evenodd" height="4.364583333333333in" preserveAspectRatio="none" stroke-linecap="round" viewBox="0 0 560 420" width="5.833333333333333in">
    <style type="text/css">
.brush0 { fill: rgb(255,255,255); }
.pen0 { stroke: rgb(0,0,0); stroke-width: 1; stroke-linejoin: round; }
.font0 { font-size: 10px; font-family: Helvetica, sans-serif; }
.font1 { font-weight: bold; font-size: 16px; font-family: System, sans-serif; }
.font2 { font-size: 13px; font-family: Helvetica, sans-serif; }
.pen1 { stroke: none; }
.brush1 { fill: rgb(255,255,255); }
.pen2 { stroke: rgb(255,255,255); stroke-width: 1; stroke-linejoin: round; }
.brush2 { fill: rgb(204,204,204); }
.brush3 { fill: none; }
.pen3 { stroke: rgb(0,0,0); stroke-width: 1; stroke-linejoin: round; stroke-dasharray: 3,3; }
.pen4 { stroke: rgb(0,0,255); stroke-width: 1; stroke-linejoin: round; }
.font3 { font-size: 13px; font-family: Helvetica, sans-serif; }
</style>
    <g>
        <polygon class="pen1 brush1" points="73,374 73,31 507,31 507,374"/>
        <polyline class="pen2" fill="none" points="73,374 73,31 507,31 507,374 73,374"/>
        <line class="pen3" fill="none" x1="73" x2="73" y1="374" y2="32"/>
        <rect fill="rgb(0,0,0)" height="1" stroke="none" width="1" x="73" y="32"/>
        <rect fill="rgb(0,0,0)" height="1" stroke="none" width="1" x="73" y="32"/>
        <line class="pen3" fill="none" x1="116" x2="116" y1="374" y2="32"/>
        <rect fill="rgb(0,0,0)" height="1" stroke="none" width="1" x="116" y="32"/>
        <rect fill="rgb(0,0,0)" height="1" stroke="none" width="1" x="116" y="32"/>
        <line class="pen3" fill="none" x1="159" x2="159" y1="374" y2="32"/>
        <rect fill="rgb(0,0,0)" height="1" stroke="none" width="1" x="159" y="32"/>
        <rect fill="rgb(0,0,0)" height="1" stroke="none" width="1" x="159" y="32"/>
        <line class="pen3" fill="none" x1="203" x2="203" y1="374" y2="32"/>
        <rect fill="rgb(0,0,0)" height="1" stroke="none" width="1" x="203" y="32"/>
        <rect fill="rgb(0,0,0)" height="1" stroke="none" width="1" x="203" y="32"/>
        <line class="pen3" fill="none" x1="246" x2="246" y1="374" y2="32"/>
        <rect fill="rgb(0,0,0)" height="1" stroke="none" width="1" x="246" y="32"/>
        <rect fill="rgb(0,0,0)" height="1" stroke="none" width="1" x="246" y="32"/>
        <line class="pen3" fill="none" x1="290" x2="290" y1="374" y2="32"/>
        <rect fill="rgb(0,0,0)" height="1" stroke="none" width="1" x="290" y="32"/>
        <rect fill="rgb(0,0,0)" height="1" stroke="none" width="1" x="290" y="32"/>
        <line class="pen3" fill="none" x1="333" x2="333" y1="374" y2="32"/>
        <rect fill="rgb(0,0,0)" height="1" stroke="none" width="1" x="333" y="32"/>
        <rect fill="rgb(0,0,0)" height="1" stroke="none" width="1" x="333" y="32"/>
        <line class="pen3" fill="none" x1="376" x2="376" y1="374" y2="32"/>
        <rect fill="rgb(0,0,0)" height="1" stroke="none" width="1" x="376" y="32"/>
        <rect fill="rgb(0,0,0)" height="1" stroke="none" width="1" x="376" y="32"/>
        <line class="pen3" fill="none" x1="420" x2="420" y1="374" y2="32"/>
        <rect fill="rgb(0,0,0)" height="1" stroke="none" width="1" x="420" y="32"/>
        <rect fill="rgb(0,0,0)" height="1" stroke="none" width="1" x="420" y="32"/>
        <line class="pen3" fill="none" x1="463" x2="463" y1="374" y2="32"/>
        <rect fill="rgb(0,0,0)" height="1" stroke="none" width="1" x="463" y="32"/>
        <rect fill="rgb(0,0,0)" height="1" stroke="none" width="1" x="463" y="32"/>
        <line class="pen3" fill="none" x1="507" x2="507" y1="374" y2="32"/>
        <rect fill="rgb(0,0,0)" height="1" stroke="none" width="1" x="507" y="32"/>
        <rect fill="rgb(0,0,0)" height="1" stroke="none" width="1" x="507" y="32"/>
        <line class="pen3" fill="none" x1="73" x2="507" y1="374" y2="374"/>
        <rect fill="rgb(0,0,0)" height="1" stroke="none" width="1" x="507" y="374"/>
        <rect fill="rgb(0,0,0)" height="1" stroke="none" width="1" x="507" y="374"/>
        <line class="pen3" fill="none" x1="73" x2="507" y1="260" y2="260"/>
        <rect fill="rgb(0,0,0)" height="1" stroke="none" width="1" x="507" y="260"/>
        <rect fill="rgb(0,0,0)" height="1" stroke="none" width="1" x="507" y="260"/>
        <line class="pen3" fill="none" x1="73" x2="507" y1="146" y2="146"/>
        <rect fill="rgb(0,0,0)" height="1" stroke="none" width="1" x="507" y="146"/>
        <rect fill="rgb(0,0,0)" height="1" stroke="none" width="1" x="507" y="146"/>
        <line class="pen3" fill="none" x1="73" x2="507" y1="32" y2="32"/>
        <rect fill="rgb(0,0,0)" height="1" stroke="none" width="1" x="507" y="32"/>
        <rect fill="rgb(0,0,0)" height="1" stroke="none" width="1" x="507" y="32"/>
        <line class="pen0" fill="none" x1="73" x2="507" y1="31" y2="31"/>
        <rect fill="rgb(0,0,0)" height="1" stroke="none" width="1" x="507" y="31"/>
        <line class="pen0" fill="none" x1="73" x2="507" y1="374" y2="374"/>
        <rect fill="rgb(0,0,0)" height="1" stroke="none" width="1" x="507" y="374"/>
        <line class="pen0" fill="none" x1="507" x2="507" y1="374" y2="31"/>
        <rect fill="rgb(0,0,0)" height="1" stroke="none" width="1" x="507" y="31"/>
        <line class="pen0" fill="none" x1="73" x2="73" y1="374" y2="31"/>
        <rect fill="rgb(0,0,0)" height="1" stroke="none" width="1" x="73" y="31"/>
        <line class="pen0" fill="none" x1="73" x2="507" y1="374" y2="374"/>
        <rect fill="rgb(0,0,0)" height="1" stroke="none" width="1" x="507" y="374"/>
        <line class="pen0" fill="none" x1="73" x2="73" y1="374" y2="31"/>
        <rect fill="rgb(0,0,0)" height="1" stroke="none" width="1" x="73" y="31"/>
        <line class="pen0" fill="none" x1="73" x2="73" y1="374" y2="369"/>
        <rect fill="rgb(0,0,0)" height="1" stroke="none" width="1" x="73" y="369"/>
        <line class="pen0" fill="none" x1="73" x2="73" y1="32" y2="36"/>
        <rect fill="rgb(0,0,0)" height="1" stroke="none" width="1" x="73" y="36"/>
        <text class="font2" fill="rgb(0,0,0)" stroke="none" style="dominant-baseline: text-before-edge;" x="59 63 70 77" xml:lang="en" xml:space="preserve" y="377">-100</text>
        <line class="pen0" fill="none" x1="116" x2="116" y1="374" y2="369"/>
        <rect fill="rgb(0,0,0)" height="1" stroke="none" width="1" x="116" y="369"/>
        <line class="pen0" fill="none" x1="116" x2="116" y1="32" y2="36"/>
        <rect fill="rgb(0,0,0)" height="1" stroke="none" width="1" x="116" y="36"/>
        <text class="font2" fill="rgb(0,0,0)" stroke="none" style="dominant-baseline: text-before-edge;" x="105 109 116" xml:lang="en" xml:space="preserve" y="377">-80</text>
        <line class="pen0" fill="none" x1="159" x2="159" y1="374" y2="369"/>
        <rect fill="rgb(0,0,0)" height="1" stroke="none" width="1" x="159" y="369"/>
        <line class="pen0" fill="none" x1="159" x2="159" y1="32" y2="36"/>
        <rect fill="rgb(0,0,0)" height="1" stroke="none" width="1" x="159" y="36"/>
        <text class="font2" fill="rgb(0,0,0)" stroke="none" style="dominant-baseline: text-before-edge;" x="148 152 159" xml:lang="en" xml:space="preserve" y="377">-60</text>
        <line class="pen0" fill="none" x1="203" x2="203" y1="374" y2="369"/>
        <rect fill="rgb(0,0,0)" height="1" stroke="none" width="1" x="203" y="369"/>
        <line class="pen0" fill="none" x1="203" x2="203" y1="32" y2="36"/>
        <rect fill="rgb(0,0,0)" height="1" stroke="none" width="1" x="203" y="36"/>
        <text class="font2" fill="rgb(0,0,0)" stroke="none" style="dominant-baseline: text-before-edge;" x="192 196 203" xml:lang="en" xml:space="preserve" y="377">-40</text>
        <line class="pen0" fill="none" x1="246" x2="246" y1="374" y2="369"/>
        <rect fill="rgb(0,0,0)" height="1" stroke="none" width="1" x="246" y="369"/>
        <line class="pen0" fill="none" x1="246" x2="246" y1="32" y2="36"/>
        <rect fill="rgb(0,0,0)" height="1" stroke="none" width="1" x="246" y="36"/>
        <text class="font2" fill="rgb(0,0,0)" stroke="none" style="dominant-baseline: text-before-edge;" x="235 239 246" xml:lang="en" xml:space="preserve" y="377">-20</text>
        <line class="pen0" fill="none" x1="290" x2="290" y1="374" y2="369"/>
        <rect fill="rgb(0,0,0)" height="1" stroke="none" width="1" x="290" y="369"/>
        <line class="pen0" fill="none" x1="290" x2="290" y1="32" y2="36"/>
        <rect fill="rgb(0,0,0)" height="1" stroke="none" width="1" x="290" y="36"/>
        <text class="font2" fill="rgb(0,0,0)" stroke="none" style="dominant-baseline: text-before-edge;" x="287" xml:lang="en" xml:space="preserve" y="377">0</text>
        <line class="pen0" fill="none" x1="333" x2="333" y1="374" y2="369"/>
        <rect fill="rgb(0,0,0)" height="1" stroke="none" width="1" x="333" y="369"/>
        <line class="pen0" fill="none" x1="333" x2="333" y1="32" y2="36"/>
        <rect fill="rgb(0,0,0)" height="1" stroke="none" width="1" x="333" y="36"/>
        <text class="font2" fill="rgb(0,0,0)" stroke="none" style="dominant-baseline: text-before-edge;" x="326 333" xml:lang="en" xml:space="preserve" y="377">20</text>
        <line class="pen0" fill="none" x1="376" x2="376" y1="374" y2="369"/>
        <rect fill="rgb(0,0,0)" height="1" stroke="none" width="1" x="376" y="369"/>
        <line class="pen0" fill="none" x1="376" x2="376" y1="32" y2="36"/>
        <rect fill="rgb(0,0,0)" height="1" stroke="none" width="1" x="376" y="36"/>
        <text class="font2" fill="rgb(0,0,0)" stroke="none" style="dominant-baseline: text-before-edge;" x="369 376" xml:lang="en" xml:space="preserve" y="377">40</text>
        <line class="pen0" fill="none" x1="420" x2="420" y1="374" y2="369"/>
        <rect fill="rgb(0,0,0)" height="1" stroke="none" width="1" x="420" y="369"/>
        <line class="pen0" fill="none" x1="420" x2="420" y1="32" y2="36"/>
        <rect fill="rgb(0,0,0)" height="1" stroke="none" width="1" x="420" y="36"/>
        <text class="font2" fill="rgb(0,0,0)" stroke="none" style="dominant-baseline: text-before-edge;" x="413 420" xml:lang="en" xml:space="preserve" y="377">60</text>
        <line class="pen0" fill="none" x1="463" x2="463" y1="374" y2="369"/>
        <rect fill="rgb(0,0,0)" height="1" stroke="none" width="1" x="463" y="369"/>
        <line class="pen0" fill="none" x1="463" x2="463" y1="32" y2="36"/>
        <rect fill="rgb(0,0,0)" height="1" stroke="none" width="1" x="463" y="36"/>
        <text class="font2" fill="rgb(0,0,0)" stroke="none" style="dominant-baseline: text-before-edge;" x="456 463" xml:lang="en" xml:space="preserve" y="377">80</text>
        <line class="pen0" fill="none" x1="507" x2="507" y1="374" y2="369"/>
        <rect fill="rgb(0,0,0)" height="1" stroke="none" width="1" x="507" y="369"/>
        <line class="pen0" fill="none" x1="507" x2="507" y1="32" y2="36"/>
        <rect fill="rgb(0,0,0)" height="1" stroke="none" width="1" x="507" y="36"/>
        <text class="font2" fill="rgb(0,0,0)" stroke="none" style="dominant-baseline: text-before-edge;" x="497 504 511" xml:lang="en" xml:space="preserve" y="377">100</text>
        <line class="pen0" fill="none" x1="73" x2="77" y1="374" y2="374"/>
        <rect fill="rgb(0,0,0)" height="1" stroke="none" width="1" x="77" y="374"/>
        <line class="pen0" fill="none" x1="507" x2="502" y1="374" y2="374"/>
        <rect fill="rgb(0,0,0)" height="1" stroke="none" width="1" x="502" y="374"/>
        <text class="font2" fill="rgb(0,0,0)" stroke="none" style="dominant-baseline: text-before-edge;" x="44 48 55 62" xml:lang="en" xml:space="preserve" y="366">-150</text>
        <line class="pen0" fill="none" x1="73" x2="77" y1="260" y2="260"/>
        <rect fill="rgb(0,0,0)" height="1" stroke="none" width="1" x="77" y="260"/>
        <line class="pen0" fill="none" x1="507" x2="502" y1="260" y2="260"/>
        <rect fill="rgb(0,0,0)" height="1" stroke="none" width="1" x="502" y="260"/>
        <text class="font2" fill="rgb(0,0,0)" stroke="none" style="dominant-baseline: text-before-edge;" x="44 48 55 62" xml:lang="en" xml:space="preserve" y="252">-100</text>
        <line class="pen0" fill="none" x1="73" x2="77" y1="146" y2="146"/>
        <rect fill="rgb(0,0,0)" height="1" stroke="none" width="1" x="77" y="146"/>
        <line class="pen0" fill="none" x1="507" x2="502" y1="146" y2="146"/>
        <rect fill="rgb(0,0,0)" height="1" stroke="none" width="1" x="502" y="146"/>
        <text class="font2" fill="rgb(0,0,0)" stroke="none" style="dominant-baseline: text-before-edge;" x="51 55 62" xml:lang="en" xml:space="preserve" y="138">-50</text>
        <line class="pen0" fill="none" x1="73" x2="77" y1="32" y2="32"/>
        <rect fill="rgb(0,0,0)" height="1" stroke="none" width="1" x="77" y="32"/>
        <line class="pen0" fill="none" x1="507" x2="502" y1="32" y2="32"/>
        <rect fill="rgb(0,0,0)" height="1" stroke="none" width="1" x="502" y="32"/>
        <text class="font2" fill="rgb(0,0,0)" stroke="none" style="dominant-baseline: text-before-edge;" x="62" xml:lang="en" xml:space="preserve" y="24">0</text>
        <line class="pen0" fill="none" x1="73" x2="507" y1="31" y2="31"/>
        <rect fill="rgb(0,0,0)" height="1" stroke="none" width="1" x="507" y="31"/>
        <line class="pen0" fill="none" x1="73" x2="507" y1="374" y2="374"/>
        <rect fill="rgb(0,0,0)" height="1" stroke="none" width="1" x="507" y="374"/>
        <line class="pen0" fill="none" x1="507" x2="507" y1="374" y2="31"/>
        <rect fill="rgb(0,0,0)" height="1" stroke="none" width="1" x="507" y="31"/>
        <line class="pen0" fill="none" x1="73" x2="73" y1="374" y2="31"/>
        <rect fill="rgb(0,0,0)" height="1" stroke="none" width="1" x="73" y="31"/>
        <polyline class="pen4" fill="none" points="94,142 95,142 96,142 97,141 98,141 99,141 100,141 101,140 102,140 103,139 104,139 105,138 106,138 107,138 108,137 109,137 110,136 111,136 112,135 113,135 114,135 115,134 116,134 117,134 118,134 119,134 120,134 121,135 122,135 123,136 124,136 125,137 127,139 127,140 129,142 129,145 130,146 130,148 131,149 131,152 132,153 132,158 133,159 133,167 134,168 134,184 135,185 135,311 135,197 136,196 136,170 137,169 137,159 138,158 138,152 139,151 139,146 140,145 140,143 141,142 141,139 143,137 143,135 144,134 145,133 146,132 147,132 148,132 149,133 150,134 152,136 152,139 153,140 153,142 154,143 154,148 155,149 155,157 156,158 156,176 157,177 157,316 157,183 158,182 158,159 159,158 159,148 160,147 160,142 161,141 161,137 162,136 162,134 164,132 164,130 165,129 166,130 167,130 169,132 169,135 170,136 170,139 171,140 171,146 172,147 172,159 173,160 173,240 174,243 174,304 174,159 175,158 175,145 176,144 176,138 177,137 177,133 178,132 178,130 180,128 180,127 181,127 182,128 183,129 183,131 184,132 184,135 185,136"/>
        <polyline class="pen4" fill="none" points="185,136 185,142 186,143 186,156 187,157 187,327 187,202 188,201 188,152 189,151 189,139 190,138 190,132 191,131 191,128 192,127 192,125 193,124 194,124 195,125 196,126 196,129 197,130 197,134 198,135 198,144 199,145 199,172 200,173 200,349 200,156 201,155 201,138 202,137 202,130 203,129 203,125 204,124 204,122 205,121 206,121 208,123 208,127 209,128 209,135 210,136 210,151 211,152 211,351 211,168 212,167 212,138 213,137 213,128 214,127 214,122 215,121 215,119 217,117 216,117 217,117 218,118 218,120 219,121 219,124 220,125 220,134 221,135 221,158 222,159 222,276 222,148 223,147 223,129 224,128 224,121 225,120 225,116 226,115 226,113 227,113 228,114 229,115 229,119 230,120 230,127 231,128 231,147 232,148 232,331 232,148 233,147 233,126 234,125 234,116 235,115 235,111 237,109 237,108 239,110 239,115 240,116 240,124 241,125 241,153 242,154 242,269 242,134 243,133 243,117 244,116 244,109 245,108 245,104 247,102 246,102 247,103 248,104 248,106 249,107 249,112 250,113 250,128 251,129 251,280 251,147 252,146 252,116"/>
        <polyline class="pen4" fill="none" points="252,116 253,115 253,105 254,104 254,99 255,98 255,96 256,95 258,97 258,102 259,103 259,114 260,115 260,278 260,190 261,188 261,111 262,110 262,98 263,97 263,91 264,90 264,87 265,86 266,87 267,88 267,91 268,92 268,101 269,102 269,150 270,151 270,240 270,102 271,101 271,87 272,86 272,79 273,78 273,74 275,72 274,72 275,72 276,73 276,75 277,76 277,84 278,85 278,120 279,121 279,251 279,84 280,83 280,67 281,66 281,56 282,55 282,49 283,48 283,44 284,43 284,40 285,39 285,37 286,36 286,34 287,33 288,32 289,32"/>
        <polyline class="pen4" fill="none" points="290,32 291,33 292,34 293,35 293,37 294,38 294,40 295,41 295,44 296,45 296,49 297,50 297,56 298,57 298,67 299,68 299,84 300,85 300,251 300,120 301,119 301,84 302,83 302,75 303,74 303,72 304,72 306,74 306,79 307,80 307,87 308,88 308,102 309,103 309,240 309,151 310,150 310,102 311,101 311,91 312,90 312,87 313,86 314,87 315,88 315,91 316,92 316,98 317,99 317,111 318,112 318,188 319,190 319,278 319,114 320,113 320,102 321,101 321,97 323,95 322,95 323,96 324,97 324,99 325,100 325,105 326,106 326,116 327,117 327,147 328,148 328,280 328,128 329,127 329,112 330,111 330,106 331,105 331,103 332,102 334,104 334,109 335,110 335,117 336,118 336,134 337,135 337,269 337,153 338,152 338,124 339,123 339,115 340,114 340,110 342,108 341,108 342,109 344,111 344,116 345,117 345,126 346,127 346,148 347,149 347,331 347,147 348,146 348,127 349,126 349,119 350,118 350,115 352,113 351,113 352,113 353,114 353,116 354,117 354,121 355,122 355,129 356,130 356,148 357,149 357,276 357,158 358,157"/>
        <polyline class="pen4" fill="none" points="358,157 358,134 359,133 359,124 360,123 360,120 361,119 361,117 362,117 364,119 364,122 365,123 365,128 366,129 366,138 367,139 367,167 368,168 368,351 368,151 369,150 369,135 370,134 370,127 371,126 371,123 373,121 372,121 373,121 374,122 375,123 375,125 376,126 376,130 377,131 377,138 378,139 378,156 379,157 379,349 379,172 380,171 380,144 381,143 381,134 382,133 382,129 383,128 383,125 384,124 385,124 386,125 387,126 387,128 388,129 388,132 389,133 389,139 390,140 390,152 391,153 391,202 392,203 392,327 392,156 393,155 393,142 394,141 394,135 395,134 395,131 396,130 396,128 397,127 398,127 399,128 401,130 401,133 402,134 402,138 403,139 403,145 404,146 404,159 405,160 405,304 405,243 406,240 406,159 407,158 407,146 408,145 408,139 409,138 409,135 410,134 410,132 412,130 411,130 412,130 413,129 414,130 416,132 416,134 417,135 417,137 418,138 418,142 419,143 419,148 420,149 420,159 421,160 421,183 422,184 422,316 422,176 423,175 423,157 424,156 424,148 425,147 425,142 426,141 426,139 427,138 427,136 429,134"/>
        <polyline class="pen4" fill="none" points="429,134 429,133 430,132 431,132 432,132 433,133 434,134 435,135 437,137 437,139 438,140 438,142 439,143 439,146 440,147 440,152 441,153 441,159 442,160 442,170 443,171 443,197 444,198 444,311 444,184 445,183 445,167 446,166 446,158 447,157 447,152 448,151 448,148 449,147 449,145 450,144 450,142 452,140 452,139 454,137 454,136 455,136 456,135 457,135 458,134 459,134 460,134 461,134 462,134 463,134 464,135 465,135 466,135 467,136 468,136 469,137 470,137 471,138 472,138 473,138 474,139 475,139 476,140 477,140 478,141 479,141 480,141 481,141 482,142 483,142 484,142 485,142"/>
        <text class="font2" fill="rgb(0,0,0)" stroke="none" style="dominant-baseline: text-before-edge;" x="256 263 270 277 281 288 292 296 303 310 317" xml:lang="en" xml:space="preserve" y="394">Theta [deg]</text>
        <text class="font3" fill="rgb(0,0,0)" stroke="none" style="dominant-baseline: text-before-edge;" transform="rotate(-90.0, 21, 232)" x="21 31 38 41 48 52 56 63 72" xml:lang="en" xml:space="preserve" y="232">Gain [dB]</text>
        <text class="font2" fill="rgb(0,0,0)" stroke="none" style="dominant-baseline: text-before-edge;" x="197 206 213 217 224 231 238 245 249 258 265 272 276 280 287 291 298 306 313 318 327 334 339 346 349 356 363 370 374" xml:lang="en" xml:space="preserve" y="9">Antenna Aperture=7*wavelength</text>
    </g>
</svg>
