<svg width="558" height="415" xmlns="http://www.w3.org/2000/svg" xmlns:xlink="http://www.w3.org/1999/xlink" stroke="#000000" stroke-width="1" stroke-linecap="square" stroke-linejoin="miter" stroke-miterlimit="10" stroke-dasharray="" stroke-dashoffset="0" stroke-opacity="1" fill="#000000" fill-opacity="1" font-family="Dialog" font-style="normal" font-weight="400" font-size="12" overflow="hidden"><defs id="genericDefs"></defs><g><defs id="defs1"><clipPath id="clipPath1"><path d="M0 0 558 0 558 415 0 415 0 0Z"/></clipPath></defs><g stroke="#FFFFFF" fill="#FFFFFF"><rect x="0" y="0" width="558" height="415" stroke="none" clip-path="url(#clipPath1)"/></g><g stroke="#FFFFFF" fill="#FFFFFF"><rect x="0" y="0" width="558" height="415" stroke="none"/><path d="M73 369 505 369 505 31 73 31Z" stroke="none"/></g><g stroke="#1A1A1A" stroke-width="0.6667" stroke-linecap="butt" stroke-linejoin="bevel" stroke-miterlimit="1" stroke-dasharray="1 3" stroke-opacity="0.251" fill="#1A1A1A" fill-opacity="0.251"><line x1="89.2556" y1="369" x2="89.2556" y2="31" fill="none"/><line x1="98.7645" y1="369" x2="98.7645" y2="31" fill="none"/><line x1="105.511" y1="369" x2="105.511" y2="31" fill="none"/><line x1="110.744" y1="369" x2="110.744" y2="31" fill="none"/><line x1="115.02" y1="369" x2="115.02" y2="31" fill="none"/><line x1="118.635" y1="369" x2="118.635" y2="31" fill="none"/><line x1="121.767" y1="369" x2="121.767" y2="31" fill="none"/><line x1="124.529" y1="369" x2="124.529" y2="31" fill="none"/><line x1="127" y1="369" x2="127" y2="31" fill="none"/><line x1="143.256" y1="369" x2="143.256" y2="31" fill="none"/><line x1="152.764" y1="369" x2="152.764" y2="31" fill="none"/><line x1="159.511" y1="369" x2="159.511" y2="31" fill="none"/><line x1="164.744" y1="369" x2="164.744" y2="31" fill="none"/><line x1="169.02" y1="369" x2="169.02" y2="31" fill="none"/><line x1="172.635" y1="369" x2="172.635" y2="31" fill="none"/><line x1="175.767" y1="369" x2="175.767" y2="31" fill="none"/><line x1="178.529" y1="369" x2="178.529" y2="31" fill="none"/><line x1="197.256" y1="369" x2="197.256" y2="31" fill="none"/><line x1="206.765" y1="369" x2="206.765" y2="31" fill="none"/><line x1="213.511" y1="369" x2="213.511" y2="31" fill="none"/><line x1="218.744" y1="369" x2="218.744" y2="31" fill="none"/><line x1="223.02" y1="369" x2="223.02" y2="31" fill="none"/><line x1="226.635" y1="369" x2="226.635" y2="31" fill="none"/><line x1="229.767" y1="369" x2="229.767" y2="31" fill="none"/><line x1="232.529" y1="369" x2="232.529" y2="31" fill="none"/><line x1="235" y1="369" x2="235" y2="31" fill="none"/><line x1="251.256" y1="369" x2="251.256" y2="31" fill="none"/><line x1="260.765" y1="369" x2="260.765" y2="31" fill="none"/><line x1="267.511" y1="369" x2="267.511" y2="31" fill="none"/><line x1="272.744" y1="369" x2="272.744" y2="31" fill="none"/><line x1="277.02" y1="369" x2="277.02" y2="31" fill="none"/><line x1="280.635" y1="369" x2="280.635" y2="31" fill="none"/><line x1="283.767" y1="369" x2="283.767" y2="31" fill="none"/><line x1="286.529" y1="369" x2="286.529" y2="31" fill="none"/><line x1="305.256" y1="369" x2="305.256" y2="31" fill="none"/><line x1="314.765" y1="369" x2="314.765" y2="31" fill="none"/><line x1="321.511" y1="369" x2="321.511" y2="31" fill="none"/><line x1="326.744" y1="369" x2="326.744" y2="31" fill="none"/><line x1="331.02" y1="369" x2="331.02" y2="31" fill="none"/><line x1="334.635" y1="369" x2="334.635" y2="31" fill="none"/><line x1="337.767" y1="369" x2="337.767" y2="31" fill="none"/><line x1="340.529" y1="369" x2="340.529" y2="31" fill="none"/><line x1="343" y1="369" x2="343" y2="31" fill="none"/><line x1="359.256" y1="369" x2="359.256" y2="31" fill="none"/><line x1="368.765" y1="369" x2="368.765" y2="31" fill="none"/><line x1="375.511" y1="369" x2="375.511" y2="31" fill="none"/><line x1="380.744" y1="369" x2="380.744" y2="31" fill="none"/><line x1="385.02" y1="369" x2="385.02" y2="31" fill="none"/><line x1="388.635" y1="369" x2="388.635" y2="31" fill="none"/><line x1="391.767" y1="369" x2="391.767" y2="31" fill="none"/><line x1="394.529" y1="369" x2="394.529" y2="31" fill="none"/><line x1="413.256" y1="369" x2="413.256" y2="31" fill="none"/><line x1="422.765" y1="369" x2="422.765" y2="31" fill="none"/><line x1="429.511" y1="369" x2="429.511" y2="31" fill="none"/><line x1="434.744" y1="369" x2="434.744" y2="31" fill="none"/><line x1="439.02" y1="369" x2="439.02" y2="31" fill="none"/><line x1="442.635" y1="369" x2="442.635" y2="31" fill="none"/><line x1="445.767" y1="369" x2="445.767" y2="31" fill="none"/><line x1="448.529" y1="369" x2="448.529" y2="31" fill="none"/><line x1="451" y1="369" x2="451" y2="31" fill="none"/><line x1="467.256" y1="369" x2="467.256" y2="31" fill="none"/><line x1="476.765" y1="369" x2="476.765" y2="31" fill="none"/><line x1="483.511" y1="369" x2="483.511" y2="31" fill="none"/><line x1="488.744" y1="369" x2="488.744" y2="31" fill="none"/><line x1="493.02" y1="369" x2="493.02" y2="31" fill="none"/><line x1="496.635" y1="369" x2="496.635" y2="31" fill="none"/><line x1="499.767" y1="369" x2="499.767" y2="31" fill="none"/><line x1="502.529" y1="369" x2="502.529" y2="31" fill="none"/></g><g stroke="#262626" stroke-width="0.6667" stroke-linecap="butt" stroke-linejoin="round" stroke-opacity="0.149" fill="#262626" fill-opacity="0.149"><line x1="73" y1="369" x2="73" y2="31" fill="none"/><line x1="181" y1="369" x2="181" y2="31" fill="none"/><line x1="289" y1="369" x2="289" y2="31" fill="none"/><line x1="397" y1="369" x2="397" y2="31" fill="none"/><line x1="505" y1="369" x2="505" y2="31" fill="none"/></g><g stroke="#1A1A1A" stroke-width="0.6667" stroke-linecap="butt" stroke-linejoin="bevel" stroke-miterlimit="1" stroke-dasharray="1 3" stroke-opacity="0.251" fill="#1A1A1A" fill-opacity="0.251"><line x1="505" y1="356.929" x2="73" y2="356.929" fill="none"/><line x1="505" y1="344.857" x2="73" y2="344.857" fill="none"/><line x1="505" y1="332.786" x2="73" y2="332.786" fill="none"/><line x1="505" y1="308.643" x2="73" y2="308.643" fill="none"/><line x1="505" y1="296.571" x2="73" y2="296.571" fill="none"/><line x1="505" y1="284.5" x2="73" y2="284.5" fill="none"/><line x1="505" y1="260.357" x2="73" y2="260.357" fill="none"/><line x1="505" y1="248.286" x2="73" y2="248.286" fill="none"/><line x1="505" y1="236.214" x2="73" y2="236.214" fill="none"/><line x1="505" y1="212.071" x2="73" y2="212.071" fill="none"/><line x1="505" y1="200" x2="73" y2="200" fill="none"/><line x1="505" y1="187.929" x2="73" y2="187.929" fill="none"/><line x1="505" y1="163.786" x2="73" y2="163.786" fill="none"/><line x1="505" y1="151.714" x2="73" y2="151.714" fill="none"/><line x1="505" y1="139.643" x2="73" y2="139.643" fill="none"/><line x1="505" y1="115.5" x2="73" y2="115.5" fill="none"/><line x1="505" y1="103.429" x2="73" y2="103.429" fill="none"/><line x1="505" y1="91.3571" x2="73" y2="91.3571" fill="none"/><line x1="505" y1="67.2143" x2="73" y2="67.2143" fill="none"/><line x1="505" y1="55.1429" x2="73" y2="55.1429" fill="none"/><line x1="505" y1="43.0714" x2="73" y2="43.0714" fill="none"/></g><g stroke="#262626" stroke-width="0.6667" stroke-linecap="butt" stroke-linejoin="round" stroke-opacity="0.149" fill="#262626" fill-opacity="0.149"><line x1="505" y1="369" x2="73" y2="369" fill="none"/><line x1="505" y1="320.714" x2="73" y2="320.714" fill="none"/><line x1="505" y1="272.429" x2="73" y2="272.429" fill="none"/><line x1="505" y1="224.143" x2="73" y2="224.143" fill="none"/><line x1="505" y1="175.857" x2="73" y2="175.857" fill="none"/><line x1="505" y1="127.571" x2="73" y2="127.571" fill="none"/><line x1="505" y1="79.2857" x2="73" y2="79.2857" fill="none"/><line x1="505" y1="31" x2="73" y2="31" fill="none"/><line x1="73" y1="369" x2="505" y2="369" stroke-linecap="square" stroke-opacity="1" fill="none" fill-opacity="1"/><line x1="73" y1="31" x2="505" y2="31" stroke-linecap="square" stroke-opacity="1" fill="none" fill-opacity="1"/><line x1="73" y1="369" x2="73" y2="364.68" stroke-linecap="square" stroke-opacity="1" fill="none" fill-opacity="1"/><line x1="181" y1="369" x2="181" y2="364.68" stroke-linecap="square" stroke-opacity="1" fill="none" fill-opacity="1"/><line x1="289" y1="369" x2="289" y2="364.68" stroke-linecap="square" stroke-opacity="1" fill="none" fill-opacity="1"/><line x1="397" y1="369" x2="397" y2="364.68" stroke-linecap="square" stroke-opacity="1" fill="none" fill-opacity="1"/><line x1="505" y1="369" x2="505" y2="364.68" stroke-linecap="square" stroke-opacity="1" fill="none" fill-opacity="1"/><line x1="73" y1="31" x2="73" y2="35.32" stroke-linecap="square" stroke-opacity="1" fill="none" fill-opacity="1"/><line x1="181" y1="31" x2="181" y2="35.32" stroke-linecap="square" stroke-opacity="1" fill="none" fill-opacity="1"/><line x1="289" y1="31" x2="289" y2="35.32" stroke-linecap="square" stroke-opacity="1" fill="none" fill-opacity="1"/><line x1="397" y1="31" x2="397" y2="35.32" stroke-linecap="square" stroke-opacity="1" fill="none" fill-opacity="1"/><line x1="505" y1="31" x2="505" y2="35.32" stroke-linecap="square" stroke-opacity="1" fill="none" fill-opacity="1"/><line x1="73" y1="369" x2="73" y2="366.84" stroke-linecap="square" stroke-opacity="1" fill="none" fill-opacity="1"/><line x1="89.2556" y1="369" x2="89.2556" y2="366.84" stroke-linecap="square" stroke-opacity="1" fill="none" fill-opacity="1"/><line x1="98.7645" y1="369" x2="98.7645" y2="366.84" stroke-linecap="square" stroke-opacity="1" fill="none" fill-opacity="1"/><line x1="105.511" y1="369" x2="105.511" y2="366.84" stroke-linecap="square" stroke-opacity="1" fill="none" fill-opacity="1"/><line x1="110.744" y1="369" x2="110.744" y2="366.84" stroke-linecap="square" stroke-opacity="1" fill="none" fill-opacity="1"/><line x1="115.02" y1="369" x2="115.02" y2="366.84" stroke-linecap="square" stroke-opacity="1" fill="none" fill-opacity="1"/><line x1="118.635" y1="369" x2="118.635" y2="366.84" stroke-linecap="square" stroke-opacity="1" fill="none" fill-opacity="1"/><line x1="121.767" y1="369" x2="121.767" y2="366.84" stroke-linecap="square" stroke-opacity="1" fill="none" fill-opacity="1"/><line x1="124.529" y1="369" x2="124.529" y2="366.84" stroke-linecap="square" stroke-opacity="1" fill="none" fill-opacity="1"/><line x1="127" y1="369" x2="127" y2="366.84" stroke-linecap="square" stroke-opacity="1" fill="none" fill-opacity="1"/><line x1="143.256" y1="369" x2="143.256" y2="366.84" stroke-linecap="square" stroke-opacity="1" fill="none" fill-opacity="1"/><line x1="152.764" y1="369" x2="152.764" y2="366.84" stroke-linecap="square" stroke-opacity="1" fill="none" fill-opacity="1"/><line x1="159.511" y1="369" x2="159.511" y2="366.84" stroke-linecap="square" stroke-opacity="1" fill="none" fill-opacity="1"/><line x1="164.744" y1="369" x2="164.744" y2="366.84" stroke-linecap="square" stroke-opacity="1" fill="none" fill-opacity="1"/><line x1="169.02" y1="369" x2="169.02" y2="366.84" stroke-linecap="square" stroke-opacity="1" fill="none" fill-opacity="1"/><line x1="172.635" y1="369" x2="172.635" y2="366.84" stroke-linecap="square" stroke-opacity="1" fill="none" fill-opacity="1"/><line x1="175.767" y1="369" x2="175.767" y2="366.84" stroke-linecap="square" stroke-opacity="1" fill="none" fill-opacity="1"/><line x1="178.529" y1="369" x2="178.529" y2="366.84" stroke-linecap="square" stroke-opacity="1" fill="none" fill-opacity="1"/><line x1="181" y1="369" x2="181" y2="366.84" stroke-linecap="square" stroke-opacity="1" fill="none" fill-opacity="1"/><line x1="197.256" y1="369" x2="197.256" y2="366.84" stroke-linecap="square" stroke-opacity="1" fill="none" fill-opacity="1"/><line x1="206.765" y1="369" x2="206.765" y2="366.84" stroke-linecap="square" stroke-opacity="1" fill="none" fill-opacity="1"/><line x1="213.511" y1="369" x2="213.511" y2="366.84" stroke-linecap="square" stroke-opacity="1" fill="none" fill-opacity="1"/><line x1="218.744" y1="369" x2="218.744" y2="366.84" stroke-linecap="square" stroke-opacity="1" fill="none" fill-opacity="1"/><line x1="223.02" y1="369" x2="223.02" y2="366.84" stroke-linecap="square" stroke-opacity="1" fill="none" fill-opacity="1"/><line x1="226.635" y1="369" x2="226.635" y2="366.84" stroke-linecap="square" stroke-opacity="1" fill="none" fill-opacity="1"/><line x1="229.767" y1="369" x2="229.767" y2="366.84" stroke-linecap="square" stroke-opacity="1" fill="none" fill-opacity="1"/><line x1="232.529" y1="369" x2="232.529" y2="366.84" stroke-linecap="square" stroke-opacity="1" fill="none" fill-opacity="1"/><line x1="235" y1="369" x2="235" y2="366.84" stroke-linecap="square" stroke-opacity="1" fill="none" fill-opacity="1"/><line x1="251.256" y1="369" x2="251.256" y2="366.84" stroke-linecap="square" stroke-opacity="1" fill="none" fill-opacity="1"/><line x1="260.765" y1="369" x2="260.765" y2="366.84" stroke-linecap="square" stroke-opacity="1" fill="none" fill-opacity="1"/><line x1="267.511" y1="369" x2="267.511" y2="366.84" stroke-linecap="square" stroke-opacity="1" fill="none" fill-opacity="1"/><line x1="272.744" y1="369" x2="272.744" y2="366.84" stroke-linecap="square" stroke-opacity="1" fill="none" fill-opacity="1"/><line x1="277.02" y1="369" x2="277.02" y2="366.84" stroke-linecap="square" stroke-opacity="1" fill="none" fill-opacity="1"/><line x1="280.635" y1="369" x2="280.635" y2="366.84" stroke-linecap="square" stroke-opacity="1" fill="none" fill-opacity="1"/><line x1="283.767" y1="369" x2="283.767" y2="366.84" stroke-linecap="square" stroke-opacity="1" fill="none" fill-opacity="1"/><line x1="286.529" y1="369" x2="286.529" y2="366.84" stroke-linecap="square" stroke-opacity="1" fill="none" fill-opacity="1"/><line x1="289" y1="369" x2="289" y2="366.84" stroke-linecap="square" stroke-opacity="1" fill="none" fill-opacity="1"/><line x1="305.256" y1="369" x2="305.256" y2="366.84" stroke-linecap="square" stroke-opacity="1" fill="none" fill-opacity="1"/><line x1="314.765" y1="369" x2="314.765" y2="366.84" stroke-linecap="square" stroke-opacity="1" fill="none" fill-opacity="1"/><line x1="321.511" y1="369" x2="321.511" y2="366.84" stroke-linecap="square" stroke-opacity="1" fill="none" fill-opacity="1"/><line x1="326.744" y1="369" x2="326.744" y2="366.84" stroke-linecap="square" stroke-opacity="1" fill="none" fill-opacity="1"/><line x1="331.02" y1="369" x2="331.02" y2="366.84" stroke-linecap="square" stroke-opacity="1" fill="none" fill-opacity="1"/><line x1="334.635" y1="369" x2="334.635" y2="366.84" stroke-linecap="square" stroke-opacity="1" fill="none" fill-opacity="1"/><line x1="337.767" y1="369" x2="337.767" y2="366.84" stroke-linecap="square" stroke-opacity="1" fill="none" fill-opacity="1"/><line x1="340.529" y1="369" x2="340.529" y2="366.84" stroke-linecap="square" stroke-opacity="1" fill="none" fill-opacity="1"/><line x1="343" y1="369" x2="343" y2="366.84" stroke-linecap="square" stroke-opacity="1" fill="none" fill-opacity="1"/><line x1="359.256" y1="369" x2="359.256" y2="366.84" stroke-linecap="square" stroke-opacity="1" fill="none" fill-opacity="1"/><line x1="368.765" y1="369" x2="368.765" y2="366.84" stroke-linecap="square" stroke-opacity="1" fill="none" fill-opacity="1"/><line x1="375.511" y1="369" x2="375.511" y2="366.84" stroke-linecap="square" stroke-opacity="1" fill="none" fill-opacity="1"/><line x1="380.744" y1="369" x2="380.744" y2="366.84" stroke-linecap="square" stroke-opacity="1" fill="none" fill-opacity="1"/><line x1="385.02" y1="369" x2="385.02" y2="366.84" stroke-linecap="square" stroke-opacity="1" fill="none" fill-opacity="1"/><line x1="388.635" y1="369" x2="388.635" y2="366.84" stroke-linecap="square" stroke-opacity="1" fill="none" fill-opacity="1"/><line x1="391.767" y1="369" x2="391.767" y2="366.84" stroke-linecap="square" stroke-opacity="1" fill="none" fill-opacity="1"/><line x1="394.529" y1="369" x2="394.529" y2="366.84" stroke-linecap="square" stroke-opacity="1" fill="none" fill-opacity="1"/><line x1="397" y1="369" x2="397" y2="366.84" stroke-linecap="square" stroke-opacity="1" fill="none" fill-opacity="1"/><line x1="413.256" y1="369" x2="413.256" y2="366.84" stroke-linecap="square" stroke-opacity="1" fill="none" fill-opacity="1"/><line x1="422.765" y1="369" x2="422.765" y2="366.84" stroke-linecap="square" stroke-opacity="1" fill="none" fill-opacity="1"/><line x1="429.511" y1="369" x2="429.511" y2="366.84" stroke-linecap="square" stroke-opacity="1" fill="none" fill-opacity="1"/><line x1="434.744" y1="369" x2="434.744" y2="366.84" stroke-linecap="square" stroke-opacity="1" fill="none" fill-opacity="1"/><line x1="439.02" y1="369" x2="439.02" y2="366.84" stroke-linecap="square" stroke-opacity="1" fill="none" fill-opacity="1"/><line x1="442.635" y1="369" x2="442.635" y2="366.84" stroke-linecap="square" stroke-opacity="1" fill="none" fill-opacity="1"/><line x1="445.767" y1="369" x2="445.767" y2="366.84" stroke-linecap="square" stroke-opacity="1" fill="none" fill-opacity="1"/><line x1="448.529" y1="369" x2="448.529" y2="366.84" stroke-linecap="square" stroke-opacity="1" fill="none" fill-opacity="1"/><line x1="451" y1="369" x2="451" y2="366.84" stroke-linecap="square" stroke-opacity="1" fill="none" fill-opacity="1"/><line x1="467.256" y1="369" x2="467.256" y2="366.84" stroke-linecap="square" stroke-opacity="1" fill="none" fill-opacity="1"/><line x1="476.765" y1="369" x2="476.765" y2="366.84" stroke-linecap="square" stroke-opacity="1" fill="none" fill-opacity="1"/><line x1="483.511" y1="369" x2="483.511" y2="366.84" stroke-linecap="square" stroke-opacity="1" fill="none" fill-opacity="1"/><line x1="488.744" y1="369" x2="488.744" y2="366.84" stroke-linecap="square" stroke-opacity="1" fill="none" fill-opacity="1"/><line x1="493.02" y1="369" x2="493.02" y2="366.84" stroke-linecap="square" stroke-opacity="1" fill="none" fill-opacity="1"/><line x1="496.635" y1="369" x2="496.635" y2="366.84" stroke-linecap="square" stroke-opacity="1" fill="none" fill-opacity="1"/><line x1="499.767" y1="369" x2="499.767" y2="366.84" stroke-linecap="square" stroke-opacity="1" fill="none" fill-opacity="1"/><line x1="502.529" y1="369" x2="502.529" y2="366.84" stroke-linecap="square" stroke-opacity="1" fill="none" fill-opacity="1"/><line x1="505" y1="369" x2="505" y2="366.84" stroke-linecap="square" stroke-opacity="1" fill="none" fill-opacity="1"/><line x1="73" y1="31" x2="73" y2="33.16" stroke-linecap="square" stroke-opacity="1" fill="none" fill-opacity="1"/><line x1="89.2556" y1="31" x2="89.2556" y2="33.16" stroke-linecap="square" stroke-opacity="1" fill="none" fill-opacity="1"/><line x1="98.7645" y1="31" x2="98.7645" y2="33.16" stroke-linecap="square" stroke-opacity="1" fill="none" fill-opacity="1"/><line x1="105.511" y1="31" x2="105.511" y2="33.16" stroke-linecap="square" stroke-opacity="1" fill="none" fill-opacity="1"/><line x1="110.744" y1="31" x2="110.744" y2="33.16" stroke-linecap="square" stroke-opacity="1" fill="none" fill-opacity="1"/><line x1="115.02" y1="31" x2="115.02" y2="33.16" stroke-linecap="square" stroke-opacity="1" fill="none" fill-opacity="1"/><line x1="118.635" y1="31" x2="118.635" y2="33.16" stroke-linecap="square" stroke-opacity="1" fill="none" fill-opacity="1"/><line x1="121.767" y1="31" x2="121.767" y2="33.16" stroke-linecap="square" stroke-opacity="1" fill="none" fill-opacity="1"/><line x1="124.529" y1="31" x2="124.529" y2="33.16" stroke-linecap="square" stroke-opacity="1" fill="none" fill-opacity="1"/><line x1="127" y1="31" x2="127" y2="33.16" stroke-linecap="square" stroke-opacity="1" fill="none" fill-opacity="1"/><line x1="143.256" y1="31" x2="143.256" y2="33.16" stroke-linecap="square" stroke-opacity="1" fill="none" fill-opacity="1"/><line x1="152.764" y1="31" x2="152.764" y2="33.16" stroke-linecap="square" stroke-opacity="1" fill="none" fill-opacity="1"/><line x1="159.511" y1="31" x2="159.511" y2="33.16" stroke-linecap="square" stroke-opacity="1" fill="none" fill-opacity="1"/><line x1="164.744" y1="31" x2="164.744" y2="33.16" stroke-linecap="square" stroke-opacity="1" fill="none" fill-opacity="1"/><line x1="169.02" y1="31" x2="169.02" y2="33.16" stroke-linecap="square" stroke-opacity="1" fill="none" fill-opacity="1"/><line x1="172.635" y1="31" x2="172.635" y2="33.16" stroke-linecap="square" stroke-opacity="1" fill="none" fill-opacity="1"/><line x1="175.767" y1="31" x2="175.767" y2="33.16" stroke-linecap="square" stroke-opacity="1" fill="none" fill-opacity="1"/><line x1="178.529" y1="31" x2="178.529" y2="33.16" stroke-linecap="square" stroke-opacity="1" fill="none" fill-opacity="1"/><line x1="181" y1="31" x2="181" y2="33.16" stroke-linecap="square" stroke-opacity="1" fill="none" fill-opacity="1"/><line x1="197.256" y1="31" x2="197.256" y2="33.16" stroke-linecap="square" stroke-opacity="1" fill="none" fill-opacity="1"/><line x1="206.765" y1="31" x2="206.765" y2="33.16" stroke-linecap="square" stroke-opacity="1" fill="none" fill-opacity="1"/><line x1="213.511" y1="31" x2="213.511" y2="33.16" stroke-linecap="square" stroke-opacity="1" fill="none" fill-opacity="1"/><line x1="218.744" y1="31" x2="218.744" y2="33.16" stroke-linecap="square" stroke-opacity="1" fill="none" fill-opacity="1"/><line x1="223.02" y1="31" x2="223.02" y2="33.16" stroke-linecap="square" stroke-opacity="1" fill="none" fill-opacity="1"/><line x1="226.635" y1="31" x2="226.635" y2="33.16" stroke-linecap="square" stroke-opacity="1" fill="none" fill-opacity="1"/><line x1="229.767" y1="31" x2="229.767" y2="33.16" stroke-linecap="square" stroke-opacity="1" fill="none" fill-opacity="1"/><line x1="232.529" y1="31" x2="232.529" y2="33.16" stroke-linecap="square" stroke-opacity="1" fill="none" fill-opacity="1"/><line x1="235" y1="31" x2="235" y2="33.16" stroke-linecap="square" stroke-opacity="1" fill="none" fill-opacity="1"/><line x1="251.256" y1="31" x2="251.256" y2="33.16" stroke-linecap="square" stroke-opacity="1" fill="none" fill-opacity="1"/><line x1="260.765" y1="31" x2="260.765" y2="33.16" stroke-linecap="square" stroke-opacity="1" fill="none" fill-opacity="1"/><line x1="267.511" y1="31" x2="267.511" y2="33.16" stroke-linecap="square" stroke-opacity="1" fill="none" fill-opacity="1"/><line x1="272.744" y1="31" x2="272.744" y2="33.16" stroke-linecap="square" stroke-opacity="1" fill="none" fill-opacity="1"/><line x1="277.02" y1="31" x2="277.02" y2="33.16" stroke-linecap="square" stroke-opacity="1" fill="none" fill-opacity="1"/><line x1="280.635" y1="31" x2="280.635" y2="33.16" stroke-linecap="square" stroke-opacity="1" fill="none" fill-opacity="1"/><line x1="283.767" y1="31" x2="283.767" y2="33.16" stroke-linecap="square" stroke-opacity="1" fill="none" fill-opacity="1"/><line x1="286.529" y1="31" x2="286.529" y2="33.16" stroke-linecap="square" stroke-opacity="1" fill="none" fill-opacity="1"/><line x1="289" y1="31" x2="289" y2="33.16" stroke-linecap="square" stroke-opacity="1" fill="none" fill-opacity="1"/><line x1="305.256" y1="31" x2="305.256" y2="33.16" stroke-linecap="square" stroke-opacity="1" fill="none" fill-opacity="1"/><line x1="314.765" y1="31" x2="314.765" y2="33.16" stroke-linecap="square" stroke-opacity="1" fill="none" fill-opacity="1"/><line x1="321.511" y1="31" x2="321.511" y2="33.16" stroke-linecap="square" stroke-opacity="1" fill="none" fill-opacity="1"/><line x1="326.744" y1="31" x2="326.744" y2="33.16" stroke-linecap="square" stroke-opacity="1" fill="none" fill-opacity="1"/><line x1="331.02" y1="31" x2="331.02" y2="33.16" stroke-linecap="square" stroke-opacity="1" fill="none" fill-opacity="1"/><line x1="334.635" y1="31" x2="334.635" y2="33.16" stroke-linecap="square" stroke-opacity="1" fill="none" fill-opacity="1"/><line x1="337.767" y1="31" x2="337.767" y2="33.16" stroke-linecap="square" stroke-opacity="1" fill="none" fill-opacity="1"/><line x1="340.529" y1="31" x2="340.529" y2="33.16" stroke-linecap="square" stroke-opacity="1" fill="none" fill-opacity="1"/><line x1="343" y1="31" x2="343" y2="33.16" stroke-linecap="square" stroke-opacity="1" fill="none" fill-opacity="1"/><line x1="359.256" y1="31" x2="359.256" y2="33.16" stroke-linecap="square" stroke-opacity="1" fill="none" fill-opacity="1"/><line x1="368.765" y1="31" x2="368.765" y2="33.16" stroke-linecap="square" stroke-opacity="1" fill="none" fill-opacity="1"/><line x1="375.511" y1="31" x2="375.511" y2="33.16" stroke-linecap="square" stroke-opacity="1" fill="none" fill-opacity="1"/><line x1="380.744" y1="31" x2="380.744" y2="33.16" stroke-linecap="square" stroke-opacity="1" fill="none" fill-opacity="1"/><line x1="385.02" y1="31" x2="385.02" y2="33.16" stroke-linecap="square" stroke-opacity="1" fill="none" fill-opacity="1"/><line x1="388.635" y1="31" x2="388.635" y2="33.16" stroke-linecap="square" stroke-opacity="1" fill="none" fill-opacity="1"/><line x1="391.767" y1="31" x2="391.767" y2="33.16" stroke-linecap="square" stroke-opacity="1" fill="none" fill-opacity="1"/><line x1="394.529" y1="31" x2="394.529" y2="33.16" stroke-linecap="square" stroke-opacity="1" fill="none" fill-opacity="1"/><line x1="397" y1="31" x2="397" y2="33.16" stroke-linecap="square" stroke-opacity="1" fill="none" fill-opacity="1"/><line x1="413.256" y1="31" x2="413.256" y2="33.16" stroke-linecap="square" stroke-opacity="1" fill="none" fill-opacity="1"/><line x1="422.765" y1="31" x2="422.765" y2="33.16" stroke-linecap="square" stroke-opacity="1" fill="none" fill-opacity="1"/><line x1="429.511" y1="31" x2="429.511" y2="33.16" stroke-linecap="square" stroke-opacity="1" fill="none" fill-opacity="1"/><line x1="434.744" y1="31" x2="434.744" y2="33.16" stroke-linecap="square" stroke-opacity="1" fill="none" fill-opacity="1"/><line x1="439.02" y1="31" x2="439.02" y2="33.16" stroke-linecap="square" stroke-opacity="1" fill="none" fill-opacity="1"/><line x1="442.635" y1="31" x2="442.635" y2="33.16" stroke-linecap="square" stroke-opacity="1" fill="none" fill-opacity="1"/><line x1="445.767" y1="31" x2="445.767" y2="33.16" stroke-linecap="square" stroke-opacity="1" fill="none" fill-opacity="1"/><line x1="448.529" y1="31" x2="448.529" y2="33.16" stroke-linecap="square" stroke-opacity="1" fill="none" fill-opacity="1"/><line x1="451" y1="31" x2="451" y2="33.16" stroke-linecap="square" stroke-opacity="1" fill="none" fill-opacity="1"/><line x1="467.256" y1="31" x2="467.256" y2="33.16" stroke-linecap="square" stroke-opacity="1" fill="none" fill-opacity="1"/><line x1="476.765" y1="31" x2="476.765" y2="33.16" stroke-linecap="square" stroke-opacity="1" fill="none" fill-opacity="1"/><line x1="483.511" y1="31" x2="483.511" y2="33.16" stroke-linecap="square" stroke-opacity="1" fill="none" fill-opacity="1"/><line x1="488.744" y1="31" x2="488.744" y2="33.16" stroke-linecap="square" stroke-opacity="1" fill="none" fill-opacity="1"/><line x1="493.02" y1="31" x2="493.02" y2="33.16" stroke-linecap="square" stroke-opacity="1" fill="none" fill-opacity="1"/><line x1="496.635" y1="31" x2="496.635" y2="33.16" stroke-linecap="square" stroke-opacity="1" fill="none" fill-opacity="1"/><line x1="499.767" y1="31" x2="499.767" y2="33.16" stroke-linecap="square" stroke-opacity="1" fill="none" fill-opacity="1"/><line x1="502.529" y1="31" x2="502.529" y2="33.16" stroke-linecap="square" stroke-opacity="1" fill="none" fill-opacity="1"/><line x1="505" y1="31" x2="505" y2="33.16" stroke-linecap="square" stroke-opacity="1" fill="none" fill-opacity="1"/></g><g stroke="#262626" fill="#262626" font-family="SansSerif" font-size="13.3333" transform="translate(61 390)"><text stroke="none" xml:space="preserve" x="0" y="0">10</text></g><g stroke="#262626" fill="#262626" font-family="SansSerif" font-size="10.6667" transform="translate(78 384)"><text stroke="none" xml:space="preserve" x="0" y="0">2</text></g><g stroke="#262626" fill="#262626" font-family="SansSerif" font-size="13.3333" transform="translate(169 390)"><text stroke="none" xml:space="preserve" x="0" y="0">10</text></g><g stroke="#262626" fill="#262626" font-family="SansSerif" font-size="10.6667" transform="translate(186 384)"><text stroke="none" xml:space="preserve" x="0" y="0">4</text></g><g stroke="#262626" fill="#262626" font-family="SansSerif" font-size="13.3333" transform="translate(277 390)"><text stroke="none" xml:space="preserve" x="0" y="0">10</text></g><g stroke="#262626" fill="#262626" font-family="SansSerif" font-size="10.6667" transform="translate(294 384)"><text stroke="none" xml:space="preserve" x="0" y="0">6</text></g><g stroke="#262626" fill="#262626" font-family="SansSerif" font-size="13.3333" transform="translate(385 390)"><text stroke="none" xml:space="preserve" x="0" y="0">10</text></g><g stroke="#262626" fill="#262626" font-family="SansSerif" font-size="10.6667" transform="translate(402 384)"><text stroke="none" xml:space="preserve" x="0" y="0">8</text></g><g stroke="#262626" fill="#262626" font-family="SansSerif" font-size="13.3333" transform="translate(489 390)"><text stroke="none" xml:space="preserve" x="0" y="0">10</text></g><g stroke="#262626" fill="#262626" font-family="SansSerif" font-size="10.6667" transform="translate(506 384)"><text stroke="none" xml:space="preserve" x="0" y="0">10</text></g><g stroke="#262626" fill="#262626" font-family="SansSerif" font-size="14.6667" transform="translate(289 395.667)"><text stroke="none" xml:space="preserve" x="-79" y="14">Offset frequency (Hz)</text></g><g stroke="#262626" stroke-width="0.6667" stroke-linejoin="round" fill="#262626"><line x1="73" y1="369" x2="73" y2="31" fill="none"/><line x1="505" y1="369" x2="505" y2="31" fill="none"/><line x1="73" y1="369" x2="77.32" y2="369" fill="none"/><line x1="73" y1="320.714" x2="77.32" y2="320.714" fill="none"/><line x1="73" y1="272.429" x2="77.32" y2="272.429" fill="none"/><line x1="73" y1="224.143" x2="77.32" y2="224.143" fill="none"/><line x1="73" y1="175.857" x2="77.32" y2="175.857" fill="none"/><line x1="73" y1="127.571" x2="77.32" y2="127.571" fill="none"/><line x1="73" y1="79.2857" x2="77.32" y2="79.2857" fill="none"/><line x1="73" y1="31" x2="77.32" y2="31" fill="none"/><line x1="505" y1="369" x2="500.68" y2="369" fill="none"/><line x1="505" y1="320.714" x2="500.68" y2="320.714" fill="none"/><line x1="505" y1="272.429" x2="500.68" y2="272.429" fill="none"/><line x1="505" y1="224.143" x2="500.68" y2="224.143" fill="none"/><line x1="505" y1="175.857" x2="500.68" y2="175.857" fill="none"/><line x1="505" y1="127.571" x2="500.68" y2="127.571" fill="none"/><line x1="505" y1="79.2857" x2="500.68" y2="79.2857" fill="none"/><line x1="505" y1="31" x2="500.68" y2="31" fill="none"/></g><g stroke="#262626" fill="#262626" font-family="SansSerif" font-size="13.3333" transform="translate(67.6667 369)"><text stroke="none" xml:space="preserve" x="-31" y="4.5">-160</text></g><g stroke="#262626" fill="#262626" font-family="SansSerif" font-size="13.3333" transform="translate(67.6667 320.714)"><text stroke="none" xml:space="preserve" x="-31" y="4.5">-140</text></g><g stroke="#262626" fill="#262626" font-family="SansSerif" font-size="13.3333" transform="translate(67.6667 272.429)"><text stroke="none" xml:space="preserve" x="-31" y="4.5">-120</text></g><g stroke="#262626" fill="#262626" font-family="SansSerif" font-size="13.3333" transform="translate(67.6667 224.143)"><text stroke="none" xml:space="preserve" x="-31" y="4.5">-100</text></g><g stroke="#262626" fill="#262626" font-family="SansSerif" font-size="13.3333" transform="translate(67.6667 175.857)"><text stroke="none" xml:space="preserve" x="-22" y="4.5">-80</text></g><g stroke="#262626" fill="#262626" font-family="SansSerif" font-size="13.3333" transform="translate(67.6667 127.571)"><text stroke="none" xml:space="preserve" x="-22" y="4.5">-60</text></g><g stroke="#262626" fill="#262626" font-family="SansSerif" font-size="13.3333" transform="translate(67.6667 79.2857)"><text stroke="none" xml:space="preserve" x="-22" y="4.5">-40</text></g><g stroke="#262626" fill="#262626" font-family="SansSerif" font-size="13.3333" transform="translate(67.6667 31)"><text stroke="none" xml:space="preserve" x="-22" y="4.5">-20</text></g><g stroke="#262626" fill="#262626" font-family="SansSerif" font-size="14.6667" transform="matrix(6.12323e-17 -1 1 6.12323e-17 32.6667 200)"><text stroke="none" xml:space="preserve" x="-78.5" y="-4">Phase Noise (dBc/Hz)</text></g><g stroke="#CCCCCC" stroke-width="4" stroke-linecap="butt" stroke-linejoin="bevel" stroke-miterlimit="1" stroke-dasharray="4 4" fill="#CCCCCC"><path d="M73 53.015 138.023 139.929 251.256 190.629 289 190.629 461.474 344.857 488.744 344.857" fill="none" fill-rule="evenodd"/><path d="M73 65.0864 138.023 152.001 251.256 202.701 289 202.701 461.474 356.929 488.744 356.929" fill="none" fill-rule="evenodd"/></g><g stroke="#D95319" stroke-width="2" stroke-linecap="butt" stroke-linejoin="round" fill="#D95319"><path d="M73 52.9689 74.08 54.4133 75.16 55.8573 76.24 57.3008 77.32 58.7439 78.4 60.1866 79.48 61.6286 80.56 63.07 81.64 64.5108 82.72 65.9508 83.8 67.39 84.88 68.8284 85.96 70.2658 87.04 71.7021 88.12 73.1374 89.2 74.5713 90.28 76.0039 91.36 77.435 92.44 78.8645 93.52 80.2922 94.6 81.718 95.68 83.1416 96.76 84.563 97.84 85.9818 98.92 87.3979 100 88.8109 101.08 90.2208 102.16 91.6271 103.24 93.0295 104.32 94.4278 105.4 95.8215 106.48 97.2102 107.56 98.5937 108.64 99.9713 109.72 101.343 110.8 102.707 111.88 104.065 112.96 105.414 114.04 106.755 115.12 108.087 116.2 109.409 117.28 110.721 118.36 112.022 119.44 113.31 120.52 114.587 121.6 115.849 122.68 117.098 123.76 118.331 124.84 119.549 125.92 120.75 127 121.934 128.08 123.1 129.16 124.246 130.24 125.374 131.32 126.481 132.4 127.568 133.48 128.634 134.56 129.678 135.64 130.7 136.72 131.7 137.8 132.678 138.88 133.633 139.96 134.566 141.04 135.477 142.12 136.365 143.2 137.232 144.28 138.077 145.36 138.902 146.44 139.706 147.52 140.49 148.6 141.255 149.68 142.002 150.76 142.73 151.84 143.442 152.92 144.137 154 144.817 155.08 145.482 156.16 146.133 157.24 146.77 158.32 147.395 159.4 148.009 160.48 148.611 161.56 149.203 162.64 149.785 163.72 150.358 164.8 150.923 165.88 151.479 166.96 152.028 168.04 152.57 169.12 153.106 170.2 153.635 171.28 154.159 172.36 154.677 173.44 155.191 174.52 155.699 175.6 156.204 176.68 156.704 177.76 157.2 178.84 157.692 179.92 158.181 181 158.667 182.08 159.149 183.16 159.629 184.24 160.105 185.32 160.579 186.4 161.05 187.48 161.519 188.56 161.985 189.64 162.448 190.72 162.909 191.8 163.368 192.88 163.824 193.96 164.278 195.04 164.729 196.12 165.178 197.2 165.625 198.28 166.07 199.36 166.512 200.44 166.951 201.52 167.389 202.6 167.823 203.68 168.255 204.76 168.685 205.84 169.112 206.92 169.537 208 169.958 209.08 170.377 210.16 170.794 211.24 171.207 212.32 171.617 213.4 172.025 214.48 172.429 215.56 172.83 216.64 173.228 217.72 173.622 218.8 174.014 219.88 174.401 220.96 174.786 222.04 175.166 223.12 175.543 224.2 175.917 225.28 176.286 226.36 176.652 227.44 177.014 228.52 177.372 229.6 177.726 230.68 178.076 231.76 178.422 232.84 178.764 233.92 179.102 235 179.436 236.08 179.765 237.16 180.091 238.24 180.412 239.32 180.73 240.4 181.044 241.48 181.353 242.56 181.659 243.64 181.961 244.72 182.259 245.8 182.554 246.88 182.846 247.96 183.134 249.04 183.419 250.12 183.702 251.2 183.982 252.28 184.259 253.36 184.535 254.44 184.809 255.52 185.081 256.6 185.353 257.68 185.624 258.76 185.896 259.84 186.167 260.92 186.44 262 186.714 263.08 186.99 264.16 187.268 265.24 187.55 266.32 187.837 267.4 188.128 268.48 188.424 269.56 188.727 270.64 189.037 271.72 189.355 272.8 189.682 273.88 190.018 274.96 190.366 276.04 190.724 277.12 191.096 278.2 191.48 279.28 191.878 280.36 192.291 281.44 192.72 282.52 193.165 283.6 193.627 284.68 194.107 285.76 194.605 286.84 195.12 287.92 195.655 289 196.209 290.08 196.782 291.16 197.374 292.24 197.985 293.32 198.616 294.4 199.265 295.48 199.932 296.56 200.618 297.64 201.321 298.72 202.041 299.8 202.778 300.88 203.531 301.96 204.298 303.04 205.081 304.12 205.877 305.2 206.687 306.28 207.509 307.36 208.342 308.44 209.187 309.52 210.042 310.6 210.907 311.68 211.78 312.76 212.662 313.84 213.552 314.92 214.449 316 215.352 317.08 216.262 318.16 217.177 319.24 218.098 320.32 219.023 321.4 219.952 322.48 220.885 323.56 221.822 324.64 222.763 325.72 223.706 326.8 224.652 327.88 225.6 328.96 226.551 330.04 227.504 331.12 228.458 332.2 229.414 333.28 230.372 334.36 231.331 335.44 232.291 336.52 233.252 337.6 234.214 338.68 235.177 339.76 236.141 340.84 237.105 341.92 238.07 343 239.035 344.08 240.001 345.16 240.967 346.24 241.934 347.32 242.9 348.4 243.867 349.48 244.835 350.56 245.802 351.64 246.77 352.72 247.737 353.8 248.705 354.88 249.673 355.96 250.641 357.04 251.609 358.12 252.577 359.2 253.544 360.28 254.512 361.36 255.48 362.44 256.448 363.52 257.416 364.6 258.384 365.68 259.352 366.76 260.319 367.84 261.287 368.92 262.254 370 263.222 371.08 264.189 372.16 265.156 373.24 266.124 374.32 267.091 375.4 268.057 376.48 269.024 377.56 269.991 378.64 270.958 379.72 271.924 380.8 272.89 381.88 273.857 382.96 274.823 384.04 275.789 385.12 276.754 386.2 277.72 387.28 278.685 388.36 279.65 389.44 280.615 390.52 281.58 391.6 282.544 392.68 283.508 393.76 284.472 394.84 285.436 395.92 286.399 397 287.362 398.08 288.324 399.16 289.286 400.24 290.248 401.32 291.209 402.4 292.169 403.48 293.129 404.56 294.088 405.64 295.047 406.72 296.005 407.8 296.961 408.88 297.918 409.96 298.872 411.04 299.826 412.12 300.779 413.2 301.73 414.28 302.68 415.36 303.629 416.44 304.575 417.52 305.52 418.6 306.463 419.68 307.404 420.76 308.342 421.84 309.277 422.92 310.21 424 311.14 425.08 312.066 426.16 312.989 427.24 313.907 428.32 314.822 429.4 315.731 430.48 316.636 431.56 317.535 432.64 318.428 433.72 319.314 434.8 320.194 435.88 321.065 436.96 321.929 438.04 322.784 439.12 323.63 440.2 324.466 441.28 325.291 442.36 326.104 443.44 326.906 444.52 327.694 445.6 328.469 446.68 329.229 447.76 329.974 448.84 330.703 449.92 331.414 451 332.109 452.08 332.784 453.16 333.441 454.24 334.079 455.32 334.695 456.4 335.292 457.48 335.867 458.56 336.42 459.64 336.952 460.72 337.461 461.8 337.948 462.88 338.413 463.96 338.856 465.04 339.277 466.12 339.676 467.2 340.053 468.28 340.41 469.36 340.746 470.44 341.063 471.52 341.36 472.6 341.638 473.68 341.899 474.76 342.143 475.84 342.37 476.92 342.581 478 342.778 479.08 342.961 480.16 343.13 481.24 343.287 482.32 343.432 483.4 343.566 484.48 343.69 485.56 343.804 486.64 343.91 487.72 344.007 488.8 344.096 489.88 344.178 490.96 344.254 492.04 344.323 493.12 344.386 494.2 344.445 495.28 344.498 496.36 344.547 497.44 344.592 498.52 344.633 499.6 344.671" fill="none" fill-rule="evenodd"/><path d="M73 65.0403 74.08 66.4847 75.16 67.9287 76.24 69.3723 77.32 70.8154 78.4 72.258 79.48 73.7 80.56 75.1414 81.64 76.5822 82.72 78.0222 83.8 79.4615 84.88 80.8998 85.96 82.3372 87.04 83.7736 88.12 85.2088 89.2 86.6427 90.28 88.0753 91.36 89.5064 92.44 90.9359 93.52 92.3636 94.6 93.7894 95.68 95.2131 96.76 96.6344 97.84 98.0532 98.92 99.4693 100 100.882 101.08 102.292 102.16 103.699 103.24 105.101 104.32 106.499 105.4 107.893 106.48 109.282 107.56 110.665 108.64 112.043 109.72 113.414 110.8 114.779 111.88 116.136 112.96 117.486 114.04 118.827 115.12 120.159 116.2 121.481 117.28 122.793 118.36 124.093 119.44 125.382 120.52 126.658 121.6 127.921 122.68 129.169 123.76 130.403 124.84 131.62 125.92 132.821 127 134.005 128.08 135.171 129.16 136.318 130.24 137.445 131.32 138.553 132.4 139.64 133.48 140.705 134.56 141.749 135.64 142.771 136.72 143.772 137.8 144.749 138.88 145.704 139.96 146.637 141.04 147.548 142.12 148.437 143.2 149.303 144.28 150.149 145.36 150.973 146.44 151.777 147.52 152.562 148.6 153.327 149.68 154.073 150.76 154.802 151.84 155.513 152.92 156.208 154 156.888 155.08 157.553 156.16 158.204 157.24 158.842 158.32 159.467 159.4 160.08 160.48 160.683 161.56 161.275 162.64 161.857 163.72 162.43 164.8 162.994 165.88 163.551 166.96 164.1 168.04 164.642 169.12 165.177 170.2 165.707 171.28 166.23 172.36 166.749 173.44 167.262 174.52 167.771 175.6 168.275 176.68 168.775 177.76 169.271 178.84 169.764 179.92 170.253 181 170.738 182.08 171.221 183.16 171.7 184.24 172.177 185.32 172.651 186.4 173.122 187.48 173.59 188.56 174.056 189.64 174.52 190.72 174.981 191.8 175.439 192.88 175.895 193.96 176.349 195.04 176.801 196.12 177.25 197.2 177.697 198.28 178.141 199.36 178.583 200.44 179.023 201.52 179.46 202.6 179.895 203.68 180.327 204.76 180.757 205.84 181.184 206.92 181.608 208 182.03 209.08 182.449 210.16 182.865 211.24 183.278 212.32 183.689 213.4 184.096 214.48 184.5 215.56 184.901 216.64 185.299 217.72 185.694 218.8 186.085 219.88 186.473 220.96 186.857 222.04 187.238 223.12 187.615 224.2 187.988 225.28 188.358 226.36 188.723 227.44 189.085 228.52 189.443 229.6 189.798 230.68 190.148 231.76 190.493 232.84 190.835 233.92 191.173 235 191.507 236.08 191.837 237.16 192.162 238.24 192.484 239.32 192.801 240.4 193.115 241.48 193.424 242.56 193.73 243.64 194.032 244.72 194.331 245.8 194.626 246.88 194.917 247.96 195.205 249.04 195.491 250.12 195.773 251.2 196.053 252.28 196.331 253.36 196.606 254.44 196.88 255.52 197.153 256.6 197.425 257.68 197.696 258.76 197.967 259.84 198.239 260.92 198.511 262 198.785 263.08 199.061 264.16 199.34 265.24 199.622 266.32 199.908 267.4 200.199 268.48 200.495 269.56 200.798 270.64 201.108 271.72 201.426 272.8 201.753 273.88 202.09 274.96 202.437 276.04 202.796 277.12 203.167 278.2 203.551 279.28 203.95 280.36 204.363 281.44 204.792 282.52 205.237 283.6 205.699 284.68 206.178 285.76 206.676 286.84 207.192 287.92 207.727 289 208.281 290.08 208.854 291.16 209.446 292.24 210.057 293.32 210.687 294.4 211.336 295.48 212.004 296.56 212.689 297.64 213.392 298.72 214.113 299.8 214.849 300.88 215.602 301.96 216.37 303.04 217.152 304.12 217.949 305.2 218.758 306.28 219.58 307.36 220.414 308.44 221.258 309.52 222.113 310.6 222.978 311.68 223.852 312.76 224.734 313.84 225.623 314.92 226.52 316 227.424 317.08 228.333 318.16 229.249 319.24 230.169 320.32 231.094 321.4 232.023 322.48 232.957 323.56 233.894 324.64 234.834 325.72 235.777 326.8 236.723 327.88 237.672 328.96 238.623 330.04 239.575 331.12 240.53 332.2 241.486 333.28 242.443 334.36 243.402 335.44 244.362 336.52 245.324 337.6 246.286 338.68 247.248 339.76 248.212 340.84 249.176 341.92 250.141 343 251.107 344.08 252.072 345.16 253.038 346.24 254.005 347.32 254.972 348.4 255.939 349.48 256.906 350.56 257.874 351.64 258.841 352.72 259.809 353.8 260.776 354.88 261.744 355.96 262.712 357.04 263.68 358.12 264.648 359.2 265.616 360.28 266.584 361.36 267.552 362.44 268.52 363.52 269.487 364.6 270.455 365.68 271.423 366.76 272.391 367.84 273.358 368.92 274.326 370 275.293 371.08 276.26 372.16 277.228 373.24 278.195 374.32 279.162 375.4 280.129 376.48 281.096 377.56 282.063 378.64 283.029 379.72 283.996 380.8 284.962 381.88 285.928 382.96 286.894 384.04 287.86 385.12 288.826 386.2 289.791 387.28 290.757 388.36 291.722 389.44 292.686 390.52 293.651 391.6 294.616 392.68 295.58 393.76 296.544 394.84 297.507 395.92 298.47 397 299.433 398.08 300.396 399.16 301.358 400.24 302.319 401.32 303.28 402.4 304.241 403.48 305.201 404.56 306.16 405.64 307.118 406.72 308.076 407.8 309.033 408.88 309.989 409.96 310.944 411.04 311.898 412.12 312.85 413.2 313.802 414.28 314.752 415.36 315.7 416.44 316.647 417.52 317.592 418.6 318.534 419.68 319.475 420.76 320.413 421.84 321.349 422.92 322.282 424 323.211 425.08 324.138 426.16 325.06 427.24 325.979 428.32 326.893 429.4 327.803 430.48 328.707 431.56 329.606 432.64 330.499 433.72 331.385 434.8 332.265 435.88 333.137 436.96 334.001 438.04 334.856 439.12 335.702 440.2 336.537 441.28 337.362 442.36 338.176 443.44 338.977 444.52 339.766 445.6 340.54 446.68 341.3 447.76 342.045 448.84 342.774 449.92 343.486 451 344.18 452.08 344.856 453.16 345.513 454.24 346.15 455.32 346.767 456.4 347.363 457.48 347.938 458.56 348.491 459.64 349.023 460.72 349.532 461.8 350.02 462.88 350.484 463.96 350.927 465.04 351.348 466.12 351.747 467.2 352.125 468.28 352.482 469.36 352.818 470.44 353.134 471.52 353.431 472.6 353.71 473.68 353.971 474.76 354.214 475.84 354.441 476.92 354.653 478 354.849 479.08 355.032 480.16 355.201 481.24 355.358 482.32 355.504 483.4 355.638 484.48 355.762 485.56 355.876 486.64 355.981 487.72 356.078 488.8 356.167 489.88 356.25 490.96 356.325 492.04 356.394 493.12 356.458 494.2 356.516 495.28 356.569 496.36 356.618 497.44 356.663 498.52 356.704 499.6 356.742" stroke="#0072BD" fill="none" fill-rule="evenodd"/></g></g></svg>