<?xml version="1.0"  encoding="UTF-8" standalone="no"?>
<svg version="1.1" xmlns="http://www.w3.org/2000/svg" xmlns:xlink="http://www.w3.org/1999/xlink" width="423.0000" height="380.0000">
<g transform="translate(-0.0000, -0.0000)">
<defs><clipPath id="clip-1804289383"><path d="M 0.0000,0.0000 L 746.0000,0.0000 L 746.0000,381.0000 L 0.0000,381.0000 L 0.0000,0.0000 Z Z" /></clipPath></defs>
<g transform="matrix(0.0625 0.0000 0.0000 0.0625 0.0000 0.0000)">
<path  clip-path="url(#clip-1804289383)" d="M 2119.0000,22.0000 L 1420.0000,22.0000 L 1071.0000,627.0000 L 1420.0000,1231.0000 L 2119.0000,1231.0000 L 2468.0000,627.0000 L 2119.0000,22.0000 Z" stroke="#000000" stroke-width="5.0000"  stroke-linecap="square"  stroke-linejoin="miter"  stroke-miterlimit="2.0000" fill="none" />
</g>
<g transform="matrix(1.0000 0.0000 0.0000 1.0000 0.0000 0.0000)">
</g>
<g transform="matrix(0.0625 0.0000 0.0000 0.0625 0.0000 0.0000)">
<path d="M 3168.0000,627.0000 L 2470.0000,627.0000 L 2121.0000,1231.0000 L 2470.0000,1836.0000 L 3168.0000,1836.0000 L 3517.0000,1231.0000 L 3168.0000,627.0000 Z" stroke="#000000" stroke-width="5.0000"  stroke-linecap="square"  stroke-linejoin="miter"  stroke-miterlimit="2.0000" fill="none" />
</g>
<g transform="matrix(1.0000 0.0000 0.0000 1.0000 0.0000 0.0000)">
</g>
<g transform="matrix(0.0625 0.0000 0.0000 0.0625 0.0000 0.0000)">
<path d="M 2119.0000,1231.0000 L 1420.0000,1231.0000 L 1071.0000,1836.0000 L 1420.0000,2441.0000 L 2119.0000,2441.0000 L 2468.0000,1836.0000 L 2119.0000,1231.0000 Z" stroke="#000000" stroke-width="5.0000"  stroke-linecap="square"  stroke-linejoin="miter"  stroke-miterlimit="2.0000" fill="none" />
</g>
<g transform="matrix(1.0000 0.0000 0.0000 1.0000 0.0000 0.0000)">
<defs><clipPath id="clip-846930886"><path d="M 0.0000,0.0000 L 746.0000,0.0000 L 746.0000,381.0000 L 0.0000,381.0000 L 0.0000,0.0000 Z Z" /></clipPath></defs>
</g>
<g transform="matrix(0.0625 0.0000 0.0000 0.0625 0.0000 0.0000)">
<path  clip-path="url(#clip-846930886)" d="M 4235.0000,22.0000 L 3537.0000,22.0000 L 3188.0000,627.0000 L 3537.0000,1231.0000 L 4235.0000,1231.0000 L 4584.0000,627.0000 L 4235.0000,22.0000 Z" stroke="#000000" stroke-width="5.0000"  stroke-linecap="square"  stroke-linejoin="miter"  stroke-miterlimit="2.0000" fill="none" />
</g>
<g transform="matrix(1.0000 0.0000 0.0000 1.0000 0.0000 0.0000)">
</g>
<g transform="matrix(0.0625 0.0000 0.0000 0.0625 0.0000 0.0000)">
<path d="M 5284.0000,627.0000 L 4586.0000,627.0000 L 4237.0000,1231.0000 L 4586.0000,1836.0000 L 5284.0000,1836.0000 L 5634.0000,1231.0000 L 5284.0000,627.0000 Z" stroke="#000000" stroke-width="5.0000"  stroke-linecap="square"  stroke-linejoin="miter"  stroke-miterlimit="2.0000" fill="none" />
</g>
<g transform="matrix(1.0000 0.0000 0.0000 1.0000 0.0000 0.0000)">
</g>
<g transform="matrix(0.0625 0.0000 0.0000 0.0625 0.0000 0.0000)">
<path d="M 4235.0000,1231.0000 L 3537.0000,1231.0000 L 3188.0000,1836.0000 L 3537.0000,2441.0000 L 4235.0000,2441.0000 L 4584.0000,1836.0000 L 4235.0000,1231.0000 Z" stroke="#000000" stroke-width="5.0000"  stroke-linecap="square"  stroke-linejoin="miter"  stroke-miterlimit="2.0000" fill="none" />
</g>
<g transform="matrix(1.0000 0.0000 0.0000 1.0000 0.0000 0.0000)">
</g>
<g transform="matrix(0.0625 0.0000 0.0000 0.0625 0.0000 0.0000)">
<path d="M 2270.0000,1432.0000 L 2119.0000,1028.0000 L 1970.0000,1432.0000 L 1993.0000,1432.0000 L 2000.0000,1412.0000 L 2119.0000,1345.0000 L 2237.0000,1408.0000 L 2245.0000,1432.0000 L 2270.0000,1432.0000 Z M 2119.0000,1219.0000 L 2187.0000,1282.0000 L 2119.0000,1320.0000 L 2052.0000,1283.0000 L 2119.0000,1219.0000 Z M 2064.0000,1241.0000 L 2084.0000,1186.0000 L 2103.0000,1204.0000 L 2064.0000,1241.0000 Z M 2135.0000,1203.0000 L 2154.0000,1185.0000 L 2174.0000,1240.0000 L 2135.0000,1203.0000 Z M 2145.0000,1163.0000 L 2119.0000,1188.0000 L 2092.0000,1164.0000 L 2119.0000,1092.0000 L 2145.0000,1163.0000 Z M 2012.0000,1380.0000 L 2041.0000,1302.0000 L 2096.0000,1333.0000 L 2012.0000,1380.0000 Z M 2142.0000,1332.0000 L 2197.0000,1301.0000 L 2225.0000,1378.0000 L 2142.0000,1332.0000 Z "  fill="#264379" stroke-width="1px" stroke="#264379" />
</g>
<g transform="matrix(1.0000 0.0000 0.0000 1.0000 0.0000 0.0000)">
</g>
<g transform="matrix(0.0625 0.0000 0.0000 0.0625 0.0000 0.0000)">
<path d="M 2270.0000,1432.0000 L 2119.0000,1028.0000 L 1970.0000,1432.0000 L 1993.0000,1432.0000 L 2000.0000,1412.0000 L 2119.0000,1345.0000 L 2237.0000,1408.0000 L 2245.0000,1432.0000 L 2270.0000,1432.0000 Z" stroke="#4672C4" stroke-width="5.0000"  stroke-linecap="square"  stroke-linejoin="miter"  stroke-miterlimit="2.0000" fill="none" />
<path d="M 2119.0000,1219.0000 L 2187.0000,1282.0000 L 2119.0000,1320.0000 L 2052.0000,1283.0000 L 2119.0000,1219.0000 " stroke="#4672C4" stroke-width="5.0000"  stroke-linecap="square"  stroke-linejoin="miter"  stroke-miterlimit="2.0000" fill="none" />
<path d="M 2064.0000,1241.0000 L 2084.0000,1186.0000 L 2103.0000,1204.0000 L 2064.0000,1241.0000 " stroke="#4672C4" stroke-width="5.0000"  stroke-linecap="square"  stroke-linejoin="miter"  stroke-miterlimit="2.0000" fill="none" />
<path d="M 2135.0000,1203.0000 L 2154.0000,1185.0000 L 2174.0000,1240.0000 L 2135.0000,1203.0000 " stroke="#4672C4" stroke-width="5.0000"  stroke-linecap="square"  stroke-linejoin="miter"  stroke-miterlimit="2.0000" fill="none" />
<path d="M 2145.0000,1163.0000 L 2119.0000,1188.0000 L 2092.0000,1164.0000 L 2119.0000,1092.0000 L 2145.0000,1163.0000 " stroke="#4672C4" stroke-width="5.0000"  stroke-linecap="square"  stroke-linejoin="miter"  stroke-miterlimit="2.0000" fill="none" />
<path d="M 2012.0000,1380.0000 L 2041.0000,1302.0000 L 2096.0000,1333.0000 L 2012.0000,1380.0000 " stroke="#4672C4" stroke-width="5.0000"  stroke-linecap="square"  stroke-linejoin="miter"  stroke-miterlimit="2.0000" fill="none" />
<path d="M 2142.0000,1332.0000 L 2197.0000,1301.0000 L 2225.0000,1378.0000 L 2142.0000,1332.0000 " stroke="#4672C4" stroke-width="5.0000"  stroke-linecap="square"  stroke-linejoin="miter"  stroke-miterlimit="2.0000" fill="none" />
</g>
<g transform="matrix(1.0000 0.0000 0.0000 1.0000 0.0000 0.0000)">
</g>
<g transform="matrix(0.0625 0.0000 0.0000 0.0625 0.0000 0.0000)">
<path d="M 2215.0000,987.0000 C 2215.0000,1021.0000 2197.0000,1051.0000 2171.0000,1068.0000 L 2179.0000,1085.0000 C 2211.0000,1064.0000 2233.0000,1028.0000 2233.0000,987.0000 C 2233.0000,987.0000 2233.0000,986.0000 2233.0000,986.0000 C 2233.0000,986.0000 2233.0000,986.0000 2233.0000,986.0000 C 2233.0000,945.0000 2211.0000,908.0000 2179.0000,888.0000 L 2171.0000,904.0000 C 2197.0000,922.0000 2215.0000,952.0000 2215.0000,986.0000 C 2215.0000,986.0000 2215.0000,986.0000 2215.0000,986.0000 L 2215.0000,986.0000 C 2215.0000,986.0000 2215.0000,986.0000 2215.0000,986.0000 C 2215.0000,986.0000 2215.0000,986.0000 2215.0000,986.0000 L 2215.0000,986.0000 C 2215.0000,987.0000 2215.0000,987.0000 2215.0000,987.0000 Z M 2154.0000,949.0000 C 2164.0000,959.0000 2170.0000,972.0000 2170.0000,987.0000 C 2170.0000,1002.0000 2164.0000,1015.0000 2154.0000,1024.0000 L 2162.0000,1041.0000 C 2178.0000,1029.0000 2188.0000,1009.0000 2188.0000,987.0000 L 2188.0000,987.0000 C 2188.0000,987.0000 2188.0000,987.0000 2188.0000,987.0000 C 2188.0000,987.0000 2188.0000,987.0000 2188.0000,987.0000 C 2188.0000,987.0000 2188.0000,987.0000 2188.0000,987.0000 C 2188.0000,987.0000 2188.0000,986.0000 2188.0000,986.0000 L 2188.0000,986.0000 C 2188.0000,964.0000 2178.0000,945.0000 2162.0000,932.0000 L 2154.0000,949.0000 Z M 2015.0000,987.0000 C 2015.0000,987.0000 2015.0000,987.0000 2015.0000,986.0000 L 2015.0000,986.0000 C 2015.0000,986.0000 2015.0000,986.0000 2015.0000,986.0000 C 2015.0000,952.0000 2033.0000,922.0000 2059.0000,904.0000 L 2052.0000,888.0000 C 2019.0000,908.0000 1997.0000,945.0000 1997.0000,986.0000 C 1997.0000,986.0000 1997.0000,986.0000 1997.0000,986.0000 C 1997.0000,986.0000 1997.0000,987.0000 1997.0000,987.0000 C 1997.0000,1028.0000 2019.0000,1064.0000 2052.0000,1085.0000 L 2059.0000,1068.0000 C 2033.0000,1051.0000 2015.0000,1021.0000 2015.0000,987.0000 Z M 2078.0000,949.0000 L 2070.0000,932.0000 C 2054.0000,945.0000 2044.0000,964.0000 2044.0000,986.0000 L 2044.0000,986.0000 C 2044.0000,986.0000 2044.0000,987.0000 2044.0000,987.0000 C 2044.0000,987.0000 2044.0000,987.0000 2044.0000,987.0000 C 2044.0000,987.0000 2044.0000,987.0000 2044.0000,987.0000 C 2044.0000,987.0000 2044.0000,987.0000 2044.0000,987.0000 L 2044.0000,987.0000 C 2044.0000,1009.0000 2054.0000,1029.0000 2070.0000,1041.0000 L 2078.0000,1024.0000 C 2068.0000,1015.0000 2062.0000,1002.0000 2062.0000,987.0000 C 2062.0000,972.0000 2068.0000,959.0000 2078.0000,949.0000 Z M 2135.0000,987.0000 C 2135.0000,977.0000 2127.0000,969.0000 2116.0000,969.0000 C 2106.0000,969.0000 2098.0000,977.0000 2098.0000,987.0000 C 2098.0000,997.0000 2106.0000,1005.0000 2116.0000,1005.0000 C 2127.0000,1005.0000 2135.0000,997.0000 2135.0000,987.0000 Z "  fill="#96AFDE" stroke="none" />
</g>
<g transform="matrix(1.0000 0.0000 0.0000 1.0000 0.0000 0.0000)">
</g>
<g transform="matrix(0.0625 0.0000 0.0000 0.0625 0.0000 0.0000)">
<path d="M 2215.0000,987.0000 C 2215.0000,1021.0000 2197.0000,1051.0000 2171.0000,1068.0000 L 2179.0000,1085.0000 C 2211.0000,1064.0000 2233.0000,1028.0000 2233.0000,987.0000 C 2233.0000,987.0000 2233.0000,986.0000 2233.0000,986.0000 C 2233.0000,986.0000 2233.0000,986.0000 2233.0000,986.0000 C 2233.0000,945.0000 2211.0000,908.0000 2179.0000,888.0000 L 2171.0000,904.0000 C 2197.0000,922.0000 2215.0000,952.0000 2215.0000,986.0000 C 2215.0000,986.0000 2215.0000,986.0000 2215.0000,986.0000 L 2215.0000,986.0000 C 2215.0000,986.0000 2215.0000,986.0000 2215.0000,986.0000 C 2215.0000,986.0000 2215.0000,986.0000 2215.0000,986.0000 L 2215.0000,986.0000 C 2215.0000,987.0000 2215.0000,987.0000 2215.0000,987.0000 Z M 2154.0000,949.0000 C 2164.0000,959.0000 2170.0000,972.0000 2170.0000,987.0000 C 2170.0000,1002.0000 2164.0000,1015.0000 2154.0000,1024.0000 L 2162.0000,1041.0000 C 2178.0000,1029.0000 2188.0000,1009.0000 2188.0000,987.0000 L 2188.0000,987.0000 C 2188.0000,987.0000 2188.0000,987.0000 2188.0000,987.0000 C 2188.0000,987.0000 2188.0000,987.0000 2188.0000,987.0000 C 2188.0000,987.0000 2188.0000,987.0000 2188.0000,987.0000 C 2188.0000,987.0000 2188.0000,986.0000 2188.0000,986.0000 L 2188.0000,986.0000 C 2188.0000,964.0000 2178.0000,945.0000 2162.0000,932.0000 L 2154.0000,949.0000 Z M 2015.0000,987.0000 C 2015.0000,987.0000 2015.0000,987.0000 2015.0000,986.0000 L 2015.0000,986.0000 C 2015.0000,986.0000 2015.0000,986.0000 2015.0000,986.0000 C 2015.0000,952.0000 2033.0000,922.0000 2059.0000,904.0000 L 2052.0000,888.0000 C 2019.0000,908.0000 1997.0000,945.0000 1997.0000,986.0000 C 1997.0000,986.0000 1997.0000,986.0000 1997.0000,986.0000 C 1997.0000,986.0000 1997.0000,987.0000 1997.0000,987.0000 C 1997.0000,1028.0000 2019.0000,1064.0000 2052.0000,1085.0000 L 2059.0000,1068.0000 C 2033.0000,1051.0000 2015.0000,1021.0000 2015.0000,987.0000 Z M 2078.0000,949.0000 L 2070.0000,932.0000 C 2054.0000,945.0000 2044.0000,964.0000 2044.0000,986.0000 L 2044.0000,986.0000 C 2044.0000,986.0000 2044.0000,987.0000 2044.0000,987.0000 C 2044.0000,987.0000 2044.0000,987.0000 2044.0000,987.0000 C 2044.0000,987.0000 2044.0000,987.0000 2044.0000,987.0000 C 2044.0000,987.0000 2044.0000,987.0000 2044.0000,987.0000 L 2044.0000,987.0000 C 2044.0000,1009.0000 2054.0000,1029.0000 2070.0000,1041.0000 L 2078.0000,1024.0000 C 2068.0000,1015.0000 2062.0000,1002.0000 2062.0000,987.0000 C 2062.0000,972.0000 2068.0000,959.0000 2078.0000,949.0000 Z M 2135.0000,987.0000 C 2135.0000,977.0000 2127.0000,969.0000 2116.0000,969.0000 C 2106.0000,969.0000 2098.0000,977.0000 2098.0000,987.0000 C 2098.0000,997.0000 2106.0000,1005.0000 2116.0000,1005.0000 C 2127.0000,1005.0000 2135.0000,997.0000 2135.0000,987.0000 Z " stroke="#4672C4" stroke-width="5.0000"  stroke-linecap="square"  stroke-linejoin="miter"  stroke-miterlimit="2.0000" fill="none" />
</g>
<g transform="matrix(1.0000 0.0000 0.0000 1.0000 0.0000 0.0000)">
</g>
<g transform="matrix(0.0625 0.0000 0.0000 0.0625 0.0000 0.0000)">
<path d="M 4387.0000,1432.0000 L 4236.0000,1028.0000 L 4086.0000,1432.0000 L 4109.0000,1432.0000 L 4117.0000,1412.0000 L 4236.0000,1345.0000 L 4353.0000,1408.0000 L 4362.0000,1432.0000 L 4387.0000,1432.0000 Z M 4235.0000,1219.0000 L 4303.0000,1282.0000 L 4235.0000,1320.0000 L 4168.0000,1283.0000 L 4235.0000,1219.0000 Z M 4180.0000,1241.0000 L 4200.0000,1186.0000 L 4219.0000,1204.0000 L 4180.0000,1241.0000 Z M 4251.0000,1203.0000 L 4270.0000,1185.0000 L 4290.0000,1240.0000 L 4251.0000,1203.0000 Z M 4262.0000,1163.0000 L 4235.0000,1188.0000 L 4209.0000,1164.0000 L 4236.0000,1092.0000 L 4262.0000,1163.0000 Z M 4128.0000,1380.0000 L 4157.0000,1302.0000 L 4213.0000,1333.0000 L 4128.0000,1380.0000 Z M 4258.0000,1332.0000 L 4313.0000,1301.0000 L 4342.0000,1378.0000 L 4258.0000,1332.0000 Z "  fill="#264379" stroke-width="1px" stroke="#264379" />
</g>
<g transform="matrix(1.0000 0.0000 0.0000 1.0000 0.0000 0.0000)">
</g>
<g transform="matrix(0.0625 0.0000 0.0000 0.0625 0.0000 0.0000)">
<path d="M 4387.0000,1432.0000 L 4236.0000,1028.0000 L 4086.0000,1432.0000 L 4109.0000,1432.0000 L 4117.0000,1412.0000 L 4236.0000,1345.0000 L 4353.0000,1408.0000 L 4362.0000,1432.0000 L 4387.0000,1432.0000 Z" stroke="#4672C4" stroke-width="5.0000"  stroke-linecap="square"  stroke-linejoin="miter"  stroke-miterlimit="2.0000" fill="none" />
<path d="M 4235.0000,1219.0000 L 4303.0000,1282.0000 L 4235.0000,1320.0000 L 4168.0000,1283.0000 L 4235.0000,1219.0000 " stroke="#4672C4" stroke-width="5.0000"  stroke-linecap="square"  stroke-linejoin="miter"  stroke-miterlimit="2.0000" fill="none" />
<path d="M 4180.0000,1241.0000 L 4200.0000,1186.0000 L 4219.0000,1204.0000 L 4180.0000,1241.0000 " stroke="#4672C4" stroke-width="5.0000"  stroke-linecap="square"  stroke-linejoin="miter"  stroke-miterlimit="2.0000" fill="none" />
<path d="M 4251.0000,1203.0000 L 4270.0000,1185.0000 L 4290.0000,1240.0000 L 4251.0000,1203.0000 " stroke="#4672C4" stroke-width="5.0000"  stroke-linecap="square"  stroke-linejoin="miter"  stroke-miterlimit="2.0000" fill="none" />
<path d="M 4262.0000,1163.0000 L 4235.0000,1188.0000 L 4209.0000,1164.0000 L 4236.0000,1092.0000 L 4262.0000,1163.0000 " stroke="#4672C4" stroke-width="5.0000"  stroke-linecap="square"  stroke-linejoin="miter"  stroke-miterlimit="2.0000" fill="none" />
<path d="M 4128.0000,1380.0000 L 4157.0000,1302.0000 L 4213.0000,1333.0000 L 4128.0000,1380.0000 " stroke="#4672C4" stroke-width="5.0000"  stroke-linecap="square"  stroke-linejoin="miter"  stroke-miterlimit="2.0000" fill="none" />
<path d="M 4258.0000,1332.0000 L 4313.0000,1301.0000 L 4342.0000,1378.0000 L 4258.0000,1332.0000 " stroke="#4672C4" stroke-width="5.0000"  stroke-linecap="square"  stroke-linejoin="miter"  stroke-miterlimit="2.0000" fill="none" />
</g>
<g transform="matrix(1.0000 0.0000 0.0000 1.0000 0.0000 0.0000)">
</g>
<g transform="matrix(0.0625 0.0000 0.0000 0.0625 0.0000 0.0000)">
<path d="M 4332.0000,987.0000 C 4332.0000,1021.0000 4314.0000,1051.0000 4287.0000,1068.0000 L 4295.0000,1085.0000 C 4328.0000,1064.0000 4350.0000,1028.0000 4350.0000,987.0000 C 4350.0000,987.0000 4350.0000,986.0000 4350.0000,986.0000 C 4350.0000,986.0000 4350.0000,986.0000 4350.0000,986.0000 C 4350.0000,945.0000 4328.0000,908.0000 4295.0000,888.0000 L 4287.0000,904.0000 C 4314.0000,922.0000 4332.0000,952.0000 4332.0000,986.0000 C 4332.0000,986.0000 4332.0000,986.0000 4332.0000,986.0000 L 4332.0000,986.0000 C 4332.0000,986.0000 4332.0000,986.0000 4332.0000,986.0000 C 4332.0000,986.0000 4332.0000,986.0000 4332.0000,986.0000 L 4332.0000,986.0000 C 4332.0000,987.0000 4332.0000,987.0000 4332.0000,987.0000 Z M 4270.0000,949.0000 C 4280.0000,959.0000 4287.0000,972.0000 4287.0000,987.0000 C 4287.0000,1002.0000 4280.0000,1015.0000 4270.0000,1024.0000 L 4278.0000,1041.0000 C 4294.0000,1029.0000 4305.0000,1009.0000 4305.0000,987.0000 L 4305.0000,987.0000 C 4305.0000,987.0000 4305.0000,987.0000 4305.0000,987.0000 C 4305.0000,987.0000 4305.0000,987.0000 4305.0000,987.0000 C 4305.0000,987.0000 4305.0000,987.0000 4305.0000,987.0000 C 4305.0000,987.0000 4305.0000,986.0000 4305.0000,986.0000 L 4305.0000,986.0000 C 4305.0000,964.0000 4294.0000,945.0000 4278.0000,932.0000 L 4270.0000,949.0000 Z M 4132.0000,987.0000 C 4132.0000,987.0000 4132.0000,987.0000 4132.0000,986.0000 L 4132.0000,986.0000 C 4132.0000,986.0000 4132.0000,986.0000 4132.0000,986.0000 C 4132.0000,952.0000 4149.0000,922.0000 4176.0000,904.0000 L 4168.0000,888.0000 C 4135.0000,908.0000 4114.0000,945.0000 4114.0000,986.0000 C 4114.0000,986.0000 4114.0000,986.0000 4114.0000,986.0000 C 4114.0000,986.0000 4114.0000,987.0000 4114.0000,987.0000 C 4114.0000,1028.0000 4135.0000,1064.0000 4168.0000,1085.0000 L 4176.0000,1068.0000 C 4149.0000,1051.0000 4132.0000,1021.0000 4132.0000,987.0000 Z M 4195.0000,949.0000 L 4187.0000,932.0000 C 4171.0000,945.0000 4160.0000,964.0000 4160.0000,986.0000 L 4160.0000,986.0000 C 4160.0000,986.0000 4160.0000,987.0000 4160.0000,987.0000 C 4160.0000,987.0000 4160.0000,987.0000 4160.0000,987.0000 C 4160.0000,987.0000 4160.0000,987.0000 4160.0000,987.0000 C 4160.0000,987.0000 4160.0000,987.0000 4160.0000,987.0000 L 4160.0000,987.0000 C 4160.0000,1009.0000 4171.0000,1029.0000 4187.0000,1041.0000 L 4195.0000,1024.0000 C 4185.0000,1015.0000 4178.0000,1002.0000 4178.0000,987.0000 C 4178.0000,972.0000 4185.0000,959.0000 4195.0000,949.0000 Z M 4251.0000,987.0000 C 4251.0000,977.0000 4243.0000,969.0000 4233.0000,969.0000 C 4223.0000,969.0000 4215.0000,977.0000 4215.0000,987.0000 C 4215.0000,997.0000 4223.0000,1005.0000 4233.0000,1005.0000 C 4243.0000,1005.0000 4251.0000,997.0000 4251.0000,987.0000 Z "  fill="#96AFDE" stroke="none" />
</g>
<g transform="matrix(1.0000 0.0000 0.0000 1.0000 0.0000 0.0000)">
</g>
<g transform="matrix(0.0625 0.0000 0.0000 0.0625 0.0000 0.0000)">
<path d="M 4332.0000,987.0000 C 4332.0000,1021.0000 4314.0000,1051.0000 4287.0000,1068.0000 L 4295.0000,1085.0000 C 4328.0000,1064.0000 4350.0000,1028.0000 4350.0000,987.0000 C 4350.0000,987.0000 4350.0000,986.0000 4350.0000,986.0000 C 4350.0000,986.0000 4350.0000,986.0000 4350.0000,986.0000 C 4350.0000,945.0000 4328.0000,908.0000 4295.0000,888.0000 L 4287.0000,904.0000 C 4314.0000,922.0000 4332.0000,952.0000 4332.0000,986.0000 C 4332.0000,986.0000 4332.0000,986.0000 4332.0000,986.0000 L 4332.0000,986.0000 C 4332.0000,986.0000 4332.0000,986.0000 4332.0000,986.0000 C 4332.0000,986.0000 4332.0000,986.0000 4332.0000,986.0000 L 4332.0000,986.0000 C 4332.0000,987.0000 4332.0000,987.0000 4332.0000,987.0000 Z M 4270.0000,949.0000 C 4280.0000,959.0000 4287.0000,972.0000 4287.0000,987.0000 C 4287.0000,1002.0000 4280.0000,1015.0000 4270.0000,1024.0000 L 4278.0000,1041.0000 C 4294.0000,1029.0000 4305.0000,1009.0000 4305.0000,987.0000 L 4305.0000,987.0000 C 4305.0000,987.0000 4305.0000,987.0000 4305.0000,987.0000 C 4305.0000,987.0000 4305.0000,987.0000 4305.0000,987.0000 C 4305.0000,987.0000 4305.0000,987.0000 4305.0000,987.0000 C 4305.0000,987.0000 4305.0000,986.0000 4305.0000,986.0000 L 4305.0000,986.0000 C 4305.0000,964.0000 4294.0000,945.0000 4278.0000,932.0000 L 4270.0000,949.0000 Z M 4132.0000,987.0000 C 4132.0000,987.0000 4132.0000,987.0000 4132.0000,986.0000 L 4132.0000,986.0000 C 4132.0000,986.0000 4132.0000,986.0000 4132.0000,986.0000 C 4132.0000,952.0000 4149.0000,922.0000 4176.0000,904.0000 L 4168.0000,888.0000 C 4135.0000,908.0000 4114.0000,945.0000 4114.0000,986.0000 C 4114.0000,986.0000 4114.0000,986.0000 4114.0000,986.0000 C 4114.0000,986.0000 4114.0000,987.0000 4114.0000,987.0000 C 4114.0000,1028.0000 4135.0000,1064.0000 4168.0000,1085.0000 L 4176.0000,1068.0000 C 4149.0000,1051.0000 4132.0000,1021.0000 4132.0000,987.0000 Z M 4195.0000,949.0000 L 4187.0000,932.0000 C 4171.0000,945.0000 4160.0000,964.0000 4160.0000,986.0000 L 4160.0000,986.0000 C 4160.0000,986.0000 4160.0000,987.0000 4160.0000,987.0000 C 4160.0000,987.0000 4160.0000,987.0000 4160.0000,987.0000 C 4160.0000,987.0000 4160.0000,987.0000 4160.0000,987.0000 C 4160.0000,987.0000 4160.0000,987.0000 4160.0000,987.0000 L 4160.0000,987.0000 C 4160.0000,1009.0000 4171.0000,1029.0000 4187.0000,1041.0000 L 4195.0000,1024.0000 C 4185.0000,1015.0000 4178.0000,1002.0000 4178.0000,987.0000 C 4178.0000,972.0000 4185.0000,959.0000 4195.0000,949.0000 Z M 4251.0000,987.0000 C 4251.0000,977.0000 4243.0000,969.0000 4233.0000,969.0000 C 4223.0000,969.0000 4215.0000,977.0000 4215.0000,987.0000 C 4215.0000,997.0000 4223.0000,1005.0000 4233.0000,1005.0000 C 4243.0000,1005.0000 4251.0000,997.0000 4251.0000,987.0000 Z " stroke="#4672C4" stroke-width="5.0000"  stroke-linecap="square"  stroke-linejoin="miter"  stroke-miterlimit="2.0000" fill="none" />
</g>
<g transform="matrix(1.0000 0.0000 0.0000 1.0000 0.0000 0.0000)">
</g>
<g transform="matrix(0.0625 0.0000 0.0000 0.0625 0.0000 0.0000)">
<path d="M 3186.0000,1836.0000 L 2487.0000,1836.0000 L 2138.0000,2441.0000 L 2487.0000,3045.0000 L 3186.0000,3045.0000 L 3535.0000,2441.0000 L 3186.0000,1836.0000 Z" stroke="#000000" stroke-width="5.0000"  stroke-linecap="square"  stroke-linejoin="miter"  stroke-miterlimit="2.0000" fill="none" />
</g>
<g transform="matrix(1.0000 0.0000 0.0000 1.0000 0.0000 0.0000)">
</g>
<g transform="matrix(0.0625 0.0000 0.0000 0.0625 0.0000 0.0000)">
<path d="M 4235.0000,2441.0000 L 3537.0000,2441.0000 L 3188.0000,3045.0000 L 3537.0000,3650.0000 L 4235.0000,3650.0000 L 4584.0000,3045.0000 L 4235.0000,2441.0000 Z" stroke="#000000" stroke-width="5.0000"  stroke-linecap="square"  stroke-linejoin="miter"  stroke-miterlimit="2.0000" fill="none" />
</g>
<g transform="matrix(1.0000 0.0000 0.0000 1.0000 0.0000 0.0000)">
</g>
<g transform="matrix(0.0625 0.0000 0.0000 0.0625 0.0000 0.0000)">
<path d="M 3186.0000,3045.0000 L 2487.0000,3045.0000 L 2138.0000,3650.0000 L 2487.0000,4255.0000 L 3186.0000,4255.0000 L 3535.0000,3650.0000 L 3186.0000,3045.0000 Z" stroke="#000000" stroke-width="5.0000"  stroke-linecap="square"  stroke-linejoin="miter"  stroke-miterlimit="2.0000" fill="none" />
</g>
<g transform="matrix(1.0000 0.0000 0.0000 1.0000 0.0000 0.0000)">
</g>
<g transform="matrix(0.0625 0.0000 0.0000 0.0625 0.0000 0.0000)">
<path d="M 3337.0000,3246.0000 L 3186.0000,2842.0000 L 3037.0000,3246.0000 L 3060.0000,3246.0000 L 3067.0000,3226.0000 L 3186.0000,3159.0000 L 3304.0000,3223.0000 L 3312.0000,3246.0000 L 3337.0000,3246.0000 Z M 3186.0000,3033.0000 L 3254.0000,3096.0000 L 3186.0000,3134.0000 L 3119.0000,3097.0000 L 3186.0000,3033.0000 Z M 3131.0000,3055.0000 L 3151.0000,3001.0000 L 3170.0000,3018.0000 L 3131.0000,3055.0000 Z M 3202.0000,3018.0000 L 3221.0000,2999.0000 L 3241.0000,3054.0000 L 3202.0000,3018.0000 Z M 3213.0000,2977.0000 L 3186.0000,3003.0000 L 3159.0000,2978.0000 L 3186.0000,2906.0000 L 3213.0000,2977.0000 Z M 3079.0000,3194.0000 L 3108.0000,3116.0000 L 3163.0000,3147.0000 L 3079.0000,3194.0000 Z M 3209.0000,3147.0000 L 3264.0000,3115.0000 L 3293.0000,3193.0000 L 3209.0000,3147.0000 Z "  fill="#264379" stroke-width="1px" stroke="#264379" />
</g>
<g transform="matrix(1.0000 0.0000 0.0000 1.0000 0.0000 0.0000)">
</g>
<g transform="matrix(0.0625 0.0000 0.0000 0.0625 0.0000 0.0000)">
<path d="M 3337.0000,3246.0000 L 3186.0000,2842.0000 L 3037.0000,3246.0000 L 3060.0000,3246.0000 L 3067.0000,3226.0000 L 3186.0000,3159.0000 L 3304.0000,3223.0000 L 3312.0000,3246.0000 L 3337.0000,3246.0000 Z" stroke="#4672C4" stroke-width="5.0000"  stroke-linecap="square"  stroke-linejoin="miter"  stroke-miterlimit="2.0000" fill="none" />
<path d="M 3186.0000,3033.0000 L 3254.0000,3096.0000 L 3186.0000,3134.0000 L 3119.0000,3097.0000 L 3186.0000,3033.0000 " stroke="#4672C4" stroke-width="5.0000"  stroke-linecap="square"  stroke-linejoin="miter"  stroke-miterlimit="2.0000" fill="none" />
<path d="M 3131.0000,3055.0000 L 3151.0000,3001.0000 L 3170.0000,3018.0000 L 3131.0000,3055.0000 " stroke="#4672C4" stroke-width="5.0000"  stroke-linecap="square"  stroke-linejoin="miter"  stroke-miterlimit="2.0000" fill="none" />
<path d="M 3202.0000,3018.0000 L 3221.0000,2999.0000 L 3241.0000,3054.0000 L 3202.0000,3018.0000 " stroke="#4672C4" stroke-width="5.0000"  stroke-linecap="square"  stroke-linejoin="miter"  stroke-miterlimit="2.0000" fill="none" />
<path d="M 3213.0000,2977.0000 L 3186.0000,3003.0000 L 3159.0000,2978.0000 L 3186.0000,2906.0000 L 3213.0000,2977.0000 " stroke="#4672C4" stroke-width="5.0000"  stroke-linecap="square"  stroke-linejoin="miter"  stroke-miterlimit="2.0000" fill="none" />
<path d="M 3079.0000,3194.0000 L 3108.0000,3116.0000 L 3163.0000,3147.0000 L 3079.0000,3194.0000 " stroke="#4672C4" stroke-width="5.0000"  stroke-linecap="square"  stroke-linejoin="miter"  stroke-miterlimit="2.0000" fill="none" />
<path d="M 3209.0000,3147.0000 L 3264.0000,3115.0000 L 3293.0000,3193.0000 L 3209.0000,3147.0000 " stroke="#4672C4" stroke-width="5.0000"  stroke-linecap="square"  stroke-linejoin="miter"  stroke-miterlimit="2.0000" fill="none" />
</g>
<g transform="matrix(1.0000 0.0000 0.0000 1.0000 0.0000 0.0000)">
</g>
<g transform="matrix(0.0625 0.0000 0.0000 0.0625 0.0000 0.0000)">
<path d="M 3282.0000,2801.0000 C 3282.0000,2835.0000 3265.0000,2865.0000 3238.0000,2883.0000 L 3246.0000,2899.0000 C 3279.0000,2878.0000 3300.0000,2842.0000 3300.0000,2801.0000 C 3300.0000,2801.0000 3300.0000,2801.0000 3300.0000,2801.0000 C 3300.0000,2800.0000 3300.0000,2800.0000 3300.0000,2800.0000 C 3300.0000,2759.0000 3279.0000,2723.0000 3246.0000,2702.0000 L 3238.0000,2718.0000 C 3265.0000,2736.0000 3282.0000,2766.0000 3282.0000,2800.0000 C 3282.0000,2800.0000 3282.0000,2800.0000 3282.0000,2800.0000 L 3282.0000,2800.0000 C 3282.0000,2800.0000 3282.0000,2801.0000 3282.0000,2801.0000 C 3282.0000,2801.0000 3282.0000,2801.0000 3282.0000,2801.0000 L 3282.0000,2801.0000 C 3282.0000,2801.0000 3282.0000,2801.0000 3282.0000,2801.0000 Z M 3221.0000,2764.0000 C 3231.0000,2773.0000 3237.0000,2786.0000 3237.0000,2801.0000 C 3237.0000,2816.0000 3231.0000,2829.0000 3221.0000,2839.0000 L 3229.0000,2856.0000 C 3245.0000,2843.0000 3255.0000,2823.0000 3256.0000,2802.0000 L 3256.0000,2802.0000 C 3256.0000,2801.0000 3256.0000,2801.0000 3256.0000,2801.0000 C 3256.0000,2801.0000 3256.0000,2801.0000 3256.0000,2801.0000 C 3256.0000,2801.0000 3256.0000,2801.0000 3256.0000,2801.0000 C 3256.0000,2801.0000 3256.0000,2801.0000 3256.0000,2800.0000 L 3256.0000,2800.0000 C 3255.0000,2779.0000 3245.0000,2759.0000 3229.0000,2747.0000 L 3221.0000,2764.0000 Z M 3082.0000,2801.0000 C 3082.0000,2801.0000 3082.0000,2801.0000 3082.0000,2801.0000 L 3082.0000,2800.0000 C 3082.0000,2800.0000 3082.0000,2800.0000 3082.0000,2800.0000 C 3082.0000,2766.0000 3100.0000,2736.0000 3127.0000,2718.0000 L 3119.0000,2702.0000 C 3086.0000,2723.0000 3064.0000,2759.0000 3064.0000,2800.0000 C 3064.0000,2800.0000 3064.0000,2800.0000 3064.0000,2801.0000 C 3064.0000,2801.0000 3064.0000,2801.0000 3064.0000,2801.0000 C 3064.0000,2842.0000 3086.0000,2878.0000 3119.0000,2899.0000 L 3127.0000,2883.0000 C 3100.0000,2865.0000 3082.0000,2835.0000 3082.0000,2801.0000 Z M 3145.0000,2764.0000 L 3137.0000,2747.0000 C 3121.0000,2759.0000 3111.0000,2779.0000 3111.0000,2800.0000 L 3111.0000,2800.0000 C 3111.0000,2801.0000 3111.0000,2801.0000 3111.0000,2801.0000 C 3111.0000,2801.0000 3111.0000,2801.0000 3111.0000,2801.0000 C 3111.0000,2801.0000 3111.0000,2801.0000 3111.0000,2801.0000 C 3111.0000,2801.0000 3111.0000,2801.0000 3111.0000,2802.0000 L 3111.0000,2802.0000 C 3111.0000,2823.0000 3121.0000,2843.0000 3137.0000,2856.0000 L 3145.0000,2839.0000 C 3135.0000,2829.0000 3129.0000,2816.0000 3129.0000,2801.0000 C 3129.0000,2786.0000 3135.0000,2773.0000 3145.0000,2764.0000 Z M 3202.0000,2801.0000 C 3202.0000,2791.0000 3194.0000,2783.0000 3184.0000,2783.0000 C 3173.0000,2783.0000 3165.0000,2791.0000 3165.0000,2801.0000 C 3165.0000,2811.0000 3173.0000,2820.0000 3184.0000,2820.0000 C 3194.0000,2820.0000 3202.0000,2811.0000 3202.0000,2801.0000 Z "  fill="#96AFDE" stroke="none" />
</g>
<g transform="matrix(1.0000 0.0000 0.0000 1.0000 0.0000 0.0000)">
</g>
<g transform="matrix(0.0625 0.0000 0.0000 0.0625 0.0000 0.0000)">
<path d="M 3282.0000,2801.0000 C 3282.0000,2835.0000 3265.0000,2865.0000 3238.0000,2883.0000 L 3246.0000,2899.0000 C 3279.0000,2878.0000 3300.0000,2842.0000 3300.0000,2801.0000 C 3300.0000,2801.0000 3300.0000,2801.0000 3300.0000,2801.0000 C 3300.0000,2800.0000 3300.0000,2800.0000 3300.0000,2800.0000 C 3300.0000,2759.0000 3279.0000,2723.0000 3246.0000,2702.0000 L 3238.0000,2718.0000 C 3265.0000,2736.0000 3282.0000,2766.0000 3282.0000,2800.0000 C 3282.0000,2800.0000 3282.0000,2800.0000 3282.0000,2800.0000 L 3282.0000,2800.0000 C 3282.0000,2800.0000 3282.0000,2801.0000 3282.0000,2801.0000 C 3282.0000,2801.0000 3282.0000,2801.0000 3282.0000,2801.0000 L 3282.0000,2801.0000 C 3282.0000,2801.0000 3282.0000,2801.0000 3282.0000,2801.0000 Z M 3221.0000,2764.0000 C 3231.0000,2773.0000 3237.0000,2786.0000 3237.0000,2801.0000 C 3237.0000,2816.0000 3231.0000,2829.0000 3221.0000,2839.0000 L 3229.0000,2856.0000 C 3245.0000,2843.0000 3255.0000,2823.0000 3256.0000,2802.0000 L 3256.0000,2802.0000 C 3256.0000,2801.0000 3256.0000,2801.0000 3256.0000,2801.0000 C 3256.0000,2801.0000 3256.0000,2801.0000 3256.0000,2801.0000 C 3256.0000,2801.0000 3256.0000,2801.0000 3256.0000,2801.0000 C 3256.0000,2801.0000 3256.0000,2801.0000 3256.0000,2800.0000 L 3256.0000,2800.0000 C 3255.0000,2779.0000 3245.0000,2759.0000 3229.0000,2747.0000 L 3221.0000,2764.0000 Z M 3082.0000,2801.0000 C 3082.0000,2801.0000 3082.0000,2801.0000 3082.0000,2801.0000 L 3082.0000,2800.0000 C 3082.0000,2800.0000 3082.0000,2800.0000 3082.0000,2800.0000 C 3082.0000,2766.0000 3100.0000,2736.0000 3127.0000,2718.0000 L 3119.0000,2702.0000 C 3086.0000,2723.0000 3064.0000,2759.0000 3064.0000,2800.0000 C 3064.0000,2800.0000 3064.0000,2800.0000 3064.0000,2801.0000 C 3064.0000,2801.0000 3064.0000,2801.0000 3064.0000,2801.0000 C 3064.0000,2842.0000 3086.0000,2878.0000 3119.0000,2899.0000 L 3127.0000,2883.0000 C 3100.0000,2865.0000 3082.0000,2835.0000 3082.0000,2801.0000 Z M 3145.0000,2764.0000 L 3137.0000,2747.0000 C 3121.0000,2759.0000 3111.0000,2779.0000 3111.0000,2800.0000 L 3111.0000,2800.0000 C 3111.0000,2801.0000 3111.0000,2801.0000 3111.0000,2801.0000 C 3111.0000,2801.0000 3111.0000,2801.0000 3111.0000,2801.0000 C 3111.0000,2801.0000 3111.0000,2801.0000 3111.0000,2801.0000 C 3111.0000,2801.0000 3111.0000,2801.0000 3111.0000,2802.0000 L 3111.0000,2802.0000 C 3111.0000,2823.0000 3121.0000,2843.0000 3137.0000,2856.0000 L 3145.0000,2839.0000 C 3135.0000,2829.0000 3129.0000,2816.0000 3129.0000,2801.0000 C 3129.0000,2786.0000 3135.0000,2773.0000 3145.0000,2764.0000 Z M 3202.0000,2801.0000 C 3202.0000,2791.0000 3194.0000,2783.0000 3184.0000,2783.0000 C 3173.0000,2783.0000 3165.0000,2791.0000 3165.0000,2801.0000 C 3165.0000,2811.0000 3173.0000,2820.0000 3184.0000,2820.0000 C 3194.0000,2820.0000 3202.0000,2811.0000 3202.0000,2801.0000 Z " stroke="#4672C4" stroke-width="5.0000"  stroke-linecap="square"  stroke-linejoin="miter"  stroke-miterlimit="2.0000" fill="none" />
</g>
<g transform="matrix(1.0000 0.0000 0.0000 1.0000 0.0000 0.0000)">
<defs><clipPath id="clip-1681692777"><path d="M 0.0000,0.0000 L 746.0000,0.0000 L 746.0000,381.0000 L 0.0000,381.0000 L 0.0000,0.0000 Z Z" /></clipPath></defs>
</g>
<g transform="matrix(0.0625 0.0000 0.0000 0.0625 0.0000 0.0000)">
<path  clip-path="url(#clip-1681692777)" d="M 1069.0000,1836.0000 L 371.0000,1836.0000 L 22.0000,2441.0000 L 371.0000,3045.0000 L 1069.0000,3045.0000 L 1418.0000,2441.0000 L 1069.0000,1836.0000 Z" stroke="#000000" stroke-width="5.0000"  stroke-linecap="square"  stroke-linejoin="miter"  stroke-miterlimit="2.0000" fill="none" />
</g>
<g transform="matrix(1.0000 0.0000 0.0000 1.0000 0.0000 0.0000)">
</g>
<g transform="matrix(0.0625 0.0000 0.0000 0.0625 0.0000 0.0000)">
<path d="M 2119.0000,2441.0000 L 1420.0000,2441.0000 L 1071.0000,3045.0000 L 1420.0000,3650.0000 L 2119.0000,3650.0000 L 2468.0000,3045.0000 L 2119.0000,2441.0000 Z" stroke="#000000" stroke-width="5.0000"  stroke-linecap="square"  stroke-linejoin="miter"  stroke-miterlimit="2.0000" fill="none" />
</g>
<g transform="matrix(1.0000 0.0000 0.0000 1.0000 0.0000 0.0000)">
<defs><clipPath id="clip-1714636915"><path d="M 0.0000,0.0000 L 746.0000,0.0000 L 746.0000,381.0000 L 0.0000,381.0000 L 0.0000,0.0000 Z Z" /></clipPath></defs>
</g>
<g transform="matrix(0.0625 0.0000 0.0000 0.0625 0.0000 0.0000)">
<path  clip-path="url(#clip-1714636915)" d="M 1069.0000,3045.0000 L 371.0000,3045.0000 L 22.0000,3650.0000 L 371.0000,4255.0000 L 1069.0000,4255.0000 L 1418.0000,3650.0000 L 1069.0000,3045.0000 Z" stroke="#000000" stroke-width="5.0000"  stroke-linecap="square"  stroke-linejoin="miter"  stroke-miterlimit="2.0000" fill="none" />
</g>
<g transform="matrix(1.0000 0.0000 0.0000 1.0000 0.0000 0.0000)">
</g>
<g transform="matrix(0.0625 0.0000 0.0000 0.0625 0.0000 0.0000)">
<path d="M 1221.0000,3246.0000 L 1070.0000,2842.0000 L 920.0000,3246.0000 L 943.0000,3246.0000 L 951.0000,3226.0000 L 1070.0000,3159.0000 L 1187.0000,3223.0000 L 1196.0000,3246.0000 L 1221.0000,3246.0000 Z M 1069.0000,3033.0000 L 1137.0000,3096.0000 L 1069.0000,3134.0000 L 1002.0000,3097.0000 L 1069.0000,3033.0000 Z M 1014.0000,3055.0000 L 1034.0000,3001.0000 L 1053.0000,3018.0000 L 1014.0000,3055.0000 Z M 1085.0000,3018.0000 L 1104.0000,2999.0000 L 1125.0000,3054.0000 L 1085.0000,3018.0000 Z M 1096.0000,2977.0000 L 1069.0000,3003.0000 L 1043.0000,2978.0000 L 1070.0000,2906.0000 L 1096.0000,2977.0000 Z M 963.0000,3194.0000 L 991.0000,3116.0000 L 1047.0000,3147.0000 L 963.0000,3194.0000 Z M 1092.0000,3147.0000 L 1147.0000,3115.0000 L 1176.0000,3193.0000 L 1092.0000,3147.0000 Z "  fill="#264379" stroke-width="1px" stroke="#264379" />
</g>
<g transform="matrix(1.0000 0.0000 0.0000 1.0000 0.0000 0.0000)">
</g>
<g transform="matrix(0.0625 0.0000 0.0000 0.0625 0.0000 0.0000)">
<path d="M 1221.0000,3246.0000 L 1070.0000,2842.0000 L 920.0000,3246.0000 L 943.0000,3246.0000 L 951.0000,3226.0000 L 1070.0000,3159.0000 L 1187.0000,3223.0000 L 1196.0000,3246.0000 L 1221.0000,3246.0000 Z" stroke="#4672C4" stroke-width="5.0000"  stroke-linecap="square"  stroke-linejoin="miter"  stroke-miterlimit="2.0000" fill="none" />
<path d="M 1069.0000,3033.0000 L 1137.0000,3096.0000 L 1069.0000,3134.0000 L 1002.0000,3097.0000 L 1069.0000,3033.0000 " stroke="#4672C4" stroke-width="5.0000"  stroke-linecap="square"  stroke-linejoin="miter"  stroke-miterlimit="2.0000" fill="none" />
<path d="M 1014.0000,3055.0000 L 1034.0000,3001.0000 L 1053.0000,3018.0000 L 1014.0000,3055.0000 " stroke="#4672C4" stroke-width="5.0000"  stroke-linecap="square"  stroke-linejoin="miter"  stroke-miterlimit="2.0000" fill="none" />
<path d="M 1085.0000,3018.0000 L 1104.0000,2999.0000 L 1125.0000,3054.0000 L 1085.0000,3018.0000 " stroke="#4672C4" stroke-width="5.0000"  stroke-linecap="square"  stroke-linejoin="miter"  stroke-miterlimit="2.0000" fill="none" />
<path d="M 1096.0000,2977.0000 L 1069.0000,3003.0000 L 1043.0000,2978.0000 L 1070.0000,2906.0000 L 1096.0000,2977.0000 " stroke="#4672C4" stroke-width="5.0000"  stroke-linecap="square"  stroke-linejoin="miter"  stroke-miterlimit="2.0000" fill="none" />
<path d="M 963.0000,3194.0000 L 991.0000,3116.0000 L 1047.0000,3147.0000 L 963.0000,3194.0000 " stroke="#4672C4" stroke-width="5.0000"  stroke-linecap="square"  stroke-linejoin="miter"  stroke-miterlimit="2.0000" fill="none" />
<path d="M 1092.0000,3147.0000 L 1147.0000,3115.0000 L 1176.0000,3193.0000 L 1092.0000,3147.0000 " stroke="#4672C4" stroke-width="5.0000"  stroke-linecap="square"  stroke-linejoin="miter"  stroke-miterlimit="2.0000" fill="none" />
</g>
<g transform="matrix(1.0000 0.0000 0.0000 1.0000 0.0000 0.0000)">
</g>
<g transform="matrix(0.0625 0.0000 0.0000 0.0625 0.0000 0.0000)">
<path d="M 1166.0000,2801.0000 C 1166.0000,2835.0000 1148.0000,2865.0000 1122.0000,2883.0000 L 1129.0000,2899.0000 C 1162.0000,2878.0000 1184.0000,2842.0000 1184.0000,2801.0000 C 1184.0000,2801.0000 1184.0000,2801.0000 1184.0000,2801.0000 C 1184.0000,2800.0000 1184.0000,2800.0000 1184.0000,2800.0000 C 1184.0000,2759.0000 1162.0000,2723.0000 1129.0000,2702.0000 L 1122.0000,2718.0000 C 1148.0000,2736.0000 1166.0000,2766.0000 1166.0000,2800.0000 C 1166.0000,2800.0000 1166.0000,2800.0000 1166.0000,2800.0000 L 1166.0000,2800.0000 C 1166.0000,2800.0000 1166.0000,2801.0000 1166.0000,2801.0000 C 1166.0000,2801.0000 1166.0000,2801.0000 1166.0000,2801.0000 L 1166.0000,2801.0000 C 1166.0000,2801.0000 1166.0000,2801.0000 1166.0000,2801.0000 Z M 1104.0000,2764.0000 C 1115.0000,2773.0000 1121.0000,2786.0000 1121.0000,2801.0000 C 1121.0000,2816.0000 1115.0000,2829.0000 1104.0000,2839.0000 L 1112.0000,2856.0000 C 1128.0000,2843.0000 1139.0000,2823.0000 1139.0000,2802.0000 L 1139.0000,2802.0000 C 1139.0000,2801.0000 1139.0000,2801.0000 1139.0000,2801.0000 C 1139.0000,2801.0000 1139.0000,2801.0000 1139.0000,2801.0000 C 1139.0000,2801.0000 1139.0000,2801.0000 1139.0000,2801.0000 C 1139.0000,2801.0000 1139.0000,2801.0000 1139.0000,2800.0000 L 1139.0000,2800.0000 C 1139.0000,2779.0000 1128.0000,2759.0000 1112.0000,2747.0000 L 1104.0000,2764.0000 Z M 966.0000,2801.0000 C 966.0000,2801.0000 966.0000,2801.0000 966.0000,2801.0000 L 966.0000,2800.0000 C 966.0000,2800.0000 966.0000,2800.0000 966.0000,2800.0000 C 966.0000,2766.0000 983.0000,2736.0000 1010.0000,2718.0000 L 1002.0000,2702.0000 C 970.0000,2723.0000 948.0000,2759.0000 948.0000,2800.0000 C 948.0000,2800.0000 948.0000,2800.0000 948.0000,2801.0000 C 948.0000,2801.0000 948.0000,2801.0000 948.0000,2801.0000 C 948.0000,2842.0000 970.0000,2878.0000 1002.0000,2899.0000 L 1010.0000,2883.0000 C 983.0000,2865.0000 966.0000,2835.0000 966.0000,2801.0000 Z M 1029.0000,2764.0000 L 1021.0000,2747.0000 C 1005.0000,2759.0000 994.0000,2779.0000 994.0000,2800.0000 L 994.0000,2800.0000 C 994.0000,2801.0000 994.0000,2801.0000 994.0000,2801.0000 C 994.0000,2801.0000 994.0000,2801.0000 994.0000,2801.0000 C 994.0000,2801.0000 994.0000,2801.0000 994.0000,2801.0000 C 994.0000,2801.0000 994.0000,2801.0000 994.0000,2802.0000 L 994.0000,2802.0000 C 994.0000,2823.0000 1005.0000,2843.0000 1021.0000,2856.0000 L 1029.0000,2839.0000 C 1019.0000,2829.0000 1012.0000,2816.0000 1012.0000,2801.0000 C 1012.0000,2786.0000 1019.0000,2773.0000 1029.0000,2764.0000 Z M 1085.0000,2801.0000 C 1085.0000,2791.0000 1077.0000,2783.0000 1067.0000,2783.0000 C 1057.0000,2783.0000 1049.0000,2791.0000 1049.0000,2801.0000 C 1049.0000,2811.0000 1057.0000,2820.0000 1067.0000,2820.0000 C 1077.0000,2820.0000 1085.0000,2811.0000 1085.0000,2801.0000 Z "  fill="#96AFDE" stroke="none" />
</g>
<g transform="matrix(1.0000 0.0000 0.0000 1.0000 0.0000 0.0000)">
</g>
<g transform="matrix(0.0625 0.0000 0.0000 0.0625 0.0000 0.0000)">
<path d="M 1166.0000,2801.0000 C 1166.0000,2835.0000 1148.0000,2865.0000 1122.0000,2883.0000 L 1129.0000,2899.0000 C 1162.0000,2878.0000 1184.0000,2842.0000 1184.0000,2801.0000 C 1184.0000,2801.0000 1184.0000,2801.0000 1184.0000,2801.0000 C 1184.0000,2800.0000 1184.0000,2800.0000 1184.0000,2800.0000 C 1184.0000,2759.0000 1162.0000,2723.0000 1129.0000,2702.0000 L 1122.0000,2718.0000 C 1148.0000,2736.0000 1166.0000,2766.0000 1166.0000,2800.0000 C 1166.0000,2800.0000 1166.0000,2800.0000 1166.0000,2800.0000 L 1166.0000,2800.0000 C 1166.0000,2800.0000 1166.0000,2801.0000 1166.0000,2801.0000 C 1166.0000,2801.0000 1166.0000,2801.0000 1166.0000,2801.0000 L 1166.0000,2801.0000 C 1166.0000,2801.0000 1166.0000,2801.0000 1166.0000,2801.0000 Z M 1104.0000,2764.0000 C 1115.0000,2773.0000 1121.0000,2786.0000 1121.0000,2801.0000 C 1121.0000,2816.0000 1115.0000,2829.0000 1104.0000,2839.0000 L 1112.0000,2856.0000 C 1128.0000,2843.0000 1139.0000,2823.0000 1139.0000,2802.0000 L 1139.0000,2802.0000 C 1139.0000,2801.0000 1139.0000,2801.0000 1139.0000,2801.0000 C 1139.0000,2801.0000 1139.0000,2801.0000 1139.0000,2801.0000 C 1139.0000,2801.0000 1139.0000,2801.0000 1139.0000,2801.0000 C 1139.0000,2801.0000 1139.0000,2801.0000 1139.0000,2800.0000 L 1139.0000,2800.0000 C 1139.0000,2779.0000 1128.0000,2759.0000 1112.0000,2747.0000 L 1104.0000,2764.0000 Z M 966.0000,2801.0000 C 966.0000,2801.0000 966.0000,2801.0000 966.0000,2801.0000 L 966.0000,2800.0000 C 966.0000,2800.0000 966.0000,2800.0000 966.0000,2800.0000 C 966.0000,2766.0000 983.0000,2736.0000 1010.0000,2718.0000 L 1002.0000,2702.0000 C 970.0000,2723.0000 948.0000,2759.0000 948.0000,2800.0000 C 948.0000,2800.0000 948.0000,2800.0000 948.0000,2801.0000 C 948.0000,2801.0000 948.0000,2801.0000 948.0000,2801.0000 C 948.0000,2842.0000 970.0000,2878.0000 1002.0000,2899.0000 L 1010.0000,2883.0000 C 983.0000,2865.0000 966.0000,2835.0000 966.0000,2801.0000 Z M 1029.0000,2764.0000 L 1021.0000,2747.0000 C 1005.0000,2759.0000 994.0000,2779.0000 994.0000,2800.0000 L 994.0000,2800.0000 C 994.0000,2801.0000 994.0000,2801.0000 994.0000,2801.0000 C 994.0000,2801.0000 994.0000,2801.0000 994.0000,2801.0000 C 994.0000,2801.0000 994.0000,2801.0000 994.0000,2801.0000 C 994.0000,2801.0000 994.0000,2801.0000 994.0000,2802.0000 L 994.0000,2802.0000 C 994.0000,2823.0000 1005.0000,2843.0000 1021.0000,2856.0000 L 1029.0000,2839.0000 C 1019.0000,2829.0000 1012.0000,2816.0000 1012.0000,2801.0000 C 1012.0000,2786.0000 1019.0000,2773.0000 1029.0000,2764.0000 Z M 1085.0000,2801.0000 C 1085.0000,2791.0000 1077.0000,2783.0000 1067.0000,2783.0000 C 1057.0000,2783.0000 1049.0000,2791.0000 1049.0000,2801.0000 C 1049.0000,2811.0000 1057.0000,2820.0000 1067.0000,2820.0000 C 1077.0000,2820.0000 1085.0000,2811.0000 1085.0000,2801.0000 Z " stroke="#4672C4" stroke-width="5.0000"  stroke-linecap="square"  stroke-linejoin="miter"  stroke-miterlimit="2.0000" fill="none" />
</g>
<g transform="matrix(1.0000 0.0000 0.0000 1.0000 0.0000 0.0000)">
</g>
<g transform="matrix(0.0625 0.0000 0.0000 0.0625 0.0000 0.0000)">
<path d="M 5302.0000,1836.0000 L 4604.0000,1836.0000 L 4255.0000,2441.0000 L 4604.0000,3045.0000 L 5302.0000,3045.0000 L 5651.0000,2441.0000 L 5302.0000,1836.0000 Z" stroke="#000000" stroke-width="5.0000"  stroke-linecap="square"  stroke-linejoin="miter"  stroke-miterlimit="2.0000" fill="none" />
</g>
<g transform="matrix(1.0000 0.0000 0.0000 1.0000 0.0000 0.0000)">
</g>
<g transform="matrix(0.0625 0.0000 0.0000 0.0625 0.0000 0.0000)">
<path d="M 6352.0000,2441.0000 L 5653.0000,2441.0000 L 5304.0000,3045.0000 L 5653.0000,3650.0000 L 6352.0000,3650.0000 L 6701.0000,3045.0000 L 6352.0000,2441.0000 Z" stroke="#000000" stroke-width="5.0000"  stroke-linecap="square"  stroke-linejoin="miter"  stroke-miterlimit="2.0000" fill="none" />
</g>
<g transform="matrix(1.0000 0.0000 0.0000 1.0000 0.0000 0.0000)">
</g>
<g transform="matrix(0.0625 0.0000 0.0000 0.0625 0.0000 0.0000)">
<path d="M 5302.0000,3045.0000 L 4604.0000,3045.0000 L 4255.0000,3650.0000 L 4604.0000,4255.0000 L 5302.0000,4255.0000 L 5651.0000,3650.0000 L 5302.0000,3045.0000 Z" stroke="#000000" stroke-width="5.0000"  stroke-linecap="square"  stroke-linejoin="miter"  stroke-miterlimit="2.0000" fill="none" />
</g>
<g transform="matrix(1.0000 0.0000 0.0000 1.0000 0.0000 0.0000)">
</g>
<g transform="matrix(0.0625 0.0000 0.0000 0.0625 0.0000 0.0000)">
<path d="M 5454.0000,3246.0000 L 5303.0000,2842.0000 L 5153.0000,3246.0000 L 5176.0000,3246.0000 L 5184.0000,3226.0000 L 5303.0000,3159.0000 L 5420.0000,3223.0000 L 5429.0000,3246.0000 L 5454.0000,3246.0000 Z M 5302.0000,3033.0000 L 5371.0000,3096.0000 L 5303.0000,3134.0000 L 5235.0000,3097.0000 L 5302.0000,3033.0000 Z M 5247.0000,3055.0000 L 5267.0000,3001.0000 L 5286.0000,3018.0000 L 5247.0000,3055.0000 Z M 5318.0000,3018.0000 L 5337.0000,2999.0000 L 5358.0000,3054.0000 L 5318.0000,3018.0000 Z M 5329.0000,2977.0000 L 5302.0000,3003.0000 L 5276.0000,2978.0000 L 5303.0000,2906.0000 L 5329.0000,2977.0000 Z M 5196.0000,3194.0000 L 5225.0000,3116.0000 L 5280.0000,3147.0000 L 5196.0000,3194.0000 Z M 5325.0000,3147.0000 L 5380.0000,3115.0000 L 5409.0000,3193.0000 L 5325.0000,3147.0000 Z "  fill="#264379" stroke-width="1px" stroke="#264379" />
</g>
<g transform="matrix(1.0000 0.0000 0.0000 1.0000 0.0000 0.0000)">
</g>
<g transform="matrix(0.0625 0.0000 0.0000 0.0625 0.0000 0.0000)">
<path d="M 5454.0000,3246.0000 L 5303.0000,2842.0000 L 5153.0000,3246.0000 L 5176.0000,3246.0000 L 5184.0000,3226.0000 L 5303.0000,3159.0000 L 5420.0000,3223.0000 L 5429.0000,3246.0000 L 5454.0000,3246.0000 Z" stroke="#4672C4" stroke-width="5.0000"  stroke-linecap="square"  stroke-linejoin="miter"  stroke-miterlimit="2.0000" fill="none" />
<path d="M 5302.0000,3033.0000 L 5371.0000,3096.0000 L 5303.0000,3134.0000 L 5235.0000,3097.0000 L 5302.0000,3033.0000 " stroke="#4672C4" stroke-width="5.0000"  stroke-linecap="square"  stroke-linejoin="miter"  stroke-miterlimit="2.0000" fill="none" />
<path d="M 5247.0000,3055.0000 L 5267.0000,3001.0000 L 5286.0000,3018.0000 L 5247.0000,3055.0000 " stroke="#4672C4" stroke-width="5.0000"  stroke-linecap="square"  stroke-linejoin="miter"  stroke-miterlimit="2.0000" fill="none" />
<path d="M 5318.0000,3018.0000 L 5337.0000,2999.0000 L 5358.0000,3054.0000 L 5318.0000,3018.0000 " stroke="#4672C4" stroke-width="5.0000"  stroke-linecap="square"  stroke-linejoin="miter"  stroke-miterlimit="2.0000" fill="none" />
<path d="M 5329.0000,2977.0000 L 5302.0000,3003.0000 L 5276.0000,2978.0000 L 5303.0000,2906.0000 L 5329.0000,2977.0000 " stroke="#4672C4" stroke-width="5.0000"  stroke-linecap="square"  stroke-linejoin="miter"  stroke-miterlimit="2.0000" fill="none" />
<path d="M 5196.0000,3194.0000 L 5225.0000,3116.0000 L 5280.0000,3147.0000 L 5196.0000,3194.0000 " stroke="#4672C4" stroke-width="5.0000"  stroke-linecap="square"  stroke-linejoin="miter"  stroke-miterlimit="2.0000" fill="none" />
<path d="M 5325.0000,3147.0000 L 5380.0000,3115.0000 L 5409.0000,3193.0000 L 5325.0000,3147.0000 " stroke="#4672C4" stroke-width="5.0000"  stroke-linecap="square"  stroke-linejoin="miter"  stroke-miterlimit="2.0000" fill="none" />
</g>
<g transform="matrix(1.0000 0.0000 0.0000 1.0000 0.0000 0.0000)">
</g>
<g transform="matrix(0.0625 0.0000 0.0000 0.0625 0.0000 0.0000)">
<path d="M 5399.0000,2801.0000 C 5399.0000,2835.0000 5381.0000,2865.0000 5355.0000,2883.0000 L 5363.0000,2899.0000 C 5395.0000,2878.0000 5417.0000,2842.0000 5417.0000,2801.0000 C 5417.0000,2801.0000 5417.0000,2801.0000 5417.0000,2801.0000 C 5417.0000,2800.0000 5417.0000,2800.0000 5417.0000,2800.0000 C 5417.0000,2759.0000 5395.0000,2723.0000 5363.0000,2702.0000 L 5355.0000,2718.0000 C 5381.0000,2736.0000 5399.0000,2766.0000 5399.0000,2800.0000 C 5399.0000,2800.0000 5399.0000,2800.0000 5399.0000,2800.0000 L 5399.0000,2800.0000 C 5399.0000,2800.0000 5399.0000,2801.0000 5399.0000,2801.0000 C 5399.0000,2801.0000 5399.0000,2801.0000 5399.0000,2801.0000 L 5399.0000,2801.0000 C 5399.0000,2801.0000 5399.0000,2801.0000 5399.0000,2801.0000 Z M 5337.0000,2764.0000 C 5348.0000,2773.0000 5354.0000,2786.0000 5354.0000,2801.0000 C 5354.0000,2816.0000 5348.0000,2829.0000 5337.0000,2839.0000 L 5345.0000,2856.0000 C 5361.0000,2843.0000 5372.0000,2823.0000 5372.0000,2802.0000 L 5372.0000,2802.0000 C 5372.0000,2801.0000 5372.0000,2801.0000 5372.0000,2801.0000 C 5372.0000,2801.0000 5372.0000,2801.0000 5372.0000,2801.0000 C 5372.0000,2801.0000 5372.0000,2801.0000 5372.0000,2801.0000 C 5372.0000,2801.0000 5372.0000,2801.0000 5372.0000,2800.0000 L 5372.0000,2800.0000 C 5372.0000,2779.0000 5361.0000,2759.0000 5345.0000,2747.0000 L 5337.0000,2764.0000 Z M 5199.0000,2801.0000 C 5199.0000,2801.0000 5199.0000,2801.0000 5199.0000,2801.0000 L 5199.0000,2800.0000 C 5199.0000,2800.0000 5199.0000,2800.0000 5199.0000,2800.0000 C 5199.0000,2766.0000 5217.0000,2736.0000 5243.0000,2718.0000 L 5235.0000,2702.0000 C 5203.0000,2723.0000 5181.0000,2759.0000 5181.0000,2800.0000 C 5181.0000,2800.0000 5181.0000,2800.0000 5181.0000,2801.0000 C 5181.0000,2801.0000 5181.0000,2801.0000 5181.0000,2801.0000 C 5181.0000,2842.0000 5203.0000,2878.0000 5235.0000,2899.0000 L 5243.0000,2883.0000 C 5217.0000,2865.0000 5199.0000,2835.0000 5199.0000,2801.0000 Z M 5262.0000,2764.0000 L 5254.0000,2747.0000 C 5238.0000,2759.0000 5228.0000,2779.0000 5227.0000,2800.0000 L 5227.0000,2800.0000 C 5227.0000,2801.0000 5227.0000,2801.0000 5227.0000,2801.0000 C 5227.0000,2801.0000 5227.0000,2801.0000 5227.0000,2801.0000 C 5227.0000,2801.0000 5227.0000,2801.0000 5227.0000,2801.0000 C 5227.0000,2801.0000 5227.0000,2801.0000 5227.0000,2802.0000 L 5227.0000,2802.0000 C 5228.0000,2823.0000 5238.0000,2843.0000 5254.0000,2856.0000 L 5262.0000,2839.0000 C 5252.0000,2829.0000 5245.0000,2816.0000 5245.0000,2801.0000 C 5245.0000,2786.0000 5252.0000,2773.0000 5262.0000,2764.0000 Z M 5318.0000,2801.0000 C 5318.0000,2791.0000 5310.0000,2783.0000 5300.0000,2783.0000 C 5290.0000,2783.0000 5282.0000,2791.0000 5282.0000,2801.0000 C 5282.0000,2811.0000 5290.0000,2820.0000 5300.0000,2820.0000 C 5310.0000,2820.0000 5318.0000,2811.0000 5318.0000,2801.0000 Z "  fill="#96AFDE" stroke="none" />
</g>
<g transform="matrix(1.0000 0.0000 0.0000 1.0000 0.0000 0.0000)">
</g>
<g transform="matrix(0.0625 0.0000 0.0000 0.0625 0.0000 0.0000)">
<path d="M 5399.0000,2801.0000 C 5399.0000,2835.0000 5381.0000,2865.0000 5355.0000,2883.0000 L 5363.0000,2899.0000 C 5395.0000,2878.0000 5417.0000,2842.0000 5417.0000,2801.0000 C 5417.0000,2801.0000 5417.0000,2801.0000 5417.0000,2801.0000 C 5417.0000,2800.0000 5417.0000,2800.0000 5417.0000,2800.0000 C 5417.0000,2759.0000 5395.0000,2723.0000 5363.0000,2702.0000 L 5355.0000,2718.0000 C 5381.0000,2736.0000 5399.0000,2766.0000 5399.0000,2800.0000 C 5399.0000,2800.0000 5399.0000,2800.0000 5399.0000,2800.0000 L 5399.0000,2800.0000 C 5399.0000,2800.0000 5399.0000,2801.0000 5399.0000,2801.0000 C 5399.0000,2801.0000 5399.0000,2801.0000 5399.0000,2801.0000 L 5399.0000,2801.0000 C 5399.0000,2801.0000 5399.0000,2801.0000 5399.0000,2801.0000 Z M 5337.0000,2764.0000 C 5348.0000,2773.0000 5354.0000,2786.0000 5354.0000,2801.0000 C 5354.0000,2816.0000 5348.0000,2829.0000 5337.0000,2839.0000 L 5345.0000,2856.0000 C 5361.0000,2843.0000 5372.0000,2823.0000 5372.0000,2802.0000 L 5372.0000,2802.0000 C 5372.0000,2801.0000 5372.0000,2801.0000 5372.0000,2801.0000 C 5372.0000,2801.0000 5372.0000,2801.0000 5372.0000,2801.0000 C 5372.0000,2801.0000 5372.0000,2801.0000 5372.0000,2801.0000 C 5372.0000,2801.0000 5372.0000,2801.0000 5372.0000,2800.0000 L 5372.0000,2800.0000 C 5372.0000,2779.0000 5361.0000,2759.0000 5345.0000,2747.0000 L 5337.0000,2764.0000 Z M 5199.0000,2801.0000 C 5199.0000,2801.0000 5199.0000,2801.0000 5199.0000,2801.0000 L 5199.0000,2800.0000 C 5199.0000,2800.0000 5199.0000,2800.0000 5199.0000,2800.0000 C 5199.0000,2766.0000 5217.0000,2736.0000 5243.0000,2718.0000 L 5235.0000,2702.0000 C 5203.0000,2723.0000 5181.0000,2759.0000 5181.0000,2800.0000 C 5181.0000,2800.0000 5181.0000,2800.0000 5181.0000,2801.0000 C 5181.0000,2801.0000 5181.0000,2801.0000 5181.0000,2801.0000 C 5181.0000,2842.0000 5203.0000,2878.0000 5235.0000,2899.0000 L 5243.0000,2883.0000 C 5217.0000,2865.0000 5199.0000,2835.0000 5199.0000,2801.0000 Z M 5262.0000,2764.0000 L 5254.0000,2747.0000 C 5238.0000,2759.0000 5228.0000,2779.0000 5227.0000,2800.0000 L 5227.0000,2800.0000 C 5227.0000,2801.0000 5227.0000,2801.0000 5227.0000,2801.0000 C 5227.0000,2801.0000 5227.0000,2801.0000 5227.0000,2801.0000 C 5227.0000,2801.0000 5227.0000,2801.0000 5227.0000,2801.0000 C 5227.0000,2801.0000 5227.0000,2801.0000 5227.0000,2802.0000 L 5227.0000,2802.0000 C 5228.0000,2823.0000 5238.0000,2843.0000 5254.0000,2856.0000 L 5262.0000,2839.0000 C 5252.0000,2829.0000 5245.0000,2816.0000 5245.0000,2801.0000 C 5245.0000,2786.0000 5252.0000,2773.0000 5262.0000,2764.0000 Z M 5318.0000,2801.0000 C 5318.0000,2791.0000 5310.0000,2783.0000 5300.0000,2783.0000 C 5290.0000,2783.0000 5282.0000,2791.0000 5282.0000,2801.0000 C 5282.0000,2811.0000 5290.0000,2820.0000 5300.0000,2820.0000 C 5310.0000,2820.0000 5318.0000,2811.0000 5318.0000,2801.0000 Z " stroke="#4672C4" stroke-width="5.0000"  stroke-linecap="square"  stroke-linejoin="miter"  stroke-miterlimit="2.0000" fill="none" />
</g>
<g transform="matrix(1.0000 0.0000 0.0000 1.0000 0.0000 0.0000)">
</g>
<g transform="matrix(0.0625 0.0000 0.0000 0.0625 0.0000 0.0000)">
<path d="M 2119.0000,3650.0000 L 1420.0000,3650.0000 L 1071.0000,4255.0000 L 1420.0000,4860.0000 L 2119.0000,4860.0000 L 2468.0000,4255.0000 L 2119.0000,3650.0000 Z" stroke="#000000" stroke-width="5.0000"  stroke-linecap="square"  stroke-linejoin="miter"  stroke-miterlimit="2.0000" fill="none" />
</g>
<g transform="matrix(1.0000 0.0000 0.0000 1.0000 0.0000 0.0000)">
</g>
<g transform="matrix(0.0625 0.0000 0.0000 0.0625 0.0000 0.0000)">
<path d="M 3168.0000,4255.0000 L 2470.0000,4255.0000 L 2121.0000,4860.0000 L 2470.0000,5464.0000 L 3168.0000,5464.0000 L 3517.0000,4860.0000 L 3168.0000,4255.0000 Z" stroke="#000000" stroke-width="5.0000"  stroke-linecap="square"  stroke-linejoin="miter"  stroke-miterlimit="2.0000" fill="none" />
</g>
<g transform="matrix(1.0000 0.0000 0.0000 1.0000 0.0000 0.0000)">
<defs><clipPath id="clip-1957747793"><path d="M 0.0000,0.0000 L 746.0000,0.0000 L 746.0000,381.0000 L 0.0000,381.0000 L 0.0000,0.0000 Z Z" /></clipPath></defs>
</g>
<g transform="matrix(0.0625 0.0000 0.0000 0.0625 0.0000 0.0000)">
<path  clip-path="url(#clip-1957747793)" d="M 2119.0000,4860.0000 L 1420.0000,4860.0000 L 1071.0000,5464.0000 L 1420.0000,6069.0000 L 2119.0000,6069.0000 L 2468.0000,5464.0000 L 2119.0000,4860.0000 Z" stroke="#000000" stroke-width="5.0000"  stroke-linecap="square"  stroke-linejoin="miter"  stroke-miterlimit="2.0000" fill="none" />
</g>
<g transform="matrix(1.0000 0.0000 0.0000 1.0000 0.0000 0.0000)">
</g>
<g transform="matrix(0.0625 0.0000 0.0000 0.0625 0.0000 0.0000)">
<path d="M 2270.0000,5061.0000 L 2119.0000,4656.0000 L 1970.0000,5060.0000 L 1993.0000,5060.0000 L 2000.0000,5041.0000 L 2119.0000,4973.0000 L 2237.0000,5037.0000 L 2245.0000,5060.0000 L 2270.0000,5061.0000 Z M 2119.0000,4847.0000 L 2187.0000,4910.0000 L 2119.0000,4948.0000 L 2052.0000,4911.0000 L 2119.0000,4847.0000 Z M 2064.0000,4869.0000 L 2084.0000,4815.0000 L 2103.0000,4832.0000 L 2064.0000,4869.0000 Z M 2135.0000,4832.0000 L 2154.0000,4814.0000 L 2174.0000,4868.0000 L 2135.0000,4832.0000 Z M 2145.0000,4791.0000 L 2119.0000,4817.0000 L 2092.0000,4792.0000 L 2119.0000,4720.0000 L 2145.0000,4791.0000 Z M 2012.0000,5008.0000 L 2041.0000,4930.0000 L 2096.0000,4961.0000 L 2012.0000,5008.0000 Z M 2142.0000,4961.0000 L 2197.0000,4930.0000 L 2225.0000,5007.0000 L 2142.0000,4961.0000 Z "  fill="#264379" stroke-width="1px" stroke="#264379" />
</g>
<g transform="matrix(1.0000 0.0000 0.0000 1.0000 0.0000 0.0000)">
</g>
<g transform="matrix(0.0625 0.0000 0.0000 0.0625 0.0000 0.0000)">
<path d="M 2270.0000,5061.0000 L 2119.0000,4656.0000 L 1970.0000,5060.0000 L 1993.0000,5060.0000 L 2000.0000,5041.0000 L 2119.0000,4973.0000 L 2237.0000,5037.0000 L 2245.0000,5060.0000 L 2270.0000,5061.0000 Z" stroke="#4672C4" stroke-width="5.0000"  stroke-linecap="square"  stroke-linejoin="miter"  stroke-miterlimit="2.0000" fill="none" />
<path d="M 2119.0000,4847.0000 L 2187.0000,4910.0000 L 2119.0000,4948.0000 L 2052.0000,4911.0000 L 2119.0000,4847.0000 " stroke="#4672C4" stroke-width="5.0000"  stroke-linecap="square"  stroke-linejoin="miter"  stroke-miterlimit="2.0000" fill="none" />
<path d="M 2064.0000,4869.0000 L 2084.0000,4815.0000 L 2103.0000,4832.0000 L 2064.0000,4869.0000 " stroke="#4672C4" stroke-width="5.0000"  stroke-linecap="square"  stroke-linejoin="miter"  stroke-miterlimit="2.0000" fill="none" />
<path d="M 2135.0000,4832.0000 L 2154.0000,4814.0000 L 2174.0000,4868.0000 L 2135.0000,4832.0000 " stroke="#4672C4" stroke-width="5.0000"  stroke-linecap="square"  stroke-linejoin="miter"  stroke-miterlimit="2.0000" fill="none" />
<path d="M 2145.0000,4791.0000 L 2119.0000,4817.0000 L 2092.0000,4792.0000 L 2119.0000,4720.0000 L 2145.0000,4791.0000 " stroke="#4672C4" stroke-width="5.0000"  stroke-linecap="square"  stroke-linejoin="miter"  stroke-miterlimit="2.0000" fill="none" />
<path d="M 2012.0000,5008.0000 L 2041.0000,4930.0000 L 2096.0000,4961.0000 L 2012.0000,5008.0000 " stroke="#4672C4" stroke-width="5.0000"  stroke-linecap="square"  stroke-linejoin="miter"  stroke-miterlimit="2.0000" fill="none" />
<path d="M 2142.0000,4961.0000 L 2197.0000,4930.0000 L 2225.0000,5007.0000 L 2142.0000,4961.0000 " stroke="#4672C4" stroke-width="5.0000"  stroke-linecap="square"  stroke-linejoin="miter"  stroke-miterlimit="2.0000" fill="none" />
</g>
<g transform="matrix(1.0000 0.0000 0.0000 1.0000 0.0000 0.0000)">
</g>
<g transform="matrix(0.0625 0.0000 0.0000 0.0625 0.0000 0.0000)">
<path d="M 2215.0000,4615.0000 C 2215.0000,4649.0000 2197.0000,4679.0000 2171.0000,4697.0000 L 2179.0000,4713.0000 C 2211.0000,4693.0000 2233.0000,4656.0000 2233.0000,4615.0000 C 2233.0000,4615.0000 2233.0000,4615.0000 2233.0000,4615.0000 C 2233.0000,4615.0000 2233.0000,4614.0000 2233.0000,4614.0000 C 2233.0000,4573.0000 2211.0000,4537.0000 2179.0000,4516.0000 L 2171.0000,4533.0000 C 2197.0000,4550.0000 2215.0000,4580.0000 2215.0000,4614.0000 C 2215.0000,4614.0000 2215.0000,4615.0000 2215.0000,4615.0000 L 2215.0000,4615.0000 C 2215.0000,4615.0000 2215.0000,4615.0000 2215.0000,4615.0000 C 2215.0000,4615.0000 2215.0000,4615.0000 2215.0000,4615.0000 L 2215.0000,4615.0000 C 2215.0000,4615.0000 2215.0000,4615.0000 2215.0000,4615.0000 Z M 2154.0000,4578.0000 C 2164.0000,4587.0000 2170.0000,4600.0000 2170.0000,4615.0000 C 2170.0000,4630.0000 2164.0000,4643.0000 2154.0000,4653.0000 L 2162.0000,4670.0000 C 2178.0000,4657.0000 2188.0000,4638.0000 2188.0000,4616.0000 L 2188.0000,4616.0000 C 2188.0000,4616.0000 2188.0000,4615.0000 2188.0000,4615.0000 C 2188.0000,4615.0000 2188.0000,4615.0000 2188.0000,4615.0000 C 2188.0000,4615.0000 2188.0000,4615.0000 2188.0000,4615.0000 C 2188.0000,4615.0000 2188.0000,4615.0000 2188.0000,4615.0000 L 2188.0000,4615.0000 C 2188.0000,4593.0000 2178.0000,4573.0000 2162.0000,4561.0000 L 2154.0000,4578.0000 Z M 2015.0000,4615.0000 C 2015.0000,4615.0000 2015.0000,4615.0000 2015.0000,4615.0000 L 2015.0000,4615.0000 C 2015.0000,4615.0000 2015.0000,4614.0000 2015.0000,4614.0000 C 2015.0000,4580.0000 2033.0000,4550.0000 2059.0000,4533.0000 L 2052.0000,4516.0000 C 2019.0000,4537.0000 1997.0000,4573.0000 1997.0000,4614.0000 C 1997.0000,4614.0000 1997.0000,4615.0000 1997.0000,4615.0000 C 1997.0000,4615.0000 1997.0000,4615.0000 1997.0000,4615.0000 C 1997.0000,4656.0000 2019.0000,4693.0000 2052.0000,4713.0000 L 2059.0000,4697.0000 C 2033.0000,4679.0000 2015.0000,4649.0000 2015.0000,4615.0000 Z M 2078.0000,4578.0000 L 2070.0000,4561.0000 C 2054.0000,4573.0000 2044.0000,4593.0000 2044.0000,4615.0000 L 2044.0000,4615.0000 C 2044.0000,4615.0000 2044.0000,4615.0000 2044.0000,4615.0000 C 2044.0000,4615.0000 2044.0000,4615.0000 2044.0000,4615.0000 C 2044.0000,4615.0000 2044.0000,4615.0000 2044.0000,4615.0000 C 2044.0000,4615.0000 2044.0000,4616.0000 2044.0000,4616.0000 L 2044.0000,4616.0000 C 2044.0000,4638.0000 2054.0000,4657.0000 2070.0000,4670.0000 L 2078.0000,4653.0000 C 2068.0000,4643.0000 2062.0000,4630.0000 2062.0000,4615.0000 C 2062.0000,4600.0000 2068.0000,4587.0000 2078.0000,4578.0000 Z M 2135.0000,4615.0000 C 2135.0000,4605.0000 2127.0000,4597.0000 2116.0000,4597.0000 C 2106.0000,4597.0000 2098.0000,4605.0000 2098.0000,4615.0000 C 2098.0000,4626.0000 2106.0000,4634.0000 2116.0000,4634.0000 C 2127.0000,4634.0000 2135.0000,4626.0000 2135.0000,4615.0000 Z "  fill="#96AFDE" stroke="none" />
</g>
<g transform="matrix(1.0000 0.0000 0.0000 1.0000 0.0000 0.0000)">
</g>
<g transform="matrix(0.0625 0.0000 0.0000 0.0625 0.0000 0.0000)">
<path d="M 2215.0000,4615.0000 C 2215.0000,4649.0000 2197.0000,4679.0000 2171.0000,4697.0000 L 2179.0000,4713.0000 C 2211.0000,4693.0000 2233.0000,4656.0000 2233.0000,4615.0000 C 2233.0000,4615.0000 2233.0000,4615.0000 2233.0000,4615.0000 C 2233.0000,4615.0000 2233.0000,4614.0000 2233.0000,4614.0000 C 2233.0000,4573.0000 2211.0000,4537.0000 2179.0000,4516.0000 L 2171.0000,4533.0000 C 2197.0000,4550.0000 2215.0000,4580.0000 2215.0000,4614.0000 C 2215.0000,4614.0000 2215.0000,4615.0000 2215.0000,4615.0000 L 2215.0000,4615.0000 C 2215.0000,4615.0000 2215.0000,4615.0000 2215.0000,4615.0000 C 2215.0000,4615.0000 2215.0000,4615.0000 2215.0000,4615.0000 L 2215.0000,4615.0000 C 2215.0000,4615.0000 2215.0000,4615.0000 2215.0000,4615.0000 Z M 2154.0000,4578.0000 C 2164.0000,4587.0000 2170.0000,4600.0000 2170.0000,4615.0000 C 2170.0000,4630.0000 2164.0000,4643.0000 2154.0000,4653.0000 L 2162.0000,4670.0000 C 2178.0000,4657.0000 2188.0000,4638.0000 2188.0000,4616.0000 L 2188.0000,4616.0000 C 2188.0000,4616.0000 2188.0000,4615.0000 2188.0000,4615.0000 C 2188.0000,4615.0000 2188.0000,4615.0000 2188.0000,4615.0000 C 2188.0000,4615.0000 2188.0000,4615.0000 2188.0000,4615.0000 C 2188.0000,4615.0000 2188.0000,4615.0000 2188.0000,4615.0000 L 2188.0000,4615.0000 C 2188.0000,4593.0000 2178.0000,4573.0000 2162.0000,4561.0000 L 2154.0000,4578.0000 Z M 2015.0000,4615.0000 C 2015.0000,4615.0000 2015.0000,4615.0000 2015.0000,4615.0000 L 2015.0000,4615.0000 C 2015.0000,4615.0000 2015.0000,4614.0000 2015.0000,4614.0000 C 2015.0000,4580.0000 2033.0000,4550.0000 2059.0000,4533.0000 L 2052.0000,4516.0000 C 2019.0000,4537.0000 1997.0000,4573.0000 1997.0000,4614.0000 C 1997.0000,4614.0000 1997.0000,4615.0000 1997.0000,4615.0000 C 1997.0000,4615.0000 1997.0000,4615.0000 1997.0000,4615.0000 C 1997.0000,4656.0000 2019.0000,4693.0000 2052.0000,4713.0000 L 2059.0000,4697.0000 C 2033.0000,4679.0000 2015.0000,4649.0000 2015.0000,4615.0000 Z M 2078.0000,4578.0000 L 2070.0000,4561.0000 C 2054.0000,4573.0000 2044.0000,4593.0000 2044.0000,4615.0000 L 2044.0000,4615.0000 C 2044.0000,4615.0000 2044.0000,4615.0000 2044.0000,4615.0000 C 2044.0000,4615.0000 2044.0000,4615.0000 2044.0000,4615.0000 C 2044.0000,4615.0000 2044.0000,4615.0000 2044.0000,4615.0000 C 2044.0000,4615.0000 2044.0000,4616.0000 2044.0000,4616.0000 L 2044.0000,4616.0000 C 2044.0000,4638.0000 2054.0000,4657.0000 2070.0000,4670.0000 L 2078.0000,4653.0000 C 2068.0000,4643.0000 2062.0000,4630.0000 2062.0000,4615.0000 C 2062.0000,4600.0000 2068.0000,4587.0000 2078.0000,4578.0000 Z M 2135.0000,4615.0000 C 2135.0000,4605.0000 2127.0000,4597.0000 2116.0000,4597.0000 C 2106.0000,4597.0000 2098.0000,4605.0000 2098.0000,4615.0000 C 2098.0000,4626.0000 2106.0000,4634.0000 2116.0000,4634.0000 C 2127.0000,4634.0000 2135.0000,4626.0000 2135.0000,4615.0000 Z " stroke="#4672C4" stroke-width="5.0000"  stroke-linecap="square"  stroke-linejoin="miter"  stroke-miterlimit="2.0000" fill="none" />
</g>
<g transform="matrix(1.0000 0.0000 0.0000 1.0000 0.0000 0.0000)">
</g>
<g transform="matrix(0.0625 0.0000 0.0000 0.0625 0.0000 0.0000)">
<path d="M 4235.0000,3650.0000 L 3537.0000,3650.0000 L 3188.0000,4255.0000 L 3537.0000,4860.0000 L 4235.0000,4860.0000 L 4584.0000,4255.0000 L 4235.0000,3650.0000 Z" stroke="#000000" stroke-width="5.0000"  stroke-linecap="square"  stroke-linejoin="miter"  stroke-miterlimit="2.0000" fill="none" />
</g>
<g transform="matrix(1.0000 0.0000 0.0000 1.0000 0.0000 0.0000)">
</g>
<g transform="matrix(0.0625 0.0000 0.0000 0.0625 0.0000 0.0000)">
<path d="M 5284.0000,4255.0000 L 4586.0000,4255.0000 L 4237.0000,4860.0000 L 4586.0000,5464.0000 L 5284.0000,5464.0000 L 5634.0000,4860.0000 L 5284.0000,4255.0000 Z" stroke="#000000" stroke-width="5.0000"  stroke-linecap="square"  stroke-linejoin="miter"  stroke-miterlimit="2.0000" fill="none" />
</g>
<g transform="matrix(1.0000 0.0000 0.0000 1.0000 0.0000 0.0000)">
<defs><clipPath id="clip-424238335"><path d="M 0.0000,0.0000 L 746.0000,0.0000 L 746.0000,381.0000 L 0.0000,381.0000 L 0.0000,0.0000 Z Z" /></clipPath></defs>
</g>
<g transform="matrix(0.0625 0.0000 0.0000 0.0625 0.0000 0.0000)">
<path  clip-path="url(#clip-424238335)" d="M 4235.0000,4860.0000 L 3537.0000,4860.0000 L 3188.0000,5464.0000 L 3537.0000,6069.0000 L 4235.0000,6069.0000 L 4584.0000,5464.0000 L 4235.0000,4860.0000 Z" stroke="#000000" stroke-width="5.0000"  stroke-linecap="square"  stroke-linejoin="miter"  stroke-miterlimit="2.0000" fill="none" />
</g>
<g transform="matrix(1.0000 0.0000 0.0000 1.0000 0.0000 0.0000)">
</g>
<g transform="matrix(0.0625 0.0000 0.0000 0.0625 0.0000 0.0000)">
<path d="M 4387.0000,5061.0000 L 4236.0000,4656.0000 L 4086.0000,5060.0000 L 4109.0000,5060.0000 L 4117.0000,5041.0000 L 4236.0000,4973.0000 L 4353.0000,5037.0000 L 4362.0000,5060.0000 L 4387.0000,5061.0000 Z M 4235.0000,4847.0000 L 4303.0000,4910.0000 L 4235.0000,4948.0000 L 4168.0000,4911.0000 L 4235.0000,4847.0000 Z M 4180.0000,4869.0000 L 4200.0000,4815.0000 L 4219.0000,4832.0000 L 4180.0000,4869.0000 Z M 4251.0000,4832.0000 L 4270.0000,4814.0000 L 4290.0000,4868.0000 L 4251.0000,4832.0000 Z M 4262.0000,4791.0000 L 4235.0000,4817.0000 L 4209.0000,4792.0000 L 4236.0000,4720.0000 L 4262.0000,4791.0000 Z M 4128.0000,5008.0000 L 4157.0000,4930.0000 L 4213.0000,4961.0000 L 4128.0000,5008.0000 Z M 4258.0000,4961.0000 L 4313.0000,4930.0000 L 4342.0000,5007.0000 L 4258.0000,4961.0000 Z "  fill="#264379" stroke-width="1px" stroke="#264379" />
</g>
<g transform="matrix(1.0000 0.0000 0.0000 1.0000 0.0000 0.0000)">
</g>
<g transform="matrix(0.0625 0.0000 0.0000 0.0625 0.0000 0.0000)">
<path d="M 4387.0000,5061.0000 L 4236.0000,4656.0000 L 4086.0000,5060.0000 L 4109.0000,5060.0000 L 4117.0000,5041.0000 L 4236.0000,4973.0000 L 4353.0000,5037.0000 L 4362.0000,5060.0000 L 4387.0000,5061.0000 Z" stroke="#4672C4" stroke-width="5.0000"  stroke-linecap="square"  stroke-linejoin="miter"  stroke-miterlimit="2.0000" fill="none" />
<path d="M 4235.0000,4847.0000 L 4303.0000,4910.0000 L 4235.0000,4948.0000 L 4168.0000,4911.0000 L 4235.0000,4847.0000 " stroke="#4672C4" stroke-width="5.0000"  stroke-linecap="square"  stroke-linejoin="miter"  stroke-miterlimit="2.0000" fill="none" />
<path d="M 4180.0000,4869.0000 L 4200.0000,4815.0000 L 4219.0000,4832.0000 L 4180.0000,4869.0000 " stroke="#4672C4" stroke-width="5.0000"  stroke-linecap="square"  stroke-linejoin="miter"  stroke-miterlimit="2.0000" fill="none" />
<path d="M 4251.0000,4832.0000 L 4270.0000,4814.0000 L 4290.0000,4868.0000 L 4251.0000,4832.0000 " stroke="#4672C4" stroke-width="5.0000"  stroke-linecap="square"  stroke-linejoin="miter"  stroke-miterlimit="2.0000" fill="none" />
<path d="M 4262.0000,4791.0000 L 4235.0000,4817.0000 L 4209.0000,4792.0000 L 4236.0000,4720.0000 L 4262.0000,4791.0000 " stroke="#4672C4" stroke-width="5.0000"  stroke-linecap="square"  stroke-linejoin="miter"  stroke-miterlimit="2.0000" fill="none" />
<path d="M 4128.0000,5008.0000 L 4157.0000,4930.0000 L 4213.0000,4961.0000 L 4128.0000,5008.0000 " stroke="#4672C4" stroke-width="5.0000"  stroke-linecap="square"  stroke-linejoin="miter"  stroke-miterlimit="2.0000" fill="none" />
<path d="M 4258.0000,4961.0000 L 4313.0000,4930.0000 L 4342.0000,5007.0000 L 4258.0000,4961.0000 " stroke="#4672C4" stroke-width="5.0000"  stroke-linecap="square"  stroke-linejoin="miter"  stroke-miterlimit="2.0000" fill="none" />
</g>
<g transform="matrix(1.0000 0.0000 0.0000 1.0000 0.0000 0.0000)">
</g>
<g transform="matrix(0.0625 0.0000 0.0000 0.0625 0.0000 0.0000)">
<path d="M 4332.0000,4615.0000 C 4332.0000,4649.0000 4314.0000,4679.0000 4287.0000,4697.0000 L 4295.0000,4713.0000 C 4328.0000,4693.0000 4350.0000,4656.0000 4350.0000,4615.0000 C 4350.0000,4615.0000 4350.0000,4615.0000 4350.0000,4615.0000 C 4350.0000,4615.0000 4350.0000,4614.0000 4350.0000,4614.0000 C 4350.0000,4573.0000 4328.0000,4537.0000 4295.0000,4516.0000 L 4287.0000,4533.0000 C 4314.0000,4550.0000 4332.0000,4580.0000 4332.0000,4614.0000 C 4332.0000,4614.0000 4332.0000,4615.0000 4332.0000,4615.0000 L 4332.0000,4615.0000 C 4332.0000,4615.0000 4332.0000,4615.0000 4332.0000,4615.0000 C 4332.0000,4615.0000 4332.0000,4615.0000 4332.0000,4615.0000 L 4332.0000,4615.0000 C 4332.0000,4615.0000 4332.0000,4615.0000 4332.0000,4615.0000 Z M 4270.0000,4578.0000 C 4280.0000,4587.0000 4287.0000,4600.0000 4287.0000,4615.0000 C 4287.0000,4630.0000 4280.0000,4643.0000 4270.0000,4653.0000 L 4278.0000,4670.0000 C 4294.0000,4657.0000 4305.0000,4638.0000 4305.0000,4616.0000 L 4305.0000,4616.0000 C 4305.0000,4616.0000 4305.0000,4615.0000 4305.0000,4615.0000 C 4305.0000,4615.0000 4305.0000,4615.0000 4305.0000,4615.0000 C 4305.0000,4615.0000 4305.0000,4615.0000 4305.0000,4615.0000 C 4305.0000,4615.0000 4305.0000,4615.0000 4305.0000,4615.0000 L 4305.0000,4615.0000 C 4305.0000,4593.0000 4294.0000,4573.0000 4278.0000,4561.0000 L 4270.0000,4578.0000 Z M 4132.0000,4615.0000 C 4132.0000,4615.0000 4132.0000,4615.0000 4132.0000,4615.0000 L 4132.0000,4615.0000 C 4132.0000,4615.0000 4132.0000,4614.0000 4132.0000,4614.0000 C 4132.0000,4580.0000 4149.0000,4550.0000 4176.0000,4533.0000 L 4168.0000,4516.0000 C 4135.0000,4537.0000 4114.0000,4573.0000 4114.0000,4614.0000 C 4114.0000,4614.0000 4114.0000,4615.0000 4114.0000,4615.0000 C 4114.0000,4615.0000 4114.0000,4615.0000 4114.0000,4615.0000 C 4114.0000,4656.0000 4135.0000,4693.0000 4168.0000,4713.0000 L 4176.0000,4697.0000 C 4149.0000,4679.0000 4132.0000,4649.0000 4132.0000,4615.0000 Z M 4195.0000,4578.0000 L 4187.0000,4561.0000 C 4171.0000,4573.0000 4160.0000,4593.0000 4160.0000,4615.0000 L 4160.0000,4615.0000 C 4160.0000,4615.0000 4160.0000,4615.0000 4160.0000,4615.0000 C 4160.0000,4615.0000 4160.0000,4615.0000 4160.0000,4615.0000 C 4160.0000,4615.0000 4160.0000,4615.0000 4160.0000,4615.0000 C 4160.0000,4615.0000 4160.0000,4616.0000 4160.0000,4616.0000 L 4160.0000,4616.0000 C 4160.0000,4638.0000 4171.0000,4657.0000 4187.0000,4670.0000 L 4195.0000,4653.0000 C 4185.0000,4643.0000 4178.0000,4630.0000 4178.0000,4615.0000 C 4178.0000,4600.0000 4185.0000,4587.0000 4195.0000,4578.0000 Z M 4251.0000,4615.0000 C 4251.0000,4605.0000 4243.0000,4597.0000 4233.0000,4597.0000 C 4223.0000,4597.0000 4215.0000,4605.0000 4215.0000,4615.0000 C 4215.0000,4626.0000 4223.0000,4634.0000 4233.0000,4634.0000 C 4243.0000,4634.0000 4251.0000,4626.0000 4251.0000,4615.0000 Z "  fill="#96AFDE" stroke="none" />
</g>
<g transform="matrix(1.0000 0.0000 0.0000 1.0000 0.0000 0.0000)">
</g>
<g transform="matrix(0.0625 0.0000 0.0000 0.0625 0.0000 0.0000)">
<path d="M 4332.0000,4615.0000 C 4332.0000,4649.0000 4314.0000,4679.0000 4287.0000,4697.0000 L 4295.0000,4713.0000 C 4328.0000,4693.0000 4350.0000,4656.0000 4350.0000,4615.0000 C 4350.0000,4615.0000 4350.0000,4615.0000 4350.0000,4615.0000 C 4350.0000,4615.0000 4350.0000,4614.0000 4350.0000,4614.0000 C 4350.0000,4573.0000 4328.0000,4537.0000 4295.0000,4516.0000 L 4287.0000,4533.0000 C 4314.0000,4550.0000 4332.0000,4580.0000 4332.0000,4614.0000 C 4332.0000,4614.0000 4332.0000,4615.0000 4332.0000,4615.0000 L 4332.0000,4615.0000 C 4332.0000,4615.0000 4332.0000,4615.0000 4332.0000,4615.0000 C 4332.0000,4615.0000 4332.0000,4615.0000 4332.0000,4615.0000 L 4332.0000,4615.0000 C 4332.0000,4615.0000 4332.0000,4615.0000 4332.0000,4615.0000 Z M 4270.0000,4578.0000 C 4280.0000,4587.0000 4287.0000,4600.0000 4287.0000,4615.0000 C 4287.0000,4630.0000 4280.0000,4643.0000 4270.0000,4653.0000 L 4278.0000,4670.0000 C 4294.0000,4657.0000 4305.0000,4638.0000 4305.0000,4616.0000 L 4305.0000,4616.0000 C 4305.0000,4616.0000 4305.0000,4615.0000 4305.0000,4615.0000 C 4305.0000,4615.0000 4305.0000,4615.0000 4305.0000,4615.0000 C 4305.0000,4615.0000 4305.0000,4615.0000 4305.0000,4615.0000 C 4305.0000,4615.0000 4305.0000,4615.0000 4305.0000,4615.0000 L 4305.0000,4615.0000 C 4305.0000,4593.0000 4294.0000,4573.0000 4278.0000,4561.0000 L 4270.0000,4578.0000 Z M 4132.0000,4615.0000 C 4132.0000,4615.0000 4132.0000,4615.0000 4132.0000,4615.0000 L 4132.0000,4615.0000 C 4132.0000,4615.0000 4132.0000,4614.0000 4132.0000,4614.0000 C 4132.0000,4580.0000 4149.0000,4550.0000 4176.0000,4533.0000 L 4168.0000,4516.0000 C 4135.0000,4537.0000 4114.0000,4573.0000 4114.0000,4614.0000 C 4114.0000,4614.0000 4114.0000,4615.0000 4114.0000,4615.0000 C 4114.0000,4615.0000 4114.0000,4615.0000 4114.0000,4615.0000 C 4114.0000,4656.0000 4135.0000,4693.0000 4168.0000,4713.0000 L 4176.0000,4697.0000 C 4149.0000,4679.0000 4132.0000,4649.0000 4132.0000,4615.0000 Z M 4195.0000,4578.0000 L 4187.0000,4561.0000 C 4171.0000,4573.0000 4160.0000,4593.0000 4160.0000,4615.0000 L 4160.0000,4615.0000 C 4160.0000,4615.0000 4160.0000,4615.0000 4160.0000,4615.0000 C 4160.0000,4615.0000 4160.0000,4615.0000 4160.0000,4615.0000 C 4160.0000,4615.0000 4160.0000,4615.0000 4160.0000,4615.0000 C 4160.0000,4615.0000 4160.0000,4616.0000 4160.0000,4616.0000 L 4160.0000,4616.0000 C 4160.0000,4638.0000 4171.0000,4657.0000 4187.0000,4670.0000 L 4195.0000,4653.0000 C 4185.0000,4643.0000 4178.0000,4630.0000 4178.0000,4615.0000 C 4178.0000,4600.0000 4185.0000,4587.0000 4195.0000,4578.0000 Z M 4251.0000,4615.0000 C 4251.0000,4605.0000 4243.0000,4597.0000 4233.0000,4597.0000 C 4223.0000,4597.0000 4215.0000,4605.0000 4215.0000,4615.0000 C 4215.0000,4626.0000 4223.0000,4634.0000 4233.0000,4634.0000 C 4243.0000,4634.0000 4251.0000,4626.0000 4251.0000,4615.0000 Z " stroke="#4672C4" stroke-width="5.0000"  stroke-linecap="square"  stroke-linejoin="miter"  stroke-miterlimit="2.0000" fill="none" />
</g>
<g transform="matrix(1.0000 0.0000 0.0000 1.0000 0.0000 0.0000)">
</g>
</g>
</svg>
