<?xml version="1.0"  encoding="UTF-8" standalone="no"?>
<svg version="1.1" xmlns="http://www.w3.org/2000/svg" xmlns:xlink="http://www.w3.org/1999/xlink" width="495.0000" height="269.0000">
<g transform="translate(-1.0000, -1.0000)">
<g transform="matrix(0.0625 0.0000 0.0000 0.0625 0.0000 0.0000)">
<path d="M 997.0000,1021.0000 L 997.0000,1396.0000 L 1259.0000,1396.0000 L 1259.0000,1021.0000 L 997.0000,1021.0000 Z" stroke-width="1px" stroke="#FFFFFF"  fill="#FFFFFF" />
</g>
<g transform="matrix(1.0000 0.0000 0.0000 1.0000 0.0000 0.0000)">
<text font-family="宋体" fill="#000000" transform="rotate(-90, 74.0000, 93.9000) translate(0, 9.9000)" style ="white-space:pre;" font-weight="400" text-anchor="start" x="74.0000" y="84.0000" font-size="11.0000" ><![CDATA[1]]></text>
<text font-family="宋体" fill="#000000" transform="rotate(-90, 74.0000, 87.9000) translate(0, 9.9000)" style ="white-space:pre;" font-weight="400" text-anchor="start" x="74.0000" y="78.0000" font-size="11.0000" ><![CDATA[5]]></text>
<text font-family="宋体" fill="#000000" transform="rotate(-90, 74.0000, 82.9000) translate(0, 9.9000)" style ="white-space:pre;" font-weight="400" text-anchor="start" x="74.0000" y="73.0000" font-size="11.0000" ><![CDATA[m]]></text>
</g>
<g transform="matrix(0.0625 0.0000 0.0000 0.0625 0.0000 0.0000)">
<path d="M 971.0000,3102.0000 L 971.0000,3561.0000 L 1259.0000,3561.0000 L 1259.0000,3102.0000 L 971.0000,3102.0000 Z" stroke-width="1px" stroke="#FFFFFF"  fill="#FFFFFF" />
</g>
<g transform="matrix(1.0000 0.0000 0.0000 1.0000 0.0000 0.0000)">
<text font-family="宋体" fill="#000000" transform="rotate(-90, 73.0000, 225.9000) translate(0, 9.9000)" style ="white-space:pre;" font-weight="400" text-anchor="start" x="73.0000" y="216.0000" font-size="11.0000" ><![CDATA[1]]></text>
<text font-family="宋体" fill="#000000" transform="rotate(-90, 73.0000, 220.9000) translate(0, 9.9000)" style ="white-space:pre;" font-weight="400" text-anchor="start" x="73.0000" y="211.0000" font-size="11.0000" ><![CDATA[5]]></text>
<text font-family="宋体" fill="#000000" transform="rotate(-90, 73.0000, 215.9000) translate(0, 9.9000)" style ="white-space:pre;" font-weight="400" text-anchor="start" x="73.0000" y="206.0000" font-size="11.0000" ><![CDATA[m]]></text>
</g>
<g transform="matrix(0.0625 0.0000 0.0000 0.0625 0.0000 0.0000)">
<path d="M 654.0000,3755.0000 L 7911.0000,3755.0000 L 7911.0000,731.0000 L 654.0000,731.0000 L 654.0000,3755.0000 Z" stroke="#000000" stroke-width="5.0000"  stroke-linecap="round"  stroke-linejoin="round" fill="none" />
</g>
<g transform="matrix(1.0000 0.0000 0.0000 1.0000 0.0000 0.0000)">
</g>
<g transform="matrix(0.0625 0.0000 0.0000 0.0625 0.0000 0.0000)">
<path d="M 30.0000,1941.0000 L 30.0000,2497.0000 L 513.0000,2497.0000 L 513.0000,1941.0000 L 30.0000,1941.0000 Z" stroke-width="1px" stroke="#FFFFFF"  fill="#FFFFFF" />
</g>
<g transform="matrix(1.0000 0.0000 0.0000 1.0000 0.0000 0.0000)">
<text font-family="宋体" fill="#000000" style ="white-space:pre;" font-weight="400" text-anchor="start" x="9.0000" y="142.0000" font-size="11.0000" ><![CDATA[50]]></text>
<text font-family="宋体" fill="#000000" style ="white-space:pre;" font-weight="400" text-anchor="start" x="20.0000" y="142.0000" font-size="11.0000" ><![CDATA[m]]></text>
</g>
<g transform="matrix(0.0625 0.0000 0.0000 0.0625 0.0000 0.0000)">
<path d="M 3557.0000,3936.0000 L 3557.0000,4311.0000 L 4484.0000,4311.0000 L 4484.0000,3936.0000 L 3557.0000,3936.0000 Z" stroke-width="1px" stroke="#FFFFFF"  fill="#FFFFFF" />
</g>
<g transform="matrix(1.0000 0.0000 0.0000 1.0000 0.0000 0.0000)">
<text font-family="宋体" fill="#000000" style ="white-space:pre;" font-weight="400" text-anchor="start" x="241.0000" y="261.0000" font-size="11.0000" ><![CDATA[120]]></text>
<text font-family="宋体" fill="#000000" style ="white-space:pre;" font-weight="400" text-anchor="start" x="257.0000" y="261.0000" font-size="11.0000" ><![CDATA[m]]></text>
</g>
<g transform="matrix(0.0625 0.0000 0.0000 0.0625 0.0000 0.0000)">
<path d="M 1017.0000,54.0000 L 1017.0000,610.0000 L 2952.0000,610.0000 L 2952.0000,54.0000 L 1017.0000,54.0000 Z" stroke-width="1px" stroke="#FFFFFF"  fill="#FFFFFF" />
</g>
<g transform="matrix(1.0000 0.0000 0.0000 1.0000 0.0000 0.0000)">
<text font-family="宋体" fill="#000000" style ="white-space:pre;" font-weight="400" text-anchor="start" x="76.0000" y="24.0000" font-size="11.0000" ><![CDATA[gNBs of operator]]></text>
<text font-family="宋体" fill="#000000" style ="white-space:pre;" font-weight="400" text-anchor="start" x="161.0000" y="24.0000" font-size="11.0000" ><![CDATA[1]]></text>
<text font-family="宋体" fill="#000000" style ="white-space:pre;" font-weight="400" text-anchor="start" x="167.0000" y="24.0000" font-size="11.0000" ><![CDATA[:]]></text>
</g>
<g transform="matrix(0.0625 0.0000 0.0000 0.0625 0.0000 0.0000)">
<path d="M 4283.0000,30.0000 L 4283.0000,586.0000 L 6420.0000,586.0000 L 6420.0000,30.0000 L 4283.0000,30.0000 Z" stroke-width="1px" stroke="#FFFFFF"  fill="#FFFFFF" />
</g>
<g transform="matrix(1.0000 0.0000 0.0000 1.0000 0.0000 0.0000)">
<text font-family="宋体" fill="#000000" style ="white-space:pre;" font-weight="400" text-anchor="start" x="286.0000" y="22.0000" font-size="11.0000" ><![CDATA[gNBs of operator]]></text>
<text font-family="宋体" fill="#000000" style ="white-space:pre;" font-weight="400" text-anchor="start" x="372.0000" y="22.0000" font-size="11.0000" ><![CDATA[2]]></text>
<text font-family="宋体" fill="#000000" style ="white-space:pre;" font-weight="400" text-anchor="start" x="377.0000" y="22.0000" font-size="11.0000" ><![CDATA[:]]></text>
</g>
<g transform="matrix(0.0625 0.0000 0.0000 0.0625 0.0000 0.0000)">
<path d="M 1320.0000,1816.0000 C 1320.0000,1747.0000 1376.0000,1691.0000 1444.0000,1691.0000 C 1513.0000,1691.0000 1569.0000,1747.0000 1569.0000,1816.0000 C 1569.0000,1816.0000 1569.0000,1816.0000 1569.0000,1816.0000 C 1569.0000,1885.0000 1513.0000,1941.0000 1444.0000,1941.0000 C 1376.0000,1941.0000 1320.0000,1885.0000 1320.0000,1816.0000 "  fill="#FFFFFF" stroke="none" />
</g>
<g transform="matrix(1.0000 0.0000 0.0000 1.0000 0.0000 0.0000)">
</g>
<g transform="matrix(0.0625 0.0000 0.0000 0.0625 0.0000 0.0000)">
<path d="M 1320.0000,1816.0000 M 1320.0000,1816.0000 C 1320.0000,1747.0000 1376.0000,1691.0000 1444.0000,1691.0000 C 1513.0000,1691.0000 1569.0000,1747.0000 1569.0000,1816.0000 C 1569.0000,1816.0000 1569.0000,1816.0000 1569.0000,1816.0000 C 1569.0000,1885.0000 1513.0000,1941.0000 1444.0000,1941.0000 C 1376.0000,1941.0000 1320.0000,1885.0000 1320.0000,1816.0000 " stroke="#FFFFFF" stroke-width="5.0000"  stroke-linecap="round"  stroke-linejoin="round"  fill="none" />
</g>
<g transform="matrix(1.0000 0.0000 0.0000 1.0000 0.0000 0.0000)">
</g>
<g transform="matrix(0.0625 0.0000 0.0000 0.0625 0.0000 0.0000)">
<path d="M 1138.0000,1634.0000 C 1138.0000,1565.0000 1194.0000,1510.0000 1263.0000,1510.0000 C 1332.0000,1510.0000 1388.0000,1565.0000 1388.0000,1634.0000 C 1388.0000,1634.0000 1388.0000,1634.0000 1388.0000,1634.0000 C 1388.0000,1703.0000 1332.0000,1759.0000 1263.0000,1759.0000 C 1194.0000,1759.0000 1138.0000,1703.0000 1138.0000,1634.0000 "  fill="#FFFF00" stroke="none" />
</g>
<g transform="matrix(1.0000 0.0000 0.0000 1.0000 0.0000 0.0000)">
</g>
<g transform="matrix(0.0625 0.0000 0.0000 0.0625 0.0000 0.0000)">
<path d="M 1138.0000,1634.0000 M 1138.0000,1634.0000 C 1138.0000,1565.0000 1194.0000,1510.0000 1263.0000,1510.0000 C 1332.0000,1510.0000 1388.0000,1565.0000 1388.0000,1634.0000 C 1388.0000,1634.0000 1388.0000,1634.0000 1388.0000,1634.0000 C 1388.0000,1703.0000 1332.0000,1759.0000 1263.0000,1759.0000 C 1194.0000,1759.0000 1138.0000,1703.0000 1138.0000,1634.0000 " stroke="#000000" stroke-width="5.0000"  stroke-linecap="round"  stroke-linejoin="round"  fill="none" />
</g>
<g transform="matrix(1.0000 0.0000 0.0000 1.0000 0.0000 0.0000)">
</g>
<g transform="matrix(0.0625 0.0000 0.0000 0.0625 0.0000 0.0000)">
<path d="M 1138.0000,2844.0000 C 1138.0000,2775.0000 1194.0000,2719.0000 1263.0000,2719.0000 C 1332.0000,2719.0000 1388.0000,2775.0000 1388.0000,2844.0000 C 1388.0000,2844.0000 1388.0000,2844.0000 1388.0000,2844.0000 C 1388.0000,2913.0000 1332.0000,2969.0000 1263.0000,2969.0000 C 1194.0000,2969.0000 1138.0000,2913.0000 1138.0000,2844.0000 "  fill="#0070C0" stroke="none" />
</g>
<g transform="matrix(1.0000 0.0000 0.0000 1.0000 0.0000 0.0000)">
</g>
<g transform="matrix(0.0625 0.0000 0.0000 0.0625 0.0000 0.0000)">
<path d="M 1138.0000,2844.0000 M 1138.0000,2844.0000 C 1138.0000,2775.0000 1194.0000,2719.0000 1263.0000,2719.0000 C 1332.0000,2719.0000 1388.0000,2775.0000 1388.0000,2844.0000 C 1388.0000,2844.0000 1388.0000,2844.0000 1388.0000,2844.0000 C 1388.0000,2913.0000 1332.0000,2969.0000 1263.0000,2969.0000 C 1194.0000,2969.0000 1138.0000,2913.0000 1138.0000,2844.0000 " stroke="#000000" stroke-width="5.0000"  stroke-linecap="round"  stroke-linejoin="round"  fill="none" />
</g>
<g transform="matrix(1.0000 0.0000 0.0000 1.0000 0.0000 0.0000)">
</g>
<g transform="matrix(0.0625 0.0000 0.0000 0.0625 0.0000 0.0000)">
<path d="M 473.0000,893.0000 L 473.0000,3593.0000 " stroke="#000000" stroke-width="5.0000"  stroke-linecap="round"  stroke-linejoin="round" fill="none" />
</g>
<g transform="matrix(1.0000 0.0000 0.0000 1.0000 0.0000 0.0000)">
</g>
<g transform="matrix(0.0625 0.0000 0.0000 0.0625 0.0000 0.0000)">
<path d="M 414.0000,908.0000 L 473.0000,731.0000 L 532.0000,908.0000 L 414.0000,908.0000 Z" stroke-width="1px" stroke="#000000"  fill="#000000" />
</g>
<g transform="matrix(1.0000 0.0000 0.0000 1.0000 0.0000 0.0000)">
</g>
<g transform="matrix(0.0625 0.0000 0.0000 0.0625 0.0000 0.0000)">
<path d="M 532.0000,3578.0000 L 473.0000,3755.0000 L 414.0000,3578.0000 L 532.0000,3578.0000 Z" stroke-width="1px" stroke="#000000"  fill="#000000" />
</g>
<g transform="matrix(1.0000 0.0000 0.0000 1.0000 0.0000 0.0000)">
</g>
<g transform="matrix(0.0625 0.0000 0.0000 0.0625 0.0000 0.0000)">
<path d="M 816.0000,3936.0000 L 7749.0000,3936.0000 " stroke="#000000" stroke-width="5.0000"  stroke-linecap="round"  stroke-linejoin="round" fill="none" />
</g>
<g transform="matrix(1.0000 0.0000 0.0000 1.0000 0.0000 0.0000)">
</g>
<g transform="matrix(0.0625 0.0000 0.0000 0.0625 0.0000 0.0000)">
<path d="M 831.0000,3995.0000 L 654.0000,3936.0000 L 831.0000,3877.0000 L 831.0000,3995.0000 Z" stroke-width="1px" stroke="#000000"  fill="#000000" />
</g>
<g transform="matrix(1.0000 0.0000 0.0000 1.0000 0.0000 0.0000)">
</g>
<g transform="matrix(0.0625 0.0000 0.0000 0.0625 0.0000 0.0000)">
<path d="M 7735.0000,3877.0000 L 7911.0000,3936.0000 L 7735.0000,3995.0000 L 7735.0000,3877.0000 Z" stroke-width="1px" stroke="#000000"  fill="#000000" />
</g>
<g transform="matrix(1.0000 0.0000 0.0000 1.0000 0.0000 0.0000)">
</g>
<g transform="matrix(0.0625 0.0000 0.0000 0.0625 0.0000 0.0000)">
<path d="M 1256.0000,893.0000 L 1258.0000,1348.0000 " stroke="#000000" stroke-width="5.0000"  stroke-linecap="round"  stroke-linejoin="round" fill="none" />
</g>
<g transform="matrix(1.0000 0.0000 0.0000 1.0000 0.0000 0.0000)">
</g>
<g transform="matrix(0.0625 0.0000 0.0000 0.0625 0.0000 0.0000)">
<path d="M 1197.0000,908.0000 L 1255.0000,731.0000 L 1315.0000,907.0000 L 1197.0000,908.0000 Z" stroke-width="1px" stroke="#000000"  fill="#000000" />
</g>
<g transform="matrix(1.0000 0.0000 0.0000 1.0000 0.0000 0.0000)">
</g>
<g transform="matrix(0.0625 0.0000 0.0000 0.0625 0.0000 0.0000)">
<path d="M 1317.0000,1333.0000 L 1259.0000,1510.0000 L 1199.0000,1333.0000 L 1317.0000,1333.0000 Z" stroke-width="1px" stroke="#000000"  fill="#000000" />
</g>
<g transform="matrix(1.0000 0.0000 0.0000 1.0000 0.0000 0.0000)">
</g>
<g transform="matrix(0.0625 0.0000 0.0000 0.0625 0.0000 0.0000)">
<path d="M 1264.0000,3130.0000 L 1266.0000,3585.0000 " stroke="#000000" stroke-width="5.0000"  stroke-linecap="round"  stroke-linejoin="round" fill="none" />
</g>
<g transform="matrix(1.0000 0.0000 0.0000 1.0000 0.0000 0.0000)">
</g>
<g transform="matrix(0.0625 0.0000 0.0000 0.0625 0.0000 0.0000)">
<path d="M 1205.0000,3145.0000 L 1263.0000,2969.0000 L 1323.0000,3145.0000 L 1205.0000,3145.0000 Z" stroke-width="1px" stroke="#000000"  fill="#000000" />
</g>
<g transform="matrix(1.0000 0.0000 0.0000 1.0000 0.0000 0.0000)">
</g>
<g transform="matrix(0.0625 0.0000 0.0000 0.0625 0.0000 0.0000)">
<path d="M 1325.0000,3570.0000 L 1267.0000,3747.0000 L 1207.0000,3571.0000 L 1325.0000,3570.0000 Z" stroke-width="1px" stroke="#000000"  fill="#000000" />
</g>
<g transform="matrix(1.0000 0.0000 0.0000 1.0000 0.0000 0.0000)">
</g>
<g transform="matrix(0.0625 0.0000 0.0000 0.0625 0.0000 0.0000)">
<path d="M 1260.0000,1981.0000 L 1262.0000,2557.0000 " stroke="#000000" stroke-width="5.0000"  stroke-linecap="round"  stroke-linejoin="round" fill="none" />
</g>
<g transform="matrix(1.0000 0.0000 0.0000 1.0000 0.0000 0.0000)">
</g>
<g transform="matrix(0.0625 0.0000 0.0000 0.0625 0.0000 0.0000)">
<path d="M 1201.0000,1996.0000 L 1259.0000,1820.0000 L 1319.0000,1996.0000 L 1201.0000,1996.0000 Z" stroke-width="1px" stroke="#000000"  fill="#000000" />
</g>
<g transform="matrix(1.0000 0.0000 0.0000 1.0000 0.0000 0.0000)">
</g>
<g transform="matrix(0.0625 0.0000 0.0000 0.0625 0.0000 0.0000)">
<path d="M 1321.0000,2542.0000 L 1263.0000,2719.0000 L 1203.0000,2543.0000 L 1321.0000,2542.0000 Z" stroke-width="1px" stroke="#000000"  fill="#000000" />
</g>
<g transform="matrix(1.0000 0.0000 0.0000 1.0000 0.0000 0.0000)">
</g>
<g transform="matrix(0.0625 0.0000 0.0000 0.0625 0.0000 0.0000)">
<path d="M 816.0000,1638.0000 L 916.0000,1638.0000 " stroke="#000000" stroke-width="5.0000"  stroke-linecap="round"  stroke-linejoin="round" fill="none" />
</g>
<g transform="matrix(1.0000 0.0000 0.0000 1.0000 0.0000 0.0000)">
</g>
<g transform="matrix(0.0625 0.0000 0.0000 0.0625 0.0000 0.0000)">
<path d="M 831.0000,1697.0000 L 654.0000,1638.0000 L 831.0000,1579.0000 L 831.0000,1697.0000 Z" stroke-width="1px" stroke="#000000"  fill="#000000" />
</g>
<g transform="matrix(1.0000 0.0000 0.0000 1.0000 0.0000 0.0000)">
</g>
<g transform="matrix(0.0625 0.0000 0.0000 0.0625 0.0000 0.0000)">
<path d="M 901.0000,1579.0000 L 1078.0000,1638.0000 L 901.0000,1697.0000 L 901.0000,1579.0000 Z" stroke-width="1px" stroke="#000000"  fill="#000000" />
</g>
<g transform="matrix(1.0000 0.0000 0.0000 1.0000 0.0000 0.0000)">
</g>
<g transform="matrix(0.0625 0.0000 0.0000 0.0625 0.0000 0.0000)">
<path d="M 951.0000,2068.0000 L 951.0000,2491.0000 L 1259.0000,2491.0000 L 1259.0000,2068.0000 L 951.0000,2068.0000 Z" stroke-width="1px" stroke="#FFFFFF"  fill="#FFFFFF" />
</g>
<g transform="matrix(1.0000 0.0000 0.0000 1.0000 0.0000 0.0000)">
<text font-family="宋体" fill="#000000" transform="rotate(-90, 72.0000, 159.9000) translate(0, 9.9000)" style ="white-space:pre;" font-weight="400" text-anchor="start" x="72.0000" y="150.0000" font-size="11.0000" ><![CDATA[2]]></text>
<text font-family="宋体" fill="#000000" transform="rotate(-90, 72.0000, 154.9000) translate(0, 9.9000)" style ="white-space:pre;" font-weight="400" text-anchor="start" x="72.0000" y="145.0000" font-size="11.0000" ><![CDATA[0]]></text>
<text font-family="宋体" fill="#000000" transform="rotate(-90, 72.0000, 149.9000) translate(0, 9.9000)" style ="white-space:pre;" font-weight="400" text-anchor="start" x="72.0000" y="140.0000" font-size="11.0000" ><![CDATA[m]]></text>
</g>
<g transform="matrix(0.0625 0.0000 0.0000 0.0625 0.0000 0.0000)">
<path d="M 703.0000,1336.0000 L 703.0000,1598.0000 L 1078.0000,1598.0000 L 1078.0000,1336.0000 L 703.0000,1336.0000 Z" stroke-width="1px" stroke="#FFFFFF"  fill="#FFFFFF" />
</g>
<g transform="matrix(1.0000 0.0000 0.0000 1.0000 0.0000 0.0000)">
<text font-family="宋体" fill="#000000" style ="white-space:pre;" font-weight="400" text-anchor="start" x="48.0000" y="95.0000" font-size="11.0000" ><![CDATA[10]]></text>
<text font-family="宋体" fill="#000000" style ="white-space:pre;" font-weight="400" text-anchor="start" x="58.0000" y="95.0000" font-size="11.0000" ><![CDATA[m]]></text>
</g>
<g transform="matrix(0.0625 0.0000 0.0000 0.0625 0.0000 0.0000)">
<path d="M 2525.0000,3029.0000 C 2525.0000,2960.0000 2581.0000,2904.0000 2650.0000,2904.0000 C 2719.0000,2904.0000 2775.0000,2960.0000 2775.0000,3029.0000 C 2775.0000,3029.0000 2775.0000,3029.0000 2775.0000,3029.0000 C 2775.0000,3098.0000 2719.0000,3154.0000 2650.0000,3154.0000 C 2581.0000,3154.0000 2525.0000,3098.0000 2525.0000,3029.0000 "  fill="#FFFFFF" stroke="none" />
</g>
<g transform="matrix(1.0000 0.0000 0.0000 1.0000 0.0000 0.0000)">
</g>
<g transform="matrix(0.0625 0.0000 0.0000 0.0625 0.0000 0.0000)">
<path d="M 2525.0000,3029.0000 M 2525.0000,3029.0000 C 2525.0000,2960.0000 2581.0000,2904.0000 2650.0000,2904.0000 C 2719.0000,2904.0000 2775.0000,2960.0000 2775.0000,3029.0000 C 2775.0000,3029.0000 2775.0000,3029.0000 2775.0000,3029.0000 C 2775.0000,3098.0000 2719.0000,3154.0000 2650.0000,3154.0000 C 2581.0000,3154.0000 2525.0000,3098.0000 2525.0000,3029.0000 " stroke="#FFFFFF" stroke-width="5.0000"  stroke-linecap="round"  stroke-linejoin="round"  fill="none" />
</g>
<g transform="matrix(1.0000 0.0000 0.0000 1.0000 0.0000 0.0000)">
</g>
<g transform="matrix(0.0625 0.0000 0.0000 0.0625 0.0000 0.0000)">
<path d="M 2344.0000,2848.0000 C 2344.0000,2779.0000 2400.0000,2723.0000 2469.0000,2723.0000 C 2538.0000,2723.0000 2593.0000,2779.0000 2593.0000,2848.0000 C 2593.0000,2848.0000 2593.0000,2848.0000 2593.0000,2848.0000 C 2593.0000,2916.0000 2538.0000,2972.0000 2469.0000,2972.0000 C 2400.0000,2972.0000 2344.0000,2916.0000 2344.0000,2848.0000 "  fill="#FFFF00" stroke="none" />
</g>
<g transform="matrix(1.0000 0.0000 0.0000 1.0000 0.0000 0.0000)">
</g>
<g transform="matrix(0.0625 0.0000 0.0000 0.0625 0.0000 0.0000)">
<path d="M 2344.0000,2848.0000 M 2344.0000,2848.0000 C 2344.0000,2779.0000 2400.0000,2723.0000 2469.0000,2723.0000 C 2538.0000,2723.0000 2593.0000,2779.0000 2593.0000,2848.0000 C 2593.0000,2848.0000 2593.0000,2848.0000 2593.0000,2848.0000 C 2593.0000,2916.0000 2538.0000,2972.0000 2469.0000,2972.0000 C 2400.0000,2972.0000 2344.0000,2916.0000 2344.0000,2848.0000 " stroke="#000000" stroke-width="5.0000"  stroke-linecap="round"  stroke-linejoin="round"  fill="none" />
</g>
<g transform="matrix(1.0000 0.0000 0.0000 1.0000 0.0000 0.0000)">
</g>
<g transform="matrix(0.0625 0.0000 0.0000 0.0625 0.0000 0.0000)">
<path d="M 3553.0000,2848.0000 C 3553.0000,2779.0000 3609.0000,2723.0000 3678.0000,2723.0000 C 3747.0000,2723.0000 3803.0000,2779.0000 3803.0000,2848.0000 C 3803.0000,2848.0000 3803.0000,2848.0000 3803.0000,2848.0000 C 3803.0000,2916.0000 3747.0000,2972.0000 3678.0000,2972.0000 C 3609.0000,2972.0000 3553.0000,2916.0000 3553.0000,2848.0000 "  fill="#0070C0" stroke="none" />
</g>
<g transform="matrix(1.0000 0.0000 0.0000 1.0000 0.0000 0.0000)">
</g>
<g transform="matrix(0.0625 0.0000 0.0000 0.0625 0.0000 0.0000)">
<path d="M 3553.0000,2848.0000 M 3553.0000,2848.0000 C 3553.0000,2779.0000 3609.0000,2723.0000 3678.0000,2723.0000 C 3747.0000,2723.0000 3803.0000,2779.0000 3803.0000,2848.0000 C 3803.0000,2848.0000 3803.0000,2848.0000 3803.0000,2848.0000 C 3803.0000,2916.0000 3747.0000,2972.0000 3678.0000,2972.0000 C 3609.0000,2972.0000 3553.0000,2916.0000 3553.0000,2848.0000 " stroke="#000000" stroke-width="5.0000"  stroke-linecap="round"  stroke-linejoin="round"  fill="none" />
</g>
<g transform="matrix(1.0000 0.0000 0.0000 1.0000 0.0000 0.0000)">
</g>
<g transform="matrix(0.0625 0.0000 0.0000 0.0625 0.0000 0.0000)">
<path d="M 5972.0000,2848.0000 C 5972.0000,2779.0000 6028.0000,2723.0000 6097.0000,2723.0000 C 6166.0000,2723.0000 6222.0000,2779.0000 6222.0000,2848.0000 C 6222.0000,2848.0000 6222.0000,2848.0000 6222.0000,2848.0000 C 6222.0000,2916.0000 6166.0000,2972.0000 6097.0000,2972.0000 C 6028.0000,2972.0000 5972.0000,2916.0000 5972.0000,2848.0000 "  fill="#0070C0" stroke="none" />
</g>
<g transform="matrix(1.0000 0.0000 0.0000 1.0000 0.0000 0.0000)">
</g>
<g transform="matrix(0.0625 0.0000 0.0000 0.0625 0.0000 0.0000)">
<path d="M 5972.0000,2848.0000 M 5972.0000,2848.0000 C 5972.0000,2779.0000 6028.0000,2723.0000 6097.0000,2723.0000 C 6166.0000,2723.0000 6222.0000,2779.0000 6222.0000,2848.0000 C 6222.0000,2848.0000 6222.0000,2848.0000 6222.0000,2848.0000 C 6222.0000,2916.0000 6166.0000,2972.0000 6097.0000,2972.0000 C 6028.0000,2972.0000 5972.0000,2916.0000 5972.0000,2848.0000 " stroke="#000000" stroke-width="5.0000"  stroke-linecap="round"  stroke-linejoin="round"  fill="none" />
</g>
<g transform="matrix(1.0000 0.0000 0.0000 1.0000 0.0000 0.0000)">
</g>
<g transform="matrix(0.0625 0.0000 0.0000 0.0625 0.0000 0.0000)">
<path d="M 4944.0000,3029.0000 C 4944.0000,2960.0000 5000.0000,2904.0000 5069.0000,2904.0000 C 5138.0000,2904.0000 5194.0000,2960.0000 5194.0000,3029.0000 C 5194.0000,3029.0000 5194.0000,3029.0000 5194.0000,3029.0000 C 5194.0000,3098.0000 5138.0000,3154.0000 5069.0000,3154.0000 C 5000.0000,3154.0000 4944.0000,3098.0000 4944.0000,3029.0000 "  fill="#FFFFFF" stroke="none" />
</g>
<g transform="matrix(1.0000 0.0000 0.0000 1.0000 0.0000 0.0000)">
</g>
<g transform="matrix(0.0625 0.0000 0.0000 0.0625 0.0000 0.0000)">
<path d="M 4944.0000,3029.0000 M 4944.0000,3029.0000 C 4944.0000,2960.0000 5000.0000,2904.0000 5069.0000,2904.0000 C 5138.0000,2904.0000 5194.0000,2960.0000 5194.0000,3029.0000 C 5194.0000,3029.0000 5194.0000,3029.0000 5194.0000,3029.0000 C 5194.0000,3098.0000 5138.0000,3154.0000 5069.0000,3154.0000 C 5000.0000,3154.0000 4944.0000,3098.0000 4944.0000,3029.0000 " stroke="#FFFFFF" stroke-width="5.0000"  stroke-linecap="round"  stroke-linejoin="round"  fill="none" />
</g>
<g transform="matrix(1.0000 0.0000 0.0000 1.0000 0.0000 0.0000)">
</g>
<g transform="matrix(0.0625 0.0000 0.0000 0.0625 0.0000 0.0000)">
<path d="M 4763.0000,2848.0000 C 4763.0000,2779.0000 4819.0000,2723.0000 4888.0000,2723.0000 C 4956.0000,2723.0000 5012.0000,2779.0000 5012.0000,2848.0000 C 5012.0000,2848.0000 5012.0000,2848.0000 5012.0000,2848.0000 C 5012.0000,2916.0000 4956.0000,2972.0000 4888.0000,2972.0000 C 4819.0000,2972.0000 4763.0000,2916.0000 4763.0000,2848.0000 "  fill="#FFFF00" stroke="none" />
</g>
<g transform="matrix(1.0000 0.0000 0.0000 1.0000 0.0000 0.0000)">
</g>
<g transform="matrix(0.0625 0.0000 0.0000 0.0625 0.0000 0.0000)">
<path d="M 4763.0000,2848.0000 M 4763.0000,2848.0000 C 4763.0000,2779.0000 4819.0000,2723.0000 4888.0000,2723.0000 C 4956.0000,2723.0000 5012.0000,2779.0000 5012.0000,2848.0000 C 5012.0000,2848.0000 5012.0000,2848.0000 5012.0000,2848.0000 C 5012.0000,2916.0000 4956.0000,2972.0000 4888.0000,2972.0000 C 4819.0000,2972.0000 4763.0000,2916.0000 4763.0000,2848.0000 " stroke="#000000" stroke-width="5.0000"  stroke-linecap="round"  stroke-linejoin="round"  fill="none" />
</g>
<g transform="matrix(1.0000 0.0000 0.0000 1.0000 0.0000 0.0000)">
</g>
<g transform="matrix(0.0625 0.0000 0.0000 0.0625 0.0000 0.0000)">
<path d="M 3735.0000,1820.0000 C 3735.0000,1751.0000 3791.0000,1695.0000 3860.0000,1695.0000 C 3928.0000,1695.0000 3984.0000,1751.0000 3984.0000,1820.0000 C 3984.0000,1820.0000 3984.0000,1820.0000 3984.0000,1820.0000 C 3984.0000,1888.0000 3928.0000,1944.0000 3860.0000,1944.0000 C 3791.0000,1944.0000 3735.0000,1888.0000 3735.0000,1820.0000 "  fill="#FFFFFF" stroke="none" />
</g>
<g transform="matrix(1.0000 0.0000 0.0000 1.0000 0.0000 0.0000)">
</g>
<g transform="matrix(0.0625 0.0000 0.0000 0.0625 0.0000 0.0000)">
<path d="M 3735.0000,1820.0000 M 3735.0000,1820.0000 C 3735.0000,1751.0000 3791.0000,1695.0000 3860.0000,1695.0000 C 3928.0000,1695.0000 3984.0000,1751.0000 3984.0000,1820.0000 C 3984.0000,1820.0000 3984.0000,1820.0000 3984.0000,1820.0000 C 3984.0000,1888.0000 3928.0000,1944.0000 3860.0000,1944.0000 C 3791.0000,1944.0000 3735.0000,1888.0000 3735.0000,1820.0000 " stroke="#FFFFFF" stroke-width="5.0000"  stroke-linecap="round"  stroke-linejoin="round"  fill="none" />
</g>
<g transform="matrix(1.0000 0.0000 0.0000 1.0000 0.0000 0.0000)">
</g>
<g transform="matrix(0.0625 0.0000 0.0000 0.0625 0.0000 0.0000)">
<path d="M 3553.0000,1638.0000 C 3553.0000,1569.0000 3609.0000,1513.0000 3678.0000,1513.0000 C 3747.0000,1513.0000 3803.0000,1569.0000 3803.0000,1638.0000 C 3803.0000,1638.0000 3803.0000,1638.0000 3803.0000,1638.0000 C 3803.0000,1707.0000 3747.0000,1763.0000 3678.0000,1763.0000 C 3609.0000,1763.0000 3553.0000,1707.0000 3553.0000,1638.0000 "  fill="#FFFF00" stroke="none" />
</g>
<g transform="matrix(1.0000 0.0000 0.0000 1.0000 0.0000 0.0000)">
</g>
<g transform="matrix(0.0625 0.0000 0.0000 0.0625 0.0000 0.0000)">
<path d="M 3553.0000,1638.0000 M 3553.0000,1638.0000 C 3553.0000,1569.0000 3609.0000,1513.0000 3678.0000,1513.0000 C 3747.0000,1513.0000 3803.0000,1569.0000 3803.0000,1638.0000 C 3803.0000,1638.0000 3803.0000,1638.0000 3803.0000,1638.0000 C 3803.0000,1707.0000 3747.0000,1763.0000 3678.0000,1763.0000 C 3609.0000,1763.0000 3553.0000,1707.0000 3553.0000,1638.0000 " stroke="#000000" stroke-width="5.0000"  stroke-linecap="round"  stroke-linejoin="round"  fill="none" />
</g>
<g transform="matrix(1.0000 0.0000 0.0000 1.0000 0.0000 0.0000)">
</g>
<g transform="matrix(0.0625 0.0000 0.0000 0.0625 0.0000 0.0000)">
<path d="M 7363.0000,3029.0000 C 7363.0000,2960.0000 7419.0000,2904.0000 7488.0000,2904.0000 C 7557.0000,2904.0000 7613.0000,2960.0000 7613.0000,3029.0000 C 7613.0000,3029.0000 7613.0000,3029.0000 7613.0000,3029.0000 C 7613.0000,3098.0000 7557.0000,3154.0000 7488.0000,3154.0000 C 7419.0000,3154.0000 7363.0000,3098.0000 7363.0000,3029.0000 "  fill="#FFFFFF" stroke="none" />
</g>
<g transform="matrix(1.0000 0.0000 0.0000 1.0000 0.0000 0.0000)">
</g>
<g transform="matrix(0.0625 0.0000 0.0000 0.0625 0.0000 0.0000)">
<path d="M 7363.0000,3029.0000 M 7363.0000,3029.0000 C 7363.0000,2960.0000 7419.0000,2904.0000 7488.0000,2904.0000 C 7557.0000,2904.0000 7613.0000,2960.0000 7613.0000,3029.0000 C 7613.0000,3029.0000 7613.0000,3029.0000 7613.0000,3029.0000 C 7613.0000,3098.0000 7557.0000,3154.0000 7488.0000,3154.0000 C 7419.0000,3154.0000 7363.0000,3098.0000 7363.0000,3029.0000 " stroke="#FFFFFF" stroke-width="5.0000"  stroke-linecap="round"  stroke-linejoin="round"  fill="none" />
</g>
<g transform="matrix(1.0000 0.0000 0.0000 1.0000 0.0000 0.0000)">
</g>
<g transform="matrix(0.0625 0.0000 0.0000 0.0625 0.0000 0.0000)">
<path d="M 7182.0000,2848.0000 C 7182.0000,2779.0000 7238.0000,2723.0000 7306.0000,2723.0000 C 7375.0000,2723.0000 7431.0000,2779.0000 7431.0000,2848.0000 C 7431.0000,2848.0000 7431.0000,2848.0000 7431.0000,2848.0000 C 7431.0000,2916.0000 7375.0000,2972.0000 7306.0000,2972.0000 C 7238.0000,2972.0000 7182.0000,2916.0000 7182.0000,2848.0000 "  fill="#FFFF00" stroke="none" />
</g>
<g transform="matrix(1.0000 0.0000 0.0000 1.0000 0.0000 0.0000)">
</g>
<g transform="matrix(0.0625 0.0000 0.0000 0.0625 0.0000 0.0000)">
<path d="M 7182.0000,2848.0000 M 7182.0000,2848.0000 C 7182.0000,2779.0000 7238.0000,2723.0000 7306.0000,2723.0000 C 7375.0000,2723.0000 7431.0000,2779.0000 7431.0000,2848.0000 C 7431.0000,2848.0000 7431.0000,2848.0000 7431.0000,2848.0000 C 7431.0000,2916.0000 7375.0000,2972.0000 7306.0000,2972.0000 C 7238.0000,2972.0000 7182.0000,2916.0000 7182.0000,2848.0000 " stroke="#000000" stroke-width="5.0000"  stroke-linecap="round"  stroke-linejoin="round"  fill="none" />
</g>
<g transform="matrix(1.0000 0.0000 0.0000 1.0000 0.0000 0.0000)">
</g>
<g transform="matrix(0.0625 0.0000 0.0000 0.0625 0.0000 0.0000)">
<path d="M 7182.0000,1638.0000 C 7182.0000,1569.0000 7238.0000,1513.0000 7306.0000,1513.0000 C 7375.0000,1513.0000 7431.0000,1569.0000 7431.0000,1638.0000 C 7431.0000,1638.0000 7431.0000,1638.0000 7431.0000,1638.0000 C 7431.0000,1707.0000 7375.0000,1763.0000 7306.0000,1763.0000 C 7238.0000,1763.0000 7182.0000,1707.0000 7182.0000,1638.0000 "  fill="#0070C0" stroke="none" />
</g>
<g transform="matrix(1.0000 0.0000 0.0000 1.0000 0.0000 0.0000)">
</g>
<g transform="matrix(0.0625 0.0000 0.0000 0.0625 0.0000 0.0000)">
<path d="M 7182.0000,1638.0000 M 7182.0000,1638.0000 C 7182.0000,1569.0000 7238.0000,1513.0000 7306.0000,1513.0000 C 7375.0000,1513.0000 7431.0000,1569.0000 7431.0000,1638.0000 C 7431.0000,1638.0000 7431.0000,1638.0000 7431.0000,1638.0000 C 7431.0000,1707.0000 7375.0000,1763.0000 7306.0000,1763.0000 C 7238.0000,1763.0000 7182.0000,1707.0000 7182.0000,1638.0000 " stroke="#000000" stroke-width="5.0000"  stroke-linecap="round"  stroke-linejoin="round"  fill="none" />
</g>
<g transform="matrix(1.0000 0.0000 0.0000 1.0000 0.0000 0.0000)">
</g>
<g transform="matrix(0.0625 0.0000 0.0000 0.0625 0.0000 0.0000)">
<path d="M 2344.0000,1638.0000 C 2344.0000,1569.0000 2400.0000,1513.0000 2469.0000,1513.0000 C 2538.0000,1513.0000 2593.0000,1569.0000 2593.0000,1638.0000 C 2593.0000,1638.0000 2593.0000,1638.0000 2593.0000,1638.0000 C 2593.0000,1707.0000 2538.0000,1763.0000 2469.0000,1763.0000 C 2400.0000,1763.0000 2344.0000,1707.0000 2344.0000,1638.0000 "  fill="#0070C0" stroke="none" />
</g>
<g transform="matrix(1.0000 0.0000 0.0000 1.0000 0.0000 0.0000)">
</g>
<g transform="matrix(0.0625 0.0000 0.0000 0.0625 0.0000 0.0000)">
<path d="M 2344.0000,1638.0000 M 2344.0000,1638.0000 C 2344.0000,1569.0000 2400.0000,1513.0000 2469.0000,1513.0000 C 2538.0000,1513.0000 2593.0000,1569.0000 2593.0000,1638.0000 C 2593.0000,1638.0000 2593.0000,1638.0000 2593.0000,1638.0000 C 2593.0000,1707.0000 2538.0000,1763.0000 2469.0000,1763.0000 C 2400.0000,1763.0000 2344.0000,1707.0000 2344.0000,1638.0000 " stroke="#000000" stroke-width="5.0000"  stroke-linecap="round"  stroke-linejoin="round"  fill="none" />
</g>
<g transform="matrix(1.0000 0.0000 0.0000 1.0000 0.0000 0.0000)">
</g>
<g transform="matrix(0.0625 0.0000 0.0000 0.0625 0.0000 0.0000)">
<path d="M 4763.0000,1638.0000 C 4763.0000,1569.0000 4819.0000,1513.0000 4888.0000,1513.0000 C 4956.0000,1513.0000 5012.0000,1569.0000 5012.0000,1638.0000 C 5012.0000,1638.0000 5012.0000,1638.0000 5012.0000,1638.0000 C 5012.0000,1707.0000 4956.0000,1763.0000 4888.0000,1763.0000 C 4819.0000,1763.0000 4763.0000,1707.0000 4763.0000,1638.0000 "  fill="#0070C0" stroke="none" />
</g>
<g transform="matrix(1.0000 0.0000 0.0000 1.0000 0.0000 0.0000)">
</g>
<g transform="matrix(0.0625 0.0000 0.0000 0.0625 0.0000 0.0000)">
<path d="M 4763.0000,1638.0000 M 4763.0000,1638.0000 C 4763.0000,1569.0000 4819.0000,1513.0000 4888.0000,1513.0000 C 4956.0000,1513.0000 5012.0000,1569.0000 5012.0000,1638.0000 C 5012.0000,1638.0000 5012.0000,1638.0000 5012.0000,1638.0000 C 5012.0000,1707.0000 4956.0000,1763.0000 4888.0000,1763.0000 C 4819.0000,1763.0000 4763.0000,1707.0000 4763.0000,1638.0000 " stroke="#000000" stroke-width="5.0000"  stroke-linecap="round"  stroke-linejoin="round"  fill="none" />
</g>
<g transform="matrix(1.0000 0.0000 0.0000 1.0000 0.0000 0.0000)">
</g>
<g transform="matrix(0.0625 0.0000 0.0000 0.0625 0.0000 0.0000)">
<path d="M 6154.0000,1820.0000 C 6154.0000,1751.0000 6210.0000,1695.0000 6278.0000,1695.0000 C 6347.0000,1695.0000 6403.0000,1751.0000 6403.0000,1820.0000 C 6403.0000,1820.0000 6403.0000,1820.0000 6403.0000,1820.0000 C 6403.0000,1888.0000 6347.0000,1944.0000 6278.0000,1944.0000 C 6210.0000,1944.0000 6154.0000,1888.0000 6154.0000,1820.0000 "  fill="#FFFFFF" stroke="none" />
</g>
<g transform="matrix(1.0000 0.0000 0.0000 1.0000 0.0000 0.0000)">
</g>
<g transform="matrix(0.0625 0.0000 0.0000 0.0625 0.0000 0.0000)">
<path d="M 6154.0000,1820.0000 M 6154.0000,1820.0000 C 6154.0000,1751.0000 6210.0000,1695.0000 6278.0000,1695.0000 C 6347.0000,1695.0000 6403.0000,1751.0000 6403.0000,1820.0000 C 6403.0000,1820.0000 6403.0000,1820.0000 6403.0000,1820.0000 C 6403.0000,1888.0000 6347.0000,1944.0000 6278.0000,1944.0000 C 6210.0000,1944.0000 6154.0000,1888.0000 6154.0000,1820.0000 " stroke="#FFFFFF" stroke-width="5.0000"  stroke-linecap="round"  stroke-linejoin="round"  fill="none" />
</g>
<g transform="matrix(1.0000 0.0000 0.0000 1.0000 0.0000 0.0000)">
</g>
<g transform="matrix(0.0625 0.0000 0.0000 0.0625 0.0000 0.0000)">
<path d="M 5972.0000,1638.0000 C 5972.0000,1569.0000 6028.0000,1513.0000 6097.0000,1513.0000 C 6166.0000,1513.0000 6222.0000,1569.0000 6222.0000,1638.0000 C 6222.0000,1638.0000 6222.0000,1638.0000 6222.0000,1638.0000 C 6222.0000,1707.0000 6166.0000,1763.0000 6097.0000,1763.0000 C 6028.0000,1763.0000 5972.0000,1707.0000 5972.0000,1638.0000 "  fill="#FFFF00" stroke="none" />
</g>
<g transform="matrix(1.0000 0.0000 0.0000 1.0000 0.0000 0.0000)">
</g>
<g transform="matrix(0.0625 0.0000 0.0000 0.0625 0.0000 0.0000)">
<path d="M 5972.0000,1638.0000 M 5972.0000,1638.0000 C 5972.0000,1569.0000 6028.0000,1513.0000 6097.0000,1513.0000 C 6166.0000,1513.0000 6222.0000,1569.0000 6222.0000,1638.0000 C 6222.0000,1638.0000 6222.0000,1638.0000 6222.0000,1638.0000 C 6222.0000,1707.0000 6166.0000,1763.0000 6097.0000,1763.0000 C 6028.0000,1763.0000 5972.0000,1707.0000 5972.0000,1638.0000 " stroke="#000000" stroke-width="5.0000"  stroke-linecap="round"  stroke-linejoin="round"  fill="none" />
</g>
<g transform="matrix(1.0000 0.0000 0.0000 1.0000 0.0000 0.0000)">
</g>
<g transform="matrix(0.0625 0.0000 0.0000 0.0625 0.0000 0.0000)">
<path d="M 6581.0000,312.0000 C 6581.0000,243.0000 6637.0000,187.0000 6705.0000,187.0000 C 6774.0000,187.0000 6830.0000,243.0000 6830.0000,312.0000 C 6830.0000,312.0000 6830.0000,312.0000 6830.0000,312.0000 C 6830.0000,380.0000 6774.0000,436.0000 6705.0000,436.0000 C 6637.0000,436.0000 6581.0000,380.0000 6581.0000,312.0000 "  fill="#0070C0" stroke="none" />
</g>
<g transform="matrix(1.0000 0.0000 0.0000 1.0000 0.0000 0.0000)">
</g>
<g transform="matrix(0.0625 0.0000 0.0000 0.0625 0.0000 0.0000)">
<path d="M 6581.0000,312.0000 M 6581.0000,312.0000 C 6581.0000,243.0000 6637.0000,187.0000 6705.0000,187.0000 C 6774.0000,187.0000 6830.0000,243.0000 6830.0000,312.0000 C 6830.0000,312.0000 6830.0000,312.0000 6830.0000,312.0000 C 6830.0000,380.0000 6774.0000,436.0000 6705.0000,436.0000 C 6637.0000,436.0000 6581.0000,380.0000 6581.0000,312.0000 " stroke="#000000" stroke-width="5.0000"  stroke-linecap="round"  stroke-linejoin="round"  fill="none" />
</g>
<g transform="matrix(1.0000 0.0000 0.0000 1.0000 0.0000 0.0000)">
</g>
<g transform="matrix(0.0625 0.0000 0.0000 0.0625 0.0000 0.0000)">
<path d="M 3497.0000,550.0000 C 3497.0000,481.0000 3553.0000,425.0000 3621.0000,425.0000 C 3690.0000,425.0000 3746.0000,481.0000 3746.0000,550.0000 C 3746.0000,550.0000 3746.0000,550.0000 3746.0000,550.0000 C 3746.0000,619.0000 3690.0000,674.0000 3621.0000,674.0000 C 3553.0000,674.0000 3497.0000,619.0000 3497.0000,550.0000 "  fill="#FFFFFF" stroke="none" />
</g>
<g transform="matrix(1.0000 0.0000 0.0000 1.0000 0.0000 0.0000)">
</g>
<g transform="matrix(0.0625 0.0000 0.0000 0.0625 0.0000 0.0000)">
<path d="M 3497.0000,550.0000 M 3497.0000,550.0000 C 3497.0000,481.0000 3553.0000,425.0000 3621.0000,425.0000 C 3690.0000,425.0000 3746.0000,481.0000 3746.0000,550.0000 C 3746.0000,550.0000 3746.0000,550.0000 3746.0000,550.0000 C 3746.0000,619.0000 3690.0000,674.0000 3621.0000,674.0000 C 3553.0000,674.0000 3497.0000,619.0000 3497.0000,550.0000 " stroke="#FFFFFF" stroke-width="5.0000"  stroke-linecap="round"  stroke-linejoin="round"  fill="none" />
</g>
<g transform="matrix(1.0000 0.0000 0.0000 1.0000 0.0000 0.0000)">
</g>
<g transform="matrix(0.0625 0.0000 0.0000 0.0625 0.0000 0.0000)">
<path d="M 3315.0000,368.0000 C 3315.0000,299.0000 3371.0000,244.0000 3440.0000,244.0000 C 3509.0000,244.0000 3565.0000,299.0000 3565.0000,368.0000 C 3565.0000,368.0000 3565.0000,368.0000 3565.0000,368.0000 C 3565.0000,437.0000 3509.0000,493.0000 3440.0000,493.0000 C 3371.0000,493.0000 3315.0000,437.0000 3315.0000,368.0000 "  fill="#FFFF00" stroke="none" />
</g>
<g transform="matrix(1.0000 0.0000 0.0000 1.0000 0.0000 0.0000)">
</g>
<g transform="matrix(0.0625 0.0000 0.0000 0.0625 0.0000 0.0000)">
<path d="M 3315.0000,368.0000 M 3315.0000,368.0000 C 3315.0000,299.0000 3371.0000,244.0000 3440.0000,244.0000 C 3509.0000,244.0000 3565.0000,299.0000 3565.0000,368.0000 C 3565.0000,368.0000 3565.0000,368.0000 3565.0000,368.0000 C 3565.0000,437.0000 3509.0000,493.0000 3440.0000,493.0000 C 3371.0000,493.0000 3315.0000,437.0000 3315.0000,368.0000 " stroke="#000000" stroke-width="5.0000"  stroke-linecap="round"  stroke-linejoin="round"  fill="none" />
</g>
<g transform="matrix(1.0000 0.0000 0.0000 1.0000 0.0000 0.0000)">
</g>
<g transform="matrix(0.0625 0.0000 0.0000 0.0625 0.0000 0.0000)">
<path d="M 1550.0000,1634.0000 L 2199.0000,1634.0000 L 2199.0000,1638.0000 L 2344.0000,1638.0000 " stroke="#000000" stroke-width="5.0000"  stroke-linecap="round"  stroke-linejoin="round" fill="none" />
</g>
<g transform="matrix(1.0000 0.0000 0.0000 1.0000 0.0000 0.0000)">
</g>
<g transform="matrix(0.0625 0.0000 0.0000 0.0625 0.0000 0.0000)">
<path d="M 1564.0000,1693.0000 L 1388.0000,1634.0000 L 1564.0000,1575.0000 L 1564.0000,1693.0000 Z" stroke-width="1px" stroke="#000000"  fill="#000000" />
</g>
<g transform="matrix(1.0000 0.0000 0.0000 1.0000 0.0000 0.0000)">
</g>
<g transform="matrix(0.0625 0.0000 0.0000 0.0625 0.0000 0.0000)">
<path d="M 2167.0000,1579.0000 L 2344.0000,1638.0000 L 2167.0000,1697.0000 L 2167.0000,1579.0000 Z" stroke-width="1px" stroke="#000000"  fill="#000000" />
</g>
<g transform="matrix(1.0000 0.0000 0.0000 1.0000 0.0000 0.0000)">
</g>
<g transform="matrix(0.0625 0.0000 0.0000 0.0625 0.0000 0.0000)">
<path d="M 5174.0000,1638.0000 L 5810.0000,1638.0000 " stroke="#000000" stroke-width="5.0000"  stroke-linecap="round"  stroke-linejoin="round" fill="none" />
</g>
<g transform="matrix(1.0000 0.0000 0.0000 1.0000 0.0000 0.0000)">
</g>
<g transform="matrix(0.0625 0.0000 0.0000 0.0625 0.0000 0.0000)">
<path d="M 5189.0000,1697.0000 L 5012.0000,1638.0000 L 5189.0000,1579.0000 L 5189.0000,1697.0000 Z" stroke-width="1px" stroke="#000000"  fill="#000000" />
</g>
<g transform="matrix(1.0000 0.0000 0.0000 1.0000 0.0000 0.0000)">
</g>
<g transform="matrix(0.0625 0.0000 0.0000 0.0625 0.0000 0.0000)">
<path d="M 5796.0000,1579.0000 L 5972.0000,1638.0000 L 5796.0000,1697.0000 L 5796.0000,1579.0000 Z" stroke-width="1px" stroke="#000000"  fill="#000000" />
</g>
<g transform="matrix(1.0000 0.0000 0.0000 1.0000 0.0000 0.0000)">
</g>
<g transform="matrix(0.0625 0.0000 0.0000 0.0625 0.0000 0.0000)">
<path d="M 3965.0000,1638.0000 L 4601.0000,1638.0000 " stroke="#000000" stroke-width="5.0000"  stroke-linecap="round"  stroke-linejoin="round" fill="none" />
</g>
<g transform="matrix(1.0000 0.0000 0.0000 1.0000 0.0000 0.0000)">
</g>
<g transform="matrix(0.0625 0.0000 0.0000 0.0625 0.0000 0.0000)">
<path d="M 3979.0000,1697.0000 L 3803.0000,1638.0000 L 3979.0000,1579.0000 L 3979.0000,1697.0000 Z" stroke-width="1px" stroke="#000000"  fill="#000000" />
</g>
<g transform="matrix(1.0000 0.0000 0.0000 1.0000 0.0000 0.0000)">
</g>
<g transform="matrix(0.0625 0.0000 0.0000 0.0625 0.0000 0.0000)">
<path d="M 4586.0000,1579.0000 L 4763.0000,1638.0000 L 4586.0000,1697.0000 L 4586.0000,1579.0000 Z" stroke-width="1px" stroke="#000000"  fill="#000000" />
</g>
<g transform="matrix(1.0000 0.0000 0.0000 1.0000 0.0000 0.0000)">
</g>
<g transform="matrix(0.0625 0.0000 0.0000 0.0625 0.0000 0.0000)">
<path d="M 2755.0000,1638.0000 L 3391.0000,1638.0000 " stroke="#000000" stroke-width="5.0000"  stroke-linecap="round"  stroke-linejoin="round" fill="none" />
</g>
<g transform="matrix(1.0000 0.0000 0.0000 1.0000 0.0000 0.0000)">
</g>
<g transform="matrix(0.0625 0.0000 0.0000 0.0625 0.0000 0.0000)">
<path d="M 2770.0000,1697.0000 L 2593.0000,1638.0000 L 2770.0000,1579.0000 L 2770.0000,1697.0000 Z" stroke-width="1px" stroke="#000000"  fill="#000000" />
</g>
<g transform="matrix(1.0000 0.0000 0.0000 1.0000 0.0000 0.0000)">
</g>
<g transform="matrix(0.0625 0.0000 0.0000 0.0625 0.0000 0.0000)">
<path d="M 3377.0000,1579.0000 L 3553.0000,1638.0000 L 3377.0000,1697.0000 L 3377.0000,1579.0000 Z" stroke-width="1px" stroke="#000000"  fill="#000000" />
</g>
<g transform="matrix(1.0000 0.0000 0.0000 1.0000 0.0000 0.0000)">
</g>
<g transform="matrix(0.0625 0.0000 0.0000 0.0625 0.0000 0.0000)">
<path d="M 6384.0000,1638.0000 L 7020.0000,1638.0000 " stroke="#000000" stroke-width="5.0000"  stroke-linecap="round"  stroke-linejoin="round" fill="none" />
</g>
<g transform="matrix(1.0000 0.0000 0.0000 1.0000 0.0000 0.0000)">
</g>
<g transform="matrix(0.0625 0.0000 0.0000 0.0625 0.0000 0.0000)">
<path d="M 6398.0000,1697.0000 L 6222.0000,1638.0000 L 6398.0000,1579.0000 L 6398.0000,1697.0000 Z" stroke-width="1px" stroke="#000000"  fill="#000000" />
</g>
<g transform="matrix(1.0000 0.0000 0.0000 1.0000 0.0000 0.0000)">
</g>
<g transform="matrix(0.0625 0.0000 0.0000 0.0625 0.0000 0.0000)">
<path d="M 7005.0000,1579.0000 L 7182.0000,1638.0000 L 7005.0000,1697.0000 L 7005.0000,1579.0000 Z" stroke-width="1px" stroke="#000000"  fill="#000000" />
</g>
<g transform="matrix(1.0000 0.0000 0.0000 1.0000 0.0000 0.0000)">
</g>
<g transform="matrix(0.0625 0.0000 0.0000 0.0625 0.0000 0.0000)">
<path d="M 4071.0000,1269.0000 L 4071.0000,1578.0000 L 4494.0000,1578.0000 L 4494.0000,1269.0000 L 4071.0000,1269.0000 Z" stroke-width="1px" stroke="#FFFFFF"  fill="#FFFFFF" />
</g>
<g transform="matrix(1.0000 0.0000 0.0000 1.0000 0.0000 0.0000)">
<text font-family="宋体" fill="#000000" style ="white-space:pre;" font-weight="400" text-anchor="start" x="260.0000" y="92.0000" font-size="11.0000" ><![CDATA[20]]></text>
<text font-family="宋体" fill="#000000" style ="white-space:pre;" font-weight="400" text-anchor="start" x="270.0000" y="92.0000" font-size="11.0000" ><![CDATA[m]]></text>
</g>
<g transform="matrix(0.0625 0.0000 0.0000 0.0625 0.0000 0.0000)">
<path d="M 6490.0000,1269.0000 L 6490.0000,1578.0000 L 6913.0000,1578.0000 L 6913.0000,1269.0000 L 6490.0000,1269.0000 Z" stroke-width="1px" stroke="#FFFFFF"  fill="#FFFFFF" />
</g>
<g transform="matrix(1.0000 0.0000 0.0000 1.0000 0.0000 0.0000)">
<text font-family="宋体" fill="#000000" style ="white-space:pre;" font-weight="400" text-anchor="start" x="411.0000" y="92.0000" font-size="11.0000" ><![CDATA[20]]></text>
<text font-family="宋体" fill="#000000" style ="white-space:pre;" font-weight="400" text-anchor="start" x="421.0000" y="92.0000" font-size="11.0000" ><![CDATA[m]]></text>
</g>
<g transform="matrix(0.0625 0.0000 0.0000 0.0625 0.0000 0.0000)">
<path d="M 5281.0000,1269.0000 L 5281.0000,1578.0000 L 5704.0000,1578.0000 L 5704.0000,1269.0000 L 5281.0000,1269.0000 Z" stroke-width="1px" stroke="#FFFFFF"  fill="#FFFFFF" />
</g>
<g transform="matrix(1.0000 0.0000 0.0000 1.0000 0.0000 0.0000)">
<text font-family="宋体" fill="#000000" style ="white-space:pre;" font-weight="400" text-anchor="start" x="335.0000" y="92.0000" font-size="11.0000" ><![CDATA[20]]></text>
<text font-family="宋体" fill="#000000" style ="white-space:pre;" font-weight="400" text-anchor="start" x="346.0000" y="92.0000" font-size="11.0000" ><![CDATA[m]]></text>
</g>
<g transform="matrix(0.0625 0.0000 0.0000 0.0625 0.0000 0.0000)">
<path d="M 2831.0000,1269.0000 L 2831.0000,1578.0000 L 3255.0000,1578.0000 L 3255.0000,1269.0000 L 2831.0000,1269.0000 Z" stroke-width="1px" stroke="#FFFFFF"  fill="#FFFFFF" />
</g>
<g transform="matrix(1.0000 0.0000 0.0000 1.0000 0.0000 0.0000)">
<text font-family="宋体" fill="#000000" style ="white-space:pre;" font-weight="400" text-anchor="start" x="182.0000" y="92.0000" font-size="11.0000" ><![CDATA[20]]></text>
<text font-family="宋体" fill="#000000" style ="white-space:pre;" font-weight="400" text-anchor="start" x="193.0000" y="92.0000" font-size="11.0000" ><![CDATA[m]]></text>
</g>
<g transform="matrix(0.0625 0.0000 0.0000 0.0625 0.0000 0.0000)">
<path d="M 1652.0000,1242.0000 L 1652.0000,1550.0000 L 2076.0000,1550.0000 L 2076.0000,1242.0000 L 1652.0000,1242.0000 Z" stroke-width="1px" stroke="#FFFFFF"  fill="#FFFFFF" />
</g>
<g transform="matrix(1.0000 0.0000 0.0000 1.0000 0.0000 0.0000)">
<text font-family="宋体" fill="#000000" style ="white-space:pre;" font-weight="400" text-anchor="start" x="108.0000" y="90.0000" font-size="11.0000" ><![CDATA[20]]></text>
<text font-family="宋体" fill="#000000" style ="white-space:pre;" font-weight="400" text-anchor="start" x="119.0000" y="90.0000" font-size="11.0000" ><![CDATA[m]]></text>
</g>
</g>
</svg>
