<?xml version="1.0"  encoding="UTF-8" standalone="no"?>
<svg version="1.1" xmlns="http://www.w3.org/2000/svg" xmlns:xlink="http://www.w3.org/1999/xlink" width="1157.0000" height="529.0000">
<g transform="translate(-0.0000, -18.0000)">
<text font-family="Calibri" fill="#000000" style ="white-space:pre;" font-weight="400" text-anchor="start" x="579.0000" y="40.0000" font-size="23.0000" ><![CDATA[ ]]></text>
<defs><clipPath id="clip-1804289383"><path d="M 0.0000,0.0000 L 1158.0000,0.0000 L 1158.0000,527.0000 L 0.0000,527.0000 L 0.0000,0.0000 Z Z" /></clipPath></defs>
<path style="fill:#000000" d="M -3.0000,48.0000 L 1161.0000,48.0000 L 1161.0000,49.0000 L -3.0000,49.0000 Z" /><path  clip-path="url(#clip-1804289383)" d="M -3.0000,48.0000 L 1161.0000,48.0000 " stroke="#000000" stroke-width="1.0000"  stroke-linecap="round"  stroke-linejoin="round"  fill="none" />
<defs><clipPath id="clip-846930886"><path d="M 0.0000,0.0000 L 1158.0000,0.0000 L 1158.0000,527.0000 L 0.0000,527.0000 L 0.0000,0.0000 Z Z" /></clipPath></defs>
<text font-family="Calibri" fill="#000000" style ="white-space:pre;" font-weight="400" text-anchor="start" x="1026.0000" y="538.0000" font-size="28.0000" ><![CDATA[ ]]></text>
<g transform="matrix(0.0625 0.0000 0.0000 0.0625 0.0000 0.0000)">
<path d="M 11765.0000,3004.0000 L 11125.0000,3006.0000 C 11113.0000,3006.0000 11104.0000,2997.0000 11104.0000,2986.0000 C 11104.0000,2975.0000 11113.0000,2966.0000 11124.0000,2966.0000 L 11764.0000,2964.0000 C 11775.0000,2964.0000 11784.0000,2973.0000 11784.0000,2984.0000 C 11784.0000,2995.0000 11776.0000,3004.0000 11765.0000,3004.0000 Z M 11165.0000,3106.0000 L 10924.0000,2986.0000 L 11164.0000,2866.0000 Z "  fill="#000000" stroke="#000000" stroke-width="16.0000"  stroke-linecap="butt"  stroke-linejoin="bevel" />
</g>
<g transform="matrix(1.0000 0.0000 0.0000 1.0000 0.0000 0.0000)">
</g>
<g transform="matrix(0.0625 0.0000 0.0000 0.0625 0.0000 0.0000)">
<path d="M 11765.0000,3376.0000 L 11125.0000,3378.0000 C 11113.0000,3378.0000 11104.0000,3369.0000 11104.0000,3358.0000 C 11104.0000,3347.0000 11113.0000,3338.0000 11124.0000,3338.0000 L 11764.0000,3336.0000 C 11775.0000,3336.0000 11784.0000,3345.0000 11784.0000,3356.0000 C 11784.0000,3367.0000 11776.0000,3376.0000 11765.0000,3376.0000 Z M 11165.0000,3478.0000 L 10924.0000,3358.0000 L 11164.0000,3238.0000 Z "  fill="#000000" stroke="#000000" stroke-width="16.0000"  stroke-linecap="butt"  stroke-linejoin="bevel" />
</g>
<g transform="matrix(1.0000 0.0000 0.0000 1.0000 0.0000 0.0000)">
</g>
<g transform="matrix(0.0625 0.0000 0.0000 0.0625 0.0000 0.0000)">
<path d="M 7424.0000,4164.0000 L 8716.0000,4166.0000 C 8728.0000,4166.0000 8736.0000,4175.0000 8736.0000,4186.0000 C 8736.0000,4197.0000 8727.0000,4206.0000 8716.0000,4206.0000 L 7424.0000,4204.0000 C 7413.0000,4204.0000 7404.0000,4195.0000 7404.0000,4184.0000 C 7404.0000,4173.0000 7413.0000,4164.0000 7424.0000,4164.0000 Z M 8677.0000,4066.0000 L 8916.0000,4186.0000 L 8676.0000,4306.0000 Z "  fill="#000000" stroke="#000000" stroke-width="16.0000"  stroke-linecap="butt"  stroke-linejoin="bevel" />
</g>
<g transform="matrix(1.0000 0.0000 0.0000 1.0000 0.0000 0.0000)">
</g>
<g transform="matrix(0.0625 0.0000 0.0000 0.0625 0.0000 0.0000)">
<path d="M 7424.0000,6654.0000 L 8716.0000,6656.0000 C 8728.0000,6656.0000 8736.0000,6665.0000 8736.0000,6676.0000 C 8736.0000,6687.0000 8727.0000,6696.0000 8716.0000,6696.0000 L 7424.0000,6694.0000 C 7413.0000,6694.0000 7404.0000,6685.0000 7404.0000,6674.0000 C 7404.0000,6663.0000 7413.0000,6654.0000 7424.0000,6654.0000 Z M 8677.0000,6556.0000 L 8916.0000,6676.0000 L 8676.0000,6796.0000 Z "  fill="#000000" stroke="#000000" stroke-width="16.0000"  stroke-linecap="butt"  stroke-linejoin="bevel" />
</g>
<g transform="matrix(1.0000 0.0000 0.0000 1.0000 0.0000 0.0000)">
</g>
<g transform="matrix(0.0625 0.0000 0.0000 0.0625 0.0000 0.0000)">
<path d="M 10925.0000,3164.0000 L 8027.0000,3183.0000 C 8016.0000,3183.0000 8007.0000,3174.0000 8006.0000,3163.0000 C 8006.0000,3152.0000 8015.0000,3143.0000 8026.0000,3143.0000 L 10924.0000,3124.0000 C 10935.0000,3124.0000 10944.0000,3133.0000 10944.0000,3144.0000 C 10945.0000,3155.0000 10936.0000,3164.0000 10925.0000,3164.0000 Z M 8067.0000,3283.0000 L 7826.0000,3164.0000 L 8066.0000,3043.0000 Z "  fill="#000000" stroke="#000000" stroke-width="16.0000"  stroke-linecap="butt"  stroke-linejoin="bevel" />
</g>
<g transform="matrix(1.0000 0.0000 0.0000 1.0000 0.0000 0.0000)">
</g>
<g transform="matrix(0.0625 0.0000 0.0000 0.0625 0.0000 0.0000)">
<path d="M 1116.0000,2184.0000 L 1116.0000,7534.0000 L 5180.0000,7534.0000 L 5180.0000,2184.0000 L 1116.0000,2184.0000 Z" stroke-width="1px" stroke="#FFFFFF"  fill="#FFFFFF" />
</g>
<g transform="matrix(1.0000 0.0000 0.0000 1.0000 0.0000 0.0000)">
</g>
<g transform="matrix(0.0625 0.0000 0.0000 0.0625 0.0000 0.0000)">
<path d="M 5180.0000,2199.0000 L 5060.0000,2199.0000 L 5060.0000,2169.0000 L 5180.0000,2169.0000 L 5180.0000,2199.0000 Z M 4970.0000,2199.0000 L 4850.0000,2199.0000 L 4850.0000,2169.0000 L 4970.0000,2169.0000 L 4970.0000,2199.0000 Z M 4760.0000,2199.0000 L 4640.0000,2199.0000 L 4640.0000,2169.0000 L 4760.0000,2169.0000 L 4760.0000,2199.0000 Z M 4550.0000,2199.0000 L 4430.0000,2199.0000 L 4430.0000,2169.0000 L 4550.0000,2169.0000 L 4550.0000,2199.0000 Z M 4340.0000,2199.0000 L 4220.0000,2199.0000 L 4220.0000,2169.0000 L 4340.0000,2169.0000 L 4340.0000,2199.0000 Z M 4130.0000,2199.0000 L 4010.0000,2199.0000 L 4010.0000,2169.0000 L 4130.0000,2169.0000 L 4130.0000,2199.0000 Z M 3920.0000,2199.0000 L 3800.0000,2199.0000 L 3800.0000,2169.0000 L 3920.0000,2169.0000 L 3920.0000,2199.0000 Z M 3710.0000,2199.0000 L 3590.0000,2199.0000 L 3590.0000,2169.0000 L 3710.0000,2169.0000 L 3710.0000,2199.0000 Z M 3500.0000,2199.0000 L 3380.0000,2199.0000 L 3380.0000,2169.0000 L 3500.0000,2169.0000 L 3500.0000,2199.0000 Z M 3290.0000,2199.0000 L 3170.0000,2199.0000 L 3170.0000,2169.0000 L 3290.0000,2169.0000 L 3290.0000,2199.0000 Z M 3080.0000,2199.0000 L 2960.0000,2199.0000 L 2960.0000,2169.0000 L 3080.0000,2169.0000 L 3080.0000,2199.0000 Z M 2870.0000,2199.0000 L 2750.0000,2199.0000 L 2750.0000,2169.0000 L 2870.0000,2169.0000 L 2870.0000,2199.0000 Z M 2660.0000,2199.0000 L 2540.0000,2199.0000 L 2540.0000,2169.0000 L 2660.0000,2169.0000 L 2660.0000,2199.0000 Z M 2450.0000,2199.0000 L 2330.0000,2199.0000 L 2330.0000,2169.0000 L 2450.0000,2169.0000 L 2450.0000,2199.0000 Z M 2240.0000,2199.0000 L 2120.0000,2199.0000 L 2120.0000,2169.0000 L 2240.0000,2169.0000 L 2240.0000,2199.0000 Z M 2030.0000,2199.0000 L 1910.0000,2199.0000 L 1910.0000,2169.0000 L 2030.0000,2169.0000 L 2030.0000,2199.0000 Z M 1820.0000,2199.0000 L 1700.0000,2199.0000 L 1700.0000,2169.0000 L 1820.0000,2169.0000 L 1820.0000,2199.0000 Z M 1610.0000,2199.0000 L 1490.0000,2199.0000 L 1490.0000,2169.0000 L 1610.0000,2169.0000 L 1610.0000,2199.0000 Z M 1400.0000,2199.0000 L 1280.0000,2199.0000 L 1280.0000,2169.0000 L 1400.0000,2169.0000 L 1400.0000,2199.0000 Z M 1190.0000,2199.0000 L 1116.0000,2199.0000 L 1131.0000,2184.0000 L 1131.0000,2230.0000 L 1101.0000,2230.0000 L 1101.0000,2169.0000 L 1190.0000,2169.0000 L 1190.0000,2199.0000 Z M 1131.0000,2320.0000 L 1131.0000,2440.0000 L 1101.0000,2440.0000 L 1101.0000,2320.0000 L 1131.0000,2320.0000 Z M 1131.0000,2530.0000 L 1131.0000,2650.0000 L 1101.0000,2650.0000 L 1101.0000,2530.0000 L 1131.0000,2530.0000 Z M 1131.0000,2740.0000 L 1131.0000,2860.0000 L 1101.0000,2860.0000 L 1101.0000,2740.0000 L 1131.0000,2740.0000 Z M 1131.0000,2950.0000 L 1131.0000,3070.0000 L 1101.0000,3070.0000 L 1101.0000,2950.0000 L 1131.0000,2950.0000 Z M 1131.0000,3160.0000 L 1131.0000,3280.0000 L 1101.0000,3280.0000 L 1101.0000,3160.0000 L 1131.0000,3160.0000 Z M 1131.0000,3370.0000 L 1131.0000,3490.0000 L 1101.0000,3490.0000 L 1101.0000,3370.0000 L 1131.0000,3370.0000 Z M 1131.0000,3580.0000 L 1131.0000,3700.0000 L 1101.0000,3700.0000 L 1101.0000,3580.0000 L 1131.0000,3580.0000 Z M 1131.0000,3790.0000 L 1131.0000,3910.0000 L 1101.0000,3910.0000 L 1101.0000,3790.0000 L 1131.0000,3790.0000 Z M 1131.0000,4000.0000 L 1131.0000,4120.0000 L 1101.0000,4120.0000 L 1101.0000,4000.0000 L 1131.0000,4000.0000 Z M 1131.0000,4210.0000 L 1131.0000,4330.0000 L 1101.0000,4330.0000 L 1101.0000,4210.0000 L 1131.0000,4210.0000 Z M 1131.0000,4420.0000 L 1131.0000,4540.0000 L 1101.0000,4540.0000 L 1101.0000,4420.0000 L 1131.0000,4420.0000 Z M 1131.0000,4630.0000 L 1131.0000,4750.0000 L 1101.0000,4750.0000 L 1101.0000,4630.0000 L 1131.0000,4630.0000 Z M 1131.0000,4840.0000 L 1131.0000,4960.0000 L 1101.0000,4960.0000 L 1101.0000,4840.0000 L 1131.0000,4840.0000 Z M 1131.0000,5050.0000 L 1131.0000,5170.0000 L 1101.0000,5170.0000 L 1101.0000,5050.0000 L 1131.0000,5050.0000 Z M 1131.0000,5260.0000 L 1131.0000,5380.0000 L 1101.0000,5380.0000 L 1101.0000,5260.0000 L 1131.0000,5260.0000 Z M 1131.0000,5470.0000 L 1131.0000,5590.0000 L 1101.0000,5590.0000 L 1101.0000,5470.0000 L 1131.0000,5470.0000 Z M 1131.0000,5680.0000 L 1131.0000,5800.0000 L 1101.0000,5800.0000 L 1101.0000,5680.0000 L 1131.0000,5680.0000 Z M 1131.0000,5890.0000 L 1131.0000,6010.0000 L 1101.0000,6010.0000 L 1101.0000,5890.0000 L 1131.0000,5890.0000 Z M 1131.0000,6100.0000 L 1131.0000,6220.0000 L 1101.0000,6220.0000 L 1101.0000,6100.0000 L 1131.0000,6100.0000 Z M 1131.0000,6310.0000 L 1131.0000,6430.0000 L 1101.0000,6430.0000 L 1101.0000,6310.0000 L 1131.0000,6310.0000 Z M 1131.0000,6520.0000 L 1131.0000,6640.0000 L 1101.0000,6640.0000 L 1101.0000,6520.0000 L 1131.0000,6520.0000 Z M 1131.0000,6730.0000 L 1131.0000,6850.0000 L 1101.0000,6850.0000 L 1101.0000,6730.0000 L 1131.0000,6730.0000 Z M 1131.0000,6940.0000 L 1131.0000,7060.0000 L 1101.0000,7060.0000 L 1101.0000,6940.0000 L 1131.0000,6940.0000 Z M 1131.0000,7150.0000 L 1131.0000,7270.0000 L 1101.0000,7270.0000 L 1101.0000,7150.0000 L 1131.0000,7150.0000 Z M 1131.0000,7360.0000 L 1131.0000,7480.0000 L 1101.0000,7480.0000 L 1101.0000,7360.0000 L 1131.0000,7360.0000 Z M 1152.0000,7519.0000 L 1272.0000,7519.0000 L 1272.0000,7549.0000 L 1152.0000,7549.0000 L 1152.0000,7519.0000 Z M 1362.0000,7519.0000 L 1482.0000,7519.0000 L 1482.0000,7549.0000 L 1362.0000,7549.0000 L 1362.0000,7519.0000 Z M 1572.0000,7519.0000 L 1692.0000,7519.0000 L 1692.0000,7549.0000 L 1572.0000,7549.0000 L 1572.0000,7519.0000 Z M 1782.0000,7519.0000 L 1902.0000,7519.0000 L 1902.0000,7549.0000 L 1782.0000,7549.0000 L 1782.0000,7519.0000 Z M 1992.0000,7519.0000 L 2112.0000,7519.0000 L 2112.0000,7549.0000 L 1992.0000,7549.0000 L 1992.0000,7519.0000 Z M 2202.0000,7519.0000 L 2322.0000,7519.0000 L 2322.0000,7549.0000 L 2202.0000,7549.0000 L 2202.0000,7519.0000 Z M 2412.0000,7519.0000 L 2532.0000,7519.0000 L 2532.0000,7549.0000 L 2412.0000,7549.0000 L 2412.0000,7519.0000 Z M 2622.0000,7519.0000 L 2742.0000,7519.0000 L 2742.0000,7549.0000 L 2622.0000,7549.0000 L 2622.0000,7519.0000 Z M 2832.0000,7519.0000 L 2952.0000,7519.0000 L 2952.0000,7549.0000 L 2832.0000,7549.0000 L 2832.0000,7519.0000 Z M 3042.0000,7519.0000 L 3162.0000,7519.0000 L 3162.0000,7549.0000 L 3042.0000,7549.0000 L 3042.0000,7519.0000 Z M 3252.0000,7519.0000 L 3372.0000,7519.0000 L 3372.0000,7549.0000 L 3252.0000,7549.0000 L 3252.0000,7519.0000 Z M 3462.0000,7519.0000 L 3582.0000,7519.0000 L 3582.0000,7549.0000 L 3462.0000,7549.0000 L 3462.0000,7519.0000 Z M 3672.0000,7519.0000 L 3792.0000,7519.0000 L 3792.0000,7549.0000 L 3672.0000,7549.0000 L 3672.0000,7519.0000 Z M 3882.0000,7519.0000 L 4002.0000,7519.0000 L 4002.0000,7549.0000 L 3882.0000,7549.0000 L 3882.0000,7519.0000 Z M 4092.0000,7519.0000 L 4212.0000,7519.0000 L 4212.0000,7549.0000 L 4092.0000,7549.0000 L 4092.0000,7519.0000 Z M 4302.0000,7519.0000 L 4422.0000,7519.0000 L 4422.0000,7549.0000 L 4302.0000,7549.0000 L 4302.0000,7519.0000 Z M 4512.0000,7519.0000 L 4632.0000,7519.0000 L 4632.0000,7549.0000 L 4512.0000,7549.0000 L 4512.0000,7519.0000 Z M 4722.0000,7519.0000 L 4842.0000,7519.0000 L 4842.0000,7549.0000 L 4722.0000,7549.0000 L 4722.0000,7519.0000 Z M 4932.0000,7519.0000 L 5052.0000,7519.0000 L 5052.0000,7549.0000 L 4932.0000,7549.0000 L 4932.0000,7519.0000 Z M 5142.0000,7519.0000 L 5180.0000,7519.0000 L 5165.0000,7534.0000 L 5165.0000,7452.0000 L 5195.0000,7452.0000 L 5195.0000,7549.0000 L 5142.0000,7549.0000 L 5142.0000,7519.0000 Z M 5165.0000,7362.0000 L 5165.0000,7242.0000 L 5195.0000,7242.0000 L 5195.0000,7362.0000 L 5165.0000,7362.0000 Z M 5165.0000,7152.0000 L 5165.0000,7032.0000 L 5195.0000,7032.0000 L 5195.0000,7152.0000 L 5165.0000,7152.0000 Z M 5165.0000,6942.0000 L 5165.0000,6822.0000 L 5195.0000,6822.0000 L 5195.0000,6942.0000 L 5165.0000,6942.0000 Z M 5165.0000,6732.0000 L 5165.0000,6612.0000 L 5195.0000,6612.0000 L 5195.0000,6732.0000 L 5165.0000,6732.0000 Z M 5165.0000,6522.0000 L 5165.0000,6402.0000 L 5195.0000,6402.0000 L 5195.0000,6522.0000 L 5165.0000,6522.0000 Z M 5165.0000,6312.0000 L 5165.0000,6192.0000 L 5195.0000,6192.0000 L 5195.0000,6312.0000 L 5165.0000,6312.0000 Z M 5165.0000,6102.0000 L 5165.0000,5982.0000 L 5195.0000,5982.0000 L 5195.0000,6102.0000 L 5165.0000,6102.0000 Z M 5165.0000,5892.0000 L 5165.0000,5772.0000 L 5195.0000,5772.0000 L 5195.0000,5892.0000 L 5165.0000,5892.0000 Z M 5165.0000,5682.0000 L 5165.0000,5562.0000 L 5195.0000,5562.0000 L 5195.0000,5682.0000 L 5165.0000,5682.0000 Z M 5165.0000,5472.0000 L 5165.0000,5352.0000 L 5195.0000,5352.0000 L 5195.0000,5472.0000 L 5165.0000,5472.0000 Z M 5165.0000,5262.0000 L 5165.0000,5142.0000 L 5195.0000,5142.0000 L 5195.0000,5262.0000 L 5165.0000,5262.0000 Z M 5165.0000,5052.0000 L 5165.0000,4932.0000 L 5195.0000,4932.0000 L 5195.0000,5052.0000 L 5165.0000,5052.0000 Z M 5165.0000,4842.0000 L 5165.0000,4722.0000 L 5195.0000,4722.0000 L 5195.0000,4842.0000 L 5165.0000,4842.0000 Z M 5165.0000,4632.0000 L 5165.0000,4512.0000 L 5195.0000,4512.0000 L 5195.0000,4632.0000 L 5165.0000,4632.0000 Z M 5165.0000,4422.0000 L 5165.0000,4302.0000 L 5195.0000,4302.0000 L 5195.0000,4422.0000 L 5165.0000,4422.0000 Z M 5165.0000,4212.0000 L 5165.0000,4092.0000 L 5195.0000,4092.0000 L 5195.0000,4212.0000 L 5165.0000,4212.0000 Z M 5165.0000,4002.0000 L 5165.0000,3882.0000 L 5195.0000,3882.0000 L 5195.0000,4002.0000 L 5165.0000,4002.0000 Z M 5165.0000,3792.0000 L 5165.0000,3672.0000 L 5195.0000,3672.0000 L 5195.0000,3792.0000 L 5165.0000,3792.0000 Z M 5165.0000,3582.0000 L 5165.0000,3462.0000 L 5195.0000,3462.0000 L 5195.0000,3582.0000 L 5165.0000,3582.0000 Z M 5165.0000,3372.0000 L 5165.0000,3252.0000 L 5195.0000,3252.0000 L 5195.0000,3372.0000 L 5165.0000,3372.0000 Z M 5165.0000,3162.0000 L 5165.0000,3042.0000 L 5195.0000,3042.0000 L 5195.0000,3162.0000 L 5165.0000,3162.0000 Z M 5165.0000,2952.0000 L 5165.0000,2832.0000 L 5195.0000,2832.0000 L 5195.0000,2952.0000 L 5165.0000,2952.0000 Z M 5165.0000,2742.0000 L 5165.0000,2622.0000 L 5195.0000,2622.0000 L 5195.0000,2742.0000 L 5165.0000,2742.0000 Z M 5165.0000,2532.0000 L 5165.0000,2412.0000 L 5195.0000,2412.0000 L 5195.0000,2532.0000 L 5165.0000,2532.0000 Z M 5165.0000,2322.0000 L 5165.0000,2202.0000 L 5195.0000,2202.0000 L 5195.0000,2322.0000 L 5165.0000,2322.0000 Z "  fill="#000000" stroke="#000000" stroke-width="16.0000"  stroke-linecap="butt"  stroke-linejoin="bevel" />
</g>
<g transform="matrix(1.0000 0.0000 0.0000 1.0000 0.0000 0.0000)">
</g>
<g transform="matrix(0.0625 0.0000 0.0000 0.0625 0.0000 0.0000)">
<path d="M 5178.0000,3168.0000 L 7690.0000,3170.0000 " stroke="#000000" stroke-width="30.0000"  stroke-linecap="round"  stroke-linejoin="round" fill="none" />
</g>
<g transform="matrix(1.0000 0.0000 0.0000 1.0000 0.0000 0.0000)">
<defs><clipPath id="clip-1681692777"><path d="M 54.0000,484.0000 L 345.0000,484.0000 L 345.0000,519.0000 L 54.0000,519.0000 L 54.0000,484.0000 Z Z" /></clipPath></defs>
<text  clip-path="url(#clip-1681692777)" font-family="Arial" fill="#000000" style ="white-space:pre;" font-weight="400" text-anchor="start" x="106.0000" y="503.0000" font-size="20.0000" ><![CDATA[transceiver unit array]]></text>
<text  clip-path="url(#clip-1681692777)" font-family="Arial" fill="#000000" style ="white-space:pre;" font-weight="400" text-anchor="start" x="293.0000" y="503.0000" font-size="20.0000" ><![CDATA[ ]]></text>
<text  clip-path="url(#clip-1681692777)" font-family="Arial" fill="#000000" style ="white-space:pre;" font-weight="400" text-anchor="start" x="298.0000" y="503.0000" font-size="20.0000" ><![CDATA[ ]]></text>
</g>
<g transform="matrix(0.0625 0.0000 0.0000 0.0625 0.0000 0.0000)">
<path d="M 5728.0000,5078.0000 L 5728.0000,5158.0000 " stroke="#000000" stroke-width="70.0000"  stroke-linecap="butt"  stroke-linejoin="round" fill="none" />
</g>
<g transform="matrix(1.0000 0.0000 0.0000 1.0000 0.0000 0.0000)">
</g>
<g transform="matrix(0.0625 0.0000 0.0000 0.0625 0.0000 0.0000)">
<path d="M 5726.0000,5242.0000 L 5728.0000,5324.0000 " stroke="#000000" stroke-width="70.0000"  stroke-linecap="butt"  stroke-linejoin="round" fill="none" />
</g>
<g transform="matrix(1.0000 0.0000 0.0000 1.0000 0.0000 0.0000)">
</g>
<g transform="matrix(0.0625 0.0000 0.0000 0.0625 0.0000 0.0000)">
<path d="M 5726.0000,5398.0000 L 5726.0000,5478.0000 " stroke="#000000" stroke-width="70.0000"  stroke-linecap="butt"  stroke-linejoin="round" fill="none" />
</g>
<g transform="matrix(1.0000 0.0000 0.0000 1.0000 0.0000 0.0000)">
<defs><clipPath id="clip-1714636915"><path d="M 419.0000,161.0000 L 497.0000,161.0000 L 497.0000,187.0000 L 419.0000,187.0000 L 419.0000,161.0000 Z Z" /></clipPath></defs>
<text  clip-path="url(#clip-1714636915)" font-family="Arial" fill="#000000" style ="white-space:pre;" font-weight="400" text-anchor="start" x="442.0000" y="180.0000" font-size="20.0000" ><![CDATA[  ]]></text>
<text  clip-path="url(#clip-1714636915)" font-family="Arial" fill="#000000" style ="white-space:pre;" font-weight="400" text-anchor="start" x="454.0000" y="180.0000" font-size="20.0000" ><![CDATA[#1]]></text>
<text  clip-path="url(#clip-1714636915)" font-family="Arial" fill="#000000" style ="white-space:pre;" font-weight="400" text-anchor="start" x="475.0000" y="180.0000" font-size="20.0000" ><![CDATA[ ]]></text>
<defs><clipPath id="clip-1957747793"><path d="M 411.0000,230.0000 L 502.0000,230.0000 L 502.0000,256.0000 L 411.0000,256.0000 L 411.0000,230.0000 Z Z" /></clipPath></defs>
<text  clip-path="url(#clip-1957747793)" font-family="Arial" fill="#000000" style ="white-space:pre;" font-weight="400" text-anchor="start" x="440.0000" y="249.0000" font-size="20.0000" ><![CDATA[  ]]></text>
<text  clip-path="url(#clip-1957747793)" font-family="Arial" fill="#000000" style ="white-space:pre;" font-weight="400" text-anchor="start" x="452.0000" y="249.0000" font-size="20.0000" ><![CDATA[#2]]></text>
<text  clip-path="url(#clip-1957747793)" font-family="Arial" fill="#000000" style ="white-space:pre;" font-weight="400" text-anchor="start" x="473.0000" y="249.0000" font-size="20.0000" ><![CDATA[ ]]></text>
<defs><clipPath id="clip-424238335"><path d="M 416.0000,383.0000 L 502.0000,383.0000 L 502.0000,409.0000 L 416.0000,409.0000 L 416.0000,383.0000 Z Z" /></clipPath></defs>
<text  clip-path="url(#clip-424238335)" font-family="Arial" fill="#000000" style ="white-space:pre;" font-weight="400" text-anchor="start" x="444.0000" y="402.0000" font-size="20.0000" ><![CDATA[ ]]></text>
<text  clip-path="url(#clip-424238335)" font-family="Arial" fill="#000000" style ="white-space:pre;" font-weight="400" text-anchor="start" x="450.0000" y="402.0000" font-size="20.0000" ><![CDATA[#K]]></text>
<text  clip-path="url(#clip-424238335)" font-family="Arial" fill="#000000" style ="white-space:pre;" font-weight="400" text-anchor="start" x="474.0000" y="402.0000" font-size="20.0000" ><![CDATA[ ]]></text>
</g>
<g transform="matrix(0.0625 0.0000 0.0000 0.0625 0.0000 0.0000)">
<path d="M 7708.0000,1952.0000 L 7708.0000,1992.0000 L 7668.0000,1992.0000 L 7668.0000,1952.0000 L 7708.0000,1952.0000 Z M 7708.0000,2032.0000 L 7709.0000,2072.0000 L 7669.0000,2072.0000 L 7668.0000,2032.0000 L 7708.0000,2032.0000 Z M 7709.0000,2112.0000 L 7709.0000,2152.0000 L 7669.0000,2152.0000 L 7669.0000,2112.0000 L 7709.0000,2112.0000 Z M 7709.0000,2192.0000 L 7709.0000,2232.0000 L 7669.0000,2232.0000 L 7669.0000,2192.0000 L 7709.0000,2192.0000 Z M 7709.0000,2272.0000 L 7709.0000,2312.0000 L 7669.0000,2312.0000 L 7669.0000,2272.0000 L 7709.0000,2272.0000 Z M 7709.0000,2352.0000 L 7709.0000,2392.0000 L 7669.0000,2392.0000 L 7669.0000,2352.0000 L 7709.0000,2352.0000 Z M 7709.0000,2432.0000 L 7709.0000,2472.0000 L 7669.0000,2472.0000 L 7669.0000,2432.0000 L 7709.0000,2432.0000 Z M 7709.0000,2512.0000 L 7709.0000,2552.0000 L 7669.0000,2552.0000 L 7669.0000,2512.0000 L 7709.0000,2512.0000 Z M 7709.0000,2592.0000 L 7709.0000,2632.0000 L 7669.0000,2632.0000 L 7669.0000,2592.0000 L 7709.0000,2592.0000 Z M 7709.0000,2672.0000 L 7709.0000,2712.0000 L 7669.0000,2712.0000 L 7669.0000,2672.0000 L 7709.0000,2672.0000 Z M 7709.0000,2752.0000 L 7709.0000,2792.0000 L 7669.0000,2792.0000 L 7669.0000,2752.0000 L 7709.0000,2752.0000 Z M 7709.0000,2832.0000 L 7709.0000,2872.0000 L 7669.0000,2872.0000 L 7669.0000,2832.0000 L 7709.0000,2832.0000 Z M 7709.0000,2912.0000 L 7709.0000,2952.0000 L 7669.0000,2952.0000 L 7669.0000,2912.0000 L 7709.0000,2912.0000 Z M 7709.0000,2992.0000 L 7709.0000,3032.0000 L 7669.0000,3032.0000 L 7669.0000,2992.0000 L 7709.0000,2992.0000 Z M 7709.0000,3072.0000 L 7709.0000,3112.0000 L 7669.0000,3112.0000 L 7669.0000,3072.0000 L 7709.0000,3072.0000 Z M 7709.0000,3152.0000 L 7709.0000,3192.0000 L 7669.0000,3192.0000 L 7669.0000,3152.0000 L 7709.0000,3152.0000 Z M 7709.0000,3232.0000 L 7709.0000,3272.0000 L 7669.0000,3272.0000 L 7669.0000,3232.0000 L 7709.0000,3232.0000 Z M 7709.0000,3312.0000 L 7709.0000,3352.0000 L 7669.0000,3352.0000 L 7669.0000,3312.0000 L 7709.0000,3312.0000 Z M 7709.0000,3392.0000 L 7709.0000,3432.0000 L 7669.0000,3432.0000 L 7669.0000,3392.0000 L 7709.0000,3392.0000 Z M 7709.0000,3472.0000 L 7709.0000,3512.0000 L 7669.0000,3512.0000 L 7669.0000,3472.0000 L 7709.0000,3472.0000 Z M 7709.0000,3552.0000 L 7709.0000,3592.0000 L 7669.0000,3592.0000 L 7669.0000,3552.0000 L 7709.0000,3552.0000 Z M 7709.0000,3632.0000 L 7709.0000,3672.0000 L 7669.0000,3672.0000 L 7669.0000,3632.0000 L 7709.0000,3632.0000 Z M 7709.0000,3712.0000 L 7709.0000,3752.0000 L 7669.0000,3752.0000 L 7669.0000,3712.0000 L 7709.0000,3712.0000 Z M 7709.0000,3792.0000 L 7709.0000,3832.0000 L 7669.0000,3832.0000 L 7669.0000,3792.0000 L 7709.0000,3792.0000 Z M 7709.0000,3872.0000 L 7709.0000,3912.0000 L 7669.0000,3912.0000 L 7669.0000,3872.0000 L 7709.0000,3872.0000 Z M 7709.0000,3952.0000 L 7709.0000,3992.0000 L 7669.0000,3992.0000 L 7669.0000,3952.0000 L 7709.0000,3952.0000 Z M 7709.0000,4032.0000 L 7709.0000,4072.0000 L 7669.0000,4072.0000 L 7669.0000,4032.0000 L 7709.0000,4032.0000 Z M 7709.0000,4112.0000 L 7709.0000,4152.0000 L 7669.0000,4152.0000 L 7669.0000,4112.0000 L 7709.0000,4112.0000 Z M 7709.0000,4192.0000 L 7709.0000,4232.0000 L 7669.0000,4232.0000 L 7669.0000,4192.0000 L 7709.0000,4192.0000 Z M 7709.0000,4272.0000 L 7709.0000,4312.0000 L 7669.0000,4312.0000 L 7669.0000,4272.0000 L 7709.0000,4272.0000 Z M 7709.0000,4352.0000 L 7709.0000,4392.0000 L 7669.0000,4392.0000 L 7669.0000,4352.0000 L 7709.0000,4352.0000 Z M 7709.0000,4432.0000 L 7709.0000,4472.0000 L 7669.0000,4472.0000 L 7669.0000,4432.0000 L 7709.0000,4432.0000 Z M 7709.0000,4512.0000 L 7709.0000,4552.0000 L 7669.0000,4552.0000 L 7669.0000,4512.0000 L 7709.0000,4512.0000 Z M 7709.0000,4592.0000 L 7709.0000,4632.0000 L 7669.0000,4632.0000 L 7669.0000,4592.0000 L 7709.0000,4592.0000 Z M 7709.0000,4672.0000 L 7709.0000,4712.0000 L 7669.0000,4712.0000 L 7669.0000,4672.0000 L 7709.0000,4672.0000 Z M 7709.0000,4752.0000 L 7709.0000,4792.0000 L 7669.0000,4792.0000 L 7669.0000,4752.0000 L 7709.0000,4752.0000 Z M 7709.0000,4832.0000 L 7709.0000,4872.0000 L 7669.0000,4872.0000 L 7669.0000,4832.0000 L 7709.0000,4832.0000 Z M 7710.0000,4912.0000 L 7710.0000,4952.0000 L 7670.0000,4952.0000 L 7670.0000,4912.0000 L 7710.0000,4912.0000 Z M 7710.0000,4992.0000 L 7710.0000,5032.0000 L 7670.0000,5032.0000 L 7670.0000,4992.0000 L 7710.0000,4992.0000 Z M 7710.0000,5072.0000 L 7710.0000,5112.0000 L 7670.0000,5112.0000 L 7670.0000,5072.0000 L 7710.0000,5072.0000 Z M 7710.0000,5152.0000 L 7710.0000,5192.0000 L 7670.0000,5192.0000 L 7670.0000,5152.0000 L 7710.0000,5152.0000 Z M 7710.0000,5232.0000 L 7710.0000,5272.0000 L 7670.0000,5272.0000 L 7670.0000,5232.0000 L 7710.0000,5232.0000 Z M 7710.0000,5312.0000 L 7710.0000,5352.0000 L 7670.0000,5352.0000 L 7670.0000,5312.0000 L 7710.0000,5312.0000 Z M 7710.0000,5392.0000 L 7710.0000,5432.0000 L 7670.0000,5432.0000 L 7670.0000,5392.0000 L 7710.0000,5392.0000 Z M 7710.0000,5472.0000 L 7710.0000,5512.0000 L 7670.0000,5512.0000 L 7670.0000,5472.0000 L 7710.0000,5472.0000 Z M 7710.0000,5552.0000 L 7710.0000,5592.0000 L 7670.0000,5592.0000 L 7670.0000,5552.0000 L 7710.0000,5552.0000 Z M 7710.0000,5632.0000 L 7710.0000,5672.0000 L 7670.0000,5672.0000 L 7670.0000,5632.0000 L 7710.0000,5632.0000 Z M 7710.0000,5712.0000 L 7710.0000,5752.0000 L 7670.0000,5752.0000 L 7670.0000,5712.0000 L 7710.0000,5712.0000 Z M 7710.0000,5792.0000 L 7710.0000,5832.0000 L 7670.0000,5832.0000 L 7670.0000,5792.0000 L 7710.0000,5792.0000 Z M 7710.0000,5872.0000 L 7710.0000,5912.0000 L 7670.0000,5912.0000 L 7670.0000,5872.0000 L 7710.0000,5872.0000 Z M 7710.0000,5952.0000 L 7710.0000,5992.0000 L 7670.0000,5992.0000 L 7670.0000,5952.0000 L 7710.0000,5952.0000 Z M 7710.0000,6032.0000 L 7710.0000,6072.0000 L 7670.0000,6072.0000 L 7670.0000,6032.0000 L 7710.0000,6032.0000 Z M 7710.0000,6112.0000 L 7710.0000,6152.0000 L 7670.0000,6152.0000 L 7670.0000,6112.0000 L 7710.0000,6112.0000 Z M 7710.0000,6192.0000 L 7710.0000,6232.0000 L 7670.0000,6232.0000 L 7670.0000,6192.0000 L 7710.0000,6192.0000 Z M 7710.0000,6272.0000 L 7710.0000,6312.0000 L 7670.0000,6312.0000 L 7670.0000,6272.0000 L 7710.0000,6272.0000 Z M 7710.0000,6352.0000 L 7710.0000,6392.0000 L 7670.0000,6392.0000 L 7670.0000,6352.0000 L 7710.0000,6352.0000 Z M 7710.0000,6432.0000 L 7710.0000,6472.0000 L 7670.0000,6472.0000 L 7670.0000,6432.0000 L 7710.0000,6432.0000 Z M 7710.0000,6512.0000 L 7710.0000,6552.0000 L 7670.0000,6552.0000 L 7670.0000,6512.0000 L 7710.0000,6512.0000 Z M 7710.0000,6592.0000 L 7710.0000,6632.0000 L 7670.0000,6632.0000 L 7670.0000,6592.0000 L 7710.0000,6592.0000 Z M 7710.0000,6672.0000 L 7710.0000,6712.0000 L 7670.0000,6712.0000 L 7670.0000,6672.0000 L 7710.0000,6672.0000 Z M 7710.0000,6752.0000 L 7710.0000,6792.0000 L 7670.0000,6792.0000 L 7670.0000,6752.0000 L 7710.0000,6752.0000 Z M 7710.0000,6832.0000 L 7710.0000,6872.0000 L 7670.0000,6872.0000 L 7670.0000,6832.0000 L 7710.0000,6832.0000 Z M 7710.0000,6912.0000 L 7710.0000,6952.0000 L 7670.0000,6952.0000 L 7670.0000,6912.0000 L 7710.0000,6912.0000 Z M 7710.0000,6992.0000 L 7710.0000,7032.0000 L 7670.0000,7032.0000 L 7670.0000,6992.0000 L 7710.0000,6992.0000 Z M 7710.0000,7072.0000 L 7710.0000,7112.0000 L 7670.0000,7112.0000 L 7670.0000,7072.0000 L 7710.0000,7072.0000 Z M 7710.0000,7152.0000 L 7710.0000,7192.0000 L 7670.0000,7192.0000 L 7670.0000,7152.0000 L 7710.0000,7152.0000 Z M 7710.0000,7232.0000 L 7710.0000,7272.0000 L 7670.0000,7272.0000 L 7670.0000,7232.0000 L 7710.0000,7232.0000 Z M 7710.0000,7312.0000 L 7710.0000,7352.0000 L 7670.0000,7352.0000 L 7670.0000,7312.0000 L 7710.0000,7312.0000 Z M 7710.0000,7392.0000 L 7710.0000,7432.0000 L 7670.0000,7432.0000 L 7670.0000,7392.0000 L 7710.0000,7392.0000 Z M 7710.0000,7472.0000 L 7710.0000,7512.0000 L 7670.0000,7512.0000 L 7670.0000,7472.0000 L 7710.0000,7472.0000 Z M 7710.0000,7552.0000 L 7710.0000,7592.0000 L 7670.0000,7592.0000 L 7670.0000,7552.0000 L 7710.0000,7552.0000 Z "  fill="#000000" stroke="#000000" stroke-width="16.0000"  stroke-linecap="butt"  stroke-linejoin="bevel" />
</g>
<g transform="matrix(1.0000 0.0000 0.0000 1.0000 0.0000 0.0000)">
<defs><clipPath id="clip-719885386"><path d="M 302.0000,84.0000 L 650.0000,84.0000 L 650.0000,118.0000 L 302.0000,118.0000 L 302.0000,84.0000 Z Z" /></clipPath></defs>
<text  clip-path="url(#clip-719885386)" font-family="Arial" fill="#000000" style ="white-space:pre;" font-weight="400" text-anchor="start" x="357.0000" y="103.0000" font-size="20.0000" ><![CDATA[transceiver array boundary]]></text>
<text  clip-path="url(#clip-719885386)" font-family="Arial" fill="#000000" style ="white-space:pre;" font-weight="400" text-anchor="start" x="595.0000" y="103.0000" font-size="20.0000" ><![CDATA[ ]]></text>
</g>
<g transform="matrix(0.0625 0.0000 0.0000 0.0625 0.0000 0.0000)">
<path d="M 7540.0000,2970.0000 L 7540.0000,3356.0000 L 7826.0000,3356.0000 L 7826.0000,2970.0000 L 7540.0000,2970.0000 Z" stroke-width="1px" stroke="#808080"  fill="#808080" />
</g>
<g transform="matrix(1.0000 0.0000 0.0000 1.0000 0.0000 0.0000)">
</g>
<g transform="matrix(0.0625 0.0000 0.0000 0.0625 0.0000 0.0000)">
<path d="M 7540.0000,2970.0000 L 7540.0000,3356.0000 L 7826.0000,3356.0000 L 7826.0000,2970.0000 Z" stroke="#000000" stroke-width="30.0000"  stroke-linecap="round"  stroke-linejoin="miter"  stroke-miterlimit="8.0000" fill="none" />
</g>
<g transform="matrix(1.0000 0.0000 0.0000 1.0000 0.0000 0.0000)">
</g>
<g transform="matrix(0.0625 0.0000 0.0000 0.0625 0.0000 0.0000)">
<path d="M 8916.0000,5078.0000 L 8916.0000,5158.0000 " stroke="#000000" stroke-width="70.0000"  stroke-linecap="butt"  stroke-linejoin="round" fill="none" />
</g>
<g transform="matrix(1.0000 0.0000 0.0000 1.0000 0.0000 0.0000)">
</g>
<g transform="matrix(0.0625 0.0000 0.0000 0.0625 0.0000 0.0000)">
<path d="M 8914.0000,5242.0000 L 8916.0000,5324.0000 " stroke="#000000" stroke-width="70.0000"  stroke-linecap="butt"  stroke-linejoin="round" fill="none" />
</g>
<g transform="matrix(1.0000 0.0000 0.0000 1.0000 0.0000 0.0000)">
</g>
<g transform="matrix(0.0625 0.0000 0.0000 0.0625 0.0000 0.0000)">
<path d="M 8914.0000,5398.0000 L 8914.0000,5478.0000 " stroke="#000000" stroke-width="70.0000"  stroke-linecap="butt"  stroke-linejoin="round" fill="none" />
</g>
<g transform="matrix(1.0000 0.0000 0.0000 1.0000 0.0000 0.0000)">
</g>
<g transform="matrix(0.0625 0.0000 0.0000 0.0625 0.0000 0.0000)">
<path d="M 8479.0000,8111.0000 L 8018.0000,7190.0000 C 8013.0000,7180.0000 8017.0000,7168.0000 8027.0000,7163.0000 C 8037.0000,7159.0000 8049.0000,7163.0000 8054.0000,7172.0000 L 8514.0000,8094.0000 C 8519.0000,8103.0000 8515.0000,8115.0000 8505.0000,8120.0000 C 8496.0000,8125.0000 8484.0000,8121.0000 8479.0000,8111.0000 Z M 7946.0000,7271.0000 L 7946.0000,7002.0000 L 8161.0000,7163.0000 Z "  fill="#000000" stroke="#000000" stroke-width="16.0000"  stroke-linecap="butt"  stroke-linejoin="bevel" />
</g>
<g transform="matrix(1.0000 0.0000 0.0000 1.0000 0.0000 0.0000)">
<defs><clipPath id="clip-1649760492"><path d="M 368.0000,525.0000 L 819.0000,525.0000 L 819.0000,564.0000 L 368.0000,564.0000 L 368.0000,525.0000 Z Z" /></clipPath></defs>
<text  clip-path="url(#clip-1649760492)" font-family="Arial" fill="#000000" style ="white-space:pre;" font-weight="400" text-anchor="start" x="390.0000" y="544.0000" font-size="20.0000" ><![CDATA[Transceiver array boundary connector TAB(n)]]></text>
<text  clip-path="url(#clip-1649760492)" font-family="Arial" fill="#000000" style ="white-space:pre;" font-weight="400" text-anchor="start" x="796.0000" y="544.0000" font-size="20.0000" ><![CDATA[ ]]></text>
<text  clip-path="url(#clip-1649760492)" font-family="Arial" fill="#000000" style ="white-space:pre;" font-weight="400" text-anchor="start" x="802.0000" y="544.0000" font-size="20.0000" ><![CDATA[ ]]></text>
</g>
<g transform="matrix(0.0625 0.0000 0.0000 0.0625 0.0000 0.0000)">
<path d="M 5178.0000,4182.0000 L 7690.0000,4184.0000 " stroke="#000000" stroke-width="30.0000"  stroke-linecap="round"  stroke-linejoin="round" fill="none" />
</g>
<g transform="matrix(1.0000 0.0000 0.0000 1.0000 0.0000 0.0000)">
</g>
<g transform="matrix(0.0625 0.0000 0.0000 0.0625 0.0000 0.0000)">
<path d="M 7540.0000,3984.0000 L 7540.0000,4370.0000 L 7826.0000,4370.0000 L 7826.0000,3984.0000 L 7540.0000,3984.0000 Z" stroke-width="1px" stroke="#808080"  fill="#808080" />
</g>
<g transform="matrix(1.0000 0.0000 0.0000 1.0000 0.0000 0.0000)">
</g>
<g transform="matrix(0.0625 0.0000 0.0000 0.0625 0.0000 0.0000)">
<path d="M 7540.0000,3984.0000 L 7540.0000,4370.0000 L 7826.0000,4370.0000 L 7826.0000,3984.0000 Z" stroke="#000000" stroke-width="30.0000"  stroke-linecap="round"  stroke-linejoin="miter"  stroke-miterlimit="8.0000" fill="none" />
</g>
<g transform="matrix(1.0000 0.0000 0.0000 1.0000 0.0000 0.0000)">
</g>
<g transform="matrix(0.0625 0.0000 0.0000 0.0625 0.0000 0.0000)">
<path d="M 5178.0000,6676.0000 L 7688.0000,6678.0000 " stroke="#000000" stroke-width="30.0000"  stroke-linecap="round"  stroke-linejoin="round" fill="none" />
</g>
<g transform="matrix(1.0000 0.0000 0.0000 1.0000 0.0000 0.0000)">
</g>
<g transform="matrix(0.0625 0.0000 0.0000 0.0625 0.0000 0.0000)">
<path d="M 7540.0000,6478.0000 L 7540.0000,6864.0000 L 7826.0000,6864.0000 L 7826.0000,6478.0000 L 7540.0000,6478.0000 Z" stroke-width="1px" stroke="#808080"  fill="#808080" />
</g>
<g transform="matrix(1.0000 0.0000 0.0000 1.0000 0.0000 0.0000)">
</g>
<g transform="matrix(0.0625 0.0000 0.0000 0.0625 0.0000 0.0000)">
<path d="M 7540.0000,6478.0000 L 7540.0000,6864.0000 L 7826.0000,6864.0000 L 7826.0000,6478.0000 Z" stroke="#000000" stroke-width="30.0000"  stroke-linecap="round"  stroke-linejoin="miter"  stroke-miterlimit="8.0000" fill="none" />
</g>
<g transform="matrix(1.0000 0.0000 0.0000 1.0000 0.0000 0.0000)">
</g>
<g transform="matrix(0.0625 0.0000 0.0000 0.0625 0.0000 0.0000)">
<path d="M 8914.0000,3768.0000 L 8914.0000,4568.0000 L 10546.0000,4568.0000 L 10546.0000,3768.0000 L 8914.0000,3768.0000 Z" stroke-width="1px" stroke="#FFFFFF"  fill="#FFFFFF" />
</g>
<g transform="matrix(1.0000 0.0000 0.0000 1.0000 0.0000 0.0000)">
</g>
<g transform="matrix(0.0625 0.0000 0.0000 0.0625 0.0000 0.0000)">
<path d="M 8914.0000,3768.0000 L 8914.0000,4568.0000 L 10546.0000,4568.0000 L 10546.0000,3768.0000 Z" stroke="#000000" stroke-width="30.0000"  stroke-linecap="round"  stroke-linejoin="miter"  stroke-miterlimit="8.0000" fill="none" />
</g>
<g transform="matrix(1.0000 0.0000 0.0000 1.0000 0.0000 0.0000)">
<defs><clipPath id="clip-596516649"><path d="M 559.0000,246.0000 L 659.0000,246.0000 L 659.0000,276.0000 L 559.0000,276.0000 L 559.0000,246.0000 Z Z" /></clipPath></defs>
<text  clip-path="url(#clip-596516649)" font-family="Calibri" fill="#000000" style ="white-space:pre;" font-weight="400" text-anchor="start" x="577.0000" y="271.0000" font-size="28.0000" ><![CDATA[Load]]></text>
<text  clip-path="url(#clip-596516649)" font-family="Calibri" fill="#000000" style ="white-space:pre;" font-weight="400" text-anchor="start" x="631.0000" y="271.0000" font-size="28.0000" ><![CDATA[ ]]></text>
</g>
<g transform="matrix(0.0625 0.0000 0.0000 0.0625 0.0000 0.0000)">
<path d="M 8914.0000,6202.0000 L 8914.0000,7002.0000 L 10546.0000,7002.0000 L 10546.0000,6202.0000 L 8914.0000,6202.0000 Z" stroke-width="1px" stroke="#FFFFFF"  fill="#FFFFFF" />
</g>
<g transform="matrix(1.0000 0.0000 0.0000 1.0000 0.0000 0.0000)">
</g>
<g transform="matrix(0.0625 0.0000 0.0000 0.0625 0.0000 0.0000)">
<path d="M 8914.0000,6202.0000 L 8914.0000,7002.0000 L 10546.0000,7002.0000 L 10546.0000,6202.0000 Z" stroke="#000000" stroke-width="30.0000"  stroke-linecap="round"  stroke-linejoin="miter"  stroke-miterlimit="8.0000" fill="none" />
</g>
<g transform="matrix(1.0000 0.0000 0.0000 1.0000 0.0000 0.0000)">
<defs><clipPath id="clip-1189641421"><path d="M 559.0000,398.0000 L 659.0000,398.0000 L 659.0000,428.0000 L 559.0000,428.0000 L 559.0000,398.0000 Z Z" /></clipPath></defs>
<text  clip-path="url(#clip-1189641421)" font-family="Calibri" fill="#000000" style ="white-space:pre;" font-weight="400" text-anchor="start" x="577.0000" y="423.0000" font-size="28.0000" ><![CDATA[Load]]></text>
<text  clip-path="url(#clip-1189641421)" font-family="Calibri" fill="#000000" style ="white-space:pre;" font-weight="400" text-anchor="start" x="631.0000" y="423.0000" font-size="28.0000" ><![CDATA[ ]]></text>
</g>
<g transform="matrix(0.0625 0.0000 0.0000 0.0625 0.0000 0.0000)">
<path d="M 11764.0000,1952.0000 L 11764.0000,4640.0000 L 15464.0000,4640.0000 L 15464.0000,1952.0000 L 11764.0000,1952.0000 Z" stroke-width="1px" stroke="#FFFFFF"  fill="#FFFFFF" />
</g>
<g transform="matrix(1.0000 0.0000 0.0000 1.0000 0.0000 0.0000)">
</g>
<g transform="matrix(0.0625 0.0000 0.0000 0.0625 0.0000 0.0000)">
<path d="M 11764.0000,1952.0000 L 11764.0000,4640.0000 L 15464.0000,4640.0000 L 15464.0000,1952.0000 Z" stroke="#000000" stroke-width="30.0000"  stroke-linecap="round"  stroke-linejoin="miter"  stroke-miterlimit="8.0000" fill="none" />
</g>
<g transform="matrix(1.0000 0.0000 0.0000 1.0000 0.0000 0.0000)">
<defs><clipPath id="clip-1025202362"><path d="M 737.0000,132.0000 L 966.0000,132.0000 L 966.0000,281.0000 L 737.0000,281.0000 L 737.0000,132.0000 Z Z" /></clipPath></defs>
<text  clip-path="url(#clip-1025202362)" font-family="Calibri" fill="#000000" style ="white-space:pre;" font-weight="400" text-anchor="start" x="755.0000" y="151.0000" font-size="20.0000" ><![CDATA[Signal generator for the ]]></text>
<text  clip-path="url(#clip-1025202362)" font-family="Calibri" fill="#000000" style ="white-space:pre;" font-weight="400" text-anchor="start" x="755.0000" y="180.0000" font-size="20.0000" ><![CDATA[wanted signal and ]]></text>
<text  clip-path="url(#clip-1025202362)" font-family="Calibri" fill="#000000" style ="white-space:pre;" font-weight="400" text-anchor="start" x="755.0000" y="208.0000" font-size="20.0000" ><![CDATA[i]]></text>
<text  clip-path="url(#clip-1025202362)" font-family="Calibri" fill="#000000" style ="white-space:pre;" font-weight="400" text-anchor="start" x="760.0000" y="208.0000" font-size="20.0000" ><![CDATA[nterfering]]></text>
<text  clip-path="url(#clip-1025202362)" font-family="Calibri" fill="#000000" style ="white-space:pre;" font-weight="400" text-anchor="start" x="842.0000" y="208.0000" font-size="20.0000" ><![CDATA[ ]]></text>
<text  clip-path="url(#clip-1025202362)" font-family="Calibri" fill="#000000" style ="white-space:pre;" font-weight="400" text-anchor="start" x="847.0000" y="208.0000" font-size="20.0000" ><![CDATA[signal]]></text>
<text  clip-path="url(#clip-1025202362)" font-family="Calibri" fill="#000000" style ="white-space:pre;" font-weight="400" text-anchor="start" x="892.0000" y="208.0000" font-size="20.0000" ><![CDATA[ ]]></text>
<text  clip-path="url(#clip-1025202362)" font-family="Calibri" fill="#000000" style ="white-space:pre;" font-weight="400" text-anchor="start" x="755.0000" y="261.0000" font-size="20.0000" ><![CDATA[ ]]></text>
</g>
<g transform="matrix(0.0625 0.0000 0.0000 0.0625 0.0000 0.0000)">
<path d="M 8868.0000,2712.0000 L 8868.0000,3576.0000 L 10924.0000,3576.0000 L 10924.0000,2712.0000 L 8868.0000,2712.0000 Z" stroke-width="1px" stroke="#FFFFFF"  fill="#FFFFFF" />
</g>
<g transform="matrix(1.0000 0.0000 0.0000 1.0000 0.0000 0.0000)">
</g>
<g transform="matrix(0.0625 0.0000 0.0000 0.0625 0.0000 0.0000)">
<path d="M 8868.0000,2712.0000 L 8868.0000,3576.0000 L 10924.0000,3576.0000 L 10924.0000,2712.0000 Z" stroke="#000000" stroke-width="30.0000"  stroke-linecap="round"  stroke-linejoin="miter"  stroke-miterlimit="8.0000" fill="none" />
</g>
<g transform="matrix(1.0000 0.0000 0.0000 1.0000 0.0000 0.0000)">
<defs><clipPath id="clip-1350490027"><path d="M 556.0000,180.0000 L 682.0000,180.0000 L 682.0000,214.0000 L 556.0000,214.0000 L 556.0000,180.0000 Z Z" /></clipPath></defs>
<text  clip-path="url(#clip-1350490027)" font-family="Calibri" fill="#000000" style ="white-space:pre;" font-weight="400" text-anchor="start" x="574.0000" y="205.0000" font-size="28.0000" ><![CDATA[Hybrid]]></text>
<text  clip-path="url(#clip-1350490027)" font-family="Calibri" fill="#000000" style ="white-space:pre;" font-weight="400" text-anchor="start" x="648.0000" y="205.0000" font-size="28.0000" ><![CDATA[ ]]></text>
</g>
</g>
</svg>
