<?xml version="1.0"  encoding="UTF-8" standalone="no"?>
<svg version="1.1" xmlns="http://www.w3.org/2000/svg" xmlns:xlink="http://www.w3.org/1999/xlink" width="2358.0000" height="2369.0000">
<g transform="translate(5.0000, -12.0000)">
<g transform="matrix(0.0625 0.0000 0.0000 0.0625 0.0000 0.0000)">
<path d="M 14152.0000,1747.0000 L 14152.0000,23760.0000 L 14024.0000,23760.0000 L 14024.0000,1747.0000 L 14152.0000,1747.0000 Z M 13688.0000,1880.0000 L 14088.0000,1080.0000 L 14488.0000,1880.0000 L 13688.0000,1880.0000 Z "  fill="#000000" stroke="#000000" stroke-width="1.0000"  stroke-linecap="butt"  stroke-linejoin="round" />
</g>
<g transform="matrix(1.0000 0.0000 0.0000 1.0000 0.0000 0.0000)">
</g>
<g transform="matrix(0.1250 0.0000 0.0000 0.1250 0.0000 0.0000)">
<path d="M 18051.0000,11900.0000 L 7044.0000,11900.0000 L 7044.0000,11964.0000 L 18051.0000,11964.0000 L 18051.0000,11900.0000 Z M 17984.0000,12132.0000 L 18384.0000,11932.0000 L 17984.0000,11732.0000 L 17984.0000,12132.0000 Z "  fill="#000000" stroke="#000000" stroke-width="1.0000"  stroke-linecap="butt"  stroke-linejoin="round" />
</g>
<g transform="matrix(1.0000 0.0000 0.0000 1.0000 0.0000 0.0000)">
</g>
<g transform="matrix(1.0000 0.0000 0.0000 1.0000 774.7664 30.2375)">
<text font-family="Times New Roman" fill="#000000" style ="white-space:pre;" font-weight="400" text-anchor="start" x="0.0000" y="97.0000" font-size="100.0000" ><![CDATA[z]]></text>
</g>
<g transform="matrix(1.0000 0.0000 0.0000 1.0000 2246.5059 1515.0984)">
<text font-family="Times New Roman" fill="#000000" style ="white-space:pre;" font-weight="400" text-anchor="start" x="0.0000" y="97.0000" font-size="100.0000" ><![CDATA[y]]></text>
</g>
<g transform="matrix(0.1250 0.0000 0.0000 0.1250 0.0000 0.0000)">
<path d="M 662.0000,18364.0000 L 7070.0000,11931.0000 L 7025.0000,11886.0000 L 617.0000,18318.0000 L 662.0000,18364.0000 Z M 545.0000,18153.0000 L 404.0000,18577.0000 L 828.0000,18435.0000 L 545.0000,18153.0000 Z "  fill="#000000" stroke="#000000" stroke-width="1.0000"  stroke-linecap="butt"  stroke-linejoin="round" />
</g>
<g transform="matrix(1.0000 0.0000 0.0000 1.0000 0.0000 0.0000)">
</g>
<g transform="matrix(1.0000 0.0000 0.0000 1.0000 110.8110 2261.2974)">
<text font-family="Times New Roman" fill="#000000" style ="white-space:pre;" font-weight="400" text-anchor="start" x="0.0000" y="97.0000" font-size="100.0000" ><![CDATA[x]]></text>
</g>
<g transform="matrix(0.1250 0.0000 0.0000 0.1250 0.0000 0.0000)">
<path d="M 14205.0000,18133.0000 L 6946.0000,12001.0000 L 7055.0000,11872.0000 L 14314.0000,18005.0000 L 14205.0000,18133.0000 Z M 14358.0000,17823.0000 L 14580.0000,18340.0000 L 14033.0000,18208.0000 L 14358.0000,17823.0000 Z "  fill="#000000" stroke="#000000" stroke-width="1.0000"  stroke-linecap="butt"  stroke-linejoin="round" />
</g>
<g transform="matrix(1.0000 0.0000 0.0000 1.0000 0.0000 0.0000)">
</g>
<g transform="matrix(0.1250 0.0000 0.0000 0.1250 0.0000 0.0000)">
<path d="M 14628.0000,14532.0000 L 14628.0000,14724.0000 L 14580.0000,14724.0000 L 14580.0000,14532.0000 L 14628.0000,14532.0000 Z M 14628.0000,14868.0000 L 14628.0000,15060.0000 L 14580.0000,15060.0000 L 14580.0000,14868.0000 L 14628.0000,14868.0000 Z M 14628.0000,15204.0000 L 14628.0000,15396.0000 L 14580.0000,15396.0000 L 14580.0000,15204.0000 L 14628.0000,15204.0000 Z M 14628.0000,15540.0000 L 14628.0000,15732.0000 L 14580.0000,15732.0000 L 14580.0000,15540.0000 L 14628.0000,15540.0000 Z M 14628.0000,15876.0000 L 14628.0000,16068.0000 L 14580.0000,16068.0000 L 14580.0000,15876.0000 L 14628.0000,15876.0000 Z M 14628.0000,16212.0000 L 14628.0000,16404.0000 L 14580.0000,16404.0000 L 14580.0000,16212.0000 L 14628.0000,16212.0000 Z M 14628.0000,16548.0000 L 14628.0000,16740.0000 L 14580.0000,16740.0000 L 14580.0000,16548.0000 L 14628.0000,16548.0000 Z M 14628.0000,16884.0000 L 14628.0000,17076.0000 L 14580.0000,17076.0000 L 14580.0000,16884.0000 L 14628.0000,16884.0000 Z M 14628.0000,17220.0000 L 14628.0000,17412.0000 L 14580.0000,17412.0000 L 14580.0000,17220.0000 L 14628.0000,17220.0000 Z M 14628.0000,17556.0000 L 14628.0000,17748.0000 L 14580.0000,17748.0000 L 14580.0000,17556.0000 L 14628.0000,17556.0000 Z M 14628.0000,17892.0000 L 14628.0000,18084.0000 L 14580.0000,18084.0000 L 14580.0000,17892.0000 L 14628.0000,17892.0000 Z M 14628.0000,18228.0000 L 14628.0000,18312.0000 L 14580.0000,18312.0000 L 14580.0000,18228.0000 L 14628.0000,18228.0000 Z "  fill="#000000" stroke="#000000" stroke-width="1.0000"  stroke-linecap="butt"  stroke-linejoin="round" />
</g>
<g transform="matrix(1.0000 0.0000 0.0000 1.0000 0.0000 0.0000)">
</g>
<g transform="matrix(0.0625 0.0000 0.0000 0.0625 0.0000 0.0000)">
<path d="M 14103.0000,23707.0000 L 14468.0000,23827.0000 L 14438.0000,23918.0000 L 14073.0000,23798.0000 L 14103.0000,23707.0000 Z M 14742.0000,23917.0000 L 15107.0000,24037.0000 L 15077.0000,24128.0000 L 14712.0000,24008.0000 L 14742.0000,23917.0000 Z M 15380.0000,24127.0000 L 15745.0000,24246.0000 L 15715.0000,24338.0000 L 15350.0000,24218.0000 L 15380.0000,24127.0000 Z M 16019.0000,24336.0000 L 16383.0000,24456.0000 L 16353.0000,24547.0000 L 15989.0000,24428.0000 L 16019.0000,24336.0000 Z M 16657.0000,24546.0000 L 17022.0000,24666.0000 L 16992.0000,24757.0000 L 16627.0000,24637.0000 L 16657.0000,24546.0000 Z M 17295.0000,24756.0000 L 17660.0000,24876.0000 L 17630.0000,24967.0000 L 17265.0000,24847.0000 L 17295.0000,24756.0000 Z M 17934.0000,24966.0000 L 18299.0000,25086.0000 L 18269.0000,25177.0000 L 17904.0000,25057.0000 L 17934.0000,24966.0000 Z M 18572.0000,25176.0000 L 18937.0000,25296.0000 L 18907.0000,25387.0000 L 18542.0000,25267.0000 L 18572.0000,25176.0000 Z M 19211.0000,25386.0000 L 19575.0000,25505.0000 L 19545.0000,25597.0000 L 19181.0000,25477.0000 L 19211.0000,25386.0000 Z M 19849.0000,25595.0000 L 20214.0000,25715.0000 L 20184.0000,25807.0000 L 19819.0000,25687.0000 L 19849.0000,25595.0000 Z M 20487.0000,25805.0000 L 20852.0000,25925.0000 L 20822.0000,26016.0000 L 20457.0000,25896.0000 L 20487.0000,25805.0000 Z M 21126.0000,26015.0000 L 21491.0000,26135.0000 L 21461.0000,26226.0000 L 21096.0000,26106.0000 L 21126.0000,26015.0000 Z M 21764.0000,26225.0000 L 22129.0000,26345.0000 L 22099.0000,26436.0000 L 21734.0000,26316.0000 L 21764.0000,26225.0000 Z M 22403.0000,26435.0000 L 22767.0000,26555.0000 L 22737.0000,26646.0000 L 22373.0000,26526.0000 L 22403.0000,26435.0000 Z M 23041.0000,26645.0000 L 23406.0000,26765.0000 L 23376.0000,26856.0000 L 23011.0000,26736.0000 L 23041.0000,26645.0000 Z M 23679.0000,26854.0000 L 24044.0000,26974.0000 L 24014.0000,27066.0000 L 23649.0000,26946.0000 L 23679.0000,26854.0000 Z M 24318.0000,27064.0000 L 24683.0000,27184.0000 L 24653.0000,27275.0000 L 24288.0000,27155.0000 L 24318.0000,27064.0000 Z M 24956.0000,27274.0000 L 25321.0000,27394.0000 L 25291.0000,27485.0000 L 24926.0000,27365.0000 L 24956.0000,27274.0000 Z M 25595.0000,27484.0000 L 25959.0000,27604.0000 L 25929.0000,27695.0000 L 25565.0000,27575.0000 L 25595.0000,27484.0000 Z M 26233.0000,27694.0000 L 26598.0000,27814.0000 L 26568.0000,27905.0000 L 26203.0000,27785.0000 L 26233.0000,27694.0000 Z M 26871.0000,27904.0000 L 27236.0000,28024.0000 L 27206.0000,28115.0000 L 26841.0000,27995.0000 L 26871.0000,27904.0000 Z M 27510.0000,28113.0000 L 27875.0000,28233.0000 L 27845.0000,28325.0000 L 27480.0000,28205.0000 L 27510.0000,28113.0000 Z M 28148.0000,28323.0000 L 28513.0000,28443.0000 L 28483.0000,28534.0000 L 28118.0000,28415.0000 L 28148.0000,28323.0000 Z M 28787.0000,28533.0000 L 29151.0000,28653.0000 L 29121.0000,28744.0000 L 28757.0000,28624.0000 L 28787.0000,28533.0000 Z "  fill="#000000" stroke="#000000" stroke-width="1.0000"  stroke-linecap="butt"  stroke-linejoin="round" />
</g>
<g transform="matrix(1.0000 0.0000 0.0000 1.0000 0.0000 0.0000)">
</g>
<g transform="matrix(0.0625 0.0000 0.0000 0.0625 0.0000 0.0000)">
<path d="M 29210.0000,28680.0000 L 29114.0000,28680.0000 L 29114.0000,28776.0000 L 29210.0000,28776.0000 L 29210.0000,28680.0000 Z M 29018.0000,28680.0000 L 28922.0000,28680.0000 L 28922.0000,28776.0000 L 29018.0000,28776.0000 L 29018.0000,28680.0000 Z M 28826.0000,28680.0000 L 28730.0000,28680.0000 L 28730.0000,28776.0000 L 28826.0000,28776.0000 L 28826.0000,28680.0000 Z M 28634.0000,28680.0000 L 28538.0000,28680.0000 L 28538.0000,28776.0000 L 28634.0000,28776.0000 L 28634.0000,28680.0000 Z M 28442.0000,28680.0000 L 28346.0000,28680.0000 L 28346.0000,28776.0000 L 28442.0000,28776.0000 L 28442.0000,28680.0000 Z M 28250.0000,28680.0000 L 28154.0000,28680.0000 L 28154.0000,28776.0000 L 28250.0000,28776.0000 L 28250.0000,28680.0000 Z M 28058.0000,28680.0000 L 27962.0000,28680.0000 L 27962.0000,28776.0000 L 28058.0000,28776.0000 L 28058.0000,28680.0000 Z M 27866.0000,28680.0000 L 27770.0000,28680.0000 L 27770.0000,28776.0000 L 27866.0000,28776.0000 L 27866.0000,28680.0000 Z M 27674.0000,28680.0000 L 27578.0000,28680.0000 L 27578.0000,28776.0000 L 27674.0000,28776.0000 L 27674.0000,28680.0000 Z M 27482.0000,28680.0000 L 27386.0000,28680.0000 L 27386.0000,28776.0000 L 27482.0000,28776.0000 L 27482.0000,28680.0000 Z M 27290.0000,28680.0000 L 27194.0000,28680.0000 L 27194.0000,28776.0000 L 27290.0000,28776.0000 L 27290.0000,28680.0000 Z M 27098.0000,28680.0000 L 27002.0000,28680.0000 L 27002.0000,28776.0000 L 27098.0000,28776.0000 L 27098.0000,28680.0000 Z M 26906.0000,28680.0000 L 26810.0000,28680.0000 L 26810.0000,28776.0000 L 26906.0000,28776.0000 L 26906.0000,28680.0000 Z M 26714.0000,28680.0000 L 26618.0000,28680.0000 L 26618.0000,28776.0000 L 26714.0000,28776.0000 L 26714.0000,28680.0000 Z M 26522.0000,28680.0000 L 26426.0000,28680.0000 L 26426.0000,28776.0000 L 26522.0000,28776.0000 L 26522.0000,28680.0000 Z M 26330.0000,28680.0000 L 26234.0000,28680.0000 L 26234.0000,28776.0000 L 26330.0000,28776.0000 L 26330.0000,28680.0000 Z M 26138.0000,28680.0000 L 26042.0000,28680.0000 L 26042.0000,28776.0000 L 26138.0000,28776.0000 L 26138.0000,28680.0000 Z M 25946.0000,28680.0000 L 25850.0000,28680.0000 L 25850.0000,28776.0000 L 25946.0000,28776.0000 L 25946.0000,28680.0000 Z M 25754.0000,28680.0000 L 25658.0000,28680.0000 L 25658.0000,28776.0000 L 25754.0000,28776.0000 L 25754.0000,28680.0000 Z M 25562.0000,28680.0000 L 25466.0000,28680.0000 L 25466.0000,28776.0000 L 25562.0000,28776.0000 L 25562.0000,28680.0000 Z M 25370.0000,28680.0000 L 25274.0000,28680.0000 L 25274.0000,28776.0000 L 25370.0000,28776.0000 L 25370.0000,28680.0000 Z M 25178.0000,28680.0000 L 25082.0000,28680.0000 L 25082.0000,28776.0000 L 25178.0000,28776.0000 L 25178.0000,28680.0000 Z M 24986.0000,28680.0000 L 24890.0000,28680.0000 L 24890.0000,28776.0000 L 24986.0000,28776.0000 L 24986.0000,28680.0000 Z M 24794.0000,28680.0000 L 24698.0000,28680.0000 L 24698.0000,28776.0000 L 24794.0000,28776.0000 L 24794.0000,28680.0000 Z M 24602.0000,28680.0000 L 24506.0000,28680.0000 L 24506.0000,28776.0000 L 24602.0000,28776.0000 L 24602.0000,28680.0000 Z M 24410.0000,28680.0000 L 24314.0000,28680.0000 L 24314.0000,28776.0000 L 24410.0000,28776.0000 L 24410.0000,28680.0000 Z M 24218.0000,28680.0000 L 24122.0000,28680.0000 L 24122.0000,28776.0000 L 24218.0000,28776.0000 L 24218.0000,28680.0000 Z M 24026.0000,28680.0000 L 23930.0000,28680.0000 L 23930.0000,28776.0000 L 24026.0000,28776.0000 L 24026.0000,28680.0000 Z M 23834.0000,28680.0000 L 23738.0000,28680.0000 L 23738.0000,28776.0000 L 23834.0000,28776.0000 L 23834.0000,28680.0000 Z M 23642.0000,28680.0000 L 23546.0000,28680.0000 L 23546.0000,28776.0000 L 23642.0000,28776.0000 L 23642.0000,28680.0000 Z M 23450.0000,28680.0000 L 23354.0000,28680.0000 L 23354.0000,28776.0000 L 23450.0000,28776.0000 L 23450.0000,28680.0000 Z M 23258.0000,28680.0000 L 23162.0000,28680.0000 L 23162.0000,28776.0000 L 23258.0000,28776.0000 L 23258.0000,28680.0000 Z M 23066.0000,28680.0000 L 22970.0000,28680.0000 L 22970.0000,28776.0000 L 23066.0000,28776.0000 L 23066.0000,28680.0000 Z M 22874.0000,28680.0000 L 22778.0000,28680.0000 L 22778.0000,28776.0000 L 22874.0000,28776.0000 L 22874.0000,28680.0000 Z M 22682.0000,28680.0000 L 22586.0000,28680.0000 L 22586.0000,28776.0000 L 22682.0000,28776.0000 L 22682.0000,28680.0000 Z M 22490.0000,28680.0000 L 22394.0000,28680.0000 L 22394.0000,28776.0000 L 22490.0000,28776.0000 L 22490.0000,28680.0000 Z M 22298.0000,28680.0000 L 22202.0000,28680.0000 L 22202.0000,28776.0000 L 22298.0000,28776.0000 L 22298.0000,28680.0000 Z M 22106.0000,28680.0000 L 22010.0000,28680.0000 L 22010.0000,28776.0000 L 22106.0000,28776.0000 L 22106.0000,28680.0000 Z M 21914.0000,28680.0000 L 21818.0000,28680.0000 L 21818.0000,28776.0000 L 21914.0000,28776.0000 L 21914.0000,28680.0000 Z M 21722.0000,28680.0000 L 21626.0000,28680.0000 L 21626.0000,28776.0000 L 21722.0000,28776.0000 L 21722.0000,28680.0000 Z M 21530.0000,28680.0000 L 21434.0000,28680.0000 L 21434.0000,28776.0000 L 21530.0000,28776.0000 L 21530.0000,28680.0000 Z M 21338.0000,28680.0000 L 21242.0000,28680.0000 L 21242.0000,28776.0000 L 21338.0000,28776.0000 L 21338.0000,28680.0000 Z M 21146.0000,28680.0000 L 21050.0000,28680.0000 L 21050.0000,28776.0000 L 21146.0000,28776.0000 L 21146.0000,28680.0000 Z M 20954.0000,28680.0000 L 20858.0000,28680.0000 L 20858.0000,28776.0000 L 20954.0000,28776.0000 L 20954.0000,28680.0000 Z M 20762.0000,28680.0000 L 20666.0000,28680.0000 L 20666.0000,28776.0000 L 20762.0000,28776.0000 L 20762.0000,28680.0000 Z M 20570.0000,28680.0000 L 20474.0000,28680.0000 L 20474.0000,28776.0000 L 20570.0000,28776.0000 L 20570.0000,28680.0000 Z M 20378.0000,28680.0000 L 20282.0000,28680.0000 L 20282.0000,28776.0000 L 20378.0000,28776.0000 L 20378.0000,28680.0000 Z M 20186.0000,28680.0000 L 20090.0000,28680.0000 L 20090.0000,28776.0000 L 20186.0000,28776.0000 L 20186.0000,28680.0000 Z M 19994.0000,28680.0000 L 19898.0000,28680.0000 L 19898.0000,28776.0000 L 19994.0000,28776.0000 L 19994.0000,28680.0000 Z M 19802.0000,28680.0000 L 19706.0000,28680.0000 L 19706.0000,28776.0000 L 19802.0000,28776.0000 L 19802.0000,28680.0000 Z M 19610.0000,28680.0000 L 19514.0000,28680.0000 L 19514.0000,28776.0000 L 19610.0000,28776.0000 L 19610.0000,28680.0000 Z M 19418.0000,28680.0000 L 19322.0000,28680.0000 L 19322.0000,28776.0000 L 19418.0000,28776.0000 L 19418.0000,28680.0000 Z M 19226.0000,28680.0000 L 19130.0000,28680.0000 L 19130.0000,28776.0000 L 19226.0000,28776.0000 L 19226.0000,28680.0000 Z M 19034.0000,28680.0000 L 18938.0000,28680.0000 L 18938.0000,28776.0000 L 19034.0000,28776.0000 L 19034.0000,28680.0000 Z M 18842.0000,28680.0000 L 18746.0000,28680.0000 L 18746.0000,28776.0000 L 18842.0000,28776.0000 L 18842.0000,28680.0000 Z M 18650.0000,28680.0000 L 18554.0000,28680.0000 L 18554.0000,28776.0000 L 18650.0000,28776.0000 L 18650.0000,28680.0000 Z M 18458.0000,28680.0000 L 18362.0000,28680.0000 L 18362.0000,28776.0000 L 18458.0000,28776.0000 L 18458.0000,28680.0000 Z M 18266.0000,28680.0000 L 18170.0000,28680.0000 L 18170.0000,28776.0000 L 18266.0000,28776.0000 L 18266.0000,28680.0000 Z M 18074.0000,28680.0000 L 17978.0000,28680.0000 L 17978.0000,28776.0000 L 18074.0000,28776.0000 L 18074.0000,28680.0000 Z M 17882.0000,28680.0000 L 17786.0000,28680.0000 L 17786.0000,28776.0000 L 17882.0000,28776.0000 L 17882.0000,28680.0000 Z M 17690.0000,28680.0000 L 17594.0000,28680.0000 L 17594.0000,28776.0000 L 17690.0000,28776.0000 L 17690.0000,28680.0000 Z M 17498.0000,28680.0000 L 17402.0000,28680.0000 L 17402.0000,28776.0000 L 17498.0000,28776.0000 L 17498.0000,28680.0000 Z M 17306.0000,28680.0000 L 17210.0000,28680.0000 L 17210.0000,28776.0000 L 17306.0000,28776.0000 L 17306.0000,28680.0000 Z M 17114.0000,28680.0000 L 17018.0000,28680.0000 L 17018.0000,28776.0000 L 17114.0000,28776.0000 L 17114.0000,28680.0000 Z M 16922.0000,28680.0000 L 16826.0000,28680.0000 L 16826.0000,28776.0000 L 16922.0000,28776.0000 L 16922.0000,28680.0000 Z M 16730.0000,28680.0000 L 16634.0000,28680.0000 L 16634.0000,28776.0000 L 16730.0000,28776.0000 L 16730.0000,28680.0000 Z M 16538.0000,28680.0000 L 16442.0000,28680.0000 L 16442.0000,28776.0000 L 16538.0000,28776.0000 L 16538.0000,28680.0000 Z M 16346.0000,28680.0000 L 16250.0000,28680.0000 L 16250.0000,28776.0000 L 16346.0000,28776.0000 L 16346.0000,28680.0000 Z M 16154.0000,28680.0000 L 16058.0000,28680.0000 L 16058.0000,28776.0000 L 16154.0000,28776.0000 L 16154.0000,28680.0000 Z M 15962.0000,28680.0000 L 15866.0000,28680.0000 L 15866.0000,28776.0000 L 15962.0000,28776.0000 L 15962.0000,28680.0000 Z M 15770.0000,28680.0000 L 15674.0000,28680.0000 L 15674.0000,28776.0000 L 15770.0000,28776.0000 L 15770.0000,28680.0000 Z M 15578.0000,28680.0000 L 15482.0000,28680.0000 L 15482.0000,28776.0000 L 15578.0000,28776.0000 L 15578.0000,28680.0000 Z M 15386.0000,28680.0000 L 15290.0000,28680.0000 L 15290.0000,28776.0000 L 15386.0000,28776.0000 L 15386.0000,28680.0000 Z M 15194.0000,28680.0000 L 15098.0000,28680.0000 L 15098.0000,28776.0000 L 15194.0000,28776.0000 L 15194.0000,28680.0000 Z M 15002.0000,28680.0000 L 14906.0000,28680.0000 L 14906.0000,28776.0000 L 15002.0000,28776.0000 L 15002.0000,28680.0000 Z M 14810.0000,28680.0000 L 14714.0000,28680.0000 L 14714.0000,28776.0000 L 14810.0000,28776.0000 L 14810.0000,28680.0000 Z M 14618.0000,28680.0000 L 14522.0000,28680.0000 L 14522.0000,28776.0000 L 14618.0000,28776.0000 L 14618.0000,28680.0000 Z M 14426.0000,28680.0000 L 14330.0000,28680.0000 L 14330.0000,28776.0000 L 14426.0000,28776.0000 L 14426.0000,28680.0000 Z M 14234.0000,28680.0000 L 14138.0000,28680.0000 L 14138.0000,28776.0000 L 14234.0000,28776.0000 L 14234.0000,28680.0000 Z M 14042.0000,28680.0000 L 13946.0000,28680.0000 L 13946.0000,28776.0000 L 14042.0000,28776.0000 L 14042.0000,28680.0000 Z M 13850.0000,28680.0000 L 13754.0000,28680.0000 L 13754.0000,28776.0000 L 13850.0000,28776.0000 L 13850.0000,28680.0000 Z M 13658.0000,28680.0000 L 13562.0000,28680.0000 L 13562.0000,28776.0000 L 13658.0000,28776.0000 L 13658.0000,28680.0000 Z M 13466.0000,28680.0000 L 13370.0000,28680.0000 L 13370.0000,28776.0000 L 13466.0000,28776.0000 L 13466.0000,28680.0000 Z M 13274.0000,28680.0000 L 13178.0000,28680.0000 L 13178.0000,28776.0000 L 13274.0000,28776.0000 L 13274.0000,28680.0000 Z M 13082.0000,28680.0000 L 12986.0000,28680.0000 L 12986.0000,28776.0000 L 13082.0000,28776.0000 L 13082.0000,28680.0000 Z M 12890.0000,28680.0000 L 12794.0000,28680.0000 L 12794.0000,28776.0000 L 12890.0000,28776.0000 L 12890.0000,28680.0000 Z M 12698.0000,28680.0000 L 12602.0000,28680.0000 L 12602.0000,28776.0000 L 12698.0000,28776.0000 L 12698.0000,28680.0000 Z M 12506.0000,28680.0000 L 12410.0000,28680.0000 L 12410.0000,28776.0000 L 12506.0000,28776.0000 L 12506.0000,28680.0000 Z M 12314.0000,28680.0000 L 12218.0000,28680.0000 L 12218.0000,28776.0000 L 12314.0000,28776.0000 L 12314.0000,28680.0000 Z M 12122.0000,28680.0000 L 12026.0000,28680.0000 L 12026.0000,28776.0000 L 12122.0000,28776.0000 L 12122.0000,28680.0000 Z M 11930.0000,28680.0000 L 11834.0000,28680.0000 L 11834.0000,28776.0000 L 11930.0000,28776.0000 L 11930.0000,28680.0000 Z M 11738.0000,28680.0000 L 11642.0000,28680.0000 L 11642.0000,28776.0000 L 11738.0000,28776.0000 L 11738.0000,28680.0000 Z M 11546.0000,28680.0000 L 11450.0000,28680.0000 L 11450.0000,28776.0000 L 11546.0000,28776.0000 L 11546.0000,28680.0000 Z M 11354.0000,28680.0000 L 11258.0000,28680.0000 L 11258.0000,28776.0000 L 11354.0000,28776.0000 L 11354.0000,28680.0000 Z M 11162.0000,28680.0000 L 11066.0000,28680.0000 L 11066.0000,28776.0000 L 11162.0000,28776.0000 L 11162.0000,28680.0000 Z M 10970.0000,28680.0000 L 10874.0000,28680.0000 L 10874.0000,28776.0000 L 10970.0000,28776.0000 L 10970.0000,28680.0000 Z M 10778.0000,28680.0000 L 10682.0000,28680.0000 L 10682.0000,28776.0000 L 10778.0000,28776.0000 L 10778.0000,28680.0000 Z M 10586.0000,28680.0000 L 10490.0000,28680.0000 L 10490.0000,28776.0000 L 10586.0000,28776.0000 L 10586.0000,28680.0000 Z M 10394.0000,28680.0000 L 10298.0000,28680.0000 L 10298.0000,28776.0000 L 10394.0000,28776.0000 L 10394.0000,28680.0000 Z M 10202.0000,28680.0000 L 10106.0000,28680.0000 L 10106.0000,28776.0000 L 10202.0000,28776.0000 L 10202.0000,28680.0000 Z M 10010.0000,28680.0000 L 9914.0000,28680.0000 L 9914.0000,28776.0000 L 10010.0000,28776.0000 L 10010.0000,28680.0000 Z M 9818.0000,28680.0000 L 9722.0000,28680.0000 L 9722.0000,28776.0000 L 9818.0000,28776.0000 L 9818.0000,28680.0000 Z M 9626.0000,28680.0000 L 9530.0000,28680.0000 L 9530.0000,28776.0000 L 9626.0000,28776.0000 L 9626.0000,28680.0000 Z M 9434.0000,28680.0000 L 9338.0000,28680.0000 L 9338.0000,28776.0000 L 9434.0000,28776.0000 L 9434.0000,28680.0000 Z M 9242.0000,28680.0000 L 9176.0000,28680.0000 L 9176.0000,28776.0000 L 9242.0000,28776.0000 L 9242.0000,28680.0000 Z "  fill="#000000" stroke="#000000" stroke-width="1.0000"  stroke-linecap="butt"  stroke-linejoin="round" />
</g>
<g transform="matrix(1.0000 0.0000 0.0000 1.0000 0.0000 0.0000)">
</g>
<g transform="matrix(0.0625 0.0000 0.0000 0.0625 0.0000 0.0000)">
<path d="M 29252.0000,28751.0000 L 29292.0000,28663.0000 L 29205.0000,28623.0000 L 29165.0000,28710.0000 L 29252.0000,28751.0000 Z M 29332.0000,28576.0000 L 29373.0000,28489.0000 L 29286.0000,28449.0000 L 29245.0000,28536.0000 L 29332.0000,28576.0000 Z M 29413.0000,28402.0000 L 29453.0000,28315.0000 L 29366.0000,28274.0000 L 29326.0000,28362.0000 L 29413.0000,28402.0000 Z M 29493.0000,28228.0000 L 29534.0000,28140.0000 L 29446.0000,28100.0000 L 29406.0000,28187.0000 L 29493.0000,28228.0000 Z M 29574.0000,28053.0000 L 29614.0000,27966.0000 L 29527.0000,27926.0000 L 29487.0000,28013.0000 L 29574.0000,28053.0000 Z M 29654.0000,27879.0000 L 29695.0000,27792.0000 L 29607.0000,27751.0000 L 29567.0000,27839.0000 L 29654.0000,27879.0000 Z M 29735.0000,27705.0000 L 29775.0000,27617.0000 L 29688.0000,27577.0000 L 29648.0000,27664.0000 L 29735.0000,27705.0000 Z M 29815.0000,27530.0000 L 29855.0000,27443.0000 L 29768.0000,27403.0000 L 29728.0000,27490.0000 L 29815.0000,27530.0000 Z M 29896.0000,27356.0000 L 29936.0000,27269.0000 L 29849.0000,27229.0000 L 29809.0000,27316.0000 L 29896.0000,27356.0000 Z M 29976.0000,27182.0000 L 30016.0000,27094.0000 L 29929.0000,27054.0000 L 29889.0000,27141.0000 L 29976.0000,27182.0000 Z M 30057.0000,27007.0000 L 30097.0000,26920.0000 L 30010.0000,26880.0000 L 29969.0000,26967.0000 L 30057.0000,27007.0000 Z M 30137.0000,26833.0000 L 30177.0000,26746.0000 L 30090.0000,26706.0000 L 30050.0000,26793.0000 L 30137.0000,26833.0000 Z M 30218.0000,26659.0000 L 30258.0000,26571.0000 L 30171.0000,26531.0000 L 30130.0000,26618.0000 L 30218.0000,26659.0000 Z M 30298.0000,26484.0000 L 30338.0000,26397.0000 L 30251.0000,26357.0000 L 30211.0000,26444.0000 L 30298.0000,26484.0000 Z M 30378.0000,26310.0000 L 30419.0000,26223.0000 L 30332.0000,26183.0000 L 30291.0000,26270.0000 L 30378.0000,26310.0000 Z M 30459.0000,26136.0000 L 30499.0000,26048.0000 L 30412.0000,26008.0000 L 30372.0000,26095.0000 L 30459.0000,26136.0000 Z M 30539.0000,25961.0000 L 30580.0000,25874.0000 L 30492.0000,25834.0000 L 30452.0000,25921.0000 L 30539.0000,25961.0000 Z M 30620.0000,25787.0000 L 30660.0000,25700.0000 L 30573.0000,25660.0000 L 30533.0000,25747.0000 L 30620.0000,25787.0000 Z M 30700.0000,25613.0000 L 30741.0000,25525.0000 L 30653.0000,25485.0000 L 30613.0000,25572.0000 L 30700.0000,25613.0000 Z M 30781.0000,25438.0000 L 30821.0000,25351.0000 L 30734.0000,25311.0000 L 30694.0000,25398.0000 L 30781.0000,25438.0000 Z M 30861.0000,25264.0000 L 30901.0000,25177.0000 L 30814.0000,25137.0000 L 30774.0000,25224.0000 L 30861.0000,25264.0000 Z M 30942.0000,25090.0000 L 30982.0000,25002.0000 L 30895.0000,24962.0000 L 30855.0000,25049.0000 L 30942.0000,25090.0000 Z M 31022.0000,24915.0000 L 31062.0000,24828.0000 L 30975.0000,24788.0000 L 30935.0000,24875.0000 L 31022.0000,24915.0000 Z M 31103.0000,24741.0000 L 31143.0000,24654.0000 L 31056.0000,24614.0000 L 31015.0000,24701.0000 L 31103.0000,24741.0000 Z M 31183.0000,24567.0000 L 31223.0000,24479.0000 L 31136.0000,24439.0000 L 31096.0000,24526.0000 L 31183.0000,24567.0000 Z M 31264.0000,24392.0000 L 31304.0000,24305.0000 L 31217.0000,24265.0000 L 31176.0000,24352.0000 L 31264.0000,24392.0000 Z M 31344.0000,24218.0000 L 31384.0000,24131.0000 L 31297.0000,24091.0000 L 31257.0000,24178.0000 L 31344.0000,24218.0000 Z M 31424.0000,24044.0000 L 31465.0000,23956.0000 L 31378.0000,23916.0000 L 31337.0000,24003.0000 L 31424.0000,24044.0000 Z M 31505.0000,23869.0000 L 31520.0000,23837.0000 L 31433.0000,23796.0000 L 31418.0000,23829.0000 L 31505.0000,23869.0000 Z "  fill="#000000" stroke="#000000" stroke-width="1.0000"  stroke-linecap="butt"  stroke-linejoin="round" />
</g>
<g transform="matrix(1.0000 0.0000 0.0000 1.0000 0.0000 0.0000)">
</g>
<g transform="matrix(0.0625 0.0000 0.0000 0.0625 0.0000 0.0000)">
<path d="M 22984.0000,26650.0000 L 22978.0000,26893.0000 L 22959.0000,27137.0000 L 22929.0000,27378.0000 L 22887.0000,27618.0000 L 22832.0000,27854.0000 L 22767.0000,28087.0000 L 22689.0000,28316.0000 L 22600.0000,28540.0000 L 22500.0000,28760.0000 L 22390.0000,28975.0000 L 22269.0000,29185.0000 L 22137.0000,29388.0000 L 21949.0000,29626.0000 L 21874.0000,29567.0000 L 22056.0000,29335.0000 L 22186.0000,29136.0000 L 22305.0000,28932.0000 L 22413.0000,28721.0000 L 22511.0000,28505.0000 L 22598.0000,28285.0000 L 22674.0000,28060.0000 L 22739.0000,27833.0000 L 22792.0000,27601.0000 L 22834.0000,27366.0000 L 22864.0000,27130.0000 L 22882.0000,26890.0000 L 22888.0000,26647.0000 L 22984.0000,26650.0000 Z M 22301.0000,29759.0000 L 21473.0000,30099.0000 L 21697.0000,29234.0000 L 22301.0000,29759.0000 Z "  fill="#000000" stroke="#000000" stroke-width="1.0000"  stroke-linecap="butt"  stroke-linejoin="round" />
</g>
<g transform="matrix(1.0000 0.0000 0.0000 1.0000 0.0000 0.0000)">
</g>
<g transform="matrix(0.0625 0.0000 0.0000 0.0625 0.0000 0.0000)">
<path d="M 17935.0000,25698.0000 L 17764.0000,25850.0000 L 17582.0000,25983.0000 L 17397.0000,26105.0000 L 17208.0000,26218.0000 L 17014.0000,26323.0000 L 16817.0000,26418.0000 L 16617.0000,26503.0000 L 16413.0000,26579.0000 L 16207.0000,26646.0000 L 15998.0000,26704.0000 L 15787.0000,26752.0000 L 15573.0000,26791.0000 L 15359.0000,26820.0000 L 15144.0000,26839.0000 L 14928.0000,26849.0000 L 14711.0000,26849.0000 L 14495.0000,26840.0000 L 14279.0000,26821.0000 L 14064.0000,26793.0000 L 13849.0000,26755.0000 L 13635.0000,26706.0000 L 13423.0000,26649.0000 L 13214.0000,26581.0000 L 13007.0000,26503.0000 L 12802.0000,26415.0000 L 12600.0000,26317.0000 L 12402.0000,26209.0000 L 12207.0000,26091.0000 L 12017.0000,25964.0000 L 12072.0000,25881.0000 L 12258.0000,26006.0000 L 12449.0000,26122.0000 L 12643.0000,26227.0000 L 12841.0000,26324.0000 L 13042.0000,26410.0000 L 13245.0000,26486.0000 L 13450.0000,26552.0000 L 13658.0000,26609.0000 L 13866.0000,26656.0000 L 14077.0000,26694.0000 L 14288.0000,26722.0000 L 14500.0000,26741.0000 L 14711.0000,26749.0000 L 14923.0000,26750.0000 L 15135.0000,26740.0000 L 15346.0000,26721.0000 L 15556.0000,26692.0000 L 15764.0000,26655.0000 L 15971.0000,26607.0000 L 16176.0000,26551.0000 L 16378.0000,26486.0000 L 16578.0000,26412.0000 L 16774.0000,26327.0000 L 16967.0000,26234.0000 L 17157.0000,26133.0000 L 17342.0000,26022.0000 L 17523.0000,25902.0000 L 17697.0000,25775.0000 L 17869.0000,25623.0000 L 17935.0000,25698.0000 Z M 17531.0000,25461.0000 L 18387.0000,25203.0000 L 18079.0000,26043.0000 L 17531.0000,25461.0000 Z "  fill="#000000" stroke="#000000" stroke-width="1.0000"  stroke-linecap="butt"  stroke-linejoin="round" />
</g>
<g transform="matrix(1.0000 0.0000 0.0000 1.0000 0.0000 0.0000)">
</g>
<g transform="matrix(1.0000 0.0000 0.0000 1.0000 1459.2086 1816.4658)">
<text font-family="Symbol" fill="#000000" style ="white-space:pre;" font-weight="400" text-anchor="start" x="0.0000" y="99.0000" font-size="100.0000" ><![CDATA[q]]></text>
</g>
<g transform="matrix(1.0000 0.0000 0.0000 1.0000 951.4915 1665.9731)">
<text font-family="Symbol" fill="#000000" style ="white-space:pre;" font-weight="400" text-anchor="start" x="0.0000" y="99.0000" font-size="100.0000" ><![CDATA[f]]></text>
</g>
</g>
</svg>
