<?xml version="1.0"  encoding="UTF-8" standalone="no"?>
<svg version="1.1" xmlns="http://www.w3.org/2000/svg" xmlns:xlink="http://www.w3.org/1999/xlink" width="523.0000" height="492.0000">
<g transform="translate(22.0000, 37.0000)">
<defs><clipPath id="clip-1804289383"><path d="M 0.0000,0.0000 L 517.0000,0.0000 L 517.0000,397.0000 L 0.0000,397.0000 L 0.0000,0.0000 Z Z" /></clipPath></defs>
<g transform="matrix(0.0625 0.0000 0.0000 0.0625 0.0000 0.0000)">
<path  clip-path="url(#clip-1804289383)" d="M 4392.0000,6067.0000 L 4392.0000,784.0000 L 4312.0000,784.0000 L 4312.0000,6067.0000 L 4392.0000,6067.0000 Z M 4352.0000,784.0000 L 4472.0000,864.0000 L 4352.0000,624.0000 L 4232.0000,864.0000 L 4352.0000,784.0000 Z "  fill="#000000" stroke="#000000" stroke-width="1.0000"  stroke-linecap="butt"  stroke-linejoin="round" />
</g>
<g transform="matrix(1.0000 0.0000 0.0000 1.0000 0.0000 0.0000)">
<defs><clipPath id="clip-846930886"><path d="M 0.0000,0.0000 L 517.0000,0.0000 L 517.0000,397.0000 L 0.0000,397.0000 L 0.0000,0.0000 Z Z" /></clipPath></defs>
</g>
<g transform="matrix(0.0625 0.0000 0.0000 0.0625 0.0000 0.0000)">
<path  clip-path="url(#clip-846930886)" d="M 3792.0000,5464.0000 L 5196.0000,5464.0000 L 5196.0000,5544.0000 L 3792.0000,5544.0000 L 3792.0000,5464.0000 Z M 5196.0000,5504.0000 L 5116.0000,5384.0000 L 5356.0000,5504.0000 L 5116.0000,5624.0000 L 5196.0000,5504.0000 Z "  fill="#000000" stroke="#000000" stroke-width="1.0000"  stroke-linecap="butt"  stroke-linejoin="round" />
</g>
<g transform="matrix(1.0000 0.0000 0.0000 1.0000 0.0000 0.0000)">
</g>
<g transform="matrix(1.0000 0.0000 0.0000 1.0000 342.2004 352.1167)">
<text font-family="Aptos" fill="#000000" style ="white-space:pre;" font-weight="400" text-anchor="start" x="0.0000" y="0.0000" font-size="23.0000" ><![CDATA[DL Power [dBm]]]></text>
</g>
<g transform="matrix(1.0000 0.0000 0.0000 1.0000 281.8050 103.5530)">
<text font-family="Aptos" fill="#000000" style ="white-space:pre;" font-weight="400" text-anchor="start" x="0.0000" y="0.0000" font-size="20.0000" ><![CDATA[100%]]></text>
</g>
<g transform="matrix(1.0000 0.0000 0.0000 1.0000 283.9300 215.1044)">
<text font-family="Aptos" fill="#000000" style ="white-space:pre;" font-weight="400" text-anchor="start" x="0.0000" y="0.0000" font-size="20.0000" ><![CDATA[50%]]></text>
</g>
<g transform="matrix(0.0625 0.0000 0.0000 0.0625 0.0000 0.0000)">
<path d="M 4310.0000,1846.0000 L 4250.0000,1846.0000 L 4250.0000,1866.0000 L 4310.0000,1866.0000 L 4310.0000,1846.0000 Z M 4230.0000,1846.0000 L 4170.0000,1846.0000 L 4170.0000,1866.0000 L 4230.0000,1866.0000 L 4230.0000,1846.0000 Z M 4150.0000,1846.0000 L 4090.0000,1846.0000 L 4090.0000,1866.0000 L 4150.0000,1866.0000 L 4150.0000,1846.0000 Z M 4070.0000,1846.0000 L 4010.0000,1846.0000 L 4010.0000,1866.0000 L 4070.0000,1866.0000 L 4070.0000,1846.0000 Z M 3990.0000,1846.0000 L 3930.0000,1846.0000 L 3930.0000,1866.0000 L 3990.0000,1866.0000 L 3990.0000,1846.0000 Z M 3910.0000,1846.0000 L 3850.0000,1846.0000 L 3850.0000,1866.0000 L 3910.0000,1866.0000 L 3910.0000,1846.0000 Z M 3830.0000,1846.0000 L 3770.0000,1846.0000 L 3770.0000,1866.0000 L 3830.0000,1866.0000 L 3830.0000,1846.0000 Z M 3750.0000,1846.0000 L 3690.0000,1846.0000 L 3690.0000,1866.0000 L 3750.0000,1866.0000 L 3750.0000,1846.0000 Z M 3670.0000,1846.0000 L 3610.0000,1846.0000 L 3610.0000,1866.0000 L 3670.0000,1866.0000 L 3670.0000,1846.0000 Z M 3590.0000,1846.0000 L 3530.0000,1846.0000 L 3530.0000,1866.0000 L 3590.0000,1866.0000 L 3590.0000,1846.0000 Z M 3510.0000,1846.0000 L 3450.0000,1846.0000 L 3450.0000,1866.0000 L 3510.0000,1866.0000 L 3510.0000,1846.0000 Z M 3430.0000,1846.0000 L 3370.0000,1846.0000 L 3370.0000,1866.0000 L 3430.0000,1866.0000 L 3430.0000,1846.0000 Z M 3350.0000,1846.0000 L 3290.0000,1846.0000 L 3290.0000,1866.0000 L 3350.0000,1866.0000 L 3350.0000,1846.0000 Z M 3270.0000,1846.0000 L 3210.0000,1846.0000 L 3210.0000,1866.0000 L 3270.0000,1866.0000 L 3270.0000,1846.0000 Z M 3190.0000,1846.0000 L 3130.0000,1846.0000 L 3130.0000,1866.0000 L 3190.0000,1866.0000 L 3190.0000,1846.0000 Z M 3110.0000,1846.0000 L 3050.0000,1846.0000 L 3050.0000,1866.0000 L 3110.0000,1866.0000 L 3110.0000,1846.0000 Z M 3030.0000,1846.0000 L 2970.0000,1846.0000 L 2970.0000,1866.0000 L 3030.0000,1866.0000 L 3030.0000,1846.0000 Z M 2950.0000,1846.0000 L 2890.0000,1846.0000 L 2890.0000,1866.0000 L 2950.0000,1866.0000 L 2950.0000,1846.0000 Z M 2870.0000,1846.0000 L 2810.0000,1846.0000 L 2810.0000,1866.0000 L 2870.0000,1866.0000 L 2870.0000,1846.0000 Z M 2790.0000,1846.0000 L 2730.0000,1846.0000 L 2730.0000,1866.0000 L 2790.0000,1866.0000 L 2790.0000,1846.0000 Z M 2710.0000,1846.0000 L 2650.0000,1846.0000 L 2650.0000,1866.0000 L 2710.0000,1866.0000 L 2710.0000,1846.0000 Z M 2630.0000,1846.0000 L 2570.0000,1846.0000 L 2570.0000,1866.0000 L 2630.0000,1866.0000 L 2630.0000,1846.0000 Z M 2550.0000,1846.0000 L 2490.0000,1846.0000 L 2490.0000,1866.0000 L 2550.0000,1866.0000 L 2550.0000,1846.0000 Z M 2470.0000,1846.0000 L 2410.0000,1846.0000 L 2410.0000,1866.0000 L 2470.0000,1866.0000 L 2470.0000,1846.0000 Z M 2390.0000,1846.0000 L 2330.0000,1846.0000 L 2330.0000,1866.0000 L 2390.0000,1866.0000 L 2390.0000,1846.0000 Z M 2310.0000,1846.0000 L 2250.0000,1846.0000 L 2250.0000,1866.0000 L 2310.0000,1866.0000 L 2310.0000,1846.0000 Z M 2230.0000,1846.0000 L 2170.0000,1846.0000 L 2170.0000,1866.0000 L 2230.0000,1866.0000 L 2230.0000,1846.0000 Z M 2150.0000,1846.0000 L 2090.0000,1846.0000 L 2090.0000,1866.0000 L 2150.0000,1866.0000 L 2150.0000,1846.0000 Z M 2070.0000,1846.0000 L 2010.0000,1846.0000 L 2010.0000,1866.0000 L 2070.0000,1866.0000 L 2070.0000,1846.0000 Z M 1990.0000,1846.0000 L 1930.0000,1846.0000 L 1930.0000,1866.0000 L 1990.0000,1866.0000 L 1990.0000,1846.0000 Z M 1910.0000,1846.0000 L 1850.0000,1846.0000 L 1850.0000,1866.0000 L 1910.0000,1866.0000 L 1910.0000,1846.0000 Z M 1830.0000,1846.0000 L 1770.0000,1846.0000 L 1770.0000,1866.0000 L 1830.0000,1866.0000 L 1830.0000,1846.0000 Z M 1750.0000,1846.0000 L 1690.0000,1846.0000 L 1690.0000,1866.0000 L 1750.0000,1866.0000 L 1750.0000,1846.0000 Z M 1670.0000,1846.0000 L 1610.0000,1846.0000 L 1610.0000,1866.0000 L 1670.0000,1866.0000 L 1670.0000,1846.0000 Z M 1590.0000,1846.0000 L 1530.0000,1846.0000 L 1530.0000,1866.0000 L 1590.0000,1866.0000 L 1590.0000,1846.0000 Z M 1510.0000,1846.0000 L 1450.0000,1846.0000 L 1450.0000,1866.0000 L 1510.0000,1866.0000 L 1510.0000,1846.0000 Z M 1430.0000,1846.0000 L 1370.0000,1846.0000 L 1370.0000,1866.0000 L 1430.0000,1866.0000 L 1430.0000,1846.0000 Z M 1350.0000,1846.0000 L 1290.0000,1846.0000 L 1290.0000,1866.0000 L 1350.0000,1866.0000 L 1350.0000,1846.0000 Z M 1270.0000,1846.0000 L 1210.0000,1846.0000 L 1210.0000,1866.0000 L 1270.0000,1866.0000 L 1270.0000,1846.0000 Z M 1190.0000,1846.0000 L 1130.0000,1846.0000 L 1130.0000,1866.0000 L 1190.0000,1866.0000 L 1190.0000,1846.0000 Z M 1110.0000,1846.0000 L 1050.0000,1846.0000 L 1050.0000,1866.0000 L 1110.0000,1866.0000 L 1110.0000,1846.0000 Z M 1030.0000,1846.0000 L 970.0000,1846.0000 L 970.0000,1866.0000 L 1030.0000,1866.0000 L 1030.0000,1846.0000 Z M 950.0000,1846.0000 L 890.0000,1846.0000 L 890.0000,1866.0000 L 950.0000,1866.0000 L 950.0000,1846.0000 Z M 870.0000,1846.0000 L 810.0000,1846.0000 L 810.0000,1866.0000 L 870.0000,1866.0000 L 870.0000,1846.0000 Z M 790.0000,1846.0000 L 730.0000,1846.0000 L 730.0000,1866.0000 L 790.0000,1866.0000 L 790.0000,1846.0000 Z M 710.0000,1846.0000 L 650.0000,1846.0000 L 650.0000,1866.0000 L 710.0000,1866.0000 L 710.0000,1846.0000 Z M 630.0000,1846.0000 L 570.0000,1846.0000 L 570.0000,1866.0000 L 630.0000,1866.0000 L 630.0000,1846.0000 Z M 550.0000,1846.0000 L 490.0000,1846.0000 L 490.0000,1866.0000 L 550.0000,1866.0000 L 550.0000,1846.0000 Z M 470.0000,1846.0000 L 410.0000,1846.0000 L 410.0000,1866.0000 L 470.0000,1866.0000 L 470.0000,1846.0000 Z M 390.0000,1846.0000 L 330.0000,1846.0000 L 330.0000,1866.0000 L 390.0000,1866.0000 L 390.0000,1846.0000 Z M 310.0000,1846.0000 L 250.0000,1846.0000 L 250.0000,1866.0000 L 310.0000,1866.0000 L 310.0000,1846.0000 Z M 230.0000,1846.0000 L 170.0000,1846.0000 L 170.0000,1866.0000 L 230.0000,1866.0000 L 230.0000,1846.0000 Z M 150.0000,1846.0000 L 96.0000,1846.0000 L 96.0000,1866.0000 L 150.0000,1866.0000 L 150.0000,1846.0000 Z "  fill="#7F7F7F" stroke="#7F7F7F" stroke-width="1.0000"  stroke-linecap="butt"  stroke-linejoin="round" />
</g>
<g transform="matrix(1.0000 0.0000 0.0000 1.0000 0.0000 0.0000)">
</g>
<g transform="matrix(1.0000 0.0000 0.0000 1.0000 282.9836 122.9771)">
<text font-family="Aptos" fill="#7F7F7F" style ="white-space:pre;" font-weight="400" text-anchor="start" x="0.0000" y="0.0000" font-size="20.0000" ><![CDATA[95%]]></text>
<defs><clipPath id="clip-1681692777"><path d="M 0.0000,0.0000 L 517.0000,0.0000 L 517.0000,397.0000 L 0.0000,397.0000 L 0.0000,0.0000 Z Z" /></clipPath></defs>
</g>
<g transform="matrix(0.0625 0.0000 0.0000 0.0625 0.0000 0.0000)">
<path  clip-path="url(#clip-1681692777)" d="M 0.0000,5504.0000 L 3253.0000,5504.0000 " stroke="#000000" stroke-width="80.0000"  stroke-linecap="butt"  stroke-linejoin="miter"  stroke-miterlimit="8.0000" fill="none" />
</g>
<g transform="matrix(1.0000 0.0000 0.0000 1.0000 0.0000 0.0000)">
</g>
<g transform="matrix(1.0000 0.0000 0.0000 1.0000 206.2603 346.8473)">
<text font-family="Aptos" fill="#000000" style ="white-space:pre;" font-weight="700" text-anchor="start" x="0.0000" y="0.0000" font-size="30.0000" ><![CDATA[…]]></text>
</g>
<g transform="matrix(1.0000 0.0000 0.0000 1.0000 146.1209 376.0621)">
<text font-family="Calibri" fill="#000000" style ="white-space:pre;" font-weight="400" text-anchor="start" x="0.0000" y="0.0000" font-size="23.0000" ><![CDATA[X]]></text>
</g>
<g transform="matrix(0.0625 0.0000 0.0000 0.0625 0.0000 0.0000)">
<path d="M 1082.0000,3056.0000 L 1082.0000,3116.0000 L 1062.0000,3116.0000 L 1062.0000,3056.0000 L 1082.0000,3056.0000 Z M 1082.0000,3136.0000 L 1082.0000,3196.0000 L 1062.0000,3196.0000 L 1062.0000,3136.0000 L 1082.0000,3136.0000 Z M 1082.0000,3216.0000 L 1082.0000,3276.0000 L 1062.0000,3276.0000 L 1062.0000,3216.0000 L 1082.0000,3216.0000 Z M 1082.0000,3296.0000 L 1082.0000,3356.0000 L 1062.0000,3356.0000 L 1062.0000,3296.0000 L 1082.0000,3296.0000 Z M 1082.0000,3376.0000 L 1082.0000,3436.0000 L 1062.0000,3436.0000 L 1062.0000,3376.0000 L 1082.0000,3376.0000 Z M 1082.0000,3456.0000 L 1082.0000,3516.0000 L 1062.0000,3516.0000 L 1062.0000,3456.0000 L 1082.0000,3456.0000 Z M 1082.0000,3536.0000 L 1082.0000,3596.0000 L 1062.0000,3596.0000 L 1062.0000,3536.0000 L 1082.0000,3536.0000 Z M 1082.0000,3616.0000 L 1082.0000,3676.0000 L 1062.0000,3676.0000 L 1062.0000,3616.0000 L 1082.0000,3616.0000 Z M 1082.0000,3696.0000 L 1082.0000,3756.0000 L 1062.0000,3756.0000 L 1062.0000,3696.0000 L 1082.0000,3696.0000 Z M 1082.0000,3776.0000 L 1082.0000,3836.0000 L 1062.0000,3836.0000 L 1062.0000,3776.0000 L 1082.0000,3776.0000 Z M 1082.0000,3856.0000 L 1082.0000,3916.0000 L 1062.0000,3916.0000 L 1062.0000,3856.0000 L 1082.0000,3856.0000 Z M 1082.0000,3936.0000 L 1082.0000,3996.0000 L 1062.0000,3996.0000 L 1062.0000,3936.0000 L 1082.0000,3936.0000 Z M 1082.0000,4016.0000 L 1082.0000,4076.0000 L 1062.0000,4076.0000 L 1062.0000,4016.0000 L 1082.0000,4016.0000 Z M 1082.0000,4096.0000 L 1082.0000,4156.0000 L 1062.0000,4156.0000 L 1062.0000,4096.0000 L 1082.0000,4096.0000 Z M 1082.0000,4176.0000 L 1082.0000,4236.0000 L 1062.0000,4236.0000 L 1062.0000,4176.0000 L 1082.0000,4176.0000 Z M 1082.0000,4256.0000 L 1082.0000,4316.0000 L 1062.0000,4316.0000 L 1062.0000,4256.0000 L 1082.0000,4256.0000 Z M 1082.0000,4336.0000 L 1082.0000,4396.0000 L 1062.0000,4396.0000 L 1062.0000,4336.0000 L 1082.0000,4336.0000 Z M 1082.0000,4416.0000 L 1082.0000,4476.0000 L 1062.0000,4476.0000 L 1062.0000,4416.0000 L 1082.0000,4416.0000 Z M 1082.0000,4496.0000 L 1082.0000,4556.0000 L 1062.0000,4556.0000 L 1062.0000,4496.0000 L 1082.0000,4496.0000 Z M 1082.0000,4576.0000 L 1082.0000,4636.0000 L 1062.0000,4636.0000 L 1062.0000,4576.0000 L 1082.0000,4576.0000 Z M 1082.0000,4656.0000 L 1082.0000,4716.0000 L 1062.0000,4716.0000 L 1062.0000,4656.0000 L 1082.0000,4656.0000 Z M 1082.0000,4736.0000 L 1082.0000,4796.0000 L 1062.0000,4796.0000 L 1062.0000,4736.0000 L 1082.0000,4736.0000 Z M 1082.0000,4816.0000 L 1082.0000,4876.0000 L 1062.0000,4876.0000 L 1062.0000,4816.0000 L 1082.0000,4816.0000 Z M 1082.0000,4896.0000 L 1082.0000,4956.0000 L 1062.0000,4956.0000 L 1062.0000,4896.0000 L 1082.0000,4896.0000 Z M 1082.0000,4976.0000 L 1082.0000,5036.0000 L 1062.0000,5036.0000 L 1062.0000,4976.0000 L 1082.0000,4976.0000 Z M 1082.0000,5056.0000 L 1082.0000,5116.0000 L 1062.0000,5116.0000 L 1062.0000,5056.0000 L 1082.0000,5056.0000 Z M 1082.0000,5136.0000 L 1082.0000,5196.0000 L 1062.0000,5196.0000 L 1062.0000,5136.0000 L 1082.0000,5136.0000 Z M 1082.0000,5216.0000 L 1082.0000,5276.0000 L 1062.0000,5276.0000 L 1062.0000,5216.0000 L 1082.0000,5216.0000 Z M 1082.0000,5296.0000 L 1082.0000,5356.0000 L 1062.0000,5356.0000 L 1062.0000,5296.0000 L 1082.0000,5296.0000 Z M 1082.0000,5376.0000 L 1082.0000,5436.0000 L 1062.0000,5436.0000 L 1062.0000,5376.0000 L 1082.0000,5376.0000 Z M 1082.0000,5456.0000 L 1082.0000,5516.0000 L 1062.0000,5516.0000 L 1062.0000,5456.0000 L 1082.0000,5456.0000 Z M 1082.0000,5536.0000 L 1082.0000,5596.0000 L 1062.0000,5596.0000 L 1062.0000,5536.0000 L 1082.0000,5536.0000 Z M 1082.0000,5616.0000 L 1082.0000,5676.0000 L 1062.0000,5676.0000 L 1062.0000,5616.0000 L 1082.0000,5616.0000 Z "  fill="#000000" stroke="#000000" stroke-width="1.0000"  stroke-linecap="butt"  stroke-linejoin="round" />
</g>
<g transform="matrix(1.0000 0.0000 0.0000 1.0000 0.0000 0.0000)">
</g>
<g transform="matrix(1.0000 0.0000 0.0000 1.0000 41.0695 376.0621)">
<text font-family="Calibri" fill="#000000" style ="white-space:pre;" font-weight="400" text-anchor="start" x="0.0000" y="0.0000" font-size="23.0000" ><![CDATA[X]]></text>
</g>
<g transform="matrix(1.0000 0.0000 0.0000 1.0000 53.0695 376.0621)">
<text font-family="Calibri" fill="#000000" style ="white-space:pre;" font-weight="400" text-anchor="start" x="0.0000" y="0.0000" font-size="23.0000" ><![CDATA[-]]></text>
</g>
<g transform="matrix(1.0000 0.0000 0.0000 1.0000 60.0695 376.0621)">
<text font-family="Calibri" fill="#000000" style ="white-space:pre;" font-weight="400" text-anchor="start" x="0.0000" y="0.0000" font-size="23.0000" ><![CDATA[0.5]]></text>
</g>
<g transform="matrix(0.0625 0.0000 0.0000 0.0625 0.0000 0.0000)">
<path d="M 2458.0000,1760.0000 L 2458.0000,1820.0000 L 2438.0000,1820.0000 L 2438.0000,1760.0000 L 2458.0000,1760.0000 Z M 2458.0000,1840.0000 L 2458.0000,1900.0000 L 2438.0000,1900.0000 L 2438.0000,1840.0000 L 2458.0000,1840.0000 Z M 2458.0000,1920.0000 L 2458.0000,1980.0000 L 2438.0000,1980.0000 L 2438.0000,1920.0000 L 2458.0000,1920.0000 Z M 2458.0000,2000.0000 L 2458.0000,2060.0000 L 2438.0000,2060.0000 L 2438.0000,2000.0000 L 2458.0000,2000.0000 Z M 2458.0000,2080.0000 L 2458.0000,2140.0000 L 2438.0000,2140.0000 L 2438.0000,2080.0000 L 2458.0000,2080.0000 Z M 2458.0000,2160.0000 L 2458.0000,2220.0000 L 2438.0000,2220.0000 L 2438.0000,2160.0000 L 2458.0000,2160.0000 Z M 2458.0000,2240.0000 L 2458.0000,2300.0000 L 2438.0000,2300.0000 L 2438.0000,2240.0000 L 2458.0000,2240.0000 Z M 2458.0000,2320.0000 L 2458.0000,2380.0000 L 2438.0000,2380.0000 L 2438.0000,2320.0000 L 2458.0000,2320.0000 Z M 2458.0000,2400.0000 L 2458.0000,2460.0000 L 2438.0000,2460.0000 L 2438.0000,2400.0000 L 2458.0000,2400.0000 Z M 2458.0000,2480.0000 L 2458.0000,2540.0000 L 2438.0000,2540.0000 L 2438.0000,2480.0000 L 2458.0000,2480.0000 Z M 2458.0000,2560.0000 L 2458.0000,2620.0000 L 2438.0000,2620.0000 L 2438.0000,2560.0000 L 2458.0000,2560.0000 Z M 2458.0000,2640.0000 L 2458.0000,2700.0000 L 2438.0000,2700.0000 L 2438.0000,2640.0000 L 2458.0000,2640.0000 Z M 2458.0000,2720.0000 L 2458.0000,2780.0000 L 2438.0000,2780.0000 L 2438.0000,2720.0000 L 2458.0000,2720.0000 Z M 2458.0000,2800.0000 L 2458.0000,2860.0000 L 2438.0000,2860.0000 L 2438.0000,2800.0000 L 2458.0000,2800.0000 Z M 2458.0000,2880.0000 L 2458.0000,2940.0000 L 2438.0000,2940.0000 L 2438.0000,2880.0000 L 2458.0000,2880.0000 Z M 2458.0000,2960.0000 L 2458.0000,3020.0000 L 2438.0000,3020.0000 L 2438.0000,2960.0000 L 2458.0000,2960.0000 Z M 2458.0000,3040.0000 L 2458.0000,3100.0000 L 2438.0000,3100.0000 L 2438.0000,3040.0000 L 2458.0000,3040.0000 Z M 2458.0000,3120.0000 L 2458.0000,3180.0000 L 2438.0000,3180.0000 L 2438.0000,3120.0000 L 2458.0000,3120.0000 Z M 2458.0000,3200.0000 L 2458.0000,3260.0000 L 2438.0000,3260.0000 L 2438.0000,3200.0000 L 2458.0000,3200.0000 Z M 2458.0000,3280.0000 L 2458.0000,3340.0000 L 2438.0000,3340.0000 L 2438.0000,3280.0000 L 2458.0000,3280.0000 Z M 2458.0000,3360.0000 L 2458.0000,3420.0000 L 2438.0000,3420.0000 L 2438.0000,3360.0000 L 2458.0000,3360.0000 Z M 2458.0000,3440.0000 L 2458.0000,3500.0000 L 2438.0000,3500.0000 L 2438.0000,3440.0000 L 2458.0000,3440.0000 Z M 2458.0000,3520.0000 L 2458.0000,3580.0000 L 2438.0000,3580.0000 L 2438.0000,3520.0000 L 2458.0000,3520.0000 Z M 2458.0000,3600.0000 L 2458.0000,3660.0000 L 2438.0000,3660.0000 L 2438.0000,3600.0000 L 2458.0000,3600.0000 Z M 2458.0000,3680.0000 L 2458.0000,3740.0000 L 2438.0000,3740.0000 L 2438.0000,3680.0000 L 2458.0000,3680.0000 Z M 2458.0000,3760.0000 L 2458.0000,3820.0000 L 2438.0000,3820.0000 L 2438.0000,3760.0000 L 2458.0000,3760.0000 Z M 2458.0000,3840.0000 L 2458.0000,3900.0000 L 2438.0000,3900.0000 L 2438.0000,3840.0000 L 2458.0000,3840.0000 Z M 2458.0000,3920.0000 L 2458.0000,3980.0000 L 2438.0000,3980.0000 L 2438.0000,3920.0000 L 2458.0000,3920.0000 Z M 2458.0000,4000.0000 L 2458.0000,4060.0000 L 2438.0000,4060.0000 L 2438.0000,4000.0000 L 2458.0000,4000.0000 Z M 2458.0000,4080.0000 L 2458.0000,4140.0000 L 2438.0000,4140.0000 L 2438.0000,4080.0000 L 2458.0000,4080.0000 Z M 2458.0000,4160.0000 L 2458.0000,4220.0000 L 2438.0000,4220.0000 L 2438.0000,4160.0000 L 2458.0000,4160.0000 Z M 2458.0000,4240.0000 L 2458.0000,4300.0000 L 2438.0000,4300.0000 L 2438.0000,4240.0000 L 2458.0000,4240.0000 Z M 2458.0000,4320.0000 L 2458.0000,4380.0000 L 2438.0000,4380.0000 L 2438.0000,4320.0000 L 2458.0000,4320.0000 Z M 2458.0000,4400.0000 L 2458.0000,4460.0000 L 2438.0000,4460.0000 L 2438.0000,4400.0000 L 2458.0000,4400.0000 Z M 2458.0000,4480.0000 L 2458.0000,4540.0000 L 2438.0000,4540.0000 L 2438.0000,4480.0000 L 2458.0000,4480.0000 Z M 2458.0000,4560.0000 L 2458.0000,4620.0000 L 2438.0000,4620.0000 L 2438.0000,4560.0000 L 2458.0000,4560.0000 Z M 2458.0000,4640.0000 L 2458.0000,4700.0000 L 2438.0000,4700.0000 L 2438.0000,4640.0000 L 2458.0000,4640.0000 Z M 2458.0000,4720.0000 L 2458.0000,4780.0000 L 2438.0000,4780.0000 L 2438.0000,4720.0000 L 2458.0000,4720.0000 Z M 2458.0000,4800.0000 L 2458.0000,4860.0000 L 2438.0000,4860.0000 L 2438.0000,4800.0000 L 2458.0000,4800.0000 Z M 2458.0000,4880.0000 L 2458.0000,4940.0000 L 2438.0000,4940.0000 L 2438.0000,4880.0000 L 2458.0000,4880.0000 Z M 2458.0000,4960.0000 L 2458.0000,5020.0000 L 2438.0000,5020.0000 L 2438.0000,4960.0000 L 2458.0000,4960.0000 Z M 2458.0000,5040.0000 L 2458.0000,5100.0000 L 2438.0000,5100.0000 L 2438.0000,5040.0000 L 2458.0000,5040.0000 Z M 2458.0000,5120.0000 L 2458.0000,5180.0000 L 2438.0000,5180.0000 L 2438.0000,5120.0000 L 2458.0000,5120.0000 Z M 2458.0000,5200.0000 L 2458.0000,5260.0000 L 2438.0000,5260.0000 L 2438.0000,5200.0000 L 2458.0000,5200.0000 Z M 2458.0000,5280.0000 L 2458.0000,5340.0000 L 2438.0000,5340.0000 L 2438.0000,5280.0000 L 2458.0000,5280.0000 Z M 2458.0000,5360.0000 L 2458.0000,5420.0000 L 2438.0000,5420.0000 L 2438.0000,5360.0000 L 2458.0000,5360.0000 Z M 2458.0000,5440.0000 L 2458.0000,5500.0000 L 2438.0000,5500.0000 L 2438.0000,5440.0000 L 2458.0000,5440.0000 Z M 2458.0000,5520.0000 L 2458.0000,5580.0000 L 2438.0000,5580.0000 L 2438.0000,5520.0000 L 2458.0000,5520.0000 Z M 2458.0000,5600.0000 L 2458.0000,5660.0000 L 2438.0000,5660.0000 L 2438.0000,5600.0000 L 2458.0000,5600.0000 Z "  fill="#000000" stroke="#000000" stroke-width="1.0000"  stroke-linecap="butt"  stroke-linejoin="round" />
</g>
<g transform="matrix(1.0000 0.0000 0.0000 1.0000 0.0000 0.0000)">
</g>
<g transform="matrix(0.0625 0.0000 0.0000 0.0625 0.0000 0.0000)">
<path d="M 2458.0000,5600.0000 M 1006.0000,3261.0000 C 1112.0000,2351.0000 1807.0000,1661.0000 2645.0000,1633.0000 " stroke="#0000FF" stroke-width="40.0000"  stroke-linecap="butt"  stroke-linejoin="miter"  stroke-miterlimit="8.0000"  fill="none" />
</g>
<g transform="matrix(1.0000 0.0000 0.0000 1.0000 0.0000 0.0000)">
</g>
<g transform="matrix(1.0000 0.0000 0.0000 1.0000 211.3654 29.8952)">
<text font-family="Aptos" fill="#000000" style ="white-space:pre;" font-weight="400" text-anchor="start" x="0.0000" y="0.0000" font-size="23.0000" ><![CDATA[Throughput]]></text>
</g>
<g transform="matrix(0.0625 0.0000 0.0000 0.0625 0.0000 0.0000)">
<path d="M 968.0000,2952.0000 C 968.0000,2899.0000 1011.0000,2856.0000 1064.0000,2856.0000 C 1117.0000,2856.0000 1160.0000,2899.0000 1160.0000,2952.0000 C 1160.0000,3005.0000 1117.0000,3048.0000 1064.0000,3048.0000 C 1011.0000,3048.0000 968.0000,3005.0000 968.0000,2952.0000 "  fill="#FF0000" stroke="none" />
</g>
<g transform="matrix(1.0000 0.0000 0.0000 1.0000 0.0000 0.0000)">
</g>
<g transform="matrix(0.0625 0.0000 0.0000 0.0625 0.0000 0.0000)">
<path d="M 2344.0000,1656.0000 C 2344.0000,1603.0000 2387.0000,1560.0000 2440.0000,1560.0000 C 2493.0000,1560.0000 2536.0000,1603.0000 2536.0000,1656.0000 C 2536.0000,1709.0000 2493.0000,1752.0000 2440.0000,1752.0000 C 2387.0000,1752.0000 2344.0000,1709.0000 2344.0000,1656.0000 "  fill="#00FF00" stroke="none" />
</g>
<g transform="matrix(1.0000 0.0000 0.0000 1.0000 0.0000 0.0000)">
</g>
<g transform="matrix(0.0625 0.0000 0.0000 0.0625 0.0000 0.0000)">
<path d="M 1728.0000,1822.0000 L 1832.0000,1822.0000 L 1864.0000,1712.0000 L 1897.0000,1822.0000 L 2000.0000,1822.0000 L 1916.0000,1890.0000 L 1949.0000,2000.0000 L 1864.0000,1932.0000 L 1780.0000,2000.0000 L 1813.0000,1890.0000 Z" stroke-width="1px" stroke="#0000FF"  fill="#0000FF" />
</g>
<g transform="matrix(1.0000 0.0000 0.0000 1.0000 0.0000 0.0000)">
</g>
<g transform="matrix(0.0625 0.0000 0.0000 0.0625 0.0000 0.0000)">
<path d="M 1728.0000,1822.0000 L 1832.0000,1822.0000 L 1864.0000,1712.0000 L 1897.0000,1822.0000 L 2000.0000,1822.0000 L 1916.0000,1890.0000 L 1949.0000,2000.0000 L 1864.0000,1932.0000 L 1780.0000,2000.0000 L 1813.0000,1890.0000 Z" stroke="#7F7F7F" stroke-width="13.0000"  stroke-linecap="butt"  stroke-linejoin="miter"  stroke-miterlimit="8.0000" fill="none" />
</g>
<g transform="matrix(1.0000 0.0000 0.0000 1.0000 0.0000 0.0000)">
</g>
</g>
</svg>
