<?xml version="1.0" encoding="UTF-8" standalone="no"?>
<!DOCTYPE svg PUBLIC "-//W3C//DTD SVG 1.0//EN" "http://www.w3.org/TR/2001/REC-SVG-20010904/DTD/svg10.dtd">
<svg xmlns="http://www.w3.org/2000/svg" xmlns:xlink="http://www.w3.org/1999/xlink" fill-rule="evenodd" height="0.51in" preserveAspectRatio="none" stroke-linecap="round" viewBox="0 0 3178 306" width="5.296666666666667in">
    <style type="text/css">
.brush0 { fill: rgb(255,255,255); }
.pen0 { stroke: rgb(0,0,0); stroke-width: 1; stroke-linejoin: round; }
.font0 { font-weight: bold; font-size: 16px; font-family: System, sans-serif; }
.font1 { font-size: 90px; font-family: "Times New Roman", serif; }
.pen1 { stroke: rgb(0,0,0); stroke-width: 6; stroke-linejoin: round; }
.font2 { font-size: 55px; font-family: Verdana, sans-serif; }
.pen2 { stroke: rgb(0,0,0); stroke-width: 6; stroke-linejoin: round; }
.brush1 { fill: none; }
.pen3 { stroke: none; }
.brush2 { fill: rgb(0,0,0); }
.font3 { font-style: italic; font-size: 67px; font-family: Arial, sans-serif; }
.font4 { font-size: 67px; font-family: Arial, sans-serif; }
.font5 { font-size: 44px; font-family: Arial, sans-serif; }
.font6 { font-style: italic; font-size: 67px; font-family: Arial, sans-serif; }
.font7 { font-style: italic; font-size: 44px; font-family: Arial, sans-serif; }
</style>
    <g>
        <g>
            <clipPath id="clipPath0">
                <rect height="306" width="3188" x="0" y="1"/>
            </clipPath>
            <text class="font1" clip-path="url(#clipPath0)" fill="rgb(0,0,0)" stroke="none" style="dominant-baseline: text-before-edge;" x="0" xml:lang="en" xml:space="preserve" y="1"> </text>
        </g>
        <rect class="pen1 brush0" height="301" width="826" x="3" y="3"/>
        <g>
            <clipPath id="clipPath1">
                <rect height="233" width="698" x="66" y="36"/>
            </clipPath>
            <text class="font2" clip-path="url(#clipPath1)" fill="rgb(0,0,0)" stroke="none" style="dominant-baseline: text-before-edge;" x="188 244 284 324 359 401 430 470 535 575 617 643" xml:lang="en" xml:space="preserve" y="37">Measurement </text>
        </g>
        <g>
            <clipPath id="clipPath2">
                <rect height="233" width="698" x="66" y="36"/>
            </clipPath>
            <text class="font2" clip-path="url(#clipPath2)" fill="rgb(0,0,0)" stroke="none" style="dominant-baseline: text-before-edge;" x="280 309 349 384 424 441 481 521" xml:lang="en" xml:space="preserve" y="118">receiver</text>
        </g>
        <g>
            <clipPath id="clipPath3">
                <rect height="233" width="698" x="66" y="36"/>
            </clipPath>
            <text class="font2" clip-path="url(#clipPath3)" fill="rgb(0,0,0)" stroke="none" style="dominant-baseline: text-before-edge;" x="550" xml:lang="en" xml:space="preserve" y="118"> </text>
        </g>
        <g>
            <clipPath id="clipPath4">
                <rect height="233" width="698" x="66" y="36"/>
            </clipPath>
            <text class="font2" clip-path="url(#clipPath4)" fill="rgb(0,0,0)" stroke="none" style="dominant-baseline: text-before-edge;" x="322 352 408 432 479" xml:lang="en" xml:space="preserve" y="199">(M.R)</text>
        </g>
        <g>
            <clipPath id="clipPath5">
                <rect height="233" width="698" x="66" y="36"/>
            </clipPath>
            <text class="font1" clip-path="url(#clipPath5)" fill="rgb(0,0,0)" stroke="none" style="dominant-baseline: text-before-edge;" x="509" xml:lang="en" xml:space="preserve" y="176"> </text>
        </g>
    </g>
    <g>
        <rect class="pen1 brush0" height="151" width="451" x="2119" y="77"/>
        <g>
            <clipPath id="clipPath6">
                <rect height="84" width="324" x="2182" y="110"/>
            </clipPath>
            <text class="font2" clip-path="url(#clipPath6)" fill="rgb(0,0,0)" stroke="none" style="dominant-baseline: text-before-edge;" x="2229 2276 2316 2358 2376 2416" xml:lang="en" xml:space="preserve" y="109">Cable4</text>
        </g>
        <g>
            <clipPath id="clipPath7">
                <rect height="84" width="324" x="2182" y="110"/>
            </clipPath>
            <text class="font2" clip-path="url(#clipPath7)" fill="rgb(0,0,0)" stroke="none" style="dominant-baseline: text-before-edge;" x="2459" xml:lang="en" xml:space="preserve" y="109"> </text>
        </g>
    </g>
    <g>
        <polyline class="pen2" fill="none" points="837,148 1415,148"/>
        <polygon class="pen3 brush2" points="1413,181 1478,149 1413,116"/>
        <rect class="pen3 brush1" height="191" width="571" x="813" y="30"/>
        <g>
            <clipPath id="clipPath8">
                <rect height="130" width="449" x="873" y="59"/>
            </clipPath>
            <text class="font6" clip-path="url(#clipPath8)" fill="rgb(0,0,0)" stroke="none" style="dominant-baseline: text-before-edge;" x="1028" xml:lang="ru" xml:space="preserve" y="60">Г</text>
        </g>
        <g>
            <clipPath id="clipPath9">
                <rect height="130" width="449" x="873" y="59"/>
            </clipPath>
            <text class="font4" clip-path="url(#clipPath9)" fill="rgb(0,0,0)" stroke="none" style="dominant-baseline: text-before-edge;" x="1069" xml:lang="en" xml:space="preserve" y="60"> </text>
        </g>
        <g>
            <clipPath id="clipPath10">
                <rect height="130" width="449" x="873" y="59"/>
            </clipPath>
            <text class="font5" clip-path="url(#clipPath10)" fill="rgb(0,0,0)" stroke="none" style="dominant-baseline: text-before-edge;" x="1090 1131" xml:lang="en" xml:space="preserve" y="89">MR</text>
        </g>
        <g>
            <clipPath id="clipPath11">
                <rect height="130" width="449" x="873" y="59"/>
            </clipPath>
            <text class="font4" clip-path="url(#clipPath11)" fill="rgb(0,0,0)" stroke="none" style="dominant-baseline: text-before-edge;" x="1167" xml:lang="en" xml:space="preserve" y="60"> </text>
        </g>
    </g>
    <g>
        <polyline class="pen2" fill="none" points="1541,148 2119,148"/>
        <polygon class="pen3 brush2" points="1544,116 1478,149 1544,181"/>
        <rect class="pen3 brush1" height="191" width="571" x="1573" y="30"/>
        <g>
            <clipPath id="clipPath12">
                <rect height="130" width="449" x="1633" y="59"/>
            </clipPath>
            <text class="font6" clip-path="url(#clipPath12)" fill="rgb(0,0,0)" stroke="none" style="dominant-baseline: text-before-edge;" x="1753" xml:lang="ru" xml:space="preserve" y="60">Г</text>
        </g>
        <g>
            <clipPath id="clipPath13">
                <rect height="130" width="449" x="1633" y="59"/>
            </clipPath>
            <text class="font4" clip-path="url(#clipPath13)" fill="rgb(0,0,0)" stroke="none" style="dominant-baseline: text-before-edge;" x="1794" xml:lang="en" xml:space="preserve" y="60"> </text>
        </g>
        <g>
            <clipPath id="clipPath14">
                <rect height="130" width="449" x="1633" y="59"/>
            </clipPath>
            <text class="font7" clip-path="url(#clipPath14)" fill="rgb(0,0,0)" stroke="none" style="dominant-baseline: text-before-edge;" x="1815 1840 1868 1896 1907 1935" xml:lang="en" xml:space="preserve" y="89">cable4</text>
        </g>
        <g>
            <clipPath id="clipPath15">
                <rect height="130" width="449" x="1633" y="59"/>
            </clipPath>
            <text class="font4" clip-path="url(#clipPath15)" fill="rgb(0,0,0)" stroke="none" style="dominant-baseline: text-before-edge;" x="1963" xml:lang="en" xml:space="preserve" y="60"> </text>
        </g>
    </g>
    <g>
        <polygon class="pen3 brush2" fill-rule="nonzero" points="2574,155 2573,155 2572,156 2571,157 2570,158 2570,158 2571,159 2572,160 2573,161 2596,161 2597,161 2598,161 2599,160 2600,159 2600,158 2599,157 2598,156 2597,155"/>
        <polygon class="pen3 brush2" fill-rule="nonzero" points="2615,155 2614,155 2613,156 2612,157 2612,158 2612,159 2612,160 2613,161 2614,161 2638,161 2639,161 2640,161 2641,160 2642,159 2642,158 2641,157 2640,156 2639,155"/>
        <polygon class="pen3 brush2" fill-rule="nonzero" points="2657,155 2656,155 2655,156 2654,157 2654,158 2654,159 2654,160 2655,161 2656,161 2680,161 2681,161 2682,161 2683,160 2684,159 2684,158 2683,157 2682,156 2681,155"/>
        <polygon class="pen3 brush2" fill-rule="nonzero" points="2699,155 2698,155 2697,156 2696,157 2696,158 2696,159 2696,160 2697,161 2698,161 2722,161 2723,161 2724,161 2725,160 2726,159 2726,158 2725,157 2724,156 2723,155"/>
        <polygon class="pen3 brush2" fill-rule="nonzero" points="2741,155 2740,155 2739,156 2738,157 2738,158 2738,159 2738,160 2739,161 2740,161 2764,161 2765,161 2766,161 2767,160 2768,159 2768,158 2767,157 2766,156 2765,155"/>
        <polygon class="pen3 brush2" fill-rule="nonzero" points="2783,155 2782,155 2781,156 2780,157 2780,158 2780,159 2780,160 2781,161 2782,161 2806,161 2807,161 2808,161 2809,160 2810,159 2810,158 2809,157 2808,156 2807,155"/>
        <polygon class="pen3 brush2" fill-rule="nonzero" points="2825,155 2824,155 2823,156 2822,157 2822,158 2822,159 2822,160 2823,161 2824,161 2848,161 2849,161 2850,161 2851,160 2852,159 2852,158 2851,157 2850,156 2849,155"/>
        <polygon class="pen3 brush2" fill-rule="nonzero" points="2867,155 2866,155 2865,156 2864,157 2864,158 2864,159 2864,160 2865,161 2866,161 2890,161 2891,161 2892,161 2893,160 2894,159 2894,158 2893,157 2892,156 2891,155"/>
        <polygon class="pen3 brush2" fill-rule="nonzero" points="2909,155 2908,155 2907,156 2906,157 2906,158 2906,159 2906,160 2907,161 2908,161 2932,161 2933,161 2934,161 2935,160 2936,159 2936,158 2935,157 2934,156 2933,155"/>
        <polygon class="pen3 brush2" fill-rule="nonzero" points="2951,155 2950,155 2949,156 2948,157 2948,158 2948,159 2948,160 2949,161 2950,161 2974,161 2975,161 2976,161 2977,160 2978,159 2978,158 2977,157 2976,156 2975,155"/>
        <polygon class="pen3 brush2" fill-rule="nonzero" points="2993,155 2992,155 2991,156 2990,157 2990,158 2990,159 2990,160 2991,161 2992,161 3016,161 3017,161 3018,161 3019,160 3020,159 3020,158 3019,157 3018,156 3017,155"/>
        <polygon class="pen3 brush2" fill-rule="nonzero" points="3035,155 3034,155 3033,156 3032,157 3032,158 3032,159 3032,160 3033,161 3034,161 3058,161 3059,161 3060,161 3061,160 3062,159 3062,158 3061,157 3060,156 3059,155"/>
        <polygon class="pen3 brush2" fill-rule="nonzero" points="3077,155 3076,155 3075,156 3074,157 3074,158 3074,159 3074,160 3075,161 3076,161 3100,161 3101,161 3102,161 3103,160 3104,159 3104,158 3103,157 3102,156 3101,155"/>
        <polygon class="pen3 brush2" fill-rule="nonzero" points="3119,155 3118,155 3117,156 3116,157 3116,158 3116,159 3116,160 3117,161 3118,161 3142,161 3143,161 3144,161 3145,160 3146,159 3146,158 3145,157 3144,156 3143,155"/>
        <polygon class="pen3 brush2" fill-rule="nonzero" points="3161,155 3160,155 3159,156 3158,157 3158,158 3158,159 3158,160 3159,161 3160,161 3173,161 3173,161 3174,160 3175,159 3176,158 3176,158 3175,157 3174,156 3174,155"/>
    </g>
</svg>
