<?xml version="1.0"  encoding="UTF-8" standalone="no"?>
<svg version="1.1" xmlns="http://www.w3.org/2000/svg" xmlns:xlink="http://www.w3.org/1999/xlink" width="1691.0000" height="1444.0000">
<g transform="translate(-0.0000, -0.0000)">
<text font-family="Times New Roman" fill="#000000" style ="white-space:pre;" font-weight="400" text-anchor="start" x="0.0000" y="90.0000" font-size="100.0000" ><![CDATA[ ]]></text>
<g transform="matrix(0.0625 0.0000 0.0000 0.0625 0.0000 0.0000)">
<path d="M 11006.0000,10406.0000 L 11006.0000,13446.0000 L 22026.0000,13446.0000 L 22026.0000,10406.0000 L 11006.0000,10406.0000 Z" stroke-width="1px" stroke="#FFFFFF"  fill="#FFFFFF" />
</g>
<g transform="matrix(1.0000 0.0000 0.0000 1.0000 0.0000 0.0000)">
</g>
<g transform="matrix(0.0625 0.0000 0.0000 0.0625 0.0000 0.0000)">
<path d="M 11006.0000,10406.0000 L 11006.0000,13446.0000 L 22026.0000,13446.0000 L 22026.0000,10406.0000 Z" stroke="#000000" stroke-width="100.0000"  stroke-linecap="round"  stroke-linejoin="miter"  stroke-miterlimit="8.0000" fill="none" />
</g>
<g transform="matrix(1.0000 0.0000 0.0000 1.0000 0.0000 0.0000)">
<defs><clipPath id="clip-1804289383"><path d="M 692.0000,684.0000 L 1374.0000,684.0000 L 1374.0000,807.0000 L 692.0000,807.0000 L 692.0000,684.0000 Z Z" /></clipPath></defs>
<text  clip-path="url(#clip-1804289383)" font-family="Times New Roman" fill="#000000" style ="white-space:pre;" font-weight="400" text-anchor="start" x="933.0000" y="762.0000" font-size="83.0000" ><![CDATA[SCTP]]></text>
<text  clip-path="url(#clip-1804289383)" font-family="Times New Roman" fill="#000000" style ="white-space:pre;" font-weight="400" text-anchor="start" x="1132.0000" y="762.0000" font-size="83.0000" ><![CDATA[ ]]></text>
</g>
<g transform="matrix(0.0625 0.0000 0.0000 0.0625 0.0000 0.0000)">
<path d="M 11006.0000,13446.0000 L 11006.0000,16486.0000 L 22026.0000,16486.0000 L 22026.0000,13446.0000 L 11006.0000,13446.0000 Z" stroke-width="1px" stroke="#FFFFFF"  fill="#FFFFFF" />
</g>
<g transform="matrix(1.0000 0.0000 0.0000 1.0000 0.0000 0.0000)">
</g>
<g transform="matrix(0.0625 0.0000 0.0000 0.0625 0.0000 0.0000)">
<path d="M 11006.0000,13446.0000 L 11006.0000,16486.0000 L 22026.0000,16486.0000 L 22026.0000,13446.0000 Z" stroke="#000000" stroke-width="100.0000"  stroke-linecap="round"  stroke-linejoin="miter"  stroke-miterlimit="8.0000" fill="none" />
</g>
<g transform="matrix(1.0000 0.0000 0.0000 1.0000 0.0000 0.0000)">
<defs><clipPath id="clip-846930886"><path d="M 692.0000,874.0000 L 1374.0000,874.0000 L 1374.0000,997.0000 L 692.0000,997.0000 L 692.0000,874.0000 Z Z" /></clipPath></defs>
<text  clip-path="url(#clip-846930886)" font-family="Times New Roman" fill="#000000" style ="white-space:pre;" font-weight="400" text-anchor="start" x="996.0000" y="952.0000" font-size="83.0000" ><![CDATA[IP]]></text>
<text  clip-path="url(#clip-846930886)" font-family="Times New Roman" fill="#000000" style ="white-space:pre;" font-weight="400" text-anchor="start" x="1070.0000" y="952.0000" font-size="83.0000" ><![CDATA[ ]]></text>
</g>
<g transform="matrix(0.0625 0.0000 0.0000 0.0625 0.0000 0.0000)">
<path d="M 11006.0000,16486.0000 L 11006.0000,19526.0000 L 22026.0000,19526.0000 L 22026.0000,16486.0000 L 11006.0000,16486.0000 Z" stroke-width="1px" stroke="#FFFFFF"  fill="#FFFFFF" />
</g>
<g transform="matrix(1.0000 0.0000 0.0000 1.0000 0.0000 0.0000)">
</g>
<g transform="matrix(0.0625 0.0000 0.0000 0.0625 0.0000 0.0000)">
<path d="M 11006.0000,16486.0000 L 11006.0000,19526.0000 L 22026.0000,19526.0000 L 22026.0000,16486.0000 Z" stroke="#000000" stroke-width="100.0000"  stroke-linecap="round"  stroke-linejoin="miter"  stroke-miterlimit="8.0000" fill="none" />
</g>
<g transform="matrix(1.0000 0.0000 0.0000 1.0000 0.0000 0.0000)">
<defs><clipPath id="clip-1681692777"><path d="M 691.0000,1064.0000 L 1374.0000,1064.0000 L 1374.0000,1187.0000 L 691.0000,1187.0000 L 691.0000,1064.0000 Z Z" /></clipPath></defs>
<text  clip-path="url(#clip-1681692777)" font-family="Times New Roman" fill="#000000" style ="white-space:pre;" font-weight="400" text-anchor="start" x="785.0000" y="1142.0000" font-size="83.0000" ><![CDATA[Data link layer]]></text>
<text  clip-path="url(#clip-1681692777)" font-family="Times New Roman" fill="#000000" style ="white-space:pre;" font-weight="400" text-anchor="start" x="1280.0000" y="1142.0000" font-size="83.0000" ><![CDATA[ ]]></text>
</g>
<g transform="matrix(0.0625 0.0000 0.0000 0.0625 0.0000 0.0000)">
<path d="M 10826.0000,3506.0000 L 10826.0000,7026.0000 L 21846.0000,7026.0000 L 21846.0000,3506.0000 L 10826.0000,3506.0000 Z" stroke-width="1px" stroke="#FFFFFF"  fill="#FFFFFF" />
</g>
<g transform="matrix(1.0000 0.0000 0.0000 1.0000 0.0000 0.0000)">
</g>
<g transform="matrix(0.0625 0.0000 0.0000 0.0625 0.0000 0.0000)">
<path d="M 10826.0000,3506.0000 L 10826.0000,7026.0000 L 21846.0000,7026.0000 L 21846.0000,3506.0000 Z" stroke="#000000" stroke-width="100.0000"  stroke-linecap="round"  stroke-linejoin="miter"  stroke-miterlimit="8.0000" fill="none" />
</g>
<g transform="matrix(1.0000 0.0000 0.0000 1.0000 0.0000 0.0000)">
<defs><clipPath id="clip-1714636915"><path d="M 680.0000,253.0000 L 1362.0000,253.0000 L 1362.0000,406.0000 L 680.0000,406.0000 L 680.0000,253.0000 Z Z" /></clipPath></defs>
<text  clip-path="url(#clip-1714636915)" font-family="Times New Roman" fill="#000000" style ="white-space:pre;" font-weight="400" text-anchor="start" x="908.0000" y="331.0000" font-size="83.0000" ><![CDATA[NG]]></text>
<text  clip-path="url(#clip-1714636915)" font-family="Times New Roman" fill="#000000" style ="white-space:pre;" font-weight="400" text-anchor="start" x="1029.0000" y="331.0000" font-size="83.0000" ><![CDATA[AP]]></text>
<text  clip-path="url(#clip-1714636915)" font-family="Times New Roman" fill="#000000" style ="white-space:pre;" font-weight="400" text-anchor="start" x="1135.0000" y="331.0000" font-size="83.0000" ><![CDATA[ ]]></text>
</g>
<g transform="matrix(0.0625 0.0000 0.0000 0.0625 0.0000 0.0000)">
<path d="M 11006.0000,19526.0000 L 11006.0000,22566.0000 L 22026.0000,22566.0000 L 22026.0000,19526.0000 L 11006.0000,19526.0000 Z" stroke-width="1px" stroke="#FFFFFF"  fill="#FFFFFF" />
</g>
<g transform="matrix(1.0000 0.0000 0.0000 1.0000 0.0000 0.0000)">
</g>
<g transform="matrix(0.0625 0.0000 0.0000 0.0625 0.0000 0.0000)">
<path d="M 11006.0000,19526.0000 L 11006.0000,22566.0000 L 22026.0000,22566.0000 L 22026.0000,19526.0000 Z" stroke="#000000" stroke-width="100.0000"  stroke-linecap="round"  stroke-linejoin="miter"  stroke-miterlimit="8.0000" fill="none" />
</g>
<g transform="matrix(1.0000 0.0000 0.0000 1.0000 0.0000 0.0000)">
<defs><clipPath id="clip-1957747793"><path d="M 691.0000,1254.0000 L 1374.0000,1254.0000 L 1374.0000,1377.0000 L 691.0000,1377.0000 L 691.0000,1254.0000 Z Z" /></clipPath></defs>
<text  clip-path="url(#clip-1957747793)" font-family="Times New Roman" fill="#000000" style ="white-space:pre;" font-weight="400" text-anchor="start" x="797.0000" y="1332.0000" font-size="83.0000" ><![CDATA[Physical]]></text>
<text  clip-path="url(#clip-1957747793)" font-family="Times New Roman" fill="#000000" style ="white-space:pre;" font-weight="400" text-anchor="start" x="1078.0000" y="1332.0000" font-size="83.0000" ><![CDATA[ ]]></text>
<text  clip-path="url(#clip-1957747793)" font-family="Times New Roman" fill="#000000" style ="white-space:pre;" font-weight="400" text-anchor="start" x="1099.0000" y="1332.0000" font-size="83.0000" ><![CDATA[layer]]></text>
<text  clip-path="url(#clip-1957747793)" font-family="Times New Roman" fill="#000000" style ="white-space:pre;" font-weight="400" text-anchor="start" x="1267.0000" y="1332.0000" font-size="83.0000" ><![CDATA[ ]]></text>
</g>
<g transform="matrix(0.0625 0.0000 0.0000 0.0625 0.0000 0.0000)">
<path d="M 6446.0000,8626.0000 L 26966.0000,8626.0000 " stroke="#000000" stroke-width="100.0000"  stroke-linecap="butt"  stroke-linejoin="round" fill="none" />
</g>
<g transform="matrix(1.0000 0.0000 0.0000 1.0000 0.0000 0.0000)">
</g>
<g transform="matrix(0.0625 0.0000 0.0000 0.0625 0.0000 0.0000)">
<path d="M 1506.0000,3406.0000 L 1506.0000,8346.0000 L 10246.0000,8346.0000 L 10246.0000,3406.0000 L 1506.0000,3406.0000 Z" stroke-width="1px" stroke="#FFFFFF"  fill="#FFFFFF" />
</g>
<g transform="matrix(1.0000 0.0000 0.0000 1.0000 0.0000 0.0000)">
<defs><clipPath id="clip-424238335"><path d="M 95.0000,219.0000 L 640.0000,219.0000 L 640.0000,516.0000 L 95.0000,516.0000 L 95.0000,219.0000 Z Z" /></clipPath></defs>
<text  clip-path="url(#clip-424238335)" font-family="Times New Roman" fill="#000000" style ="white-space:pre;" font-weight="400" text-anchor="start" x="143.0000" y="275.0000" font-size="83.0000" ><![CDATA[Radio ]]></text>
<text  clip-path="url(#clip-424238335)" font-family="Times New Roman" fill="#000000" style ="white-space:pre;" font-weight="400" text-anchor="start" x="363.0000" y="275.0000" font-size="83.0000" ><![CDATA[ ]]></text>
<text  clip-path="url(#clip-424238335)" font-family="Times New Roman" fill="#000000" style ="white-space:pre;" font-weight="400" text-anchor="start" x="143.0000" y="347.0000" font-size="83.0000" ><![CDATA[Network]]></text>
<text  clip-path="url(#clip-424238335)" font-family="Times New Roman" fill="#000000" style ="white-space:pre;" font-weight="400" text-anchor="start" x="435.0000" y="347.0000" font-size="83.0000" ><![CDATA[ ]]></text>
<text  clip-path="url(#clip-424238335)" font-family="Times New Roman" fill="#000000" style ="white-space:pre;" font-weight="400" text-anchor="start" x="143.0000" y="421.0000" font-size="83.0000" ><![CDATA[Layer]]></text>
<text  clip-path="url(#clip-424238335)" font-family="Times New Roman" fill="#000000" style ="white-space:pre;" font-weight="400" text-anchor="start" x="337.0000" y="421.0000" font-size="83.0000" ><![CDATA[ ]]></text>
</g>
<g transform="matrix(0.0625 0.0000 0.0000 0.0625 0.0000 0.0000)">
<path d="M 16326.0000,7086.0000 L 16326.0000,10526.0000 " stroke="#000000" stroke-width="100.0000"  stroke-linecap="butt"  stroke-linejoin="round" fill="none" />
</g>
<g transform="matrix(1.0000 0.0000 0.0000 1.0000 0.0000 0.0000)">
</g>
<g transform="matrix(0.0625 0.0000 0.0000 0.0625 0.0000 0.0000)">
<path d="M 1506.0000,14046.0000 L 1506.0000,20506.0000 L 8346.0000,20506.0000 L 8346.0000,14046.0000 L 1506.0000,14046.0000 Z" stroke-width="1px" stroke="#FFFFFF"  fill="#FFFFFF" />
</g>
<g transform="matrix(1.0000 0.0000 0.0000 1.0000 0.0000 0.0000)">
<defs><clipPath id="clip-719885386"><path d="M 95.0000,884.0000 L 522.0000,884.0000 L 522.0000,1276.0000 L 95.0000,1276.0000 L 95.0000,884.0000 Z Z" /></clipPath></defs>
<text  clip-path="url(#clip-719885386)" font-family="Times New Roman" fill="#000000" style ="white-space:pre;" font-weight="400" text-anchor="start" x="143.0000" y="959.0000" font-size="83.0000" ><![CDATA[Transport]]></text>
<text  clip-path="url(#clip-719885386)" font-family="Times New Roman" fill="#000000" style ="white-space:pre;" font-weight="400" text-anchor="start" x="143.0000" y="1055.0000" font-size="83.0000" ><![CDATA[N]]></text>
<text  clip-path="url(#clip-719885386)" font-family="Times New Roman" fill="#000000" style ="white-space:pre;" font-weight="400" text-anchor="start" x="203.0000" y="1055.0000" font-size="83.0000" ><![CDATA[etwork]]></text>
<text  clip-path="url(#clip-719885386)" font-family="Times New Roman" fill="#000000" style ="white-space:pre;" font-weight="400" text-anchor="start" x="143.0000" y="1154.0000" font-size="83.0000" ><![CDATA[L]]></text>
<text  clip-path="url(#clip-719885386)" font-family="Times New Roman" fill="#000000" style ="white-space:pre;" font-weight="400" text-anchor="start" x="193.0000" y="1154.0000" font-size="83.0000" ><![CDATA[ayer]]></text>
<text  clip-path="url(#clip-719885386)" font-family="Times New Roman" fill="#000000" style ="white-space:pre;" font-weight="400" text-anchor="start" x="337.0000" y="1154.0000" font-size="83.0000" ><![CDATA[ ]]></text>
</g>
<g transform="matrix(0.0625 0.0000 0.0000 0.0625 0.0000 0.0000)">
<path d="M 1506.0000,14046.0000 M 16426.0000,8066.0000 C 15531.0000,8066.0000 14806.0000,8299.0000 14806.0000,8586.0000 C 14806.0000,8873.0000 15531.0000,9106.0000 16426.0000,9106.0000 C 17321.0000,9106.0000 18046.0000,8873.0000 18046.0000,8586.0000 C 18046.0000,8299.0000 17321.0000,8066.0000 16426.0000,8066.0000 " stroke="#000000" stroke-width="100.0000"  stroke-linecap="round"  stroke-linejoin="round"  fill="none" />
</g>
<g transform="matrix(1.0000 0.0000 0.0000 1.0000 0.0000 0.0000)">
</g>
</g>
</svg>
