<?xml version="1.0"  encoding="UTF-8" standalone="no"?>
<svg version="1.1" xmlns="http://www.w3.org/2000/svg" xmlns:xlink="http://www.w3.org/1999/xlink" width="683.0000" height="92.0000">
<g transform="translate(-13.0000, -3.0000)">
<g transform="matrix(0.0625 0.0000 0.0000 0.0625 0.0000 0.0000)">
<path d="M 9434.0000,530.0000 L 9434.0000,1438.0000 L 9555.0000,1438.0000 L 9555.0000,530.0000 L 9434.0000,530.0000 Z" stroke-width="1px" stroke="#7F7F7F"  fill="#7F7F7F" />
</g>
<g transform="matrix(1.0000 0.0000 0.0000 1.0000 0.0000 0.0000)">
</g>
<g transform="matrix(0.0625 0.0000 0.0000 0.0625 0.0000 0.0000)">
<path d="M 9434.0000,1438.0000 L 9555.0000,1438.0000 L 9555.0000,530.0000 L 9434.0000,530.0000 L 9434.0000,1438.0000 Z" stroke="#FFFFFF" stroke-width="16.0000"  stroke-linecap="round"  stroke-linejoin="round" fill="none" />
</g>
<g transform="matrix(1.0000 0.0000 0.0000 1.0000 0.0000 0.0000)">
</g>
<g transform="matrix(0.0625 0.0000 0.0000 0.0625 0.0000 0.0000)">
<path d="M 8987.0000,530.0000 L 8987.0000,1438.0000 L 9108.0000,1438.0000 L 9108.0000,530.0000 L 8987.0000,530.0000 Z" stroke-width="1px" stroke="#7F7F7F"  fill="#7F7F7F" />
</g>
<g transform="matrix(1.0000 0.0000 0.0000 1.0000 0.0000 0.0000)">
</g>
<g transform="matrix(0.0625 0.0000 0.0000 0.0625 0.0000 0.0000)">
<path d="M 8987.0000,1438.0000 L 9108.0000,1438.0000 L 9108.0000,530.0000 L 8987.0000,530.0000 L 8987.0000,1438.0000 Z" stroke="#FFFFFF" stroke-width="16.0000"  stroke-linecap="round"  stroke-linejoin="round" fill="none" />
</g>
<g transform="matrix(1.0000 0.0000 0.0000 1.0000 0.0000 0.0000)">
</g>
<g transform="matrix(1.0000 0.0000 0.0000 1.0000 605.6660 84.8664)">
<text font-family="Calibri" fill="#000000" style ="white-space:pre;" font-weight="400" text-anchor="start" x="0.0000" y="0.0000" font-size="13.0000" ><![CDATA[Deep sleep]]></text>
</g>
<g transform="matrix(0.0625 0.0000 0.0000 0.0625 0.0000 0.0000)">
<path d="M 9111.0000,530.0000 L 9111.0000,1438.0000 L 9430.0000,1438.0000 L 9430.0000,530.0000 L 9111.0000,530.0000 Z" stroke-width="1px" stroke="#4BACC6"  fill="#4BACC6" />
</g>
<g transform="matrix(1.0000 0.0000 0.0000 1.0000 0.0000 0.0000)">
</g>
<g transform="matrix(0.0625 0.0000 0.0000 0.0625 0.0000 0.0000)">
<path d="M 9111.0000,1438.0000 L 9430.0000,1438.0000 L 9430.0000,530.0000 L 9111.0000,530.0000 L 9111.0000,1438.0000 Z" stroke="#FFFFFF" stroke-width="16.0000"  stroke-linecap="round"  stroke-linejoin="round" fill="none" />
</g>
<g transform="matrix(1.0000 0.0000 0.0000 1.0000 0.0000 0.0000)">
</g>
<g transform="matrix(1.0000 0.0000 0.0000 1.0000 576.7920 58.3688)">
<text font-family="Calibri" fill="#FFFFFF" style ="white-space:pre;" font-weight="400" text-anchor="start" x="0.0000" y="0.0000" font-size="12.0000" ><![CDATA[P]]></text>
</g>
<g transform="matrix(1.0000 0.0000 0.0000 1.0000 575.9189 72.7685)">
<text font-family="Calibri" fill="#FFFFFF" style ="white-space:pre;" font-weight="400" text-anchor="start" x="0.0000" y="0.0000" font-size="12.0000" ><![CDATA[O]]></text>
</g>
<g transform="matrix(0.0625 0.0000 0.0000 0.0625 0.0000 0.0000)">
<path d="M 1265.0000,528.0000 L 1265.0000,1435.0000 L 1719.0000,1435.0000 L 1719.0000,528.0000 L 1265.0000,528.0000 Z" stroke-width="1px" stroke="#92D050"  fill="#92D050" />
</g>
<g transform="matrix(1.0000 0.0000 0.0000 1.0000 0.0000 0.0000)">
</g>
<g transform="matrix(0.0625 0.0000 0.0000 0.0625 0.0000 0.0000)">
<path d="M 1265.0000,1435.0000 L 1719.0000,1435.0000 L 1719.0000,528.0000 L 1265.0000,528.0000 L 1265.0000,1435.0000 Z" stroke="#FFFFFF" stroke-width="16.0000"  stroke-linecap="round"  stroke-linejoin="round" fill="none" />
</g>
<g transform="matrix(1.0000 0.0000 0.0000 1.0000 0.0000 0.0000)">
</g>
<g transform="matrix(1.0000 0.0000 0.0000 1.0000 84.9356 65.4017)">
<text font-family="Calibri" fill="#FFFFFF" style ="white-space:pre;" font-weight="400" text-anchor="start" x="0.0000" y="0.0000" font-size="12.0000" ><![CDATA[SSB]]></text>
</g>
<g transform="matrix(0.0625 0.0000 0.0000 0.0625 0.0000 0.0000)">
<path d="M 1144.0000,528.0000 L 1144.0000,1435.0000 L 1265.0000,1435.0000 L 1265.0000,528.0000 L 1144.0000,528.0000 Z" stroke-width="1px" stroke="#7F7F7F"  fill="#7F7F7F" />
</g>
<g transform="matrix(1.0000 0.0000 0.0000 1.0000 0.0000 0.0000)">
</g>
<g transform="matrix(0.0625 0.0000 0.0000 0.0625 0.0000 0.0000)">
<path d="M 1144.0000,1435.0000 L 1265.0000,1435.0000 L 1265.0000,528.0000 L 1144.0000,528.0000 L 1144.0000,1435.0000 Z" stroke="#FFFFFF" stroke-width="16.0000"  stroke-linecap="round"  stroke-linejoin="round" fill="none" />
</g>
<g transform="matrix(1.0000 0.0000 0.0000 1.0000 0.0000 0.0000)">
</g>
<g transform="matrix(0.0625 0.0000 0.0000 0.0625 0.0000 0.0000)">
<path d="M 1719.0000,528.0000 L 1719.0000,1435.0000 L 1840.0000,1435.0000 L 1840.0000,528.0000 L 1719.0000,528.0000 Z" stroke-width="1px" stroke="#7F7F7F"  fill="#7F7F7F" />
</g>
<g transform="matrix(1.0000 0.0000 0.0000 1.0000 0.0000 0.0000)">
</g>
<g transform="matrix(0.0625 0.0000 0.0000 0.0625 0.0000 0.0000)">
<path d="M 1719.0000,1435.0000 L 1840.0000,1435.0000 L 1840.0000,528.0000 L 1719.0000,528.0000 L 1719.0000,1435.0000 Z" stroke="#FFFFFF" stroke-width="16.0000"  stroke-linecap="round"  stroke-linejoin="round" fill="none" />
</g>
<g transform="matrix(1.0000 0.0000 0.0000 1.0000 0.0000 0.0000)">
</g>
<g transform="matrix(0.0625 0.0000 0.0000 0.0625 0.0000 0.0000)">
<path d="M 237.0000,1438.0000 L 10930.0000,1438.0000 " stroke="#000000" stroke-width="16.0000"  stroke-linecap="round"  stroke-linejoin="round" fill="none" />
</g>
<g transform="matrix(1.0000 0.0000 0.0000 1.0000 0.0000 0.0000)">
</g>
<g transform="matrix(0.0625 0.0000 0.0000 0.0625 0.0000 0.0000)">
<path d="M 10913.0000,1368.0000 L 11122.0000,1438.0000 L 10913.0000,1507.0000 L 10913.0000,1368.0000 Z" stroke-width="1px" stroke="#000000"  fill="#000000" />
</g>
<g transform="matrix(1.0000 0.0000 0.0000 1.0000 0.0000 0.0000)">
</g>
<g transform="matrix(0.0625 0.0000 0.0000 0.0625 0.0000 0.0000)">
<path d="M 1340.0000,382.0000 L 1592.0000,382.0000 " stroke="#000000" stroke-width="16.0000"  stroke-linecap="round"  stroke-linejoin="round" fill="none" />
</g>
<g transform="matrix(1.0000 0.0000 0.0000 1.0000 0.0000 0.0000)">
</g>
<g transform="matrix(0.0625 0.0000 0.0000 0.0625 0.0000 0.0000)">
<path d="M 1235.0000,382.0000 L 1374.0000,312.0000 C 1352.0000,356.0000 1352.0000,407.0000 1374.0000,451.0000 L 1235.0000,382.0000 Z "  fill="#000000" stroke="none" />
</g>
<g transform="matrix(1.0000 0.0000 0.0000 1.0000 0.0000 0.0000)">
</g>
<g transform="matrix(0.0625 0.0000 0.0000 0.0625 0.0000 0.0000)">
<path d="M 1697.0000,382.0000 L 1558.0000,451.0000 C 1580.0000,407.0000 1580.0000,356.0000 1558.0000,312.0000 L 1697.0000,382.0000 Z "  fill="#000000" stroke="none" />
</g>
<g transform="matrix(1.0000 0.0000 0.0000 1.0000 0.0000 0.0000)">
</g>
<g transform="matrix(1.0000 0.0000 0.0000 1.0000 80.5574 16.8441)">
<text font-family="Calibri" fill="#000000" style ="white-space:pre;" font-weight="400" text-anchor="start" x="0.0000" y="0.0000" font-size="13.0000" ><![CDATA[2]]></text>
</g>
<g transform="matrix(1.0000 0.0000 0.0000 1.0000 87.3151 16.8441)">
<text font-family="Calibri" fill="#000000" style ="white-space:pre;" font-weight="400" text-anchor="start" x="0.0000" y="0.0000" font-size="13.0000" ><![CDATA[ms]]></text>
</g>
<g transform="matrix(0.0625 0.0000 0.0000 0.0625 0.0000 0.0000)">
<path d="M 9172.0000,384.0000 L 9414.0000,384.0000 " stroke="#000000" stroke-width="16.0000"  stroke-linecap="round"  stroke-linejoin="round" fill="none" />
</g>
<g transform="matrix(1.0000 0.0000 0.0000 1.0000 0.0000 0.0000)">
</g>
<g transform="matrix(0.0625 0.0000 0.0000 0.0625 0.0000 0.0000)">
<path d="M 9066.0000,384.0000 L 9206.0000,315.0000 C 9184.0000,358.0000 9184.0000,410.0000 9206.0000,454.0000 L 9066.0000,384.0000 Z "  fill="#000000" stroke="none" />
</g>
<g transform="matrix(1.0000 0.0000 0.0000 1.0000 0.0000 0.0000)">
</g>
<g transform="matrix(0.0625 0.0000 0.0000 0.0625 0.0000 0.0000)">
<path d="M 9520.0000,384.0000 L 9380.0000,454.0000 C 9402.0000,410.0000 9402.0000,358.0000 9380.0000,315.0000 L 9520.0000,384.0000 Z "  fill="#000000" stroke="none" />
</g>
<g transform="matrix(1.0000 0.0000 0.0000 1.0000 0.0000 0.0000)">
</g>
<g transform="matrix(1.0000 0.0000 0.0000 1.0000 571.6921 14.9609)">
<text font-family="Calibri" fill="#000000" style ="white-space:pre;" font-weight="400" text-anchor="start" x="0.0000" y="0.0000" font-size="13.0000" ><![CDATA[1]]></text>
</g>
<g transform="matrix(1.0000 0.0000 0.0000 1.0000 578.4498 14.9609)">
<text font-family="Calibri" fill="#000000" style ="white-space:pre;" font-weight="400" text-anchor="start" x="0.0000" y="0.0000" font-size="13.0000" ><![CDATA[ms]]></text>
</g>
<g transform="matrix(1.0000 0.0000 0.0000 1.0000 325.4251 84.8664)">
<text font-family="Calibri" fill="#000000" style ="white-space:pre;" font-weight="400" text-anchor="start" x="0.0000" y="0.0000" font-size="13.0000" ><![CDATA[Deep sleep]]></text>
</g>
</g>
</svg>
