<?xml version="1.0"  encoding="UTF-8" standalone="no"?>
<svg version="1.1" xmlns="http://www.w3.org/2000/svg" xmlns:xlink="http://www.w3.org/1999/xlink" width="361.0000" height="260.0000">
<g transform="translate(1.0000, -1.0000)">
<g transform="matrix(0.0625 0.0000 0.0000 0.0625 0.0000 0.0000)">
<path d="M 3446.0000,90.0000 L 3446.0000,202.0000 C 3446.0000,206.0000 3442.0000,210.0000 3438.0000,210.0000 C 3433.0000,210.0000 3430.0000,206.0000 3430.0000,202.0000 L 3430.0000,90.0000 C 3430.0000,85.0000 3433.0000,82.0000 3438.0000,82.0000 C 3442.0000,82.0000 3446.0000,85.0000 3446.0000,90.0000 Z M 3446.0000,282.0000 L 3446.0000,394.0000 C 3446.0000,398.0000 3442.0000,402.0000 3438.0000,402.0000 C 3433.0000,402.0000 3430.0000,398.0000 3430.0000,394.0000 L 3430.0000,282.0000 C 3430.0000,277.0000 3433.0000,274.0000 3438.0000,274.0000 C 3442.0000,274.0000 3446.0000,277.0000 3446.0000,282.0000 Z M 3446.0000,474.0000 L 3446.0000,586.0000 C 3446.0000,590.0000 3442.0000,594.0000 3438.0000,594.0000 C 3433.0000,594.0000 3430.0000,590.0000 3430.0000,586.0000 L 3430.0000,474.0000 C 3430.0000,470.0000 3433.0000,466.0000 3438.0000,466.0000 C 3442.0000,466.0000 3446.0000,470.0000 3446.0000,474.0000 Z M 3446.0000,666.0000 L 3446.0000,778.0000 C 3446.0000,783.0000 3442.0000,786.0000 3438.0000,786.0000 C 3433.0000,786.0000 3430.0000,783.0000 3430.0000,778.0000 L 3430.0000,666.0000 C 3430.0000,662.0000 3433.0000,658.0000 3438.0000,658.0000 C 3442.0000,658.0000 3446.0000,662.0000 3446.0000,666.0000 Z M 3446.0000,858.0000 L 3446.0000,970.0000 C 3446.0000,975.0000 3442.0000,978.0000 3438.0000,978.0000 C 3433.0000,978.0000 3430.0000,975.0000 3430.0000,970.0000 L 3430.0000,858.0000 C 3430.0000,854.0000 3433.0000,850.0000 3438.0000,850.0000 C 3442.0000,850.0000 3446.0000,854.0000 3446.0000,858.0000 Z M 3446.0000,1051.0000 L 3446.0000,1163.0000 C 3446.0000,1167.0000 3442.0000,1171.0000 3438.0000,1171.0000 C 3433.0000,1171.0000 3430.0000,1167.0000 3430.0000,1163.0000 L 3430.0000,1051.0000 C 3430.0000,1046.0000 3433.0000,1043.0000 3438.0000,1043.0000 C 3442.0000,1043.0000 3446.0000,1046.0000 3446.0000,1051.0000 Z M 3446.0000,1243.0000 L 3446.0000,1355.0000 C 3446.0000,1359.0000 3442.0000,1363.0000 3438.0000,1363.0000 C 3433.0000,1363.0000 3430.0000,1359.0000 3430.0000,1355.0000 L 3430.0000,1243.0000 C 3430.0000,1238.0000 3433.0000,1235.0000 3438.0000,1235.0000 C 3442.0000,1235.0000 3446.0000,1238.0000 3446.0000,1243.0000 Z M 3446.0000,1435.0000 L 3446.0000,1547.0000 C 3446.0000,1551.0000 3442.0000,1555.0000 3438.0000,1555.0000 C 3433.0000,1555.0000 3430.0000,1551.0000 3430.0000,1547.0000 L 3430.0000,1435.0000 C 3430.0000,1430.0000 3433.0000,1427.0000 3438.0000,1427.0000 C 3442.0000,1427.0000 3446.0000,1430.0000 3446.0000,1435.0000 Z M 3446.0000,1627.0000 L 3446.0000,1739.0000 C 3446.0000,1744.0000 3442.0000,1747.0000 3438.0000,1747.0000 C 3433.0000,1747.0000 3430.0000,1744.0000 3430.0000,1739.0000 L 3430.0000,1627.0000 C 3430.0000,1623.0000 3433.0000,1619.0000 3438.0000,1619.0000 C 3442.0000,1619.0000 3446.0000,1623.0000 3446.0000,1627.0000 Z M 3446.0000,1819.0000 L 3446.0000,1931.0000 C 3446.0000,1936.0000 3442.0000,1939.0000 3438.0000,1939.0000 C 3433.0000,1939.0000 3430.0000,1936.0000 3430.0000,1931.0000 L 3430.0000,1819.0000 C 3430.0000,1815.0000 3433.0000,1811.0000 3438.0000,1811.0000 C 3442.0000,1811.0000 3446.0000,1815.0000 3446.0000,1819.0000 Z M 3446.0000,2011.0000 L 3446.0000,2124.0000 C 3446.0000,2128.0000 3442.0000,2132.0000 3438.0000,2132.0000 C 3433.0000,2132.0000 3430.0000,2128.0000 3430.0000,2124.0000 L 3430.0000,2011.0000 C 3430.0000,2007.0000 3433.0000,2003.0000 3438.0000,2003.0000 C 3442.0000,2003.0000 3446.0000,2007.0000 3446.0000,2011.0000 Z M 3446.0000,2204.0000 L 3446.0000,2316.0000 C 3446.0000,2320.0000 3442.0000,2324.0000 3438.0000,2324.0000 C 3433.0000,2324.0000 3430.0000,2320.0000 3430.0000,2316.0000 L 3430.0000,2204.0000 C 3430.0000,2199.0000 3433.0000,2196.0000 3438.0000,2196.0000 C 3442.0000,2196.0000 3446.0000,2199.0000 3446.0000,2204.0000 Z M 3446.0000,2396.0000 L 3446.0000,2508.0000 C 3446.0000,2512.0000 3442.0000,2516.0000 3438.0000,2516.0000 C 3433.0000,2516.0000 3430.0000,2512.0000 3430.0000,2508.0000 L 3430.0000,2396.0000 C 3430.0000,2391.0000 3433.0000,2388.0000 3438.0000,2388.0000 C 3442.0000,2388.0000 3446.0000,2391.0000 3446.0000,2396.0000 Z M 3446.0000,2588.0000 L 3446.0000,2700.0000 C 3446.0000,2705.0000 3442.0000,2708.0000 3438.0000,2708.0000 C 3433.0000,2708.0000 3430.0000,2705.0000 3430.0000,2700.0000 L 3430.0000,2588.0000 C 3430.0000,2584.0000 3433.0000,2580.0000 3438.0000,2580.0000 C 3442.0000,2580.0000 3446.0000,2584.0000 3446.0000,2588.0000 Z M 3446.0000,2780.0000 L 3446.0000,2892.0000 C 3446.0000,2897.0000 3442.0000,2900.0000 3438.0000,2900.0000 C 3433.0000,2900.0000 3430.0000,2897.0000 3430.0000,2892.0000 L 3430.0000,2780.0000 C 3430.0000,2776.0000 3433.0000,2772.0000 3438.0000,2772.0000 C 3442.0000,2772.0000 3446.0000,2776.0000 3446.0000,2780.0000 Z M 3446.0000,2972.0000 L 3446.0000,3085.0000 C 3446.0000,3089.0000 3442.0000,3093.0000 3438.0000,3093.0000 C 3433.0000,3093.0000 3430.0000,3089.0000 3430.0000,3085.0000 L 3430.0000,2972.0000 C 3430.0000,2968.0000 3433.0000,2964.0000 3438.0000,2964.0000 C 3442.0000,2964.0000 3446.0000,2968.0000 3446.0000,2972.0000 Z M 3446.0000,3165.0000 L 3446.0000,3277.0000 C 3446.0000,3281.0000 3442.0000,3285.0000 3438.0000,3285.0000 C 3433.0000,3285.0000 3430.0000,3281.0000 3430.0000,3277.0000 L 3430.0000,3165.0000 C 3430.0000,3160.0000 3433.0000,3157.0000 3438.0000,3157.0000 C 3442.0000,3157.0000 3446.0000,3160.0000 3446.0000,3165.0000 Z M 3446.0000,3357.0000 L 3446.0000,3469.0000 C 3446.0000,3473.0000 3442.0000,3477.0000 3438.0000,3477.0000 C 3433.0000,3477.0000 3430.0000,3473.0000 3430.0000,3469.0000 L 3430.0000,3357.0000 C 3430.0000,3352.0000 3433.0000,3349.0000 3438.0000,3349.0000 C 3442.0000,3349.0000 3446.0000,3352.0000 3446.0000,3357.0000 Z M 3446.0000,3549.0000 L 3446.0000,3661.0000 C 3446.0000,3666.0000 3442.0000,3669.0000 3438.0000,3669.0000 C 3433.0000,3669.0000 3430.0000,3666.0000 3430.0000,3661.0000 L 3430.0000,3549.0000 C 3430.0000,3545.0000 3433.0000,3541.0000 3438.0000,3541.0000 C 3442.0000,3541.0000 3446.0000,3545.0000 3446.0000,3549.0000 Z M 3446.0000,3741.0000 L 3446.0000,3853.0000 C 3446.0000,3858.0000 3442.0000,3861.0000 3438.0000,3861.0000 C 3433.0000,3861.0000 3430.0000,3858.0000 3430.0000,3853.0000 L 3430.0000,3741.0000 C 3430.0000,3737.0000 3433.0000,3733.0000 3438.0000,3733.0000 C 3442.0000,3733.0000 3446.0000,3737.0000 3446.0000,3741.0000 Z M 3446.0000,3933.0000 L 3446.0000,4046.0000 C 3446.0000,4050.0000 3442.0000,4054.0000 3438.0000,4054.0000 C 3433.0000,4054.0000 3430.0000,4050.0000 3430.0000,4046.0000 L 3430.0000,3933.0000 C 3430.0000,3929.0000 3433.0000,3925.0000 3438.0000,3925.0000 C 3442.0000,3925.0000 3446.0000,3929.0000 3446.0000,3933.0000 Z M 3445.0000,4110.0000 L 3557.0000,4110.0000 C 3562.0000,4110.0000 3565.0000,4114.0000 3565.0000,4118.0000 C 3565.0000,4122.0000 3562.0000,4126.0000 3557.0000,4126.0000 L 3445.0000,4126.0000 C 3441.0000,4126.0000 3437.0000,4122.0000 3437.0000,4118.0000 C 3437.0000,4114.0000 3441.0000,4110.0000 3445.0000,4110.0000 Z M 3637.0000,4110.0000 L 3750.0000,4110.0000 C 3754.0000,4110.0000 3758.0000,4114.0000 3758.0000,4118.0000 C 3758.0000,4122.0000 3754.0000,4126.0000 3750.0000,4126.0000 L 3637.0000,4126.0000 C 3633.0000,4126.0000 3629.0000,4122.0000 3629.0000,4118.0000 C 3629.0000,4114.0000 3633.0000,4110.0000 3637.0000,4110.0000 Z M 3830.0000,4110.0000 L 3942.0000,4110.0000 C 3946.0000,4110.0000 3950.0000,4114.0000 3950.0000,4118.0000 C 3950.0000,4122.0000 3946.0000,4126.0000 3942.0000,4126.0000 L 3830.0000,4126.0000 C 3825.0000,4126.0000 3822.0000,4122.0000 3822.0000,4118.0000 C 3822.0000,4114.0000 3825.0000,4110.0000 3830.0000,4110.0000 Z M 4022.0000,4110.0000 L 4134.0000,4110.0000 C 4138.0000,4110.0000 4142.0000,4114.0000 4142.0000,4118.0000 C 4142.0000,4122.0000 4138.0000,4126.0000 4134.0000,4126.0000 L 4022.0000,4126.0000 C 4017.0000,4126.0000 4014.0000,4122.0000 4014.0000,4118.0000 C 4014.0000,4114.0000 4017.0000,4110.0000 4022.0000,4110.0000 Z M 4214.0000,4110.0000 L 4326.0000,4110.0000 C 4331.0000,4110.0000 4334.0000,4114.0000 4334.0000,4118.0000 C 4334.0000,4122.0000 4331.0000,4126.0000 4326.0000,4126.0000 L 4214.0000,4126.0000 C 4210.0000,4126.0000 4206.0000,4122.0000 4206.0000,4118.0000 C 4206.0000,4114.0000 4210.0000,4110.0000 4214.0000,4110.0000 Z M 4406.0000,4110.0000 L 4518.0000,4110.0000 C 4523.0000,4110.0000 4526.0000,4114.0000 4526.0000,4118.0000 C 4526.0000,4122.0000 4523.0000,4126.0000 4518.0000,4126.0000 L 4406.0000,4126.0000 C 4402.0000,4126.0000 4398.0000,4122.0000 4398.0000,4118.0000 C 4398.0000,4114.0000 4402.0000,4110.0000 4406.0000,4110.0000 Z M 4598.0000,4110.0000 L 4711.0000,4110.0000 C 4715.0000,4110.0000 4719.0000,4114.0000 4719.0000,4118.0000 C 4719.0000,4122.0000 4715.0000,4126.0000 4711.0000,4126.0000 L 4598.0000,4126.0000 C 4594.0000,4126.0000 4590.0000,4122.0000 4590.0000,4118.0000 C 4590.0000,4114.0000 4594.0000,4110.0000 4598.0000,4110.0000 Z M 4791.0000,4110.0000 L 4903.0000,4110.0000 C 4907.0000,4110.0000 4911.0000,4114.0000 4911.0000,4118.0000 C 4911.0000,4122.0000 4907.0000,4126.0000 4903.0000,4126.0000 L 4791.0000,4126.0000 C 4786.0000,4126.0000 4783.0000,4122.0000 4783.0000,4118.0000 C 4783.0000,4114.0000 4786.0000,4110.0000 4791.0000,4110.0000 Z M 4983.0000,4110.0000 L 5095.0000,4110.0000 C 5099.0000,4110.0000 5103.0000,4114.0000 5103.0000,4118.0000 C 5103.0000,4122.0000 5099.0000,4126.0000 5095.0000,4126.0000 L 4983.0000,4126.0000 C 4978.0000,4126.0000 4975.0000,4122.0000 4975.0000,4118.0000 C 4975.0000,4114.0000 4978.0000,4110.0000 4983.0000,4110.0000 Z M 5175.0000,4110.0000 L 5287.0000,4110.0000 C 5292.0000,4110.0000 5295.0000,4114.0000 5295.0000,4118.0000 C 5295.0000,4122.0000 5292.0000,4126.0000 5287.0000,4126.0000 L 5175.0000,4126.0000 C 5171.0000,4126.0000 5167.0000,4122.0000 5167.0000,4118.0000 C 5167.0000,4114.0000 5171.0000,4110.0000 5175.0000,4110.0000 Z M 5367.0000,4110.0000 L 5479.0000,4110.0000 C 5484.0000,4110.0000 5487.0000,4114.0000 5487.0000,4118.0000 C 5487.0000,4122.0000 5484.0000,4126.0000 5479.0000,4126.0000 L 5367.0000,4126.0000 C 5363.0000,4126.0000 5359.0000,4122.0000 5359.0000,4118.0000 C 5359.0000,4114.0000 5363.0000,4110.0000 5367.0000,4110.0000 Z M 5559.0000,4110.0000 L 5672.0000,4110.0000 C 5676.0000,4110.0000 5680.0000,4114.0000 5680.0000,4118.0000 C 5680.0000,4122.0000 5676.0000,4126.0000 5672.0000,4126.0000 L 5559.0000,4126.0000 C 5555.0000,4126.0000 5551.0000,4122.0000 5551.0000,4118.0000 C 5551.0000,4114.0000 5555.0000,4110.0000 5559.0000,4110.0000 Z M 5697.0000,4072.0000 L 5697.0000,3960.0000 C 5697.0000,3955.0000 5701.0000,3952.0000 5705.0000,3952.0000 C 5710.0000,3952.0000 5713.0000,3955.0000 5713.0000,3960.0000 L 5713.0000,4072.0000 C 5713.0000,4076.0000 5710.0000,4080.0000 5705.0000,4080.0000 C 5701.0000,4080.0000 5697.0000,4076.0000 5697.0000,4072.0000 Z M 5697.0000,3880.0000 L 5697.0000,3768.0000 C 5697.0000,3763.0000 5701.0000,3760.0000 5705.0000,3760.0000 C 5710.0000,3760.0000 5713.0000,3763.0000 5713.0000,3768.0000 L 5713.0000,3880.0000 C 5713.0000,3884.0000 5710.0000,3888.0000 5705.0000,3888.0000 C 5701.0000,3888.0000 5697.0000,3884.0000 5697.0000,3880.0000 Z M 5697.0000,3687.0000 L 5697.0000,3575.0000 C 5697.0000,3571.0000 5701.0000,3567.0000 5705.0000,3567.0000 C 5710.0000,3567.0000 5713.0000,3571.0000 5713.0000,3575.0000 L 5713.0000,3687.0000 C 5713.0000,3692.0000 5710.0000,3696.0000 5705.0000,3696.0000 C 5701.0000,3696.0000 5697.0000,3692.0000 5697.0000,3687.0000 Z M 5697.0000,3495.0000 L 5697.0000,3383.0000 C 5697.0000,3379.0000 5701.0000,3375.0000 5705.0000,3375.0000 C 5710.0000,3375.0000 5713.0000,3379.0000 5713.0000,3383.0000 L 5713.0000,3495.0000 C 5713.0000,3500.0000 5710.0000,3503.0000 5705.0000,3503.0000 C 5701.0000,3503.0000 5697.0000,3500.0000 5697.0000,3495.0000 Z M 5697.0000,3303.0000 L 5697.0000,3191.0000 C 5697.0000,3187.0000 5701.0000,3183.0000 5705.0000,3183.0000 C 5710.0000,3183.0000 5713.0000,3187.0000 5713.0000,3191.0000 L 5713.0000,3303.0000 C 5713.0000,3308.0000 5710.0000,3311.0000 5705.0000,3311.0000 C 5701.0000,3311.0000 5697.0000,3308.0000 5697.0000,3303.0000 Z M 5697.0000,3111.0000 L 5697.0000,2999.0000 C 5697.0000,2994.0000 5701.0000,2991.0000 5705.0000,2991.0000 C 5710.0000,2991.0000 5713.0000,2994.0000 5713.0000,2999.0000 L 5713.0000,3111.0000 C 5713.0000,3115.0000 5710.0000,3119.0000 5705.0000,3119.0000 C 5701.0000,3119.0000 5697.0000,3115.0000 5697.0000,3111.0000 Z M 5697.0000,2919.0000 L 5697.0000,2807.0000 C 5697.0000,2802.0000 5701.0000,2799.0000 5705.0000,2799.0000 C 5710.0000,2799.0000 5713.0000,2802.0000 5713.0000,2807.0000 L 5713.0000,2919.0000 C 5713.0000,2923.0000 5710.0000,2927.0000 5705.0000,2927.0000 C 5701.0000,2927.0000 5697.0000,2923.0000 5697.0000,2919.0000 Z M 5697.0000,2727.0000 L 5697.0000,2614.0000 C 5697.0000,2610.0000 5701.0000,2606.0000 5705.0000,2606.0000 C 5710.0000,2606.0000 5713.0000,2610.0000 5713.0000,2614.0000 L 5713.0000,2727.0000 C 5713.0000,2731.0000 5710.0000,2735.0000 5705.0000,2735.0000 C 5701.0000,2735.0000 5697.0000,2731.0000 5697.0000,2727.0000 Z M 5697.0000,2534.0000 L 5697.0000,2422.0000 C 5697.0000,2418.0000 5701.0000,2414.0000 5705.0000,2414.0000 C 5710.0000,2414.0000 5713.0000,2418.0000 5713.0000,2422.0000 L 5713.0000,2534.0000 C 5713.0000,2539.0000 5710.0000,2542.0000 5705.0000,2542.0000 C 5701.0000,2542.0000 5697.0000,2539.0000 5697.0000,2534.0000 Z M 5697.0000,2342.0000 L 5697.0000,2230.0000 C 5697.0000,2226.0000 5701.0000,2222.0000 5705.0000,2222.0000 C 5710.0000,2222.0000 5713.0000,2226.0000 5713.0000,2230.0000 L 5713.0000,2342.0000 C 5713.0000,2347.0000 5710.0000,2350.0000 5705.0000,2350.0000 C 5701.0000,2350.0000 5697.0000,2347.0000 5697.0000,2342.0000 Z M 5697.0000,2150.0000 L 5697.0000,2038.0000 C 5697.0000,2033.0000 5701.0000,2030.0000 5705.0000,2030.0000 C 5710.0000,2030.0000 5713.0000,2033.0000 5713.0000,2038.0000 L 5713.0000,2150.0000 C 5713.0000,2154.0000 5710.0000,2158.0000 5705.0000,2158.0000 C 5701.0000,2158.0000 5697.0000,2154.0000 5697.0000,2150.0000 Z M 5697.0000,1958.0000 L 5697.0000,1846.0000 C 5697.0000,1841.0000 5701.0000,1838.0000 5705.0000,1838.0000 C 5710.0000,1838.0000 5713.0000,1841.0000 5713.0000,1846.0000 L 5713.0000,1958.0000 C 5713.0000,1962.0000 5710.0000,1966.0000 5705.0000,1966.0000 C 5701.0000,1966.0000 5697.0000,1962.0000 5697.0000,1958.0000 Z M 5697.0000,1766.0000 L 5697.0000,1653.0000 C 5697.0000,1649.0000 5701.0000,1645.0000 5705.0000,1645.0000 C 5710.0000,1645.0000 5713.0000,1649.0000 5713.0000,1653.0000 L 5713.0000,1766.0000 C 5713.0000,1770.0000 5710.0000,1774.0000 5705.0000,1774.0000 C 5701.0000,1774.0000 5697.0000,1770.0000 5697.0000,1766.0000 Z M 5697.0000,1573.0000 L 5697.0000,1461.0000 C 5697.0000,1457.0000 5701.0000,1453.0000 5705.0000,1453.0000 C 5710.0000,1453.0000 5713.0000,1457.0000 5713.0000,1461.0000 L 5713.0000,1573.0000 C 5713.0000,1578.0000 5710.0000,1581.0000 5705.0000,1581.0000 C 5701.0000,1581.0000 5697.0000,1578.0000 5697.0000,1573.0000 Z M 5697.0000,1381.0000 L 5697.0000,1269.0000 C 5697.0000,1265.0000 5701.0000,1261.0000 5705.0000,1261.0000 C 5710.0000,1261.0000 5713.0000,1265.0000 5713.0000,1269.0000 L 5713.0000,1381.0000 C 5713.0000,1386.0000 5710.0000,1389.0000 5705.0000,1389.0000 C 5701.0000,1389.0000 5697.0000,1386.0000 5697.0000,1381.0000 Z M 5697.0000,1189.0000 L 5697.0000,1077.0000 C 5697.0000,1072.0000 5701.0000,1069.0000 5705.0000,1069.0000 C 5710.0000,1069.0000 5713.0000,1072.0000 5713.0000,1077.0000 L 5713.0000,1189.0000 C 5713.0000,1193.0000 5710.0000,1197.0000 5705.0000,1197.0000 C 5701.0000,1197.0000 5697.0000,1193.0000 5697.0000,1189.0000 Z M 5697.0000,997.0000 L 5697.0000,885.0000 C 5697.0000,880.0000 5701.0000,877.0000 5705.0000,877.0000 C 5710.0000,877.0000 5713.0000,880.0000 5713.0000,885.0000 L 5713.0000,997.0000 C 5713.0000,1001.0000 5710.0000,1005.0000 5705.0000,1005.0000 C 5701.0000,1005.0000 5697.0000,1001.0000 5697.0000,997.0000 Z M 5697.0000,805.0000 L 5697.0000,693.0000 C 5697.0000,688.0000 5701.0000,684.0000 5705.0000,684.0000 C 5710.0000,684.0000 5713.0000,688.0000 5713.0000,693.0000 L 5713.0000,805.0000 C 5713.0000,809.0000 5710.0000,813.0000 5705.0000,813.0000 C 5701.0000,813.0000 5697.0000,809.0000 5697.0000,805.0000 Z M 5697.0000,612.0000 L 5697.0000,500.0000 C 5697.0000,496.0000 5701.0000,492.0000 5705.0000,492.0000 C 5710.0000,492.0000 5713.0000,496.0000 5713.0000,500.0000 L 5713.0000,612.0000 C 5713.0000,617.0000 5710.0000,620.0000 5705.0000,620.0000 C 5701.0000,620.0000 5697.0000,617.0000 5697.0000,612.0000 Z M 5697.0000,420.0000 L 5697.0000,308.0000 C 5697.0000,304.0000 5701.0000,300.0000 5705.0000,300.0000 C 5710.0000,300.0000 5713.0000,304.0000 5713.0000,308.0000 L 5713.0000,420.0000 C 5713.0000,425.0000 5710.0000,428.0000 5705.0000,428.0000 C 5701.0000,428.0000 5697.0000,425.0000 5697.0000,420.0000 Z M 5697.0000,228.0000 L 5697.0000,116.0000 C 5697.0000,112.0000 5701.0000,108.0000 5705.0000,108.0000 C 5710.0000,108.0000 5713.0000,112.0000 5713.0000,116.0000 L 5713.0000,228.0000 C 5713.0000,232.0000 5710.0000,236.0000 5705.0000,236.0000 C 5701.0000,236.0000 5697.0000,232.0000 5697.0000,228.0000 Z M 5668.0000,82.0000 L 5556.0000,82.0000 C 5551.0000,82.0000 5548.0000,78.0000 5548.0000,74.0000 C 5548.0000,69.0000 5551.0000,66.0000 5556.0000,66.0000 L 5668.0000,66.0000 C 5672.0000,66.0000 5676.0000,69.0000 5676.0000,74.0000 C 5676.0000,78.0000 5672.0000,82.0000 5668.0000,82.0000 Z M 5476.0000,82.0000 L 5363.0000,82.0000 C 5359.0000,82.0000 5355.0000,78.0000 5355.0000,74.0000 C 5355.0000,69.0000 5359.0000,66.0000 5363.0000,66.0000 L 5476.0000,66.0000 C 5480.0000,66.0000 5484.0000,69.0000 5484.0000,74.0000 C 5484.0000,78.0000 5480.0000,82.0000 5476.0000,82.0000 Z M 5283.0000,82.0000 L 5171.0000,82.0000 C 5167.0000,82.0000 5163.0000,78.0000 5163.0000,74.0000 C 5163.0000,69.0000 5167.0000,66.0000 5171.0000,66.0000 L 5283.0000,66.0000 C 5288.0000,66.0000 5291.0000,69.0000 5291.0000,74.0000 C 5291.0000,78.0000 5288.0000,82.0000 5283.0000,82.0000 Z M 5091.0000,82.0000 L 4979.0000,82.0000 C 4975.0000,82.0000 4971.0000,78.0000 4971.0000,74.0000 C 4971.0000,69.0000 4975.0000,66.0000 4979.0000,66.0000 L 5091.0000,66.0000 C 5096.0000,66.0000 5099.0000,69.0000 5099.0000,74.0000 C 5099.0000,78.0000 5096.0000,82.0000 5091.0000,82.0000 Z M 4899.0000,82.0000 L 4787.0000,82.0000 C 4782.0000,82.0000 4779.0000,78.0000 4779.0000,74.0000 C 4779.0000,69.0000 4782.0000,66.0000 4787.0000,66.0000 L 4899.0000,66.0000 C 4903.0000,66.0000 4907.0000,69.0000 4907.0000,74.0000 C 4907.0000,78.0000 4903.0000,82.0000 4899.0000,82.0000 Z M 4707.0000,82.0000 L 4595.0000,82.0000 C 4590.0000,82.0000 4587.0000,78.0000 4587.0000,74.0000 C 4587.0000,69.0000 4590.0000,66.0000 4595.0000,66.0000 L 4707.0000,66.0000 C 4711.0000,66.0000 4715.0000,69.0000 4715.0000,74.0000 C 4715.0000,78.0000 4711.0000,82.0000 4707.0000,82.0000 Z M 4515.0000,82.0000 L 4402.0000,82.0000 C 4398.0000,82.0000 4394.0000,78.0000 4394.0000,74.0000 C 4394.0000,69.0000 4398.0000,66.0000 4402.0000,66.0000 L 4515.0000,66.0000 C 4519.0000,66.0000 4523.0000,69.0000 4523.0000,74.0000 C 4523.0000,78.0000 4519.0000,82.0000 4515.0000,82.0000 Z M 4322.0000,82.0000 L 4210.0000,82.0000 C 4206.0000,82.0000 4202.0000,78.0000 4202.0000,74.0000 C 4202.0000,69.0000 4206.0000,66.0000 4210.0000,66.0000 L 4322.0000,66.0000 C 4327.0000,66.0000 4330.0000,69.0000 4330.0000,74.0000 C 4330.0000,78.0000 4327.0000,82.0000 4322.0000,82.0000 Z M 4130.0000,82.0000 L 4018.0000,82.0000 C 4014.0000,82.0000 4010.0000,78.0000 4010.0000,74.0000 C 4010.0000,69.0000 4014.0000,66.0000 4018.0000,66.0000 L 4130.0000,66.0000 C 4135.0000,66.0000 4138.0000,69.0000 4138.0000,74.0000 C 4138.0000,78.0000 4135.0000,82.0000 4130.0000,82.0000 Z M 3938.0000,82.0000 L 3826.0000,82.0000 C 3821.0000,82.0000 3818.0000,78.0000 3818.0000,74.0000 C 3818.0000,69.0000 3821.0000,66.0000 3826.0000,66.0000 L 3938.0000,66.0000 C 3942.0000,66.0000 3946.0000,69.0000 3946.0000,74.0000 C 3946.0000,78.0000 3942.0000,82.0000 3938.0000,82.0000 Z M 3746.0000,82.0000 L 3634.0000,82.0000 C 3629.0000,82.0000 3626.0000,78.0000 3626.0000,74.0000 C 3626.0000,69.0000 3629.0000,66.0000 3634.0000,66.0000 L 3746.0000,66.0000 C 3750.0000,66.0000 3754.0000,69.0000 3754.0000,74.0000 C 3754.0000,78.0000 3750.0000,82.0000 3746.0000,82.0000 Z M 3554.0000,82.0000 L 3442.0000,82.0000 C 3437.0000,82.0000 3434.0000,78.0000 3434.0000,74.0000 C 3434.0000,69.0000 3437.0000,66.0000 3442.0000,66.0000 L 3554.0000,66.0000 C 3558.0000,66.0000 3562.0000,69.0000 3562.0000,74.0000 C 3562.0000,78.0000 3558.0000,82.0000 3554.0000,82.0000 Z "  fill="#000000" stroke="#000000" stroke-width="1.0000"  stroke-linecap="butt"  stroke-linejoin="round" />
</g>
<g transform="matrix(1.0000 0.0000 0.0000 1.0000 0.0000 0.0000)">
</g>
<g transform="matrix(1.0000 0.0000 0.0000 1.0000 223.3287 27.4676)">
<text font-family="Arial" fill="#000000" style ="white-space:pre;" font-weight="400" text-anchor="start" x="0.0000" y="0.0000" font-size="16.0000" ><![CDATA[       ]]></text>
</g>
<g transform="matrix(1.0000 0.0000 0.0000 1.0000 254.4442 27.4676)">
<text font-family="Arial" fill="#000000" style ="white-space:pre;" font-weight="400" text-anchor="start" x="0.0000" y="0.0000" font-size="16.0000" ><![CDATA[Relay ]]></text>
</g>
<g transform="matrix(1.0000 0.0000 0.0000 1.0000 299.7957 27.4676)">
<text font-family="Arial" fill="#000000" style ="white-space:pre;" font-weight="400" text-anchor="start" x="0.0000" y="0.0000" font-size="16.0000" ><![CDATA[UE]]></text>
</g>
<g transform="matrix(0.0625 0.0000 0.0000 0.0625 0.0000 0.0000)">
<path d="M 3664.0000,3891.0000 L 5479.0000,3891.0000 L 5479.0000,3438.0000 L 3664.0000,3438.0000 L 3664.0000,3891.0000 Z" stroke="#000000" stroke-width="16.0000"  stroke-linecap="round"  stroke-linejoin="round" fill="none" />
</g>
<g transform="matrix(1.0000 0.0000 0.0000 1.0000 0.0000 0.0000)">
</g>
<g transform="matrix(1.0000 0.0000 0.0000 1.0000 269.7457 234.3018)">
<text font-family="Arial" fill="#000000" style ="white-space:pre;" font-weight="400" text-anchor="start" x="0.0000" y="0.0000" font-size="16.0000" ><![CDATA[PHY]]></text>
</g>
<g transform="matrix(0.0625 0.0000 0.0000 0.0625 0.0000 0.0000)">
<path d="M 44.0000,90.0000 L 44.0000,202.0000 C 44.0000,206.0000 41.0000,210.0000 36.0000,210.0000 C 32.0000,210.0000 28.0000,206.0000 28.0000,202.0000 L 28.0000,90.0000 C 28.0000,85.0000 32.0000,82.0000 36.0000,82.0000 C 41.0000,82.0000 44.0000,85.0000 44.0000,90.0000 Z M 44.0000,282.0000 L 44.0000,394.0000 C 44.0000,398.0000 41.0000,402.0000 36.0000,402.0000 C 32.0000,402.0000 28.0000,398.0000 28.0000,394.0000 L 28.0000,282.0000 C 28.0000,277.0000 32.0000,274.0000 36.0000,274.0000 C 41.0000,274.0000 44.0000,277.0000 44.0000,282.0000 Z M 44.0000,474.0000 L 44.0000,586.0000 C 44.0000,590.0000 41.0000,594.0000 36.0000,594.0000 C 32.0000,594.0000 28.0000,590.0000 28.0000,586.0000 L 28.0000,474.0000 C 28.0000,470.0000 32.0000,466.0000 36.0000,466.0000 C 41.0000,466.0000 44.0000,470.0000 44.0000,474.0000 Z M 44.0000,666.0000 L 44.0000,778.0000 C 44.0000,783.0000 41.0000,786.0000 36.0000,786.0000 C 32.0000,786.0000 28.0000,783.0000 28.0000,778.0000 L 28.0000,666.0000 C 28.0000,662.0000 32.0000,658.0000 36.0000,658.0000 C 41.0000,658.0000 44.0000,662.0000 44.0000,666.0000 Z M 44.0000,858.0000 L 44.0000,970.0000 C 44.0000,975.0000 41.0000,978.0000 36.0000,978.0000 C 32.0000,978.0000 28.0000,975.0000 28.0000,970.0000 L 28.0000,858.0000 C 28.0000,854.0000 32.0000,850.0000 36.0000,850.0000 C 41.0000,850.0000 44.0000,854.0000 44.0000,858.0000 Z M 44.0000,1051.0000 L 44.0000,1163.0000 C 44.0000,1167.0000 41.0000,1171.0000 36.0000,1171.0000 C 32.0000,1171.0000 28.0000,1167.0000 28.0000,1163.0000 L 28.0000,1051.0000 C 28.0000,1046.0000 32.0000,1043.0000 36.0000,1043.0000 C 41.0000,1043.0000 44.0000,1046.0000 44.0000,1051.0000 Z M 44.0000,1243.0000 L 44.0000,1355.0000 C 44.0000,1359.0000 41.0000,1363.0000 36.0000,1363.0000 C 32.0000,1363.0000 28.0000,1359.0000 28.0000,1355.0000 L 28.0000,1243.0000 C 28.0000,1238.0000 32.0000,1235.0000 36.0000,1235.0000 C 41.0000,1235.0000 44.0000,1238.0000 44.0000,1243.0000 Z M 44.0000,1435.0000 L 44.0000,1547.0000 C 44.0000,1551.0000 41.0000,1555.0000 36.0000,1555.0000 C 32.0000,1555.0000 28.0000,1551.0000 28.0000,1547.0000 L 28.0000,1435.0000 C 28.0000,1430.0000 32.0000,1427.0000 36.0000,1427.0000 C 41.0000,1427.0000 44.0000,1430.0000 44.0000,1435.0000 Z M 44.0000,1627.0000 L 44.0000,1739.0000 C 44.0000,1744.0000 41.0000,1747.0000 36.0000,1747.0000 C 32.0000,1747.0000 28.0000,1744.0000 28.0000,1739.0000 L 28.0000,1627.0000 C 28.0000,1623.0000 32.0000,1619.0000 36.0000,1619.0000 C 41.0000,1619.0000 44.0000,1623.0000 44.0000,1627.0000 Z M 44.0000,1819.0000 L 44.0000,1931.0000 C 44.0000,1936.0000 41.0000,1939.0000 36.0000,1939.0000 C 32.0000,1939.0000 28.0000,1936.0000 28.0000,1931.0000 L 28.0000,1819.0000 C 28.0000,1815.0000 32.0000,1811.0000 36.0000,1811.0000 C 41.0000,1811.0000 44.0000,1815.0000 44.0000,1819.0000 Z M 44.0000,2011.0000 L 44.0000,2124.0000 C 44.0000,2128.0000 41.0000,2132.0000 36.0000,2132.0000 C 32.0000,2132.0000 28.0000,2128.0000 28.0000,2124.0000 L 28.0000,2011.0000 C 28.0000,2007.0000 32.0000,2003.0000 36.0000,2003.0000 C 41.0000,2003.0000 44.0000,2007.0000 44.0000,2011.0000 Z M 44.0000,2204.0000 L 44.0000,2316.0000 C 44.0000,2320.0000 41.0000,2324.0000 36.0000,2324.0000 C 32.0000,2324.0000 28.0000,2320.0000 28.0000,2316.0000 L 28.0000,2204.0000 C 28.0000,2199.0000 32.0000,2196.0000 36.0000,2196.0000 C 41.0000,2196.0000 44.0000,2199.0000 44.0000,2204.0000 Z M 44.0000,2396.0000 L 44.0000,2508.0000 C 44.0000,2512.0000 41.0000,2516.0000 36.0000,2516.0000 C 32.0000,2516.0000 28.0000,2512.0000 28.0000,2508.0000 L 28.0000,2396.0000 C 28.0000,2391.0000 32.0000,2388.0000 36.0000,2388.0000 C 41.0000,2388.0000 44.0000,2391.0000 44.0000,2396.0000 Z M 44.0000,2588.0000 L 44.0000,2700.0000 C 44.0000,2705.0000 41.0000,2708.0000 36.0000,2708.0000 C 32.0000,2708.0000 28.0000,2705.0000 28.0000,2700.0000 L 28.0000,2588.0000 C 28.0000,2584.0000 32.0000,2580.0000 36.0000,2580.0000 C 41.0000,2580.0000 44.0000,2584.0000 44.0000,2588.0000 Z M 44.0000,2780.0000 L 44.0000,2892.0000 C 44.0000,2897.0000 41.0000,2900.0000 36.0000,2900.0000 C 32.0000,2900.0000 28.0000,2897.0000 28.0000,2892.0000 L 28.0000,2780.0000 C 28.0000,2776.0000 32.0000,2772.0000 36.0000,2772.0000 C 41.0000,2772.0000 44.0000,2776.0000 44.0000,2780.0000 Z M 44.0000,2972.0000 L 44.0000,3085.0000 C 44.0000,3089.0000 41.0000,3093.0000 36.0000,3093.0000 C 32.0000,3093.0000 28.0000,3089.0000 28.0000,3085.0000 L 28.0000,2972.0000 C 28.0000,2968.0000 32.0000,2964.0000 36.0000,2964.0000 C 41.0000,2964.0000 44.0000,2968.0000 44.0000,2972.0000 Z M 44.0000,3165.0000 L 44.0000,3277.0000 C 44.0000,3281.0000 41.0000,3285.0000 36.0000,3285.0000 C 32.0000,3285.0000 28.0000,3281.0000 28.0000,3277.0000 L 28.0000,3165.0000 C 28.0000,3160.0000 32.0000,3157.0000 36.0000,3157.0000 C 41.0000,3157.0000 44.0000,3160.0000 44.0000,3165.0000 Z M 44.0000,3357.0000 L 44.0000,3469.0000 C 44.0000,3473.0000 41.0000,3477.0000 36.0000,3477.0000 C 32.0000,3477.0000 28.0000,3473.0000 28.0000,3469.0000 L 28.0000,3357.0000 C 28.0000,3352.0000 32.0000,3349.0000 36.0000,3349.0000 C 41.0000,3349.0000 44.0000,3352.0000 44.0000,3357.0000 Z M 44.0000,3549.0000 L 44.0000,3661.0000 C 44.0000,3666.0000 41.0000,3669.0000 36.0000,3669.0000 C 32.0000,3669.0000 28.0000,3666.0000 28.0000,3661.0000 L 28.0000,3549.0000 C 28.0000,3545.0000 32.0000,3541.0000 36.0000,3541.0000 C 41.0000,3541.0000 44.0000,3545.0000 44.0000,3549.0000 Z M 44.0000,3741.0000 L 44.0000,3853.0000 C 44.0000,3858.0000 41.0000,3861.0000 36.0000,3861.0000 C 32.0000,3861.0000 28.0000,3858.0000 28.0000,3853.0000 L 28.0000,3741.0000 C 28.0000,3737.0000 32.0000,3733.0000 36.0000,3733.0000 C 41.0000,3733.0000 44.0000,3737.0000 44.0000,3741.0000 Z M 44.0000,3933.0000 L 44.0000,4046.0000 C 44.0000,4050.0000 41.0000,4054.0000 36.0000,4054.0000 C 32.0000,4054.0000 28.0000,4050.0000 28.0000,4046.0000 L 28.0000,3933.0000 C 28.0000,3929.0000 32.0000,3925.0000 36.0000,3925.0000 C 41.0000,3925.0000 44.0000,3929.0000 44.0000,3933.0000 Z M 44.0000,4110.0000 L 156.0000,4110.0000 C 160.0000,4110.0000 164.0000,4114.0000 164.0000,4118.0000 C 164.0000,4122.0000 160.0000,4126.0000 156.0000,4126.0000 L 44.0000,4126.0000 C 39.0000,4126.0000 36.0000,4122.0000 36.0000,4118.0000 C 36.0000,4114.0000 39.0000,4110.0000 44.0000,4110.0000 Z M 236.0000,4110.0000 L 348.0000,4110.0000 C 352.0000,4110.0000 356.0000,4114.0000 356.0000,4118.0000 C 356.0000,4122.0000 352.0000,4126.0000 348.0000,4126.0000 L 236.0000,4126.0000 C 231.0000,4126.0000 228.0000,4122.0000 228.0000,4118.0000 C 228.0000,4114.0000 231.0000,4110.0000 236.0000,4110.0000 Z M 428.0000,4110.0000 L 540.0000,4110.0000 C 545.0000,4110.0000 548.0000,4114.0000 548.0000,4118.0000 C 548.0000,4122.0000 545.0000,4126.0000 540.0000,4126.0000 L 428.0000,4126.0000 C 424.0000,4126.0000 420.0000,4122.0000 420.0000,4118.0000 C 420.0000,4114.0000 424.0000,4110.0000 428.0000,4110.0000 Z M 620.0000,4110.0000 L 732.0000,4110.0000 C 737.0000,4110.0000 740.0000,4114.0000 740.0000,4118.0000 C 740.0000,4122.0000 737.0000,4126.0000 732.0000,4126.0000 L 620.0000,4126.0000 C 616.0000,4126.0000 612.0000,4122.0000 612.0000,4118.0000 C 612.0000,4114.0000 616.0000,4110.0000 620.0000,4110.0000 Z M 812.0000,4110.0000 L 925.0000,4110.0000 C 929.0000,4110.0000 933.0000,4114.0000 933.0000,4118.0000 C 933.0000,4122.0000 929.0000,4126.0000 925.0000,4126.0000 L 812.0000,4126.0000 C 808.0000,4126.0000 804.0000,4122.0000 804.0000,4118.0000 C 804.0000,4114.0000 808.0000,4110.0000 812.0000,4110.0000 Z M 1005.0000,4110.0000 L 1117.0000,4110.0000 C 1121.0000,4110.0000 1125.0000,4114.0000 1125.0000,4118.0000 C 1125.0000,4122.0000 1121.0000,4126.0000 1117.0000,4126.0000 L 1005.0000,4126.0000 C 1000.0000,4126.0000 997.0000,4122.0000 997.0000,4118.0000 C 997.0000,4114.0000 1000.0000,4110.0000 1005.0000,4110.0000 Z M 1197.0000,4110.0000 L 1309.0000,4110.0000 C 1313.0000,4110.0000 1317.0000,4114.0000 1317.0000,4118.0000 C 1317.0000,4122.0000 1313.0000,4126.0000 1309.0000,4126.0000 L 1197.0000,4126.0000 C 1192.0000,4126.0000 1189.0000,4122.0000 1189.0000,4118.0000 C 1189.0000,4114.0000 1192.0000,4110.0000 1197.0000,4110.0000 Z M 1389.0000,4110.0000 L 1501.0000,4110.0000 C 1506.0000,4110.0000 1509.0000,4114.0000 1509.0000,4118.0000 C 1509.0000,4122.0000 1506.0000,4126.0000 1501.0000,4126.0000 L 1389.0000,4126.0000 C 1385.0000,4126.0000 1381.0000,4122.0000 1381.0000,4118.0000 C 1381.0000,4114.0000 1385.0000,4110.0000 1389.0000,4110.0000 Z M 1581.0000,4110.0000 L 1693.0000,4110.0000 C 1698.0000,4110.0000 1701.0000,4114.0000 1701.0000,4118.0000 C 1701.0000,4122.0000 1698.0000,4126.0000 1693.0000,4126.0000 L 1581.0000,4126.0000 C 1577.0000,4126.0000 1573.0000,4122.0000 1573.0000,4118.0000 C 1573.0000,4114.0000 1577.0000,4110.0000 1581.0000,4110.0000 Z M 1773.0000,4110.0000 L 1886.0000,4110.0000 C 1890.0000,4110.0000 1894.0000,4114.0000 1894.0000,4118.0000 C 1894.0000,4122.0000 1890.0000,4126.0000 1886.0000,4126.0000 L 1773.0000,4126.0000 C 1769.0000,4126.0000 1765.0000,4122.0000 1765.0000,4118.0000 C 1765.0000,4114.0000 1769.0000,4110.0000 1773.0000,4110.0000 Z M 1966.0000,4110.0000 L 2078.0000,4110.0000 C 2082.0000,4110.0000 2086.0000,4114.0000 2086.0000,4118.0000 C 2086.0000,4122.0000 2082.0000,4126.0000 2078.0000,4126.0000 L 1966.0000,4126.0000 C 1961.0000,4126.0000 1958.0000,4122.0000 1958.0000,4118.0000 C 1958.0000,4114.0000 1961.0000,4110.0000 1966.0000,4110.0000 Z M 2158.0000,4110.0000 L 2270.0000,4110.0000 C 2274.0000,4110.0000 2278.0000,4114.0000 2278.0000,4118.0000 C 2278.0000,4122.0000 2274.0000,4126.0000 2270.0000,4126.0000 L 2158.0000,4126.0000 C 2153.0000,4126.0000 2150.0000,4122.0000 2150.0000,4118.0000 C 2150.0000,4114.0000 2153.0000,4110.0000 2158.0000,4110.0000 Z M 2296.0000,4072.0000 L 2296.0000,3960.0000 C 2296.0000,3955.0000 2299.0000,3952.0000 2304.0000,3952.0000 C 2308.0000,3952.0000 2312.0000,3955.0000 2312.0000,3960.0000 L 2312.0000,4072.0000 C 2312.0000,4076.0000 2308.0000,4080.0000 2304.0000,4080.0000 C 2299.0000,4080.0000 2296.0000,4076.0000 2296.0000,4072.0000 Z M 2296.0000,3880.0000 L 2296.0000,3768.0000 C 2296.0000,3763.0000 2299.0000,3760.0000 2304.0000,3760.0000 C 2308.0000,3760.0000 2312.0000,3763.0000 2312.0000,3768.0000 L 2312.0000,3880.0000 C 2312.0000,3884.0000 2308.0000,3888.0000 2304.0000,3888.0000 C 2299.0000,3888.0000 2296.0000,3884.0000 2296.0000,3880.0000 Z M 2296.0000,3688.0000 L 2296.0000,3575.0000 C 2296.0000,3571.0000 2299.0000,3567.0000 2304.0000,3567.0000 C 2308.0000,3567.0000 2312.0000,3571.0000 2312.0000,3575.0000 L 2312.0000,3688.0000 C 2312.0000,3692.0000 2308.0000,3696.0000 2304.0000,3696.0000 C 2299.0000,3696.0000 2296.0000,3692.0000 2296.0000,3688.0000 Z M 2296.0000,3495.0000 L 2296.0000,3383.0000 C 2296.0000,3379.0000 2299.0000,3375.0000 2304.0000,3375.0000 C 2308.0000,3375.0000 2312.0000,3379.0000 2312.0000,3383.0000 L 2312.0000,3495.0000 C 2312.0000,3500.0000 2308.0000,3503.0000 2304.0000,3503.0000 C 2299.0000,3503.0000 2296.0000,3500.0000 2296.0000,3495.0000 Z M 2296.0000,3303.0000 L 2296.0000,3191.0000 C 2296.0000,3187.0000 2299.0000,3183.0000 2304.0000,3183.0000 C 2308.0000,3183.0000 2312.0000,3187.0000 2312.0000,3191.0000 L 2312.0000,3303.0000 C 2312.0000,3308.0000 2308.0000,3311.0000 2304.0000,3311.0000 C 2299.0000,3311.0000 2296.0000,3308.0000 2296.0000,3303.0000 Z M 2296.0000,3111.0000 L 2296.0000,2999.0000 C 2296.0000,2994.0000 2299.0000,2991.0000 2304.0000,2991.0000 C 2308.0000,2991.0000 2312.0000,2994.0000 2312.0000,2999.0000 L 2312.0000,3111.0000 C 2312.0000,3115.0000 2308.0000,3119.0000 2304.0000,3119.0000 C 2299.0000,3119.0000 2296.0000,3115.0000 2296.0000,3111.0000 Z M 2296.0000,2919.0000 L 2296.0000,2807.0000 C 2296.0000,2802.0000 2299.0000,2799.0000 2304.0000,2799.0000 C 2308.0000,2799.0000 2312.0000,2802.0000 2312.0000,2807.0000 L 2312.0000,2919.0000 C 2312.0000,2923.0000 2308.0000,2927.0000 2304.0000,2927.0000 C 2299.0000,2927.0000 2296.0000,2923.0000 2296.0000,2919.0000 Z M 2296.0000,2727.0000 L 2296.0000,2614.0000 C 2296.0000,2610.0000 2299.0000,2606.0000 2304.0000,2606.0000 C 2308.0000,2606.0000 2312.0000,2610.0000 2312.0000,2614.0000 L 2312.0000,2727.0000 C 2312.0000,2731.0000 2308.0000,2735.0000 2304.0000,2735.0000 C 2299.0000,2735.0000 2296.0000,2731.0000 2296.0000,2727.0000 Z M 2296.0000,2534.0000 L 2296.0000,2422.0000 C 2296.0000,2418.0000 2299.0000,2414.0000 2304.0000,2414.0000 C 2308.0000,2414.0000 2312.0000,2418.0000 2312.0000,2422.0000 L 2312.0000,2534.0000 C 2312.0000,2539.0000 2308.0000,2542.0000 2304.0000,2542.0000 C 2299.0000,2542.0000 2296.0000,2539.0000 2296.0000,2534.0000 Z M 2296.0000,2342.0000 L 2296.0000,2230.0000 C 2296.0000,2226.0000 2299.0000,2222.0000 2304.0000,2222.0000 C 2308.0000,2222.0000 2312.0000,2226.0000 2312.0000,2230.0000 L 2312.0000,2342.0000 C 2312.0000,2347.0000 2308.0000,2350.0000 2304.0000,2350.0000 C 2299.0000,2350.0000 2296.0000,2347.0000 2296.0000,2342.0000 Z M 2296.0000,2150.0000 L 2296.0000,2038.0000 C 2296.0000,2033.0000 2299.0000,2030.0000 2304.0000,2030.0000 C 2308.0000,2030.0000 2312.0000,2033.0000 2312.0000,2038.0000 L 2312.0000,2150.0000 C 2312.0000,2154.0000 2308.0000,2158.0000 2304.0000,2158.0000 C 2299.0000,2158.0000 2296.0000,2154.0000 2296.0000,2150.0000 Z M 2296.0000,1958.0000 L 2296.0000,1846.0000 C 2296.0000,1841.0000 2299.0000,1838.0000 2304.0000,1838.0000 C 2308.0000,1838.0000 2312.0000,1841.0000 2312.0000,1846.0000 L 2312.0000,1958.0000 C 2312.0000,1962.0000 2308.0000,1966.0000 2304.0000,1966.0000 C 2299.0000,1966.0000 2296.0000,1962.0000 2296.0000,1958.0000 Z M 2296.0000,1766.0000 L 2296.0000,1653.0000 C 2296.0000,1649.0000 2299.0000,1645.0000 2304.0000,1645.0000 C 2308.0000,1645.0000 2312.0000,1649.0000 2312.0000,1653.0000 L 2312.0000,1766.0000 C 2312.0000,1770.0000 2308.0000,1774.0000 2304.0000,1774.0000 C 2299.0000,1774.0000 2296.0000,1770.0000 2296.0000,1766.0000 Z M 2296.0000,1573.0000 L 2296.0000,1461.0000 C 2296.0000,1457.0000 2299.0000,1453.0000 2304.0000,1453.0000 C 2308.0000,1453.0000 2312.0000,1457.0000 2312.0000,1461.0000 L 2312.0000,1573.0000 C 2312.0000,1578.0000 2308.0000,1581.0000 2304.0000,1581.0000 C 2299.0000,1581.0000 2296.0000,1578.0000 2296.0000,1573.0000 Z M 2296.0000,1381.0000 L 2296.0000,1269.0000 C 2296.0000,1265.0000 2299.0000,1261.0000 2304.0000,1261.0000 C 2308.0000,1261.0000 2312.0000,1265.0000 2312.0000,1269.0000 L 2312.0000,1381.0000 C 2312.0000,1386.0000 2308.0000,1389.0000 2304.0000,1389.0000 C 2299.0000,1389.0000 2296.0000,1386.0000 2296.0000,1381.0000 Z M 2296.0000,1189.0000 L 2296.0000,1077.0000 C 2296.0000,1072.0000 2299.0000,1069.0000 2304.0000,1069.0000 C 2308.0000,1069.0000 2312.0000,1072.0000 2312.0000,1077.0000 L 2312.0000,1189.0000 C 2312.0000,1193.0000 2308.0000,1197.0000 2304.0000,1197.0000 C 2299.0000,1197.0000 2296.0000,1193.0000 2296.0000,1189.0000 Z M 2296.0000,997.0000 L 2296.0000,885.0000 C 2296.0000,880.0000 2299.0000,877.0000 2304.0000,877.0000 C 2308.0000,877.0000 2312.0000,880.0000 2312.0000,885.0000 L 2312.0000,997.0000 C 2312.0000,1001.0000 2308.0000,1005.0000 2304.0000,1005.0000 C 2299.0000,1005.0000 2296.0000,1001.0000 2296.0000,997.0000 Z M 2296.0000,805.0000 L 2296.0000,693.0000 C 2296.0000,688.0000 2299.0000,684.0000 2304.0000,684.0000 C 2308.0000,684.0000 2312.0000,688.0000 2312.0000,693.0000 L 2312.0000,805.0000 C 2312.0000,809.0000 2308.0000,813.0000 2304.0000,813.0000 C 2299.0000,813.0000 2296.0000,809.0000 2296.0000,805.0000 Z M 2296.0000,612.0000 L 2296.0000,500.0000 C 2296.0000,496.0000 2299.0000,492.0000 2304.0000,492.0000 C 2308.0000,492.0000 2312.0000,496.0000 2312.0000,500.0000 L 2312.0000,612.0000 C 2312.0000,617.0000 2308.0000,620.0000 2304.0000,620.0000 C 2299.0000,620.0000 2296.0000,617.0000 2296.0000,612.0000 Z M 2296.0000,420.0000 L 2296.0000,308.0000 C 2296.0000,304.0000 2299.0000,300.0000 2304.0000,300.0000 C 2308.0000,300.0000 2312.0000,304.0000 2312.0000,308.0000 L 2312.0000,420.0000 C 2312.0000,425.0000 2308.0000,428.0000 2304.0000,428.0000 C 2299.0000,428.0000 2296.0000,425.0000 2296.0000,420.0000 Z M 2296.0000,228.0000 L 2296.0000,116.0000 C 2296.0000,112.0000 2299.0000,108.0000 2304.0000,108.0000 C 2308.0000,108.0000 2312.0000,112.0000 2312.0000,116.0000 L 2312.0000,228.0000 C 2312.0000,232.0000 2308.0000,236.0000 2304.0000,236.0000 C 2299.0000,236.0000 2296.0000,232.0000 2296.0000,228.0000 Z M 2266.0000,82.0000 L 2154.0000,82.0000 C 2150.0000,82.0000 2146.0000,78.0000 2146.0000,74.0000 C 2146.0000,69.0000 2150.0000,66.0000 2154.0000,66.0000 L 2266.0000,66.0000 C 2271.0000,66.0000 2274.0000,69.0000 2274.0000,74.0000 C 2274.0000,78.0000 2271.0000,82.0000 2266.0000,82.0000 Z M 2074.0000,82.0000 L 1962.0000,82.0000 C 1957.0000,82.0000 1954.0000,78.0000 1954.0000,74.0000 C 1954.0000,69.0000 1957.0000,66.0000 1962.0000,66.0000 L 2074.0000,66.0000 C 2078.0000,66.0000 2082.0000,69.0000 2082.0000,74.0000 C 2082.0000,78.0000 2078.0000,82.0000 2074.0000,82.0000 Z M 1882.0000,82.0000 L 1770.0000,82.0000 C 1765.0000,82.0000 1762.0000,78.0000 1762.0000,74.0000 C 1762.0000,69.0000 1765.0000,66.0000 1770.0000,66.0000 L 1882.0000,66.0000 C 1886.0000,66.0000 1890.0000,69.0000 1890.0000,74.0000 C 1890.0000,78.0000 1886.0000,82.0000 1882.0000,82.0000 Z M 1690.0000,82.0000 L 1577.0000,82.0000 C 1573.0000,82.0000 1569.0000,78.0000 1569.0000,74.0000 C 1569.0000,69.0000 1573.0000,66.0000 1577.0000,66.0000 L 1690.0000,66.0000 C 1694.0000,66.0000 1698.0000,69.0000 1698.0000,74.0000 C 1698.0000,78.0000 1694.0000,82.0000 1690.0000,82.0000 Z M 1497.0000,82.0000 L 1385.0000,82.0000 C 1381.0000,82.0000 1377.0000,78.0000 1377.0000,74.0000 C 1377.0000,69.0000 1381.0000,66.0000 1385.0000,66.0000 L 1497.0000,66.0000 C 1502.0000,66.0000 1505.0000,69.0000 1505.0000,74.0000 C 1505.0000,78.0000 1502.0000,82.0000 1497.0000,82.0000 Z M 1305.0000,82.0000 L 1193.0000,82.0000 C 1189.0000,82.0000 1185.0000,78.0000 1185.0000,74.0000 C 1185.0000,69.0000 1189.0000,66.0000 1193.0000,66.0000 L 1305.0000,66.0000 C 1310.0000,66.0000 1313.0000,69.0000 1313.0000,74.0000 C 1313.0000,78.0000 1310.0000,82.0000 1305.0000,82.0000 Z M 1113.0000,82.0000 L 1001.0000,82.0000 C 996.0000,82.0000 993.0000,78.0000 993.0000,74.0000 C 993.0000,69.0000 996.0000,66.0000 1001.0000,66.0000 L 1113.0000,66.0000 C 1117.0000,66.0000 1121.0000,69.0000 1121.0000,74.0000 C 1121.0000,78.0000 1117.0000,82.0000 1113.0000,82.0000 Z M 921.0000,82.0000 L 809.0000,82.0000 C 804.0000,82.0000 801.0000,78.0000 801.0000,74.0000 C 801.0000,69.0000 804.0000,66.0000 809.0000,66.0000 L 921.0000,66.0000 C 925.0000,66.0000 929.0000,69.0000 929.0000,74.0000 C 929.0000,78.0000 925.0000,82.0000 921.0000,82.0000 Z M 729.0000,82.0000 L 617.0000,82.0000 C 612.0000,82.0000 609.0000,78.0000 609.0000,74.0000 C 609.0000,69.0000 612.0000,66.0000 617.0000,66.0000 L 729.0000,66.0000 C 733.0000,66.0000 737.0000,69.0000 737.0000,74.0000 C 737.0000,78.0000 733.0000,82.0000 729.0000,82.0000 Z M 536.0000,82.0000 L 424.0000,82.0000 C 420.0000,82.0000 416.0000,78.0000 416.0000,74.0000 C 416.0000,69.0000 420.0000,66.0000 424.0000,66.0000 L 536.0000,66.0000 C 541.0000,66.0000 544.0000,69.0000 544.0000,74.0000 C 544.0000,78.0000 541.0000,82.0000 536.0000,82.0000 Z M 344.0000,82.0000 L 232.0000,82.0000 C 228.0000,82.0000 224.0000,78.0000 224.0000,74.0000 C 224.0000,69.0000 228.0000,66.0000 232.0000,66.0000 L 344.0000,66.0000 C 349.0000,66.0000 352.0000,69.0000 352.0000,74.0000 C 352.0000,78.0000 349.0000,82.0000 344.0000,82.0000 Z M 152.0000,82.0000 L 40.0000,82.0000 C 36.0000,82.0000 32.0000,78.0000 32.0000,74.0000 C 32.0000,69.0000 36.0000,66.0000 40.0000,66.0000 L 152.0000,66.0000 C 156.0000,66.0000 160.0000,69.0000 160.0000,74.0000 C 160.0000,78.0000 156.0000,82.0000 152.0000,82.0000 Z "  fill="#000000" stroke="#000000" stroke-width="1.0000"  stroke-linecap="butt"  stroke-linejoin="round" />
</g>
<g transform="matrix(1.0000 0.0000 0.0000 1.0000 0.0000 0.0000)">
</g>
<g transform="matrix(1.0000 0.0000 0.0000 1.0000 10.7302 27.4676)">
<text font-family="Arial" fill="#000000" style ="white-space:pre;" font-weight="400" text-anchor="start" x="0.0000" y="0.0000" font-size="16.0000" ><![CDATA[     ]]></text>
</g>
<g transform="matrix(1.0000 0.0000 0.0000 1.0000 32.9556 27.4676)">
<text font-family="Arial" fill="#000000" style ="white-space:pre;" font-weight="400" text-anchor="start" x="0.0000" y="0.0000" font-size="16.0000" ><![CDATA[Remote ]]></text>
</g>
<g transform="matrix(1.0000 0.0000 0.0000 1.0000 93.4238 27.4676)">
<text font-family="Arial" fill="#000000" style ="white-space:pre;" font-weight="400" text-anchor="start" x="0.0000" y="0.0000" font-size="16.0000" ><![CDATA[UE]]></text>
</g>
<g transform="matrix(0.0625 0.0000 0.0000 0.0625 0.0000 0.0000)">
<path d="M 263.0000,3891.0000 L 2077.0000,3891.0000 L 2077.0000,3438.0000 L 263.0000,3438.0000 L 263.0000,3891.0000 Z" stroke="#000000" stroke-width="16.0000"  stroke-linecap="round"  stroke-linejoin="round" fill="none" />
</g>
<g transform="matrix(1.0000 0.0000 0.0000 1.0000 0.0000 0.0000)">
</g>
<g transform="matrix(1.0000 0.0000 0.0000 1.0000 57.1472 234.3018)">
<text font-family="Arial" fill="#000000" style ="white-space:pre;" font-weight="400" text-anchor="start" x="0.0000" y="0.0000" font-size="16.0000" ><![CDATA[PHY]]></text>
</g>
<g transform="matrix(0.0625 0.0000 0.0000 0.0625 0.0000 0.0000)">
<path d="M 263.0000,3211.0000 L 2077.0000,3211.0000 L 2077.0000,2757.0000 L 263.0000,2757.0000 L 263.0000,3211.0000 Z" stroke="#000000" stroke-width="16.0000"  stroke-linecap="round"  stroke-linejoin="round" fill="none" />
</g>
<g transform="matrix(1.0000 0.0000 0.0000 1.0000 0.0000 0.0000)">
</g>
<g transform="matrix(1.0000 0.0000 0.0000 1.0000 55.8190 191.7821)">
<text font-family="Arial" fill="#000000" style ="white-space:pre;" font-weight="400" text-anchor="start" x="0.0000" y="0.0000" font-size="16.0000" ><![CDATA[MAC]]></text>
</g>
<g transform="matrix(0.0625 0.0000 0.0000 0.0625 0.0000 0.0000)">
<path d="M 263.0000,2531.0000 L 2077.0000,2531.0000 L 2077.0000,2077.0000 L 263.0000,2077.0000 L 263.0000,2531.0000 Z" stroke="#000000" stroke-width="16.0000"  stroke-linecap="round"  stroke-linejoin="round" fill="none" />
</g>
<g transform="matrix(1.0000 0.0000 0.0000 1.0000 0.0000 0.0000)">
</g>
<g transform="matrix(1.0000 0.0000 0.0000 1.0000 57.5922 149.2624)">
<text font-family="Arial" fill="#000000" style ="white-space:pre;" font-weight="400" text-anchor="start" x="0.0000" y="0.0000" font-size="16.0000" ><![CDATA[RLC]]></text>
</g>
<g transform="matrix(0.0625 0.0000 0.0000 0.0625 0.0000 0.0000)">
<path d="M 3664.0000,3211.0000 L 5479.0000,3211.0000 L 5479.0000,2757.0000 L 3664.0000,2757.0000 L 3664.0000,3211.0000 Z" stroke="#000000" stroke-width="16.0000"  stroke-linecap="round"  stroke-linejoin="round" fill="none" />
</g>
<g transform="matrix(1.0000 0.0000 0.0000 1.0000 0.0000 0.0000)">
</g>
<g transform="matrix(1.0000 0.0000 0.0000 1.0000 268.4174 191.7821)">
<text font-family="Arial" fill="#000000" style ="white-space:pre;" font-weight="400" text-anchor="start" x="0.0000" y="0.0000" font-size="16.0000" ><![CDATA[MAC]]></text>
</g>
<g transform="matrix(0.0625 0.0000 0.0000 0.0625 0.0000 0.0000)">
<path d="M 3664.0000,1850.0000 L 5479.0000,1850.0000 L 5479.0000,1397.0000 L 3664.0000,1397.0000 L 3664.0000,1850.0000 Z" stroke="#000000" stroke-width="16.0000"  stroke-linecap="round"  stroke-linejoin="round" fill="none" />
</g>
<g transform="matrix(1.0000 0.0000 0.0000 1.0000 0.0000 0.0000)">
</g>
<g transform="matrix(1.0000 0.0000 0.0000 1.0000 263.9680 106.7428)">
<text font-family="Arial" fill="#000000" style ="white-space:pre;" font-weight="400" text-anchor="start" x="0.0000" y="0.0000" font-size="16.0000" ><![CDATA[PDCP]]></text>
</g>
<g transform="matrix(0.0625 0.0000 0.0000 0.0625 0.0000 0.0000)">
<path d="M 2182.0000,1624.0000 L 3560.0000,1624.0000 " stroke="#000000" stroke-width="23.0000"  stroke-linecap="round"  stroke-linejoin="round" fill="none" />
</g>
<g transform="matrix(1.0000 0.0000 0.0000 1.0000 0.0000 0.0000)">
</g>
<g transform="matrix(0.0625 0.0000 0.0000 0.0625 0.0000 0.0000)">
<path d="M 2077.0000,1624.0000 L 2215.0000,1554.0000 C 2194.0000,1598.0000 2194.0000,1649.0000 2215.0000,1693.0000 L 2077.0000,1624.0000 Z "  fill="#000000" stroke="none" />
</g>
<g transform="matrix(1.0000 0.0000 0.0000 1.0000 0.0000 0.0000)">
</g>
<g transform="matrix(0.0625 0.0000 0.0000 0.0625 0.0000 0.0000)">
<path d="M 3664.0000,1624.0000 L 3526.0000,1693.0000 C 3548.0000,1649.0000 3548.0000,1598.0000 3526.0000,1554.0000 L 3664.0000,1624.0000 Z "  fill="#000000" stroke="none" />
</g>
<g transform="matrix(1.0000 0.0000 0.0000 1.0000 0.0000 0.0000)">
</g>
<g transform="matrix(0.0625 0.0000 0.0000 0.0625 0.0000 0.0000)">
<path d="M 2182.0000,2984.0000 L 3560.0000,2984.0000 " stroke="#000000" stroke-width="23.0000"  stroke-linecap="round"  stroke-linejoin="round" fill="none" />
</g>
<g transform="matrix(1.0000 0.0000 0.0000 1.0000 0.0000 0.0000)">
</g>
<g transform="matrix(0.0625 0.0000 0.0000 0.0625 0.0000 0.0000)">
<path d="M 2077.0000,2984.0000 L 2215.0000,2915.0000 C 2194.0000,2959.0000 2194.0000,3010.0000 2215.0000,3053.0000 L 2077.0000,2984.0000 Z "  fill="#000000" stroke="none" />
</g>
<g transform="matrix(1.0000 0.0000 0.0000 1.0000 0.0000 0.0000)">
</g>
<g transform="matrix(0.0625 0.0000 0.0000 0.0625 0.0000 0.0000)">
<path d="M 3664.0000,2984.0000 L 3526.0000,3053.0000 C 3548.0000,3010.0000 3548.0000,2959.0000 3526.0000,2915.0000 L 3664.0000,2984.0000 Z "  fill="#000000" stroke="none" />
</g>
<g transform="matrix(1.0000 0.0000 0.0000 1.0000 0.0000 0.0000)">
</g>
<g transform="matrix(0.0625 0.0000 0.0000 0.0625 0.0000 0.0000)">
<path d="M 2182.0000,3664.0000 L 3560.0000,3664.0000 " stroke="#000000" stroke-width="23.0000"  stroke-linecap="round"  stroke-linejoin="round" fill="none" />
</g>
<g transform="matrix(1.0000 0.0000 0.0000 1.0000 0.0000 0.0000)">
</g>
<g transform="matrix(0.0625 0.0000 0.0000 0.0625 0.0000 0.0000)">
<path d="M 2077.0000,3664.0000 L 2215.0000,3595.0000 C 2194.0000,3639.0000 2194.0000,3690.0000 2215.0000,3734.0000 L 2077.0000,3664.0000 Z "  fill="#000000" stroke="none" />
</g>
<g transform="matrix(1.0000 0.0000 0.0000 1.0000 0.0000 0.0000)">
</g>
<g transform="matrix(0.0625 0.0000 0.0000 0.0625 0.0000 0.0000)">
<path d="M 3664.0000,3664.0000 L 3526.0000,3734.0000 C 3548.0000,3690.0000 3548.0000,3639.0000 3526.0000,3595.0000 L 3664.0000,3664.0000 Z "  fill="#000000" stroke="none" />
</g>
<g transform="matrix(1.0000 0.0000 0.0000 1.0000 0.0000 0.0000)">
</g>
<g transform="matrix(0.0625 0.0000 0.0000 0.0625 0.0000 0.0000)">
<path d="M 263.0000,1850.0000 L 2077.0000,1850.0000 L 2077.0000,1397.0000 L 263.0000,1397.0000 L 263.0000,1850.0000 Z" stroke="#000000" stroke-width="16.0000"  stroke-linecap="round"  stroke-linejoin="round" fill="none" />
</g>
<g transform="matrix(1.0000 0.0000 0.0000 1.0000 0.0000 0.0000)">
</g>
<g transform="matrix(1.0000 0.0000 0.0000 1.0000 51.3695 106.7428)">
<text font-family="Arial" fill="#000000" style ="white-space:pre;" font-weight="400" text-anchor="start" x="0.0000" y="0.0000" font-size="16.0000" ><![CDATA[PDCP]]></text>
</g>
<g transform="matrix(0.0625 0.0000 0.0000 0.0625 0.0000 0.0000)">
<path d="M 3664.0000,2531.0000 L 5479.0000,2531.0000 L 5479.0000,2077.0000 L 3664.0000,2077.0000 L 3664.0000,2531.0000 Z" stroke="#000000" stroke-width="16.0000"  stroke-linecap="round"  stroke-linejoin="round" fill="none" />
</g>
<g transform="matrix(1.0000 0.0000 0.0000 1.0000 0.0000 0.0000)">
</g>
<g transform="matrix(1.0000 0.0000 0.0000 1.0000 270.1906 149.2624)">
<text font-family="Arial" fill="#000000" style ="white-space:pre;" font-weight="400" text-anchor="start" x="0.0000" y="0.0000" font-size="16.0000" ><![CDATA[RLC]]></text>
</g>
<g transform="matrix(0.0625 0.0000 0.0000 0.0625 0.0000 0.0000)">
<path d="M 2182.0000,2304.0000 L 3560.0000,2304.0000 " stroke="#000000" stroke-width="23.0000"  stroke-linecap="round"  stroke-linejoin="round" fill="none" />
</g>
<g transform="matrix(1.0000 0.0000 0.0000 1.0000 0.0000 0.0000)">
</g>
<g transform="matrix(0.0625 0.0000 0.0000 0.0625 0.0000 0.0000)">
<path d="M 2077.0000,2304.0000 L 2215.0000,2235.0000 C 2194.0000,2278.0000 2194.0000,2329.0000 2215.0000,2373.0000 L 2077.0000,2304.0000 Z "  fill="#000000" stroke="none" />
</g>
<g transform="matrix(1.0000 0.0000 0.0000 1.0000 0.0000 0.0000)">
</g>
<g transform="matrix(0.0625 0.0000 0.0000 0.0625 0.0000 0.0000)">
<path d="M 3664.0000,2304.0000 L 3526.0000,2373.0000 C 3548.0000,2329.0000 3548.0000,2278.0000 3526.0000,2235.0000 L 3664.0000,2304.0000 Z "  fill="#000000" stroke="none" />
</g>
<g transform="matrix(1.0000 0.0000 0.0000 1.0000 0.0000 0.0000)">
</g>
<g transform="matrix(0.0625 0.0000 0.0000 0.0625 0.0000 0.0000)">
<path d="M 3664.0000,1170.0000 L 5479.0000,1170.0000 L 5479.0000,477.0000 L 3664.0000,477.0000 L 3664.0000,1170.0000 Z" stroke="#000000" stroke-width="16.0000"  stroke-linecap="round"  stroke-linejoin="round" fill="none" />
</g>
<g transform="matrix(1.0000 0.0000 0.0000 1.0000 0.0000 0.0000)">
</g>
<g transform="matrix(1.0000 0.0000 0.0000 1.0000 251.0766 56.7362)">
<text font-family="Arial" fill="#000000" style ="white-space:pre;" font-weight="400" text-anchor="start" x="0.0000" y="0.0000" font-size="16.0000" ><![CDATA[Discovery]]></text>
</g>
<g transform="matrix(0.0625 0.0000 0.0000 0.0625 0.0000 0.0000)">
<path d="M 2182.0000,823.0000 L 3560.0000,823.0000 " stroke="#000000" stroke-width="23.0000"  stroke-linecap="round"  stroke-linejoin="round" fill="none" />
</g>
<g transform="matrix(1.0000 0.0000 0.0000 1.0000 0.0000 0.0000)">
</g>
<g transform="matrix(0.0625 0.0000 0.0000 0.0625 0.0000 0.0000)">
<path d="M 2077.0000,823.0000 L 2215.0000,754.0000 C 2194.0000,798.0000 2194.0000,849.0000 2215.0000,893.0000 L 2077.0000,823.0000 Z "  fill="#000000" stroke="none" />
</g>
<g transform="matrix(1.0000 0.0000 0.0000 1.0000 0.0000 0.0000)">
</g>
<g transform="matrix(0.0625 0.0000 0.0000 0.0625 0.0000 0.0000)">
<path d="M 3664.0000,823.0000 L 3526.0000,893.0000 C 3548.0000,849.0000 3548.0000,798.0000 3526.0000,754.0000 L 3664.0000,823.0000 Z "  fill="#000000" stroke="none" />
</g>
<g transform="matrix(1.0000 0.0000 0.0000 1.0000 0.0000 0.0000)">
</g>
<g transform="matrix(0.0625 0.0000 0.0000 0.0625 0.0000 0.0000)">
<path d="M 263.0000,1170.0000 L 2077.0000,1170.0000 L 2077.0000,477.0000 L 263.0000,477.0000 L 263.0000,1170.0000 Z" stroke="#000000" stroke-width="16.0000"  stroke-linecap="round"  stroke-linejoin="round" fill="none" />
</g>
<g transform="matrix(1.0000 0.0000 0.0000 1.0000 0.0000 0.0000)">
</g>
<g transform="matrix(1.0000 0.0000 0.0000 1.0000 38.4782 56.7362)">
<text font-family="Arial" fill="#000000" style ="white-space:pre;" font-weight="400" text-anchor="start" x="0.0000" y="0.0000" font-size="16.0000" ><![CDATA[Discovery]]></text>
</g>
</g>
</svg>
