<?xml version="1.0"  encoding="UTF-8" standalone="no"?>
<svg version="1.1" xmlns="http://www.w3.org/2000/svg" xmlns:xlink="http://www.w3.org/1999/xlink" width="651.0000" height="595.0000">
<g transform="translate(3.0000, 3.0000)">
<g transform="matrix(0.0625 0.0000 0.0000 0.0625 0.0000 0.0000)">
<path d="M 36.0000,626.0000 L 1488.0000,626.0000 L 1488.0000,36.0000 L 36.0000,36.0000 L 36.0000,626.0000 Z" stroke="#000000" stroke-width="16.0000"  stroke-linecap="square"  stroke-linejoin="miter"  stroke-miterlimit="2.0000" fill="none" />
</g>
<g transform="matrix(1.0000 0.0000 0.0000 1.0000 0.0000 0.0000)">
</g>
<g transform="matrix(1.0000 0.0000 0.0000 1.0000 11.6638 25.9751)">
<text font-family="Calibri" fill="#000000" style ="white-space:pre;" font-weight="400" text-anchor="start" x="0.0000" y="0.0000" font-size="16.0000" ><![CDATA[Remote UE]]></text>
</g>
<g transform="matrix(0.0625 0.0000 0.0000 0.0625 0.0000 0.0000)">
<path d="M 4436.0000,626.0000 L 5887.0000,626.0000 L 5887.0000,36.0000 L 4436.0000,36.0000 L 4436.0000,626.0000 Z" stroke="#000000" stroke-width="16.0000"  stroke-linecap="square"  stroke-linejoin="miter"  stroke-miterlimit="2.0000" fill="none" />
</g>
<g transform="matrix(1.0000 0.0000 0.0000 1.0000 0.0000 0.0000)">
</g>
<g transform="matrix(1.0000 0.0000 0.0000 1.0000 294.6043 25.9751)">
<text font-family="Calibri" fill="#000000" style ="white-space:pre;" font-weight="400" text-anchor="start" x="0.0000" y="0.0000" font-size="16.0000" ><![CDATA[Relay UE]]></text>
</g>
<g transform="matrix(0.0625 0.0000 0.0000 0.0625 0.0000 0.0000)">
<path d="M 8835.0000,626.0000 L 10287.0000,626.0000 L 10287.0000,36.0000 L 8835.0000,36.0000 L 8835.0000,626.0000 Z" stroke="#000000" stroke-width="16.0000"  stroke-linecap="square"  stroke-linejoin="miter"  stroke-miterlimit="2.0000" fill="none" />
</g>
<g transform="matrix(1.0000 0.0000 0.0000 1.0000 0.0000 0.0000)">
</g>
<g transform="matrix(1.0000 0.0000 0.0000 1.0000 584.7448 25.9751)">
<text font-family="Calibri" fill="#000000" style ="white-space:pre;" font-weight="400" text-anchor="start" x="0.0000" y="0.0000" font-size="16.0000" ><![CDATA[gNB]]></text>
</g>
<g transform="matrix(0.0625 0.0000 0.0000 0.0625 0.0000 0.0000)">
<path d="M 778.0000,626.0000 L 778.0000,9425.0000 " stroke="#000000" stroke-width="32.0000"  stroke-linecap="round"  stroke-linejoin="round" fill="none" />
</g>
<g transform="matrix(1.0000 0.0000 0.0000 1.0000 0.0000 0.0000)">
</g>
<g transform="matrix(0.0625 0.0000 0.0000 0.0625 0.0000 0.0000)">
<path d="M 5219.0000,626.0000 L 5219.0000,9425.0000 " stroke="#000000" stroke-width="32.0000"  stroke-linecap="round"  stroke-linejoin="round" fill="none" />
</g>
<g transform="matrix(1.0000 0.0000 0.0000 1.0000 0.0000 0.0000)">
</g>
<g transform="matrix(0.0625 0.0000 0.0000 0.0625 0.0000 0.0000)">
<path d="M 9652.0000,626.0000 L 9652.0000,9425.0000 " stroke="#000000" stroke-width="32.0000"  stroke-linecap="round"  stroke-linejoin="round" fill="none" />
</g>
<g transform="matrix(1.0000 0.0000 0.0000 1.0000 0.0000 0.0000)">
</g>
<g transform="matrix(0.0625 0.0000 0.0000 0.0625 0.0000 0.0000)">
<path d="M 778.0000,3279.0000 L 9637.0000,3279.0000 " stroke="#000000" stroke-width="32.0000"  stroke-linecap="round"  stroke-linejoin="round" fill="none" />
</g>
<g transform="matrix(1.0000 0.0000 0.0000 1.0000 0.0000 0.0000)">
</g>
<g transform="matrix(0.0625 0.0000 0.0000 0.0625 0.0000 0.0000)">
<path d="M 9524.0000,3392.0000 L 9637.0000,3279.0000 L 9524.0000,3167.0000 " stroke="#000000" stroke-width="32.0000"  stroke-linecap="round"  stroke-linejoin="round" fill="none" />
</g>
<g transform="matrix(1.0000 0.0000 0.0000 1.0000 0.0000 0.0000)">
</g>
<g transform="matrix(1.0000 0.0000 0.0000 1.0000 250.8809 186.6359)">
<text font-family="Calibri" fill="#000000" font-style="italic" style ="white-space:pre;" font-weight="400" text-anchor="start" x="0.0000" y="0.0000" font-size="16.0000" ><![CDATA[2]]></text>
</g>
<g transform="matrix(1.0000 0.0000 0.0000 1.0000 258.9905 186.6359)">
<text font-family="Calibri" fill="#000000" font-style="italic" style ="white-space:pre;" font-weight="400" text-anchor="start" x="0.0000" y="0.0000" font-size="16.0000" ><![CDATA[. ]]></text>
</g>
<g transform="matrix(1.0000 0.0000 0.0000 1.0000 266.6469 186.6359)">
<text font-family="Calibri" fill="#000000" font-style="italic" style ="white-space:pre;" font-weight="400" text-anchor="start" x="0.0000" y="0.0000" font-size="16.0000" ><![CDATA[RRCSetupRequest]]></text>
</g>
<g transform="matrix(0.0625 0.0000 0.0000 0.0625 0.0000 0.0000)">
<path d="M 354.0000,4867.0000 L 10014.0000,4867.0000 L 10014.0000,4277.0000 L 354.0000,4277.0000 L 354.0000,4867.0000 Z" stroke="#000000" stroke-width="16.0000"  stroke-linecap="square"  stroke-linejoin="miter"  stroke-miterlimit="2.0000" fill="none" />
</g>
<g transform="matrix(1.0000 0.0000 0.0000 1.0000 0.0000 0.0000)">
</g>
<g transform="matrix(1.0000 0.0000 0.0000 1.0000 161.2955 291.0145)">
<text font-family="Calibri" fill="#000000" style ="white-space:pre;" font-weight="400" text-anchor="start" x="0.0000" y="0.0000" font-size="16.0000" ><![CDATA[3]]></text>
</g>
<g transform="matrix(1.0000 0.0000 0.0000 1.0000 169.4050 291.0145)">
<text font-family="Calibri" fill="#000000" style ="white-space:pre;" font-weight="400" text-anchor="start" x="0.0000" y="0.0000" font-size="16.0000" ><![CDATA[. ]]></text>
</g>
<g transform="matrix(1.0000 0.0000 0.0000 1.0000 177.0614 291.0145)">
<text font-family="Calibri" fill="#000000" style ="white-space:pre;" font-weight="400" text-anchor="start" x="0.0000" y="0.0000" font-size="16.0000" ><![CDATA[Prepare PC]]></text>
</g>
<g transform="matrix(1.0000 0.0000 0.0000 1.0000 248.8895 291.0145)">
<text font-family="Calibri" fill="#000000" style ="white-space:pre;" font-weight="400" text-anchor="start" x="0.0000" y="0.0000" font-size="16.0000" ><![CDATA[5 ]]></text>
</g>
<g transform="matrix(1.0000 0.0000 0.0000 1.0000 260.6163 291.0145)">
<text font-family="Calibri" fill="#000000" style ="white-space:pre;" font-weight="400" text-anchor="start" x="0.0000" y="0.0000" font-size="16.0000" ><![CDATA[and Uu]]></text>
</g>
<g transform="matrix(1.0000 0.0000 0.0000 1.0000 307.3818 291.0145)">
<text font-family="Calibri" fill="#000000" style ="white-space:pre;" font-weight="400" text-anchor="start" x="0.0000" y="0.0000" font-size="16.0000" ><![CDATA[ ]]></text>
</g>
<g transform="matrix(1.0000 0.0000 0.0000 1.0000 310.9990 291.0145)">
<text font-family="Calibri" fill="#000000" style ="white-space:pre;" font-weight="400" text-anchor="start" x="0.0000" y="0.0000" font-size="16.0000" ><![CDATA[Relay]]></text>
</g>
<g transform="matrix(1.0000 0.0000 0.0000 1.0000 346.2250 291.0145)">
<text font-family="Calibri" fill="#000000" style ="white-space:pre;" font-weight="400" text-anchor="start" x="0.0000" y="0.0000" font-size="16.0000" ><![CDATA[ ]]></text>
</g>
<g transform="matrix(1.0000 0.0000 0.0000 1.0000 349.8423 291.0145)">
<text font-family="Calibri" fill="#000000" style ="white-space:pre;" font-weight="400" text-anchor="start" x="0.0000" y="0.0000" font-size="16.0000" ><![CDATA[RLC channel for SRB]]></text>
</g>
<g transform="matrix(1.0000 0.0000 0.0000 1.0000 479.5601 291.0145)">
<text font-family="Calibri" fill="#000000" style ="white-space:pre;" font-weight="400" text-anchor="start" x="0.0000" y="0.0000" font-size="16.0000" ><![CDATA[1]]></text>
</g>
<g transform="matrix(0.0625 0.0000 0.0000 0.0625 0.0000 0.0000)">
<path d="M 793.0000,5502.0000 L 9652.0000,5502.0000 " stroke="#000000" stroke-width="32.0000"  stroke-linecap="round"  stroke-linejoin="round" fill="none" />
</g>
<g transform="matrix(1.0000 0.0000 0.0000 1.0000 0.0000 0.0000)">
</g>
<g transform="matrix(0.0625 0.0000 0.0000 0.0625 0.0000 0.0000)">
<path d="M 9539.0000,5614.0000 L 9652.0000,5502.0000 L 9539.0000,5389.0000 " stroke="#000000" stroke-width="32.0000"  stroke-linecap="round"  stroke-linejoin="round" fill="none" />
</g>
<g transform="matrix(1.0000 0.0000 0.0000 1.0000 0.0000 0.0000)">
</g>
<g transform="matrix(1.0000 0.0000 0.0000 1.0000 253.9392 329.2826)">
<text font-family="Calibri" fill="#000000" font-style="italic" style ="white-space:pre;" font-weight="400" text-anchor="start" x="0.0000" y="0.0000" font-size="16.0000" ><![CDATA[4]]></text>
</g>
<g transform="matrix(1.0000 0.0000 0.0000 1.0000 262.0488 329.2826)">
<text font-family="Calibri" fill="#000000" font-style="italic" style ="white-space:pre;" font-weight="400" text-anchor="start" x="0.0000" y="0.0000" font-size="16.0000" ><![CDATA[. ]]></text>
</g>
<g transform="matrix(1.0000 0.0000 0.0000 1.0000 269.7051 329.2826)">
<text font-family="Calibri" fill="#000000" font-style="italic" style ="white-space:pre;" font-weight="400" text-anchor="start" x="0.0000" y="0.0000" font-size="16.0000" ><![CDATA[RRCSetupComplete]]></text>
</g>
<g transform="matrix(0.0625 0.0000 0.0000 0.0625 0.0000 0.0000)">
<path d="M 354.0000,9107.0000 L 10014.0000,9107.0000 L 10014.0000,8518.0000 L 354.0000,8518.0000 L 354.0000,9107.0000 Z" stroke="#000000" stroke-width="16.0000"  stroke-linecap="square"  stroke-linejoin="miter"  stroke-miterlimit="2.0000" fill="none" />
</g>
<g transform="matrix(1.0000 0.0000 0.0000 1.0000 0.0000 0.0000)">
</g>
<g transform="matrix(1.0000 0.0000 0.0000 1.0000 144.5885 556.0538)">
<text fill="#000000" style ="white-space:pre;" font-weight="400" text-anchor="start" x="0.0000" y="0.0000" font-size="16.0000" ><![CDATA[6]]></text>
</g>
<g transform="matrix(1.0000 0.0000 0.0000 1.0000 152.6981 556.0538)">
<text fill="#000000" style ="white-space:pre;" font-weight="400" text-anchor="start" x="0.0000" y="0.0000" font-size="16.0000" ><![CDATA[. ]]></text>
</g>
<g transform="matrix(1.0000 0.0000 0.0000 1.0000 160.3545 556.0538)">
<text fill="#000000" style ="white-space:pre;" font-weight="400" text-anchor="start" x="0.0000" y="0.0000" font-size="16.0000" ><![CDATA[Prepare PC]]></text>
</g>
<g transform="matrix(1.0000 0.0000 0.0000 1.0000 232.1825 556.0538)">
<text fill="#000000" style ="white-space:pre;" font-weight="400" text-anchor="start" x="0.0000" y="0.0000" font-size="16.0000" ><![CDATA[5 ]]></text>
</g>
<g transform="matrix(1.0000 0.0000 0.0000 1.0000 243.9093 556.0538)">
<text fill="#000000" style ="white-space:pre;" font-weight="400" text-anchor="start" x="0.0000" y="0.0000" font-size="16.0000" ><![CDATA[and Uu]]></text>
</g>
<g transform="matrix(1.0000 0.0000 0.0000 1.0000 290.6749 556.0538)">
<text font-family="Calibri" fill="#000000" style ="white-space:pre;" font-weight="400" text-anchor="start" x="0.0000" y="0.0000" font-size="16.0000" ><![CDATA[ ]]></text>
</g>
<g transform="matrix(1.0000 0.0000 0.0000 1.0000 294.2921 556.0538)">
<text font-family="Calibri" fill="#000000" style ="white-space:pre;" font-weight="400" text-anchor="start" x="0.0000" y="0.0000" font-size="16.0000" ><![CDATA[Relay]]></text>
</g>
<g transform="matrix(1.0000 0.0000 0.0000 1.0000 329.5181 556.0538)">
<text fill="#000000" style ="white-space:pre;" font-weight="400" text-anchor="start" x="0.0000" y="0.0000" font-size="16.0000" ><![CDATA[ ]]></text>
</g>
<g transform="matrix(1.0000 0.0000 0.0000 1.0000 333.1354 556.0538)">
<text fill="#000000" style ="white-space:pre;" font-weight="400" text-anchor="start" x="0.0000" y="0.0000" font-size="16.0000" ><![CDATA[RLC channel for SRB]]></text>
</g>
<g transform="matrix(1.0000 0.0000 0.0000 1.0000 462.8531 556.0538)">
<text fill="#000000" style ="white-space:pre;" font-weight="400" text-anchor="start" x="0.0000" y="0.0000" font-size="16.0000" ><![CDATA[2]]></text>
</g>
<g transform="matrix(1.0000 0.0000 0.0000 1.0000 470.9627 556.0538)">
<text fill="#000000" style ="white-space:pre;" font-weight="400" text-anchor="start" x="0.0000" y="0.0000" font-size="16.0000" ><![CDATA[/]]></text>
</g>
<g transform="matrix(1.0000 0.0000 0.0000 1.0000 477.1425 556.0538)">
<text fill="#000000" style ="white-space:pre;" font-weight="400" text-anchor="start" x="0.0000" y="0.0000" font-size="16.0000" ><![CDATA[DRB]]></text>
</g>
<g transform="matrix(0.0625 0.0000 0.0000 0.0625 0.0000 0.0000)">
<path d="M 807.0000,7611.0000 L 9666.0000,7611.0000 " stroke="#000000" stroke-width="32.0000"  stroke-linecap="round"  stroke-linejoin="round" fill="none" />
</g>
<g transform="matrix(1.0000 0.0000 0.0000 1.0000 0.0000 0.0000)">
</g>
<g transform="matrix(0.0625 0.0000 0.0000 0.0625 0.0000 0.0000)">
<path d="M 920.0000,7498.0000 L 807.0000,7611.0000 L 920.0000,7723.0000 " stroke="#000000" stroke-width="32.0000"  stroke-linecap="round"  stroke-linejoin="round" fill="none" />
</g>
<g transform="matrix(1.0000 0.0000 0.0000 1.0000 0.0000 0.0000)">
</g>
<g transform="matrix(1.0000 0.0000 0.0000 1.0000 252.2757 461.0937)">
<text font-family="Calibri" fill="#000000" style ="white-space:pre;" font-weight="400" text-anchor="start" x="0.0000" y="0.0000" font-size="16.0000" ><![CDATA[6]]></text>
</g>
<g transform="matrix(1.0000 0.0000 0.0000 1.0000 260.3852 461.0937)">
<text font-family="Calibri" fill="#000000" style ="white-space:pre;" font-weight="400" text-anchor="start" x="0.0000" y="0.0000" font-size="16.0000" ><![CDATA[.]]></text>
</g>
<g transform="matrix(1.0000 0.0000 0.0000 1.0000 264.4243 461.0937)">
<text font-family="Calibri" fill="#000000" font-style="italic" style ="white-space:pre;" font-weight="400" text-anchor="start" x="0.0000" y="0.0000" font-size="16.0000" ><![CDATA[ ]]></text>
</g>
<g transform="matrix(1.0000 0.0000 0.0000 1.0000 268.0416 461.0937)">
<text font-family="Calibri" fill="#000000" font-style="italic" style ="white-space:pre;" font-weight="400" text-anchor="start" x="0.0000" y="0.0000" font-size="16.0000" ><![CDATA[RRCReconfiguration]]></text>
</g>
<g transform="matrix(1.0000 0.0000 0.0000 1.0000 397.3836 461.0937)">
<text font-family="Calibri" fill="#000000" style ="white-space:pre;" font-weight="400" text-anchor="start" x="0.0000" y="0.0000" font-size="16.0000" ><![CDATA[ ]]></text>
</g>
<g transform="matrix(0.0625 0.0000 0.0000 0.0625 0.0000 0.0000)">
<path d="M 807.0000,4005.0000 L 9666.0000,4005.0000 " stroke="#000000" stroke-width="32.0000"  stroke-linecap="round"  stroke-linejoin="round" fill="none" />
</g>
<g transform="matrix(1.0000 0.0000 0.0000 1.0000 0.0000 0.0000)">
</g>
<g transform="matrix(0.0625 0.0000 0.0000 0.0625 0.0000 0.0000)">
<path d="M 920.0000,3892.0000 L 807.0000,4005.0000 L 920.0000,4118.0000 " stroke="#000000" stroke-width="32.0000"  stroke-linecap="round"  stroke-linejoin="round" fill="none" />
</g>
<g transform="matrix(1.0000 0.0000 0.0000 1.0000 0.0000 0.0000)">
</g>
<g transform="matrix(1.0000 0.0000 0.0000 1.0000 285.3884 232.6303)">
<text font-family="Calibri" fill="#000000" font-style="italic" style ="white-space:pre;" font-weight="400" text-anchor="start" x="0.0000" y="0.0000" font-size="16.0000" ><![CDATA[2]]></text>
</g>
<g transform="matrix(1.0000 0.0000 0.0000 1.0000 293.4980 232.6303)">
<text font-family="Calibri" fill="#000000" font-style="italic" style ="white-space:pre;" font-weight="400" text-anchor="start" x="0.0000" y="0.0000" font-size="16.0000" ><![CDATA[. ]]></text>
</g>
<g transform="matrix(1.0000 0.0000 0.0000 1.0000 301.1544 232.6303)">
<text font-family="Calibri" fill="#000000" font-style="italic" style ="white-space:pre;" font-weight="400" text-anchor="start" x="0.0000" y="0.0000" font-size="16.0000" ><![CDATA[RRCSetup]]></text>
</g>
<g transform="matrix(0.0625 0.0000 0.0000 0.0625 0.0000 0.0000)">
<path d="M 807.0000,6227.0000 L 9666.0000,6227.0000 " stroke="#000000" stroke-width="32.0000"  stroke-linecap="round"  stroke-linejoin="round" fill="none" />
</g>
<g transform="matrix(1.0000 0.0000 0.0000 1.0000 0.0000 0.0000)">
</g>
<g transform="matrix(0.0625 0.0000 0.0000 0.0625 0.0000 0.0000)">
<path d="M 920.0000,6115.0000 L 807.0000,6227.0000 L 920.0000,6340.0000 " stroke="#000000" stroke-width="32.0000"  stroke-linecap="round"  stroke-linejoin="round" fill="none" />
</g>
<g transform="matrix(1.0000 0.0000 0.0000 1.0000 0.0000 0.0000)">
</g>
<g transform="matrix(1.0000 0.0000 0.0000 1.0000 239.0723 374.6370)">
<text font-family="Calibri" fill="#000000" style ="white-space:pre;" font-weight="400" text-anchor="start" x="0.0000" y="0.0000" font-size="16.0000" ><![CDATA[5]]></text>
</g>
<g transform="matrix(1.0000 0.0000 0.0000 1.0000 247.1818 374.6370)">
<text font-family="Calibri" fill="#000000" style ="white-space:pre;" font-weight="400" text-anchor="start" x="0.0000" y="0.0000" font-size="16.0000" ><![CDATA[.]]></text>
</g>
<g transform="matrix(1.0000 0.0000 0.0000 1.0000 251.2210 374.6370)">
<text font-family="Calibri" fill="#000000" font-style="italic" style ="white-space:pre;" font-weight="400" text-anchor="start" x="0.0000" y="0.0000" font-size="16.0000" ><![CDATA[ ]]></text>
</g>
<g transform="matrix(1.0000 0.0000 0.0000 1.0000 254.8382 374.6370)">
<text font-family="Calibri" fill="#000000" font-style="italic" style ="white-space:pre;" font-weight="400" text-anchor="start" x="0.0000" y="0.0000" font-size="16.0000" ><![CDATA[SecurityModeCommand ]]></text>
</g>
<g transform="matrix(0.0625 0.0000 0.0000 0.0625 0.0000 0.0000)">
<path d="M 807.0000,6908.0000 L 9666.0000,6908.0000 " stroke="#000000" stroke-width="32.0000"  stroke-linecap="round"  stroke-linejoin="round" fill="none" />
</g>
<g transform="matrix(1.0000 0.0000 0.0000 1.0000 0.0000 0.0000)">
</g>
<g transform="matrix(0.0625 0.0000 0.0000 0.0625 0.0000 0.0000)">
<path d="M 9554.0000,7020.0000 L 9666.0000,6908.0000 L 9554.0000,6795.0000 " stroke="#000000" stroke-width="32.0000"  stroke-linecap="round"  stroke-linejoin="round" fill="none" />
</g>
<g transform="matrix(1.0000 0.0000 0.0000 1.0000 0.0000 0.0000)">
</g>
<g transform="matrix(1.0000 0.0000 0.0000 1.0000 241.4711 417.1566)">
<text font-family="Calibri" fill="#000000" style ="white-space:pre;" font-weight="400" text-anchor="start" x="0.0000" y="0.0000" font-size="16.0000" ><![CDATA[5]]></text>
</g>
<g transform="matrix(1.0000 0.0000 0.0000 1.0000 249.5807 417.1566)">
<text font-family="Calibri" fill="#000000" style ="white-space:pre;" font-weight="400" text-anchor="start" x="0.0000" y="0.0000" font-size="16.0000" ><![CDATA[.]]></text>
</g>
<g transform="matrix(1.0000 0.0000 0.0000 1.0000 253.6198 417.1566)">
<text fill="#000000" font-style="italic" style ="white-space:pre;" font-weight="400" text-anchor="start" x="0.0000" y="0.0000" font-size="16.0000" ><![CDATA[ ]]></text>
</g>
<g transform="matrix(1.0000 0.0000 0.0000 1.0000 257.2371 417.1566)">
<text fill="#000000" font-style="italic" style ="white-space:pre;" font-weight="400" text-anchor="start" x="0.0000" y="0.0000" font-size="16.0000" ><![CDATA[SecurityModeComplete]]></text>
</g>
<g transform="matrix(0.0625 0.0000 0.0000 0.0625 0.0000 0.0000)">
<path d="M 807.0000,8268.0000 L 9666.0000,8268.0000 " stroke="#000000" stroke-width="32.0000"  stroke-linecap="round"  stroke-linejoin="round" fill="none" />
</g>
<g transform="matrix(1.0000 0.0000 0.0000 1.0000 0.0000 0.0000)">
</g>
<g transform="matrix(0.0625 0.0000 0.0000 0.0625 0.0000 0.0000)">
<path d="M 9554.0000,8381.0000 L 9666.0000,8268.0000 L 9554.0000,8156.0000 " stroke="#000000" stroke-width="32.0000"  stroke-linecap="round"  stroke-linejoin="round" fill="none" />
</g>
<g transform="matrix(1.0000 0.0000 0.0000 1.0000 0.0000 0.0000)">
</g>
<g transform="matrix(1.0000 0.0000 0.0000 1.0000 221.3936 502.1960)">
<text font-family="Calibri" fill="#000000" style ="white-space:pre;" font-weight="400" text-anchor="start" x="0.0000" y="0.0000" font-size="16.0000" ><![CDATA[6]]></text>
</g>
<g transform="matrix(1.0000 0.0000 0.0000 1.0000 229.5032 502.1960)">
<text font-family="Calibri" fill="#000000" style ="white-space:pre;" font-weight="400" text-anchor="start" x="0.0000" y="0.0000" font-size="16.0000" ><![CDATA[.]]></text>
</g>
<g transform="matrix(1.0000 0.0000 0.0000 1.0000 233.5423 502.1960)">
<text font-family="Calibri" fill="#000000" font-style="italic" style ="white-space:pre;" font-weight="400" text-anchor="start" x="0.0000" y="0.0000" font-size="16.0000" ><![CDATA[ ]]></text>
</g>
<g transform="matrix(1.0000 0.0000 0.0000 1.0000 237.1596 502.1960)">
<text font-family="Calibri" fill="#000000" font-style="italic" style ="white-space:pre;" font-weight="400" text-anchor="start" x="0.0000" y="0.0000" font-size="16.0000" ><![CDATA[RR]]></text>
</g>
<g transform="matrix(1.0000 0.0000 0.0000 1.0000 254.5344 502.1960)">
<text font-family="Calibri" fill="#000000" font-style="italic" style ="white-space:pre;" font-weight="400" text-anchor="start" x="0.0000" y="0.0000" font-size="16.0000" ><![CDATA[C]]></text>
</g>
<g transform="matrix(1.0000 0.0000 0.0000 1.0000 262.8940 502.1960)">
<text font-family="Calibri" fill="#000000" font-style="italic" style ="white-space:pre;" font-weight="400" text-anchor="start" x="0.0000" y="0.0000" font-size="16.0000" ><![CDATA[ReconfigurationComplete]]></text>
</g>
<g transform="matrix(0.0625 0.0000 0.0000 0.0625 0.0000 0.0000)">
<path d="M 9554.0000,8156.0000 M 5324.0000,3279.0000 C 5324.0000,3214.0000 5275.0000,3161.0000 5215.0000,3161.0000 C 5155.0000,3161.0000 5106.0000,3214.0000 5106.0000,3279.0000 C 5106.0000,3344.0000 5155.0000,3397.0000 5215.0000,3397.0000 C 5275.0000,3397.0000 5324.0000,3344.0000 5324.0000,3279.0000 " stroke="#000000" stroke-width="48.0000"  stroke-linecap="square"  stroke-linejoin="miter"  stroke-miterlimit="2.0000"  fill="none" />
</g>
<g transform="matrix(1.0000 0.0000 0.0000 1.0000 0.0000 0.0000)">
</g>
<g transform="matrix(0.0625 0.0000 0.0000 0.0625 0.0000 0.0000)">
<path d="M 5324.0000,3279.0000 M 5330.0000,4015.0000 C 5330.0000,3950.0000 5281.0000,3897.0000 5221.0000,3897.0000 C 5161.0000,3897.0000 5112.0000,3950.0000 5112.0000,4015.0000 C 5112.0000,4080.0000 5161.0000,4133.0000 5221.0000,4133.0000 C 5281.0000,4133.0000 5330.0000,4080.0000 5330.0000,4015.0000 " stroke="#000000" stroke-width="48.0000"  stroke-linecap="square"  stroke-linejoin="miter"  stroke-miterlimit="2.0000"  fill="none" />
</g>
<g transform="matrix(1.0000 0.0000 0.0000 1.0000 0.0000 0.0000)">
</g>
<g transform="matrix(0.0625 0.0000 0.0000 0.0625 0.0000 0.0000)">
<path d="M 5330.0000,4015.0000 M 5334.0000,5502.0000 C 5334.0000,5437.0000 5285.0000,5384.0000 5225.0000,5384.0000 C 5165.0000,5384.0000 5116.0000,5437.0000 5116.0000,5502.0000 C 5116.0000,5567.0000 5165.0000,5620.0000 5225.0000,5620.0000 C 5285.0000,5620.0000 5334.0000,5567.0000 5334.0000,5502.0000 " stroke="#000000" stroke-width="48.0000"  stroke-linecap="square"  stroke-linejoin="miter"  stroke-miterlimit="2.0000"  fill="none" />
</g>
<g transform="matrix(1.0000 0.0000 0.0000 1.0000 0.0000 0.0000)">
</g>
<g transform="matrix(0.0625 0.0000 0.0000 0.0625 0.0000 0.0000)">
<path d="M 5334.0000,5502.0000 M 5334.0000,6227.0000 C 5334.0000,6162.0000 5285.0000,6109.0000 5225.0000,6109.0000 C 5165.0000,6109.0000 5116.0000,6162.0000 5116.0000,6227.0000 C 5116.0000,6292.0000 5165.0000,6345.0000 5225.0000,6345.0000 C 5285.0000,6345.0000 5334.0000,6292.0000 5334.0000,6227.0000 " stroke="#000000" stroke-width="48.0000"  stroke-linecap="square"  stroke-linejoin="miter"  stroke-miterlimit="2.0000"  fill="none" />
</g>
<g transform="matrix(1.0000 0.0000 0.0000 1.0000 0.0000 0.0000)">
</g>
<g transform="matrix(0.0625 0.0000 0.0000 0.0625 0.0000 0.0000)">
<path d="M 5334.0000,6227.0000 M 5334.0000,6908.0000 C 5334.0000,6843.0000 5285.0000,6790.0000 5225.0000,6790.0000 C 5165.0000,6790.0000 5116.0000,6843.0000 5116.0000,6908.0000 C 5116.0000,6973.0000 5165.0000,7026.0000 5225.0000,7026.0000 C 5285.0000,7026.0000 5334.0000,6973.0000 5334.0000,6908.0000 " stroke="#000000" stroke-width="48.0000"  stroke-linecap="square"  stroke-linejoin="miter"  stroke-miterlimit="2.0000"  fill="none" />
</g>
<g transform="matrix(1.0000 0.0000 0.0000 1.0000 0.0000 0.0000)">
</g>
<g transform="matrix(0.0625 0.0000 0.0000 0.0625 0.0000 0.0000)">
<path d="M 5334.0000,6908.0000 M 5334.0000,7615.0000 C 5334.0000,7550.0000 5285.0000,7497.0000 5225.0000,7497.0000 C 5165.0000,7497.0000 5116.0000,7550.0000 5116.0000,7615.0000 C 5116.0000,7680.0000 5165.0000,7733.0000 5225.0000,7733.0000 C 5285.0000,7733.0000 5334.0000,7680.0000 5334.0000,7615.0000 " stroke="#000000" stroke-width="48.0000"  stroke-linecap="square"  stroke-linejoin="miter"  stroke-miterlimit="2.0000"  fill="none" />
</g>
<g transform="matrix(1.0000 0.0000 0.0000 1.0000 0.0000 0.0000)">
</g>
<g transform="matrix(0.0625 0.0000 0.0000 0.0625 0.0000 0.0000)">
<path d="M 5334.0000,7615.0000 M 5333.0000,8275.0000 C 5333.0000,8209.0000 5285.0000,8157.0000 5225.0000,8157.0000 C 5164.0000,8157.0000 5116.0000,8209.0000 5116.0000,8275.0000 C 5116.0000,8340.0000 5164.0000,8393.0000 5225.0000,8393.0000 C 5285.0000,8393.0000 5333.0000,8340.0000 5333.0000,8275.0000 " stroke="#000000" stroke-width="48.0000"  stroke-linecap="square"  stroke-linejoin="miter"  stroke-miterlimit="2.0000"  fill="none" />
</g>
<g transform="matrix(1.0000 0.0000 0.0000 1.0000 0.0000 0.0000)">
</g>
<g transform="matrix(0.0625 0.0000 0.0000 0.0625 0.0000 0.0000)">
<path d="M 354.0000,1692.0000 L 5479.0000,1692.0000 L 5479.0000,1102.0000 L 354.0000,1102.0000 L 354.0000,1692.0000 Z" stroke="#000000" stroke-width="16.0000"  stroke-linecap="square"  stroke-linejoin="miter"  stroke-miterlimit="2.0000" fill="none" />
</g>
<g transform="matrix(1.0000 0.0000 0.0000 1.0000 0.0000 0.0000)">
</g>
<g transform="matrix(1.0000 0.0000 0.0000 1.0000 143.3751 92.5893)">
<text font-family="Calibri" fill="#000000" style ="white-space:pre;" font-weight="400" text-anchor="start" x="0.0000" y="0.0000" font-size="16.0000" ><![CDATA[1]]></text>
</g>
<g transform="matrix(1.0000 0.0000 0.0000 1.0000 151.4847 92.5893)">
<text font-family="Calibri" fill="#000000" style ="white-space:pre;" font-weight="400" text-anchor="start" x="0.0000" y="0.0000" font-size="16.0000" ><![CDATA[. ]]></text>
</g>
<g transform="matrix(1.0000 0.0000 0.0000 1.0000 159.1410 92.5893)">
<text font-family="Calibri" fill="#000000" style ="white-space:pre;" font-weight="400" text-anchor="start" x="0.0000" y="0.0000" font-size="16.0000" ><![CDATA[Discovery]]></text>
</g>
<g transform="matrix(0.0625 0.0000 0.0000 0.0625 0.0000 0.0000)">
<path d="M 354.0000,2531.0000 L 5479.0000,2531.0000 L 5479.0000,1941.0000 L 354.0000,1941.0000 L 354.0000,2531.0000 Z" stroke="#000000" stroke-width="16.0000"  stroke-linecap="square"  stroke-linejoin="miter"  stroke-miterlimit="2.0000" fill="none" />
</g>
<g transform="matrix(1.0000 0.0000 0.0000 1.0000 0.0000 0.0000)">
</g>
<g transform="matrix(1.0000 0.0000 0.0000 1.0000 75.5988 145.0302)">
<text font-family="Calibri" fill="#000000" style ="white-space:pre;" font-weight="400" text-anchor="start" x="0.0000" y="0.0000" font-size="16.0000" ><![CDATA[1]]></text>
</g>
<g transform="matrix(1.0000 0.0000 0.0000 1.0000 83.7084 145.0302)">
<text font-family="Calibri" fill="#000000" style ="white-space:pre;" font-weight="400" text-anchor="start" x="0.0000" y="0.0000" font-size="16.0000" ><![CDATA[. ]]></text>
</g>
<g transform="matrix(1.0000 0.0000 0.0000 1.0000 91.3647 145.0302)">
<text font-family="Calibri" fill="#000000" style ="white-space:pre;" font-weight="400" text-anchor="start" x="0.0000" y="0.0000" font-size="16.0000" ><![CDATA[PC]]></text>
</g>
<g transform="matrix(1.0000 0.0000 0.0000 1.0000 108.1617 145.0302)">
<text font-family="Calibri" fill="#000000" style ="white-space:pre;" font-weight="400" text-anchor="start" x="0.0000" y="0.0000" font-size="16.0000" ><![CDATA[5 ]]></text>
</g>
<g transform="matrix(1.0000 0.0000 0.0000 1.0000 119.8885 145.0302)">
<text font-family="Calibri" fill="#000000" style ="white-space:pre;" font-weight="400" text-anchor="start" x="0.0000" y="0.0000" font-size="16.0000" ><![CDATA[Connection Establishment]]></text>
</g>
</g>
</svg>
