<?xml version="1.0"  encoding="UTF-8" standalone="no"?>
<svg version="1.1" xmlns="http://www.w3.org/2000/svg" xmlns:xlink="http://www.w3.org/1999/xlink" width="335.0000" height="430.0000">
<g transform="translate(-22.0000, -0.0000)">
<g transform="matrix(0.0625 0.0000 0.0000 0.0625 0.0000 0.0000)">
<path d="M 1184.0000,328.0000 L 1296.0000,328.0000 C 1301.0000,328.0000 1304.0000,332.0000 1304.0000,336.0000 C 1304.0000,341.0000 1301.0000,344.0000 1296.0000,344.0000 L 1184.0000,344.0000 C 1180.0000,344.0000 1176.0000,341.0000 1176.0000,336.0000 C 1176.0000,332.0000 1180.0000,328.0000 1184.0000,328.0000 Z M 1376.0000,328.0000 L 1488.0000,328.0000 C 1493.0000,328.0000 1496.0000,332.0000 1496.0000,336.0000 C 1496.0000,341.0000 1493.0000,344.0000 1488.0000,344.0000 L 1376.0000,344.0000 C 1372.0000,344.0000 1368.0000,341.0000 1368.0000,336.0000 C 1368.0000,332.0000 1372.0000,328.0000 1376.0000,328.0000 Z M 1568.0000,328.0000 L 1680.0000,328.0000 C 1685.0000,328.0000 1688.0000,332.0000 1688.0000,336.0000 C 1688.0000,341.0000 1685.0000,344.0000 1680.0000,344.0000 L 1568.0000,344.0000 C 1564.0000,344.0000 1560.0000,341.0000 1560.0000,336.0000 C 1560.0000,332.0000 1564.0000,328.0000 1568.0000,328.0000 Z M 1760.0000,328.0000 L 1872.0000,328.0000 C 1877.0000,328.0000 1880.0000,332.0000 1880.0000,336.0000 C 1880.0000,341.0000 1877.0000,344.0000 1872.0000,344.0000 L 1760.0000,344.0000 C 1756.0000,344.0000 1752.0000,341.0000 1752.0000,336.0000 C 1752.0000,332.0000 1756.0000,328.0000 1760.0000,328.0000 Z M 1952.0000,328.0000 L 2064.0000,328.0000 C 2069.0000,328.0000 2072.0000,332.0000 2072.0000,336.0000 C 2072.0000,341.0000 2069.0000,344.0000 2064.0000,344.0000 L 1952.0000,344.0000 C 1948.0000,344.0000 1944.0000,341.0000 1944.0000,336.0000 C 1944.0000,332.0000 1948.0000,328.0000 1952.0000,328.0000 Z M 2144.0000,328.0000 L 2256.0000,328.0000 C 2261.0000,328.0000 2264.0000,332.0000 2264.0000,336.0000 C 2264.0000,341.0000 2261.0000,344.0000 2256.0000,344.0000 L 2144.0000,344.0000 C 2140.0000,344.0000 2136.0000,341.0000 2136.0000,336.0000 C 2136.0000,332.0000 2140.0000,328.0000 2144.0000,328.0000 Z M 2336.0000,328.0000 L 2448.0000,328.0000 C 2453.0000,328.0000 2456.0000,332.0000 2456.0000,336.0000 C 2456.0000,341.0000 2453.0000,344.0000 2448.0000,344.0000 L 2336.0000,344.0000 C 2332.0000,344.0000 2328.0000,341.0000 2328.0000,336.0000 C 2328.0000,332.0000 2332.0000,328.0000 2336.0000,328.0000 Z M 2528.0000,328.0000 L 2640.0000,328.0000 C 2645.0000,328.0000 2648.0000,332.0000 2648.0000,336.0000 C 2648.0000,341.0000 2645.0000,344.0000 2640.0000,344.0000 L 2528.0000,344.0000 C 2524.0000,344.0000 2520.0000,341.0000 2520.0000,336.0000 C 2520.0000,332.0000 2524.0000,328.0000 2528.0000,328.0000 Z M 2720.0000,328.0000 L 2832.0000,328.0000 C 2837.0000,328.0000 2840.0000,332.0000 2840.0000,336.0000 C 2840.0000,341.0000 2837.0000,344.0000 2832.0000,344.0000 L 2720.0000,344.0000 C 2716.0000,344.0000 2712.0000,341.0000 2712.0000,336.0000 C 2712.0000,332.0000 2716.0000,328.0000 2720.0000,328.0000 Z M 2912.0000,328.0000 L 3024.0000,328.0000 C 3029.0000,328.0000 3032.0000,332.0000 3032.0000,336.0000 C 3032.0000,341.0000 3029.0000,344.0000 3024.0000,344.0000 L 2912.0000,344.0000 C 2908.0000,344.0000 2904.0000,341.0000 2904.0000,336.0000 C 2904.0000,332.0000 2908.0000,328.0000 2912.0000,328.0000 Z M 3104.0000,328.0000 L 3216.0000,328.0000 C 3221.0000,328.0000 3224.0000,332.0000 3224.0000,336.0000 C 3224.0000,341.0000 3221.0000,344.0000 3216.0000,344.0000 L 3104.0000,344.0000 C 3100.0000,344.0000 3096.0000,341.0000 3096.0000,336.0000 C 3096.0000,332.0000 3100.0000,328.0000 3104.0000,328.0000 Z M 3296.0000,328.0000 L 3408.0000,328.0000 C 3413.0000,328.0000 3416.0000,332.0000 3416.0000,336.0000 C 3416.0000,341.0000 3413.0000,344.0000 3408.0000,344.0000 L 3296.0000,344.0000 C 3292.0000,344.0000 3288.0000,341.0000 3288.0000,336.0000 C 3288.0000,332.0000 3292.0000,328.0000 3296.0000,328.0000 Z M 3488.0000,328.0000 L 3600.0000,328.0000 C 3605.0000,328.0000 3608.0000,332.0000 3608.0000,336.0000 C 3608.0000,341.0000 3605.0000,344.0000 3600.0000,344.0000 L 3488.0000,344.0000 C 3484.0000,344.0000 3480.0000,341.0000 3480.0000,336.0000 C 3480.0000,332.0000 3484.0000,328.0000 3488.0000,328.0000 Z M 3680.0000,328.0000 L 3792.0000,328.0000 C 3797.0000,328.0000 3800.0000,332.0000 3800.0000,336.0000 C 3800.0000,341.0000 3797.0000,344.0000 3792.0000,344.0000 L 3680.0000,344.0000 C 3676.0000,344.0000 3672.0000,341.0000 3672.0000,336.0000 C 3672.0000,332.0000 3676.0000,328.0000 3680.0000,328.0000 Z M 3872.0000,328.0000 L 3984.0000,328.0000 C 3989.0000,328.0000 3992.0000,332.0000 3992.0000,336.0000 C 3992.0000,341.0000 3989.0000,344.0000 3984.0000,344.0000 L 3872.0000,344.0000 C 3868.0000,344.0000 3864.0000,341.0000 3864.0000,336.0000 C 3864.0000,332.0000 3868.0000,328.0000 3872.0000,328.0000 Z M 4064.0000,328.0000 L 4176.0000,328.0000 C 4181.0000,328.0000 4184.0000,332.0000 4184.0000,336.0000 C 4184.0000,341.0000 4181.0000,344.0000 4176.0000,344.0000 L 4064.0000,344.0000 C 4060.0000,344.0000 4056.0000,341.0000 4056.0000,336.0000 C 4056.0000,332.0000 4060.0000,328.0000 4064.0000,328.0000 Z M 4256.0000,328.0000 L 4368.0000,328.0000 C 4373.0000,328.0000 4376.0000,332.0000 4376.0000,336.0000 C 4376.0000,341.0000 4373.0000,344.0000 4368.0000,344.0000 L 4256.0000,344.0000 C 4252.0000,344.0000 4248.0000,341.0000 4248.0000,336.0000 C 4248.0000,332.0000 4252.0000,328.0000 4256.0000,328.0000 Z M 4448.0000,328.0000 L 4560.0000,328.0000 C 4565.0000,328.0000 4568.0000,332.0000 4568.0000,336.0000 C 4568.0000,341.0000 4565.0000,344.0000 4560.0000,344.0000 L 4448.0000,344.0000 C 4444.0000,344.0000 4440.0000,341.0000 4440.0000,336.0000 C 4440.0000,332.0000 4444.0000,328.0000 4448.0000,328.0000 Z M 4640.0000,328.0000 L 4752.0000,328.0000 C 4757.0000,328.0000 4760.0000,332.0000 4760.0000,336.0000 C 4760.0000,341.0000 4757.0000,344.0000 4752.0000,344.0000 L 4640.0000,344.0000 C 4636.0000,344.0000 4632.0000,341.0000 4632.0000,336.0000 C 4632.0000,332.0000 4636.0000,328.0000 4640.0000,328.0000 Z M 4832.0000,328.0000 L 4944.0000,328.0000 C 4949.0000,328.0000 4952.0000,332.0000 4952.0000,336.0000 C 4952.0000,341.0000 4949.0000,344.0000 4944.0000,344.0000 L 4832.0000,344.0000 C 4828.0000,344.0000 4824.0000,341.0000 4824.0000,336.0000 C 4824.0000,332.0000 4828.0000,328.0000 4832.0000,328.0000 Z "  fill="#000000" stroke="#000000" stroke-width="16.0000"  stroke-linecap="butt"  stroke-linejoin="bevel" />
</g>
<g transform="matrix(1.0000 0.0000 0.0000 1.0000 0.0000 0.0000)">
</g>
<g transform="matrix(0.0625 0.0000 0.0000 0.0625 0.0000 0.0000)">
<path d="M 2608.0000,6848.0000 L 2608.0000,5632.0000 " stroke="#000000" stroke-width="15.0000"  stroke-linecap="round"  stroke-linejoin="round" fill="none" />
</g>
<g transform="matrix(1.0000 0.0000 0.0000 1.0000 0.0000 0.0000)">
</g>
<g transform="matrix(0.0625 0.0000 0.0000 0.0625 0.0000 0.0000)">
<path d="M 1936.0000,3824.0000 L 1936.0000,5184.0000 " stroke="#000000" stroke-width="15.0000"  stroke-linecap="round"  stroke-linejoin="round" fill="none" />
</g>
<g transform="matrix(1.0000 0.0000 0.0000 1.0000 0.0000 0.0000)">
</g>
<g transform="matrix(0.0625 0.0000 0.0000 0.0625 0.0000 0.0000)">
<path d="M 3296.0000,3824.0000 L 3296.0000,5184.0000 " stroke="#000000" stroke-width="15.0000"  stroke-linecap="round"  stroke-linejoin="round" fill="none" />
</g>
<g transform="matrix(1.0000 0.0000 0.0000 1.0000 0.0000 0.0000)">
</g>
<g transform="matrix(0.0625 0.0000 0.0000 0.0625 0.0000 0.0000)">
<path d="M 1328.0000,6536.0000 L 1440.0000,6536.0000 C 1445.0000,6536.0000 1448.0000,6540.0000 1448.0000,6544.0000 C 1448.0000,6549.0000 1445.0000,6552.0000 1440.0000,6552.0000 L 1328.0000,6552.0000 C 1324.0000,6552.0000 1320.0000,6549.0000 1320.0000,6544.0000 C 1320.0000,6540.0000 1324.0000,6536.0000 1328.0000,6536.0000 Z M 1520.0000,6536.0000 L 1632.0000,6536.0000 C 1637.0000,6536.0000 1640.0000,6540.0000 1640.0000,6544.0000 C 1640.0000,6549.0000 1637.0000,6552.0000 1632.0000,6552.0000 L 1520.0000,6552.0000 C 1516.0000,6552.0000 1512.0000,6549.0000 1512.0000,6544.0000 C 1512.0000,6540.0000 1516.0000,6536.0000 1520.0000,6536.0000 Z M 1712.0000,6536.0000 L 1824.0000,6536.0000 C 1829.0000,6536.0000 1832.0000,6540.0000 1832.0000,6544.0000 C 1832.0000,6549.0000 1829.0000,6552.0000 1824.0000,6552.0000 L 1712.0000,6552.0000 C 1708.0000,6552.0000 1704.0000,6549.0000 1704.0000,6544.0000 C 1704.0000,6540.0000 1708.0000,6536.0000 1712.0000,6536.0000 Z M 1904.0000,6536.0000 L 2016.0000,6536.0000 C 2021.0000,6536.0000 2024.0000,6540.0000 2024.0000,6544.0000 C 2024.0000,6549.0000 2021.0000,6552.0000 2016.0000,6552.0000 L 1904.0000,6552.0000 C 1900.0000,6552.0000 1896.0000,6549.0000 1896.0000,6544.0000 C 1896.0000,6540.0000 1900.0000,6536.0000 1904.0000,6536.0000 Z M 2096.0000,6536.0000 L 2208.0000,6536.0000 C 2213.0000,6536.0000 2216.0000,6540.0000 2216.0000,6544.0000 C 2216.0000,6549.0000 2213.0000,6552.0000 2208.0000,6552.0000 L 2096.0000,6552.0000 C 2092.0000,6552.0000 2088.0000,6549.0000 2088.0000,6544.0000 C 2088.0000,6540.0000 2092.0000,6536.0000 2096.0000,6536.0000 Z M 2288.0000,6536.0000 L 2400.0000,6536.0000 C 2405.0000,6536.0000 2408.0000,6540.0000 2408.0000,6544.0000 C 2408.0000,6549.0000 2405.0000,6552.0000 2400.0000,6552.0000 L 2288.0000,6552.0000 C 2284.0000,6552.0000 2280.0000,6549.0000 2280.0000,6544.0000 C 2280.0000,6540.0000 2284.0000,6536.0000 2288.0000,6536.0000 Z M 2480.0000,6536.0000 L 2592.0000,6536.0000 C 2597.0000,6536.0000 2600.0000,6540.0000 2600.0000,6544.0000 C 2600.0000,6549.0000 2597.0000,6552.0000 2592.0000,6552.0000 L 2480.0000,6552.0000 C 2476.0000,6552.0000 2472.0000,6549.0000 2472.0000,6544.0000 C 2472.0000,6540.0000 2476.0000,6536.0000 2480.0000,6536.0000 Z M 2672.0000,6536.0000 L 2784.0000,6536.0000 C 2789.0000,6536.0000 2792.0000,6540.0000 2792.0000,6544.0000 C 2792.0000,6549.0000 2789.0000,6552.0000 2784.0000,6552.0000 L 2672.0000,6552.0000 C 2668.0000,6552.0000 2664.0000,6549.0000 2664.0000,6544.0000 C 2664.0000,6540.0000 2668.0000,6536.0000 2672.0000,6536.0000 Z M 2864.0000,6536.0000 L 2976.0000,6536.0000 C 2981.0000,6536.0000 2984.0000,6540.0000 2984.0000,6544.0000 C 2984.0000,6549.0000 2981.0000,6552.0000 2976.0000,6552.0000 L 2864.0000,6552.0000 C 2860.0000,6552.0000 2856.0000,6549.0000 2856.0000,6544.0000 C 2856.0000,6540.0000 2860.0000,6536.0000 2864.0000,6536.0000 Z M 3056.0000,6536.0000 L 3168.0000,6536.0000 C 3173.0000,6536.0000 3176.0000,6540.0000 3176.0000,6544.0000 C 3176.0000,6549.0000 3173.0000,6552.0000 3168.0000,6552.0000 L 3056.0000,6552.0000 C 3052.0000,6552.0000 3048.0000,6549.0000 3048.0000,6544.0000 C 3048.0000,6540.0000 3052.0000,6536.0000 3056.0000,6536.0000 Z M 3248.0000,6536.0000 L 3360.0000,6536.0000 C 3365.0000,6536.0000 3368.0000,6540.0000 3368.0000,6544.0000 C 3368.0000,6549.0000 3365.0000,6552.0000 3360.0000,6552.0000 L 3248.0000,6552.0000 C 3244.0000,6552.0000 3240.0000,6549.0000 3240.0000,6544.0000 C 3240.0000,6540.0000 3244.0000,6536.0000 3248.0000,6536.0000 Z M 3440.0000,6536.0000 L 3552.0000,6536.0000 C 3557.0000,6536.0000 3560.0000,6540.0000 3560.0000,6544.0000 C 3560.0000,6549.0000 3557.0000,6552.0000 3552.0000,6552.0000 L 3440.0000,6552.0000 C 3436.0000,6552.0000 3432.0000,6549.0000 3432.0000,6544.0000 C 3432.0000,6540.0000 3436.0000,6536.0000 3440.0000,6536.0000 Z M 3632.0000,6536.0000 L 3744.0000,6536.0000 C 3749.0000,6536.0000 3752.0000,6540.0000 3752.0000,6544.0000 C 3752.0000,6549.0000 3749.0000,6552.0000 3744.0000,6552.0000 L 3632.0000,6552.0000 C 3628.0000,6552.0000 3624.0000,6549.0000 3624.0000,6544.0000 C 3624.0000,6540.0000 3628.0000,6536.0000 3632.0000,6536.0000 Z M 3824.0000,6536.0000 L 3936.0000,6536.0000 C 3941.0000,6536.0000 3944.0000,6540.0000 3944.0000,6544.0000 C 3944.0000,6549.0000 3941.0000,6552.0000 3936.0000,6552.0000 L 3824.0000,6552.0000 C 3820.0000,6552.0000 3816.0000,6549.0000 3816.0000,6544.0000 C 3816.0000,6540.0000 3820.0000,6536.0000 3824.0000,6536.0000 Z M 4016.0000,6536.0000 L 4128.0000,6536.0000 C 4133.0000,6536.0000 4136.0000,6540.0000 4136.0000,6544.0000 C 4136.0000,6549.0000 4133.0000,6552.0000 4128.0000,6552.0000 L 4016.0000,6552.0000 C 4012.0000,6552.0000 4008.0000,6549.0000 4008.0000,6544.0000 C 4008.0000,6540.0000 4012.0000,6536.0000 4016.0000,6536.0000 Z M 4208.0000,6536.0000 L 4320.0000,6536.0000 C 4325.0000,6536.0000 4328.0000,6540.0000 4328.0000,6544.0000 C 4328.0000,6549.0000 4325.0000,6552.0000 4320.0000,6552.0000 L 4208.0000,6552.0000 C 4204.0000,6552.0000 4200.0000,6549.0000 4200.0000,6544.0000 C 4200.0000,6540.0000 4204.0000,6536.0000 4208.0000,6536.0000 Z M 4400.0000,6536.0000 L 4512.0000,6536.0000 C 4517.0000,6536.0000 4520.0000,6540.0000 4520.0000,6544.0000 C 4520.0000,6549.0000 4517.0000,6552.0000 4512.0000,6552.0000 L 4400.0000,6552.0000 C 4396.0000,6552.0000 4392.0000,6549.0000 4392.0000,6544.0000 C 4392.0000,6540.0000 4396.0000,6536.0000 4400.0000,6536.0000 Z M 4592.0000,6536.0000 L 4704.0000,6536.0000 C 4709.0000,6536.0000 4712.0000,6540.0000 4712.0000,6544.0000 C 4712.0000,6549.0000 4709.0000,6552.0000 4704.0000,6552.0000 L 4592.0000,6552.0000 C 4588.0000,6552.0000 4584.0000,6549.0000 4584.0000,6544.0000 C 4584.0000,6540.0000 4588.0000,6536.0000 4592.0000,6536.0000 Z M 4784.0000,6536.0000 L 4896.0000,6536.0000 C 4901.0000,6536.0000 4904.0000,6540.0000 4904.0000,6544.0000 C 4904.0000,6549.0000 4901.0000,6552.0000 4896.0000,6552.0000 L 4784.0000,6552.0000 C 4780.0000,6552.0000 4776.0000,6549.0000 4776.0000,6544.0000 C 4776.0000,6540.0000 4780.0000,6536.0000 4784.0000,6536.0000 Z "  fill="#000000" stroke="#000000" stroke-width="16.0000"  stroke-linecap="butt"  stroke-linejoin="bevel" />
</g>
<g transform="matrix(1.0000 0.0000 0.0000 1.0000 0.0000 0.0000)">
</g>
<g transform="matrix(0.0625 0.0000 0.0000 0.0625 0.0000 0.0000)">
<path d="M 1328.0000,4120.0000 L 1440.0000,4120.0000 C 1445.0000,4120.0000 1448.0000,4124.0000 1448.0000,4128.0000 C 1448.0000,4133.0000 1445.0000,4136.0000 1440.0000,4136.0000 L 1328.0000,4136.0000 C 1324.0000,4136.0000 1320.0000,4133.0000 1320.0000,4128.0000 C 1320.0000,4124.0000 1324.0000,4120.0000 1328.0000,4120.0000 Z M 1520.0000,4120.0000 L 1632.0000,4120.0000 C 1637.0000,4120.0000 1640.0000,4124.0000 1640.0000,4128.0000 C 1640.0000,4133.0000 1637.0000,4136.0000 1632.0000,4136.0000 L 1520.0000,4136.0000 C 1516.0000,4136.0000 1512.0000,4133.0000 1512.0000,4128.0000 C 1512.0000,4124.0000 1516.0000,4120.0000 1520.0000,4120.0000 Z M 1712.0000,4120.0000 L 1824.0000,4120.0000 C 1829.0000,4120.0000 1832.0000,4124.0000 1832.0000,4128.0000 C 1832.0000,4133.0000 1829.0000,4136.0000 1824.0000,4136.0000 L 1712.0000,4136.0000 C 1708.0000,4136.0000 1704.0000,4133.0000 1704.0000,4128.0000 C 1704.0000,4124.0000 1708.0000,4120.0000 1712.0000,4120.0000 Z M 1904.0000,4120.0000 L 2016.0000,4120.0000 C 2021.0000,4120.0000 2024.0000,4124.0000 2024.0000,4128.0000 C 2024.0000,4133.0000 2021.0000,4136.0000 2016.0000,4136.0000 L 1904.0000,4136.0000 C 1900.0000,4136.0000 1896.0000,4133.0000 1896.0000,4128.0000 C 1896.0000,4124.0000 1900.0000,4120.0000 1904.0000,4120.0000 Z M 2096.0000,4120.0000 L 2208.0000,4120.0000 C 2213.0000,4120.0000 2216.0000,4124.0000 2216.0000,4128.0000 C 2216.0000,4133.0000 2213.0000,4136.0000 2208.0000,4136.0000 L 2096.0000,4136.0000 C 2092.0000,4136.0000 2088.0000,4133.0000 2088.0000,4128.0000 C 2088.0000,4124.0000 2092.0000,4120.0000 2096.0000,4120.0000 Z M 2288.0000,4120.0000 L 2400.0000,4120.0000 C 2405.0000,4120.0000 2408.0000,4124.0000 2408.0000,4128.0000 C 2408.0000,4133.0000 2405.0000,4136.0000 2400.0000,4136.0000 L 2288.0000,4136.0000 C 2284.0000,4136.0000 2280.0000,4133.0000 2280.0000,4128.0000 C 2280.0000,4124.0000 2284.0000,4120.0000 2288.0000,4120.0000 Z M 2480.0000,4120.0000 L 2592.0000,4120.0000 C 2597.0000,4120.0000 2600.0000,4124.0000 2600.0000,4128.0000 C 2600.0000,4133.0000 2597.0000,4136.0000 2592.0000,4136.0000 L 2480.0000,4136.0000 C 2476.0000,4136.0000 2472.0000,4133.0000 2472.0000,4128.0000 C 2472.0000,4124.0000 2476.0000,4120.0000 2480.0000,4120.0000 Z M 2672.0000,4120.0000 L 2784.0000,4120.0000 C 2789.0000,4120.0000 2792.0000,4124.0000 2792.0000,4128.0000 C 2792.0000,4133.0000 2789.0000,4136.0000 2784.0000,4136.0000 L 2672.0000,4136.0000 C 2668.0000,4136.0000 2664.0000,4133.0000 2664.0000,4128.0000 C 2664.0000,4124.0000 2668.0000,4120.0000 2672.0000,4120.0000 Z M 2864.0000,4120.0000 L 2976.0000,4120.0000 C 2981.0000,4120.0000 2984.0000,4124.0000 2984.0000,4128.0000 C 2984.0000,4133.0000 2981.0000,4136.0000 2976.0000,4136.0000 L 2864.0000,4136.0000 C 2860.0000,4136.0000 2856.0000,4133.0000 2856.0000,4128.0000 C 2856.0000,4124.0000 2860.0000,4120.0000 2864.0000,4120.0000 Z M 3056.0000,4120.0000 L 3168.0000,4120.0000 C 3173.0000,4120.0000 3176.0000,4124.0000 3176.0000,4128.0000 C 3176.0000,4133.0000 3173.0000,4136.0000 3168.0000,4136.0000 L 3056.0000,4136.0000 C 3052.0000,4136.0000 3048.0000,4133.0000 3048.0000,4128.0000 C 3048.0000,4124.0000 3052.0000,4120.0000 3056.0000,4120.0000 Z M 3248.0000,4120.0000 L 3360.0000,4120.0000 C 3365.0000,4120.0000 3368.0000,4124.0000 3368.0000,4128.0000 C 3368.0000,4133.0000 3365.0000,4136.0000 3360.0000,4136.0000 L 3248.0000,4136.0000 C 3244.0000,4136.0000 3240.0000,4133.0000 3240.0000,4128.0000 C 3240.0000,4124.0000 3244.0000,4120.0000 3248.0000,4120.0000 Z M 3440.0000,4120.0000 L 3552.0000,4120.0000 C 3557.0000,4120.0000 3560.0000,4124.0000 3560.0000,4128.0000 C 3560.0000,4133.0000 3557.0000,4136.0000 3552.0000,4136.0000 L 3440.0000,4136.0000 C 3436.0000,4136.0000 3432.0000,4133.0000 3432.0000,4128.0000 C 3432.0000,4124.0000 3436.0000,4120.0000 3440.0000,4120.0000 Z M 3632.0000,4120.0000 L 3744.0000,4120.0000 C 3749.0000,4120.0000 3752.0000,4124.0000 3752.0000,4128.0000 C 3752.0000,4133.0000 3749.0000,4136.0000 3744.0000,4136.0000 L 3632.0000,4136.0000 C 3628.0000,4136.0000 3624.0000,4133.0000 3624.0000,4128.0000 C 3624.0000,4124.0000 3628.0000,4120.0000 3632.0000,4120.0000 Z M 3824.0000,4120.0000 L 3936.0000,4120.0000 C 3941.0000,4120.0000 3944.0000,4124.0000 3944.0000,4128.0000 C 3944.0000,4133.0000 3941.0000,4136.0000 3936.0000,4136.0000 L 3824.0000,4136.0000 C 3820.0000,4136.0000 3816.0000,4133.0000 3816.0000,4128.0000 C 3816.0000,4124.0000 3820.0000,4120.0000 3824.0000,4120.0000 Z M 4016.0000,4120.0000 L 4128.0000,4120.0000 C 4133.0000,4120.0000 4136.0000,4124.0000 4136.0000,4128.0000 C 4136.0000,4133.0000 4133.0000,4136.0000 4128.0000,4136.0000 L 4016.0000,4136.0000 C 4012.0000,4136.0000 4008.0000,4133.0000 4008.0000,4128.0000 C 4008.0000,4124.0000 4012.0000,4120.0000 4016.0000,4120.0000 Z M 4208.0000,4120.0000 L 4320.0000,4120.0000 C 4325.0000,4120.0000 4328.0000,4124.0000 4328.0000,4128.0000 C 4328.0000,4133.0000 4325.0000,4136.0000 4320.0000,4136.0000 L 4208.0000,4136.0000 C 4204.0000,4136.0000 4200.0000,4133.0000 4200.0000,4128.0000 C 4200.0000,4124.0000 4204.0000,4120.0000 4208.0000,4120.0000 Z M 4400.0000,4120.0000 L 4512.0000,4120.0000 C 4517.0000,4120.0000 4520.0000,4124.0000 4520.0000,4128.0000 C 4520.0000,4133.0000 4517.0000,4136.0000 4512.0000,4136.0000 L 4400.0000,4136.0000 C 4396.0000,4136.0000 4392.0000,4133.0000 4392.0000,4128.0000 C 4392.0000,4124.0000 4396.0000,4120.0000 4400.0000,4120.0000 Z M 4592.0000,4120.0000 L 4704.0000,4120.0000 C 4709.0000,4120.0000 4712.0000,4124.0000 4712.0000,4128.0000 C 4712.0000,4133.0000 4709.0000,4136.0000 4704.0000,4136.0000 L 4592.0000,4136.0000 C 4588.0000,4136.0000 4584.0000,4133.0000 4584.0000,4128.0000 C 4584.0000,4124.0000 4588.0000,4120.0000 4592.0000,4120.0000 Z M 4784.0000,4120.0000 L 4896.0000,4120.0000 C 4901.0000,4120.0000 4904.0000,4124.0000 4904.0000,4128.0000 C 4904.0000,4133.0000 4901.0000,4136.0000 4896.0000,4136.0000 L 4784.0000,4136.0000 C 4780.0000,4136.0000 4776.0000,4133.0000 4776.0000,4128.0000 C 4776.0000,4124.0000 4780.0000,4120.0000 4784.0000,4120.0000 Z "  fill="#000000" stroke="#000000" stroke-width="16.0000"  stroke-linecap="butt"  stroke-linejoin="bevel" />
</g>
<g transform="matrix(1.0000 0.0000 0.0000 1.0000 0.0000 0.0000)">
</g>
<g transform="matrix(0.0625 0.0000 0.0000 0.0625 0.0000 0.0000)">
<path d="M 1936.0000,5632.0000 L 3296.0000,5632.0000 L 3600.0000,5184.0000 L 1632.0000,5184.0000 L 1936.0000,5632.0000 Z" stroke-width="1px" stroke="#FFFFFF"  fill="#FFFFFF" />
</g>
<g transform="matrix(1.0000 0.0000 0.0000 1.0000 0.0000 0.0000)">
</g>
<g transform="matrix(0.0625 0.0000 0.0000 0.0625 0.0000 0.0000)">
<path d="M 1936.0000,5632.0000 L 3296.0000,5632.0000 L 3600.0000,5184.0000 L 1632.0000,5184.0000 L 1936.0000,5632.0000 Z" stroke="#000000" stroke-width="5.0000"  stroke-linecap="round"  stroke-linejoin="round" fill="none" />
</g>
<g transform="matrix(1.0000 0.0000 0.0000 1.0000 0.0000 0.0000)">
<text font-family="Arial" fill="#000000" style ="white-space:pre;" font-weight="400" text-anchor="start" x="139.0000" y="341.0000" font-size="9.0000" ><![CDATA[Multiplexing]]></text>
<text font-family="Arial" fill="#000000" style ="white-space:pre;" font-weight="400" text-anchor="start" x="160.0000" y="223.0000" font-size="9.0000" ><![CDATA[...]]></text>
</g>
<g transform="matrix(0.0625 0.0000 0.0000 0.0625 0.0000 0.0000)">
<path d="M 2176.0000,5936.0000 L 2176.0000,6240.0000 L 3056.0000,6240.0000 L 3056.0000,5936.0000 L 2176.0000,5936.0000 Z" stroke-width="1px" stroke="#FFFFFF"  fill="#FFFFFF" />
</g>
<g transform="matrix(1.0000 0.0000 0.0000 1.0000 0.0000 0.0000)">
</g>
<g transform="matrix(0.0625 0.0000 0.0000 0.0625 0.0000 0.0000)">
<path d="M 2176.0000,6240.0000 L 3056.0000,6240.0000 L 3056.0000,5936.0000 L 2176.0000,5936.0000 L 2176.0000,6240.0000 Z" stroke="#000000" stroke-width="5.0000"  stroke-linecap="round"  stroke-linejoin="round" fill="none" />
</g>
<g transform="matrix(1.0000 0.0000 0.0000 1.0000 0.0000 0.0000)">
<text font-family="Arial" fill="#000000" style ="white-space:pre;" font-weight="400" text-anchor="start" x="150.0000" y="383.0000" font-size="9.0000" ><![CDATA[HARQ]]></text>
</g>
<g transform="matrix(0.0625 0.0000 0.0000 0.0625 0.0000 0.0000)">
<path d="M 1488.0000,4416.0000 L 1488.0000,4880.0000 L 3904.0000,4880.0000 L 3904.0000,4416.0000 L 1488.0000,4416.0000 Z" stroke-width="1px" stroke="#FFFFFF"  fill="#FFFFFF" />
</g>
<g transform="matrix(1.0000 0.0000 0.0000 1.0000 0.0000 0.0000)">
</g>
<g transform="matrix(0.0625 0.0000 0.0000 0.0625 0.0000 0.0000)">
<path d="M 1488.0000,4880.0000 L 3904.0000,4880.0000 L 3904.0000,4416.0000 L 1488.0000,4416.0000 L 1488.0000,4880.0000 Z" stroke="#000000" stroke-width="5.0000"  stroke-linecap="round"  stroke-linejoin="round" fill="none" />
</g>
<g transform="matrix(1.0000 0.0000 0.0000 1.0000 0.0000 0.0000)">
<text font-family="Arial" fill="#000000" style ="white-space:pre;" font-weight="400" text-anchor="start" x="145.0000" y="293.0000" font-size="9.0000" ><![CDATA[Scheduling]]></text>
</g>
<g transform="matrix(0.0625 0.0000 0.0000 0.0625 0.0000 0.0000)">
<path d="M 4048.0000,6384.0000 L 4048.0000,6688.0000 L 5712.0000,6688.0000 L 5712.0000,6384.0000 L 4048.0000,6384.0000 Z" stroke-width="1px" stroke="#FFFFFF"  fill="#FFFFFF" />
</g>
<g transform="matrix(1.0000 0.0000 0.0000 1.0000 0.0000 0.0000)">
<text font-family="Times New Roman" fill="#000000" font-style="italic" style ="white-space:pre;" font-weight="400" text-anchor="start" x="259.0000" y="412.0000" font-size="11.0000" ><![CDATA[Transport Channels]]></text>
</g>
<g transform="matrix(0.0625 0.0000 0.0000 0.0625 0.0000 0.0000)">
<path d="M 1328.0000,4136.0000 L 1216.0000,4136.0000 C 1212.0000,4136.0000 1208.0000,4133.0000 1208.0000,4128.0000 C 1208.0000,4124.0000 1212.0000,4120.0000 1216.0000,4120.0000 L 1328.0000,4120.0000 C 1333.0000,4120.0000 1336.0000,4124.0000 1336.0000,4128.0000 C 1336.0000,4133.0000 1333.0000,4136.0000 1328.0000,4136.0000 Z M 1143.0000,4136.0000 L 1124.0000,4142.0000 L 1126.0000,4141.0000 L 1078.0000,4173.0000 L 1080.0000,4171.0000 L 1061.0000,4200.0000 C 1058.0000,4203.0000 1054.0000,4204.0000 1050.0000,4202.0000 C 1046.0000,4199.0000 1045.0000,4194.0000 1048.0000,4191.0000 L 1067.0000,4162.0000 C 1067.0000,4161.0000 1068.0000,4160.0000 1069.0000,4160.0000 L 1117.0000,4128.0000 C 1118.0000,4127.0000 1118.0000,4127.0000 1119.0000,4127.0000 L 1138.0000,4121.0000 C 1142.0000,4120.0000 1147.0000,4122.0000 1148.0000,4126.0000 C 1149.0000,4130.0000 1147.0000,4135.0000 1143.0000,4136.0000 Z M 1038.0000,4271.0000 L 1037.0000,4274.0000 C 1037.0000,4279.0000 1033.0000,4282.0000 1029.0000,4281.0000 C 1024.0000,4281.0000 1021.0000,4277.0000 1022.0000,4273.0000 L 1022.0000,4269.0000 C 1022.0000,4265.0000 1026.0000,4261.0000 1031.0000,4262.0000 C 1035.0000,4262.0000 1038.0000,4266.0000 1038.0000,4271.0000 Z M 1028.0000,4281.0000 L 1023.0000,4280.0000 L 1032.0000,4272.0000 L 1032.0000,4376.0000 C 1032.0000,4380.0000 1029.0000,4384.0000 1024.0000,4384.0000 C 1020.0000,4384.0000 1016.0000,4380.0000 1016.0000,4376.0000 L 1016.0000,4272.0000 C 1016.0000,4270.0000 1018.0000,4268.0000 1019.0000,4266.0000 C 1021.0000,4265.0000 1024.0000,4264.0000 1026.0000,4265.0000 L 1031.0000,4266.0000 C 1035.0000,4266.0000 1038.0000,4271.0000 1037.0000,4275.0000 C 1036.0000,4279.0000 1032.0000,4282.0000 1028.0000,4281.0000 Z M 1032.0000,4456.0000 L 1032.0000,4568.0000 C 1032.0000,4572.0000 1029.0000,4576.0000 1024.0000,4576.0000 C 1020.0000,4576.0000 1016.0000,4572.0000 1016.0000,4568.0000 L 1016.0000,4456.0000 C 1016.0000,4451.0000 1020.0000,4448.0000 1024.0000,4448.0000 C 1029.0000,4448.0000 1032.0000,4451.0000 1032.0000,4456.0000 Z M 1032.0000,4648.0000 L 1032.0000,4760.0000 C 1032.0000,4764.0000 1029.0000,4768.0000 1024.0000,4768.0000 C 1020.0000,4768.0000 1016.0000,4764.0000 1016.0000,4760.0000 L 1016.0000,4648.0000 C 1016.0000,4643.0000 1020.0000,4640.0000 1024.0000,4640.0000 C 1029.0000,4640.0000 1032.0000,4643.0000 1032.0000,4648.0000 Z M 1032.0000,4840.0000 L 1032.0000,4952.0000 C 1032.0000,4956.0000 1029.0000,4960.0000 1024.0000,4960.0000 C 1020.0000,4960.0000 1016.0000,4956.0000 1016.0000,4952.0000 L 1016.0000,4840.0000 C 1016.0000,4835.0000 1020.0000,4832.0000 1024.0000,4832.0000 C 1029.0000,4832.0000 1032.0000,4835.0000 1032.0000,4840.0000 Z M 1032.0000,5032.0000 L 1032.0000,5144.0000 C 1032.0000,5148.0000 1029.0000,5152.0000 1024.0000,5152.0000 C 1020.0000,5152.0000 1016.0000,5148.0000 1016.0000,5144.0000 L 1016.0000,5032.0000 C 1016.0000,5027.0000 1020.0000,5024.0000 1024.0000,5024.0000 C 1029.0000,5024.0000 1032.0000,5027.0000 1032.0000,5032.0000 Z M 1036.0000,5212.0000 L 1034.0000,5227.0000 C 1034.0000,5228.0000 1034.0000,5228.0000 1034.0000,5229.0000 L 1025.0000,5257.0000 C 1025.0000,5258.0000 1025.0000,5258.0000 1024.0000,5259.0000 L 992.0000,5307.0000 C 992.0000,5308.0000 991.0000,5309.0000 990.0000,5309.0000 L 982.0000,5315.0000 C 978.0000,5317.0000 973.0000,5316.0000 971.0000,5312.0000 C 968.0000,5309.0000 969.0000,5304.0000 973.0000,5301.0000 L 981.0000,5296.0000 L 979.0000,5298.0000 L 1011.0000,5250.0000 L 1010.0000,5252.0000 L 1019.0000,5224.0000 L 1019.0000,5226.0000 L 1020.0000,5211.0000 C 1020.0000,5206.0000 1024.0000,5203.0000 1029.0000,5204.0000 C 1033.0000,5204.0000 1036.0000,5208.0000 1036.0000,5212.0000 Z M 907.0000,5352.0000 L 879.0000,5354.0000 C 875.0000,5355.0000 871.0000,5352.0000 871.0000,5347.0000 C 870.0000,5343.0000 873.0000,5339.0000 878.0000,5339.0000 L 906.0000,5336.0000 C 910.0000,5335.0000 914.0000,5338.0000 915.0000,5343.0000 C 915.0000,5347.0000 912.0000,5351.0000 907.0000,5352.0000 Z M 879.0000,5339.0000 L 909.0000,5342.0000 C 910.0000,5342.0000 910.0000,5342.0000 911.0000,5342.0000 L 940.0000,5351.0000 C 941.0000,5351.0000 941.0000,5351.0000 942.0000,5352.0000 L 961.0000,5365.0000 C 965.0000,5367.0000 966.0000,5372.0000 963.0000,5376.0000 C 961.0000,5379.0000 956.0000,5380.0000 952.0000,5378.0000 L 933.0000,5365.0000 L 935.0000,5366.0000 L 906.0000,5357.0000 L 908.0000,5357.0000 L 878.0000,5354.0000 C 873.0000,5354.0000 870.0000,5350.0000 871.0000,5346.0000 C 871.0000,5341.0000 875.0000,5338.0000 879.0000,5339.0000 Z M 1017.0000,5424.0000 L 1024.0000,5434.0000 C 1025.0000,5435.0000 1025.0000,5435.0000 1025.0000,5436.0000 L 1034.0000,5465.0000 C 1034.0000,5466.0000 1034.0000,5466.0000 1034.0000,5467.0000 L 1037.0000,5497.0000 C 1038.0000,5501.0000 1035.0000,5505.0000 1030.0000,5505.0000 C 1026.0000,5506.0000 1022.0000,5503.0000 1022.0000,5498.0000 L 1019.0000,5468.0000 L 1019.0000,5470.0000 L 1010.0000,5441.0000 L 1011.0000,5443.0000 L 1004.0000,5433.0000 C 1002.0000,5429.0000 1003.0000,5424.0000 1006.0000,5422.0000 C 1010.0000,5419.0000 1015.0000,5420.0000 1017.0000,5424.0000 Z M 1036.0000,5502.0000 L 1031.0000,5509.0000 L 1032.0000,5504.0000 L 1032.0000,5535.0000 C 1032.0000,5540.0000 1029.0000,5543.0000 1024.0000,5543.0000 C 1020.0000,5543.0000 1016.0000,5540.0000 1016.0000,5535.0000 L 1016.0000,5504.0000 C 1016.0000,5503.0000 1017.0000,5501.0000 1018.0000,5500.0000 L 1023.0000,5493.0000 C 1026.0000,5489.0000 1031.0000,5488.0000 1034.0000,5491.0000 C 1038.0000,5494.0000 1039.0000,5499.0000 1036.0000,5502.0000 Z M 1032.0000,5615.0000 L 1032.0000,5727.0000 C 1032.0000,5732.0000 1029.0000,5735.0000 1024.0000,5735.0000 C 1020.0000,5735.0000 1016.0000,5732.0000 1016.0000,5727.0000 L 1016.0000,5615.0000 C 1016.0000,5611.0000 1020.0000,5607.0000 1024.0000,5607.0000 C 1029.0000,5607.0000 1032.0000,5611.0000 1032.0000,5615.0000 Z M 1032.0000,5807.0000 L 1032.0000,5919.0000 C 1032.0000,5924.0000 1029.0000,5927.0000 1024.0000,5927.0000 C 1020.0000,5927.0000 1016.0000,5924.0000 1016.0000,5919.0000 L 1016.0000,5807.0000 C 1016.0000,5803.0000 1020.0000,5799.0000 1024.0000,5799.0000 C 1029.0000,5799.0000 1032.0000,5803.0000 1032.0000,5807.0000 Z M 1032.0000,5999.0000 L 1032.0000,6111.0000 C 1032.0000,6116.0000 1029.0000,6119.0000 1024.0000,6119.0000 C 1020.0000,6119.0000 1016.0000,6116.0000 1016.0000,6111.0000 L 1016.0000,5999.0000 C 1016.0000,5995.0000 1020.0000,5991.0000 1024.0000,5991.0000 C 1029.0000,5991.0000 1032.0000,5995.0000 1032.0000,5999.0000 Z M 1032.0000,6191.0000 L 1032.0000,6303.0000 C 1032.0000,6308.0000 1029.0000,6311.0000 1024.0000,6311.0000 C 1020.0000,6311.0000 1016.0000,6308.0000 1016.0000,6303.0000 L 1016.0000,6191.0000 C 1016.0000,6187.0000 1020.0000,6183.0000 1024.0000,6183.0000 C 1029.0000,6183.0000 1032.0000,6187.0000 1032.0000,6191.0000 Z M 1032.0000,6383.0000 L 1032.0000,6384.0000 L 1030.0000,6379.0000 L 1035.0000,6384.0000 C 1036.0000,6385.0000 1037.0000,6387.0000 1037.0000,6389.0000 L 1040.0000,6420.0000 L 1040.0000,6418.0000 L 1049.0000,6446.0000 L 1048.0000,6444.0000 L 1072.0000,6480.0000 C 1074.0000,6484.0000 1073.0000,6489.0000 1069.0000,6491.0000 C 1066.0000,6494.0000 1061.0000,6493.0000 1058.0000,6489.0000 L 1035.0000,6453.0000 C 1034.0000,6452.0000 1034.0000,6452.0000 1034.0000,6451.0000 L 1025.0000,6423.0000 C 1025.0000,6422.0000 1025.0000,6422.0000 1025.0000,6421.0000 L 1022.0000,6390.0000 L 1024.0000,6395.0000 L 1019.0000,6390.0000 C 1017.0000,6389.0000 1016.0000,6387.0000 1016.0000,6384.0000 L 1016.0000,6383.0000 C 1016.0000,6379.0000 1020.0000,6375.0000 1024.0000,6375.0000 C 1029.0000,6375.0000 1032.0000,6379.0000 1032.0000,6383.0000 Z M 1130.0000,6524.0000 L 1153.0000,6531.0000 L 1151.0000,6531.0000 L 1181.0000,6534.0000 C 1186.0000,6534.0000 1189.0000,6538.0000 1188.0000,6542.0000 C 1188.0000,6547.0000 1184.0000,6550.0000 1180.0000,6549.0000 L 1150.0000,6546.0000 C 1149.0000,6546.0000 1149.0000,6546.0000 1148.0000,6546.0000 L 1126.0000,6539.0000 C 1121.0000,6538.0000 1119.0000,6533.0000 1120.0000,6529.0000 C 1122.0000,6525.0000 1126.0000,6523.0000 1130.0000,6524.0000 Z M 1185.0000,6535.0000 L 1189.0000,6538.0000 L 1184.0000,6536.0000 L 1238.0000,6536.0000 C 1242.0000,6536.0000 1246.0000,6540.0000 1246.0000,6544.0000 C 1246.0000,6549.0000 1242.0000,6552.0000 1238.0000,6552.0000 L 1184.0000,6552.0000 C 1183.0000,6552.0000 1181.0000,6552.0000 1180.0000,6551.0000 L 1176.0000,6548.0000 C 1172.0000,6545.0000 1171.0000,6540.0000 1174.0000,6537.0000 C 1177.0000,6533.0000 1182.0000,6532.0000 1185.0000,6535.0000 Z M 1318.0000,6536.0000 L 1328.0000,6536.0000 C 1333.0000,6536.0000 1336.0000,6540.0000 1336.0000,6544.0000 C 1336.0000,6549.0000 1333.0000,6552.0000 1328.0000,6552.0000 L 1318.0000,6552.0000 C 1313.0000,6552.0000 1310.0000,6549.0000 1310.0000,6544.0000 C 1310.0000,6540.0000 1313.0000,6536.0000 1318.0000,6536.0000 Z "  fill="#000000" stroke="#000000" stroke-width="16.0000"  stroke-linecap="butt"  stroke-linejoin="bevel" />
</g>
<g transform="matrix(1.0000 0.0000 0.0000 1.0000 0.0000 0.0000)">
<text font-family="Times New Roman" fill="#000000" font-style="italic" style ="white-space:pre;" font-weight="400" text-anchor="start" x="27.0000" y="337.0000" font-size="11.0000" ><![CDATA[MAC]]></text>
</g>
<g transform="matrix(0.0625 0.0000 0.0000 0.0625 0.0000 0.0000)">
<path d="M 1328.0000,2920.0000 L 1216.0000,2920.0000 C 1212.0000,2920.0000 1208.0000,2917.0000 1208.0000,2912.0000 C 1208.0000,2908.0000 1212.0000,2904.0000 1216.0000,2904.0000 L 1328.0000,2904.0000 C 1333.0000,2904.0000 1336.0000,2908.0000 1336.0000,2912.0000 C 1336.0000,2917.0000 1333.0000,2920.0000 1328.0000,2920.0000 Z M 1140.0000,2927.0000 L 1124.0000,2932.0000 L 1126.0000,2931.0000 L 1078.0000,2963.0000 L 1080.0000,2961.0000 L 1059.0000,2992.0000 C 1057.0000,2996.0000 1052.0000,2997.0000 1048.0000,2995.0000 C 1044.0000,2992.0000 1043.0000,2987.0000 1046.0000,2983.0000 L 1067.0000,2952.0000 C 1067.0000,2951.0000 1068.0000,2950.0000 1069.0000,2950.0000 L 1117.0000,2918.0000 C 1118.0000,2917.0000 1118.0000,2917.0000 1119.0000,2917.0000 L 1135.0000,2912.0000 C 1139.0000,2911.0000 1144.0000,2913.0000 1145.0000,2917.0000 C 1146.0000,2921.0000 1144.0000,2926.0000 1140.0000,2927.0000 Z M 1037.0000,3064.0000 L 1037.0000,3064.0000 C 1037.0000,3069.0000 1033.0000,3072.0000 1029.0000,3071.0000 C 1024.0000,3071.0000 1021.0000,3067.0000 1022.0000,3063.0000 L 1022.0000,3062.0000 C 1022.0000,3058.0000 1026.0000,3055.0000 1030.0000,3055.0000 C 1035.0000,3056.0000 1038.0000,3059.0000 1037.0000,3064.0000 Z M 1023.0000,3068.0000 L 1018.0000,3061.0000 L 1032.0000,3056.0000 L 1032.0000,3159.0000 C 1032.0000,3164.0000 1029.0000,3167.0000 1024.0000,3167.0000 C 1020.0000,3167.0000 1016.0000,3164.0000 1016.0000,3159.0000 L 1016.0000,3056.0000 C 1016.0000,3053.0000 1019.0000,3050.0000 1022.0000,3049.0000 C 1025.0000,3048.0000 1029.0000,3049.0000 1031.0000,3052.0000 L 1036.0000,3059.0000 C 1039.0000,3062.0000 1038.0000,3067.0000 1034.0000,3070.0000 C 1031.0000,3073.0000 1026.0000,3072.0000 1023.0000,3068.0000 Z M 1032.0000,3239.0000 L 1032.0000,3351.0000 C 1032.0000,3356.0000 1029.0000,3359.0000 1024.0000,3359.0000 C 1020.0000,3359.0000 1016.0000,3356.0000 1016.0000,3351.0000 L 1016.0000,3239.0000 C 1016.0000,3235.0000 1020.0000,3231.0000 1024.0000,3231.0000 C 1029.0000,3231.0000 1032.0000,3235.0000 1032.0000,3239.0000 Z M 1023.0000,3432.0000 L 992.0000,3478.0000 C 992.0000,3479.0000 991.0000,3480.0000 990.0000,3480.0000 L 942.0000,3512.0000 C 939.0000,3514.0000 934.0000,3513.0000 931.0000,3510.0000 C 929.0000,3506.0000 930.0000,3501.0000 934.0000,3498.0000 L 981.0000,3467.0000 L 979.0000,3469.0000 L 1009.0000,3423.0000 C 1012.0000,3420.0000 1017.0000,3419.0000 1020.0000,3421.0000 C 1024.0000,3423.0000 1025.0000,3428.0000 1023.0000,3432.0000 Z M 898.0000,3511.0000 L 909.0000,3513.0000 C 910.0000,3513.0000 910.0000,3513.0000 911.0000,3513.0000 L 940.0000,3522.0000 C 941.0000,3522.0000 941.0000,3522.0000 942.0000,3523.0000 L 990.0000,3555.0000 C 991.0000,3555.0000 992.0000,3556.0000 992.0000,3557.0000 L 999.0000,3567.0000 C 1002.0000,3571.0000 1001.0000,3576.0000 997.0000,3579.0000 C 993.0000,3581.0000 988.0000,3580.0000 986.0000,3576.0000 L 979.0000,3566.0000 L 981.0000,3568.0000 L 933.0000,3536.0000 L 935.0000,3537.0000 L 906.0000,3528.0000 L 908.0000,3528.0000 L 896.0000,3527.0000 C 892.0000,3527.0000 889.0000,3523.0000 889.0000,3519.0000 C 890.0000,3514.0000 894.0000,3511.0000 898.0000,3511.0000 Z M 1035.0000,3642.0000 L 1037.0000,3668.0000 C 1038.0000,3672.0000 1035.0000,3676.0000 1030.0000,3676.0000 C 1026.0000,3677.0000 1022.0000,3674.0000 1022.0000,3669.0000 L 1019.0000,3644.0000 C 1019.0000,3639.0000 1022.0000,3635.0000 1026.0000,3635.0000 C 1031.0000,3635.0000 1034.0000,3638.0000 1035.0000,3642.0000 Z M 1024.0000,3675.0000 L 1019.0000,3671.0000 L 1032.0000,3664.0000 L 1032.0000,3744.0000 C 1032.0000,3749.0000 1029.0000,3752.0000 1024.0000,3752.0000 C 1020.0000,3752.0000 1016.0000,3749.0000 1016.0000,3744.0000 L 1016.0000,3664.0000 C 1016.0000,3661.0000 1018.0000,3659.0000 1021.0000,3657.0000 C 1024.0000,3656.0000 1027.0000,3656.0000 1029.0000,3658.0000 L 1034.0000,3662.0000 C 1038.0000,3665.0000 1038.0000,3670.0000 1036.0000,3673.0000 C 1033.0000,3677.0000 1028.0000,3677.0000 1024.0000,3675.0000 Z M 1032.0000,3824.0000 L 1032.0000,3936.0000 C 1032.0000,3941.0000 1029.0000,3944.0000 1024.0000,3944.0000 C 1020.0000,3944.0000 1016.0000,3941.0000 1016.0000,3936.0000 L 1016.0000,3824.0000 C 1016.0000,3820.0000 1020.0000,3816.0000 1024.0000,3816.0000 C 1029.0000,3816.0000 1032.0000,3820.0000 1032.0000,3824.0000 Z M 1044.0000,4011.0000 L 1049.0000,4028.0000 L 1048.0000,4026.0000 L 1080.0000,4074.0000 L 1078.0000,4072.0000 L 1108.0000,4092.0000 C 1111.0000,4094.0000 1112.0000,4099.0000 1110.0000,4103.0000 C 1108.0000,4107.0000 1103.0000,4108.0000 1099.0000,4105.0000 L 1069.0000,4085.0000 C 1068.0000,4085.0000 1067.0000,4084.0000 1067.0000,4083.0000 L 1035.0000,4035.0000 C 1034.0000,4034.0000 1034.0000,4034.0000 1034.0000,4033.0000 L 1028.0000,4015.0000 C 1027.0000,4011.0000 1029.0000,4007.0000 1034.0000,4005.0000 C 1038.0000,4004.0000 1042.0000,4006.0000 1044.0000,4011.0000 Z M 1179.0000,4114.0000 L 1181.0000,4115.0000 C 1186.0000,4115.0000 1189.0000,4119.0000 1188.0000,4123.0000 C 1188.0000,4128.0000 1184.0000,4131.0000 1180.0000,4130.0000 L 1177.0000,4130.0000 C 1173.0000,4130.0000 1170.0000,4126.0000 1170.0000,4121.0000 C 1171.0000,4117.0000 1175.0000,4114.0000 1179.0000,4114.0000 Z M 1187.0000,4118.0000 L 1191.0000,4124.0000 L 1184.0000,4120.0000 L 1287.0000,4120.0000 C 1291.0000,4120.0000 1295.0000,4124.0000 1295.0000,4128.0000 C 1295.0000,4133.0000 1291.0000,4136.0000 1287.0000,4136.0000 L 1184.0000,4136.0000 C 1182.0000,4136.0000 1179.0000,4135.0000 1178.0000,4133.0000 L 1174.0000,4127.0000 C 1171.0000,4123.0000 1172.0000,4118.0000 1176.0000,4116.0000 C 1180.0000,4113.0000 1185.0000,4114.0000 1187.0000,4118.0000 Z "  fill="#000000" stroke="#000000" stroke-width="16.0000"  stroke-linecap="butt"  stroke-linejoin="bevel" />
</g>
<g transform="matrix(1.0000 0.0000 0.0000 1.0000 0.0000 0.0000)">
<text font-family="Times New Roman" fill="#000000" font-style="italic" style ="white-space:pre;" font-weight="400" text-anchor="start" x="30.0000" y="223.0000" font-size="11.0000" ><![CDATA[RLC]]></text>
</g>
<g transform="matrix(0.0625 0.0000 0.0000 0.0625 0.0000 0.0000)">
<path d="M 1328.0000,1560.0000 L 1216.0000,1560.0000 C 1212.0000,1560.0000 1208.0000,1557.0000 1208.0000,1552.0000 C 1208.0000,1548.0000 1212.0000,1544.0000 1216.0000,1544.0000 L 1328.0000,1544.0000 C 1333.0000,1544.0000 1336.0000,1548.0000 1336.0000,1552.0000 C 1336.0000,1557.0000 1333.0000,1560.0000 1328.0000,1560.0000 Z M 1140.0000,1567.0000 L 1124.0000,1572.0000 L 1126.0000,1571.0000 L 1078.0000,1603.0000 L 1080.0000,1601.0000 L 1059.0000,1632.0000 C 1057.0000,1636.0000 1052.0000,1637.0000 1048.0000,1635.0000 C 1044.0000,1632.0000 1043.0000,1627.0000 1046.0000,1623.0000 L 1067.0000,1592.0000 C 1067.0000,1591.0000 1068.0000,1590.0000 1069.0000,1590.0000 L 1117.0000,1558.0000 C 1118.0000,1557.0000 1118.0000,1557.0000 1119.0000,1557.0000 L 1135.0000,1552.0000 C 1139.0000,1551.0000 1144.0000,1553.0000 1145.0000,1557.0000 C 1146.0000,1561.0000 1144.0000,1566.0000 1140.0000,1567.0000 Z M 1037.0000,1704.0000 L 1037.0000,1704.0000 C 1037.0000,1709.0000 1033.0000,1712.0000 1029.0000,1711.0000 C 1024.0000,1711.0000 1021.0000,1707.0000 1022.0000,1703.0000 L 1022.0000,1702.0000 C 1022.0000,1698.0000 1026.0000,1695.0000 1030.0000,1695.0000 C 1035.0000,1695.0000 1038.0000,1699.0000 1037.0000,1704.0000 Z M 1023.0000,1708.0000 L 1018.0000,1701.0000 L 1032.0000,1696.0000 L 1032.0000,1799.0000 C 1032.0000,1804.0000 1029.0000,1807.0000 1024.0000,1807.0000 C 1020.0000,1807.0000 1016.0000,1804.0000 1016.0000,1799.0000 L 1016.0000,1696.0000 C 1016.0000,1693.0000 1019.0000,1690.0000 1022.0000,1689.0000 C 1025.0000,1688.0000 1029.0000,1689.0000 1031.0000,1692.0000 L 1036.0000,1699.0000 C 1039.0000,1702.0000 1038.0000,1707.0000 1034.0000,1710.0000 C 1031.0000,1713.0000 1026.0000,1712.0000 1023.0000,1708.0000 Z M 1032.0000,1879.0000 L 1032.0000,1991.0000 C 1032.0000,1996.0000 1029.0000,1999.0000 1024.0000,1999.0000 C 1020.0000,1999.0000 1016.0000,1996.0000 1016.0000,1991.0000 L 1016.0000,1879.0000 C 1016.0000,1875.0000 1020.0000,1871.0000 1024.0000,1871.0000 C 1029.0000,1871.0000 1032.0000,1875.0000 1032.0000,1879.0000 Z M 1032.0000,2071.0000 L 1032.0000,2080.0000 L 1026.0000,2073.0000 L 1031.0000,2074.0000 C 1035.0000,2074.0000 1038.0000,2078.0000 1037.0000,2082.0000 L 1034.0000,2112.0000 C 1034.0000,2113.0000 1034.0000,2113.0000 1034.0000,2114.0000 L 1025.0000,2143.0000 C 1025.0000,2144.0000 1025.0000,2144.0000 1024.0000,2145.0000 L 1003.0000,2176.0000 C 1001.0000,2180.0000 996.0000,2181.0000 992.0000,2178.0000 C 989.0000,2176.0000 988.0000,2171.0000 990.0000,2167.0000 L 1011.0000,2136.0000 L 1010.0000,2138.0000 L 1019.0000,2109.0000 L 1019.0000,2111.0000 L 1022.0000,2081.0000 L 1028.0000,2089.0000 L 1023.0000,2088.0000 C 1019.0000,2088.0000 1016.0000,2084.0000 1016.0000,2080.0000 L 1016.0000,2071.0000 C 1016.0000,2067.0000 1020.0000,2063.0000 1024.0000,2063.0000 C 1029.0000,2063.0000 1032.0000,2067.0000 1032.0000,2071.0000 Z M 938.0000,2229.0000 L 911.0000,2237.0000 C 910.0000,2237.0000 910.0000,2237.0000 909.0000,2237.0000 L 879.0000,2240.0000 C 875.0000,2241.0000 871.0000,2238.0000 871.0000,2233.0000 C 870.0000,2229.0000 873.0000,2225.0000 878.0000,2225.0000 L 908.0000,2222.0000 L 906.0000,2222.0000 L 933.0000,2213.0000 C 937.0000,2212.0000 942.0000,2214.0000 943.0000,2219.0000 C 945.0000,2223.0000 942.0000,2227.0000 938.0000,2229.0000 Z M 879.0000,2225.0000 L 909.0000,2228.0000 C 910.0000,2228.0000 910.0000,2228.0000 911.0000,2228.0000 L 933.0000,2235.0000 C 937.0000,2236.0000 940.0000,2241.0000 938.0000,2245.0000 C 937.0000,2249.0000 933.0000,2251.0000 928.0000,2250.0000 L 906.0000,2243.0000 L 908.0000,2243.0000 L 878.0000,2240.0000 C 873.0000,2240.0000 870.0000,2236.0000 871.0000,2232.0000 C 871.0000,2227.0000 875.0000,2224.0000 879.0000,2225.0000 Z M 1001.0000,2285.0000 L 1024.0000,2320.0000 C 1025.0000,2321.0000 1025.0000,2321.0000 1025.0000,2322.0000 L 1034.0000,2351.0000 C 1034.0000,2352.0000 1034.0000,2352.0000 1034.0000,2353.0000 L 1037.0000,2383.0000 C 1038.0000,2387.0000 1035.0000,2391.0000 1030.0000,2391.0000 C 1026.0000,2392.0000 1022.0000,2389.0000 1022.0000,2384.0000 L 1019.0000,2354.0000 L 1019.0000,2356.0000 L 1010.0000,2327.0000 L 1011.0000,2329.0000 L 987.0000,2294.0000 C 985.0000,2290.0000 986.0000,2285.0000 989.0000,2282.0000 C 993.0000,2280.0000 998.0000,2281.0000 1001.0000,2285.0000 Z M 1031.0000,2391.0000 L 1026.0000,2392.0000 L 1032.0000,2384.0000 L 1032.0000,2388.0000 C 1032.0000,2393.0000 1029.0000,2396.0000 1024.0000,2396.0000 C 1020.0000,2396.0000 1016.0000,2393.0000 1016.0000,2388.0000 L 1016.0000,2384.0000 C 1016.0000,2381.0000 1019.0000,2377.0000 1023.0000,2377.0000 L 1028.0000,2376.0000 C 1032.0000,2375.0000 1036.0000,2378.0000 1037.0000,2382.0000 C 1038.0000,2386.0000 1035.0000,2390.0000 1031.0000,2391.0000 Z M 1032.0000,2468.0000 L 1032.0000,2580.0000 C 1032.0000,2585.0000 1029.0000,2588.0000 1024.0000,2588.0000 C 1020.0000,2588.0000 1016.0000,2585.0000 1016.0000,2580.0000 L 1016.0000,2468.0000 C 1016.0000,2464.0000 1020.0000,2460.0000 1024.0000,2460.0000 C 1029.0000,2460.0000 1032.0000,2464.0000 1032.0000,2468.0000 Z M 1032.0000,2660.0000 L 1032.0000,2768.0000 L 1018.0000,2764.0000 L 1020.0000,2761.0000 C 1023.0000,2757.0000 1028.0000,2756.0000 1031.0000,2759.0000 C 1035.0000,2761.0000 1036.0000,2766.0000 1033.0000,2770.0000 L 1031.0000,2773.0000 C 1029.0000,2776.0000 1025.0000,2777.0000 1022.0000,2776.0000 C 1019.0000,2775.0000 1016.0000,2772.0000 1016.0000,2768.0000 L 1016.0000,2660.0000 C 1016.0000,2656.0000 1020.0000,2652.0000 1024.0000,2652.0000 C 1029.0000,2652.0000 1032.0000,2656.0000 1032.0000,2660.0000 Z M 1056.0000,2828.0000 L 1080.0000,2864.0000 L 1078.0000,2862.0000 L 1126.0000,2894.0000 L 1124.0000,2893.0000 L 1135.0000,2896.0000 C 1139.0000,2898.0000 1141.0000,2902.0000 1140.0000,2906.0000 C 1139.0000,2910.0000 1134.0000,2913.0000 1130.0000,2911.0000 L 1119.0000,2908.0000 C 1118.0000,2908.0000 1118.0000,2908.0000 1117.0000,2907.0000 L 1069.0000,2875.0000 C 1068.0000,2875.0000 1067.0000,2874.0000 1067.0000,2873.0000 L 1043.0000,2837.0000 C 1041.0000,2834.0000 1042.0000,2829.0000 1045.0000,2826.0000 C 1049.0000,2824.0000 1054.0000,2825.0000 1056.0000,2828.0000 Z M 1211.0000,2904.0000 L 1323.0000,2904.0000 C 1328.0000,2904.0000 1331.0000,2908.0000 1331.0000,2912.0000 C 1331.0000,2917.0000 1328.0000,2920.0000 1323.0000,2920.0000 L 1211.0000,2920.0000 C 1207.0000,2920.0000 1203.0000,2917.0000 1203.0000,2912.0000 C 1203.0000,2908.0000 1207.0000,2904.0000 1211.0000,2904.0000 Z "  fill="#000000" stroke="#000000" stroke-width="16.0000"  stroke-linecap="butt"  stroke-linejoin="bevel" />
</g>
<g transform="matrix(1.0000 0.0000 0.0000 1.0000 0.0000 0.0000)">
<text font-family="Times New Roman" fill="#000000" font-style="italic" style ="white-space:pre;" font-weight="400" text-anchor="start" x="22.0000" y="143.0000" font-size="11.0000" ><![CDATA[PDCP]]></text>
</g>
<g transform="matrix(0.0625 0.0000 0.0000 0.0625 0.0000 0.0000)">
<path d="M 1184.0000,1544.0000 L 1296.0000,1544.0000 C 1301.0000,1544.0000 1304.0000,1548.0000 1304.0000,1552.0000 C 1304.0000,1557.0000 1301.0000,1560.0000 1296.0000,1560.0000 L 1184.0000,1560.0000 C 1180.0000,1560.0000 1176.0000,1557.0000 1176.0000,1552.0000 C 1176.0000,1548.0000 1180.0000,1544.0000 1184.0000,1544.0000 Z M 1376.0000,1544.0000 L 1488.0000,1544.0000 C 1493.0000,1544.0000 1496.0000,1548.0000 1496.0000,1552.0000 C 1496.0000,1557.0000 1493.0000,1560.0000 1488.0000,1560.0000 L 1376.0000,1560.0000 C 1372.0000,1560.0000 1368.0000,1557.0000 1368.0000,1552.0000 C 1368.0000,1548.0000 1372.0000,1544.0000 1376.0000,1544.0000 Z M 1568.0000,1544.0000 L 1680.0000,1544.0000 C 1685.0000,1544.0000 1688.0000,1548.0000 1688.0000,1552.0000 C 1688.0000,1557.0000 1685.0000,1560.0000 1680.0000,1560.0000 L 1568.0000,1560.0000 C 1564.0000,1560.0000 1560.0000,1557.0000 1560.0000,1552.0000 C 1560.0000,1548.0000 1564.0000,1544.0000 1568.0000,1544.0000 Z M 1760.0000,1544.0000 L 1872.0000,1544.0000 C 1877.0000,1544.0000 1880.0000,1548.0000 1880.0000,1552.0000 C 1880.0000,1557.0000 1877.0000,1560.0000 1872.0000,1560.0000 L 1760.0000,1560.0000 C 1756.0000,1560.0000 1752.0000,1557.0000 1752.0000,1552.0000 C 1752.0000,1548.0000 1756.0000,1544.0000 1760.0000,1544.0000 Z M 1952.0000,1544.0000 L 2064.0000,1544.0000 C 2069.0000,1544.0000 2072.0000,1548.0000 2072.0000,1552.0000 C 2072.0000,1557.0000 2069.0000,1560.0000 2064.0000,1560.0000 L 1952.0000,1560.0000 C 1948.0000,1560.0000 1944.0000,1557.0000 1944.0000,1552.0000 C 1944.0000,1548.0000 1948.0000,1544.0000 1952.0000,1544.0000 Z M 2144.0000,1544.0000 L 2256.0000,1544.0000 C 2261.0000,1544.0000 2264.0000,1548.0000 2264.0000,1552.0000 C 2264.0000,1557.0000 2261.0000,1560.0000 2256.0000,1560.0000 L 2144.0000,1560.0000 C 2140.0000,1560.0000 2136.0000,1557.0000 2136.0000,1552.0000 C 2136.0000,1548.0000 2140.0000,1544.0000 2144.0000,1544.0000 Z M 2336.0000,1544.0000 L 2448.0000,1544.0000 C 2453.0000,1544.0000 2456.0000,1548.0000 2456.0000,1552.0000 C 2456.0000,1557.0000 2453.0000,1560.0000 2448.0000,1560.0000 L 2336.0000,1560.0000 C 2332.0000,1560.0000 2328.0000,1557.0000 2328.0000,1552.0000 C 2328.0000,1548.0000 2332.0000,1544.0000 2336.0000,1544.0000 Z M 2528.0000,1544.0000 L 2640.0000,1544.0000 C 2645.0000,1544.0000 2648.0000,1548.0000 2648.0000,1552.0000 C 2648.0000,1557.0000 2645.0000,1560.0000 2640.0000,1560.0000 L 2528.0000,1560.0000 C 2524.0000,1560.0000 2520.0000,1557.0000 2520.0000,1552.0000 C 2520.0000,1548.0000 2524.0000,1544.0000 2528.0000,1544.0000 Z M 2720.0000,1544.0000 L 2832.0000,1544.0000 C 2837.0000,1544.0000 2840.0000,1548.0000 2840.0000,1552.0000 C 2840.0000,1557.0000 2837.0000,1560.0000 2832.0000,1560.0000 L 2720.0000,1560.0000 C 2716.0000,1560.0000 2712.0000,1557.0000 2712.0000,1552.0000 C 2712.0000,1548.0000 2716.0000,1544.0000 2720.0000,1544.0000 Z M 2912.0000,1544.0000 L 3024.0000,1544.0000 C 3029.0000,1544.0000 3032.0000,1548.0000 3032.0000,1552.0000 C 3032.0000,1557.0000 3029.0000,1560.0000 3024.0000,1560.0000 L 2912.0000,1560.0000 C 2908.0000,1560.0000 2904.0000,1557.0000 2904.0000,1552.0000 C 2904.0000,1548.0000 2908.0000,1544.0000 2912.0000,1544.0000 Z M 3104.0000,1544.0000 L 3216.0000,1544.0000 C 3221.0000,1544.0000 3224.0000,1548.0000 3224.0000,1552.0000 C 3224.0000,1557.0000 3221.0000,1560.0000 3216.0000,1560.0000 L 3104.0000,1560.0000 C 3100.0000,1560.0000 3096.0000,1557.0000 3096.0000,1552.0000 C 3096.0000,1548.0000 3100.0000,1544.0000 3104.0000,1544.0000 Z M 3296.0000,1544.0000 L 3408.0000,1544.0000 C 3413.0000,1544.0000 3416.0000,1548.0000 3416.0000,1552.0000 C 3416.0000,1557.0000 3413.0000,1560.0000 3408.0000,1560.0000 L 3296.0000,1560.0000 C 3292.0000,1560.0000 3288.0000,1557.0000 3288.0000,1552.0000 C 3288.0000,1548.0000 3292.0000,1544.0000 3296.0000,1544.0000 Z M 3488.0000,1544.0000 L 3600.0000,1544.0000 C 3605.0000,1544.0000 3608.0000,1548.0000 3608.0000,1552.0000 C 3608.0000,1557.0000 3605.0000,1560.0000 3600.0000,1560.0000 L 3488.0000,1560.0000 C 3484.0000,1560.0000 3480.0000,1557.0000 3480.0000,1552.0000 C 3480.0000,1548.0000 3484.0000,1544.0000 3488.0000,1544.0000 Z M 3680.0000,1544.0000 L 3792.0000,1544.0000 C 3797.0000,1544.0000 3800.0000,1548.0000 3800.0000,1552.0000 C 3800.0000,1557.0000 3797.0000,1560.0000 3792.0000,1560.0000 L 3680.0000,1560.0000 C 3676.0000,1560.0000 3672.0000,1557.0000 3672.0000,1552.0000 C 3672.0000,1548.0000 3676.0000,1544.0000 3680.0000,1544.0000 Z M 3872.0000,1544.0000 L 3984.0000,1544.0000 C 3989.0000,1544.0000 3992.0000,1548.0000 3992.0000,1552.0000 C 3992.0000,1557.0000 3989.0000,1560.0000 3984.0000,1560.0000 L 3872.0000,1560.0000 C 3868.0000,1560.0000 3864.0000,1557.0000 3864.0000,1552.0000 C 3864.0000,1548.0000 3868.0000,1544.0000 3872.0000,1544.0000 Z M 4064.0000,1544.0000 L 4176.0000,1544.0000 C 4181.0000,1544.0000 4184.0000,1548.0000 4184.0000,1552.0000 C 4184.0000,1557.0000 4181.0000,1560.0000 4176.0000,1560.0000 L 4064.0000,1560.0000 C 4060.0000,1560.0000 4056.0000,1557.0000 4056.0000,1552.0000 C 4056.0000,1548.0000 4060.0000,1544.0000 4064.0000,1544.0000 Z M 4256.0000,1544.0000 L 4368.0000,1544.0000 C 4373.0000,1544.0000 4376.0000,1548.0000 4376.0000,1552.0000 C 4376.0000,1557.0000 4373.0000,1560.0000 4368.0000,1560.0000 L 4256.0000,1560.0000 C 4252.0000,1560.0000 4248.0000,1557.0000 4248.0000,1552.0000 C 4248.0000,1548.0000 4252.0000,1544.0000 4256.0000,1544.0000 Z M 4448.0000,1544.0000 L 4560.0000,1544.0000 C 4565.0000,1544.0000 4568.0000,1548.0000 4568.0000,1552.0000 C 4568.0000,1557.0000 4565.0000,1560.0000 4560.0000,1560.0000 L 4448.0000,1560.0000 C 4444.0000,1560.0000 4440.0000,1557.0000 4440.0000,1552.0000 C 4440.0000,1548.0000 4444.0000,1544.0000 4448.0000,1544.0000 Z M 4640.0000,1544.0000 L 4752.0000,1544.0000 C 4757.0000,1544.0000 4760.0000,1548.0000 4760.0000,1552.0000 C 4760.0000,1557.0000 4757.0000,1560.0000 4752.0000,1560.0000 L 4640.0000,1560.0000 C 4636.0000,1560.0000 4632.0000,1557.0000 4632.0000,1552.0000 C 4632.0000,1548.0000 4636.0000,1544.0000 4640.0000,1544.0000 Z M 4832.0000,1544.0000 L 4944.0000,1544.0000 C 4949.0000,1544.0000 4952.0000,1548.0000 4952.0000,1552.0000 C 4952.0000,1557.0000 4949.0000,1560.0000 4944.0000,1560.0000 L 4832.0000,1560.0000 C 4828.0000,1560.0000 4824.0000,1557.0000 4824.0000,1552.0000 C 4824.0000,1548.0000 4828.0000,1544.0000 4832.0000,1544.0000 Z "  fill="#000000" stroke="#000000" stroke-width="16.0000"  stroke-linecap="butt"  stroke-linejoin="bevel" />
</g>
<g transform="matrix(1.0000 0.0000 0.0000 1.0000 0.0000 0.0000)">
</g>
<g transform="matrix(0.0625 0.0000 0.0000 0.0625 0.0000 0.0000)">
<path d="M 3296.0000,2160.0000 L 3296.0000,3216.0000 " stroke="#000000" stroke-width="15.0000"  stroke-linecap="round"  stroke-linejoin="round" fill="none" />
</g>
<g transform="matrix(1.0000 0.0000 0.0000 1.0000 0.0000 0.0000)">
</g>
<g transform="matrix(0.0625 0.0000 0.0000 0.0625 0.0000 0.0000)">
<path d="M 1488.0000,3216.0000 L 1488.0000,3824.0000 L 2384.0000,3824.0000 L 2384.0000,3216.0000 L 1488.0000,3216.0000 Z" stroke-width="1px" stroke="#FFFFFF"  fill="#FFFFFF" />
</g>
<g transform="matrix(1.0000 0.0000 0.0000 1.0000 0.0000 0.0000)">
</g>
<g transform="matrix(0.0625 0.0000 0.0000 0.0625 0.0000 0.0000)">
<path d="M 1488.0000,3824.0000 L 2384.0000,3824.0000 L 2384.0000,3216.0000 L 1488.0000,3216.0000 L 1488.0000,3824.0000 Z" stroke="#000000" stroke-width="5.0000"  stroke-linecap="round"  stroke-linejoin="round" fill="none" />
</g>
<g transform="matrix(1.0000 0.0000 0.0000 1.0000 0.0000 0.0000)">
<text font-family="Arial" fill="#000000" style ="white-space:pre;" font-weight="400" text-anchor="start" x="107.0000" y="217.0000" font-size="9.0000" ><![CDATA[Segm]]></text>
<text font-family="Arial" fill="#000000" style ="white-space:pre;" font-weight="400" text-anchor="start" x="132.0000" y="217.0000" font-size="9.0000" ><![CDATA[.]]></text>
<text font-family="Arial" fill="#000000" style ="white-space:pre;" font-weight="400" text-anchor="start" x="111.0000" y="228.0000" font-size="9.0000" ><![CDATA[ARQ]]></text>
</g>
<g transform="matrix(0.0625 0.0000 0.0000 0.0625 0.0000 0.0000)">
<path d="M 2848.0000,3216.0000 L 2848.0000,3824.0000 L 3744.0000,3824.0000 L 3744.0000,3216.0000 L 2848.0000,3216.0000 Z" stroke-width="1px" stroke="#FFFFFF"  fill="#FFFFFF" />
</g>
<g transform="matrix(1.0000 0.0000 0.0000 1.0000 0.0000 0.0000)">
</g>
<g transform="matrix(0.0625 0.0000 0.0000 0.0625 0.0000 0.0000)">
<path d="M 2848.0000,3824.0000 L 3744.0000,3824.0000 L 3744.0000,3216.0000 L 2848.0000,3216.0000 L 2848.0000,3824.0000 Z" stroke="#000000" stroke-width="5.0000"  stroke-linecap="round"  stroke-linejoin="round" fill="none" />
</g>
<g transform="matrix(1.0000 0.0000 0.0000 1.0000 0.0000 0.0000)">
<text font-family="Arial" fill="#000000" style ="white-space:pre;" font-weight="400" text-anchor="start" x="193.0000" y="217.0000" font-size="9.0000" ><![CDATA[Segm]]></text>
<text font-family="Arial" fill="#000000" style ="white-space:pre;" font-weight="400" text-anchor="start" x="217.0000" y="217.0000" font-size="9.0000" ><![CDATA[.]]></text>
<text font-family="Arial" fill="#000000" style ="white-space:pre;" font-weight="400" text-anchor="start" x="196.0000" y="228.0000" font-size="9.0000" ><![CDATA[ARQ]]></text>
</g>
<g transform="matrix(0.0625 0.0000 0.0000 0.0625 0.0000 0.0000)">
<path d="M 4048.0000,3968.0000 L 4048.0000,4272.0000 L 5568.0000,4272.0000 L 5568.0000,3968.0000 L 4048.0000,3968.0000 Z" stroke-width="1px" stroke="#FFFFFF"  fill="#FFFFFF" />
</g>
<g transform="matrix(1.0000 0.0000 0.0000 1.0000 0.0000 0.0000)">
<text font-family="Times New Roman" fill="#000000" font-style="italic" style ="white-space:pre;" font-weight="400" text-anchor="start" x="259.0000" y="261.0000" font-size="11.0000" ><![CDATA[Logical Channels]]></text>
</g>
<g transform="matrix(0.0625 0.0000 0.0000 0.0625 0.0000 0.0000)">
<path d="M 1936.0000,2160.0000 L 1936.0000,3216.0000 " stroke="#000000" stroke-width="15.0000"  stroke-linecap="round"  stroke-linejoin="round" fill="none" />
</g>
<g transform="matrix(1.0000 0.0000 0.0000 1.0000 0.0000 0.0000)">
</g>
<g transform="matrix(0.0625 0.0000 0.0000 0.0625 0.0000 0.0000)">
<path d="M 1328.0000,2904.0000 L 1440.0000,2904.0000 C 1445.0000,2904.0000 1448.0000,2908.0000 1448.0000,2912.0000 C 1448.0000,2917.0000 1445.0000,2920.0000 1440.0000,2920.0000 L 1328.0000,2920.0000 C 1324.0000,2920.0000 1320.0000,2917.0000 1320.0000,2912.0000 C 1320.0000,2908.0000 1324.0000,2904.0000 1328.0000,2904.0000 Z M 1520.0000,2904.0000 L 1632.0000,2904.0000 C 1637.0000,2904.0000 1640.0000,2908.0000 1640.0000,2912.0000 C 1640.0000,2917.0000 1637.0000,2920.0000 1632.0000,2920.0000 L 1520.0000,2920.0000 C 1516.0000,2920.0000 1512.0000,2917.0000 1512.0000,2912.0000 C 1512.0000,2908.0000 1516.0000,2904.0000 1520.0000,2904.0000 Z M 1712.0000,2904.0000 L 1824.0000,2904.0000 C 1829.0000,2904.0000 1832.0000,2908.0000 1832.0000,2912.0000 C 1832.0000,2917.0000 1829.0000,2920.0000 1824.0000,2920.0000 L 1712.0000,2920.0000 C 1708.0000,2920.0000 1704.0000,2917.0000 1704.0000,2912.0000 C 1704.0000,2908.0000 1708.0000,2904.0000 1712.0000,2904.0000 Z M 1904.0000,2904.0000 L 2016.0000,2904.0000 C 2021.0000,2904.0000 2024.0000,2908.0000 2024.0000,2912.0000 C 2024.0000,2917.0000 2021.0000,2920.0000 2016.0000,2920.0000 L 1904.0000,2920.0000 C 1900.0000,2920.0000 1896.0000,2917.0000 1896.0000,2912.0000 C 1896.0000,2908.0000 1900.0000,2904.0000 1904.0000,2904.0000 Z M 2096.0000,2904.0000 L 2208.0000,2904.0000 C 2213.0000,2904.0000 2216.0000,2908.0000 2216.0000,2912.0000 C 2216.0000,2917.0000 2213.0000,2920.0000 2208.0000,2920.0000 L 2096.0000,2920.0000 C 2092.0000,2920.0000 2088.0000,2917.0000 2088.0000,2912.0000 C 2088.0000,2908.0000 2092.0000,2904.0000 2096.0000,2904.0000 Z M 2288.0000,2904.0000 L 2400.0000,2904.0000 C 2405.0000,2904.0000 2408.0000,2908.0000 2408.0000,2912.0000 C 2408.0000,2917.0000 2405.0000,2920.0000 2400.0000,2920.0000 L 2288.0000,2920.0000 C 2284.0000,2920.0000 2280.0000,2917.0000 2280.0000,2912.0000 C 2280.0000,2908.0000 2284.0000,2904.0000 2288.0000,2904.0000 Z M 2480.0000,2904.0000 L 2592.0000,2904.0000 C 2597.0000,2904.0000 2600.0000,2908.0000 2600.0000,2912.0000 C 2600.0000,2917.0000 2597.0000,2920.0000 2592.0000,2920.0000 L 2480.0000,2920.0000 C 2476.0000,2920.0000 2472.0000,2917.0000 2472.0000,2912.0000 C 2472.0000,2908.0000 2476.0000,2904.0000 2480.0000,2904.0000 Z M 2672.0000,2904.0000 L 2784.0000,2904.0000 C 2789.0000,2904.0000 2792.0000,2908.0000 2792.0000,2912.0000 C 2792.0000,2917.0000 2789.0000,2920.0000 2784.0000,2920.0000 L 2672.0000,2920.0000 C 2668.0000,2920.0000 2664.0000,2917.0000 2664.0000,2912.0000 C 2664.0000,2908.0000 2668.0000,2904.0000 2672.0000,2904.0000 Z M 2864.0000,2904.0000 L 2976.0000,2904.0000 C 2981.0000,2904.0000 2984.0000,2908.0000 2984.0000,2912.0000 C 2984.0000,2917.0000 2981.0000,2920.0000 2976.0000,2920.0000 L 2864.0000,2920.0000 C 2860.0000,2920.0000 2856.0000,2917.0000 2856.0000,2912.0000 C 2856.0000,2908.0000 2860.0000,2904.0000 2864.0000,2904.0000 Z M 3056.0000,2904.0000 L 3168.0000,2904.0000 C 3173.0000,2904.0000 3176.0000,2908.0000 3176.0000,2912.0000 C 3176.0000,2917.0000 3173.0000,2920.0000 3168.0000,2920.0000 L 3056.0000,2920.0000 C 3052.0000,2920.0000 3048.0000,2917.0000 3048.0000,2912.0000 C 3048.0000,2908.0000 3052.0000,2904.0000 3056.0000,2904.0000 Z M 3248.0000,2904.0000 L 3360.0000,2904.0000 C 3365.0000,2904.0000 3368.0000,2908.0000 3368.0000,2912.0000 C 3368.0000,2917.0000 3365.0000,2920.0000 3360.0000,2920.0000 L 3248.0000,2920.0000 C 3244.0000,2920.0000 3240.0000,2917.0000 3240.0000,2912.0000 C 3240.0000,2908.0000 3244.0000,2904.0000 3248.0000,2904.0000 Z M 3440.0000,2904.0000 L 3552.0000,2904.0000 C 3557.0000,2904.0000 3560.0000,2908.0000 3560.0000,2912.0000 C 3560.0000,2917.0000 3557.0000,2920.0000 3552.0000,2920.0000 L 3440.0000,2920.0000 C 3436.0000,2920.0000 3432.0000,2917.0000 3432.0000,2912.0000 C 3432.0000,2908.0000 3436.0000,2904.0000 3440.0000,2904.0000 Z M 3632.0000,2904.0000 L 3744.0000,2904.0000 C 3749.0000,2904.0000 3752.0000,2908.0000 3752.0000,2912.0000 C 3752.0000,2917.0000 3749.0000,2920.0000 3744.0000,2920.0000 L 3632.0000,2920.0000 C 3628.0000,2920.0000 3624.0000,2917.0000 3624.0000,2912.0000 C 3624.0000,2908.0000 3628.0000,2904.0000 3632.0000,2904.0000 Z M 3824.0000,2904.0000 L 3936.0000,2904.0000 C 3941.0000,2904.0000 3944.0000,2908.0000 3944.0000,2912.0000 C 3944.0000,2917.0000 3941.0000,2920.0000 3936.0000,2920.0000 L 3824.0000,2920.0000 C 3820.0000,2920.0000 3816.0000,2917.0000 3816.0000,2912.0000 C 3816.0000,2908.0000 3820.0000,2904.0000 3824.0000,2904.0000 Z M 4016.0000,2904.0000 L 4128.0000,2904.0000 C 4133.0000,2904.0000 4136.0000,2908.0000 4136.0000,2912.0000 C 4136.0000,2917.0000 4133.0000,2920.0000 4128.0000,2920.0000 L 4016.0000,2920.0000 C 4012.0000,2920.0000 4008.0000,2917.0000 4008.0000,2912.0000 C 4008.0000,2908.0000 4012.0000,2904.0000 4016.0000,2904.0000 Z M 4208.0000,2904.0000 L 4320.0000,2904.0000 C 4325.0000,2904.0000 4328.0000,2908.0000 4328.0000,2912.0000 C 4328.0000,2917.0000 4325.0000,2920.0000 4320.0000,2920.0000 L 4208.0000,2920.0000 C 4204.0000,2920.0000 4200.0000,2917.0000 4200.0000,2912.0000 C 4200.0000,2908.0000 4204.0000,2904.0000 4208.0000,2904.0000 Z M 4400.0000,2904.0000 L 4512.0000,2904.0000 C 4517.0000,2904.0000 4520.0000,2908.0000 4520.0000,2912.0000 C 4520.0000,2917.0000 4517.0000,2920.0000 4512.0000,2920.0000 L 4400.0000,2920.0000 C 4396.0000,2920.0000 4392.0000,2917.0000 4392.0000,2912.0000 C 4392.0000,2908.0000 4396.0000,2904.0000 4400.0000,2904.0000 Z M 4592.0000,2904.0000 L 4704.0000,2904.0000 C 4709.0000,2904.0000 4712.0000,2908.0000 4712.0000,2912.0000 C 4712.0000,2917.0000 4709.0000,2920.0000 4704.0000,2920.0000 L 4592.0000,2920.0000 C 4588.0000,2920.0000 4584.0000,2917.0000 4584.0000,2912.0000 C 4584.0000,2908.0000 4588.0000,2904.0000 4592.0000,2904.0000 Z M 4784.0000,2904.0000 L 4896.0000,2904.0000 C 4901.0000,2904.0000 4904.0000,2908.0000 4904.0000,2912.0000 C 4904.0000,2917.0000 4901.0000,2920.0000 4896.0000,2920.0000 L 4784.0000,2920.0000 C 4780.0000,2920.0000 4776.0000,2917.0000 4776.0000,2912.0000 C 4776.0000,2908.0000 4780.0000,2904.0000 4784.0000,2904.0000 Z "  fill="#000000" stroke="#000000" stroke-width="16.0000"  stroke-linecap="butt"  stroke-linejoin="bevel" />
</g>
<g transform="matrix(1.0000 0.0000 0.0000 1.0000 0.0000 0.0000)">
</g>
<g transform="matrix(0.0625 0.0000 0.0000 0.0625 0.0000 0.0000)">
<path d="M 4048.0000,2768.0000 L 4048.0000,3056.0000 L 5408.0000,3056.0000 L 5408.0000,2768.0000 L 4048.0000,2768.0000 Z" stroke-width="1px" stroke="#FFFFFF"  fill="#FFFFFF" />
</g>
<g transform="matrix(1.0000 0.0000 0.0000 1.0000 0.0000 0.0000)">
<text font-family="Times New Roman" fill="#000000" font-style="italic" style ="white-space:pre;" font-weight="400" text-anchor="start" x="259.0000" y="185.0000" font-size="11.0000" ><![CDATA[RLC Channels]]></text>
</g>
<g transform="matrix(0.0625 0.0000 0.0000 0.0625 0.0000 0.0000)">
<path d="M 1488.0000,1856.0000 L 1488.0000,2160.0000 L 2384.0000,2160.0000 L 2384.0000,1856.0000 L 1488.0000,1856.0000 Z" stroke-width="1px" stroke="#FFFFFF"  fill="#FFFFFF" />
</g>
<g transform="matrix(1.0000 0.0000 0.0000 1.0000 0.0000 0.0000)">
</g>
<g transform="matrix(0.0625 0.0000 0.0000 0.0625 0.0000 0.0000)">
<path d="M 1488.0000,2160.0000 L 2384.0000,2160.0000 L 2384.0000,1856.0000 L 1488.0000,1856.0000 L 1488.0000,2160.0000 Z" stroke="#000000" stroke-width="5.0000"  stroke-linecap="round"  stroke-linejoin="round" fill="none" />
</g>
<g transform="matrix(1.0000 0.0000 0.0000 1.0000 0.0000 0.0000)">
<text font-family="Arial" fill="#000000" style ="white-space:pre;" font-weight="400" text-anchor="start" x="107.0000" y="128.0000" font-size="9.0000" ><![CDATA[Comp]]></text>
<text font-family="Arial" fill="#000000" style ="white-space:pre;" font-weight="400" text-anchor="start" x="132.0000" y="128.0000" font-size="9.0000" ><![CDATA[.]]></text>
</g>
<g transform="matrix(0.0625 0.0000 0.0000 0.0625 0.0000 0.0000)">
<path d="M 2848.0000,1856.0000 L 2848.0000,2160.0000 L 3744.0000,2160.0000 L 3744.0000,1856.0000 L 2848.0000,1856.0000 Z" stroke-width="1px" stroke="#FFFFFF"  fill="#FFFFFF" />
</g>
<g transform="matrix(1.0000 0.0000 0.0000 1.0000 0.0000 0.0000)">
</g>
<g transform="matrix(0.0625 0.0000 0.0000 0.0625 0.0000 0.0000)">
<path d="M 2848.0000,2160.0000 L 3744.0000,2160.0000 L 3744.0000,1856.0000 L 2848.0000,1856.0000 L 2848.0000,2160.0000 Z" stroke="#000000" stroke-width="5.0000"  stroke-linecap="round"  stroke-linejoin="round" fill="none" />
</g>
<g transform="matrix(1.0000 0.0000 0.0000 1.0000 0.0000 0.0000)">
<text font-family="Arial" fill="#000000" style ="white-space:pre;" font-weight="400" text-anchor="start" x="192.0000" y="128.0000" font-size="9.0000" ><![CDATA[Comp]]></text>
<text font-family="Arial" fill="#000000" style ="white-space:pre;" font-weight="400" text-anchor="start" x="217.0000" y="128.0000" font-size="9.0000" ><![CDATA[.]]></text>
</g>
<g transform="matrix(0.0625 0.0000 0.0000 0.0625 0.0000 0.0000)">
<path d="M 1936.0000,1248.0000 L 1936.0000,1856.0000 " stroke="#000000" stroke-width="15.0000"  stroke-linecap="round"  stroke-linejoin="round" fill="none" />
</g>
<g transform="matrix(1.0000 0.0000 0.0000 1.0000 0.0000 0.0000)">
</g>
<g transform="matrix(0.0625 0.0000 0.0000 0.0625 0.0000 0.0000)">
<path d="M 3296.0000,1248.0000 L 3296.0000,1856.0000 " stroke="#000000" stroke-width="15.0000"  stroke-linecap="round"  stroke-linejoin="round" fill="none" />
</g>
<g transform="matrix(1.0000 0.0000 0.0000 1.0000 0.0000 0.0000)">
</g>
<g transform="matrix(0.0625 0.0000 0.0000 0.0625 0.0000 0.0000)">
<path d="M 4048.0000,1392.0000 L 4048.0000,1696.0000 L 5408.0000,1696.0000 L 5408.0000,1392.0000 L 4048.0000,1392.0000 Z" stroke-width="1px" stroke="#FFFFFF"  fill="#FFFFFF" />
</g>
<g transform="matrix(1.0000 0.0000 0.0000 1.0000 0.0000 0.0000)">
<text font-family="Times New Roman" fill="#000000" font-style="italic" style ="white-space:pre;" font-weight="400" text-anchor="start" x="259.0000" y="100.0000" font-size="11.0000" ><![CDATA[Radio Bearers]]></text>
</g>
<g transform="matrix(0.0625 0.0000 0.0000 0.0625 0.0000 0.0000)">
<path d="M 1488.0000,2304.0000 L 1488.0000,2608.0000 L 2384.0000,2608.0000 L 2384.0000,2304.0000 L 1488.0000,2304.0000 Z" stroke-width="1px" stroke="#FFFFFF"  fill="#FFFFFF" />
</g>
<g transform="matrix(1.0000 0.0000 0.0000 1.0000 0.0000 0.0000)">
</g>
<g transform="matrix(0.0625 0.0000 0.0000 0.0625 0.0000 0.0000)">
<path d="M 1488.0000,2608.0000 L 2384.0000,2608.0000 L 2384.0000,2304.0000 L 1488.0000,2304.0000 L 1488.0000,2608.0000 Z" stroke="#000000" stroke-width="5.0000"  stroke-linecap="round"  stroke-linejoin="round" fill="none" />
</g>
<g transform="matrix(1.0000 0.0000 0.0000 1.0000 0.0000 0.0000)">
<text font-family="Arial" fill="#000000" style ="white-space:pre;" font-weight="400" text-anchor="start" x="104.0000" y="156.0000" font-size="9.0000" ><![CDATA[Security]]></text>
</g>
<g transform="matrix(0.0625 0.0000 0.0000 0.0625 0.0000 0.0000)">
<path d="M 2848.0000,2304.0000 L 2848.0000,2608.0000 L 3744.0000,2608.0000 L 3744.0000,2304.0000 L 2848.0000,2304.0000 Z" stroke-width="1px" stroke="#FFFFFF"  fill="#FFFFFF" />
</g>
<g transform="matrix(1.0000 0.0000 0.0000 1.0000 0.0000 0.0000)">
</g>
<g transform="matrix(0.0625 0.0000 0.0000 0.0625 0.0000 0.0000)">
<path d="M 2848.0000,2608.0000 L 3744.0000,2608.0000 L 3744.0000,2304.0000 L 2848.0000,2304.0000 L 2848.0000,2608.0000 Z" stroke="#000000" stroke-width="5.0000"  stroke-linecap="round"  stroke-linejoin="round" fill="none" />
</g>
<g transform="matrix(1.0000 0.0000 0.0000 1.0000 0.0000 0.0000)">
<text font-family="Arial" fill="#000000" style ="white-space:pre;" font-weight="400" text-anchor="start" x="189.0000" y="156.0000" font-size="9.0000" ><![CDATA[Security]]></text>
</g>
<g transform="matrix(0.0625 0.0000 0.0000 0.0625 0.0000 0.0000)">
<path d="M 2042.0000,4122.0000 C 2042.0000,4088.0000 1995.0000,4061.0000 1936.0000,4061.0000 C 1878.0000,4061.0000 1830.0000,4088.0000 1830.0000,4122.0000 C 1830.0000,4155.0000 1878.0000,4182.0000 1936.0000,4182.0000 C 1995.0000,4182.0000 2042.0000,4155.0000 2042.0000,4122.0000 "  fill="#FFFFFF" stroke="none" />
</g>
<g transform="matrix(1.0000 0.0000 0.0000 1.0000 0.0000 0.0000)">
</g>
<g transform="matrix(0.0625 0.0000 0.0000 0.0625 0.0000 0.0000)">
<path d="M 2042.0000,4122.0000 M 2042.0000,4122.0000 C 2042.0000,4088.0000 1995.0000,4061.0000 1936.0000,4061.0000 C 1878.0000,4061.0000 1830.0000,4088.0000 1830.0000,4122.0000 C 1830.0000,4155.0000 1878.0000,4182.0000 1936.0000,4182.0000 C 1995.0000,4182.0000 2042.0000,4155.0000 2042.0000,4122.0000 " stroke="#000000" stroke-width="5.0000"  stroke-linecap="round"  stroke-linejoin="round"  fill="none" />
</g>
<g transform="matrix(1.0000 0.0000 0.0000 1.0000 0.0000 0.0000)">
</g>
<g transform="matrix(0.0625 0.0000 0.0000 0.0625 0.0000 0.0000)">
<path d="M 3403.0000,4122.0000 C 3403.0000,4088.0000 3355.0000,4061.0000 3297.0000,4061.0000 C 3238.0000,4061.0000 3191.0000,4088.0000 3191.0000,4122.0000 C 3191.0000,4155.0000 3238.0000,4182.0000 3297.0000,4182.0000 C 3355.0000,4182.0000 3403.0000,4155.0000 3403.0000,4122.0000 "  fill="#FFFFFF" stroke="none" />
</g>
<g transform="matrix(1.0000 0.0000 0.0000 1.0000 0.0000 0.0000)">
</g>
<g transform="matrix(0.0625 0.0000 0.0000 0.0625 0.0000 0.0000)">
<path d="M 3403.0000,4122.0000 M 3403.0000,4122.0000 C 3403.0000,4088.0000 3355.0000,4061.0000 3297.0000,4061.0000 C 3238.0000,4061.0000 3191.0000,4088.0000 3191.0000,4122.0000 C 3191.0000,4155.0000 3238.0000,4182.0000 3297.0000,4182.0000 C 3355.0000,4182.0000 3403.0000,4155.0000 3403.0000,4122.0000 " stroke="#000000" stroke-width="5.0000"  stroke-linecap="round"  stroke-linejoin="round"  fill="none" />
</g>
<g transform="matrix(1.0000 0.0000 0.0000 1.0000 0.0000 0.0000)">
</g>
<g transform="matrix(0.0625 0.0000 0.0000 0.0625 0.0000 0.0000)">
<path d="M 2042.0000,1552.0000 C 2042.0000,1518.0000 1995.0000,1491.0000 1936.0000,1491.0000 C 1878.0000,1491.0000 1830.0000,1518.0000 1830.0000,1552.0000 C 1830.0000,1585.0000 1878.0000,1612.0000 1936.0000,1612.0000 C 1995.0000,1612.0000 2042.0000,1585.0000 2042.0000,1552.0000 "  fill="#FFFFFF" stroke="none" />
</g>
<g transform="matrix(1.0000 0.0000 0.0000 1.0000 0.0000 0.0000)">
</g>
<g transform="matrix(0.0625 0.0000 0.0000 0.0625 0.0000 0.0000)">
<path d="M 2042.0000,1552.0000 M 2042.0000,1552.0000 C 2042.0000,1518.0000 1995.0000,1491.0000 1936.0000,1491.0000 C 1878.0000,1491.0000 1830.0000,1518.0000 1830.0000,1552.0000 C 1830.0000,1585.0000 1878.0000,1612.0000 1936.0000,1612.0000 C 1995.0000,1612.0000 2042.0000,1585.0000 2042.0000,1552.0000 " stroke="#000000" stroke-width="5.0000"  stroke-linecap="round"  stroke-linejoin="round"  fill="none" />
</g>
<g transform="matrix(1.0000 0.0000 0.0000 1.0000 0.0000 0.0000)">
</g>
<g transform="matrix(0.0625 0.0000 0.0000 0.0625 0.0000 0.0000)">
<path d="M 3403.0000,1552.0000 C 3403.0000,1518.0000 3355.0000,1491.0000 3297.0000,1491.0000 C 3238.0000,1491.0000 3191.0000,1518.0000 3191.0000,1552.0000 C 3191.0000,1585.0000 3238.0000,1612.0000 3297.0000,1612.0000 C 3355.0000,1612.0000 3403.0000,1585.0000 3403.0000,1552.0000 "  fill="#FFFFFF" stroke="none" />
</g>
<g transform="matrix(1.0000 0.0000 0.0000 1.0000 0.0000 0.0000)">
</g>
<g transform="matrix(0.0625 0.0000 0.0000 0.0625 0.0000 0.0000)">
<path d="M 3403.0000,1552.0000 M 3403.0000,1552.0000 C 3403.0000,1518.0000 3355.0000,1491.0000 3297.0000,1491.0000 C 3238.0000,1491.0000 3191.0000,1518.0000 3191.0000,1552.0000 C 3191.0000,1585.0000 3238.0000,1612.0000 3297.0000,1612.0000 C 3355.0000,1612.0000 3403.0000,1585.0000 3403.0000,1552.0000 " stroke="#000000" stroke-width="5.0000"  stroke-linecap="round"  stroke-linejoin="round"  fill="none" />
</g>
<g transform="matrix(1.0000 0.0000 0.0000 1.0000 0.0000 0.0000)">
</g>
<g transform="matrix(0.0625 0.0000 0.0000 0.0625 0.0000 0.0000)">
<path d="M 3403.0000,2912.0000 C 3403.0000,2879.0000 3355.0000,2852.0000 3297.0000,2852.0000 C 3238.0000,2852.0000 3191.0000,2879.0000 3191.0000,2912.0000 C 3191.0000,2946.0000 3238.0000,2973.0000 3297.0000,2973.0000 C 3355.0000,2973.0000 3403.0000,2946.0000 3403.0000,2912.0000 "  fill="#FFFFFF" stroke="none" />
</g>
<g transform="matrix(1.0000 0.0000 0.0000 1.0000 0.0000 0.0000)">
</g>
<g transform="matrix(0.0625 0.0000 0.0000 0.0625 0.0000 0.0000)">
<path d="M 3403.0000,2912.0000 M 3403.0000,2912.0000 C 3403.0000,2879.0000 3355.0000,2852.0000 3297.0000,2852.0000 C 3238.0000,2852.0000 3191.0000,2879.0000 3191.0000,2912.0000 C 3191.0000,2946.0000 3238.0000,2973.0000 3297.0000,2973.0000 C 3355.0000,2973.0000 3403.0000,2946.0000 3403.0000,2912.0000 " stroke="#000000" stroke-width="5.0000"  stroke-linecap="round"  stroke-linejoin="round"  fill="none" />
</g>
<g transform="matrix(1.0000 0.0000 0.0000 1.0000 0.0000 0.0000)">
</g>
<g transform="matrix(0.0625 0.0000 0.0000 0.0625 0.0000 0.0000)">
<path d="M 2042.0000,2912.0000 C 2042.0000,2879.0000 1995.0000,2852.0000 1936.0000,2852.0000 C 1878.0000,2852.0000 1830.0000,2879.0000 1830.0000,2912.0000 C 1830.0000,2946.0000 1878.0000,2973.0000 1936.0000,2973.0000 C 1995.0000,2973.0000 2042.0000,2946.0000 2042.0000,2912.0000 "  fill="#FFFFFF" stroke="none" />
</g>
<g transform="matrix(1.0000 0.0000 0.0000 1.0000 0.0000 0.0000)">
</g>
<g transform="matrix(0.0625 0.0000 0.0000 0.0625 0.0000 0.0000)">
<path d="M 2042.0000,2912.0000 M 2042.0000,2912.0000 C 2042.0000,2879.0000 1995.0000,2852.0000 1936.0000,2852.0000 C 1878.0000,2852.0000 1830.0000,2879.0000 1830.0000,2912.0000 C 1830.0000,2946.0000 1878.0000,2973.0000 1936.0000,2973.0000 C 1995.0000,2973.0000 2042.0000,2946.0000 2042.0000,2912.0000 " stroke="#000000" stroke-width="5.0000"  stroke-linecap="round"  stroke-linejoin="round"  fill="none" />
</g>
<g transform="matrix(1.0000 0.0000 0.0000 1.0000 0.0000 0.0000)">
</g>
<g transform="matrix(0.0625 0.0000 0.0000 0.0625 0.0000 0.0000)">
<path d="M 2722.0000,6541.0000 C 2722.0000,6507.0000 2675.0000,6480.0000 2616.0000,6480.0000 C 2558.0000,6480.0000 2511.0000,6507.0000 2511.0000,6541.0000 C 2511.0000,6574.0000 2558.0000,6601.0000 2616.0000,6601.0000 C 2675.0000,6601.0000 2722.0000,6574.0000 2722.0000,6541.0000 "  fill="#FFFFFF" stroke="none" />
</g>
<g transform="matrix(1.0000 0.0000 0.0000 1.0000 0.0000 0.0000)">
</g>
<g transform="matrix(0.0625 0.0000 0.0000 0.0625 0.0000 0.0000)">
<path d="M 2722.0000,6541.0000 M 2722.0000,6541.0000 C 2722.0000,6507.0000 2675.0000,6480.0000 2616.0000,6480.0000 C 2558.0000,6480.0000 2511.0000,6507.0000 2511.0000,6541.0000 C 2511.0000,6574.0000 2558.0000,6601.0000 2616.0000,6601.0000 C 2675.0000,6601.0000 2722.0000,6574.0000 2722.0000,6541.0000 " stroke="#000000" stroke-width="5.0000"  stroke-linecap="round"  stroke-linejoin="round"  fill="none" />
</g>
<g transform="matrix(1.0000 0.0000 0.0000 1.0000 0.0000 0.0000)">
</g>
<g transform="matrix(0.0625 0.0000 0.0000 0.0625 0.0000 0.0000)">
<path d="M 1328.0000,344.0000 L 1216.0000,344.0000 C 1212.0000,344.0000 1208.0000,341.0000 1208.0000,336.0000 C 1208.0000,332.0000 1212.0000,328.0000 1216.0000,328.0000 L 1328.0000,328.0000 C 1333.0000,328.0000 1336.0000,332.0000 1336.0000,336.0000 C 1336.0000,341.0000 1333.0000,344.0000 1328.0000,344.0000 Z M 1143.0000,356.0000 L 1124.0000,362.0000 L 1126.0000,361.0000 L 1078.0000,393.0000 L 1080.0000,391.0000 L 1061.0000,420.0000 C 1058.0000,423.0000 1054.0000,424.0000 1050.0000,422.0000 C 1046.0000,419.0000 1045.0000,414.0000 1048.0000,411.0000 L 1067.0000,382.0000 C 1067.0000,381.0000 1068.0000,380.0000 1069.0000,380.0000 L 1117.0000,348.0000 C 1118.0000,347.0000 1118.0000,347.0000 1119.0000,347.0000 L 1138.0000,341.0000 C 1142.0000,340.0000 1147.0000,342.0000 1148.0000,346.0000 C 1149.0000,350.0000 1147.0000,355.0000 1143.0000,356.0000 Z M 1038.0000,491.0000 L 1037.0000,494.0000 C 1037.0000,499.0000 1033.0000,502.0000 1029.0000,501.0000 C 1024.0000,501.0000 1021.0000,497.0000 1022.0000,493.0000 L 1022.0000,489.0000 C 1022.0000,485.0000 1026.0000,481.0000 1031.0000,482.0000 C 1035.0000,482.0000 1038.0000,486.0000 1038.0000,491.0000 Z M 1034.0000,500.0000 L 1029.0000,503.0000 L 1032.0000,496.0000 L 1032.0000,599.0000 C 1032.0000,603.0000 1029.0000,607.0000 1024.0000,607.0000 C 1020.0000,607.0000 1016.0000,603.0000 1016.0000,599.0000 L 1016.0000,496.0000 C 1016.0000,494.0000 1018.0000,491.0000 1020.0000,490.0000 L 1025.0000,487.0000 C 1029.0000,484.0000 1034.0000,486.0000 1036.0000,489.0000 C 1039.0000,493.0000 1037.0000,498.0000 1034.0000,500.0000 Z M 1032.0000,679.0000 L 1032.0000,791.0000 C 1032.0000,795.0000 1029.0000,799.0000 1024.0000,799.0000 C 1020.0000,799.0000 1016.0000,795.0000 1016.0000,791.0000 L 1016.0000,679.0000 C 1016.0000,675.0000 1020.0000,671.0000 1024.0000,671.0000 C 1029.0000,671.0000 1032.0000,675.0000 1032.0000,679.0000 Z M 1022.0000,863.0000 L 992.0000,908.0000 C 992.0000,909.0000 991.0000,910.0000 990.0000,910.0000 L 942.0000,942.0000 C 941.0000,943.0000 941.0000,943.0000 940.0000,943.0000 L 940.0000,943.0000 C 935.0000,944.0000 931.0000,942.0000 930.0000,938.0000 C 928.0000,934.0000 931.0000,929.0000 935.0000,928.0000 L 935.0000,928.0000 L 933.0000,929.0000 L 981.0000,897.0000 L 979.0000,899.0000 L 1009.0000,854.0000 C 1011.0000,850.0000 1016.0000,849.0000 1020.0000,852.0000 C 1024.0000,854.0000 1025.0000,859.0000 1022.0000,863.0000 Z M 899.0000,941.0000 L 909.0000,943.0000 C 910.0000,943.0000 910.0000,943.0000 911.0000,943.0000 L 940.0000,952.0000 C 941.0000,952.0000 941.0000,952.0000 942.0000,953.0000 L 990.0000,985.0000 C 991.0000,985.0000 992.0000,986.0000 992.0000,987.0000 L 1000.0000,998.0000 C 1002.0000,1002.0000 1001.0000,1007.0000 997.0000,1009.0000 C 994.0000,1012.0000 989.0000,1011.0000 986.0000,1007.0000 L 979.0000,996.0000 L 981.0000,998.0000 L 933.0000,966.0000 L 935.0000,967.0000 L 906.0000,958.0000 L 908.0000,958.0000 L 897.0000,957.0000 C 893.0000,957.0000 890.0000,953.0000 890.0000,949.0000 C 891.0000,944.0000 895.0000,941.0000 899.0000,941.0000 Z M 1035.0000,1073.0000 L 1037.0000,1098.0000 C 1038.0000,1102.0000 1035.0000,1106.0000 1030.0000,1106.0000 C 1026.0000,1107.0000 1022.0000,1104.0000 1022.0000,1099.0000 L 1019.0000,1075.0000 C 1019.0000,1070.0000 1022.0000,1066.0000 1026.0000,1066.0000 C 1031.0000,1066.0000 1035.0000,1069.0000 1035.0000,1073.0000 Z M 1036.0000,1104.0000 L 1031.0000,1110.0000 L 1032.0000,1104.0000 L 1032.0000,1184.0000 C 1032.0000,1188.0000 1029.0000,1192.0000 1024.0000,1192.0000 C 1020.0000,1192.0000 1016.0000,1188.0000 1016.0000,1184.0000 L 1016.0000,1104.0000 C 1016.0000,1103.0000 1017.0000,1101.0000 1018.0000,1099.0000 L 1023.0000,1093.0000 C 1026.0000,1090.0000 1031.0000,1089.0000 1035.0000,1092.0000 C 1038.0000,1095.0000 1038.0000,1100.0000 1036.0000,1104.0000 Z M 1032.0000,1264.0000 L 1032.0000,1376.0000 C 1032.0000,1380.0000 1029.0000,1384.0000 1024.0000,1384.0000 C 1020.0000,1384.0000 1016.0000,1380.0000 1016.0000,1376.0000 L 1016.0000,1264.0000 C 1016.0000,1260.0000 1020.0000,1256.0000 1024.0000,1256.0000 C 1029.0000,1256.0000 1032.0000,1260.0000 1032.0000,1264.0000 Z M 1047.0000,1451.0000 L 1049.0000,1457.0000 L 1048.0000,1455.0000 L 1080.0000,1504.0000 L 1078.0000,1502.0000 L 1117.0000,1528.0000 C 1121.0000,1530.0000 1122.0000,1535.0000 1119.0000,1539.0000 C 1117.0000,1543.0000 1112.0000,1544.0000 1108.0000,1541.0000 L 1069.0000,1515.0000 C 1068.0000,1515.0000 1067.0000,1514.0000 1067.0000,1513.0000 L 1035.0000,1464.0000 C 1034.0000,1463.0000 1034.0000,1463.0000 1034.0000,1462.0000 L 1032.0000,1456.0000 C 1031.0000,1452.0000 1033.0000,1447.0000 1037.0000,1446.0000 C 1041.0000,1444.0000 1046.0000,1447.0000 1047.0000,1451.0000 Z M 1189.0000,1544.0000 L 1301.0000,1544.0000 C 1306.0000,1544.0000 1309.0000,1548.0000 1309.0000,1552.0000 C 1309.0000,1557.0000 1306.0000,1560.0000 1301.0000,1560.0000 L 1189.0000,1560.0000 C 1185.0000,1560.0000 1181.0000,1557.0000 1181.0000,1552.0000 C 1181.0000,1548.0000 1185.0000,1544.0000 1189.0000,1544.0000 Z "  fill="#000000" stroke="#000000" stroke-width="16.0000"  stroke-linecap="butt"  stroke-linejoin="bevel" />
</g>
<g transform="matrix(1.0000 0.0000 0.0000 1.0000 0.0000 0.0000)">
<text font-family="Times New Roman" fill="#000000" font-style="italic" style ="white-space:pre;" font-weight="400" text-anchor="start" x="23.0000" y="62.0000" font-size="11.0000" ><![CDATA[SDAP]]></text>
</g>
<g transform="matrix(0.0625 0.0000 0.0000 0.0625 0.0000 0.0000)">
<path d="M 4048.0000,192.0000 L 4048.0000,496.0000 L 5408.0000,496.0000 L 5408.0000,192.0000 L 4048.0000,192.0000 Z" stroke-width="1px" stroke="#FFFFFF"  fill="#FFFFFF" />
</g>
<g transform="matrix(1.0000 0.0000 0.0000 1.0000 0.0000 0.0000)">
<text font-family="Times New Roman" fill="#000000" font-style="italic" style ="white-space:pre;" font-weight="400" text-anchor="start" x="259.0000" y="25.0000" font-size="11.0000" ><![CDATA[QoS Flows]]></text>
</g>
<g transform="matrix(0.0625 0.0000 0.0000 0.0625 0.0000 0.0000)">
<path d="M 1488.0000,640.0000 L 1488.0000,1248.0000 L 3744.0000,1248.0000 L 3744.0000,640.0000 L 1488.0000,640.0000 Z" stroke-width="1px" stroke="#FFFFFF"  fill="#FFFFFF" />
</g>
<g transform="matrix(1.0000 0.0000 0.0000 1.0000 0.0000 0.0000)">
</g>
<g transform="matrix(0.0625 0.0000 0.0000 0.0625 0.0000 0.0000)">
<path d="M 1488.0000,1248.0000 L 3744.0000,1248.0000 L 3744.0000,640.0000 L 1488.0000,640.0000 L 1488.0000,1248.0000 Z" stroke="#000000" stroke-width="5.0000"  stroke-linecap="round"  stroke-linejoin="round" fill="none" />
</g>
<g transform="matrix(1.0000 0.0000 0.0000 1.0000 0.0000 0.0000)">
<text font-family="Arial" fill="#000000" style ="white-space:pre;" font-weight="400" text-anchor="start" x="145.0000" y="56.0000" font-size="9.0000" ><![CDATA[QoS flow]]></text>
<text font-family="Arial" fill="#000000" style ="white-space:pre;" font-weight="400" text-anchor="start" x="146.0000" y="68.0000" font-size="9.0000" ><![CDATA[handling]]></text>
</g>
<g transform="matrix(0.0625 0.0000 0.0000 0.0625 0.0000 0.0000)">
<path d="M 2240.0000,32.0000 L 2240.0000,640.0000 " stroke="#000000" stroke-width="15.0000"  stroke-linecap="round"  stroke-linejoin="round" fill="none" />
</g>
<g transform="matrix(1.0000 0.0000 0.0000 1.0000 0.0000 0.0000)">
</g>
<g transform="matrix(0.0625 0.0000 0.0000 0.0625 0.0000 0.0000)">
<path d="M 2344.0000,342.0000 C 2344.0000,309.0000 2297.0000,282.0000 2238.0000,282.0000 C 2180.0000,282.0000 2133.0000,309.0000 2133.0000,342.0000 C 2133.0000,376.0000 2180.0000,403.0000 2238.0000,403.0000 C 2297.0000,403.0000 2344.0000,376.0000 2344.0000,342.0000 "  fill="#FFFFFF" stroke="none" />
</g>
<g transform="matrix(1.0000 0.0000 0.0000 1.0000 0.0000 0.0000)">
</g>
<g transform="matrix(0.0625 0.0000 0.0000 0.0625 0.0000 0.0000)">
<path d="M 2344.0000,342.0000 M 2344.0000,342.0000 C 2344.0000,309.0000 2297.0000,282.0000 2238.0000,282.0000 C 2180.0000,282.0000 2133.0000,309.0000 2133.0000,342.0000 C 2133.0000,376.0000 2180.0000,403.0000 2238.0000,403.0000 C 2297.0000,403.0000 2344.0000,376.0000 2344.0000,342.0000 " stroke="#000000" stroke-width="5.0000"  stroke-linecap="round"  stroke-linejoin="round"  fill="none" />
</g>
<g transform="matrix(1.0000 0.0000 0.0000 1.0000 0.0000 0.0000)">
</g>
<g transform="matrix(0.0625 0.0000 0.0000 0.0625 0.0000 0.0000)">
<path d="M 1792.0000,32.0000 L 1792.0000,640.0000 " stroke="#000000" stroke-width="15.0000"  stroke-linecap="round"  stroke-linejoin="round" fill="none" />
</g>
<g transform="matrix(1.0000 0.0000 0.0000 1.0000 0.0000 0.0000)">
</g>
<g transform="matrix(0.0625 0.0000 0.0000 0.0625 0.0000 0.0000)">
<path d="M 1891.0000,342.0000 C 1891.0000,309.0000 1843.0000,282.0000 1785.0000,282.0000 C 1726.0000,282.0000 1679.0000,309.0000 1679.0000,342.0000 C 1679.0000,376.0000 1726.0000,403.0000 1785.0000,403.0000 C 1843.0000,403.0000 1891.0000,376.0000 1891.0000,342.0000 "  fill="#FFFFFF" stroke="none" />
</g>
<g transform="matrix(1.0000 0.0000 0.0000 1.0000 0.0000 0.0000)">
</g>
<g transform="matrix(0.0625 0.0000 0.0000 0.0625 0.0000 0.0000)">
<path d="M 1891.0000,342.0000 M 1891.0000,342.0000 C 1891.0000,309.0000 1843.0000,282.0000 1785.0000,282.0000 C 1726.0000,282.0000 1679.0000,309.0000 1679.0000,342.0000 C 1679.0000,376.0000 1726.0000,403.0000 1785.0000,403.0000 C 1843.0000,403.0000 1891.0000,376.0000 1891.0000,342.0000 " stroke="#000000" stroke-width="5.0000"  stroke-linecap="round"  stroke-linejoin="round"  fill="none" />
</g>
<g transform="matrix(1.0000 0.0000 0.0000 1.0000 0.0000 0.0000)">
</g>
<g transform="matrix(0.0625 0.0000 0.0000 0.0625 0.0000 0.0000)">
<path d="M 3440.0000,32.0000 L 3440.0000,640.0000 " stroke="#000000" stroke-width="15.0000"  stroke-linecap="round"  stroke-linejoin="round" fill="none" />
</g>
<g transform="matrix(1.0000 0.0000 0.0000 1.0000 0.0000 0.0000)">
</g>
<g transform="matrix(0.0625 0.0000 0.0000 0.0625 0.0000 0.0000)">
<path d="M 3554.0000,342.0000 C 3554.0000,309.0000 3506.0000,282.0000 3448.0000,282.0000 C 3389.0000,282.0000 3342.0000,309.0000 3342.0000,342.0000 C 3342.0000,376.0000 3389.0000,403.0000 3448.0000,403.0000 C 3506.0000,403.0000 3554.0000,376.0000 3554.0000,342.0000 "  fill="#FFFFFF" stroke="none" />
</g>
<g transform="matrix(1.0000 0.0000 0.0000 1.0000 0.0000 0.0000)">
</g>
<g transform="matrix(0.0625 0.0000 0.0000 0.0625 0.0000 0.0000)">
<path d="M 3554.0000,342.0000 M 3554.0000,342.0000 C 3554.0000,309.0000 3506.0000,282.0000 3448.0000,282.0000 C 3389.0000,282.0000 3342.0000,309.0000 3342.0000,342.0000 C 3342.0000,376.0000 3389.0000,403.0000 3448.0000,403.0000 C 3506.0000,403.0000 3554.0000,376.0000 3554.0000,342.0000 " stroke="#000000" stroke-width="5.0000"  stroke-linecap="round"  stroke-linejoin="round"  fill="none" />
</g>
<g transform="matrix(1.0000 0.0000 0.0000 1.0000 0.0000 0.0000)">
</g>
<g transform="matrix(0.0625 0.0000 0.0000 0.0625 0.0000 0.0000)">
<path d="M 2992.0000,32.0000 L 2992.0000,640.0000 " stroke="#000000" stroke-width="15.0000"  stroke-linecap="round"  stroke-linejoin="round" fill="none" />
</g>
<g transform="matrix(1.0000 0.0000 0.0000 1.0000 0.0000 0.0000)">
</g>
<g transform="matrix(0.0625 0.0000 0.0000 0.0625 0.0000 0.0000)">
<path d="M 3100.0000,342.0000 C 3100.0000,309.0000 3053.0000,282.0000 2994.0000,282.0000 C 2936.0000,282.0000 2889.0000,309.0000 2889.0000,342.0000 C 2889.0000,376.0000 2936.0000,403.0000 2994.0000,403.0000 C 3053.0000,403.0000 3100.0000,376.0000 3100.0000,342.0000 "  fill="#FFFFFF" stroke="none" />
</g>
<g transform="matrix(1.0000 0.0000 0.0000 1.0000 0.0000 0.0000)">
</g>
<g transform="matrix(0.0625 0.0000 0.0000 0.0625 0.0000 0.0000)">
<path d="M 3100.0000,342.0000 M 3100.0000,342.0000 C 3100.0000,309.0000 3053.0000,282.0000 2994.0000,282.0000 C 2936.0000,282.0000 2889.0000,309.0000 2889.0000,342.0000 C 2889.0000,376.0000 2936.0000,403.0000 2994.0000,403.0000 C 3053.0000,403.0000 3100.0000,376.0000 3100.0000,342.0000 " stroke="#000000" stroke-width="5.0000"  stroke-linecap="round"  stroke-linejoin="round"  fill="none" />
</g>
<g transform="matrix(1.0000 0.0000 0.0000 1.0000 0.0000 0.0000)">
</g>
</g>
</svg>
