<?xml version="1.0"  encoding="UTF-8" standalone="no"?>
<svg version="1.1" xmlns="http://www.w3.org/2000/svg" xmlns:xlink="http://www.w3.org/1999/xlink" width="167.0000" height="310.0000">
<g transform="translate(-26.0000, -7.0000)">
<g transform="matrix(0.0625 0.0000 0.0000 0.0625 0.0000 0.0000)">
<path d="M 2296.0000,152.0000 L 2296.0000,1210.0000 L 2598.0000,1210.0000 L 2598.0000,152.0000 L 2296.0000,152.0000 Z" stroke-width="1px" stroke="#FFFFFF"  fill="#FFFFFF" />
</g>
<g transform="matrix(1.0000 0.0000 0.0000 1.0000 0.0000 0.0000)">
</g>
<g transform="matrix(0.0625 0.0000 0.0000 0.0625 0.0000 0.0000)">
<path d="M 2296.0000,1210.0000 L 2598.0000,1210.0000 L 2598.0000,152.0000 L 2296.0000,152.0000 L 2296.0000,1210.0000 Z" stroke="#000000" stroke-width="5.0000"  stroke-linecap="round"  stroke-linejoin="round" fill="none" />
</g>
<g transform="matrix(1.0000 0.0000 0.0000 1.0000 0.0000 0.0000)">
<text font-family="Arial" fill="#000000" style ="white-space:pre;" font-weight="400" text-anchor="start" x="149.0000" y="27.0000" font-size="11.0000" ><![CDATA[P]]></text>
<text font-family="Arial" fill="#000000" style ="white-space:pre;" font-weight="400" text-anchor="start" x="149.0000" y="39.0000" font-size="11.0000" ><![CDATA[B]]></text>
<text font-family="Arial" fill="#000000" style ="white-space:pre;" font-weight="400" text-anchor="start" x="149.0000" y="52.0000" font-size="11.0000" ><![CDATA[C]]></text>
<text font-family="Arial" fill="#000000" style ="white-space:pre;" font-weight="400" text-anchor="start" x="149.0000" y="65.0000" font-size="11.0000" ><![CDATA[H]]></text>
</g>
<g transform="matrix(0.0625 0.0000 0.0000 0.0625 0.0000 0.0000)">
<path d="M 2296.0000,1361.0000 L 2296.0000,3024.0000 L 2598.0000,3024.0000 L 2598.0000,1361.0000 L 2296.0000,1361.0000 Z" stroke-width="1px" stroke="#FFFFFF"  fill="#FFFFFF" />
</g>
<g transform="matrix(1.0000 0.0000 0.0000 1.0000 0.0000 0.0000)">
</g>
<g transform="matrix(0.0625 0.0000 0.0000 0.0625 0.0000 0.0000)">
<path d="M 2296.0000,3024.0000 L 2598.0000,3024.0000 L 2598.0000,1361.0000 L 2296.0000,1361.0000 L 2296.0000,3024.0000 Z" stroke="#000000" stroke-width="5.0000"  stroke-linecap="round"  stroke-linejoin="round" fill="none" />
</g>
<g transform="matrix(1.0000 0.0000 0.0000 1.0000 0.0000 0.0000)">
<text font-family="Arial" fill="#000000" style ="white-space:pre;" font-weight="400" text-anchor="start" x="149.0000" y="127.0000" font-size="11.0000" ><![CDATA[S]]></text>
<text font-family="Arial" fill="#000000" style ="white-space:pre;" font-weight="400" text-anchor="start" x="149.0000" y="140.0000" font-size="11.0000" ><![CDATA[S]]></text>
<text font-family="Arial" fill="#000000" style ="white-space:pre;" font-weight="400" text-anchor="start" x="149.0000" y="153.0000" font-size="11.0000" ><![CDATA[S]]></text>
</g>
<g transform="matrix(0.0625 0.0000 0.0000 0.0625 0.0000 0.0000)">
<path d="M 2296.0000,3176.0000 L 2296.0000,4234.0000 L 2598.0000,4234.0000 L 2598.0000,3176.0000 L 2296.0000,3176.0000 Z" stroke-width="1px" stroke="#FFFFFF"  fill="#FFFFFF" />
</g>
<g transform="matrix(1.0000 0.0000 0.0000 1.0000 0.0000 0.0000)">
</g>
<g transform="matrix(0.0625 0.0000 0.0000 0.0625 0.0000 0.0000)">
<path d="M 2296.0000,4234.0000 L 2598.0000,4234.0000 L 2598.0000,3176.0000 L 2296.0000,3176.0000 L 2296.0000,4234.0000 Z" stroke="#000000" stroke-width="5.0000"  stroke-linecap="round"  stroke-linejoin="round" fill="none" />
</g>
<g transform="matrix(1.0000 0.0000 0.0000 1.0000 0.0000 0.0000)">
<text font-family="Arial" fill="#000000" style ="white-space:pre;" font-weight="400" text-anchor="start" x="149.0000" y="216.0000" font-size="11.0000" ><![CDATA[P]]></text>
<text font-family="Arial" fill="#000000" style ="white-space:pre;" font-weight="400" text-anchor="start" x="149.0000" y="228.0000" font-size="11.0000" ><![CDATA[B]]></text>
<text font-family="Arial" fill="#000000" style ="white-space:pre;" font-weight="400" text-anchor="start" x="149.0000" y="241.0000" font-size="11.0000" ><![CDATA[C]]></text>
<text font-family="Arial" fill="#000000" style ="white-space:pre;" font-weight="400" text-anchor="start" x="149.0000" y="254.0000" font-size="11.0000" ><![CDATA[H]]></text>
</g>
<g transform="matrix(0.0625 0.0000 0.0000 0.0625 0.0000 0.0000)">
<path d="M 1993.0000,152.0000 L 1993.0000,4234.0000 L 2296.0000,4234.0000 L 2296.0000,152.0000 L 1993.0000,152.0000 Z" stroke-width="1px" stroke="#FFFFFF"  fill="#FFFFFF" />
</g>
<g transform="matrix(1.0000 0.0000 0.0000 1.0000 0.0000 0.0000)">
</g>
<g transform="matrix(0.0625 0.0000 0.0000 0.0625 0.0000 0.0000)">
<path d="M 1993.0000,4234.0000 L 2296.0000,4234.0000 L 2296.0000,152.0000 L 1993.0000,152.0000 L 1993.0000,4234.0000 Z" stroke="#000000" stroke-width="5.0000"  stroke-linecap="round"  stroke-linejoin="round" fill="none" />
</g>
<g transform="matrix(1.0000 0.0000 0.0000 1.0000 0.0000 0.0000)">
<text font-family="Arial" fill="#000000" style ="white-space:pre;" font-weight="400" text-anchor="start" x="130.0000" y="121.0000" font-size="11.0000" ><![CDATA[P]]></text>
<text font-family="Arial" fill="#000000" style ="white-space:pre;" font-weight="400" text-anchor="start" x="130.0000" y="134.0000" font-size="11.0000" ><![CDATA[B]]></text>
<text font-family="Arial" fill="#000000" style ="white-space:pre;" font-weight="400" text-anchor="start" x="130.0000" y="147.0000" font-size="11.0000" ><![CDATA[C]]></text>
<text font-family="Arial" fill="#000000" style ="white-space:pre;" font-weight="400" text-anchor="start" x="130.0000" y="159.0000" font-size="11.0000" ><![CDATA[H]]></text>
</g>
<g transform="matrix(0.0625 0.0000 0.0000 0.0625 0.0000 0.0000)">
<path d="M 2598.0000,152.0000 L 2598.0000,4234.0000 L 2900.0000,4234.0000 L 2900.0000,152.0000 L 2598.0000,152.0000 Z" stroke-width="1px" stroke="#FFFFFF"  fill="#FFFFFF" />
</g>
<g transform="matrix(1.0000 0.0000 0.0000 1.0000 0.0000 0.0000)">
</g>
<g transform="matrix(0.0625 0.0000 0.0000 0.0625 0.0000 0.0000)">
<path d="M 2598.0000,4234.0000 L 2900.0000,4234.0000 L 2900.0000,152.0000 L 2598.0000,152.0000 L 2598.0000,4234.0000 Z" stroke="#000000" stroke-width="5.0000"  stroke-linecap="round"  stroke-linejoin="round" fill="none" />
</g>
<g transform="matrix(1.0000 0.0000 0.0000 1.0000 0.0000 0.0000)">
<text font-family="Arial" fill="#000000" style ="white-space:pre;" font-weight="400" text-anchor="start" x="168.0000" y="121.0000" font-size="11.0000" ><![CDATA[P]]></text>
<text font-family="Arial" fill="#000000" style ="white-space:pre;" font-weight="400" text-anchor="start" x="168.0000" y="134.0000" font-size="11.0000" ><![CDATA[B]]></text>
<text font-family="Arial" fill="#000000" style ="white-space:pre;" font-weight="400" text-anchor="start" x="168.0000" y="147.0000" font-size="11.0000" ><![CDATA[C]]></text>
<text font-family="Arial" fill="#000000" style ="white-space:pre;" font-weight="400" text-anchor="start" x="168.0000" y="159.0000" font-size="11.0000" ><![CDATA[H]]></text>
</g>
<g transform="matrix(0.0625 0.0000 0.0000 0.0625 0.0000 0.0000)">
<path d="M 1691.0000,1361.0000 L 1691.0000,3024.0000 L 1993.0000,3024.0000 L 1993.0000,1361.0000 L 1691.0000,1361.0000 Z" stroke-width="1px" stroke="#FFFFFF"  fill="#FFFFFF" />
</g>
<g transform="matrix(1.0000 0.0000 0.0000 1.0000 0.0000 0.0000)">
</g>
<g transform="matrix(0.0625 0.0000 0.0000 0.0625 0.0000 0.0000)">
<path d="M 1691.0000,3024.0000 L 1993.0000,3024.0000 L 1993.0000,1361.0000 L 1691.0000,1361.0000 L 1691.0000,3024.0000 Z" stroke="#000000" stroke-width="5.0000"  stroke-linecap="round"  stroke-linejoin="round" fill="none" />
</g>
<g transform="matrix(1.0000 0.0000 0.0000 1.0000 0.0000 0.0000)">
<text font-family="Arial" fill="#000000" style ="white-space:pre;" font-weight="400" text-anchor="start" x="112.0000" y="127.0000" font-size="11.0000" ><![CDATA[P]]></text>
<text font-family="Arial" fill="#000000" style ="white-space:pre;" font-weight="400" text-anchor="start" x="112.0000" y="140.0000" font-size="11.0000" ><![CDATA[S]]></text>
<text font-family="Arial" fill="#000000" style ="white-space:pre;" font-weight="400" text-anchor="start" x="112.0000" y="153.0000" font-size="11.0000" ><![CDATA[S]]></text>
<text font-family="Times New Roman" fill="#000000" font-style="italic" style ="white-space:pre;" font-weight="400" text-anchor="start" x="112.0000" y="287.0000" font-size="11.0000" ><![CDATA[0]]></text>
<text font-family="Times New Roman" fill="#000000" font-style="italic" style ="white-space:pre;" font-weight="400" text-anchor="start" x="131.0000" y="287.0000" font-size="11.0000" ><![CDATA[1]]></text>
<text font-family="Times New Roman" fill="#000000" font-style="italic" style ="white-space:pre;" font-weight="400" text-anchor="start" x="150.0000" y="287.0000" font-size="11.0000" ><![CDATA[2]]></text>
<text font-family="Times New Roman" fill="#000000" font-style="italic" style ="white-space:pre;" font-weight="400" text-anchor="start" x="169.0000" y="287.0000" font-size="11.0000" ><![CDATA[3]]></text>
</g>
<g transform="matrix(0.0625 0.0000 0.0000 0.0625 0.0000 0.0000)">
<path d="M 1757.0000,4687.0000 L 2834.0000,4687.0000 " stroke="#000000" stroke-width="5.0000"  stroke-linecap="round"  stroke-linejoin="round" fill="none" />
</g>
<g transform="matrix(1.0000 0.0000 0.0000 1.0000 0.0000 0.0000)">
</g>
<g transform="matrix(0.0625 0.0000 0.0000 0.0625 0.0000 0.0000)">
<path d="M 1691.0000,4687.0000 L 1778.0000,4644.0000 C 1764.0000,4671.0000 1764.0000,4704.0000 1778.0000,4731.0000 L 1778.0000,4731.0000 L 1691.0000,4687.0000 Z "  fill="#000000" stroke="none" />
</g>
<g transform="matrix(1.0000 0.0000 0.0000 1.0000 0.0000 0.0000)">
</g>
<g transform="matrix(0.0625 0.0000 0.0000 0.0625 0.0000 0.0000)">
<path d="M 2900.0000,4687.0000 L 2813.0000,4731.0000 C 2827.0000,4704.0000 2827.0000,4671.0000 2813.0000,4644.0000 L 2900.0000,4687.0000 Z "  fill="#000000" stroke="none" />
</g>
<g transform="matrix(1.0000 0.0000 0.0000 1.0000 0.0000 0.0000)">
<text font-family="Times New Roman" fill="#000000" font-style="italic" style ="white-space:pre;" font-weight="400" text-anchor="start" x="94.0000" y="315.0000" font-size="11.0000" ><![CDATA[OFDM symbol number]]></text>
</g>
<g transform="matrix(0.0625 0.0000 0.0000 0.0625 0.0000 0.0000)">
<path d="M 1388.0000,2959.0000 L 1388.0000,1458.0000 " stroke="#000000" stroke-width="5.0000"  stroke-linecap="round"  stroke-linejoin="round" fill="none" />
</g>
<g transform="matrix(1.0000 0.0000 0.0000 1.0000 0.0000 0.0000)">
</g>
<g transform="matrix(0.0625 0.0000 0.0000 0.0625 0.0000 0.0000)">
<path d="M 1388.0000,3024.0000 L 1345.0000,2937.0000 C 1372.0000,2951.0000 1405.0000,2951.0000 1432.0000,2937.0000 L 1388.0000,3024.0000 Z "  fill="#000000" stroke="none" />
</g>
<g transform="matrix(1.0000 0.0000 0.0000 1.0000 0.0000 0.0000)">
</g>
<g transform="matrix(0.0625 0.0000 0.0000 0.0625 0.0000 0.0000)">
<path d="M 1388.0000,1392.0000 L 1432.0000,1479.0000 C 1405.0000,1465.0000 1372.0000,1465.0000 1345.0000,1479.0000 L 1388.0000,1392.0000 Z "  fill="#000000" stroke="none" />
</g>
<g transform="matrix(1.0000 0.0000 0.0000 1.0000 0.0000 0.0000)">
</g>
<g transform="matrix(0.0625 0.0000 0.0000 0.0625 0.0000 0.0000)">
<path d="M 1388.0000,1144.0000 L 1388.0000,188.0000 " stroke="#000000" stroke-width="5.0000"  stroke-linecap="round"  stroke-linejoin="round" fill="none" />
</g>
<g transform="matrix(1.0000 0.0000 0.0000 1.0000 0.0000 0.0000)">
</g>
<g transform="matrix(0.0625 0.0000 0.0000 0.0625 0.0000 0.0000)">
<path d="M 1388.0000,1210.0000 L 1345.0000,1123.0000 C 1372.0000,1137.0000 1405.0000,1137.0000 1432.0000,1123.0000 L 1432.0000,1123.0000 L 1388.0000,1210.0000 Z "  fill="#000000" stroke="none" />
</g>
<g transform="matrix(1.0000 0.0000 0.0000 1.0000 0.0000 0.0000)">
</g>
<g transform="matrix(0.0625 0.0000 0.0000 0.0625 0.0000 0.0000)">
<path d="M 1388.0000,122.0000 L 1432.0000,209.0000 C 1405.0000,195.0000 1372.0000,195.0000 1345.0000,209.0000 L 1345.0000,209.0000 L 1388.0000,122.0000 Z "  fill="#000000" stroke="none" />
</g>
<g transform="matrix(1.0000 0.0000 0.0000 1.0000 0.0000 0.0000)">
</g>
<g transform="matrix(0.0625 0.0000 0.0000 0.0625 0.0000 0.0000)">
<path d="M 1388.0000,4168.0000 L 1388.0000,3211.0000 " stroke="#000000" stroke-width="5.0000"  stroke-linecap="round"  stroke-linejoin="round" fill="none" />
</g>
<g transform="matrix(1.0000 0.0000 0.0000 1.0000 0.0000 0.0000)">
</g>
<g transform="matrix(0.0625 0.0000 0.0000 0.0625 0.0000 0.0000)">
<path d="M 1388.0000,4234.0000 L 1345.0000,4147.0000 C 1372.0000,4161.0000 1405.0000,4161.0000 1432.0000,4147.0000 L 1432.0000,4147.0000 L 1388.0000,4234.0000 Z "  fill="#000000" stroke="none" />
</g>
<g transform="matrix(1.0000 0.0000 0.0000 1.0000 0.0000 0.0000)">
</g>
<g transform="matrix(0.0625 0.0000 0.0000 0.0625 0.0000 0.0000)">
<path d="M 1388.0000,3145.0000 L 1432.0000,3232.0000 C 1405.0000,3219.0000 1372.0000,3219.0000 1345.0000,3232.0000 L 1345.0000,3232.0000 L 1388.0000,3145.0000 Z "  fill="#000000" stroke="none" />
</g>
<g transform="matrix(1.0000 0.0000 0.0000 1.0000 0.0000 0.0000)">
<text font-family="Times New Roman" fill="#000000" font-style="italic" style ="white-space:pre;" font-weight="400" text-anchor="start" x="67.0000" y="268.0000" font-size="11.0000" ><![CDATA[0]]></text>
<text font-family="Times New Roman" fill="#000000" font-style="italic" style ="white-space:pre;" font-weight="400" text-anchor="start" x="61.0000" y="211.0000" font-size="11.0000" ><![CDATA[47]]></text>
<text font-family="Times New Roman" fill="#000000" font-style="italic" style ="white-space:pre;" font-weight="400" text-anchor="start" x="61.0000" y="183.0000" font-size="11.0000" ><![CDATA[56]]></text>
<text font-family="Times New Roman" fill="#000000" font-style="italic" style ="white-space:pre;" font-weight="400" text-anchor="start" x="56.0000" y="98.0000" font-size="11.0000" ><![CDATA[182]]></text>
<text font-family="Times New Roman" fill="#000000" font-style="italic" style ="white-space:pre;" font-weight="400" text-anchor="start" x="56.0000" y="69.0000" font-size="11.0000" ><![CDATA[192]]></text>
<text font-family="Times New Roman" fill="#000000" font-style="italic" style ="white-space:pre;" font-weight="400" text-anchor="start" x="56.0000" y="22.0000" font-size="11.0000" ><![CDATA[239]]></text>
<text font-family="Times New Roman" fill="#000000" font-style="italic" style ="white-space:pre;" font-weight="400" text-anchor="start" x="26.0000" y="134.0000" font-size="11.0000" ><![CDATA[Subcarrier]]></text>
<text font-family="Times New Roman" fill="#000000" font-style="italic" style ="white-space:pre;" font-weight="400" text-anchor="start" x="38.0000" y="147.0000" font-size="11.0000" ><![CDATA[Number]]></text>
</g>
</g>
</svg>
