<?xml version="1.0"  encoding="UTF-8" standalone="no"?>
<svg version="1.1" xmlns="http://www.w3.org/2000/svg" xmlns:xlink="http://www.w3.org/1999/xlink" width="419.0000" height="337.0000">
<g transform="translate(-37.0000, -26.0000)">
<g transform="matrix(0.0625 0.0000 0.0000 0.0625 0.0000 0.0000)">
<path d="M 1424.0000,720.0000 L 1424.0000,1696.0000 L 2576.0000,1696.0000 L 2576.0000,720.0000 L 1424.0000,720.0000 Z" stroke-width="1px" stroke="#FFFFFF"  fill="#FFFFFF" />
</g>
<g transform="matrix(1.0000 0.0000 0.0000 1.0000 0.0000 0.0000)">
</g>
<g transform="matrix(0.0625 0.0000 0.0000 0.0625 0.0000 0.0000)">
<path d="M 1424.0000,1696.0000 L 2576.0000,1696.0000 L 2576.0000,720.0000 L 1424.0000,720.0000 L 1424.0000,1696.0000 Z" stroke="#000000" stroke-width="16.0000"  stroke-linecap="round"  stroke-linejoin="round" fill="none" />
</g>
<g transform="matrix(1.0000 0.0000 0.0000 1.0000 0.0000 0.0000)">
</g>
<g transform="matrix(0.0625 0.0000 0.0000 0.0625 0.0000 0.0000)">
<path d="M 624.0000,4512.0000 L 624.0000,5488.0000 L 1776.0000,5488.0000 L 1776.0000,4512.0000 L 624.0000,4512.0000 Z" stroke-width="1px" stroke="#FFFFFF"  fill="#FFFFFF" />
</g>
<g transform="matrix(1.0000 0.0000 0.0000 1.0000 0.0000 0.0000)">
</g>
<g transform="matrix(0.0625 0.0000 0.0000 0.0625 0.0000 0.0000)">
<path d="M 624.0000,5488.0000 L 1776.0000,5488.0000 L 1776.0000,4512.0000 L 624.0000,4512.0000 L 624.0000,5488.0000 Z" stroke="#000000" stroke-width="16.0000"  stroke-linecap="round"  stroke-linejoin="round" fill="none" />
</g>
<g transform="matrix(1.0000 0.0000 0.0000 1.0000 0.0000 0.0000)">
</g>
<g transform="matrix(0.0625 0.0000 0.0000 0.0625 0.0000 0.0000)">
<path d="M 2288.0000,2608.0000 L 2288.0000,3600.0000 L 3440.0000,3600.0000 L 3440.0000,2608.0000 L 2288.0000,2608.0000 Z" stroke-width="1px" stroke="#FFFFFF"  fill="#FFFFFF" />
</g>
<g transform="matrix(1.0000 0.0000 0.0000 1.0000 0.0000 0.0000)">
</g>
<g transform="matrix(0.0625 0.0000 0.0000 0.0625 0.0000 0.0000)">
<path d="M 2288.0000,3600.0000 L 3440.0000,3600.0000 L 3440.0000,2608.0000 L 2288.0000,2608.0000 L 2288.0000,3600.0000 Z" stroke="#000000" stroke-width="32.0000"  stroke-linecap="round"  stroke-linejoin="round" fill="none" />
</g>
<g transform="matrix(1.0000 0.0000 0.0000 1.0000 0.0000 0.0000)">
</g>
<g transform="matrix(0.0625 0.0000 0.0000 0.0625 0.0000 0.0000)">
<path d="M 2384.0000,2720.0000 L 2384.0000,3104.0000 L 3344.0000,3104.0000 L 3344.0000,2720.0000 L 2384.0000,2720.0000 Z" stroke-width="1px" stroke="#DBEEF3"  fill="#DBEEF3" />
</g>
<g transform="matrix(1.0000 0.0000 0.0000 1.0000 0.0000 0.0000)">
</g>
<g transform="matrix(0.0625 0.0000 0.0000 0.0625 0.0000 0.0000)">
<path d="M 2384.0000,3104.0000 L 3344.0000,3104.0000 L 3344.0000,2720.0000 L 2384.0000,2720.0000 L 2384.0000,3104.0000 Z" stroke="#000000" stroke-width="16.0000"  stroke-linecap="round"  stroke-linejoin="round" fill="none" />
</g>
<g transform="matrix(1.0000 0.0000 0.0000 1.0000 0.0000 0.0000)">
<text font-family="Calibri" fill="#000000" style ="white-space:pre;" font-weight="400" text-anchor="start" x="155.0000" y="187.0000" font-size="16.0000" ><![CDATA[IAB]]></text>
<text font-family="Calibri" fill="#000000" style ="white-space:pre;" font-weight="400" text-anchor="start" x="177.0000" y="187.0000" font-size="16.0000" ><![CDATA[-]]></text>
<text font-family="Calibri" fill="#000000" style ="white-space:pre;" font-weight="400" text-anchor="start" x="182.0000" y="187.0000" font-size="16.0000" ><![CDATA[MT]]></text>
</g>
<g transform="matrix(0.0625 0.0000 0.0000 0.0625 0.0000 0.0000)">
<path d="M 2384.0000,3104.0000 L 2384.0000,3488.0000 L 3344.0000,3488.0000 L 3344.0000,3104.0000 L 2384.0000,3104.0000 Z" stroke-width="1px" stroke="#FDEBDD"  fill="#FDEBDD" />
</g>
<g transform="matrix(1.0000 0.0000 0.0000 1.0000 0.0000 0.0000)">
</g>
<g transform="matrix(0.0625 0.0000 0.0000 0.0625 0.0000 0.0000)">
<path d="M 2384.0000,3488.0000 L 3344.0000,3488.0000 L 3344.0000,3104.0000 L 2384.0000,3104.0000 L 2384.0000,3488.0000 Z" stroke="#000000" stroke-width="16.0000"  stroke-linecap="round"  stroke-linejoin="round" fill="none" />
</g>
<g transform="matrix(1.0000 0.0000 0.0000 1.0000 0.0000 0.0000)">
<text font-family="Calibri" fill="#000000" style ="white-space:pre;" font-weight="400" text-anchor="start" x="156.0000" y="211.0000" font-size="16.0000" ><![CDATA[IAB]]></text>
<text font-family="Calibri" fill="#000000" style ="white-space:pre;" font-weight="400" text-anchor="start" x="178.0000" y="211.0000" font-size="16.0000" ><![CDATA[-]]></text>
<text font-family="Calibri" fill="#000000" style ="white-space:pre;" font-weight="400" text-anchor="start" x="183.0000" y="211.0000" font-size="16.0000" ><![CDATA[DU]]></text>
</g>
<g transform="matrix(0.0625 0.0000 0.0000 0.0625 0.0000 0.0000)">
<path d="M 1520.0000,1216.0000 L 1520.0000,1600.0000 L 2480.0000,1600.0000 L 2480.0000,1216.0000 L 1520.0000,1216.0000 Z" stroke-width="1px" stroke="#FDEBDD"  fill="#FDEBDD" />
</g>
<g transform="matrix(1.0000 0.0000 0.0000 1.0000 0.0000 0.0000)">
</g>
<g transform="matrix(0.0625 0.0000 0.0000 0.0625 0.0000 0.0000)">
<path d="M 1520.0000,1600.0000 L 2480.0000,1600.0000 L 2480.0000,1216.0000 L 1520.0000,1216.0000 L 1520.0000,1600.0000 Z" stroke="#000000" stroke-width="16.0000"  stroke-linecap="round"  stroke-linejoin="round" fill="none" />
</g>
<g transform="matrix(1.0000 0.0000 0.0000 1.0000 0.0000 0.0000)">
<text font-family="Calibri" fill="#000000" style ="white-space:pre;" font-weight="400" text-anchor="start" x="102.0000" y="92.0000" font-size="16.0000" ><![CDATA[IAB]]></text>
<text font-family="Calibri" fill="#000000" style ="white-space:pre;" font-weight="400" text-anchor="start" x="124.0000" y="92.0000" font-size="16.0000" ><![CDATA[-]]></text>
<text font-family="Calibri" fill="#000000" style ="white-space:pre;" font-weight="400" text-anchor="start" x="129.0000" y="92.0000" font-size="16.0000" ><![CDATA[DU]]></text>
</g>
<g transform="matrix(0.0625 0.0000 0.0000 0.0625 0.0000 0.0000)">
<path d="M 720.0000,4608.0000 L 720.0000,4992.0000 L 1680.0000,4992.0000 L 1680.0000,4608.0000 L 720.0000,4608.0000 Z" stroke-width="1px" stroke="#DBEEF3"  fill="#DBEEF3" />
</g>
<g transform="matrix(1.0000 0.0000 0.0000 1.0000 0.0000 0.0000)">
</g>
<g transform="matrix(0.0625 0.0000 0.0000 0.0625 0.0000 0.0000)">
<path d="M 720.0000,4992.0000 L 1680.0000,4992.0000 L 1680.0000,4608.0000 L 720.0000,4608.0000 L 720.0000,4992.0000 Z" stroke="#000000" stroke-width="16.0000"  stroke-linecap="round"  stroke-linejoin="round" fill="none" />
</g>
<g transform="matrix(1.0000 0.0000 0.0000 1.0000 0.0000 0.0000)">
<text font-family="Calibri" fill="#000000" style ="white-space:pre;" font-weight="400" text-anchor="start" x="50.0000" y="304.0000" font-size="16.0000" ><![CDATA[IAB]]></text>
<text font-family="Calibri" fill="#000000" style ="white-space:pre;" font-weight="400" text-anchor="start" x="72.0000" y="304.0000" font-size="16.0000" ><![CDATA[-]]></text>
<text font-family="Calibri" fill="#000000" style ="white-space:pre;" font-weight="400" text-anchor="start" x="77.0000" y="304.0000" font-size="16.0000" ><![CDATA[MT]]></text>
</g>
<g transform="matrix(0.0625 0.0000 0.0000 0.0625 0.0000 0.0000)">
<path d="M 1520.0000,832.0000 L 1520.0000,1216.0000 L 2480.0000,1216.0000 L 2480.0000,832.0000 L 1520.0000,832.0000 Z" stroke-width="1px" stroke="#FFFFFF"  fill="#FFFFFF" />
</g>
<g transform="matrix(1.0000 0.0000 0.0000 1.0000 0.0000 0.0000)">
</g>
<g transform="matrix(0.0625 0.0000 0.0000 0.0625 0.0000 0.0000)">
<path d="M 1520.0000,1216.0000 L 2480.0000,1216.0000 L 2480.0000,832.0000 L 1520.0000,832.0000 L 1520.0000,1216.0000 Z" stroke="#000000" stroke-width="16.0000"  stroke-linecap="round"  stroke-linejoin="round" fill="none" />
</g>
<g transform="matrix(1.0000 0.0000 0.0000 1.0000 0.0000 0.0000)">
</g>
<g transform="matrix(0.0625 0.0000 0.0000 0.0625 0.0000 0.0000)">
<path d="M 720.0000,4992.0000 L 720.0000,5376.0000 L 1680.0000,5376.0000 L 1680.0000,4992.0000 L 720.0000,4992.0000 Z" stroke-width="1px" stroke="#FFFFFF"  fill="#FFFFFF" />
</g>
<g transform="matrix(1.0000 0.0000 0.0000 1.0000 0.0000 0.0000)">
</g>
<g transform="matrix(0.0625 0.0000 0.0000 0.0625 0.0000 0.0000)">
<path d="M 720.0000,5376.0000 L 1680.0000,5376.0000 L 1680.0000,4992.0000 L 720.0000,4992.0000 L 720.0000,5376.0000 Z" stroke="#000000" stroke-width="16.0000"  stroke-linecap="round"  stroke-linejoin="round" fill="none" />
</g>
<g transform="matrix(1.0000 0.0000 0.0000 1.0000 0.0000 0.0000)">
</g>
<g transform="matrix(0.0625 0.0000 0.0000 0.0625 0.0000 0.0000)">
<path d="M 3152.0000,720.0000 L 3152.0000,1696.0000 L 4304.0000,1696.0000 L 4304.0000,720.0000 L 3152.0000,720.0000 Z" stroke-width="1px" stroke="#FFFFFF"  fill="#FFFFFF" />
</g>
<g transform="matrix(1.0000 0.0000 0.0000 1.0000 0.0000 0.0000)">
</g>
<g transform="matrix(0.0625 0.0000 0.0000 0.0625 0.0000 0.0000)">
<path d="M 3152.0000,1696.0000 L 4304.0000,1696.0000 L 4304.0000,720.0000 L 3152.0000,720.0000 L 3152.0000,1696.0000 Z" stroke="#000000" stroke-width="16.0000"  stroke-linecap="round"  stroke-linejoin="round" fill="none" />
</g>
<g transform="matrix(1.0000 0.0000 0.0000 1.0000 0.0000 0.0000)">
</g>
<g transform="matrix(0.0625 0.0000 0.0000 0.0625 0.0000 0.0000)">
<path d="M 3248.0000,832.0000 L 3248.0000,1216.0000 L 4208.0000,1216.0000 L 4208.0000,832.0000 L 3248.0000,832.0000 Z" stroke-width="1px" stroke="#FFFFFF"  fill="#FFFFFF" />
</g>
<g transform="matrix(1.0000 0.0000 0.0000 1.0000 0.0000 0.0000)">
</g>
<g transform="matrix(0.0625 0.0000 0.0000 0.0625 0.0000 0.0000)">
<path d="M 3248.0000,1216.0000 L 4208.0000,1216.0000 L 4208.0000,832.0000 L 3248.0000,832.0000 L 3248.0000,1216.0000 Z" stroke="#000000" stroke-width="16.0000"  stroke-linecap="round"  stroke-linejoin="round" fill="none" />
</g>
<g transform="matrix(1.0000 0.0000 0.0000 1.0000 0.0000 0.0000)">
</g>
<g transform="matrix(0.0625 0.0000 0.0000 0.0625 0.0000 0.0000)">
<path d="M 3248.0000,1216.0000 L 3248.0000,1600.0000 L 4208.0000,1600.0000 L 4208.0000,1216.0000 L 3248.0000,1216.0000 Z" stroke-width="1px" stroke="#FDEBDD"  fill="#FDEBDD" />
</g>
<g transform="matrix(1.0000 0.0000 0.0000 1.0000 0.0000 0.0000)">
</g>
<g transform="matrix(0.0625 0.0000 0.0000 0.0625 0.0000 0.0000)">
<path d="M 3248.0000,1600.0000 L 4208.0000,1600.0000 L 4208.0000,1216.0000 L 3248.0000,1216.0000 L 3248.0000,1600.0000 Z" stroke="#000000" stroke-width="16.0000"  stroke-linecap="round"  stroke-linejoin="round" fill="none" />
</g>
<g transform="matrix(1.0000 0.0000 0.0000 1.0000 0.0000 0.0000)">
<text font-family="Calibri" fill="#000000" style ="white-space:pre;" font-weight="400" text-anchor="start" x="210.0000" y="92.0000" font-size="16.0000" ><![CDATA[IAB]]></text>
<text font-family="Calibri" fill="#000000" style ="white-space:pre;" font-weight="400" text-anchor="start" x="232.0000" y="92.0000" font-size="16.0000" ><![CDATA[-]]></text>
<text font-family="Calibri" fill="#000000" style ="white-space:pre;" font-weight="400" text-anchor="start" x="237.0000" y="92.0000" font-size="16.0000" ><![CDATA[DU]]></text>
</g>
<g transform="matrix(0.0625 0.0000 0.0000 0.0625 0.0000 0.0000)">
<path d="M 2192.0000,1600.0000 L 2864.0000,2720.0000 " stroke="#000000" stroke-width="32.0000"  stroke-linecap="round"  stroke-linejoin="round" fill="none" />
</g>
<g transform="matrix(1.0000 0.0000 0.0000 1.0000 0.0000 0.0000)">
</g>
<g transform="matrix(0.0625 0.0000 0.0000 0.0625 0.0000 0.0000)">
<path d="M 2864.0000,2720.0000 L 3536.0000,1600.0000 " stroke="#000000" stroke-width="32.0000"  stroke-linecap="round"  stroke-linejoin="round" fill="none" />
</g>
<g transform="matrix(1.0000 0.0000 0.0000 1.0000 0.0000 0.0000)">
</g>
<g transform="matrix(0.0625 0.0000 0.0000 0.0625 0.0000 0.0000)">
<path d="M 2864.0000,3488.0000 L 1408.0000,4608.0000 " stroke="#000000" stroke-width="32.0000"  stroke-linecap="round"  stroke-linejoin="round" fill="none" />
</g>
<g transform="matrix(1.0000 0.0000 0.0000 1.0000 0.0000 0.0000)">
</g>
<g transform="matrix(0.0625 0.0000 0.0000 0.0625 0.0000 0.0000)">
<path d="M 3904.0000,4496.0000 L 3904.0000,5488.0000 L 5056.0000,5488.0000 L 5056.0000,4496.0000 L 3904.0000,4496.0000 Z" stroke-width="1px" stroke="#FFFFFF"  fill="#FFFFFF" />
</g>
<g transform="matrix(1.0000 0.0000 0.0000 1.0000 0.0000 0.0000)">
</g>
<g transform="matrix(0.0625 0.0000 0.0000 0.0625 0.0000 0.0000)">
<path d="M 3904.0000,5488.0000 L 5056.0000,5488.0000 L 5056.0000,4496.0000 L 3904.0000,4496.0000 L 3904.0000,5488.0000 Z" stroke="#000000" stroke-width="16.0000"  stroke-linecap="round"  stroke-linejoin="round" fill="none" />
</g>
<g transform="matrix(1.0000 0.0000 0.0000 1.0000 0.0000 0.0000)">
</g>
<g transform="matrix(0.0625 0.0000 0.0000 0.0625 0.0000 0.0000)">
<path d="M 4000.0000,4592.0000 L 4000.0000,4976.0000 L 4960.0000,4976.0000 L 4960.0000,4592.0000 L 4000.0000,4592.0000 Z" stroke-width="1px" stroke="#DBEEF3"  fill="#DBEEF3" />
</g>
<g transform="matrix(1.0000 0.0000 0.0000 1.0000 0.0000 0.0000)">
</g>
<g transform="matrix(0.0625 0.0000 0.0000 0.0625 0.0000 0.0000)">
<path d="M 4000.0000,4976.0000 L 4960.0000,4976.0000 L 4960.0000,4592.0000 L 4000.0000,4592.0000 L 4000.0000,4976.0000 Z" stroke="#000000" stroke-width="16.0000"  stroke-linecap="round"  stroke-linejoin="round" fill="none" />
</g>
<g transform="matrix(1.0000 0.0000 0.0000 1.0000 0.0000 0.0000)">
<text font-family="Calibri" fill="#000000" style ="white-space:pre;" font-weight="400" text-anchor="start" x="256.0000" y="304.0000" font-size="16.0000" ><![CDATA[IAB]]></text>
<text font-family="Calibri" fill="#000000" style ="white-space:pre;" font-weight="400" text-anchor="start" x="278.0000" y="304.0000" font-size="16.0000" ><![CDATA[-]]></text>
<text font-family="Calibri" fill="#000000" style ="white-space:pre;" font-weight="400" text-anchor="start" x="282.0000" y="304.0000" font-size="16.0000" ><![CDATA[MT]]></text>
</g>
<g transform="matrix(0.0625 0.0000 0.0000 0.0625 0.0000 0.0000)">
<path d="M 4000.0000,4976.0000 L 4000.0000,5360.0000 L 4960.0000,5360.0000 L 4960.0000,4976.0000 L 4000.0000,4976.0000 Z" stroke-width="1px" stroke="#FFFFFF"  fill="#FFFFFF" />
</g>
<g transform="matrix(1.0000 0.0000 0.0000 1.0000 0.0000 0.0000)">
</g>
<g transform="matrix(0.0625 0.0000 0.0000 0.0625 0.0000 0.0000)">
<path d="M 4000.0000,5360.0000 L 4960.0000,5360.0000 L 4960.0000,4976.0000 L 4000.0000,4976.0000 L 4000.0000,5360.0000 Z" stroke="#000000" stroke-width="16.0000"  stroke-linecap="round"  stroke-linejoin="round" fill="none" />
</g>
<g transform="matrix(1.0000 0.0000 0.0000 1.0000 0.0000 0.0000)">
</g>
<g transform="matrix(0.0625 0.0000 0.0000 0.0625 0.0000 0.0000)">
<path d="M 2864.0000,3488.0000 L 4288.0000,4592.0000 " stroke="#000000" stroke-width="32.0000"  stroke-linecap="round"  stroke-linejoin="round" fill="none" />
</g>
<g transform="matrix(1.0000 0.0000 0.0000 1.0000 0.0000 0.0000)">
<text font-family="Calibri" fill="#000000" style ="white-space:pre;" font-weight="400" text-anchor="start" x="327.0000" y="196.0000" font-size="19.0000" ><![CDATA[IAB]]></text>
<text font-family="Calibri" fill="#000000" style ="white-space:pre;" font-weight="400" text-anchor="start" x="353.0000" y="196.0000" font-size="19.0000" ><![CDATA[-]]></text>
<text font-family="Calibri" fill="#000000" style ="white-space:pre;" font-weight="400" text-anchor="start" x="359.0000" y="196.0000" font-size="19.0000" ><![CDATA[node]]></text>
<text font-family="Calibri" fill="#000000" style ="white-space:pre;" font-weight="400" text-anchor="start" x="342.0000" y="71.0000" font-size="19.0000" ><![CDATA[Parent ]]></text>
<text font-family="Calibri" fill="#000000" style ="white-space:pre;" font-weight="400" text-anchor="start" x="342.0000" y="94.0000" font-size="19.0000" ><![CDATA[nodes]]></text>
<text font-family="Calibri" fill="#000000" style ="white-space:pre;" font-weight="400" text-anchor="start" x="342.0000" y="296.0000" font-size="19.0000" ><![CDATA[Child]]></text>
<text font-family="Calibri" fill="#000000" style ="white-space:pre;" font-weight="400" text-anchor="start" x="342.0000" y="318.0000" font-size="19.0000" ><![CDATA[nodes]]></text>
</g>
<g transform="matrix(0.0625 0.0000 0.0000 0.0625 0.0000 0.0000)">
<path d="M 5872.0000,2560.0000 L 5872.0000,2064.0000 " stroke="#000000" stroke-width="16.0000"  stroke-linecap="round"  stroke-linejoin="round" fill="none" />
</g>
<g transform="matrix(1.0000 0.0000 0.0000 1.0000 0.0000 0.0000)">
</g>
<g transform="matrix(0.0625 0.0000 0.0000 0.0625 0.0000 0.0000)">
<path d="M 5824.0000,2064.0000 L 5872.0000,1936.0000 L 5920.0000,2064.0000 L 5824.0000,2064.0000 Z" stroke-width="1px" stroke="#000000"  fill="#000000" />
</g>
<g transform="matrix(1.0000 0.0000 0.0000 1.0000 0.0000 0.0000)">
</g>
<g transform="matrix(0.0625 0.0000 0.0000 0.0625 0.0000 0.0000)">
<path d="M 5872.0000,3616.0000 L 5872.0000,4032.0000 " stroke="#000000" stroke-width="16.0000"  stroke-linecap="round"  stroke-linejoin="round" fill="none" />
</g>
<g transform="matrix(1.0000 0.0000 0.0000 1.0000 0.0000 0.0000)">
</g>
<g transform="matrix(0.0625 0.0000 0.0000 0.0625 0.0000 0.0000)">
<path d="M 5920.0000,4016.0000 L 5872.0000,4160.0000 L 5824.0000,4016.0000 L 5920.0000,4016.0000 Z" stroke-width="1px" stroke="#000000"  fill="#000000" />
</g>
<g transform="matrix(1.0000 0.0000 0.0000 1.0000 0.0000 0.0000)">
<text font-family="Calibri" fill="#000000" font-style="italic" style ="white-space:pre;" font-weight="400" text-anchor="start" x="378.0000" y="154.0000" font-size="16.0000" ><![CDATA[upstream]]></text>
<text font-family="Calibri" fill="#000000" font-style="italic" style ="white-space:pre;" font-weight="400" text-anchor="start" x="375.0000" y="241.0000" font-size="16.0000" ><![CDATA[downstream]]></text>
<text font-family="Calibri" fill="#000000" style ="white-space:pre;" font-weight="400" text-anchor="start" x="110.0000" y="142.0000" font-size="16.0000" ><![CDATA[NR Uu]]></text>
<text font-family="Calibri" fill="#000000" style ="white-space:pre;" font-weight="400" text-anchor="start" x="74.0000" y="256.0000" font-size="16.0000" ><![CDATA[NR Uu]]></text>
</g>
<g transform="matrix(0.0625 0.0000 0.0000 0.0625 0.0000 0.0000)">
<path d="M 3776.0000,832.0000 L 3776.0000,800.0000 C 3776.0000,792.0000 3784.0000,784.0000 3792.0000,784.0000 C 3801.0000,784.0000 3808.0000,792.0000 3808.0000,800.0000 L 3808.0000,832.0000 C 3808.0000,841.0000 3801.0000,848.0000 3792.0000,848.0000 C 3784.0000,848.0000 3776.0000,841.0000 3776.0000,832.0000 Z M 3776.0000,736.0000 L 3776.0000,704.0000 C 3776.0000,696.0000 3784.0000,688.0000 3792.0000,688.0000 C 3801.0000,688.0000 3808.0000,696.0000 3808.0000,704.0000 L 3808.0000,736.0000 C 3808.0000,745.0000 3801.0000,752.0000 3792.0000,752.0000 C 3784.0000,752.0000 3776.0000,745.0000 3776.0000,736.0000 Z M 3776.0000,640.0000 L 3776.0000,608.0000 C 3776.0000,600.0000 3784.0000,592.0000 3792.0000,592.0000 C 3801.0000,592.0000 3808.0000,600.0000 3808.0000,608.0000 L 3808.0000,640.0000 C 3808.0000,649.0000 3801.0000,656.0000 3792.0000,656.0000 C 3784.0000,656.0000 3776.0000,649.0000 3776.0000,640.0000 Z M 3776.0000,544.0000 L 3776.0000,512.0000 C 3776.0000,504.0000 3784.0000,496.0000 3792.0000,496.0000 C 3801.0000,496.0000 3808.0000,504.0000 3808.0000,512.0000 L 3808.0000,544.0000 C 3808.0000,553.0000 3801.0000,560.0000 3792.0000,560.0000 C 3784.0000,560.0000 3776.0000,553.0000 3776.0000,544.0000 Z "  fill="#000000" stroke="#000000" stroke-width="16.0000"  stroke-linecap="butt"  stroke-linejoin="bevel" />
</g>
<g transform="matrix(1.0000 0.0000 0.0000 1.0000 0.0000 0.0000)">
</g>
<g transform="matrix(0.0625 0.0000 0.0000 0.0625 0.0000 0.0000)">
<path d="M 1984.0000,832.0000 L 1984.0000,800.0000 C 1984.0000,792.0000 1992.0000,784.0000 2000.0000,784.0000 C 2009.0000,784.0000 2016.0000,792.0000 2016.0000,800.0000 L 2016.0000,832.0000 C 2016.0000,841.0000 2009.0000,848.0000 2000.0000,848.0000 C 1992.0000,848.0000 1984.0000,841.0000 1984.0000,832.0000 Z M 1984.0000,736.0000 L 1984.0000,704.0000 C 1984.0000,696.0000 1992.0000,688.0000 2000.0000,688.0000 C 2009.0000,688.0000 2016.0000,696.0000 2016.0000,704.0000 L 2016.0000,736.0000 C 2016.0000,745.0000 2009.0000,752.0000 2000.0000,752.0000 C 1992.0000,752.0000 1984.0000,745.0000 1984.0000,736.0000 Z M 1984.0000,640.0000 L 1984.0000,608.0000 C 1984.0000,600.0000 1992.0000,592.0000 2000.0000,592.0000 C 2009.0000,592.0000 2016.0000,600.0000 2016.0000,608.0000 L 2016.0000,640.0000 C 2016.0000,649.0000 2009.0000,656.0000 2000.0000,656.0000 C 1992.0000,656.0000 1984.0000,649.0000 1984.0000,640.0000 Z M 1984.0000,544.0000 L 1984.0000,512.0000 C 1984.0000,504.0000 1992.0000,496.0000 2000.0000,496.0000 C 2009.0000,496.0000 2016.0000,504.0000 2016.0000,512.0000 L 2016.0000,544.0000 C 2016.0000,553.0000 2009.0000,560.0000 2000.0000,560.0000 C 1992.0000,560.0000 1984.0000,553.0000 1984.0000,544.0000 Z "  fill="#000000" stroke="#000000" stroke-width="16.0000"  stroke-linecap="butt"  stroke-linejoin="bevel" />
</g>
<g transform="matrix(1.0000 0.0000 0.0000 1.0000 0.0000 0.0000)">
</g>
<g transform="matrix(0.0625 0.0000 0.0000 0.0625 0.0000 0.0000)">
<path d="M 2288.0000,4512.0000 L 2288.0000,5488.0000 L 3440.0000,5488.0000 L 3440.0000,4512.0000 L 2288.0000,4512.0000 Z" stroke-width="1px" stroke="#FFFFFF"  fill="#FFFFFF" />
</g>
<g transform="matrix(1.0000 0.0000 0.0000 1.0000 0.0000 0.0000)">
</g>
<g transform="matrix(0.0625 0.0000 0.0000 0.0625 0.0000 0.0000)">
<path d="M 2288.0000,5488.0000 L 3440.0000,5488.0000 L 3440.0000,4512.0000 L 2288.0000,4512.0000 L 2288.0000,5488.0000 Z" stroke="#000000" stroke-width="16.0000"  stroke-linecap="round"  stroke-linejoin="round" fill="none" />
</g>
<g transform="matrix(1.0000 0.0000 0.0000 1.0000 0.0000 0.0000)">
</g>
<g transform="matrix(0.0625 0.0000 0.0000 0.0625 0.0000 0.0000)">
<path d="M 2384.0000,4608.0000 L 2384.0000,4992.0000 L 3344.0000,4992.0000 L 3344.0000,4608.0000 L 2384.0000,4608.0000 Z" stroke-width="1px" stroke="#DBEEF3"  fill="#DBEEF3" />
</g>
<g transform="matrix(1.0000 0.0000 0.0000 1.0000 0.0000 0.0000)">
</g>
<g transform="matrix(0.0625 0.0000 0.0000 0.0625 0.0000 0.0000)">
<path d="M 2384.0000,4992.0000 L 3344.0000,4992.0000 L 3344.0000,4608.0000 L 2384.0000,4608.0000 L 2384.0000,4992.0000 Z" stroke="#000000" stroke-width="16.0000"  stroke-linecap="round"  stroke-linejoin="round" fill="none" />
</g>
<g transform="matrix(1.0000 0.0000 0.0000 1.0000 0.0000 0.0000)">
<text font-family="Calibri" fill="#000000" style ="white-space:pre;" font-weight="400" text-anchor="start" x="155.0000" y="304.0000" font-size="16.0000" ><![CDATA[IAB]]></text>
<text font-family="Calibri" fill="#000000" style ="white-space:pre;" font-weight="400" text-anchor="start" x="177.0000" y="304.0000" font-size="16.0000" ><![CDATA[-]]></text>
<text font-family="Calibri" fill="#000000" style ="white-space:pre;" font-weight="400" text-anchor="start" x="182.0000" y="304.0000" font-size="16.0000" ><![CDATA[MT]]></text>
</g>
<g transform="matrix(0.0625 0.0000 0.0000 0.0625 0.0000 0.0000)">
<path d="M 2384.0000,4992.0000 L 2384.0000,5376.0000 L 3344.0000,5376.0000 L 3344.0000,4992.0000 L 2384.0000,4992.0000 Z" stroke-width="1px" stroke="#FFFFFF"  fill="#FFFFFF" />
</g>
<g transform="matrix(1.0000 0.0000 0.0000 1.0000 0.0000 0.0000)">
</g>
<g transform="matrix(0.0625 0.0000 0.0000 0.0625 0.0000 0.0000)">
<path d="M 2384.0000,5376.0000 L 3344.0000,5376.0000 L 3344.0000,4992.0000 L 2384.0000,4992.0000 L 2384.0000,5376.0000 Z" stroke="#000000" stroke-width="16.0000"  stroke-linecap="round"  stroke-linejoin="round" fill="none" />
</g>
<g transform="matrix(1.0000 0.0000 0.0000 1.0000 0.0000 0.0000)">
</g>
<g transform="matrix(0.0625 0.0000 0.0000 0.0625 0.0000 0.0000)">
<path d="M 2864.0000,3488.0000 L 2864.0000,4608.0000 " stroke="#000000" stroke-width="32.0000"  stroke-linecap="round"  stroke-linejoin="round" fill="none" />
</g>
<g transform="matrix(1.0000 0.0000 0.0000 1.0000 0.0000 0.0000)">
</g>
<g transform="matrix(0.0625 0.0000 0.0000 0.0625 0.0000 0.0000)">
<path d="M 1200.0000,5760.0000 L 1200.0000,5728.0000 C 1200.0000,5720.0000 1208.0000,5712.0000 1216.0000,5712.0000 C 1225.0000,5712.0000 1232.0000,5720.0000 1232.0000,5728.0000 L 1232.0000,5760.0000 C 1232.0000,5769.0000 1225.0000,5776.0000 1216.0000,5776.0000 C 1208.0000,5776.0000 1200.0000,5769.0000 1200.0000,5760.0000 Z M 1200.0000,5664.0000 L 1200.0000,5632.0000 C 1200.0000,5624.0000 1208.0000,5616.0000 1216.0000,5616.0000 C 1225.0000,5616.0000 1232.0000,5624.0000 1232.0000,5632.0000 L 1232.0000,5664.0000 C 1232.0000,5673.0000 1225.0000,5680.0000 1216.0000,5680.0000 C 1208.0000,5680.0000 1200.0000,5673.0000 1200.0000,5664.0000 Z M 1200.0000,5568.0000 L 1200.0000,5536.0000 C 1200.0000,5528.0000 1208.0000,5520.0000 1216.0000,5520.0000 C 1225.0000,5520.0000 1232.0000,5528.0000 1232.0000,5536.0000 L 1232.0000,5568.0000 C 1232.0000,5577.0000 1225.0000,5584.0000 1216.0000,5584.0000 C 1208.0000,5584.0000 1200.0000,5577.0000 1200.0000,5568.0000 Z M 1200.0000,5472.0000 L 1200.0000,5440.0000 C 1200.0000,5432.0000 1208.0000,5424.0000 1216.0000,5424.0000 C 1225.0000,5424.0000 1232.0000,5432.0000 1232.0000,5440.0000 L 1232.0000,5472.0000 C 1232.0000,5481.0000 1225.0000,5488.0000 1216.0000,5488.0000 C 1208.0000,5488.0000 1200.0000,5481.0000 1200.0000,5472.0000 Z "  fill="#000000" stroke="#000000" stroke-width="16.0000"  stroke-linecap="butt"  stroke-linejoin="bevel" />
</g>
<g transform="matrix(1.0000 0.0000 0.0000 1.0000 0.0000 0.0000)">
</g>
<g transform="matrix(0.0625 0.0000 0.0000 0.0625 0.0000 0.0000)">
<path d="M 2880.0000,5760.0000 L 2880.0000,5728.0000 C 2880.0000,5720.0000 2888.0000,5712.0000 2896.0000,5712.0000 C 2905.0000,5712.0000 2912.0000,5720.0000 2912.0000,5728.0000 L 2912.0000,5760.0000 C 2912.0000,5769.0000 2905.0000,5776.0000 2896.0000,5776.0000 C 2888.0000,5776.0000 2880.0000,5769.0000 2880.0000,5760.0000 Z M 2880.0000,5664.0000 L 2880.0000,5632.0000 C 2880.0000,5624.0000 2888.0000,5616.0000 2896.0000,5616.0000 C 2905.0000,5616.0000 2912.0000,5624.0000 2912.0000,5632.0000 L 2912.0000,5664.0000 C 2912.0000,5673.0000 2905.0000,5680.0000 2896.0000,5680.0000 C 2888.0000,5680.0000 2880.0000,5673.0000 2880.0000,5664.0000 Z M 2880.0000,5568.0000 L 2880.0000,5536.0000 C 2880.0000,5528.0000 2888.0000,5520.0000 2896.0000,5520.0000 C 2905.0000,5520.0000 2912.0000,5528.0000 2912.0000,5536.0000 L 2912.0000,5568.0000 C 2912.0000,5577.0000 2905.0000,5584.0000 2896.0000,5584.0000 C 2888.0000,5584.0000 2880.0000,5577.0000 2880.0000,5568.0000 Z M 2880.0000,5472.0000 L 2880.0000,5440.0000 C 2880.0000,5432.0000 2888.0000,5424.0000 2896.0000,5424.0000 C 2905.0000,5424.0000 2912.0000,5432.0000 2912.0000,5440.0000 L 2912.0000,5472.0000 C 2912.0000,5481.0000 2905.0000,5488.0000 2896.0000,5488.0000 C 2888.0000,5488.0000 2880.0000,5481.0000 2880.0000,5472.0000 Z "  fill="#000000" stroke="#000000" stroke-width="16.0000"  stroke-linecap="butt"  stroke-linejoin="bevel" />
</g>
<g transform="matrix(1.0000 0.0000 0.0000 1.0000 0.0000 0.0000)">
</g>
<g transform="matrix(0.0625 0.0000 0.0000 0.0625 0.0000 0.0000)">
<path d="M 4464.0000,5728.0000 L 4464.0000,5696.0000 C 4464.0000,5688.0000 4472.0000,5680.0000 4480.0000,5680.0000 C 4489.0000,5680.0000 4496.0000,5688.0000 4496.0000,5696.0000 L 4496.0000,5728.0000 C 4496.0000,5737.0000 4489.0000,5744.0000 4480.0000,5744.0000 C 4472.0000,5744.0000 4464.0000,5737.0000 4464.0000,5728.0000 Z M 4464.0000,5632.0000 L 4464.0000,5600.0000 C 4464.0000,5592.0000 4472.0000,5584.0000 4480.0000,5584.0000 C 4489.0000,5584.0000 4496.0000,5592.0000 4496.0000,5600.0000 L 4496.0000,5632.0000 C 4496.0000,5641.0000 4489.0000,5648.0000 4480.0000,5648.0000 C 4472.0000,5648.0000 4464.0000,5641.0000 4464.0000,5632.0000 Z M 4464.0000,5536.0000 L 4464.0000,5504.0000 C 4464.0000,5496.0000 4472.0000,5488.0000 4480.0000,5488.0000 C 4489.0000,5488.0000 4496.0000,5496.0000 4496.0000,5504.0000 L 4496.0000,5536.0000 C 4496.0000,5545.0000 4489.0000,5552.0000 4480.0000,5552.0000 C 4472.0000,5552.0000 4464.0000,5545.0000 4464.0000,5536.0000 Z M 4464.0000,5440.0000 L 4464.0000,5408.0000 C 4464.0000,5400.0000 4472.0000,5392.0000 4480.0000,5392.0000 C 4489.0000,5392.0000 4496.0000,5400.0000 4496.0000,5408.0000 L 4496.0000,5440.0000 C 4496.0000,5449.0000 4489.0000,5456.0000 4480.0000,5456.0000 C 4472.0000,5456.0000 4464.0000,5449.0000 4464.0000,5440.0000 Z "  fill="#000000" stroke="#000000" stroke-width="16.0000"  stroke-linecap="butt"  stroke-linejoin="bevel" />
</g>
<g transform="matrix(1.0000 0.0000 0.0000 1.0000 0.0000 0.0000)">
</g>
</g>
</svg>
