<?xml version="1.0"  encoding="UTF-8" standalone="no"?>
<svg version="1.1" xmlns="http://www.w3.org/2000/svg" xmlns:xlink="http://www.w3.org/1999/xlink" width="242.0000" height="175.0000">
<g transform="translate(1.0000, 1.0000)">
<g transform="matrix(0.0625 0.0000 0.0000 0.0625 0.0000 0.0000)">
<path d="M 2305.0000,46.0000 L 2305.0000,158.0000 C 2305.0000,162.0000 2302.0000,166.0000 2297.0000,166.0000 C 2293.0000,166.0000 2289.0000,162.0000 2289.0000,158.0000 L 2289.0000,46.0000 C 2289.0000,41.0000 2293.0000,38.0000 2297.0000,38.0000 C 2302.0000,38.0000 2305.0000,41.0000 2305.0000,46.0000 Z M 2305.0000,238.0000 L 2305.0000,350.0000 C 2305.0000,354.0000 2302.0000,358.0000 2297.0000,358.0000 C 2293.0000,358.0000 2289.0000,354.0000 2289.0000,350.0000 L 2289.0000,238.0000 C 2289.0000,233.0000 2293.0000,230.0000 2297.0000,230.0000 C 2302.0000,230.0000 2305.0000,233.0000 2305.0000,238.0000 Z M 2305.0000,430.0000 L 2305.0000,542.0000 C 2305.0000,546.0000 2302.0000,550.0000 2297.0000,550.0000 C 2293.0000,550.0000 2289.0000,546.0000 2289.0000,542.0000 L 2289.0000,430.0000 C 2289.0000,425.0000 2293.0000,422.0000 2297.0000,422.0000 C 2302.0000,422.0000 2305.0000,425.0000 2305.0000,430.0000 Z M 2305.0000,622.0000 L 2305.0000,734.0000 C 2305.0000,738.0000 2302.0000,742.0000 2297.0000,742.0000 C 2293.0000,742.0000 2289.0000,738.0000 2289.0000,734.0000 L 2289.0000,622.0000 C 2289.0000,617.0000 2293.0000,614.0000 2297.0000,614.0000 C 2302.0000,614.0000 2305.0000,617.0000 2305.0000,622.0000 Z M 2305.0000,814.0000 L 2305.0000,926.0000 C 2305.0000,930.0000 2302.0000,934.0000 2297.0000,934.0000 C 2293.0000,934.0000 2289.0000,930.0000 2289.0000,926.0000 L 2289.0000,814.0000 C 2289.0000,809.0000 2293.0000,806.0000 2297.0000,806.0000 C 2302.0000,806.0000 2305.0000,809.0000 2305.0000,814.0000 Z M 2305.0000,1006.0000 L 2305.0000,1118.0000 C 2305.0000,1122.0000 2302.0000,1126.0000 2297.0000,1126.0000 C 2293.0000,1126.0000 2289.0000,1122.0000 2289.0000,1118.0000 L 2289.0000,1006.0000 C 2289.0000,1001.0000 2293.0000,998.0000 2297.0000,998.0000 C 2302.0000,998.0000 2305.0000,1001.0000 2305.0000,1006.0000 Z M 2305.0000,1198.0000 L 2305.0000,1310.0000 C 2305.0000,1314.0000 2302.0000,1318.0000 2297.0000,1318.0000 C 2293.0000,1318.0000 2289.0000,1314.0000 2289.0000,1310.0000 L 2289.0000,1198.0000 C 2289.0000,1193.0000 2293.0000,1190.0000 2297.0000,1190.0000 C 2302.0000,1190.0000 2305.0000,1193.0000 2305.0000,1198.0000 Z M 2305.0000,1390.0000 L 2305.0000,1502.0000 C 2305.0000,1506.0000 2302.0000,1510.0000 2297.0000,1510.0000 C 2293.0000,1510.0000 2289.0000,1506.0000 2289.0000,1502.0000 L 2289.0000,1390.0000 C 2289.0000,1385.0000 2293.0000,1382.0000 2297.0000,1382.0000 C 2302.0000,1382.0000 2305.0000,1385.0000 2305.0000,1390.0000 Z M 2305.0000,1582.0000 L 2305.0000,1694.0000 C 2305.0000,1698.0000 2302.0000,1702.0000 2297.0000,1702.0000 C 2293.0000,1702.0000 2289.0000,1698.0000 2289.0000,1694.0000 L 2289.0000,1582.0000 C 2289.0000,1577.0000 2293.0000,1574.0000 2297.0000,1574.0000 C 2302.0000,1574.0000 2305.0000,1577.0000 2305.0000,1582.0000 Z M 2305.0000,1774.0000 L 2305.0000,1886.0000 C 2305.0000,1890.0000 2302.0000,1894.0000 2297.0000,1894.0000 C 2293.0000,1894.0000 2289.0000,1890.0000 2289.0000,1886.0000 L 2289.0000,1774.0000 C 2289.0000,1769.0000 2293.0000,1766.0000 2297.0000,1766.0000 C 2302.0000,1766.0000 2305.0000,1769.0000 2305.0000,1774.0000 Z M 2305.0000,1966.0000 L 2305.0000,2078.0000 C 2305.0000,2082.0000 2302.0000,2086.0000 2297.0000,2086.0000 C 2293.0000,2086.0000 2289.0000,2082.0000 2289.0000,2078.0000 L 2289.0000,1966.0000 C 2289.0000,1961.0000 2293.0000,1958.0000 2297.0000,1958.0000 C 2302.0000,1958.0000 2305.0000,1961.0000 2305.0000,1966.0000 Z M 2305.0000,2158.0000 L 2305.0000,2270.0000 C 2305.0000,2274.0000 2302.0000,2278.0000 2297.0000,2278.0000 C 2293.0000,2278.0000 2289.0000,2274.0000 2289.0000,2270.0000 L 2289.0000,2158.0000 C 2289.0000,2153.0000 2293.0000,2150.0000 2297.0000,2150.0000 C 2302.0000,2150.0000 2305.0000,2153.0000 2305.0000,2158.0000 Z M 2305.0000,2350.0000 L 2305.0000,2462.0000 C 2305.0000,2466.0000 2302.0000,2470.0000 2297.0000,2470.0000 C 2293.0000,2470.0000 2289.0000,2466.0000 2289.0000,2462.0000 L 2289.0000,2350.0000 C 2289.0000,2345.0000 2293.0000,2342.0000 2297.0000,2342.0000 C 2302.0000,2342.0000 2305.0000,2345.0000 2305.0000,2350.0000 Z M 2305.0000,2542.0000 L 2305.0000,2654.0000 C 2305.0000,2658.0000 2302.0000,2662.0000 2297.0000,2662.0000 C 2293.0000,2662.0000 2289.0000,2658.0000 2289.0000,2654.0000 L 2289.0000,2542.0000 C 2289.0000,2537.0000 2293.0000,2534.0000 2297.0000,2534.0000 C 2302.0000,2534.0000 2305.0000,2537.0000 2305.0000,2542.0000 Z M 2305.0000,2734.0000 L 2305.0000,2751.0000 L 2297.0000,2743.0000 L 2392.0000,2743.0000 C 2396.0000,2743.0000 2400.0000,2746.0000 2400.0000,2751.0000 C 2400.0000,2755.0000 2396.0000,2759.0000 2392.0000,2759.0000 L 2297.0000,2759.0000 C 2293.0000,2759.0000 2289.0000,2755.0000 2289.0000,2751.0000 L 2289.0000,2734.0000 C 2289.0000,2729.0000 2293.0000,2726.0000 2297.0000,2726.0000 C 2302.0000,2726.0000 2305.0000,2729.0000 2305.0000,2734.0000 Z M 2472.0000,2743.0000 L 2584.0000,2743.0000 C 2588.0000,2743.0000 2592.0000,2746.0000 2592.0000,2751.0000 C 2592.0000,2755.0000 2588.0000,2759.0000 2584.0000,2759.0000 L 2472.0000,2759.0000 C 2468.0000,2759.0000 2464.0000,2755.0000 2464.0000,2751.0000 C 2464.0000,2746.0000 2468.0000,2743.0000 2472.0000,2743.0000 Z M 2664.0000,2743.0000 L 2776.0000,2743.0000 C 2780.0000,2743.0000 2784.0000,2746.0000 2784.0000,2751.0000 C 2784.0000,2755.0000 2780.0000,2759.0000 2776.0000,2759.0000 L 2664.0000,2759.0000 C 2660.0000,2759.0000 2656.0000,2755.0000 2656.0000,2751.0000 C 2656.0000,2746.0000 2660.0000,2743.0000 2664.0000,2743.0000 Z M 2856.0000,2743.0000 L 2968.0000,2743.0000 C 2972.0000,2743.0000 2976.0000,2746.0000 2976.0000,2751.0000 C 2976.0000,2755.0000 2972.0000,2759.0000 2968.0000,2759.0000 L 2856.0000,2759.0000 C 2852.0000,2759.0000 2848.0000,2755.0000 2848.0000,2751.0000 C 2848.0000,2746.0000 2852.0000,2743.0000 2856.0000,2743.0000 Z M 3048.0000,2743.0000 L 3160.0000,2743.0000 C 3164.0000,2743.0000 3168.0000,2746.0000 3168.0000,2751.0000 C 3168.0000,2755.0000 3164.0000,2759.0000 3160.0000,2759.0000 L 3048.0000,2759.0000 C 3044.0000,2759.0000 3040.0000,2755.0000 3040.0000,2751.0000 C 3040.0000,2746.0000 3044.0000,2743.0000 3048.0000,2743.0000 Z M 3240.0000,2743.0000 L 3352.0000,2743.0000 C 3356.0000,2743.0000 3360.0000,2746.0000 3360.0000,2751.0000 C 3360.0000,2755.0000 3356.0000,2759.0000 3352.0000,2759.0000 L 3240.0000,2759.0000 C 3236.0000,2759.0000 3232.0000,2755.0000 3232.0000,2751.0000 C 3232.0000,2746.0000 3236.0000,2743.0000 3240.0000,2743.0000 Z M 3432.0000,2743.0000 L 3544.0000,2743.0000 C 3548.0000,2743.0000 3552.0000,2746.0000 3552.0000,2751.0000 C 3552.0000,2755.0000 3548.0000,2759.0000 3544.0000,2759.0000 L 3432.0000,2759.0000 C 3428.0000,2759.0000 3424.0000,2755.0000 3424.0000,2751.0000 C 3424.0000,2746.0000 3428.0000,2743.0000 3432.0000,2743.0000 Z M 3624.0000,2743.0000 L 3736.0000,2743.0000 C 3740.0000,2743.0000 3744.0000,2746.0000 3744.0000,2751.0000 C 3744.0000,2755.0000 3740.0000,2759.0000 3736.0000,2759.0000 L 3624.0000,2759.0000 C 3620.0000,2759.0000 3616.0000,2755.0000 3616.0000,2751.0000 C 3616.0000,2746.0000 3620.0000,2743.0000 3624.0000,2743.0000 Z M 3801.0000,2744.0000 L 3801.0000,2632.0000 C 3801.0000,2628.0000 3805.0000,2624.0000 3809.0000,2624.0000 C 3814.0000,2624.0000 3817.0000,2628.0000 3817.0000,2632.0000 L 3817.0000,2744.0000 C 3817.0000,2748.0000 3814.0000,2752.0000 3809.0000,2752.0000 C 3805.0000,2752.0000 3801.0000,2748.0000 3801.0000,2744.0000 Z M 3801.0000,2552.0000 L 3801.0000,2440.0000 C 3801.0000,2436.0000 3805.0000,2432.0000 3809.0000,2432.0000 C 3814.0000,2432.0000 3817.0000,2436.0000 3817.0000,2440.0000 L 3817.0000,2552.0000 C 3817.0000,2556.0000 3814.0000,2560.0000 3809.0000,2560.0000 C 3805.0000,2560.0000 3801.0000,2556.0000 3801.0000,2552.0000 Z M 3801.0000,2360.0000 L 3801.0000,2248.0000 C 3801.0000,2244.0000 3805.0000,2240.0000 3809.0000,2240.0000 C 3814.0000,2240.0000 3817.0000,2244.0000 3817.0000,2248.0000 L 3817.0000,2360.0000 C 3817.0000,2364.0000 3814.0000,2368.0000 3809.0000,2368.0000 C 3805.0000,2368.0000 3801.0000,2364.0000 3801.0000,2360.0000 Z M 3801.0000,2168.0000 L 3801.0000,2056.0000 C 3801.0000,2052.0000 3805.0000,2048.0000 3809.0000,2048.0000 C 3814.0000,2048.0000 3817.0000,2052.0000 3817.0000,2056.0000 L 3817.0000,2168.0000 C 3817.0000,2172.0000 3814.0000,2176.0000 3809.0000,2176.0000 C 3805.0000,2176.0000 3801.0000,2172.0000 3801.0000,2168.0000 Z M 3801.0000,1976.0000 L 3801.0000,1864.0000 C 3801.0000,1860.0000 3805.0000,1856.0000 3809.0000,1856.0000 C 3814.0000,1856.0000 3817.0000,1860.0000 3817.0000,1864.0000 L 3817.0000,1976.0000 C 3817.0000,1980.0000 3814.0000,1984.0000 3809.0000,1984.0000 C 3805.0000,1984.0000 3801.0000,1980.0000 3801.0000,1976.0000 Z M 3801.0000,1784.0000 L 3801.0000,1672.0000 C 3801.0000,1668.0000 3805.0000,1664.0000 3809.0000,1664.0000 C 3814.0000,1664.0000 3817.0000,1668.0000 3817.0000,1672.0000 L 3817.0000,1784.0000 C 3817.0000,1788.0000 3814.0000,1792.0000 3809.0000,1792.0000 C 3805.0000,1792.0000 3801.0000,1788.0000 3801.0000,1784.0000 Z M 3801.0000,1592.0000 L 3801.0000,1480.0000 C 3801.0000,1476.0000 3805.0000,1472.0000 3809.0000,1472.0000 C 3814.0000,1472.0000 3817.0000,1476.0000 3817.0000,1480.0000 L 3817.0000,1592.0000 C 3817.0000,1596.0000 3814.0000,1600.0000 3809.0000,1600.0000 C 3805.0000,1600.0000 3801.0000,1596.0000 3801.0000,1592.0000 Z M 3801.0000,1400.0000 L 3801.0000,1288.0000 C 3801.0000,1284.0000 3805.0000,1280.0000 3809.0000,1280.0000 C 3814.0000,1280.0000 3817.0000,1284.0000 3817.0000,1288.0000 L 3817.0000,1400.0000 C 3817.0000,1404.0000 3814.0000,1408.0000 3809.0000,1408.0000 C 3805.0000,1408.0000 3801.0000,1404.0000 3801.0000,1400.0000 Z M 3801.0000,1208.0000 L 3801.0000,1096.0000 C 3801.0000,1092.0000 3805.0000,1088.0000 3809.0000,1088.0000 C 3814.0000,1088.0000 3817.0000,1092.0000 3817.0000,1096.0000 L 3817.0000,1208.0000 C 3817.0000,1212.0000 3814.0000,1216.0000 3809.0000,1216.0000 C 3805.0000,1216.0000 3801.0000,1212.0000 3801.0000,1208.0000 Z M 3801.0000,1016.0000 L 3801.0000,904.0000 C 3801.0000,900.0000 3805.0000,896.0000 3809.0000,896.0000 C 3814.0000,896.0000 3817.0000,900.0000 3817.0000,904.0000 L 3817.0000,1016.0000 C 3817.0000,1020.0000 3814.0000,1024.0000 3809.0000,1024.0000 C 3805.0000,1024.0000 3801.0000,1020.0000 3801.0000,1016.0000 Z M 3801.0000,824.0000 L 3801.0000,712.0000 C 3801.0000,708.0000 3805.0000,704.0000 3809.0000,704.0000 C 3814.0000,704.0000 3817.0000,708.0000 3817.0000,712.0000 L 3817.0000,824.0000 C 3817.0000,828.0000 3814.0000,832.0000 3809.0000,832.0000 C 3805.0000,832.0000 3801.0000,828.0000 3801.0000,824.0000 Z M 3801.0000,632.0000 L 3801.0000,520.0000 C 3801.0000,516.0000 3805.0000,512.0000 3809.0000,512.0000 C 3814.0000,512.0000 3817.0000,516.0000 3817.0000,520.0000 L 3817.0000,632.0000 C 3817.0000,636.0000 3814.0000,640.0000 3809.0000,640.0000 C 3805.0000,640.0000 3801.0000,636.0000 3801.0000,632.0000 Z M 3801.0000,440.0000 L 3801.0000,328.0000 C 3801.0000,324.0000 3805.0000,320.0000 3809.0000,320.0000 C 3814.0000,320.0000 3817.0000,324.0000 3817.0000,328.0000 L 3817.0000,440.0000 C 3817.0000,444.0000 3814.0000,448.0000 3809.0000,448.0000 C 3805.0000,448.0000 3801.0000,444.0000 3801.0000,440.0000 Z M 3801.0000,248.0000 L 3801.0000,136.0000 C 3801.0000,132.0000 3805.0000,128.0000 3809.0000,128.0000 C 3814.0000,128.0000 3817.0000,132.0000 3817.0000,136.0000 L 3817.0000,248.0000 C 3817.0000,252.0000 3814.0000,256.0000 3809.0000,256.0000 C 3805.0000,256.0000 3801.0000,252.0000 3801.0000,248.0000 Z M 3801.0000,56.0000 L 3801.0000,30.0000 L 3809.0000,38.0000 L 3723.0000,38.0000 C 3719.0000,38.0000 3715.0000,34.0000 3715.0000,30.0000 C 3715.0000,25.0000 3719.0000,22.0000 3723.0000,22.0000 L 3809.0000,22.0000 C 3814.0000,22.0000 3817.0000,25.0000 3817.0000,30.0000 L 3817.0000,56.0000 C 3817.0000,60.0000 3814.0000,64.0000 3809.0000,64.0000 C 3805.0000,64.0000 3801.0000,60.0000 3801.0000,56.0000 Z M 3643.0000,38.0000 L 3531.0000,38.0000 C 3527.0000,38.0000 3523.0000,34.0000 3523.0000,30.0000 C 3523.0000,25.0000 3527.0000,22.0000 3531.0000,22.0000 L 3643.0000,22.0000 C 3648.0000,22.0000 3651.0000,25.0000 3651.0000,30.0000 C 3651.0000,34.0000 3648.0000,38.0000 3643.0000,38.0000 Z M 3451.0000,38.0000 L 3339.0000,38.0000 C 3335.0000,38.0000 3331.0000,34.0000 3331.0000,30.0000 C 3331.0000,25.0000 3335.0000,22.0000 3339.0000,22.0000 L 3451.0000,22.0000 C 3456.0000,22.0000 3459.0000,25.0000 3459.0000,30.0000 C 3459.0000,34.0000 3456.0000,38.0000 3451.0000,38.0000 Z M 3259.0000,38.0000 L 3147.0000,38.0000 C 3143.0000,38.0000 3139.0000,34.0000 3139.0000,30.0000 C 3139.0000,25.0000 3143.0000,22.0000 3147.0000,22.0000 L 3259.0000,22.0000 C 3264.0000,22.0000 3267.0000,25.0000 3267.0000,30.0000 C 3267.0000,34.0000 3264.0000,38.0000 3259.0000,38.0000 Z M 3067.0000,38.0000 L 2955.0000,38.0000 C 2951.0000,38.0000 2947.0000,34.0000 2947.0000,30.0000 C 2947.0000,25.0000 2951.0000,22.0000 2955.0000,22.0000 L 3067.0000,22.0000 C 3072.0000,22.0000 3075.0000,25.0000 3075.0000,30.0000 C 3075.0000,34.0000 3072.0000,38.0000 3067.0000,38.0000 Z M 2875.0000,38.0000 L 2763.0000,38.0000 C 2759.0000,38.0000 2755.0000,34.0000 2755.0000,30.0000 C 2755.0000,25.0000 2759.0000,22.0000 2763.0000,22.0000 L 2875.0000,22.0000 C 2880.0000,22.0000 2883.0000,25.0000 2883.0000,30.0000 C 2883.0000,34.0000 2880.0000,38.0000 2875.0000,38.0000 Z M 2683.0000,38.0000 L 2571.0000,38.0000 C 2567.0000,38.0000 2563.0000,34.0000 2563.0000,30.0000 C 2563.0000,25.0000 2567.0000,22.0000 2571.0000,22.0000 L 2683.0000,22.0000 C 2688.0000,22.0000 2691.0000,25.0000 2691.0000,30.0000 C 2691.0000,34.0000 2688.0000,38.0000 2683.0000,38.0000 Z M 2491.0000,38.0000 L 2379.0000,38.0000 C 2375.0000,38.0000 2371.0000,34.0000 2371.0000,30.0000 C 2371.0000,25.0000 2375.0000,22.0000 2379.0000,22.0000 L 2491.0000,22.0000 C 2496.0000,22.0000 2499.0000,25.0000 2499.0000,30.0000 C 2499.0000,34.0000 2496.0000,38.0000 2491.0000,38.0000 Z M 2299.0000,38.0000 L 2297.0000,38.0000 C 2293.0000,38.0000 2289.0000,34.0000 2289.0000,30.0000 C 2289.0000,25.0000 2293.0000,22.0000 2297.0000,22.0000 L 2299.0000,22.0000 C 2304.0000,22.0000 2307.0000,25.0000 2307.0000,30.0000 C 2307.0000,34.0000 2304.0000,38.0000 2299.0000,38.0000 Z "  fill="#000000" stroke="#000000" stroke-width="16.0000"  stroke-linecap="butt"  stroke-linejoin="bevel" />
</g>
<g transform="matrix(1.0000 0.0000 0.0000 1.0000 0.0000 0.0000)">
<text font-family="Arial" fill="#000000" style ="white-space:pre;" font-weight="400" text-anchor="start" x="149.0000" y="17.0000" font-size="11.0000" ><![CDATA[UE B]]></text>
</g>
<g transform="matrix(0.0625 0.0000 0.0000 0.0625 0.0000 0.0000)">
<path d="M 2448.0000,2600.0000 L 3658.0000,2600.0000 L 3658.0000,2297.0000 L 2448.0000,2297.0000 L 2448.0000,2600.0000 Z" stroke="#000000" stroke-width="5.0000"  stroke-linecap="round"  stroke-linejoin="round" fill="none" />
</g>
<g transform="matrix(1.0000 0.0000 0.0000 1.0000 0.0000 0.0000)">
<text font-family="Arial" fill="#000000" style ="white-space:pre;" font-weight="400" text-anchor="start" x="180.0000" y="156.0000" font-size="11.0000" ><![CDATA[PHY]]></text>
</g>
<g transform="matrix(0.0625 0.0000 0.0000 0.0625 0.0000 0.0000)">
<path d="M 38.0000,46.0000 L 38.0000,158.0000 C 38.0000,162.0000 34.0000,166.0000 30.0000,166.0000 C 25.0000,166.0000 22.0000,162.0000 22.0000,158.0000 L 22.0000,46.0000 C 22.0000,41.0000 25.0000,38.0000 30.0000,38.0000 C 34.0000,38.0000 38.0000,41.0000 38.0000,46.0000 Z M 38.0000,238.0000 L 38.0000,350.0000 C 38.0000,354.0000 34.0000,358.0000 30.0000,358.0000 C 25.0000,358.0000 22.0000,354.0000 22.0000,350.0000 L 22.0000,238.0000 C 22.0000,233.0000 25.0000,230.0000 30.0000,230.0000 C 34.0000,230.0000 38.0000,233.0000 38.0000,238.0000 Z M 38.0000,430.0000 L 38.0000,542.0000 C 38.0000,546.0000 34.0000,550.0000 30.0000,550.0000 C 25.0000,550.0000 22.0000,546.0000 22.0000,542.0000 L 22.0000,430.0000 C 22.0000,425.0000 25.0000,422.0000 30.0000,422.0000 C 34.0000,422.0000 38.0000,425.0000 38.0000,430.0000 Z M 38.0000,622.0000 L 38.0000,734.0000 C 38.0000,738.0000 34.0000,742.0000 30.0000,742.0000 C 25.0000,742.0000 22.0000,738.0000 22.0000,734.0000 L 22.0000,622.0000 C 22.0000,617.0000 25.0000,614.0000 30.0000,614.0000 C 34.0000,614.0000 38.0000,617.0000 38.0000,622.0000 Z M 38.0000,814.0000 L 38.0000,926.0000 C 38.0000,930.0000 34.0000,934.0000 30.0000,934.0000 C 25.0000,934.0000 22.0000,930.0000 22.0000,926.0000 L 22.0000,814.0000 C 22.0000,809.0000 25.0000,806.0000 30.0000,806.0000 C 34.0000,806.0000 38.0000,809.0000 38.0000,814.0000 Z M 38.0000,1006.0000 L 38.0000,1118.0000 C 38.0000,1122.0000 34.0000,1126.0000 30.0000,1126.0000 C 25.0000,1126.0000 22.0000,1122.0000 22.0000,1118.0000 L 22.0000,1006.0000 C 22.0000,1001.0000 25.0000,998.0000 30.0000,998.0000 C 34.0000,998.0000 38.0000,1001.0000 38.0000,1006.0000 Z M 38.0000,1198.0000 L 38.0000,1310.0000 C 38.0000,1314.0000 34.0000,1318.0000 30.0000,1318.0000 C 25.0000,1318.0000 22.0000,1314.0000 22.0000,1310.0000 L 22.0000,1198.0000 C 22.0000,1193.0000 25.0000,1190.0000 30.0000,1190.0000 C 34.0000,1190.0000 38.0000,1193.0000 38.0000,1198.0000 Z M 38.0000,1390.0000 L 38.0000,1502.0000 C 38.0000,1506.0000 34.0000,1510.0000 30.0000,1510.0000 C 25.0000,1510.0000 22.0000,1506.0000 22.0000,1502.0000 L 22.0000,1390.0000 C 22.0000,1385.0000 25.0000,1382.0000 30.0000,1382.0000 C 34.0000,1382.0000 38.0000,1385.0000 38.0000,1390.0000 Z M 38.0000,1582.0000 L 38.0000,1694.0000 C 38.0000,1698.0000 34.0000,1702.0000 30.0000,1702.0000 C 25.0000,1702.0000 22.0000,1698.0000 22.0000,1694.0000 L 22.0000,1582.0000 C 22.0000,1577.0000 25.0000,1574.0000 30.0000,1574.0000 C 34.0000,1574.0000 38.0000,1577.0000 38.0000,1582.0000 Z M 38.0000,1774.0000 L 38.0000,1886.0000 C 38.0000,1890.0000 34.0000,1894.0000 30.0000,1894.0000 C 25.0000,1894.0000 22.0000,1890.0000 22.0000,1886.0000 L 22.0000,1774.0000 C 22.0000,1769.0000 25.0000,1766.0000 30.0000,1766.0000 C 34.0000,1766.0000 38.0000,1769.0000 38.0000,1774.0000 Z M 38.0000,1966.0000 L 38.0000,2078.0000 C 38.0000,2082.0000 34.0000,2086.0000 30.0000,2086.0000 C 25.0000,2086.0000 22.0000,2082.0000 22.0000,2078.0000 L 22.0000,1966.0000 C 22.0000,1961.0000 25.0000,1958.0000 30.0000,1958.0000 C 34.0000,1958.0000 38.0000,1961.0000 38.0000,1966.0000 Z M 38.0000,2158.0000 L 38.0000,2270.0000 C 38.0000,2274.0000 34.0000,2278.0000 30.0000,2278.0000 C 25.0000,2278.0000 22.0000,2274.0000 22.0000,2270.0000 L 22.0000,2158.0000 C 22.0000,2153.0000 25.0000,2150.0000 30.0000,2150.0000 C 34.0000,2150.0000 38.0000,2153.0000 38.0000,2158.0000 Z M 38.0000,2350.0000 L 38.0000,2462.0000 C 38.0000,2466.0000 34.0000,2470.0000 30.0000,2470.0000 C 25.0000,2470.0000 22.0000,2466.0000 22.0000,2462.0000 L 22.0000,2350.0000 C 22.0000,2345.0000 25.0000,2342.0000 30.0000,2342.0000 C 34.0000,2342.0000 38.0000,2345.0000 38.0000,2350.0000 Z M 38.0000,2542.0000 L 38.0000,2654.0000 C 38.0000,2658.0000 34.0000,2662.0000 30.0000,2662.0000 C 25.0000,2662.0000 22.0000,2658.0000 22.0000,2654.0000 L 22.0000,2542.0000 C 22.0000,2537.0000 25.0000,2534.0000 30.0000,2534.0000 C 34.0000,2534.0000 38.0000,2537.0000 38.0000,2542.0000 Z M 38.0000,2734.0000 L 38.0000,2751.0000 L 30.0000,2743.0000 L 124.0000,2743.0000 C 129.0000,2743.0000 132.0000,2746.0000 132.0000,2751.0000 C 132.0000,2755.0000 129.0000,2759.0000 124.0000,2759.0000 L 30.0000,2759.0000 C 25.0000,2759.0000 22.0000,2755.0000 22.0000,2751.0000 L 22.0000,2734.0000 C 22.0000,2729.0000 25.0000,2726.0000 30.0000,2726.0000 C 34.0000,2726.0000 38.0000,2729.0000 38.0000,2734.0000 Z M 204.0000,2743.0000 L 316.0000,2743.0000 C 321.0000,2743.0000 324.0000,2746.0000 324.0000,2751.0000 C 324.0000,2755.0000 321.0000,2759.0000 316.0000,2759.0000 L 204.0000,2759.0000 C 200.0000,2759.0000 196.0000,2755.0000 196.0000,2751.0000 C 196.0000,2746.0000 200.0000,2743.0000 204.0000,2743.0000 Z M 396.0000,2743.0000 L 508.0000,2743.0000 C 513.0000,2743.0000 516.0000,2746.0000 516.0000,2751.0000 C 516.0000,2755.0000 513.0000,2759.0000 508.0000,2759.0000 L 396.0000,2759.0000 C 392.0000,2759.0000 388.0000,2755.0000 388.0000,2751.0000 C 388.0000,2746.0000 392.0000,2743.0000 396.0000,2743.0000 Z M 588.0000,2743.0000 L 700.0000,2743.0000 C 705.0000,2743.0000 708.0000,2746.0000 708.0000,2751.0000 C 708.0000,2755.0000 705.0000,2759.0000 700.0000,2759.0000 L 588.0000,2759.0000 C 584.0000,2759.0000 580.0000,2755.0000 580.0000,2751.0000 C 580.0000,2746.0000 584.0000,2743.0000 588.0000,2743.0000 Z M 780.0000,2743.0000 L 892.0000,2743.0000 C 897.0000,2743.0000 900.0000,2746.0000 900.0000,2751.0000 C 900.0000,2755.0000 897.0000,2759.0000 892.0000,2759.0000 L 780.0000,2759.0000 C 776.0000,2759.0000 772.0000,2755.0000 772.0000,2751.0000 C 772.0000,2746.0000 776.0000,2743.0000 780.0000,2743.0000 Z M 972.0000,2743.0000 L 1084.0000,2743.0000 C 1089.0000,2743.0000 1092.0000,2746.0000 1092.0000,2751.0000 C 1092.0000,2755.0000 1089.0000,2759.0000 1084.0000,2759.0000 L 972.0000,2759.0000 C 968.0000,2759.0000 964.0000,2755.0000 964.0000,2751.0000 C 964.0000,2746.0000 968.0000,2743.0000 972.0000,2743.0000 Z M 1164.0000,2743.0000 L 1276.0000,2743.0000 C 1281.0000,2743.0000 1284.0000,2746.0000 1284.0000,2751.0000 C 1284.0000,2755.0000 1281.0000,2759.0000 1276.0000,2759.0000 L 1164.0000,2759.0000 C 1160.0000,2759.0000 1156.0000,2755.0000 1156.0000,2751.0000 C 1156.0000,2746.0000 1160.0000,2743.0000 1164.0000,2743.0000 Z M 1356.0000,2743.0000 L 1468.0000,2743.0000 C 1473.0000,2743.0000 1476.0000,2746.0000 1476.0000,2751.0000 C 1476.0000,2755.0000 1473.0000,2759.0000 1468.0000,2759.0000 L 1356.0000,2759.0000 C 1352.0000,2759.0000 1348.0000,2755.0000 1348.0000,2751.0000 C 1348.0000,2746.0000 1352.0000,2743.0000 1356.0000,2743.0000 Z M 1533.0000,2744.0000 L 1533.0000,2632.0000 C 1533.0000,2628.0000 1537.0000,2624.0000 1541.0000,2624.0000 C 1546.0000,2624.0000 1549.0000,2628.0000 1549.0000,2632.0000 L 1549.0000,2744.0000 C 1549.0000,2748.0000 1546.0000,2752.0000 1541.0000,2752.0000 C 1537.0000,2752.0000 1533.0000,2748.0000 1533.0000,2744.0000 Z M 1533.0000,2552.0000 L 1533.0000,2440.0000 C 1533.0000,2436.0000 1537.0000,2432.0000 1541.0000,2432.0000 C 1546.0000,2432.0000 1549.0000,2436.0000 1549.0000,2440.0000 L 1549.0000,2552.0000 C 1549.0000,2556.0000 1546.0000,2560.0000 1541.0000,2560.0000 C 1537.0000,2560.0000 1533.0000,2556.0000 1533.0000,2552.0000 Z M 1533.0000,2360.0000 L 1533.0000,2248.0000 C 1533.0000,2244.0000 1537.0000,2240.0000 1541.0000,2240.0000 C 1546.0000,2240.0000 1549.0000,2244.0000 1549.0000,2248.0000 L 1549.0000,2360.0000 C 1549.0000,2364.0000 1546.0000,2368.0000 1541.0000,2368.0000 C 1537.0000,2368.0000 1533.0000,2364.0000 1533.0000,2360.0000 Z M 1533.0000,2168.0000 L 1533.0000,2056.0000 C 1533.0000,2052.0000 1537.0000,2048.0000 1541.0000,2048.0000 C 1546.0000,2048.0000 1549.0000,2052.0000 1549.0000,2056.0000 L 1549.0000,2168.0000 C 1549.0000,2172.0000 1546.0000,2176.0000 1541.0000,2176.0000 C 1537.0000,2176.0000 1533.0000,2172.0000 1533.0000,2168.0000 Z M 1533.0000,1976.0000 L 1533.0000,1864.0000 C 1533.0000,1860.0000 1537.0000,1856.0000 1541.0000,1856.0000 C 1546.0000,1856.0000 1549.0000,1860.0000 1549.0000,1864.0000 L 1549.0000,1976.0000 C 1549.0000,1980.0000 1546.0000,1984.0000 1541.0000,1984.0000 C 1537.0000,1984.0000 1533.0000,1980.0000 1533.0000,1976.0000 Z M 1533.0000,1784.0000 L 1533.0000,1672.0000 C 1533.0000,1668.0000 1537.0000,1664.0000 1541.0000,1664.0000 C 1546.0000,1664.0000 1549.0000,1668.0000 1549.0000,1672.0000 L 1549.0000,1784.0000 C 1549.0000,1788.0000 1546.0000,1792.0000 1541.0000,1792.0000 C 1537.0000,1792.0000 1533.0000,1788.0000 1533.0000,1784.0000 Z M 1533.0000,1592.0000 L 1533.0000,1480.0000 C 1533.0000,1476.0000 1537.0000,1472.0000 1541.0000,1472.0000 C 1546.0000,1472.0000 1549.0000,1476.0000 1549.0000,1480.0000 L 1549.0000,1592.0000 C 1549.0000,1596.0000 1546.0000,1600.0000 1541.0000,1600.0000 C 1537.0000,1600.0000 1533.0000,1596.0000 1533.0000,1592.0000 Z M 1533.0000,1400.0000 L 1533.0000,1288.0000 C 1533.0000,1284.0000 1537.0000,1280.0000 1541.0000,1280.0000 C 1546.0000,1280.0000 1549.0000,1284.0000 1549.0000,1288.0000 L 1549.0000,1400.0000 C 1549.0000,1404.0000 1546.0000,1408.0000 1541.0000,1408.0000 C 1537.0000,1408.0000 1533.0000,1404.0000 1533.0000,1400.0000 Z M 1533.0000,1208.0000 L 1533.0000,1096.0000 C 1533.0000,1092.0000 1537.0000,1088.0000 1541.0000,1088.0000 C 1546.0000,1088.0000 1549.0000,1092.0000 1549.0000,1096.0000 L 1549.0000,1208.0000 C 1549.0000,1212.0000 1546.0000,1216.0000 1541.0000,1216.0000 C 1537.0000,1216.0000 1533.0000,1212.0000 1533.0000,1208.0000 Z M 1533.0000,1016.0000 L 1533.0000,904.0000 C 1533.0000,900.0000 1537.0000,896.0000 1541.0000,896.0000 C 1546.0000,896.0000 1549.0000,900.0000 1549.0000,904.0000 L 1549.0000,1016.0000 C 1549.0000,1020.0000 1546.0000,1024.0000 1541.0000,1024.0000 C 1537.0000,1024.0000 1533.0000,1020.0000 1533.0000,1016.0000 Z M 1533.0000,824.0000 L 1533.0000,712.0000 C 1533.0000,708.0000 1537.0000,704.0000 1541.0000,704.0000 C 1546.0000,704.0000 1549.0000,708.0000 1549.0000,712.0000 L 1549.0000,824.0000 C 1549.0000,828.0000 1546.0000,832.0000 1541.0000,832.0000 C 1537.0000,832.0000 1533.0000,828.0000 1533.0000,824.0000 Z M 1533.0000,632.0000 L 1533.0000,520.0000 C 1533.0000,516.0000 1537.0000,512.0000 1541.0000,512.0000 C 1546.0000,512.0000 1549.0000,516.0000 1549.0000,520.0000 L 1549.0000,632.0000 C 1549.0000,636.0000 1546.0000,640.0000 1541.0000,640.0000 C 1537.0000,640.0000 1533.0000,636.0000 1533.0000,632.0000 Z M 1533.0000,440.0000 L 1533.0000,328.0000 C 1533.0000,324.0000 1537.0000,320.0000 1541.0000,320.0000 C 1546.0000,320.0000 1549.0000,324.0000 1549.0000,328.0000 L 1549.0000,440.0000 C 1549.0000,444.0000 1546.0000,448.0000 1541.0000,448.0000 C 1537.0000,448.0000 1533.0000,444.0000 1533.0000,440.0000 Z M 1533.0000,248.0000 L 1533.0000,136.0000 C 1533.0000,132.0000 1537.0000,128.0000 1541.0000,128.0000 C 1546.0000,128.0000 1549.0000,132.0000 1549.0000,136.0000 L 1549.0000,248.0000 C 1549.0000,252.0000 1546.0000,256.0000 1541.0000,256.0000 C 1537.0000,256.0000 1533.0000,252.0000 1533.0000,248.0000 Z M 1533.0000,56.0000 L 1533.0000,30.0000 L 1541.0000,38.0000 L 1456.0000,38.0000 C 1451.0000,38.0000 1448.0000,34.0000 1448.0000,30.0000 C 1448.0000,25.0000 1451.0000,22.0000 1456.0000,22.0000 L 1541.0000,22.0000 C 1546.0000,22.0000 1549.0000,25.0000 1549.0000,30.0000 L 1549.0000,56.0000 C 1549.0000,60.0000 1546.0000,64.0000 1541.0000,64.0000 C 1537.0000,64.0000 1533.0000,60.0000 1533.0000,56.0000 Z M 1376.0000,38.0000 L 1264.0000,38.0000 C 1259.0000,38.0000 1256.0000,34.0000 1256.0000,30.0000 C 1256.0000,25.0000 1259.0000,22.0000 1264.0000,22.0000 L 1376.0000,22.0000 C 1380.0000,22.0000 1384.0000,25.0000 1384.0000,30.0000 C 1384.0000,34.0000 1380.0000,38.0000 1376.0000,38.0000 Z M 1184.0000,38.0000 L 1072.0000,38.0000 C 1067.0000,38.0000 1064.0000,34.0000 1064.0000,30.0000 C 1064.0000,25.0000 1067.0000,22.0000 1072.0000,22.0000 L 1184.0000,22.0000 C 1188.0000,22.0000 1192.0000,25.0000 1192.0000,30.0000 C 1192.0000,34.0000 1188.0000,38.0000 1184.0000,38.0000 Z M 992.0000,38.0000 L 880.0000,38.0000 C 875.0000,38.0000 872.0000,34.0000 872.0000,30.0000 C 872.0000,25.0000 875.0000,22.0000 880.0000,22.0000 L 992.0000,22.0000 C 996.0000,22.0000 1000.0000,25.0000 1000.0000,30.0000 C 1000.0000,34.0000 996.0000,38.0000 992.0000,38.0000 Z M 800.0000,38.0000 L 688.0000,38.0000 C 683.0000,38.0000 680.0000,34.0000 680.0000,30.0000 C 680.0000,25.0000 683.0000,22.0000 688.0000,22.0000 L 800.0000,22.0000 C 804.0000,22.0000 808.0000,25.0000 808.0000,30.0000 C 808.0000,34.0000 804.0000,38.0000 800.0000,38.0000 Z M 608.0000,38.0000 L 496.0000,38.0000 C 491.0000,38.0000 488.0000,34.0000 488.0000,30.0000 C 488.0000,25.0000 491.0000,22.0000 496.0000,22.0000 L 608.0000,22.0000 C 612.0000,22.0000 616.0000,25.0000 616.0000,30.0000 C 616.0000,34.0000 612.0000,38.0000 608.0000,38.0000 Z M 416.0000,38.0000 L 304.0000,38.0000 C 299.0000,38.0000 296.0000,34.0000 296.0000,30.0000 C 296.0000,25.0000 299.0000,22.0000 304.0000,22.0000 L 416.0000,22.0000 C 420.0000,22.0000 424.0000,25.0000 424.0000,30.0000 C 424.0000,34.0000 420.0000,38.0000 416.0000,38.0000 Z M 224.0000,38.0000 L 112.0000,38.0000 C 107.0000,38.0000 104.0000,34.0000 104.0000,30.0000 C 104.0000,25.0000 107.0000,22.0000 112.0000,22.0000 L 224.0000,22.0000 C 228.0000,22.0000 232.0000,25.0000 232.0000,30.0000 C 232.0000,34.0000 228.0000,38.0000 224.0000,38.0000 Z M 32.0000,38.0000 L 30.0000,38.0000 C 25.0000,38.0000 22.0000,34.0000 22.0000,30.0000 C 22.0000,25.0000 25.0000,22.0000 30.0000,22.0000 L 32.0000,22.0000 C 36.0000,22.0000 40.0000,25.0000 40.0000,30.0000 C 40.0000,34.0000 36.0000,38.0000 32.0000,38.0000 Z "  fill="#000000" stroke="#000000" stroke-width="16.0000"  stroke-linecap="butt"  stroke-linejoin="bevel" />
</g>
<g transform="matrix(1.0000 0.0000 0.0000 1.0000 0.0000 0.0000)">
<text font-family="Arial" fill="#000000" style ="white-space:pre;" font-weight="400" text-anchor="start" x="7.0000" y="17.0000" font-size="11.0000" ><![CDATA[UE]]></text>
<text font-family="Arial" fill="#000000" style ="white-space:pre;" font-weight="400" text-anchor="start" x="25.0000" y="17.0000" font-size="11.0000" ><![CDATA[A]]></text>
</g>
<g transform="matrix(0.0625 0.0000 0.0000 0.0625 0.0000 0.0000)">
<path d="M 181.0000,2600.0000 L 1390.0000,2600.0000 L 1390.0000,2297.0000 L 181.0000,2297.0000 L 181.0000,2600.0000 Z" stroke="#000000" stroke-width="5.0000"  stroke-linecap="round"  stroke-linejoin="round" fill="none" />
</g>
<g transform="matrix(1.0000 0.0000 0.0000 1.0000 0.0000 0.0000)">
<text font-family="Arial" fill="#000000" style ="white-space:pre;" font-weight="400" text-anchor="start" x="38.0000" y="156.0000" font-size="11.0000" ><![CDATA[PHY]]></text>
</g>
<g transform="matrix(0.0625 0.0000 0.0000 0.0625 0.0000 0.0000)">
<path d="M 181.0000,2146.0000 L 1390.0000,2146.0000 L 1390.0000,1844.0000 L 181.0000,1844.0000 L 181.0000,2146.0000 Z" stroke="#000000" stroke-width="5.0000"  stroke-linecap="round"  stroke-linejoin="round" fill="none" />
</g>
<g transform="matrix(1.0000 0.0000 0.0000 1.0000 0.0000 0.0000)">
<text font-family="Arial" fill="#000000" style ="white-space:pre;" font-weight="400" text-anchor="start" x="37.0000" y="128.0000" font-size="11.0000" ><![CDATA[MAC]]></text>
</g>
<g transform="matrix(0.0625 0.0000 0.0000 0.0625 0.0000 0.0000)">
<path d="M 181.0000,1693.0000 L 1390.0000,1693.0000 L 1390.0000,1390.0000 L 181.0000,1390.0000 L 181.0000,1693.0000 Z" stroke="#000000" stroke-width="5.0000"  stroke-linecap="round"  stroke-linejoin="round" fill="none" />
</g>
<g transform="matrix(1.0000 0.0000 0.0000 1.0000 0.0000 0.0000)">
<text font-family="Arial" fill="#000000" style ="white-space:pre;" font-weight="400" text-anchor="start" x="38.0000" y="100.0000" font-size="11.0000" ><![CDATA[RLC]]></text>
</g>
<g transform="matrix(0.0625 0.0000 0.0000 0.0625 0.0000 0.0000)">
<path d="M 2448.0000,2146.0000 L 3658.0000,2146.0000 L 3658.0000,1844.0000 L 2448.0000,1844.0000 L 2448.0000,2146.0000 Z" stroke="#000000" stroke-width="5.0000"  stroke-linecap="round"  stroke-linejoin="round" fill="none" />
</g>
<g transform="matrix(1.0000 0.0000 0.0000 1.0000 0.0000 0.0000)">
<text font-family="Arial" fill="#000000" style ="white-space:pre;" font-weight="400" text-anchor="start" x="179.0000" y="128.0000" font-size="11.0000" ><![CDATA[MAC]]></text>
</g>
<g transform="matrix(0.0625 0.0000 0.0000 0.0625 0.0000 0.0000)">
<path d="M 2448.0000,1239.0000 L 3658.0000,1239.0000 L 3658.0000,937.0000 L 2448.0000,937.0000 L 2448.0000,1239.0000 Z" stroke="#000000" stroke-width="5.0000"  stroke-linecap="round"  stroke-linejoin="round" fill="none" />
</g>
<g transform="matrix(1.0000 0.0000 0.0000 1.0000 0.0000 0.0000)">
<text font-family="Arial" fill="#000000" style ="white-space:pre;" font-weight="400" text-anchor="start" x="176.0000" y="71.0000" font-size="11.0000" ><![CDATA[PDCP]]></text>
</g>
<g transform="matrix(0.0625 0.0000 0.0000 0.0625 0.0000 0.0000)">
<path d="M 1460.0000,1088.0000 L 2379.0000,1088.0000 " stroke="#000000" stroke-width="15.0000"  stroke-linecap="round"  stroke-linejoin="round" fill="none" />
</g>
<g transform="matrix(1.0000 0.0000 0.0000 1.0000 0.0000 0.0000)">
</g>
<g transform="matrix(0.0625 0.0000 0.0000 0.0625 0.0000 0.0000)">
<path d="M 1390.0000,1088.0000 L 1482.0000,1042.0000 C 1468.0000,1071.0000 1468.0000,1105.0000 1482.0000,1134.0000 L 1482.0000,1134.0000 L 1390.0000,1088.0000 Z "  fill="#000000" stroke="none" />
</g>
<g transform="matrix(1.0000 0.0000 0.0000 1.0000 0.0000 0.0000)">
</g>
<g transform="matrix(0.0625 0.0000 0.0000 0.0625 0.0000 0.0000)">
<path d="M 2448.0000,1088.0000 L 2356.0000,1134.0000 C 2371.0000,1105.0000 2371.0000,1071.0000 2356.0000,1042.0000 L 2448.0000,1088.0000 Z "  fill="#000000" stroke="none" />
</g>
<g transform="matrix(1.0000 0.0000 0.0000 1.0000 0.0000 0.0000)">
</g>
<g transform="matrix(0.0625 0.0000 0.0000 0.0625 0.0000 0.0000)">
<path d="M 1460.0000,1995.0000 L 2379.0000,1995.0000 " stroke="#000000" stroke-width="15.0000"  stroke-linecap="round"  stroke-linejoin="round" fill="none" />
</g>
<g transform="matrix(1.0000 0.0000 0.0000 1.0000 0.0000 0.0000)">
</g>
<g transform="matrix(0.0625 0.0000 0.0000 0.0625 0.0000 0.0000)">
<path d="M 1390.0000,1995.0000 L 1482.0000,1949.0000 C 1468.0000,1978.0000 1468.0000,2012.0000 1482.0000,2041.0000 L 1390.0000,1995.0000 Z "  fill="#000000" stroke="none" />
</g>
<g transform="matrix(1.0000 0.0000 0.0000 1.0000 0.0000 0.0000)">
</g>
<g transform="matrix(0.0625 0.0000 0.0000 0.0625 0.0000 0.0000)">
<path d="M 2448.0000,1995.0000 L 2356.0000,2041.0000 C 2371.0000,2012.0000 2371.0000,1978.0000 2356.0000,1949.0000 L 2356.0000,1949.0000 L 2448.0000,1995.0000 Z "  fill="#000000" stroke="none" />
</g>
<g transform="matrix(1.0000 0.0000 0.0000 1.0000 0.0000 0.0000)">
</g>
<g transform="matrix(0.0625 0.0000 0.0000 0.0625 0.0000 0.0000)">
<path d="M 1460.0000,2448.0000 L 2379.0000,2448.0000 " stroke="#000000" stroke-width="15.0000"  stroke-linecap="round"  stroke-linejoin="round" fill="none" />
</g>
<g transform="matrix(1.0000 0.0000 0.0000 1.0000 0.0000 0.0000)">
</g>
<g transform="matrix(0.0625 0.0000 0.0000 0.0625 0.0000 0.0000)">
<path d="M 1390.0000,2448.0000 L 1482.0000,2402.0000 C 1468.0000,2431.0000 1468.0000,2466.0000 1482.0000,2495.0000 L 1390.0000,2448.0000 Z "  fill="#000000" stroke="none" />
</g>
<g transform="matrix(1.0000 0.0000 0.0000 1.0000 0.0000 0.0000)">
</g>
<g transform="matrix(0.0625 0.0000 0.0000 0.0625 0.0000 0.0000)">
<path d="M 2448.0000,2448.0000 L 2356.0000,2495.0000 C 2371.0000,2466.0000 2371.0000,2431.0000 2356.0000,2402.0000 L 2356.0000,2402.0000 L 2448.0000,2448.0000 Z "  fill="#000000" stroke="none" />
</g>
<g transform="matrix(1.0000 0.0000 0.0000 1.0000 0.0000 0.0000)">
</g>
<g transform="matrix(0.0625 0.0000 0.0000 0.0625 0.0000 0.0000)">
<path d="M 181.0000,1239.0000 L 1390.0000,1239.0000 L 1390.0000,937.0000 L 181.0000,937.0000 L 181.0000,1239.0000 Z" stroke="#000000" stroke-width="5.0000"  stroke-linecap="round"  stroke-linejoin="round" fill="none" />
</g>
<g transform="matrix(1.0000 0.0000 0.0000 1.0000 0.0000 0.0000)">
<text font-family="Arial" fill="#000000" style ="white-space:pre;" font-weight="400" text-anchor="start" x="34.0000" y="71.0000" font-size="11.0000" ><![CDATA[PDCP]]></text>
</g>
<g transform="matrix(0.0625 0.0000 0.0000 0.0625 0.0000 0.0000)">
<path d="M 2448.0000,1693.0000 L 3658.0000,1693.0000 L 3658.0000,1390.0000 L 2448.0000,1390.0000 L 2448.0000,1693.0000 Z" stroke="#000000" stroke-width="5.0000"  stroke-linecap="round"  stroke-linejoin="round" fill="none" />
</g>
<g transform="matrix(1.0000 0.0000 0.0000 1.0000 0.0000 0.0000)">
<text font-family="Arial" fill="#000000" style ="white-space:pre;" font-weight="400" text-anchor="start" x="180.0000" y="100.0000" font-size="11.0000" ><![CDATA[RLC]]></text>
</g>
<g transform="matrix(0.0625 0.0000 0.0000 0.0625 0.0000 0.0000)">
<path d="M 1460.0000,1541.0000 L 2379.0000,1541.0000 " stroke="#000000" stroke-width="15.0000"  stroke-linecap="round"  stroke-linejoin="round" fill="none" />
</g>
<g transform="matrix(1.0000 0.0000 0.0000 1.0000 0.0000 0.0000)">
</g>
<g transform="matrix(0.0625 0.0000 0.0000 0.0625 0.0000 0.0000)">
<path d="M 1390.0000,1541.0000 L 1482.0000,1495.0000 C 1468.0000,1524.0000 1468.0000,1558.0000 1482.0000,1587.0000 L 1390.0000,1541.0000 Z "  fill="#000000" stroke="none" />
</g>
<g transform="matrix(1.0000 0.0000 0.0000 1.0000 0.0000 0.0000)">
</g>
<g transform="matrix(0.0625 0.0000 0.0000 0.0625 0.0000 0.0000)">
<path d="M 2448.0000,1541.0000 L 2356.0000,1587.0000 C 2371.0000,1558.0000 2371.0000,1524.0000 2356.0000,1495.0000 L 2448.0000,1541.0000 Z "  fill="#000000" stroke="none" />
</g>
<g transform="matrix(1.0000 0.0000 0.0000 1.0000 0.0000 0.0000)">
</g>
<g transform="matrix(0.0625 0.0000 0.0000 0.0625 0.0000 0.0000)">
<path d="M 2448.0000,785.0000 L 3658.0000,785.0000 L 3658.0000,483.0000 L 2448.0000,483.0000 L 2448.0000,785.0000 Z" stroke="#000000" stroke-width="5.0000"  stroke-linecap="round"  stroke-linejoin="round" fill="none" />
</g>
<g transform="matrix(1.0000 0.0000 0.0000 1.0000 0.0000 0.0000)">
<text font-family="Arial" fill="#000000" style ="white-space:pre;" font-weight="400" text-anchor="start" x="179.0000" y="43.0000" font-size="11.0000" ><![CDATA[RRC]]></text>
</g>
<g transform="matrix(0.0625 0.0000 0.0000 0.0625 0.0000 0.0000)">
<path d="M 1460.0000,634.0000 L 2379.0000,634.0000 " stroke="#000000" stroke-width="15.0000"  stroke-linecap="round"  stroke-linejoin="round" fill="none" />
</g>
<g transform="matrix(1.0000 0.0000 0.0000 1.0000 0.0000 0.0000)">
</g>
<g transform="matrix(0.0625 0.0000 0.0000 0.0625 0.0000 0.0000)">
<path d="M 1390.0000,634.0000 L 1482.0000,588.0000 C 1468.0000,617.0000 1468.0000,651.0000 1482.0000,680.0000 L 1390.0000,634.0000 Z "  fill="#000000" stroke="none" />
</g>
<g transform="matrix(1.0000 0.0000 0.0000 1.0000 0.0000 0.0000)">
</g>
<g transform="matrix(0.0625 0.0000 0.0000 0.0625 0.0000 0.0000)">
<path d="M 2448.0000,634.0000 L 2356.0000,680.0000 C 2371.0000,651.0000 2371.0000,617.0000 2356.0000,588.0000 L 2448.0000,634.0000 Z "  fill="#000000" stroke="none" />
</g>
<g transform="matrix(1.0000 0.0000 0.0000 1.0000 0.0000 0.0000)">
</g>
<g transform="matrix(0.0625 0.0000 0.0000 0.0625 0.0000 0.0000)">
<path d="M 181.0000,785.0000 L 1390.0000,785.0000 L 1390.0000,483.0000 L 181.0000,483.0000 L 181.0000,785.0000 Z" stroke="#000000" stroke-width="5.0000"  stroke-linecap="round"  stroke-linejoin="round" fill="none" />
</g>
<g transform="matrix(1.0000 0.0000 0.0000 1.0000 0.0000 0.0000)">
<text font-family="Arial" fill="#000000" style ="white-space:pre;" font-weight="400" text-anchor="start" x="38.0000" y="43.0000" font-size="11.0000" ><![CDATA[RRC]]></text>
</g>
</g>
</svg>
