<?xml version="1.0"  encoding="UTF-8" standalone="no"?>
<svg version="1.1" xmlns="http://www.w3.org/2000/svg" xmlns:xlink="http://www.w3.org/1999/xlink" width="242.0000" height="151.0000">
<g transform="translate(1.0000, 1.0000)">
<g transform="matrix(0.0625 0.0000 0.0000 0.0625 0.0000 0.0000)">
<path d="M 2305.0000,46.0000 L 2305.0000,158.0000 C 2305.0000,162.0000 2302.0000,166.0000 2297.0000,166.0000 C 2293.0000,166.0000 2289.0000,162.0000 2289.0000,158.0000 L 2289.0000,46.0000 C 2289.0000,41.0000 2293.0000,38.0000 2297.0000,38.0000 C 2302.0000,38.0000 2305.0000,41.0000 2305.0000,46.0000 Z M 2305.0000,238.0000 L 2305.0000,350.0000 C 2305.0000,354.0000 2302.0000,358.0000 2297.0000,358.0000 C 2293.0000,358.0000 2289.0000,354.0000 2289.0000,350.0000 L 2289.0000,238.0000 C 2289.0000,233.0000 2293.0000,230.0000 2297.0000,230.0000 C 2302.0000,230.0000 2305.0000,233.0000 2305.0000,238.0000 Z M 2305.0000,430.0000 L 2305.0000,542.0000 C 2305.0000,546.0000 2302.0000,550.0000 2297.0000,550.0000 C 2293.0000,550.0000 2289.0000,546.0000 2289.0000,542.0000 L 2289.0000,430.0000 C 2289.0000,425.0000 2293.0000,422.0000 2297.0000,422.0000 C 2302.0000,422.0000 2305.0000,425.0000 2305.0000,430.0000 Z M 2305.0000,622.0000 L 2305.0000,734.0000 C 2305.0000,738.0000 2302.0000,742.0000 2297.0000,742.0000 C 2293.0000,742.0000 2289.0000,738.0000 2289.0000,734.0000 L 2289.0000,622.0000 C 2289.0000,617.0000 2293.0000,614.0000 2297.0000,614.0000 C 2302.0000,614.0000 2305.0000,617.0000 2305.0000,622.0000 Z M 2305.0000,814.0000 L 2305.0000,926.0000 C 2305.0000,930.0000 2302.0000,934.0000 2297.0000,934.0000 C 2293.0000,934.0000 2289.0000,930.0000 2289.0000,926.0000 L 2289.0000,814.0000 C 2289.0000,809.0000 2293.0000,806.0000 2297.0000,806.0000 C 2302.0000,806.0000 2305.0000,809.0000 2305.0000,814.0000 Z M 2305.0000,1006.0000 L 2305.0000,1118.0000 C 2305.0000,1122.0000 2302.0000,1126.0000 2297.0000,1126.0000 C 2293.0000,1126.0000 2289.0000,1122.0000 2289.0000,1118.0000 L 2289.0000,1006.0000 C 2289.0000,1001.0000 2293.0000,998.0000 2297.0000,998.0000 C 2302.0000,998.0000 2305.0000,1001.0000 2305.0000,1006.0000 Z M 2305.0000,1198.0000 L 2305.0000,1310.0000 C 2305.0000,1314.0000 2302.0000,1318.0000 2297.0000,1318.0000 C 2293.0000,1318.0000 2289.0000,1314.0000 2289.0000,1310.0000 L 2289.0000,1198.0000 C 2289.0000,1193.0000 2293.0000,1190.0000 2297.0000,1190.0000 C 2302.0000,1190.0000 2305.0000,1193.0000 2305.0000,1198.0000 Z M 2305.0000,1390.0000 L 2305.0000,1502.0000 C 2305.0000,1506.0000 2302.0000,1510.0000 2297.0000,1510.0000 C 2293.0000,1510.0000 2289.0000,1506.0000 2289.0000,1502.0000 L 2289.0000,1390.0000 C 2289.0000,1385.0000 2293.0000,1382.0000 2297.0000,1382.0000 C 2302.0000,1382.0000 2305.0000,1385.0000 2305.0000,1390.0000 Z M 2305.0000,1582.0000 L 2305.0000,1694.0000 C 2305.0000,1698.0000 2302.0000,1702.0000 2297.0000,1702.0000 C 2293.0000,1702.0000 2289.0000,1698.0000 2289.0000,1694.0000 L 2289.0000,1582.0000 C 2289.0000,1577.0000 2293.0000,1574.0000 2297.0000,1574.0000 C 2302.0000,1574.0000 2305.0000,1577.0000 2305.0000,1582.0000 Z M 2305.0000,1774.0000 L 2305.0000,1886.0000 C 2305.0000,1890.0000 2302.0000,1894.0000 2297.0000,1894.0000 C 2293.0000,1894.0000 2289.0000,1890.0000 2289.0000,1886.0000 L 2289.0000,1774.0000 C 2289.0000,1769.0000 2293.0000,1766.0000 2297.0000,1766.0000 C 2302.0000,1766.0000 2305.0000,1769.0000 2305.0000,1774.0000 Z M 2305.0000,1966.0000 L 2305.0000,2078.0000 C 2305.0000,2082.0000 2302.0000,2086.0000 2297.0000,2086.0000 C 2293.0000,2086.0000 2289.0000,2082.0000 2289.0000,2078.0000 L 2289.0000,1966.0000 C 2289.0000,1961.0000 2293.0000,1958.0000 2297.0000,1958.0000 C 2302.0000,1958.0000 2305.0000,1961.0000 2305.0000,1966.0000 Z M 2305.0000,2158.0000 L 2305.0000,2270.0000 C 2305.0000,2274.0000 2302.0000,2278.0000 2297.0000,2278.0000 C 2293.0000,2278.0000 2289.0000,2274.0000 2289.0000,2270.0000 L 2289.0000,2158.0000 C 2289.0000,2153.0000 2293.0000,2150.0000 2297.0000,2150.0000 C 2302.0000,2150.0000 2305.0000,2153.0000 2305.0000,2158.0000 Z M 2305.0000,2350.0000 L 2305.0000,2362.0000 L 2297.0000,2354.0000 L 2397.0000,2354.0000 C 2401.0000,2354.0000 2405.0000,2358.0000 2405.0000,2362.0000 C 2405.0000,2367.0000 2401.0000,2370.0000 2397.0000,2370.0000 L 2297.0000,2370.0000 C 2293.0000,2370.0000 2289.0000,2367.0000 2289.0000,2362.0000 L 2289.0000,2350.0000 C 2289.0000,2345.0000 2293.0000,2342.0000 2297.0000,2342.0000 C 2302.0000,2342.0000 2305.0000,2345.0000 2305.0000,2350.0000 Z M 2477.0000,2354.0000 L 2589.0000,2354.0000 C 2593.0000,2354.0000 2597.0000,2358.0000 2597.0000,2362.0000 C 2597.0000,2367.0000 2593.0000,2370.0000 2589.0000,2370.0000 L 2477.0000,2370.0000 C 2472.0000,2370.0000 2469.0000,2367.0000 2469.0000,2362.0000 C 2469.0000,2358.0000 2472.0000,2354.0000 2477.0000,2354.0000 Z M 2669.0000,2354.0000 L 2781.0000,2354.0000 C 2785.0000,2354.0000 2789.0000,2358.0000 2789.0000,2362.0000 C 2789.0000,2367.0000 2785.0000,2370.0000 2781.0000,2370.0000 L 2669.0000,2370.0000 C 2664.0000,2370.0000 2661.0000,2367.0000 2661.0000,2362.0000 C 2661.0000,2358.0000 2664.0000,2354.0000 2669.0000,2354.0000 Z M 2861.0000,2354.0000 L 2973.0000,2354.0000 C 2977.0000,2354.0000 2981.0000,2358.0000 2981.0000,2362.0000 C 2981.0000,2367.0000 2977.0000,2370.0000 2973.0000,2370.0000 L 2861.0000,2370.0000 C 2856.0000,2370.0000 2853.0000,2367.0000 2853.0000,2362.0000 C 2853.0000,2358.0000 2856.0000,2354.0000 2861.0000,2354.0000 Z M 3053.0000,2354.0000 L 3165.0000,2354.0000 C 3169.0000,2354.0000 3173.0000,2358.0000 3173.0000,2362.0000 C 3173.0000,2367.0000 3169.0000,2370.0000 3165.0000,2370.0000 L 3053.0000,2370.0000 C 3048.0000,2370.0000 3045.0000,2367.0000 3045.0000,2362.0000 C 3045.0000,2358.0000 3048.0000,2354.0000 3053.0000,2354.0000 Z M 3245.0000,2354.0000 L 3357.0000,2354.0000 C 3361.0000,2354.0000 3365.0000,2358.0000 3365.0000,2362.0000 C 3365.0000,2367.0000 3361.0000,2370.0000 3357.0000,2370.0000 L 3245.0000,2370.0000 C 3240.0000,2370.0000 3237.0000,2367.0000 3237.0000,2362.0000 C 3237.0000,2358.0000 3240.0000,2354.0000 3245.0000,2354.0000 Z M 3437.0000,2354.0000 L 3549.0000,2354.0000 C 3553.0000,2354.0000 3557.0000,2358.0000 3557.0000,2362.0000 C 3557.0000,2367.0000 3553.0000,2370.0000 3549.0000,2370.0000 L 3437.0000,2370.0000 C 3432.0000,2370.0000 3429.0000,2367.0000 3429.0000,2362.0000 C 3429.0000,2358.0000 3432.0000,2354.0000 3437.0000,2354.0000 Z M 3629.0000,2354.0000 L 3741.0000,2354.0000 C 3745.0000,2354.0000 3749.0000,2358.0000 3749.0000,2362.0000 C 3749.0000,2367.0000 3745.0000,2370.0000 3741.0000,2370.0000 L 3629.0000,2370.0000 C 3624.0000,2370.0000 3621.0000,2367.0000 3621.0000,2362.0000 C 3621.0000,2358.0000 3624.0000,2354.0000 3629.0000,2354.0000 Z M 3801.0000,2350.0000 L 3801.0000,2238.0000 C 3801.0000,2234.0000 3805.0000,2230.0000 3809.0000,2230.0000 C 3814.0000,2230.0000 3817.0000,2234.0000 3817.0000,2238.0000 L 3817.0000,2350.0000 C 3817.0000,2355.0000 3814.0000,2358.0000 3809.0000,2358.0000 C 3805.0000,2358.0000 3801.0000,2355.0000 3801.0000,2350.0000 Z M 3801.0000,2158.0000 L 3801.0000,2046.0000 C 3801.0000,2042.0000 3805.0000,2038.0000 3809.0000,2038.0000 C 3814.0000,2038.0000 3817.0000,2042.0000 3817.0000,2046.0000 L 3817.0000,2158.0000 C 3817.0000,2163.0000 3814.0000,2166.0000 3809.0000,2166.0000 C 3805.0000,2166.0000 3801.0000,2163.0000 3801.0000,2158.0000 Z M 3801.0000,1966.0000 L 3801.0000,1854.0000 C 3801.0000,1850.0000 3805.0000,1846.0000 3809.0000,1846.0000 C 3814.0000,1846.0000 3817.0000,1850.0000 3817.0000,1854.0000 L 3817.0000,1966.0000 C 3817.0000,1971.0000 3814.0000,1974.0000 3809.0000,1974.0000 C 3805.0000,1974.0000 3801.0000,1971.0000 3801.0000,1966.0000 Z M 3801.0000,1774.0000 L 3801.0000,1662.0000 C 3801.0000,1658.0000 3805.0000,1654.0000 3809.0000,1654.0000 C 3814.0000,1654.0000 3817.0000,1658.0000 3817.0000,1662.0000 L 3817.0000,1774.0000 C 3817.0000,1779.0000 3814.0000,1782.0000 3809.0000,1782.0000 C 3805.0000,1782.0000 3801.0000,1779.0000 3801.0000,1774.0000 Z M 3801.0000,1582.0000 L 3801.0000,1470.0000 C 3801.0000,1466.0000 3805.0000,1462.0000 3809.0000,1462.0000 C 3814.0000,1462.0000 3817.0000,1466.0000 3817.0000,1470.0000 L 3817.0000,1582.0000 C 3817.0000,1587.0000 3814.0000,1590.0000 3809.0000,1590.0000 C 3805.0000,1590.0000 3801.0000,1587.0000 3801.0000,1582.0000 Z M 3801.0000,1390.0000 L 3801.0000,1278.0000 C 3801.0000,1274.0000 3805.0000,1270.0000 3809.0000,1270.0000 C 3814.0000,1270.0000 3817.0000,1274.0000 3817.0000,1278.0000 L 3817.0000,1390.0000 C 3817.0000,1395.0000 3814.0000,1398.0000 3809.0000,1398.0000 C 3805.0000,1398.0000 3801.0000,1395.0000 3801.0000,1390.0000 Z M 3801.0000,1198.0000 L 3801.0000,1086.0000 C 3801.0000,1082.0000 3805.0000,1078.0000 3809.0000,1078.0000 C 3814.0000,1078.0000 3817.0000,1082.0000 3817.0000,1086.0000 L 3817.0000,1198.0000 C 3817.0000,1203.0000 3814.0000,1206.0000 3809.0000,1206.0000 C 3805.0000,1206.0000 3801.0000,1203.0000 3801.0000,1198.0000 Z M 3801.0000,1006.0000 L 3801.0000,894.0000 C 3801.0000,890.0000 3805.0000,886.0000 3809.0000,886.0000 C 3814.0000,886.0000 3817.0000,890.0000 3817.0000,894.0000 L 3817.0000,1006.0000 C 3817.0000,1011.0000 3814.0000,1014.0000 3809.0000,1014.0000 C 3805.0000,1014.0000 3801.0000,1011.0000 3801.0000,1006.0000 Z M 3801.0000,814.0000 L 3801.0000,702.0000 C 3801.0000,698.0000 3805.0000,694.0000 3809.0000,694.0000 C 3814.0000,694.0000 3817.0000,698.0000 3817.0000,702.0000 L 3817.0000,814.0000 C 3817.0000,819.0000 3814.0000,822.0000 3809.0000,822.0000 C 3805.0000,822.0000 3801.0000,819.0000 3801.0000,814.0000 Z M 3801.0000,622.0000 L 3801.0000,510.0000 C 3801.0000,506.0000 3805.0000,502.0000 3809.0000,502.0000 C 3814.0000,502.0000 3817.0000,506.0000 3817.0000,510.0000 L 3817.0000,622.0000 C 3817.0000,627.0000 3814.0000,630.0000 3809.0000,630.0000 C 3805.0000,630.0000 3801.0000,627.0000 3801.0000,622.0000 Z M 3801.0000,430.0000 L 3801.0000,318.0000 C 3801.0000,314.0000 3805.0000,310.0000 3809.0000,310.0000 C 3814.0000,310.0000 3817.0000,314.0000 3817.0000,318.0000 L 3817.0000,430.0000 C 3817.0000,435.0000 3814.0000,438.0000 3809.0000,438.0000 C 3805.0000,438.0000 3801.0000,435.0000 3801.0000,430.0000 Z M 3801.0000,238.0000 L 3801.0000,126.0000 C 3801.0000,122.0000 3805.0000,118.0000 3809.0000,118.0000 C 3814.0000,118.0000 3817.0000,122.0000 3817.0000,126.0000 L 3817.0000,238.0000 C 3817.0000,243.0000 3814.0000,246.0000 3809.0000,246.0000 C 3805.0000,246.0000 3801.0000,243.0000 3801.0000,238.0000 Z M 3801.0000,46.0000 L 3801.0000,30.0000 L 3809.0000,38.0000 L 3714.0000,38.0000 C 3710.0000,38.0000 3706.0000,34.0000 3706.0000,30.0000 C 3706.0000,25.0000 3710.0000,22.0000 3714.0000,22.0000 L 3809.0000,22.0000 C 3814.0000,22.0000 3817.0000,25.0000 3817.0000,30.0000 L 3817.0000,46.0000 C 3817.0000,51.0000 3814.0000,54.0000 3809.0000,54.0000 C 3805.0000,54.0000 3801.0000,51.0000 3801.0000,46.0000 Z M 3634.0000,38.0000 L 3522.0000,38.0000 C 3518.0000,38.0000 3514.0000,34.0000 3514.0000,30.0000 C 3514.0000,25.0000 3518.0000,22.0000 3522.0000,22.0000 L 3634.0000,22.0000 C 3638.0000,22.0000 3642.0000,25.0000 3642.0000,30.0000 C 3642.0000,34.0000 3638.0000,38.0000 3634.0000,38.0000 Z M 3442.0000,38.0000 L 3330.0000,38.0000 C 3326.0000,38.0000 3322.0000,34.0000 3322.0000,30.0000 C 3322.0000,25.0000 3326.0000,22.0000 3330.0000,22.0000 L 3442.0000,22.0000 C 3446.0000,22.0000 3450.0000,25.0000 3450.0000,30.0000 C 3450.0000,34.0000 3446.0000,38.0000 3442.0000,38.0000 Z M 3250.0000,38.0000 L 3138.0000,38.0000 C 3134.0000,38.0000 3130.0000,34.0000 3130.0000,30.0000 C 3130.0000,25.0000 3134.0000,22.0000 3138.0000,22.0000 L 3250.0000,22.0000 C 3254.0000,22.0000 3258.0000,25.0000 3258.0000,30.0000 C 3258.0000,34.0000 3254.0000,38.0000 3250.0000,38.0000 Z M 3058.0000,38.0000 L 2946.0000,38.0000 C 2942.0000,38.0000 2938.0000,34.0000 2938.0000,30.0000 C 2938.0000,25.0000 2942.0000,22.0000 2946.0000,22.0000 L 3058.0000,22.0000 C 3062.0000,22.0000 3066.0000,25.0000 3066.0000,30.0000 C 3066.0000,34.0000 3062.0000,38.0000 3058.0000,38.0000 Z M 2866.0000,38.0000 L 2754.0000,38.0000 C 2750.0000,38.0000 2746.0000,34.0000 2746.0000,30.0000 C 2746.0000,25.0000 2750.0000,22.0000 2754.0000,22.0000 L 2866.0000,22.0000 C 2870.0000,22.0000 2874.0000,25.0000 2874.0000,30.0000 C 2874.0000,34.0000 2870.0000,38.0000 2866.0000,38.0000 Z M 2674.0000,38.0000 L 2562.0000,38.0000 C 2558.0000,38.0000 2554.0000,34.0000 2554.0000,30.0000 C 2554.0000,25.0000 2558.0000,22.0000 2562.0000,22.0000 L 2674.0000,22.0000 C 2678.0000,22.0000 2682.0000,25.0000 2682.0000,30.0000 C 2682.0000,34.0000 2678.0000,38.0000 2674.0000,38.0000 Z M 2482.0000,38.0000 L 2370.0000,38.0000 C 2366.0000,38.0000 2362.0000,34.0000 2362.0000,30.0000 C 2362.0000,25.0000 2366.0000,22.0000 2370.0000,22.0000 L 2482.0000,22.0000 C 2486.0000,22.0000 2490.0000,25.0000 2490.0000,30.0000 C 2490.0000,34.0000 2486.0000,38.0000 2482.0000,38.0000 Z "  fill="#000000" stroke="#000000" stroke-width="16.0000"  stroke-linecap="butt"  stroke-linejoin="bevel" />
</g>
<g transform="matrix(1.0000 0.0000 0.0000 1.0000 0.0000 0.0000)">
<text font-family="Arial" fill="#000000" style ="white-space:pre;" font-weight="400" text-anchor="start" x="149.0000" y="17.0000" font-size="11.0000" ><![CDATA[UE B]]></text>
</g>
<g transform="matrix(0.0625 0.0000 0.0000 0.0625 0.0000 0.0000)">
<path d="M 2448.0000,2211.0000 L 3658.0000,2211.0000 L 3658.0000,1909.0000 L 2448.0000,1909.0000 L 2448.0000,2211.0000 Z" stroke="#000000" stroke-width="5.0000"  stroke-linecap="round"  stroke-linejoin="round" fill="none" />
</g>
<g transform="matrix(1.0000 0.0000 0.0000 1.0000 0.0000 0.0000)">
<text font-family="Arial" fill="#000000" style ="white-space:pre;" font-weight="400" text-anchor="start" x="180.0000" y="132.0000" font-size="11.0000" ><![CDATA[PHY]]></text>
</g>
<g transform="matrix(0.0625 0.0000 0.0000 0.0625 0.0000 0.0000)">
<path d="M 38.0000,46.0000 L 38.0000,158.0000 C 38.0000,162.0000 34.0000,166.0000 30.0000,166.0000 C 25.0000,166.0000 22.0000,162.0000 22.0000,158.0000 L 22.0000,46.0000 C 22.0000,41.0000 25.0000,38.0000 30.0000,38.0000 C 34.0000,38.0000 38.0000,41.0000 38.0000,46.0000 Z M 38.0000,238.0000 L 38.0000,350.0000 C 38.0000,354.0000 34.0000,358.0000 30.0000,358.0000 C 25.0000,358.0000 22.0000,354.0000 22.0000,350.0000 L 22.0000,238.0000 C 22.0000,233.0000 25.0000,230.0000 30.0000,230.0000 C 34.0000,230.0000 38.0000,233.0000 38.0000,238.0000 Z M 38.0000,430.0000 L 38.0000,542.0000 C 38.0000,546.0000 34.0000,550.0000 30.0000,550.0000 C 25.0000,550.0000 22.0000,546.0000 22.0000,542.0000 L 22.0000,430.0000 C 22.0000,425.0000 25.0000,422.0000 30.0000,422.0000 C 34.0000,422.0000 38.0000,425.0000 38.0000,430.0000 Z M 38.0000,622.0000 L 38.0000,734.0000 C 38.0000,738.0000 34.0000,742.0000 30.0000,742.0000 C 25.0000,742.0000 22.0000,738.0000 22.0000,734.0000 L 22.0000,622.0000 C 22.0000,617.0000 25.0000,614.0000 30.0000,614.0000 C 34.0000,614.0000 38.0000,617.0000 38.0000,622.0000 Z M 38.0000,814.0000 L 38.0000,926.0000 C 38.0000,930.0000 34.0000,934.0000 30.0000,934.0000 C 25.0000,934.0000 22.0000,930.0000 22.0000,926.0000 L 22.0000,814.0000 C 22.0000,809.0000 25.0000,806.0000 30.0000,806.0000 C 34.0000,806.0000 38.0000,809.0000 38.0000,814.0000 Z M 38.0000,1006.0000 L 38.0000,1118.0000 C 38.0000,1122.0000 34.0000,1126.0000 30.0000,1126.0000 C 25.0000,1126.0000 22.0000,1122.0000 22.0000,1118.0000 L 22.0000,1006.0000 C 22.0000,1001.0000 25.0000,998.0000 30.0000,998.0000 C 34.0000,998.0000 38.0000,1001.0000 38.0000,1006.0000 Z M 38.0000,1198.0000 L 38.0000,1310.0000 C 38.0000,1314.0000 34.0000,1318.0000 30.0000,1318.0000 C 25.0000,1318.0000 22.0000,1314.0000 22.0000,1310.0000 L 22.0000,1198.0000 C 22.0000,1193.0000 25.0000,1190.0000 30.0000,1190.0000 C 34.0000,1190.0000 38.0000,1193.0000 38.0000,1198.0000 Z M 38.0000,1390.0000 L 38.0000,1502.0000 C 38.0000,1506.0000 34.0000,1510.0000 30.0000,1510.0000 C 25.0000,1510.0000 22.0000,1506.0000 22.0000,1502.0000 L 22.0000,1390.0000 C 22.0000,1385.0000 25.0000,1382.0000 30.0000,1382.0000 C 34.0000,1382.0000 38.0000,1385.0000 38.0000,1390.0000 Z M 38.0000,1582.0000 L 38.0000,1694.0000 C 38.0000,1698.0000 34.0000,1702.0000 30.0000,1702.0000 C 25.0000,1702.0000 22.0000,1698.0000 22.0000,1694.0000 L 22.0000,1582.0000 C 22.0000,1577.0000 25.0000,1574.0000 30.0000,1574.0000 C 34.0000,1574.0000 38.0000,1577.0000 38.0000,1582.0000 Z M 38.0000,1774.0000 L 38.0000,1886.0000 C 38.0000,1890.0000 34.0000,1894.0000 30.0000,1894.0000 C 25.0000,1894.0000 22.0000,1890.0000 22.0000,1886.0000 L 22.0000,1774.0000 C 22.0000,1769.0000 25.0000,1766.0000 30.0000,1766.0000 C 34.0000,1766.0000 38.0000,1769.0000 38.0000,1774.0000 Z M 38.0000,1966.0000 L 38.0000,2078.0000 C 38.0000,2082.0000 34.0000,2086.0000 30.0000,2086.0000 C 25.0000,2086.0000 22.0000,2082.0000 22.0000,2078.0000 L 22.0000,1966.0000 C 22.0000,1961.0000 25.0000,1958.0000 30.0000,1958.0000 C 34.0000,1958.0000 38.0000,1961.0000 38.0000,1966.0000 Z M 38.0000,2158.0000 L 38.0000,2270.0000 C 38.0000,2274.0000 34.0000,2278.0000 30.0000,2278.0000 C 25.0000,2278.0000 22.0000,2274.0000 22.0000,2270.0000 L 22.0000,2158.0000 C 22.0000,2153.0000 25.0000,2150.0000 30.0000,2150.0000 C 34.0000,2150.0000 38.0000,2153.0000 38.0000,2158.0000 Z M 38.0000,2350.0000 L 38.0000,2362.0000 L 30.0000,2354.0000 L 129.0000,2354.0000 C 133.0000,2354.0000 137.0000,2358.0000 137.0000,2362.0000 C 137.0000,2367.0000 133.0000,2370.0000 129.0000,2370.0000 L 30.0000,2370.0000 C 25.0000,2370.0000 22.0000,2367.0000 22.0000,2362.0000 L 22.0000,2350.0000 C 22.0000,2345.0000 25.0000,2342.0000 30.0000,2342.0000 C 34.0000,2342.0000 38.0000,2345.0000 38.0000,2350.0000 Z M 209.0000,2354.0000 L 321.0000,2354.0000 C 325.0000,2354.0000 329.0000,2358.0000 329.0000,2362.0000 C 329.0000,2367.0000 325.0000,2370.0000 321.0000,2370.0000 L 209.0000,2370.0000 C 205.0000,2370.0000 201.0000,2367.0000 201.0000,2362.0000 C 201.0000,2358.0000 205.0000,2354.0000 209.0000,2354.0000 Z M 401.0000,2354.0000 L 513.0000,2354.0000 C 517.0000,2354.0000 521.0000,2358.0000 521.0000,2362.0000 C 521.0000,2367.0000 517.0000,2370.0000 513.0000,2370.0000 L 401.0000,2370.0000 C 397.0000,2370.0000 393.0000,2367.0000 393.0000,2362.0000 C 393.0000,2358.0000 397.0000,2354.0000 401.0000,2354.0000 Z M 593.0000,2354.0000 L 705.0000,2354.0000 C 709.0000,2354.0000 713.0000,2358.0000 713.0000,2362.0000 C 713.0000,2367.0000 709.0000,2370.0000 705.0000,2370.0000 L 593.0000,2370.0000 C 589.0000,2370.0000 585.0000,2367.0000 585.0000,2362.0000 C 585.0000,2358.0000 589.0000,2354.0000 593.0000,2354.0000 Z M 785.0000,2354.0000 L 897.0000,2354.0000 C 901.0000,2354.0000 905.0000,2358.0000 905.0000,2362.0000 C 905.0000,2367.0000 901.0000,2370.0000 897.0000,2370.0000 L 785.0000,2370.0000 C 781.0000,2370.0000 777.0000,2367.0000 777.0000,2362.0000 C 777.0000,2358.0000 781.0000,2354.0000 785.0000,2354.0000 Z M 977.0000,2354.0000 L 1089.0000,2354.0000 C 1093.0000,2354.0000 1097.0000,2358.0000 1097.0000,2362.0000 C 1097.0000,2367.0000 1093.0000,2370.0000 1089.0000,2370.0000 L 977.0000,2370.0000 C 973.0000,2370.0000 969.0000,2367.0000 969.0000,2362.0000 C 969.0000,2358.0000 973.0000,2354.0000 977.0000,2354.0000 Z M 1169.0000,2354.0000 L 1281.0000,2354.0000 C 1285.0000,2354.0000 1289.0000,2358.0000 1289.0000,2362.0000 C 1289.0000,2367.0000 1285.0000,2370.0000 1281.0000,2370.0000 L 1169.0000,2370.0000 C 1165.0000,2370.0000 1161.0000,2367.0000 1161.0000,2362.0000 C 1161.0000,2358.0000 1165.0000,2354.0000 1169.0000,2354.0000 Z M 1361.0000,2354.0000 L 1473.0000,2354.0000 C 1477.0000,2354.0000 1481.0000,2358.0000 1481.0000,2362.0000 C 1481.0000,2367.0000 1477.0000,2370.0000 1473.0000,2370.0000 L 1361.0000,2370.0000 C 1357.0000,2370.0000 1353.0000,2367.0000 1353.0000,2362.0000 C 1353.0000,2358.0000 1357.0000,2354.0000 1361.0000,2354.0000 Z M 1533.0000,2350.0000 L 1533.0000,2238.0000 C 1533.0000,2234.0000 1537.0000,2230.0000 1541.0000,2230.0000 C 1546.0000,2230.0000 1549.0000,2234.0000 1549.0000,2238.0000 L 1549.0000,2350.0000 C 1549.0000,2355.0000 1546.0000,2358.0000 1541.0000,2358.0000 C 1537.0000,2358.0000 1533.0000,2355.0000 1533.0000,2350.0000 Z M 1533.0000,2158.0000 L 1533.0000,2046.0000 C 1533.0000,2042.0000 1537.0000,2038.0000 1541.0000,2038.0000 C 1546.0000,2038.0000 1549.0000,2042.0000 1549.0000,2046.0000 L 1549.0000,2158.0000 C 1549.0000,2163.0000 1546.0000,2166.0000 1541.0000,2166.0000 C 1537.0000,2166.0000 1533.0000,2163.0000 1533.0000,2158.0000 Z M 1533.0000,1966.0000 L 1533.0000,1854.0000 C 1533.0000,1850.0000 1537.0000,1846.0000 1541.0000,1846.0000 C 1546.0000,1846.0000 1549.0000,1850.0000 1549.0000,1854.0000 L 1549.0000,1966.0000 C 1549.0000,1971.0000 1546.0000,1974.0000 1541.0000,1974.0000 C 1537.0000,1974.0000 1533.0000,1971.0000 1533.0000,1966.0000 Z M 1533.0000,1774.0000 L 1533.0000,1662.0000 C 1533.0000,1658.0000 1537.0000,1654.0000 1541.0000,1654.0000 C 1546.0000,1654.0000 1549.0000,1658.0000 1549.0000,1662.0000 L 1549.0000,1774.0000 C 1549.0000,1779.0000 1546.0000,1782.0000 1541.0000,1782.0000 C 1537.0000,1782.0000 1533.0000,1779.0000 1533.0000,1774.0000 Z M 1533.0000,1582.0000 L 1533.0000,1470.0000 C 1533.0000,1466.0000 1537.0000,1462.0000 1541.0000,1462.0000 C 1546.0000,1462.0000 1549.0000,1466.0000 1549.0000,1470.0000 L 1549.0000,1582.0000 C 1549.0000,1587.0000 1546.0000,1590.0000 1541.0000,1590.0000 C 1537.0000,1590.0000 1533.0000,1587.0000 1533.0000,1582.0000 Z M 1533.0000,1390.0000 L 1533.0000,1278.0000 C 1533.0000,1274.0000 1537.0000,1270.0000 1541.0000,1270.0000 C 1546.0000,1270.0000 1549.0000,1274.0000 1549.0000,1278.0000 L 1549.0000,1390.0000 C 1549.0000,1395.0000 1546.0000,1398.0000 1541.0000,1398.0000 C 1537.0000,1398.0000 1533.0000,1395.0000 1533.0000,1390.0000 Z M 1533.0000,1198.0000 L 1533.0000,1086.0000 C 1533.0000,1082.0000 1537.0000,1078.0000 1541.0000,1078.0000 C 1546.0000,1078.0000 1549.0000,1082.0000 1549.0000,1086.0000 L 1549.0000,1198.0000 C 1549.0000,1203.0000 1546.0000,1206.0000 1541.0000,1206.0000 C 1537.0000,1206.0000 1533.0000,1203.0000 1533.0000,1198.0000 Z M 1533.0000,1006.0000 L 1533.0000,894.0000 C 1533.0000,890.0000 1537.0000,886.0000 1541.0000,886.0000 C 1546.0000,886.0000 1549.0000,890.0000 1549.0000,894.0000 L 1549.0000,1006.0000 C 1549.0000,1011.0000 1546.0000,1014.0000 1541.0000,1014.0000 C 1537.0000,1014.0000 1533.0000,1011.0000 1533.0000,1006.0000 Z M 1533.0000,814.0000 L 1533.0000,702.0000 C 1533.0000,698.0000 1537.0000,694.0000 1541.0000,694.0000 C 1546.0000,694.0000 1549.0000,698.0000 1549.0000,702.0000 L 1549.0000,814.0000 C 1549.0000,819.0000 1546.0000,822.0000 1541.0000,822.0000 C 1537.0000,822.0000 1533.0000,819.0000 1533.0000,814.0000 Z M 1533.0000,622.0000 L 1533.0000,510.0000 C 1533.0000,506.0000 1537.0000,502.0000 1541.0000,502.0000 C 1546.0000,502.0000 1549.0000,506.0000 1549.0000,510.0000 L 1549.0000,622.0000 C 1549.0000,627.0000 1546.0000,630.0000 1541.0000,630.0000 C 1537.0000,630.0000 1533.0000,627.0000 1533.0000,622.0000 Z M 1533.0000,430.0000 L 1533.0000,318.0000 C 1533.0000,314.0000 1537.0000,310.0000 1541.0000,310.0000 C 1546.0000,310.0000 1549.0000,314.0000 1549.0000,318.0000 L 1549.0000,430.0000 C 1549.0000,435.0000 1546.0000,438.0000 1541.0000,438.0000 C 1537.0000,438.0000 1533.0000,435.0000 1533.0000,430.0000 Z M 1533.0000,238.0000 L 1533.0000,126.0000 C 1533.0000,122.0000 1537.0000,118.0000 1541.0000,118.0000 C 1546.0000,118.0000 1549.0000,122.0000 1549.0000,126.0000 L 1549.0000,238.0000 C 1549.0000,243.0000 1546.0000,246.0000 1541.0000,246.0000 C 1537.0000,246.0000 1533.0000,243.0000 1533.0000,238.0000 Z M 1533.0000,46.0000 L 1533.0000,30.0000 L 1541.0000,38.0000 L 1446.0000,38.0000 C 1442.0000,38.0000 1438.0000,34.0000 1438.0000,30.0000 C 1438.0000,25.0000 1442.0000,22.0000 1446.0000,22.0000 L 1541.0000,22.0000 C 1546.0000,22.0000 1549.0000,25.0000 1549.0000,30.0000 L 1549.0000,46.0000 C 1549.0000,51.0000 1546.0000,54.0000 1541.0000,54.0000 C 1537.0000,54.0000 1533.0000,51.0000 1533.0000,46.0000 Z M 1366.0000,38.0000 L 1254.0000,38.0000 C 1250.0000,38.0000 1246.0000,34.0000 1246.0000,30.0000 C 1246.0000,25.0000 1250.0000,22.0000 1254.0000,22.0000 L 1366.0000,22.0000 C 1371.0000,22.0000 1374.0000,25.0000 1374.0000,30.0000 C 1374.0000,34.0000 1371.0000,38.0000 1366.0000,38.0000 Z M 1174.0000,38.0000 L 1062.0000,38.0000 C 1058.0000,38.0000 1054.0000,34.0000 1054.0000,30.0000 C 1054.0000,25.0000 1058.0000,22.0000 1062.0000,22.0000 L 1174.0000,22.0000 C 1179.0000,22.0000 1182.0000,25.0000 1182.0000,30.0000 C 1182.0000,34.0000 1179.0000,38.0000 1174.0000,38.0000 Z M 982.0000,38.0000 L 870.0000,38.0000 C 866.0000,38.0000 862.0000,34.0000 862.0000,30.0000 C 862.0000,25.0000 866.0000,22.0000 870.0000,22.0000 L 982.0000,22.0000 C 987.0000,22.0000 990.0000,25.0000 990.0000,30.0000 C 990.0000,34.0000 987.0000,38.0000 982.0000,38.0000 Z M 790.0000,38.0000 L 678.0000,38.0000 C 674.0000,38.0000 670.0000,34.0000 670.0000,30.0000 C 670.0000,25.0000 674.0000,22.0000 678.0000,22.0000 L 790.0000,22.0000 C 795.0000,22.0000 798.0000,25.0000 798.0000,30.0000 C 798.0000,34.0000 795.0000,38.0000 790.0000,38.0000 Z M 598.0000,38.0000 L 486.0000,38.0000 C 482.0000,38.0000 478.0000,34.0000 478.0000,30.0000 C 478.0000,25.0000 482.0000,22.0000 486.0000,22.0000 L 598.0000,22.0000 C 603.0000,22.0000 606.0000,25.0000 606.0000,30.0000 C 606.0000,34.0000 603.0000,38.0000 598.0000,38.0000 Z M 406.0000,38.0000 L 294.0000,38.0000 C 290.0000,38.0000 286.0000,34.0000 286.0000,30.0000 C 286.0000,25.0000 290.0000,22.0000 294.0000,22.0000 L 406.0000,22.0000 C 411.0000,22.0000 414.0000,25.0000 414.0000,30.0000 C 414.0000,34.0000 411.0000,38.0000 406.0000,38.0000 Z M 214.0000,38.0000 L 102.0000,38.0000 C 98.0000,38.0000 94.0000,34.0000 94.0000,30.0000 C 94.0000,25.0000 98.0000,22.0000 102.0000,22.0000 L 214.0000,22.0000 C 219.0000,22.0000 222.0000,25.0000 222.0000,30.0000 C 222.0000,34.0000 219.0000,38.0000 214.0000,38.0000 Z "  fill="#000000" stroke="#000000" stroke-width="16.0000"  stroke-linecap="butt"  stroke-linejoin="bevel" />
</g>
<g transform="matrix(1.0000 0.0000 0.0000 1.0000 0.0000 0.0000)">
<text font-family="Arial" fill="#000000" style ="white-space:pre;" font-weight="400" text-anchor="start" x="7.0000" y="17.0000" font-size="11.0000" ><![CDATA[UE]]></text>
<text font-family="Arial" fill="#000000" style ="white-space:pre;" font-weight="400" text-anchor="start" x="25.0000" y="17.0000" font-size="11.0000" ><![CDATA[A]]></text>
</g>
<g transform="matrix(0.0625 0.0000 0.0000 0.0625 0.0000 0.0000)">
<path d="M 181.0000,2211.0000 L 1390.0000,2211.0000 L 1390.0000,1909.0000 L 181.0000,1909.0000 L 181.0000,2211.0000 Z" stroke="#000000" stroke-width="5.0000"  stroke-linecap="round"  stroke-linejoin="round" fill="none" />
</g>
<g transform="matrix(1.0000 0.0000 0.0000 1.0000 0.0000 0.0000)">
<text font-family="Arial" fill="#000000" style ="white-space:pre;" font-weight="400" text-anchor="start" x="38.0000" y="132.0000" font-size="11.0000" ><![CDATA[PHY]]></text>
</g>
<g transform="matrix(0.0625 0.0000 0.0000 0.0625 0.0000 0.0000)">
<path d="M 181.0000,1757.0000 L 1390.0000,1757.0000 L 1390.0000,1455.0000 L 181.0000,1455.0000 L 181.0000,1757.0000 Z" stroke="#000000" stroke-width="5.0000"  stroke-linecap="round"  stroke-linejoin="round" fill="none" />
</g>
<g transform="matrix(1.0000 0.0000 0.0000 1.0000 0.0000 0.0000)">
<text font-family="Arial" fill="#000000" style ="white-space:pre;" font-weight="400" text-anchor="start" x="37.0000" y="104.0000" font-size="11.0000" ><![CDATA[MAC]]></text>
</g>
<g transform="matrix(0.0625 0.0000 0.0000 0.0625 0.0000 0.0000)">
<path d="M 181.0000,1304.0000 L 1390.0000,1304.0000 L 1390.0000,1001.0000 L 181.0000,1001.0000 L 181.0000,1304.0000 Z" stroke="#000000" stroke-width="5.0000"  stroke-linecap="round"  stroke-linejoin="round" fill="none" />
</g>
<g transform="matrix(1.0000 0.0000 0.0000 1.0000 0.0000 0.0000)">
<text font-family="Arial" fill="#000000" style ="white-space:pre;" font-weight="400" text-anchor="start" x="38.0000" y="75.0000" font-size="11.0000" ><![CDATA[RLC]]></text>
</g>
<g transform="matrix(0.0625 0.0000 0.0000 0.0625 0.0000 0.0000)">
<path d="M 2448.0000,1757.0000 L 3658.0000,1757.0000 L 3658.0000,1455.0000 L 2448.0000,1455.0000 L 2448.0000,1757.0000 Z" stroke="#000000" stroke-width="5.0000"  stroke-linecap="round"  stroke-linejoin="round" fill="none" />
</g>
<g transform="matrix(1.0000 0.0000 0.0000 1.0000 0.0000 0.0000)">
<text font-family="Arial" fill="#000000" style ="white-space:pre;" font-weight="400" text-anchor="start" x="179.0000" y="104.0000" font-size="11.0000" ><![CDATA[MAC]]></text>
</g>
<g transform="matrix(0.0625 0.0000 0.0000 0.0625 0.0000 0.0000)">
<path d="M 2448.0000,850.0000 L 3658.0000,850.0000 L 3658.0000,548.0000 L 2448.0000,548.0000 L 2448.0000,850.0000 Z" stroke="#000000" stroke-width="5.0000"  stroke-linecap="round"  stroke-linejoin="round" fill="none" />
</g>
<g transform="matrix(1.0000 0.0000 0.0000 1.0000 0.0000 0.0000)">
<text font-family="Arial" fill="#000000" style ="white-space:pre;" font-weight="400" text-anchor="start" x="179.0000" y="47.0000" font-size="11.0000" ><![CDATA[RRC]]></text>
</g>
<g transform="matrix(0.0625 0.0000 0.0000 0.0625 0.0000 0.0000)">
<path d="M 1460.0000,699.0000 L 2379.0000,699.0000 " stroke="#000000" stroke-width="15.0000"  stroke-linecap="round"  stroke-linejoin="round" fill="none" />
</g>
<g transform="matrix(1.0000 0.0000 0.0000 1.0000 0.0000 0.0000)">
</g>
<g transform="matrix(0.0625 0.0000 0.0000 0.0625 0.0000 0.0000)">
<path d="M 1390.0000,699.0000 L 1482.0000,653.0000 C 1468.0000,682.0000 1468.0000,716.0000 1482.0000,745.0000 L 1390.0000,699.0000 Z "  fill="#000000" stroke="none" />
</g>
<g transform="matrix(1.0000 0.0000 0.0000 1.0000 0.0000 0.0000)">
</g>
<g transform="matrix(0.0625 0.0000 0.0000 0.0625 0.0000 0.0000)">
<path d="M 2448.0000,699.0000 L 2356.0000,745.0000 C 2371.0000,716.0000 2371.0000,682.0000 2356.0000,653.0000 L 2356.0000,653.0000 L 2448.0000,699.0000 Z "  fill="#000000" stroke="none" />
</g>
<g transform="matrix(1.0000 0.0000 0.0000 1.0000 0.0000 0.0000)">
</g>
<g transform="matrix(0.0625 0.0000 0.0000 0.0625 0.0000 0.0000)">
<path d="M 1460.0000,1606.0000 L 2379.0000,1606.0000 " stroke="#000000" stroke-width="15.0000"  stroke-linecap="round"  stroke-linejoin="round" fill="none" />
</g>
<g transform="matrix(1.0000 0.0000 0.0000 1.0000 0.0000 0.0000)">
</g>
<g transform="matrix(0.0625 0.0000 0.0000 0.0625 0.0000 0.0000)">
<path d="M 1390.0000,1606.0000 L 1482.0000,1560.0000 C 1468.0000,1589.0000 1468.0000,1623.0000 1482.0000,1652.0000 L 1482.0000,1652.0000 L 1390.0000,1606.0000 Z "  fill="#000000" stroke="none" />
</g>
<g transform="matrix(1.0000 0.0000 0.0000 1.0000 0.0000 0.0000)">
</g>
<g transform="matrix(0.0625 0.0000 0.0000 0.0625 0.0000 0.0000)">
<path d="M 2448.0000,1606.0000 L 2356.0000,1652.0000 C 2371.0000,1623.0000 2371.0000,1589.0000 2356.0000,1560.0000 L 2448.0000,1606.0000 Z "  fill="#000000" stroke="none" />
</g>
<g transform="matrix(1.0000 0.0000 0.0000 1.0000 0.0000 0.0000)">
</g>
<g transform="matrix(0.0625 0.0000 0.0000 0.0625 0.0000 0.0000)">
<path d="M 1460.0000,2060.0000 L 2379.0000,2060.0000 " stroke="#000000" stroke-width="15.0000"  stroke-linecap="round"  stroke-linejoin="round" fill="none" />
</g>
<g transform="matrix(1.0000 0.0000 0.0000 1.0000 0.0000 0.0000)">
</g>
<g transform="matrix(0.0625 0.0000 0.0000 0.0625 0.0000 0.0000)">
<path d="M 1390.0000,2060.0000 L 1482.0000,2014.0000 C 1468.0000,2043.0000 1468.0000,2077.0000 1482.0000,2106.0000 L 1390.0000,2060.0000 Z "  fill="#000000" stroke="none" />
</g>
<g transform="matrix(1.0000 0.0000 0.0000 1.0000 0.0000 0.0000)">
</g>
<g transform="matrix(0.0625 0.0000 0.0000 0.0625 0.0000 0.0000)">
<path d="M 2448.0000,2060.0000 L 2356.0000,2106.0000 C 2371.0000,2077.0000 2371.0000,2043.0000 2356.0000,2014.0000 L 2356.0000,2014.0000 L 2448.0000,2060.0000 Z "  fill="#000000" stroke="none" />
</g>
<g transform="matrix(1.0000 0.0000 0.0000 1.0000 0.0000 0.0000)">
</g>
<g transform="matrix(0.0625 0.0000 0.0000 0.0625 0.0000 0.0000)">
<path d="M 181.0000,850.0000 L 1390.0000,850.0000 L 1390.0000,548.0000 L 181.0000,548.0000 L 181.0000,850.0000 Z" stroke="#000000" stroke-width="5.0000"  stroke-linecap="round"  stroke-linejoin="round" fill="none" />
</g>
<g transform="matrix(1.0000 0.0000 0.0000 1.0000 0.0000 0.0000)">
<text font-family="Arial" fill="#000000" style ="white-space:pre;" font-weight="400" text-anchor="start" x="38.0000" y="47.0000" font-size="11.0000" ><![CDATA[RRC]]></text>
</g>
<g transform="matrix(0.0625 0.0000 0.0000 0.0625 0.0000 0.0000)">
<path d="M 2448.0000,1304.0000 L 3658.0000,1304.0000 L 3658.0000,1001.0000 L 2448.0000,1001.0000 L 2448.0000,1304.0000 Z" stroke="#000000" stroke-width="5.0000"  stroke-linecap="round"  stroke-linejoin="round" fill="none" />
</g>
<g transform="matrix(1.0000 0.0000 0.0000 1.0000 0.0000 0.0000)">
<text font-family="Arial" fill="#000000" style ="white-space:pre;" font-weight="400" text-anchor="start" x="180.0000" y="75.0000" font-size="11.0000" ><![CDATA[RLC]]></text>
</g>
<g transform="matrix(0.0625 0.0000 0.0000 0.0625 0.0000 0.0000)">
<path d="M 1460.0000,1153.0000 L 2379.0000,1153.0000 " stroke="#000000" stroke-width="15.0000"  stroke-linecap="round"  stroke-linejoin="round" fill="none" />
</g>
<g transform="matrix(1.0000 0.0000 0.0000 1.0000 0.0000 0.0000)">
</g>
<g transform="matrix(0.0625 0.0000 0.0000 0.0625 0.0000 0.0000)">
<path d="M 1390.0000,1153.0000 L 1482.0000,1107.0000 C 1468.0000,1136.0000 1468.0000,1170.0000 1482.0000,1199.0000 L 1482.0000,1199.0000 L 1390.0000,1153.0000 Z "  fill="#000000" stroke="none" />
</g>
<g transform="matrix(1.0000 0.0000 0.0000 1.0000 0.0000 0.0000)">
</g>
<g transform="matrix(0.0625 0.0000 0.0000 0.0625 0.0000 0.0000)">
<path d="M 2448.0000,1153.0000 L 2356.0000,1199.0000 C 2371.0000,1170.0000 2371.0000,1136.0000 2356.0000,1107.0000 L 2448.0000,1153.0000 Z "  fill="#000000" stroke="none" />
</g>
<g transform="matrix(1.0000 0.0000 0.0000 1.0000 0.0000 0.0000)">
</g>
</g>
</svg>
