<?xml version="1.0"  encoding="UTF-8" standalone="no"?>
<svg version="1.1" xmlns="http://www.w3.org/2000/svg" xmlns:xlink="http://www.w3.org/1999/xlink" width="269.0000" height="184.0000">
<g transform="translate(-2.0000, -9.0000)">
<g transform="matrix(0.0625 0.0000 0.0000 0.0625 0.0000 0.0000)">
<path d="M 920.0000,974.0000 C 920.0000,874.0000 893.0000,793.0000 859.0000,793.0000 C 826.0000,793.0000 799.0000,874.0000 799.0000,974.0000 C 799.0000,1074.0000 826.0000,1156.0000 859.0000,1156.0000 C 893.0000,1156.0000 920.0000,1074.0000 920.0000,974.0000 "  fill="#FFFFFF" stroke="none" />
</g>
<g transform="matrix(1.0000 0.0000 0.0000 1.0000 0.0000 0.0000)">
</g>
<g transform="matrix(0.0625 0.0000 0.0000 0.0625 0.0000 0.0000)">
<path d="M 920.0000,974.0000 M 920.0000,974.0000 C 920.0000,874.0000 893.0000,793.0000 859.0000,793.0000 C 826.0000,793.0000 799.0000,874.0000 799.0000,974.0000 C 799.0000,1074.0000 826.0000,1156.0000 859.0000,1156.0000 C 893.0000,1156.0000 920.0000,1074.0000 920.0000,974.0000 " stroke="#000000" stroke-width="15.0000"  stroke-linecap="round"  stroke-linejoin="round"  fill="none" />
</g>
<g transform="matrix(1.0000 0.0000 0.0000 1.0000 0.0000 0.0000)">
</g>
<g transform="matrix(0.0625 0.0000 0.0000 0.0625 0.0000 0.0000)">
<path d="M 493.0000,493.0000 L 493.0000,3054.0000 " stroke="#000000" stroke-width="15.0000"  stroke-linecap="round"  stroke-linejoin="round" fill="none" />
</g>
<g transform="matrix(1.0000 0.0000 0.0000 1.0000 0.0000 0.0000)">
</g>
<g transform="matrix(0.0625 0.0000 0.0000 0.0625 0.0000 0.0000)">
<path d="M 3925.0000,493.0000 L 3925.0000,3054.0000 " stroke="#000000" stroke-width="15.0000"  stroke-linecap="round"  stroke-linejoin="round" fill="none" />
</g>
<g transform="matrix(1.0000 0.0000 0.0000 1.0000 0.0000 0.0000)">
<text font-family="Arial" fill="#000000" style ="white-space:pre;" font-weight="400" text-anchor="start" x="23.0000" y="20.0000" font-size="11.0000" ><![CDATA[UE]]></text>
<text font-family="Arial" fill="#000000" style ="white-space:pre;" font-weight="400" text-anchor="start" x="235.0000" y="20.0000" font-size="11.0000" ><![CDATA[g]]></text>
<text font-family="Arial" fill="#000000" style ="white-space:pre;" font-weight="400" text-anchor="start" x="241.0000" y="20.0000" font-size="11.0000" ><![CDATA[NB]]></text>
</g>
<g transform="matrix(0.0625 0.0000 0.0000 0.0625 0.0000 0.0000)">
<path d="M 493.0000,850.0000 L 3821.0000,850.0000 " stroke="#000000" stroke-width="15.0000"  stroke-linecap="round"  stroke-linejoin="round" fill="none" />
</g>
<g transform="matrix(1.0000 0.0000 0.0000 1.0000 0.0000 0.0000)">
</g>
<g transform="matrix(0.0625 0.0000 0.0000 0.0625 0.0000 0.0000)">
<path d="M 3925.0000,850.0000 L 3787.0000,919.0000 C 3809.0000,876.0000 3809.0000,825.0000 3787.0000,781.0000 L 3787.0000,781.0000 L 3925.0000,850.0000 Z "  fill="#000000" stroke="none" />
</g>
<g transform="matrix(1.0000 0.0000 0.0000 1.0000 0.0000 0.0000)">
</g>
<g transform="matrix(0.0625 0.0000 0.0000 0.0625 0.0000 0.0000)">
<path d="M 1199.0000,748.0000 L 1199.0000,953.0000 L 3219.0000,953.0000 L 3219.0000,748.0000 L 1199.0000,748.0000 Z" stroke-width="1px" stroke="#FFFFFF"  fill="#FFFFFF" />
</g>
<g transform="matrix(1.0000 0.0000 0.0000 1.0000 0.0000 0.0000)">
<text font-family="Arial" fill="#000000" style ="white-space:pre;" font-weight="400" text-anchor="start" x="75.0000" y="56.0000" font-size="11.0000" ><![CDATA[Random Access Preamble]]></text>
</g>
<g transform="matrix(0.0625 0.0000 0.0000 0.0625 0.0000 0.0000)">
<path d="M 63.0000,970.0000 C 63.0000,882.0000 134.0000,811.0000 221.0000,811.0000 C 309.0000,811.0000 380.0000,882.0000 380.0000,970.0000 C 380.0000,970.0000 380.0000,970.0000 380.0000,970.0000 C 380.0000,1057.0000 309.0000,1128.0000 221.0000,1128.0000 C 134.0000,1128.0000 63.0000,1057.0000 63.0000,970.0000 "  fill="#CCFFCC" stroke="none" />
</g>
<g transform="matrix(1.0000 0.0000 0.0000 1.0000 0.0000 0.0000)">
</g>
<g transform="matrix(0.0625 0.0000 0.0000 0.0625 0.0000 0.0000)">
<path d="M 63.0000,970.0000 M 63.0000,970.0000 C 63.0000,882.0000 134.0000,811.0000 221.0000,811.0000 C 309.0000,811.0000 380.0000,882.0000 380.0000,970.0000 C 380.0000,970.0000 380.0000,970.0000 380.0000,970.0000 C 380.0000,1057.0000 309.0000,1128.0000 221.0000,1128.0000 C 134.0000,1128.0000 63.0000,1057.0000 63.0000,970.0000 " stroke="#000000" stroke-width="5.0000"  stroke-linecap="round"  stroke-linejoin="round"  fill="none" />
</g>
<g transform="matrix(1.0000 0.0000 0.0000 1.0000 0.0000 0.0000)">
<text font-family="Arial" fill="#000000" style ="white-space:pre;" font-weight="400" text-anchor="start" x="10.0000" y="64.0000" font-size="11.0000" ><![CDATA[A]]></text>
</g>
<g transform="matrix(0.0625 0.0000 0.0000 0.0625 0.0000 0.0000)">
<path d="M 598.0000,2215.0000 L 3925.0000,2215.0000 " stroke="#000000" stroke-width="15.0000"  stroke-linecap="round"  stroke-linejoin="round" fill="none" />
</g>
<g transform="matrix(1.0000 0.0000 0.0000 1.0000 0.0000 0.0000)">
</g>
<g transform="matrix(0.0625 0.0000 0.0000 0.0625 0.0000 0.0000)">
<path d="M 493.0000,2215.0000 L 632.0000,2146.0000 C 610.0000,2190.0000 610.0000,2241.0000 632.0000,2284.0000 L 493.0000,2215.0000 Z "  fill="#000000" stroke="none" />
</g>
<g transform="matrix(1.0000 0.0000 0.0000 1.0000 0.0000 0.0000)">
</g>
<g transform="matrix(0.0625 0.0000 0.0000 0.0625 0.0000 0.0000)">
<path d="M 1370.0000,2113.0000 L 1370.0000,2318.0000 L 3049.0000,2318.0000 L 3049.0000,2113.0000 L 1370.0000,2113.0000 Z" stroke-width="1px" stroke="#FFFFFF"  fill="#FFFFFF" />
</g>
<g transform="matrix(1.0000 0.0000 0.0000 1.0000 0.0000 0.0000)">
<text font-family="Arial" fill="#000000" style ="white-space:pre;" font-weight="400" text-anchor="start" x="86.0000" y="142.0000" font-size="11.0000" ><![CDATA[Contention Resolution]]></text>
</g>
<g transform="matrix(0.0625 0.0000 0.0000 0.0625 0.0000 0.0000)">
<path d="M 3986.0000,2215.0000 C 3986.0000,2128.0000 4057.0000,2057.0000 4144.0000,2057.0000 C 4232.0000,2057.0000 4303.0000,2128.0000 4303.0000,2215.0000 C 4303.0000,2215.0000 4303.0000,2215.0000 4303.0000,2215.0000 C 4303.0000,2303.0000 4232.0000,2374.0000 4144.0000,2374.0000 C 4057.0000,2374.0000 3986.0000,2303.0000 3986.0000,2215.0000 "  fill="#CCFFCC" stroke="none" />
</g>
<g transform="matrix(1.0000 0.0000 0.0000 1.0000 0.0000 0.0000)">
</g>
<g transform="matrix(0.0625 0.0000 0.0000 0.0625 0.0000 0.0000)">
<path d="M 3986.0000,2215.0000 M 3986.0000,2215.0000 C 3986.0000,2128.0000 4057.0000,2057.0000 4144.0000,2057.0000 C 4232.0000,2057.0000 4303.0000,2128.0000 4303.0000,2215.0000 C 4303.0000,2215.0000 4303.0000,2215.0000 4303.0000,2215.0000 C 4303.0000,2303.0000 4232.0000,2374.0000 4144.0000,2374.0000 C 4057.0000,2374.0000 3986.0000,2303.0000 3986.0000,2215.0000 " stroke="#000000" stroke-width="5.0000"  stroke-linecap="round"  stroke-linejoin="round"  fill="none" />
</g>
<g transform="matrix(1.0000 0.0000 0.0000 1.0000 0.0000 0.0000)">
<text font-family="Arial" fill="#000000" style ="white-space:pre;" font-weight="400" text-anchor="start" x="256.0000" y="142.0000" font-size="11.0000" ><![CDATA[B]]></text>
</g>
<g transform="matrix(0.0625 0.0000 0.0000 0.0625 0.0000 0.0000)">
<path d="M 493.0000,1113.0000 L 3821.0000,1113.0000 " stroke="#000000" stroke-width="15.0000"  stroke-linecap="round"  stroke-linejoin="round" fill="none" />
</g>
<g transform="matrix(1.0000 0.0000 0.0000 1.0000 0.0000 0.0000)">
</g>
<g transform="matrix(0.0625 0.0000 0.0000 0.0625 0.0000 0.0000)">
<path d="M 3925.0000,1113.0000 L 3787.0000,1182.0000 C 3809.0000,1139.0000 3809.0000,1088.0000 3787.0000,1044.0000 L 3925.0000,1113.0000 Z "  fill="#000000" stroke="none" />
</g>
<g transform="matrix(1.0000 0.0000 0.0000 1.0000 0.0000 0.0000)">
</g>
<g transform="matrix(0.0625 0.0000 0.0000 0.0625 0.0000 0.0000)">
<path d="M 1588.0000,1011.0000 L 1588.0000,1216.0000 L 2831.0000,1216.0000 L 2831.0000,1011.0000 L 1588.0000,1011.0000 Z" stroke-width="1px" stroke="#FFFFFF"  fill="#FFFFFF" />
</g>
<g transform="matrix(1.0000 0.0000 0.0000 1.0000 0.0000 0.0000)">
<text font-family="Arial" fill="#000000" style ="white-space:pre;" font-weight="400" text-anchor="start" x="99.0000" y="73.0000" font-size="11.0000" ><![CDATA[PUSCH payload]]></text>
</g>
</g>
</svg>
