<?xml version="1.0"  encoding="UTF-8" standalone="no"?>
<svg version="1.1" xmlns="http://www.w3.org/2000/svg" xmlns:xlink="http://www.w3.org/1999/xlink" width="414.0000" height="300.0000">
<g transform="translate(-17.0000, -6.0000)">
<g transform="matrix(0.0625 0.0000 0.0000 0.0625 0.0000 0.0000)">
<path d="M 637.0000,4870.0000 L 637.0000,575.0000 " stroke="#000000" stroke-width="5.0000"  stroke-linecap="round"  stroke-linejoin="round" fill="none" />
</g>
<g transform="matrix(1.0000 0.0000 0.0000 1.0000 0.0000 0.0000)">
</g>
<g transform="matrix(0.0625 0.0000 0.0000 0.0625 0.0000 0.0000)">
<path d="M 637.0000,485.0000 L 578.0000,603.0000 C 615.0000,585.0000 658.0000,585.0000 695.0000,603.0000 L 637.0000,485.0000 Z "  fill="#000000" stroke="none" />
</g>
<g transform="matrix(1.0000 0.0000 0.0000 1.0000 0.0000 0.0000)">
</g>
<g transform="matrix(0.0625 0.0000 0.0000 0.0625 0.0000 0.0000)">
<path d="M 334.0000,4567.0000 L 6443.0000,4567.0000 " stroke="#000000" stroke-width="5.0000"  stroke-linecap="round"  stroke-linejoin="round" fill="none" />
</g>
<g transform="matrix(1.0000 0.0000 0.0000 1.0000 0.0000 0.0000)">
</g>
<g transform="matrix(0.0625 0.0000 0.0000 0.0625 0.0000 0.0000)">
<path d="M 6533.0000,4567.0000 L 6415.0000,4626.0000 C 6433.0000,4589.0000 6433.0000,4545.0000 6415.0000,4508.0000 L 6533.0000,4567.0000 Z "  fill="#000000" stroke="none" />
</g>
<g transform="matrix(1.0000 0.0000 0.0000 1.0000 0.0000 0.0000)">
</g>
<g transform="matrix(1.0000 0.0000 0.0000 1.0000 414.0927 289.1247)">
<text font-family="Times New Roman" fill="#000000" font-style="italic" style ="white-space:pre;" font-weight="400" text-anchor="start" x="0.0000" y="0.0000" font-size="11.0000" ><![CDATA[time]]></text>
</g>
<g transform="matrix(1.0000 0.0000 0.0000 1.0000 19.2292 16.9986)">
<text font-family="Times New Roman" fill="#000000" font-style="italic" style ="white-space:pre;" font-weight="400" text-anchor="start" x="0.0000" y="0.0000" font-size="11.0000" ><![CDATA[frequency]]></text>
</g>
<g transform="matrix(0.0625 0.0000 0.0000 0.0625 0.0000 0.0000)">
<path d="M 637.0000,1997.0000 L 637.0000,4114.0000 L 1544.0000,4114.0000 L 1544.0000,1997.0000 L 637.0000,1997.0000 Z" stroke-width="1px" stroke="#FFFFCC"  fill="#FFFFCC" />
</g>
<g transform="matrix(1.0000 0.0000 0.0000 1.0000 0.0000 0.0000)">
</g>
<g transform="matrix(0.0625 0.0000 0.0000 0.0625 0.0000 0.0000)">
<path d="M 637.0000,4114.0000 L 1544.0000,4114.0000 L 1544.0000,1997.0000 L 637.0000,1997.0000 L 637.0000,4114.0000 Z" stroke="#000000" stroke-width="5.0000"  stroke-linecap="round"  stroke-linejoin="round" fill="none" />
</g>
<g transform="matrix(1.0000 0.0000 0.0000 1.0000 0.0000 0.0000)">
</g>
<g transform="matrix(1.0000 0.0000 0.0000 1.0000 54.5261 183.4306)">
<text font-family="Arial" fill="#000000" style ="white-space:pre;" font-weight="400" text-anchor="start" x="0.0000" y="0.0000" font-size="11.0000" ><![CDATA[BWP]]></text>
</g>
<g transform="matrix(1.0000 0.0000 0.0000 1.0000 78.8224 184.9043)">
<text font-family="Arial" fill="#000000" style ="white-space:pre;" font-weight="400" text-anchor="start" x="0.0000" y="0.0000" font-size="7.0000" ><![CDATA[1]]></text>
</g>
<g transform="matrix(1.0000 0.0000 0.0000 1.0000 55.9320 193.8307)">
<text font-family="Arial" fill="#000000" style ="white-space:pre;" font-weight="400" text-anchor="start" x="0.0000" y="0.0000" font-size="8.0000" ><![CDATA[40MHz]]></text>
</g>
<g transform="matrix(1.0000 0.0000 0.0000 1.0000 57.2639 205.8303)">
<text font-family="Arial" fill="#000000" style ="white-space:pre;" font-weight="400" text-anchor="start" x="0.0000" y="0.0000" font-size="8.0000" ><![CDATA[15kHz]]></text>
</g>
<g transform="matrix(0.0625 0.0000 0.0000 0.0625 0.0000 0.0000)">
<path d="M 1546.0000,3207.0000 L 1546.0000,3242.0000 C 1546.0000,3244.0000 1545.0000,3245.0000 1544.0000,3245.0000 C 1542.0000,3245.0000 1541.0000,3244.0000 1541.0000,3242.0000 L 1541.0000,3207.0000 C 1541.0000,3205.0000 1542.0000,3204.0000 1544.0000,3204.0000 C 1545.0000,3204.0000 1546.0000,3205.0000 1546.0000,3207.0000 Z M 1546.0000,3268.0000 L 1546.0000,3304.0000 C 1546.0000,3305.0000 1545.0000,3306.0000 1544.0000,3306.0000 C 1542.0000,3306.0000 1541.0000,3305.0000 1541.0000,3304.0000 L 1541.0000,3268.0000 C 1541.0000,3267.0000 1542.0000,3266.0000 1544.0000,3266.0000 C 1545.0000,3266.0000 1546.0000,3267.0000 1546.0000,3268.0000 Z M 1546.0000,3330.0000 L 1546.0000,3365.0000 C 1546.0000,3367.0000 1545.0000,3368.0000 1544.0000,3368.0000 C 1542.0000,3368.0000 1541.0000,3367.0000 1541.0000,3365.0000 L 1541.0000,3330.0000 C 1541.0000,3328.0000 1542.0000,3327.0000 1544.0000,3327.0000 C 1545.0000,3327.0000 1546.0000,3328.0000 1546.0000,3330.0000 Z M 1546.0000,3391.0000 L 1546.0000,3427.0000 C 1546.0000,3428.0000 1545.0000,3429.0000 1544.0000,3429.0000 C 1542.0000,3429.0000 1541.0000,3428.0000 1541.0000,3427.0000 L 1541.0000,3391.0000 C 1541.0000,3390.0000 1542.0000,3388.0000 1544.0000,3388.0000 C 1545.0000,3388.0000 1546.0000,3390.0000 1546.0000,3391.0000 Z M 1546.0000,3452.0000 L 1546.0000,3488.0000 C 1546.0000,3490.0000 1545.0000,3491.0000 1544.0000,3491.0000 C 1542.0000,3491.0000 1541.0000,3490.0000 1541.0000,3488.0000 L 1541.0000,3452.0000 C 1541.0000,3451.0000 1542.0000,3450.0000 1544.0000,3450.0000 C 1545.0000,3450.0000 1546.0000,3451.0000 1546.0000,3452.0000 Z M 1546.0000,3514.0000 L 1546.0000,3550.0000 C 1546.0000,3551.0000 1545.0000,3552.0000 1544.0000,3552.0000 C 1542.0000,3552.0000 1541.0000,3551.0000 1541.0000,3550.0000 L 1541.0000,3514.0000 C 1541.0000,3512.0000 1542.0000,3511.0000 1544.0000,3511.0000 C 1545.0000,3511.0000 1546.0000,3512.0000 1546.0000,3514.0000 Z M 1546.0000,3575.0000 L 1546.0000,3611.0000 C 1546.0000,3613.0000 1545.0000,3614.0000 1544.0000,3614.0000 C 1542.0000,3614.0000 1541.0000,3613.0000 1541.0000,3611.0000 L 1541.0000,3575.0000 C 1541.0000,3574.0000 1542.0000,3573.0000 1544.0000,3573.0000 C 1545.0000,3573.0000 1546.0000,3574.0000 1546.0000,3575.0000 Z M 1546.0000,3637.0000 L 1546.0000,3673.0000 C 1546.0000,3674.0000 1545.0000,3675.0000 1544.0000,3675.0000 C 1542.0000,3675.0000 1541.0000,3674.0000 1541.0000,3673.0000 L 1541.0000,3637.0000 C 1541.0000,3635.0000 1542.0000,3634.0000 1544.0000,3634.0000 C 1545.0000,3634.0000 1546.0000,3635.0000 1546.0000,3637.0000 Z M 1546.0000,3698.0000 L 1546.0000,3734.0000 C 1546.0000,3735.0000 1545.0000,3737.0000 1544.0000,3737.0000 C 1542.0000,3737.0000 1541.0000,3735.0000 1541.0000,3734.0000 L 1541.0000,3698.0000 C 1541.0000,3697.0000 1542.0000,3696.0000 1544.0000,3696.0000 C 1545.0000,3696.0000 1546.0000,3697.0000 1546.0000,3698.0000 Z M 1546.0000,3760.0000 L 1546.0000,3795.0000 C 1546.0000,3797.0000 1545.0000,3798.0000 1544.0000,3798.0000 C 1542.0000,3798.0000 1541.0000,3797.0000 1541.0000,3795.0000 L 1541.0000,3760.0000 C 1541.0000,3758.0000 1542.0000,3757.0000 1544.0000,3757.0000 C 1545.0000,3757.0000 1546.0000,3758.0000 1546.0000,3760.0000 Z M 1546.0000,3821.0000 L 1546.0000,3857.0000 C 1546.0000,3858.0000 1545.0000,3859.0000 1544.0000,3859.0000 C 1542.0000,3859.0000 1541.0000,3858.0000 1541.0000,3857.0000 L 1541.0000,3821.0000 C 1541.0000,3820.0000 1542.0000,3818.0000 1544.0000,3818.0000 C 1545.0000,3818.0000 1546.0000,3820.0000 1546.0000,3821.0000 Z M 1546.0000,3882.0000 L 1546.0000,3918.0000 C 1546.0000,3920.0000 1545.0000,3921.0000 1544.0000,3921.0000 C 1542.0000,3921.0000 1541.0000,3920.0000 1541.0000,3918.0000 L 1541.0000,3882.0000 C 1541.0000,3881.0000 1542.0000,3880.0000 1544.0000,3880.0000 C 1545.0000,3880.0000 1546.0000,3881.0000 1546.0000,3882.0000 Z M 1546.0000,3944.0000 L 1546.0000,3980.0000 C 1546.0000,3981.0000 1545.0000,3982.0000 1544.0000,3982.0000 C 1542.0000,3982.0000 1541.0000,3981.0000 1541.0000,3980.0000 L 1541.0000,3944.0000 C 1541.0000,3942.0000 1542.0000,3941.0000 1544.0000,3941.0000 C 1545.0000,3941.0000 1546.0000,3942.0000 1546.0000,3944.0000 Z M 1546.0000,4005.0000 L 1546.0000,4041.0000 C 1546.0000,4043.0000 1545.0000,4044.0000 1544.0000,4044.0000 C 1542.0000,4044.0000 1541.0000,4043.0000 1541.0000,4041.0000 L 1541.0000,4005.0000 C 1541.0000,4004.0000 1542.0000,4003.0000 1544.0000,4003.0000 C 1545.0000,4003.0000 1546.0000,4004.0000 1546.0000,4005.0000 Z M 1546.0000,4067.0000 L 1546.0000,4103.0000 C 1546.0000,4104.0000 1545.0000,4105.0000 1544.0000,4105.0000 C 1542.0000,4105.0000 1541.0000,4104.0000 1541.0000,4103.0000 L 1541.0000,4067.0000 C 1541.0000,4065.0000 1542.0000,4064.0000 1544.0000,4064.0000 C 1545.0000,4064.0000 1546.0000,4065.0000 1546.0000,4067.0000 Z M 1546.0000,4128.0000 L 1546.0000,4164.0000 C 1546.0000,4165.0000 1545.0000,4167.0000 1544.0000,4167.0000 C 1542.0000,4167.0000 1541.0000,4165.0000 1541.0000,4164.0000 L 1541.0000,4128.0000 C 1541.0000,4127.0000 1542.0000,4126.0000 1544.0000,4126.0000 C 1545.0000,4126.0000 1546.0000,4127.0000 1546.0000,4128.0000 Z M 1546.0000,4190.0000 L 1546.0000,4226.0000 C 1546.0000,4227.0000 1545.0000,4228.0000 1544.0000,4228.0000 C 1542.0000,4228.0000 1541.0000,4227.0000 1541.0000,4226.0000 L 1541.0000,4190.0000 C 1541.0000,4188.0000 1542.0000,4187.0000 1544.0000,4187.0000 C 1545.0000,4187.0000 1546.0000,4188.0000 1546.0000,4190.0000 Z M 1546.0000,4251.0000 L 1546.0000,4287.0000 C 1546.0000,4288.0000 1545.0000,4290.0000 1544.0000,4290.0000 C 1542.0000,4290.0000 1541.0000,4288.0000 1541.0000,4287.0000 L 1541.0000,4251.0000 C 1541.0000,4250.0000 1542.0000,4249.0000 1544.0000,4249.0000 C 1545.0000,4249.0000 1546.0000,4250.0000 1546.0000,4251.0000 Z M 1546.0000,4313.0000 L 1546.0000,4348.0000 C 1546.0000,4350.0000 1545.0000,4351.0000 1544.0000,4351.0000 C 1542.0000,4351.0000 1541.0000,4350.0000 1541.0000,4348.0000 L 1541.0000,4313.0000 C 1541.0000,4311.0000 1542.0000,4310.0000 1544.0000,4310.0000 C 1545.0000,4310.0000 1546.0000,4311.0000 1546.0000,4313.0000 Z M 1546.0000,4374.0000 L 1546.0000,4410.0000 C 1546.0000,4411.0000 1545.0000,4412.0000 1544.0000,4412.0000 C 1542.0000,4412.0000 1541.0000,4411.0000 1541.0000,4410.0000 L 1541.0000,4374.0000 C 1541.0000,4373.0000 1542.0000,4371.0000 1544.0000,4371.0000 C 1545.0000,4371.0000 1546.0000,4373.0000 1546.0000,4374.0000 Z M 1546.0000,4435.0000 L 1546.0000,4471.0000 C 1546.0000,4473.0000 1545.0000,4474.0000 1544.0000,4474.0000 C 1542.0000,4474.0000 1541.0000,4473.0000 1541.0000,4471.0000 L 1541.0000,4435.0000 C 1541.0000,4434.0000 1542.0000,4433.0000 1544.0000,4433.0000 C 1545.0000,4433.0000 1546.0000,4434.0000 1546.0000,4435.0000 Z M 1546.0000,4497.0000 L 1546.0000,4533.0000 C 1546.0000,4534.0000 1545.0000,4535.0000 1544.0000,4535.0000 C 1542.0000,4535.0000 1541.0000,4534.0000 1541.0000,4533.0000 L 1541.0000,4497.0000 C 1541.0000,4495.0000 1542.0000,4494.0000 1544.0000,4494.0000 C 1545.0000,4494.0000 1546.0000,4495.0000 1546.0000,4497.0000 Z M 1546.0000,4558.0000 L 1546.0000,4594.0000 C 1546.0000,4596.0000 1545.0000,4597.0000 1544.0000,4597.0000 C 1542.0000,4597.0000 1541.0000,4596.0000 1541.0000,4594.0000 L 1541.0000,4558.0000 C 1541.0000,4557.0000 1542.0000,4556.0000 1544.0000,4556.0000 C 1545.0000,4556.0000 1546.0000,4557.0000 1546.0000,4558.0000 Z M 1546.0000,4620.0000 L 1546.0000,4656.0000 C 1546.0000,4657.0000 1545.0000,4658.0000 1544.0000,4658.0000 C 1542.0000,4658.0000 1541.0000,4657.0000 1541.0000,4656.0000 L 1541.0000,4620.0000 C 1541.0000,4618.0000 1542.0000,4617.0000 1544.0000,4617.0000 C 1545.0000,4617.0000 1546.0000,4618.0000 1546.0000,4620.0000 Z M 1546.0000,4681.0000 L 1546.0000,4717.0000 C 1546.0000,4718.0000 1545.0000,4720.0000 1544.0000,4720.0000 C 1542.0000,4720.0000 1541.0000,4718.0000 1541.0000,4717.0000 L 1541.0000,4681.0000 C 1541.0000,4680.0000 1542.0000,4679.0000 1544.0000,4679.0000 C 1545.0000,4679.0000 1546.0000,4680.0000 1546.0000,4681.0000 Z M 1546.0000,4743.0000 L 1546.0000,4778.0000 C 1546.0000,4780.0000 1545.0000,4781.0000 1544.0000,4781.0000 C 1542.0000,4781.0000 1541.0000,4780.0000 1541.0000,4778.0000 L 1541.0000,4743.0000 C 1541.0000,4741.0000 1542.0000,4740.0000 1544.0000,4740.0000 C 1545.0000,4740.0000 1546.0000,4741.0000 1546.0000,4743.0000 Z M 1546.0000,4804.0000 L 1546.0000,4840.0000 C 1546.0000,4841.0000 1545.0000,4842.0000 1544.0000,4842.0000 C 1542.0000,4842.0000 1541.0000,4841.0000 1541.0000,4840.0000 L 1541.0000,4804.0000 C 1541.0000,4803.0000 1542.0000,4802.0000 1544.0000,4802.0000 C 1545.0000,4802.0000 1546.0000,4803.0000 1546.0000,4804.0000 Z M 1546.0000,4866.0000 L 1546.0000,4870.0000 C 1546.0000,4871.0000 1545.0000,4872.0000 1544.0000,4872.0000 C 1542.0000,4872.0000 1541.0000,4871.0000 1541.0000,4870.0000 L 1541.0000,4866.0000 C 1541.0000,4864.0000 1542.0000,4863.0000 1544.0000,4863.0000 C 1545.0000,4863.0000 1546.0000,4864.0000 1546.0000,4866.0000 Z "  fill="#000000" stroke="#000000" stroke-width="1.0000"  stroke-linecap="butt"  stroke-linejoin="round" />
</g>
<g transform="matrix(1.0000 0.0000 0.0000 1.0000 0.0000 0.0000)">
</g>
<g transform="matrix(0.0625 0.0000 0.0000 0.0625 0.0000 0.0000)">
<path d="M 3058.0000,1392.0000 L 3058.0000,1428.0000 C 3058.0000,1430.0000 3057.0000,1431.0000 3055.0000,1431.0000 C 3054.0000,1431.0000 3053.0000,1430.0000 3053.0000,1428.0000 L 3053.0000,1392.0000 C 3053.0000,1391.0000 3054.0000,1390.0000 3055.0000,1390.0000 C 3057.0000,1390.0000 3058.0000,1391.0000 3058.0000,1392.0000 Z M 3058.0000,1454.0000 L 3058.0000,1490.0000 C 3058.0000,1491.0000 3057.0000,1492.0000 3055.0000,1492.0000 C 3054.0000,1492.0000 3053.0000,1491.0000 3053.0000,1490.0000 L 3053.0000,1454.0000 C 3053.0000,1452.0000 3054.0000,1451.0000 3055.0000,1451.0000 C 3057.0000,1451.0000 3058.0000,1452.0000 3058.0000,1454.0000 Z M 3058.0000,1515.0000 L 3058.0000,1551.0000 C 3058.0000,1553.0000 3057.0000,1554.0000 3055.0000,1554.0000 C 3054.0000,1554.0000 3053.0000,1553.0000 3053.0000,1551.0000 L 3053.0000,1515.0000 C 3053.0000,1514.0000 3054.0000,1513.0000 3055.0000,1513.0000 C 3057.0000,1513.0000 3058.0000,1514.0000 3058.0000,1515.0000 Z M 3058.0000,1577.0000 L 3058.0000,1613.0000 C 3058.0000,1614.0000 3057.0000,1615.0000 3055.0000,1615.0000 C 3054.0000,1615.0000 3053.0000,1614.0000 3053.0000,1613.0000 L 3053.0000,1577.0000 C 3053.0000,1575.0000 3054.0000,1574.0000 3055.0000,1574.0000 C 3057.0000,1574.0000 3058.0000,1575.0000 3058.0000,1577.0000 Z M 3058.0000,1638.0000 L 3058.0000,1674.0000 C 3058.0000,1675.0000 3057.0000,1677.0000 3055.0000,1677.0000 C 3054.0000,1677.0000 3053.0000,1675.0000 3053.0000,1674.0000 L 3053.0000,1638.0000 C 3053.0000,1637.0000 3054.0000,1636.0000 3055.0000,1636.0000 C 3057.0000,1636.0000 3058.0000,1637.0000 3058.0000,1638.0000 Z M 3058.0000,1700.0000 L 3058.0000,1735.0000 C 3058.0000,1737.0000 3057.0000,1738.0000 3055.0000,1738.0000 C 3054.0000,1738.0000 3053.0000,1737.0000 3053.0000,1735.0000 L 3053.0000,1700.0000 C 3053.0000,1698.0000 3054.0000,1697.0000 3055.0000,1697.0000 C 3057.0000,1697.0000 3058.0000,1698.0000 3058.0000,1700.0000 Z M 3058.0000,1761.0000 L 3058.0000,1797.0000 C 3058.0000,1798.0000 3057.0000,1799.0000 3055.0000,1799.0000 C 3054.0000,1799.0000 3053.0000,1798.0000 3053.0000,1797.0000 L 3053.0000,1761.0000 C 3053.0000,1760.0000 3054.0000,1759.0000 3055.0000,1759.0000 C 3057.0000,1759.0000 3058.0000,1760.0000 3058.0000,1761.0000 Z M 3058.0000,1823.0000 L 3058.0000,1858.0000 C 3058.0000,1860.0000 3057.0000,1861.0000 3055.0000,1861.0000 C 3054.0000,1861.0000 3053.0000,1860.0000 3053.0000,1858.0000 L 3053.0000,1823.0000 C 3053.0000,1821.0000 3054.0000,1820.0000 3055.0000,1820.0000 C 3057.0000,1820.0000 3058.0000,1821.0000 3058.0000,1823.0000 Z M 3058.0000,1884.0000 L 3058.0000,1920.0000 C 3058.0000,1921.0000 3057.0000,1922.0000 3055.0000,1922.0000 C 3054.0000,1922.0000 3053.0000,1921.0000 3053.0000,1920.0000 L 3053.0000,1884.0000 C 3053.0000,1883.0000 3054.0000,1881.0000 3055.0000,1881.0000 C 3057.0000,1881.0000 3058.0000,1883.0000 3058.0000,1884.0000 Z M 3058.0000,1945.0000 L 3058.0000,1981.0000 C 3058.0000,1983.0000 3057.0000,1984.0000 3055.0000,1984.0000 C 3054.0000,1984.0000 3053.0000,1983.0000 3053.0000,1981.0000 L 3053.0000,1945.0000 C 3053.0000,1944.0000 3054.0000,1943.0000 3055.0000,1943.0000 C 3057.0000,1943.0000 3058.0000,1944.0000 3058.0000,1945.0000 Z M 3058.0000,2007.0000 L 3058.0000,2043.0000 C 3058.0000,2044.0000 3057.0000,2045.0000 3055.0000,2045.0000 C 3054.0000,2045.0000 3053.0000,2044.0000 3053.0000,2043.0000 L 3053.0000,2007.0000 C 3053.0000,2005.0000 3054.0000,2004.0000 3055.0000,2004.0000 C 3057.0000,2004.0000 3058.0000,2005.0000 3058.0000,2007.0000 Z M 3058.0000,2068.0000 L 3058.0000,2104.0000 C 3058.0000,2106.0000 3057.0000,2107.0000 3055.0000,2107.0000 C 3054.0000,2107.0000 3053.0000,2106.0000 3053.0000,2104.0000 L 3053.0000,2068.0000 C 3053.0000,2067.0000 3054.0000,2066.0000 3055.0000,2066.0000 C 3057.0000,2066.0000 3058.0000,2067.0000 3058.0000,2068.0000 Z M 3058.0000,2130.0000 L 3058.0000,2166.0000 C 3058.0000,2167.0000 3057.0000,2168.0000 3055.0000,2168.0000 C 3054.0000,2168.0000 3053.0000,2167.0000 3053.0000,2166.0000 L 3053.0000,2130.0000 C 3053.0000,2128.0000 3054.0000,2127.0000 3055.0000,2127.0000 C 3057.0000,2127.0000 3058.0000,2128.0000 3058.0000,2130.0000 Z M 3058.0000,2191.0000 L 3058.0000,2227.0000 C 3058.0000,2228.0000 3057.0000,2230.0000 3055.0000,2230.0000 C 3054.0000,2230.0000 3053.0000,2228.0000 3053.0000,2227.0000 L 3053.0000,2191.0000 C 3053.0000,2190.0000 3054.0000,2189.0000 3055.0000,2189.0000 C 3057.0000,2189.0000 3058.0000,2190.0000 3058.0000,2191.0000 Z M 3058.0000,2253.0000 L 3058.0000,2288.0000 C 3058.0000,2290.0000 3057.0000,2291.0000 3055.0000,2291.0000 C 3054.0000,2291.0000 3053.0000,2290.0000 3053.0000,2288.0000 L 3053.0000,2253.0000 C 3053.0000,2251.0000 3054.0000,2250.0000 3055.0000,2250.0000 C 3057.0000,2250.0000 3058.0000,2251.0000 3058.0000,2253.0000 Z M 3058.0000,2314.0000 L 3058.0000,2350.0000 C 3058.0000,2351.0000 3057.0000,2352.0000 3055.0000,2352.0000 C 3054.0000,2352.0000 3053.0000,2351.0000 3053.0000,2350.0000 L 3053.0000,2314.0000 C 3053.0000,2313.0000 3054.0000,2311.0000 3055.0000,2311.0000 C 3057.0000,2311.0000 3058.0000,2313.0000 3058.0000,2314.0000 Z M 3058.0000,2375.0000 L 3058.0000,2411.0000 C 3058.0000,2413.0000 3057.0000,2414.0000 3055.0000,2414.0000 C 3054.0000,2414.0000 3053.0000,2413.0000 3053.0000,2411.0000 L 3053.0000,2375.0000 C 3053.0000,2374.0000 3054.0000,2373.0000 3055.0000,2373.0000 C 3057.0000,2373.0000 3058.0000,2374.0000 3058.0000,2375.0000 Z M 3058.0000,2437.0000 L 3058.0000,2473.0000 C 3058.0000,2474.0000 3057.0000,2475.0000 3055.0000,2475.0000 C 3054.0000,2475.0000 3053.0000,2474.0000 3053.0000,2473.0000 L 3053.0000,2437.0000 C 3053.0000,2436.0000 3054.0000,2434.0000 3055.0000,2434.0000 C 3057.0000,2434.0000 3058.0000,2436.0000 3058.0000,2437.0000 Z M 3058.0000,2498.0000 L 3058.0000,2534.0000 C 3058.0000,2536.0000 3057.0000,2537.0000 3055.0000,2537.0000 C 3054.0000,2537.0000 3053.0000,2536.0000 3053.0000,2534.0000 L 3053.0000,2498.0000 C 3053.0000,2497.0000 3054.0000,2496.0000 3055.0000,2496.0000 C 3057.0000,2496.0000 3058.0000,2497.0000 3058.0000,2498.0000 Z M 3058.0000,2560.0000 L 3058.0000,2596.0000 C 3058.0000,2597.0000 3057.0000,2598.0000 3055.0000,2598.0000 C 3054.0000,2598.0000 3053.0000,2597.0000 3053.0000,2596.0000 L 3053.0000,2560.0000 C 3053.0000,2558.0000 3054.0000,2557.0000 3055.0000,2557.0000 C 3057.0000,2557.0000 3058.0000,2558.0000 3058.0000,2560.0000 Z M 3058.0000,2621.0000 L 3058.0000,2657.0000 C 3058.0000,2659.0000 3057.0000,2660.0000 3055.0000,2660.0000 C 3054.0000,2660.0000 3053.0000,2659.0000 3053.0000,2657.0000 L 3053.0000,2621.0000 C 3053.0000,2620.0000 3054.0000,2619.0000 3055.0000,2619.0000 C 3057.0000,2619.0000 3058.0000,2620.0000 3058.0000,2621.0000 Z M 3058.0000,2683.0000 L 3058.0000,2719.0000 C 3058.0000,2720.0000 3057.0000,2721.0000 3055.0000,2721.0000 C 3054.0000,2721.0000 3053.0000,2720.0000 3053.0000,2719.0000 L 3053.0000,2683.0000 C 3053.0000,2681.0000 3054.0000,2680.0000 3055.0000,2680.0000 C 3057.0000,2680.0000 3058.0000,2681.0000 3058.0000,2683.0000 Z M 3058.0000,2744.0000 L 3058.0000,2780.0000 C 3058.0000,2781.0000 3057.0000,2783.0000 3055.0000,2783.0000 C 3054.0000,2783.0000 3053.0000,2781.0000 3053.0000,2780.0000 L 3053.0000,2744.0000 C 3053.0000,2743.0000 3054.0000,2742.0000 3055.0000,2742.0000 C 3057.0000,2742.0000 3058.0000,2743.0000 3058.0000,2744.0000 Z M 3058.0000,2806.0000 L 3058.0000,2841.0000 C 3058.0000,2843.0000 3057.0000,2844.0000 3055.0000,2844.0000 C 3054.0000,2844.0000 3053.0000,2843.0000 3053.0000,2841.0000 L 3053.0000,2806.0000 C 3053.0000,2804.0000 3054.0000,2803.0000 3055.0000,2803.0000 C 3057.0000,2803.0000 3058.0000,2804.0000 3058.0000,2806.0000 Z M 3058.0000,2867.0000 L 3058.0000,2903.0000 C 3058.0000,2904.0000 3057.0000,2905.0000 3055.0000,2905.0000 C 3054.0000,2905.0000 3053.0000,2904.0000 3053.0000,2903.0000 L 3053.0000,2867.0000 C 3053.0000,2866.0000 3054.0000,2864.0000 3055.0000,2864.0000 C 3057.0000,2864.0000 3058.0000,2866.0000 3058.0000,2867.0000 Z M 3058.0000,2928.0000 L 3058.0000,2964.0000 C 3058.0000,2966.0000 3057.0000,2967.0000 3055.0000,2967.0000 C 3054.0000,2967.0000 3053.0000,2966.0000 3053.0000,2964.0000 L 3053.0000,2928.0000 C 3053.0000,2927.0000 3054.0000,2926.0000 3055.0000,2926.0000 C 3057.0000,2926.0000 3058.0000,2927.0000 3058.0000,2928.0000 Z M 3058.0000,2990.0000 L 3058.0000,3026.0000 C 3058.0000,3027.0000 3057.0000,3028.0000 3055.0000,3028.0000 C 3054.0000,3028.0000 3053.0000,3027.0000 3053.0000,3026.0000 L 3053.0000,2990.0000 C 3053.0000,2988.0000 3054.0000,2987.0000 3055.0000,2987.0000 C 3057.0000,2987.0000 3058.0000,2988.0000 3058.0000,2990.0000 Z M 3058.0000,3051.0000 L 3058.0000,3087.0000 C 3058.0000,3089.0000 3057.0000,3090.0000 3055.0000,3090.0000 C 3054.0000,3090.0000 3053.0000,3089.0000 3053.0000,3087.0000 L 3053.0000,3051.0000 C 3053.0000,3050.0000 3054.0000,3049.0000 3055.0000,3049.0000 C 3057.0000,3049.0000 3058.0000,3050.0000 3058.0000,3051.0000 Z M 3058.0000,3113.0000 L 3058.0000,3149.0000 C 3058.0000,3150.0000 3057.0000,3151.0000 3055.0000,3151.0000 C 3054.0000,3151.0000 3053.0000,3150.0000 3053.0000,3149.0000 L 3053.0000,3113.0000 C 3053.0000,3111.0000 3054.0000,3110.0000 3055.0000,3110.0000 C 3057.0000,3110.0000 3058.0000,3111.0000 3058.0000,3113.0000 Z M 3058.0000,3174.0000 L 3058.0000,3210.0000 C 3058.0000,3211.0000 3057.0000,3213.0000 3055.0000,3213.0000 C 3054.0000,3213.0000 3053.0000,3211.0000 3053.0000,3210.0000 L 3053.0000,3174.0000 C 3053.0000,3173.0000 3054.0000,3172.0000 3055.0000,3172.0000 C 3057.0000,3172.0000 3058.0000,3173.0000 3058.0000,3174.0000 Z M 3058.0000,3236.0000 L 3058.0000,3271.0000 C 3058.0000,3273.0000 3057.0000,3274.0000 3055.0000,3274.0000 C 3054.0000,3274.0000 3053.0000,3273.0000 3053.0000,3271.0000 L 3053.0000,3236.0000 C 3053.0000,3234.0000 3054.0000,3233.0000 3055.0000,3233.0000 C 3057.0000,3233.0000 3058.0000,3234.0000 3058.0000,3236.0000 Z M 3058.0000,3297.0000 L 3058.0000,3333.0000 C 3058.0000,3334.0000 3057.0000,3335.0000 3055.0000,3335.0000 C 3054.0000,3335.0000 3053.0000,3334.0000 3053.0000,3333.0000 L 3053.0000,3297.0000 C 3053.0000,3296.0000 3054.0000,3295.0000 3055.0000,3295.0000 C 3057.0000,3295.0000 3058.0000,3296.0000 3058.0000,3297.0000 Z M 3058.0000,3359.0000 L 3058.0000,3394.0000 C 3058.0000,3396.0000 3057.0000,3397.0000 3055.0000,3397.0000 C 3054.0000,3397.0000 3053.0000,3396.0000 3053.0000,3394.0000 L 3053.0000,3359.0000 C 3053.0000,3357.0000 3054.0000,3356.0000 3055.0000,3356.0000 C 3057.0000,3356.0000 3058.0000,3357.0000 3058.0000,3359.0000 Z M 3058.0000,3420.0000 L 3058.0000,3456.0000 C 3058.0000,3457.0000 3057.0000,3458.0000 3055.0000,3458.0000 C 3054.0000,3458.0000 3053.0000,3457.0000 3053.0000,3456.0000 L 3053.0000,3420.0000 C 3053.0000,3419.0000 3054.0000,3417.0000 3055.0000,3417.0000 C 3057.0000,3417.0000 3058.0000,3419.0000 3058.0000,3420.0000 Z M 3058.0000,3481.0000 L 3058.0000,3517.0000 C 3058.0000,3519.0000 3057.0000,3520.0000 3055.0000,3520.0000 C 3054.0000,3520.0000 3053.0000,3519.0000 3053.0000,3517.0000 L 3053.0000,3481.0000 C 3053.0000,3480.0000 3054.0000,3479.0000 3055.0000,3479.0000 C 3057.0000,3479.0000 3058.0000,3480.0000 3058.0000,3481.0000 Z M 3058.0000,3543.0000 L 3058.0000,3579.0000 C 3058.0000,3580.0000 3057.0000,3581.0000 3055.0000,3581.0000 C 3054.0000,3581.0000 3053.0000,3580.0000 3053.0000,3579.0000 L 3053.0000,3543.0000 C 3053.0000,3541.0000 3054.0000,3540.0000 3055.0000,3540.0000 C 3057.0000,3540.0000 3058.0000,3541.0000 3058.0000,3543.0000 Z M 3058.0000,3604.0000 L 3058.0000,3640.0000 C 3058.0000,3642.0000 3057.0000,3643.0000 3055.0000,3643.0000 C 3054.0000,3643.0000 3053.0000,3642.0000 3053.0000,3640.0000 L 3053.0000,3604.0000 C 3053.0000,3603.0000 3054.0000,3602.0000 3055.0000,3602.0000 C 3057.0000,3602.0000 3058.0000,3603.0000 3058.0000,3604.0000 Z M 3058.0000,3666.0000 L 3058.0000,3702.0000 C 3058.0000,3703.0000 3057.0000,3704.0000 3055.0000,3704.0000 C 3054.0000,3704.0000 3053.0000,3703.0000 3053.0000,3702.0000 L 3053.0000,3666.0000 C 3053.0000,3664.0000 3054.0000,3663.0000 3055.0000,3663.0000 C 3057.0000,3663.0000 3058.0000,3664.0000 3058.0000,3666.0000 Z M 3058.0000,3727.0000 L 3058.0000,3763.0000 C 3058.0000,3764.0000 3057.0000,3766.0000 3055.0000,3766.0000 C 3054.0000,3766.0000 3053.0000,3764.0000 3053.0000,3763.0000 L 3053.0000,3727.0000 C 3053.0000,3726.0000 3054.0000,3725.0000 3055.0000,3725.0000 C 3057.0000,3725.0000 3058.0000,3726.0000 3058.0000,3727.0000 Z M 3058.0000,3789.0000 L 3058.0000,3824.0000 C 3058.0000,3826.0000 3057.0000,3827.0000 3055.0000,3827.0000 C 3054.0000,3827.0000 3053.0000,3826.0000 3053.0000,3824.0000 L 3053.0000,3789.0000 C 3053.0000,3787.0000 3054.0000,3786.0000 3055.0000,3786.0000 C 3057.0000,3786.0000 3058.0000,3787.0000 3058.0000,3789.0000 Z M 3058.0000,3850.0000 L 3058.0000,3886.0000 C 3058.0000,3887.0000 3057.0000,3888.0000 3055.0000,3888.0000 C 3054.0000,3888.0000 3053.0000,3887.0000 3053.0000,3886.0000 L 3053.0000,3850.0000 C 3053.0000,3849.0000 3054.0000,3847.0000 3055.0000,3847.0000 C 3057.0000,3847.0000 3058.0000,3849.0000 3058.0000,3850.0000 Z M 3058.0000,3911.0000 L 3058.0000,3947.0000 C 3058.0000,3949.0000 3057.0000,3950.0000 3055.0000,3950.0000 C 3054.0000,3950.0000 3053.0000,3949.0000 3053.0000,3947.0000 L 3053.0000,3911.0000 C 3053.0000,3910.0000 3054.0000,3909.0000 3055.0000,3909.0000 C 3057.0000,3909.0000 3058.0000,3910.0000 3058.0000,3911.0000 Z M 3058.0000,3973.0000 L 3058.0000,4009.0000 C 3058.0000,4010.0000 3057.0000,4011.0000 3055.0000,4011.0000 C 3054.0000,4011.0000 3053.0000,4010.0000 3053.0000,4009.0000 L 3053.0000,3973.0000 C 3053.0000,3972.0000 3054.0000,3970.0000 3055.0000,3970.0000 C 3057.0000,3970.0000 3058.0000,3972.0000 3058.0000,3973.0000 Z M 3058.0000,4034.0000 L 3058.0000,4070.0000 C 3058.0000,4072.0000 3057.0000,4073.0000 3055.0000,4073.0000 C 3054.0000,4073.0000 3053.0000,4072.0000 3053.0000,4070.0000 L 3053.0000,4034.0000 C 3053.0000,4033.0000 3054.0000,4032.0000 3055.0000,4032.0000 C 3057.0000,4032.0000 3058.0000,4033.0000 3058.0000,4034.0000 Z M 3058.0000,4096.0000 L 3058.0000,4132.0000 C 3058.0000,4133.0000 3057.0000,4134.0000 3055.0000,4134.0000 C 3054.0000,4134.0000 3053.0000,4133.0000 3053.0000,4132.0000 L 3053.0000,4096.0000 C 3053.0000,4094.0000 3054.0000,4093.0000 3055.0000,4093.0000 C 3057.0000,4093.0000 3058.0000,4094.0000 3058.0000,4096.0000 Z M 3058.0000,4157.0000 L 3058.0000,4193.0000 C 3058.0000,4195.0000 3057.0000,4196.0000 3055.0000,4196.0000 C 3054.0000,4196.0000 3053.0000,4195.0000 3053.0000,4193.0000 L 3053.0000,4157.0000 C 3053.0000,4156.0000 3054.0000,4155.0000 3055.0000,4155.0000 C 3057.0000,4155.0000 3058.0000,4156.0000 3058.0000,4157.0000 Z M 3058.0000,4219.0000 L 3058.0000,4255.0000 C 3058.0000,4256.0000 3057.0000,4257.0000 3055.0000,4257.0000 C 3054.0000,4257.0000 3053.0000,4256.0000 3053.0000,4255.0000 L 3053.0000,4219.0000 C 3053.0000,4217.0000 3054.0000,4216.0000 3055.0000,4216.0000 C 3057.0000,4216.0000 3058.0000,4217.0000 3058.0000,4219.0000 Z M 3058.0000,4280.0000 L 3058.0000,4316.0000 C 3058.0000,4317.0000 3057.0000,4319.0000 3055.0000,4319.0000 C 3054.0000,4319.0000 3053.0000,4317.0000 3053.0000,4316.0000 L 3053.0000,4280.0000 C 3053.0000,4279.0000 3054.0000,4278.0000 3055.0000,4278.0000 C 3057.0000,4278.0000 3058.0000,4279.0000 3058.0000,4280.0000 Z M 3058.0000,4342.0000 L 3058.0000,4377.0000 C 3058.0000,4379.0000 3057.0000,4380.0000 3055.0000,4380.0000 C 3054.0000,4380.0000 3053.0000,4379.0000 3053.0000,4377.0000 L 3053.0000,4342.0000 C 3053.0000,4340.0000 3054.0000,4339.0000 3055.0000,4339.0000 C 3057.0000,4339.0000 3058.0000,4340.0000 3058.0000,4342.0000 Z M 3058.0000,4403.0000 L 3058.0000,4439.0000 C 3058.0000,4440.0000 3057.0000,4441.0000 3055.0000,4441.0000 C 3054.0000,4441.0000 3053.0000,4440.0000 3053.0000,4439.0000 L 3053.0000,4403.0000 C 3053.0000,4402.0000 3054.0000,4400.0000 3055.0000,4400.0000 C 3057.0000,4400.0000 3058.0000,4402.0000 3058.0000,4403.0000 Z M 3058.0000,4464.0000 L 3058.0000,4500.0000 C 3058.0000,4502.0000 3057.0000,4503.0000 3055.0000,4503.0000 C 3054.0000,4503.0000 3053.0000,4502.0000 3053.0000,4500.0000 L 3053.0000,4464.0000 C 3053.0000,4463.0000 3054.0000,4462.0000 3055.0000,4462.0000 C 3057.0000,4462.0000 3058.0000,4463.0000 3058.0000,4464.0000 Z M 3058.0000,4526.0000 L 3058.0000,4562.0000 C 3058.0000,4563.0000 3057.0000,4564.0000 3055.0000,4564.0000 C 3054.0000,4564.0000 3053.0000,4563.0000 3053.0000,4562.0000 L 3053.0000,4526.0000 C 3053.0000,4524.0000 3054.0000,4523.0000 3055.0000,4523.0000 C 3057.0000,4523.0000 3058.0000,4524.0000 3058.0000,4526.0000 Z M 3058.0000,4587.0000 L 3058.0000,4623.0000 C 3058.0000,4625.0000 3057.0000,4626.0000 3055.0000,4626.0000 C 3054.0000,4626.0000 3053.0000,4625.0000 3053.0000,4623.0000 L 3053.0000,4587.0000 C 3053.0000,4586.0000 3054.0000,4585.0000 3055.0000,4585.0000 C 3057.0000,4585.0000 3058.0000,4586.0000 3058.0000,4587.0000 Z M 3058.0000,4649.0000 L 3058.0000,4685.0000 C 3058.0000,4686.0000 3057.0000,4687.0000 3055.0000,4687.0000 C 3054.0000,4687.0000 3053.0000,4686.0000 3053.0000,4685.0000 L 3053.0000,4649.0000 C 3053.0000,4647.0000 3054.0000,4646.0000 3055.0000,4646.0000 C 3057.0000,4646.0000 3058.0000,4647.0000 3058.0000,4649.0000 Z M 3058.0000,4710.0000 L 3058.0000,4746.0000 C 3058.0000,4747.0000 3057.0000,4749.0000 3055.0000,4749.0000 C 3054.0000,4749.0000 3053.0000,4747.0000 3053.0000,4746.0000 L 3053.0000,4710.0000 C 3053.0000,4709.0000 3054.0000,4708.0000 3055.0000,4708.0000 C 3057.0000,4708.0000 3058.0000,4709.0000 3058.0000,4710.0000 Z M 3058.0000,4772.0000 L 3058.0000,4807.0000 C 3058.0000,4809.0000 3057.0000,4810.0000 3055.0000,4810.0000 C 3054.0000,4810.0000 3053.0000,4809.0000 3053.0000,4807.0000 L 3053.0000,4772.0000 C 3053.0000,4770.0000 3054.0000,4769.0000 3055.0000,4769.0000 C 3057.0000,4769.0000 3058.0000,4770.0000 3058.0000,4772.0000 Z M 3058.0000,4833.0000 L 3058.0000,4869.0000 C 3058.0000,4870.0000 3057.0000,4871.0000 3055.0000,4871.0000 C 3054.0000,4871.0000 3053.0000,4870.0000 3053.0000,4869.0000 L 3053.0000,4833.0000 C 3053.0000,4832.0000 3054.0000,4831.0000 3055.0000,4831.0000 C 3057.0000,4831.0000 3058.0000,4832.0000 3058.0000,4833.0000 Z "  fill="#000000" stroke="#000000" stroke-width="1.0000"  stroke-linecap="butt"  stroke-linejoin="round" />
</g>
<g transform="matrix(1.0000 0.0000 0.0000 1.0000 0.0000 0.0000)">
</g>
<g transform="matrix(0.0625 0.0000 0.0000 0.0625 0.0000 0.0000)">
<path d="M 4116.0000,1392.0000 L 4116.0000,1428.0000 C 4116.0000,1430.0000 4115.0000,1431.0000 4114.0000,1431.0000 C 4112.0000,1431.0000 4111.0000,1430.0000 4111.0000,1428.0000 L 4111.0000,1392.0000 C 4111.0000,1391.0000 4112.0000,1390.0000 4114.0000,1390.0000 C 4115.0000,1390.0000 4116.0000,1391.0000 4116.0000,1392.0000 Z M 4116.0000,1454.0000 L 4116.0000,1490.0000 C 4116.0000,1491.0000 4115.0000,1492.0000 4114.0000,1492.0000 C 4112.0000,1492.0000 4111.0000,1491.0000 4111.0000,1490.0000 L 4111.0000,1454.0000 C 4111.0000,1452.0000 4112.0000,1451.0000 4114.0000,1451.0000 C 4115.0000,1451.0000 4116.0000,1452.0000 4116.0000,1454.0000 Z M 4116.0000,1515.0000 L 4116.0000,1551.0000 C 4116.0000,1553.0000 4115.0000,1554.0000 4114.0000,1554.0000 C 4112.0000,1554.0000 4111.0000,1553.0000 4111.0000,1551.0000 L 4111.0000,1515.0000 C 4111.0000,1514.0000 4112.0000,1513.0000 4114.0000,1513.0000 C 4115.0000,1513.0000 4116.0000,1514.0000 4116.0000,1515.0000 Z M 4116.0000,1577.0000 L 4116.0000,1613.0000 C 4116.0000,1614.0000 4115.0000,1615.0000 4114.0000,1615.0000 C 4112.0000,1615.0000 4111.0000,1614.0000 4111.0000,1613.0000 L 4111.0000,1577.0000 C 4111.0000,1575.0000 4112.0000,1574.0000 4114.0000,1574.0000 C 4115.0000,1574.0000 4116.0000,1575.0000 4116.0000,1577.0000 Z M 4116.0000,1638.0000 L 4116.0000,1674.0000 C 4116.0000,1675.0000 4115.0000,1677.0000 4114.0000,1677.0000 C 4112.0000,1677.0000 4111.0000,1675.0000 4111.0000,1674.0000 L 4111.0000,1638.0000 C 4111.0000,1637.0000 4112.0000,1636.0000 4114.0000,1636.0000 C 4115.0000,1636.0000 4116.0000,1637.0000 4116.0000,1638.0000 Z M 4116.0000,1700.0000 L 4116.0000,1735.0000 C 4116.0000,1737.0000 4115.0000,1738.0000 4114.0000,1738.0000 C 4112.0000,1738.0000 4111.0000,1737.0000 4111.0000,1735.0000 L 4111.0000,1700.0000 C 4111.0000,1698.0000 4112.0000,1697.0000 4114.0000,1697.0000 C 4115.0000,1697.0000 4116.0000,1698.0000 4116.0000,1700.0000 Z M 4116.0000,1761.0000 L 4116.0000,1797.0000 C 4116.0000,1798.0000 4115.0000,1799.0000 4114.0000,1799.0000 C 4112.0000,1799.0000 4111.0000,1798.0000 4111.0000,1797.0000 L 4111.0000,1761.0000 C 4111.0000,1760.0000 4112.0000,1759.0000 4114.0000,1759.0000 C 4115.0000,1759.0000 4116.0000,1760.0000 4116.0000,1761.0000 Z M 4116.0000,1823.0000 L 4116.0000,1858.0000 C 4116.0000,1860.0000 4115.0000,1861.0000 4114.0000,1861.0000 C 4112.0000,1861.0000 4111.0000,1860.0000 4111.0000,1858.0000 L 4111.0000,1823.0000 C 4111.0000,1821.0000 4112.0000,1820.0000 4114.0000,1820.0000 C 4115.0000,1820.0000 4116.0000,1821.0000 4116.0000,1823.0000 Z M 4116.0000,1884.0000 L 4116.0000,1920.0000 C 4116.0000,1921.0000 4115.0000,1922.0000 4114.0000,1922.0000 C 4112.0000,1922.0000 4111.0000,1921.0000 4111.0000,1920.0000 L 4111.0000,1884.0000 C 4111.0000,1883.0000 4112.0000,1881.0000 4114.0000,1881.0000 C 4115.0000,1881.0000 4116.0000,1883.0000 4116.0000,1884.0000 Z M 4116.0000,1945.0000 L 4116.0000,1981.0000 C 4116.0000,1983.0000 4115.0000,1984.0000 4114.0000,1984.0000 C 4112.0000,1984.0000 4111.0000,1983.0000 4111.0000,1981.0000 L 4111.0000,1945.0000 C 4111.0000,1944.0000 4112.0000,1943.0000 4114.0000,1943.0000 C 4115.0000,1943.0000 4116.0000,1944.0000 4116.0000,1945.0000 Z M 4116.0000,2007.0000 L 4116.0000,2043.0000 C 4116.0000,2044.0000 4115.0000,2045.0000 4114.0000,2045.0000 C 4112.0000,2045.0000 4111.0000,2044.0000 4111.0000,2043.0000 L 4111.0000,2007.0000 C 4111.0000,2005.0000 4112.0000,2004.0000 4114.0000,2004.0000 C 4115.0000,2004.0000 4116.0000,2005.0000 4116.0000,2007.0000 Z M 4116.0000,2068.0000 L 4116.0000,2104.0000 C 4116.0000,2106.0000 4115.0000,2107.0000 4114.0000,2107.0000 C 4112.0000,2107.0000 4111.0000,2106.0000 4111.0000,2104.0000 L 4111.0000,2068.0000 C 4111.0000,2067.0000 4112.0000,2066.0000 4114.0000,2066.0000 C 4115.0000,2066.0000 4116.0000,2067.0000 4116.0000,2068.0000 Z M 4116.0000,2130.0000 L 4116.0000,2166.0000 C 4116.0000,2167.0000 4115.0000,2168.0000 4114.0000,2168.0000 C 4112.0000,2168.0000 4111.0000,2167.0000 4111.0000,2166.0000 L 4111.0000,2130.0000 C 4111.0000,2128.0000 4112.0000,2127.0000 4114.0000,2127.0000 C 4115.0000,2127.0000 4116.0000,2128.0000 4116.0000,2130.0000 Z M 4116.0000,2191.0000 L 4116.0000,2227.0000 C 4116.0000,2228.0000 4115.0000,2230.0000 4114.0000,2230.0000 C 4112.0000,2230.0000 4111.0000,2228.0000 4111.0000,2227.0000 L 4111.0000,2191.0000 C 4111.0000,2190.0000 4112.0000,2189.0000 4114.0000,2189.0000 C 4115.0000,2189.0000 4116.0000,2190.0000 4116.0000,2191.0000 Z M 4116.0000,2253.0000 L 4116.0000,2288.0000 C 4116.0000,2290.0000 4115.0000,2291.0000 4114.0000,2291.0000 C 4112.0000,2291.0000 4111.0000,2290.0000 4111.0000,2288.0000 L 4111.0000,2253.0000 C 4111.0000,2251.0000 4112.0000,2250.0000 4114.0000,2250.0000 C 4115.0000,2250.0000 4116.0000,2251.0000 4116.0000,2253.0000 Z M 4116.0000,2314.0000 L 4116.0000,2350.0000 C 4116.0000,2351.0000 4115.0000,2352.0000 4114.0000,2352.0000 C 4112.0000,2352.0000 4111.0000,2351.0000 4111.0000,2350.0000 L 4111.0000,2314.0000 C 4111.0000,2313.0000 4112.0000,2311.0000 4114.0000,2311.0000 C 4115.0000,2311.0000 4116.0000,2313.0000 4116.0000,2314.0000 Z M 4116.0000,2375.0000 L 4116.0000,2411.0000 C 4116.0000,2413.0000 4115.0000,2414.0000 4114.0000,2414.0000 C 4112.0000,2414.0000 4111.0000,2413.0000 4111.0000,2411.0000 L 4111.0000,2375.0000 C 4111.0000,2374.0000 4112.0000,2373.0000 4114.0000,2373.0000 C 4115.0000,2373.0000 4116.0000,2374.0000 4116.0000,2375.0000 Z M 4116.0000,2437.0000 L 4116.0000,2473.0000 C 4116.0000,2474.0000 4115.0000,2475.0000 4114.0000,2475.0000 C 4112.0000,2475.0000 4111.0000,2474.0000 4111.0000,2473.0000 L 4111.0000,2437.0000 C 4111.0000,2436.0000 4112.0000,2434.0000 4114.0000,2434.0000 C 4115.0000,2434.0000 4116.0000,2436.0000 4116.0000,2437.0000 Z M 4116.0000,2498.0000 L 4116.0000,2534.0000 C 4116.0000,2536.0000 4115.0000,2537.0000 4114.0000,2537.0000 C 4112.0000,2537.0000 4111.0000,2536.0000 4111.0000,2534.0000 L 4111.0000,2498.0000 C 4111.0000,2497.0000 4112.0000,2496.0000 4114.0000,2496.0000 C 4115.0000,2496.0000 4116.0000,2497.0000 4116.0000,2498.0000 Z M 4116.0000,2560.0000 L 4116.0000,2596.0000 C 4116.0000,2597.0000 4115.0000,2598.0000 4114.0000,2598.0000 C 4112.0000,2598.0000 4111.0000,2597.0000 4111.0000,2596.0000 L 4111.0000,2560.0000 C 4111.0000,2558.0000 4112.0000,2557.0000 4114.0000,2557.0000 C 4115.0000,2557.0000 4116.0000,2558.0000 4116.0000,2560.0000 Z M 4116.0000,2621.0000 L 4116.0000,2657.0000 C 4116.0000,2659.0000 4115.0000,2660.0000 4114.0000,2660.0000 C 4112.0000,2660.0000 4111.0000,2659.0000 4111.0000,2657.0000 L 4111.0000,2621.0000 C 4111.0000,2620.0000 4112.0000,2619.0000 4114.0000,2619.0000 C 4115.0000,2619.0000 4116.0000,2620.0000 4116.0000,2621.0000 Z M 4116.0000,2683.0000 L 4116.0000,2719.0000 C 4116.0000,2720.0000 4115.0000,2721.0000 4114.0000,2721.0000 C 4112.0000,2721.0000 4111.0000,2720.0000 4111.0000,2719.0000 L 4111.0000,2683.0000 C 4111.0000,2681.0000 4112.0000,2680.0000 4114.0000,2680.0000 C 4115.0000,2680.0000 4116.0000,2681.0000 4116.0000,2683.0000 Z M 4116.0000,2744.0000 L 4116.0000,2780.0000 C 4116.0000,2781.0000 4115.0000,2783.0000 4114.0000,2783.0000 C 4112.0000,2783.0000 4111.0000,2781.0000 4111.0000,2780.0000 L 4111.0000,2744.0000 C 4111.0000,2743.0000 4112.0000,2742.0000 4114.0000,2742.0000 C 4115.0000,2742.0000 4116.0000,2743.0000 4116.0000,2744.0000 Z M 4116.0000,2806.0000 L 4116.0000,2841.0000 C 4116.0000,2843.0000 4115.0000,2844.0000 4114.0000,2844.0000 C 4112.0000,2844.0000 4111.0000,2843.0000 4111.0000,2841.0000 L 4111.0000,2806.0000 C 4111.0000,2804.0000 4112.0000,2803.0000 4114.0000,2803.0000 C 4115.0000,2803.0000 4116.0000,2804.0000 4116.0000,2806.0000 Z M 4116.0000,2867.0000 L 4116.0000,2903.0000 C 4116.0000,2904.0000 4115.0000,2905.0000 4114.0000,2905.0000 C 4112.0000,2905.0000 4111.0000,2904.0000 4111.0000,2903.0000 L 4111.0000,2867.0000 C 4111.0000,2866.0000 4112.0000,2864.0000 4114.0000,2864.0000 C 4115.0000,2864.0000 4116.0000,2866.0000 4116.0000,2867.0000 Z M 4116.0000,2928.0000 L 4116.0000,2964.0000 C 4116.0000,2966.0000 4115.0000,2967.0000 4114.0000,2967.0000 C 4112.0000,2967.0000 4111.0000,2966.0000 4111.0000,2964.0000 L 4111.0000,2928.0000 C 4111.0000,2927.0000 4112.0000,2926.0000 4114.0000,2926.0000 C 4115.0000,2926.0000 4116.0000,2927.0000 4116.0000,2928.0000 Z M 4116.0000,2990.0000 L 4116.0000,3026.0000 C 4116.0000,3027.0000 4115.0000,3028.0000 4114.0000,3028.0000 C 4112.0000,3028.0000 4111.0000,3027.0000 4111.0000,3026.0000 L 4111.0000,2990.0000 C 4111.0000,2988.0000 4112.0000,2987.0000 4114.0000,2987.0000 C 4115.0000,2987.0000 4116.0000,2988.0000 4116.0000,2990.0000 Z M 4116.0000,3051.0000 L 4116.0000,3087.0000 C 4116.0000,3089.0000 4115.0000,3090.0000 4114.0000,3090.0000 C 4112.0000,3090.0000 4111.0000,3089.0000 4111.0000,3087.0000 L 4111.0000,3051.0000 C 4111.0000,3050.0000 4112.0000,3049.0000 4114.0000,3049.0000 C 4115.0000,3049.0000 4116.0000,3050.0000 4116.0000,3051.0000 Z M 4116.0000,3113.0000 L 4116.0000,3149.0000 C 4116.0000,3150.0000 4115.0000,3151.0000 4114.0000,3151.0000 C 4112.0000,3151.0000 4111.0000,3150.0000 4111.0000,3149.0000 L 4111.0000,3113.0000 C 4111.0000,3111.0000 4112.0000,3110.0000 4114.0000,3110.0000 C 4115.0000,3110.0000 4116.0000,3111.0000 4116.0000,3113.0000 Z M 4116.0000,3174.0000 L 4116.0000,3210.0000 C 4116.0000,3211.0000 4115.0000,3213.0000 4114.0000,3213.0000 C 4112.0000,3213.0000 4111.0000,3211.0000 4111.0000,3210.0000 L 4111.0000,3174.0000 C 4111.0000,3173.0000 4112.0000,3172.0000 4114.0000,3172.0000 C 4115.0000,3172.0000 4116.0000,3173.0000 4116.0000,3174.0000 Z M 4116.0000,3236.0000 L 4116.0000,3271.0000 C 4116.0000,3273.0000 4115.0000,3274.0000 4114.0000,3274.0000 C 4112.0000,3274.0000 4111.0000,3273.0000 4111.0000,3271.0000 L 4111.0000,3236.0000 C 4111.0000,3234.0000 4112.0000,3233.0000 4114.0000,3233.0000 C 4115.0000,3233.0000 4116.0000,3234.0000 4116.0000,3236.0000 Z M 4116.0000,3297.0000 L 4116.0000,3333.0000 C 4116.0000,3334.0000 4115.0000,3335.0000 4114.0000,3335.0000 C 4112.0000,3335.0000 4111.0000,3334.0000 4111.0000,3333.0000 L 4111.0000,3297.0000 C 4111.0000,3296.0000 4112.0000,3295.0000 4114.0000,3295.0000 C 4115.0000,3295.0000 4116.0000,3296.0000 4116.0000,3297.0000 Z M 4116.0000,3359.0000 L 4116.0000,3394.0000 C 4116.0000,3396.0000 4115.0000,3397.0000 4114.0000,3397.0000 C 4112.0000,3397.0000 4111.0000,3396.0000 4111.0000,3394.0000 L 4111.0000,3359.0000 C 4111.0000,3357.0000 4112.0000,3356.0000 4114.0000,3356.0000 C 4115.0000,3356.0000 4116.0000,3357.0000 4116.0000,3359.0000 Z M 4116.0000,3420.0000 L 4116.0000,3456.0000 C 4116.0000,3457.0000 4115.0000,3458.0000 4114.0000,3458.0000 C 4112.0000,3458.0000 4111.0000,3457.0000 4111.0000,3456.0000 L 4111.0000,3420.0000 C 4111.0000,3419.0000 4112.0000,3417.0000 4114.0000,3417.0000 C 4115.0000,3417.0000 4116.0000,3419.0000 4116.0000,3420.0000 Z M 4116.0000,3481.0000 L 4116.0000,3517.0000 C 4116.0000,3519.0000 4115.0000,3520.0000 4114.0000,3520.0000 C 4112.0000,3520.0000 4111.0000,3519.0000 4111.0000,3517.0000 L 4111.0000,3481.0000 C 4111.0000,3480.0000 4112.0000,3479.0000 4114.0000,3479.0000 C 4115.0000,3479.0000 4116.0000,3480.0000 4116.0000,3481.0000 Z M 4116.0000,3543.0000 L 4116.0000,3579.0000 C 4116.0000,3580.0000 4115.0000,3581.0000 4114.0000,3581.0000 C 4112.0000,3581.0000 4111.0000,3580.0000 4111.0000,3579.0000 L 4111.0000,3543.0000 C 4111.0000,3541.0000 4112.0000,3540.0000 4114.0000,3540.0000 C 4115.0000,3540.0000 4116.0000,3541.0000 4116.0000,3543.0000 Z M 4116.0000,3604.0000 L 4116.0000,3640.0000 C 4116.0000,3642.0000 4115.0000,3643.0000 4114.0000,3643.0000 C 4112.0000,3643.0000 4111.0000,3642.0000 4111.0000,3640.0000 L 4111.0000,3604.0000 C 4111.0000,3603.0000 4112.0000,3602.0000 4114.0000,3602.0000 C 4115.0000,3602.0000 4116.0000,3603.0000 4116.0000,3604.0000 Z M 4116.0000,3666.0000 L 4116.0000,3702.0000 C 4116.0000,3703.0000 4115.0000,3704.0000 4114.0000,3704.0000 C 4112.0000,3704.0000 4111.0000,3703.0000 4111.0000,3702.0000 L 4111.0000,3666.0000 C 4111.0000,3664.0000 4112.0000,3663.0000 4114.0000,3663.0000 C 4115.0000,3663.0000 4116.0000,3664.0000 4116.0000,3666.0000 Z M 4116.0000,3727.0000 L 4116.0000,3763.0000 C 4116.0000,3764.0000 4115.0000,3766.0000 4114.0000,3766.0000 C 4112.0000,3766.0000 4111.0000,3764.0000 4111.0000,3763.0000 L 4111.0000,3727.0000 C 4111.0000,3726.0000 4112.0000,3725.0000 4114.0000,3725.0000 C 4115.0000,3725.0000 4116.0000,3726.0000 4116.0000,3727.0000 Z M 4116.0000,3789.0000 L 4116.0000,3824.0000 C 4116.0000,3826.0000 4115.0000,3827.0000 4114.0000,3827.0000 C 4112.0000,3827.0000 4111.0000,3826.0000 4111.0000,3824.0000 L 4111.0000,3789.0000 C 4111.0000,3787.0000 4112.0000,3786.0000 4114.0000,3786.0000 C 4115.0000,3786.0000 4116.0000,3787.0000 4116.0000,3789.0000 Z M 4116.0000,3850.0000 L 4116.0000,3886.0000 C 4116.0000,3887.0000 4115.0000,3888.0000 4114.0000,3888.0000 C 4112.0000,3888.0000 4111.0000,3887.0000 4111.0000,3886.0000 L 4111.0000,3850.0000 C 4111.0000,3849.0000 4112.0000,3847.0000 4114.0000,3847.0000 C 4115.0000,3847.0000 4116.0000,3849.0000 4116.0000,3850.0000 Z M 4116.0000,3911.0000 L 4116.0000,3947.0000 C 4116.0000,3949.0000 4115.0000,3950.0000 4114.0000,3950.0000 C 4112.0000,3950.0000 4111.0000,3949.0000 4111.0000,3947.0000 L 4111.0000,3911.0000 C 4111.0000,3910.0000 4112.0000,3909.0000 4114.0000,3909.0000 C 4115.0000,3909.0000 4116.0000,3910.0000 4116.0000,3911.0000 Z M 4116.0000,3973.0000 L 4116.0000,4009.0000 C 4116.0000,4010.0000 4115.0000,4011.0000 4114.0000,4011.0000 C 4112.0000,4011.0000 4111.0000,4010.0000 4111.0000,4009.0000 L 4111.0000,3973.0000 C 4111.0000,3972.0000 4112.0000,3970.0000 4114.0000,3970.0000 C 4115.0000,3970.0000 4116.0000,3972.0000 4116.0000,3973.0000 Z M 4116.0000,4034.0000 L 4116.0000,4070.0000 C 4116.0000,4072.0000 4115.0000,4073.0000 4114.0000,4073.0000 C 4112.0000,4073.0000 4111.0000,4072.0000 4111.0000,4070.0000 L 4111.0000,4034.0000 C 4111.0000,4033.0000 4112.0000,4032.0000 4114.0000,4032.0000 C 4115.0000,4032.0000 4116.0000,4033.0000 4116.0000,4034.0000 Z M 4116.0000,4096.0000 L 4116.0000,4132.0000 C 4116.0000,4133.0000 4115.0000,4134.0000 4114.0000,4134.0000 C 4112.0000,4134.0000 4111.0000,4133.0000 4111.0000,4132.0000 L 4111.0000,4096.0000 C 4111.0000,4094.0000 4112.0000,4093.0000 4114.0000,4093.0000 C 4115.0000,4093.0000 4116.0000,4094.0000 4116.0000,4096.0000 Z M 4116.0000,4157.0000 L 4116.0000,4193.0000 C 4116.0000,4195.0000 4115.0000,4196.0000 4114.0000,4196.0000 C 4112.0000,4196.0000 4111.0000,4195.0000 4111.0000,4193.0000 L 4111.0000,4157.0000 C 4111.0000,4156.0000 4112.0000,4155.0000 4114.0000,4155.0000 C 4115.0000,4155.0000 4116.0000,4156.0000 4116.0000,4157.0000 Z M 4116.0000,4219.0000 L 4116.0000,4255.0000 C 4116.0000,4256.0000 4115.0000,4257.0000 4114.0000,4257.0000 C 4112.0000,4257.0000 4111.0000,4256.0000 4111.0000,4255.0000 L 4111.0000,4219.0000 C 4111.0000,4217.0000 4112.0000,4216.0000 4114.0000,4216.0000 C 4115.0000,4216.0000 4116.0000,4217.0000 4116.0000,4219.0000 Z M 4116.0000,4280.0000 L 4116.0000,4316.0000 C 4116.0000,4317.0000 4115.0000,4319.0000 4114.0000,4319.0000 C 4112.0000,4319.0000 4111.0000,4317.0000 4111.0000,4316.0000 L 4111.0000,4280.0000 C 4111.0000,4279.0000 4112.0000,4278.0000 4114.0000,4278.0000 C 4115.0000,4278.0000 4116.0000,4279.0000 4116.0000,4280.0000 Z M 4116.0000,4342.0000 L 4116.0000,4377.0000 C 4116.0000,4379.0000 4115.0000,4380.0000 4114.0000,4380.0000 C 4112.0000,4380.0000 4111.0000,4379.0000 4111.0000,4377.0000 L 4111.0000,4342.0000 C 4111.0000,4340.0000 4112.0000,4339.0000 4114.0000,4339.0000 C 4115.0000,4339.0000 4116.0000,4340.0000 4116.0000,4342.0000 Z M 4116.0000,4403.0000 L 4116.0000,4439.0000 C 4116.0000,4440.0000 4115.0000,4441.0000 4114.0000,4441.0000 C 4112.0000,4441.0000 4111.0000,4440.0000 4111.0000,4439.0000 L 4111.0000,4403.0000 C 4111.0000,4402.0000 4112.0000,4400.0000 4114.0000,4400.0000 C 4115.0000,4400.0000 4116.0000,4402.0000 4116.0000,4403.0000 Z M 4116.0000,4464.0000 L 4116.0000,4500.0000 C 4116.0000,4502.0000 4115.0000,4503.0000 4114.0000,4503.0000 C 4112.0000,4503.0000 4111.0000,4502.0000 4111.0000,4500.0000 L 4111.0000,4464.0000 C 4111.0000,4463.0000 4112.0000,4462.0000 4114.0000,4462.0000 C 4115.0000,4462.0000 4116.0000,4463.0000 4116.0000,4464.0000 Z M 4116.0000,4526.0000 L 4116.0000,4562.0000 C 4116.0000,4563.0000 4115.0000,4564.0000 4114.0000,4564.0000 C 4112.0000,4564.0000 4111.0000,4563.0000 4111.0000,4562.0000 L 4111.0000,4526.0000 C 4111.0000,4524.0000 4112.0000,4523.0000 4114.0000,4523.0000 C 4115.0000,4523.0000 4116.0000,4524.0000 4116.0000,4526.0000 Z M 4116.0000,4587.0000 L 4116.0000,4623.0000 C 4116.0000,4625.0000 4115.0000,4626.0000 4114.0000,4626.0000 C 4112.0000,4626.0000 4111.0000,4625.0000 4111.0000,4623.0000 L 4111.0000,4587.0000 C 4111.0000,4586.0000 4112.0000,4585.0000 4114.0000,4585.0000 C 4115.0000,4585.0000 4116.0000,4586.0000 4116.0000,4587.0000 Z M 4116.0000,4649.0000 L 4116.0000,4685.0000 C 4116.0000,4686.0000 4115.0000,4687.0000 4114.0000,4687.0000 C 4112.0000,4687.0000 4111.0000,4686.0000 4111.0000,4685.0000 L 4111.0000,4649.0000 C 4111.0000,4647.0000 4112.0000,4646.0000 4114.0000,4646.0000 C 4115.0000,4646.0000 4116.0000,4647.0000 4116.0000,4649.0000 Z M 4116.0000,4710.0000 L 4116.0000,4746.0000 C 4116.0000,4747.0000 4115.0000,4749.0000 4114.0000,4749.0000 C 4112.0000,4749.0000 4111.0000,4747.0000 4111.0000,4746.0000 L 4111.0000,4710.0000 C 4111.0000,4709.0000 4112.0000,4708.0000 4114.0000,4708.0000 C 4115.0000,4708.0000 4116.0000,4709.0000 4116.0000,4710.0000 Z M 4116.0000,4772.0000 L 4116.0000,4807.0000 C 4116.0000,4809.0000 4115.0000,4810.0000 4114.0000,4810.0000 C 4112.0000,4810.0000 4111.0000,4809.0000 4111.0000,4807.0000 L 4111.0000,4772.0000 C 4111.0000,4770.0000 4112.0000,4769.0000 4114.0000,4769.0000 C 4115.0000,4769.0000 4116.0000,4770.0000 4116.0000,4772.0000 Z M 4116.0000,4833.0000 L 4116.0000,4869.0000 C 4116.0000,4870.0000 4115.0000,4871.0000 4114.0000,4871.0000 C 4112.0000,4871.0000 4111.0000,4870.0000 4111.0000,4869.0000 L 4111.0000,4833.0000 C 4111.0000,4832.0000 4112.0000,4831.0000 4114.0000,4831.0000 C 4115.0000,4831.0000 4116.0000,4832.0000 4116.0000,4833.0000 Z "  fill="#000000" stroke="#000000" stroke-width="1.0000"  stroke-linecap="butt"  stroke-linejoin="round" />
</g>
<g transform="matrix(1.0000 0.0000 0.0000 1.0000 0.0000 0.0000)">
</g>
<g transform="matrix(0.0625 0.0000 0.0000 0.0625 0.0000 0.0000)">
<path d="M 5326.0000,3207.0000 L 5326.0000,3242.0000 C 5326.0000,3244.0000 5325.0000,3245.0000 5323.0000,3245.0000 C 5322.0000,3245.0000 5321.0000,3244.0000 5321.0000,3242.0000 L 5321.0000,3207.0000 C 5321.0000,3205.0000 5322.0000,3204.0000 5323.0000,3204.0000 C 5325.0000,3204.0000 5326.0000,3205.0000 5326.0000,3207.0000 Z M 5326.0000,3268.0000 L 5326.0000,3304.0000 C 5326.0000,3305.0000 5325.0000,3306.0000 5323.0000,3306.0000 C 5322.0000,3306.0000 5321.0000,3305.0000 5321.0000,3304.0000 L 5321.0000,3268.0000 C 5321.0000,3267.0000 5322.0000,3266.0000 5323.0000,3266.0000 C 5325.0000,3266.0000 5326.0000,3267.0000 5326.0000,3268.0000 Z M 5326.0000,3330.0000 L 5326.0000,3365.0000 C 5326.0000,3367.0000 5325.0000,3368.0000 5323.0000,3368.0000 C 5322.0000,3368.0000 5321.0000,3367.0000 5321.0000,3365.0000 L 5321.0000,3330.0000 C 5321.0000,3328.0000 5322.0000,3327.0000 5323.0000,3327.0000 C 5325.0000,3327.0000 5326.0000,3328.0000 5326.0000,3330.0000 Z M 5326.0000,3391.0000 L 5326.0000,3427.0000 C 5326.0000,3428.0000 5325.0000,3429.0000 5323.0000,3429.0000 C 5322.0000,3429.0000 5321.0000,3428.0000 5321.0000,3427.0000 L 5321.0000,3391.0000 C 5321.0000,3390.0000 5322.0000,3388.0000 5323.0000,3388.0000 C 5325.0000,3388.0000 5326.0000,3390.0000 5326.0000,3391.0000 Z M 5326.0000,3452.0000 L 5326.0000,3488.0000 C 5326.0000,3490.0000 5325.0000,3491.0000 5323.0000,3491.0000 C 5322.0000,3491.0000 5321.0000,3490.0000 5321.0000,3488.0000 L 5321.0000,3452.0000 C 5321.0000,3451.0000 5322.0000,3450.0000 5323.0000,3450.0000 C 5325.0000,3450.0000 5326.0000,3451.0000 5326.0000,3452.0000 Z M 5326.0000,3514.0000 L 5326.0000,3550.0000 C 5326.0000,3551.0000 5325.0000,3552.0000 5323.0000,3552.0000 C 5322.0000,3552.0000 5321.0000,3551.0000 5321.0000,3550.0000 L 5321.0000,3514.0000 C 5321.0000,3512.0000 5322.0000,3511.0000 5323.0000,3511.0000 C 5325.0000,3511.0000 5326.0000,3512.0000 5326.0000,3514.0000 Z M 5326.0000,3575.0000 L 5326.0000,3611.0000 C 5326.0000,3613.0000 5325.0000,3614.0000 5323.0000,3614.0000 C 5322.0000,3614.0000 5321.0000,3613.0000 5321.0000,3611.0000 L 5321.0000,3575.0000 C 5321.0000,3574.0000 5322.0000,3573.0000 5323.0000,3573.0000 C 5325.0000,3573.0000 5326.0000,3574.0000 5326.0000,3575.0000 Z M 5326.0000,3637.0000 L 5326.0000,3673.0000 C 5326.0000,3674.0000 5325.0000,3675.0000 5323.0000,3675.0000 C 5322.0000,3675.0000 5321.0000,3674.0000 5321.0000,3673.0000 L 5321.0000,3637.0000 C 5321.0000,3635.0000 5322.0000,3634.0000 5323.0000,3634.0000 C 5325.0000,3634.0000 5326.0000,3635.0000 5326.0000,3637.0000 Z M 5326.0000,3698.0000 L 5326.0000,3734.0000 C 5326.0000,3735.0000 5325.0000,3737.0000 5323.0000,3737.0000 C 5322.0000,3737.0000 5321.0000,3735.0000 5321.0000,3734.0000 L 5321.0000,3698.0000 C 5321.0000,3697.0000 5322.0000,3696.0000 5323.0000,3696.0000 C 5325.0000,3696.0000 5326.0000,3697.0000 5326.0000,3698.0000 Z M 5326.0000,3760.0000 L 5326.0000,3795.0000 C 5326.0000,3797.0000 5325.0000,3798.0000 5323.0000,3798.0000 C 5322.0000,3798.0000 5321.0000,3797.0000 5321.0000,3795.0000 L 5321.0000,3760.0000 C 5321.0000,3758.0000 5322.0000,3757.0000 5323.0000,3757.0000 C 5325.0000,3757.0000 5326.0000,3758.0000 5326.0000,3760.0000 Z M 5326.0000,3821.0000 L 5326.0000,3857.0000 C 5326.0000,3858.0000 5325.0000,3859.0000 5323.0000,3859.0000 C 5322.0000,3859.0000 5321.0000,3858.0000 5321.0000,3857.0000 L 5321.0000,3821.0000 C 5321.0000,3820.0000 5322.0000,3818.0000 5323.0000,3818.0000 C 5325.0000,3818.0000 5326.0000,3820.0000 5326.0000,3821.0000 Z M 5326.0000,3882.0000 L 5326.0000,3918.0000 C 5326.0000,3920.0000 5325.0000,3921.0000 5323.0000,3921.0000 C 5322.0000,3921.0000 5321.0000,3920.0000 5321.0000,3918.0000 L 5321.0000,3882.0000 C 5321.0000,3881.0000 5322.0000,3880.0000 5323.0000,3880.0000 C 5325.0000,3880.0000 5326.0000,3881.0000 5326.0000,3882.0000 Z M 5326.0000,3944.0000 L 5326.0000,3980.0000 C 5326.0000,3981.0000 5325.0000,3982.0000 5323.0000,3982.0000 C 5322.0000,3982.0000 5321.0000,3981.0000 5321.0000,3980.0000 L 5321.0000,3944.0000 C 5321.0000,3942.0000 5322.0000,3941.0000 5323.0000,3941.0000 C 5325.0000,3941.0000 5326.0000,3942.0000 5326.0000,3944.0000 Z M 5326.0000,4005.0000 L 5326.0000,4041.0000 C 5326.0000,4043.0000 5325.0000,4044.0000 5323.0000,4044.0000 C 5322.0000,4044.0000 5321.0000,4043.0000 5321.0000,4041.0000 L 5321.0000,4005.0000 C 5321.0000,4004.0000 5322.0000,4003.0000 5323.0000,4003.0000 C 5325.0000,4003.0000 5326.0000,4004.0000 5326.0000,4005.0000 Z M 5326.0000,4067.0000 L 5326.0000,4103.0000 C 5326.0000,4104.0000 5325.0000,4105.0000 5323.0000,4105.0000 C 5322.0000,4105.0000 5321.0000,4104.0000 5321.0000,4103.0000 L 5321.0000,4067.0000 C 5321.0000,4065.0000 5322.0000,4064.0000 5323.0000,4064.0000 C 5325.0000,4064.0000 5326.0000,4065.0000 5326.0000,4067.0000 Z M 5326.0000,4128.0000 L 5326.0000,4164.0000 C 5326.0000,4165.0000 5325.0000,4167.0000 5323.0000,4167.0000 C 5322.0000,4167.0000 5321.0000,4165.0000 5321.0000,4164.0000 L 5321.0000,4128.0000 C 5321.0000,4127.0000 5322.0000,4126.0000 5323.0000,4126.0000 C 5325.0000,4126.0000 5326.0000,4127.0000 5326.0000,4128.0000 Z M 5326.0000,4190.0000 L 5326.0000,4226.0000 C 5326.0000,4227.0000 5325.0000,4228.0000 5323.0000,4228.0000 C 5322.0000,4228.0000 5321.0000,4227.0000 5321.0000,4226.0000 L 5321.0000,4190.0000 C 5321.0000,4188.0000 5322.0000,4187.0000 5323.0000,4187.0000 C 5325.0000,4187.0000 5326.0000,4188.0000 5326.0000,4190.0000 Z M 5326.0000,4251.0000 L 5326.0000,4287.0000 C 5326.0000,4288.0000 5325.0000,4290.0000 5323.0000,4290.0000 C 5322.0000,4290.0000 5321.0000,4288.0000 5321.0000,4287.0000 L 5321.0000,4251.0000 C 5321.0000,4250.0000 5322.0000,4249.0000 5323.0000,4249.0000 C 5325.0000,4249.0000 5326.0000,4250.0000 5326.0000,4251.0000 Z M 5326.0000,4313.0000 L 5326.0000,4348.0000 C 5326.0000,4350.0000 5325.0000,4351.0000 5323.0000,4351.0000 C 5322.0000,4351.0000 5321.0000,4350.0000 5321.0000,4348.0000 L 5321.0000,4313.0000 C 5321.0000,4311.0000 5322.0000,4310.0000 5323.0000,4310.0000 C 5325.0000,4310.0000 5326.0000,4311.0000 5326.0000,4313.0000 Z M 5326.0000,4374.0000 L 5326.0000,4410.0000 C 5326.0000,4411.0000 5325.0000,4412.0000 5323.0000,4412.0000 C 5322.0000,4412.0000 5321.0000,4411.0000 5321.0000,4410.0000 L 5321.0000,4374.0000 C 5321.0000,4373.0000 5322.0000,4371.0000 5323.0000,4371.0000 C 5325.0000,4371.0000 5326.0000,4373.0000 5326.0000,4374.0000 Z M 5326.0000,4435.0000 L 5326.0000,4471.0000 C 5326.0000,4473.0000 5325.0000,4474.0000 5323.0000,4474.0000 C 5322.0000,4474.0000 5321.0000,4473.0000 5321.0000,4471.0000 L 5321.0000,4435.0000 C 5321.0000,4434.0000 5322.0000,4433.0000 5323.0000,4433.0000 C 5325.0000,4433.0000 5326.0000,4434.0000 5326.0000,4435.0000 Z M 5326.0000,4497.0000 L 5326.0000,4533.0000 C 5326.0000,4534.0000 5325.0000,4535.0000 5323.0000,4535.0000 C 5322.0000,4535.0000 5321.0000,4534.0000 5321.0000,4533.0000 L 5321.0000,4497.0000 C 5321.0000,4495.0000 5322.0000,4494.0000 5323.0000,4494.0000 C 5325.0000,4494.0000 5326.0000,4495.0000 5326.0000,4497.0000 Z M 5326.0000,4558.0000 L 5326.0000,4594.0000 C 5326.0000,4596.0000 5325.0000,4597.0000 5323.0000,4597.0000 C 5322.0000,4597.0000 5321.0000,4596.0000 5321.0000,4594.0000 L 5321.0000,4558.0000 C 5321.0000,4557.0000 5322.0000,4556.0000 5323.0000,4556.0000 C 5325.0000,4556.0000 5326.0000,4557.0000 5326.0000,4558.0000 Z M 5326.0000,4620.0000 L 5326.0000,4656.0000 C 5326.0000,4657.0000 5325.0000,4658.0000 5323.0000,4658.0000 C 5322.0000,4658.0000 5321.0000,4657.0000 5321.0000,4656.0000 L 5321.0000,4620.0000 C 5321.0000,4618.0000 5322.0000,4617.0000 5323.0000,4617.0000 C 5325.0000,4617.0000 5326.0000,4618.0000 5326.0000,4620.0000 Z M 5326.0000,4681.0000 L 5326.0000,4717.0000 C 5326.0000,4718.0000 5325.0000,4720.0000 5323.0000,4720.0000 C 5322.0000,4720.0000 5321.0000,4718.0000 5321.0000,4717.0000 L 5321.0000,4681.0000 C 5321.0000,4680.0000 5322.0000,4679.0000 5323.0000,4679.0000 C 5325.0000,4679.0000 5326.0000,4680.0000 5326.0000,4681.0000 Z M 5326.0000,4743.0000 L 5326.0000,4778.0000 C 5326.0000,4780.0000 5325.0000,4781.0000 5323.0000,4781.0000 C 5322.0000,4781.0000 5321.0000,4780.0000 5321.0000,4778.0000 L 5321.0000,4743.0000 C 5321.0000,4741.0000 5322.0000,4740.0000 5323.0000,4740.0000 C 5325.0000,4740.0000 5326.0000,4741.0000 5326.0000,4743.0000 Z M 5326.0000,4804.0000 L 5326.0000,4840.0000 C 5326.0000,4841.0000 5325.0000,4842.0000 5323.0000,4842.0000 C 5322.0000,4842.0000 5321.0000,4841.0000 5321.0000,4840.0000 L 5321.0000,4804.0000 C 5321.0000,4803.0000 5322.0000,4802.0000 5323.0000,4802.0000 C 5325.0000,4802.0000 5326.0000,4803.0000 5326.0000,4804.0000 Z M 5326.0000,4866.0000 L 5326.0000,4870.0000 C 5326.0000,4871.0000 5325.0000,4872.0000 5323.0000,4872.0000 C 5322.0000,4872.0000 5321.0000,4871.0000 5321.0000,4870.0000 L 5321.0000,4866.0000 C 5321.0000,4864.0000 5322.0000,4863.0000 5323.0000,4863.0000 C 5325.0000,4863.0000 5326.0000,4864.0000 5326.0000,4866.0000 Z "  fill="#000000" stroke="#000000" stroke-width="1.0000"  stroke-linecap="butt"  stroke-linejoin="round" />
</g>
<g transform="matrix(1.0000 0.0000 0.0000 1.0000 0.0000 0.0000)">
</g>
<g transform="matrix(1.0000 0.0000 0.0000 1.0000 395.1951 199.3608)">
<text font-family="Times New Roman" fill="#000000" font-style="italic" style ="white-space:pre;" font-weight="400" text-anchor="start" x="0.0000" y="0.0000" font-size="11.0000" ><![CDATA[...]]></text>
</g>
<g transform="matrix(0.0625 0.0000 0.0000 0.0625 0.0000 0.0000)">
<path d="M 3055.0000,939.0000 L 3055.0000,1846.0000 L 4114.0000,1846.0000 L 4114.0000,939.0000 L 3055.0000,939.0000 Z" stroke-width="1px" stroke="#CCECFF"  fill="#CCECFF" />
</g>
<g transform="matrix(1.0000 0.0000 0.0000 1.0000 0.0000 0.0000)">
</g>
<g transform="matrix(0.0625 0.0000 0.0000 0.0625 0.0000 0.0000)">
<path d="M 3055.0000,1846.0000 L 4114.0000,1846.0000 L 4114.0000,939.0000 L 3055.0000,939.0000 L 3055.0000,1846.0000 Z" stroke="#000000" stroke-width="5.0000"  stroke-linecap="round"  stroke-linejoin="round" fill="none" />
</g>
<g transform="matrix(1.0000 0.0000 0.0000 1.0000 0.0000 0.0000)">
</g>
<g transform="matrix(1.0000 0.0000 0.0000 1.0000 210.4317 84.2995)">
<text font-family="Arial" fill="#000000" style ="white-space:pre;" font-weight="400" text-anchor="start" x="0.0000" y="0.0000" font-size="11.0000" ><![CDATA[BWP]]></text>
</g>
<g transform="matrix(1.0000 0.0000 0.0000 1.0000 234.7280 85.7731)">
<text font-family="Arial" fill="#000000" style ="white-space:pre;" font-weight="400" text-anchor="start" x="0.0000" y="0.0000" font-size="7.0000" ><![CDATA[3]]></text>
</g>
<g transform="matrix(1.0000 0.0000 0.0000 1.0000 199.3883 97.0993)">
<text font-family="Arial" fill="#000000" style ="white-space:pre;" font-weight="400" text-anchor="start" x="0.0000" y="0.0000" font-size="8.0000" ><![CDATA[20MHz/60kHz]]></text>
</g>
<g transform="matrix(0.0625 0.0000 0.0000 0.0625 0.0000 0.0000)">
<path d="M 5323.0000,1997.0000 L 5323.0000,4114.0000 L 5966.0000,4114.0000 L 5966.0000,1997.0000 L 5323.0000,1997.0000 Z" stroke-width="1px" stroke="#FFFFCC"  fill="#FFFFCC" />
</g>
<g transform="matrix(1.0000 0.0000 0.0000 1.0000 0.0000 0.0000)">
</g>
<g transform="matrix(0.0625 0.0000 0.0000 0.0625 0.0000 0.0000)">
<path d="M 5323.0000,4114.0000 L 5966.0000,4114.0000 L 5966.0000,1997.0000 L 5323.0000,1997.0000 L 5323.0000,4114.0000 Z" stroke="#000000" stroke-width="5.0000"  stroke-linecap="round"  stroke-linejoin="round" fill="none" />
</g>
<g transform="matrix(1.0000 0.0000 0.0000 1.0000 0.0000 0.0000)">
</g>
<g transform="matrix(1.0000 0.0000 0.0000 1.0000 339.1764 183.4306)">
<text font-family="Arial" fill="#000000" style ="white-space:pre;" font-weight="400" text-anchor="start" x="0.0000" y="0.0000" font-size="11.0000" ><![CDATA[BWP]]></text>
</g>
<g transform="matrix(1.0000 0.0000 0.0000 1.0000 363.4726 184.9043)">
<text font-family="Arial" fill="#000000" style ="white-space:pre;" font-weight="400" text-anchor="start" x="0.0000" y="0.0000" font-size="7.0000" ><![CDATA[1]]></text>
</g>
<g transform="matrix(1.0000 0.0000 0.0000 1.0000 340.5822 193.8307)">
<text font-family="Arial" fill="#000000" style ="white-space:pre;" font-weight="400" text-anchor="start" x="0.0000" y="0.0000" font-size="8.0000" ><![CDATA[40MHz]]></text>
</g>
<g transform="matrix(1.0000 0.0000 0.0000 1.0000 341.9142 205.8303)">
<text font-family="Arial" fill="#000000" style ="white-space:pre;" font-weight="400" text-anchor="start" x="0.0000" y="0.0000" font-size="8.0000" ><![CDATA[15kHz]]></text>
</g>
<g transform="matrix(0.0625 0.0000 0.0000 0.0625 0.0000 0.0000)">
<path d="M 4114.0000,2904.0000 L 4114.0000,3509.0000 L 5323.0000,3509.0000 L 5323.0000,2904.0000 L 4114.0000,2904.0000 Z" stroke-width="1px" stroke="#CCFFCC"  fill="#CCFFCC" />
</g>
<g transform="matrix(1.0000 0.0000 0.0000 1.0000 0.0000 0.0000)">
</g>
<g transform="matrix(0.0625 0.0000 0.0000 0.0625 0.0000 0.0000)">
<path d="M 4114.0000,3509.0000 L 5323.0000,3509.0000 L 5323.0000,2904.0000 L 4114.0000,2904.0000 L 4114.0000,3509.0000 Z" stroke="#000000" stroke-width="5.0000"  stroke-linecap="round"  stroke-linejoin="round" fill="none" />
</g>
<g transform="matrix(1.0000 0.0000 0.0000 1.0000 0.0000 0.0000)">
</g>
<g transform="matrix(1.0000 0.0000 0.0000 1.0000 281.2976 197.6852)">
<text font-family="Arial" fill="#000000" style ="white-space:pre;" font-weight="400" text-anchor="start" x="0.0000" y="0.0000" font-size="11.0000" ><![CDATA[BWP]]></text>
</g>
<g transform="matrix(1.0000 0.0000 0.0000 1.0000 305.5938 199.1588)">
<text font-family="Arial" fill="#000000" style ="white-space:pre;" font-weight="400" text-anchor="start" x="0.0000" y="0.0000" font-size="7.0000" ><![CDATA[2]]></text>
</g>
<g transform="matrix(1.0000 0.0000 0.0000 1.0000 270.2545 210.4850)">
<text font-family="Arial" fill="#000000" style ="white-space:pre;" font-weight="400" text-anchor="start" x="0.0000" y="0.0000" font-size="8.0000" ><![CDATA[10MHz/15kHz]]></text>
</g>
<g transform="matrix(0.0625 0.0000 0.0000 0.0625 0.0000 0.0000)">
<path d="M 1544.0000,2904.0000 L 1544.0000,3509.0000 L 3055.0000,3509.0000 L 3055.0000,2904.0000 L 1544.0000,2904.0000 Z" stroke-width="1px" stroke="#CCFFCC"  fill="#CCFFCC" />
</g>
<g transform="matrix(1.0000 0.0000 0.0000 1.0000 0.0000 0.0000)">
</g>
<g transform="matrix(0.0625 0.0000 0.0000 0.0625 0.0000 0.0000)">
<path d="M 1544.0000,3509.0000 L 3055.0000,3509.0000 L 3055.0000,2904.0000 L 1544.0000,2904.0000 L 1544.0000,3509.0000 Z" stroke="#000000" stroke-width="5.0000"  stroke-linecap="round"  stroke-linejoin="round" fill="none" />
</g>
<g transform="matrix(1.0000 0.0000 0.0000 1.0000 0.0000 0.0000)">
</g>
<g transform="matrix(1.0000 0.0000 0.0000 1.0000 130.1166 197.6852)">
<text font-family="Arial" fill="#000000" style ="white-space:pre;" font-weight="400" text-anchor="start" x="0.0000" y="0.0000" font-size="11.0000" ><![CDATA[BWP]]></text>
</g>
<g transform="matrix(1.0000 0.0000 0.0000 1.0000 154.4129 199.1588)">
<text font-family="Arial" fill="#000000" style ="white-space:pre;" font-weight="400" text-anchor="start" x="0.0000" y="0.0000" font-size="7.0000" ><![CDATA[2]]></text>
</g>
<g transform="matrix(1.0000 0.0000 0.0000 1.0000 119.0736 210.4850)">
<text font-family="Arial" fill="#000000" style ="white-space:pre;" font-weight="400" text-anchor="start" x="0.0000" y="0.0000" font-size="8.0000" ><![CDATA[10MHz/15kHz]]></text>
</g>
</g>
</svg>
