<?xml version="1.0"  encoding="UTF-8" standalone="no"?>
<svg version="1.1" xmlns="http://www.w3.org/2000/svg" xmlns:xlink="http://www.w3.org/1999/xlink" width="620.0000" height="469.0000">
<g transform="translate(-17.0000, -1.0000)">
<g transform="matrix(0.0625 0.0000 0.0000 0.0625 0.0000 0.0000)">
<path d="M 6704.0000,6432.0000 L 7440.0000,5696.0000 L 6144.0000,4400.0000 L 5408.0000,5136.0000 L 6704.0000,6432.0000 Z" stroke-width="1px" stroke="#FBD7BB"  fill="#FBD7BB" />
</g>
<g transform="matrix(1.0000 0.0000 0.0000 1.0000 0.0000 0.0000)">
</g>
<g transform="matrix(0.0625 0.0000 0.0000 0.0625 0.0000 0.0000)">
<path d="M 6704.0000,6432.0000 L 7440.0000,5696.0000 L 6144.0000,4400.0000 L 5408.0000,5136.0000 L 6704.0000,6432.0000 Z" stroke="#EA700D" stroke-width="16.0000"  stroke-linecap="round"  stroke-linejoin="round" fill="none" />
</g>
<g transform="matrix(1.0000 0.0000 0.0000 1.0000 0.0000 0.0000)">
</g>
<g transform="matrix(0.0625 0.0000 0.0000 0.0625 0.0000 0.0000)">
<path d="M 2592.0000,5568.0000 L 3584.0000,6560.0000 L 4912.0000,5248.0000 L 3920.0000,4256.0000 L 2592.0000,5568.0000 Z" stroke-width="1px" stroke="#FBD7BB"  fill="#FBD7BB" />
</g>
<g transform="matrix(1.0000 0.0000 0.0000 1.0000 0.0000 0.0000)">
</g>
<g transform="matrix(0.0625 0.0000 0.0000 0.0625 0.0000 0.0000)">
<path d="M 2592.0000,5568.0000 L 3584.0000,6560.0000 L 4912.0000,5248.0000 L 3920.0000,4256.0000 L 2592.0000,5568.0000 Z" stroke="#EA700D" stroke-width="16.0000"  stroke-linecap="round"  stroke-linejoin="round" fill="none" />
</g>
<g transform="matrix(1.0000 0.0000 0.0000 1.0000 0.0000 0.0000)">
</g>
<g transform="matrix(0.0625 0.0000 0.0000 0.0625 0.0000 0.0000)">
<path d="M 4464.0000,1392.0000 L 4464.0000,3216.0000 L 5712.0000,3216.0000 L 5712.0000,1392.0000 L 4464.0000,1392.0000 Z" stroke-width="1px" stroke="#FBD7BB"  fill="#FBD7BB" />
</g>
<g transform="matrix(1.0000 0.0000 0.0000 1.0000 0.0000 0.0000)">
</g>
<g transform="matrix(0.0625 0.0000 0.0000 0.0625 0.0000 0.0000)">
<path d="M 4464.0000,3216.0000 L 5712.0000,3216.0000 L 5712.0000,1392.0000 L 4464.0000,1392.0000 L 4464.0000,3216.0000 Z" stroke="#EA700D" stroke-width="16.0000"  stroke-linecap="round"  stroke-linejoin="round" fill="none" />
</g>
<g transform="matrix(1.0000 0.0000 0.0000 1.0000 0.0000 0.0000)">
</g>
<g transform="matrix(0.0625 0.0000 0.0000 0.0625 0.0000 0.0000)">
<path d="M 6376.0000,4096.0000 C 6376.0000,3367.0000 5785.0000,2776.0000 5056.0000,2776.0000 C 4327.0000,2776.0000 3736.0000,3367.0000 3736.0000,4096.0000 C 3736.0000,4825.0000 4327.0000,5416.0000 5056.0000,5416.0000 C 5785.0000,5416.0000 6376.0000,4825.0000 6376.0000,4096.0000 "  fill="#FFFFFF" stroke="none" />
</g>
<g transform="matrix(1.0000 0.0000 0.0000 1.0000 0.0000 0.0000)">
</g>
<g transform="matrix(0.0625 0.0000 0.0000 0.0625 0.0000 0.0000)">
<path d="M 6376.0000,4096.0000 M 6376.0000,4096.0000 C 6376.0000,3367.0000 5785.0000,2776.0000 5056.0000,2776.0000 C 4327.0000,2776.0000 3736.0000,3367.0000 3736.0000,4096.0000 C 3736.0000,4825.0000 4327.0000,5416.0000 5056.0000,5416.0000 C 5785.0000,5416.0000 6376.0000,4825.0000 6376.0000,4096.0000 " stroke="#000000" stroke-width="16.0000"  stroke-linecap="round"  stroke-linejoin="round"  fill="none" />
</g>
<g transform="matrix(1.0000 0.0000 0.0000 1.0000 0.0000 0.0000)">
</g>
<g transform="matrix(0.0625 0.0000 0.0000 0.0625 0.0000 0.0000)">
<path d="M 5992.0000,952.0000 C 5992.0000,449.0000 5584.0000,40.0000 5080.0000,40.0000 C 4577.0000,40.0000 4168.0000,449.0000 4168.0000,952.0000 C 4168.0000,1456.0000 4577.0000,1864.0000 5080.0000,1864.0000 C 5584.0000,1864.0000 5992.0000,1456.0000 5992.0000,952.0000 "  fill="#FFFFFF" stroke="none" />
</g>
<g transform="matrix(1.0000 0.0000 0.0000 1.0000 0.0000 0.0000)">
</g>
<g transform="matrix(0.0625 0.0000 0.0000 0.0625 0.0000 0.0000)">
<path d="M 5992.0000,952.0000 M 5992.0000,952.0000 C 5992.0000,449.0000 5584.0000,40.0000 5080.0000,40.0000 C 4577.0000,40.0000 4168.0000,449.0000 4168.0000,952.0000 C 4168.0000,1456.0000 4577.0000,1864.0000 5080.0000,1864.0000 C 5584.0000,1864.0000 5992.0000,1456.0000 5992.0000,952.0000 " stroke="#000000" stroke-width="16.0000"  stroke-linecap="round"  stroke-linejoin="round"  fill="none" />
</g>
<g transform="matrix(1.0000 0.0000 0.0000 1.0000 0.0000 0.0000)">
</g>
<g transform="matrix(0.0625 0.0000 0.0000 0.0625 0.0000 0.0000)">
<path d="M 3640.0000,6448.0000 C 3640.0000,5945.0000 3232.0000,5536.0000 2728.0000,5536.0000 C 2225.0000,5536.0000 1816.0000,5945.0000 1816.0000,6448.0000 C 1816.0000,6952.0000 2225.0000,7360.0000 2728.0000,7360.0000 C 3232.0000,7360.0000 3640.0000,6952.0000 3640.0000,6448.0000 "  fill="#FFFFFF" stroke="none" />
</g>
<g transform="matrix(1.0000 0.0000 0.0000 1.0000 0.0000 0.0000)">
</g>
<g transform="matrix(0.0625 0.0000 0.0000 0.0625 0.0000 0.0000)">
<path d="M 3640.0000,6448.0000 M 3640.0000,6448.0000 C 3640.0000,5945.0000 3232.0000,5536.0000 2728.0000,5536.0000 C 2225.0000,5536.0000 1816.0000,5945.0000 1816.0000,6448.0000 C 1816.0000,6952.0000 2225.0000,7360.0000 2728.0000,7360.0000 C 3232.0000,7360.0000 3640.0000,6952.0000 3640.0000,6448.0000 " stroke="#000000" stroke-width="16.0000"  stroke-linecap="round"  stroke-linejoin="round"  fill="none" />
</g>
<g transform="matrix(1.0000 0.0000 0.0000 1.0000 0.0000 0.0000)">
</g>
<g transform="matrix(0.0625 0.0000 0.0000 0.0625 0.0000 0.0000)">
<path d="M 8272.0000,6496.0000 C 8272.0000,5993.0000 7864.0000,5584.0000 7360.0000,5584.0000 C 6857.0000,5584.0000 6448.0000,5993.0000 6448.0000,6496.0000 C 6448.0000,7000.0000 6857.0000,7408.0000 7360.0000,7408.0000 C 7864.0000,7408.0000 8272.0000,7000.0000 8272.0000,6496.0000 "  fill="#FFFFFF" stroke="none" />
</g>
<g transform="matrix(1.0000 0.0000 0.0000 1.0000 0.0000 0.0000)">
</g>
<g transform="matrix(0.0625 0.0000 0.0000 0.0625 0.0000 0.0000)">
<path d="M 8272.0000,6496.0000 M 8272.0000,6496.0000 C 8272.0000,5993.0000 7864.0000,5584.0000 7360.0000,5584.0000 C 6857.0000,5584.0000 6448.0000,5993.0000 6448.0000,6496.0000 C 6448.0000,7000.0000 6857.0000,7408.0000 7360.0000,7408.0000 C 7864.0000,7408.0000 8272.0000,7000.0000 8272.0000,6496.0000 " stroke="#000000" stroke-width="16.0000"  stroke-linecap="round"  stroke-linejoin="round"  fill="none" />
</g>
<g transform="matrix(1.0000 0.0000 0.0000 1.0000 0.0000 0.0000)">
</g>
<g transform="matrix(0.0625 0.0000 0.0000 0.0625 0.0000 0.0000)">
<path d="M 4560.0000,1488.0000 L 4560.0000,3120.0000 L 4848.0000,3120.0000 L 4848.0000,1488.0000 L 4560.0000,1488.0000 Z" stroke-width="1px" stroke="#FFFFFF"  fill="#FFFFFF" />
</g>
<g transform="matrix(1.0000 0.0000 0.0000 1.0000 0.0000 0.0000)">
</g>
<g transform="matrix(0.0625 0.0000 0.0000 0.0625 0.0000 0.0000)">
<path d="M 4560.0000,3120.0000 L 4848.0000,3120.0000 L 4848.0000,1488.0000 L 4560.0000,1488.0000 L 4560.0000,3120.0000 Z" stroke="#0070C0" stroke-width="16.0000"  stroke-linecap="round"  stroke-linejoin="round" fill="none" />
</g>
<g transform="matrix(1.0000 0.0000 0.0000 1.0000 0.0000 0.0000)">
</g>
<g transform="matrix(0.0625 0.0000 0.0000 0.0625 0.0000 0.0000)">
<path d="M 4944.0000,1488.0000 L 4944.0000,3120.0000 L 5232.0000,3120.0000 L 5232.0000,1488.0000 L 4944.0000,1488.0000 Z" stroke-width="1px" stroke="#FFFFFF"  fill="#FFFFFF" />
</g>
<g transform="matrix(1.0000 0.0000 0.0000 1.0000 0.0000 0.0000)">
</g>
<g transform="matrix(0.0625 0.0000 0.0000 0.0625 0.0000 0.0000)">
<path d="M 4944.0000,3120.0000 L 5232.0000,3120.0000 L 5232.0000,1488.0000 L 4944.0000,1488.0000 L 4944.0000,3120.0000 Z" stroke="#0070C0" stroke-width="16.0000"  stroke-linecap="round"  stroke-linejoin="round" fill="none" />
</g>
<g transform="matrix(1.0000 0.0000 0.0000 1.0000 0.0000 0.0000)">
</g>
<g transform="matrix(0.0625 0.0000 0.0000 0.0625 0.0000 0.0000)">
<path d="M 5328.0000,1488.0000 L 5328.0000,3120.0000 L 5616.0000,3120.0000 L 5616.0000,1488.0000 L 5328.0000,1488.0000 Z" stroke-width="1px" stroke="#FFFFFF"  fill="#FFFFFF" />
</g>
<g transform="matrix(1.0000 0.0000 0.0000 1.0000 0.0000 0.0000)">
</g>
<g transform="matrix(0.0625 0.0000 0.0000 0.0625 0.0000 0.0000)">
<path d="M 5328.0000,3120.0000 L 5616.0000,3120.0000 L 5616.0000,1488.0000 L 5328.0000,1488.0000 L 5328.0000,3120.0000 Z" stroke="#0070C0" stroke-width="16.0000"  stroke-linecap="round"  stroke-linejoin="round" fill="none" />
</g>
<g transform="matrix(1.0000 0.0000 0.0000 1.0000 0.0000 0.0000)">
</g>
<g transform="matrix(0.0625 0.0000 0.0000 0.0625 0.0000 0.0000)">
<path d="M 6800.0000,6288.0000 L 7008.0000,6080.0000 L 5792.0000,4848.0000 L 5584.0000,5056.0000 L 6800.0000,6288.0000 Z" stroke-width="1px" stroke="#FFFFFF"  fill="#FFFFFF" />
</g>
<g transform="matrix(1.0000 0.0000 0.0000 1.0000 0.0000 0.0000)">
</g>
<g transform="matrix(0.0625 0.0000 0.0000 0.0625 0.0000 0.0000)">
<path d="M 6800.0000,6288.0000 L 7008.0000,6080.0000 L 5792.0000,4848.0000 L 5584.0000,5056.0000 L 6800.0000,6288.0000 Z" stroke="#0070C0" stroke-width="16.0000"  stroke-linecap="round"  stroke-linejoin="round" fill="none" />
</g>
<g transform="matrix(1.0000 0.0000 0.0000 1.0000 0.0000 0.0000)">
</g>
<g transform="matrix(0.0625 0.0000 0.0000 0.0625 0.0000 0.0000)">
<path d="M 2688.0000,5680.0000 L 2880.0000,5888.0000 L 4176.0000,4608.0000 L 3968.0000,4400.0000 L 2688.0000,5680.0000 Z" stroke-width="1px" stroke="#FFFFFF"  fill="#FFFFFF" />
</g>
<g transform="matrix(1.0000 0.0000 0.0000 1.0000 0.0000 0.0000)">
</g>
<g transform="matrix(0.0625 0.0000 0.0000 0.0625 0.0000 0.0000)">
<path d="M 2688.0000,5680.0000 L 2880.0000,5888.0000 L 4176.0000,4608.0000 L 3968.0000,4400.0000 L 2688.0000,5680.0000 Z" stroke="#0070C0" stroke-width="16.0000"  stroke-linecap="round"  stroke-linejoin="round" fill="none" />
</g>
<g transform="matrix(1.0000 0.0000 0.0000 1.0000 0.0000 0.0000)">
</g>
<g transform="matrix(0.0625 0.0000 0.0000 0.0625 0.0000 0.0000)">
<path d="M 2976.0000,6000.0000 L 3168.0000,6208.0000 L 4464.0000,4912.0000 L 4256.0000,4704.0000 L 2976.0000,6000.0000 Z" stroke-width="1px" stroke="#FFFFFF"  fill="#FFFFFF" />
</g>
<g transform="matrix(1.0000 0.0000 0.0000 1.0000 0.0000 0.0000)">
</g>
<g transform="matrix(0.0625 0.0000 0.0000 0.0625 0.0000 0.0000)">
<path d="M 2976.0000,6000.0000 L 3168.0000,6208.0000 L 4464.0000,4912.0000 L 4256.0000,4704.0000 L 2976.0000,6000.0000 Z" stroke="#0070C0" stroke-width="16.0000"  stroke-linecap="round"  stroke-linejoin="round" fill="none" />
</g>
<g transform="matrix(1.0000 0.0000 0.0000 1.0000 0.0000 0.0000)">
</g>
<g transform="matrix(0.0625 0.0000 0.0000 0.0625 0.0000 0.0000)">
<path d="M 3280.0000,6272.0000 L 3488.0000,6480.0000 L 4784.0000,5184.0000 L 4576.0000,4976.0000 L 3280.0000,6272.0000 Z" stroke-width="1px" stroke="#FFFFFF"  fill="#FFFFFF" />
</g>
<g transform="matrix(1.0000 0.0000 0.0000 1.0000 0.0000 0.0000)">
</g>
<g transform="matrix(0.0625 0.0000 0.0000 0.0625 0.0000 0.0000)">
<path d="M 3280.0000,6272.0000 L 3488.0000,6480.0000 L 4784.0000,5184.0000 L 4576.0000,4976.0000 L 3280.0000,6272.0000 Z" stroke="#0070C0" stroke-width="16.0000"  stroke-linecap="round"  stroke-linejoin="round" fill="none" />
</g>
<g transform="matrix(1.0000 0.0000 0.0000 1.0000 0.0000 0.0000)">
</g>
<g transform="matrix(0.0625 0.0000 0.0000 0.0625 0.0000 0.0000)">
<path d="M 5088.0000,3136.0000 L 5088.0000,3520.0000 " stroke="#000000" stroke-width="16.0000"  stroke-linecap="round"  stroke-linejoin="round" fill="none" />
</g>
<g transform="matrix(1.0000 0.0000 0.0000 1.0000 0.0000 0.0000)">
</g>
<g transform="matrix(0.0625 0.0000 0.0000 0.0625 0.0000 0.0000)">
<path d="M 5152.0000,3504.0000 L 5088.0000,3712.0000 L 5008.0000,3504.0000 L 5152.0000,3504.0000 Z" stroke-width="1px" stroke="#000000"  fill="#000000" />
</g>
<g transform="matrix(1.0000 0.0000 0.0000 1.0000 0.0000 0.0000)">
</g>
<g transform="matrix(0.0625 0.0000 0.0000 0.0625 0.0000 0.0000)">
<path d="M 5152.0000,3504.0000 M 5458.0000,3184.0000 C 5458.0000,3264.0000 5372.0000,3328.0000 5266.0000,3328.0000 C 5266.0000,3328.0000 5266.0000,3328.0000 5266.0000,3328.0000 C 5160.0000,3328.0000 5074.0000,3393.0000 5074.0000,3472.0000 " stroke="#000000" stroke-width="16.0000"  stroke-linecap="round"  stroke-linejoin="round"  fill="none" />
</g>
<g transform="matrix(1.0000 0.0000 0.0000 1.0000 0.0000 0.0000)">
</g>
<g transform="matrix(0.0625 0.0000 0.0000 0.0625 0.0000 0.0000)">
<path d="M 5074.0000,3472.0000 M 4720.0000,3184.0000 C 4720.0000,3264.0000 4800.0000,3328.0000 4899.0000,3328.0000 C 4899.0000,3328.0000 4899.0000,3328.0000 4899.0000,3328.0000 C 4998.0000,3328.0000 5078.0000,3393.0000 5078.0000,3472.0000 " stroke="#000000" stroke-width="16.0000"  stroke-linecap="round"  stroke-linejoin="round"  fill="none" />
</g>
<g transform="matrix(1.0000 0.0000 0.0000 1.0000 0.0000 0.0000)">
</g>
<g transform="matrix(0.0625 0.0000 0.0000 0.0625 0.0000 0.0000)">
<path d="M 5088.0000,3792.0000 L 5088.0000,4016.0000 L 4944.0000,4176.0000 " stroke="#C00000" stroke-width="48.0000"  stroke-linecap="round"  stroke-linejoin="round" fill="none" />
</g>
<g transform="matrix(1.0000 0.0000 0.0000 1.0000 0.0000 0.0000)">
</g>
<g transform="matrix(0.0625 0.0000 0.0000 0.0625 0.0000 0.0000)">
<path d="M 5024.0000,4208.0000 L 4800.0000,4368.0000 L 4896.0000,4112.0000 L 5024.0000,4208.0000 Z" stroke-width="1px" stroke="#C00000"  fill="#C00000" />
</g>
<g transform="matrix(1.0000 0.0000 0.0000 1.0000 0.0000 0.0000)">
</g>
<g transform="matrix(0.0625 0.0000 0.0000 0.0625 0.0000 0.0000)">
<path d="M 5088.0000,3984.0000 L 5264.0000,4208.0000 " stroke="#C00000" stroke-width="48.0000"  stroke-linecap="round"  stroke-linejoin="round" fill="none" />
</g>
<g transform="matrix(1.0000 0.0000 0.0000 1.0000 0.0000 0.0000)">
</g>
<g transform="matrix(0.0625 0.0000 0.0000 0.0625 0.0000 0.0000)">
<path d="M 5312.0000,4128.0000 L 5424.0000,4384.0000 L 5184.0000,4240.0000 L 5312.0000,4128.0000 Z" stroke-width="1px" stroke="#C00000"  fill="#C00000" />
</g>
<g transform="matrix(1.0000 0.0000 0.0000 1.0000 0.0000 0.0000)">
</g>
<g transform="matrix(0.0625 0.0000 0.0000 0.0625 0.0000 0.0000)">
<path d="M 4560.0000,4608.0000 L 4752.0000,4432.0000 L 4744.0000,4425.0000 C 4650.0000,4520.0000 4645.0000,4668.0000 4733.0000,4755.0000 C 4733.0000,4755.0000 4733.0000,4755.0000 4733.0000,4755.0000 C 4773.0000,4796.0000 4795.0000,4850.0000 4795.0000,4909.0000 " stroke="#0070C0" stroke-width="16.0000"  stroke-linecap="round"  stroke-linejoin="round" fill="none" />
</g>
<g transform="matrix(1.0000 0.0000 0.0000 1.0000 0.0000 0.0000)">
</g>
<g transform="matrix(0.0625 0.0000 0.0000 0.0625 0.0000 0.0000)">
<path d="M 4528.0000,4544.0000 L 4416.0000,4752.0000 L 4624.0000,4656.0000 L 4528.0000,4544.0000 Z" stroke-width="1px" stroke="#0070C0"  fill="#0070C0" />
</g>
<g transform="matrix(1.0000 0.0000 0.0000 1.0000 0.0000 0.0000)">
</g>
<g transform="matrix(0.0625 0.0000 0.0000 0.0625 0.0000 0.0000)">
<path d="M 4736.0000,4864.0000 L 4720.0000,5088.0000 L 4864.0000,4912.0000 L 4736.0000,4864.0000 Z" stroke-width="1px" stroke="#0070C0"  fill="#0070C0" />
</g>
<g transform="matrix(1.0000 0.0000 0.0000 1.0000 0.0000 0.0000)">
</g>
<g transform="matrix(0.0625 0.0000 0.0000 0.0625 0.0000 0.0000)">
<path d="M 4736.0000,4864.0000 M 4257.0000,4369.0000 C 4322.0000,4363.0000 4384.0000,4384.0000 4426.0000,4427.0000 C 4514.0000,4514.0000 4667.0000,4503.0000 4768.0000,4401.0000 " stroke="#0070C0" stroke-width="16.0000"  stroke-linecap="round"  stroke-linejoin="round"  fill="none" />
</g>
<g transform="matrix(1.0000 0.0000 0.0000 1.0000 0.0000 0.0000)">
</g>
<g transform="matrix(0.0625 0.0000 0.0000 0.0625 0.0000 0.0000)">
<path d="M 4304.0000,4416.0000 L 4080.0000,4448.0000 L 4240.0000,4304.0000 L 4304.0000,4416.0000 Z" stroke-width="1px" stroke="#0070C0"  fill="#0070C0" />
</g>
<g transform="matrix(1.0000 0.0000 0.0000 1.0000 0.0000 0.0000)">
</g>
<g transform="matrix(0.0625 0.0000 0.0000 0.0625 0.0000 0.0000)">
<path d="M 4304.0000,4416.0000 M 5464.0000,4447.0000 C 5541.0000,4539.0000 5656.0000,4568.0000 5721.0000,4514.0000 C 5721.0000,4514.0000 5721.0000,4514.0000 5721.0000,4514.0000 C 5745.0000,4494.0000 5776.0000,4485.0000 5810.0000,4487.0000 " stroke="#0070C0" stroke-width="16.0000"  stroke-linecap="round"  stroke-linejoin="round"  fill="none" />
</g>
<g transform="matrix(1.0000 0.0000 0.0000 1.0000 0.0000 0.0000)">
</g>
<g transform="matrix(0.0625 0.0000 0.0000 0.0625 0.0000 0.0000)">
<path d="M 5760.0000,4544.0000 L 5984.0000,4576.0000 L 5824.0000,4416.0000 L 5760.0000,4544.0000 Z" stroke-width="1px" stroke="#0070C0"  fill="#0070C0" />
</g>
<g transform="matrix(1.0000 0.0000 0.0000 1.0000 0.0000 0.0000)">
</g>
<g transform="matrix(0.0625 0.0000 0.0000 0.0625 0.0000 0.0000)">
<path d="M 5760.0000,4544.0000 M 5528.0000,4763.0000 C 5527.0000,4738.0000 5533.0000,4719.0000 5547.0000,4708.0000 C 5588.0000,4673.0000 5560.0000,4571.0000 5483.0000,4479.0000 " stroke="#0070C0" stroke-width="16.0000"  stroke-linecap="round"  stroke-linejoin="round"  fill="none" />
</g>
<g transform="matrix(1.0000 0.0000 0.0000 1.0000 0.0000 0.0000)">
</g>
<g transform="matrix(0.0625 0.0000 0.0000 0.0625 0.0000 0.0000)">
<path d="M 5584.0000,4720.0000 L 5616.0000,4944.0000 L 5456.0000,4784.0000 L 5584.0000,4720.0000 Z" stroke-width="1px" stroke="#0070C0"  fill="#0070C0" />
</g>
<g transform="matrix(1.0000 0.0000 0.0000 1.0000 0.0000 0.0000)">
<text font-family="Calibri" fill="#C00000" style ="white-space:pre;" font-weight="400" text-anchor="start" x="327.0000" y="250.0000" font-size="19.0000" ><![CDATA[Routing]]></text>
</g>
<g transform="matrix(0.0625 0.0000 0.0000 0.0625 0.0000 0.0000)">
<path d="M 5904.0000,4144.0000 L 5904.0000,4480.0000 L 9744.0000,4480.0000 L 9744.0000,4144.0000 L 5904.0000,4144.0000 Z" stroke-width="1px" stroke="#FFFFFF"  fill="#FFFFFF" />
</g>
<g transform="matrix(1.0000 0.0000 0.0000 1.0000 0.0000 0.0000)">
<text font-family="Calibri" fill="#0070C0" style ="white-space:pre;" font-weight="400" text-anchor="start" x="374.0000" y="275.0000" font-size="19.0000" ><![CDATA[Selection of BH RLC channel]]></text>
</g>
<g transform="matrix(0.0625 0.0000 0.0000 0.0625 0.0000 0.0000)">
<path d="M 7104.0000,6000.0000 L 7312.0000,5792.0000 L 6096.0000,4560.0000 L 5888.0000,4768.0000 L 7104.0000,6000.0000 Z" stroke-width="1px" stroke="#FFFFFF"  fill="#FFFFFF" />
</g>
<g transform="matrix(1.0000 0.0000 0.0000 1.0000 0.0000 0.0000)">
</g>
<g transform="matrix(0.0625 0.0000 0.0000 0.0625 0.0000 0.0000)">
<path d="M 7104.0000,6000.0000 L 7312.0000,5792.0000 L 6096.0000,4560.0000 L 5888.0000,4768.0000 L 7104.0000,6000.0000 Z" stroke="#0070C0" stroke-width="16.0000"  stroke-linecap="round"  stroke-linejoin="round" fill="none" />
</g>
<g transform="matrix(1.0000 0.0000 0.0000 1.0000 0.0000 0.0000)">
<text font-family="Calibri" fill="#EA700D" style ="white-space:pre;" font-weight="400" text-anchor="start" x="434.0000" y="306.0000" font-size="16.0000" ><![CDATA[Egress BH link]]></text>
<text font-family="Calibri" fill="#000000" style ="white-space:pre;" font-weight="400" text-anchor="start" x="389.0000" y="53.0000" font-size="24.0000" ><![CDATA[Prior]]></text>
<text font-family="Calibri" fill="#000000" style ="white-space:pre;" font-weight="400" text-anchor="start" x="436.0000" y="53.0000" font-size="24.0000" ><![CDATA[-]]></text>
<text font-family="Calibri" fill="#000000" style ="white-space:pre;" font-weight="400" text-anchor="start" x="443.0000" y="53.0000" font-size="24.0000" ><![CDATA[hop]]></text>
<text font-family="Calibri" fill="#000000" style ="white-space:pre;" font-weight="400" text-anchor="start" x="17.0000" y="464.0000" font-size="24.0000" ><![CDATA[Next]]></text>
<text font-family="Calibri" fill="#000000" style ="white-space:pre;" font-weight="400" text-anchor="start" x="63.0000" y="464.0000" font-size="24.0000" ><![CDATA[-]]></text>
<text font-family="Calibri" fill="#000000" style ="white-space:pre;" font-weight="400" text-anchor="start" x="70.0000" y="464.0000" font-size="24.0000" ><![CDATA[hop]]></text>
<text font-family="Calibri" fill="#000000" style ="white-space:pre;" font-weight="400" text-anchor="start" x="533.0000" y="461.0000" font-size="24.0000" ><![CDATA[Next]]></text>
<text font-family="Calibri" fill="#000000" style ="white-space:pre;" font-weight="400" text-anchor="start" x="579.0000" y="461.0000" font-size="24.0000" ><![CDATA[-]]></text>
<text font-family="Calibri" fill="#000000" style ="white-space:pre;" font-weight="400" text-anchor="start" x="586.0000" y="461.0000" font-size="24.0000" ><![CDATA[hop]]></text>
</g>
<g transform="matrix(0.0625 0.0000 0.0000 0.0625 0.0000 0.0000)">
<path d="M 5904.0000,2160.0000 L 5904.0000,2480.0000 L 7696.0000,2480.0000 L 7696.0000,2160.0000 L 5904.0000,2160.0000 Z" stroke-width="1px" stroke="#FFFFFF"  fill="#FFFFFF" />
</g>
<g transform="matrix(1.0000 0.0000 0.0000 1.0000 0.0000 0.0000)">
<text font-family="Calibri" fill="#EA700D" style ="white-space:pre;" font-weight="400" text-anchor="start" x="374.0000" y="150.0000" font-size="16.0000" ><![CDATA[Ingress BH link]]></text>
</g>
<g transform="matrix(0.0625 0.0000 0.0000 0.0625 0.0000 0.0000)">
<path d="M 5904.0000,2592.0000 L 5904.0000,2928.0000 L 8912.0000,2928.0000 L 8912.0000,2592.0000 L 5904.0000,2592.0000 Z" stroke-width="1px" stroke="#FFFFFF"  fill="#FFFFFF" />
</g>
<g transform="matrix(1.0000 0.0000 0.0000 1.0000 0.0000 0.0000)">
<text font-family="Calibri" fill="#0070C0" style ="white-space:pre;" font-weight="400" text-anchor="start" x="374.0000" y="177.0000" font-size="16.0000" ><![CDATA[Ingress BH RLC channels ]]></text>
</g>
<g transform="matrix(0.0625 0.0000 0.0000 0.0625 0.0000 0.0000)">
<path d="M 7168.0000,5136.0000 L 7168.0000,5456.0000 L 10192.0000,5456.0000 L 10192.0000,5136.0000 L 7168.0000,5136.0000 Z" stroke-width="1px" stroke="#FFFFFF"  fill="#FFFFFF" />
</g>
<g transform="matrix(1.0000 0.0000 0.0000 1.0000 0.0000 0.0000)">
<text font-family="Calibri" fill="#0070C0" style ="white-space:pre;" font-weight="400" text-anchor="start" x="454.0000" y="336.0000" font-size="16.0000" ><![CDATA[Egress BH RLC channels ]]></text>
</g>
<g transform="matrix(0.0625 0.0000 0.0000 0.0625 0.0000 0.0000)">
<path d="M 5712.0000,2208.0000 L 5920.0000,2304.0000 " stroke="#000000" stroke-width="16.0000"  stroke-linecap="round"  stroke-linejoin="round" fill="none" />
</g>
<g transform="matrix(1.0000 0.0000 0.0000 1.0000 0.0000 0.0000)">
</g>
<g transform="matrix(0.0625 0.0000 0.0000 0.0625 0.0000 0.0000)">
<path d="M 5737.0000,2215.0000 C 5744.0000,2197.0000 5736.0000,2176.0000 5719.0000,2168.0000 C 5701.0000,2161.0000 5680.0000,2169.0000 5672.0000,2186.0000 C 5672.0000,2186.0000 5672.0000,2186.0000 5672.0000,2186.0000 C 5665.0000,2204.0000 5673.0000,2225.0000 5690.0000,2233.0000 C 5708.0000,2240.0000 5729.0000,2232.0000 5737.0000,2215.0000 "  fill="#000000" stroke="none" />
</g>
<g transform="matrix(1.0000 0.0000 0.0000 1.0000 0.0000 0.0000)">
</g>
<g transform="matrix(0.0625 0.0000 0.0000 0.0625 0.0000 0.0000)">
<path d="M 5616.0000,2640.0000 L 5904.0000,2752.0000 " stroke="#000000" stroke-width="16.0000"  stroke-linecap="round"  stroke-linejoin="round" fill="none" />
</g>
<g transform="matrix(1.0000 0.0000 0.0000 1.0000 0.0000 0.0000)">
</g>
<g transform="matrix(0.0625 0.0000 0.0000 0.0625 0.0000 0.0000)">
<path d="M 5641.0000,2647.0000 C 5648.0000,2629.0000 5640.0000,2608.0000 5623.0000,2600.0000 C 5605.0000,2593.0000 5584.0000,2601.0000 5576.0000,2618.0000 C 5576.0000,2618.0000 5576.0000,2618.0000 5576.0000,2618.0000 C 5569.0000,2636.0000 5577.0000,2657.0000 5594.0000,2665.0000 C 5612.0000,2672.0000 5633.0000,2664.0000 5641.0000,2647.0000 "  fill="#000000" stroke="none" />
</g>
<g transform="matrix(1.0000 0.0000 0.0000 1.0000 0.0000 0.0000)">
</g>
<g transform="matrix(0.0625 0.0000 0.0000 0.0625 0.0000 0.0000)">
<path d="M 6608.0000,4832.0000 L 6864.0000,4832.0000 " stroke="#000000" stroke-width="16.0000"  stroke-linecap="round"  stroke-linejoin="round" fill="none" />
</g>
<g transform="matrix(1.0000 0.0000 0.0000 1.0000 0.0000 0.0000)">
</g>
<g transform="matrix(0.0625 0.0000 0.0000 0.0625 0.0000 0.0000)">
<path d="M 6642.0000,4837.0000 C 6642.0000,4817.0000 6627.0000,4802.0000 6607.0000,4802.0000 C 6588.0000,4802.0000 6572.0000,4817.0000 6572.0000,4837.0000 C 6572.0000,4837.0000 6572.0000,4837.0000 6572.0000,4837.0000 C 6572.0000,4856.0000 6588.0000,4872.0000 6607.0000,4872.0000 C 6627.0000,4872.0000 6642.0000,4856.0000 6642.0000,4837.0000 "  fill="#000000" stroke="none" />
</g>
<g transform="matrix(1.0000 0.0000 0.0000 1.0000 0.0000 0.0000)">
</g>
<g transform="matrix(0.0625 0.0000 0.0000 0.0625 0.0000 0.0000)">
<path d="M 6832.0000,5328.0000 L 7168.0000,5328.0000 " stroke="#000000" stroke-width="16.0000"  stroke-linecap="round"  stroke-linejoin="round" fill="none" />
</g>
<g transform="matrix(1.0000 0.0000 0.0000 1.0000 0.0000 0.0000)">
</g>
<g transform="matrix(0.0625 0.0000 0.0000 0.0625 0.0000 0.0000)">
<path d="M 6870.0000,5320.0000 C 6870.0000,5301.0000 6854.0000,5285.0000 6835.0000,5285.0000 C 6815.0000,5285.0000 6800.0000,5301.0000 6800.0000,5320.0000 C 6800.0000,5320.0000 6800.0000,5320.0000 6800.0000,5320.0000 C 6800.0000,5340.0000 6815.0000,5356.0000 6835.0000,5356.0000 C 6854.0000,5356.0000 6870.0000,5340.0000 6870.0000,5320.0000 "  fill="#000000" stroke="none" />
</g>
<g transform="matrix(1.0000 0.0000 0.0000 1.0000 0.0000 0.0000)">
</g>
</g>
</svg>
