<?xml version="1.0"  encoding="UTF-8" standalone="no"?>
<svg version="1.1" xmlns="http://www.w3.org/2000/svg" xmlns:xlink="http://www.w3.org/1999/xlink" width="721.0000" height="424.0000">
<g transform="translate(-0.0000, -0.0000)">
<g transform="matrix(1.0000 0.0000 0.0000 1.0000 61.1167 129.8993)">
<text font-family="Times New Roman" fill="#000000" style ="white-space:pre;" font-weight="400" text-anchor="start" x="0.0000" y="0.0000" font-size="13.0000" ><![CDATA[1]]></text>
</g>
<g transform="matrix(1.0000 0.0000 0.0000 1.0000 67.7836 129.8993)">
<text font-family="Times New Roman" fill="#000000" style ="white-space:pre;" font-weight="400" text-anchor="start" x="0.0000" y="0.0000" font-size="13.0000" ><![CDATA[.]]></text>
</g>
<g transform="matrix(1.0000 0.0000 0.0000 1.0000 71.1168 129.8993)">
<text font-family="Times New Roman" fill="#000000" style ="white-space:pre;" font-weight="400" text-anchor="start" x="0.0000" y="0.0000" font-size="13.0000" ><![CDATA[RRC]]></text>
</g>
<g transform="matrix(1.0000 0.0000 0.0000 1.0000 97.7971 129.8993)">
<text font-family="Times New Roman" fill="#000000" style ="white-space:pre;" font-weight="400" text-anchor="start" x="0.0000" y="0.0000" font-size="13.0000" ><![CDATA[: ]]></text>
</g>
<g transform="matrix(1.0000 0.0000 0.0000 1.0000 104.8350 129.8993)">
<text font-family="Times New Roman" fill="#000000" style ="white-space:pre;" font-weight="400" text-anchor="start" x="0.0000" y="0.0000" font-size="13.0000" ><![CDATA[UE Information ]]></text>
</g>
<g transform="matrix(1.0000 0.0000 0.0000 1.0000 47.4179 145.8994)">
<text font-family="Times New Roman" fill="#000000" style ="white-space:pre;" font-weight="400" text-anchor="start" x="0.0000" y="0.0000" font-size="13.0000" ><![CDATA[Request]]></text>
</g>
<g transform="matrix(1.0000 0.0000 0.0000 1.0000 90.3744 145.8994)">
<text font-family="Times New Roman" fill="#000000" style ="white-space:pre;" font-weight="400" text-anchor="start" x="0.0000" y="0.0000" font-size="13.0000" ><![CDATA[/]]></text>
</g>
<g transform="matrix(1.0000 0.0000 0.0000 1.0000 94.0790 145.8994)">
<text font-family="Times New Roman" fill="#000000" style ="white-space:pre;" font-weight="400" text-anchor="start" x="0.0000" y="0.0000" font-size="13.0000" ><![CDATA[Response ]]></text>
</g>
<g transform="matrix(1.0000 0.0000 0.0000 1.0000 148.5199 145.8994)">
<text font-family="Times New Roman" fill="#000000" style ="white-space:pre;" font-weight="400" text-anchor="start" x="0.0000" y="0.0000" font-size="13.0000" ><![CDATA[(]]></text>
</g>
<g transform="matrix(1.0000 0.0000 0.0000 1.0000 152.9599 145.8994)">
<text font-family="Times New Roman" fill="#000000" style ="white-space:pre;" font-weight="400" text-anchor="start" x="0.0000" y="0.0000" font-size="13.0000" ><![CDATA[including ]]></text>
</g>
<g transform="matrix(1.0000 0.0000 0.0000 1.0000 56.1238 161.9028)">
<text font-family="Times New Roman" fill="#000000" style ="white-space:pre;" font-weight="400" text-anchor="start" x="0.0000" y="0.0000" font-size="13.0000" ><![CDATA[RLF Report from the UE]]></text>
</g>
<g transform="matrix(1.0000 0.0000 0.0000 1.0000 190.1804 161.9028)">
<text font-family="Times New Roman" fill="#000000" style ="white-space:pre;" font-weight="400" text-anchor="start" x="0.0000" y="0.0000" font-size="13.0000" ><![CDATA[)]]></text>
</g>
<g transform="matrix(0.0625 0.0000 0.0000 0.0625 0.0000 0.0000)">
<path d="M 627.0000,3109.0000 L 10738.0000,3109.0000 " stroke="#000000" stroke-width="16.0000"  stroke-linecap="round"  stroke-linejoin="round" fill="none" />
</g>
<g transform="matrix(1.0000 0.0000 0.0000 1.0000 0.0000 0.0000)">
</g>
<g transform="matrix(0.0625 0.0000 0.0000 0.0625 0.0000 0.0000)">
<path d="M 10723.0000,3050.0000 L 10899.0000,3109.0000 L 10723.0000,3168.0000 L 10723.0000,3050.0000 Z" stroke-width="1px" stroke="#000000"  fill="#000000" />
</g>
<g transform="matrix(1.0000 0.0000 0.0000 1.0000 0.0000 0.0000)">
</g>
<g transform="matrix(0.0625 0.0000 0.0000 0.0625 0.0000 0.0000)">
<path d="M 7115.0000,6309.0000 L 3583.0000,6309.0000 " stroke="#000000" stroke-width="16.0000"  stroke-linecap="round"  stroke-linejoin="round" fill="none" />
</g>
<g transform="matrix(1.0000 0.0000 0.0000 1.0000 0.0000 0.0000)">
</g>
<g transform="matrix(0.0625 0.0000 0.0000 0.0625 0.0000 0.0000)">
<path d="M 3597.0000,6368.0000 L 3421.0000,6309.0000 L 3597.0000,6250.0000 L 3597.0000,6368.0000 Z" stroke-width="1px" stroke="#000000"  fill="#000000" />
</g>
<g transform="matrix(1.0000 0.0000 0.0000 1.0000 0.0000 0.0000)">
</g>
<g transform="matrix(1.0000 0.0000 0.0000 1.0000 248.4791 355.3145)">
<text font-family="Times New Roman" fill="#000000" style ="white-space:pre;" font-weight="400" text-anchor="start" x="0.0000" y="0.0000" font-size="13.0000" ><![CDATA[3]]></text>
</g>
<g transform="matrix(1.0000 0.0000 0.0000 1.0000 255.1460 355.3145)">
<text font-family="Times New Roman" fill="#000000" style ="white-space:pre;" font-weight="400" text-anchor="start" x="0.0000" y="0.0000" font-size="13.0000" ><![CDATA[. ]]></text>
</g>
<g transform="matrix(1.0000 0.0000 0.0000 1.0000 261.8125 355.3145)">
<text font-family="Times New Roman" fill="#000000" style ="white-space:pre;" font-weight="400" text-anchor="start" x="0.0000" y="0.0000" font-size="13.0000" ><![CDATA[F]]></text>
</g>
<g transform="matrix(1.0000 0.0000 0.0000 1.0000 269.2279 355.3145)">
<text font-family="Times New Roman" fill="#000000" style ="white-space:pre;" font-weight="400" text-anchor="start" x="0.0000" y="0.0000" font-size="13.0000" ><![CDATA[1]]></text>
</g>
<g transform="matrix(1.0000 0.0000 0.0000 1.0000 275.8947 355.3145)">
<text font-family="Times New Roman" fill="#000000" style ="white-space:pre;" font-weight="400" text-anchor="start" x="0.0000" y="0.0000" font-size="13.0000" ><![CDATA[: ]]></text>
</g>
<g transform="matrix(1.0000 0.0000 0.0000 1.0000 282.9326 355.3145)">
<text font-family="Times New Roman" fill="#000000" style ="white-space:pre;" font-weight="400" text-anchor="start" x="0.0000" y="0.0000" font-size="13.0000" ><![CDATA[Access and Mobility ]]></text>
</g>
<g transform="matrix(1.0000 0.0000 0.0000 1.0000 250.8910 371.3146)">
<text font-family="Times New Roman" fill="#000000" style ="white-space:pre;" font-weight="400" text-anchor="start" x="0.0000" y="0.0000" font-size="13.0000" ><![CDATA[In]]></text>
</g>
<g transform="matrix(1.0000 0.0000 0.0000 1.0000 261.9978 371.3146)">
<text font-family="Times New Roman" fill="#000000" style ="white-space:pre;" font-weight="400" text-anchor="start" x="0.0000" y="0.0000" font-size="13.0000" ><![CDATA[dication]]></text>
</g>
<g transform="matrix(1.0000 0.0000 0.0000 1.0000 304.9481 371.3146)">
<text font-family="Times New Roman" fill="#000000" style ="white-space:pre;" font-weight="400" text-anchor="start" x="0.0000" y="0.0000" font-size="13.0000" ><![CDATA[ ]]></text>
</g>
<g transform="matrix(1.0000 0.0000 0.0000 1.0000 308.2813 371.3146)">
<text font-family="Times New Roman" fill="#000000" style ="white-space:pre;" font-weight="400" text-anchor="start" x="0.0000" y="0.0000" font-size="13.0000" ><![CDATA[(]]></text>
</g>
<g transform="matrix(1.0000 0.0000 0.0000 1.0000 312.7213 371.3146)">
<text font-family="Times New Roman" fill="#000000" style ="white-space:pre;" font-weight="400" text-anchor="start" x="0.0000" y="0.0000" font-size="13.0000" ><![CDATA[including RLF ]]></text>
</g>
<g transform="matrix(1.0000 0.0000 0.0000 1.0000 300.5177 387.3148)">
<text font-family="Times New Roman" fill="#000000" style ="white-space:pre;" font-weight="400" text-anchor="start" x="0.0000" y="0.0000" font-size="13.0000" ><![CDATA[Report]]></text>
</g>
<g transform="matrix(1.0000 0.0000 0.0000 1.0000 336.8073 387.3148)">
<text font-family="Times New Roman" fill="#000000" style ="white-space:pre;" font-weight="400" text-anchor="start" x="0.0000" y="0.0000" font-size="13.0000" ><![CDATA[)]]></text>
</g>
<g transform="matrix(1.0000 0.0000 0.0000 1.0000 320.8823 403.3149)">
<text font-family="Times New Roman" fill="#000000" style ="white-space:pre;" font-weight="400" text-anchor="start" x="0.0000" y="0.0000" font-size="13.0000" ><![CDATA[ ]]></text>
</g>
<g transform="matrix(0.0625 0.0000 0.0000 0.0625 0.0000 0.0000)">
<path d="M 10944.0000,5175.0000 L 7304.0000,5175.0000 " stroke="#000000" stroke-width="16.0000"  stroke-linecap="round"  stroke-linejoin="round" fill="none" />
</g>
<g transform="matrix(1.0000 0.0000 0.0000 1.0000 0.0000 0.0000)">
</g>
<g transform="matrix(0.0625 0.0000 0.0000 0.0625 0.0000 0.0000)">
<path d="M 7319.0000,5234.0000 L 7143.0000,5175.0000 L 7319.0000,5116.0000 L 7319.0000,5234.0000 Z" stroke-width="1px" stroke="#000000"  fill="#000000" />
</g>
<g transform="matrix(1.0000 0.0000 0.0000 1.0000 0.0000 0.0000)">
</g>
<g transform="matrix(1.0000 0.0000 0.0000 1.0000 477.1517 285.6826)">
<text font-family="Times New Roman" fill="#000000" style ="white-space:pre;" font-weight="400" text-anchor="start" x="0.0000" y="0.0000" font-size="13.0000" ><![CDATA[2]]></text>
</g>
<g transform="matrix(1.0000 0.0000 0.0000 1.0000 483.8186 285.6826)">
<text font-family="Times New Roman" fill="#000000" style ="white-space:pre;" font-weight="400" text-anchor="start" x="0.0000" y="0.0000" font-size="13.0000" ><![CDATA[. ]]></text>
</g>
<g transform="matrix(1.0000 0.0000 0.0000 1.0000 490.4851 285.6826)">
<text font-family="Times New Roman" fill="#000000" style ="white-space:pre;" font-weight="400" text-anchor="start" x="0.0000" y="0.0000" font-size="13.0000" ><![CDATA[Xn]]></text>
</g>
<g transform="matrix(1.0000 0.0000 0.0000 1.0000 506.7807 285.6826)">
<text font-family="Times New Roman" fill="#000000" style ="white-space:pre;" font-weight="400" text-anchor="start" x="0.0000" y="0.0000" font-size="13.0000" ><![CDATA[: ]]></text>
</g>
<g transform="matrix(1.0000 0.0000 0.0000 1.0000 513.8185 285.6826)">
<text font-family="Times New Roman" fill="#000000" style ="white-space:pre;" font-weight="400" text-anchor="start" x="0.0000" y="0.0000" font-size="13.0000" ><![CDATA[Failure Indication ]]></text>
</g>
<g transform="matrix(1.0000 0.0000 0.0000 1.0000 612.3095 285.6826)">
<text font-family="Times New Roman" fill="#000000" style ="white-space:pre;" font-weight="400" text-anchor="start" x="0.0000" y="0.0000" font-size="13.0000" ><![CDATA[(]]></text>
</g>
<g transform="matrix(1.0000 0.0000 0.0000 1.0000 616.7495 285.6826)">
<text font-family="Times New Roman" fill="#000000" style ="white-space:pre;" font-weight="400" text-anchor="start" x="0.0000" y="0.0000" font-size="13.0000" ><![CDATA[including ]]></text>
</g>
<g transform="matrix(1.0000 0.0000 0.0000 1.0000 537.8753 301.6827)">
<text font-family="Times New Roman" fill="#000000" style ="white-space:pre;" font-weight="400" text-anchor="start" x="0.0000" y="0.0000" font-size="13.0000" ><![CDATA[RLF Report]]></text>
</g>
<g transform="matrix(1.0000 0.0000 0.0000 1.0000 601.9516 301.6827)">
<text font-family="Times New Roman" fill="#000000" style ="white-space:pre;" font-weight="400" text-anchor="start" x="0.0000" y="0.0000" font-size="13.0000" ><![CDATA[)]]></text>
</g>
<g transform="matrix(0.0625 0.0000 0.0000 0.0625 0.0000 0.0000)">
<path d="M 24.0000,185.0000 L 24.0000,729.0000 L 1234.0000,729.0000 L 1234.0000,185.0000 L 24.0000,185.0000 Z" stroke-width="1px" stroke="#FFFFFF"  fill="#FFFFFF" />
</g>
<g transform="matrix(1.0000 0.0000 0.0000 1.0000 0.0000 0.0000)">
</g>
<g transform="matrix(0.0625 0.0000 0.0000 0.0625 0.0000 0.0000)">
<path d="M 628.0000,729.0000 L 609.0000,6747.0000 M 24.0000,729.0000 L 1234.0000,729.0000 L 1234.0000,185.0000 L 24.0000,185.0000 L 24.0000,729.0000 " stroke="#000000" stroke-width="16.0000"  stroke-linecap="round"  stroke-linejoin="round" fill="none" />
</g>
<g transform="matrix(1.0000 0.0000 0.0000 1.0000 0.0000 0.0000)">
</g>
<g transform="matrix(1.0000 0.0000 0.0000 1.0000 29.2498 34.6240)">
<text font-family="Calibri" fill="#000000" style ="white-space:pre;" font-weight="400" text-anchor="start" x="0.0000" y="0.0000" font-size="19.0000" ><![CDATA[UE]]></text>
</g>
<g transform="matrix(0.0625 0.0000 0.0000 0.0625 0.0000 0.0000)">
<path d="M 2763.0000,185.0000 L 2763.0000,1092.0000 L 3972.0000,1092.0000 L 3972.0000,185.0000 L 2763.0000,185.0000 Z" stroke-width="1px" stroke="#FFFFFF"  fill="#FFFFFF" />
</g>
<g transform="matrix(1.0000 0.0000 0.0000 1.0000 0.0000 0.0000)">
</g>
<g transform="matrix(0.0625 0.0000 0.0000 0.0625 0.0000 0.0000)">
<path d="M 3368.0000,1092.0000 L 3373.0000,6717.0000 M 2763.0000,1092.0000 L 3972.0000,1092.0000 L 3972.0000,185.0000 L 2763.0000,185.0000 L 2763.0000,1092.0000 " stroke="#000000" stroke-width="16.0000"  stroke-linecap="round"  stroke-linejoin="round" fill="none" />
</g>
<g transform="matrix(1.0000 0.0000 0.0000 1.0000 0.0000 0.0000)">
</g>
<g transform="matrix(1.0000 0.0000 0.0000 1.0000 187.8664 34.7626)">
<text font-family="Calibri" fill="#000000" style ="white-space:pre;" font-weight="400" text-anchor="start" x="0.0000" y="0.0000" font-size="19.0000" ><![CDATA[gNB]]></text>
</g>
<g transform="matrix(1.0000 0.0000 0.0000 1.0000 218.8559 34.7626)">
<text font-family="Calibri" fill="#000000" style ="white-space:pre;" font-weight="400" text-anchor="start" x="0.0000" y="0.0000" font-size="19.0000" ><![CDATA[1]]></text>
</g>
<g transform="matrix(1.0000 0.0000 0.0000 1.0000 228.3166 34.7626)">
<text font-family="Calibri" fill="#000000" style ="white-space:pre;" font-weight="400" text-anchor="start" x="0.0000" y="0.0000" font-size="19.0000" ><![CDATA[-]]></text>
</g>
<g transform="matrix(1.0000 0.0000 0.0000 1.0000 199.2182 57.1626)">
<text font-family="Calibri" fill="#000000" style ="white-space:pre;" font-weight="400" text-anchor="start" x="0.0000" y="0.0000" font-size="19.0000" ><![CDATA[DU]]></text>
</g>
<g transform="matrix(0.0625 0.0000 0.0000 0.0625 0.0000 0.0000)">
<path d="M 6530.0000,24.0000 L 6530.0000,932.0000 L 7739.0000,932.0000 L 7739.0000,24.0000 L 6530.0000,24.0000 Z" stroke-width="1px" stroke="#FFFFFF"  fill="#FFFFFF" />
</g>
<g transform="matrix(1.0000 0.0000 0.0000 1.0000 0.0000 0.0000)">
</g>
<g transform="matrix(0.0625 0.0000 0.0000 0.0625 0.0000 0.0000)">
<path d="M 7134.0000,932.0000 L 7122.0000,6717.0000 M 6530.0000,932.0000 L 7739.0000,932.0000 L 7739.0000,24.0000 L 6530.0000,24.0000 L 6530.0000,932.0000 " stroke="#000000" stroke-width="16.0000"  stroke-linecap="round"  stroke-linejoin="round" fill="none" />
</g>
<g transform="matrix(1.0000 0.0000 0.0000 1.0000 0.0000 0.0000)">
</g>
<g transform="matrix(1.0000 0.0000 0.0000 1.0000 423.2995 24.7469)">
<text font-family="Calibri" fill="#000000" style ="white-space:pre;" font-weight="400" text-anchor="start" x="0.0000" y="0.0000" font-size="19.0000" ><![CDATA[gNB]]></text>
</g>
<g transform="matrix(1.0000 0.0000 0.0000 1.0000 454.2890 24.7469)">
<text font-family="Calibri" fill="#000000" style ="white-space:pre;" font-weight="400" text-anchor="start" x="0.0000" y="0.0000" font-size="19.0000" ><![CDATA[1]]></text>
</g>
<g transform="matrix(1.0000 0.0000 0.0000 1.0000 463.7497 24.7469)">
<text font-family="Calibri" fill="#000000" style ="white-space:pre;" font-weight="400" text-anchor="start" x="0.0000" y="0.0000" font-size="19.0000" ><![CDATA[-]]></text>
</g>
<g transform="matrix(1.0000 0.0000 0.0000 1.0000 435.4170 47.1469)">
<text font-family="Calibri" fill="#000000" style ="white-space:pre;" font-weight="400" text-anchor="start" x="0.0000" y="0.0000" font-size="19.0000" ><![CDATA[CU]]></text>
</g>
<g transform="matrix(0.0625 0.0000 0.0000 0.0625 0.0000 0.0000)">
<path d="M 10297.0000,185.0000 L 10297.0000,729.0000 L 11506.0000,729.0000 L 11506.0000,185.0000 L 10297.0000,185.0000 Z" stroke-width="1px" stroke="#FFFFFF"  fill="#FFFFFF" />
</g>
<g transform="matrix(1.0000 0.0000 0.0000 1.0000 0.0000 0.0000)">
</g>
<g transform="matrix(0.0625 0.0000 0.0000 0.0625 0.0000 0.0000)">
<path d="M 10903.0000,729.0000 L 10932.0000,6717.0000 M 10297.0000,729.0000 L 11506.0000,729.0000 L 11506.0000,185.0000 L 10297.0000,185.0000 L 10297.0000,729.0000 " stroke="#000000" stroke-width="16.0000"  stroke-linecap="round"  stroke-linejoin="round" fill="none" />
</g>
<g transform="matrix(1.0000 0.0000 0.0000 1.0000 0.0000 0.0000)">
</g>
<g transform="matrix(1.0000 0.0000 0.0000 1.0000 661.5898 34.6240)">
<text font-family="Calibri" fill="#000000" style ="white-space:pre;" font-weight="400" text-anchor="start" x="0.0000" y="0.0000" font-size="19.0000" ><![CDATA[gNB]]></text>
</g>
<g transform="matrix(1.0000 0.0000 0.0000 1.0000 692.5793 34.6240)">
<text font-family="Calibri" fill="#000000" style ="white-space:pre;" font-weight="400" text-anchor="start" x="0.0000" y="0.0000" font-size="19.0000" ><![CDATA[2]]></text>
</g>
</g>
</svg>
