<?xml version="1.0"  encoding="UTF-8" standalone="no"?>
<svg version="1.1" xmlns="http://www.w3.org/2000/svg" xmlns:xlink="http://www.w3.org/1999/xlink" width="1270.0000" height="533.0000">
<g transform="translate(-0.0000, -0.0000)">
<g transform="matrix(0.0625 0.0000 0.0000 0.0625 0.0000 0.0000)">
<path d="M 32.0000,32.0000 L 32.0000,788.0000 L 2149.0000,788.0000 L 2149.0000,32.0000 L 32.0000,32.0000 Z" stroke-width="1px" stroke="#FFFFFF"  fill="#FFFFFF" />
</g>
<g transform="matrix(1.0000 0.0000 0.0000 1.0000 0.0000 0.0000)">
</g>
<g transform="matrix(0.0625 0.0000 0.0000 0.0625 0.0000 0.0000)">
<path d="M 32.0000,788.0000 L 2149.0000,788.0000 L 2149.0000,32.0000 L 32.0000,32.0000 L 32.0000,788.0000 Z" stroke="#000000" stroke-width="20.0000"  stroke-linecap="round"  stroke-linejoin="round" fill="none" />
</g>
<g transform="matrix(1.0000 0.0000 0.0000 1.0000 0.0000 0.0000)">
</g>
<g transform="matrix(1.0000 0.0000 0.0000 1.0000 54.7501 32.1223)">
<text font-family="Arial" fill="#000000" style ="white-space:pre;" font-weight="400" text-anchor="start" x="0.0000" y="0.0000" font-size="20.0000" ><![CDATA[UE]]></text>
</g>
<g transform="matrix(0.0625 0.0000 0.0000 0.0625 0.0000 0.0000)">
<path d="M 4568.0000,32.0000 L 4568.0000,788.0000 L 6684.0000,788.0000 L 6684.0000,32.0000 L 4568.0000,32.0000 Z" stroke-width="1px" stroke="#FFFFFF"  fill="#FFFFFF" />
</g>
<g transform="matrix(1.0000 0.0000 0.0000 1.0000 0.0000 0.0000)">
</g>
<g transform="matrix(0.0625 0.0000 0.0000 0.0625 0.0000 0.0000)">
<path d="M 4568.0000,788.0000 L 6684.0000,788.0000 L 6684.0000,32.0000 L 4568.0000,32.0000 L 4568.0000,788.0000 Z" stroke="#000000" stroke-width="20.0000"  stroke-linecap="round"  stroke-linejoin="round" fill="none" />
</g>
<g transform="matrix(1.0000 0.0000 0.0000 1.0000 0.0000 0.0000)">
</g>
<g transform="matrix(1.0000 0.0000 0.0000 1.0000 314.8797 32.1223)">
<text font-family="Arial" fill="#000000" style ="white-space:pre;" font-weight="400" text-anchor="start" x="0.0000" y="0.0000" font-size="20.0000" ><![CDATA[gNB]]></text>
</g>
<g transform="matrix(1.0000 0.0000 0.0000 1.0000 353.7864 32.1223)">
<text font-family="Arial" fill="#000000" style ="white-space:pre;" font-weight="400" text-anchor="start" x="0.0000" y="0.0000" font-size="20.0000" ><![CDATA[-]]></text>
</g>
<g transform="matrix(1.0000 0.0000 0.0000 1.0000 360.4464 32.1223)">
<text font-family="Arial" fill="#000000" style ="white-space:pre;" font-weight="400" text-anchor="start" x="0.0000" y="0.0000" font-size="20.0000" ><![CDATA[DU]]></text>
</g>
<g transform="matrix(0.0625 0.0000 0.0000 0.0625 0.0000 0.0000)">
<path d="M 9103.0000,32.0000 L 9103.0000,788.0000 L 11220.0000,788.0000 L 11220.0000,32.0000 L 9103.0000,32.0000 Z" stroke-width="1px" stroke="#FFFFFF"  fill="#FFFFFF" />
</g>
<g transform="matrix(1.0000 0.0000 0.0000 1.0000 0.0000 0.0000)">
</g>
<g transform="matrix(0.0625 0.0000 0.0000 0.0625 0.0000 0.0000)">
<path d="M 9103.0000,788.0000 L 11220.0000,788.0000 L 11220.0000,32.0000 L 9103.0000,32.0000 L 9103.0000,788.0000 Z" stroke="#000000" stroke-width="20.0000"  stroke-linecap="round"  stroke-linejoin="round" fill="none" />
</g>
<g transform="matrix(1.0000 0.0000 0.0000 1.0000 0.0000 0.0000)">
</g>
<g transform="matrix(1.0000 0.0000 0.0000 1.0000 581.1227 32.1223)">
<text font-family="Arial" fill="#000000" style ="white-space:pre;" font-weight="400" text-anchor="start" x="0.0000" y="0.0000" font-size="20.0000" ><![CDATA[gNB]]></text>
</g>
<g transform="matrix(1.0000 0.0000 0.0000 1.0000 620.0294 32.1223)">
<text font-family="Arial" fill="#000000" style ="white-space:pre;" font-weight="400" text-anchor="start" x="0.0000" y="0.0000" font-size="20.0000" ><![CDATA[-]]></text>
</g>
<g transform="matrix(1.0000 0.0000 0.0000 1.0000 626.6894 32.1223)">
<text font-family="Arial" fill="#000000" style ="white-space:pre;" font-weight="400" text-anchor="start" x="0.0000" y="0.0000" font-size="20.0000" ><![CDATA[CU]]></text>
</g>
<g transform="matrix(1.0000 0.0000 0.0000 1.0000 655.5761 32.1223)">
<text font-family="Arial" fill="#000000" style ="white-space:pre;" font-weight="400" text-anchor="start" x="0.0000" y="0.0000" font-size="20.0000" ><![CDATA[-]]></text>
</g>
<g transform="matrix(1.0000 0.0000 0.0000 1.0000 662.2361 32.1223)">
<text font-family="Arial" fill="#000000" style ="white-space:pre;" font-weight="400" text-anchor="start" x="0.0000" y="0.0000" font-size="20.0000" ><![CDATA[CP]]></text>
</g>
<g transform="matrix(0.0625 0.0000 0.0000 0.0625 0.0000 0.0000)">
<path d="M 13639.0000,32.0000 L 13639.0000,788.0000 L 15755.0000,788.0000 L 15755.0000,32.0000 L 13639.0000,32.0000 Z" stroke-width="1px" stroke="#FFFFFF"  fill="#FFFFFF" />
</g>
<g transform="matrix(1.0000 0.0000 0.0000 1.0000 0.0000 0.0000)">
</g>
<g transform="matrix(0.0625 0.0000 0.0000 0.0625 0.0000 0.0000)">
<path d="M 13639.0000,788.0000 L 15755.0000,788.0000 L 15755.0000,32.0000 L 13639.0000,32.0000 L 13639.0000,788.0000 Z" stroke="#000000" stroke-width="20.0000"  stroke-linecap="round"  stroke-linejoin="round" fill="none" />
</g>
<g transform="matrix(1.0000 0.0000 0.0000 1.0000 0.0000 0.0000)">
</g>
<g transform="matrix(1.0000 0.0000 0.0000 1.0000 864.5873 32.1223)">
<text font-family="Arial" fill="#000000" style ="white-space:pre;" font-weight="400" text-anchor="start" x="0.0000" y="0.0000" font-size="20.0000" ><![CDATA[gNB]]></text>
</g>
<g transform="matrix(1.0000 0.0000 0.0000 1.0000 903.4940 32.1223)">
<text font-family="Arial" fill="#000000" style ="white-space:pre;" font-weight="400" text-anchor="start" x="0.0000" y="0.0000" font-size="20.0000" ><![CDATA[-]]></text>
</g>
<g transform="matrix(1.0000 0.0000 0.0000 1.0000 910.1540 32.1223)">
<text font-family="Arial" fill="#000000" style ="white-space:pre;" font-weight="400" text-anchor="start" x="0.0000" y="0.0000" font-size="20.0000" ><![CDATA[CU]]></text>
</g>
<g transform="matrix(1.0000 0.0000 0.0000 1.0000 939.0407 32.1223)">
<text font-family="Arial" fill="#000000" style ="white-space:pre;" font-weight="400" text-anchor="start" x="0.0000" y="0.0000" font-size="20.0000" ><![CDATA[-]]></text>
</g>
<g transform="matrix(1.0000 0.0000 0.0000 1.0000 945.7007 32.1223)">
<text font-family="Arial" fill="#000000" style ="white-space:pre;" font-weight="400" text-anchor="start" x="0.0000" y="0.0000" font-size="20.0000" ><![CDATA[UP]]></text>
</g>
<g transform="matrix(0.0625 0.0000 0.0000 0.0625 0.0000 0.0000)">
<path d="M 18174.0000,32.0000 L 18174.0000,788.0000 L 20291.0000,788.0000 L 20291.0000,32.0000 L 18174.0000,32.0000 Z" stroke-width="1px" stroke="#FFFFFF"  fill="#FFFFFF" />
</g>
<g transform="matrix(1.0000 0.0000 0.0000 1.0000 0.0000 0.0000)">
</g>
<g transform="matrix(0.0625 0.0000 0.0000 0.0625 0.0000 0.0000)">
<path d="M 18174.0000,788.0000 L 20291.0000,788.0000 L 20291.0000,32.0000 L 18174.0000,32.0000 L 18174.0000,788.0000 Z" stroke="#000000" stroke-width="20.0000"  stroke-linecap="round"  stroke-linejoin="round" fill="none" />
</g>
<g transform="matrix(1.0000 0.0000 0.0000 1.0000 0.0000 0.0000)">
</g>
<g transform="matrix(1.0000 0.0000 0.0000 1.0000 1181.9387 32.1223)">
<text font-family="Arial" fill="#000000" style ="white-space:pre;" font-weight="400" text-anchor="start" x="0.0000" y="0.0000" font-size="20.0000" ><![CDATA[5GC]]></text>
</g>
<g transform="matrix(0.0625 0.0000 0.0000 0.0625 0.0000 0.0000)">
<path d="M 1091.0000,788.0000 L 1091.0000,8499.0000 " stroke="#000000" stroke-width="7.0000"  stroke-linecap="round"  stroke-linejoin="round" fill="none" />
</g>
<g transform="matrix(1.0000 0.0000 0.0000 1.0000 0.0000 0.0000)">
</g>
<g transform="matrix(0.0625 0.0000 0.0000 0.0625 0.0000 0.0000)">
<path d="M 5626.0000,788.0000 L 5626.0000,8499.0000 " stroke="#000000" stroke-width="7.0000"  stroke-linecap="round"  stroke-linejoin="round" fill="none" />
</g>
<g transform="matrix(1.0000 0.0000 0.0000 1.0000 0.0000 0.0000)">
</g>
<g transform="matrix(0.0625 0.0000 0.0000 0.0625 0.0000 0.0000)">
<path d="M 10162.0000,788.0000 L 10162.0000,8499.0000 " stroke="#000000" stroke-width="7.0000"  stroke-linecap="round"  stroke-linejoin="round" fill="none" />
</g>
<g transform="matrix(1.0000 0.0000 0.0000 1.0000 0.0000 0.0000)">
</g>
<g transform="matrix(0.0625 0.0000 0.0000 0.0625 0.0000 0.0000)">
<path d="M 14697.0000,788.0000 L 14697.0000,8499.0000 " stroke="#000000" stroke-width="7.0000"  stroke-linecap="round"  stroke-linejoin="round" fill="none" />
</g>
<g transform="matrix(1.0000 0.0000 0.0000 1.0000 0.0000 0.0000)">
</g>
<g transform="matrix(0.0625 0.0000 0.0000 0.0625 0.0000 0.0000)">
<path d="M 19232.0000,788.0000 L 19232.0000,8499.0000 " stroke="#000000" stroke-width="7.0000"  stroke-linecap="round"  stroke-linejoin="round" fill="none" />
</g>
<g transform="matrix(1.0000 0.0000 0.0000 1.0000 0.0000 0.0000)">
</g>
<g transform="matrix(0.0625 0.0000 0.0000 0.0625 0.0000 0.0000)">
<path d="M 19232.0000,1544.0000 L 10365.0000,1544.0000 " stroke="#000000" stroke-width="7.0000"  stroke-linecap="round"  stroke-linejoin="round" fill="none" />
</g>
<g transform="matrix(1.0000 0.0000 0.0000 1.0000 0.0000 0.0000)">
</g>
<g transform="matrix(0.0625 0.0000 0.0000 0.0625 0.0000 0.0000)">
<path d="M 10383.0000,1618.0000 L 10162.0000,1544.0000 L 10383.0000,1470.0000 L 10383.0000,1618.0000 Z" stroke-width="1px" stroke="#000000"  fill="#000000" />
</g>
<g transform="matrix(1.0000 0.0000 0.0000 1.0000 0.0000 0.0000)">
</g>
<g transform="matrix(0.0625 0.0000 0.0000 0.0625 0.0000 0.0000)">
<path d="M 10162.0000,2300.0000 L 14494.0000,2300.0000 " stroke="#000000" stroke-width="7.0000"  stroke-linecap="round"  stroke-linejoin="round" fill="none" />
</g>
<g transform="matrix(1.0000 0.0000 0.0000 1.0000 0.0000 0.0000)">
</g>
<g transform="matrix(0.0625 0.0000 0.0000 0.0625 0.0000 0.0000)">
<path d="M 14475.0000,2226.0000 L 14697.0000,2300.0000 L 14475.0000,2374.0000 L 14475.0000,2226.0000 Z" stroke-width="1px" stroke="#000000"  fill="#000000" />
</g>
<g transform="matrix(1.0000 0.0000 0.0000 1.0000 0.0000 0.0000)">
</g>
<g transform="matrix(0.0625 0.0000 0.0000 0.0625 0.0000 0.0000)">
<path d="M 14697.0000,3056.0000 L 10365.0000,3056.0000 " stroke="#000000" stroke-width="7.0000"  stroke-linecap="round"  stroke-linejoin="round" fill="none" />
</g>
<g transform="matrix(1.0000 0.0000 0.0000 1.0000 0.0000 0.0000)">
</g>
<g transform="matrix(0.0625 0.0000 0.0000 0.0625 0.0000 0.0000)">
<path d="M 10383.0000,3130.0000 L 10162.0000,3056.0000 L 10383.0000,2982.0000 L 10383.0000,3130.0000 Z" stroke-width="1px" stroke="#000000"  fill="#000000" />
</g>
<g transform="matrix(1.0000 0.0000 0.0000 1.0000 0.0000 0.0000)">
</g>
<g transform="matrix(0.0625 0.0000 0.0000 0.0625 0.0000 0.0000)">
<path d="M 10162.0000,3812.0000 L 5829.0000,3812.0000 " stroke="#000000" stroke-width="7.0000"  stroke-linecap="round"  stroke-linejoin="round" fill="none" />
</g>
<g transform="matrix(1.0000 0.0000 0.0000 1.0000 0.0000 0.0000)">
</g>
<g transform="matrix(0.0625 0.0000 0.0000 0.0625 0.0000 0.0000)">
<path d="M 5848.0000,3886.0000 L 5626.0000,3812.0000 L 5848.0000,3738.0000 L 5848.0000,3886.0000 Z" stroke-width="1px" stroke="#000000"  fill="#000000" />
</g>
<g transform="matrix(1.0000 0.0000 0.0000 1.0000 0.0000 0.0000)">
</g>
<g transform="matrix(0.0625 0.0000 0.0000 0.0625 0.0000 0.0000)">
<path d="M 5626.0000,4568.0000 L 9958.0000,4568.0000 " stroke="#000000" stroke-width="7.0000"  stroke-linecap="round"  stroke-linejoin="round" fill="none" />
</g>
<g transform="matrix(1.0000 0.0000 0.0000 1.0000 0.0000 0.0000)">
</g>
<g transform="matrix(0.0625 0.0000 0.0000 0.0625 0.0000 0.0000)">
<path d="M 9940.0000,4494.0000 L 10162.0000,4568.0000 L 9940.0000,4642.0000 L 9940.0000,4494.0000 Z" stroke-width="1px" stroke="#000000"  fill="#000000" />
</g>
<g transform="matrix(1.0000 0.0000 0.0000 1.0000 0.0000 0.0000)">
</g>
<g transform="matrix(0.0625 0.0000 0.0000 0.0625 0.0000 0.0000)">
<path d="M 10162.0000,7138.0000 L 19029.0000,7138.0000 " stroke="#000000" stroke-width="7.0000"  stroke-linecap="round"  stroke-linejoin="round" fill="none" />
</g>
<g transform="matrix(1.0000 0.0000 0.0000 1.0000 0.0000 0.0000)">
</g>
<g transform="matrix(0.0625 0.0000 0.0000 0.0625 0.0000 0.0000)">
<path d="M 19011.0000,7064.0000 L 19232.0000,7138.0000 L 19011.0000,7212.0000 L 19011.0000,7064.0000 Z" stroke-width="1px" stroke="#000000"  fill="#000000" />
</g>
<g transform="matrix(1.0000 0.0000 0.0000 1.0000 0.0000 0.0000)">
</g>
<g transform="matrix(0.0625 0.0000 0.0000 0.0625 0.0000 0.0000)">
<path d="M 335.0000,6836.0000 L 335.0000,7440.0000 L 6382.0000,7440.0000 L 6382.0000,6836.0000 L 335.0000,6836.0000 Z" stroke-width="1px" stroke="#FFFFFF"  fill="#FFFFFF" />
</g>
<g transform="matrix(1.0000 0.0000 0.0000 1.0000 0.0000 0.0000)">
</g>
<g transform="matrix(0.0625 0.0000 0.0000 0.0625 0.0000 0.0000)">
<path d="M 335.0000,7440.0000 L 6382.0000,7440.0000 L 6382.0000,6836.0000 L 335.0000,6836.0000 L 335.0000,7440.0000 Z" stroke="#000000" stroke-width="13.0000"  stroke-linecap="round"  stroke-linejoin="round" fill="none" />
</g>
<g transform="matrix(1.0000 0.0000 0.0000 1.0000 0.0000 0.0000)">
</g>
<g transform="matrix(1.0000 0.0000 0.0000 1.0000 126.0799 451.5948)">
<text font-family="Arial" fill="#000000" style ="white-space:pre;" font-weight="400" text-anchor="start" x="0.0000" y="0.0000" font-size="17.0000" ><![CDATA[9. MCCH configuration]]></text>
</g>
<g transform="matrix(0.0625 0.0000 0.0000 0.0625 0.0000 0.0000)">
<path d="M 19232.0000,8357.0000 L 19092.0000,8357.0000 C 19087.0000,8357.0000 19082.0000,8353.0000 19082.0000,8347.0000 C 19082.0000,8342.0000 19087.0000,8337.0000 19092.0000,8337.0000 L 19232.0000,8337.0000 C 19238.0000,8337.0000 19242.0000,8342.0000 19242.0000,8347.0000 C 19242.0000,8353.0000 19238.0000,8357.0000 19232.0000,8357.0000 Z M 18992.0000,8357.0000 L 18852.0000,8357.0000 C 18847.0000,8357.0000 18842.0000,8353.0000 18842.0000,8347.0000 C 18842.0000,8342.0000 18847.0000,8337.0000 18852.0000,8337.0000 L 18992.0000,8337.0000 C 18998.0000,8337.0000 19002.0000,8342.0000 19002.0000,8347.0000 C 19002.0000,8353.0000 18998.0000,8357.0000 18992.0000,8357.0000 Z M 18752.0000,8357.0000 L 18612.0000,8357.0000 C 18607.0000,8357.0000 18602.0000,8353.0000 18602.0000,8347.0000 C 18602.0000,8342.0000 18607.0000,8337.0000 18612.0000,8337.0000 L 18752.0000,8337.0000 C 18758.0000,8337.0000 18762.0000,8342.0000 18762.0000,8347.0000 C 18762.0000,8353.0000 18758.0000,8357.0000 18752.0000,8357.0000 Z M 18512.0000,8357.0000 L 18372.0000,8357.0000 C 18367.0000,8357.0000 18362.0000,8353.0000 18362.0000,8347.0000 C 18362.0000,8342.0000 18367.0000,8337.0000 18372.0000,8337.0000 L 18512.0000,8337.0000 C 18518.0000,8337.0000 18522.0000,8342.0000 18522.0000,8347.0000 C 18522.0000,8353.0000 18518.0000,8357.0000 18512.0000,8357.0000 Z M 18272.0000,8357.0000 L 18132.0000,8357.0000 C 18127.0000,8357.0000 18122.0000,8353.0000 18122.0000,8347.0000 C 18122.0000,8342.0000 18127.0000,8337.0000 18132.0000,8337.0000 L 18272.0000,8337.0000 C 18278.0000,8337.0000 18282.0000,8342.0000 18282.0000,8347.0000 C 18282.0000,8353.0000 18278.0000,8357.0000 18272.0000,8357.0000 Z M 18032.0000,8357.0000 L 17892.0000,8357.0000 C 17887.0000,8357.0000 17882.0000,8353.0000 17882.0000,8347.0000 C 17882.0000,8342.0000 17887.0000,8337.0000 17892.0000,8337.0000 L 18032.0000,8337.0000 C 18038.0000,8337.0000 18042.0000,8342.0000 18042.0000,8347.0000 C 18042.0000,8353.0000 18038.0000,8357.0000 18032.0000,8357.0000 Z M 17792.0000,8357.0000 L 17652.0000,8357.0000 C 17647.0000,8357.0000 17642.0000,8353.0000 17642.0000,8347.0000 C 17642.0000,8342.0000 17647.0000,8337.0000 17652.0000,8337.0000 L 17792.0000,8337.0000 C 17798.0000,8337.0000 17802.0000,8342.0000 17802.0000,8347.0000 C 17802.0000,8353.0000 17798.0000,8357.0000 17792.0000,8357.0000 Z M 17552.0000,8357.0000 L 17412.0000,8357.0000 C 17407.0000,8357.0000 17402.0000,8353.0000 17402.0000,8347.0000 C 17402.0000,8342.0000 17407.0000,8337.0000 17412.0000,8337.0000 L 17552.0000,8337.0000 C 17558.0000,8337.0000 17562.0000,8342.0000 17562.0000,8347.0000 C 17562.0000,8353.0000 17558.0000,8357.0000 17552.0000,8357.0000 Z M 17312.0000,8357.0000 L 17172.0000,8357.0000 C 17167.0000,8357.0000 17162.0000,8353.0000 17162.0000,8347.0000 C 17162.0000,8342.0000 17167.0000,8337.0000 17172.0000,8337.0000 L 17312.0000,8337.0000 C 17318.0000,8337.0000 17322.0000,8342.0000 17322.0000,8347.0000 C 17322.0000,8353.0000 17318.0000,8357.0000 17312.0000,8357.0000 Z M 17072.0000,8357.0000 L 16932.0000,8357.0000 C 16927.0000,8357.0000 16922.0000,8353.0000 16922.0000,8347.0000 C 16922.0000,8342.0000 16927.0000,8337.0000 16932.0000,8337.0000 L 17072.0000,8337.0000 C 17078.0000,8337.0000 17082.0000,8342.0000 17082.0000,8347.0000 C 17082.0000,8353.0000 17078.0000,8357.0000 17072.0000,8357.0000 Z M 16832.0000,8357.0000 L 16692.0000,8357.0000 C 16687.0000,8357.0000 16682.0000,8353.0000 16682.0000,8347.0000 C 16682.0000,8342.0000 16687.0000,8337.0000 16692.0000,8337.0000 L 16832.0000,8337.0000 C 16838.0000,8337.0000 16842.0000,8342.0000 16842.0000,8347.0000 C 16842.0000,8353.0000 16838.0000,8357.0000 16832.0000,8357.0000 Z M 16592.0000,8357.0000 L 16452.0000,8357.0000 C 16447.0000,8357.0000 16442.0000,8353.0000 16442.0000,8347.0000 C 16442.0000,8342.0000 16447.0000,8337.0000 16452.0000,8337.0000 L 16592.0000,8337.0000 C 16598.0000,8337.0000 16602.0000,8342.0000 16602.0000,8347.0000 C 16602.0000,8353.0000 16598.0000,8357.0000 16592.0000,8357.0000 Z M 16352.0000,8357.0000 L 16212.0000,8357.0000 C 16207.0000,8357.0000 16202.0000,8353.0000 16202.0000,8347.0000 C 16202.0000,8342.0000 16207.0000,8337.0000 16212.0000,8337.0000 L 16352.0000,8337.0000 C 16358.0000,8337.0000 16362.0000,8342.0000 16362.0000,8347.0000 C 16362.0000,8353.0000 16358.0000,8357.0000 16352.0000,8357.0000 Z M 16112.0000,8357.0000 L 15972.0000,8357.0000 C 15967.0000,8357.0000 15962.0000,8353.0000 15962.0000,8347.0000 C 15962.0000,8342.0000 15967.0000,8337.0000 15972.0000,8337.0000 L 16112.0000,8337.0000 C 16118.0000,8337.0000 16122.0000,8342.0000 16122.0000,8347.0000 C 16122.0000,8353.0000 16118.0000,8357.0000 16112.0000,8357.0000 Z M 15872.0000,8357.0000 L 15732.0000,8357.0000 C 15727.0000,8357.0000 15722.0000,8353.0000 15722.0000,8347.0000 C 15722.0000,8342.0000 15727.0000,8337.0000 15732.0000,8337.0000 L 15872.0000,8337.0000 C 15878.0000,8337.0000 15882.0000,8342.0000 15882.0000,8347.0000 C 15882.0000,8353.0000 15878.0000,8357.0000 15872.0000,8357.0000 Z M 15632.0000,8357.0000 L 15492.0000,8357.0000 C 15487.0000,8357.0000 15482.0000,8353.0000 15482.0000,8347.0000 C 15482.0000,8342.0000 15487.0000,8337.0000 15492.0000,8337.0000 L 15632.0000,8337.0000 C 15638.0000,8337.0000 15642.0000,8342.0000 15642.0000,8347.0000 C 15642.0000,8353.0000 15638.0000,8357.0000 15632.0000,8357.0000 Z M 15392.0000,8357.0000 L 15252.0000,8357.0000 C 15247.0000,8357.0000 15242.0000,8353.0000 15242.0000,8347.0000 C 15242.0000,8342.0000 15247.0000,8337.0000 15252.0000,8337.0000 L 15392.0000,8337.0000 C 15398.0000,8337.0000 15402.0000,8342.0000 15402.0000,8347.0000 C 15402.0000,8353.0000 15398.0000,8357.0000 15392.0000,8357.0000 Z M 15152.0000,8357.0000 L 15012.0000,8357.0000 C 15007.0000,8357.0000 15002.0000,8353.0000 15002.0000,8347.0000 C 15002.0000,8342.0000 15007.0000,8337.0000 15012.0000,8337.0000 L 15152.0000,8337.0000 C 15158.0000,8337.0000 15162.0000,8342.0000 15162.0000,8347.0000 C 15162.0000,8353.0000 15158.0000,8357.0000 15152.0000,8357.0000 Z "  fill="#00B050" stroke="#00B050" stroke-width="1.0000"  stroke-linecap="butt"  stroke-linejoin="round" />
</g>
<g transform="matrix(1.0000 0.0000 0.0000 1.0000 0.0000 0.0000)">
</g>
<g transform="matrix(0.0625 0.0000 0.0000 0.0625 0.0000 0.0000)">
<path d="M 14959.0000,8435.0000 L 14697.0000,8347.0000 L 14959.0000,8260.0000 L 14959.0000,8435.0000 Z" stroke-width="1px" stroke="#00B050"  fill="#00B050" />
</g>
<g transform="matrix(1.0000 0.0000 0.0000 1.0000 0.0000 0.0000)">
</g>
<g transform="matrix(0.0625 0.0000 0.0000 0.0625 0.0000 0.0000)">
<path d="M 14697.0000,8357.0000 L 14557.0000,8357.0000 C 14552.0000,8357.0000 14547.0000,8353.0000 14547.0000,8347.0000 C 14547.0000,8342.0000 14552.0000,8337.0000 14557.0000,8337.0000 L 14697.0000,8337.0000 C 14703.0000,8337.0000 14707.0000,8342.0000 14707.0000,8347.0000 C 14707.0000,8353.0000 14703.0000,8357.0000 14697.0000,8357.0000 Z M 14457.0000,8357.0000 L 14317.0000,8357.0000 C 14312.0000,8357.0000 14307.0000,8353.0000 14307.0000,8347.0000 C 14307.0000,8342.0000 14312.0000,8337.0000 14317.0000,8337.0000 L 14457.0000,8337.0000 C 14463.0000,8337.0000 14467.0000,8342.0000 14467.0000,8347.0000 C 14467.0000,8353.0000 14463.0000,8357.0000 14457.0000,8357.0000 Z M 14217.0000,8357.0000 L 14077.0000,8357.0000 C 14072.0000,8357.0000 14067.0000,8353.0000 14067.0000,8347.0000 C 14067.0000,8342.0000 14072.0000,8337.0000 14077.0000,8337.0000 L 14217.0000,8337.0000 C 14223.0000,8337.0000 14227.0000,8342.0000 14227.0000,8347.0000 C 14227.0000,8353.0000 14223.0000,8357.0000 14217.0000,8357.0000 Z M 13977.0000,8357.0000 L 13837.0000,8357.0000 C 13832.0000,8357.0000 13827.0000,8353.0000 13827.0000,8347.0000 C 13827.0000,8342.0000 13832.0000,8337.0000 13837.0000,8337.0000 L 13977.0000,8337.0000 C 13983.0000,8337.0000 13987.0000,8342.0000 13987.0000,8347.0000 C 13987.0000,8353.0000 13983.0000,8357.0000 13977.0000,8357.0000 Z M 13737.0000,8357.0000 L 13597.0000,8357.0000 C 13592.0000,8357.0000 13587.0000,8353.0000 13587.0000,8347.0000 C 13587.0000,8342.0000 13592.0000,8337.0000 13597.0000,8337.0000 L 13737.0000,8337.0000 C 13743.0000,8337.0000 13747.0000,8342.0000 13747.0000,8347.0000 C 13747.0000,8353.0000 13743.0000,8357.0000 13737.0000,8357.0000 Z M 13497.0000,8357.0000 L 13357.0000,8357.0000 C 13352.0000,8357.0000 13347.0000,8353.0000 13347.0000,8347.0000 C 13347.0000,8342.0000 13352.0000,8337.0000 13357.0000,8337.0000 L 13497.0000,8337.0000 C 13503.0000,8337.0000 13507.0000,8342.0000 13507.0000,8347.0000 C 13507.0000,8353.0000 13503.0000,8357.0000 13497.0000,8357.0000 Z M 13257.0000,8357.0000 L 13117.0000,8357.0000 C 13112.0000,8357.0000 13107.0000,8353.0000 13107.0000,8347.0000 C 13107.0000,8342.0000 13112.0000,8337.0000 13117.0000,8337.0000 L 13257.0000,8337.0000 C 13263.0000,8337.0000 13267.0000,8342.0000 13267.0000,8347.0000 C 13267.0000,8353.0000 13263.0000,8357.0000 13257.0000,8357.0000 Z M 13017.0000,8357.0000 L 12877.0000,8357.0000 C 12872.0000,8357.0000 12867.0000,8353.0000 12867.0000,8347.0000 C 12867.0000,8342.0000 12872.0000,8337.0000 12877.0000,8337.0000 L 13017.0000,8337.0000 C 13023.0000,8337.0000 13027.0000,8342.0000 13027.0000,8347.0000 C 13027.0000,8353.0000 13023.0000,8357.0000 13017.0000,8357.0000 Z M 12777.0000,8357.0000 L 12637.0000,8357.0000 C 12632.0000,8357.0000 12627.0000,8353.0000 12627.0000,8347.0000 C 12627.0000,8342.0000 12632.0000,8337.0000 12637.0000,8337.0000 L 12777.0000,8337.0000 C 12783.0000,8337.0000 12787.0000,8342.0000 12787.0000,8347.0000 C 12787.0000,8353.0000 12783.0000,8357.0000 12777.0000,8357.0000 Z M 12537.0000,8357.0000 L 12397.0000,8357.0000 C 12392.0000,8357.0000 12387.0000,8353.0000 12387.0000,8347.0000 C 12387.0000,8342.0000 12392.0000,8337.0000 12397.0000,8337.0000 L 12537.0000,8337.0000 C 12543.0000,8337.0000 12547.0000,8342.0000 12547.0000,8347.0000 C 12547.0000,8353.0000 12543.0000,8357.0000 12537.0000,8357.0000 Z M 12297.0000,8357.0000 L 12157.0000,8357.0000 C 12152.0000,8357.0000 12147.0000,8353.0000 12147.0000,8347.0000 C 12147.0000,8342.0000 12152.0000,8337.0000 12157.0000,8337.0000 L 12297.0000,8337.0000 C 12303.0000,8337.0000 12307.0000,8342.0000 12307.0000,8347.0000 C 12307.0000,8353.0000 12303.0000,8357.0000 12297.0000,8357.0000 Z M 12057.0000,8357.0000 L 11917.0000,8357.0000 C 11912.0000,8357.0000 11907.0000,8353.0000 11907.0000,8347.0000 C 11907.0000,8342.0000 11912.0000,8337.0000 11917.0000,8337.0000 L 12057.0000,8337.0000 C 12063.0000,8337.0000 12067.0000,8342.0000 12067.0000,8347.0000 C 12067.0000,8353.0000 12063.0000,8357.0000 12057.0000,8357.0000 Z M 11817.0000,8357.0000 L 11677.0000,8357.0000 C 11672.0000,8357.0000 11667.0000,8353.0000 11667.0000,8347.0000 C 11667.0000,8342.0000 11672.0000,8337.0000 11677.0000,8337.0000 L 11817.0000,8337.0000 C 11823.0000,8337.0000 11827.0000,8342.0000 11827.0000,8347.0000 C 11827.0000,8353.0000 11823.0000,8357.0000 11817.0000,8357.0000 Z M 11577.0000,8357.0000 L 11437.0000,8357.0000 C 11432.0000,8357.0000 11427.0000,8353.0000 11427.0000,8347.0000 C 11427.0000,8342.0000 11432.0000,8337.0000 11437.0000,8337.0000 L 11577.0000,8337.0000 C 11583.0000,8337.0000 11587.0000,8342.0000 11587.0000,8347.0000 C 11587.0000,8353.0000 11583.0000,8357.0000 11577.0000,8357.0000 Z M 11337.0000,8357.0000 L 11197.0000,8357.0000 C 11192.0000,8357.0000 11187.0000,8353.0000 11187.0000,8347.0000 C 11187.0000,8342.0000 11192.0000,8337.0000 11197.0000,8337.0000 L 11337.0000,8337.0000 C 11343.0000,8337.0000 11347.0000,8342.0000 11347.0000,8347.0000 C 11347.0000,8353.0000 11343.0000,8357.0000 11337.0000,8357.0000 Z M 11097.0000,8357.0000 L 10957.0000,8357.0000 C 10952.0000,8357.0000 10947.0000,8353.0000 10947.0000,8347.0000 C 10947.0000,8342.0000 10952.0000,8337.0000 10957.0000,8337.0000 L 11097.0000,8337.0000 C 11103.0000,8337.0000 11107.0000,8342.0000 11107.0000,8347.0000 C 11107.0000,8353.0000 11103.0000,8357.0000 11097.0000,8357.0000 Z M 10857.0000,8357.0000 L 10717.0000,8357.0000 C 10712.0000,8357.0000 10707.0000,8353.0000 10707.0000,8347.0000 C 10707.0000,8342.0000 10712.0000,8337.0000 10717.0000,8337.0000 L 10857.0000,8337.0000 C 10863.0000,8337.0000 10867.0000,8342.0000 10867.0000,8347.0000 C 10867.0000,8353.0000 10863.0000,8357.0000 10857.0000,8357.0000 Z M 10617.0000,8357.0000 L 10477.0000,8357.0000 C 10472.0000,8357.0000 10467.0000,8353.0000 10467.0000,8347.0000 C 10467.0000,8342.0000 10472.0000,8337.0000 10477.0000,8337.0000 L 10617.0000,8337.0000 C 10623.0000,8337.0000 10627.0000,8342.0000 10627.0000,8347.0000 C 10627.0000,8353.0000 10623.0000,8357.0000 10617.0000,8357.0000 Z M 10377.0000,8357.0000 L 10237.0000,8357.0000 C 10232.0000,8357.0000 10227.0000,8353.0000 10227.0000,8347.0000 C 10227.0000,8342.0000 10232.0000,8337.0000 10237.0000,8337.0000 L 10377.0000,8337.0000 C 10383.0000,8337.0000 10387.0000,8342.0000 10387.0000,8347.0000 C 10387.0000,8353.0000 10383.0000,8357.0000 10377.0000,8357.0000 Z M 10137.0000,8357.0000 L 9997.0000,8357.0000 C 9992.0000,8357.0000 9987.0000,8353.0000 9987.0000,8347.0000 C 9987.0000,8342.0000 9992.0000,8337.0000 9997.0000,8337.0000 L 10137.0000,8337.0000 C 10143.0000,8337.0000 10147.0000,8342.0000 10147.0000,8347.0000 C 10147.0000,8353.0000 10143.0000,8357.0000 10137.0000,8357.0000 Z M 9897.0000,8357.0000 L 9757.0000,8357.0000 C 9752.0000,8357.0000 9747.0000,8353.0000 9747.0000,8347.0000 C 9747.0000,8342.0000 9752.0000,8337.0000 9757.0000,8337.0000 L 9897.0000,8337.0000 C 9903.0000,8337.0000 9907.0000,8342.0000 9907.0000,8347.0000 C 9907.0000,8353.0000 9903.0000,8357.0000 9897.0000,8357.0000 Z M 9657.0000,8357.0000 L 9517.0000,8357.0000 C 9512.0000,8357.0000 9507.0000,8353.0000 9507.0000,8347.0000 C 9507.0000,8342.0000 9512.0000,8337.0000 9517.0000,8337.0000 L 9657.0000,8337.0000 C 9663.0000,8337.0000 9667.0000,8342.0000 9667.0000,8347.0000 C 9667.0000,8353.0000 9663.0000,8357.0000 9657.0000,8357.0000 Z M 9417.0000,8357.0000 L 9277.0000,8357.0000 C 9272.0000,8357.0000 9267.0000,8353.0000 9267.0000,8347.0000 C 9267.0000,8342.0000 9272.0000,8337.0000 9277.0000,8337.0000 L 9417.0000,8337.0000 C 9423.0000,8337.0000 9427.0000,8342.0000 9427.0000,8347.0000 C 9427.0000,8353.0000 9423.0000,8357.0000 9417.0000,8357.0000 Z M 9177.0000,8357.0000 L 9037.0000,8357.0000 C 9032.0000,8357.0000 9027.0000,8353.0000 9027.0000,8347.0000 C 9027.0000,8342.0000 9032.0000,8337.0000 9037.0000,8337.0000 L 9177.0000,8337.0000 C 9183.0000,8337.0000 9187.0000,8342.0000 9187.0000,8347.0000 C 9187.0000,8353.0000 9183.0000,8357.0000 9177.0000,8357.0000 Z M 8937.0000,8357.0000 L 8797.0000,8357.0000 C 8792.0000,8357.0000 8787.0000,8353.0000 8787.0000,8347.0000 C 8787.0000,8342.0000 8792.0000,8337.0000 8797.0000,8337.0000 L 8937.0000,8337.0000 C 8943.0000,8337.0000 8947.0000,8342.0000 8947.0000,8347.0000 C 8947.0000,8353.0000 8943.0000,8357.0000 8937.0000,8357.0000 Z M 8697.0000,8357.0000 L 8557.0000,8357.0000 C 8552.0000,8357.0000 8547.0000,8353.0000 8547.0000,8347.0000 C 8547.0000,8342.0000 8552.0000,8337.0000 8557.0000,8337.0000 L 8697.0000,8337.0000 C 8703.0000,8337.0000 8707.0000,8342.0000 8707.0000,8347.0000 C 8707.0000,8353.0000 8703.0000,8357.0000 8697.0000,8357.0000 Z M 8457.0000,8357.0000 L 8317.0000,8357.0000 C 8312.0000,8357.0000 8307.0000,8353.0000 8307.0000,8347.0000 C 8307.0000,8342.0000 8312.0000,8337.0000 8317.0000,8337.0000 L 8457.0000,8337.0000 C 8463.0000,8337.0000 8467.0000,8342.0000 8467.0000,8347.0000 C 8467.0000,8353.0000 8463.0000,8357.0000 8457.0000,8357.0000 Z M 8217.0000,8357.0000 L 8077.0000,8357.0000 C 8072.0000,8357.0000 8067.0000,8353.0000 8067.0000,8347.0000 C 8067.0000,8342.0000 8072.0000,8337.0000 8077.0000,8337.0000 L 8217.0000,8337.0000 C 8223.0000,8337.0000 8227.0000,8342.0000 8227.0000,8347.0000 C 8227.0000,8353.0000 8223.0000,8357.0000 8217.0000,8357.0000 Z M 7977.0000,8357.0000 L 7837.0000,8357.0000 C 7832.0000,8357.0000 7827.0000,8353.0000 7827.0000,8347.0000 C 7827.0000,8342.0000 7832.0000,8337.0000 7837.0000,8337.0000 L 7977.0000,8337.0000 C 7983.0000,8337.0000 7987.0000,8342.0000 7987.0000,8347.0000 C 7987.0000,8353.0000 7983.0000,8357.0000 7977.0000,8357.0000 Z M 7737.0000,8357.0000 L 7597.0000,8357.0000 C 7592.0000,8357.0000 7587.0000,8353.0000 7587.0000,8347.0000 C 7587.0000,8342.0000 7592.0000,8337.0000 7597.0000,8337.0000 L 7737.0000,8337.0000 C 7743.0000,8337.0000 7747.0000,8342.0000 7747.0000,8347.0000 C 7747.0000,8353.0000 7743.0000,8357.0000 7737.0000,8357.0000 Z M 7497.0000,8357.0000 L 7357.0000,8357.0000 C 7352.0000,8357.0000 7347.0000,8353.0000 7347.0000,8347.0000 C 7347.0000,8342.0000 7352.0000,8337.0000 7357.0000,8337.0000 L 7497.0000,8337.0000 C 7503.0000,8337.0000 7507.0000,8342.0000 7507.0000,8347.0000 C 7507.0000,8353.0000 7503.0000,8357.0000 7497.0000,8357.0000 Z M 7257.0000,8357.0000 L 7117.0000,8357.0000 C 7112.0000,8357.0000 7107.0000,8353.0000 7107.0000,8347.0000 C 7107.0000,8342.0000 7112.0000,8337.0000 7117.0000,8337.0000 L 7257.0000,8337.0000 C 7263.0000,8337.0000 7267.0000,8342.0000 7267.0000,8347.0000 C 7267.0000,8353.0000 7263.0000,8357.0000 7257.0000,8357.0000 Z M 7017.0000,8357.0000 L 6877.0000,8357.0000 C 6872.0000,8357.0000 6867.0000,8353.0000 6867.0000,8347.0000 C 6867.0000,8342.0000 6872.0000,8337.0000 6877.0000,8337.0000 L 7017.0000,8337.0000 C 7023.0000,8337.0000 7027.0000,8342.0000 7027.0000,8347.0000 C 7027.0000,8353.0000 7023.0000,8357.0000 7017.0000,8357.0000 Z M 6777.0000,8357.0000 L 6637.0000,8357.0000 C 6632.0000,8357.0000 6627.0000,8353.0000 6627.0000,8347.0000 C 6627.0000,8342.0000 6632.0000,8337.0000 6637.0000,8337.0000 L 6777.0000,8337.0000 C 6783.0000,8337.0000 6787.0000,8342.0000 6787.0000,8347.0000 C 6787.0000,8353.0000 6783.0000,8357.0000 6777.0000,8357.0000 Z M 6537.0000,8357.0000 L 6397.0000,8357.0000 C 6392.0000,8357.0000 6387.0000,8353.0000 6387.0000,8347.0000 C 6387.0000,8342.0000 6392.0000,8337.0000 6397.0000,8337.0000 L 6537.0000,8337.0000 C 6543.0000,8337.0000 6547.0000,8342.0000 6547.0000,8347.0000 C 6547.0000,8353.0000 6543.0000,8357.0000 6537.0000,8357.0000 Z M 6297.0000,8357.0000 L 6157.0000,8357.0000 C 6152.0000,8357.0000 6147.0000,8353.0000 6147.0000,8347.0000 C 6147.0000,8342.0000 6152.0000,8337.0000 6157.0000,8337.0000 L 6297.0000,8337.0000 C 6303.0000,8337.0000 6307.0000,8342.0000 6307.0000,8347.0000 C 6307.0000,8353.0000 6303.0000,8357.0000 6297.0000,8357.0000 Z M 6057.0000,8357.0000 L 5917.0000,8357.0000 C 5912.0000,8357.0000 5907.0000,8353.0000 5907.0000,8347.0000 C 5907.0000,8342.0000 5912.0000,8337.0000 5917.0000,8337.0000 L 6057.0000,8337.0000 C 6063.0000,8337.0000 6067.0000,8342.0000 6067.0000,8347.0000 C 6067.0000,8353.0000 6063.0000,8357.0000 6057.0000,8357.0000 Z "  fill="#00B050" stroke="#00B050" stroke-width="1.0000"  stroke-linecap="butt"  stroke-linejoin="round" />
</g>
<g transform="matrix(1.0000 0.0000 0.0000 1.0000 0.0000 0.0000)">
</g>
<g transform="matrix(0.0625 0.0000 0.0000 0.0625 0.0000 0.0000)">
<path d="M 5888.0000,8435.0000 L 5626.0000,8347.0000 L 5888.0000,8260.0000 L 5888.0000,8435.0000 Z" stroke-width="1px" stroke="#00B050"  fill="#00B050" />
</g>
<g transform="matrix(1.0000 0.0000 0.0000 1.0000 0.0000 0.0000)">
</g>
<g transform="matrix(0.0625 0.0000 0.0000 0.0625 0.0000 0.0000)">
<path d="M 5626.0000,8357.0000 L 5486.0000,8357.0000 C 5481.0000,8357.0000 5476.0000,8353.0000 5476.0000,8347.0000 C 5476.0000,8342.0000 5481.0000,8337.0000 5486.0000,8337.0000 L 5626.0000,8337.0000 C 5632.0000,8337.0000 5636.0000,8342.0000 5636.0000,8347.0000 C 5636.0000,8353.0000 5632.0000,8357.0000 5626.0000,8357.0000 Z M 5386.0000,8357.0000 L 5246.0000,8357.0000 C 5241.0000,8357.0000 5236.0000,8353.0000 5236.0000,8347.0000 C 5236.0000,8342.0000 5241.0000,8337.0000 5246.0000,8337.0000 L 5386.0000,8337.0000 C 5392.0000,8337.0000 5396.0000,8342.0000 5396.0000,8347.0000 C 5396.0000,8353.0000 5392.0000,8357.0000 5386.0000,8357.0000 Z M 5146.0000,8357.0000 L 5006.0000,8357.0000 C 5001.0000,8357.0000 4996.0000,8353.0000 4996.0000,8347.0000 C 4996.0000,8342.0000 5001.0000,8337.0000 5006.0000,8337.0000 L 5146.0000,8337.0000 C 5152.0000,8337.0000 5156.0000,8342.0000 5156.0000,8347.0000 C 5156.0000,8353.0000 5152.0000,8357.0000 5146.0000,8357.0000 Z M 4906.0000,8357.0000 L 4766.0000,8357.0000 C 4761.0000,8357.0000 4756.0000,8353.0000 4756.0000,8347.0000 C 4756.0000,8342.0000 4761.0000,8337.0000 4766.0000,8337.0000 L 4906.0000,8337.0000 C 4912.0000,8337.0000 4916.0000,8342.0000 4916.0000,8347.0000 C 4916.0000,8353.0000 4912.0000,8357.0000 4906.0000,8357.0000 Z M 4666.0000,8357.0000 L 4526.0000,8357.0000 C 4521.0000,8357.0000 4516.0000,8353.0000 4516.0000,8347.0000 C 4516.0000,8342.0000 4521.0000,8337.0000 4526.0000,8337.0000 L 4666.0000,8337.0000 C 4672.0000,8337.0000 4676.0000,8342.0000 4676.0000,8347.0000 C 4676.0000,8353.0000 4672.0000,8357.0000 4666.0000,8357.0000 Z M 4426.0000,8357.0000 L 4286.0000,8357.0000 C 4281.0000,8357.0000 4276.0000,8353.0000 4276.0000,8347.0000 C 4276.0000,8342.0000 4281.0000,8337.0000 4286.0000,8337.0000 L 4426.0000,8337.0000 C 4432.0000,8337.0000 4436.0000,8342.0000 4436.0000,8347.0000 C 4436.0000,8353.0000 4432.0000,8357.0000 4426.0000,8357.0000 Z M 4186.0000,8357.0000 L 4046.0000,8357.0000 C 4041.0000,8357.0000 4036.0000,8353.0000 4036.0000,8347.0000 C 4036.0000,8342.0000 4041.0000,8337.0000 4046.0000,8337.0000 L 4186.0000,8337.0000 C 4192.0000,8337.0000 4196.0000,8342.0000 4196.0000,8347.0000 C 4196.0000,8353.0000 4192.0000,8357.0000 4186.0000,8357.0000 Z M 3946.0000,8357.0000 L 3806.0000,8357.0000 C 3801.0000,8357.0000 3796.0000,8353.0000 3796.0000,8347.0000 C 3796.0000,8342.0000 3801.0000,8337.0000 3806.0000,8337.0000 L 3946.0000,8337.0000 C 3952.0000,8337.0000 3956.0000,8342.0000 3956.0000,8347.0000 C 3956.0000,8353.0000 3952.0000,8357.0000 3946.0000,8357.0000 Z M 3706.0000,8357.0000 L 3566.0000,8357.0000 C 3561.0000,8357.0000 3556.0000,8353.0000 3556.0000,8347.0000 C 3556.0000,8342.0000 3561.0000,8337.0000 3566.0000,8337.0000 L 3706.0000,8337.0000 C 3712.0000,8337.0000 3716.0000,8342.0000 3716.0000,8347.0000 C 3716.0000,8353.0000 3712.0000,8357.0000 3706.0000,8357.0000 Z M 3466.0000,8357.0000 L 3326.0000,8357.0000 C 3321.0000,8357.0000 3316.0000,8353.0000 3316.0000,8347.0000 C 3316.0000,8342.0000 3321.0000,8337.0000 3326.0000,8337.0000 L 3466.0000,8337.0000 C 3472.0000,8337.0000 3476.0000,8342.0000 3476.0000,8347.0000 C 3476.0000,8353.0000 3472.0000,8357.0000 3466.0000,8357.0000 Z M 3226.0000,8357.0000 L 3086.0000,8357.0000 C 3081.0000,8357.0000 3076.0000,8353.0000 3076.0000,8347.0000 C 3076.0000,8342.0000 3081.0000,8337.0000 3086.0000,8337.0000 L 3226.0000,8337.0000 C 3232.0000,8337.0000 3236.0000,8342.0000 3236.0000,8347.0000 C 3236.0000,8353.0000 3232.0000,8357.0000 3226.0000,8357.0000 Z M 2986.0000,8357.0000 L 2846.0000,8357.0000 C 2841.0000,8357.0000 2836.0000,8353.0000 2836.0000,8347.0000 C 2836.0000,8342.0000 2841.0000,8337.0000 2846.0000,8337.0000 L 2986.0000,8337.0000 C 2992.0000,8337.0000 2996.0000,8342.0000 2996.0000,8347.0000 C 2996.0000,8353.0000 2992.0000,8357.0000 2986.0000,8357.0000 Z M 2746.0000,8357.0000 L 2606.0000,8357.0000 C 2601.0000,8357.0000 2596.0000,8353.0000 2596.0000,8347.0000 C 2596.0000,8342.0000 2601.0000,8337.0000 2606.0000,8337.0000 L 2746.0000,8337.0000 C 2752.0000,8337.0000 2756.0000,8342.0000 2756.0000,8347.0000 C 2756.0000,8353.0000 2752.0000,8357.0000 2746.0000,8357.0000 Z M 2506.0000,8357.0000 L 2366.0000,8357.0000 C 2361.0000,8357.0000 2356.0000,8353.0000 2356.0000,8347.0000 C 2356.0000,8342.0000 2361.0000,8337.0000 2366.0000,8337.0000 L 2506.0000,8337.0000 C 2512.0000,8337.0000 2516.0000,8342.0000 2516.0000,8347.0000 C 2516.0000,8353.0000 2512.0000,8357.0000 2506.0000,8357.0000 Z M 2266.0000,8357.0000 L 2126.0000,8357.0000 C 2121.0000,8357.0000 2116.0000,8353.0000 2116.0000,8347.0000 C 2116.0000,8342.0000 2121.0000,8337.0000 2126.0000,8337.0000 L 2266.0000,8337.0000 C 2272.0000,8337.0000 2276.0000,8342.0000 2276.0000,8347.0000 C 2276.0000,8353.0000 2272.0000,8357.0000 2266.0000,8357.0000 Z M 2026.0000,8357.0000 L 1886.0000,8357.0000 C 1881.0000,8357.0000 1876.0000,8353.0000 1876.0000,8347.0000 C 1876.0000,8342.0000 1881.0000,8337.0000 1886.0000,8337.0000 L 2026.0000,8337.0000 C 2032.0000,8337.0000 2036.0000,8342.0000 2036.0000,8347.0000 C 2036.0000,8353.0000 2032.0000,8357.0000 2026.0000,8357.0000 Z M 1786.0000,8357.0000 L 1646.0000,8357.0000 C 1641.0000,8357.0000 1636.0000,8353.0000 1636.0000,8347.0000 C 1636.0000,8342.0000 1641.0000,8337.0000 1646.0000,8337.0000 L 1786.0000,8337.0000 C 1792.0000,8337.0000 1796.0000,8342.0000 1796.0000,8347.0000 C 1796.0000,8353.0000 1792.0000,8357.0000 1786.0000,8357.0000 Z M 1546.0000,8357.0000 L 1406.0000,8357.0000 C 1401.0000,8357.0000 1396.0000,8353.0000 1396.0000,8347.0000 C 1396.0000,8342.0000 1401.0000,8337.0000 1406.0000,8337.0000 L 1546.0000,8337.0000 C 1552.0000,8337.0000 1556.0000,8342.0000 1556.0000,8347.0000 C 1556.0000,8353.0000 1552.0000,8357.0000 1546.0000,8357.0000 Z "  fill="#00B050" stroke="#00B050" stroke-width="1.0000"  stroke-linecap="butt"  stroke-linejoin="round" />
</g>
<g transform="matrix(1.0000 0.0000 0.0000 1.0000 0.0000 0.0000)">
</g>
<g transform="matrix(0.0625 0.0000 0.0000 0.0625 0.0000 0.0000)">
<path d="M 1352.0000,8435.0000 L 1091.0000,8347.0000 L 1352.0000,8260.0000 L 1352.0000,8435.0000 Z" stroke-width="1px" stroke="#00B050"  fill="#00B050" />
</g>
<g transform="matrix(1.0000 0.0000 0.0000 1.0000 0.0000 0.0000)">
</g>
<g transform="matrix(1.0000 0.0000 0.0000 1.0000 493.0534 517.7364)">
<text fill="#00B050" style ="white-space:pre;" font-weight="400" text-anchor="start" x="0.0000" y="0.0000" font-size="17.0000" ><![CDATA[11. Broadcast MBS Media Stream]]></text>
</g>
<g transform="matrix(1.0000 0.0000 0.0000 1.0000 771.0806 91.9885)">
<text fill="#000000" style ="white-space:pre;" font-weight="400" text-anchor="start" x="0.0000" y="0.0000" font-size="17.0000" ><![CDATA[1. NGAP Broadcast Session Setup Request]]></text>
</g>
<g transform="matrix(1.0000 0.0000 0.0000 1.0000 873.2086 111.9887)">
<text fill="#0070C0" style ="white-space:pre;" font-weight="400" text-anchor="start" x="0.0000" y="0.0000" font-size="15.0000" ><![CDATA[ ]]></text>
</g>
<g transform="matrix(1.0000 0.0000 0.0000 1.0000 877.3760 111.9887)">
<text fill="#0070C0" style ="white-space:pre;" font-weight="400" text-anchor="start" x="0.0000" y="0.0000" font-size="15.0000" ><![CDATA[(5GC NG]]></text>
</g>
<g transform="matrix(1.0000 0.0000 0.0000 1.0000 939.8809 111.9887)">
<text fill="#0070C0" style ="white-space:pre;" font-weight="400" text-anchor="start" x="0.0000" y="0.0000" font-size="15.0000" ><![CDATA[-]]></text>
</g>
<g transform="matrix(1.0000 0.0000 0.0000 1.0000 944.8760 111.9887)">
<text fill="#0070C0" style ="white-space:pre;" font-weight="400" text-anchor="start" x="0.0000" y="0.0000" font-size="15.0000" ><![CDATA[U TNL)]]></text>
</g>
<g transform="matrix(1.0000 0.0000 0.0000 1.0000 750.5115 441.5948)">
<text fill="#000000" style ="white-space:pre;" font-weight="400" text-anchor="start" x="0.0000" y="0.0000" font-size="17.0000" ><![CDATA[10. NGAP Broadcast Session Setup Response ]]></text>
</g>
<g transform="matrix(1.0000 0.0000 0.0000 1.0000 817.4965 461.5950)">
<text fill="#0070C0" style ="white-space:pre;" font-weight="400" text-anchor="start" x="0.0000" y="0.0000" font-size="15.0000" ><![CDATA[(NG]]></text>
</g>
<g transform="matrix(1.0000 0.0000 0.0000 1.0000 844.9916 461.5950)">
<text fill="#0070C0" style ="white-space:pre;" font-weight="400" text-anchor="start" x="0.0000" y="0.0000" font-size="15.0000" ><![CDATA[-]]></text>
</g>
<g transform="matrix(1.0000 0.0000 0.0000 1.0000 849.9868 461.5950)">
<text fill="#0070C0" style ="white-space:pre;" font-weight="400" text-anchor="start" x="0.0000" y="0.0000" font-size="15.0000" ><![CDATA[U unicast: gNB NG]]></text>
</g>
<g transform="matrix(1.0000 0.0000 0.0000 1.0000 976.6957 461.5950)">
<text fill="#0070C0" style ="white-space:pre;" font-weight="400" text-anchor="start" x="0.0000" y="0.0000" font-size="15.0000" ><![CDATA[-]]></text>
</g>
<g transform="matrix(1.0000 0.0000 0.0000 1.0000 981.6909 461.5950)">
<text fill="#0070C0" style ="white-space:pre;" font-weight="400" text-anchor="start" x="0.0000" y="0.0000" font-size="15.0000" ><![CDATA[U TNL)]]></text>
</g>
<g transform="matrix(1.0000 0.0000 0.0000 1.0000 664.2709 139.2327)">
<text fill="#000000" style ="white-space:pre;" font-weight="400" text-anchor="start" x="0.0000" y="0.0000" font-size="17.0000" ><![CDATA[2. E1AP BC Bearer Context Setup Request ]]></text>
</g>
<g transform="matrix(1.0000 0.0000 0.0000 1.0000 766.6310 159.2328)">
<text fill="#0070C0" style ="white-space:pre;" font-weight="400" text-anchor="start" x="0.0000" y="0.0000" font-size="15.0000" ><![CDATA[(5GC NG]]></text>
</g>
<g transform="matrix(1.0000 0.0000 0.0000 1.0000 829.1359 159.2328)">
<text fill="#0070C0" style ="white-space:pre;" font-weight="400" text-anchor="start" x="0.0000" y="0.0000" font-size="15.0000" ><![CDATA[-]]></text>
</g>
<g transform="matrix(1.0000 0.0000 0.0000 1.0000 834.1310 159.2328)">
<text fill="#0070C0" style ="white-space:pre;" font-weight="400" text-anchor="start" x="0.0000" y="0.0000" font-size="15.0000" ><![CDATA[U TNL)]]></text>
</g>
<g transform="matrix(1.0000 0.0000 0.0000 1.0000 657.7849 186.4767)">
<text fill="#000000" style ="white-space:pre;" font-weight="400" text-anchor="start" x="0.0000" y="0.0000" font-size="17.0000" ><![CDATA[3. E1AP BC Bearer Context Setup Response ]]></text>
</g>
<g transform="matrix(1.0000 0.0000 0.0000 1.0000 669.1127 206.4769)">
<text fill="#0070C0" style ="white-space:pre;" font-weight="400" text-anchor="start" x="0.0000" y="0.0000" font-size="15.0000" ><![CDATA[(NG]]></text>
</g>
<g transform="matrix(1.0000 0.0000 0.0000 1.0000 696.6078 206.4769)">
<text fill="#0070C0" style ="white-space:pre;" font-weight="400" text-anchor="start" x="0.0000" y="0.0000" font-size="15.0000" ><![CDATA[-]]></text>
</g>
<g transform="matrix(1.0000 0.0000 0.0000 1.0000 701.6029 206.4769)">
<text fill="#0070C0" style ="white-space:pre;" font-weight="400" text-anchor="start" x="0.0000" y="0.0000" font-size="15.0000" ><![CDATA[U unicast: gNb NG]]></text>
</g>
<g transform="matrix(1.0000 0.0000 0.0000 1.0000 826.6493 206.4769)">
<text fill="#0070C0" style ="white-space:pre;" font-weight="400" text-anchor="start" x="0.0000" y="0.0000" font-size="15.0000" ><![CDATA[-]]></text>
</g>
<g transform="matrix(1.0000 0.0000 0.0000 1.0000 831.6444 206.4769)">
<text fill="#0070C0" style ="white-space:pre;" font-weight="400" text-anchor="start" x="0.0000" y="0.0000" font-size="15.0000" ><![CDATA[U TNL, F1]]></text>
</g>
<g transform="matrix(1.0000 0.0000 0.0000 1.0000 900.8217 206.4769)">
<text fill="#0070C0" style ="white-space:pre;" font-weight="400" text-anchor="start" x="0.0000" y="0.0000" font-size="15.0000" ><![CDATA[-]]></text>
</g>
<g transform="matrix(1.0000 0.0000 0.0000 1.0000 905.8168 206.4769)">
<text fill="#0070C0" style ="white-space:pre;" font-weight="400" text-anchor="start" x="0.0000" y="0.0000" font-size="15.0000" ><![CDATA[U TNL CU)]]></text>
</g>
<g transform="matrix(1.0000 0.0000 0.0000 1.0000 382.6576 233.7208)">
<text fill="#000000" style ="white-space:pre;" font-weight="400" text-anchor="start" x="0.0000" y="0.0000" font-size="17.0000" ><![CDATA[5. F1AP Broadcast Context Setup Request ]]></text>
</g>
<g transform="matrix(1.0000 0.0000 0.0000 1.0000 490.2526 253.7210)">
<text fill="#0070C0" style ="white-space:pre;" font-weight="400" text-anchor="start" x="0.0000" y="0.0000" font-size="15.0000" ><![CDATA[(F1]]></text>
</g>
<g transform="matrix(1.0000 0.0000 0.0000 1.0000 512.7526 253.7210)">
<text fill="#0070C0" style ="white-space:pre;" font-weight="400" text-anchor="start" x="0.0000" y="0.0000" font-size="15.0000" ><![CDATA[-]]></text>
</g>
<g transform="matrix(1.0000 0.0000 0.0000 1.0000 517.7477 253.7210)">
<text fill="#0070C0" style ="white-space:pre;" font-weight="400" text-anchor="start" x="0.0000" y="0.0000" font-size="15.0000" ><![CDATA[U TNL CU)]]></text>
</g>
<g transform="matrix(1.0000 0.0000 0.0000 1.0000 385.6203 280.9649)">
<text fill="#000000" style ="white-space:pre;" font-weight="400" text-anchor="start" x="0.0000" y="0.0000" font-size="17.0000" ><![CDATA[6. F1AP Broadcast Context Setup Response ]]></text>
</g>
<g transform="matrix(1.0000 0.0000 0.0000 1.0000 499.7014 300.9651)">
<text fill="#0070C0" style ="white-space:pre;" font-weight="400" text-anchor="start" x="0.0000" y="0.0000" font-size="15.0000" ><![CDATA[(F1]]></text>
</g>
<g transform="matrix(1.0000 0.0000 0.0000 1.0000 522.2014 300.9651)">
<text fill="#0070C0" style ="white-space:pre;" font-weight="400" text-anchor="start" x="0.0000" y="0.0000" font-size="15.0000" ><![CDATA[-]]></text>
</g>
<g transform="matrix(1.0000 0.0000 0.0000 1.0000 527.1965 300.9651)">
<text fill="#0070C0" style ="white-space:pre;" font-weight="400" text-anchor="start" x="0.0000" y="0.0000" font-size="15.0000" ><![CDATA[U TNL DU)]]></text>
</g>
<g transform="matrix(0.0625 0.0000 0.0000 0.0625 0.0000 0.0000)">
<path d="M 14697.0000,3809.0000 L 14744.0000,3809.0000 C 14746.0000,3809.0000 14747.0000,3810.0000 14747.0000,3812.0000 C 14747.0000,3814.0000 14746.0000,3815.0000 14744.0000,3815.0000 L 14697.0000,3815.0000 C 14695.0000,3815.0000 14694.0000,3814.0000 14694.0000,3812.0000 C 14694.0000,3810.0000 14695.0000,3809.0000 14697.0000,3809.0000 Z M 14777.0000,3809.0000 L 14777.0000,3809.0000 C 14779.0000,3809.0000 14780.0000,3810.0000 14780.0000,3812.0000 C 14780.0000,3814.0000 14779.0000,3815.0000 14777.0000,3815.0000 L 14777.0000,3815.0000 C 14775.0000,3815.0000 14774.0000,3814.0000 14774.0000,3812.0000 C 14774.0000,3810.0000 14775.0000,3809.0000 14777.0000,3809.0000 Z M 14810.0000,3809.0000 L 14857.0000,3809.0000 C 14859.0000,3809.0000 14860.0000,3810.0000 14860.0000,3812.0000 C 14860.0000,3814.0000 14859.0000,3815.0000 14857.0000,3815.0000 L 14810.0000,3815.0000 C 14809.0000,3815.0000 14807.0000,3814.0000 14807.0000,3812.0000 C 14807.0000,3810.0000 14809.0000,3809.0000 14810.0000,3809.0000 Z M 14890.0000,3809.0000 L 14890.0000,3809.0000 C 14892.0000,3809.0000 14894.0000,3810.0000 14894.0000,3812.0000 C 14894.0000,3814.0000 14892.0000,3815.0000 14890.0000,3815.0000 L 14890.0000,3815.0000 C 14889.0000,3815.0000 14887.0000,3814.0000 14887.0000,3812.0000 C 14887.0000,3810.0000 14889.0000,3809.0000 14890.0000,3809.0000 Z M 14924.0000,3809.0000 L 14970.0000,3809.0000 C 14972.0000,3809.0000 14974.0000,3810.0000 14974.0000,3812.0000 C 14974.0000,3814.0000 14972.0000,3815.0000 14970.0000,3815.0000 L 14924.0000,3815.0000 C 14922.0000,3815.0000 14920.0000,3814.0000 14920.0000,3812.0000 C 14920.0000,3810.0000 14922.0000,3809.0000 14924.0000,3809.0000 Z M 15004.0000,3809.0000 L 15004.0000,3809.0000 C 15006.0000,3809.0000 15007.0000,3810.0000 15007.0000,3812.0000 C 15007.0000,3814.0000 15006.0000,3815.0000 15004.0000,3815.0000 L 15004.0000,3815.0000 C 15002.0000,3815.0000 15000.0000,3814.0000 15000.0000,3812.0000 C 15000.0000,3810.0000 15002.0000,3809.0000 15004.0000,3809.0000 Z M 15037.0000,3809.0000 L 15084.0000,3809.0000 C 15086.0000,3809.0000 15087.0000,3810.0000 15087.0000,3812.0000 C 15087.0000,3814.0000 15086.0000,3815.0000 15084.0000,3815.0000 L 15037.0000,3815.0000 C 15035.0000,3815.0000 15034.0000,3814.0000 15034.0000,3812.0000 C 15034.0000,3810.0000 15035.0000,3809.0000 15037.0000,3809.0000 Z M 15117.0000,3809.0000 L 15117.0000,3809.0000 C 15119.0000,3809.0000 15120.0000,3810.0000 15120.0000,3812.0000 C 15120.0000,3814.0000 15119.0000,3815.0000 15117.0000,3815.0000 L 15117.0000,3815.0000 C 15115.0000,3815.0000 15114.0000,3814.0000 15114.0000,3812.0000 C 15114.0000,3810.0000 15115.0000,3809.0000 15117.0000,3809.0000 Z M 15150.0000,3809.0000 L 15197.0000,3809.0000 C 15199.0000,3809.0000 15200.0000,3810.0000 15200.0000,3812.0000 C 15200.0000,3814.0000 15199.0000,3815.0000 15197.0000,3815.0000 L 15150.0000,3815.0000 C 15149.0000,3815.0000 15147.0000,3814.0000 15147.0000,3812.0000 C 15147.0000,3810.0000 15149.0000,3809.0000 15150.0000,3809.0000 Z M 15230.0000,3809.0000 L 15230.0000,3809.0000 C 15232.0000,3809.0000 15234.0000,3810.0000 15234.0000,3812.0000 C 15234.0000,3814.0000 15232.0000,3815.0000 15230.0000,3815.0000 L 15230.0000,3815.0000 C 15229.0000,3815.0000 15227.0000,3814.0000 15227.0000,3812.0000 C 15227.0000,3810.0000 15229.0000,3809.0000 15230.0000,3809.0000 Z M 15264.0000,3809.0000 L 15310.0000,3809.0000 C 15312.0000,3809.0000 15314.0000,3810.0000 15314.0000,3812.0000 C 15314.0000,3814.0000 15312.0000,3815.0000 15310.0000,3815.0000 L 15264.0000,3815.0000 C 15262.0000,3815.0000 15260.0000,3814.0000 15260.0000,3812.0000 C 15260.0000,3810.0000 15262.0000,3809.0000 15264.0000,3809.0000 Z M 15344.0000,3809.0000 L 15344.0000,3809.0000 C 15346.0000,3809.0000 15347.0000,3810.0000 15347.0000,3812.0000 C 15347.0000,3814.0000 15346.0000,3815.0000 15344.0000,3815.0000 L 15344.0000,3815.0000 C 15342.0000,3815.0000 15340.0000,3814.0000 15340.0000,3812.0000 C 15340.0000,3810.0000 15342.0000,3809.0000 15344.0000,3809.0000 Z M 15377.0000,3809.0000 L 15424.0000,3809.0000 C 15426.0000,3809.0000 15427.0000,3810.0000 15427.0000,3812.0000 C 15427.0000,3814.0000 15426.0000,3815.0000 15424.0000,3815.0000 L 15377.0000,3815.0000 C 15375.0000,3815.0000 15374.0000,3814.0000 15374.0000,3812.0000 C 15374.0000,3810.0000 15375.0000,3809.0000 15377.0000,3809.0000 Z M 15457.0000,3809.0000 L 15457.0000,3809.0000 C 15459.0000,3809.0000 15460.0000,3810.0000 15460.0000,3812.0000 C 15460.0000,3814.0000 15459.0000,3815.0000 15457.0000,3815.0000 L 15457.0000,3815.0000 C 15455.0000,3815.0000 15454.0000,3814.0000 15454.0000,3812.0000 C 15454.0000,3810.0000 15455.0000,3809.0000 15457.0000,3809.0000 Z M 15490.0000,3809.0000 L 15537.0000,3809.0000 C 15539.0000,3809.0000 15540.0000,3810.0000 15540.0000,3812.0000 C 15540.0000,3814.0000 15539.0000,3815.0000 15537.0000,3815.0000 L 15490.0000,3815.0000 C 15489.0000,3815.0000 15487.0000,3814.0000 15487.0000,3812.0000 C 15487.0000,3810.0000 15489.0000,3809.0000 15490.0000,3809.0000 Z M 15570.0000,3809.0000 L 15570.0000,3809.0000 C 15572.0000,3809.0000 15574.0000,3810.0000 15574.0000,3812.0000 C 15574.0000,3814.0000 15572.0000,3815.0000 15570.0000,3815.0000 L 15570.0000,3815.0000 C 15569.0000,3815.0000 15567.0000,3814.0000 15567.0000,3812.0000 C 15567.0000,3810.0000 15569.0000,3809.0000 15570.0000,3809.0000 Z M 15604.0000,3809.0000 L 15650.0000,3809.0000 C 15652.0000,3809.0000 15654.0000,3810.0000 15654.0000,3812.0000 C 15654.0000,3814.0000 15652.0000,3815.0000 15650.0000,3815.0000 L 15604.0000,3815.0000 C 15602.0000,3815.0000 15600.0000,3814.0000 15600.0000,3812.0000 C 15600.0000,3810.0000 15602.0000,3809.0000 15604.0000,3809.0000 Z M 15684.0000,3809.0000 L 15684.0000,3809.0000 C 15686.0000,3809.0000 15687.0000,3810.0000 15687.0000,3812.0000 C 15687.0000,3814.0000 15686.0000,3815.0000 15684.0000,3815.0000 L 15684.0000,3815.0000 C 15682.0000,3815.0000 15680.0000,3814.0000 15680.0000,3812.0000 C 15680.0000,3810.0000 15682.0000,3809.0000 15684.0000,3809.0000 Z M 15717.0000,3809.0000 L 15764.0000,3809.0000 C 15766.0000,3809.0000 15767.0000,3810.0000 15767.0000,3812.0000 C 15767.0000,3814.0000 15766.0000,3815.0000 15764.0000,3815.0000 L 15717.0000,3815.0000 C 15715.0000,3815.0000 15714.0000,3814.0000 15714.0000,3812.0000 C 15714.0000,3810.0000 15715.0000,3809.0000 15717.0000,3809.0000 Z M 15797.0000,3809.0000 L 15797.0000,3809.0000 C 15799.0000,3809.0000 15800.0000,3810.0000 15800.0000,3812.0000 C 15800.0000,3814.0000 15799.0000,3815.0000 15797.0000,3815.0000 L 15797.0000,3815.0000 C 15795.0000,3815.0000 15794.0000,3814.0000 15794.0000,3812.0000 C 15794.0000,3810.0000 15795.0000,3809.0000 15797.0000,3809.0000 Z M 15830.0000,3809.0000 L 15877.0000,3809.0000 C 15879.0000,3809.0000 15880.0000,3810.0000 15880.0000,3812.0000 C 15880.0000,3814.0000 15879.0000,3815.0000 15877.0000,3815.0000 L 15830.0000,3815.0000 C 15829.0000,3815.0000 15827.0000,3814.0000 15827.0000,3812.0000 C 15827.0000,3810.0000 15829.0000,3809.0000 15830.0000,3809.0000 Z M 15910.0000,3809.0000 L 15910.0000,3809.0000 C 15912.0000,3809.0000 15914.0000,3810.0000 15914.0000,3812.0000 C 15914.0000,3814.0000 15912.0000,3815.0000 15910.0000,3815.0000 L 15910.0000,3815.0000 C 15909.0000,3815.0000 15907.0000,3814.0000 15907.0000,3812.0000 C 15907.0000,3810.0000 15909.0000,3809.0000 15910.0000,3809.0000 Z M 15944.0000,3809.0000 L 15990.0000,3809.0000 C 15992.0000,3809.0000 15994.0000,3810.0000 15994.0000,3812.0000 C 15994.0000,3814.0000 15992.0000,3815.0000 15990.0000,3815.0000 L 15944.0000,3815.0000 C 15942.0000,3815.0000 15940.0000,3814.0000 15940.0000,3812.0000 C 15940.0000,3810.0000 15942.0000,3809.0000 15944.0000,3809.0000 Z M 16024.0000,3809.0000 L 16024.0000,3809.0000 C 16026.0000,3809.0000 16027.0000,3810.0000 16027.0000,3812.0000 C 16027.0000,3814.0000 16026.0000,3815.0000 16024.0000,3815.0000 L 16024.0000,3815.0000 C 16022.0000,3815.0000 16020.0000,3814.0000 16020.0000,3812.0000 C 16020.0000,3810.0000 16022.0000,3809.0000 16024.0000,3809.0000 Z M 16057.0000,3809.0000 L 16104.0000,3809.0000 C 16106.0000,3809.0000 16107.0000,3810.0000 16107.0000,3812.0000 C 16107.0000,3814.0000 16106.0000,3815.0000 16104.0000,3815.0000 L 16057.0000,3815.0000 C 16055.0000,3815.0000 16054.0000,3814.0000 16054.0000,3812.0000 C 16054.0000,3810.0000 16055.0000,3809.0000 16057.0000,3809.0000 Z M 16137.0000,3809.0000 L 16137.0000,3809.0000 C 16139.0000,3809.0000 16140.0000,3810.0000 16140.0000,3812.0000 C 16140.0000,3814.0000 16139.0000,3815.0000 16137.0000,3815.0000 L 16137.0000,3815.0000 C 16135.0000,3815.0000 16134.0000,3814.0000 16134.0000,3812.0000 C 16134.0000,3810.0000 16135.0000,3809.0000 16137.0000,3809.0000 Z M 16170.0000,3809.0000 L 16217.0000,3809.0000 C 16219.0000,3809.0000 16220.0000,3810.0000 16220.0000,3812.0000 C 16220.0000,3814.0000 16219.0000,3815.0000 16217.0000,3815.0000 L 16170.0000,3815.0000 C 16169.0000,3815.0000 16167.0000,3814.0000 16167.0000,3812.0000 C 16167.0000,3810.0000 16169.0000,3809.0000 16170.0000,3809.0000 Z M 16250.0000,3809.0000 L 16250.0000,3809.0000 C 16252.0000,3809.0000 16254.0000,3810.0000 16254.0000,3812.0000 C 16254.0000,3814.0000 16252.0000,3815.0000 16250.0000,3815.0000 L 16250.0000,3815.0000 C 16249.0000,3815.0000 16247.0000,3814.0000 16247.0000,3812.0000 C 16247.0000,3810.0000 16249.0000,3809.0000 16250.0000,3809.0000 Z M 16284.0000,3809.0000 L 16330.0000,3809.0000 C 16332.0000,3809.0000 16334.0000,3810.0000 16334.0000,3812.0000 C 16334.0000,3814.0000 16332.0000,3815.0000 16330.0000,3815.0000 L 16284.0000,3815.0000 C 16282.0000,3815.0000 16280.0000,3814.0000 16280.0000,3812.0000 C 16280.0000,3810.0000 16282.0000,3809.0000 16284.0000,3809.0000 Z M 16364.0000,3809.0000 L 16364.0000,3809.0000 C 16366.0000,3809.0000 16367.0000,3810.0000 16367.0000,3812.0000 C 16367.0000,3814.0000 16366.0000,3815.0000 16364.0000,3815.0000 L 16364.0000,3815.0000 C 16362.0000,3815.0000 16360.0000,3814.0000 16360.0000,3812.0000 C 16360.0000,3810.0000 16362.0000,3809.0000 16364.0000,3809.0000 Z M 16397.0000,3809.0000 L 16444.0000,3809.0000 C 16446.0000,3809.0000 16447.0000,3810.0000 16447.0000,3812.0000 C 16447.0000,3814.0000 16446.0000,3815.0000 16444.0000,3815.0000 L 16397.0000,3815.0000 C 16395.0000,3815.0000 16394.0000,3814.0000 16394.0000,3812.0000 C 16394.0000,3810.0000 16395.0000,3809.0000 16397.0000,3809.0000 Z M 16477.0000,3809.0000 L 16477.0000,3809.0000 C 16479.0000,3809.0000 16480.0000,3810.0000 16480.0000,3812.0000 C 16480.0000,3814.0000 16479.0000,3815.0000 16477.0000,3815.0000 L 16477.0000,3815.0000 C 16475.0000,3815.0000 16474.0000,3814.0000 16474.0000,3812.0000 C 16474.0000,3810.0000 16475.0000,3809.0000 16477.0000,3809.0000 Z M 16510.0000,3809.0000 L 16557.0000,3809.0000 C 16559.0000,3809.0000 16560.0000,3810.0000 16560.0000,3812.0000 C 16560.0000,3814.0000 16559.0000,3815.0000 16557.0000,3815.0000 L 16510.0000,3815.0000 C 16509.0000,3815.0000 16507.0000,3814.0000 16507.0000,3812.0000 C 16507.0000,3810.0000 16509.0000,3809.0000 16510.0000,3809.0000 Z M 16590.0000,3809.0000 L 16590.0000,3809.0000 C 16592.0000,3809.0000 16594.0000,3810.0000 16594.0000,3812.0000 C 16594.0000,3814.0000 16592.0000,3815.0000 16590.0000,3815.0000 L 16590.0000,3815.0000 C 16589.0000,3815.0000 16587.0000,3814.0000 16587.0000,3812.0000 C 16587.0000,3810.0000 16589.0000,3809.0000 16590.0000,3809.0000 Z M 16624.0000,3809.0000 L 16670.0000,3809.0000 C 16672.0000,3809.0000 16674.0000,3810.0000 16674.0000,3812.0000 C 16674.0000,3814.0000 16672.0000,3815.0000 16670.0000,3815.0000 L 16624.0000,3815.0000 C 16622.0000,3815.0000 16620.0000,3814.0000 16620.0000,3812.0000 C 16620.0000,3810.0000 16622.0000,3809.0000 16624.0000,3809.0000 Z M 16704.0000,3809.0000 L 16704.0000,3809.0000 C 16706.0000,3809.0000 16707.0000,3810.0000 16707.0000,3812.0000 C 16707.0000,3814.0000 16706.0000,3815.0000 16704.0000,3815.0000 L 16704.0000,3815.0000 C 16702.0000,3815.0000 16700.0000,3814.0000 16700.0000,3812.0000 C 16700.0000,3810.0000 16702.0000,3809.0000 16704.0000,3809.0000 Z M 16737.0000,3809.0000 L 16784.0000,3809.0000 C 16786.0000,3809.0000 16787.0000,3810.0000 16787.0000,3812.0000 C 16787.0000,3814.0000 16786.0000,3815.0000 16784.0000,3815.0000 L 16737.0000,3815.0000 C 16735.0000,3815.0000 16734.0000,3814.0000 16734.0000,3812.0000 C 16734.0000,3810.0000 16735.0000,3809.0000 16737.0000,3809.0000 Z M 16817.0000,3809.0000 L 16817.0000,3809.0000 C 16819.0000,3809.0000 16820.0000,3810.0000 16820.0000,3812.0000 C 16820.0000,3814.0000 16819.0000,3815.0000 16817.0000,3815.0000 L 16817.0000,3815.0000 C 16815.0000,3815.0000 16814.0000,3814.0000 16814.0000,3812.0000 C 16814.0000,3810.0000 16815.0000,3809.0000 16817.0000,3809.0000 Z M 16850.0000,3809.0000 L 16897.0000,3809.0000 C 16899.0000,3809.0000 16900.0000,3810.0000 16900.0000,3812.0000 C 16900.0000,3814.0000 16899.0000,3815.0000 16897.0000,3815.0000 L 16850.0000,3815.0000 C 16849.0000,3815.0000 16847.0000,3814.0000 16847.0000,3812.0000 C 16847.0000,3810.0000 16849.0000,3809.0000 16850.0000,3809.0000 Z M 16930.0000,3809.0000 L 16930.0000,3809.0000 C 16932.0000,3809.0000 16934.0000,3810.0000 16934.0000,3812.0000 C 16934.0000,3814.0000 16932.0000,3815.0000 16930.0000,3815.0000 L 16930.0000,3815.0000 C 16929.0000,3815.0000 16927.0000,3814.0000 16927.0000,3812.0000 C 16927.0000,3810.0000 16929.0000,3809.0000 16930.0000,3809.0000 Z M 16964.0000,3809.0000 L 17010.0000,3809.0000 C 17012.0000,3809.0000 17014.0000,3810.0000 17014.0000,3812.0000 C 17014.0000,3814.0000 17012.0000,3815.0000 17010.0000,3815.0000 L 16964.0000,3815.0000 C 16962.0000,3815.0000 16960.0000,3814.0000 16960.0000,3812.0000 C 16960.0000,3810.0000 16962.0000,3809.0000 16964.0000,3809.0000 Z M 17044.0000,3809.0000 L 17044.0000,3809.0000 C 17046.0000,3809.0000 17047.0000,3810.0000 17047.0000,3812.0000 C 17047.0000,3814.0000 17046.0000,3815.0000 17044.0000,3815.0000 L 17044.0000,3815.0000 C 17042.0000,3815.0000 17040.0000,3814.0000 17040.0000,3812.0000 C 17040.0000,3810.0000 17042.0000,3809.0000 17044.0000,3809.0000 Z M 17077.0000,3809.0000 L 17124.0000,3809.0000 C 17126.0000,3809.0000 17127.0000,3810.0000 17127.0000,3812.0000 C 17127.0000,3814.0000 17126.0000,3815.0000 17124.0000,3815.0000 L 17077.0000,3815.0000 C 17075.0000,3815.0000 17074.0000,3814.0000 17074.0000,3812.0000 C 17074.0000,3810.0000 17075.0000,3809.0000 17077.0000,3809.0000 Z M 17157.0000,3809.0000 L 17157.0000,3809.0000 C 17159.0000,3809.0000 17161.0000,3810.0000 17161.0000,3812.0000 C 17161.0000,3814.0000 17159.0000,3815.0000 17157.0000,3815.0000 L 17157.0000,3815.0000 C 17155.0000,3815.0000 17154.0000,3814.0000 17154.0000,3812.0000 C 17154.0000,3810.0000 17155.0000,3809.0000 17157.0000,3809.0000 Z M 17191.0000,3809.0000 L 17237.0000,3809.0000 C 17239.0000,3809.0000 17241.0000,3810.0000 17241.0000,3812.0000 C 17241.0000,3814.0000 17239.0000,3815.0000 17237.0000,3815.0000 L 17191.0000,3815.0000 C 17189.0000,3815.0000 17187.0000,3814.0000 17187.0000,3812.0000 C 17187.0000,3810.0000 17189.0000,3809.0000 17191.0000,3809.0000 Z M 17271.0000,3809.0000 L 17271.0000,3809.0000 C 17272.0000,3809.0000 17274.0000,3810.0000 17274.0000,3812.0000 C 17274.0000,3814.0000 17272.0000,3815.0000 17271.0000,3815.0000 L 17271.0000,3815.0000 C 17269.0000,3815.0000 17267.0000,3814.0000 17267.0000,3812.0000 C 17267.0000,3810.0000 17269.0000,3809.0000 17271.0000,3809.0000 Z M 17304.0000,3809.0000 L 17351.0000,3809.0000 C 17352.0000,3809.0000 17354.0000,3810.0000 17354.0000,3812.0000 C 17354.0000,3814.0000 17352.0000,3815.0000 17351.0000,3815.0000 L 17304.0000,3815.0000 C 17302.0000,3815.0000 17301.0000,3814.0000 17301.0000,3812.0000 C 17301.0000,3810.0000 17302.0000,3809.0000 17304.0000,3809.0000 Z M 17384.0000,3809.0000 L 17384.0000,3809.0000 C 17386.0000,3809.0000 17387.0000,3810.0000 17387.0000,3812.0000 C 17387.0000,3814.0000 17386.0000,3815.0000 17384.0000,3815.0000 L 17384.0000,3815.0000 C 17382.0000,3815.0000 17381.0000,3814.0000 17381.0000,3812.0000 C 17381.0000,3810.0000 17382.0000,3809.0000 17384.0000,3809.0000 Z M 17417.0000,3809.0000 L 17464.0000,3809.0000 C 17466.0000,3809.0000 17467.0000,3810.0000 17467.0000,3812.0000 C 17467.0000,3814.0000 17466.0000,3815.0000 17464.0000,3815.0000 L 17417.0000,3815.0000 C 17415.0000,3815.0000 17414.0000,3814.0000 17414.0000,3812.0000 C 17414.0000,3810.0000 17415.0000,3809.0000 17417.0000,3809.0000 Z M 17497.0000,3809.0000 L 17497.0000,3809.0000 C 17499.0000,3809.0000 17501.0000,3810.0000 17501.0000,3812.0000 C 17501.0000,3814.0000 17499.0000,3815.0000 17497.0000,3815.0000 L 17497.0000,3815.0000 C 17495.0000,3815.0000 17494.0000,3814.0000 17494.0000,3812.0000 C 17494.0000,3810.0000 17495.0000,3809.0000 17497.0000,3809.0000 Z M 17531.0000,3809.0000 L 17577.0000,3809.0000 C 17579.0000,3809.0000 17581.0000,3810.0000 17581.0000,3812.0000 C 17581.0000,3814.0000 17579.0000,3815.0000 17577.0000,3815.0000 L 17531.0000,3815.0000 C 17529.0000,3815.0000 17527.0000,3814.0000 17527.0000,3812.0000 C 17527.0000,3810.0000 17529.0000,3809.0000 17531.0000,3809.0000 Z M 17611.0000,3809.0000 L 17611.0000,3809.0000 C 17612.0000,3809.0000 17614.0000,3810.0000 17614.0000,3812.0000 C 17614.0000,3814.0000 17612.0000,3815.0000 17611.0000,3815.0000 L 17611.0000,3815.0000 C 17609.0000,3815.0000 17607.0000,3814.0000 17607.0000,3812.0000 C 17607.0000,3810.0000 17609.0000,3809.0000 17611.0000,3809.0000 Z M 17644.0000,3809.0000 L 17691.0000,3809.0000 C 17692.0000,3809.0000 17694.0000,3810.0000 17694.0000,3812.0000 C 17694.0000,3814.0000 17692.0000,3815.0000 17691.0000,3815.0000 L 17644.0000,3815.0000 C 17642.0000,3815.0000 17641.0000,3814.0000 17641.0000,3812.0000 C 17641.0000,3810.0000 17642.0000,3809.0000 17644.0000,3809.0000 Z M 17724.0000,3809.0000 L 17724.0000,3809.0000 C 17726.0000,3809.0000 17727.0000,3810.0000 17727.0000,3812.0000 C 17727.0000,3814.0000 17726.0000,3815.0000 17724.0000,3815.0000 L 17724.0000,3815.0000 C 17722.0000,3815.0000 17721.0000,3814.0000 17721.0000,3812.0000 C 17721.0000,3810.0000 17722.0000,3809.0000 17724.0000,3809.0000 Z M 17757.0000,3809.0000 L 17804.0000,3809.0000 C 17806.0000,3809.0000 17807.0000,3810.0000 17807.0000,3812.0000 C 17807.0000,3814.0000 17806.0000,3815.0000 17804.0000,3815.0000 L 17757.0000,3815.0000 C 17755.0000,3815.0000 17754.0000,3814.0000 17754.0000,3812.0000 C 17754.0000,3810.0000 17755.0000,3809.0000 17757.0000,3809.0000 Z M 17837.0000,3809.0000 L 17837.0000,3809.0000 C 17839.0000,3809.0000 17841.0000,3810.0000 17841.0000,3812.0000 C 17841.0000,3814.0000 17839.0000,3815.0000 17837.0000,3815.0000 L 17837.0000,3815.0000 C 17835.0000,3815.0000 17834.0000,3814.0000 17834.0000,3812.0000 C 17834.0000,3810.0000 17835.0000,3809.0000 17837.0000,3809.0000 Z M 17871.0000,3809.0000 L 17917.0000,3809.0000 C 17919.0000,3809.0000 17921.0000,3810.0000 17921.0000,3812.0000 C 17921.0000,3814.0000 17919.0000,3815.0000 17917.0000,3815.0000 L 17871.0000,3815.0000 C 17869.0000,3815.0000 17867.0000,3814.0000 17867.0000,3812.0000 C 17867.0000,3810.0000 17869.0000,3809.0000 17871.0000,3809.0000 Z M 17951.0000,3809.0000 L 17951.0000,3809.0000 C 17952.0000,3809.0000 17954.0000,3810.0000 17954.0000,3812.0000 C 17954.0000,3814.0000 17952.0000,3815.0000 17951.0000,3815.0000 L 17951.0000,3815.0000 C 17949.0000,3815.0000 17947.0000,3814.0000 17947.0000,3812.0000 C 17947.0000,3810.0000 17949.0000,3809.0000 17951.0000,3809.0000 Z M 17984.0000,3809.0000 L 18031.0000,3809.0000 C 18032.0000,3809.0000 18034.0000,3810.0000 18034.0000,3812.0000 C 18034.0000,3814.0000 18032.0000,3815.0000 18031.0000,3815.0000 L 17984.0000,3815.0000 C 17982.0000,3815.0000 17981.0000,3814.0000 17981.0000,3812.0000 C 17981.0000,3810.0000 17982.0000,3809.0000 17984.0000,3809.0000 Z M 18064.0000,3809.0000 L 18064.0000,3809.0000 C 18066.0000,3809.0000 18067.0000,3810.0000 18067.0000,3812.0000 C 18067.0000,3814.0000 18066.0000,3815.0000 18064.0000,3815.0000 L 18064.0000,3815.0000 C 18062.0000,3815.0000 18061.0000,3814.0000 18061.0000,3812.0000 C 18061.0000,3810.0000 18062.0000,3809.0000 18064.0000,3809.0000 Z M 18097.0000,3809.0000 L 18144.0000,3809.0000 C 18146.0000,3809.0000 18147.0000,3810.0000 18147.0000,3812.0000 C 18147.0000,3814.0000 18146.0000,3815.0000 18144.0000,3815.0000 L 18097.0000,3815.0000 C 18095.0000,3815.0000 18094.0000,3814.0000 18094.0000,3812.0000 C 18094.0000,3810.0000 18095.0000,3809.0000 18097.0000,3809.0000 Z M 18177.0000,3809.0000 L 18177.0000,3809.0000 C 18179.0000,3809.0000 18181.0000,3810.0000 18181.0000,3812.0000 C 18181.0000,3814.0000 18179.0000,3815.0000 18177.0000,3815.0000 L 18177.0000,3815.0000 C 18175.0000,3815.0000 18174.0000,3814.0000 18174.0000,3812.0000 C 18174.0000,3810.0000 18175.0000,3809.0000 18177.0000,3809.0000 Z M 18211.0000,3809.0000 L 18257.0000,3809.0000 C 18259.0000,3809.0000 18261.0000,3810.0000 18261.0000,3812.0000 C 18261.0000,3814.0000 18259.0000,3815.0000 18257.0000,3815.0000 L 18211.0000,3815.0000 C 18209.0000,3815.0000 18207.0000,3814.0000 18207.0000,3812.0000 C 18207.0000,3810.0000 18209.0000,3809.0000 18211.0000,3809.0000 Z M 18291.0000,3809.0000 L 18291.0000,3809.0000 C 18292.0000,3809.0000 18294.0000,3810.0000 18294.0000,3812.0000 C 18294.0000,3814.0000 18292.0000,3815.0000 18291.0000,3815.0000 L 18291.0000,3815.0000 C 18289.0000,3815.0000 18287.0000,3814.0000 18287.0000,3812.0000 C 18287.0000,3810.0000 18289.0000,3809.0000 18291.0000,3809.0000 Z M 18324.0000,3809.0000 L 18371.0000,3809.0000 C 18372.0000,3809.0000 18374.0000,3810.0000 18374.0000,3812.0000 C 18374.0000,3814.0000 18372.0000,3815.0000 18371.0000,3815.0000 L 18324.0000,3815.0000 C 18322.0000,3815.0000 18321.0000,3814.0000 18321.0000,3812.0000 C 18321.0000,3810.0000 18322.0000,3809.0000 18324.0000,3809.0000 Z M 18404.0000,3809.0000 L 18404.0000,3809.0000 C 18406.0000,3809.0000 18407.0000,3810.0000 18407.0000,3812.0000 C 18407.0000,3814.0000 18406.0000,3815.0000 18404.0000,3815.0000 L 18404.0000,3815.0000 C 18402.0000,3815.0000 18401.0000,3814.0000 18401.0000,3812.0000 C 18401.0000,3810.0000 18402.0000,3809.0000 18404.0000,3809.0000 Z M 18437.0000,3809.0000 L 18484.0000,3809.0000 C 18486.0000,3809.0000 18487.0000,3810.0000 18487.0000,3812.0000 C 18487.0000,3814.0000 18486.0000,3815.0000 18484.0000,3815.0000 L 18437.0000,3815.0000 C 18435.0000,3815.0000 18434.0000,3814.0000 18434.0000,3812.0000 C 18434.0000,3810.0000 18435.0000,3809.0000 18437.0000,3809.0000 Z M 18517.0000,3809.0000 L 18517.0000,3809.0000 C 18519.0000,3809.0000 18521.0000,3810.0000 18521.0000,3812.0000 C 18521.0000,3814.0000 18519.0000,3815.0000 18517.0000,3815.0000 L 18517.0000,3815.0000 C 18515.0000,3815.0000 18514.0000,3814.0000 18514.0000,3812.0000 C 18514.0000,3810.0000 18515.0000,3809.0000 18517.0000,3809.0000 Z M 18551.0000,3809.0000 L 18597.0000,3809.0000 C 18599.0000,3809.0000 18601.0000,3810.0000 18601.0000,3812.0000 C 18601.0000,3814.0000 18599.0000,3815.0000 18597.0000,3815.0000 L 18551.0000,3815.0000 C 18549.0000,3815.0000 18547.0000,3814.0000 18547.0000,3812.0000 C 18547.0000,3810.0000 18549.0000,3809.0000 18551.0000,3809.0000 Z M 18631.0000,3809.0000 L 18631.0000,3809.0000 C 18632.0000,3809.0000 18634.0000,3810.0000 18634.0000,3812.0000 C 18634.0000,3814.0000 18632.0000,3815.0000 18631.0000,3815.0000 L 18631.0000,3815.0000 C 18629.0000,3815.0000 18627.0000,3814.0000 18627.0000,3812.0000 C 18627.0000,3810.0000 18629.0000,3809.0000 18631.0000,3809.0000 Z M 18664.0000,3809.0000 L 18711.0000,3809.0000 C 18712.0000,3809.0000 18714.0000,3810.0000 18714.0000,3812.0000 C 18714.0000,3814.0000 18712.0000,3815.0000 18711.0000,3815.0000 L 18664.0000,3815.0000 C 18662.0000,3815.0000 18661.0000,3814.0000 18661.0000,3812.0000 C 18661.0000,3810.0000 18662.0000,3809.0000 18664.0000,3809.0000 Z M 18744.0000,3809.0000 L 18744.0000,3809.0000 C 18746.0000,3809.0000 18747.0000,3810.0000 18747.0000,3812.0000 C 18747.0000,3814.0000 18746.0000,3815.0000 18744.0000,3815.0000 L 18744.0000,3815.0000 C 18742.0000,3815.0000 18741.0000,3814.0000 18741.0000,3812.0000 C 18741.0000,3810.0000 18742.0000,3809.0000 18744.0000,3809.0000 Z M 18777.0000,3809.0000 L 18824.0000,3809.0000 C 18826.0000,3809.0000 18827.0000,3810.0000 18827.0000,3812.0000 C 18827.0000,3814.0000 18826.0000,3815.0000 18824.0000,3815.0000 L 18777.0000,3815.0000 C 18775.0000,3815.0000 18774.0000,3814.0000 18774.0000,3812.0000 C 18774.0000,3810.0000 18775.0000,3809.0000 18777.0000,3809.0000 Z M 18857.0000,3809.0000 L 18857.0000,3809.0000 C 18859.0000,3809.0000 18861.0000,3810.0000 18861.0000,3812.0000 C 18861.0000,3814.0000 18859.0000,3815.0000 18857.0000,3815.0000 L 18857.0000,3815.0000 C 18855.0000,3815.0000 18854.0000,3814.0000 18854.0000,3812.0000 C 18854.0000,3810.0000 18855.0000,3809.0000 18857.0000,3809.0000 Z M 18891.0000,3809.0000 L 18937.0000,3809.0000 C 18939.0000,3809.0000 18941.0000,3810.0000 18941.0000,3812.0000 C 18941.0000,3814.0000 18939.0000,3815.0000 18937.0000,3815.0000 L 18891.0000,3815.0000 C 18889.0000,3815.0000 18887.0000,3814.0000 18887.0000,3812.0000 C 18887.0000,3810.0000 18889.0000,3809.0000 18891.0000,3809.0000 Z M 18971.0000,3809.0000 L 18971.0000,3809.0000 C 18972.0000,3809.0000 18974.0000,3810.0000 18974.0000,3812.0000 C 18974.0000,3814.0000 18972.0000,3815.0000 18971.0000,3815.0000 L 18971.0000,3815.0000 C 18969.0000,3815.0000 18967.0000,3814.0000 18967.0000,3812.0000 C 18967.0000,3810.0000 18969.0000,3809.0000 18971.0000,3809.0000 Z M 19004.0000,3809.0000 L 19029.0000,3809.0000 C 19031.0000,3809.0000 19033.0000,3810.0000 19033.0000,3812.0000 C 19033.0000,3814.0000 19031.0000,3815.0000 19029.0000,3815.0000 L 19004.0000,3815.0000 C 19002.0000,3815.0000 19001.0000,3814.0000 19001.0000,3812.0000 C 19001.0000,3810.0000 19002.0000,3809.0000 19004.0000,3809.0000 Z "  fill="#000000" stroke="#000000" stroke-width="1.0000"  stroke-linecap="butt"  stroke-linejoin="round" />
</g>
<g transform="matrix(1.0000 0.0000 0.0000 1.0000 0.0000 0.0000)">
</g>
<g transform="matrix(0.0625 0.0000 0.0000 0.0625 0.0000 0.0000)">
<path d="M 19011.0000,3738.0000 L 19232.0000,3812.0000 L 19011.0000,3886.0000 L 19011.0000,3738.0000 Z" stroke-width="1px" stroke="#000000"  fill="#000000" />
</g>
<g transform="matrix(1.0000 0.0000 0.0000 1.0000 0.0000 0.0000)">
</g>
<g transform="matrix(1.0000 0.0000 0.0000 1.0000 995.0076 233.7208)">
<text fill="#000000" style ="white-space:pre;" font-weight="400" text-anchor="start" x="0.0000" y="0.0000" font-size="17.0000" ><![CDATA[4. IGMP/MLD join ]]></text>
</g>
<g transform="matrix(1.0000 0.0000 0.0000 1.0000 962.4181 253.7210)">
<text fill="#0070C0" style ="white-space:pre;" font-weight="400" text-anchor="start" x="0.0000" y="0.0000" font-size="15.0000" ><![CDATA[(for NG]]></text>
</g>
<g transform="matrix(1.0000 0.0000 0.0000 1.0000 1011.5856 253.7210)">
<text fill="#0070C0" style ="white-space:pre;" font-weight="400" text-anchor="start" x="0.0000" y="0.0000" font-size="15.0000" ><![CDATA[-]]></text>
</g>
<g transform="matrix(1.0000 0.0000 0.0000 1.0000 1016.5807 253.7210)">
<text fill="#0070C0" style ="white-space:pre;" font-weight="400" text-anchor="start" x="0.0000" y="0.0000" font-size="15.0000" ><![CDATA[U multicast transport)]]></text>
</g>
<g transform="matrix(0.0625 0.0000 0.0000 0.0625 0.0000 0.0000)">
<path d="M 10162.0000,5324.0000 L 14494.0000,5324.0000 " stroke="#000000" stroke-width="7.0000"  stroke-linecap="round"  stroke-linejoin="round" fill="none" />
</g>
<g transform="matrix(1.0000 0.0000 0.0000 1.0000 0.0000 0.0000)">
</g>
<g transform="matrix(0.0625 0.0000 0.0000 0.0625 0.0000 0.0000)">
<path d="M 14475.0000,5250.0000 L 14697.0000,5324.0000 L 14475.0000,5398.0000 L 14475.0000,5250.0000 Z" stroke-width="1px" stroke="#000000"  fill="#000000" />
</g>
<g transform="matrix(1.0000 0.0000 0.0000 1.0000 0.0000 0.0000)">
</g>
<g transform="matrix(0.0625 0.0000 0.0000 0.0625 0.0000 0.0000)">
<path d="M 14697.0000,6080.0000 L 10365.0000,6080.0000 " stroke="#000000" stroke-width="7.0000"  stroke-linecap="round"  stroke-linejoin="round" fill="none" />
</g>
<g transform="matrix(1.0000 0.0000 0.0000 1.0000 0.0000 0.0000)">
</g>
<g transform="matrix(0.0625 0.0000 0.0000 0.0625 0.0000 0.0000)">
<path d="M 10383.0000,6154.0000 L 10162.0000,6080.0000 L 10383.0000,6006.0000 L 10383.0000,6154.0000 Z" stroke-width="1px" stroke="#000000"  fill="#000000" />
</g>
<g transform="matrix(1.0000 0.0000 0.0000 1.0000 0.0000 0.0000)">
</g>
<g transform="matrix(1.0000 0.0000 0.0000 1.0000 655.7551 328.2090)">
<text font-family="Arial" fill="#000000" style ="white-space:pre;" font-weight="400" text-anchor="start" x="0.0000" y="0.0000" font-size="17.0000" ><![CDATA[7. E1AP BC Bearer Context Modification Request]]></text>
</g>
<g transform="matrix(1.0000 0.0000 0.0000 1.0000 787.8905 348.2092)">
<text font-family="Arial" fill="#0070C0" style ="white-space:pre;" font-weight="400" text-anchor="start" x="0.0000" y="0.0000" font-size="15.0000" ><![CDATA[(F1]]></text>
</g>
<g transform="matrix(1.0000 0.0000 0.0000 1.0000 810.3905 348.2092)">
<text font-family="Arial" fill="#0070C0" style ="white-space:pre;" font-weight="400" text-anchor="start" x="0.0000" y="0.0000" font-size="15.0000" ><![CDATA[-]]></text>
</g>
<g transform="matrix(1.0000 0.0000 0.0000 1.0000 815.3856 348.2092)">
<text font-family="Arial" fill="#0070C0" style ="white-space:pre;" font-weight="400" text-anchor="start" x="0.0000" y="0.0000" font-size="15.0000" ><![CDATA[U TNL DU)]]></text>
</g>
<g transform="matrix(1.0000 0.0000 0.0000 1.0000 656.3557 371.2797)">
<text font-family="Arial" fill="#000000" style ="white-space:pre;" font-weight="400" text-anchor="start" x="0.0000" y="0.0000" font-size="17.0000" ><![CDATA[8. E1AP BC Bearer Context Modification Response]]></text>
</g>
</g>
</svg>
