<?xml version="1.0"  encoding="UTF-8" standalone="no"?>
<svg version="1.1" xmlns="http://www.w3.org/2000/svg" xmlns:xlink="http://www.w3.org/1999/xlink" width="1072.0000" height="629.0000">
<g transform="translate(-0.0000, -0.0000)">
<g transform="matrix(1.0000 0.0000 0.0000 1.0000 483.0812 599.6370)">
<text font-family="Arial" fill="#000000" style ="white-space:pre;" font-weight="400" text-anchor="start" x="0.0000" y="0.0000" font-size="22.0000" ><![CDATA[ ]]></text>
</g>
<g transform="matrix(0.0625 0.0000 0.0000 0.0625 0.0000 0.0000)">
<path d="M 8219.0000,724.0000 L 8219.0000,10026.0000 " stroke="#000000" stroke-width="31.0000"  stroke-linecap="round"  stroke-linejoin="round" fill="none" />
</g>
<g transform="matrix(1.0000 0.0000 0.0000 1.0000 0.0000 0.0000)">
</g>
<g transform="matrix(0.0625 0.0000 0.0000 0.0625 0.0000 0.0000)">
<path d="M 737.0000,724.0000 L 731.0000,10026.0000 " stroke="#000000" stroke-width="31.0000"  stroke-linecap="round"  stroke-linejoin="round" fill="none" />
</g>
<g transform="matrix(1.0000 0.0000 0.0000 1.0000 0.0000 0.0000)">
</g>
<g transform="matrix(0.0625 0.0000 0.0000 0.0625 0.0000 0.0000)">
<path d="M 15497.0000,724.0000 L 15468.0000,10026.0000 " stroke="#000000" stroke-width="31.0000"  stroke-linecap="round"  stroke-linejoin="round" fill="none" />
</g>
<g transform="matrix(1.0000 0.0000 0.0000 1.0000 0.0000 0.0000)">
</g>
<g transform="matrix(0.0625 0.0000 0.0000 0.0625 0.0000 0.0000)">
<path d="M 14552.0000,88.0000 L 14552.0000,764.0000 L 16366.0000,764.0000 L 16366.0000,88.0000 L 14552.0000,88.0000 Z" stroke-width="1px" stroke="#FFFFFF"  fill="#FFFFFF" />
</g>
<g transform="matrix(1.0000 0.0000 0.0000 1.0000 0.0000 0.0000)">
</g>
<g transform="matrix(0.0625 0.0000 0.0000 0.0625 0.0000 0.0000)">
<path d="M 14552.0000,764.0000 L 16366.0000,764.0000 L 16366.0000,88.0000 L 14552.0000,88.0000 L 14552.0000,764.0000 Z" stroke="#000000" stroke-width="38.0000"  stroke-linecap="round"  stroke-linejoin="round" fill="none" />
</g>
<g transform="matrix(1.0000 0.0000 0.0000 1.0000 0.0000 0.0000)">
</g>
<g transform="matrix(1.0000 0.0000 0.0000 1.0000 923.3390 34.2734)">
<text font-family="Times New Roman" fill="#000000" style ="white-space:pre;" font-weight="400" text-anchor="start" x="0.0000" y="0.0000" font-size="24.0000" ><![CDATA[gNB]]></text>
</g>
<g transform="matrix(1.0000 0.0000 0.0000 1.0000 968.6796 34.2734)">
<text font-family="Times New Roman" fill="#000000" style ="white-space:pre;" font-weight="400" text-anchor="start" x="0.0000" y="0.0000" font-size="24.0000" ><![CDATA[-]]></text>
</g>
<g transform="matrix(1.0000 0.0000 0.0000 1.0000 976.6716 34.2734)">
<text font-family="Times New Roman" fill="#000000" style ="white-space:pre;" font-weight="400" text-anchor="start" x="0.0000" y="0.0000" font-size="24.0000" ><![CDATA[CU]]></text>
</g>
<g transform="matrix(0.0625 0.0000 0.0000 0.0625 0.0000 0.0000)">
<path d="M 7291.0000,48.0000 L 7291.0000,724.0000 L 9105.0000,724.0000 L 9105.0000,48.0000 L 7291.0000,48.0000 Z" stroke-width="1px" stroke="#FFFFFF"  fill="#FFFFFF" />
</g>
<g transform="matrix(1.0000 0.0000 0.0000 1.0000 0.0000 0.0000)">
</g>
<g transform="matrix(0.0625 0.0000 0.0000 0.0625 0.0000 0.0000)">
<path d="M 7291.0000,724.0000 L 9105.0000,724.0000 L 9105.0000,48.0000 L 7291.0000,48.0000 L 7291.0000,724.0000 Z" stroke="#000000" stroke-width="38.0000"  stroke-linecap="round"  stroke-linejoin="round" fill="none" />
</g>
<g transform="matrix(1.0000 0.0000 0.0000 1.0000 0.0000 0.0000)">
</g>
<g transform="matrix(1.0000 0.0000 0.0000 1.0000 468.8376 30.5714)">
<text font-family="Times New Roman" fill="#000000" style ="white-space:pre;" font-weight="400" text-anchor="start" x="0.0000" y="0.0000" font-size="24.0000" ><![CDATA[gNB]]></text>
</g>
<g transform="matrix(1.0000 0.0000 0.0000 1.0000 514.1782 30.5714)">
<text font-family="Times New Roman" fill="#000000" style ="white-space:pre;" font-weight="400" text-anchor="start" x="0.0000" y="0.0000" font-size="24.0000" ><![CDATA[-]]></text>
</g>
<g transform="matrix(1.0000 0.0000 0.0000 1.0000 522.1702 30.5714)">
<text font-family="Times New Roman" fill="#000000" style ="white-space:pre;" font-weight="400" text-anchor="start" x="0.0000" y="0.0000" font-size="24.0000" ><![CDATA[DU]]></text>
</g>
<g transform="matrix(1.0000 0.0000 0.0000 1.0000 944.2057 576.8960)">
<text font-family="Arial" fill="#000000" style ="white-space:pre;" font-weight="400" text-anchor="start" x="0.0000" y="0.0000" font-size="22.0000" ><![CDATA[ ]]></text>
</g>
<g transform="matrix(1.0000 0.0000 0.0000 1.0000 938.6984 576.1230)">
<text font-family="Arial" fill="#000000" style ="white-space:pre;" font-weight="400" text-anchor="start" x="0.0000" y="0.0000" font-size="22.0000" ><![CDATA[ ]]></text>
</g>
<g transform="matrix(0.0625 0.0000 0.0000 0.0625 0.0000 0.0000)">
<path d="M 48.0000,48.0000 L 48.0000,724.0000 L 1399.0000,724.0000 L 1399.0000,48.0000 L 48.0000,48.0000 Z" stroke-width="1px" stroke="#FFFFFF"  fill="#FFFFFF" />
</g>
<g transform="matrix(1.0000 0.0000 0.0000 1.0000 0.0000 0.0000)">
</g>
<g transform="matrix(0.0625 0.0000 0.0000 0.0625 0.0000 0.0000)">
<path d="M 48.0000,724.0000 L 1399.0000,724.0000 L 1399.0000,48.0000 L 48.0000,48.0000 L 48.0000,724.0000 Z" stroke="#000000" stroke-width="38.0000"  stroke-linecap="round"  stroke-linejoin="round" fill="none" />
</g>
<g transform="matrix(1.0000 0.0000 0.0000 1.0000 0.0000 0.0000)">
</g>
<g transform="matrix(1.0000 0.0000 0.0000 1.0000 29.6963 30.5714)">
<text font-family="Times New Roman" fill="#000000" style ="white-space:pre;" font-weight="400" text-anchor="start" x="0.0000" y="0.0000" font-size="24.0000" ><![CDATA[UE]]></text>
</g>
<g transform="matrix(1.0000 0.0000 0.0000 1.0000 536.3634 439.1826)">
<text font-family="Times New Roman" fill="#000000" style ="white-space:pre;" font-weight="400" text-anchor="start" x="0.0000" y="0.0000" font-size="24.0000" ><![CDATA[3. UE CONTEXT RELEASE ]]></text>
</g>
<g transform="matrix(1.0000 0.0000 0.0000 1.0000 827.6703 439.1826)">
<text font-family="Times New Roman" fill="#000000" style ="white-space:pre;" font-weight="400" text-anchor="start" x="0.0000" y="0.0000" font-size="24.0000" ><![CDATA[COMPLETE]]></text>
</g>
<g transform="matrix(0.0625 0.0000 0.0000 0.0625 0.0000 0.0000)">
<path d="M 15491.0000,5347.0000 L 8504.0000,5347.0000 " stroke="#000000" stroke-width="23.0000"  stroke-linecap="round"  stroke-linejoin="round" fill="none" />
</g>
<g transform="matrix(1.0000 0.0000 0.0000 1.0000 0.0000 0.0000)">
</g>
<g transform="matrix(0.0625 0.0000 0.0000 0.0625 0.0000 0.0000)">
<path d="M 8530.0000,5451.0000 L 8219.0000,5347.0000 L 8530.0000,5243.0000 L 8530.0000,5451.0000 Z" stroke-width="1px" stroke="#000000"  fill="#000000" />
</g>
<g transform="matrix(1.0000 0.0000 0.0000 1.0000 0.0000 0.0000)">
</g>
<g transform="matrix(0.0625 0.0000 0.0000 0.0625 0.0000 0.0000)">
<path d="M 8219.0000,5347.0000 L 1021.0000,5347.0000 " stroke="#000000" stroke-width="23.0000"  stroke-linecap="round"  stroke-linejoin="round" fill="none" />
</g>
<g transform="matrix(1.0000 0.0000 0.0000 1.0000 0.0000 0.0000)">
</g>
<g transform="matrix(0.0625 0.0000 0.0000 0.0625 0.0000 0.0000)">
<path d="M 1047.0000,5451.0000 L 736.0000,5347.0000 L 1047.0000,5243.0000 L 1047.0000,5451.0000 Z" stroke-width="1px" stroke="#000000"  fill="#000000" />
</g>
<g transform="matrix(1.0000 0.0000 0.0000 1.0000 0.0000 0.0000)">
</g>
<g transform="matrix(0.0625 0.0000 0.0000 0.0625 0.0000 0.0000)">
<path d="M 15133.0000,7320.0000 L 8219.0000,7320.0000 " stroke="#000000" stroke-width="23.0000"  stroke-linecap="round"  stroke-linejoin="round" fill="none" />
</g>
<g transform="matrix(1.0000 0.0000 0.0000 1.0000 0.0000 0.0000)">
</g>
<g transform="matrix(0.0625 0.0000 0.0000 0.0625 0.0000 0.0000)">
<path d="M 15107.0000,7216.0000 L 15419.0000,7320.0000 L 15107.0000,7423.0000 L 15107.0000,7216.0000 Z" stroke-width="1px" stroke="#000000"  fill="#000000" />
</g>
<g transform="matrix(1.0000 0.0000 0.0000 1.0000 0.0000 0.0000)">
</g>
<g transform="matrix(0.0625 0.0000 0.0000 0.0625 0.0000 0.0000)">
<path d="M 13850.0000,1680.0000 L 13850.0000,3222.0000 L 17115.0000,3222.0000 L 17115.0000,1680.0000 L 13850.0000,1680.0000 Z" stroke-width="1px" stroke="#FFFFFF"  fill="#FFFFFF" />
</g>
<g transform="matrix(1.0000 0.0000 0.0000 1.0000 0.0000 0.0000)">
</g>
<g transform="matrix(0.0625 0.0000 0.0000 0.0625 0.0000 0.0000)">
<path d="M 13850.0000,3222.0000 L 17115.0000,3222.0000 L 17115.0000,1680.0000 L 13850.0000,1680.0000 L 13850.0000,3222.0000 Z" stroke="#000000" stroke-width="24.0000"  stroke-linecap="round"  stroke-linejoin="round" fill="none" />
</g>
<g transform="matrix(1.0000 0.0000 0.0000 1.0000 0.0000 0.0000)">
</g>
<g transform="matrix(1.0000 0.0000 0.0000 1.0000 881.4882 132.0863)">
<text font-family="Times New Roman" fill="#000000" style ="white-space:pre;" font-weight="400" text-anchor="start" x="0.0000" y="0.0000" font-size="24.0000" ><![CDATA[Determines UE to ]]></text>
</g>
<g transform="matrix(1.0000 0.0000 0.0000 1.0000 895.4683 160.8865)">
<text font-family="Times New Roman" fill="#000000" style ="white-space:pre;" font-weight="400" text-anchor="start" x="0.0000" y="0.0000" font-size="24.0000" ><![CDATA[enter into RRC ]]></text>
</g>
<g transform="matrix(1.0000 0.0000 0.0000 1.0000 900.4901 189.6866)">
<text font-family="Times New Roman" fill="#000000" style ="white-space:pre;" font-weight="400" text-anchor="start" x="0.0000" y="0.0000" font-size="24.0000" ><![CDATA[inactive mode]]></text>
</g>
<g transform="matrix(1.0000 0.0000 0.0000 1.0000 534.8457 315.7903)">
<text font-family="Times New Roman" fill="#000000" style ="white-space:pre;" font-weight="400" text-anchor="start" x="0.0000" y="0.0000" font-size="24.0000" ><![CDATA[1. ]]></text>
</g>
<g transform="matrix(1.0000 0.0000 0.0000 1.0000 558.8464 315.7903)">
<text font-family="Times New Roman" fill="#000000" style ="white-space:pre;" font-weight="400" text-anchor="start" x="0.0000" y="0.0000" font-size="24.0000" ><![CDATA[UE CO]]></text>
</g>
<g transform="matrix(1.0000 0.0000 0.0000 1.0000 630.1790 315.7903)">
<text font-family="Times New Roman" fill="#000000" style ="white-space:pre;" font-weight="400" text-anchor="start" x="0.0000" y="0.0000" font-size="24.0000" ><![CDATA[NTEXT RELEASE ]]></text>
</g>
<g transform="matrix(1.0000 0.0000 0.0000 1.0000 826.1526 315.7903)">
<text font-family="Times New Roman" fill="#000000" style ="white-space:pre;" font-weight="400" text-anchor="start" x="0.0000" y="0.0000" font-size="24.0000" ><![CDATA[COMMAND]]></text>
</g>
<g transform="matrix(1.0000 0.0000 0.0000 1.0000 116.4448 318.6209)">
<text font-family="Times New Roman" fill="#000000" style ="white-space:pre;" font-weight="400" text-anchor="start" x="0.0000" y="0.0000" font-size="24.0000" ><![CDATA[2. ]]></text>
</g>
<g transform="matrix(1.0000 0.0000 0.0000 1.0000 140.4455 318.6209)">
<text font-family="Times New Roman" fill="#000000" font-style="italic" style ="white-space:pre;" font-weight="400" text-anchor="start" x="0.0000" y="0.0000" font-size="24.0000" ><![CDATA[RRCRelease]]></text>
</g>
<g transform="matrix(1.0000 0.0000 0.0000 1.0000 260.3997 318.6209)">
<text font-family="Times New Roman" fill="#000000" style ="white-space:pre;" font-weight="400" text-anchor="start" x="0.0000" y="0.0000" font-size="24.0000" ><![CDATA[ ]]></text>
</g>
<g transform="matrix(1.0000 0.0000 0.0000 1.0000 266.3999 318.6209)">
<text font-family="Times New Roman" fill="#000000" style ="white-space:pre;" font-weight="400" text-anchor="start" x="0.0000" y="0.0000" font-size="24.0000" ><![CDATA[(]]></text>
</g>
<g transform="matrix(1.0000 0.0000 0.0000 1.0000 274.3919 318.6209)">
<text font-family="Times New Roman" fill="#000000" font-style="italic" style ="white-space:pre;" font-weight="400" text-anchor="start" x="0.0000" y="0.0000" font-size="20.0000" ><![CDATA[suspendConfig]]></text>
</g>
<g transform="matrix(1.0000 0.0000 0.0000 1.0000 393.2915 318.6209)">
<text font-family="Times New Roman" fill="#000000" font-style="italic" style ="white-space:pre;" font-weight="400" text-anchor="start" x="0.0000" y="0.0000" font-size="20.0000" ><![CDATA[)]]></text>
</g>
</g>
</svg>
