<?xml version="1.0"  encoding="UTF-8" standalone="no"?>
<svg version="1.1" xmlns="http://www.w3.org/2000/svg" xmlns:xlink="http://www.w3.org/1999/xlink" width="798.0000" height="568.0000">
<g transform="translate(-8.0000, -34.0000)">
<g transform="matrix(0.0625 0.0000 0.0000 0.0625 0.0000 0.0000)">
<path d="M 157.0000,571.0000 L 157.0000,1257.0000 L 1530.0000,1257.0000 L 1530.0000,571.0000 L 157.0000,571.0000 Z" stroke-width="1px" stroke="#E8EEF7"  fill="#E8EEF7" />
</g>
<g transform="matrix(1.0000 0.0000 0.0000 1.0000 0.0000 0.0000)">
</g>
<g transform="matrix(0.0625 0.0000 0.0000 0.0625 0.0000 0.0000)">
<path d="M 157.0000,1257.0000 L 1530.0000,1257.0000 L 1530.0000,571.0000 L 157.0000,571.0000 L 157.0000,1257.0000 Z" stroke="#000000" stroke-width="16.0000"  stroke-linecap="round"  stroke-linejoin="round" fill="none" />
</g>
<g transform="matrix(1.0000 0.0000 0.0000 1.0000 0.0000 0.0000)">
</g>
<g transform="matrix(1.0000 0.0000 0.0000 1.0000 40.5807 63.0535)">
<text fill="#000000" style ="white-space:pre;" font-weight="400" text-anchor="start" x="0.0000" y="0.0000" font-size="18.0000" ><![CDATA[UE]]></text>
</g>
<g transform="matrix(0.0625 0.0000 0.0000 0.0625 0.0000 0.0000)">
<path d="M 2903.0000,571.0000 L 2903.0000,1257.0000 L 4277.0000,1257.0000 L 4277.0000,571.0000 L 2903.0000,571.0000 Z" stroke-width="1px" stroke="#E8EEF7"  fill="#E8EEF7" />
</g>
<g transform="matrix(1.0000 0.0000 0.0000 1.0000 0.0000 0.0000)">
</g>
<g transform="matrix(0.0625 0.0000 0.0000 0.0625 0.0000 0.0000)">
<path d="M 2903.0000,1257.0000 L 4277.0000,1257.0000 L 4277.0000,571.0000 L 2903.0000,571.0000 L 2903.0000,1257.0000 Z" stroke="#000000" stroke-width="16.0000"  stroke-linecap="round"  stroke-linejoin="round" fill="none" />
</g>
<g transform="matrix(1.0000 0.0000 0.0000 1.0000 0.0000 0.0000)">
</g>
<g transform="matrix(1.0000 0.0000 0.0000 1.0000 204.1577 52.1532)">
<text fill="#000000" style ="white-space:pre;" font-weight="400" text-anchor="start" x="0.0000" y="0.0000" font-size="18.0000" ><![CDATA[gNB]]></text>
</g>
<g transform="matrix(1.0000 0.0000 0.0000 1.0000 239.4980 52.1532)">
<text fill="#000000" style ="white-space:pre;" font-weight="400" text-anchor="start" x="0.0000" y="0.0000" font-size="18.0000" ><![CDATA[-]]></text>
</g>
<g transform="matrix(1.0000 0.0000 0.0000 1.0000 206.6817 73.9533)">
<text fill="#000000" style ="white-space:pre;" font-weight="400" text-anchor="start" x="0.0000" y="0.0000" font-size="18.0000" ><![CDATA[DU]]></text>
</g>
<g transform="matrix(1.0000 0.0000 0.0000 1.0000 232.9204 73.9533)">
<text fill="#000000" style ="white-space:pre;" font-weight="400" text-anchor="start" x="0.0000" y="0.0000" font-size="18.0000" ><![CDATA[1]]></text>
</g>
<g transform="matrix(0.0625 0.0000 0.0000 0.0625 0.0000 0.0000)">
<path d="M 5650.0000,571.0000 L 5650.0000,1257.0000 L 7023.0000,1257.0000 L 7023.0000,571.0000 L 5650.0000,571.0000 Z" stroke-width="1px" stroke="#E8EEF7"  fill="#E8EEF7" />
</g>
<g transform="matrix(1.0000 0.0000 0.0000 1.0000 0.0000 0.0000)">
</g>
<g transform="matrix(0.0625 0.0000 0.0000 0.0625 0.0000 0.0000)">
<path d="M 5650.0000,1257.0000 L 7023.0000,1257.0000 L 7023.0000,571.0000 L 5650.0000,571.0000 L 5650.0000,1257.0000 Z" stroke="#000000" stroke-width="16.0000"  stroke-linecap="round"  stroke-linejoin="round" fill="none" />
</g>
<g transform="matrix(1.0000 0.0000 0.0000 1.0000 0.0000 0.0000)">
</g>
<g transform="matrix(1.0000 0.0000 0.0000 1.0000 375.8112 52.1532)">
<text fill="#000000" style ="white-space:pre;" font-weight="400" text-anchor="start" x="0.0000" y="0.0000" font-size="18.0000" ><![CDATA[gNB]]></text>
</g>
<g transform="matrix(1.0000 0.0000 0.0000 1.0000 411.1515 52.1532)">
<text fill="#000000" style ="white-space:pre;" font-weight="400" text-anchor="start" x="0.0000" y="0.0000" font-size="18.0000" ><![CDATA[-]]></text>
</g>
<g transform="matrix(1.0000 0.0000 0.0000 1.0000 378.3352 73.9533)">
<text fill="#000000" style ="white-space:pre;" font-weight="400" text-anchor="start" x="0.0000" y="0.0000" font-size="18.0000" ><![CDATA[DU]]></text>
</g>
<g transform="matrix(1.0000 0.0000 0.0000 1.0000 404.5739 73.9533)">
<text fill="#000000" style ="white-space:pre;" font-weight="400" text-anchor="start" x="0.0000" y="0.0000" font-size="18.0000" ><![CDATA[2]]></text>
</g>
<g transform="matrix(0.0625 0.0000 0.0000 0.0625 0.0000 0.0000)">
<path d="M 844.0000,1257.0000 L 844.0000,9593.0000 " stroke="#000000" stroke-width="16.0000"  stroke-linecap="round"  stroke-linejoin="round" fill="none" />
</g>
<g transform="matrix(1.0000 0.0000 0.0000 1.0000 0.0000 0.0000)">
</g>
<g transform="matrix(0.0625 0.0000 0.0000 0.0625 0.0000 0.0000)">
<path d="M 3590.0000,1257.0000 L 3590.0000,9593.0000 " stroke="#000000" stroke-width="16.0000"  stroke-linecap="round"  stroke-linejoin="round" fill="none" />
</g>
<g transform="matrix(1.0000 0.0000 0.0000 1.0000 0.0000 0.0000)">
</g>
<g transform="matrix(0.0625 0.0000 0.0000 0.0625 0.0000 0.0000)">
<path d="M 6337.0000,1257.0000 L 6337.0000,9593.0000 " stroke="#000000" stroke-width="16.0000"  stroke-linecap="round"  stroke-linejoin="round" fill="none" />
</g>
<g transform="matrix(1.0000 0.0000 0.0000 1.0000 0.0000 0.0000)">
</g>
<g transform="matrix(0.0625 0.0000 0.0000 0.0625 0.0000 0.0000)">
<path d="M 3744.0000,8988.0000 L 11143.0000,8988.0000 " stroke="#000000" stroke-width="16.0000"  stroke-linecap="round"  stroke-linejoin="round" fill="none" />
</g>
<g transform="matrix(1.0000 0.0000 0.0000 1.0000 0.0000 0.0000)">
</g>
<g transform="matrix(0.0625 0.0000 0.0000 0.0625 0.0000 0.0000)">
<path d="M 3761.0000,9054.0000 L 3560.0000,8988.0000 L 3761.0000,8921.0000 L 3761.0000,9054.0000 Z" stroke-width="1px" stroke="#000000"  fill="#000000" />
</g>
<g transform="matrix(1.0000 0.0000 0.0000 1.0000 0.0000 0.0000)">
</g>
<g transform="matrix(1.0000 0.0000 0.0000 1.0000 306.0222 552.9415)">
<text fill="#000000" style ="white-space:pre;" font-weight="400" text-anchor="start" x="0.0000" y="0.0000" font-size="12.0000" ><![CDATA[6]]></text>
</g>
<g transform="matrix(1.0000 0.0000 0.0000 1.0000 312.7578 552.9415)">
<text fill="#000000" style ="white-space:pre;" font-weight="400" text-anchor="start" x="0.0000" y="0.0000" font-size="12.0000" ><![CDATA[. ]]></text>
</g>
<g transform="matrix(1.0000 0.0000 0.0000 1.0000 319.4871 552.9415)">
<text fill="#000000" style ="white-space:pre;" font-weight="400" text-anchor="start" x="0.0000" y="0.0000" font-size="12.0000" ><![CDATA[gNB]]></text>
</g>
<g transform="matrix(1.0000 0.0000 0.0000 1.0000 343.0469 552.9415)">
<text fill="#000000" style ="white-space:pre;" font-weight="400" text-anchor="start" x="0.0000" y="0.0000" font-size="12.0000" ><![CDATA[-]]></text>
</g>
<g transform="matrix(1.0000 0.0000 0.0000 1.0000 347.0802 552.9415)">
<text fill="#000000" style ="white-space:pre;" font-weight="400" text-anchor="start" x="0.0000" y="0.0000" font-size="12.0000" ><![CDATA[CU resumes data traffic transmission to gNB]]></text>
</g>
<g transform="matrix(1.0000 0.0000 0.0000 1.0000 586.0191 552.9415)">
<text fill="#000000" style ="white-space:pre;" font-weight="400" text-anchor="start" x="0.0000" y="0.0000" font-size="12.0000" ><![CDATA[-]]></text>
</g>
<g transform="matrix(1.0000 0.0000 0.0000 1.0000 590.0524 552.9415)">
<text fill="#000000" style ="white-space:pre;" font-weight="400" text-anchor="start" x="0.0000" y="0.0000" font-size="12.0000" ><![CDATA[DU]]></text>
</g>
<g transform="matrix(1.0000 0.0000 0.0000 1.0000 607.5452 552.9415)">
<text fill="#000000" style ="white-space:pre;" font-weight="400" text-anchor="start" x="0.0000" y="0.0000" font-size="12.0000" ><![CDATA[1]]></text>
</g>
<g transform="matrix(0.0625 0.0000 0.0000 0.0625 0.0000 0.0000)">
<path d="M 10959.0000,8301.0000 L 3582.0000,8301.0000 " stroke="#000000" stroke-width="16.0000"  stroke-linecap="round"  stroke-linejoin="round" fill="none" />
</g>
<g transform="matrix(1.0000 0.0000 0.0000 1.0000 0.0000 0.0000)">
</g>
<g transform="matrix(0.0625 0.0000 0.0000 0.0625 0.0000 0.0000)">
<path d="M 10942.0000,8234.0000 L 11143.0000,8301.0000 L 10942.0000,8368.0000 L 10942.0000,8234.0000 Z" stroke-width="1px" stroke="#000000"  fill="#000000" />
</g>
<g transform="matrix(1.0000 0.0000 0.0000 1.0000 0.0000 0.0000)">
</g>
<g transform="matrix(1.0000 0.0000 0.0000 1.0000 368.7275 510.0281)">
<text fill="#000000" style ="white-space:pre;" font-weight="400" text-anchor="start" x="0.0000" y="0.0000" font-size="12.0000" ><![CDATA[5]]></text>
</g>
<g transform="matrix(1.0000 0.0000 0.0000 1.0000 375.4630 510.0281)">
<text fill="#000000" style ="white-space:pre;" font-weight="400" text-anchor="start" x="0.0000" y="0.0000" font-size="12.0000" ><![CDATA[. ]]></text>
</g>
<g transform="matrix(1.0000 0.0000 0.0000 1.0000 382.1924 510.0281)">
<text fill="#000000" style ="white-space:pre;" font-weight="400" text-anchor="start" x="0.0000" y="0.0000" font-size="12.0000" ><![CDATA[F]]></text>
</g>
<g transform="matrix(1.0000 0.0000 0.0000 1.0000 389.5903 510.0281)">
<text fill="#000000" style ="white-space:pre;" font-weight="400" text-anchor="start" x="0.0000" y="0.0000" font-size="12.0000" ><![CDATA[1]]></text>
</g>
<g transform="matrix(1.0000 0.0000 0.0000 1.0000 396.3259 510.0281)">
<text fill="#000000" style ="white-space:pre;" font-weight="400" text-anchor="start" x="0.0000" y="0.0000" font-size="12.0000" ><![CDATA[-]]></text>
</g>
<g transform="matrix(1.0000 0.0000 0.0000 1.0000 400.3592 510.0281)">
<text fill="#000000" style ="white-space:pre;" font-weight="400" text-anchor="start" x="0.0000" y="0.0000" font-size="12.0000" ><![CDATA[U DDDS PDU ]]></text>
</g>
<g transform="matrix(1.0000 0.0000 0.0000 1.0000 479.0872 510.0281)">
<text fill="#000000" style ="white-space:pre;" font-weight="400" text-anchor="start" x="0.0000" y="0.0000" font-size="12.0000" ><![CDATA[(]]></text>
</g>
<g transform="matrix(1.0000 0.0000 0.0000 1.0000 483.1204 510.0281)">
<text fill="#000000" style ="white-space:pre;" font-weight="400" text-anchor="start" x="0.0000" y="0.0000" font-size="12.0000" ><![CDATA[Radio Link Resume]]></text>
</g>
<g transform="matrix(1.0000 0.0000 0.0000 1.0000 588.8085 510.0281)">
<text fill="#000000" style ="white-space:pre;" font-weight="400" text-anchor="start" x="0.0000" y="0.0000" font-size="12.0000" ><![CDATA[)]]></text>
</g>
<g transform="matrix(0.0625 0.0000 0.0000 0.0625 0.0000 0.0000)">
<path d="M 10456.0000,575.0000 L 10456.0000,1261.0000 L 11829.0000,1261.0000 L 11829.0000,575.0000 L 10456.0000,575.0000 Z" stroke-width="1px" stroke="#E8EEF7"  fill="#E8EEF7" />
</g>
<g transform="matrix(1.0000 0.0000 0.0000 1.0000 0.0000 0.0000)">
</g>
<g transform="matrix(0.0625 0.0000 0.0000 0.0625 0.0000 0.0000)">
<path d="M 10456.0000,1261.0000 L 11829.0000,1261.0000 L 11829.0000,575.0000 L 10456.0000,575.0000 L 10456.0000,1261.0000 Z" stroke="#000000" stroke-width="16.0000"  stroke-linecap="round"  stroke-linejoin="round" fill="none" />
</g>
<g transform="matrix(1.0000 0.0000 0.0000 1.0000 0.0000 0.0000)">
</g>
<g transform="matrix(1.0000 0.0000 0.0000 1.0000 663.0856 63.2860)">
<text fill="#000000" style ="white-space:pre;" font-weight="400" text-anchor="start" x="0.0000" y="0.0000" font-size="18.0000" ><![CDATA[gNB]]></text>
</g>
<g transform="matrix(1.0000 0.0000 0.0000 1.0000 698.4258 63.2860)">
<text fill="#000000" style ="white-space:pre;" font-weight="400" text-anchor="start" x="0.0000" y="0.0000" font-size="18.0000" ><![CDATA[-]]></text>
</g>
<g transform="matrix(1.0000 0.0000 0.0000 1.0000 704.4753 63.2860)">
<text fill="#000000" style ="white-space:pre;" font-weight="400" text-anchor="start" x="0.0000" y="0.0000" font-size="18.0000" ><![CDATA[CU]]></text>
</g>
<g transform="matrix(0.0625 0.0000 0.0000 0.0625 0.0000 0.0000)">
<path d="M 11143.0000,1262.0000 L 11143.0000,9597.0000 " stroke="#000000" stroke-width="16.0000"  stroke-linecap="round"  stroke-linejoin="round" fill="none" />
</g>
<g transform="matrix(1.0000 0.0000 0.0000 1.0000 0.0000 0.0000)">
</g>
<g transform="matrix(0.0625 0.0000 0.0000 0.0625 0.0000 0.0000)">
<path d="M 329.0000,1598.0000 L 329.0000,2664.0000 L 7538.0000,2664.0000 L 7538.0000,1598.0000 L 329.0000,1598.0000 Z" stroke-width="1px" stroke="#FFFFFF"  fill="#FFFFFF" />
</g>
<g transform="matrix(1.0000 0.0000 0.0000 1.0000 0.0000 0.0000)">
</g>
<g transform="matrix(0.0625 0.0000 0.0000 0.0625 0.0000 0.0000)">
<path d="M 329.0000,2664.0000 L 7538.0000,2664.0000 L 7538.0000,1598.0000 L 329.0000,1598.0000 L 329.0000,2664.0000 Z" stroke="#000000" stroke-width="16.0000"  stroke-linecap="round"  stroke-linejoin="round" fill="none" />
</g>
<g transform="matrix(1.0000 0.0000 0.0000 1.0000 0.0000 0.0000)">
</g>
<g transform="matrix(1.0000 0.0000 0.0000 1.0000 47.7431 130.0475)">
<text fill="#000000" style ="white-space:pre;" font-weight="400" text-anchor="start" x="0.0000" y="0.0000" font-size="12.0000" ><![CDATA[0]]></text>
</g>
<g transform="matrix(1.0000 0.0000 0.0000 1.0000 54.4787 130.0475)">
<text fill="#000000" style ="white-space:pre;" font-weight="400" text-anchor="start" x="0.0000" y="0.0000" font-size="12.0000" ><![CDATA[. ]]></text>
</g>
<g transform="matrix(1.0000 0.0000 0.0000 1.0000 61.2081 130.0475)">
<text fill="#000000" style ="white-space:pre;" font-weight="400" text-anchor="start" x="0.0000" y="0.0000" font-size="12.0000" ><![CDATA[UE is connected to the gNB]]></text>
</g>
<g transform="matrix(1.0000 0.0000 0.0000 1.0000 209.9874 130.0475)">
<text fill="#000000" style ="white-space:pre;" font-weight="400" text-anchor="start" x="0.0000" y="0.0000" font-size="12.0000" ><![CDATA[-]]></text>
</g>
<g transform="matrix(1.0000 0.0000 0.0000 1.0000 214.0207 130.0475)">
<text fill="#000000" style ="white-space:pre;" font-weight="400" text-anchor="start" x="0.0000" y="0.0000" font-size="12.0000" ><![CDATA[CU at RRC and PDCP level]]></text>
</g>
<g transform="matrix(1.0000 0.0000 0.0000 1.0000 363.4396 130.0475)">
<text fill="#000000" style ="white-space:pre;" font-weight="400" text-anchor="start" x="0.0000" y="0.0000" font-size="12.0000" ><![CDATA[. ]]></text>
</g>
<g transform="matrix(1.0000 0.0000 0.0000 1.0000 370.1689 130.0475)">
<text fill="#000000" style ="white-space:pre;" font-weight="400" text-anchor="start" x="0.0000" y="0.0000" font-size="12.0000" ><![CDATA[UE has DRBs ]]></text>
</g>
<g transform="matrix(1.0000 0.0000 0.0000 1.0000 113.3538 144.5806)">
<text fill="#000000" style ="white-space:pre;" font-weight="400" text-anchor="start" x="0.0000" y="0.0000" font-size="12.0000" ><![CDATA[configured and active on gNB]]></text>
</g>
<g transform="matrix(1.0000 0.0000 0.0000 1.0000 272.2459 144.5806)">
<text fill="#000000" style ="white-space:pre;" font-weight="400" text-anchor="start" x="0.0000" y="0.0000" font-size="12.0000" ><![CDATA[-]]></text>
</g>
<g transform="matrix(1.0000 0.0000 0.0000 1.0000 276.2791 144.5806)">
<text fill="#000000" style ="white-space:pre;" font-weight="400" text-anchor="start" x="0.0000" y="0.0000" font-size="12.0000" ><![CDATA[DU]]></text>
</g>
<g transform="matrix(1.0000 0.0000 0.0000 1.0000 293.7719 144.5806)">
<text fill="#000000" style ="white-space:pre;" font-weight="400" text-anchor="start" x="0.0000" y="0.0000" font-size="12.0000" ><![CDATA[1 ]]></text>
</g>
<g transform="matrix(1.0000 0.0000 0.0000 1.0000 303.8722 144.5806)">
<text fill="#000000" style ="white-space:pre;" font-weight="400" text-anchor="start" x="0.0000" y="0.0000" font-size="12.0000" ><![CDATA[and gNB]]></text>
</g>
<g transform="matrix(1.0000 0.0000 0.0000 1.0000 351.0034 144.5806)">
<text fill="#000000" style ="white-space:pre;" font-weight="400" text-anchor="start" x="0.0000" y="0.0000" font-size="12.0000" ><![CDATA[-]]></text>
</g>
<g transform="matrix(1.0000 0.0000 0.0000 1.0000 355.0366 144.5806)">
<text fill="#000000" style ="white-space:pre;" font-weight="400" text-anchor="start" x="0.0000" y="0.0000" font-size="12.0000" ><![CDATA[DU]]></text>
</g>
<g transform="matrix(1.0000 0.0000 0.0000 1.0000 372.5294 144.5806)">
<text fill="#000000" style ="white-space:pre;" font-weight="400" text-anchor="start" x="0.0000" y="0.0000" font-size="12.0000" ><![CDATA[2]]></text>
</g>
<g transform="matrix(0.0625 0.0000 0.0000 0.0625 0.0000 0.0000)">
<path d="M 11143.0000,7614.0000 L 6512.0000,7614.0000 " stroke="#000000" stroke-width="16.0000"  stroke-linecap="round"  stroke-linejoin="round" fill="none" />
</g>
<g transform="matrix(1.0000 0.0000 0.0000 1.0000 0.0000 0.0000)">
</g>
<g transform="matrix(0.0625 0.0000 0.0000 0.0625 0.0000 0.0000)">
<path d="M 6529.0000,7681.0000 L 6328.0000,7614.0000 L 6529.0000,7547.0000 L 6529.0000,7681.0000 Z" stroke-width="1px" stroke="#000000"  fill="#000000" />
</g>
<g transform="matrix(1.0000 0.0000 0.0000 1.0000 0.0000 0.0000)">
</g>
<g transform="matrix(1.0000 0.0000 0.0000 1.0000 403.9849 454.3428)">
<text fill="#000000" style ="white-space:pre;" font-weight="400" text-anchor="start" x="0.0000" y="0.0000" font-size="12.0000" ><![CDATA[4]]></text>
</g>
<g transform="matrix(1.0000 0.0000 0.0000 1.0000 410.7205 454.3428)">
<text fill="#000000" style ="white-space:pre;" font-weight="400" text-anchor="start" x="0.0000" y="0.0000" font-size="12.0000" ><![CDATA[. ]]></text>
</g>
<g transform="matrix(1.0000 0.0000 0.0000 1.0000 417.4498 454.3428)">
<text fill="#000000" style ="white-space:pre;" font-weight="400" text-anchor="start" x="0.0000" y="0.0000" font-size="12.0000" ><![CDATA[gNB]]></text>
</g>
<g transform="matrix(1.0000 0.0000 0.0000 1.0000 441.0096 454.3428)">
<text fill="#000000" style ="white-space:pre;" font-weight="400" text-anchor="start" x="0.0000" y="0.0000" font-size="12.0000" ><![CDATA[-]]></text>
</g>
<g transform="matrix(1.0000 0.0000 0.0000 1.0000 445.0428 454.3428)">
<text fill="#000000" style ="white-space:pre;" font-weight="400" text-anchor="start" x="0.0000" y="0.0000" font-size="12.0000" ><![CDATA[DU switches traffic delivery to gNB]]></text>
</g>
<g transform="matrix(1.0000 0.0000 0.0000 1.0000 630.8011 454.3428)">
<text fill="#000000" style ="white-space:pre;" font-weight="400" text-anchor="start" x="0.0000" y="0.0000" font-size="12.0000" ><![CDATA[-]]></text>
</g>
<g transform="matrix(1.0000 0.0000 0.0000 1.0000 634.8344 454.3428)">
<text fill="#000000" style ="white-space:pre;" font-weight="400" text-anchor="start" x="0.0000" y="0.0000" font-size="12.0000" ><![CDATA[DU]]></text>
</g>
<g transform="matrix(1.0000 0.0000 0.0000 1.0000 652.3272 454.3428)">
<text fill="#000000" style ="white-space:pre;" font-weight="400" text-anchor="start" x="0.0000" y="0.0000" font-size="12.0000" ><![CDATA[2]]></text>
</g>
<g transform="matrix(1.0000 0.0000 0.0000 1.0000 659.0628 454.3428)">
<text fill="#000000" style ="white-space:pre;" font-weight="400" text-anchor="start" x="0.0000" y="0.0000" font-size="12.0000" ><![CDATA[. ]]></text>
</g>
<g transform="matrix(1.0000 0.0000 0.0000 1.0000 665.7921 454.3428)">
<text fill="#000000" style ="white-space:pre;" font-weight="400" text-anchor="start" x="0.0000" y="0.0000" font-size="12.0000" ><![CDATA[gNB]]></text>
</g>
<g transform="matrix(1.0000 0.0000 0.0000 1.0000 689.3519 454.3428)">
<text fill="#000000" style ="white-space:pre;" font-weight="400" text-anchor="start" x="0.0000" y="0.0000" font-size="12.0000" ><![CDATA[-]]></text>
</g>
<g transform="matrix(1.0000 0.0000 0.0000 1.0000 693.3851 454.3428)">
<text fill="#000000" style ="white-space:pre;" font-weight="400" text-anchor="start" x="0.0000" y="0.0000" font-size="12.0000" ><![CDATA[CU ]]></text>
</g>
<g transform="matrix(1.0000 0.0000 0.0000 1.0000 437.9530 468.8759)">
<text fill="#000000" style ="white-space:pre;" font-weight="400" text-anchor="start" x="0.0000" y="0.0000" font-size="12.0000" ><![CDATA[sends undelivered PDCP PDUs to gNB]]></text>
</g>
<g transform="matrix(1.0000 0.0000 0.0000 1.0000 648.6486 468.8759)">
<text fill="#000000" style ="white-space:pre;" font-weight="400" text-anchor="start" x="0.0000" y="0.0000" font-size="12.0000" ><![CDATA[-]]></text>
</g>
<g transform="matrix(1.0000 0.0000 0.0000 1.0000 652.6819 468.8759)">
<text fill="#000000" style ="white-space:pre;" font-weight="400" text-anchor="start" x="0.0000" y="0.0000" font-size="12.0000" ><![CDATA[DU]]></text>
</g>
<g transform="matrix(1.0000 0.0000 0.0000 1.0000 670.1747 468.8759)">
<text fill="#000000" style ="white-space:pre;" font-weight="400" text-anchor="start" x="0.0000" y="0.0000" font-size="12.0000" ><![CDATA[2]]></text>
</g>
<g transform="matrix(0.0625 0.0000 0.0000 0.0625 0.0000 0.0000)">
<path d="M 10959.0000,4905.0000 L 3590.0000,4905.0000 " stroke="#000000" stroke-width="16.0000"  stroke-linecap="round"  stroke-linejoin="round" fill="none" />
</g>
<g transform="matrix(1.0000 0.0000 0.0000 1.0000 0.0000 0.0000)">
</g>
<g transform="matrix(0.0625 0.0000 0.0000 0.0625 0.0000 0.0000)">
<path d="M 10942.0000,4838.0000 L 11143.0000,4905.0000 L 10942.0000,4972.0000 L 10942.0000,4838.0000 Z" stroke-width="1px" stroke="#000000"  fill="#000000" />
</g>
<g transform="matrix(1.0000 0.0000 0.0000 1.0000 0.0000 0.0000)">
</g>
<g transform="matrix(1.0000 0.0000 0.0000 1.0000 305.4423 288.0737)">
<text fill="#000000" style ="white-space:pre;" font-weight="400" text-anchor="start" x="0.0000" y="0.0000" font-size="12.0000" ><![CDATA[2]]></text>
</g>
<g transform="matrix(1.0000 0.0000 0.0000 1.0000 312.1778 288.0737)">
<text fill="#000000" style ="white-space:pre;" font-weight="400" text-anchor="start" x="0.0000" y="0.0000" font-size="12.0000" ><![CDATA[. ]]></text>
</g>
<g transform="matrix(1.0000 0.0000 0.0000 1.0000 318.9072 288.0737)">
<text fill="#000000" style ="white-space:pre;" font-weight="400" text-anchor="start" x="0.0000" y="0.0000" font-size="12.0000" ><![CDATA[F]]></text>
</g>
<g transform="matrix(1.0000 0.0000 0.0000 1.0000 326.3051 288.0737)">
<text fill="#000000" style ="white-space:pre;" font-weight="400" text-anchor="start" x="0.0000" y="0.0000" font-size="12.0000" ><![CDATA[1]]></text>
</g>
<g transform="matrix(1.0000 0.0000 0.0000 1.0000 333.0407 288.0737)">
<text fill="#000000" style ="white-space:pre;" font-weight="400" text-anchor="start" x="0.0000" y="0.0000" font-size="12.0000" ><![CDATA[-]]></text>
</g>
<g transform="matrix(1.0000 0.0000 0.0000 1.0000 337.0740 288.0737)">
<text fill="#000000" style ="white-space:pre;" font-weight="400" text-anchor="start" x="0.0000" y="0.0000" font-size="12.0000" ><![CDATA[U DDDS PDU ]]></text>
</g>
<g transform="matrix(1.0000 0.0000 0.0000 1.0000 415.8019 288.0737)">
<text fill="#000000" style ="white-space:pre;" font-weight="400" text-anchor="start" x="0.0000" y="0.0000" font-size="12.0000" ><![CDATA[(]]></text>
</g>
<g transform="matrix(1.0000 0.0000 0.0000 1.0000 419.8352 288.0737)">
<text fill="#000000" style ="white-space:pre;" font-weight="400" text-anchor="start" x="0.0000" y="0.0000" font-size="12.0000" ><![CDATA[Radio Link Outage]]></text>
</g>
<g transform="matrix(1.0000 0.0000 0.0000 1.0000 520.1533 288.0737)">
<text fill="#000000" style ="white-space:pre;" font-weight="400" text-anchor="start" x="0.0000" y="0.0000" font-size="12.0000" ><![CDATA[, ]]></text>
</g>
<g transform="matrix(1.0000 0.0000 0.0000 1.0000 526.8826 288.0737)">
<text fill="#000000" style ="white-space:pre;" font-weight="400" text-anchor="start" x="0.0000" y="0.0000" font-size="12.0000" ><![CDATA[lost F]]></text>
</g>
<g transform="matrix(1.0000 0.0000 0.0000 1.0000 556.4919 288.0737)">
<text fill="#000000" style ="white-space:pre;" font-weight="400" text-anchor="start" x="0.0000" y="0.0000" font-size="12.0000" ><![CDATA[1]]></text>
</g>
<g transform="matrix(1.0000 0.0000 0.0000 1.0000 563.2274 288.0737)">
<text fill="#000000" style ="white-space:pre;" font-weight="400" text-anchor="start" x="0.0000" y="0.0000" font-size="12.0000" ><![CDATA[-]]></text>
</g>
<g transform="matrix(1.0000 0.0000 0.0000 1.0000 567.2607 288.0737)">
<text fill="#000000" style ="white-space:pre;" font-weight="400" text-anchor="start" x="0.0000" y="0.0000" font-size="12.0000" ><![CDATA[U sequence numbers]]></text>
</g>
<g transform="matrix(0.0625 0.0000 0.0000 0.0625 0.0000 0.0000)">
<path d="M 2217.0000,3125.0000 L 2217.0000,4191.0000 L 4963.0000,4191.0000 L 4963.0000,3125.0000 L 2217.0000,3125.0000 Z" stroke-width="1px" stroke="#FFFFFF"  fill="#FFFFFF" />
</g>
<g transform="matrix(1.0000 0.0000 0.0000 1.0000 0.0000 0.0000)">
</g>
<g transform="matrix(0.0625 0.0000 0.0000 0.0625 0.0000 0.0000)">
<path d="M 2217.0000,4191.0000 L 4963.0000,4191.0000 L 4963.0000,3125.0000 L 2217.0000,3125.0000 L 2217.0000,4191.0000 Z" stroke="#000000" stroke-width="16.0000"  stroke-linecap="round"  stroke-linejoin="round" fill="none" />
</g>
<g transform="matrix(1.0000 0.0000 0.0000 1.0000 0.0000 0.0000)">
</g>
<g transform="matrix(1.0000 0.0000 0.0000 1.0000 148.7894 210.9381)">
<text fill="#000000" style ="white-space:pre;" font-weight="400" text-anchor="start" x="0.0000" y="0.0000" font-size="12.0000" ><![CDATA[1]]></text>
</g>
<g transform="matrix(1.0000 0.0000 0.0000 1.0000 155.5250 210.9381)">
<text fill="#000000" style ="white-space:pre;" font-weight="400" text-anchor="start" x="0.0000" y="0.0000" font-size="12.0000" ><![CDATA[. ]]></text>
</g>
<g transform="matrix(1.0000 0.0000 0.0000 1.0000 162.2543 210.9381)">
<text fill="#000000" style ="white-space:pre;" font-weight="400" text-anchor="start" x="0.0000" y="0.0000" font-size="12.0000" ><![CDATA[gNB]]></text>
</g>
<g transform="matrix(1.0000 0.0000 0.0000 1.0000 185.8141 210.9381)">
<text fill="#000000" style ="white-space:pre;" font-weight="400" text-anchor="start" x="0.0000" y="0.0000" font-size="12.0000" ><![CDATA[-]]></text>
</g>
<g transform="matrix(1.0000 0.0000 0.0000 1.0000 189.8474 210.9381)">
<text fill="#000000" style ="white-space:pre;" font-weight="400" text-anchor="start" x="0.0000" y="0.0000" font-size="12.0000" ><![CDATA[DU]]></text>
</g>
<g transform="matrix(1.0000 0.0000 0.0000 1.0000 207.3401 210.9381)">
<text fill="#000000" style ="white-space:pre;" font-weight="400" text-anchor="start" x="0.0000" y="0.0000" font-size="12.0000" ><![CDATA[1 ]]></text>
</g>
<g transform="matrix(1.0000 0.0000 0.0000 1.0000 217.4404 210.9381)">
<text fill="#000000" style ="white-space:pre;" font-weight="400" text-anchor="start" x="0.0000" y="0.0000" font-size="12.0000" ><![CDATA[determines that ]]></text>
</g>
<g transform="matrix(1.0000 0.0000 0.0000 1.0000 148.4435 225.4712)">
<text fill="#000000" style ="white-space:pre;" font-weight="400" text-anchor="start" x="0.0000" y="0.0000" font-size="12.0000" ><![CDATA[the radio link is subject to an ]]></text>
</g>
<g transform="matrix(1.0000 0.0000 0.0000 1.0000 157.5242 240.0043)">
<text fill="#000000" style ="white-space:pre;" font-weight="400" text-anchor="start" x="0.0000" y="0.0000" font-size="12.0000" ><![CDATA[outage]]></text>
</g>
<g transform="matrix(1.0000 0.0000 0.0000 1.0000 194.5667 240.0043)">
<text fill="#000000" style ="white-space:pre;" font-weight="400" text-anchor="start" x="0.0000" y="0.0000" font-size="12.0000" ><![CDATA[, ]]></text>
</g>
<g transform="matrix(1.0000 0.0000 0.0000 1.0000 201.2961 240.0043)">
<text fill="#000000" style ="white-space:pre;" font-weight="400" text-anchor="start" x="0.0000" y="0.0000" font-size="12.0000" ><![CDATA[e]]></text>
</g>
<g transform="matrix(1.0000 0.0000 0.0000 1.0000 208.0316 240.0043)">
<text fill="#000000" style ="white-space:pre;" font-weight="400" text-anchor="start" x="0.0000" y="0.0000" font-size="12.0000" ><![CDATA[.]]></text>
</g>
<g transform="matrix(1.0000 0.0000 0.0000 1.0000 211.3963 240.0043)">
<text fill="#000000" style ="white-space:pre;" font-weight="400" text-anchor="start" x="0.0000" y="0.0000" font-size="12.0000" ><![CDATA[g]]></text>
</g>
<g transform="matrix(1.0000 0.0000 0.0000 1.0000 218.1319 240.0043)">
<text fill="#000000" style ="white-space:pre;" font-weight="400" text-anchor="start" x="0.0000" y="0.0000" font-size="12.0000" ><![CDATA[. ]]></text>
</g>
<g transform="matrix(1.0000 0.0000 0.0000 1.0000 224.8612 240.0043)">
<text fill="#000000" style ="white-space:pre;" font-weight="400" text-anchor="start" x="0.0000" y="0.0000" font-size="12.0000" ><![CDATA[blocking fast ]]></text>
</g>
<g transform="matrix(1.0000 0.0000 0.0000 1.0000 208.3539 254.5375)">
<text fill="#000000" style ="white-space:pre;" font-weight="400" text-anchor="start" x="0.0000" y="0.0000" font-size="12.0000" ><![CDATA[fading]]></text>
</g>
<g transform="matrix(0.0625 0.0000 0.0000 0.0625 0.0000 0.0000)">
<path d="M 8843.0000,5185.0000 L 8843.0000,6748.0000 L 12859.0000,6748.0000 L 12859.0000,5185.0000 L 8843.0000,5185.0000 Z" stroke-width="1px" stroke="#FFFFFF"  fill="#FFFFFF" />
</g>
<g transform="matrix(1.0000 0.0000 0.0000 1.0000 0.0000 0.0000)">
</g>
<g transform="matrix(0.0625 0.0000 0.0000 0.0625 0.0000 0.0000)">
<path d="M 8843.0000,6748.0000 L 12859.0000,6748.0000 L 12859.0000,5185.0000 L 8843.0000,5185.0000 L 8843.0000,6748.0000 Z" stroke="#000000" stroke-width="16.0000"  stroke-linecap="round"  stroke-linejoin="round" fill="none" />
</g>
<g transform="matrix(1.0000 0.0000 0.0000 1.0000 0.0000 0.0000)">
</g>
<g transform="matrix(1.0000 0.0000 0.0000 1.0000 562.2026 340.6721)">
<text fill="#000000" style ="white-space:pre;" font-weight="400" text-anchor="start" x="0.0000" y="0.0000" font-size="12.0000" ><![CDATA[3]]></text>
</g>
<g transform="matrix(1.0000 0.0000 0.0000 1.0000 568.9381 340.6721)">
<text fill="#000000" style ="white-space:pre;" font-weight="400" text-anchor="start" x="0.0000" y="0.0000" font-size="12.0000" ><![CDATA[. ]]></text>
</g>
<g transform="matrix(1.0000 0.0000 0.0000 1.0000 575.6675 340.6721)">
<text fill="#000000" style ="white-space:pre;" font-weight="400" text-anchor="start" x="0.0000" y="0.0000" font-size="12.0000" ><![CDATA[gNB]]></text>
</g>
<g transform="matrix(1.0000 0.0000 0.0000 1.0000 599.2272 340.6721)">
<text fill="#000000" style ="white-space:pre;" font-weight="400" text-anchor="start" x="0.0000" y="0.0000" font-size="12.0000" ><![CDATA[-]]></text>
</g>
<g transform="matrix(1.0000 0.0000 0.0000 1.0000 603.2605 340.6721)">
<text fill="#000000" style ="white-space:pre;" font-weight="400" text-anchor="start" x="0.0000" y="0.0000" font-size="12.0000" ><![CDATA[CU decides whether there are other ]]></text>
</g>
<g transform="matrix(1.0000 0.0000 0.0000 1.0000 559.8546 355.2052)">
<text fill="#000000" style ="white-space:pre;" font-weight="400" text-anchor="start" x="0.0000" y="0.0000" font-size="12.0000" ><![CDATA[gNB]]></text>
</g>
<g transform="matrix(1.0000 0.0000 0.0000 1.0000 583.4143 355.2052)">
<text fill="#000000" style ="white-space:pre;" font-weight="400" text-anchor="start" x="0.0000" y="0.0000" font-size="12.0000" ><![CDATA[-]]></text>
</g>
<g transform="matrix(1.0000 0.0000 0.0000 1.0000 587.4476 355.2052)">
<text fill="#000000" style ="white-space:pre;" font-weight="400" text-anchor="start" x="0.0000" y="0.0000" font-size="12.0000" ><![CDATA[DUs able to serve the UE and switches ]]></text>
</g>
<g transform="matrix(1.0000 0.0000 0.0000 1.0000 581.7349 369.7383)">
<text fill="#000000" style ="white-space:pre;" font-weight="400" text-anchor="start" x="0.0000" y="0.0000" font-size="12.0000" ><![CDATA[traffic delivery and retransmission of ]]></text>
</g>
<g transform="matrix(1.0000 0.0000 0.0000 1.0000 563.2313 384.2714)">
<text fill="#000000" style ="white-space:pre;" font-weight="400" text-anchor="start" x="0.0000" y="0.0000" font-size="12.0000" ><![CDATA[undelivered PDCP PDUs from gNB]]></text>
</g>
<g transform="matrix(1.0000 0.0000 0.0000 1.0000 752.3658 384.2714)">
<text fill="#000000" style ="white-space:pre;" font-weight="400" text-anchor="start" x="0.0000" y="0.0000" font-size="12.0000" ><![CDATA[-]]></text>
</g>
<g transform="matrix(1.0000 0.0000 0.0000 1.0000 756.3992 384.2714)">
<text fill="#000000" style ="white-space:pre;" font-weight="400" text-anchor="start" x="0.0000" y="0.0000" font-size="12.0000" ><![CDATA[DU]]></text>
</g>
<g transform="matrix(1.0000 0.0000 0.0000 1.0000 773.8919 384.2714)">
<text fill="#000000" style ="white-space:pre;" font-weight="400" text-anchor="start" x="0.0000" y="0.0000" font-size="12.0000" ><![CDATA[1 ]]></text>
</g>
<g transform="matrix(1.0000 0.0000 0.0000 1.0000 783.9922 384.2714)">
<text fill="#000000" style ="white-space:pre;" font-weight="400" text-anchor="start" x="0.0000" y="0.0000" font-size="12.0000" ><![CDATA[to ]]></text>
</g>
<g transform="matrix(1.0000 0.0000 0.0000 1.0000 587.7960 398.8045)">
<text fill="#000000" style ="white-space:pre;" font-weight="400" text-anchor="start" x="0.0000" y="0.0000" font-size="12.0000" ><![CDATA[such gNB]]></text>
</g>
<g transform="matrix(1.0000 0.0000 0.0000 1.0000 640.3030 398.8045)">
<text fill="#000000" style ="white-space:pre;" font-weight="400" text-anchor="start" x="0.0000" y="0.0000" font-size="12.0000" ><![CDATA[-]]></text>
</g>
<g transform="matrix(1.0000 0.0000 0.0000 1.0000 644.3364 398.8045)">
<text fill="#000000" style ="white-space:pre;" font-weight="400" text-anchor="start" x="0.0000" y="0.0000" font-size="12.0000" ><![CDATA[DUs]]></text>
</g>
<g transform="matrix(1.0000 0.0000 0.0000 1.0000 667.8849 398.8045)">
<text fill="#000000" style ="white-space:pre;" font-weight="400" text-anchor="start" x="0.0000" y="0.0000" font-size="12.0000" ><![CDATA[. ]]></text>
</g>
<g transform="matrix(1.0000 0.0000 0.0000 1.0000 674.6142 398.8045)">
<text fill="#000000" style ="white-space:pre;" font-weight="400" text-anchor="start" x="0.0000" y="0.0000" font-size="12.0000" ><![CDATA[gNB]]></text>
</g>
<g transform="matrix(1.0000 0.0000 0.0000 1.0000 698.1740 398.8045)">
<text fill="#000000" style ="white-space:pre;" font-weight="400" text-anchor="start" x="0.0000" y="0.0000" font-size="12.0000" ><![CDATA[-]]></text>
</g>
<g transform="matrix(1.0000 0.0000 0.0000 1.0000 702.2073 398.8045)">
<text fill="#000000" style ="white-space:pre;" font-weight="400" text-anchor="start" x="0.0000" y="0.0000" font-size="12.0000" ><![CDATA[CU does not ]]></text>
</g>
<g transform="matrix(1.0000 0.0000 0.0000 1.0000 577.2251 413.3376)">
<text fill="#000000" style ="white-space:pre;" font-weight="400" text-anchor="start" x="0.0000" y="0.0000" font-size="12.0000" ><![CDATA[necessarily remove gNB]]></text>
</g>
<g transform="matrix(1.0000 0.0000 0.0000 1.0000 708.4784 413.3376)">
<text fill="#000000" style ="white-space:pre;" font-weight="400" text-anchor="start" x="0.0000" y="0.0000" font-size="12.0000" ><![CDATA[-]]></text>
</g>
<g transform="matrix(1.0000 0.0000 0.0000 1.0000 712.5117 413.3376)">
<text fill="#000000" style ="white-space:pre;" font-weight="400" text-anchor="start" x="0.0000" y="0.0000" font-size="12.0000" ><![CDATA[DU]]></text>
</g>
<g transform="matrix(1.0000 0.0000 0.0000 1.0000 730.0045 413.3376)">
<text fill="#000000" style ="white-space:pre;" font-weight="400" text-anchor="start" x="0.0000" y="0.0000" font-size="12.0000" ><![CDATA[1]]></text>
</g>
<g transform="matrix(1.0000 0.0000 0.0000 1.0000 736.7401 413.3376)">
<text fill="#000000" style ="white-space:pre;" font-weight="400" text-anchor="start" x="0.0000" y="0.0000" font-size="12.0000" ><![CDATA[']]></text>
</g>
<g transform="matrix(1.0000 0.0000 0.0000 1.0000 739.0523 413.3376)">
<text fill="#000000" style ="white-space:pre;" font-weight="400" text-anchor="start" x="0.0000" y="0.0000" font-size="12.0000" ><![CDATA[s DRBs ]]></text>
</g>
</g>
</svg>
