<?xml version="1.0"  encoding="UTF-8" standalone="no"?>
<svg version="1.1" xmlns="http://www.w3.org/2000/svg" xmlns:xlink="http://www.w3.org/1999/xlink" width="777.0000" height="654.0000">
<g transform="translate(-0.0000, -0.0000)">
<g transform="matrix(1.0000 0.0000 0.0000 1.0000 712.8983 41.0654)">
<text font-family="Arial" fill="#000000" style ="white-space:pre;" font-weight="400" text-anchor="start" x="0.0000" y="0.0000" font-size="17.0000" ><![CDATA[ ]]></text>
</g>
<g transform="matrix(1.0000 0.0000 0.0000 1.0000 365.6656 540.6268)">
<text font-family="Arial" fill="#000000" style ="white-space:pre;" font-weight="400" text-anchor="start" x="0.0000" y="0.0000" font-size="17.0000" ><![CDATA[ ]]></text>
</g>
<g transform="matrix(0.0625 0.0000 0.0000 0.0625 0.0000 0.0000)">
<path d="M 6219.0000,546.0000 L 6219.0000,10427.0000 " stroke="#000000" stroke-width="23.0000"  stroke-linecap="round"  stroke-linejoin="round" fill="none" />
</g>
<g transform="matrix(1.0000 0.0000 0.0000 1.0000 0.0000 0.0000)">
</g>
<g transform="matrix(0.0625 0.0000 0.0000 0.0625 0.0000 0.0000)">
<path d="M 556.0000,546.0000 L 552.0000,10427.0000 " stroke="#000000" stroke-width="23.0000"  stroke-linecap="round"  stroke-linejoin="round" fill="none" />
</g>
<g transform="matrix(1.0000 0.0000 0.0000 1.0000 0.0000 0.0000)">
</g>
<g transform="matrix(0.0625 0.0000 0.0000 0.0625 0.0000 0.0000)">
<path d="M 11729.0000,546.0000 L 11707.0000,10427.0000 " stroke="#000000" stroke-width="23.0000"  stroke-linecap="round"  stroke-linejoin="round" fill="none" />
</g>
<g transform="matrix(1.0000 0.0000 0.0000 1.0000 0.0000 0.0000)">
</g>
<g transform="matrix(0.0625 0.0000 0.0000 0.0625 0.0000 0.0000)">
<path d="M 11013.0000,65.0000 L 11013.0000,576.0000 L 12387.0000,576.0000 L 12387.0000,65.0000 L 11013.0000,65.0000 Z" stroke-width="1px" stroke="#FFFFFF"  fill="#FFFFFF" />
</g>
<g transform="matrix(1.0000 0.0000 0.0000 1.0000 0.0000 0.0000)">
</g>
<g transform="matrix(0.0625 0.0000 0.0000 0.0625 0.0000 0.0000)">
<path d="M 11013.0000,576.0000 L 12387.0000,576.0000 L 12387.0000,65.0000 L 11013.0000,65.0000 L 11013.0000,576.0000 Z" stroke="#000000" stroke-width="29.0000"  stroke-linecap="round"  stroke-linejoin="round" fill="none" />
</g>
<g transform="matrix(1.0000 0.0000 0.0000 1.0000 0.0000 0.0000)">
</g>
<g transform="matrix(1.0000 0.0000 0.0000 1.0000 698.9163 25.9430)">
<text font-family="Times New Roman" fill="#000000" style ="white-space:pre;" font-weight="400" text-anchor="start" x="0.0000" y="0.0000" font-size="18.0000" ><![CDATA[gNB]]></text>
</g>
<g transform="matrix(1.0000 0.0000 0.0000 1.0000 733.2366 25.9430)">
<text font-family="Times New Roman" fill="#000000" style ="white-space:pre;" font-weight="400" text-anchor="start" x="0.0000" y="0.0000" font-size="18.0000" ><![CDATA[-]]></text>
</g>
<g transform="matrix(1.0000 0.0000 0.0000 1.0000 739.2861 25.9430)">
<text font-family="Times New Roman" fill="#000000" style ="white-space:pre;" font-weight="400" text-anchor="start" x="0.0000" y="0.0000" font-size="18.0000" ><![CDATA[CU]]></text>
</g>
<g transform="matrix(0.0625 0.0000 0.0000 0.0625 0.0000 0.0000)">
<path d="M 5553.0000,34.0000 L 5553.0000,546.0000 L 6927.0000,546.0000 L 6927.0000,34.0000 L 5553.0000,34.0000 Z" stroke-width="1px" stroke="#FFFFFF"  fill="#FFFFFF" />
</g>
<g transform="matrix(1.0000 0.0000 0.0000 1.0000 0.0000 0.0000)">
</g>
<g transform="matrix(0.0625 0.0000 0.0000 0.0625 0.0000 0.0000)">
<path d="M 5553.0000,546.0000 L 6927.0000,546.0000 L 6927.0000,34.0000 L 5553.0000,34.0000 L 5553.0000,546.0000 Z" stroke="#000000" stroke-width="29.0000"  stroke-linecap="round"  stroke-linejoin="round" fill="none" />
</g>
<g transform="matrix(1.0000 0.0000 0.0000 1.0000 0.0000 0.0000)">
</g>
<g transform="matrix(1.0000 0.0000 0.0000 1.0000 357.1628 23.1409)">
<text font-family="Times New Roman" fill="#000000" style ="white-space:pre;" font-weight="400" text-anchor="start" x="0.0000" y="0.0000" font-size="18.0000" ><![CDATA[gNB]]></text>
</g>
<g transform="matrix(1.0000 0.0000 0.0000 1.0000 391.4831 23.1409)">
<text font-family="Times New Roman" fill="#000000" style ="white-space:pre;" font-weight="400" text-anchor="start" x="0.0000" y="0.0000" font-size="18.0000" ><![CDATA[-]]></text>
</g>
<g transform="matrix(1.0000 0.0000 0.0000 1.0000 397.5326 23.1409)">
<text font-family="Times New Roman" fill="#000000" style ="white-space:pre;" font-weight="400" text-anchor="start" x="0.0000" y="0.0000" font-size="18.0000" ><![CDATA[DU]]></text>
</g>
<g transform="matrix(1.0000 0.0000 0.0000 1.0000 395.2226 380.6553)">
<text font-family="Times New Roman" fill="#000000" style ="white-space:pre;" font-weight="400" text-anchor="start" x="0.0000" y="0.0000" font-size="18.0000" ><![CDATA[6]]></text>
</g>
<g transform="matrix(1.0000 0.0000 0.0000 1.0000 404.3062 380.6553)">
<text font-family="Times New Roman" fill="#000000" style ="white-space:pre;" font-weight="400" text-anchor="start" x="0.0000" y="0.0000" font-size="18.0000" ><![CDATA[. ]]></text>
</g>
<g transform="matrix(1.0000 0.0000 0.0000 1.0000 413.3899 380.6553)">
<text font-family="Times New Roman" fill="#000000" style ="white-space:pre;" font-weight="400" text-anchor="start" x="0.0000" y="0.0000" font-size="18.0000" ><![CDATA[UE CONTEXT SETUP RESPONSE]]></text>
</g>
<g transform="matrix(1.0000 0.0000 0.0000 1.0000 714.7112 523.4131)">
<text font-family="Arial" fill="#000000" style ="white-space:pre;" font-weight="400" text-anchor="start" x="0.0000" y="0.0000" font-size="17.0000" ><![CDATA[ ]]></text>
</g>
<g transform="matrix(1.0000 0.0000 0.0000 1.0000 710.5425 522.8281)">
<text font-family="Arial" fill="#000000" style ="white-space:pre;" font-weight="400" text-anchor="start" x="0.0000" y="0.0000" font-size="17.0000" ><![CDATA[ ]]></text>
</g>
<g transform="matrix(0.0625 0.0000 0.0000 0.0625 0.0000 0.0000)">
<path d="M 34.0000,34.0000 L 34.0000,546.0000 L 1057.0000,546.0000 L 1057.0000,34.0000 L 34.0000,34.0000 Z" stroke-width="1px" stroke="#FFFFFF"  fill="#FFFFFF" />
</g>
<g transform="matrix(1.0000 0.0000 0.0000 1.0000 0.0000 0.0000)">
</g>
<g transform="matrix(0.0625 0.0000 0.0000 0.0625 0.0000 0.0000)">
<path d="M 34.0000,546.0000 L 1057.0000,546.0000 L 1057.0000,34.0000 L 34.0000,34.0000 L 34.0000,546.0000 Z" stroke="#000000" stroke-width="29.0000"  stroke-linecap="round"  stroke-linejoin="round" fill="none" />
</g>
<g transform="matrix(1.0000 0.0000 0.0000 1.0000 0.0000 0.0000)">
</g>
<g transform="matrix(1.0000 0.0000 0.0000 1.0000 22.4785 23.1409)">
<text font-family="Times New Roman" fill="#000000" style ="white-space:pre;" font-weight="400" text-anchor="start" x="0.0000" y="0.0000" font-size="18.0000" ><![CDATA[UE]]></text>
</g>
<g transform="matrix(1.0000 0.0000 0.0000 1.0000 401.1953 301.4506)">
<text font-family="Times New Roman" fill="#000000" style ="white-space:pre;" font-weight="400" text-anchor="start" x="0.0000" y="0.0000" font-size="18.0000" ><![CDATA[5]]></text>
</g>
<g transform="matrix(1.0000 0.0000 0.0000 1.0000 410.2789 301.4506)">
<text font-family="Times New Roman" fill="#000000" style ="white-space:pre;" font-weight="400" text-anchor="start" x="0.0000" y="0.0000" font-size="18.0000" ><![CDATA[. ]]></text>
</g>
<g transform="matrix(1.0000 0.0000 0.0000 1.0000 419.3625 301.4506)">
<text font-family="Times New Roman" fill="#000000" style ="white-space:pre;" font-weight="400" text-anchor="start" x="0.0000" y="0.0000" font-size="18.0000" ><![CDATA[UE CONTEXT SETUP  REQUEST]]></text>
</g>
<g transform="matrix(0.0625 0.0000 0.0000 0.0625 0.0000 0.0000)">
<path d="M 11724.0000,4957.0000 L 11602.0000,4957.0000 C 11597.0000,4957.0000 11593.0000,4953.0000 11593.0000,4948.0000 C 11593.0000,4943.0000 11597.0000,4939.0000 11602.0000,4939.0000 L 11724.0000,4939.0000 C 11729.0000,4939.0000 11733.0000,4943.0000 11733.0000,4948.0000 C 11733.0000,4953.0000 11729.0000,4957.0000 11724.0000,4957.0000 Z M 11515.0000,4957.0000 L 11393.0000,4957.0000 C 11388.0000,4957.0000 11384.0000,4953.0000 11384.0000,4948.0000 C 11384.0000,4943.0000 11388.0000,4939.0000 11393.0000,4939.0000 L 11515.0000,4939.0000 C 11520.0000,4939.0000 11524.0000,4943.0000 11524.0000,4948.0000 C 11524.0000,4953.0000 11520.0000,4957.0000 11515.0000,4957.0000 Z M 11306.0000,4957.0000 L 11184.0000,4957.0000 C 11179.0000,4957.0000 11175.0000,4953.0000 11175.0000,4948.0000 C 11175.0000,4943.0000 11179.0000,4939.0000 11184.0000,4939.0000 L 11306.0000,4939.0000 C 11310.0000,4939.0000 11314.0000,4943.0000 11314.0000,4948.0000 C 11314.0000,4953.0000 11310.0000,4957.0000 11306.0000,4957.0000 Z M 11096.0000,4957.0000 L 10974.0000,4957.0000 C 10969.0000,4957.0000 10966.0000,4953.0000 10966.0000,4948.0000 C 10966.0000,4943.0000 10969.0000,4939.0000 10974.0000,4939.0000 L 11096.0000,4939.0000 C 11101.0000,4939.0000 11105.0000,4943.0000 11105.0000,4948.0000 C 11105.0000,4953.0000 11101.0000,4957.0000 11096.0000,4957.0000 Z M 10887.0000,4957.0000 L 10765.0000,4957.0000 C 10760.0000,4957.0000 10756.0000,4953.0000 10756.0000,4948.0000 C 10756.0000,4943.0000 10760.0000,4939.0000 10765.0000,4939.0000 L 10887.0000,4939.0000 C 10892.0000,4939.0000 10896.0000,4943.0000 10896.0000,4948.0000 C 10896.0000,4953.0000 10892.0000,4957.0000 10887.0000,4957.0000 Z M 10678.0000,4957.0000 L 10556.0000,4957.0000 C 10551.0000,4957.0000 10547.0000,4953.0000 10547.0000,4948.0000 C 10547.0000,4943.0000 10551.0000,4939.0000 10556.0000,4939.0000 L 10678.0000,4939.0000 C 10683.0000,4939.0000 10686.0000,4943.0000 10686.0000,4948.0000 C 10686.0000,4953.0000 10683.0000,4957.0000 10678.0000,4957.0000 Z M 10468.0000,4957.0000 L 10346.0000,4957.0000 C 10342.0000,4957.0000 10338.0000,4953.0000 10338.0000,4948.0000 C 10338.0000,4943.0000 10342.0000,4939.0000 10346.0000,4939.0000 L 10468.0000,4939.0000 C 10473.0000,4939.0000 10477.0000,4943.0000 10477.0000,4948.0000 C 10477.0000,4953.0000 10473.0000,4957.0000 10468.0000,4957.0000 Z M 10259.0000,4957.0000 L 10137.0000,4957.0000 C 10132.0000,4957.0000 10128.0000,4953.0000 10128.0000,4948.0000 C 10128.0000,4943.0000 10132.0000,4939.0000 10137.0000,4939.0000 L 10259.0000,4939.0000 C 10264.0000,4939.0000 10268.0000,4943.0000 10268.0000,4948.0000 C 10268.0000,4953.0000 10264.0000,4957.0000 10259.0000,4957.0000 Z M 10050.0000,4957.0000 L 9928.0000,4957.0000 C 9923.0000,4957.0000 9919.0000,4953.0000 9919.0000,4948.0000 C 9919.0000,4943.0000 9923.0000,4939.0000 9928.0000,4939.0000 L 10050.0000,4939.0000 C 10055.0000,4939.0000 10059.0000,4943.0000 10059.0000,4948.0000 C 10059.0000,4953.0000 10055.0000,4957.0000 10050.0000,4957.0000 Z M 9841.0000,4957.0000 L 9719.0000,4957.0000 C 9714.0000,4957.0000 9710.0000,4953.0000 9710.0000,4948.0000 C 9710.0000,4943.0000 9714.0000,4939.0000 9719.0000,4939.0000 L 9841.0000,4939.0000 C 9845.0000,4939.0000 9849.0000,4943.0000 9849.0000,4948.0000 C 9849.0000,4953.0000 9845.0000,4957.0000 9841.0000,4957.0000 Z M 9631.0000,4957.0000 L 9509.0000,4957.0000 C 9504.0000,4957.0000 9501.0000,4953.0000 9501.0000,4948.0000 C 9501.0000,4943.0000 9504.0000,4939.0000 9509.0000,4939.0000 L 9631.0000,4939.0000 C 9636.0000,4939.0000 9640.0000,4943.0000 9640.0000,4948.0000 C 9640.0000,4953.0000 9636.0000,4957.0000 9631.0000,4957.0000 Z M 9422.0000,4957.0000 L 9300.0000,4957.0000 C 9295.0000,4957.0000 9291.0000,4953.0000 9291.0000,4948.0000 C 9291.0000,4943.0000 9295.0000,4939.0000 9300.0000,4939.0000 L 9422.0000,4939.0000 C 9427.0000,4939.0000 9431.0000,4943.0000 9431.0000,4948.0000 C 9431.0000,4953.0000 9427.0000,4957.0000 9422.0000,4957.0000 Z M 9213.0000,4957.0000 L 9091.0000,4957.0000 C 9086.0000,4957.0000 9082.0000,4953.0000 9082.0000,4948.0000 C 9082.0000,4943.0000 9086.0000,4939.0000 9091.0000,4939.0000 L 9213.0000,4939.0000 C 9218.0000,4939.0000 9222.0000,4943.0000 9222.0000,4948.0000 C 9222.0000,4953.0000 9218.0000,4957.0000 9213.0000,4957.0000 Z M 9004.0000,4957.0000 L 8881.0000,4957.0000 C 8877.0000,4957.0000 8873.0000,4953.0000 8873.0000,4948.0000 C 8873.0000,4943.0000 8877.0000,4939.0000 8881.0000,4939.0000 L 9004.0000,4939.0000 C 9008.0000,4939.0000 9012.0000,4943.0000 9012.0000,4948.0000 C 9012.0000,4953.0000 9008.0000,4957.0000 9004.0000,4957.0000 Z M 8794.0000,4957.0000 L 8672.0000,4957.0000 C 8667.0000,4957.0000 8663.0000,4953.0000 8663.0000,4948.0000 C 8663.0000,4943.0000 8667.0000,4939.0000 8672.0000,4939.0000 L 8794.0000,4939.0000 C 8799.0000,4939.0000 8803.0000,4943.0000 8803.0000,4948.0000 C 8803.0000,4953.0000 8799.0000,4957.0000 8794.0000,4957.0000 Z M 8585.0000,4957.0000 L 8463.0000,4957.0000 C 8458.0000,4957.0000 8454.0000,4953.0000 8454.0000,4948.0000 C 8454.0000,4943.0000 8458.0000,4939.0000 8463.0000,4939.0000 L 8585.0000,4939.0000 C 8590.0000,4939.0000 8594.0000,4943.0000 8594.0000,4948.0000 C 8594.0000,4953.0000 8590.0000,4957.0000 8585.0000,4957.0000 Z M 8376.0000,4957.0000 L 8254.0000,4957.0000 C 8249.0000,4957.0000 8245.0000,4953.0000 8245.0000,4948.0000 C 8245.0000,4943.0000 8249.0000,4939.0000 8254.0000,4939.0000 L 8376.0000,4939.0000 C 8381.0000,4939.0000 8384.0000,4943.0000 8384.0000,4948.0000 C 8384.0000,4953.0000 8381.0000,4957.0000 8376.0000,4957.0000 Z M 8166.0000,4957.0000 L 8044.0000,4957.0000 C 8040.0000,4957.0000 8036.0000,4953.0000 8036.0000,4948.0000 C 8036.0000,4943.0000 8040.0000,4939.0000 8044.0000,4939.0000 L 8166.0000,4939.0000 C 8171.0000,4939.0000 8175.0000,4943.0000 8175.0000,4948.0000 C 8175.0000,4953.0000 8171.0000,4957.0000 8166.0000,4957.0000 Z M 7957.0000,4957.0000 L 7835.0000,4957.0000 C 7830.0000,4957.0000 7826.0000,4953.0000 7826.0000,4948.0000 C 7826.0000,4943.0000 7830.0000,4939.0000 7835.0000,4939.0000 L 7957.0000,4939.0000 C 7962.0000,4939.0000 7966.0000,4943.0000 7966.0000,4948.0000 C 7966.0000,4953.0000 7962.0000,4957.0000 7957.0000,4957.0000 Z M 7748.0000,4957.0000 L 7626.0000,4957.0000 C 7621.0000,4957.0000 7617.0000,4953.0000 7617.0000,4948.0000 C 7617.0000,4943.0000 7621.0000,4939.0000 7626.0000,4939.0000 L 7748.0000,4939.0000 C 7753.0000,4939.0000 7757.0000,4943.0000 7757.0000,4948.0000 C 7757.0000,4953.0000 7753.0000,4957.0000 7748.0000,4957.0000 Z M 7539.0000,4957.0000 L 7416.0000,4957.0000 C 7412.0000,4957.0000 7408.0000,4953.0000 7408.0000,4948.0000 C 7408.0000,4943.0000 7412.0000,4939.0000 7416.0000,4939.0000 L 7539.0000,4939.0000 C 7543.0000,4939.0000 7547.0000,4943.0000 7547.0000,4948.0000 C 7547.0000,4953.0000 7543.0000,4957.0000 7539.0000,4957.0000 Z M 7329.0000,4957.0000 L 7207.0000,4957.0000 C 7202.0000,4957.0000 7198.0000,4953.0000 7198.0000,4948.0000 C 7198.0000,4943.0000 7202.0000,4939.0000 7207.0000,4939.0000 L 7329.0000,4939.0000 C 7334.0000,4939.0000 7338.0000,4943.0000 7338.0000,4948.0000 C 7338.0000,4953.0000 7334.0000,4957.0000 7329.0000,4957.0000 Z M 7120.0000,4957.0000 L 6998.0000,4957.0000 C 6993.0000,4957.0000 6989.0000,4953.0000 6989.0000,4948.0000 C 6989.0000,4943.0000 6993.0000,4939.0000 6998.0000,4939.0000 L 7120.0000,4939.0000 C 7125.0000,4939.0000 7129.0000,4943.0000 7129.0000,4948.0000 C 7129.0000,4953.0000 7125.0000,4957.0000 7120.0000,4957.0000 Z M 6911.0000,4957.0000 L 6789.0000,4957.0000 C 6784.0000,4957.0000 6780.0000,4953.0000 6780.0000,4948.0000 C 6780.0000,4943.0000 6784.0000,4939.0000 6789.0000,4939.0000 L 6911.0000,4939.0000 C 6916.0000,4939.0000 6919.0000,4943.0000 6919.0000,4948.0000 C 6919.0000,4953.0000 6916.0000,4957.0000 6911.0000,4957.0000 Z M 6701.0000,4957.0000 L 6579.0000,4957.0000 C 6575.0000,4957.0000 6571.0000,4953.0000 6571.0000,4948.0000 C 6571.0000,4943.0000 6575.0000,4939.0000 6579.0000,4939.0000 L 6701.0000,4939.0000 C 6706.0000,4939.0000 6710.0000,4943.0000 6710.0000,4948.0000 C 6710.0000,4953.0000 6706.0000,4957.0000 6701.0000,4957.0000 Z M 6492.0000,4957.0000 L 6435.0000,4957.0000 C 6430.0000,4957.0000 6426.0000,4953.0000 6426.0000,4948.0000 C 6426.0000,4943.0000 6430.0000,4939.0000 6435.0000,4939.0000 L 6492.0000,4939.0000 C 6497.0000,4939.0000 6501.0000,4943.0000 6501.0000,4948.0000 C 6501.0000,4953.0000 6497.0000,4957.0000 6492.0000,4957.0000 Z "  fill="#000000" stroke="#000000" stroke-width="1.0000"  stroke-linecap="butt"  stroke-linejoin="round" />
</g>
<g transform="matrix(1.0000 0.0000 0.0000 1.0000 0.0000 0.0000)">
</g>
<g transform="matrix(0.0625 0.0000 0.0000 0.0625 0.0000 0.0000)">
<path d="M 6455.0000,5027.0000 L 6219.0000,4948.0000 L 6455.0000,4870.0000 L 6455.0000,5027.0000 Z" stroke-width="1px" stroke="#000000"  fill="#000000" />
</g>
<g transform="matrix(1.0000 0.0000 0.0000 1.0000 0.0000 0.0000)">
</g>
<g transform="matrix(0.0625 0.0000 0.0000 0.0625 0.0000 0.0000)">
<path d="M 6003.0000,3575.0000 L 555.0000,3575.0000 " stroke="#000000" stroke-width="17.0000"  stroke-linecap="round"  stroke-linejoin="round" fill="none" />
</g>
<g transform="matrix(1.0000 0.0000 0.0000 1.0000 0.0000 0.0000)">
</g>
<g transform="matrix(0.0625 0.0000 0.0000 0.0625 0.0000 0.0000)">
<path d="M 5984.0000,3496.0000 L 6219.0000,3575.0000 L 5984.0000,3653.0000 L 5984.0000,3496.0000 Z" stroke-width="1px" stroke="#000000"  fill="#000000" />
</g>
<g transform="matrix(1.0000 0.0000 0.0000 1.0000 0.0000 0.0000)">
</g>
<g transform="matrix(0.0625 0.0000 0.0000 0.0625 0.0000 0.0000)">
<path d="M 11498.0000,6406.0000 L 11376.0000,6406.0000 C 11371.0000,6406.0000 11367.0000,6402.0000 11367.0000,6397.0000 C 11367.0000,6392.0000 11371.0000,6388.0000 11376.0000,6388.0000 L 11498.0000,6388.0000 C 11503.0000,6388.0000 11507.0000,6392.0000 11507.0000,6397.0000 C 11507.0000,6402.0000 11503.0000,6406.0000 11498.0000,6406.0000 Z M 11289.0000,6406.0000 L 11167.0000,6406.0000 C 11162.0000,6406.0000 11158.0000,6402.0000 11158.0000,6397.0000 C 11158.0000,6392.0000 11162.0000,6388.0000 11167.0000,6388.0000 L 11289.0000,6388.0000 C 11294.0000,6388.0000 11297.0000,6392.0000 11297.0000,6397.0000 C 11297.0000,6402.0000 11294.0000,6406.0000 11289.0000,6406.0000 Z M 11079.0000,6406.0000 L 10957.0000,6406.0000 C 10953.0000,6406.0000 10949.0000,6402.0000 10949.0000,6397.0000 C 10949.0000,6392.0000 10953.0000,6388.0000 10957.0000,6388.0000 L 11079.0000,6388.0000 C 11084.0000,6388.0000 11088.0000,6392.0000 11088.0000,6397.0000 C 11088.0000,6402.0000 11084.0000,6406.0000 11079.0000,6406.0000 Z M 10870.0000,6406.0000 L 10748.0000,6406.0000 C 10743.0000,6406.0000 10739.0000,6402.0000 10739.0000,6397.0000 C 10739.0000,6392.0000 10743.0000,6388.0000 10748.0000,6388.0000 L 10870.0000,6388.0000 C 10875.0000,6388.0000 10879.0000,6392.0000 10879.0000,6397.0000 C 10879.0000,6402.0000 10875.0000,6406.0000 10870.0000,6406.0000 Z M 10661.0000,6406.0000 L 10539.0000,6406.0000 C 10534.0000,6406.0000 10530.0000,6402.0000 10530.0000,6397.0000 C 10530.0000,6392.0000 10534.0000,6388.0000 10539.0000,6388.0000 L 10661.0000,6388.0000 C 10666.0000,6388.0000 10670.0000,6392.0000 10670.0000,6397.0000 C 10670.0000,6402.0000 10666.0000,6406.0000 10661.0000,6406.0000 Z M 10452.0000,6406.0000 L 10330.0000,6406.0000 C 10325.0000,6406.0000 10321.0000,6402.0000 10321.0000,6397.0000 C 10321.0000,6392.0000 10325.0000,6388.0000 10330.0000,6388.0000 L 10452.0000,6388.0000 C 10456.0000,6388.0000 10460.0000,6392.0000 10460.0000,6397.0000 C 10460.0000,6402.0000 10456.0000,6406.0000 10452.0000,6406.0000 Z M 10242.0000,6406.0000 L 10120.0000,6406.0000 C 10115.0000,6406.0000 10112.0000,6402.0000 10112.0000,6397.0000 C 10112.0000,6392.0000 10115.0000,6388.0000 10120.0000,6388.0000 L 10242.0000,6388.0000 C 10247.0000,6388.0000 10251.0000,6392.0000 10251.0000,6397.0000 C 10251.0000,6402.0000 10247.0000,6406.0000 10242.0000,6406.0000 Z M 10033.0000,6406.0000 L 9911.0000,6406.0000 C 9906.0000,6406.0000 9902.0000,6402.0000 9902.0000,6397.0000 C 9902.0000,6392.0000 9906.0000,6388.0000 9911.0000,6388.0000 L 10033.0000,6388.0000 C 10038.0000,6388.0000 10042.0000,6392.0000 10042.0000,6397.0000 C 10042.0000,6402.0000 10038.0000,6406.0000 10033.0000,6406.0000 Z M 9824.0000,6406.0000 L 9702.0000,6406.0000 C 9697.0000,6406.0000 9693.0000,6402.0000 9693.0000,6397.0000 C 9693.0000,6392.0000 9697.0000,6388.0000 9702.0000,6388.0000 L 9824.0000,6388.0000 C 9829.0000,6388.0000 9832.0000,6392.0000 9832.0000,6397.0000 C 9832.0000,6402.0000 9829.0000,6406.0000 9824.0000,6406.0000 Z M 9614.0000,6406.0000 L 9492.0000,6406.0000 C 9488.0000,6406.0000 9484.0000,6402.0000 9484.0000,6397.0000 C 9484.0000,6392.0000 9488.0000,6388.0000 9492.0000,6388.0000 L 9614.0000,6388.0000 C 9619.0000,6388.0000 9623.0000,6392.0000 9623.0000,6397.0000 C 9623.0000,6402.0000 9619.0000,6406.0000 9614.0000,6406.0000 Z M 9405.0000,6406.0000 L 9283.0000,6406.0000 C 9278.0000,6406.0000 9274.0000,6402.0000 9274.0000,6397.0000 C 9274.0000,6392.0000 9278.0000,6388.0000 9283.0000,6388.0000 L 9405.0000,6388.0000 C 9410.0000,6388.0000 9414.0000,6392.0000 9414.0000,6397.0000 C 9414.0000,6402.0000 9410.0000,6406.0000 9405.0000,6406.0000 Z M 9196.0000,6406.0000 L 9074.0000,6406.0000 C 9069.0000,6406.0000 9065.0000,6402.0000 9065.0000,6397.0000 C 9065.0000,6392.0000 9069.0000,6388.0000 9074.0000,6388.0000 L 9196.0000,6388.0000 C 9201.0000,6388.0000 9205.0000,6392.0000 9205.0000,6397.0000 C 9205.0000,6402.0000 9201.0000,6406.0000 9196.0000,6406.0000 Z M 8987.0000,6406.0000 L 8865.0000,6406.0000 C 8860.0000,6406.0000 8856.0000,6402.0000 8856.0000,6397.0000 C 8856.0000,6392.0000 8860.0000,6388.0000 8865.0000,6388.0000 L 8987.0000,6388.0000 C 8991.0000,6388.0000 8995.0000,6392.0000 8995.0000,6397.0000 C 8995.0000,6402.0000 8991.0000,6406.0000 8987.0000,6406.0000 Z M 8777.0000,6406.0000 L 8655.0000,6406.0000 C 8650.0000,6406.0000 8647.0000,6402.0000 8647.0000,6397.0000 C 8647.0000,6392.0000 8650.0000,6388.0000 8655.0000,6388.0000 L 8777.0000,6388.0000 C 8782.0000,6388.0000 8786.0000,6392.0000 8786.0000,6397.0000 C 8786.0000,6402.0000 8782.0000,6406.0000 8777.0000,6406.0000 Z M 8568.0000,6406.0000 L 8446.0000,6406.0000 C 8441.0000,6406.0000 8437.0000,6402.0000 8437.0000,6397.0000 C 8437.0000,6392.0000 8441.0000,6388.0000 8446.0000,6388.0000 L 8568.0000,6388.0000 C 8573.0000,6388.0000 8577.0000,6392.0000 8577.0000,6397.0000 C 8577.0000,6402.0000 8573.0000,6406.0000 8568.0000,6406.0000 Z M 8359.0000,6406.0000 L 8237.0000,6406.0000 C 8232.0000,6406.0000 8228.0000,6402.0000 8228.0000,6397.0000 C 8228.0000,6392.0000 8232.0000,6388.0000 8237.0000,6388.0000 L 8359.0000,6388.0000 C 8364.0000,6388.0000 8368.0000,6392.0000 8368.0000,6397.0000 C 8368.0000,6402.0000 8364.0000,6406.0000 8359.0000,6406.0000 Z M 8150.0000,6406.0000 L 8027.0000,6406.0000 C 8023.0000,6406.0000 8019.0000,6402.0000 8019.0000,6397.0000 C 8019.0000,6392.0000 8023.0000,6388.0000 8027.0000,6388.0000 L 8150.0000,6388.0000 C 8154.0000,6388.0000 8158.0000,6392.0000 8158.0000,6397.0000 C 8158.0000,6402.0000 8154.0000,6406.0000 8150.0000,6406.0000 Z M 7940.0000,6406.0000 L 7818.0000,6406.0000 C 7813.0000,6406.0000 7809.0000,6402.0000 7809.0000,6397.0000 C 7809.0000,6392.0000 7813.0000,6388.0000 7818.0000,6388.0000 L 7940.0000,6388.0000 C 7945.0000,6388.0000 7949.0000,6392.0000 7949.0000,6397.0000 C 7949.0000,6402.0000 7945.0000,6406.0000 7940.0000,6406.0000 Z M 7731.0000,6406.0000 L 7609.0000,6406.0000 C 7604.0000,6406.0000 7600.0000,6402.0000 7600.0000,6397.0000 C 7600.0000,6392.0000 7604.0000,6388.0000 7609.0000,6388.0000 L 7731.0000,6388.0000 C 7736.0000,6388.0000 7740.0000,6392.0000 7740.0000,6397.0000 C 7740.0000,6402.0000 7736.0000,6406.0000 7731.0000,6406.0000 Z M 7522.0000,6406.0000 L 7400.0000,6406.0000 C 7395.0000,6406.0000 7391.0000,6402.0000 7391.0000,6397.0000 C 7391.0000,6392.0000 7395.0000,6388.0000 7400.0000,6388.0000 L 7522.0000,6388.0000 C 7527.0000,6388.0000 7530.0000,6392.0000 7530.0000,6397.0000 C 7530.0000,6402.0000 7527.0000,6406.0000 7522.0000,6406.0000 Z M 7312.0000,6406.0000 L 7190.0000,6406.0000 C 7186.0000,6406.0000 7182.0000,6402.0000 7182.0000,6397.0000 C 7182.0000,6392.0000 7186.0000,6388.0000 7190.0000,6388.0000 L 7312.0000,6388.0000 C 7317.0000,6388.0000 7321.0000,6392.0000 7321.0000,6397.0000 C 7321.0000,6402.0000 7317.0000,6406.0000 7312.0000,6406.0000 Z M 7103.0000,6406.0000 L 6981.0000,6406.0000 C 6976.0000,6406.0000 6972.0000,6402.0000 6972.0000,6397.0000 C 6972.0000,6392.0000 6976.0000,6388.0000 6981.0000,6388.0000 L 7103.0000,6388.0000 C 7108.0000,6388.0000 7112.0000,6392.0000 7112.0000,6397.0000 C 7112.0000,6402.0000 7108.0000,6406.0000 7103.0000,6406.0000 Z M 6894.0000,6406.0000 L 6772.0000,6406.0000 C 6767.0000,6406.0000 6763.0000,6402.0000 6763.0000,6397.0000 C 6763.0000,6392.0000 6767.0000,6388.0000 6772.0000,6388.0000 L 6894.0000,6388.0000 C 6899.0000,6388.0000 6903.0000,6392.0000 6903.0000,6397.0000 C 6903.0000,6402.0000 6899.0000,6406.0000 6894.0000,6406.0000 Z M 6685.0000,6406.0000 L 6562.0000,6406.0000 C 6558.0000,6406.0000 6554.0000,6402.0000 6554.0000,6397.0000 C 6554.0000,6392.0000 6558.0000,6388.0000 6562.0000,6388.0000 L 6685.0000,6388.0000 C 6689.0000,6388.0000 6693.0000,6392.0000 6693.0000,6397.0000 C 6693.0000,6402.0000 6689.0000,6406.0000 6685.0000,6406.0000 Z M 6475.0000,6406.0000 L 6353.0000,6406.0000 C 6348.0000,6406.0000 6344.0000,6402.0000 6344.0000,6397.0000 C 6344.0000,6392.0000 6348.0000,6388.0000 6353.0000,6388.0000 L 6475.0000,6388.0000 C 6480.0000,6388.0000 6484.0000,6392.0000 6484.0000,6397.0000 C 6484.0000,6402.0000 6480.0000,6406.0000 6475.0000,6406.0000 Z M 6266.0000,6406.0000 L 6264.0000,6406.0000 C 6259.0000,6406.0000 6255.0000,6402.0000 6255.0000,6397.0000 C 6255.0000,6392.0000 6259.0000,6388.0000 6264.0000,6388.0000 L 6266.0000,6388.0000 C 6271.0000,6388.0000 6275.0000,6392.0000 6275.0000,6397.0000 C 6275.0000,6402.0000 6271.0000,6406.0000 6266.0000,6406.0000 Z "  fill="#000000" stroke="#000000" stroke-width="1.0000"  stroke-linecap="butt"  stroke-linejoin="round" />
</g>
<g transform="matrix(1.0000 0.0000 0.0000 1.0000 0.0000 0.0000)">
</g>
<g transform="matrix(0.0625 0.0000 0.0000 0.0625 0.0000 0.0000)">
<path d="M 11478.0000,6318.0000 L 11714.0000,6397.0000 L 11478.0000,6475.0000 L 11478.0000,6318.0000 Z" stroke-width="1px" stroke="#000000"  fill="#000000" />
</g>
<g transform="matrix(1.0000 0.0000 0.0000 1.0000 0.0000 0.0000)">
</g>
<g transform="matrix(1.0000 0.0000 0.0000 1.0000 86.4774 207.8995)">
<text font-family="Times New Roman" fill="#000000" style ="white-space:pre;" font-weight="400" text-anchor="start" x="0.0000" y="0.0000" font-size="18.0000" ><![CDATA[3]]></text>
</g>
<g transform="matrix(1.0000 0.0000 0.0000 1.0000 95.5610 207.8995)">
<text font-family="Times New Roman" fill="#000000" style ="white-space:pre;" font-weight="400" text-anchor="start" x="0.0000" y="0.0000" font-size="18.0000" ><![CDATA[. ]]></text>
</g>
<g transform="matrix(1.0000 0.0000 0.0000 1.0000 104.6446 207.8995)">
<text font-family="Times New Roman" fill="#000000" font-style="italic" style ="white-space:pre;" font-weight="400" text-anchor="start" x="0.0000" y="0.0000" font-size="18.0000" ><![CDATA[RRCResumeRequest ]]></text>
</g>
<g transform="matrix(0.0625 0.0000 0.0000 0.0625 0.0000 0.0000)">
<path d="M 11453.0000,3575.0000 L 6219.0000,3575.0000 " stroke="#000000" stroke-width="17.0000"  stroke-linecap="round"  stroke-linejoin="round" fill="none" />
</g>
<g transform="matrix(1.0000 0.0000 0.0000 1.0000 0.0000 0.0000)">
</g>
<g transform="matrix(0.0625 0.0000 0.0000 0.0625 0.0000 0.0000)">
<path d="M 11434.0000,3496.0000 L 11669.0000,3575.0000 L 11434.0000,3653.0000 L 11434.0000,3496.0000 Z" stroke-width="1px" stroke="#000000"  fill="#000000" />
</g>
<g transform="matrix(1.0000 0.0000 0.0000 1.0000 0.0000 0.0000)">
</g>
<g transform="matrix(1.0000 0.0000 0.0000 1.0000 396.5227 213.4753)">
<text font-family="Times New Roman" fill="#000000" style ="white-space:pre;" font-weight="400" text-anchor="start" x="0.0000" y="0.0000" font-size="18.0000" ><![CDATA[4]]></text>
</g>
<g transform="matrix(1.0000 0.0000 0.0000 1.0000 405.6063 213.4753)">
<text font-family="Times New Roman" fill="#000000" style ="white-space:pre;" font-weight="400" text-anchor="start" x="0.0000" y="0.0000" font-size="18.0000" ><![CDATA[. ]]></text>
</g>
<g transform="matrix(1.0000 0.0000 0.0000 1.0000 414.6899 213.4753)">
<text font-family="Times New Roman" fill="#000000" style ="white-space:pre;" font-weight="400" text-anchor="start" x="0.0000" y="0.0000" font-size="18.0000" ><![CDATA[INITIAL UL RRC MESSAGE TRANSFER]]></text>
</g>
<g transform="matrix(0.0625 0.0000 0.0000 0.0625 0.0000 0.0000)">
<path d="M 11724.0000,7672.0000 L 6435.0000,7672.0000 " stroke="#000000" stroke-width="17.0000"  stroke-linecap="round"  stroke-linejoin="round" fill="none" />
</g>
<g transform="matrix(1.0000 0.0000 0.0000 1.0000 0.0000 0.0000)">
</g>
<g transform="matrix(0.0625 0.0000 0.0000 0.0625 0.0000 0.0000)">
<path d="M 6455.0000,7751.0000 L 6219.0000,7672.0000 L 6455.0000,7594.0000 L 6455.0000,7751.0000 Z" stroke-width="1px" stroke="#000000"  fill="#000000" />
</g>
<g transform="matrix(1.0000 0.0000 0.0000 1.0000 0.0000 0.0000)">
</g>
<g transform="matrix(1.0000 0.0000 0.0000 1.0000 395.2226 458.8931)">
<text font-family="Times New Roman" fill="#000000" style ="white-space:pre;" font-weight="400" text-anchor="start" x="0.0000" y="0.0000" font-size="18.0000" ><![CDATA[7]]></text>
</g>
<g transform="matrix(1.0000 0.0000 0.0000 1.0000 404.3062 458.8931)">
<text font-family="Times New Roman" fill="#000000" style ="white-space:pre;" font-weight="400" text-anchor="start" x="0.0000" y="0.0000" font-size="18.0000" ><![CDATA[. ]]></text>
</g>
<g transform="matrix(1.0000 0.0000 0.0000 1.0000 413.3899 458.8931)">
<text font-family="Times New Roman" fill="#000000" style ="white-space:pre;" font-weight="400" text-anchor="start" x="0.0000" y="0.0000" font-size="18.0000" ><![CDATA[DL RRC MESSAGE TRANSFER]]></text>
</g>
<g transform="matrix(0.0625 0.0000 0.0000 0.0625 0.0000 0.0000)">
<path d="M 6219.0000,7672.0000 L 771.0000,7672.0000 " stroke="#000000" stroke-width="17.0000"  stroke-linecap="round"  stroke-linejoin="round" fill="none" />
</g>
<g transform="matrix(1.0000 0.0000 0.0000 1.0000 0.0000 0.0000)">
</g>
<g transform="matrix(0.0625 0.0000 0.0000 0.0625 0.0000 0.0000)">
<path d="M 791.0000,7751.0000 L 555.0000,7672.0000 L 791.0000,7594.0000 L 791.0000,7751.0000 Z" stroke-width="1px" stroke="#000000"  fill="#000000" />
</g>
<g transform="matrix(1.0000 0.0000 0.0000 1.0000 0.0000 0.0000)">
</g>
<g transform="matrix(1.0000 0.0000 0.0000 1.0000 63.4856 442.5903)">
<text font-family="Times New Roman" fill="#000000" style ="white-space:pre;" font-weight="400" text-anchor="start" x="0.0000" y="0.0000" font-size="18.0000" ><![CDATA[8]]></text>
</g>
<g transform="matrix(1.0000 0.0000 0.0000 1.0000 72.5692 442.5903)">
<text font-family="Times New Roman" fill="#000000" style ="white-space:pre;" font-weight="400" text-anchor="start" x="0.0000" y="0.0000" font-size="18.0000" ><![CDATA[. ]]></text>
</g>
<g transform="matrix(1.0000 0.0000 0.0000 1.0000 81.6528 442.5903)">
<text font-family="Times New Roman" fill="#000000" font-style="italic" style ="white-space:pre;" font-weight="400" text-anchor="start" x="0.0000" y="0.0000" font-size="18.0000" ><![CDATA[RRCResume]]></text>
</g>
<g transform="matrix(1.0000 0.0000 0.0000 1.0000 172.4603 442.5903)">
<text font-family="Times New Roman" fill="#000000" font-style="italic" style ="white-space:pre;" font-weight="400" text-anchor="start" x="0.0000" y="0.0000" font-size="18.0000" ><![CDATA[/]]></text>
</g>
<g transform="matrix(1.0000 0.0000 0.0000 1.0000 177.5077 442.5903)">
<text font-family="Times New Roman" fill="#000000" font-style="italic" style ="white-space:pre;" font-weight="400" text-anchor="start" x="0.0000" y="0.0000" font-size="18.0000" ><![CDATA[RRCReject]]></text>
</g>
<g transform="matrix(1.0000 0.0000 0.0000 1.0000 257.2003 442.5903)">
<text font-family="Times New Roman" fill="#000000" font-style="italic" style ="white-space:pre;" font-weight="400" text-anchor="start" x="0.0000" y="0.0000" font-size="18.0000" ><![CDATA[/]]></text>
</g>
<g transform="matrix(1.0000 0.0000 0.0000 1.0000 262.2477 442.5903)">
<text font-family="Times New Roman" fill="#000000" font-style="italic" style ="white-space:pre;" font-weight="400" text-anchor="start" x="0.0000" y="0.0000" font-size="18.0000" ><![CDATA[RRC]]></text>
</g>
<g transform="matrix(1.0000 0.0000 0.0000 1.0000 296.5588 442.5903)">
<text font-family="Times New Roman" fill="#000000" font-style="italic" style ="white-space:pre;" font-weight="400" text-anchor="start" x="0.0000" y="0.0000" font-size="18.0000" ><![CDATA[Setup]]></text>
</g>
<g transform="matrix(1.0000 0.0000 0.0000 1.0000 336.9203 442.5903)">
<text font-family="Times New Roman" fill="#000000" font-style="italic" style ="white-space:pre;" font-weight="400" text-anchor="start" x="0.0000" y="0.0000" font-size="18.0000" ><![CDATA[/]]></text>
</g>
<g transform="matrix(1.0000 0.0000 0.0000 1.0000 63.4856 464.3962)">
<text font-family="Times New Roman" fill="#000000" font-style="italic" style ="white-space:pre;" font-weight="400" text-anchor="start" x="0.0000" y="0.0000" font-size="18.0000" ><![CDATA[RRC]]></text>
</g>
<g transform="matrix(1.0000 0.0000 0.0000 1.0000 97.7968 464.3962)">
<text font-family="Times New Roman" fill="#000000" font-style="italic" style ="white-space:pre;" font-weight="400" text-anchor="start" x="0.0000" y="0.0000" font-size="18.0000" ><![CDATA[Release]]></text>
</g>
<g transform="matrix(0.0625 0.0000 0.0000 0.0625 0.0000 0.0000)">
<path d="M 6003.0000,9077.0000 L 5881.0000,9077.0000 C 5876.0000,9077.0000 5872.0000,9073.0000 5872.0000,9068.0000 C 5872.0000,9063.0000 5876.0000,9059.0000 5881.0000,9059.0000 L 6003.0000,9059.0000 C 6008.0000,9059.0000 6012.0000,9063.0000 6012.0000,9068.0000 C 6012.0000,9073.0000 6008.0000,9077.0000 6003.0000,9077.0000 Z M 5794.0000,9077.0000 L 5672.0000,9077.0000 C 5667.0000,9077.0000 5663.0000,9073.0000 5663.0000,9068.0000 C 5663.0000,9063.0000 5667.0000,9059.0000 5672.0000,9059.0000 L 5794.0000,9059.0000 C 5799.0000,9059.0000 5803.0000,9063.0000 5803.0000,9068.0000 C 5803.0000,9073.0000 5799.0000,9077.0000 5794.0000,9077.0000 Z M 5585.0000,9077.0000 L 5463.0000,9077.0000 C 5458.0000,9077.0000 5454.0000,9073.0000 5454.0000,9068.0000 C 5454.0000,9063.0000 5458.0000,9059.0000 5463.0000,9059.0000 L 5585.0000,9059.0000 C 5590.0000,9059.0000 5593.0000,9063.0000 5593.0000,9068.0000 C 5593.0000,9073.0000 5590.0000,9077.0000 5585.0000,9077.0000 Z M 5375.0000,9077.0000 L 5253.0000,9077.0000 C 5249.0000,9077.0000 5245.0000,9073.0000 5245.0000,9068.0000 C 5245.0000,9063.0000 5249.0000,9059.0000 5253.0000,9059.0000 L 5375.0000,9059.0000 C 5380.0000,9059.0000 5384.0000,9063.0000 5384.0000,9068.0000 C 5384.0000,9073.0000 5380.0000,9077.0000 5375.0000,9077.0000 Z M 5166.0000,9077.0000 L 5044.0000,9077.0000 C 5039.0000,9077.0000 5035.0000,9073.0000 5035.0000,9068.0000 C 5035.0000,9063.0000 5039.0000,9059.0000 5044.0000,9059.0000 L 5166.0000,9059.0000 C 5171.0000,9059.0000 5175.0000,9063.0000 5175.0000,9068.0000 C 5175.0000,9073.0000 5171.0000,9077.0000 5166.0000,9077.0000 Z M 4957.0000,9077.0000 L 4835.0000,9077.0000 C 4830.0000,9077.0000 4826.0000,9073.0000 4826.0000,9068.0000 C 4826.0000,9063.0000 4830.0000,9059.0000 4835.0000,9059.0000 L 4957.0000,9059.0000 C 4962.0000,9059.0000 4966.0000,9063.0000 4966.0000,9068.0000 C 4966.0000,9073.0000 4962.0000,9077.0000 4957.0000,9077.0000 Z M 4748.0000,9077.0000 L 4626.0000,9077.0000 C 4621.0000,9077.0000 4617.0000,9073.0000 4617.0000,9068.0000 C 4617.0000,9063.0000 4621.0000,9059.0000 4626.0000,9059.0000 L 4748.0000,9059.0000 C 4752.0000,9059.0000 4756.0000,9063.0000 4756.0000,9068.0000 C 4756.0000,9073.0000 4752.0000,9077.0000 4748.0000,9077.0000 Z M 4538.0000,9077.0000 L 4416.0000,9077.0000 C 4411.0000,9077.0000 4408.0000,9073.0000 4408.0000,9068.0000 C 4408.0000,9063.0000 4411.0000,9059.0000 4416.0000,9059.0000 L 4538.0000,9059.0000 C 4543.0000,9059.0000 4547.0000,9063.0000 4547.0000,9068.0000 C 4547.0000,9073.0000 4543.0000,9077.0000 4538.0000,9077.0000 Z M 4329.0000,9077.0000 L 4207.0000,9077.0000 C 4202.0000,9077.0000 4198.0000,9073.0000 4198.0000,9068.0000 C 4198.0000,9063.0000 4202.0000,9059.0000 4207.0000,9059.0000 L 4329.0000,9059.0000 C 4334.0000,9059.0000 4338.0000,9063.0000 4338.0000,9068.0000 C 4338.0000,9073.0000 4334.0000,9077.0000 4329.0000,9077.0000 Z M 4120.0000,9077.0000 L 3998.0000,9077.0000 C 3993.0000,9077.0000 3989.0000,9073.0000 3989.0000,9068.0000 C 3989.0000,9063.0000 3993.0000,9059.0000 3998.0000,9059.0000 L 4120.0000,9059.0000 C 4125.0000,9059.0000 4128.0000,9063.0000 4128.0000,9068.0000 C 4128.0000,9073.0000 4125.0000,9077.0000 4120.0000,9077.0000 Z M 3910.0000,9077.0000 L 3788.0000,9077.0000 C 3784.0000,9077.0000 3780.0000,9073.0000 3780.0000,9068.0000 C 3780.0000,9063.0000 3784.0000,9059.0000 3788.0000,9059.0000 L 3910.0000,9059.0000 C 3915.0000,9059.0000 3919.0000,9063.0000 3919.0000,9068.0000 C 3919.0000,9073.0000 3915.0000,9077.0000 3910.0000,9077.0000 Z M 3701.0000,9077.0000 L 3579.0000,9077.0000 C 3574.0000,9077.0000 3570.0000,9073.0000 3570.0000,9068.0000 C 3570.0000,9063.0000 3574.0000,9059.0000 3579.0000,9059.0000 L 3701.0000,9059.0000 C 3706.0000,9059.0000 3710.0000,9063.0000 3710.0000,9068.0000 C 3710.0000,9073.0000 3706.0000,9077.0000 3701.0000,9077.0000 Z M 3492.0000,9077.0000 L 3370.0000,9077.0000 C 3365.0000,9077.0000 3361.0000,9073.0000 3361.0000,9068.0000 C 3361.0000,9063.0000 3365.0000,9059.0000 3370.0000,9059.0000 L 3492.0000,9059.0000 C 3497.0000,9059.0000 3501.0000,9063.0000 3501.0000,9068.0000 C 3501.0000,9073.0000 3497.0000,9077.0000 3492.0000,9077.0000 Z M 3283.0000,9077.0000 L 3161.0000,9077.0000 C 3156.0000,9077.0000 3152.0000,9073.0000 3152.0000,9068.0000 C 3152.0000,9063.0000 3156.0000,9059.0000 3161.0000,9059.0000 L 3283.0000,9059.0000 C 3287.0000,9059.0000 3291.0000,9063.0000 3291.0000,9068.0000 C 3291.0000,9073.0000 3287.0000,9077.0000 3283.0000,9077.0000 Z M 3073.0000,9077.0000 L 2951.0000,9077.0000 C 2946.0000,9077.0000 2943.0000,9073.0000 2943.0000,9068.0000 C 2943.0000,9063.0000 2946.0000,9059.0000 2951.0000,9059.0000 L 3073.0000,9059.0000 C 3078.0000,9059.0000 3082.0000,9063.0000 3082.0000,9068.0000 C 3082.0000,9073.0000 3078.0000,9077.0000 3073.0000,9077.0000 Z M 2864.0000,9077.0000 L 2742.0000,9077.0000 C 2737.0000,9077.0000 2733.0000,9073.0000 2733.0000,9068.0000 C 2733.0000,9063.0000 2737.0000,9059.0000 2742.0000,9059.0000 L 2864.0000,9059.0000 C 2869.0000,9059.0000 2873.0000,9063.0000 2873.0000,9068.0000 C 2873.0000,9073.0000 2869.0000,9077.0000 2864.0000,9077.0000 Z M 2655.0000,9077.0000 L 2533.0000,9077.0000 C 2528.0000,9077.0000 2524.0000,9073.0000 2524.0000,9068.0000 C 2524.0000,9063.0000 2528.0000,9059.0000 2533.0000,9059.0000 L 2655.0000,9059.0000 C 2660.0000,9059.0000 2664.0000,9063.0000 2664.0000,9068.0000 C 2664.0000,9073.0000 2660.0000,9077.0000 2655.0000,9077.0000 Z M 2446.0000,9077.0000 L 2323.0000,9077.0000 C 2319.0000,9077.0000 2315.0000,9073.0000 2315.0000,9068.0000 C 2315.0000,9063.0000 2319.0000,9059.0000 2323.0000,9059.0000 L 2446.0000,9059.0000 C 2450.0000,9059.0000 2454.0000,9063.0000 2454.0000,9068.0000 C 2454.0000,9073.0000 2450.0000,9077.0000 2446.0000,9077.0000 Z M 2236.0000,9077.0000 L 2114.0000,9077.0000 C 2109.0000,9077.0000 2105.0000,9073.0000 2105.0000,9068.0000 C 2105.0000,9063.0000 2109.0000,9059.0000 2114.0000,9059.0000 L 2236.0000,9059.0000 C 2241.0000,9059.0000 2245.0000,9063.0000 2245.0000,9068.0000 C 2245.0000,9073.0000 2241.0000,9077.0000 2236.0000,9077.0000 Z M 2027.0000,9077.0000 L 1905.0000,9077.0000 C 1900.0000,9077.0000 1896.0000,9073.0000 1896.0000,9068.0000 C 1896.0000,9063.0000 1900.0000,9059.0000 1905.0000,9059.0000 L 2027.0000,9059.0000 C 2032.0000,9059.0000 2036.0000,9063.0000 2036.0000,9068.0000 C 2036.0000,9073.0000 2032.0000,9077.0000 2027.0000,9077.0000 Z M 1818.0000,9077.0000 L 1696.0000,9077.0000 C 1691.0000,9077.0000 1687.0000,9073.0000 1687.0000,9068.0000 C 1687.0000,9063.0000 1691.0000,9059.0000 1696.0000,9059.0000 L 1818.0000,9059.0000 C 1823.0000,9059.0000 1826.0000,9063.0000 1826.0000,9068.0000 C 1826.0000,9073.0000 1823.0000,9077.0000 1818.0000,9077.0000 Z M 1608.0000,9077.0000 L 1486.0000,9077.0000 C 1482.0000,9077.0000 1478.0000,9073.0000 1478.0000,9068.0000 C 1478.0000,9063.0000 1482.0000,9059.0000 1486.0000,9059.0000 L 1608.0000,9059.0000 C 1613.0000,9059.0000 1617.0000,9063.0000 1617.0000,9068.0000 C 1617.0000,9073.0000 1613.0000,9077.0000 1608.0000,9077.0000 Z M 1399.0000,9077.0000 L 1277.0000,9077.0000 C 1272.0000,9077.0000 1268.0000,9073.0000 1268.0000,9068.0000 C 1268.0000,9063.0000 1272.0000,9059.0000 1277.0000,9059.0000 L 1399.0000,9059.0000 C 1404.0000,9059.0000 1408.0000,9063.0000 1408.0000,9068.0000 C 1408.0000,9073.0000 1404.0000,9077.0000 1399.0000,9077.0000 Z M 1190.0000,9077.0000 L 1068.0000,9077.0000 C 1063.0000,9077.0000 1059.0000,9073.0000 1059.0000,9068.0000 C 1059.0000,9063.0000 1063.0000,9059.0000 1068.0000,9059.0000 L 1190.0000,9059.0000 C 1195.0000,9059.0000 1199.0000,9063.0000 1199.0000,9068.0000 C 1199.0000,9073.0000 1195.0000,9077.0000 1190.0000,9077.0000 Z M 981.0000,9077.0000 L 858.0000,9077.0000 C 854.0000,9077.0000 850.0000,9073.0000 850.0000,9068.0000 C 850.0000,9063.0000 854.0000,9059.0000 858.0000,9059.0000 L 981.0000,9059.0000 C 985.0000,9059.0000 989.0000,9063.0000 989.0000,9068.0000 C 989.0000,9073.0000 985.0000,9077.0000 981.0000,9077.0000 Z M 771.0000,9077.0000 L 649.0000,9077.0000 C 644.0000,9077.0000 640.0000,9073.0000 640.0000,9068.0000 C 640.0000,9063.0000 644.0000,9059.0000 649.0000,9059.0000 L 771.0000,9059.0000 C 776.0000,9059.0000 780.0000,9063.0000 780.0000,9068.0000 C 780.0000,9073.0000 776.0000,9077.0000 771.0000,9077.0000 Z M 562.0000,9077.0000 L 555.0000,9077.0000 C 550.0000,9077.0000 546.0000,9073.0000 546.0000,9068.0000 C 546.0000,9063.0000 550.0000,9059.0000 555.0000,9059.0000 L 562.0000,9059.0000 C 567.0000,9059.0000 571.0000,9063.0000 571.0000,9068.0000 C 571.0000,9073.0000 567.0000,9077.0000 562.0000,9077.0000 Z "  fill="#000000" stroke="#000000" stroke-width="1.0000"  stroke-linecap="butt"  stroke-linejoin="round" />
</g>
<g transform="matrix(1.0000 0.0000 0.0000 1.0000 0.0000 0.0000)">
</g>
<g transform="matrix(0.0625 0.0000 0.0000 0.0625 0.0000 0.0000)">
<path d="M 5984.0000,8989.0000 L 6219.0000,9068.0000 L 5984.0000,9146.0000 L 5984.0000,8989.0000 Z" stroke-width="1px" stroke="#000000"  fill="#000000" />
</g>
<g transform="matrix(1.0000 0.0000 0.0000 1.0000 0.0000 0.0000)">
</g>
<g transform="matrix(1.0000 0.0000 0.0000 1.0000 46.4933 548.6818)">
<text font-family="Times New Roman" fill="#000000" style ="white-space:pre;" font-weight="400" text-anchor="start" x="0.0000" y="0.0000" font-size="18.0000" ><![CDATA[9]]></text>
</g>
<g transform="matrix(1.0000 0.0000 0.0000 1.0000 55.5769 548.6818)">
<text font-family="Times New Roman" fill="#000000" style ="white-space:pre;" font-weight="400" text-anchor="start" x="0.0000" y="0.0000" font-size="18.0000" ><![CDATA[. ]]></text>
</g>
<g transform="matrix(1.0000 0.0000 0.0000 1.0000 64.6605 548.6818)">
<text font-family="Times New Roman" fill="#000000" font-style="italic" style ="white-space:pre;" font-weight="400" text-anchor="start" x="0.0000" y="0.0000" font-size="18.0000" ><![CDATA[RRCResume]]></text>
</g>
<g transform="matrix(1.0000 0.0000 0.0000 1.0000 155.4679 548.6818)">
<text font-family="Times New Roman" fill="#000000" font-style="italic" style ="white-space:pre;" font-weight="400" text-anchor="start" x="0.0000" y="0.0000" font-size="18.0000" ><![CDATA[Complete]]></text>
</g>
<g transform="matrix(1.0000 0.0000 0.0000 1.0000 225.0931 548.6818)">
<text font-family="Times New Roman" fill="#000000" font-style="italic" style ="white-space:pre;" font-weight="400" text-anchor="start" x="0.0000" y="0.0000" font-size="18.0000" ><![CDATA[/]]></text>
</g>
<g transform="matrix(1.0000 0.0000 0.0000 1.0000 230.1406 548.6818)">
<text font-family="Times New Roman" fill="#000000" font-style="italic" style ="white-space:pre;" font-weight="400" text-anchor="start" x="0.0000" y="0.0000" font-size="18.0000" ><![CDATA[RRC]]></text>
</g>
<g transform="matrix(1.0000 0.0000 0.0000 1.0000 264.4517 548.6818)">
<text font-family="Times New Roman" fill="#000000" font-style="italic" style ="white-space:pre;" font-weight="400" text-anchor="start" x="0.0000" y="0.0000" font-size="18.0000" ><![CDATA[SetupComplete]]></text>
</g>
<g transform="matrix(0.0625 0.0000 0.0000 0.0625 0.0000 0.0000)">
<path d="M 11474.0000,9077.0000 L 11352.0000,9077.0000 C 11347.0000,9077.0000 11343.0000,9073.0000 11343.0000,9068.0000 C 11343.0000,9063.0000 11347.0000,9059.0000 11352.0000,9059.0000 L 11474.0000,9059.0000 C 11479.0000,9059.0000 11483.0000,9063.0000 11483.0000,9068.0000 C 11483.0000,9073.0000 11479.0000,9077.0000 11474.0000,9077.0000 Z M 11265.0000,9077.0000 L 11143.0000,9077.0000 C 11138.0000,9077.0000 11134.0000,9073.0000 11134.0000,9068.0000 C 11134.0000,9063.0000 11138.0000,9059.0000 11143.0000,9059.0000 L 11265.0000,9059.0000 C 11270.0000,9059.0000 11274.0000,9063.0000 11274.0000,9068.0000 C 11274.0000,9073.0000 11270.0000,9077.0000 11265.0000,9077.0000 Z M 11056.0000,9077.0000 L 10933.0000,9077.0000 C 10929.0000,9077.0000 10925.0000,9073.0000 10925.0000,9068.0000 C 10925.0000,9063.0000 10929.0000,9059.0000 10933.0000,9059.0000 L 11056.0000,9059.0000 C 11060.0000,9059.0000 11064.0000,9063.0000 11064.0000,9068.0000 C 11064.0000,9073.0000 11060.0000,9077.0000 11056.0000,9077.0000 Z M 10846.0000,9077.0000 L 10724.0000,9077.0000 C 10719.0000,9077.0000 10715.0000,9073.0000 10715.0000,9068.0000 C 10715.0000,9063.0000 10719.0000,9059.0000 10724.0000,9059.0000 L 10846.0000,9059.0000 C 10851.0000,9059.0000 10855.0000,9063.0000 10855.0000,9068.0000 C 10855.0000,9073.0000 10851.0000,9077.0000 10846.0000,9077.0000 Z M 10637.0000,9077.0000 L 10515.0000,9077.0000 C 10510.0000,9077.0000 10506.0000,9073.0000 10506.0000,9068.0000 C 10506.0000,9063.0000 10510.0000,9059.0000 10515.0000,9059.0000 L 10637.0000,9059.0000 C 10642.0000,9059.0000 10646.0000,9063.0000 10646.0000,9068.0000 C 10646.0000,9073.0000 10642.0000,9077.0000 10637.0000,9077.0000 Z M 10428.0000,9077.0000 L 10306.0000,9077.0000 C 10301.0000,9077.0000 10297.0000,9073.0000 10297.0000,9068.0000 C 10297.0000,9063.0000 10301.0000,9059.0000 10306.0000,9059.0000 L 10428.0000,9059.0000 C 10433.0000,9059.0000 10436.0000,9063.0000 10436.0000,9068.0000 C 10436.0000,9073.0000 10433.0000,9077.0000 10428.0000,9077.0000 Z M 10218.0000,9077.0000 L 10096.0000,9077.0000 C 10092.0000,9077.0000 10088.0000,9073.0000 10088.0000,9068.0000 C 10088.0000,9063.0000 10092.0000,9059.0000 10096.0000,9059.0000 L 10218.0000,9059.0000 C 10223.0000,9059.0000 10227.0000,9063.0000 10227.0000,9068.0000 C 10227.0000,9073.0000 10223.0000,9077.0000 10218.0000,9077.0000 Z M 10009.0000,9077.0000 L 9887.0000,9077.0000 C 9882.0000,9077.0000 9878.0000,9073.0000 9878.0000,9068.0000 C 9878.0000,9063.0000 9882.0000,9059.0000 9887.0000,9059.0000 L 10009.0000,9059.0000 C 10014.0000,9059.0000 10018.0000,9063.0000 10018.0000,9068.0000 C 10018.0000,9073.0000 10014.0000,9077.0000 10009.0000,9077.0000 Z M 9800.0000,9077.0000 L 9678.0000,9077.0000 C 9673.0000,9077.0000 9669.0000,9073.0000 9669.0000,9068.0000 C 9669.0000,9063.0000 9673.0000,9059.0000 9678.0000,9059.0000 L 9800.0000,9059.0000 C 9805.0000,9059.0000 9809.0000,9063.0000 9809.0000,9068.0000 C 9809.0000,9073.0000 9805.0000,9077.0000 9800.0000,9077.0000 Z M 9591.0000,9077.0000 L 9469.0000,9077.0000 C 9464.0000,9077.0000 9460.0000,9073.0000 9460.0000,9068.0000 C 9460.0000,9063.0000 9464.0000,9059.0000 9469.0000,9059.0000 L 9591.0000,9059.0000 C 9595.0000,9059.0000 9599.0000,9063.0000 9599.0000,9068.0000 C 9599.0000,9073.0000 9595.0000,9077.0000 9591.0000,9077.0000 Z M 9381.0000,9077.0000 L 9259.0000,9077.0000 C 9254.0000,9077.0000 9251.0000,9073.0000 9251.0000,9068.0000 C 9251.0000,9063.0000 9254.0000,9059.0000 9259.0000,9059.0000 L 9381.0000,9059.0000 C 9386.0000,9059.0000 9390.0000,9063.0000 9390.0000,9068.0000 C 9390.0000,9073.0000 9386.0000,9077.0000 9381.0000,9077.0000 Z M 9172.0000,9077.0000 L 9050.0000,9077.0000 C 9045.0000,9077.0000 9041.0000,9073.0000 9041.0000,9068.0000 C 9041.0000,9063.0000 9045.0000,9059.0000 9050.0000,9059.0000 L 9172.0000,9059.0000 C 9177.0000,9059.0000 9181.0000,9063.0000 9181.0000,9068.0000 C 9181.0000,9073.0000 9177.0000,9077.0000 9172.0000,9077.0000 Z M 8963.0000,9077.0000 L 8841.0000,9077.0000 C 8836.0000,9077.0000 8832.0000,9073.0000 8832.0000,9068.0000 C 8832.0000,9063.0000 8836.0000,9059.0000 8841.0000,9059.0000 L 8963.0000,9059.0000 C 8968.0000,9059.0000 8971.0000,9063.0000 8971.0000,9068.0000 C 8971.0000,9073.0000 8968.0000,9077.0000 8963.0000,9077.0000 Z M 8753.0000,9077.0000 L 8631.0000,9077.0000 C 8627.0000,9077.0000 8623.0000,9073.0000 8623.0000,9068.0000 C 8623.0000,9063.0000 8627.0000,9059.0000 8631.0000,9059.0000 L 8753.0000,9059.0000 C 8758.0000,9059.0000 8762.0000,9063.0000 8762.0000,9068.0000 C 8762.0000,9073.0000 8758.0000,9077.0000 8753.0000,9077.0000 Z M 8544.0000,9077.0000 L 8422.0000,9077.0000 C 8417.0000,9077.0000 8413.0000,9073.0000 8413.0000,9068.0000 C 8413.0000,9063.0000 8417.0000,9059.0000 8422.0000,9059.0000 L 8544.0000,9059.0000 C 8549.0000,9059.0000 8553.0000,9063.0000 8553.0000,9068.0000 C 8553.0000,9073.0000 8549.0000,9077.0000 8544.0000,9077.0000 Z M 8335.0000,9077.0000 L 8213.0000,9077.0000 C 8208.0000,9077.0000 8204.0000,9073.0000 8204.0000,9068.0000 C 8204.0000,9063.0000 8208.0000,9059.0000 8213.0000,9059.0000 L 8335.0000,9059.0000 C 8340.0000,9059.0000 8344.0000,9063.0000 8344.0000,9068.0000 C 8344.0000,9073.0000 8340.0000,9077.0000 8335.0000,9077.0000 Z M 8126.0000,9077.0000 L 8004.0000,9077.0000 C 7999.0000,9077.0000 7995.0000,9073.0000 7995.0000,9068.0000 C 7995.0000,9063.0000 7999.0000,9059.0000 8004.0000,9059.0000 L 8126.0000,9059.0000 C 8130.0000,9059.0000 8134.0000,9063.0000 8134.0000,9068.0000 C 8134.0000,9073.0000 8130.0000,9077.0000 8126.0000,9077.0000 Z M 7916.0000,9077.0000 L 7794.0000,9077.0000 C 7789.0000,9077.0000 7786.0000,9073.0000 7786.0000,9068.0000 C 7786.0000,9063.0000 7789.0000,9059.0000 7794.0000,9059.0000 L 7916.0000,9059.0000 C 7921.0000,9059.0000 7925.0000,9063.0000 7925.0000,9068.0000 C 7925.0000,9073.0000 7921.0000,9077.0000 7916.0000,9077.0000 Z M 7707.0000,9077.0000 L 7585.0000,9077.0000 C 7580.0000,9077.0000 7576.0000,9073.0000 7576.0000,9068.0000 C 7576.0000,9063.0000 7580.0000,9059.0000 7585.0000,9059.0000 L 7707.0000,9059.0000 C 7712.0000,9059.0000 7716.0000,9063.0000 7716.0000,9068.0000 C 7716.0000,9073.0000 7712.0000,9077.0000 7707.0000,9077.0000 Z M 7498.0000,9077.0000 L 7376.0000,9077.0000 C 7371.0000,9077.0000 7367.0000,9073.0000 7367.0000,9068.0000 C 7367.0000,9063.0000 7371.0000,9059.0000 7376.0000,9059.0000 L 7498.0000,9059.0000 C 7503.0000,9059.0000 7507.0000,9063.0000 7507.0000,9068.0000 C 7507.0000,9073.0000 7503.0000,9077.0000 7498.0000,9077.0000 Z M 7289.0000,9077.0000 L 7166.0000,9077.0000 C 7162.0000,9077.0000 7158.0000,9073.0000 7158.0000,9068.0000 C 7158.0000,9063.0000 7162.0000,9059.0000 7166.0000,9059.0000 L 7289.0000,9059.0000 C 7293.0000,9059.0000 7297.0000,9063.0000 7297.0000,9068.0000 C 7297.0000,9073.0000 7293.0000,9077.0000 7289.0000,9077.0000 Z M 7079.0000,9077.0000 L 6957.0000,9077.0000 C 6952.0000,9077.0000 6948.0000,9073.0000 6948.0000,9068.0000 C 6948.0000,9063.0000 6952.0000,9059.0000 6957.0000,9059.0000 L 7079.0000,9059.0000 C 7084.0000,9059.0000 7088.0000,9063.0000 7088.0000,9068.0000 C 7088.0000,9073.0000 7084.0000,9077.0000 7079.0000,9077.0000 Z M 6870.0000,9077.0000 L 6748.0000,9077.0000 C 6743.0000,9077.0000 6739.0000,9073.0000 6739.0000,9068.0000 C 6739.0000,9063.0000 6743.0000,9059.0000 6748.0000,9059.0000 L 6870.0000,9059.0000 C 6875.0000,9059.0000 6879.0000,9063.0000 6879.0000,9068.0000 C 6879.0000,9073.0000 6875.0000,9077.0000 6870.0000,9077.0000 Z M 6661.0000,9077.0000 L 6539.0000,9077.0000 C 6534.0000,9077.0000 6530.0000,9073.0000 6530.0000,9068.0000 C 6530.0000,9063.0000 6534.0000,9059.0000 6539.0000,9059.0000 L 6661.0000,9059.0000 C 6665.0000,9059.0000 6669.0000,9063.0000 6669.0000,9068.0000 C 6669.0000,9073.0000 6665.0000,9077.0000 6661.0000,9077.0000 Z M 6451.0000,9077.0000 L 6329.0000,9077.0000 C 6325.0000,9077.0000 6321.0000,9073.0000 6321.0000,9068.0000 C 6321.0000,9063.0000 6325.0000,9059.0000 6329.0000,9059.0000 L 6451.0000,9059.0000 C 6456.0000,9059.0000 6460.0000,9063.0000 6460.0000,9068.0000 C 6460.0000,9073.0000 6456.0000,9077.0000 6451.0000,9077.0000 Z M 6242.0000,9077.0000 L 6240.0000,9077.0000 C 6235.0000,9077.0000 6231.0000,9073.0000 6231.0000,9068.0000 C 6231.0000,9063.0000 6235.0000,9059.0000 6240.0000,9059.0000 L 6242.0000,9059.0000 C 6247.0000,9059.0000 6251.0000,9063.0000 6251.0000,9068.0000 C 6251.0000,9073.0000 6247.0000,9077.0000 6242.0000,9077.0000 Z "  fill="#000000" stroke="#000000" stroke-width="1.0000"  stroke-linecap="butt"  stroke-linejoin="round" />
</g>
<g transform="matrix(1.0000 0.0000 0.0000 1.0000 0.0000 0.0000)">
</g>
<g transform="matrix(0.0625 0.0000 0.0000 0.0625 0.0000 0.0000)">
<path d="M 11454.0000,8989.0000 L 11690.0000,9068.0000 L 11454.0000,9146.0000 L 11454.0000,8989.0000 Z" stroke-width="1px" stroke="#000000"  fill="#000000" />
</g>
<g transform="matrix(1.0000 0.0000 0.0000 1.0000 0.0000 0.0000)">
</g>
<g transform="matrix(1.0000 0.0000 0.0000 1.0000 397.8247 551.2051)">
<text font-family="Times New Roman" fill="#000000" style ="white-space:pre;" font-weight="400" text-anchor="start" x="0.0000" y="0.0000" font-size="18.0000" ><![CDATA[10]]></text>
</g>
<g transform="matrix(1.0000 0.0000 0.0000 1.0000 415.9919 551.2051)">
<text font-family="Times New Roman" fill="#000000" style ="white-space:pre;" font-weight="400" text-anchor="start" x="0.0000" y="0.0000" font-size="18.0000" ><![CDATA[. ]]></text>
</g>
<g transform="matrix(1.0000 0.0000 0.0000 1.0000 425.0755 551.2051)">
<text font-family="Times New Roman" fill="#000000" style ="white-space:pre;" font-weight="400" text-anchor="start" x="0.0000" y="0.0000" font-size="18.0000" ><![CDATA[UL RRC MESSAGE TRANSFER]]></text>
</g>
<g transform="matrix(0.0625 0.0000 0.0000 0.0625 0.0000 0.0000)">
<path d="M 11724.0000,2296.0000 L 11602.0000,2296.0000 C 11597.0000,2296.0000 11593.0000,2293.0000 11593.0000,2288.0000 C 11593.0000,2283.0000 11597.0000,2279.0000 11602.0000,2279.0000 L 11724.0000,2279.0000 C 11728.0000,2279.0000 11732.0000,2283.0000 11732.0000,2288.0000 C 11732.0000,2293.0000 11728.0000,2296.0000 11724.0000,2296.0000 Z M 11514.0000,2296.0000 L 11392.0000,2296.0000 C 11388.0000,2296.0000 11384.0000,2293.0000 11384.0000,2288.0000 C 11384.0000,2283.0000 11388.0000,2279.0000 11392.0000,2279.0000 L 11514.0000,2279.0000 C 11519.0000,2279.0000 11523.0000,2283.0000 11523.0000,2288.0000 C 11523.0000,2293.0000 11519.0000,2296.0000 11514.0000,2296.0000 Z M 11305.0000,2296.0000 L 11183.0000,2296.0000 C 11178.0000,2296.0000 11174.0000,2293.0000 11174.0000,2288.0000 C 11174.0000,2283.0000 11178.0000,2279.0000 11183.0000,2279.0000 L 11305.0000,2279.0000 C 11310.0000,2279.0000 11314.0000,2283.0000 11314.0000,2288.0000 C 11314.0000,2293.0000 11310.0000,2296.0000 11305.0000,2296.0000 Z M 11096.0000,2296.0000 L 10974.0000,2296.0000 C 10969.0000,2296.0000 10965.0000,2293.0000 10965.0000,2288.0000 C 10965.0000,2283.0000 10969.0000,2279.0000 10974.0000,2279.0000 L 11096.0000,2279.0000 C 11101.0000,2279.0000 11105.0000,2283.0000 11105.0000,2288.0000 C 11105.0000,2293.0000 11101.0000,2296.0000 11096.0000,2296.0000 Z M 10887.0000,2296.0000 L 10764.0000,2296.0000 C 10760.0000,2296.0000 10756.0000,2293.0000 10756.0000,2288.0000 C 10756.0000,2283.0000 10760.0000,2279.0000 10764.0000,2279.0000 L 10887.0000,2279.0000 C 10891.0000,2279.0000 10895.0000,2283.0000 10895.0000,2288.0000 C 10895.0000,2293.0000 10891.0000,2296.0000 10887.0000,2296.0000 Z M 10677.0000,2296.0000 L 10555.0000,2296.0000 C 10550.0000,2296.0000 10546.0000,2293.0000 10546.0000,2288.0000 C 10546.0000,2283.0000 10550.0000,2279.0000 10555.0000,2279.0000 L 10677.0000,2279.0000 C 10682.0000,2279.0000 10686.0000,2283.0000 10686.0000,2288.0000 C 10686.0000,2293.0000 10682.0000,2296.0000 10677.0000,2296.0000 Z M 10468.0000,2296.0000 L 10346.0000,2296.0000 C 10341.0000,2296.0000 10337.0000,2293.0000 10337.0000,2288.0000 C 10337.0000,2283.0000 10341.0000,2279.0000 10346.0000,2279.0000 L 10468.0000,2279.0000 C 10473.0000,2279.0000 10477.0000,2283.0000 10477.0000,2288.0000 C 10477.0000,2293.0000 10473.0000,2296.0000 10468.0000,2296.0000 Z M 10259.0000,2296.0000 L 10137.0000,2296.0000 C 10132.0000,2296.0000 10128.0000,2293.0000 10128.0000,2288.0000 C 10128.0000,2283.0000 10132.0000,2279.0000 10137.0000,2279.0000 L 10259.0000,2279.0000 C 10264.0000,2279.0000 10267.0000,2283.0000 10267.0000,2288.0000 C 10267.0000,2293.0000 10264.0000,2296.0000 10259.0000,2296.0000 Z M 10049.0000,2296.0000 L 9927.0000,2296.0000 C 9923.0000,2296.0000 9919.0000,2293.0000 9919.0000,2288.0000 C 9919.0000,2283.0000 9923.0000,2279.0000 9927.0000,2279.0000 L 10049.0000,2279.0000 C 10054.0000,2279.0000 10058.0000,2283.0000 10058.0000,2288.0000 C 10058.0000,2293.0000 10054.0000,2296.0000 10049.0000,2296.0000 Z M 9840.0000,2296.0000 L 9718.0000,2296.0000 C 9713.0000,2296.0000 9709.0000,2293.0000 9709.0000,2288.0000 C 9709.0000,2283.0000 9713.0000,2279.0000 9718.0000,2279.0000 L 9840.0000,2279.0000 C 9845.0000,2279.0000 9849.0000,2283.0000 9849.0000,2288.0000 C 9849.0000,2293.0000 9845.0000,2296.0000 9840.0000,2296.0000 Z M 9631.0000,2296.0000 L 9509.0000,2296.0000 C 9504.0000,2296.0000 9500.0000,2293.0000 9500.0000,2288.0000 C 9500.0000,2283.0000 9504.0000,2279.0000 9509.0000,2279.0000 L 9631.0000,2279.0000 C 9636.0000,2279.0000 9640.0000,2283.0000 9640.0000,2288.0000 C 9640.0000,2293.0000 9636.0000,2296.0000 9631.0000,2296.0000 Z M 9422.0000,2296.0000 L 9300.0000,2296.0000 C 9295.0000,2296.0000 9291.0000,2293.0000 9291.0000,2288.0000 C 9291.0000,2283.0000 9295.0000,2279.0000 9300.0000,2279.0000 L 9422.0000,2279.0000 C 9426.0000,2279.0000 9430.0000,2283.0000 9430.0000,2288.0000 C 9430.0000,2293.0000 9426.0000,2296.0000 9422.0000,2296.0000 Z M 9212.0000,2296.0000 L 9090.0000,2296.0000 C 9085.0000,2296.0000 9082.0000,2293.0000 9082.0000,2288.0000 C 9082.0000,2283.0000 9085.0000,2279.0000 9090.0000,2279.0000 L 9212.0000,2279.0000 C 9217.0000,2279.0000 9221.0000,2283.0000 9221.0000,2288.0000 C 9221.0000,2293.0000 9217.0000,2296.0000 9212.0000,2296.0000 Z M 9003.0000,2296.0000 L 8881.0000,2296.0000 C 8876.0000,2296.0000 8872.0000,2293.0000 8872.0000,2288.0000 C 8872.0000,2283.0000 8876.0000,2279.0000 8881.0000,2279.0000 L 9003.0000,2279.0000 C 9008.0000,2279.0000 9012.0000,2283.0000 9012.0000,2288.0000 C 9012.0000,2293.0000 9008.0000,2296.0000 9003.0000,2296.0000 Z M 8794.0000,2296.0000 L 8672.0000,2296.0000 C 8667.0000,2296.0000 8663.0000,2293.0000 8663.0000,2288.0000 C 8663.0000,2283.0000 8667.0000,2279.0000 8672.0000,2279.0000 L 8794.0000,2279.0000 C 8799.0000,2279.0000 8802.0000,2283.0000 8802.0000,2288.0000 C 8802.0000,2293.0000 8799.0000,2296.0000 8794.0000,2296.0000 Z M 8584.0000,2296.0000 L 8462.0000,2296.0000 C 8458.0000,2296.0000 8454.0000,2293.0000 8454.0000,2288.0000 C 8454.0000,2283.0000 8458.0000,2279.0000 8462.0000,2279.0000 L 8584.0000,2279.0000 C 8589.0000,2279.0000 8593.0000,2283.0000 8593.0000,2288.0000 C 8593.0000,2293.0000 8589.0000,2296.0000 8584.0000,2296.0000 Z M 8375.0000,2296.0000 L 8253.0000,2296.0000 C 8248.0000,2296.0000 8244.0000,2293.0000 8244.0000,2288.0000 C 8244.0000,2283.0000 8248.0000,2279.0000 8253.0000,2279.0000 L 8375.0000,2279.0000 C 8380.0000,2279.0000 8384.0000,2283.0000 8384.0000,2288.0000 C 8384.0000,2293.0000 8380.0000,2296.0000 8375.0000,2296.0000 Z M 8166.0000,2296.0000 L 8044.0000,2296.0000 C 8039.0000,2296.0000 8035.0000,2293.0000 8035.0000,2288.0000 C 8035.0000,2283.0000 8039.0000,2279.0000 8044.0000,2279.0000 L 8166.0000,2279.0000 C 8171.0000,2279.0000 8175.0000,2283.0000 8175.0000,2288.0000 C 8175.0000,2293.0000 8171.0000,2296.0000 8166.0000,2296.0000 Z M 7957.0000,2296.0000 L 7835.0000,2296.0000 C 7830.0000,2296.0000 7826.0000,2293.0000 7826.0000,2288.0000 C 7826.0000,2283.0000 7830.0000,2279.0000 7835.0000,2279.0000 L 7957.0000,2279.0000 C 7961.0000,2279.0000 7965.0000,2283.0000 7965.0000,2288.0000 C 7965.0000,2293.0000 7961.0000,2296.0000 7957.0000,2296.0000 Z M 7747.0000,2296.0000 L 7625.0000,2296.0000 C 7620.0000,2296.0000 7617.0000,2293.0000 7617.0000,2288.0000 C 7617.0000,2283.0000 7620.0000,2279.0000 7625.0000,2279.0000 L 7747.0000,2279.0000 C 7752.0000,2279.0000 7756.0000,2283.0000 7756.0000,2288.0000 C 7756.0000,2293.0000 7752.0000,2296.0000 7747.0000,2296.0000 Z M 7538.0000,2296.0000 L 7416.0000,2296.0000 C 7411.0000,2296.0000 7407.0000,2293.0000 7407.0000,2288.0000 C 7407.0000,2283.0000 7411.0000,2279.0000 7416.0000,2279.0000 L 7538.0000,2279.0000 C 7543.0000,2279.0000 7547.0000,2283.0000 7547.0000,2288.0000 C 7547.0000,2293.0000 7543.0000,2296.0000 7538.0000,2296.0000 Z M 7329.0000,2296.0000 L 7207.0000,2296.0000 C 7202.0000,2296.0000 7198.0000,2293.0000 7198.0000,2288.0000 C 7198.0000,2283.0000 7202.0000,2279.0000 7207.0000,2279.0000 L 7329.0000,2279.0000 C 7334.0000,2279.0000 7338.0000,2283.0000 7338.0000,2288.0000 C 7338.0000,2293.0000 7334.0000,2296.0000 7329.0000,2296.0000 Z M 7120.0000,2296.0000 L 6997.0000,2296.0000 C 6993.0000,2296.0000 6989.0000,2293.0000 6989.0000,2288.0000 C 6989.0000,2283.0000 6993.0000,2279.0000 6997.0000,2279.0000 L 7120.0000,2279.0000 C 7124.0000,2279.0000 7128.0000,2283.0000 7128.0000,2288.0000 C 7128.0000,2293.0000 7124.0000,2296.0000 7120.0000,2296.0000 Z M 6910.0000,2296.0000 L 6788.0000,2296.0000 C 6783.0000,2296.0000 6779.0000,2293.0000 6779.0000,2288.0000 C 6779.0000,2283.0000 6783.0000,2279.0000 6788.0000,2279.0000 L 6910.0000,2279.0000 C 6915.0000,2279.0000 6919.0000,2283.0000 6919.0000,2288.0000 C 6919.0000,2293.0000 6915.0000,2296.0000 6910.0000,2296.0000 Z M 6701.0000,2296.0000 L 6579.0000,2296.0000 C 6574.0000,2296.0000 6570.0000,2293.0000 6570.0000,2288.0000 C 6570.0000,2283.0000 6574.0000,2279.0000 6579.0000,2279.0000 L 6701.0000,2279.0000 C 6706.0000,2279.0000 6710.0000,2283.0000 6710.0000,2288.0000 C 6710.0000,2293.0000 6706.0000,2296.0000 6701.0000,2296.0000 Z M 6492.0000,2296.0000 L 6434.0000,2296.0000 C 6430.0000,2296.0000 6426.0000,2293.0000 6426.0000,2288.0000 C 6426.0000,2283.0000 6430.0000,2279.0000 6434.0000,2279.0000 L 6492.0000,2279.0000 C 6496.0000,2279.0000 6500.0000,2283.0000 6500.0000,2288.0000 C 6500.0000,2293.0000 6496.0000,2296.0000 6492.0000,2296.0000 Z "  fill="#000000" stroke="#000000" stroke-width="1.0000"  stroke-linecap="butt"  stroke-linejoin="round" />
</g>
<g transform="matrix(1.0000 0.0000 0.0000 1.0000 0.0000 0.0000)">
</g>
<g transform="matrix(0.0625 0.0000 0.0000 0.0625 0.0000 0.0000)">
<path d="M 6454.0000,2366.0000 L 6219.0000,2288.0000 L 6454.0000,2209.0000 L 6454.0000,2366.0000 Z" stroke-width="1px" stroke="#000000"  fill="#000000" />
</g>
<g transform="matrix(1.0000 0.0000 0.0000 1.0000 0.0000 0.0000)">
</g>
<g transform="matrix(1.0000 0.0000 0.0000 1.0000 395.2226 121.5395)">
<text font-family="Times New Roman" fill="#000000" style ="white-space:pre;" font-weight="400" text-anchor="start" x="0.0000" y="0.0000" font-size="18.0000" ><![CDATA[1]]></text>
</g>
<g transform="matrix(1.0000 0.0000 0.0000 1.0000 404.3062 121.5395)">
<text font-family="Times New Roman" fill="#000000" style ="white-space:pre;" font-weight="400" text-anchor="start" x="0.0000" y="0.0000" font-size="18.0000" ><![CDATA[. ]]></text>
</g>
<g transform="matrix(1.0000 0.0000 0.0000 1.0000 413.3899 121.5395)">
<text font-family="Times New Roman" fill="#000000" style ="white-space:pre;" font-weight="400" text-anchor="start" x="0.0000" y="0.0000" font-size="18.0000" ><![CDATA[PAGING]]></text>
</g>
<g transform="matrix(0.0625 0.0000 0.0000 0.0625 0.0000 0.0000)">
<path d="M 6219.0000,2296.0000 L 6097.0000,2296.0000 C 6092.0000,2296.0000 6088.0000,2293.0000 6088.0000,2288.0000 C 6088.0000,2283.0000 6092.0000,2279.0000 6097.0000,2279.0000 L 6219.0000,2279.0000 C 6223.0000,2279.0000 6227.0000,2283.0000 6227.0000,2288.0000 C 6227.0000,2293.0000 6223.0000,2296.0000 6219.0000,2296.0000 Z M 6009.0000,2296.0000 L 5887.0000,2296.0000 C 5882.0000,2296.0000 5879.0000,2293.0000 5879.0000,2288.0000 C 5879.0000,2283.0000 5882.0000,2279.0000 5887.0000,2279.0000 L 6009.0000,2279.0000 C 6014.0000,2279.0000 6018.0000,2283.0000 6018.0000,2288.0000 C 6018.0000,2293.0000 6014.0000,2296.0000 6009.0000,2296.0000 Z M 5800.0000,2296.0000 L 5678.0000,2296.0000 C 5673.0000,2296.0000 5669.0000,2293.0000 5669.0000,2288.0000 C 5669.0000,2283.0000 5673.0000,2279.0000 5678.0000,2279.0000 L 5800.0000,2279.0000 C 5805.0000,2279.0000 5809.0000,2283.0000 5809.0000,2288.0000 C 5809.0000,2293.0000 5805.0000,2296.0000 5800.0000,2296.0000 Z M 5591.0000,2296.0000 L 5469.0000,2296.0000 C 5464.0000,2296.0000 5460.0000,2293.0000 5460.0000,2288.0000 C 5460.0000,2283.0000 5464.0000,2279.0000 5469.0000,2279.0000 L 5591.0000,2279.0000 C 5596.0000,2279.0000 5600.0000,2283.0000 5600.0000,2288.0000 C 5600.0000,2293.0000 5596.0000,2296.0000 5591.0000,2296.0000 Z M 5382.0000,2296.0000 L 5259.0000,2296.0000 C 5255.0000,2296.0000 5251.0000,2293.0000 5251.0000,2288.0000 C 5251.0000,2283.0000 5255.0000,2279.0000 5259.0000,2279.0000 L 5382.0000,2279.0000 C 5386.0000,2279.0000 5390.0000,2283.0000 5390.0000,2288.0000 C 5390.0000,2293.0000 5386.0000,2296.0000 5382.0000,2296.0000 Z M 5172.0000,2296.0000 L 5050.0000,2296.0000 C 5045.0000,2296.0000 5041.0000,2293.0000 5041.0000,2288.0000 C 5041.0000,2283.0000 5045.0000,2279.0000 5050.0000,2279.0000 L 5172.0000,2279.0000 C 5177.0000,2279.0000 5181.0000,2283.0000 5181.0000,2288.0000 C 5181.0000,2293.0000 5177.0000,2296.0000 5172.0000,2296.0000 Z M 4963.0000,2296.0000 L 4841.0000,2296.0000 C 4836.0000,2296.0000 4832.0000,2293.0000 4832.0000,2288.0000 C 4832.0000,2283.0000 4836.0000,2279.0000 4841.0000,2279.0000 L 4963.0000,2279.0000 C 4968.0000,2279.0000 4972.0000,2283.0000 4972.0000,2288.0000 C 4972.0000,2293.0000 4968.0000,2296.0000 4963.0000,2296.0000 Z M 4754.0000,2296.0000 L 4632.0000,2296.0000 C 4627.0000,2296.0000 4623.0000,2293.0000 4623.0000,2288.0000 C 4623.0000,2283.0000 4627.0000,2279.0000 4632.0000,2279.0000 L 4754.0000,2279.0000 C 4758.0000,2279.0000 4762.0000,2283.0000 4762.0000,2288.0000 C 4762.0000,2293.0000 4758.0000,2296.0000 4754.0000,2296.0000 Z M 4544.0000,2296.0000 L 4422.0000,2296.0000 C 4418.0000,2296.0000 4414.0000,2293.0000 4414.0000,2288.0000 C 4414.0000,2283.0000 4418.0000,2279.0000 4422.0000,2279.0000 L 4544.0000,2279.0000 C 4549.0000,2279.0000 4553.0000,2283.0000 4553.0000,2288.0000 C 4553.0000,2293.0000 4549.0000,2296.0000 4544.0000,2296.0000 Z M 4335.0000,2296.0000 L 4213.0000,2296.0000 C 4208.0000,2296.0000 4204.0000,2293.0000 4204.0000,2288.0000 C 4204.0000,2283.0000 4208.0000,2279.0000 4213.0000,2279.0000 L 4335.0000,2279.0000 C 4340.0000,2279.0000 4344.0000,2283.0000 4344.0000,2288.0000 C 4344.0000,2293.0000 4340.0000,2296.0000 4335.0000,2296.0000 Z M 4126.0000,2296.0000 L 4004.0000,2296.0000 C 3999.0000,2296.0000 3995.0000,2293.0000 3995.0000,2288.0000 C 3995.0000,2283.0000 3999.0000,2279.0000 4004.0000,2279.0000 L 4126.0000,2279.0000 C 4131.0000,2279.0000 4135.0000,2283.0000 4135.0000,2288.0000 C 4135.0000,2293.0000 4131.0000,2296.0000 4126.0000,2296.0000 Z M 3917.0000,2296.0000 L 3794.0000,2296.0000 C 3790.0000,2296.0000 3786.0000,2293.0000 3786.0000,2288.0000 C 3786.0000,2283.0000 3790.0000,2279.0000 3794.0000,2279.0000 L 3917.0000,2279.0000 C 3921.0000,2279.0000 3925.0000,2283.0000 3925.0000,2288.0000 C 3925.0000,2293.0000 3921.0000,2296.0000 3917.0000,2296.0000 Z M 3707.0000,2296.0000 L 3585.0000,2296.0000 C 3580.0000,2296.0000 3576.0000,2293.0000 3576.0000,2288.0000 C 3576.0000,2283.0000 3580.0000,2279.0000 3585.0000,2279.0000 L 3707.0000,2279.0000 C 3712.0000,2279.0000 3716.0000,2283.0000 3716.0000,2288.0000 C 3716.0000,2293.0000 3712.0000,2296.0000 3707.0000,2296.0000 Z M 3498.0000,2296.0000 L 3376.0000,2296.0000 C 3371.0000,2296.0000 3367.0000,2293.0000 3367.0000,2288.0000 C 3367.0000,2283.0000 3371.0000,2279.0000 3376.0000,2279.0000 L 3498.0000,2279.0000 C 3503.0000,2279.0000 3507.0000,2283.0000 3507.0000,2288.0000 C 3507.0000,2293.0000 3503.0000,2296.0000 3498.0000,2296.0000 Z M 3289.0000,2296.0000 L 3167.0000,2296.0000 C 3162.0000,2296.0000 3158.0000,2293.0000 3158.0000,2288.0000 C 3158.0000,2283.0000 3162.0000,2279.0000 3167.0000,2279.0000 L 3289.0000,2279.0000 C 3294.0000,2279.0000 3297.0000,2283.0000 3297.0000,2288.0000 C 3297.0000,2293.0000 3294.0000,2296.0000 3289.0000,2296.0000 Z M 3079.0000,2296.0000 L 2957.0000,2296.0000 C 2953.0000,2296.0000 2949.0000,2293.0000 2949.0000,2288.0000 C 2949.0000,2283.0000 2953.0000,2279.0000 2957.0000,2279.0000 L 3079.0000,2279.0000 C 3084.0000,2279.0000 3088.0000,2283.0000 3088.0000,2288.0000 C 3088.0000,2293.0000 3084.0000,2296.0000 3079.0000,2296.0000 Z M 2870.0000,2296.0000 L 2748.0000,2296.0000 C 2743.0000,2296.0000 2739.0000,2293.0000 2739.0000,2288.0000 C 2739.0000,2283.0000 2743.0000,2279.0000 2748.0000,2279.0000 L 2870.0000,2279.0000 C 2875.0000,2279.0000 2879.0000,2283.0000 2879.0000,2288.0000 C 2879.0000,2293.0000 2875.0000,2296.0000 2870.0000,2296.0000 Z M 2661.0000,2296.0000 L 2539.0000,2296.0000 C 2534.0000,2296.0000 2530.0000,2293.0000 2530.0000,2288.0000 C 2530.0000,2283.0000 2534.0000,2279.0000 2539.0000,2279.0000 L 2661.0000,2279.0000 C 2666.0000,2279.0000 2670.0000,2283.0000 2670.0000,2288.0000 C 2670.0000,2293.0000 2666.0000,2296.0000 2661.0000,2296.0000 Z M 2452.0000,2296.0000 L 2330.0000,2296.0000 C 2325.0000,2296.0000 2321.0000,2293.0000 2321.0000,2288.0000 C 2321.0000,2283.0000 2325.0000,2279.0000 2330.0000,2279.0000 L 2452.0000,2279.0000 C 2456.0000,2279.0000 2460.0000,2283.0000 2460.0000,2288.0000 C 2460.0000,2293.0000 2456.0000,2296.0000 2452.0000,2296.0000 Z M 2242.0000,2296.0000 L 2120.0000,2296.0000 C 2115.0000,2296.0000 2112.0000,2293.0000 2112.0000,2288.0000 C 2112.0000,2283.0000 2115.0000,2279.0000 2120.0000,2279.0000 L 2242.0000,2279.0000 C 2247.0000,2279.0000 2251.0000,2283.0000 2251.0000,2288.0000 C 2251.0000,2293.0000 2247.0000,2296.0000 2242.0000,2296.0000 Z M 2033.0000,2296.0000 L 1911.0000,2296.0000 C 1906.0000,2296.0000 1902.0000,2293.0000 1902.0000,2288.0000 C 1902.0000,2283.0000 1906.0000,2279.0000 1911.0000,2279.0000 L 2033.0000,2279.0000 C 2038.0000,2279.0000 2042.0000,2283.0000 2042.0000,2288.0000 C 2042.0000,2293.0000 2038.0000,2296.0000 2033.0000,2296.0000 Z M 1824.0000,2296.0000 L 1702.0000,2296.0000 C 1697.0000,2296.0000 1693.0000,2293.0000 1693.0000,2288.0000 C 1693.0000,2283.0000 1697.0000,2279.0000 1702.0000,2279.0000 L 1824.0000,2279.0000 C 1829.0000,2279.0000 1832.0000,2283.0000 1832.0000,2288.0000 C 1832.0000,2293.0000 1829.0000,2296.0000 1824.0000,2296.0000 Z M 1614.0000,2296.0000 L 1492.0000,2296.0000 C 1488.0000,2296.0000 1484.0000,2293.0000 1484.0000,2288.0000 C 1484.0000,2283.0000 1488.0000,2279.0000 1492.0000,2279.0000 L 1614.0000,2279.0000 C 1619.0000,2279.0000 1623.0000,2283.0000 1623.0000,2288.0000 C 1623.0000,2293.0000 1619.0000,2296.0000 1614.0000,2296.0000 Z M 1405.0000,2296.0000 L 1283.0000,2296.0000 C 1278.0000,2296.0000 1274.0000,2293.0000 1274.0000,2288.0000 C 1274.0000,2283.0000 1278.0000,2279.0000 1283.0000,2279.0000 L 1405.0000,2279.0000 C 1410.0000,2279.0000 1414.0000,2283.0000 1414.0000,2288.0000 C 1414.0000,2293.0000 1410.0000,2296.0000 1405.0000,2296.0000 Z M 1196.0000,2296.0000 L 1074.0000,2296.0000 C 1069.0000,2296.0000 1065.0000,2293.0000 1065.0000,2288.0000 C 1065.0000,2283.0000 1069.0000,2279.0000 1074.0000,2279.0000 L 1196.0000,2279.0000 C 1201.0000,2279.0000 1205.0000,2283.0000 1205.0000,2288.0000 C 1205.0000,2293.0000 1201.0000,2296.0000 1196.0000,2296.0000 Z M 987.0000,2296.0000 L 865.0000,2296.0000 C 860.0000,2296.0000 856.0000,2293.0000 856.0000,2288.0000 C 856.0000,2283.0000 860.0000,2279.0000 865.0000,2279.0000 L 987.0000,2279.0000 C 991.0000,2279.0000 995.0000,2283.0000 995.0000,2288.0000 C 995.0000,2293.0000 991.0000,2296.0000 987.0000,2296.0000 Z M 777.0000,2296.0000 L 771.0000,2296.0000 C 766.0000,2296.0000 762.0000,2293.0000 762.0000,2288.0000 C 762.0000,2283.0000 766.0000,2279.0000 771.0000,2279.0000 L 777.0000,2279.0000 C 782.0000,2279.0000 786.0000,2283.0000 786.0000,2288.0000 C 786.0000,2293.0000 782.0000,2296.0000 777.0000,2296.0000 Z "  fill="#000000" stroke="#000000" stroke-width="1.0000"  stroke-linecap="butt"  stroke-linejoin="round" />
</g>
<g transform="matrix(1.0000 0.0000 0.0000 1.0000 0.0000 0.0000)">
</g>
<g transform="matrix(0.0625 0.0000 0.0000 0.0625 0.0000 0.0000)">
<path d="M 791.0000,2366.0000 L 555.0000,2288.0000 L 791.0000,2209.0000 L 791.0000,2366.0000 Z" stroke-width="1px" stroke="#000000"  fill="#000000" />
</g>
<g transform="matrix(1.0000 0.0000 0.0000 1.0000 0.0000 0.0000)">
</g>
<g transform="matrix(1.0000 0.0000 0.0000 1.0000 86.4774 123.6893)">
<text font-family="Times New Roman" fill="#000000" style ="white-space:pre;" font-weight="400" text-anchor="start" x="0.0000" y="0.0000" font-size="18.0000" ><![CDATA[2]]></text>
</g>
<g transform="matrix(1.0000 0.0000 0.0000 1.0000 95.5610 123.6893)">
<text font-family="Times New Roman" fill="#000000" style ="white-space:pre;" font-weight="400" text-anchor="start" x="0.0000" y="0.0000" font-size="18.0000" ><![CDATA[. ]]></text>
</g>
<g transform="matrix(1.0000 0.0000 0.0000 1.0000 104.6446 123.6893)">
<text font-family="Times New Roman" fill="#000000" font-style="italic" style ="white-space:pre;" font-weight="400" text-anchor="start" x="0.0000" y="0.0000" font-size="18.0000" ><![CDATA[Paging]]></text>
</g>
<g transform="matrix(1.0000 0.0000 0.0000 1.0000 157.1234 123.6893)">
<text font-family="Times New Roman" fill="#000000" style ="white-space:pre;" font-weight="400" text-anchor="start" x="0.0000" y="0.0000" font-size="18.0000" ><![CDATA[ ]]></text>
</g>
</g>
</svg>
