<?xml version="1.0"  encoding="UTF-8" standalone="no"?>
<svg version="1.1" xmlns="http://www.w3.org/2000/svg" xmlns:xlink="http://www.w3.org/1999/xlink" width="479.0000" height="416.0000">
<g transform="translate(-21.0000, -32.0000)">
<g transform="matrix(0.0625 0.0000 0.0000 0.0625 0.0000 0.0000)">
<path d="M 372.0000,546.0000 L 372.0000,1232.0000 L 1745.0000,1232.0000 L 1745.0000,546.0000 L 372.0000,546.0000 Z" stroke-width="1px" stroke="#E8EEF7"  fill="#E8EEF7" />
</g>
<g transform="matrix(1.0000 0.0000 0.0000 1.0000 0.0000 0.0000)">
</g>
<g transform="matrix(0.0625 0.0000 0.0000 0.0625 0.0000 0.0000)">
<path d="M 372.0000,1232.0000 L 1745.0000,1232.0000 L 1745.0000,546.0000 L 372.0000,546.0000 L 372.0000,1232.0000 Z" stroke="#000000" stroke-width="16.0000"  stroke-linecap="round"  stroke-linejoin="round" fill="none" />
</g>
<g transform="matrix(1.0000 0.0000 0.0000 1.0000 0.0000 0.0000)">
</g>
<g transform="matrix(1.0000 0.0000 0.0000 1.0000 32.8038 61.4921)">
<text font-family="Arial" fill="#000000" style ="white-space:pre;" font-weight="400" text-anchor="start" x="0.0000" y="0.0000" font-size="18.0000" ><![CDATA[gNB]]></text>
</g>
<g transform="matrix(1.0000 0.0000 0.0000 1.0000 68.1441 61.4921)">
<text font-family="Arial" fill="#000000" style ="white-space:pre;" font-weight="400" text-anchor="start" x="0.0000" y="0.0000" font-size="18.0000" ><![CDATA[-]]></text>
</g>
<g transform="matrix(1.0000 0.0000 0.0000 1.0000 74.1936 61.4921)">
<text font-family="Arial" fill="#000000" style ="white-space:pre;" font-weight="400" text-anchor="start" x="0.0000" y="0.0000" font-size="18.0000" ><![CDATA[DU]]></text>
</g>
<g transform="matrix(0.0625 0.0000 0.0000 0.0625 0.0000 0.0000)">
<path d="M 2889.0000,546.0000 L 2889.0000,1232.0000 L 4846.0000,1232.0000 L 4846.0000,546.0000 L 2889.0000,546.0000 Z" stroke-width="1px" stroke="#E8EEF7"  fill="#E8EEF7" />
</g>
<g transform="matrix(1.0000 0.0000 0.0000 1.0000 0.0000 0.0000)">
</g>
<g transform="matrix(0.0625 0.0000 0.0000 0.0625 0.0000 0.0000)">
<path d="M 2889.0000,1232.0000 L 4846.0000,1232.0000 L 4846.0000,546.0000 L 2889.0000,546.0000 L 2889.0000,1232.0000 Z" stroke="#000000" stroke-width="16.0000"  stroke-linecap="round"  stroke-linejoin="round" fill="none" />
</g>
<g transform="matrix(1.0000 0.0000 0.0000 1.0000 0.0000 0.0000)">
</g>
<g transform="matrix(1.0000 0.0000 0.0000 1.0000 192.7274 61.4921)">
<text font-family="Arial" fill="#000000" style ="white-space:pre;" font-weight="400" text-anchor="start" x="0.0000" y="0.0000" font-size="18.0000" ><![CDATA[gNB]]></text>
</g>
<g transform="matrix(1.0000 0.0000 0.0000 1.0000 228.0676 61.4921)">
<text font-family="Arial" fill="#000000" style ="white-space:pre;" font-weight="400" text-anchor="start" x="0.0000" y="0.0000" font-size="18.0000" ><![CDATA[-]]></text>
</g>
<g transform="matrix(1.0000 0.0000 0.0000 1.0000 234.1171 61.4921)">
<text font-family="Arial" fill="#000000" style ="white-space:pre;" font-weight="400" text-anchor="start" x="0.0000" y="0.0000" font-size="18.0000" ><![CDATA[CU]]></text>
</g>
<g transform="matrix(1.0000 0.0000 0.0000 1.0000 260.3559 61.4921)">
<text font-family="Arial" fill="#000000" style ="white-space:pre;" font-weight="400" text-anchor="start" x="0.0000" y="0.0000" font-size="18.0000" ><![CDATA[-]]></text>
</g>
<g transform="matrix(1.0000 0.0000 0.0000 1.0000 266.4054 61.4921)">
<text font-family="Arial" fill="#000000" style ="white-space:pre;" font-weight="400" text-anchor="start" x="0.0000" y="0.0000" font-size="18.0000" ><![CDATA[UP]]></text>
</g>
<g transform="matrix(0.0625 0.0000 0.0000 0.0625 0.0000 0.0000)">
<path d="M 5635.0000,546.0000 L 5635.0000,1232.0000 L 7421.0000,1232.0000 L 7421.0000,546.0000 L 5635.0000,546.0000 Z" stroke-width="1px" stroke="#E8EEF7"  fill="#E8EEF7" />
</g>
<g transform="matrix(1.0000 0.0000 0.0000 1.0000 0.0000 0.0000)">
</g>
<g transform="matrix(0.0625 0.0000 0.0000 0.0625 0.0000 0.0000)">
<path d="M 5635.0000,1232.0000 L 7421.0000,1232.0000 L 7421.0000,546.0000 L 5635.0000,546.0000 L 5635.0000,1232.0000 Z" stroke="#000000" stroke-width="16.0000"  stroke-linecap="round"  stroke-linejoin="round" fill="none" />
</g>
<g transform="matrix(1.0000 0.0000 0.0000 1.0000 0.0000 0.0000)">
</g>
<g transform="matrix(1.0000 0.0000 0.0000 1.0000 359.0167 61.4921)">
<text font-family="Arial" fill="#000000" style ="white-space:pre;" font-weight="400" text-anchor="start" x="0.0000" y="0.0000" font-size="18.0000" ><![CDATA[gNB]]></text>
</g>
<g transform="matrix(1.0000 0.0000 0.0000 1.0000 394.3569 61.4921)">
<text font-family="Arial" fill="#000000" style ="white-space:pre;" font-weight="400" text-anchor="start" x="0.0000" y="0.0000" font-size="18.0000" ><![CDATA[-]]></text>
</g>
<g transform="matrix(1.0000 0.0000 0.0000 1.0000 400.4064 61.4921)">
<text font-family="Arial" fill="#000000" style ="white-space:pre;" font-weight="400" text-anchor="start" x="0.0000" y="0.0000" font-size="18.0000" ><![CDATA[CU]]></text>
</g>
<g transform="matrix(1.0000 0.0000 0.0000 1.0000 426.6452 61.4921)">
<text font-family="Arial" fill="#000000" style ="white-space:pre;" font-weight="400" text-anchor="start" x="0.0000" y="0.0000" font-size="18.0000" ><![CDATA[-]]></text>
</g>
<g transform="matrix(1.0000 0.0000 0.0000 1.0000 432.6947 61.4921)">
<text font-family="Arial" fill="#000000" style ="white-space:pre;" font-weight="400" text-anchor="start" x="0.0000" y="0.0000" font-size="18.0000" ><![CDATA[CP]]></text>
</g>
<g transform="matrix(0.0625 0.0000 0.0000 0.0625 0.0000 0.0000)">
<path d="M 1058.0000,1232.0000 L 1058.0000,7134.0000 " stroke="#000000" stroke-width="16.0000"  stroke-linecap="round"  stroke-linejoin="round" fill="none" />
</g>
<g transform="matrix(1.0000 0.0000 0.0000 1.0000 0.0000 0.0000)">
</g>
<g transform="matrix(0.0625 0.0000 0.0000 0.0625 0.0000 0.0000)">
<path d="M 3805.0000,1232.0000 L 3805.0000,7134.0000 " stroke="#000000" stroke-width="16.0000"  stroke-linecap="round"  stroke-linejoin="round" fill="none" />
</g>
<g transform="matrix(1.0000 0.0000 0.0000 1.0000 0.0000 0.0000)">
</g>
<g transform="matrix(0.0625 0.0000 0.0000 0.0625 0.0000 0.0000)">
<path d="M 6551.0000,1232.0000 L 6551.0000,7134.0000 " stroke="#000000" stroke-width="16.0000"  stroke-linecap="round"  stroke-linejoin="round" fill="none" />
</g>
<g transform="matrix(1.0000 0.0000 0.0000 1.0000 0.0000 0.0000)">
</g>
<g transform="matrix(0.0625 0.0000 0.0000 0.0625 0.0000 0.0000)">
<path d="M 1242.0000,3710.0000 L 1354.0000,3710.0000 C 1359.0000,3710.0000 1362.0000,3713.0000 1362.0000,3718.0000 C 1362.0000,3722.0000 1359.0000,3726.0000 1354.0000,3726.0000 L 1242.0000,3726.0000 C 1238.0000,3726.0000 1234.0000,3722.0000 1234.0000,3718.0000 C 1234.0000,3713.0000 1238.0000,3710.0000 1242.0000,3710.0000 Z M 1434.0000,3710.0000 L 1547.0000,3710.0000 C 1551.0000,3710.0000 1555.0000,3713.0000 1555.0000,3718.0000 C 1555.0000,3722.0000 1551.0000,3726.0000 1547.0000,3726.0000 L 1434.0000,3726.0000 C 1430.0000,3726.0000 1426.0000,3722.0000 1426.0000,3718.0000 C 1426.0000,3713.0000 1430.0000,3710.0000 1434.0000,3710.0000 Z M 1627.0000,3710.0000 L 1739.0000,3710.0000 C 1743.0000,3710.0000 1747.0000,3713.0000 1747.0000,3718.0000 C 1747.0000,3722.0000 1743.0000,3726.0000 1739.0000,3726.0000 L 1627.0000,3726.0000 C 1622.0000,3726.0000 1619.0000,3722.0000 1619.0000,3718.0000 C 1619.0000,3713.0000 1622.0000,3710.0000 1627.0000,3710.0000 Z M 1819.0000,3710.0000 L 1931.0000,3710.0000 C 1935.0000,3710.0000 1939.0000,3713.0000 1939.0000,3718.0000 C 1939.0000,3722.0000 1935.0000,3726.0000 1931.0000,3726.0000 L 1819.0000,3726.0000 C 1814.0000,3726.0000 1811.0000,3722.0000 1811.0000,3718.0000 C 1811.0000,3713.0000 1814.0000,3710.0000 1819.0000,3710.0000 Z M 2011.0000,3710.0000 L 2123.0000,3710.0000 C 2128.0000,3710.0000 2131.0000,3713.0000 2131.0000,3718.0000 C 2131.0000,3722.0000 2128.0000,3726.0000 2123.0000,3726.0000 L 2011.0000,3726.0000 C 2007.0000,3726.0000 2003.0000,3722.0000 2003.0000,3718.0000 C 2003.0000,3713.0000 2007.0000,3710.0000 2011.0000,3710.0000 Z M 2203.0000,3710.0000 L 2315.0000,3710.0000 C 2320.0000,3710.0000 2323.0000,3713.0000 2323.0000,3718.0000 C 2323.0000,3722.0000 2320.0000,3726.0000 2315.0000,3726.0000 L 2203.0000,3726.0000 C 2199.0000,3726.0000 2195.0000,3722.0000 2195.0000,3718.0000 C 2195.0000,3713.0000 2199.0000,3710.0000 2203.0000,3710.0000 Z M 2395.0000,3710.0000 L 2507.0000,3710.0000 C 2512.0000,3710.0000 2515.0000,3713.0000 2515.0000,3718.0000 C 2515.0000,3722.0000 2512.0000,3726.0000 2507.0000,3726.0000 L 2395.0000,3726.0000 C 2391.0000,3726.0000 2387.0000,3722.0000 2387.0000,3718.0000 C 2387.0000,3713.0000 2391.0000,3710.0000 2395.0000,3710.0000 Z M 2588.0000,3710.0000 L 2700.0000,3710.0000 C 2704.0000,3710.0000 2708.0000,3713.0000 2708.0000,3718.0000 C 2708.0000,3722.0000 2704.0000,3726.0000 2700.0000,3726.0000 L 2588.0000,3726.0000 C 2583.0000,3726.0000 2580.0000,3722.0000 2580.0000,3718.0000 C 2580.0000,3713.0000 2583.0000,3710.0000 2588.0000,3710.0000 Z M 2780.0000,3710.0000 L 2892.0000,3710.0000 C 2896.0000,3710.0000 2900.0000,3713.0000 2900.0000,3718.0000 C 2900.0000,3722.0000 2896.0000,3726.0000 2892.0000,3726.0000 L 2780.0000,3726.0000 C 2775.0000,3726.0000 2772.0000,3722.0000 2772.0000,3718.0000 C 2772.0000,3713.0000 2775.0000,3710.0000 2780.0000,3710.0000 Z M 2972.0000,3710.0000 L 3084.0000,3710.0000 C 3088.0000,3710.0000 3092.0000,3713.0000 3092.0000,3718.0000 C 3092.0000,3722.0000 3088.0000,3726.0000 3084.0000,3726.0000 L 2972.0000,3726.0000 C 2968.0000,3726.0000 2964.0000,3722.0000 2964.0000,3718.0000 C 2964.0000,3713.0000 2968.0000,3710.0000 2972.0000,3710.0000 Z M 3164.0000,3710.0000 L 3276.0000,3710.0000 C 3281.0000,3710.0000 3284.0000,3713.0000 3284.0000,3718.0000 C 3284.0000,3722.0000 3281.0000,3726.0000 3276.0000,3726.0000 L 3164.0000,3726.0000 C 3160.0000,3726.0000 3156.0000,3722.0000 3156.0000,3718.0000 C 3156.0000,3713.0000 3160.0000,3710.0000 3164.0000,3710.0000 Z M 3356.0000,3710.0000 L 3468.0000,3710.0000 C 3473.0000,3710.0000 3476.0000,3713.0000 3476.0000,3718.0000 C 3476.0000,3722.0000 3473.0000,3726.0000 3468.0000,3726.0000 L 3356.0000,3726.0000 C 3352.0000,3726.0000 3348.0000,3722.0000 3348.0000,3718.0000 C 3348.0000,3713.0000 3352.0000,3710.0000 3356.0000,3710.0000 Z M 3549.0000,3710.0000 L 3661.0000,3710.0000 C 3665.0000,3710.0000 3669.0000,3713.0000 3669.0000,3718.0000 C 3669.0000,3722.0000 3665.0000,3726.0000 3661.0000,3726.0000 L 3549.0000,3726.0000 C 3544.0000,3726.0000 3541.0000,3722.0000 3541.0000,3718.0000 C 3541.0000,3713.0000 3544.0000,3710.0000 3549.0000,3710.0000 Z M 3741.0000,3710.0000 L 3853.0000,3710.0000 C 3857.0000,3710.0000 3861.0000,3713.0000 3861.0000,3718.0000 C 3861.0000,3722.0000 3857.0000,3726.0000 3853.0000,3726.0000 L 3741.0000,3726.0000 C 3736.0000,3726.0000 3733.0000,3722.0000 3733.0000,3718.0000 C 3733.0000,3713.0000 3736.0000,3710.0000 3741.0000,3710.0000 Z M 3933.0000,3710.0000 L 4045.0000,3710.0000 C 4049.0000,3710.0000 4053.0000,3713.0000 4053.0000,3718.0000 C 4053.0000,3722.0000 4049.0000,3726.0000 4045.0000,3726.0000 L 3933.0000,3726.0000 C 3928.0000,3726.0000 3925.0000,3722.0000 3925.0000,3718.0000 C 3925.0000,3713.0000 3928.0000,3710.0000 3933.0000,3710.0000 Z M 4125.0000,3710.0000 L 4237.0000,3710.0000 C 4242.0000,3710.0000 4245.0000,3713.0000 4245.0000,3718.0000 C 4245.0000,3722.0000 4242.0000,3726.0000 4237.0000,3726.0000 L 4125.0000,3726.0000 C 4121.0000,3726.0000 4117.0000,3722.0000 4117.0000,3718.0000 C 4117.0000,3713.0000 4121.0000,3710.0000 4125.0000,3710.0000 Z M 4317.0000,3710.0000 L 4429.0000,3710.0000 C 4434.0000,3710.0000 4437.0000,3713.0000 4437.0000,3718.0000 C 4437.0000,3722.0000 4434.0000,3726.0000 4429.0000,3726.0000 L 4317.0000,3726.0000 C 4313.0000,3726.0000 4309.0000,3722.0000 4309.0000,3718.0000 C 4309.0000,3713.0000 4313.0000,3710.0000 4317.0000,3710.0000 Z M 4509.0000,3710.0000 L 4622.0000,3710.0000 C 4626.0000,3710.0000 4630.0000,3713.0000 4630.0000,3718.0000 C 4630.0000,3722.0000 4626.0000,3726.0000 4622.0000,3726.0000 L 4509.0000,3726.0000 C 4505.0000,3726.0000 4501.0000,3722.0000 4501.0000,3718.0000 C 4501.0000,3713.0000 4505.0000,3710.0000 4509.0000,3710.0000 Z M 4702.0000,3710.0000 L 4814.0000,3710.0000 C 4818.0000,3710.0000 4822.0000,3713.0000 4822.0000,3718.0000 C 4822.0000,3722.0000 4818.0000,3726.0000 4814.0000,3726.0000 L 4702.0000,3726.0000 C 4697.0000,3726.0000 4694.0000,3722.0000 4694.0000,3718.0000 C 4694.0000,3713.0000 4697.0000,3710.0000 4702.0000,3710.0000 Z M 4894.0000,3710.0000 L 5006.0000,3710.0000 C 5010.0000,3710.0000 5014.0000,3713.0000 5014.0000,3718.0000 C 5014.0000,3722.0000 5010.0000,3726.0000 5006.0000,3726.0000 L 4894.0000,3726.0000 C 4889.0000,3726.0000 4886.0000,3722.0000 4886.0000,3718.0000 C 4886.0000,3713.0000 4889.0000,3710.0000 4894.0000,3710.0000 Z M 5086.0000,3710.0000 L 5198.0000,3710.0000 C 5203.0000,3710.0000 5206.0000,3713.0000 5206.0000,3718.0000 C 5206.0000,3722.0000 5203.0000,3726.0000 5198.0000,3726.0000 L 5086.0000,3726.0000 C 5082.0000,3726.0000 5078.0000,3722.0000 5078.0000,3718.0000 C 5078.0000,3713.0000 5082.0000,3710.0000 5086.0000,3710.0000 Z M 5278.0000,3710.0000 L 5390.0000,3710.0000 C 5395.0000,3710.0000 5398.0000,3713.0000 5398.0000,3718.0000 C 5398.0000,3722.0000 5395.0000,3726.0000 5390.0000,3726.0000 L 5278.0000,3726.0000 C 5274.0000,3726.0000 5270.0000,3722.0000 5270.0000,3718.0000 C 5270.0000,3713.0000 5274.0000,3710.0000 5278.0000,3710.0000 Z M 5470.0000,3710.0000 L 5583.0000,3710.0000 C 5587.0000,3710.0000 5591.0000,3713.0000 5591.0000,3718.0000 C 5591.0000,3722.0000 5587.0000,3726.0000 5583.0000,3726.0000 L 5470.0000,3726.0000 C 5466.0000,3726.0000 5462.0000,3722.0000 5462.0000,3718.0000 C 5462.0000,3713.0000 5466.0000,3710.0000 5470.0000,3710.0000 Z M 5663.0000,3710.0000 L 5775.0000,3710.0000 C 5779.0000,3710.0000 5783.0000,3713.0000 5783.0000,3718.0000 C 5783.0000,3722.0000 5779.0000,3726.0000 5775.0000,3726.0000 L 5663.0000,3726.0000 C 5658.0000,3726.0000 5655.0000,3722.0000 5655.0000,3718.0000 C 5655.0000,3713.0000 5658.0000,3710.0000 5663.0000,3710.0000 Z M 5855.0000,3710.0000 L 5967.0000,3710.0000 C 5971.0000,3710.0000 5975.0000,3713.0000 5975.0000,3718.0000 C 5975.0000,3722.0000 5971.0000,3726.0000 5967.0000,3726.0000 L 5855.0000,3726.0000 C 5850.0000,3726.0000 5847.0000,3722.0000 5847.0000,3718.0000 C 5847.0000,3713.0000 5850.0000,3710.0000 5855.0000,3710.0000 Z M 6047.0000,3710.0000 L 6159.0000,3710.0000 C 6164.0000,3710.0000 6167.0000,3713.0000 6167.0000,3718.0000 C 6167.0000,3722.0000 6164.0000,3726.0000 6159.0000,3726.0000 L 6047.0000,3726.0000 C 6043.0000,3726.0000 6039.0000,3722.0000 6039.0000,3718.0000 C 6039.0000,3713.0000 6043.0000,3710.0000 6047.0000,3710.0000 Z M 6239.0000,3710.0000 L 6351.0000,3710.0000 C 6356.0000,3710.0000 6359.0000,3713.0000 6359.0000,3718.0000 C 6359.0000,3722.0000 6356.0000,3726.0000 6351.0000,3726.0000 L 6239.0000,3726.0000 C 6235.0000,3726.0000 6231.0000,3722.0000 6231.0000,3718.0000 C 6231.0000,3713.0000 6235.0000,3710.0000 6239.0000,3710.0000 Z "  fill="#000000" stroke="#000000" stroke-width="1.0000"  stroke-linecap="butt"  stroke-linejoin="round" />
</g>
<g transform="matrix(1.0000 0.0000 0.0000 1.0000 0.0000 0.0000)">
</g>
<g transform="matrix(0.0625 0.0000 0.0000 0.0625 0.0000 0.0000)">
<path d="M 1259.0000,3785.0000 L 1058.0000,3718.0000 L 1259.0000,3651.0000 L 1259.0000,3785.0000 Z" stroke-width="1px" stroke="#000000"  fill="#000000" />
</g>
<g transform="matrix(1.0000 0.0000 0.0000 1.0000 0.0000 0.0000)">
</g>
<g transform="matrix(0.0625 0.0000 0.0000 0.0625 0.0000 0.0000)">
<path d="M 6351.0000,3651.0000 L 6551.0000,3718.0000 L 6351.0000,3785.0000 L 6351.0000,3651.0000 Z" stroke-width="1px" stroke="#000000"  fill="#000000" />
</g>
<g transform="matrix(1.0000 0.0000 0.0000 1.0000 0.0000 0.0000)">
</g>
<g transform="matrix(0.0625 0.0000 0.0000 0.0625 0.0000 0.0000)">
<path d="M 3983.0000,2623.0000 L 4095.0000,2623.0000 C 4099.0000,2623.0000 4103.0000,2626.0000 4103.0000,2631.0000 C 4103.0000,2635.0000 4099.0000,2639.0000 4095.0000,2639.0000 L 3983.0000,2639.0000 C 3978.0000,2639.0000 3975.0000,2635.0000 3975.0000,2631.0000 C 3975.0000,2626.0000 3978.0000,2623.0000 3983.0000,2623.0000 Z M 4175.0000,2623.0000 L 4287.0000,2623.0000 C 4292.0000,2623.0000 4295.0000,2626.0000 4295.0000,2631.0000 C 4295.0000,2635.0000 4292.0000,2639.0000 4287.0000,2639.0000 L 4175.0000,2639.0000 C 4171.0000,2639.0000 4167.0000,2635.0000 4167.0000,2631.0000 C 4167.0000,2626.0000 4171.0000,2623.0000 4175.0000,2623.0000 Z M 4367.0000,2623.0000 L 4479.0000,2623.0000 C 4484.0000,2623.0000 4487.0000,2626.0000 4487.0000,2631.0000 C 4487.0000,2635.0000 4484.0000,2639.0000 4479.0000,2639.0000 L 4367.0000,2639.0000 C 4363.0000,2639.0000 4359.0000,2635.0000 4359.0000,2631.0000 C 4359.0000,2626.0000 4363.0000,2623.0000 4367.0000,2623.0000 Z M 4559.0000,2623.0000 L 4672.0000,2623.0000 C 4676.0000,2623.0000 4680.0000,2626.0000 4680.0000,2631.0000 C 4680.0000,2635.0000 4676.0000,2639.0000 4672.0000,2639.0000 L 4559.0000,2639.0000 C 4555.0000,2639.0000 4551.0000,2635.0000 4551.0000,2631.0000 C 4551.0000,2626.0000 4555.0000,2623.0000 4559.0000,2623.0000 Z M 4752.0000,2623.0000 L 4864.0000,2623.0000 C 4868.0000,2623.0000 4872.0000,2626.0000 4872.0000,2631.0000 C 4872.0000,2635.0000 4868.0000,2639.0000 4864.0000,2639.0000 L 4752.0000,2639.0000 C 4747.0000,2639.0000 4744.0000,2635.0000 4744.0000,2631.0000 C 4744.0000,2626.0000 4747.0000,2623.0000 4752.0000,2623.0000 Z M 4944.0000,2623.0000 L 5056.0000,2623.0000 C 5060.0000,2623.0000 5064.0000,2626.0000 5064.0000,2631.0000 C 5064.0000,2635.0000 5060.0000,2639.0000 5056.0000,2639.0000 L 4944.0000,2639.0000 C 4939.0000,2639.0000 4936.0000,2635.0000 4936.0000,2631.0000 C 4936.0000,2626.0000 4939.0000,2623.0000 4944.0000,2623.0000 Z M 5136.0000,2623.0000 L 5248.0000,2623.0000 C 5253.0000,2623.0000 5256.0000,2626.0000 5256.0000,2631.0000 C 5256.0000,2635.0000 5253.0000,2639.0000 5248.0000,2639.0000 L 5136.0000,2639.0000 C 5132.0000,2639.0000 5128.0000,2635.0000 5128.0000,2631.0000 C 5128.0000,2626.0000 5132.0000,2623.0000 5136.0000,2623.0000 Z M 5328.0000,2623.0000 L 5440.0000,2623.0000 C 5445.0000,2623.0000 5448.0000,2626.0000 5448.0000,2631.0000 C 5448.0000,2635.0000 5445.0000,2639.0000 5440.0000,2639.0000 L 5328.0000,2639.0000 C 5324.0000,2639.0000 5320.0000,2635.0000 5320.0000,2631.0000 C 5320.0000,2626.0000 5324.0000,2623.0000 5328.0000,2623.0000 Z M 5520.0000,2623.0000 L 5632.0000,2623.0000 C 5637.0000,2623.0000 5641.0000,2626.0000 5641.0000,2631.0000 C 5641.0000,2635.0000 5637.0000,2639.0000 5632.0000,2639.0000 L 5520.0000,2639.0000 C 5516.0000,2639.0000 5512.0000,2635.0000 5512.0000,2631.0000 C 5512.0000,2626.0000 5516.0000,2623.0000 5520.0000,2623.0000 Z M 5713.0000,2623.0000 L 5825.0000,2623.0000 C 5829.0000,2623.0000 5833.0000,2626.0000 5833.0000,2631.0000 C 5833.0000,2635.0000 5829.0000,2639.0000 5825.0000,2639.0000 L 5713.0000,2639.0000 C 5708.0000,2639.0000 5705.0000,2635.0000 5705.0000,2631.0000 C 5705.0000,2626.0000 5708.0000,2623.0000 5713.0000,2623.0000 Z M 5905.0000,2623.0000 L 6017.0000,2623.0000 C 6021.0000,2623.0000 6025.0000,2626.0000 6025.0000,2631.0000 C 6025.0000,2635.0000 6021.0000,2639.0000 6017.0000,2639.0000 L 5905.0000,2639.0000 C 5900.0000,2639.0000 5897.0000,2635.0000 5897.0000,2631.0000 C 5897.0000,2626.0000 5900.0000,2623.0000 5905.0000,2623.0000 Z M 6097.0000,2623.0000 L 6209.0000,2623.0000 C 6213.0000,2623.0000 6217.0000,2626.0000 6217.0000,2631.0000 C 6217.0000,2635.0000 6213.0000,2639.0000 6209.0000,2639.0000 L 6097.0000,2639.0000 C 6093.0000,2639.0000 6089.0000,2635.0000 6089.0000,2631.0000 C 6089.0000,2626.0000 6093.0000,2623.0000 6097.0000,2623.0000 Z M 6289.0000,2623.0000 L 6401.0000,2623.0000 C 6406.0000,2623.0000 6409.0000,2626.0000 6409.0000,2631.0000 C 6409.0000,2635.0000 6406.0000,2639.0000 6401.0000,2639.0000 L 6289.0000,2639.0000 C 6285.0000,2639.0000 6281.0000,2635.0000 6281.0000,2631.0000 C 6281.0000,2626.0000 6285.0000,2623.0000 6289.0000,2623.0000 Z M 6481.0000,2623.0000 L 6551.0000,2623.0000 C 6556.0000,2623.0000 6559.0000,2626.0000 6559.0000,2631.0000 C 6559.0000,2635.0000 6556.0000,2639.0000 6551.0000,2639.0000 L 6481.0000,2639.0000 C 6477.0000,2639.0000 6473.0000,2635.0000 6473.0000,2631.0000 C 6473.0000,2626.0000 6477.0000,2623.0000 6481.0000,2623.0000 Z "  fill="#000000" stroke="#000000" stroke-width="1.0000"  stroke-linecap="butt"  stroke-linejoin="round" />
</g>
<g transform="matrix(1.0000 0.0000 0.0000 1.0000 0.0000 0.0000)">
</g>
<g transform="matrix(0.0625 0.0000 0.0000 0.0625 0.0000 0.0000)">
<path d="M 4000.0000,2698.0000 L 3799.0000,2631.0000 L 4000.0000,2564.0000 L 4000.0000,2698.0000 Z" stroke-width="1px" stroke="#000000"  fill="#000000" />
</g>
<g transform="matrix(1.0000 0.0000 0.0000 1.0000 0.0000 0.0000)">
</g>
<g transform="matrix(1.0000 0.0000 0.0000 1.0000 138.0741 217.6941)">
<text font-family="Arial" fill="#000000" style ="white-space:pre;" font-weight="400" text-anchor="start" x="0.0000" y="0.0000" font-size="12.0000" ><![CDATA[3]]></text>
</g>
<g transform="matrix(1.0000 0.0000 0.0000 1.0000 144.8097 217.6941)">
<text font-family="Arial" fill="#000000" style ="white-space:pre;" font-weight="400" text-anchor="start" x="0.0000" y="0.0000" font-size="12.0000" ><![CDATA[. ]]></text>
</g>
<g transform="matrix(1.0000 0.0000 0.0000 1.0000 151.5390 217.6941)">
<text font-family="Arial" fill="#000000" style ="white-space:pre;" font-weight="400" text-anchor="start" x="0.0000" y="0.0000" font-size="12.0000" ><![CDATA[F]]></text>
</g>
<g transform="matrix(1.0000 0.0000 0.0000 1.0000 158.9370 217.6941)">
<text font-family="Arial" fill="#000000" style ="white-space:pre;" font-weight="400" text-anchor="start" x="0.0000" y="0.0000" font-size="12.0000" ><![CDATA[1 ]]></text>
</g>
<g transform="matrix(1.0000 0.0000 0.0000 1.0000 169.0372 217.6941)">
<text font-family="Arial" fill="#000000" style ="white-space:pre;" font-weight="400" text-anchor="start" x="0.0000" y="0.0000" font-size="12.0000" ><![CDATA[UE context modification procedure]]></text>
</g>
<g transform="matrix(1.0000 0.0000 0.0000 1.0000 243.7825 146.0575)">
<text font-family="Arial" fill="#000000" style ="white-space:pre;" font-weight="400" text-anchor="start" x="0.0000" y="0.0000" font-size="12.0000" ><![CDATA[1]]></text>
</g>
<g transform="matrix(1.0000 0.0000 0.0000 1.0000 250.5181 146.0575)">
<text font-family="Arial" fill="#000000" style ="white-space:pre;" font-weight="400" text-anchor="start" x="0.0000" y="0.0000" font-size="12.0000" ><![CDATA[. ]]></text>
</g>
<g transform="matrix(1.0000 0.0000 0.0000 1.0000 257.2474 146.0575)">
<text font-family="Arial" fill="#000000" style ="white-space:pre;" font-weight="400" text-anchor="start" x="0.0000" y="0.0000" font-size="12.0000" ><![CDATA[BEARER CONTEXT MODIFICATION ]]></text>
</g>
<g transform="matrix(1.0000 0.0000 0.0000 1.0000 243.7825 160.5906)">
<text font-family="Arial" fill="#000000" style ="white-space:pre;" font-weight="400" text-anchor="start" x="0.0000" y="0.0000" font-size="12.0000" ><![CDATA[REQUEST]]></text>
</g>
<g transform="matrix(0.0625 0.0000 0.0000 0.0625 0.0000 0.0000)">
<path d="M 5178.0000,1571.0000 L 5178.0000,2088.0000 L 7925.0000,2088.0000 L 7925.0000,1571.0000 L 5178.0000,1571.0000 Z" stroke-width="1px" stroke="#FFFFFF"  fill="#FFFFFF" />
</g>
<g transform="matrix(1.0000 0.0000 0.0000 1.0000 0.0000 0.0000)">
</g>
<g transform="matrix(0.0625 0.0000 0.0000 0.0625 0.0000 0.0000)">
<path d="M 5178.0000,2088.0000 L 7925.0000,2088.0000 L 7925.0000,1571.0000 L 5178.0000,1571.0000 L 5178.0000,2088.0000 Z" stroke="#000000" stroke-width="16.0000"  stroke-linecap="round"  stroke-linejoin="round" fill="none" />
</g>
<g transform="matrix(1.0000 0.0000 0.0000 1.0000 0.0000 0.0000)">
</g>
<g transform="matrix(1.0000 0.0000 0.0000 1.0000 336.2125 111.2043)">
<text font-family="Arial" fill="#000000" style ="white-space:pre;" font-weight="400" text-anchor="start" x="0.0000" y="0.0000" font-size="12.0000" ><![CDATA[0]]></text>
</g>
<g transform="matrix(1.0000 0.0000 0.0000 1.0000 342.9481 111.2043)">
<text font-family="Arial" fill="#000000" style ="white-space:pre;" font-weight="400" text-anchor="start" x="0.0000" y="0.0000" font-size="12.0000" ><![CDATA[. ]]></text>
</g>
<g transform="matrix(1.0000 0.0000 0.0000 1.0000 349.6774 111.2043)">
<text font-family="Arial" fill="#000000" style ="white-space:pre;" font-weight="400" text-anchor="start" x="0.0000" y="0.0000" font-size="12.0000" ><![CDATA[Bearer context release is ]]></text>
</g>
<g transform="matrix(1.0000 0.0000 0.0000 1.0000 386.0256 125.7375)">
<text font-family="Arial" fill="#000000" style ="white-space:pre;" font-weight="400" text-anchor="start" x="0.0000" y="0.0000" font-size="12.0000" ><![CDATA[triggered]]></text>
</g>
<g transform="matrix(0.0625 0.0000 0.0000 0.0625 0.0000 0.0000)">
<path d="M 6367.0000,3168.0000 L 6255.0000,3168.0000 C 6251.0000,3168.0000 6247.0000,3164.0000 6247.0000,3160.0000 C 6247.0000,3156.0000 6251.0000,3152.0000 6255.0000,3152.0000 L 6367.0000,3152.0000 C 6372.0000,3152.0000 6375.0000,3156.0000 6375.0000,3160.0000 C 6375.0000,3164.0000 6372.0000,3168.0000 6367.0000,3168.0000 Z M 6175.0000,3168.0000 L 6063.0000,3168.0000 C 6059.0000,3168.0000 6055.0000,3164.0000 6055.0000,3160.0000 C 6055.0000,3156.0000 6059.0000,3152.0000 6063.0000,3152.0000 L 6175.0000,3152.0000 C 6180.0000,3152.0000 6183.0000,3156.0000 6183.0000,3160.0000 C 6183.0000,3164.0000 6180.0000,3168.0000 6175.0000,3168.0000 Z M 5983.0000,3168.0000 L 5871.0000,3168.0000 C 5867.0000,3168.0000 5863.0000,3164.0000 5863.0000,3160.0000 C 5863.0000,3156.0000 5867.0000,3152.0000 5871.0000,3152.0000 L 5983.0000,3152.0000 C 5987.0000,3152.0000 5991.0000,3156.0000 5991.0000,3160.0000 C 5991.0000,3164.0000 5987.0000,3168.0000 5983.0000,3168.0000 Z M 5791.0000,3168.0000 L 5679.0000,3168.0000 C 5674.0000,3168.0000 5671.0000,3164.0000 5671.0000,3160.0000 C 5671.0000,3156.0000 5674.0000,3152.0000 5679.0000,3152.0000 L 5791.0000,3152.0000 C 5795.0000,3152.0000 5799.0000,3156.0000 5799.0000,3160.0000 C 5799.0000,3164.0000 5795.0000,3168.0000 5791.0000,3168.0000 Z M 5599.0000,3168.0000 L 5487.0000,3168.0000 C 5482.0000,3168.0000 5479.0000,3164.0000 5479.0000,3160.0000 C 5479.0000,3156.0000 5482.0000,3152.0000 5487.0000,3152.0000 L 5599.0000,3152.0000 C 5603.0000,3152.0000 5607.0000,3156.0000 5607.0000,3160.0000 C 5607.0000,3164.0000 5603.0000,3168.0000 5599.0000,3168.0000 Z M 5406.0000,3168.0000 L 5294.0000,3168.0000 C 5290.0000,3168.0000 5286.0000,3164.0000 5286.0000,3160.0000 C 5286.0000,3156.0000 5290.0000,3152.0000 5294.0000,3152.0000 L 5406.0000,3152.0000 C 5411.0000,3152.0000 5414.0000,3156.0000 5414.0000,3160.0000 C 5414.0000,3164.0000 5411.0000,3168.0000 5406.0000,3168.0000 Z M 5214.0000,3168.0000 L 5102.0000,3168.0000 C 5098.0000,3168.0000 5094.0000,3164.0000 5094.0000,3160.0000 C 5094.0000,3156.0000 5098.0000,3152.0000 5102.0000,3152.0000 L 5214.0000,3152.0000 C 5219.0000,3152.0000 5222.0000,3156.0000 5222.0000,3160.0000 C 5222.0000,3164.0000 5219.0000,3168.0000 5214.0000,3168.0000 Z M 5022.0000,3168.0000 L 4910.0000,3168.0000 C 4906.0000,3168.0000 4902.0000,3164.0000 4902.0000,3160.0000 C 4902.0000,3156.0000 4906.0000,3152.0000 4910.0000,3152.0000 L 5022.0000,3152.0000 C 5027.0000,3152.0000 5030.0000,3156.0000 5030.0000,3160.0000 C 5030.0000,3164.0000 5027.0000,3168.0000 5022.0000,3168.0000 Z M 4830.0000,3168.0000 L 4718.0000,3168.0000 C 4713.0000,3168.0000 4710.0000,3164.0000 4710.0000,3160.0000 C 4710.0000,3156.0000 4713.0000,3152.0000 4718.0000,3152.0000 L 4830.0000,3152.0000 C 4834.0000,3152.0000 4838.0000,3156.0000 4838.0000,3160.0000 C 4838.0000,3164.0000 4834.0000,3168.0000 4830.0000,3168.0000 Z M 4638.0000,3168.0000 L 4526.0000,3168.0000 C 4521.0000,3168.0000 4518.0000,3164.0000 4518.0000,3160.0000 C 4518.0000,3156.0000 4521.0000,3152.0000 4526.0000,3152.0000 L 4638.0000,3152.0000 C 4642.0000,3152.0000 4646.0000,3156.0000 4646.0000,3160.0000 C 4646.0000,3164.0000 4642.0000,3168.0000 4638.0000,3168.0000 Z M 4446.0000,3168.0000 L 4333.0000,3168.0000 C 4329.0000,3168.0000 4325.0000,3164.0000 4325.0000,3160.0000 C 4325.0000,3156.0000 4329.0000,3152.0000 4333.0000,3152.0000 L 4446.0000,3152.0000 C 4450.0000,3152.0000 4454.0000,3156.0000 4454.0000,3160.0000 C 4454.0000,3164.0000 4450.0000,3168.0000 4446.0000,3168.0000 Z M 4253.0000,3168.0000 L 4141.0000,3168.0000 C 4137.0000,3168.0000 4133.0000,3164.0000 4133.0000,3160.0000 C 4133.0000,3156.0000 4137.0000,3152.0000 4141.0000,3152.0000 L 4253.0000,3152.0000 C 4258.0000,3152.0000 4261.0000,3156.0000 4261.0000,3160.0000 C 4261.0000,3164.0000 4258.0000,3168.0000 4253.0000,3168.0000 Z M 4061.0000,3168.0000 L 3949.0000,3168.0000 C 3945.0000,3168.0000 3941.0000,3164.0000 3941.0000,3160.0000 C 3941.0000,3156.0000 3945.0000,3152.0000 3949.0000,3152.0000 L 4061.0000,3152.0000 C 4066.0000,3152.0000 4069.0000,3156.0000 4069.0000,3160.0000 C 4069.0000,3164.0000 4066.0000,3168.0000 4061.0000,3168.0000 Z M 3869.0000,3168.0000 L 3805.0000,3168.0000 C 3800.0000,3168.0000 3797.0000,3164.0000 3797.0000,3160.0000 C 3797.0000,3156.0000 3800.0000,3152.0000 3805.0000,3152.0000 L 3869.0000,3152.0000 C 3873.0000,3152.0000 3877.0000,3156.0000 3877.0000,3160.0000 C 3877.0000,3164.0000 3873.0000,3168.0000 3869.0000,3168.0000 Z "  fill="#000000" stroke="#000000" stroke-width="1.0000"  stroke-linecap="butt"  stroke-linejoin="round" />
</g>
<g transform="matrix(1.0000 0.0000 0.0000 1.0000 0.0000 0.0000)">
</g>
<g transform="matrix(0.0625 0.0000 0.0000 0.0625 0.0000 0.0000)">
<path d="M 6351.0000,3093.0000 L 6551.0000,3160.0000 L 6351.0000,3227.0000 L 6351.0000,3093.0000 Z" stroke-width="1px" stroke="#000000"  fill="#000000" />
</g>
<g transform="matrix(1.0000 0.0000 0.0000 1.0000 0.0000 0.0000)">
</g>
<g transform="matrix(1.0000 0.0000 0.0000 1.0000 243.7825 185.4002)">
<text font-family="Arial" fill="#000000" style ="white-space:pre;" font-weight="400" text-anchor="start" x="0.0000" y="0.0000" font-size="12.0000" ><![CDATA[2]]></text>
</g>
<g transform="matrix(1.0000 0.0000 0.0000 1.0000 250.5181 185.4002)">
<text font-family="Arial" fill="#000000" style ="white-space:pre;" font-weight="400" text-anchor="start" x="0.0000" y="0.0000" font-size="12.0000" ><![CDATA[.]]></text>
</g>
<g transform="matrix(1.0000 0.0000 0.0000 1.0000 253.8827 185.4002)">
<text font-family="Arial" fill="#000000" style ="white-space:pre;" font-weight="400" text-anchor="start" x="0.0000" y="0.0000" font-size="12.0000" ><![CDATA[ ]]></text>
</g>
<g transform="matrix(1.0000 0.0000 0.0000 1.0000 257.2474 185.4002)">
<text font-family="Arial" fill="#000000" style ="white-space:pre;" font-weight="400" text-anchor="start" x="0.0000" y="0.0000" font-size="12.0000" ><![CDATA[BEARER CONTEXT MODIFICATION ]]></text>
</g>
<g transform="matrix(1.0000 0.0000 0.0000 1.0000 243.7825 199.9333)">
<text font-family="Arial" fill="#000000" style ="white-space:pre;" font-weight="400" text-anchor="start" x="0.0000" y="0.0000" font-size="12.0000" ><![CDATA[RESPONSE]]></text>
</g>
<g transform="matrix(0.0625 0.0000 0.0000 0.0625 0.0000 0.0000)">
<path d="M 5189.0000,4125.0000 L 5189.0000,4642.0000 L 7936.0000,4642.0000 L 7936.0000,4125.0000 L 5189.0000,4125.0000 Z" stroke-width="1px" stroke="#FFFFFF"  fill="#FFFFFF" />
</g>
<g transform="matrix(1.0000 0.0000 0.0000 1.0000 0.0000 0.0000)">
</g>
<g transform="matrix(0.0625 0.0000 0.0000 0.0625 0.0000 0.0000)">
<path d="M 5197.0000,4141.0000 L 5197.0000,4253.0000 C 5197.0000,4258.0000 5194.0000,4261.0000 5189.0000,4261.0000 C 5185.0000,4261.0000 5181.0000,4258.0000 5181.0000,4253.0000 L 5181.0000,4141.0000 C 5181.0000,4137.0000 5185.0000,4133.0000 5189.0000,4133.0000 C 5194.0000,4133.0000 5197.0000,4137.0000 5197.0000,4141.0000 Z M 5197.0000,4333.0000 L 5197.0000,4445.0000 C 5197.0000,4450.0000 5194.0000,4453.0000 5189.0000,4453.0000 C 5185.0000,4453.0000 5181.0000,4450.0000 5181.0000,4445.0000 L 5181.0000,4333.0000 C 5181.0000,4329.0000 5185.0000,4325.0000 5189.0000,4325.0000 C 5194.0000,4325.0000 5197.0000,4329.0000 5197.0000,4333.0000 Z M 5197.0000,4525.0000 L 5197.0000,4638.0000 C 5197.0000,4642.0000 5194.0000,4646.0000 5189.0000,4646.0000 C 5185.0000,4646.0000 5181.0000,4642.0000 5181.0000,4638.0000 L 5181.0000,4525.0000 C 5181.0000,4521.0000 5185.0000,4517.0000 5189.0000,4517.0000 C 5194.0000,4517.0000 5197.0000,4521.0000 5197.0000,4525.0000 Z M 5265.0000,4634.0000 L 5377.0000,4634.0000 C 5381.0000,4634.0000 5385.0000,4637.0000 5385.0000,4642.0000 C 5385.0000,4646.0000 5381.0000,4650.0000 5377.0000,4650.0000 L 5265.0000,4650.0000 C 5261.0000,4650.0000 5257.0000,4646.0000 5257.0000,4642.0000 C 5257.0000,4637.0000 5261.0000,4634.0000 5265.0000,4634.0000 Z M 5457.0000,4634.0000 L 5569.0000,4634.0000 C 5574.0000,4634.0000 5577.0000,4637.0000 5577.0000,4642.0000 C 5577.0000,4646.0000 5574.0000,4650.0000 5569.0000,4650.0000 L 5457.0000,4650.0000 C 5453.0000,4650.0000 5449.0000,4646.0000 5449.0000,4642.0000 C 5449.0000,4637.0000 5453.0000,4634.0000 5457.0000,4634.0000 Z M 5649.0000,4634.0000 L 5761.0000,4634.0000 C 5766.0000,4634.0000 5769.0000,4637.0000 5769.0000,4642.0000 C 5769.0000,4646.0000 5766.0000,4650.0000 5761.0000,4650.0000 L 5649.0000,4650.0000 C 5645.0000,4650.0000 5641.0000,4646.0000 5641.0000,4642.0000 C 5641.0000,4637.0000 5645.0000,4634.0000 5649.0000,4634.0000 Z M 5841.0000,4634.0000 L 5954.0000,4634.0000 C 5958.0000,4634.0000 5962.0000,4637.0000 5962.0000,4642.0000 C 5962.0000,4646.0000 5958.0000,4650.0000 5954.0000,4650.0000 L 5841.0000,4650.0000 C 5837.0000,4650.0000 5833.0000,4646.0000 5833.0000,4642.0000 C 5833.0000,4637.0000 5837.0000,4634.0000 5841.0000,4634.0000 Z M 6034.0000,4634.0000 L 6146.0000,4634.0000 C 6150.0000,4634.0000 6154.0000,4637.0000 6154.0000,4642.0000 C 6154.0000,4646.0000 6150.0000,4650.0000 6146.0000,4650.0000 L 6034.0000,4650.0000 C 6029.0000,4650.0000 6026.0000,4646.0000 6026.0000,4642.0000 C 6026.0000,4637.0000 6029.0000,4634.0000 6034.0000,4634.0000 Z M 6226.0000,4634.0000 L 6338.0000,4634.0000 C 6342.0000,4634.0000 6346.0000,4637.0000 6346.0000,4642.0000 C 6346.0000,4646.0000 6342.0000,4650.0000 6338.0000,4650.0000 L 6226.0000,4650.0000 C 6221.0000,4650.0000 6218.0000,4646.0000 6218.0000,4642.0000 C 6218.0000,4637.0000 6221.0000,4634.0000 6226.0000,4634.0000 Z M 6418.0000,4634.0000 L 6530.0000,4634.0000 C 6535.0000,4634.0000 6538.0000,4637.0000 6538.0000,4642.0000 C 6538.0000,4646.0000 6535.0000,4650.0000 6530.0000,4650.0000 L 6418.0000,4650.0000 C 6414.0000,4650.0000 6410.0000,4646.0000 6410.0000,4642.0000 C 6410.0000,4637.0000 6414.0000,4634.0000 6418.0000,4634.0000 Z M 6610.0000,4634.0000 L 6722.0000,4634.0000 C 6727.0000,4634.0000 6730.0000,4637.0000 6730.0000,4642.0000 C 6730.0000,4646.0000 6727.0000,4650.0000 6722.0000,4650.0000 L 6610.0000,4650.0000 C 6606.0000,4650.0000 6602.0000,4646.0000 6602.0000,4642.0000 C 6602.0000,4637.0000 6606.0000,4634.0000 6610.0000,4634.0000 Z M 6802.0000,4634.0000 L 6915.0000,4634.0000 C 6919.0000,4634.0000 6923.0000,4637.0000 6923.0000,4642.0000 C 6923.0000,4646.0000 6919.0000,4650.0000 6915.0000,4650.0000 L 6802.0000,4650.0000 C 6798.0000,4650.0000 6794.0000,4646.0000 6794.0000,4642.0000 C 6794.0000,4637.0000 6798.0000,4634.0000 6802.0000,4634.0000 Z M 6995.0000,4634.0000 L 7107.0000,4634.0000 C 7111.0000,4634.0000 7115.0000,4637.0000 7115.0000,4642.0000 C 7115.0000,4646.0000 7111.0000,4650.0000 7107.0000,4650.0000 L 6995.0000,4650.0000 C 6990.0000,4650.0000 6987.0000,4646.0000 6987.0000,4642.0000 C 6987.0000,4637.0000 6990.0000,4634.0000 6995.0000,4634.0000 Z M 7187.0000,4634.0000 L 7299.0000,4634.0000 C 7303.0000,4634.0000 7307.0000,4637.0000 7307.0000,4642.0000 C 7307.0000,4646.0000 7303.0000,4650.0000 7299.0000,4650.0000 L 7187.0000,4650.0000 C 7182.0000,4650.0000 7179.0000,4646.0000 7179.0000,4642.0000 C 7179.0000,4637.0000 7182.0000,4634.0000 7187.0000,4634.0000 Z M 7379.0000,4634.0000 L 7491.0000,4634.0000 C 7496.0000,4634.0000 7499.0000,4637.0000 7499.0000,4642.0000 C 7499.0000,4646.0000 7496.0000,4650.0000 7491.0000,4650.0000 L 7379.0000,4650.0000 C 7375.0000,4650.0000 7371.0000,4646.0000 7371.0000,4642.0000 C 7371.0000,4637.0000 7375.0000,4634.0000 7379.0000,4634.0000 Z M 7571.0000,4634.0000 L 7683.0000,4634.0000 C 7688.0000,4634.0000 7691.0000,4637.0000 7691.0000,4642.0000 C 7691.0000,4646.0000 7688.0000,4650.0000 7683.0000,4650.0000 L 7571.0000,4650.0000 C 7567.0000,4650.0000 7563.0000,4646.0000 7563.0000,4642.0000 C 7563.0000,4637.0000 7567.0000,4634.0000 7571.0000,4634.0000 Z M 7763.0000,4634.0000 L 7876.0000,4634.0000 C 7880.0000,4634.0000 7884.0000,4637.0000 7884.0000,4642.0000 C 7884.0000,4646.0000 7880.0000,4650.0000 7876.0000,4650.0000 L 7763.0000,4650.0000 C 7759.0000,4650.0000 7755.0000,4646.0000 7755.0000,4642.0000 C 7755.0000,4637.0000 7759.0000,4634.0000 7763.0000,4634.0000 Z M 7928.0000,4622.0000 L 7928.0000,4510.0000 C 7928.0000,4505.0000 7931.0000,4502.0000 7936.0000,4502.0000 C 7940.0000,4502.0000 7944.0000,4505.0000 7944.0000,4510.0000 L 7944.0000,4622.0000 C 7944.0000,4626.0000 7940.0000,4630.0000 7936.0000,4630.0000 C 7931.0000,4630.0000 7928.0000,4626.0000 7928.0000,4622.0000 Z M 7928.0000,4430.0000 L 7928.0000,4318.0000 C 7928.0000,4313.0000 7931.0000,4310.0000 7936.0000,4310.0000 C 7940.0000,4310.0000 7944.0000,4313.0000 7944.0000,4318.0000 L 7944.0000,4430.0000 C 7944.0000,4434.0000 7940.0000,4438.0000 7936.0000,4438.0000 C 7931.0000,4438.0000 7928.0000,4434.0000 7928.0000,4430.0000 Z M 7928.0000,4237.0000 L 7928.0000,4125.0000 C 7928.0000,4121.0000 7931.0000,4117.0000 7936.0000,4117.0000 C 7940.0000,4117.0000 7944.0000,4121.0000 7944.0000,4125.0000 L 7944.0000,4237.0000 C 7944.0000,4242.0000 7940.0000,4245.0000 7936.0000,4245.0000 C 7931.0000,4245.0000 7928.0000,4242.0000 7928.0000,4237.0000 Z M 7856.0000,4133.0000 L 7744.0000,4133.0000 C 7739.0000,4133.0000 7736.0000,4129.0000 7736.0000,4125.0000 C 7736.0000,4121.0000 7739.0000,4117.0000 7744.0000,4117.0000 L 7856.0000,4117.0000 C 7860.0000,4117.0000 7864.0000,4121.0000 7864.0000,4125.0000 C 7864.0000,4129.0000 7860.0000,4133.0000 7856.0000,4133.0000 Z M 7664.0000,4133.0000 L 7552.0000,4133.0000 C 7547.0000,4133.0000 7544.0000,4129.0000 7544.0000,4125.0000 C 7544.0000,4121.0000 7547.0000,4117.0000 7552.0000,4117.0000 L 7664.0000,4117.0000 C 7668.0000,4117.0000 7672.0000,4121.0000 7672.0000,4125.0000 C 7672.0000,4129.0000 7668.0000,4133.0000 7664.0000,4133.0000 Z M 7471.0000,4133.0000 L 7359.0000,4133.0000 C 7355.0000,4133.0000 7351.0000,4129.0000 7351.0000,4125.0000 C 7351.0000,4121.0000 7355.0000,4117.0000 7359.0000,4117.0000 L 7471.0000,4117.0000 C 7476.0000,4117.0000 7479.0000,4121.0000 7479.0000,4125.0000 C 7479.0000,4129.0000 7476.0000,4133.0000 7471.0000,4133.0000 Z M 7279.0000,4133.0000 L 7167.0000,4133.0000 C 7163.0000,4133.0000 7159.0000,4129.0000 7159.0000,4125.0000 C 7159.0000,4121.0000 7163.0000,4117.0000 7167.0000,4117.0000 L 7279.0000,4117.0000 C 7284.0000,4117.0000 7287.0000,4121.0000 7287.0000,4125.0000 C 7287.0000,4129.0000 7284.0000,4133.0000 7279.0000,4133.0000 Z M 7087.0000,4133.0000 L 6975.0000,4133.0000 C 6971.0000,4133.0000 6967.0000,4129.0000 6967.0000,4125.0000 C 6967.0000,4121.0000 6971.0000,4117.0000 6975.0000,4117.0000 L 7087.0000,4117.0000 C 7091.0000,4117.0000 7095.0000,4121.0000 7095.0000,4125.0000 C 7095.0000,4129.0000 7091.0000,4133.0000 7087.0000,4133.0000 Z M 6895.0000,4133.0000 L 6783.0000,4133.0000 C 6778.0000,4133.0000 6775.0000,4129.0000 6775.0000,4125.0000 C 6775.0000,4121.0000 6778.0000,4117.0000 6783.0000,4117.0000 L 6895.0000,4117.0000 C 6899.0000,4117.0000 6903.0000,4121.0000 6903.0000,4125.0000 C 6903.0000,4129.0000 6899.0000,4133.0000 6895.0000,4133.0000 Z M 6703.0000,4133.0000 L 6591.0000,4133.0000 C 6586.0000,4133.0000 6583.0000,4129.0000 6583.0000,4125.0000 C 6583.0000,4121.0000 6586.0000,4117.0000 6591.0000,4117.0000 L 6703.0000,4117.0000 C 6707.0000,4117.0000 6711.0000,4121.0000 6711.0000,4125.0000 C 6711.0000,4129.0000 6707.0000,4133.0000 6703.0000,4133.0000 Z M 6510.0000,4133.0000 L 6398.0000,4133.0000 C 6394.0000,4133.0000 6390.0000,4129.0000 6390.0000,4125.0000 C 6390.0000,4121.0000 6394.0000,4117.0000 6398.0000,4117.0000 L 6510.0000,4117.0000 C 6515.0000,4117.0000 6519.0000,4121.0000 6519.0000,4125.0000 C 6519.0000,4129.0000 6515.0000,4133.0000 6510.0000,4133.0000 Z M 6318.0000,4133.0000 L 6206.0000,4133.0000 C 6202.0000,4133.0000 6198.0000,4129.0000 6198.0000,4125.0000 C 6198.0000,4121.0000 6202.0000,4117.0000 6206.0000,4117.0000 L 6318.0000,4117.0000 C 6323.0000,4117.0000 6326.0000,4121.0000 6326.0000,4125.0000 C 6326.0000,4129.0000 6323.0000,4133.0000 6318.0000,4133.0000 Z M 6126.0000,4133.0000 L 6014.0000,4133.0000 C 6010.0000,4133.0000 6006.0000,4129.0000 6006.0000,4125.0000 C 6006.0000,4121.0000 6010.0000,4117.0000 6014.0000,4117.0000 L 6126.0000,4117.0000 C 6131.0000,4117.0000 6134.0000,4121.0000 6134.0000,4125.0000 C 6134.0000,4129.0000 6131.0000,4133.0000 6126.0000,4133.0000 Z M 5934.0000,4133.0000 L 5822.0000,4133.0000 C 5817.0000,4133.0000 5814.0000,4129.0000 5814.0000,4125.0000 C 5814.0000,4121.0000 5817.0000,4117.0000 5822.0000,4117.0000 L 5934.0000,4117.0000 C 5938.0000,4117.0000 5942.0000,4121.0000 5942.0000,4125.0000 C 5942.0000,4129.0000 5938.0000,4133.0000 5934.0000,4133.0000 Z M 5742.0000,4133.0000 L 5630.0000,4133.0000 C 5625.0000,4133.0000 5622.0000,4129.0000 5622.0000,4125.0000 C 5622.0000,4121.0000 5625.0000,4117.0000 5630.0000,4117.0000 L 5742.0000,4117.0000 C 5746.0000,4117.0000 5750.0000,4121.0000 5750.0000,4125.0000 C 5750.0000,4129.0000 5746.0000,4133.0000 5742.0000,4133.0000 Z M 5550.0000,4133.0000 L 5437.0000,4133.0000 C 5433.0000,4133.0000 5429.0000,4129.0000 5429.0000,4125.0000 C 5429.0000,4121.0000 5433.0000,4117.0000 5437.0000,4117.0000 L 5550.0000,4117.0000 C 5554.0000,4117.0000 5558.0000,4121.0000 5558.0000,4125.0000 C 5558.0000,4129.0000 5554.0000,4133.0000 5550.0000,4133.0000 Z M 5357.0000,4133.0000 L 5245.0000,4133.0000 C 5241.0000,4133.0000 5237.0000,4129.0000 5237.0000,4125.0000 C 5237.0000,4121.0000 5241.0000,4117.0000 5245.0000,4117.0000 L 5357.0000,4117.0000 C 5362.0000,4117.0000 5365.0000,4121.0000 5365.0000,4125.0000 C 5365.0000,4129.0000 5362.0000,4133.0000 5357.0000,4133.0000 Z "  fill="#000000" stroke="#000000" stroke-width="1.0000"  stroke-linecap="butt"  stroke-linejoin="round" />
</g>
<g transform="matrix(1.0000 0.0000 0.0000 1.0000 0.0000 0.0000)">
</g>
<g transform="matrix(1.0000 0.0000 0.0000 1.0000 335.2302 270.8033)">
<text font-family="Arial" fill="#000000" style ="white-space:pre;" font-weight="400" text-anchor="start" x="0.0000" y="0.0000" font-size="12.0000" ><![CDATA[4]]></text>
</g>
<g transform="matrix(1.0000 0.0000 0.0000 1.0000 341.9658 270.8033)">
<text font-family="Arial" fill="#000000" style ="white-space:pre;" font-weight="400" text-anchor="start" x="0.0000" y="0.0000" font-size="12.0000" ><![CDATA[. ]]></text>
</g>
<g transform="matrix(1.0000 0.0000 0.0000 1.0000 348.6952 270.8033)">
<text font-family="Arial" fill="#000000" style ="white-space:pre;" font-weight="400" text-anchor="start" x="0.0000" y="0.0000" font-size="12.0000" ><![CDATA[UE Context Release from ]]></text>
</g>
<g transform="matrix(1.0000 0.0000 0.0000 1.0000 393.7955 285.3365)">
<text font-family="Arial" fill="#000000" style ="white-space:pre;" font-weight="400" text-anchor="start" x="0.0000" y="0.0000" font-size="12.0000" ><![CDATA[MeNB]]></text>
</g>
<g transform="matrix(0.0625 0.0000 0.0000 0.0625 0.0000 0.0000)">
<path d="M 1242.0000,5978.0000 L 6367.0000,5978.0000 " stroke="#000000" stroke-width="16.0000"  stroke-linecap="round"  stroke-linejoin="round" fill="none" />
</g>
<g transform="matrix(1.0000 0.0000 0.0000 1.0000 0.0000 0.0000)">
</g>
<g transform="matrix(0.0625 0.0000 0.0000 0.0625 0.0000 0.0000)">
<path d="M 1259.0000,6045.0000 L 1058.0000,5978.0000 L 1259.0000,5911.0000 L 1259.0000,6045.0000 Z" stroke-width="1px" stroke="#000000"  fill="#000000" />
</g>
<g transform="matrix(1.0000 0.0000 0.0000 1.0000 0.0000 0.0000)">
</g>
<g transform="matrix(0.0625 0.0000 0.0000 0.0625 0.0000 0.0000)">
<path d="M 6351.0000,5911.0000 L 6551.0000,5978.0000 L 6351.0000,6045.0000 L 6351.0000,5911.0000 Z" stroke-width="1px" stroke="#000000"  fill="#000000" />
</g>
<g transform="matrix(1.0000 0.0000 0.0000 1.0000 0.0000 0.0000)">
</g>
<g transform="matrix(1.0000 0.0000 0.0000 1.0000 143.3727 357.1626)">
<text font-family="Arial" fill="#000000" style ="white-space:pre;" font-weight="400" text-anchor="start" x="0.0000" y="0.0000" font-size="12.0000" ><![CDATA[6]]></text>
</g>
<g transform="matrix(1.0000 0.0000 0.0000 1.0000 150.1082 357.1626)">
<text font-family="Arial" fill="#000000" style ="white-space:pre;" font-weight="400" text-anchor="start" x="0.0000" y="0.0000" font-size="12.0000" ><![CDATA[. ]]></text>
</g>
<g transform="matrix(1.0000 0.0000 0.0000 1.0000 156.8376 357.1626)">
<text font-family="Arial" fill="#000000" style ="white-space:pre;" font-weight="400" text-anchor="start" x="0.0000" y="0.0000" font-size="12.0000" ><![CDATA[F]]></text>
</g>
<g transform="matrix(1.0000 0.0000 0.0000 1.0000 164.2355 357.1626)">
<text font-family="Arial" fill="#000000" style ="white-space:pre;" font-weight="400" text-anchor="start" x="0.0000" y="0.0000" font-size="12.0000" ><![CDATA[1 ]]></text>
</g>
<g transform="matrix(1.0000 0.0000 0.0000 1.0000 174.3358 357.1626)">
<text font-family="Arial" fill="#000000" style ="white-space:pre;" font-weight="400" text-anchor="start" x="0.0000" y="0.0000" font-size="12.0000" ><![CDATA[UE context release procedure]]></text>
</g>
<g transform="matrix(0.0625 0.0000 0.0000 0.0625 0.0000 0.0000)">
<path d="M 3983.0000,5409.0000 L 6551.0000,5409.0000 " stroke="#000000" stroke-width="16.0000"  stroke-linecap="round"  stroke-linejoin="round" fill="none" />
</g>
<g transform="matrix(1.0000 0.0000 0.0000 1.0000 0.0000 0.0000)">
</g>
<g transform="matrix(0.0625 0.0000 0.0000 0.0625 0.0000 0.0000)">
<path d="M 4000.0000,5475.0000 L 3799.0000,5409.0000 L 4000.0000,5342.0000 L 4000.0000,5475.0000 Z" stroke-width="1px" stroke="#000000"  fill="#000000" />
</g>
<g transform="matrix(1.0000 0.0000 0.0000 1.0000 0.0000 0.0000)">
</g>
<g transform="matrix(0.0625 0.0000 0.0000 0.0625 0.0000 0.0000)">
<path d="M 6367.0000,6584.0000 L 3805.0000,6584.0000 " stroke="#000000" stroke-width="16.0000"  stroke-linecap="round"  stroke-linejoin="round" fill="none" />
</g>
<g transform="matrix(1.0000 0.0000 0.0000 1.0000 0.0000 0.0000)">
</g>
<g transform="matrix(0.0625 0.0000 0.0000 0.0625 0.0000 0.0000)">
<path d="M 6351.0000,6518.0000 L 6551.0000,6584.0000 L 6351.0000,6651.0000 L 6351.0000,6518.0000 Z" stroke-width="1px" stroke="#000000"  fill="#000000" />
</g>
<g transform="matrix(1.0000 0.0000 0.0000 1.0000 0.0000 0.0000)">
</g>
<g transform="matrix(1.0000 0.0000 0.0000 1.0000 247.1674 324.1480)">
<text font-family="Arial" fill="#000000" style ="white-space:pre;" font-weight="400" text-anchor="start" x="0.0000" y="0.0000" font-size="12.0000" ><![CDATA[5]]></text>
</g>
<g transform="matrix(1.0000 0.0000 0.0000 1.0000 253.9030 324.1480)">
<text font-family="Arial" fill="#000000" style ="white-space:pre;" font-weight="400" text-anchor="start" x="0.0000" y="0.0000" font-size="12.0000" ><![CDATA[.]]></text>
</g>
<g transform="matrix(1.0000 0.0000 0.0000 1.0000 257.2677 324.1480)">
<text font-family="Arial" fill="#000000" style ="white-space:pre;" font-weight="400" text-anchor="start" x="0.0000" y="0.0000" font-size="12.0000" ><![CDATA[ ]]></text>
</g>
<g transform="matrix(1.0000 0.0000 0.0000 1.0000 260.6323 324.1480)">
<text font-family="Arial" fill="#000000" style ="white-space:pre;" font-weight="400" text-anchor="start" x="0.0000" y="0.0000" font-size="12.0000" ><![CDATA[BEARER CONTEXT RELEASE ]]></text>
</g>
<g transform="matrix(1.0000 0.0000 0.0000 1.0000 247.1674 338.6812)">
<text font-family="Arial" fill="#000000" style ="white-space:pre;" font-weight="400" text-anchor="start" x="0.0000" y="0.0000" font-size="12.0000" ><![CDATA[COMMAND]]></text>
</g>
<g transform="matrix(1.0000 0.0000 0.0000 1.0000 239.6576 397.6398)">
<text font-family="Arial" fill="#000000" style ="white-space:pre;" font-weight="400" text-anchor="start" x="0.0000" y="0.0000" font-size="12.0000" ><![CDATA[7]]></text>
</g>
<g transform="matrix(1.0000 0.0000 0.0000 1.0000 246.3932 397.6398)">
<text font-family="Arial" fill="#000000" style ="white-space:pre;" font-weight="400" text-anchor="start" x="0.0000" y="0.0000" font-size="12.0000" ><![CDATA[.]]></text>
</g>
<g transform="matrix(1.0000 0.0000 0.0000 1.0000 249.7578 397.6398)">
<text font-family="Arial" fill="#000000" style ="white-space:pre;" font-weight="400" text-anchor="start" x="0.0000" y="0.0000" font-size="12.0000" ><![CDATA[ ]]></text>
</g>
<g transform="matrix(1.0000 0.0000 0.0000 1.0000 253.1225 397.6398)">
<text font-family="Arial" fill="#000000" style ="white-space:pre;" font-weight="400" text-anchor="start" x="0.0000" y="0.0000" font-size="12.0000" ><![CDATA[BEARER CONTEXT RELEASE ]]></text>
</g>
<g transform="matrix(1.0000 0.0000 0.0000 1.0000 239.6576 412.1729)">
<text font-family="Arial" fill="#000000" style ="white-space:pre;" font-weight="400" text-anchor="start" x="0.0000" y="0.0000" font-size="12.0000" ><![CDATA[COMPLETE]]></text>
</g>
<g transform="matrix(0.0625 0.0000 0.0000 0.0625 0.0000 0.0000)">
<path d="M 3805.0000,6286.0000 L 3805.0000,7134.0000 " stroke="#000000" stroke-width="16.0000"  stroke-linecap="round"  stroke-linejoin="round" fill="none" />
</g>
<g transform="matrix(1.0000 0.0000 0.0000 1.0000 0.0000 0.0000)">
</g>
</g>
</svg>
