<?xml version="1.0"  encoding="UTF-8" standalone="no"?>
<svg version="1.1" xmlns="http://www.w3.org/2000/svg" xmlns:xlink="http://www.w3.org/1999/xlink" width="616.0000" height="348.0000">
<g transform="translate(1.0000, 1.0000)">
<g transform="matrix(0.0625 0.0000 0.0000 0.0625 0.0000 0.0000)">
<path d="M 23.0000,27.0000 L 23.0000,714.0000 L 1396.0000,714.0000 L 1396.0000,27.0000 L 23.0000,27.0000 Z" stroke-width="1px" stroke="#E8EEF7"  fill="#E8EEF7" />
</g>
<g transform="matrix(1.0000 0.0000 0.0000 1.0000 0.0000 0.0000)">
</g>
<g transform="matrix(0.0625 0.0000 0.0000 0.0625 0.0000 0.0000)">
<path d="M 23.0000,714.0000 L 1396.0000,714.0000 L 1396.0000,27.0000 L 23.0000,27.0000 L 23.0000,714.0000 Z" stroke="#000000" stroke-width="16.0000"  stroke-linecap="round"  stroke-linejoin="round" fill="none" />
</g>
<g transform="matrix(1.0000 0.0000 0.0000 1.0000 0.0000 0.0000)">
</g>
<g transform="matrix(1.0000 0.0000 0.0000 1.0000 10.9838 29.0686)">
<text font-family="Arial" fill="#000000" style ="white-space:pre;" font-weight="400" text-anchor="start" x="0.0000" y="0.0000" font-size="18.0000" ><![CDATA[gNB]]></text>
</g>
<g transform="matrix(1.0000 0.0000 0.0000 1.0000 46.3240 29.0686)">
<text font-family="Arial" fill="#000000" style ="white-space:pre;" font-weight="400" text-anchor="start" x="0.0000" y="0.0000" font-size="18.0000" ><![CDATA[-]]></text>
</g>
<g transform="matrix(1.0000 0.0000 0.0000 1.0000 52.3736 29.0686)">
<text font-family="Arial" fill="#000000" style ="white-space:pre;" font-weight="400" text-anchor="start" x="0.0000" y="0.0000" font-size="18.0000" ><![CDATA[DU]]></text>
</g>
<g transform="matrix(0.0625 0.0000 0.0000 0.0625 0.0000 0.0000)">
<path d="M 4142.0000,27.0000 L 4142.0000,714.0000 L 5516.0000,714.0000 L 5516.0000,27.0000 L 4142.0000,27.0000 Z" stroke-width="1px" stroke="#E8EEF7"  fill="#E8EEF7" />
</g>
<g transform="matrix(1.0000 0.0000 0.0000 1.0000 0.0000 0.0000)">
</g>
<g transform="matrix(0.0625 0.0000 0.0000 0.0625 0.0000 0.0000)">
<path d="M 4142.0000,714.0000 L 5516.0000,714.0000 L 5516.0000,27.0000 L 4142.0000,27.0000 L 4142.0000,714.0000 Z" stroke="#000000" stroke-width="16.0000"  stroke-linecap="round"  stroke-linejoin="round" fill="none" />
</g>
<g transform="matrix(1.0000 0.0000 0.0000 1.0000 0.0000 0.0000)">
</g>
<g transform="matrix(1.0000 0.0000 0.0000 1.0000 268.4641 29.0686)">
<text font-family="Arial" fill="#000000" style ="white-space:pre;" font-weight="400" text-anchor="start" x="0.0000" y="0.0000" font-size="18.0000" ><![CDATA[gNB]]></text>
</g>
<g transform="matrix(1.0000 0.0000 0.0000 1.0000 303.8044 29.0686)">
<text font-family="Arial" fill="#000000" style ="white-space:pre;" font-weight="400" text-anchor="start" x="0.0000" y="0.0000" font-size="18.0000" ><![CDATA[-]]></text>
</g>
<g transform="matrix(1.0000 0.0000 0.0000 1.0000 309.8539 29.0686)">
<text font-family="Arial" fill="#000000" style ="white-space:pre;" font-weight="400" text-anchor="start" x="0.0000" y="0.0000" font-size="18.0000" ><![CDATA[CU]]></text>
</g>
<g transform="matrix(0.0625 0.0000 0.0000 0.0625 0.0000 0.0000)">
<path d="M 709.0000,713.0000 L 709.0000,5516.0000 " stroke="#000000" stroke-width="16.0000"  stroke-linecap="round"  stroke-linejoin="round" fill="none" />
</g>
<g transform="matrix(1.0000 0.0000 0.0000 1.0000 0.0000 0.0000)">
</g>
<g transform="matrix(0.0625 0.0000 0.0000 0.0625 0.0000 0.0000)">
<path d="M 4829.0000,713.0000 L 4829.0000,5516.0000 " stroke="#000000" stroke-width="16.0000"  stroke-linecap="round"  stroke-linejoin="round" fill="none" />
</g>
<g transform="matrix(1.0000 0.0000 0.0000 1.0000 0.0000 0.0000)">
</g>
<g transform="matrix(0.0625 0.0000 0.0000 0.0625 0.0000 0.0000)">
<path d="M 4645.0000,2259.0000 L 709.0000,2259.0000 " stroke="#000000" stroke-width="16.0000"  stroke-linecap="round"  stroke-linejoin="round" fill="none" />
</g>
<g transform="matrix(1.0000 0.0000 0.0000 1.0000 0.0000 0.0000)">
</g>
<g transform="matrix(0.0625 0.0000 0.0000 0.0625 0.0000 0.0000)">
<path d="M 4628.0000,2192.0000 L 4829.0000,2259.0000 L 4628.0000,2325.0000 L 4628.0000,2192.0000 Z" stroke-width="1px" stroke="#000000"  fill="#000000" />
</g>
<g transform="matrix(1.0000 0.0000 0.0000 1.0000 0.0000 0.0000)">
</g>
<g transform="matrix(1.0000 0.0000 0.0000 1.0000 50.8539 198.6283)">
<text font-family="Arial" fill="#000000" style ="white-space:pre;" font-weight="400" text-anchor="start" x="0.0000" y="0.0000" font-size="12.0000" ><![CDATA[3]]></text>
</g>
<g transform="matrix(1.0000 0.0000 0.0000 1.0000 57.5895 198.6283)">
<text font-family="Arial" fill="#000000" style ="white-space:pre;" font-weight="400" text-anchor="start" x="0.0000" y="0.0000" font-size="12.0000" ><![CDATA[. ]]></text>
</g>
<g transform="matrix(1.0000 0.0000 0.0000 1.0000 64.3188 198.6283)">
<text font-family="Arial" fill="#000000" style ="white-space:pre;" font-weight="400" text-anchor="start" x="0.0000" y="0.0000" font-size="12.0000" ><![CDATA[F]]></text>
</g>
<g transform="matrix(1.0000 0.0000 0.0000 1.0000 71.7168 198.6283)">
<text font-family="Arial" fill="#000000" style ="white-space:pre;" font-weight="400" text-anchor="start" x="0.0000" y="0.0000" font-size="12.0000" ><![CDATA[1 ]]></text>
</g>
<g transform="matrix(1.0000 0.0000 0.0000 1.0000 81.8170 198.6283)">
<text font-family="Arial" fill="#000000" style ="white-space:pre;" font-weight="400" text-anchor="start" x="0.0000" y="0.0000" font-size="12.0000" ><![CDATA[SETUP RESPONSE]]></text>
</g>
<g transform="matrix(1.0000 0.0000 0.0000 1.0000 192.8615 198.6283)">
<text font-family="Arial" fill="#000000" style ="white-space:pre;" font-weight="400" text-anchor="start" x="0.0000" y="0.0000" font-size="12.0000" ><![CDATA[ ]]></text>
</g>
<g transform="matrix(0.0625 0.0000 0.0000 0.0625 0.0000 0.0000)">
<path d="M 4829.0000,3284.0000 L 893.0000,3284.0000 " stroke="#000000" stroke-width="16.0000"  stroke-linecap="round"  stroke-linejoin="round" fill="none" />
</g>
<g transform="matrix(1.0000 0.0000 0.0000 1.0000 0.0000 0.0000)">
</g>
<g transform="matrix(0.0625 0.0000 0.0000 0.0625 0.0000 0.0000)">
<path d="M 910.0000,3351.0000 L 709.0000,3284.0000 L 910.0000,3217.0000 L 910.0000,3351.0000 Z" stroke-width="1px" stroke="#000000"  fill="#000000" />
</g>
<g transform="matrix(1.0000 0.0000 0.0000 1.0000 0.0000 0.0000)">
</g>
<g transform="matrix(1.0000 0.0000 0.0000 1.0000 50.8539 134.5351)">
<text font-family="Arial" fill="#000000" style ="white-space:pre;" font-weight="400" text-anchor="start" x="0.0000" y="0.0000" font-size="12.0000" ><![CDATA[1]]></text>
</g>
<g transform="matrix(1.0000 0.0000 0.0000 1.0000 57.5895 134.5351)">
<text font-family="Arial" fill="#000000" style ="white-space:pre;" font-weight="400" text-anchor="start" x="0.0000" y="0.0000" font-size="12.0000" ><![CDATA[. ]]></text>
</g>
<g transform="matrix(1.0000 0.0000 0.0000 1.0000 64.3188 134.5351)">
<text font-family="Arial" fill="#000000" style ="white-space:pre;" font-weight="400" text-anchor="start" x="0.0000" y="0.0000" font-size="12.0000" ><![CDATA[F]]></text>
</g>
<g transform="matrix(1.0000 0.0000 0.0000 1.0000 71.7168 134.5351)">
<text font-family="Arial" fill="#000000" style ="white-space:pre;" font-weight="400" text-anchor="start" x="0.0000" y="0.0000" font-size="12.0000" ><![CDATA[1 ]]></text>
</g>
<g transform="matrix(1.0000 0.0000 0.0000 1.0000 81.8170 134.5351)">
<text font-family="Arial" fill="#000000" style ="white-space:pre;" font-weight="400" text-anchor="start" x="0.0000" y="0.0000" font-size="12.0000" ><![CDATA[SETUP REQUEST]]></text>
</g>
<g transform="matrix(1.0000 0.0000 0.0000 1.0000 184.1039 134.5351)">
<text font-family="Arial" fill="#000000" style ="white-space:pre;" font-weight="400" text-anchor="start" x="0.0000" y="0.0000" font-size="12.0000" ><![CDATA[ ]]></text>
</g>
<g transform="matrix(0.0625 0.0000 0.0000 0.0625 0.0000 0.0000)">
<path d="M 366.0000,1053.0000 L 366.0000,1568.0000 L 5172.0000,1568.0000 L 5172.0000,1053.0000 L 366.0000,1053.0000 Z" stroke-width="1px" stroke="#FFFFFF"  fill="#FFFFFF" />
</g>
<g transform="matrix(1.0000 0.0000 0.0000 1.0000 0.0000 0.0000)">
</g>
<g transform="matrix(0.0625 0.0000 0.0000 0.0625 0.0000 0.0000)">
<path d="M 366.0000,1568.0000 L 5172.0000,1568.0000 L 5172.0000,1053.0000 L 366.0000,1053.0000 L 366.0000,1568.0000 Z" stroke="#000000" stroke-width="16.0000"  stroke-linecap="round"  stroke-linejoin="round" fill="none" />
</g>
<g transform="matrix(1.0000 0.0000 0.0000 1.0000 0.0000 0.0000)">
</g>
<g transform="matrix(1.0000 0.0000 0.0000 1.0000 110.5913 85.9809)">
<text font-family="Arial" fill="#000000" style ="white-space:pre;" font-weight="400" text-anchor="start" x="0.0000" y="0.0000" font-size="12.0000" ><![CDATA[0]]></text>
</g>
<g transform="matrix(1.0000 0.0000 0.0000 1.0000 117.3269 85.9809)">
<text font-family="Arial" fill="#000000" style ="white-space:pre;" font-weight="400" text-anchor="start" x="0.0000" y="0.0000" font-size="12.0000" ><![CDATA[. ]]></text>
</g>
<g transform="matrix(1.0000 0.0000 0.0000 1.0000 124.0562 85.9809)">
<text font-family="Arial" fill="#000000" style ="white-space:pre;" font-weight="400" text-anchor="start" x="0.0000" y="0.0000" font-size="12.0000" ><![CDATA[Pre]]></text>
</g>
<g transform="matrix(1.0000 0.0000 0.0000 1.0000 142.9028 85.9809)">
<text font-family="Arial" fill="#000000" style ="white-space:pre;" font-weight="400" text-anchor="start" x="0.0000" y="0.0000" font-size="12.0000" ><![CDATA[-]]></text>
</g>
<g transform="matrix(1.0000 0.0000 0.0000 1.0000 146.9361 85.9809)">
<text font-family="Arial" fill="#000000" style ="white-space:pre;" font-weight="400" text-anchor="start" x="0.0000" y="0.0000" font-size="12.0000" ><![CDATA[operational state]]></text>
</g>
<g transform="matrix(0.0625 0.0000 0.0000 0.0625 0.0000 0.0000)">
<path d="M 8090.0000,23.0000 L 8090.0000,709.0000 L 9807.0000,709.0000 L 9807.0000,23.0000 L 8090.0000,23.0000 Z" stroke-width="1px" stroke="#E8EEF7"  fill="#E8EEF7" />
</g>
<g transform="matrix(1.0000 0.0000 0.0000 1.0000 0.0000 0.0000)">
</g>
<g transform="matrix(0.0625 0.0000 0.0000 0.0625 0.0000 0.0000)">
<path d="M 8090.0000,709.0000 L 9807.0000,709.0000 L 9807.0000,23.0000 L 8090.0000,23.0000 L 8090.0000,709.0000 Z" stroke="#000000" stroke-width="16.0000"  stroke-linecap="round"  stroke-linejoin="round" fill="none" />
</g>
<g transform="matrix(1.0000 0.0000 0.0000 1.0000 0.0000 0.0000)">
</g>
<g transform="matrix(1.0000 0.0000 0.0000 1.0000 521.8951 28.7917)">
<text font-family="Arial" fill="#000000" style ="white-space:pre;" font-weight="400" text-anchor="start" x="0.0000" y="0.0000" font-size="18.0000" ><![CDATA[gNB]]></text>
</g>
<g transform="matrix(1.0000 0.0000 0.0000 1.0000 557.2354 28.7917)">
<text font-family="Arial" fill="#000000" style ="white-space:pre;" font-weight="400" text-anchor="start" x="0.0000" y="0.0000" font-size="18.0000" ><![CDATA[/]]></text>
</g>
<g transform="matrix(1.0000 0.0000 0.0000 1.0000 562.2828 28.7917)">
<text font-family="Arial" fill="#000000" style ="white-space:pre;" font-weight="400" text-anchor="start" x="0.0000" y="0.0000" font-size="18.0000" ><![CDATA[eNB]]></text>
</g>
<g transform="matrix(0.0625 0.0000 0.0000 0.0625 0.0000 0.0000)">
<path d="M 8949.0000,709.0000 L 8949.0000,5512.0000 " stroke="#000000" stroke-width="16.0000"  stroke-linecap="round"  stroke-linejoin="round" fill="none" />
</g>
<g transform="matrix(1.0000 0.0000 0.0000 1.0000 0.0000 0.0000)">
</g>
<g transform="matrix(0.0625 0.0000 0.0000 0.0625 0.0000 0.0000)">
<path d="M 6374.0000,23.0000 L 6374.0000,709.0000 L 7747.0000,709.0000 L 7747.0000,23.0000 L 6374.0000,23.0000 Z" stroke-width="1px" stroke="#E8EEF7"  fill="#E8EEF7" />
</g>
<g transform="matrix(1.0000 0.0000 0.0000 1.0000 0.0000 0.0000)">
</g>
<g transform="matrix(0.0625 0.0000 0.0000 0.0625 0.0000 0.0000)">
<path d="M 6374.0000,709.0000 L 7747.0000,709.0000 L 7747.0000,23.0000 L 6374.0000,23.0000 L 6374.0000,709.0000 Z" stroke="#000000" stroke-width="16.0000"  stroke-linecap="round"  stroke-linejoin="round" fill="none" />
</g>
<g transform="matrix(1.0000 0.0000 0.0000 1.0000 0.0000 0.0000)">
</g>
<g transform="matrix(1.0000 0.0000 0.0000 1.0000 423.0703 28.7917)">
<text font-family="Arial" fill="#000000" style ="white-space:pre;" font-weight="400" text-anchor="start" x="0.0000" y="0.0000" font-size="18.0000" ><![CDATA[5]]></text>
</g>
<g transform="matrix(1.0000 0.0000 0.0000 1.0000 433.1739 28.7917)">
<text font-family="Arial" fill="#000000" style ="white-space:pre;" font-weight="400" text-anchor="start" x="0.0000" y="0.0000" font-size="18.0000" ><![CDATA[GC]]></text>
</g>
<g transform="matrix(0.0625 0.0000 0.0000 0.0625 0.0000 0.0000)">
<path d="M 7060.0000,709.0000 L 7060.0000,5512.0000 " stroke="#000000" stroke-width="16.0000"  stroke-linecap="round"  stroke-linejoin="round" fill="none" />
</g>
<g transform="matrix(1.0000 0.0000 0.0000 1.0000 0.0000 0.0000)">
</g>
<g transform="matrix(0.0625 0.0000 0.0000 0.0625 0.0000 0.0000)">
<path d="M 6877.0000,2777.0000 L 6764.0000,2777.0000 C 6760.0000,2777.0000 6756.0000,2774.0000 6756.0000,2769.0000 C 6756.0000,2765.0000 6760.0000,2761.0000 6764.0000,2761.0000 L 6877.0000,2761.0000 C 6881.0000,2761.0000 6885.0000,2765.0000 6885.0000,2769.0000 C 6885.0000,2774.0000 6881.0000,2777.0000 6877.0000,2777.0000 Z M 6684.0000,2777.0000 L 6572.0000,2777.0000 C 6568.0000,2777.0000 6564.0000,2774.0000 6564.0000,2769.0000 C 6564.0000,2765.0000 6568.0000,2761.0000 6572.0000,2761.0000 L 6684.0000,2761.0000 C 6689.0000,2761.0000 6692.0000,2765.0000 6692.0000,2769.0000 C 6692.0000,2774.0000 6689.0000,2777.0000 6684.0000,2777.0000 Z M 6492.0000,2777.0000 L 6380.0000,2777.0000 C 6376.0000,2777.0000 6372.0000,2774.0000 6372.0000,2769.0000 C 6372.0000,2765.0000 6376.0000,2761.0000 6380.0000,2761.0000 L 6492.0000,2761.0000 C 6497.0000,2761.0000 6500.0000,2765.0000 6500.0000,2769.0000 C 6500.0000,2774.0000 6497.0000,2777.0000 6492.0000,2777.0000 Z M 6300.0000,2777.0000 L 6188.0000,2777.0000 C 6183.0000,2777.0000 6180.0000,2774.0000 6180.0000,2769.0000 C 6180.0000,2765.0000 6183.0000,2761.0000 6188.0000,2761.0000 L 6300.0000,2761.0000 C 6304.0000,2761.0000 6308.0000,2765.0000 6308.0000,2769.0000 C 6308.0000,2774.0000 6304.0000,2777.0000 6300.0000,2777.0000 Z M 6108.0000,2777.0000 L 5996.0000,2777.0000 C 5991.0000,2777.0000 5988.0000,2774.0000 5988.0000,2769.0000 C 5988.0000,2765.0000 5991.0000,2761.0000 5996.0000,2761.0000 L 6108.0000,2761.0000 C 6112.0000,2761.0000 6116.0000,2765.0000 6116.0000,2769.0000 C 6116.0000,2774.0000 6112.0000,2777.0000 6108.0000,2777.0000 Z M 5916.0000,2777.0000 L 5804.0000,2777.0000 C 5799.0000,2777.0000 5795.0000,2774.0000 5795.0000,2769.0000 C 5795.0000,2765.0000 5799.0000,2761.0000 5804.0000,2761.0000 L 5916.0000,2761.0000 C 5920.0000,2761.0000 5924.0000,2765.0000 5924.0000,2769.0000 C 5924.0000,2774.0000 5920.0000,2777.0000 5916.0000,2777.0000 Z M 5723.0000,2777.0000 L 5611.0000,2777.0000 C 5607.0000,2777.0000 5603.0000,2774.0000 5603.0000,2769.0000 C 5603.0000,2765.0000 5607.0000,2761.0000 5611.0000,2761.0000 L 5723.0000,2761.0000 C 5728.0000,2761.0000 5731.0000,2765.0000 5731.0000,2769.0000 C 5731.0000,2774.0000 5728.0000,2777.0000 5723.0000,2777.0000 Z M 5531.0000,2777.0000 L 5419.0000,2777.0000 C 5415.0000,2777.0000 5411.0000,2774.0000 5411.0000,2769.0000 C 5411.0000,2765.0000 5415.0000,2761.0000 5419.0000,2761.0000 L 5531.0000,2761.0000 C 5536.0000,2761.0000 5539.0000,2765.0000 5539.0000,2769.0000 C 5539.0000,2774.0000 5536.0000,2777.0000 5531.0000,2777.0000 Z M 5339.0000,2777.0000 L 5227.0000,2777.0000 C 5223.0000,2777.0000 5219.0000,2774.0000 5219.0000,2769.0000 C 5219.0000,2765.0000 5223.0000,2761.0000 5227.0000,2761.0000 L 5339.0000,2761.0000 C 5343.0000,2761.0000 5347.0000,2765.0000 5347.0000,2769.0000 C 5347.0000,2774.0000 5343.0000,2777.0000 5339.0000,2777.0000 Z M 5147.0000,2777.0000 L 5035.0000,2777.0000 C 5030.0000,2777.0000 5027.0000,2774.0000 5027.0000,2769.0000 C 5027.0000,2765.0000 5030.0000,2761.0000 5035.0000,2761.0000 L 5147.0000,2761.0000 C 5151.0000,2761.0000 5155.0000,2765.0000 5155.0000,2769.0000 C 5155.0000,2774.0000 5151.0000,2777.0000 5147.0000,2777.0000 Z "  fill="#000000" stroke="#000000" stroke-width="1.0000"  stroke-linecap="butt"  stroke-linejoin="round" />
</g>
<g transform="matrix(1.0000 0.0000 0.0000 1.0000 0.0000 0.0000)">
</g>
<g transform="matrix(0.0625 0.0000 0.0000 0.0625 0.0000 0.0000)">
<path d="M 6860.0000,2702.0000 L 7060.0000,2769.0000 L 6860.0000,2836.0000 L 6860.0000,2702.0000 Z" stroke-width="1px" stroke="#000000"  fill="#000000" />
</g>
<g transform="matrix(1.0000 0.0000 0.0000 1.0000 0.0000 0.0000)">
</g>
<g transform="matrix(0.0625 0.0000 0.0000 0.0625 0.0000 0.0000)">
<path d="M 5029.0000,2836.0000 L 4829.0000,2769.0000 L 5029.0000,2702.0000 L 5029.0000,2836.0000 Z" stroke-width="1px" stroke="#000000"  fill="#000000" />
</g>
<g transform="matrix(1.0000 0.0000 0.0000 1.0000 0.0000 0.0000)">
</g>
<g transform="matrix(1.0000 0.0000 0.0000 1.0000 308.3342 166.4432)">
<text font-family="Arial" fill="#000000" style ="white-space:pre;" font-weight="400" text-anchor="start" x="0.0000" y="0.0000" font-size="12.0000" ><![CDATA[2]]></text>
</g>
<g transform="matrix(1.0000 0.0000 0.0000 1.0000 315.0698 166.4432)">
<text font-family="Arial" fill="#000000" style ="white-space:pre;" font-weight="400" text-anchor="start" x="0.0000" y="0.0000" font-size="12.0000" ><![CDATA[. ]]></text>
</g>
<g transform="matrix(1.0000 0.0000 0.0000 1.0000 321.7991 166.4432)">
<text font-family="Arial" fill="#000000" style ="white-space:pre;" font-weight="400" text-anchor="start" x="0.0000" y="0.0000" font-size="12.0000" ><![CDATA[NG Setup]]></text>
</g>
<g transform="matrix(1.0000 0.0000 0.0000 1.0000 374.9798 166.4432)">
<text font-family="Arial" fill="#000000" style ="white-space:pre;" font-weight="400" text-anchor="start" x="0.0000" y="0.0000" font-size="12.0000" ><![CDATA[/]]></text>
</g>
<g transform="matrix(1.0000 0.0000 0.0000 1.0000 378.3445 166.4432)">
<text font-family="Arial" fill="#000000" style ="white-space:pre;" font-weight="400" text-anchor="start" x="0.0000" y="0.0000" font-size="12.0000" ><![CDATA[gNB Configuration Update]]></text>
</g>
<g transform="matrix(0.0625 0.0000 0.0000 0.0625 0.0000 0.0000)">
<path d="M 8765.0000,4943.0000 L 8653.0000,4943.0000 C 8648.0000,4943.0000 8645.0000,4939.0000 8645.0000,4935.0000 C 8645.0000,4930.0000 8648.0000,4927.0000 8653.0000,4927.0000 L 8765.0000,4927.0000 C 8769.0000,4927.0000 8773.0000,4930.0000 8773.0000,4935.0000 C 8773.0000,4939.0000 8769.0000,4943.0000 8765.0000,4943.0000 Z M 8573.0000,4943.0000 L 8460.0000,4943.0000 C 8456.0000,4943.0000 8452.0000,4939.0000 8452.0000,4935.0000 C 8452.0000,4930.0000 8456.0000,4927.0000 8460.0000,4927.0000 L 8573.0000,4927.0000 C 8577.0000,4927.0000 8581.0000,4930.0000 8581.0000,4935.0000 C 8581.0000,4939.0000 8577.0000,4943.0000 8573.0000,4943.0000 Z M 8380.0000,4943.0000 L 8268.0000,4943.0000 C 8264.0000,4943.0000 8260.0000,4939.0000 8260.0000,4935.0000 C 8260.0000,4930.0000 8264.0000,4927.0000 8268.0000,4927.0000 L 8380.0000,4927.0000 C 8385.0000,4927.0000 8388.0000,4930.0000 8388.0000,4935.0000 C 8388.0000,4939.0000 8385.0000,4943.0000 8380.0000,4943.0000 Z M 8188.0000,4943.0000 L 8076.0000,4943.0000 C 8072.0000,4943.0000 8068.0000,4939.0000 8068.0000,4935.0000 C 8068.0000,4930.0000 8072.0000,4927.0000 8076.0000,4927.0000 L 8188.0000,4927.0000 C 8193.0000,4927.0000 8196.0000,4930.0000 8196.0000,4935.0000 C 8196.0000,4939.0000 8193.0000,4943.0000 8188.0000,4943.0000 Z M 7996.0000,4943.0000 L 7884.0000,4943.0000 C 7879.0000,4943.0000 7876.0000,4939.0000 7876.0000,4935.0000 C 7876.0000,4930.0000 7879.0000,4927.0000 7884.0000,4927.0000 L 7996.0000,4927.0000 C 8000.0000,4927.0000 8004.0000,4930.0000 8004.0000,4935.0000 C 8004.0000,4939.0000 8000.0000,4943.0000 7996.0000,4943.0000 Z M 7804.0000,4943.0000 L 7692.0000,4943.0000 C 7687.0000,4943.0000 7684.0000,4939.0000 7684.0000,4935.0000 C 7684.0000,4930.0000 7687.0000,4927.0000 7692.0000,4927.0000 L 7804.0000,4927.0000 C 7808.0000,4927.0000 7812.0000,4930.0000 7812.0000,4935.0000 C 7812.0000,4939.0000 7808.0000,4943.0000 7804.0000,4943.0000 Z M 7612.0000,4943.0000 L 7500.0000,4943.0000 C 7495.0000,4943.0000 7491.0000,4939.0000 7491.0000,4935.0000 C 7491.0000,4930.0000 7495.0000,4927.0000 7500.0000,4927.0000 L 7612.0000,4927.0000 C 7616.0000,4927.0000 7620.0000,4930.0000 7620.0000,4935.0000 C 7620.0000,4939.0000 7616.0000,4943.0000 7612.0000,4943.0000 Z M 7419.0000,4943.0000 L 7307.0000,4943.0000 C 7303.0000,4943.0000 7299.0000,4939.0000 7299.0000,4935.0000 C 7299.0000,4930.0000 7303.0000,4927.0000 7307.0000,4927.0000 L 7419.0000,4927.0000 C 7424.0000,4927.0000 7427.0000,4930.0000 7427.0000,4935.0000 C 7427.0000,4939.0000 7424.0000,4943.0000 7419.0000,4943.0000 Z M 7227.0000,4943.0000 L 7115.0000,4943.0000 C 7111.0000,4943.0000 7107.0000,4939.0000 7107.0000,4935.0000 C 7107.0000,4930.0000 7111.0000,4927.0000 7115.0000,4927.0000 L 7227.0000,4927.0000 C 7232.0000,4927.0000 7235.0000,4930.0000 7235.0000,4935.0000 C 7235.0000,4939.0000 7232.0000,4943.0000 7227.0000,4943.0000 Z M 7035.0000,4943.0000 L 6923.0000,4943.0000 C 6919.0000,4943.0000 6915.0000,4939.0000 6915.0000,4935.0000 C 6915.0000,4930.0000 6919.0000,4927.0000 6923.0000,4927.0000 L 7035.0000,4927.0000 C 7039.0000,4927.0000 7043.0000,4930.0000 7043.0000,4935.0000 C 7043.0000,4939.0000 7039.0000,4943.0000 7035.0000,4943.0000 Z M 6843.0000,4943.0000 L 6731.0000,4943.0000 C 6726.0000,4943.0000 6723.0000,4939.0000 6723.0000,4935.0000 C 6723.0000,4930.0000 6726.0000,4927.0000 6731.0000,4927.0000 L 6843.0000,4927.0000 C 6847.0000,4927.0000 6851.0000,4930.0000 6851.0000,4935.0000 C 6851.0000,4939.0000 6847.0000,4943.0000 6843.0000,4943.0000 Z M 6651.0000,4943.0000 L 6539.0000,4943.0000 C 6534.0000,4943.0000 6531.0000,4939.0000 6531.0000,4935.0000 C 6531.0000,4930.0000 6534.0000,4927.0000 6539.0000,4927.0000 L 6651.0000,4927.0000 C 6655.0000,4927.0000 6659.0000,4930.0000 6659.0000,4935.0000 C 6659.0000,4939.0000 6655.0000,4943.0000 6651.0000,4943.0000 Z M 6458.0000,4943.0000 L 6346.0000,4943.0000 C 6342.0000,4943.0000 6338.0000,4939.0000 6338.0000,4935.0000 C 6338.0000,4930.0000 6342.0000,4927.0000 6346.0000,4927.0000 L 6458.0000,4927.0000 C 6463.0000,4927.0000 6466.0000,4930.0000 6466.0000,4935.0000 C 6466.0000,4939.0000 6463.0000,4943.0000 6458.0000,4943.0000 Z M 6266.0000,4943.0000 L 6154.0000,4943.0000 C 6150.0000,4943.0000 6146.0000,4939.0000 6146.0000,4935.0000 C 6146.0000,4930.0000 6150.0000,4927.0000 6154.0000,4927.0000 L 6266.0000,4927.0000 C 6271.0000,4927.0000 6274.0000,4930.0000 6274.0000,4935.0000 C 6274.0000,4939.0000 6271.0000,4943.0000 6266.0000,4943.0000 Z M 6074.0000,4943.0000 L 5962.0000,4943.0000 C 5958.0000,4943.0000 5954.0000,4939.0000 5954.0000,4935.0000 C 5954.0000,4930.0000 5958.0000,4927.0000 5962.0000,4927.0000 L 6074.0000,4927.0000 C 6078.0000,4927.0000 6082.0000,4930.0000 6082.0000,4935.0000 C 6082.0000,4939.0000 6078.0000,4943.0000 6074.0000,4943.0000 Z M 5882.0000,4943.0000 L 5770.0000,4943.0000 C 5765.0000,4943.0000 5762.0000,4939.0000 5762.0000,4935.0000 C 5762.0000,4930.0000 5765.0000,4927.0000 5770.0000,4927.0000 L 5882.0000,4927.0000 C 5886.0000,4927.0000 5890.0000,4930.0000 5890.0000,4935.0000 C 5890.0000,4939.0000 5886.0000,4943.0000 5882.0000,4943.0000 Z M 5690.0000,4943.0000 L 5578.0000,4943.0000 C 5573.0000,4943.0000 5570.0000,4939.0000 5570.0000,4935.0000 C 5570.0000,4930.0000 5573.0000,4927.0000 5578.0000,4927.0000 L 5690.0000,4927.0000 C 5694.0000,4927.0000 5698.0000,4930.0000 5698.0000,4935.0000 C 5698.0000,4939.0000 5694.0000,4943.0000 5690.0000,4943.0000 Z M 5497.0000,4943.0000 L 5385.0000,4943.0000 C 5381.0000,4943.0000 5377.0000,4939.0000 5377.0000,4935.0000 C 5377.0000,4930.0000 5381.0000,4927.0000 5385.0000,4927.0000 L 5497.0000,4927.0000 C 5502.0000,4927.0000 5506.0000,4930.0000 5506.0000,4935.0000 C 5506.0000,4939.0000 5502.0000,4943.0000 5497.0000,4943.0000 Z M 5305.0000,4943.0000 L 5193.0000,4943.0000 C 5189.0000,4943.0000 5185.0000,4939.0000 5185.0000,4935.0000 C 5185.0000,4930.0000 5189.0000,4927.0000 5193.0000,4927.0000 L 5305.0000,4927.0000 C 5310.0000,4927.0000 5313.0000,4930.0000 5313.0000,4935.0000 C 5313.0000,4939.0000 5310.0000,4943.0000 5305.0000,4943.0000 Z M 5113.0000,4943.0000 L 5013.0000,4943.0000 C 5008.0000,4943.0000 5005.0000,4939.0000 5005.0000,4935.0000 C 5005.0000,4930.0000 5008.0000,4927.0000 5013.0000,4927.0000 L 5113.0000,4927.0000 C 5118.0000,4927.0000 5121.0000,4930.0000 5121.0000,4935.0000 C 5121.0000,4939.0000 5118.0000,4943.0000 5113.0000,4943.0000 Z "  fill="#000000" stroke="#000000" stroke-width="1.0000"  stroke-linecap="butt"  stroke-linejoin="round" />
</g>
<g transform="matrix(1.0000 0.0000 0.0000 1.0000 0.0000 0.0000)">
</g>
<g transform="matrix(0.0625 0.0000 0.0000 0.0625 0.0000 0.0000)">
<path d="M 8748.0000,4868.0000 L 8949.0000,4935.0000 L 8748.0000,5002.0000 L 8748.0000,4868.0000 Z" stroke-width="1px" stroke="#000000"  fill="#000000" />
</g>
<g transform="matrix(1.0000 0.0000 0.0000 1.0000 0.0000 0.0000)">
</g>
<g transform="matrix(0.0625 0.0000 0.0000 0.0625 0.0000 0.0000)">
<path d="M 5029.0000,5002.0000 L 4829.0000,4935.0000 L 5029.0000,4868.0000 L 5029.0000,5002.0000 Z" stroke-width="1px" stroke="#000000"  fill="#000000" />
</g>
<g transform="matrix(1.0000 0.0000 0.0000 1.0000 0.0000 0.0000)">
</g>
<g transform="matrix(1.0000 0.0000 0.0000 1.0000 308.3342 301.8020)">
<text font-family="Arial" fill="#000000" style ="white-space:pre;" font-weight="400" text-anchor="start" x="0.0000" y="0.0000" font-size="12.0000" ><![CDATA[6]]></text>
</g>
<g transform="matrix(1.0000 0.0000 0.0000 1.0000 315.0698 301.8020)">
<text font-family="Arial" fill="#000000" style ="white-space:pre;" font-weight="400" text-anchor="start" x="0.0000" y="0.0000" font-size="12.0000" ><![CDATA[. ]]></text>
</g>
<g transform="matrix(1.0000 0.0000 0.0000 1.0000 321.7991 301.8020)">
<text font-family="Arial" fill="#000000" style ="white-space:pre;" font-weight="400" text-anchor="start" x="0.0000" y="0.0000" font-size="12.0000" ><![CDATA[Xn]]></text>
</g>
<g transform="matrix(1.0000 0.0000 0.0000 1.0000 336.6125 301.8020)">
<text font-family="Arial" fill="#000000" style ="white-space:pre;" font-weight="400" text-anchor="start" x="0.0000" y="0.0000" font-size="12.0000" ><![CDATA[/]]></text>
</g>
<g transform="matrix(1.0000 0.0000 0.0000 1.0000 339.9772 301.8020)">
<text font-family="Arial" fill="#000000" style ="white-space:pre;" font-weight="400" text-anchor="start" x="0.0000" y="0.0000" font-size="12.0000" ><![CDATA[X]]></text>
</g>
<g transform="matrix(1.0000 0.0000 0.0000 1.0000 348.0550 301.8020)">
<text font-family="Arial" fill="#000000" style ="white-space:pre;" font-weight="400" text-anchor="start" x="0.0000" y="0.0000" font-size="12.0000" ><![CDATA[2 ]]></text>
</g>
<g transform="matrix(1.0000 0.0000 0.0000 1.0000 358.1552 301.8020)">
<text font-family="Arial" fill="#000000" style ="white-space:pre;" font-weight="400" text-anchor="start" x="0.0000" y="0.0000" font-size="12.0000" ><![CDATA[Setup]]></text>
</g>
<g transform="matrix(1.0000 0.0000 0.0000 1.0000 50.6722 233.1406)">
<text font-family="Arial" fill="#000000" style ="white-space:pre;" font-weight="400" text-anchor="start" x="0.0000" y="0.0000" font-size="12.0000" ><![CDATA[4]]></text>
</g>
<g transform="matrix(1.0000 0.0000 0.0000 1.0000 57.4078 233.1406)">
<text font-family="Arial" fill="#000000" style ="white-space:pre;" font-weight="400" text-anchor="start" x="0.0000" y="0.0000" font-size="12.0000" ><![CDATA[. ]]></text>
</g>
<g transform="matrix(1.0000 0.0000 0.0000 1.0000 64.1372 233.1406)">
<text font-family="Arial" fill="#000000" style ="white-space:pre;" font-weight="400" text-anchor="start" x="0.0000" y="0.0000" font-size="12.0000" ><![CDATA[GNB]]></text>
</g>
<g transform="matrix(1.0000 0.0000 0.0000 1.0000 90.3818 233.1406)">
<text font-family="Arial" fill="#000000" style ="white-space:pre;" font-weight="400" text-anchor="start" x="0.0000" y="0.0000" font-size="12.0000" ><![CDATA[-]]></text>
</g>
<g transform="matrix(1.0000 0.0000 0.0000 1.0000 94.4150 233.1406)">
<text font-family="Arial" fill="#000000" style ="white-space:pre;" font-weight="400" text-anchor="start" x="0.0000" y="0.0000" font-size="12.0000" ><![CDATA[CU CONFIGURATION UPDATE]]></text>
</g>
<g transform="matrix(1.0000 0.0000 0.0000 1.0000 269.3575 233.1406)">
<text font-family="Arial" fill="#000000" style ="white-space:pre;" font-weight="400" text-anchor="start" x="0.0000" y="0.0000" font-size="12.0000" ><![CDATA[ ]]></text>
</g>
<g transform="matrix(0.0625 0.0000 0.0000 0.0625 0.0000 0.0000)">
<path d="M 4826.0000,3844.0000 L 4714.0000,3844.0000 C 4709.0000,3844.0000 4706.0000,3841.0000 4706.0000,3836.0000 C 4706.0000,3832.0000 4709.0000,3828.0000 4714.0000,3828.0000 L 4826.0000,3828.0000 C 4830.0000,3828.0000 4834.0000,3832.0000 4834.0000,3836.0000 C 4834.0000,3841.0000 4830.0000,3844.0000 4826.0000,3844.0000 Z M 4634.0000,3844.0000 L 4522.0000,3844.0000 C 4517.0000,3844.0000 4514.0000,3841.0000 4514.0000,3836.0000 C 4514.0000,3832.0000 4517.0000,3828.0000 4522.0000,3828.0000 L 4634.0000,3828.0000 C 4638.0000,3828.0000 4642.0000,3832.0000 4642.0000,3836.0000 C 4642.0000,3841.0000 4638.0000,3844.0000 4634.0000,3844.0000 Z M 4442.0000,3844.0000 L 4330.0000,3844.0000 C 4325.0000,3844.0000 4322.0000,3841.0000 4322.0000,3836.0000 C 4322.0000,3832.0000 4325.0000,3828.0000 4330.0000,3828.0000 L 4442.0000,3828.0000 C 4446.0000,3828.0000 4450.0000,3832.0000 4450.0000,3836.0000 C 4450.0000,3841.0000 4446.0000,3844.0000 4442.0000,3844.0000 Z M 4249.0000,3844.0000 L 4137.0000,3844.0000 C 4133.0000,3844.0000 4129.0000,3841.0000 4129.0000,3836.0000 C 4129.0000,3832.0000 4133.0000,3828.0000 4137.0000,3828.0000 L 4249.0000,3828.0000 C 4254.0000,3828.0000 4257.0000,3832.0000 4257.0000,3836.0000 C 4257.0000,3841.0000 4254.0000,3844.0000 4249.0000,3844.0000 Z M 4057.0000,3844.0000 L 3945.0000,3844.0000 C 3941.0000,3844.0000 3937.0000,3841.0000 3937.0000,3836.0000 C 3937.0000,3832.0000 3941.0000,3828.0000 3945.0000,3828.0000 L 4057.0000,3828.0000 C 4062.0000,3828.0000 4065.0000,3832.0000 4065.0000,3836.0000 C 4065.0000,3841.0000 4062.0000,3844.0000 4057.0000,3844.0000 Z M 3865.0000,3844.0000 L 3753.0000,3844.0000 C 3749.0000,3844.0000 3745.0000,3841.0000 3745.0000,3836.0000 C 3745.0000,3832.0000 3749.0000,3828.0000 3753.0000,3828.0000 L 3865.0000,3828.0000 C 3869.0000,3828.0000 3873.0000,3832.0000 3873.0000,3836.0000 C 3873.0000,3841.0000 3869.0000,3844.0000 3865.0000,3844.0000 Z M 3673.0000,3844.0000 L 3561.0000,3844.0000 C 3556.0000,3844.0000 3553.0000,3841.0000 3553.0000,3836.0000 C 3553.0000,3832.0000 3556.0000,3828.0000 3561.0000,3828.0000 L 3673.0000,3828.0000 C 3677.0000,3828.0000 3681.0000,3832.0000 3681.0000,3836.0000 C 3681.0000,3841.0000 3677.0000,3844.0000 3673.0000,3844.0000 Z M 3481.0000,3844.0000 L 3369.0000,3844.0000 C 3364.0000,3844.0000 3361.0000,3841.0000 3361.0000,3836.0000 C 3361.0000,3832.0000 3364.0000,3828.0000 3369.0000,3828.0000 L 3481.0000,3828.0000 C 3485.0000,3828.0000 3489.0000,3832.0000 3489.0000,3836.0000 C 3489.0000,3841.0000 3485.0000,3844.0000 3481.0000,3844.0000 Z M 3288.0000,3844.0000 L 3176.0000,3844.0000 C 3172.0000,3844.0000 3168.0000,3841.0000 3168.0000,3836.0000 C 3168.0000,3832.0000 3172.0000,3828.0000 3176.0000,3828.0000 L 3288.0000,3828.0000 C 3293.0000,3828.0000 3296.0000,3832.0000 3296.0000,3836.0000 C 3296.0000,3841.0000 3293.0000,3844.0000 3288.0000,3844.0000 Z M 3096.0000,3844.0000 L 2984.0000,3844.0000 C 2980.0000,3844.0000 2976.0000,3841.0000 2976.0000,3836.0000 C 2976.0000,3832.0000 2980.0000,3828.0000 2984.0000,3828.0000 L 3096.0000,3828.0000 C 3101.0000,3828.0000 3104.0000,3832.0000 3104.0000,3836.0000 C 3104.0000,3841.0000 3101.0000,3844.0000 3096.0000,3844.0000 Z M 2904.0000,3844.0000 L 2792.0000,3844.0000 C 2788.0000,3844.0000 2784.0000,3841.0000 2784.0000,3836.0000 C 2784.0000,3832.0000 2788.0000,3828.0000 2792.0000,3828.0000 L 2904.0000,3828.0000 C 2909.0000,3828.0000 2912.0000,3832.0000 2912.0000,3836.0000 C 2912.0000,3841.0000 2909.0000,3844.0000 2904.0000,3844.0000 Z M 2712.0000,3844.0000 L 2600.0000,3844.0000 C 2595.0000,3844.0000 2592.0000,3841.0000 2592.0000,3836.0000 C 2592.0000,3832.0000 2595.0000,3828.0000 2600.0000,3828.0000 L 2712.0000,3828.0000 C 2716.0000,3828.0000 2720.0000,3832.0000 2720.0000,3836.0000 C 2720.0000,3841.0000 2716.0000,3844.0000 2712.0000,3844.0000 Z M 2520.0000,3844.0000 L 2408.0000,3844.0000 C 2403.0000,3844.0000 2400.0000,3841.0000 2400.0000,3836.0000 C 2400.0000,3832.0000 2403.0000,3828.0000 2408.0000,3828.0000 L 2520.0000,3828.0000 C 2524.0000,3828.0000 2528.0000,3832.0000 2528.0000,3836.0000 C 2528.0000,3841.0000 2524.0000,3844.0000 2520.0000,3844.0000 Z M 2328.0000,3844.0000 L 2215.0000,3844.0000 C 2211.0000,3844.0000 2207.0000,3841.0000 2207.0000,3836.0000 C 2207.0000,3832.0000 2211.0000,3828.0000 2215.0000,3828.0000 L 2328.0000,3828.0000 C 2332.0000,3828.0000 2336.0000,3832.0000 2336.0000,3836.0000 C 2336.0000,3841.0000 2332.0000,3844.0000 2328.0000,3844.0000 Z M 2135.0000,3844.0000 L 2023.0000,3844.0000 C 2019.0000,3844.0000 2015.0000,3841.0000 2015.0000,3836.0000 C 2015.0000,3832.0000 2019.0000,3828.0000 2023.0000,3828.0000 L 2135.0000,3828.0000 C 2140.0000,3828.0000 2143.0000,3832.0000 2143.0000,3836.0000 C 2143.0000,3841.0000 2140.0000,3844.0000 2135.0000,3844.0000 Z M 1943.0000,3844.0000 L 1831.0000,3844.0000 C 1827.0000,3844.0000 1823.0000,3841.0000 1823.0000,3836.0000 C 1823.0000,3832.0000 1827.0000,3828.0000 1831.0000,3828.0000 L 1943.0000,3828.0000 C 1948.0000,3828.0000 1951.0000,3832.0000 1951.0000,3836.0000 C 1951.0000,3841.0000 1948.0000,3844.0000 1943.0000,3844.0000 Z M 1751.0000,3844.0000 L 1639.0000,3844.0000 C 1634.0000,3844.0000 1631.0000,3841.0000 1631.0000,3836.0000 C 1631.0000,3832.0000 1634.0000,3828.0000 1639.0000,3828.0000 L 1751.0000,3828.0000 C 1755.0000,3828.0000 1759.0000,3832.0000 1759.0000,3836.0000 C 1759.0000,3841.0000 1755.0000,3844.0000 1751.0000,3844.0000 Z M 1559.0000,3844.0000 L 1447.0000,3844.0000 C 1442.0000,3844.0000 1439.0000,3841.0000 1439.0000,3836.0000 C 1439.0000,3832.0000 1442.0000,3828.0000 1447.0000,3828.0000 L 1559.0000,3828.0000 C 1563.0000,3828.0000 1567.0000,3832.0000 1567.0000,3836.0000 C 1567.0000,3841.0000 1563.0000,3844.0000 1559.0000,3844.0000 Z M 1367.0000,3844.0000 L 1254.0000,3844.0000 C 1250.0000,3844.0000 1246.0000,3841.0000 1246.0000,3836.0000 C 1246.0000,3832.0000 1250.0000,3828.0000 1254.0000,3828.0000 L 1367.0000,3828.0000 C 1371.0000,3828.0000 1375.0000,3832.0000 1375.0000,3836.0000 C 1375.0000,3841.0000 1371.0000,3844.0000 1367.0000,3844.0000 Z M 1174.0000,3844.0000 L 1062.0000,3844.0000 C 1058.0000,3844.0000 1054.0000,3841.0000 1054.0000,3836.0000 C 1054.0000,3832.0000 1058.0000,3828.0000 1062.0000,3828.0000 L 1174.0000,3828.0000 C 1179.0000,3828.0000 1182.0000,3832.0000 1182.0000,3836.0000 C 1182.0000,3841.0000 1179.0000,3844.0000 1174.0000,3844.0000 Z M 982.0000,3844.0000 L 890.0000,3844.0000 C 886.0000,3844.0000 882.0000,3841.0000 882.0000,3836.0000 C 882.0000,3832.0000 886.0000,3828.0000 890.0000,3828.0000 L 982.0000,3828.0000 C 987.0000,3828.0000 990.0000,3832.0000 990.0000,3836.0000 C 990.0000,3841.0000 987.0000,3844.0000 982.0000,3844.0000 Z "  fill="#000000" stroke="#000000" stroke-width="1.0000"  stroke-linecap="butt"  stroke-linejoin="round" />
</g>
<g transform="matrix(1.0000 0.0000 0.0000 1.0000 0.0000 0.0000)">
</g>
<g transform="matrix(0.0625 0.0000 0.0000 0.0625 0.0000 0.0000)">
<path d="M 907.0000,3903.0000 L 706.0000,3836.0000 L 907.0000,3769.0000 L 907.0000,3903.0000 Z" stroke-width="1px" stroke="#000000"  fill="#000000" />
</g>
<g transform="matrix(1.0000 0.0000 0.0000 1.0000 0.0000 0.0000)">
</g>
<g transform="matrix(1.0000 0.0000 0.0000 1.0000 50.6722 267.4713)">
<text font-family="Arial" fill="#000000" style ="white-space:pre;" font-weight="400" text-anchor="start" x="0.0000" y="0.0000" font-size="12.0000" ><![CDATA[5]]></text>
</g>
<g transform="matrix(1.0000 0.0000 0.0000 1.0000 57.4078 267.4713)">
<text font-family="Arial" fill="#000000" style ="white-space:pre;" font-weight="400" text-anchor="start" x="0.0000" y="0.0000" font-size="12.0000" ><![CDATA[. ]]></text>
</g>
<g transform="matrix(1.0000 0.0000 0.0000 1.0000 64.1372 267.4713)">
<text font-family="Arial" fill="#000000" style ="white-space:pre;" font-weight="400" text-anchor="start" x="0.0000" y="0.0000" font-size="12.0000" ><![CDATA[GNB]]></text>
</g>
<g transform="matrix(1.0000 0.0000 0.0000 1.0000 90.3818 267.4713)">
<text font-family="Arial" fill="#000000" style ="white-space:pre;" font-weight="400" text-anchor="start" x="0.0000" y="0.0000" font-size="12.0000" ><![CDATA[-]]></text>
</g>
<g transform="matrix(1.0000 0.0000 0.0000 1.0000 94.4150 267.4713)">
<text font-family="Arial" fill="#000000" style ="white-space:pre;" font-weight="400" text-anchor="start" x="0.0000" y="0.0000" font-size="12.0000" ><![CDATA[CU CONFIGURATION UPDATE ACKNOWLEDGE]]></text>
</g>
<g transform="matrix(0.0625 0.0000 0.0000 0.0625 0.0000 0.0000)">
<path d="M 4642.0000,4394.0000 L 4530.0000,4394.0000 C 4526.0000,4394.0000 4522.0000,4390.0000 4522.0000,4386.0000 C 4522.0000,4381.0000 4526.0000,4378.0000 4530.0000,4378.0000 L 4642.0000,4378.0000 C 4647.0000,4378.0000 4650.0000,4381.0000 4650.0000,4386.0000 C 4650.0000,4390.0000 4647.0000,4394.0000 4642.0000,4394.0000 Z M 4450.0000,4394.0000 L 4338.0000,4394.0000 C 4333.0000,4394.0000 4330.0000,4390.0000 4330.0000,4386.0000 C 4330.0000,4381.0000 4333.0000,4378.0000 4338.0000,4378.0000 L 4450.0000,4378.0000 C 4454.0000,4378.0000 4458.0000,4381.0000 4458.0000,4386.0000 C 4458.0000,4390.0000 4454.0000,4394.0000 4450.0000,4394.0000 Z M 4258.0000,4394.0000 L 4146.0000,4394.0000 C 4141.0000,4394.0000 4138.0000,4390.0000 4138.0000,4386.0000 C 4138.0000,4381.0000 4141.0000,4378.0000 4146.0000,4378.0000 L 4258.0000,4378.0000 C 4262.0000,4378.0000 4266.0000,4381.0000 4266.0000,4386.0000 C 4266.0000,4390.0000 4262.0000,4394.0000 4258.0000,4394.0000 Z M 4066.0000,4394.0000 L 3953.0000,4394.0000 C 3949.0000,4394.0000 3945.0000,4390.0000 3945.0000,4386.0000 C 3945.0000,4381.0000 3949.0000,4378.0000 3953.0000,4378.0000 L 4066.0000,4378.0000 C 4070.0000,4378.0000 4074.0000,4381.0000 4074.0000,4386.0000 C 4074.0000,4390.0000 4070.0000,4394.0000 4066.0000,4394.0000 Z M 3873.0000,4394.0000 L 3761.0000,4394.0000 C 3757.0000,4394.0000 3753.0000,4390.0000 3753.0000,4386.0000 C 3753.0000,4381.0000 3757.0000,4378.0000 3761.0000,4378.0000 L 3873.0000,4378.0000 C 3878.0000,4378.0000 3881.0000,4381.0000 3881.0000,4386.0000 C 3881.0000,4390.0000 3878.0000,4394.0000 3873.0000,4394.0000 Z M 3681.0000,4394.0000 L 3569.0000,4394.0000 C 3565.0000,4394.0000 3561.0000,4390.0000 3561.0000,4386.0000 C 3561.0000,4381.0000 3565.0000,4378.0000 3569.0000,4378.0000 L 3681.0000,4378.0000 C 3686.0000,4378.0000 3689.0000,4381.0000 3689.0000,4386.0000 C 3689.0000,4390.0000 3686.0000,4394.0000 3681.0000,4394.0000 Z M 3489.0000,4394.0000 L 3377.0000,4394.0000 C 3372.0000,4394.0000 3369.0000,4390.0000 3369.0000,4386.0000 C 3369.0000,4381.0000 3372.0000,4378.0000 3377.0000,4378.0000 L 3489.0000,4378.0000 C 3493.0000,4378.0000 3497.0000,4381.0000 3497.0000,4386.0000 C 3497.0000,4390.0000 3493.0000,4394.0000 3489.0000,4394.0000 Z M 3297.0000,4394.0000 L 3185.0000,4394.0000 C 3180.0000,4394.0000 3177.0000,4390.0000 3177.0000,4386.0000 C 3177.0000,4381.0000 3180.0000,4378.0000 3185.0000,4378.0000 L 3297.0000,4378.0000 C 3301.0000,4378.0000 3305.0000,4381.0000 3305.0000,4386.0000 C 3305.0000,4390.0000 3301.0000,4394.0000 3297.0000,4394.0000 Z M 3105.0000,4394.0000 L 2993.0000,4394.0000 C 2988.0000,4394.0000 2985.0000,4390.0000 2985.0000,4386.0000 C 2985.0000,4381.0000 2988.0000,4378.0000 2993.0000,4378.0000 L 3105.0000,4378.0000 C 3109.0000,4378.0000 3113.0000,4381.0000 3113.0000,4386.0000 C 3113.0000,4390.0000 3109.0000,4394.0000 3105.0000,4394.0000 Z M 2912.0000,4394.0000 L 2800.0000,4394.0000 C 2796.0000,4394.0000 2792.0000,4390.0000 2792.0000,4386.0000 C 2792.0000,4381.0000 2796.0000,4378.0000 2800.0000,4378.0000 L 2912.0000,4378.0000 C 2917.0000,4378.0000 2920.0000,4381.0000 2920.0000,4386.0000 C 2920.0000,4390.0000 2917.0000,4394.0000 2912.0000,4394.0000 Z M 2720.0000,4394.0000 L 2608.0000,4394.0000 C 2604.0000,4394.0000 2600.0000,4390.0000 2600.0000,4386.0000 C 2600.0000,4381.0000 2604.0000,4378.0000 2608.0000,4378.0000 L 2720.0000,4378.0000 C 2725.0000,4378.0000 2728.0000,4381.0000 2728.0000,4386.0000 C 2728.0000,4390.0000 2725.0000,4394.0000 2720.0000,4394.0000 Z M 2528.0000,4394.0000 L 2416.0000,4394.0000 C 2412.0000,4394.0000 2408.0000,4390.0000 2408.0000,4386.0000 C 2408.0000,4381.0000 2412.0000,4378.0000 2416.0000,4378.0000 L 2528.0000,4378.0000 C 2532.0000,4378.0000 2536.0000,4381.0000 2536.0000,4386.0000 C 2536.0000,4390.0000 2532.0000,4394.0000 2528.0000,4394.0000 Z M 2336.0000,4394.0000 L 2224.0000,4394.0000 C 2219.0000,4394.0000 2216.0000,4390.0000 2216.0000,4386.0000 C 2216.0000,4381.0000 2219.0000,4378.0000 2224.0000,4378.0000 L 2336.0000,4378.0000 C 2340.0000,4378.0000 2344.0000,4381.0000 2344.0000,4386.0000 C 2344.0000,4390.0000 2340.0000,4394.0000 2336.0000,4394.0000 Z M 2144.0000,4394.0000 L 2032.0000,4394.0000 C 2027.0000,4394.0000 2024.0000,4390.0000 2024.0000,4386.0000 C 2024.0000,4381.0000 2027.0000,4378.0000 2032.0000,4378.0000 L 2144.0000,4378.0000 C 2148.0000,4378.0000 2152.0000,4381.0000 2152.0000,4386.0000 C 2152.0000,4390.0000 2148.0000,4394.0000 2144.0000,4394.0000 Z M 1951.0000,4394.0000 L 1839.0000,4394.0000 C 1835.0000,4394.0000 1831.0000,4390.0000 1831.0000,4386.0000 C 1831.0000,4381.0000 1835.0000,4378.0000 1839.0000,4378.0000 L 1951.0000,4378.0000 C 1956.0000,4378.0000 1959.0000,4381.0000 1959.0000,4386.0000 C 1959.0000,4390.0000 1956.0000,4394.0000 1951.0000,4394.0000 Z M 1759.0000,4394.0000 L 1647.0000,4394.0000 C 1643.0000,4394.0000 1639.0000,4390.0000 1639.0000,4386.0000 C 1639.0000,4381.0000 1643.0000,4378.0000 1647.0000,4378.0000 L 1759.0000,4378.0000 C 1764.0000,4378.0000 1767.0000,4381.0000 1767.0000,4386.0000 C 1767.0000,4390.0000 1764.0000,4394.0000 1759.0000,4394.0000 Z M 1567.0000,4394.0000 L 1455.0000,4394.0000 C 1451.0000,4394.0000 1447.0000,4390.0000 1447.0000,4386.0000 C 1447.0000,4381.0000 1451.0000,4378.0000 1455.0000,4378.0000 L 1567.0000,4378.0000 C 1572.0000,4378.0000 1575.0000,4381.0000 1575.0000,4386.0000 C 1575.0000,4390.0000 1572.0000,4394.0000 1567.0000,4394.0000 Z M 1375.0000,4394.0000 L 1263.0000,4394.0000 C 1258.0000,4394.0000 1255.0000,4390.0000 1255.0000,4386.0000 C 1255.0000,4381.0000 1258.0000,4378.0000 1263.0000,4378.0000 L 1375.0000,4378.0000 C 1379.0000,4378.0000 1383.0000,4381.0000 1383.0000,4386.0000 C 1383.0000,4390.0000 1379.0000,4394.0000 1375.0000,4394.0000 Z M 1183.0000,4394.0000 L 1071.0000,4394.0000 C 1066.0000,4394.0000 1063.0000,4390.0000 1063.0000,4386.0000 C 1063.0000,4381.0000 1066.0000,4378.0000 1071.0000,4378.0000 L 1183.0000,4378.0000 C 1187.0000,4378.0000 1191.0000,4381.0000 1191.0000,4386.0000 C 1191.0000,4390.0000 1187.0000,4394.0000 1183.0000,4394.0000 Z M 991.0000,4394.0000 L 878.0000,4394.0000 C 874.0000,4394.0000 870.0000,4390.0000 870.0000,4386.0000 C 870.0000,4381.0000 874.0000,4378.0000 878.0000,4378.0000 L 991.0000,4378.0000 C 995.0000,4378.0000 999.0000,4381.0000 999.0000,4386.0000 C 999.0000,4390.0000 995.0000,4394.0000 991.0000,4394.0000 Z M 798.0000,4394.0000 L 706.0000,4394.0000 C 702.0000,4394.0000 698.0000,4390.0000 698.0000,4386.0000 C 698.0000,4381.0000 702.0000,4378.0000 706.0000,4378.0000 L 798.0000,4378.0000 C 803.0000,4378.0000 806.0000,4381.0000 806.0000,4386.0000 C 806.0000,4390.0000 803.0000,4394.0000 798.0000,4394.0000 Z "  fill="#000000" stroke="#000000" stroke-width="1.0000"  stroke-linecap="butt"  stroke-linejoin="round" />
</g>
<g transform="matrix(1.0000 0.0000 0.0000 1.0000 0.0000 0.0000)">
</g>
<g transform="matrix(0.0625 0.0000 0.0000 0.0625 0.0000 0.0000)">
<path d="M 4625.0000,4319.0000 L 4826.0000,4386.0000 L 4625.0000,4452.0000 L 4625.0000,4319.0000 Z" stroke-width="1px" stroke="#000000"  fill="#000000" />
</g>
<g transform="matrix(1.0000 0.0000 0.0000 1.0000 0.0000 0.0000)">
</g>
</g>
</svg>
