<?xml version="1.0" encoding="UTF-8" standalone="no"?>
<!DOCTYPE svg PUBLIC "-//W3C//DTD SVG 1.0//EN" "http://www.w3.org/TR/2001/REC-SVG-20010904/DTD/svg10.dtd">
<svg xmlns="http://www.w3.org/2000/svg" xmlns:xlink="http://www.w3.org/1999/xlink" fill-rule="evenodd" height="0.7638888888888888in" preserveAspectRatio="none" stroke-linecap="round" viewBox="0 0 14080 1760" width="6.111111111111111in">
    <style type="text/css">
.brush0 { fill: rgb(255,255,255); }
.pen0 { stroke: rgb(0,0,0); stroke-width: 1; stroke-linejoin: round; }
.font0 { font-size: 303px; font-family: "Times New Roman", serif; }
.font1 { font-style: italic; font-size: 196px; font-family: "Times New Roman", serif; }
.font2 { font-style: italic; font-size: 303px; font-family: "Times New Roman", serif; }
.font3 { font-size: 274px; font-family: Symbol, serif; }
.font4 { font-weight: bold; font-size: 303px; font-family: "Times New Roman", serif; }
.font5 { font-size: 336px; font-family: "MT Extra", serif; }
.font6 { font-weight: bold; font-size: 16px; font-family: System, sans-serif; }
</style>
    <g>
        <text class="font0" fill="rgb(0,0,0)" stroke="none" style="dominant-baseline: alphabetic;" x="1713 3249 3819 3961 6081 6249 6819 6961 7883 9751 9888 10323 10833 11430 11567 12002 12696 12869" xml:lang="en" xml:space="preserve" y="393">1(1)2(1),1,,,1,,/2</text>
        <text class="font0" fill="rgb(0,0,0)" stroke="none" style="dominant-baseline: alphabetic;" x="542 835 1121 1713 3217 3787 3929 6049 6217 7247 7420 7588 9217 9997 10134 10569 11079 12284 12457 13062 13199 13301 13385 13469 13553" xml:lang="en" xml:space="preserve" y="960">(,)1(1)2(/2),1,,,/21,...,</text>
        <text class="font0" fill="rgb(0,0,0)" stroke="none" style="dominant-baseline: alphabetic;" x="1745" xml:lang="en" xml:space="preserve" y="1501">0</text>
        <text class="font1" fill="rgb(0,0,0)" stroke="none" style="dominant-baseline: alphabetic;" x="219 375" xml:lang="en" xml:space="preserve" y="1047">UL</text>
        <text class="font2" fill="rgb(0,0,0)" stroke="none" style="dominant-baseline: alphabetic;" x="2248 2342 2510 2737 3431 4096 4321 4783 4963 5131 5299 5569 6431 7096 7321 7783 9344 10461 10686 11018 12288 12513" xml:lang="en" xml:space="preserve" y="393">forajNriandbjNriiNrjNt</text>
        <text class="font2" fill="rgb(0,0,0)" stroke="none" style="dominant-baseline: alphabetic;" x="662 948 2216 2310 2478 2705 3399 4064 4289 4751 4931 5099 5267 5537 6399 6839 7064 7723 7948 8430 8655 9117 9590 10707 10932 11264 11876 12101 13691 13916" xml:lang="en" xml:space="preserve" y="960">abforajNriandbjNtNrNriiNrjNtNt</text>
        <text class="font2" fill="rgb(0,0,0)" stroke="none" style="dominant-baseline: alphabetic;" x="4287 4455 4549 4717 4864 4995 5220 5314 5445" xml:lang="en" xml:space="preserve" y="1501">otherwise</text>
        <text class="font3" fill="rgb(0,0,0)" stroke="none" style="dominant-baseline: alphabetic;" x="1575 2990 3604 4536 5817 6604 7536 9524 11203" xml:space="preserve" y="393">ì=-+=-+==</text>
        <text class="font3" fill="rgb(0,0,0)" stroke="none" style="dominant-baseline: alphabetic;" x="12130 13049" xml:space="preserve" y="419">éù</text>
        <text class="font3" fill="rgb(0,0,0)" stroke="none" style="dominant-baseline: alphabetic;" x="12130 13049" xml:space="preserve" y="482">êú</text>
        <text class="font3" fill="rgb(0,0,0)" stroke="none" style="dominant-baseline: alphabetic;" x="1575" xml:space="preserve" y="712">ï</text>
        <text class="font3" fill="rgb(0,0,0)" stroke="none" style="dominant-baseline: alphabetic;" x="1311 2958 3572 4504 5785 6572 8163 8870 9770 11449 12842" xml:space="preserve" y="960">==-+=--+==+</text>
        <text class="font3" fill="rgb(0,0,0)" stroke="none" style="dominant-baseline: alphabetic;" x="11718 12637" xml:space="preserve" y="986">éù</text>
        <text class="font3" fill="rgb(0,0,0)" stroke="none" style="dominant-baseline: alphabetic;" x="1575" xml:space="preserve" y="1017">í</text>
        <text class="font3" fill="rgb(0,0,0)" stroke="none" style="dominant-baseline: alphabetic;" x="11718 12637" xml:space="preserve" y="1049">êú</text>
        <text class="font3" fill="rgb(0,0,0)" stroke="none" style="dominant-baseline: alphabetic;" x="1575" xml:space="preserve" y="1336">ï</text>
        <text class="font3" fill="rgb(0,0,0)" stroke="none" style="dominant-baseline: alphabetic;" x="1575" xml:space="preserve" y="1642">î</text>
        <text class="font4" fill="rgb(0,0,0)" stroke="none" style="dominant-baseline: alphabetic;" x="59" xml:lang="en" xml:space="preserve" y="960">P</text>
        <text class="font5" fill="rgb(0,0,0)" stroke="none" style="dominant-baseline: alphabetic;" x="9974 11653" xml:space="preserve" y="393">LL</text>
        <text class="font5" fill="rgb(0,0,0)" stroke="none" style="dominant-baseline: alphabetic;" x="10220" xml:space="preserve" y="960">L</text>
    </g>
</svg>
