<?xml version="1.0"  encoding="UTF-8" standalone="no"?>
<svg version="1.1" xmlns="http://www.w3.org/2000/svg" xmlns:xlink="http://www.w3.org/1999/xlink" width="3780.0000" height="1114.0000">
<g transform="translate(-68.0000, -27.0000)">
<defs><clipPath id="clip-1804289383"><path d="M 0.0000,0.0000 L 3900.0000,0.0000 L 3900.0000,1199.0000 L 0.0000,1199.0000 L 0.0000,0.0000 Z Z" /></clipPath></defs>
<text font-family="Arial" fill="#000000" style ="white-space:pre;" font-weight="700" text-anchor="start" x="3803.0000" y="1123.0000" font-size="83.0000" ><![CDATA[ ]]></text>
<defs><clipPath id="clip-846930886"><path d="M 102.0000,26.0000 L 123.0000,26.0000 L 123.0000,197.0000 L 102.0000,197.0000 L 102.0000,26.0000 Z Z" /></clipPath></defs>
<text  clip-path="url(#clip-846930886)" font-family="Times New Roman" fill="#000000" style ="white-space:pre;" font-weight="400" text-anchor="start" x="102.0000" y="101.0000" font-size="83.0000" ><![CDATA[ ]]></text>
<text  clip-path="url(#clip-846930886)" font-family="Times New Roman" fill="#000000" style ="white-space:pre;" font-weight="400" text-anchor="start" x="123.0000" y="101.0000" font-size="83.0000" ><![CDATA[ ]]></text>
<g transform="matrix(0.0625 0.0000 0.0000 0.0625 0.0000 0.0000)">
<path d="M 9386.0000,7079.0000 L 9439.0000,7466.0000 L 10159.0000,7379.0000 L 10939.0000,7272.0000 L 11006.0000,7239.0000 L 11086.0000,7219.0000 L 11179.0000,7172.0000 L 11246.0000,7126.0000 L 11339.0000,7059.0000 L 11439.0000,6966.0000 L 11626.0000,6792.0000 L 11706.0000,6706.0000 L 11566.0000,6566.0000 L 11646.0000,6759.0000 L 11772.0000,6679.0000 L 11772.0000,6659.0000 L 12046.0000,6519.0000 L 11899.0000,6372.0000 L 11979.0000,6546.0000 L 12219.0000,6452.0000 L 12472.0000,6372.0000 L 12699.0000,6306.0000 L 12652.0000,6119.0000 L 12619.0000,6306.0000 L 12732.0000,6326.0000 L 12826.0000,6339.0000 L 13066.0000,6359.0000 L 13326.0000,6406.0000 L 13326.0000,6199.0000 L 13246.0000,6386.0000 L 13352.0000,6439.0000 L 13432.0000,6246.0000 L 13292.0000,6386.0000 L 13419.0000,6466.0000 L 13946.0000,6886.0000 L 14539.0000,7332.0000 L 14586.0000,7379.0000 L 14652.0000,7432.0000 L 14686.0000,7466.0000 L 14712.0000,7479.0000 L 14859.0000,7332.0000 L 14666.0000,7412.0000 L 14686.0000,7446.0000 L 14859.0000,7366.0000 L 14779.0000,7172.0000 L 14712.0000,7219.0000 L 14686.0000,7286.0000 L 14666.0000,7366.0000 L 14859.0000,7159.0000 L 14846.0000,7159.0000 L 14846.0000,7366.0000 L 14926.0000,7172.0000 L 14906.0000,7172.0000 L 14826.0000,7159.0000 L 14766.0000,7172.0000 L 14699.0000,7219.0000 L 14652.0000,7272.0000 L 14632.0000,7352.0000 L 14652.0000,7432.0000 L 14699.0000,7492.0000 L 14746.0000,7546.0000 L 14766.0000,7546.0000 L 14779.0000,7559.0000 L 14826.0000,7572.0000 L 14872.0000,7606.0000 L 14939.0000,7639.0000 L 15032.0000,7466.0000 L 14892.0000,7606.0000 L 14872.0000,7572.0000 L 14972.0000,7706.0000 L 14999.0000,7766.0000 L 15112.0000,7892.0000 L 15226.0000,8006.0000 L 15339.0000,8086.0000 L 15399.0000,8139.0000 L 15659.0000,8266.0000 L 15786.0000,8326.0000 L 15946.0000,8406.0000 L 15946.0000,8392.0000 L 16026.0000,8406.0000 L 16039.0000,8426.0000 L 16312.0000,8406.0000 L 16599.0000,8392.0000 L 16892.0000,8379.0000 L 16972.0000,8359.0000 L 17212.0000,8312.0000 L 17292.0000,8279.0000 L 17352.0000,8232.0000 L 17399.0000,8186.0000 L 17452.0000,8119.0000 L 17306.0000,7972.0000 L 17386.0000,8166.0000 L 17466.0000,8106.0000 L 17352.0000,7926.0000 L 17452.0000,8106.0000 L 17592.0000,8052.0000 L 17719.0000,8026.0000 L 17739.0000,8006.0000 L 17799.0000,7972.0000 L 17926.0000,7846.0000 L 18059.0000,7752.0000 L 18166.0000,7652.0000 L 18266.0000,7592.0000 L 18119.0000,7446.0000 L 18199.0000,7626.0000 L 18392.0000,7526.0000 L 18599.0000,7466.0000 L 18519.0000,7286.0000 L 18519.0000,7479.0000 L 18726.0000,7466.0000 L 18966.0000,7466.0000 L 19259.0000,7466.0000 L 19419.0000,7466.0000 L 19592.0000,7479.0000 L 19592.0000,7079.0000 L 19419.0000,7059.0000 L 19259.0000,7059.0000 L 18966.0000,7059.0000 L 18726.0000,7059.0000 L 18519.0000,7079.0000 L 18439.0000,7092.0000 L 18232.0000,7159.0000 L 18039.0000,7252.0000 L 17979.0000,7299.0000 L 17879.0000,7366.0000 L 17772.0000,7466.0000 L 17639.0000,7559.0000 L 17512.0000,7686.0000 L 17659.0000,7832.0000 L 17592.0000,7652.0000 L 17432.0000,7686.0000 L 17272.0000,7752.0000 L 17259.0000,7766.0000 L 17226.0000,7799.0000 L 17159.0000,7832.0000 L 17112.0000,7892.0000 L 17066.0000,7946.0000 L 17212.0000,8086.0000 L 17132.0000,7912.0000 L 17112.0000,7926.0000 L 16812.0000,7992.0000 L 16892.0000,8166.0000 L 16892.0000,7972.0000 L 16599.0000,7992.0000 L 16312.0000,8006.0000 L 16012.0000,8026.0000 L 16026.0000,8219.0000 L 16106.0000,8039.0000 L 15946.0000,7959.0000 L 15819.0000,7892.0000 L 15559.0000,7766.0000 L 15479.0000,7946.0000 L 15626.0000,7799.0000 L 15512.0000,7719.0000 L 15399.0000,7606.0000 L 15292.0000,7479.0000 L 15146.0000,7626.0000 L 15339.0000,7546.0000 L 15192.0000,7352.0000 L 15179.0000,7319.0000 L 15132.0000,7286.0000 L 15032.0000,7239.0000 L 14986.0000,7206.0000 L 14939.0000,7192.0000 L 14926.0000,7172.0000 L 14906.0000,7172.0000 L 14826.0000,7559.0000 L 14906.0000,7546.0000 L 14972.0000,7492.0000 L 15019.0000,7432.0000 L 15032.0000,7352.0000 L 15019.0000,7272.0000 L 14972.0000,7219.0000 L 14826.0000,7352.0000 L 14746.0000,7546.0000 L 14766.0000,7546.0000 L 14846.0000,7559.0000 L 14859.0000,7559.0000 L 14939.0000,7546.0000 L 14999.0000,7492.0000 L 15052.0000,7432.0000 L 15066.0000,7366.0000 L 15052.0000,7286.0000 L 15032.0000,7252.0000 L 14999.0000,7192.0000 L 14972.0000,7172.0000 L 14939.0000,7139.0000 L 14872.0000,7092.0000 L 14779.0000,7012.0000 L 14652.0000,7172.0000 L 14779.0000,7032.0000 L 14232.0000,6599.0000 L 13659.0000,6166.0000 L 13579.0000,6099.0000 L 13512.0000,6066.0000 L 13406.0000,6019.0000 L 13326.0000,6006.0000 L 13066.0000,5952.0000 L 12826.0000,5939.0000 L 12732.0000,5926.0000 L 12686.0000,5926.0000 L 12652.0000,5926.0000 L 12606.0000,5926.0000 L 12312.0000,6006.0000 L 12059.0000,6086.0000 L 11819.0000,6179.0000 L 11759.0000,6226.0000 L 11546.0000,6339.0000 L 11659.0000,6499.0000 L 11566.0000,6339.0000 L 11486.0000,6386.0000 L 11419.0000,6419.0000 L 11339.0000,6499.0000 L 11146.0000,6679.0000 L 11052.0000,6772.0000 L 10959.0000,6839.0000 L 11099.0000,6979.0000 L 11019.0000,6806.0000 L 10926.0000,6852.0000 L 11006.0000,7046.0000 L 11006.0000,6839.0000 L 10879.0000,6886.0000 L 10159.0000,6979.0000 L 9386.0000,7079.0000 Z" stroke-width="1px" stroke="#969696"  fill="#969696" />
</g>
<g transform="matrix(1.0000 0.0000 0.0000 1.0000 0.0000 0.0000)">
</g>
<g transform="matrix(0.0625 0.0000 0.0000 0.0625 0.0000 0.0000)">
<path d="M 1599.0000,2106.0000 L 1599.0000,12046.0000 L 9326.0000,12046.0000 L 9326.0000,2106.0000 L 1599.0000,2106.0000 Z" stroke-width="1px" stroke="#FFFFFF"  fill="#FFFFFF" />
</g>
<g transform="matrix(1.0000 0.0000 0.0000 1.0000 0.0000 0.0000)">
</g>
<g transform="matrix(0.0625 0.0000 0.0000 0.0625 0.0000 0.0000)">
<path d="M 1599.0000,2106.0000 L 1599.0000,12046.0000 L 9326.0000,12046.0000 L 9326.0000,2106.0000 Z" stroke="#000000" stroke-width="93.0000"  stroke-linecap="round"  stroke-linejoin="miter"  stroke-miterlimit="8.0000" fill="none" />
</g>
<g transform="matrix(1.0000 0.0000 0.0000 1.0000 0.0000 0.0000)">
<defs><clipPath id="clip-1681692777"><path d="M 340.0000,168.0000 L 374.0000,168.0000 L 374.0000,339.0000 L 340.0000,339.0000 L 340.0000,168.0000 Z Z" /></clipPath></defs>
<text  clip-path="url(#clip-1681692777)" font-family="Times New Roman" fill="#000000" style ="white-space:pre;" font-weight="400" text-anchor="start" x="340.0000" y="243.0000" font-size="133.0000" ><![CDATA[ ]]></text>
<text  clip-path="url(#clip-1681692777)" font-family="Times New Roman" fill="#000000" style ="white-space:pre;" font-weight="400" text-anchor="start" x="373.0000" y="243.0000" font-size="83.0000" ><![CDATA[ ]]></text>
<defs><clipPath id="clip-1714636915"><path d="M 290.0000,322.0000 L 392.0000,322.0000 L 392.0000,492.0000 L 290.0000,492.0000 L 290.0000,322.0000 Z Z" /></clipPath></defs>
<text  clip-path="url(#clip-1714636915)" font-family="Times New Roman" fill="#000000" style ="white-space:pre;" font-weight="700" text-anchor="start" x="290.0000" y="399.0000" font-size="83.0000" ><![CDATA[BS]]></text>
<text  clip-path="url(#clip-1714636915)" font-family="Times New Roman" fill="#000000" style ="white-space:pre;" font-weight="400" text-anchor="start" x="392.0000" y="399.0000" font-size="83.0000" ><![CDATA[ ]]></text>
<defs><clipPath id="clip-1957747793"><path d="M 391.0000,322.0000 L 413.0000,322.0000 L 413.0000,492.0000 L 391.0000,492.0000 L 391.0000,322.0000 Z Z" /></clipPath></defs>
<text  clip-path="url(#clip-1957747793)" font-family="Times New Roman" fill="#000000" style ="white-space:pre;" font-weight="700" text-anchor="start" x="391.0000" y="397.0000" font-size="83.0000" ><![CDATA[ ]]></text>
<text  clip-path="url(#clip-1957747793)" font-family="Times New Roman" fill="#000000" style ="white-space:pre;" font-weight="400" text-anchor="start" x="412.0000" y="397.0000" font-size="83.0000" ><![CDATA[ ]]></text>
<defs><clipPath id="clip-424238335"><path d="M 211.0000,419.0000 L 471.0000,419.0000 L 471.0000,590.0000 L 211.0000,590.0000 L 211.0000,419.0000 Z Z" /></clipPath></defs>
<text  clip-path="url(#clip-424238335)" font-family="Times New Roman" fill="#000000" style ="white-space:pre;" font-weight="700" text-anchor="start" x="211.0000" y="496.0000" font-size="83.0000" ><![CDATA[c]]></text>
<text  clip-path="url(#clip-424238335)" font-family="Times New Roman" fill="#000000" style ="white-space:pre;" font-weight="700" text-anchor="start" x="248.0000" y="496.0000" font-size="83.0000" ><![CDATA[abinet]]></text>
<text  clip-path="url(#clip-424238335)" font-family="Times New Roman" fill="#000000" style ="white-space:pre;" font-weight="400" text-anchor="start" x="470.0000" y="496.0000" font-size="83.0000" ><![CDATA[ ]]></text>
<defs><clipPath id="clip-719885386"><path d="M 470.0000,419.0000 L 492.0000,419.0000 L 492.0000,590.0000 L 470.0000,590.0000 L 470.0000,419.0000 Z Z" /></clipPath></defs>
<text  clip-path="url(#clip-719885386)" font-family="Times New Roman" fill="#000000" style ="white-space:pre;" font-weight="700" text-anchor="start" x="470.0000" y="494.0000" font-size="83.0000" ><![CDATA[ ]]></text>
<text  clip-path="url(#clip-719885386)" font-family="Times New Roman" fill="#000000" style ="white-space:pre;" font-weight="400" text-anchor="start" x="491.0000" y="494.0000" font-size="83.0000" ><![CDATA[ ]]></text>
</g>
<g transform="matrix(0.0625 0.0000 0.0000 0.0625 0.0000 0.0000)">
<path d="M 9306.0000,6119.0000 L 9306.0000,7832.0000 L 10219.0000,7832.0000 L 10219.0000,6119.0000 L 9306.0000,6119.0000 Z" stroke-width="1px" stroke="#C0C0C0"  fill="#C0C0C0" />
</g>
<g transform="matrix(1.0000 0.0000 0.0000 1.0000 0.0000 0.0000)">
</g>
<g transform="matrix(0.0625 0.0000 0.0000 0.0625 0.0000 0.0000)">
<path d="M 9306.0000,6119.0000 L 9306.0000,7832.0000 L 10219.0000,7832.0000 L 10219.0000,6119.0000 Z" stroke="#000000" stroke-width="93.0000"  stroke-linecap="round"  stroke-linejoin="miter"  stroke-miterlimit="8.0000" fill="none" />
</g>
<g transform="matrix(1.0000 0.0000 0.0000 1.0000 0.0000 0.0000)">
</g>
<g transform="matrix(0.1250 0.0000 0.0000 0.1250 0.0000 0.0000)">
<path d="M 13843.0000,3540.0000 L 13866.0000,3733.0000 L 14226.0000,3690.0000 L 14610.0000,3636.0000 L 14643.0000,3620.0000 L 14683.0000,3610.0000 L 14740.0000,3586.0000 L 14770.0000,3563.0000 L 14820.0000,3530.0000 L 14866.0000,3483.0000 L 14953.0000,3396.0000 L 15003.0000,3353.0000 L 14930.0000,3283.0000 L 14970.0000,3380.0000 L 15026.0000,3340.0000 L 15130.0000,3273.0000 L 15256.0000,3226.0000 L 15386.0000,3186.0000 L 15496.0000,3153.0000 L 15473.0000,3060.0000 L 15456.0000,3153.0000 L 15513.0000,3163.0000 L 15563.0000,3170.0000 L 15683.0000,3180.0000 L 15810.0000,3203.0000 L 15810.0000,3100.0000 L 15770.0000,3193.0000 L 15826.0000,3220.0000 L 15866.0000,3123.0000 L 15793.0000,3193.0000 L 15856.0000,3233.0000 L 16123.0000,3443.0000 L 16416.0000,3666.0000 L 16440.0000,3690.0000 L 16466.0000,3716.0000 L 16490.0000,3733.0000 L 16496.0000,3740.0000 L 16570.0000,3666.0000 L 16480.0000,3706.0000 L 16480.0000,3723.0000 L 16576.0000,3683.0000 L 16536.0000,3586.0000 L 16506.0000,3610.0000 L 16480.0000,3643.0000 L 16473.0000,3683.0000 L 16576.0000,3580.0000 L 16570.0000,3580.0000 L 16570.0000,3683.0000 L 16610.0000,3586.0000 L 16600.0000,3586.0000 L 16560.0000,3580.0000 L 16520.0000,3586.0000 L 16490.0000,3610.0000 L 16473.0000,3636.0000 L 16466.0000,3676.0000 L 16473.0000,3716.0000 L 16490.0000,3746.0000 L 16520.0000,3773.0000 L 16530.0000,3773.0000 L 16536.0000,3780.0000 L 16560.0000,3786.0000 L 16586.0000,3803.0000 L 16616.0000,3820.0000 L 16666.0000,3733.0000 L 16593.0000,3803.0000 L 16586.0000,3786.0000 L 16633.0000,3853.0000 L 16650.0000,3883.0000 L 16706.0000,3946.0000 L 16760.0000,4003.0000 L 16816.0000,4043.0000 L 16850.0000,4070.0000 L 16976.0000,4133.0000 L 17040.0000,4163.0000 L 17120.0000,4203.0000 L 17120.0000,4196.0000 L 17160.0000,4203.0000 L 17170.0000,4213.0000 L 17306.0000,4203.0000 L 17450.0000,4196.0000 L 17586.0000,4190.0000 L 17626.0000,4180.0000 L 17753.0000,4156.0000 L 17793.0000,4140.0000 L 17826.0000,4116.0000 L 17850.0000,4093.0000 L 17863.0000,4060.0000 L 17880.0000,4043.0000 L 17816.0000,3963.0000 L 17856.0000,4060.0000 L 17936.0000,4026.0000 L 18010.0000,4013.0000 L 18016.0000,4003.0000 L 18050.0000,3986.0000 L 18113.0000,3923.0000 L 18176.0000,3876.0000 L 18233.0000,3826.0000 L 18280.0000,3796.0000 L 18210.0000,3723.0000 L 18250.0000,3813.0000 L 18343.0000,3763.0000 L 18450.0000,3733.0000 L 18410.0000,3643.0000 L 18410.0000,3740.0000 L 18513.0000,3733.0000 L 18633.0000,3733.0000 L 18776.0000,3733.0000 L 18856.0000,3733.0000 L 18943.0000,3740.0000 L 18943.0000,3540.0000 L 18856.0000,3530.0000 L 18776.0000,3530.0000 L 18633.0000,3530.0000 L 18513.0000,3530.0000 L 18410.0000,3540.0000 L 18370.0000,3546.0000 L 18263.0000,3580.0000 L 18170.0000,3626.0000 L 18136.0000,3650.0000 L 18090.0000,3683.0000 L 18033.0000,3733.0000 L 17970.0000,3780.0000 L 17903.0000,3843.0000 L 17976.0000,3916.0000 L 17953.0000,3820.0000 L 17856.0000,3843.0000 L 17776.0000,3876.0000 L 17760.0000,3883.0000 L 17720.0000,3916.0000 L 17706.0000,3946.0000 L 17680.0000,3973.0000 L 17753.0000,4043.0000 L 17713.0000,3956.0000 L 17706.0000,3963.0000 L 17546.0000,3996.0000 L 17586.0000,4083.0000 L 17586.0000,3986.0000 L 17450.0000,3996.0000 L 17306.0000,4003.0000 L 17153.0000,4013.0000 L 17160.0000,4110.0000 L 17200.0000,4020.0000 L 17120.0000,3980.0000 L 17056.0000,3946.0000 L 16930.0000,3883.0000 L 16890.0000,3973.0000 L 16960.0000,3900.0000 L 16906.0000,3860.0000 L 16850.0000,3803.0000 L 16793.0000,3740.0000 L 16720.0000,3813.0000 L 16816.0000,3773.0000 L 16746.0000,3676.0000 L 16736.0000,3660.0000 L 16713.0000,3643.0000 L 16666.0000,3620.0000 L 16640.0000,3603.0000 L 16616.0000,3596.0000 L 16610.0000,3586.0000 L 16600.0000,3586.0000 L 16560.0000,3780.0000 L 16600.0000,3773.0000 L 16633.0000,3746.0000 L 16656.0000,3716.0000 L 16666.0000,3676.0000 L 16656.0000,3636.0000 L 16633.0000,3610.0000 L 16560.0000,3676.0000 L 16520.0000,3773.0000 L 16530.0000,3773.0000 L 16570.0000,3780.0000 L 16576.0000,3780.0000 L 16616.0000,3773.0000 L 16650.0000,3746.0000 L 16666.0000,3716.0000 L 16673.0000,3683.0000 L 16666.0000,3643.0000 L 16666.0000,3626.0000 L 16640.0000,3596.0000 L 16633.0000,3586.0000 L 16610.0000,3570.0000 L 16586.0000,3546.0000 L 16536.0000,3516.0000 L 16266.0000,3300.0000 L 15976.0000,3083.0000 L 15936.0000,3050.0000 L 15906.0000,3033.0000 L 15850.0000,3010.0000 L 15810.0000,3003.0000 L 15683.0000,2976.0000 L 15563.0000,2970.0000 L 15513.0000,2963.0000 L 15490.0000,2963.0000 L 15473.0000,2963.0000 L 15450.0000,2963.0000 L 15306.0000,3003.0000 L 15176.0000,3043.0000 L 15050.0000,3090.0000 L 14923.0000,3170.0000 L 14890.0000,3193.0000 L 14860.0000,3210.0000 L 14810.0000,3250.0000 L 14723.0000,3340.0000 L 14673.0000,3386.0000 L 14626.0000,3420.0000 L 14700.0000,3490.0000 L 14660.0000,3403.0000 L 14603.0000,3426.0000 L 14643.0000,3523.0000 L 14643.0000,3420.0000 L 14580.0000,3443.0000 L 14226.0000,3490.0000 L 13843.0000,3540.0000 Z" stroke-width="1px" stroke="#969696"  fill="#969696" />
</g>
<g transform="matrix(1.0000 0.0000 0.0000 1.0000 0.0000 0.0000)">
</g>
<g transform="matrix(0.1250 0.0000 0.0000 0.1250 0.0000 0.0000)">
<path d="M 22790.0000,3060.0000 L 22790.0000,3916.0000 L 23253.0000,3916.0000 L 23253.0000,3060.0000 L 22790.0000,3060.0000 Z" stroke-width="1px" stroke="#C0C0C0"  fill="#C0C0C0" />
</g>
<g transform="matrix(1.0000 0.0000 0.0000 1.0000 0.0000 0.0000)">
</g>
<g transform="matrix(0.1250 0.0000 0.0000 0.1250 0.0000 0.0000)">
<path d="M 22790.0000,3060.0000 L 22790.0000,3916.0000 L 23253.0000,3916.0000 L 23253.0000,3060.0000 Z" stroke="#000000" stroke-width="47.0000"  stroke-linecap="round"  stroke-linejoin="miter"  stroke-miterlimit="8.0000" fill="none" />
</g>
<g transform="matrix(1.0000 0.0000 0.0000 1.0000 0.0000 0.0000)">
</g>
<g transform="matrix(0.1250 0.0000 0.0000 0.1250 0.0000 0.0000)">
<path d="M 18496.0000,3060.0000 L 18496.0000,3916.0000 L 18953.0000,3916.0000 L 18953.0000,3060.0000 L 18496.0000,3060.0000 Z" stroke-width="1px" stroke="#C0C0C0"  fill="#C0C0C0" />
</g>
<g transform="matrix(1.0000 0.0000 0.0000 1.0000 0.0000 0.0000)">
</g>
<g transform="matrix(0.1250 0.0000 0.0000 0.1250 0.0000 0.0000)">
<path d="M 18496.0000,3060.0000 L 18496.0000,3916.0000 L 18953.0000,3916.0000 L 18953.0000,3060.0000 Z" stroke="#000000" stroke-width="47.0000"  stroke-linecap="round"  stroke-linejoin="miter"  stroke-miterlimit="8.0000" fill="none" />
</g>
<g transform="matrix(1.0000 0.0000 0.0000 1.0000 0.0000 0.0000)">
</g>
<g transform="matrix(0.0625 0.0000 0.0000 0.0625 0.0000 0.0000)">
<path d="M 10572.0000,9159.0000 L 13592.0000,17032.0000 " stroke="#000000" stroke-width="93.0000"  stroke-linecap="round"  stroke-linejoin="round" fill="none" />
</g>
<g transform="matrix(1.0000 0.0000 0.0000 1.0000 0.0000 0.0000)">
</g>
<g transform="matrix(0.0625 0.0000 0.0000 0.0625 0.0000 0.0000)">
<path d="M 11066.0000,9019.0000 L 10206.0000,8219.0000 L 10092.0000,9386.0000 L 11066.0000,9019.0000 Z" stroke-width="1px" stroke="#000000"  fill="#000000" />
</g>
<g transform="matrix(1.0000 0.0000 0.0000 1.0000 0.0000 0.0000)">
</g>
<g transform="matrix(0.0625 0.0000 0.0000 0.0625 0.0000 0.0000)">
<path d="M 13592.0000,17032.0000 L 22106.0000,17039.0000 " stroke="#000000" stroke-width="93.0000"  stroke-linecap="round"  stroke-linejoin="round" fill="none" />
</g>
<g transform="matrix(1.0000 0.0000 0.0000 1.0000 0.0000 0.0000)">
<defs><clipPath id="clip-1649760492"><path d="M 910.0000,953.0000 L 1130.0000,953.0000 L 1130.0000,1124.0000 L 910.0000,1124.0000 L 910.0000,953.0000 Z Z" /></clipPath></defs>
<text  clip-path="url(#clip-1649760492)" font-family="Times New Roman" fill="#000000" style ="white-space:pre;" font-weight="400" text-anchor="start" x="910.0000" y="1028.0000" font-size="83.0000" ><![CDATA[Port A]]></text>
<text  clip-path="url(#clip-1649760492)" font-family="Times New Roman" fill="#000000" style ="white-space:pre;" font-weight="400" text-anchor="start" x="1130.0000" y="1028.0000" font-size="83.0000" ><![CDATA[ ]]></text>
<defs><clipPath id="clip-596516649"><path d="M 1289.0000,953.0000 L 1310.0000,953.0000 L 1310.0000,1124.0000 L 1289.0000,1124.0000 L 1289.0000,953.0000 Z Z" /></clipPath></defs>
<text  clip-path="url(#clip-596516649)" font-family="Times New Roman" fill="#000000" style ="white-space:pre;" font-weight="400" text-anchor="start" x="1289.0000" y="1028.0000" font-size="83.0000" ><![CDATA[ ]]></text>
<text  clip-path="url(#clip-596516649)" font-family="Times New Roman" fill="#000000" style ="white-space:pre;" font-weight="400" text-anchor="start" x="1310.0000" y="1028.0000" font-size="83.0000" ><![CDATA[ ]]></text>
</g>
<g transform="matrix(0.1250 0.0000 0.0000 0.1250 0.0000 0.0000)">
<path d="M 23430.0000,4580.0000 L 24943.0000,8516.0000 " stroke="#000000" stroke-width="47.0000"  stroke-linecap="round"  stroke-linejoin="round" fill="none" />
</g>
<g transform="matrix(1.0000 0.0000 0.0000 1.0000 0.0000 0.0000)">
</g>
<g transform="matrix(0.1250 0.0000 0.0000 0.1250 0.0000 0.0000)">
<path d="M 23680.0000,4510.0000 L 23253.0000,4110.0000 L 23190.0000,4693.0000 L 23680.0000,4510.0000 Z" stroke-width="1px" stroke="#000000"  fill="#000000" />
</g>
<g transform="matrix(1.0000 0.0000 0.0000 1.0000 0.0000 0.0000)">
</g>
<g transform="matrix(0.1250 0.0000 0.0000 0.1250 0.0000 0.0000)">
<path d="M 24943.0000,8516.0000 L 29186.0000,8520.0000 " stroke="#000000" stroke-width="47.0000"  stroke-linecap="round"  stroke-linejoin="round" fill="none" />
</g>
<g transform="matrix(1.0000 0.0000 0.0000 1.0000 0.0000 0.0000)">
<defs><clipPath id="clip-1189641421"><path d="M 3178.0000,953.0000 L 3393.0000,953.0000 L 3393.0000,1124.0000 L 3178.0000,1124.0000 L 3178.0000,953.0000 Z Z" /></clipPath></defs>
<text  clip-path="url(#clip-1189641421)" font-family="Times New Roman" fill="#000000" style ="white-space:pre;" font-weight="400" text-anchor="start" x="3178.0000" y="1028.0000" font-size="83.0000" ><![CDATA[Port B]]></text>
<text  clip-path="url(#clip-1189641421)" font-family="Times New Roman" fill="#000000" style ="white-space:pre;" font-weight="400" text-anchor="start" x="3393.0000" y="1028.0000" font-size="83.0000" ><![CDATA[ ]]></text>
<defs><clipPath id="clip-1025202362"><path d="M 3554.0000,953.0000 L 3575.0000,953.0000 L 3575.0000,1124.0000 L 3554.0000,1124.0000 L 3554.0000,953.0000 Z Z" /></clipPath></defs>
<text  clip-path="url(#clip-1025202362)" font-family="Times New Roman" fill="#000000" style ="white-space:pre;" font-weight="400" text-anchor="start" x="3554.0000" y="1028.0000" font-size="83.0000" ><![CDATA[ ]]></text>
<text  clip-path="url(#clip-1025202362)" font-family="Times New Roman" fill="#000000" style ="white-space:pre;" font-weight="400" text-anchor="start" x="3575.0000" y="1028.0000" font-size="83.0000" ><![CDATA[ ]]></text>
</g>
<g transform="matrix(0.1250 0.0000 0.0000 0.1250 0.0000 0.0000)">
<path d="M 18943.0000,1053.0000 L 18943.0000,6023.0000 L 22800.0000,6023.0000 L 22800.0000,1053.0000 L 18943.0000,1053.0000 Z" stroke-width="1px" stroke="#FFFFFF"  fill="#FFFFFF" />
</g>
<g transform="matrix(1.0000 0.0000 0.0000 1.0000 0.0000 0.0000)">
</g>
<g transform="matrix(0.1250 0.0000 0.0000 0.1250 0.0000 0.0000)">
<path d="M 18943.0000,1053.0000 L 18943.0000,6023.0000 L 22800.0000,6023.0000 L 22800.0000,1053.0000 Z" stroke="#000000" stroke-width="47.0000"  stroke-linecap="round"  stroke-linejoin="miter"  stroke-miterlimit="8.0000" fill="none" />
</g>
<g transform="matrix(1.0000 0.0000 0.0000 1.0000 0.0000 0.0000)">
<defs><clipPath id="clip-1350490027"><path d="M 2455.0000,168.0000 L 2765.0000,168.0000 L 2765.0000,339.0000 L 2455.0000,339.0000 L 2455.0000,168.0000 Z Z" /></clipPath></defs>
<text  clip-path="url(#clip-1350490027)" font-family="Times New Roman" fill="#000000" style ="white-space:pre;" font-weight="700" text-anchor="start" x="2455.0000" y="245.0000" font-size="83.0000" ><![CDATA[External ]]></text>
<text  clip-path="url(#clip-1350490027)" font-family="Times New Roman" fill="#000000" style ="white-space:pre;" font-weight="400" text-anchor="start" x="2786.0000" y="245.0000" font-size="83.0000" ><![CDATA[ ]]></text>
<defs><clipPath id="clip-783368690"><path d="M 2497.0000,263.0000 L 2720.0000,263.0000 L 2720.0000,434.0000 L 2497.0000,434.0000 L 2497.0000,263.0000 Z Z" /></clipPath></defs>
<text  clip-path="url(#clip-783368690)" font-family="Times New Roman" fill="#000000" style ="white-space:pre;" font-weight="700" text-anchor="start" x="2497.0000" y="340.0000" font-size="83.0000" ><![CDATA[device]]></text>
<text  clip-path="url(#clip-783368690)" font-family="Times New Roman" fill="#000000" style ="white-space:pre;" font-weight="400" text-anchor="start" x="2719.0000" y="340.0000" font-size="83.0000" ><![CDATA[ ]]></text>
<defs><clipPath id="clip-1102520059"><path d="M 2719.0000,263.0000 L 2740.0000,263.0000 L 2740.0000,434.0000 L 2719.0000,434.0000 L 2719.0000,263.0000 Z Z" /></clipPath></defs>
<text  clip-path="url(#clip-1102520059)" font-family="Times New Roman" fill="#000000" style ="white-space:pre;" font-weight="700" text-anchor="start" x="2719.0000" y="338.0000" font-size="83.0000" ><![CDATA[ ]]></text>
<text  clip-path="url(#clip-1102520059)" font-family="Times New Roman" fill="#000000" style ="white-space:pre;" font-weight="400" text-anchor="start" x="2740.0000" y="338.0000" font-size="83.0000" ><![CDATA[ ]]></text>
<defs><clipPath id="clip-2044897763"><path d="M 2548.0000,359.0000 L 2669.0000,359.0000 L 2669.0000,530.0000 L 2548.0000,530.0000 L 2548.0000,359.0000 Z Z" /></clipPath></defs>
<text  clip-path="url(#clip-2044897763)" font-family="Times New Roman" fill="#000000" style ="white-space:pre;" font-weight="400" text-anchor="start" x="2548.0000" y="434.0000" font-size="83.0000" ><![CDATA[e.g.]]></text>
<text  clip-path="url(#clip-2044897763)" font-family="Times New Roman" fill="#000000" style ="white-space:pre;" font-weight="400" text-anchor="start" x="2668.0000" y="434.0000" font-size="83.0000" ><![CDATA[ ]]></text>
<defs><clipPath id="clip-1967513926"><path d="M 2668.0000,359.0000 L 2690.0000,359.0000 L 2690.0000,530.0000 L 2668.0000,530.0000 L 2668.0000,359.0000 Z Z" /></clipPath></defs>
<text  clip-path="url(#clip-1967513926)" font-family="Times New Roman" fill="#000000" style ="white-space:pre;" font-weight="400" text-anchor="start" x="2668.0000" y="434.0000" font-size="83.0000" ><![CDATA[ ]]></text>
<text  clip-path="url(#clip-1967513926)" font-family="Times New Roman" fill="#000000" style ="white-space:pre;" font-weight="400" text-anchor="start" x="2689.0000" y="434.0000" font-size="83.0000" ><![CDATA[ ]]></text>
<defs><clipPath id="clip-1365180540"><path d="M 2450.0000,456.0000 L 2768.0000,456.0000 L 2768.0000,627.0000 L 2450.0000,627.0000 L 2450.0000,456.0000 Z Z" /></clipPath></defs>
<text  clip-path="url(#clip-1365180540)" font-family="Times New Roman" fill="#000000" style ="white-space:pre;" font-weight="700" text-anchor="start" x="2450.0000" y="533.0000" font-size="83.0000" ><![CDATA[RX filter]]></text>
<text  clip-path="url(#clip-1365180540)" font-family="Times New Roman" fill="#000000" style ="white-space:pre;" font-weight="400" text-anchor="start" x="2767.0000" y="533.0000" font-size="83.0000" ><![CDATA[ ]]></text>
<defs><clipPath id="clip-1540383426"><path d="M 2768.0000,456.0000 L 2789.0000,456.0000 L 2789.0000,627.0000 L 2768.0000,627.0000 L 2768.0000,456.0000 Z Z" /></clipPath></defs>
<text  clip-path="url(#clip-1540383426)" font-family="Times New Roman" fill="#000000" style ="white-space:pre;" font-weight="700" text-anchor="start" x="2768.0000" y="531.0000" font-size="83.0000" ><![CDATA[ ]]></text>
<text  clip-path="url(#clip-1540383426)" font-family="Times New Roman" fill="#000000" style ="white-space:pre;" font-weight="400" text-anchor="start" x="2789.0000" y="531.0000" font-size="83.0000" ><![CDATA[ ]]></text>
<defs><clipPath id="clip-304089172"><path d="M 2608.0000,551.0000 L 2617.0000,551.0000 L 2617.0000,722.0000 L 2608.0000,722.0000 L 2608.0000,551.0000 Z Z" /></clipPath></defs>
<text  clip-path="url(#clip-304089172)" font-family="Times New Roman" fill="#000000" style ="white-space:pre;" font-weight="700" text-anchor="start" x="2608.0000" y="626.0000" font-size="33.0000" ><![CDATA[ ]]></text>
<text  clip-path="url(#clip-304089172)" font-family="Times New Roman" fill="#000000" style ="white-space:pre;" font-weight="400" text-anchor="start" x="2616.0000" y="626.0000" font-size="83.0000" ><![CDATA[ ]]></text>
<defs><clipPath id="clip-1303455736"><path d="M 2488.0000,589.0000 L 2703.0000,589.0000 L 2703.0000,760.0000 L 2488.0000,760.0000 L 2488.0000,589.0000 Z Z" /></clipPath></defs>
<text  clip-path="url(#clip-1303455736)" font-family="Times New Roman" fill="#000000" font-style="italic" style ="white-space:pre;" font-weight="400" text-anchor="start" x="2488.0000" y="664.0000" font-size="83.0000" ><![CDATA[(if any]]></text>
<text  clip-path="url(#clip-1303455736)" font-family="Times New Roman" fill="#000000" style ="white-space:pre;" font-weight="400" text-anchor="start" x="2703.0000" y="664.0000" font-size="83.0000" ><![CDATA[ ]]></text>
<defs><clipPath id="clip-35005211"><path d="M 2703.0000,588.0000 L 2730.0000,588.0000 L 2730.0000,759.0000 L 2703.0000,759.0000 L 2703.0000,588.0000 Z Z" /></clipPath></defs>
<text  clip-path="url(#clip-35005211)" font-family="Times New Roman" fill="#000000" style ="white-space:pre;" font-weight="700" text-anchor="start" x="2703.0000" y="665.0000" font-size="83.0000" ><![CDATA[)]]></text>
<text  clip-path="url(#clip-35005211)" font-family="Times New Roman" fill="#000000" style ="white-space:pre;" font-weight="400" text-anchor="start" x="2731.0000" y="665.0000" font-size="83.0000" ><![CDATA[ ]]></text>
<defs><clipPath id="clip-521595368"><path d="M 2730.0000,588.0000 L 2752.0000,588.0000 L 2752.0000,759.0000 L 2730.0000,759.0000 L 2730.0000,588.0000 Z Z" /></clipPath></defs>
<text  clip-path="url(#clip-521595368)" font-family="Times New Roman" fill="#000000" style ="white-space:pre;" font-weight="700" text-anchor="start" x="2730.0000" y="663.0000" font-size="83.0000" ><![CDATA[ ]]></text>
<text  clip-path="url(#clip-521595368)" font-family="Times New Roman" fill="#000000" style ="white-space:pre;" font-weight="400" text-anchor="start" x="2751.0000" y="663.0000" font-size="83.0000" ><![CDATA[ ]]></text>
<defs><clipPath id="clip-294702567"><path d="M 2608.0000,686.0000 L 2630.0000,686.0000 L 2630.0000,857.0000 L 2608.0000,857.0000 L 2608.0000,686.0000 Z Z" /></clipPath></defs>
<text  clip-path="url(#clip-294702567)" font-family="Times New Roman" fill="#000000" style ="white-space:pre;" font-weight="700" text-anchor="start" x="2608.0000" y="761.0000" font-size="83.0000" ><![CDATA[ ]]></text>
<text  clip-path="url(#clip-294702567)" font-family="Times New Roman" fill="#000000" style ="white-space:pre;" font-weight="400" text-anchor="start" x="2629.0000" y="761.0000" font-size="83.0000" ><![CDATA[ ]]></text>
</g>
<g transform="matrix(0.0625 0.0000 0.0000 0.0625 0.0000 0.0000)">
<path d="M 26786.0000,6519.0000 L 26786.0000,8232.0000 L 27719.0000,8232.0000 L 27719.0000,6519.0000 L 26786.0000,6519.0000 Z" stroke-width="1px" stroke="#C0C0C0"  fill="#C0C0C0" />
</g>
<g transform="matrix(1.0000 0.0000 0.0000 1.0000 0.0000 0.0000)">
</g>
<g transform="matrix(0.0625 0.0000 0.0000 0.0625 0.0000 0.0000)">
<path d="M 26786.0000,6519.0000 L 26786.0000,8232.0000 L 27719.0000,8232.0000 L 27719.0000,6519.0000 Z" stroke="#000000" stroke-width="93.0000"  stroke-linecap="round"  stroke-linejoin="miter"  stroke-miterlimit="8.0000" fill="none" />
</g>
<g transform="matrix(1.0000 0.0000 0.0000 1.0000 0.0000 0.0000)">
</g>
<g transform="matrix(0.0625 0.0000 0.0000 0.0625 0.0000 0.0000)">
<path d="M 19099.0000,2106.0000 L 19099.0000,12046.0000 L 26806.0000,12046.0000 L 26806.0000,2106.0000 L 19099.0000,2106.0000 Z" stroke-width="1px" stroke="#FFFFFF"  fill="#FFFFFF" />
</g>
<g transform="matrix(1.0000 0.0000 0.0000 1.0000 0.0000 0.0000)">
</g>
<g transform="matrix(0.0625 0.0000 0.0000 0.0625 0.0000 0.0000)">
<path d="M 19099.0000,2106.0000 L 19099.0000,12046.0000 L 26806.0000,12046.0000 L 26806.0000,2106.0000 Z" stroke="#000000" stroke-width="93.0000"  stroke-linecap="round"  stroke-linejoin="miter"  stroke-miterlimit="8.0000" fill="none" />
</g>
<g transform="matrix(1.0000 0.0000 0.0000 1.0000 0.0000 0.0000)">
<defs><clipPath id="clip-1726956429"><path d="M 1280.0000,168.0000 L 1590.0000,168.0000 L 1590.0000,339.0000 L 1280.0000,339.0000 L 1280.0000,168.0000 Z Z" /></clipPath></defs>
<text  clip-path="url(#clip-1726956429)" font-family="Times New Roman" fill="#000000" style ="white-space:pre;" font-weight="700" text-anchor="start" x="1280.0000" y="245.0000" font-size="83.0000" ><![CDATA[External ]]></text>
<text  clip-path="url(#clip-1726956429)" font-family="Times New Roman" fill="#000000" style ="white-space:pre;" font-weight="400" text-anchor="start" x="1611.0000" y="245.0000" font-size="83.0000" ><![CDATA[ ]]></text>
<defs><clipPath id="clip-336465782"><path d="M 1347.0000,263.0000 L 1523.0000,263.0000 L 1523.0000,434.0000 L 1347.0000,434.0000 L 1347.0000,263.0000 Z Z" /></clipPath></defs>
<text  clip-path="url(#clip-336465782)" font-family="Times New Roman" fill="#000000" style ="white-space:pre;" font-weight="700" text-anchor="start" x="1347.0000" y="340.0000" font-size="83.0000" ><![CDATA[LNA]]></text>
<text  clip-path="url(#clip-336465782)" font-family="Times New Roman" fill="#000000" style ="white-space:pre;" font-weight="400" text-anchor="start" x="1523.0000" y="340.0000" font-size="83.0000" ><![CDATA[ ]]></text>
<defs><clipPath id="clip-861021530"><path d="M 1522.0000,263.0000 L 1543.0000,263.0000 L 1543.0000,434.0000 L 1522.0000,434.0000 L 1522.0000,263.0000 Z Z" /></clipPath></defs>
<text  clip-path="url(#clip-861021530)" font-family="Times New Roman" fill="#000000" style ="white-space:pre;" font-weight="700" text-anchor="start" x="1522.0000" y="338.0000" font-size="83.0000" ><![CDATA[ ]]></text>
<text  clip-path="url(#clip-861021530)" font-family="Times New Roman" fill="#000000" style ="white-space:pre;" font-weight="400" text-anchor="start" x="1543.0000" y="338.0000" font-size="83.0000" ><![CDATA[ ]]></text>
<defs><clipPath id="clip-278722862"><path d="M 1434.0000,357.0000 L 1459.0000,357.0000 L 1459.0000,528.0000 L 1434.0000,528.0000 L 1434.0000,357.0000 Z Z" /></clipPath></defs>
<text  clip-path="url(#clip-278722862)" font-family="Times New Roman" fill="#000000" style ="white-space:pre;" font-weight="700" text-anchor="start" x="1434.0000" y="432.0000" font-size="100.0000" ><![CDATA[ ]]></text>
<text  clip-path="url(#clip-278722862)" font-family="Times New Roman" fill="#000000" style ="white-space:pre;" font-weight="400" text-anchor="start" x="1459.0000" y="432.0000" font-size="83.0000" ><![CDATA[ ]]></text>
<defs><clipPath id="clip-233665123"><path d="M 1434.0000,473.0000 L 1459.0000,473.0000 L 1459.0000,644.0000 L 1434.0000,644.0000 L 1434.0000,473.0000 Z Z" /></clipPath></defs>
<text  clip-path="url(#clip-233665123)" font-family="Times New Roman" fill="#000000" style ="white-space:pre;" font-weight="700" text-anchor="start" x="1434.0000" y="548.0000" font-size="100.0000" ><![CDATA[ ]]></text>
<text  clip-path="url(#clip-233665123)" font-family="Times New Roman" fill="#000000" style ="white-space:pre;" font-weight="400" text-anchor="start" x="1459.0000" y="548.0000" font-size="83.0000" ><![CDATA[ ]]></text>
<defs><clipPath id="clip-2145174067"><path d="M 1313.0000,589.0000 L 1556.0000,589.0000 L 1556.0000,760.0000 L 1313.0000,760.0000 L 1313.0000,589.0000 Z Z" /></clipPath></defs>
<text  clip-path="url(#clip-2145174067)" font-family="Times New Roman" fill="#000000" font-style="italic" style ="white-space:pre;" font-weight="400" text-anchor="start" x="1313.0000" y="664.0000" font-size="83.0000" ><![CDATA[(if any)]]></text>
<text  clip-path="url(#clip-2145174067)" font-family="Times New Roman" fill="#000000" style ="white-space:pre;" font-weight="400" text-anchor="start" x="1556.0000" y="664.0000" font-size="83.0000" ><![CDATA[ ]]></text>
<defs><clipPath id="clip-468703135"><path d="M 1555.0000,589.0000 L 1576.0000,589.0000 L 1576.0000,760.0000 L 1555.0000,760.0000 L 1555.0000,589.0000 Z Z" /></clipPath></defs>
<text  clip-path="url(#clip-468703135)" font-family="Times New Roman" fill="#000000" font-style="italic" style ="white-space:pre;" font-weight="400" text-anchor="start" x="1555.0000" y="664.0000" font-size="83.0000" ><![CDATA[ ]]></text>
<text  clip-path="url(#clip-468703135)" font-family="Times New Roman" fill="#000000" style ="white-space:pre;" font-weight="400" text-anchor="start" x="1576.0000" y="664.0000" font-size="83.0000" ><![CDATA[ ]]></text>
<defs><clipPath id="clip-1101513929"><path d="M 1434.0000,686.0000 L 1455.0000,686.0000 L 1455.0000,857.0000 L 1434.0000,857.0000 L 1434.0000,686.0000 Z Z" /></clipPath></defs>
<text  clip-path="url(#clip-1101513929)" font-family="Times New Roman" fill="#000000" style ="white-space:pre;" font-weight="700" text-anchor="start" x="1434.0000" y="761.0000" font-size="83.0000" ><![CDATA[ ]]></text>
<text  clip-path="url(#clip-1101513929)" font-family="Times New Roman" fill="#000000" style ="white-space:pre;" font-weight="400" text-anchor="start" x="1455.0000" y="761.0000" font-size="83.0000" ><![CDATA[ ]]></text>
</g>
<g transform="matrix(0.0625 0.0000 0.0000 0.0625 0.0000 0.0000)">
<path d="M 21399.0000,7626.0000 L 24439.0000,6146.0000 L 24359.0000,9226.0000 L 21399.0000,7626.0000 Z" stroke-width="1px" stroke="#C0C0C0"  fill="#C0C0C0" />
</g>
<g transform="matrix(1.0000 0.0000 0.0000 1.0000 0.0000 0.0000)">
</g>
<g transform="matrix(0.0625 0.0000 0.0000 0.0625 0.0000 0.0000)">
<path d="M 21399.0000,7626.0000 L 24439.0000,6146.0000 L 24359.0000,9226.0000 L 21399.0000,7626.0000 Z" stroke="#000000" stroke-width="93.0000"  stroke-linecap="round"  stroke-linejoin="round" fill="none" />
</g>
<g transform="matrix(1.0000 0.0000 0.0000 1.0000 0.0000 0.0000)">
</g>
<g transform="matrix(0.0625 0.0000 0.0000 0.0625 0.0000 0.0000)">
<path d="M 18199.0000,6519.0000 L 18199.0000,8232.0000 L 19112.0000,8232.0000 L 19112.0000,6519.0000 L 18199.0000,6519.0000 Z" stroke-width="1px" stroke="#C0C0C0"  fill="#C0C0C0" />
</g>
<g transform="matrix(1.0000 0.0000 0.0000 1.0000 0.0000 0.0000)">
</g>
<g transform="matrix(0.0625 0.0000 0.0000 0.0625 0.0000 0.0000)">
<path d="M 18199.0000,6519.0000 L 18199.0000,8232.0000 L 19112.0000,8232.0000 L 19112.0000,6519.0000 Z" stroke="#000000" stroke-width="93.0000"  stroke-linecap="round"  stroke-linejoin="miter"  stroke-miterlimit="8.0000" fill="none" />
</g>
<g transform="matrix(1.0000 0.0000 0.0000 1.0000 0.0000 0.0000)">
</g>
<g transform="matrix(0.1250 0.0000 0.0000 0.1250 0.0000 0.0000)">
<path d="M 23240.0000,3340.0000 L 23263.0000,3530.0000 L 23453.0000,3506.0000 L 23430.0000,3313.0000 L 23240.0000,3340.0000 Z" stroke-width="1px" stroke="#969696"  fill="#969696" />
</g>
<g transform="matrix(1.0000 0.0000 0.0000 1.0000 0.0000 0.0000)">
</g>
<g transform="matrix(0.1250 0.0000 0.0000 0.1250 0.0000 0.0000)">
<path d="M 23630.0000,3290.0000 L 23663.0000,3483.0000 L 23853.0000,3460.0000 L 23823.0000,3266.0000 L 23630.0000,3290.0000 Z" stroke-width="1px" stroke="#969696"  fill="#969696" />
</g>
<g transform="matrix(1.0000 0.0000 0.0000 1.0000 0.0000 0.0000)">
</g>
<g transform="matrix(0.1250 0.0000 0.0000 0.1250 0.0000 0.0000)">
<path d="M 24023.0000,3226.0000 L 24053.0000,3420.0000 L 24036.0000,3420.0000 L 24076.0000,3410.0000 L 24133.0000,3386.0000 L 24166.0000,3363.0000 L 24213.0000,3330.0000 L 24263.0000,3283.0000 L 24263.0000,3273.0000 L 24126.0000,3130.0000 L 24116.0000,3140.0000 L 24070.0000,3186.0000 L 24023.0000,3220.0000 L 24093.0000,3290.0000 L 24053.0000,3203.0000 L 23996.0000,3226.0000 L 24036.0000,3323.0000 L 24036.0000,3220.0000 L 24023.0000,3226.0000 Z" stroke-width="1px" stroke="#969696"  fill="#969696" />
</g>
<g transform="matrix(1.0000 0.0000 0.0000 1.0000 0.0000 0.0000)">
</g>
<g transform="matrix(0.1250 0.0000 0.0000 0.1250 0.0000 0.0000)">
<path d="M 24293.0000,2986.0000 L 24396.0000,3153.0000 L 24423.0000,3140.0000 L 24526.0000,3073.0000 L 24556.0000,3066.0000 L 24476.0000,2883.0000 L 24446.0000,2890.0000 L 24316.0000,2970.0000 L 24293.0000,2986.0000 Z" stroke-width="1px" stroke="#969696"  fill="#969696" />
</g>
<g transform="matrix(1.0000 0.0000 0.0000 1.0000 0.0000 0.0000)">
</g>
<g transform="matrix(0.1250 0.0000 0.0000 0.1250 0.0000 0.0000)">
<path d="M 24676.0000,2810.0000 L 24733.0000,3003.0000 L 24783.0000,2986.0000 L 24893.0000,2953.0000 L 24870.0000,2856.0000 L 24853.0000,2953.0000 L 24886.0000,2953.0000 L 24916.0000,2763.0000 L 24886.0000,2763.0000 L 24870.0000,2763.0000 L 24846.0000,2763.0000 L 24703.0000,2803.0000 L 24676.0000,2810.0000 Z" stroke-width="1px" stroke="#969696"  fill="#969696" />
</g>
<g transform="matrix(1.0000 0.0000 0.0000 1.0000 0.0000 0.0000)">
</g>
<g transform="matrix(0.1250 0.0000 0.0000 0.1250 0.0000 0.0000)">
<path d="M 25116.0000,2786.0000 L 25076.0000,2976.0000 L 25206.0000,3003.0000 L 25206.0000,2896.0000 L 25166.0000,2993.0000 L 25223.0000,3016.0000 L 25260.0000,2923.0000 L 25190.0000,2993.0000 L 25230.0000,3016.0000 L 25350.0000,2866.0000 L 25333.0000,2850.0000 L 25300.0000,2833.0000 L 25246.0000,2810.0000 L 25206.0000,2803.0000 L 25116.0000,2786.0000 Z" stroke-width="1px" stroke="#969696"  fill="#969696" />
</g>
<g transform="matrix(1.0000 0.0000 0.0000 1.0000 0.0000 0.0000)">
</g>
<g transform="matrix(0.1250 0.0000 0.0000 0.1250 0.0000 0.0000)">
<path d="M 25510.0000,2986.0000 L 25390.0000,3140.0000 L 25516.0000,3243.0000 L 25540.0000,3260.0000 L 25660.0000,3106.0000 L 25660.0000,3100.0000 L 25510.0000,2986.0000 Z" stroke-width="1px" stroke="#969696"  fill="#969696" />
</g>
<g transform="matrix(1.0000 0.0000 0.0000 1.0000 0.0000 0.0000)">
</g>
<g transform="matrix(0.1250 0.0000 0.0000 0.1250 0.0000 0.0000)">
<path d="M 25820.0000,3226.0000 L 25700.0000,3380.0000 L 25813.0000,3466.0000 L 25836.0000,3490.0000 L 25853.0000,3506.0000 L 25980.0000,3353.0000 L 25980.0000,3346.0000 L 25933.0000,3313.0000 L 25820.0000,3226.0000 Z" stroke-width="1px" stroke="#969696"  fill="#969696" />
</g>
<g transform="matrix(1.0000 0.0000 0.0000 1.0000 0.0000 0.0000)">
</g>
<g transform="matrix(0.1250 0.0000 0.0000 0.1250 0.0000 0.0000)">
<path d="M 26110.0000,3443.0000 L 26013.0000,3620.0000 L 26060.0000,3530.0000 L 25990.0000,3603.0000 L 25980.0000,3586.0000 L 26030.0000,3650.0000 L 26046.0000,3683.0000 L 26100.0000,3746.0000 L 26116.0000,3756.0000 L 26253.0000,3610.0000 L 26246.0000,3603.0000 L 26190.0000,3540.0000 L 26116.0000,3610.0000 L 26213.0000,3570.0000 L 26140.0000,3476.0000 L 26133.0000,3460.0000 L 26110.0000,3443.0000 Z" stroke-width="1px" stroke="#969696"  fill="#969696" />
</g>
<g transform="matrix(1.0000 0.0000 0.0000 1.0000 0.0000 0.0000)">
</g>
<g transform="matrix(0.1250 0.0000 0.0000 0.1250 0.0000 0.0000)">
<path d="M 26390.0000,3723.0000 L 26293.0000,3893.0000 L 26373.0000,3933.0000 L 26436.0000,3963.0000 L 26486.0000,3986.0000 L 26566.0000,3803.0000 L 26516.0000,3780.0000 L 26453.0000,3746.0000 L 26390.0000,3723.0000 Z" stroke-width="1px" stroke="#969696"  fill="#969696" />
</g>
<g transform="matrix(1.0000 0.0000 0.0000 1.0000 0.0000 0.0000)">
</g>
<g transform="matrix(0.1250 0.0000 0.0000 0.1250 0.0000 0.0000)">
<path d="M 26716.0000,3796.0000 L 26723.0000,3996.0000 L 26843.0000,3996.0000 L 26923.0000,3986.0000 L 26910.0000,3786.0000 L 26843.0000,3796.0000 L 26716.0000,3796.0000 Z" stroke-width="1px" stroke="#969696"  fill="#969696" />
</g>
<g transform="matrix(1.0000 0.0000 0.0000 1.0000 0.0000 0.0000)">
</g>
<g transform="matrix(0.1250 0.0000 0.0000 0.1250 0.0000 0.0000)">
<path d="M 27093.0000,3763.0000 L 27140.0000,3956.0000 L 27150.0000,3956.0000 L 27190.0000,3940.0000 L 27220.0000,3916.0000 L 27243.0000,3893.0000 L 27260.0000,3860.0000 L 27276.0000,3843.0000 L 27213.0000,3763.0000 L 27253.0000,3860.0000 L 27310.0000,3836.0000 L 27230.0000,3650.0000 L 27173.0000,3676.0000 L 27156.0000,3683.0000 L 27116.0000,3716.0000 L 27100.0000,3746.0000 L 27076.0000,3773.0000 L 27150.0000,3843.0000 L 27110.0000,3756.0000 L 27100.0000,3763.0000 L 27093.0000,3763.0000 Z" stroke-width="1px" stroke="#969696"  fill="#969696" />
</g>
<g transform="matrix(1.0000 0.0000 0.0000 1.0000 0.0000 0.0000)">
</g>
<g transform="matrix(0.1250 0.0000 0.0000 0.1250 0.0000 0.0000)">
<path d="M 27373.0000,3580.0000 L 27500.0000,3723.0000 L 27573.0000,3676.0000 L 27630.0000,3626.0000 L 27653.0000,3603.0000 L 27540.0000,3443.0000 L 27483.0000,3483.0000 L 27430.0000,3530.0000 L 27373.0000,3580.0000 Z" stroke-width="1px" stroke="#969696"  fill="#969696" />
</g>
<g transform="matrix(1.0000 0.0000 0.0000 1.0000 0.0000 0.0000)">
</g>
<g transform="matrix(0.1250 0.0000 0.0000 0.1250 0.0000 0.0000)">
<path d="M 27750.0000,3353.0000 L 27803.0000,3546.0000 L 27843.0000,3530.0000 L 27803.0000,3443.0000 L 27803.0000,3540.0000 L 27910.0000,3530.0000 L 27973.0000,3530.0000 L 27973.0000,3330.0000 L 27910.0000,3330.0000 L 27803.0000,3340.0000 L 27763.0000,3346.0000 L 27750.0000,3353.0000 Z" stroke-width="1px" stroke="#969696"  fill="#969696" />
</g>
<g transform="matrix(1.0000 0.0000 0.0000 1.0000 0.0000 0.0000)">
</g>
<g transform="matrix(0.1250 0.0000 0.0000 0.1250 0.0000 0.0000)">
<path d="M 28173.0000,3330.0000 L 28173.0000,3530.0000 L 28253.0000,3530.0000 L 28340.0000,3540.0000 L 28340.0000,3340.0000 L 28253.0000,3330.0000 L 28173.0000,3330.0000 Z" stroke-width="1px" stroke="#969696"  fill="#969696" />
</g>
<g transform="matrix(1.0000 0.0000 0.0000 1.0000 0.0000 0.0000)">
<defs><clipPath id="clip-1801979802"><path d="M 3231.0000,57.0000 L 3417.0000,57.0000 L 3417.0000,228.0000 L 3231.0000,228.0000 L 3231.0000,57.0000 Z Z" /></clipPath></defs>
<text  clip-path="url(#clip-1801979802)" font-family="Times New Roman" fill="#000000" font-style="italic" style ="white-space:pre;" font-weight="400" text-anchor="start" x="3231.0000" y="132.0000" font-size="83.0000" ><![CDATA[From ]]></text>
<text  clip-path="url(#clip-1801979802)" font-family="Times New Roman" fill="#000000" style ="white-space:pre;" font-weight="400" text-anchor="start" x="3437.0000" y="132.0000" font-size="83.0000" ><![CDATA[ ]]></text>
<defs><clipPath id="clip-1315634022"><path d="M 3437.0000,57.0000 L 3458.0000,57.0000 L 3458.0000,228.0000 L 3437.0000,228.0000 L 3437.0000,57.0000 Z Z" /></clipPath></defs>
<text  clip-path="url(#clip-1315634022)" font-family="Times New Roman" fill="#000000" font-style="italic" style ="white-space:pre;" font-weight="400" text-anchor="start" x="3437.0000" y="132.0000" font-size="83.0000" ><![CDATA[ ]]></text>
<text  clip-path="url(#clip-1315634022)" font-family="Times New Roman" fill="#000000" style ="white-space:pre;" font-weight="400" text-anchor="start" x="3458.0000" y="132.0000" font-size="83.0000" ><![CDATA[ ]]></text>
<defs><clipPath id="clip-635723058"><path d="M 3012.0000,153.0000 L 3635.0000,153.0000 L 3635.0000,324.0000 L 3012.0000,324.0000 L 3012.0000,153.0000 Z Z" /></clipPath></defs>
<text  clip-path="url(#clip-635723058)" font-family="Times New Roman" fill="#000000" font-style="italic" style ="white-space:pre;" font-weight="400" text-anchor="start" x="3012.0000" y="228.0000" font-size="83.0000" ><![CDATA[antenna connector]]></text>
<text  clip-path="url(#clip-635723058)" font-family="Times New Roman" fill="#000000" style ="white-space:pre;" font-weight="400" text-anchor="start" x="3635.0000" y="228.0000" font-size="83.0000" ><![CDATA[ ]]></text>
<defs><clipPath id="clip-1369133069"><path d="M 3635.0000,153.0000 L 3656.0000,153.0000 L 3656.0000,324.0000 L 3635.0000,324.0000 L 3635.0000,153.0000 Z Z" /></clipPath></defs>
<text  clip-path="url(#clip-1369133069)" font-family="Times New Roman" fill="#000000" font-style="italic" style ="white-space:pre;" font-weight="400" text-anchor="start" x="3635.0000" y="228.0000" font-size="83.0000" ><![CDATA[ ]]></text>
<text  clip-path="url(#clip-1369133069)" font-family="Times New Roman" fill="#000000" style ="white-space:pre;" font-weight="400" text-anchor="start" x="3656.0000" y="228.0000" font-size="83.0000" ><![CDATA[ ]]></text>
<defs><clipPath id="clip-1125898167"><path d="M 3283.0000,243.0000 L 3374.0000,243.0000 L 3374.0000,420.0000 L 3283.0000,420.0000 L 3283.0000,243.0000 Z Z" /></clipPath></defs>
<text  clip-path="url(#clip-1125898167)" font-family="Symbol" fill="#000000" font-style="italic" style ="white-space:pre;" font-weight="400" text-anchor="start" x="3283.0000" y="326.0000" font-size="83.0000" ><![CDATA[]]></text>
<text  clip-path="url(#clip-1125898167)" font-family="Times New Roman" fill="#000000" style ="white-space:pre;" font-weight="400" text-anchor="start" x="3365.0000" y="326.0000" font-size="83.0000" ><![CDATA[ ]]></text>
<defs><clipPath id="clip-1059961393"><path d="M 3365.0000,253.0000 L 3386.0000,253.0000 L 3386.0000,423.0000 L 3365.0000,423.0000 L 3365.0000,253.0000 Z Z" /></clipPath></defs>
<text  clip-path="url(#clip-1059961393)" font-family="Times New Roman" fill="#000000" font-style="italic" style ="white-space:pre;" font-weight="400" text-anchor="start" x="3365.0000" y="328.0000" font-size="83.0000" ><![CDATA[ ]]></text>
<text  clip-path="url(#clip-1059961393)" font-family="Times New Roman" fill="#000000" style ="white-space:pre;" font-weight="400" text-anchor="start" x="3386.0000" y="328.0000" font-size="83.0000" ><![CDATA[ ]]></text>
<defs><clipPath id="clip-2089018456"><path d="M 3324.0000,352.0000 L 3345.0000,352.0000 L 3345.0000,522.0000 L 3324.0000,522.0000 L 3324.0000,352.0000 Z Z" /></clipPath></defs>
<text  clip-path="url(#clip-2089018456)" font-family="Times New Roman" fill="#000000" font-style="italic" style ="white-space:pre;" font-weight="400" text-anchor="start" x="3324.0000" y="427.0000" font-size="83.0000" ><![CDATA[ ]]></text>
<text  clip-path="url(#clip-2089018456)" font-family="Times New Roman" fill="#000000" style ="white-space:pre;" font-weight="400" text-anchor="start" x="3345.0000" y="427.0000" font-size="83.0000" ><![CDATA[ ]]></text>
</g>
</g>
</svg>
