<?xml version="1.0"  encoding="UTF-8" standalone="no"?>
<svg version="1.1" xmlns="http://www.w3.org/2000/svg" xmlns:xlink="http://www.w3.org/1999/xlink" width="3639.0000" height="1096.0000">
<g transform="translate(-0.0000, -0.0000)">
<defs><clipPath id="clip-1804289383"><path d="M 0.0000,0.0000 L 3900.0000,0.0000 L 3900.0000,1068.0000 L 0.0000,1068.0000 L 0.0000,0.0000 Z Z" /></clipPath></defs>
<text font-family="Times New Roman" fill="#000000" style ="white-space:pre;" font-weight="400" text-anchor="start" x="3603.0000" y="1068.0000" font-size="83.0000" ><![CDATA[ ]]></text>
<defs><clipPath id="clip-846930886"><path d="M 0.0000,40.0000 L 25.0000,40.0000 L 25.0000,211.0000 L 0.0000,211.0000 L 0.0000,40.0000 Z Z" /></clipPath></defs>
<text  clip-path="url(#clip-846930886)" font-family="Times New Roman" fill="#000000" style ="white-space:pre;" font-weight="400" text-anchor="start" x="0.0000" y="115.0000" font-size="100.0000" ><![CDATA[ ]]></text>
<text  clip-path="url(#clip-846930886)" font-family="Times New Roman" fill="#000000" style ="white-space:pre;" font-weight="400" text-anchor="start" x="25.0000" y="115.0000" font-size="83.0000" ><![CDATA[ ]]></text>
<g transform="matrix(0.0625 0.0000 0.0000 0.0625 0.0000 0.0000)">
<path d="M 15972.0000,5652.0000 L 15972.0000,15252.0000 L 31986.0000,15252.0000 L 31986.0000,5652.0000 Z" stroke="#000000" stroke-width="93.0000"  stroke-linecap="round"  stroke-linejoin="miter"  stroke-miterlimit="8.0000" fill="none" />
</g>
<g transform="matrix(1.0000 0.0000 0.0000 1.0000 0.0000 0.0000)">
</g>
<g transform="matrix(0.1250 0.0000 0.0000 0.1250 0.0000 0.0000)">
<path d="M 7186.0000,2113.0000 L 7186.0000,8513.0000 L 16793.0000,8513.0000 L 16793.0000,2113.0000 Z" stroke="#000000" stroke-width="47.0000"  stroke-linecap="round"  stroke-linejoin="miter"  stroke-miterlimit="8.0000" fill="none" />
</g>
<g transform="matrix(1.0000 0.0000 0.0000 1.0000 0.0000 0.0000)">
</g>
<g transform="matrix(0.0625 0.0000 0.0000 0.0625 0.0000 0.0000)">
<path d="M 5579.0000,5652.0000 L 14372.0000,5652.0000 " stroke="#000000" stroke-width="93.0000"  stroke-linecap="round"  stroke-linejoin="round" fill="none" />
</g>
<g transform="matrix(1.0000 0.0000 0.0000 1.0000 0.0000 0.0000)">
</g>
<g transform="matrix(0.0625 0.0000 0.0000 0.0625 0.0000 0.0000)">
<path d="M 5579.0000,9899.0000 L 14372.0000,9899.0000 " stroke="#000000" stroke-width="93.0000"  stroke-linecap="round"  stroke-linejoin="round" fill="none" />
</g>
<g transform="matrix(1.0000 0.0000 0.0000 1.0000 0.0000 0.0000)">
</g>
<g transform="matrix(0.0625 0.0000 0.0000 0.0625 0.0000 0.0000)">
<path d="M 5579.0000,14166.0000 L 14372.0000,14166.0000 " stroke="#000000" stroke-width="93.0000"  stroke-linecap="round"  stroke-linejoin="round" fill="none" />
</g>
<g transform="matrix(1.0000 0.0000 0.0000 1.0000 0.0000 0.0000)">
</g>
<g transform="matrix(0.1250 0.0000 0.0000 0.1250 0.0000 0.0000)">
<path d="M 16783.0000,7083.0000 L 21183.0000,7083.0000 " stroke="#000000" stroke-width="47.0000"  stroke-linecap="round"  stroke-linejoin="round" fill="none" />
</g>
<g transform="matrix(1.0000 0.0000 0.0000 1.0000 0.0000 0.0000)">
</g>
<g transform="matrix(0.1250 0.0000 0.0000 0.1250 0.0000 0.0000)">
<path d="M 16783.0000,4950.0000 L 21183.0000,4950.0000 " stroke="#000000" stroke-width="47.0000"  stroke-linecap="round"  stroke-linejoin="round" fill="none" />
</g>
<g transform="matrix(1.0000 0.0000 0.0000 1.0000 0.0000 0.0000)">
<defs><clipPath id="clip-1681692777"><path d="M 1235.0000,72.0000 L 1729.0000,72.0000 L 1729.0000,243.0000 L 1235.0000,243.0000 L 1235.0000,72.0000 Z Z" /></clipPath></defs>
<text  clip-path="url(#clip-1681692777)" font-family="Times New Roman" fill="#000000" style ="white-space:pre;" font-weight="400" text-anchor="start" x="1235.0000" y="147.0000" font-size="83.0000" ><![CDATA[Enclosure ]]></text>
<defs><clipPath id="clip-1714636915"><path d="M 1729.0000,0.0000 L 1779.0000,0.0000 L 1779.0000,171.0000 L 1729.0000,171.0000 L 1729.0000,0.0000 Z Z" /></clipPath></defs>
<text  clip-path="url(#clip-1714636915)" font-family="Times New Roman" fill="#000000" style ="white-space:pre;" font-weight="400" text-anchor="start" x="1729.0000" y="75.0000" font-size="200.0000" ><![CDATA[ ]]></text>
<text  clip-path="url(#clip-1714636915)" font-family="Times New Roman" fill="#000000" style ="white-space:pre;" font-weight="400" text-anchor="start" x="1779.0000" y="75.0000" font-size="83.0000" ><![CDATA[ ]]></text>
<defs><clipPath id="clip-1957747793"><path d="M 999.0000,565.0000 L 1999.0000,565.0000 L 1999.0000,736.0000 L 999.0000,736.0000 L 999.0000,565.0000 Z Z" /></clipPath></defs>
<text  clip-path="url(#clip-1957747793)" font-family="Times New Roman" fill="#000000" style ="white-space:pre;" font-weight="400" text-anchor="start" x="1328.0000" y="640.0000" font-size="83.0000" ><![CDATA[Apparatus]]></text>
<text  clip-path="url(#clip-1957747793)" font-family="Times New Roman" fill="#000000" style ="white-space:pre;" font-weight="400" text-anchor="start" x="1671.0000" y="640.0000" font-size="83.0000" ><![CDATA[ ]]></text>
<defs><clipPath id="clip-424238335"><path d="M 1699.0000,565.0000 L 1728.0000,565.0000 L 1728.0000,736.0000 L 1699.0000,736.0000 L 1699.0000,565.0000 Z Z" /></clipPath></defs>
<text  clip-path="url(#clip-424238335)" font-family="Times New Roman" fill="#000000" style ="white-space:pre;" font-weight="400" text-anchor="start" x="1699.0000" y="640.0000" font-size="117.0000" ><![CDATA[ ]]></text>
<text  clip-path="url(#clip-424238335)" font-family="Times New Roman" fill="#000000" style ="white-space:pre;" font-weight="400" text-anchor="start" x="1728.0000" y="640.0000" font-size="83.0000" ><![CDATA[ ]]></text>
<defs><clipPath id="clip-719885386"><path d="M 261.0000,142.0000 L 761.0000,142.0000 L 761.0000,378.0000 L 261.0000,378.0000 L 261.0000,142.0000 Z Z" /></clipPath></defs>
<text  clip-path="url(#clip-719885386)" font-family="Times New Roman" fill="#000000" style ="white-space:pre;" font-weight="400" text-anchor="start" x="261.0000" y="217.0000" font-size="83.0000" ><![CDATA[AC power ]]></text>
<text  clip-path="url(#clip-719885386)" font-family="Times New Roman" fill="#000000" style ="white-space:pre;" font-weight="400" text-anchor="start" x="261.0000" y="313.0000" font-size="83.0000" ><![CDATA[port]]></text>
<text  clip-path="url(#clip-719885386)" font-family="Times New Roman" fill="#000000" style ="white-space:pre;" font-weight="400" text-anchor="start" x="395.0000" y="313.0000" font-size="83.0000" ><![CDATA[ ]]></text>
<defs><clipPath id="clip-1649760492"><path d="M 860.0000,208.0000 L 885.0000,208.0000 L 885.0000,379.0000 L 860.0000,379.0000 L 860.0000,208.0000 Z Z" /></clipPath></defs>
<text  clip-path="url(#clip-1649760492)" font-family="Times New Roman" fill="#000000" style ="white-space:pre;" font-weight="400" text-anchor="start" x="860.0000" y="283.0000" font-size="100.0000" ><![CDATA[ ]]></text>
<text  clip-path="url(#clip-1649760492)" font-family="Times New Roman" fill="#000000" style ="white-space:pre;" font-weight="400" text-anchor="start" x="885.0000" y="283.0000" font-size="83.0000" ><![CDATA[ ]]></text>
<defs><clipPath id="clip-596516649"><path d="M 261.0000,409.0000 L 761.0000,409.0000 L 761.0000,646.0000 L 261.0000,646.0000 L 261.0000,409.0000 Z Z" /></clipPath></defs>
<text  clip-path="url(#clip-596516649)" font-family="Times New Roman" fill="#000000" style ="white-space:pre;" font-weight="400" text-anchor="start" x="261.0000" y="484.0000" font-size="83.0000" ><![CDATA[DC power ]]></text>
<text  clip-path="url(#clip-596516649)" font-family="Times New Roman" fill="#000000" style ="white-space:pre;" font-weight="400" text-anchor="start" x="261.0000" y="580.0000" font-size="83.0000" ><![CDATA[port]]></text>
<text  clip-path="url(#clip-596516649)" font-family="Times New Roman" fill="#000000" style ="white-space:pre;" font-weight="400" text-anchor="start" x="395.0000" y="580.0000" font-size="83.0000" ><![CDATA[ ]]></text>
<defs><clipPath id="clip-1189641421"><path d="M 860.0000,475.0000 L 885.0000,475.0000 L 885.0000,646.0000 L 860.0000,646.0000 L 860.0000,475.0000 Z Z" /></clipPath></defs>
<text  clip-path="url(#clip-1189641421)" font-family="Times New Roman" fill="#000000" style ="white-space:pre;" font-weight="400" text-anchor="start" x="860.0000" y="550.0000" font-size="100.0000" ><![CDATA[ ]]></text>
<text  clip-path="url(#clip-1189641421)" font-family="Times New Roman" fill="#000000" style ="white-space:pre;" font-weight="400" text-anchor="start" x="885.0000" y="550.0000" font-size="83.0000" ><![CDATA[ ]]></text>
<defs><clipPath id="clip-1025202362"><path d="M 267.0000,655.0000 L 603.0000,655.0000 L 603.0000,882.0000 L 267.0000,882.0000 L 267.0000,655.0000 Z Z" /></clipPath></defs>
<text  clip-path="url(#clip-1025202362)" font-family="Times New Roman" fill="#000000" style ="white-space:pre;" font-weight="400" text-anchor="start" x="267.0000" y="730.0000" font-size="83.0000" ><![CDATA[Earth ]]></text>
<text  clip-path="url(#clip-1025202362)" font-family="Times New Roman" fill="#000000" style ="white-space:pre;" font-weight="400" text-anchor="start" x="267.0000" y="825.0000" font-size="83.0000" ><![CDATA[port]]></text>
<text  clip-path="url(#clip-1025202362)" font-family="Times New Roman" fill="#000000" style ="white-space:pre;" font-weight="400" text-anchor="start" x="401.0000" y="825.0000" font-size="83.0000" ><![CDATA[ ]]></text>
<defs><clipPath id="clip-1350490027"><path d="M 715.0000,703.0000 L 740.0000,703.0000 L 740.0000,874.0000 L 715.0000,874.0000 L 715.0000,703.0000 Z Z" /></clipPath></defs>
<text  clip-path="url(#clip-1350490027)" font-family="Times New Roman" fill="#000000" style ="white-space:pre;" font-weight="400" text-anchor="start" x="715.0000" y="778.0000" font-size="100.0000" ><![CDATA[ ]]></text>
<text  clip-path="url(#clip-1350490027)" font-family="Times New Roman" fill="#000000" style ="white-space:pre;" font-weight="400" text-anchor="start" x="740.0000" y="778.0000" font-size="83.0000" ><![CDATA[ ]]></text>
<defs><clipPath id="clip-783368690"><path d="M 2733.0000,118.0000 L 2784.0000,118.0000 L 2784.0000,289.0000 L 2733.0000,289.0000 L 2733.0000,118.0000 Z Z" /></clipPath></defs>
<text  clip-path="url(#clip-783368690)" font-family="Times New Roman" fill="#000000" style ="white-space:pre;" font-weight="400" text-anchor="start" x="2733.0000" y="193.0000" font-size="200.0000" ><![CDATA[ ]]></text>
<text  clip-path="url(#clip-783368690)" font-family="Times New Roman" fill="#000000" style ="white-space:pre;" font-weight="400" text-anchor="start" x="2783.0000" y="193.0000" font-size="83.0000" ><![CDATA[ ]]></text>
<defs><clipPath id="clip-1102520059"><path d="M 2210.0000,409.0000 L 2837.0000,409.0000 L 2837.0000,613.0000 L 2210.0000,613.0000 L 2210.0000,409.0000 Z Z" /></clipPath></defs>
<text  clip-path="url(#clip-1102520059)" font-family="Times New Roman" fill="#000000" style ="white-space:pre;" font-weight="400" text-anchor="start" x="2210.0000" y="484.0000" font-size="83.0000" ><![CDATA[S]]></text>
<text  clip-path="url(#clip-1102520059)" font-family="Times New Roman" fill="#000000" style ="white-space:pre;" font-weight="400" text-anchor="start" x="2256.0000" y="484.0000" font-size="83.0000" ><![CDATA[ignal/control ]]></text>
<text  clip-path="url(#clip-1102520059)" font-family="Times New Roman" fill="#000000" style ="white-space:pre;" font-weight="400" text-anchor="start" x="2210.0000" y="580.0000" font-size="83.0000" ><![CDATA[port]]></text>
<text  clip-path="url(#clip-1102520059)" font-family="Times New Roman" fill="#000000" style ="white-space:pre;" font-weight="400" text-anchor="start" x="2344.0000" y="580.0000" font-size="83.0000" ><![CDATA[ ]]></text>
<defs><clipPath id="clip-2044897763"><path d="M 2961.0000,385.0000 L 3012.0000,385.0000 L 3012.0000,556.0000 L 2961.0000,556.0000 L 2961.0000,385.0000 Z Z" /></clipPath></defs>
<text  clip-path="url(#clip-2044897763)" font-family="Times New Roman" fill="#000000" style ="white-space:pre;" font-weight="400" text-anchor="start" x="2961.0000" y="460.0000" font-size="200.0000" ><![CDATA[ ]]></text>
<text  clip-path="url(#clip-2044897763)" font-family="Times New Roman" fill="#000000" style ="white-space:pre;" font-weight="400" text-anchor="start" x="3011.0000" y="460.0000" font-size="83.0000" ><![CDATA[ ]]></text>
<defs><clipPath id="clip-1967513926"><path d="M 2198.0000,673.0000 L 3020.0000,673.0000 L 3020.0000,901.0000 L 2198.0000,901.0000 L 2198.0000,673.0000 Z Z" /></clipPath></defs>
<text  clip-path="url(#clip-1967513926)" font-family="Times New Roman" fill="#000000" style ="white-space:pre;" font-weight="400" text-anchor="start" x="2198.0000" y="748.0000" font-size="83.0000" ><![CDATA[Telecommunication ]]></text>
<text  clip-path="url(#clip-1967513926)" font-family="Times New Roman" fill="#000000" style ="white-space:pre;" font-weight="400" text-anchor="start" x="2198.0000" y="844.0000" font-size="83.0000" ><![CDATA[port]]></text>
<text  clip-path="url(#clip-1967513926)" font-family="Times New Roman" fill="#000000" style ="white-space:pre;" font-weight="400" text-anchor="start" x="2332.0000" y="844.0000" font-size="83.0000" ><![CDATA[ ]]></text>
<defs><clipPath id="clip-1365180540"><path d="M 3184.0000,726.0000 L 3210.0000,726.0000 L 3210.0000,897.0000 L 3184.0000,897.0000 L 3184.0000,726.0000 Z Z" /></clipPath></defs>
<text  clip-path="url(#clip-1365180540)" font-family="Times New Roman" fill="#000000" style ="white-space:pre;" font-weight="400" text-anchor="start" x="3184.0000" y="801.0000" font-size="100.0000" ><![CDATA[ ]]></text>
<text  clip-path="url(#clip-1365180540)" font-family="Times New Roman" fill="#000000" style ="white-space:pre;" font-weight="400" text-anchor="start" x="3209.0000" y="801.0000" font-size="83.0000" ><![CDATA[ ]]></text>
</g>
</g>
</svg>
