<?xml version="1.0"  encoding="UTF-8" standalone="no"?>
<svg version="1.1" xmlns="http://www.w3.org/2000/svg" xmlns:xlink="http://www.w3.org/1999/xlink" width="571.0000" height="200.0000">
<g transform="translate(-1.0000, -2.0000)">
<g transform="matrix(0.0625 0.0000 0.0000 0.0625 0.0000 0.0000)">
<path d="M 48.0000,64.0000 L 48.0000,784.0000 L 2128.0000,784.0000 L 2128.0000,64.0000 L 48.0000,64.0000 Z" stroke-width="1px" stroke="#FFFFFF"  fill="#FFFFFF" />
</g>
<g transform="matrix(1.0000 0.0000 0.0000 1.0000 0.0000 0.0000)">
</g>
<g transform="matrix(0.0625 0.0000 0.0000 0.0625 0.0000 0.0000)">
<path d="M 48.0000,784.0000 L 2128.0000,784.0000 L 2128.0000,64.0000 L 48.0000,64.0000 L 48.0000,784.0000 Z" stroke="#404040" stroke-width="7.0000"  stroke-linecap="round"  stroke-linejoin="round" fill="none" />
</g>
<g transform="matrix(1.0000 0.0000 0.0000 1.0000 0.0000 0.0000)">
<text font-family="Arial" fill="#000000" style ="white-space:pre;" font-weight="400" text-anchor="start" x="14.0000" y="31.0000" font-size="17.0000" ><![CDATA[NG]]></text>
<text font-family="Arial" fill="#000000" style ="white-space:pre;" font-weight="400" text-anchor="start" x="39.0000" y="31.0000" font-size="17.0000" ><![CDATA[-]]></text>
<text font-family="Arial" fill="#000000" style ="white-space:pre;" font-weight="400" text-anchor="start" x="45.0000" y="31.0000" font-size="17.0000" ><![CDATA[RAN node]]></text>
</g>
<g transform="matrix(0.0625 0.0000 0.0000 0.0625 0.0000 0.0000)">
<path d="M 480.0000,3056.0000 L 480.0000,3200.0000 L 1696.0000,3200.0000 L 1696.0000,3056.0000 L 480.0000,3056.0000 Z" stroke-width="1px" stroke="#000000"  fill="#000000" />
</g>
<g transform="matrix(1.0000 0.0000 0.0000 1.0000 0.0000 0.0000)">
</g>
<g transform="matrix(0.0625 0.0000 0.0000 0.0625 0.0000 0.0000)">
<path d="M 480.0000,3200.0000 L 1696.0000,3200.0000 L 1696.0000,3056.0000 L 480.0000,3056.0000 L 480.0000,3200.0000 Z" stroke="#404040" stroke-width="7.0000"  stroke-linecap="round"  stroke-linejoin="round" fill="none" />
</g>
<g transform="matrix(1.0000 0.0000 0.0000 1.0000 0.0000 0.0000)">
</g>
<g transform="matrix(0.0625 0.0000 0.0000 0.0625 0.0000 0.0000)">
<path d="M 7472.0000,3056.0000 L 7472.0000,3200.0000 L 8688.0000,3200.0000 L 8688.0000,3056.0000 L 7472.0000,3056.0000 Z" stroke-width="1px" stroke="#000000"  fill="#000000" />
</g>
<g transform="matrix(1.0000 0.0000 0.0000 1.0000 0.0000 0.0000)">
</g>
<g transform="matrix(0.0625 0.0000 0.0000 0.0625 0.0000 0.0000)">
<path d="M 7472.0000,3200.0000 L 8688.0000,3200.0000 L 8688.0000,3056.0000 L 7472.0000,3056.0000 L 7472.0000,3200.0000 Z" stroke="#404040" stroke-width="7.0000"  stroke-linecap="round"  stroke-linejoin="round" fill="none" />
</g>
<g transform="matrix(1.0000 0.0000 0.0000 1.0000 0.0000 0.0000)">
</g>
<g transform="matrix(0.0625 0.0000 0.0000 0.0625 0.0000 0.0000)">
<path d="M 1088.0000,784.0000 L 1088.0000,3056.0000 " stroke="#404040" stroke-width="7.0000"  stroke-linecap="round"  stroke-linejoin="round" fill="none" />
</g>
<g transform="matrix(1.0000 0.0000 0.0000 1.0000 0.0000 0.0000)">
</g>
<g transform="matrix(0.0625 0.0000 0.0000 0.0625 0.0000 0.0000)">
<path d="M 1088.0000,1456.0000 L 7872.0000,1456.0000 " stroke="#404040" stroke-width="7.0000"  stroke-linecap="round"  stroke-linejoin="round" fill="none" />
</g>
<g transform="matrix(1.0000 0.0000 0.0000 1.0000 0.0000 0.0000)">
</g>
<g transform="matrix(0.0625 0.0000 0.0000 0.0625 0.0000 0.0000)">
<path d="M 7856.0000,1392.0000 L 8080.0000,1456.0000 L 7856.0000,1536.0000 L 7856.0000,1392.0000 Z" stroke-width="1px" stroke="#404040"  fill="#404040" />
</g>
<g transform="matrix(1.0000 0.0000 0.0000 1.0000 0.0000 0.0000)">
</g>
<g transform="matrix(0.0625 0.0000 0.0000 0.0625 0.0000 0.0000)">
<path d="M 1280.0000,2304.0000 L 8080.0000,2304.0000 " stroke="#404040" stroke-width="7.0000"  stroke-linecap="round"  stroke-linejoin="round" fill="none" />
</g>
<g transform="matrix(1.0000 0.0000 0.0000 1.0000 0.0000 0.0000)">
</g>
<g transform="matrix(0.0625 0.0000 0.0000 0.0625 0.0000 0.0000)">
<path d="M 1312.0000,2384.0000 L 1088.0000,2304.0000 L 1312.0000,2240.0000 L 1312.0000,2384.0000 Z" stroke-width="1px" stroke="#404040"  fill="#404040" />
</g>
<g transform="matrix(1.0000 0.0000 0.0000 1.0000 0.0000 0.0000)">
<text font-family="Arial" fill="#000000" style ="white-space:pre;" font-weight="400" text-anchor="start" x="152.0000" y="87.0000" font-size="17.0000" ><![CDATA[UE CONTEXT RESUME REQUEST]]></text>
<text font-family="Arial" fill="#000000" style ="white-space:pre;" font-weight="400" text-anchor="start" x="157.0000" y="140.0000" font-size="17.0000" ><![CDATA[UE CONTEXT RESUME]]></text>
<text font-family="Arial" fill="#000000" style ="white-space:pre;" font-weight="400" text-anchor="start" x="340.0000" y="140.0000" font-size="17.0000" ><![CDATA[ ]]></text>
<text font-family="Arial" fill="#000000" style ="white-space:pre;" font-weight="400" text-anchor="start" x="345.0000" y="140.0000" font-size="17.0000" ><![CDATA[FAILURE]]></text>
</g>
<g transform="matrix(0.0625 0.0000 0.0000 0.0625 0.0000 0.0000)">
<path d="M 7024.0000,64.0000 L 7024.0000,784.0000 L 9120.0000,784.0000 L 9120.0000,64.0000 L 7024.0000,64.0000 Z" stroke-width="1px" stroke="#FFFFFF"  fill="#FFFFFF" />
</g>
<g transform="matrix(1.0000 0.0000 0.0000 1.0000 0.0000 0.0000)">
</g>
<g transform="matrix(0.0625 0.0000 0.0000 0.0625 0.0000 0.0000)">
<path d="M 7024.0000,784.0000 L 9120.0000,784.0000 L 9120.0000,64.0000 L 7024.0000,64.0000 L 7024.0000,784.0000 Z" stroke="#1F477D" stroke-width="6.0000"  stroke-linecap="round"  stroke-linejoin="round" fill="none" />
</g>
<g transform="matrix(1.0000 0.0000 0.0000 1.0000 0.0000 0.0000)">
<text font-family="Arial" fill="#000000" style ="white-space:pre;" font-weight="400" text-anchor="start" x="483.0000" y="31.0000" font-size="20.0000" ><![CDATA[AMF]]></text>
</g>
<g transform="matrix(0.0625 0.0000 0.0000 0.0625 0.0000 0.0000)">
<path d="M 8080.0000,784.0000 L 8080.0000,3056.0000 " stroke="#000000" stroke-width="7.0000"  stroke-linecap="round"  stroke-linejoin="round" fill="none" />
</g>
<g transform="matrix(1.0000 0.0000 0.0000 1.0000 0.0000 0.0000)">
</g>
</g>
</svg>
