<?xml version="1.0"  encoding="UTF-8" standalone="no"?>
<svg version="1.1" xmlns="http://www.w3.org/2000/svg" xmlns:xlink="http://www.w3.org/1999/xlink" width="2730.0000" height="1292.0000">
<g transform="translate(140.0000, 122.0000)">
<text font-family="Times New Roman" fill="#000000" style ="white-space:pre;" font-weight="400" text-anchor="start" x="1362.0000" y="-3179.0000" font-size="75.0000" ><![CDATA[ ]]></text>
<defs><clipPath id="clip-1804289383"><path d="M 0.0000,0.0000 L 2725.0000,0.0000 L 2725.0000,840.0000 L 0.0000,840.0000 L 0.0000,0.0000 Z Z" /></clipPath></defs>
<text font-family="Times New Roman" fill="#000000" style ="white-space:pre;" font-weight="400" text-anchor="start" x="-118.0000" y="93.0000" font-size="100.0000" ><![CDATA[ ]]></text>
<g transform="matrix(0.1250 0.0000 0.0000 0.1250 0.0000 0.0000)">
<path d="M 16306.0000,-457.0000 L 16306.0000,1506.0000 L 20456.0000,1506.0000 L 20456.0000,-457.0000 L 16306.0000,-457.0000 Z" stroke-width="1px" stroke="#FFFFFF"  fill="#FFFFFF" />
</g>
<g transform="matrix(1.0000 0.0000 0.0000 1.0000 0.0000 0.0000)">
</g>
<g transform="matrix(0.1250 0.0000 0.0000 0.1250 0.0000 0.0000)">
<path d="M 16306.0000,-457.0000 L 16306.0000,1506.0000 L 20456.0000,1506.0000 L 20456.0000,-457.0000 Z" stroke="#000000" stroke-width="50.0000"  stroke-linecap="round"  stroke-linejoin="miter"  stroke-miterlimit="8.0000" fill="none" />
</g>
<g transform="matrix(1.0000 0.0000 0.0000 1.0000 0.0000 0.0000)">
<defs><clipPath id="clip-846930886"><path d="M 2042.0000,-23.0000 L 2554.0000,-23.0000 L 2554.0000,156.0000 L 2042.0000,156.0000 L 2042.0000,-23.0000 Z Z" /></clipPath></defs>
<text  clip-path="url(#clip-846930886)" font-family="Arial" fill="#000000" style ="white-space:pre;" font-weight="400" text-anchor="start" x="2210.0000" y="55.0000" font-size="83.0000" ><![CDATA[AMF]]></text>
<text  clip-path="url(#clip-846930886)" font-family="Arial" fill="#000000" style ="white-space:pre;" font-weight="400" text-anchor="start" x="2386.0000" y="55.0000" font-size="83.0000" ><![CDATA[ ]]></text>
</g>
<g transform="matrix(0.0625 0.0000 0.0000 0.0625 0.0000 0.0000)">
<path d="M -1708.0000,-1414.0000 L -1708.0000,3012.0000 L 7272.0000,3012.0000 L 7272.0000,-1414.0000 L -1708.0000,-1414.0000 Z" stroke-width="1px" stroke="#FFFFFF"  fill="#FFFFFF" />
</g>
<g transform="matrix(1.0000 0.0000 0.0000 1.0000 0.0000 0.0000)">
</g>
<g transform="matrix(0.0625 0.0000 0.0000 0.0625 0.0000 0.0000)">
<path d="M -1708.0000,-1414.0000 L -1708.0000,3012.0000 L 7272.0000,3012.0000 L 7272.0000,-1414.0000 Z" stroke="#000000" stroke-width="100.0000"  stroke-linecap="round"  stroke-linejoin="miter"  stroke-miterlimit="8.0000" fill="none" />
</g>
<g transform="matrix(1.0000 0.0000 0.0000 1.0000 0.0000 0.0000)">
<defs><clipPath id="clip-1681692777"><path d="M -103.0000,-54.0000 L 452.0000,-54.0000 L 452.0000,156.0000 L -103.0000,156.0000 L -103.0000,-54.0000 Z Z" /></clipPath></defs>
<text  clip-path="url(#clip-1681692777)" font-family="Arial" fill="#000000" style ="white-space:pre;" font-weight="400" text-anchor="start" x="10.0000" y="23.0000" font-size="83.0000" ><![CDATA[NG]]></text>
<text  clip-path="url(#clip-1681692777)" font-family="Arial" fill="#000000" style ="white-space:pre;" font-weight="400" text-anchor="start" x="135.0000" y="23.0000" font-size="83.0000" ><![CDATA[-]]></text>
<text  clip-path="url(#clip-1681692777)" font-family="Arial" fill="#000000" style ="white-space:pre;" font-weight="400" text-anchor="start" x="163.0000" y="23.0000" font-size="83.0000" ><![CDATA[RAN ]]></text>
<text  clip-path="url(#clip-1681692777)" font-family="Arial" fill="#000000" style ="white-space:pre;" font-weight="400" text-anchor="start" x="82.0000" y="119.0000" font-size="83.0000" ><![CDATA[node]]></text>
<text  clip-path="url(#clip-1681692777)" font-family="Arial" fill="#000000" style ="white-space:pre;" font-weight="400" text-anchor="start" x="267.0000" y="119.0000" font-size="83.0000" ><![CDATA[ ]]></text>
</g>
<g transform="matrix(0.0625 0.0000 0.0000 0.0625 0.0000 0.0000)">
<path d="M -8.0000,12786.0000 L -8.0000,13539.0000 L 6039.0000,13539.0000 L 6039.0000,12786.0000 L -8.0000,12786.0000 Z" stroke-width="1px" stroke="#000000"  fill="#000000" />
</g>
<g transform="matrix(1.0000 0.0000 0.0000 1.0000 0.0000 0.0000)">
</g>
<g transform="matrix(0.0625 0.0000 0.0000 0.0625 0.0000 0.0000)">
<path d="M -8.0000,12786.0000 L -8.0000,13539.0000 L 6039.0000,13539.0000 L 6039.0000,12786.0000 Z" stroke="#000000" stroke-width="100.0000"  stroke-linecap="round"  stroke-linejoin="miter"  stroke-miterlimit="8.0000" fill="none" />
</g>
<g transform="matrix(1.0000 0.0000 0.0000 1.0000 0.0000 0.0000)">
</g>
<g transform="matrix(0.1250 0.0000 0.0000 0.1250 0.0000 0.0000)">
<path d="M 16943.0000,6393.0000 L 16943.0000,6770.0000 L 19966.0000,6770.0000 L 19966.0000,6393.0000 L 16943.0000,6393.0000 Z" stroke-width="1px" stroke="#000000"  fill="#000000" />
</g>
<g transform="matrix(1.0000 0.0000 0.0000 1.0000 0.0000 0.0000)">
</g>
<g transform="matrix(0.1250 0.0000 0.0000 0.1250 0.0000 0.0000)">
<path d="M 16943.0000,6393.0000 L 16943.0000,6770.0000 L 19966.0000,6770.0000 L 19966.0000,6393.0000 Z" stroke="#000000" stroke-width="50.0000"  stroke-linecap="round"  stroke-linejoin="miter"  stroke-miterlimit="8.0000" fill="none" />
</g>
<g transform="matrix(1.0000 0.0000 0.0000 1.0000 0.0000 0.0000)">
</g>
<g transform="matrix(0.0625 0.0000 0.0000 0.0625 0.0000 0.0000)">
<path d="M 3032.0000,3006.0000 L 3032.0000,18606.0000 " stroke="#000000" stroke-width="100.0000"  stroke-linecap="butt"  stroke-linejoin="round" fill="none" />
</g>
<g transform="matrix(1.0000 0.0000 0.0000 1.0000 0.0000 0.0000)">
</g>
<g transform="matrix(0.1250 0.0000 0.0000 0.1250 0.0000 0.0000)">
<path d="M 18490.0000,1513.0000 L 18490.0000,9313.0000 " stroke="#000000" stroke-width="50.0000"  stroke-linecap="butt"  stroke-linejoin="round" fill="none" />
</g>
<g transform="matrix(1.0000 0.0000 0.0000 1.0000 0.0000 0.0000)">
</g>
<g transform="matrix(0.1250 0.0000 0.0000 0.1250 0.0000 0.0000)">
<path d="M 1463.0000,3210.0000 L 18130.0000,3210.0000 L 18130.0000,3276.0000 L 1463.0000,3276.0000 L 1463.0000,3210.0000 Z M 18063.0000,3043.0000 L 18463.0000,3243.0000 L 18063.0000,3443.0000 L 18063.0000,3043.0000 Z "  fill="#000000" stroke="#000000" stroke-width="8.0000"  stroke-linecap="butt"  stroke-linejoin="bevel" />
</g>
<g transform="matrix(1.0000 0.0000 0.0000 1.0000 0.0000 0.0000)">
<defs><clipPath id="clip-1714636915"><path d="M 172.0000,268.0000 L 2398.0000,268.0000 L 2398.0000,391.0000 L 172.0000,391.0000 L 172.0000,268.0000 Z Z" /></clipPath></defs>
<text  clip-path="url(#clip-1714636915)" font-family="Arial" fill="#000000" style ="white-space:pre;" font-weight="400" text-anchor="start" x="574.0000" y="346.0000" font-size="83.0000" ><![CDATA[DISTRIBUTION ]]></text>
<text  clip-path="url(#clip-1714636915)" font-family="Arial" fill="#000000" style ="white-space:pre;" font-weight="400" text-anchor="start" x="1184.0000" y="346.0000" font-size="83.0000" ><![CDATA[RELEASE]]></text>
<text  clip-path="url(#clip-1714636915)" font-family="Arial" fill="#000000" style ="white-space:pre;" font-weight="400" text-anchor="start" x="1569.0000" y="346.0000" font-size="83.0000" ><![CDATA[ ]]></text>
<text  clip-path="url(#clip-1714636915)" font-family="Arial" fill="#000000" style ="white-space:pre;" font-weight="400" text-anchor="start" x="1593.0000" y="346.0000" font-size="83.0000" ><![CDATA[REQUEST]]></text>
<text  clip-path="url(#clip-1714636915)" font-family="Arial" fill="#000000" style ="white-space:pre;" font-weight="400" text-anchor="start" x="1996.0000" y="346.0000" font-size="100.0000" ><![CDATA[ ]]></text>
</g>
<g transform="matrix(0.1250 0.0000 0.0000 0.1250 0.0000 0.0000)">
<path d="M 18463.0000,5246.0000 L 1796.0000,5246.0000 L 1796.0000,5180.0000 L 18463.0000,5180.0000 L 18463.0000,5246.0000 Z M 1863.0000,5413.0000 L 1463.0000,5213.0000 L 1863.0000,5013.0000 L 1863.0000,5413.0000 Z "  fill="#000000" stroke="#000000" stroke-width="8.0000"  stroke-linecap="butt"  stroke-linejoin="bevel" />
</g>
<g transform="matrix(1.0000 0.0000 0.0000 1.0000 0.0000 0.0000)">
<defs><clipPath id="clip-1957747793"><path d="M 154.0000,513.0000 L 2410.0000,513.0000 L 2410.0000,622.0000 L 154.0000,622.0000 L 154.0000,513.0000 Z Z" /></clipPath></defs>
<text  clip-path="url(#clip-1957747793)" font-family="Arial" fill="#000000" style ="white-space:pre;" font-weight="400" text-anchor="start" x="541.0000" y="591.0000" font-size="83.0000" ><![CDATA[DISTRIBUTION ]]></text>
<text  clip-path="url(#clip-1957747793)" font-family="Arial" fill="#000000" style ="white-space:pre;" font-weight="400" text-anchor="start" x="1151.0000" y="591.0000" font-size="83.0000" ><![CDATA[RELEASE]]></text>
<text  clip-path="url(#clip-1957747793)" font-family="Arial" fill="#000000" style ="white-space:pre;" font-weight="400" text-anchor="start" x="1536.0000" y="591.0000" font-size="83.0000" ><![CDATA[ ]]></text>
<text  clip-path="url(#clip-1957747793)" font-family="Arial" fill="#000000" style ="white-space:pre;" font-weight="400" text-anchor="start" x="1560.0000" y="591.0000" font-size="83.0000" ><![CDATA[RESPONSE]]></text>
<text  clip-path="url(#clip-1957747793)" font-family="Arial" fill="#000000" style ="white-space:pre;" font-weight="400" text-anchor="start" x="2023.0000" y="591.0000" font-size="83.0000" ><![CDATA[ ]]></text>
</g>
</g>
</svg>
