<?xml version="1.0"  encoding="UTF-8" standalone="no"?>
<svg version="1.1" xmlns="http://www.w3.org/2000/svg" xmlns:xlink="http://www.w3.org/1999/xlink" width="685.0000" height="240.0000">
<g transform="translate(-1.0000, -2.0000)">
<g transform="matrix(0.0625 0.0000 0.0000 0.0625 0.0000 0.0000)">
<path d="M 52.0000,64.0000 L 52.0000,930.0000 L 2546.0000,930.0000 L 2546.0000,64.0000 L 52.0000,64.0000 Z" stroke-width="1px" stroke="#FFFFFF"  fill="#FFFFFF" />
</g>
<g transform="matrix(1.0000 0.0000 0.0000 1.0000 0.0000 0.0000)">
</g>
<g transform="matrix(0.0625 0.0000 0.0000 0.0625 0.0000 0.0000)">
<path d="M 52.0000,930.0000 L 2546.0000,930.0000 L 2546.0000,64.0000 L 52.0000,64.0000 L 52.0000,930.0000 Z" stroke="#404040" stroke-width="16.0000"  stroke-linecap="round"  stroke-linejoin="round" fill="none" />
</g>
<g transform="matrix(1.0000 0.0000 0.0000 1.0000 0.0000 0.0000)">
</g>
<g transform="matrix(1.0000 0.0000 0.0000 1.0000 17.2040 37.0433)">
<text font-family="Arial" fill="#000000" style ="white-space:pre;" font-weight="400" text-anchor="start" x="0.0000" y="0.0000" font-size="20.0000" ><![CDATA[NG]]></text>
</g>
<g transform="matrix(1.0000 0.0000 0.0000 1.0000 47.2039 37.0433)">
<text font-family="Arial" fill="#000000" style ="white-space:pre;" font-weight="400" text-anchor="start" x="0.0000" y="0.0000" font-size="20.0000" ><![CDATA[-]]></text>
</g>
<g transform="matrix(1.0000 0.0000 0.0000 1.0000 53.8638 37.0433)">
<text font-family="Arial" fill="#000000" style ="white-space:pre;" font-weight="400" text-anchor="start" x="0.0000" y="0.0000" font-size="20.0000" ><![CDATA[RAN node]]></text>
</g>
<g transform="matrix(0.0625 0.0000 0.0000 0.0625 0.0000 0.0000)">
<path d="M 567.0000,3651.0000 L 567.0000,3833.0000 L 2018.0000,3833.0000 L 2018.0000,3651.0000 L 567.0000,3651.0000 Z" stroke-width="1px" stroke="#000000"  fill="#000000" />
</g>
<g transform="matrix(1.0000 0.0000 0.0000 1.0000 0.0000 0.0000)">
</g>
<g transform="matrix(0.0625 0.0000 0.0000 0.0625 0.0000 0.0000)">
<path d="M 567.0000,3833.0000 L 2018.0000,3833.0000 L 2018.0000,3651.0000 L 567.0000,3651.0000 L 567.0000,3833.0000 Z" stroke="#404040" stroke-width="16.0000"  stroke-linecap="round"  stroke-linejoin="round" fill="none" />
</g>
<g transform="matrix(1.0000 0.0000 0.0000 1.0000 0.0000 0.0000)">
</g>
<g transform="matrix(0.0625 0.0000 0.0000 0.0625 0.0000 0.0000)">
<path d="M 8959.0000,3651.0000 L 8959.0000,3833.0000 L 10410.0000,3833.0000 L 10410.0000,3651.0000 L 8959.0000,3651.0000 Z" stroke-width="1px" stroke="#000000"  fill="#000000" />
</g>
<g transform="matrix(1.0000 0.0000 0.0000 1.0000 0.0000 0.0000)">
</g>
<g transform="matrix(0.0625 0.0000 0.0000 0.0625 0.0000 0.0000)">
<path d="M 8959.0000,3833.0000 L 10410.0000,3833.0000 L 10410.0000,3651.0000 L 8959.0000,3651.0000 L 8959.0000,3833.0000 Z" stroke="#404040" stroke-width="16.0000"  stroke-linecap="round"  stroke-linejoin="round" fill="none" />
</g>
<g transform="matrix(1.0000 0.0000 0.0000 1.0000 0.0000 0.0000)">
</g>
<g transform="matrix(0.0625 0.0000 0.0000 0.0625 0.0000 0.0000)">
<path d="M 1293.0000,930.0000 L 1293.0000,3651.0000 " stroke="#404040" stroke-width="16.0000"  stroke-linecap="round"  stroke-linejoin="round" fill="none" />
</g>
<g transform="matrix(1.0000 0.0000 0.0000 1.0000 0.0000 0.0000)">
</g>
<g transform="matrix(0.0625 0.0000 0.0000 0.0625 0.0000 0.0000)">
<path d="M 1537.0000,2357.0000 L 9684.0000,2357.0000 " stroke="#404040" stroke-width="16.0000"  stroke-linecap="round"  stroke-linejoin="round" fill="none" />
</g>
<g transform="matrix(1.0000 0.0000 0.0000 1.0000 0.0000 0.0000)">
</g>
<g transform="matrix(0.0625 0.0000 0.0000 0.0625 0.0000 0.0000)">
<path d="M 1559.0000,2446.0000 L 1293.0000,2357.0000 L 1559.0000,2269.0000 L 1559.0000,2446.0000 Z" stroke-width="1px" stroke="#404040"  fill="#404040" />
</g>
<g transform="matrix(1.0000 0.0000 0.0000 1.0000 0.0000 0.0000)">
</g>
<g transform="matrix(1.0000 0.0000 0.0000 1.0000 138.7213 142.4727)">
<text font-family="Arial" fill="#000000" style ="white-space:pre;" font-weight="400" text-anchor="start" x="0.0000" y="0.0000" font-size="20.0000" ><![CDATA[DOWNLINK RIM INFORMATION]]></text>
</g>
<g transform="matrix(1.0000 0.0000 0.0000 1.0000 434.2695 142.4727)">
<text font-family="Arial" fill="#000000" style ="white-space:pre;" font-weight="400" text-anchor="start" x="0.0000" y="0.0000" font-size="20.0000" ><![CDATA[ ]]></text>
</g>
<g transform="matrix(1.0000 0.0000 0.0000 1.0000 439.8264 142.4727)">
<text font-family="Arial" fill="#000000" style ="white-space:pre;" font-weight="400" text-anchor="start" x="0.0000" y="0.0000" font-size="20.0000" ><![CDATA[TRANSFER]]></text>
</g>
<g transform="matrix(0.0625 0.0000 0.0000 0.0625 0.0000 0.0000)">
<path d="M 8420.0000,64.0000 L 8420.0000,930.0000 L 10938.0000,930.0000 L 10938.0000,64.0000 L 8420.0000,64.0000 Z" stroke-width="1px" stroke="#FFFFFF"  fill="#FFFFFF" />
</g>
<g transform="matrix(1.0000 0.0000 0.0000 1.0000 0.0000 0.0000)">
</g>
<g transform="matrix(0.0625 0.0000 0.0000 0.0625 0.0000 0.0000)">
<path d="M 8420.0000,930.0000 L 10938.0000,930.0000 L 10938.0000,64.0000 L 8420.0000,64.0000 L 8420.0000,930.0000 Z" stroke="#1F477D" stroke-width="16.0000"  stroke-linecap="round"  stroke-linejoin="round" fill="none" />
</g>
<g transform="matrix(1.0000 0.0000 0.0000 1.0000 0.0000 0.0000)">
</g>
<g transform="matrix(1.0000 0.0000 0.0000 1.0000 580.0778 37.5437)">
<text font-family="Arial" fill="#000000" style ="white-space:pre;" font-weight="400" text-anchor="start" x="0.0000" y="0.0000" font-size="24.0000" ><![CDATA[AMF]]></text>
</g>
<g transform="matrix(0.0625 0.0000 0.0000 0.0625 0.0000 0.0000)">
<path d="M 9684.0000,930.0000 L 9684.0000,3651.0000 " stroke="#000000" stroke-width="16.0000"  stroke-linecap="round"  stroke-linejoin="round" fill="none" />
</g>
<g transform="matrix(1.0000 0.0000 0.0000 1.0000 0.0000 0.0000)">
</g>
</g>
</svg>
