<?xml version="1.0"  encoding="UTF-8" standalone="no"?>
<svg version="1.1" xmlns="http://www.w3.org/2000/svg" xmlns:xlink="http://www.w3.org/1999/xlink" width="2608.0000" height="939.0000">
<g transform="translate(13.0000, 28.0000)">
<text font-family="Times New Roman" fill="#000000" style ="white-space:pre;" font-weight="400" text-anchor="start" x="0.0000" y="90.0000" font-size="100.0000" ><![CDATA[    ]]></text>
<text font-family="Times New Roman" fill="#000000" style ="white-space:pre;" font-weight="400" text-anchor="start" x="100.0000" y="90.0000" font-size="100.0000" ><![CDATA[ ]]></text>
<g transform="matrix(0.1250 0.0000 0.0000 0.1250 0.0000 0.0000)">
<path d="M 19050.0000,1513.0000 L 19053.0000,6626.0000 " stroke="#000000" stroke-width="50.0000"  stroke-linecap="round"  stroke-linejoin="round" fill="none" />
</g>
<g transform="matrix(1.0000 0.0000 0.0000 1.0000 0.0000 0.0000)">
</g>
<g transform="matrix(0.0625 0.0000 0.0000 0.0625 0.0000 0.0000)">
<path d="M 5799.0000,3059.0000 L 5806.0000,13286.0000 " stroke="#000000" stroke-width="100.0000"  stroke-linecap="round"  stroke-linejoin="round" fill="none" />
</g>
<g transform="matrix(1.0000 0.0000 0.0000 1.0000 0.0000 0.0000)">
</g>
<g transform="matrix(0.0625 0.0000 0.0000 0.0625 0.0000 0.0000)">
<path d="M 326.0000,86.0000 L 326.0000,4866.0000 L 11486.0000,4866.0000 L 11486.0000,86.0000 L 326.0000,86.0000 Z" stroke-width="1px" stroke="#FFFFFF"  fill="#FFFFFF" />
</g>
<g transform="matrix(1.0000 0.0000 0.0000 1.0000 0.0000 0.0000)">
</g>
<g transform="matrix(0.0625 0.0000 0.0000 0.0625 0.0000 0.0000)">
<path d="M 326.0000,86.0000 L 326.0000,4866.0000 L 11486.0000,4866.0000 L 11486.0000,86.0000 Z" stroke="#000000" stroke-width="100.0000"  stroke-linecap="round"  stroke-linejoin="miter"  stroke-miterlimit="8.0000" fill="none" />
</g>
<g transform="matrix(1.0000 0.0000 0.0000 1.0000 0.0000 0.0000)">
<defs><clipPath id="clip-1804289383"><path d="M 24.0000,33.0000 L 715.0000,33.0000 L 715.0000,278.0000 L 24.0000,278.0000 L 24.0000,33.0000 Z Z" /></clipPath></defs>
<text  clip-path="url(#clip-1804289383)" font-family="Arial" fill="#000000" style ="white-space:pre;" font-weight="400" text-anchor="start" x="253.0000" y="118.0000" font-size="92.0000" ><![CDATA[targ]]></text>
<text  clip-path="url(#clip-1804289383)" font-family="Arial" fill="#000000" style ="white-space:pre;" font-weight="400" text-anchor="start" x="412.0000" y="118.0000" font-size="92.0000" ><![CDATA[e]]></text>
<text  clip-path="url(#clip-1804289383)" font-family="Arial" fill="#000000" style ="white-space:pre;" font-weight="400" text-anchor="start" x="462.0000" y="118.0000" font-size="92.0000" ><![CDATA[t]]></text>
<text  clip-path="url(#clip-1804289383)" font-family="Arial" fill="#000000" style ="white-space:pre;" font-weight="400" text-anchor="start" x="487.0000" y="118.0000" font-size="92.0000" ><![CDATA[ ]]></text>
<text  clip-path="url(#clip-1804289383)" font-family="Arial" fill="#000000" style ="white-space:pre;" font-weight="400" text-anchor="start" x="74.0000" y="223.0000" font-size="92.0000" ><![CDATA[NG]]></text>
<text  clip-path="url(#clip-1804289383)" font-family="Arial" fill="#000000" style ="white-space:pre;" font-weight="400" text-anchor="start" x="212.0000" y="223.0000" font-size="92.0000" ><![CDATA[-]]></text>
<text  clip-path="url(#clip-1804289383)" font-family="Arial" fill="#000000" style ="white-space:pre;" font-weight="400" text-anchor="start" x="243.0000" y="223.0000" font-size="92.0000" ><![CDATA[RAN node]]></text>
<text  clip-path="url(#clip-1804289383)" font-family="Arial" fill="#000000" style ="white-space:pre;" font-weight="400" text-anchor="start" x="665.0000" y="223.0000" font-size="92.0000" ><![CDATA[ ]]></text>
</g>
<g transform="matrix(0.1250 0.0000 0.0000 0.1250 0.0000 0.0000)">
<path d="M 19053.0000,4676.0000 L 3233.0000,4676.0000 C 3215.0000,4676.0000 3200.0000,4662.0000 3200.0000,4643.0000 C 3200.0000,4625.0000 3215.0000,4610.0000 3233.0000,4610.0000 L 19053.0000,4610.0000 C 19072.0000,4610.0000 19086.0000,4625.0000 19086.0000,4643.0000 C 19086.0000,4662.0000 19072.0000,4676.0000 19053.0000,4676.0000 Z M 3300.0000,4843.0000 L 2900.0000,4643.0000 L 3300.0000,4443.0000 Z "  fill="#000000" stroke="#000000" stroke-width="8.0000"  stroke-linecap="butt"  stroke-linejoin="bevel" />
</g>
<g transform="matrix(1.0000 0.0000 0.0000 1.0000 0.0000 0.0000)">
<defs><clipPath id="clip-846930886"><path d="M 387.0000,431.0000 L 2382.0000,431.0000 L 2382.0000,529.0000 L 387.0000,529.0000 L 387.0000,431.0000 Z Z" /></clipPath></defs>
<text  clip-path="url(#clip-846930886)" font-family="Arial" fill="#000000" style ="white-space:pre;" font-weight="400" text-anchor="start" x="387.0000" y="516.0000" font-size="92.0000" ><![CDATA[DOWN]]></text>
<text  clip-path="url(#clip-846930886)" font-family="Arial" fill="#000000" style ="white-space:pre;" font-weight="400" text-anchor="start" x="678.0000" y="516.0000" font-size="92.0000" ><![CDATA[LINK]]></text>
<text  clip-path="url(#clip-846930886)" font-family="Arial" fill="#000000" style ="white-space:pre;" font-weight="400" text-anchor="start" x="882.0000" y="516.0000" font-size="92.0000" ><![CDATA[ ]]></text>
<text  clip-path="url(#clip-846930886)" font-family="Arial" fill="#000000" style ="white-space:pre;" font-weight="400" text-anchor="start" x="908.0000" y="516.0000" font-size="92.0000" ><![CDATA[RAN]]></text>
<text  clip-path="url(#clip-846930886)" font-family="Arial" fill="#000000" style ="white-space:pre;" font-weight="400" text-anchor="start" x="1101.0000" y="516.0000" font-size="92.0000" ><![CDATA[ ]]></text>
<text  clip-path="url(#clip-846930886)" font-family="Arial" fill="#000000" style ="white-space:pre;" font-weight="400" text-anchor="start" x="1127.0000" y="516.0000" font-size="92.0000" ><![CDATA[EARLY ]]></text>
<text  clip-path="url(#clip-846930886)" font-family="Arial" fill="#000000" style ="white-space:pre;" font-weight="400" text-anchor="start" x="1452.0000" y="516.0000" font-size="92.0000" ><![CDATA[STATUS T]]></text>
<text  clip-path="url(#clip-846930886)" font-family="Arial" fill="#000000" style ="white-space:pre;" font-weight="400" text-anchor="start" x="1896.0000" y="516.0000" font-size="92.0000" ><![CDATA[RANSFER]]></text>
<text  clip-path="url(#clip-846930886)" font-family="Arial" fill="#000000" style ="white-space:pre;" font-weight="400" text-anchor="start" x="2333.0000" y="516.0000" font-size="92.0000" ><![CDATA[ ]]></text>
</g>
<g transform="matrix(0.0625 0.0000 0.0000 0.0625 0.0000 0.0000)">
<path d="M 2866.0000,13286.0000 L 2866.0000,14046.0000 L 8566.0000,14046.0000 L 8566.0000,13286.0000 L 2866.0000,13286.0000 Z" stroke-width="1px" stroke="#000000"  fill="#000000" />
</g>
<g transform="matrix(1.0000 0.0000 0.0000 1.0000 0.0000 0.0000)">
</g>
<g transform="matrix(0.0625 0.0000 0.0000 0.0625 0.0000 0.0000)">
<path d="M 2866.0000,13286.0000 L 2866.0000,14046.0000 L 8566.0000,14046.0000 L 8566.0000,13286.0000 Z" stroke="#000000" stroke-width="100.0000"  stroke-linecap="round"  stroke-linejoin="miter"  stroke-miterlimit="8.0000" fill="none" />
</g>
<g transform="matrix(1.0000 0.0000 0.0000 1.0000 0.0000 0.0000)">
</g>
<g transform="matrix(0.1250 0.0000 0.0000 0.1250 0.0000 0.0000)">
<path d="M 17503.0000,6643.0000 L 17503.0000,7023.0000 L 20353.0000,7023.0000 L 20353.0000,6643.0000 L 17503.0000,6643.0000 Z" stroke-width="1px" stroke="#000000"  fill="#000000" />
</g>
<g transform="matrix(1.0000 0.0000 0.0000 1.0000 0.0000 0.0000)">
</g>
<g transform="matrix(0.1250 0.0000 0.0000 0.1250 0.0000 0.0000)">
<path d="M 17503.0000,6643.0000 L 17503.0000,7023.0000 L 20353.0000,7023.0000 L 20353.0000,6643.0000 Z" stroke="#000000" stroke-width="50.0000"  stroke-linecap="round"  stroke-linejoin="miter"  stroke-miterlimit="8.0000" fill="none" />
</g>
<g transform="matrix(1.0000 0.0000 0.0000 1.0000 0.0000 0.0000)">
</g>
<g transform="matrix(0.1250 0.0000 0.0000 0.1250 0.0000 0.0000)">
<path d="M 17123.0000,43.0000 L 17123.0000,2433.0000 L 20493.0000,2433.0000 L 20493.0000,43.0000 L 17123.0000,43.0000 Z" stroke-width="1px" stroke="#FFFFFF"  fill="#FFFFFF" />
</g>
<g transform="matrix(1.0000 0.0000 0.0000 1.0000 0.0000 0.0000)">
</g>
<g transform="matrix(0.1250 0.0000 0.0000 0.1250 0.0000 0.0000)">
<path d="M 17123.0000,43.0000 L 17123.0000,2433.0000 L 20493.0000,2433.0000 L 20493.0000,43.0000 Z" stroke="#000000" stroke-width="50.0000"  stroke-linecap="round"  stroke-linejoin="miter"  stroke-miterlimit="8.0000" fill="none" />
</g>
<g transform="matrix(1.0000 0.0000 0.0000 1.0000 0.0000 0.0000)">
<defs><clipPath id="clip-1681692777"><path d="M 2144.0000,33.0000 L 2559.0000,33.0000 L 2559.0000,278.0000 L 2144.0000,278.0000 L 2144.0000,33.0000 Z Z" /></clipPath></defs>
<text  clip-path="url(#clip-1681692777)" font-family="Arial" fill="#000000" style ="white-space:pre;" font-weight="400" text-anchor="start" x="2255.0000" y="118.0000" font-size="92.0000" ><![CDATA[A]]></text>
<text  clip-path="url(#clip-1681692777)" font-family="Arial" fill="#000000" style ="white-space:pre;" font-weight="400" text-anchor="start" x="2317.0000" y="118.0000" font-size="92.0000" ><![CDATA[M]]></text>
<text  clip-path="url(#clip-1681692777)" font-family="Arial" fill="#000000" style ="white-space:pre;" font-weight="400" text-anchor="start" x="2392.0000" y="118.0000" font-size="92.0000" ><![CDATA[F]]></text>
<text  clip-path="url(#clip-1681692777)" font-family="Arial" fill="#000000" style ="white-space:pre;" font-weight="400" text-anchor="start" x="2449.0000" y="118.0000" font-size="92.0000" ><![CDATA[ ]]></text>
</g>
</g>
</svg>
