<?xml version="1.0"  encoding="UTF-8" standalone="no"?>
<svg version="1.1" xmlns="http://www.w3.org/2000/svg" xmlns:xlink="http://www.w3.org/1999/xlink" width="240.0000" height="174.0000">
<g transform="translate(-0.0000, -0.0000)">
<g transform="matrix(0.0625 0.0000 0.0000 0.0625 0.0000 0.0000)">
<path d="M 2304.0000,2744.0000 L 2416.0000,2744.0000 C 2421.0000,2744.0000 2424.0000,2748.0000 2424.0000,2752.0000 C 2424.0000,2757.0000 2421.0000,2760.0000 2416.0000,2760.0000 L 2304.0000,2760.0000 C 2300.0000,2760.0000 2296.0000,2757.0000 2296.0000,2752.0000 C 2296.0000,2748.0000 2300.0000,2744.0000 2304.0000,2744.0000 Z M 2496.0000,2744.0000 L 2608.0000,2744.0000 C 2613.0000,2744.0000 2616.0000,2748.0000 2616.0000,2752.0000 C 2616.0000,2757.0000 2613.0000,2760.0000 2608.0000,2760.0000 L 2496.0000,2760.0000 C 2492.0000,2760.0000 2488.0000,2757.0000 2488.0000,2752.0000 C 2488.0000,2748.0000 2492.0000,2744.0000 2496.0000,2744.0000 Z M 2688.0000,2744.0000 L 2800.0000,2744.0000 C 2805.0000,2744.0000 2808.0000,2748.0000 2808.0000,2752.0000 C 2808.0000,2757.0000 2805.0000,2760.0000 2800.0000,2760.0000 L 2688.0000,2760.0000 C 2684.0000,2760.0000 2680.0000,2757.0000 2680.0000,2752.0000 C 2680.0000,2748.0000 2684.0000,2744.0000 2688.0000,2744.0000 Z M 2880.0000,2744.0000 L 2992.0000,2744.0000 C 2997.0000,2744.0000 3000.0000,2748.0000 3000.0000,2752.0000 C 3000.0000,2757.0000 2997.0000,2760.0000 2992.0000,2760.0000 L 2880.0000,2760.0000 C 2876.0000,2760.0000 2872.0000,2757.0000 2872.0000,2752.0000 C 2872.0000,2748.0000 2876.0000,2744.0000 2880.0000,2744.0000 Z M 3072.0000,2744.0000 L 3184.0000,2744.0000 C 3189.0000,2744.0000 3192.0000,2748.0000 3192.0000,2752.0000 C 3192.0000,2757.0000 3189.0000,2760.0000 3184.0000,2760.0000 L 3072.0000,2760.0000 C 3068.0000,2760.0000 3064.0000,2757.0000 3064.0000,2752.0000 C 3064.0000,2748.0000 3068.0000,2744.0000 3072.0000,2744.0000 Z M 3264.0000,2744.0000 L 3376.0000,2744.0000 C 3381.0000,2744.0000 3384.0000,2748.0000 3384.0000,2752.0000 C 3384.0000,2757.0000 3381.0000,2760.0000 3376.0000,2760.0000 L 3264.0000,2760.0000 C 3260.0000,2760.0000 3256.0000,2757.0000 3256.0000,2752.0000 C 3256.0000,2748.0000 3260.0000,2744.0000 3264.0000,2744.0000 Z M 3456.0000,2744.0000 L 3568.0000,2744.0000 C 3573.0000,2744.0000 3576.0000,2748.0000 3576.0000,2752.0000 C 3576.0000,2757.0000 3573.0000,2760.0000 3568.0000,2760.0000 L 3456.0000,2760.0000 C 3452.0000,2760.0000 3448.0000,2757.0000 3448.0000,2752.0000 C 3448.0000,2748.0000 3452.0000,2744.0000 3456.0000,2744.0000 Z M 3648.0000,2744.0000 L 3760.0000,2744.0000 C 3765.0000,2744.0000 3768.0000,2748.0000 3768.0000,2752.0000 C 3768.0000,2757.0000 3765.0000,2760.0000 3760.0000,2760.0000 L 3648.0000,2760.0000 C 3644.0000,2760.0000 3640.0000,2757.0000 3640.0000,2752.0000 C 3640.0000,2748.0000 3644.0000,2744.0000 3648.0000,2744.0000 Z M 3800.0000,2720.0000 L 3800.0000,2608.0000 C 3800.0000,2604.0000 3804.0000,2600.0000 3808.0000,2600.0000 C 3813.0000,2600.0000 3816.0000,2604.0000 3816.0000,2608.0000 L 3816.0000,2720.0000 C 3816.0000,2725.0000 3813.0000,2728.0000 3808.0000,2728.0000 C 3804.0000,2728.0000 3800.0000,2725.0000 3800.0000,2720.0000 Z M 3800.0000,2528.0000 L 3800.0000,2416.0000 C 3800.0000,2412.0000 3804.0000,2408.0000 3808.0000,2408.0000 C 3813.0000,2408.0000 3816.0000,2412.0000 3816.0000,2416.0000 L 3816.0000,2528.0000 C 3816.0000,2533.0000 3813.0000,2536.0000 3808.0000,2536.0000 C 3804.0000,2536.0000 3800.0000,2533.0000 3800.0000,2528.0000 Z M 3800.0000,2336.0000 L 3800.0000,2224.0000 C 3800.0000,2220.0000 3804.0000,2216.0000 3808.0000,2216.0000 C 3813.0000,2216.0000 3816.0000,2220.0000 3816.0000,2224.0000 L 3816.0000,2336.0000 C 3816.0000,2341.0000 3813.0000,2344.0000 3808.0000,2344.0000 C 3804.0000,2344.0000 3800.0000,2341.0000 3800.0000,2336.0000 Z M 3800.0000,2144.0000 L 3800.0000,2032.0000 C 3800.0000,2028.0000 3804.0000,2024.0000 3808.0000,2024.0000 C 3813.0000,2024.0000 3816.0000,2028.0000 3816.0000,2032.0000 L 3816.0000,2144.0000 C 3816.0000,2149.0000 3813.0000,2152.0000 3808.0000,2152.0000 C 3804.0000,2152.0000 3800.0000,2149.0000 3800.0000,2144.0000 Z M 3800.0000,1952.0000 L 3800.0000,1840.0000 C 3800.0000,1836.0000 3804.0000,1832.0000 3808.0000,1832.0000 C 3813.0000,1832.0000 3816.0000,1836.0000 3816.0000,1840.0000 L 3816.0000,1952.0000 C 3816.0000,1957.0000 3813.0000,1960.0000 3808.0000,1960.0000 C 3804.0000,1960.0000 3800.0000,1957.0000 3800.0000,1952.0000 Z M 3800.0000,1760.0000 L 3800.0000,1648.0000 C 3800.0000,1644.0000 3804.0000,1640.0000 3808.0000,1640.0000 C 3813.0000,1640.0000 3816.0000,1644.0000 3816.0000,1648.0000 L 3816.0000,1760.0000 C 3816.0000,1765.0000 3813.0000,1768.0000 3808.0000,1768.0000 C 3804.0000,1768.0000 3800.0000,1765.0000 3800.0000,1760.0000 Z M 3800.0000,1568.0000 L 3800.0000,1456.0000 C 3800.0000,1452.0000 3804.0000,1448.0000 3808.0000,1448.0000 C 3813.0000,1448.0000 3816.0000,1452.0000 3816.0000,1456.0000 L 3816.0000,1568.0000 C 3816.0000,1573.0000 3813.0000,1576.0000 3808.0000,1576.0000 C 3804.0000,1576.0000 3800.0000,1573.0000 3800.0000,1568.0000 Z M 3800.0000,1376.0000 L 3800.0000,1264.0000 C 3800.0000,1260.0000 3804.0000,1256.0000 3808.0000,1256.0000 C 3813.0000,1256.0000 3816.0000,1260.0000 3816.0000,1264.0000 L 3816.0000,1376.0000 C 3816.0000,1381.0000 3813.0000,1384.0000 3808.0000,1384.0000 C 3804.0000,1384.0000 3800.0000,1381.0000 3800.0000,1376.0000 Z M 3800.0000,1184.0000 L 3800.0000,1072.0000 C 3800.0000,1068.0000 3804.0000,1064.0000 3808.0000,1064.0000 C 3813.0000,1064.0000 3816.0000,1068.0000 3816.0000,1072.0000 L 3816.0000,1184.0000 C 3816.0000,1189.0000 3813.0000,1192.0000 3808.0000,1192.0000 C 3804.0000,1192.0000 3800.0000,1189.0000 3800.0000,1184.0000 Z M 3800.0000,992.0000 L 3800.0000,880.0000 C 3800.0000,876.0000 3804.0000,872.0000 3808.0000,872.0000 C 3813.0000,872.0000 3816.0000,876.0000 3816.0000,880.0000 L 3816.0000,992.0000 C 3816.0000,997.0000 3813.0000,1000.0000 3808.0000,1000.0000 C 3804.0000,1000.0000 3800.0000,997.0000 3800.0000,992.0000 Z M 3800.0000,800.0000 L 3800.0000,688.0000 C 3800.0000,684.0000 3804.0000,680.0000 3808.0000,680.0000 C 3813.0000,680.0000 3816.0000,684.0000 3816.0000,688.0000 L 3816.0000,800.0000 C 3816.0000,805.0000 3813.0000,808.0000 3808.0000,808.0000 C 3804.0000,808.0000 3800.0000,805.0000 3800.0000,800.0000 Z M 3800.0000,608.0000 L 3800.0000,496.0000 C 3800.0000,492.0000 3804.0000,488.0000 3808.0000,488.0000 C 3813.0000,488.0000 3816.0000,492.0000 3816.0000,496.0000 L 3816.0000,608.0000 C 3816.0000,613.0000 3813.0000,616.0000 3808.0000,616.0000 C 3804.0000,616.0000 3800.0000,613.0000 3800.0000,608.0000 Z M 3800.0000,416.0000 L 3800.0000,304.0000 C 3800.0000,300.0000 3804.0000,296.0000 3808.0000,296.0000 C 3813.0000,296.0000 3816.0000,300.0000 3816.0000,304.0000 L 3816.0000,416.0000 C 3816.0000,421.0000 3813.0000,424.0000 3808.0000,424.0000 C 3804.0000,424.0000 3800.0000,421.0000 3800.0000,416.0000 Z M 3800.0000,224.0000 L 3800.0000,112.0000 C 3800.0000,108.0000 3804.0000,104.0000 3808.0000,104.0000 C 3813.0000,104.0000 3816.0000,108.0000 3816.0000,112.0000 L 3816.0000,224.0000 C 3816.0000,229.0000 3813.0000,232.0000 3808.0000,232.0000 C 3804.0000,232.0000 3800.0000,229.0000 3800.0000,224.0000 Z M 3808.0000,40.0000 L 3696.0000,40.0000 C 3692.0000,40.0000 3688.0000,37.0000 3688.0000,32.0000 C 3688.0000,28.0000 3692.0000,24.0000 3696.0000,24.0000 L 3808.0000,24.0000 C 3813.0000,24.0000 3816.0000,28.0000 3816.0000,32.0000 C 3816.0000,37.0000 3813.0000,40.0000 3808.0000,40.0000 Z M 3616.0000,40.0000 L 3504.0000,40.0000 C 3500.0000,40.0000 3496.0000,37.0000 3496.0000,32.0000 C 3496.0000,28.0000 3500.0000,24.0000 3504.0000,24.0000 L 3616.0000,24.0000 C 3621.0000,24.0000 3624.0000,28.0000 3624.0000,32.0000 C 3624.0000,37.0000 3621.0000,40.0000 3616.0000,40.0000 Z M 3424.0000,40.0000 L 3312.0000,40.0000 C 3308.0000,40.0000 3304.0000,37.0000 3304.0000,32.0000 C 3304.0000,28.0000 3308.0000,24.0000 3312.0000,24.0000 L 3424.0000,24.0000 C 3429.0000,24.0000 3432.0000,28.0000 3432.0000,32.0000 C 3432.0000,37.0000 3429.0000,40.0000 3424.0000,40.0000 Z M 3232.0000,40.0000 L 3120.0000,40.0000 C 3116.0000,40.0000 3112.0000,37.0000 3112.0000,32.0000 C 3112.0000,28.0000 3116.0000,24.0000 3120.0000,24.0000 L 3232.0000,24.0000 C 3237.0000,24.0000 3240.0000,28.0000 3240.0000,32.0000 C 3240.0000,37.0000 3237.0000,40.0000 3232.0000,40.0000 Z M 3040.0000,40.0000 L 2928.0000,40.0000 C 2924.0000,40.0000 2920.0000,37.0000 2920.0000,32.0000 C 2920.0000,28.0000 2924.0000,24.0000 2928.0000,24.0000 L 3040.0000,24.0000 C 3045.0000,24.0000 3048.0000,28.0000 3048.0000,32.0000 C 3048.0000,37.0000 3045.0000,40.0000 3040.0000,40.0000 Z M 2848.0000,40.0000 L 2736.0000,40.0000 C 2732.0000,40.0000 2728.0000,37.0000 2728.0000,32.0000 C 2728.0000,28.0000 2732.0000,24.0000 2736.0000,24.0000 L 2848.0000,24.0000 C 2853.0000,24.0000 2856.0000,28.0000 2856.0000,32.0000 C 2856.0000,37.0000 2853.0000,40.0000 2848.0000,40.0000 Z M 2656.0000,40.0000 L 2544.0000,40.0000 C 2540.0000,40.0000 2536.0000,37.0000 2536.0000,32.0000 C 2536.0000,28.0000 2540.0000,24.0000 2544.0000,24.0000 L 2656.0000,24.0000 C 2661.0000,24.0000 2664.0000,28.0000 2664.0000,32.0000 C 2664.0000,37.0000 2661.0000,40.0000 2656.0000,40.0000 Z M 2464.0000,40.0000 L 2352.0000,40.0000 C 2348.0000,40.0000 2344.0000,37.0000 2344.0000,32.0000 C 2344.0000,28.0000 2348.0000,24.0000 2352.0000,24.0000 L 2464.0000,24.0000 C 2469.0000,24.0000 2472.0000,28.0000 2472.0000,32.0000 C 2472.0000,37.0000 2469.0000,40.0000 2464.0000,40.0000 Z M 2312.0000,64.0000 L 2312.0000,176.0000 C 2312.0000,181.0000 2309.0000,184.0000 2304.0000,184.0000 C 2300.0000,184.0000 2296.0000,181.0000 2296.0000,176.0000 L 2296.0000,64.0000 C 2296.0000,60.0000 2300.0000,56.0000 2304.0000,56.0000 C 2309.0000,56.0000 2312.0000,60.0000 2312.0000,64.0000 Z M 2312.0000,256.0000 L 2312.0000,368.0000 C 2312.0000,373.0000 2309.0000,376.0000 2304.0000,376.0000 C 2300.0000,376.0000 2296.0000,373.0000 2296.0000,368.0000 L 2296.0000,256.0000 C 2296.0000,252.0000 2300.0000,248.0000 2304.0000,248.0000 C 2309.0000,248.0000 2312.0000,252.0000 2312.0000,256.0000 Z M 2312.0000,448.0000 L 2312.0000,560.0000 C 2312.0000,565.0000 2309.0000,568.0000 2304.0000,568.0000 C 2300.0000,568.0000 2296.0000,565.0000 2296.0000,560.0000 L 2296.0000,448.0000 C 2296.0000,444.0000 2300.0000,440.0000 2304.0000,440.0000 C 2309.0000,440.0000 2312.0000,444.0000 2312.0000,448.0000 Z M 2312.0000,640.0000 L 2312.0000,752.0000 C 2312.0000,757.0000 2309.0000,760.0000 2304.0000,760.0000 C 2300.0000,760.0000 2296.0000,757.0000 2296.0000,752.0000 L 2296.0000,640.0000 C 2296.0000,636.0000 2300.0000,632.0000 2304.0000,632.0000 C 2309.0000,632.0000 2312.0000,636.0000 2312.0000,640.0000 Z M 2312.0000,832.0000 L 2312.0000,944.0000 C 2312.0000,949.0000 2309.0000,952.0000 2304.0000,952.0000 C 2300.0000,952.0000 2296.0000,949.0000 2296.0000,944.0000 L 2296.0000,832.0000 C 2296.0000,828.0000 2300.0000,824.0000 2304.0000,824.0000 C 2309.0000,824.0000 2312.0000,828.0000 2312.0000,832.0000 Z M 2312.0000,1024.0000 L 2312.0000,1136.0000 C 2312.0000,1141.0000 2309.0000,1144.0000 2304.0000,1144.0000 C 2300.0000,1144.0000 2296.0000,1141.0000 2296.0000,1136.0000 L 2296.0000,1024.0000 C 2296.0000,1020.0000 2300.0000,1016.0000 2304.0000,1016.0000 C 2309.0000,1016.0000 2312.0000,1020.0000 2312.0000,1024.0000 Z M 2312.0000,1216.0000 L 2312.0000,1328.0000 C 2312.0000,1333.0000 2309.0000,1336.0000 2304.0000,1336.0000 C 2300.0000,1336.0000 2296.0000,1333.0000 2296.0000,1328.0000 L 2296.0000,1216.0000 C 2296.0000,1212.0000 2300.0000,1208.0000 2304.0000,1208.0000 C 2309.0000,1208.0000 2312.0000,1212.0000 2312.0000,1216.0000 Z M 2312.0000,1408.0000 L 2312.0000,1520.0000 C 2312.0000,1525.0000 2309.0000,1528.0000 2304.0000,1528.0000 C 2300.0000,1528.0000 2296.0000,1525.0000 2296.0000,1520.0000 L 2296.0000,1408.0000 C 2296.0000,1404.0000 2300.0000,1400.0000 2304.0000,1400.0000 C 2309.0000,1400.0000 2312.0000,1404.0000 2312.0000,1408.0000 Z M 2312.0000,1600.0000 L 2312.0000,1712.0000 C 2312.0000,1717.0000 2309.0000,1720.0000 2304.0000,1720.0000 C 2300.0000,1720.0000 2296.0000,1717.0000 2296.0000,1712.0000 L 2296.0000,1600.0000 C 2296.0000,1596.0000 2300.0000,1592.0000 2304.0000,1592.0000 C 2309.0000,1592.0000 2312.0000,1596.0000 2312.0000,1600.0000 Z M 2312.0000,1792.0000 L 2312.0000,1904.0000 C 2312.0000,1909.0000 2309.0000,1912.0000 2304.0000,1912.0000 C 2300.0000,1912.0000 2296.0000,1909.0000 2296.0000,1904.0000 L 2296.0000,1792.0000 C 2296.0000,1788.0000 2300.0000,1784.0000 2304.0000,1784.0000 C 2309.0000,1784.0000 2312.0000,1788.0000 2312.0000,1792.0000 Z M 2312.0000,1984.0000 L 2312.0000,2096.0000 C 2312.0000,2101.0000 2309.0000,2104.0000 2304.0000,2104.0000 C 2300.0000,2104.0000 2296.0000,2101.0000 2296.0000,2096.0000 L 2296.0000,1984.0000 C 2296.0000,1980.0000 2300.0000,1976.0000 2304.0000,1976.0000 C 2309.0000,1976.0000 2312.0000,1980.0000 2312.0000,1984.0000 Z M 2312.0000,2176.0000 L 2312.0000,2288.0000 C 2312.0000,2293.0000 2309.0000,2296.0000 2304.0000,2296.0000 C 2300.0000,2296.0000 2296.0000,2293.0000 2296.0000,2288.0000 L 2296.0000,2176.0000 C 2296.0000,2172.0000 2300.0000,2168.0000 2304.0000,2168.0000 C 2309.0000,2168.0000 2312.0000,2172.0000 2312.0000,2176.0000 Z M 2312.0000,2368.0000 L 2312.0000,2480.0000 C 2312.0000,2485.0000 2309.0000,2488.0000 2304.0000,2488.0000 C 2300.0000,2488.0000 2296.0000,2485.0000 2296.0000,2480.0000 L 2296.0000,2368.0000 C 2296.0000,2364.0000 2300.0000,2360.0000 2304.0000,2360.0000 C 2309.0000,2360.0000 2312.0000,2364.0000 2312.0000,2368.0000 Z M 2312.0000,2560.0000 L 2312.0000,2672.0000 C 2312.0000,2677.0000 2309.0000,2680.0000 2304.0000,2680.0000 C 2300.0000,2680.0000 2296.0000,2677.0000 2296.0000,2672.0000 L 2296.0000,2560.0000 C 2296.0000,2556.0000 2300.0000,2552.0000 2304.0000,2552.0000 C 2309.0000,2552.0000 2312.0000,2556.0000 2312.0000,2560.0000 Z "  fill="#000000" stroke="#000000" stroke-width="16.0000"  stroke-linecap="butt"  stroke-linejoin="bevel" />
</g>
<g transform="matrix(1.0000 0.0000 0.0000 1.0000 0.0000 0.0000)">
<text font-family="Arial" fill="#000000" style ="white-space:pre;" font-weight="400" text-anchor="start" x="149.0000" y="17.0000" font-size="11.0000" ><![CDATA[UE B]]></text>
</g>
<g transform="matrix(0.0625 0.0000 0.0000 0.0625 0.0000 0.0000)">
<path d="M 2448.0000,2592.0000 L 3664.0000,2592.0000 L 3664.0000,2304.0000 L 2448.0000,2304.0000 L 2448.0000,2592.0000 " stroke="#000000" stroke-width="5.0000"  stroke-linecap="round"  stroke-linejoin="round" fill="none" />
</g>
<g transform="matrix(1.0000 0.0000 0.0000 1.0000 0.0000 0.0000)">
<text font-family="Arial" fill="#000000" style ="white-space:pre;" font-weight="400" text-anchor="start" x="180.0000" y="156.0000" font-size="11.0000" ><![CDATA[PHY]]></text>
</g>
<g transform="matrix(0.0625 0.0000 0.0000 0.0625 0.0000 0.0000)">
<path d="M 32.0000,2744.0000 L 144.0000,2744.0000 C 149.0000,2744.0000 152.0000,2748.0000 152.0000,2752.0000 C 152.0000,2757.0000 149.0000,2760.0000 144.0000,2760.0000 L 32.0000,2760.0000 C 28.0000,2760.0000 24.0000,2757.0000 24.0000,2752.0000 C 24.0000,2748.0000 28.0000,2744.0000 32.0000,2744.0000 Z M 224.0000,2744.0000 L 336.0000,2744.0000 C 341.0000,2744.0000 344.0000,2748.0000 344.0000,2752.0000 C 344.0000,2757.0000 341.0000,2760.0000 336.0000,2760.0000 L 224.0000,2760.0000 C 220.0000,2760.0000 216.0000,2757.0000 216.0000,2752.0000 C 216.0000,2748.0000 220.0000,2744.0000 224.0000,2744.0000 Z M 416.0000,2744.0000 L 528.0000,2744.0000 C 533.0000,2744.0000 536.0000,2748.0000 536.0000,2752.0000 C 536.0000,2757.0000 533.0000,2760.0000 528.0000,2760.0000 L 416.0000,2760.0000 C 412.0000,2760.0000 408.0000,2757.0000 408.0000,2752.0000 C 408.0000,2748.0000 412.0000,2744.0000 416.0000,2744.0000 Z M 608.0000,2744.0000 L 720.0000,2744.0000 C 725.0000,2744.0000 728.0000,2748.0000 728.0000,2752.0000 C 728.0000,2757.0000 725.0000,2760.0000 720.0000,2760.0000 L 608.0000,2760.0000 C 604.0000,2760.0000 600.0000,2757.0000 600.0000,2752.0000 C 600.0000,2748.0000 604.0000,2744.0000 608.0000,2744.0000 Z M 800.0000,2744.0000 L 912.0000,2744.0000 C 917.0000,2744.0000 920.0000,2748.0000 920.0000,2752.0000 C 920.0000,2757.0000 917.0000,2760.0000 912.0000,2760.0000 L 800.0000,2760.0000 C 796.0000,2760.0000 792.0000,2757.0000 792.0000,2752.0000 C 792.0000,2748.0000 796.0000,2744.0000 800.0000,2744.0000 Z M 992.0000,2744.0000 L 1104.0000,2744.0000 C 1109.0000,2744.0000 1112.0000,2748.0000 1112.0000,2752.0000 C 1112.0000,2757.0000 1109.0000,2760.0000 1104.0000,2760.0000 L 992.0000,2760.0000 C 988.0000,2760.0000 984.0000,2757.0000 984.0000,2752.0000 C 984.0000,2748.0000 988.0000,2744.0000 992.0000,2744.0000 Z M 1184.0000,2744.0000 L 1296.0000,2744.0000 C 1301.0000,2744.0000 1304.0000,2748.0000 1304.0000,2752.0000 C 1304.0000,2757.0000 1301.0000,2760.0000 1296.0000,2760.0000 L 1184.0000,2760.0000 C 1180.0000,2760.0000 1176.0000,2757.0000 1176.0000,2752.0000 C 1176.0000,2748.0000 1180.0000,2744.0000 1184.0000,2744.0000 Z M 1376.0000,2744.0000 L 1488.0000,2744.0000 C 1493.0000,2744.0000 1496.0000,2748.0000 1496.0000,2752.0000 C 1496.0000,2757.0000 1493.0000,2760.0000 1488.0000,2760.0000 L 1376.0000,2760.0000 C 1372.0000,2760.0000 1368.0000,2757.0000 1368.0000,2752.0000 C 1368.0000,2748.0000 1372.0000,2744.0000 1376.0000,2744.0000 Z M 1528.0000,2720.0000 L 1528.0000,2608.0000 C 1528.0000,2604.0000 1532.0000,2600.0000 1536.0000,2600.0000 C 1541.0000,2600.0000 1544.0000,2604.0000 1544.0000,2608.0000 L 1544.0000,2720.0000 C 1544.0000,2725.0000 1541.0000,2728.0000 1536.0000,2728.0000 C 1532.0000,2728.0000 1528.0000,2725.0000 1528.0000,2720.0000 Z M 1528.0000,2528.0000 L 1528.0000,2416.0000 C 1528.0000,2412.0000 1532.0000,2408.0000 1536.0000,2408.0000 C 1541.0000,2408.0000 1544.0000,2412.0000 1544.0000,2416.0000 L 1544.0000,2528.0000 C 1544.0000,2533.0000 1541.0000,2536.0000 1536.0000,2536.0000 C 1532.0000,2536.0000 1528.0000,2533.0000 1528.0000,2528.0000 Z M 1528.0000,2336.0000 L 1528.0000,2224.0000 C 1528.0000,2220.0000 1532.0000,2216.0000 1536.0000,2216.0000 C 1541.0000,2216.0000 1544.0000,2220.0000 1544.0000,2224.0000 L 1544.0000,2336.0000 C 1544.0000,2341.0000 1541.0000,2344.0000 1536.0000,2344.0000 C 1532.0000,2344.0000 1528.0000,2341.0000 1528.0000,2336.0000 Z M 1528.0000,2144.0000 L 1528.0000,2032.0000 C 1528.0000,2028.0000 1532.0000,2024.0000 1536.0000,2024.0000 C 1541.0000,2024.0000 1544.0000,2028.0000 1544.0000,2032.0000 L 1544.0000,2144.0000 C 1544.0000,2149.0000 1541.0000,2152.0000 1536.0000,2152.0000 C 1532.0000,2152.0000 1528.0000,2149.0000 1528.0000,2144.0000 Z M 1528.0000,1952.0000 L 1528.0000,1840.0000 C 1528.0000,1836.0000 1532.0000,1832.0000 1536.0000,1832.0000 C 1541.0000,1832.0000 1544.0000,1836.0000 1544.0000,1840.0000 L 1544.0000,1952.0000 C 1544.0000,1957.0000 1541.0000,1960.0000 1536.0000,1960.0000 C 1532.0000,1960.0000 1528.0000,1957.0000 1528.0000,1952.0000 Z M 1528.0000,1760.0000 L 1528.0000,1648.0000 C 1528.0000,1644.0000 1532.0000,1640.0000 1536.0000,1640.0000 C 1541.0000,1640.0000 1544.0000,1644.0000 1544.0000,1648.0000 L 1544.0000,1760.0000 C 1544.0000,1765.0000 1541.0000,1768.0000 1536.0000,1768.0000 C 1532.0000,1768.0000 1528.0000,1765.0000 1528.0000,1760.0000 Z M 1528.0000,1568.0000 L 1528.0000,1456.0000 C 1528.0000,1452.0000 1532.0000,1448.0000 1536.0000,1448.0000 C 1541.0000,1448.0000 1544.0000,1452.0000 1544.0000,1456.0000 L 1544.0000,1568.0000 C 1544.0000,1573.0000 1541.0000,1576.0000 1536.0000,1576.0000 C 1532.0000,1576.0000 1528.0000,1573.0000 1528.0000,1568.0000 Z M 1528.0000,1376.0000 L 1528.0000,1264.0000 C 1528.0000,1260.0000 1532.0000,1256.0000 1536.0000,1256.0000 C 1541.0000,1256.0000 1544.0000,1260.0000 1544.0000,1264.0000 L 1544.0000,1376.0000 C 1544.0000,1381.0000 1541.0000,1384.0000 1536.0000,1384.0000 C 1532.0000,1384.0000 1528.0000,1381.0000 1528.0000,1376.0000 Z M 1528.0000,1184.0000 L 1528.0000,1072.0000 C 1528.0000,1068.0000 1532.0000,1064.0000 1536.0000,1064.0000 C 1541.0000,1064.0000 1544.0000,1068.0000 1544.0000,1072.0000 L 1544.0000,1184.0000 C 1544.0000,1189.0000 1541.0000,1192.0000 1536.0000,1192.0000 C 1532.0000,1192.0000 1528.0000,1189.0000 1528.0000,1184.0000 Z M 1528.0000,992.0000 L 1528.0000,880.0000 C 1528.0000,876.0000 1532.0000,872.0000 1536.0000,872.0000 C 1541.0000,872.0000 1544.0000,876.0000 1544.0000,880.0000 L 1544.0000,992.0000 C 1544.0000,997.0000 1541.0000,1000.0000 1536.0000,1000.0000 C 1532.0000,1000.0000 1528.0000,997.0000 1528.0000,992.0000 Z M 1528.0000,800.0000 L 1528.0000,688.0000 C 1528.0000,684.0000 1532.0000,680.0000 1536.0000,680.0000 C 1541.0000,680.0000 1544.0000,684.0000 1544.0000,688.0000 L 1544.0000,800.0000 C 1544.0000,805.0000 1541.0000,808.0000 1536.0000,808.0000 C 1532.0000,808.0000 1528.0000,805.0000 1528.0000,800.0000 Z M 1528.0000,608.0000 L 1528.0000,496.0000 C 1528.0000,492.0000 1532.0000,488.0000 1536.0000,488.0000 C 1541.0000,488.0000 1544.0000,492.0000 1544.0000,496.0000 L 1544.0000,608.0000 C 1544.0000,613.0000 1541.0000,616.0000 1536.0000,616.0000 C 1532.0000,616.0000 1528.0000,613.0000 1528.0000,608.0000 Z M 1528.0000,416.0000 L 1528.0000,304.0000 C 1528.0000,300.0000 1532.0000,296.0000 1536.0000,296.0000 C 1541.0000,296.0000 1544.0000,300.0000 1544.0000,304.0000 L 1544.0000,416.0000 C 1544.0000,421.0000 1541.0000,424.0000 1536.0000,424.0000 C 1532.0000,424.0000 1528.0000,421.0000 1528.0000,416.0000 Z M 1528.0000,224.0000 L 1528.0000,112.0000 C 1528.0000,108.0000 1532.0000,104.0000 1536.0000,104.0000 C 1541.0000,104.0000 1544.0000,108.0000 1544.0000,112.0000 L 1544.0000,224.0000 C 1544.0000,229.0000 1541.0000,232.0000 1536.0000,232.0000 C 1532.0000,232.0000 1528.0000,229.0000 1528.0000,224.0000 Z M 1536.0000,40.0000 L 1424.0000,40.0000 C 1420.0000,40.0000 1416.0000,37.0000 1416.0000,32.0000 C 1416.0000,28.0000 1420.0000,24.0000 1424.0000,24.0000 L 1536.0000,24.0000 C 1541.0000,24.0000 1544.0000,28.0000 1544.0000,32.0000 C 1544.0000,37.0000 1541.0000,40.0000 1536.0000,40.0000 Z M 1344.0000,40.0000 L 1232.0000,40.0000 C 1228.0000,40.0000 1224.0000,37.0000 1224.0000,32.0000 C 1224.0000,28.0000 1228.0000,24.0000 1232.0000,24.0000 L 1344.0000,24.0000 C 1349.0000,24.0000 1352.0000,28.0000 1352.0000,32.0000 C 1352.0000,37.0000 1349.0000,40.0000 1344.0000,40.0000 Z M 1152.0000,40.0000 L 1040.0000,40.0000 C 1036.0000,40.0000 1032.0000,37.0000 1032.0000,32.0000 C 1032.0000,28.0000 1036.0000,24.0000 1040.0000,24.0000 L 1152.0000,24.0000 C 1157.0000,24.0000 1160.0000,28.0000 1160.0000,32.0000 C 1160.0000,37.0000 1157.0000,40.0000 1152.0000,40.0000 Z M 960.0000,40.0000 L 848.0000,40.0000 C 844.0000,40.0000 840.0000,37.0000 840.0000,32.0000 C 840.0000,28.0000 844.0000,24.0000 848.0000,24.0000 L 960.0000,24.0000 C 965.0000,24.0000 968.0000,28.0000 968.0000,32.0000 C 968.0000,37.0000 965.0000,40.0000 960.0000,40.0000 Z M 768.0000,40.0000 L 656.0000,40.0000 C 652.0000,40.0000 648.0000,37.0000 648.0000,32.0000 C 648.0000,28.0000 652.0000,24.0000 656.0000,24.0000 L 768.0000,24.0000 C 773.0000,24.0000 776.0000,28.0000 776.0000,32.0000 C 776.0000,37.0000 773.0000,40.0000 768.0000,40.0000 Z M 576.0000,40.0000 L 464.0000,40.0000 C 460.0000,40.0000 456.0000,37.0000 456.0000,32.0000 C 456.0000,28.0000 460.0000,24.0000 464.0000,24.0000 L 576.0000,24.0000 C 581.0000,24.0000 584.0000,28.0000 584.0000,32.0000 C 584.0000,37.0000 581.0000,40.0000 576.0000,40.0000 Z M 384.0000,40.0000 L 272.0000,40.0000 C 268.0000,40.0000 264.0000,37.0000 264.0000,32.0000 C 264.0000,28.0000 268.0000,24.0000 272.0000,24.0000 L 384.0000,24.0000 C 389.0000,24.0000 392.0000,28.0000 392.0000,32.0000 C 392.0000,37.0000 389.0000,40.0000 384.0000,40.0000 Z M 192.0000,40.0000 L 80.0000,40.0000 C 76.0000,40.0000 72.0000,37.0000 72.0000,32.0000 C 72.0000,28.0000 76.0000,24.0000 80.0000,24.0000 L 192.0000,24.0000 C 197.0000,24.0000 200.0000,28.0000 200.0000,32.0000 C 200.0000,37.0000 197.0000,40.0000 192.0000,40.0000 Z M 40.0000,64.0000 L 40.0000,176.0000 C 40.0000,181.0000 37.0000,184.0000 32.0000,184.0000 C 28.0000,184.0000 24.0000,181.0000 24.0000,176.0000 L 24.0000,64.0000 C 24.0000,60.0000 28.0000,56.0000 32.0000,56.0000 C 37.0000,56.0000 40.0000,60.0000 40.0000,64.0000 Z M 40.0000,256.0000 L 40.0000,368.0000 C 40.0000,373.0000 37.0000,376.0000 32.0000,376.0000 C 28.0000,376.0000 24.0000,373.0000 24.0000,368.0000 L 24.0000,256.0000 C 24.0000,252.0000 28.0000,248.0000 32.0000,248.0000 C 37.0000,248.0000 40.0000,252.0000 40.0000,256.0000 Z M 40.0000,448.0000 L 40.0000,560.0000 C 40.0000,565.0000 37.0000,568.0000 32.0000,568.0000 C 28.0000,568.0000 24.0000,565.0000 24.0000,560.0000 L 24.0000,448.0000 C 24.0000,444.0000 28.0000,440.0000 32.0000,440.0000 C 37.0000,440.0000 40.0000,444.0000 40.0000,448.0000 Z M 40.0000,640.0000 L 40.0000,752.0000 C 40.0000,757.0000 37.0000,760.0000 32.0000,760.0000 C 28.0000,760.0000 24.0000,757.0000 24.0000,752.0000 L 24.0000,640.0000 C 24.0000,636.0000 28.0000,632.0000 32.0000,632.0000 C 37.0000,632.0000 40.0000,636.0000 40.0000,640.0000 Z M 40.0000,832.0000 L 40.0000,944.0000 C 40.0000,949.0000 37.0000,952.0000 32.0000,952.0000 C 28.0000,952.0000 24.0000,949.0000 24.0000,944.0000 L 24.0000,832.0000 C 24.0000,828.0000 28.0000,824.0000 32.0000,824.0000 C 37.0000,824.0000 40.0000,828.0000 40.0000,832.0000 Z M 40.0000,1024.0000 L 40.0000,1136.0000 C 40.0000,1141.0000 37.0000,1144.0000 32.0000,1144.0000 C 28.0000,1144.0000 24.0000,1141.0000 24.0000,1136.0000 L 24.0000,1024.0000 C 24.0000,1020.0000 28.0000,1016.0000 32.0000,1016.0000 C 37.0000,1016.0000 40.0000,1020.0000 40.0000,1024.0000 Z M 40.0000,1216.0000 L 40.0000,1328.0000 C 40.0000,1333.0000 37.0000,1336.0000 32.0000,1336.0000 C 28.0000,1336.0000 24.0000,1333.0000 24.0000,1328.0000 L 24.0000,1216.0000 C 24.0000,1212.0000 28.0000,1208.0000 32.0000,1208.0000 C 37.0000,1208.0000 40.0000,1212.0000 40.0000,1216.0000 Z M 40.0000,1408.0000 L 40.0000,1520.0000 C 40.0000,1525.0000 37.0000,1528.0000 32.0000,1528.0000 C 28.0000,1528.0000 24.0000,1525.0000 24.0000,1520.0000 L 24.0000,1408.0000 C 24.0000,1404.0000 28.0000,1400.0000 32.0000,1400.0000 C 37.0000,1400.0000 40.0000,1404.0000 40.0000,1408.0000 Z M 40.0000,1600.0000 L 40.0000,1712.0000 C 40.0000,1717.0000 37.0000,1720.0000 32.0000,1720.0000 C 28.0000,1720.0000 24.0000,1717.0000 24.0000,1712.0000 L 24.0000,1600.0000 C 24.0000,1596.0000 28.0000,1592.0000 32.0000,1592.0000 C 37.0000,1592.0000 40.0000,1596.0000 40.0000,1600.0000 Z M 40.0000,1792.0000 L 40.0000,1904.0000 C 40.0000,1909.0000 37.0000,1912.0000 32.0000,1912.0000 C 28.0000,1912.0000 24.0000,1909.0000 24.0000,1904.0000 L 24.0000,1792.0000 C 24.0000,1788.0000 28.0000,1784.0000 32.0000,1784.0000 C 37.0000,1784.0000 40.0000,1788.0000 40.0000,1792.0000 Z M 40.0000,1984.0000 L 40.0000,2096.0000 C 40.0000,2101.0000 37.0000,2104.0000 32.0000,2104.0000 C 28.0000,2104.0000 24.0000,2101.0000 24.0000,2096.0000 L 24.0000,1984.0000 C 24.0000,1980.0000 28.0000,1976.0000 32.0000,1976.0000 C 37.0000,1976.0000 40.0000,1980.0000 40.0000,1984.0000 Z M 40.0000,2176.0000 L 40.0000,2288.0000 C 40.0000,2293.0000 37.0000,2296.0000 32.0000,2296.0000 C 28.0000,2296.0000 24.0000,2293.0000 24.0000,2288.0000 L 24.0000,2176.0000 C 24.0000,2172.0000 28.0000,2168.0000 32.0000,2168.0000 C 37.0000,2168.0000 40.0000,2172.0000 40.0000,2176.0000 Z M 40.0000,2368.0000 L 40.0000,2480.0000 C 40.0000,2485.0000 37.0000,2488.0000 32.0000,2488.0000 C 28.0000,2488.0000 24.0000,2485.0000 24.0000,2480.0000 L 24.0000,2368.0000 C 24.0000,2364.0000 28.0000,2360.0000 32.0000,2360.0000 C 37.0000,2360.0000 40.0000,2364.0000 40.0000,2368.0000 Z M 40.0000,2560.0000 L 40.0000,2672.0000 C 40.0000,2677.0000 37.0000,2680.0000 32.0000,2680.0000 C 28.0000,2680.0000 24.0000,2677.0000 24.0000,2672.0000 L 24.0000,2560.0000 C 24.0000,2556.0000 28.0000,2552.0000 32.0000,2552.0000 C 37.0000,2552.0000 40.0000,2556.0000 40.0000,2560.0000 Z "  fill="#000000" stroke="#000000" stroke-width="16.0000"  stroke-linecap="butt"  stroke-linejoin="bevel" />
</g>
<g transform="matrix(1.0000 0.0000 0.0000 1.0000 0.0000 0.0000)">
<text font-family="Arial" fill="#000000" style ="white-space:pre;" font-weight="400" text-anchor="start" x="7.0000" y="17.0000" font-size="11.0000" ><![CDATA[UE]]></text>
<text font-family="Arial" fill="#000000" style ="white-space:pre;" font-weight="400" text-anchor="start" x="25.0000" y="17.0000" font-size="11.0000" ><![CDATA[A]]></text>
</g>
<g transform="matrix(0.0625 0.0000 0.0000 0.0625 0.0000 0.0000)">
<path d="M 176.0000,2592.0000 L 1392.0000,2592.0000 L 1392.0000,2304.0000 L 176.0000,2304.0000 L 176.0000,2592.0000 " stroke="#000000" stroke-width="5.0000"  stroke-linecap="round"  stroke-linejoin="round" fill="none" />
</g>
<g transform="matrix(1.0000 0.0000 0.0000 1.0000 0.0000 0.0000)">
<text font-family="Arial" fill="#000000" style ="white-space:pre;" font-weight="400" text-anchor="start" x="38.0000" y="156.0000" font-size="11.0000" ><![CDATA[PHY]]></text>
</g>
<g transform="matrix(0.0625 0.0000 0.0000 0.0625 0.0000 0.0000)">
<path d="M 176.0000,2144.0000 L 1392.0000,2144.0000 L 1392.0000,1840.0000 L 176.0000,1840.0000 L 176.0000,2144.0000 " stroke="#000000" stroke-width="5.0000"  stroke-linecap="round"  stroke-linejoin="round" fill="none" />
</g>
<g transform="matrix(1.0000 0.0000 0.0000 1.0000 0.0000 0.0000)">
<text font-family="Arial" fill="#000000" style ="white-space:pre;" font-weight="400" text-anchor="start" x="37.0000" y="128.0000" font-size="11.0000" ><![CDATA[MAC]]></text>
</g>
<g transform="matrix(0.0625 0.0000 0.0000 0.0625 0.0000 0.0000)">
<path d="M 176.0000,1696.0000 L 1392.0000,1696.0000 L 1392.0000,1392.0000 L 176.0000,1392.0000 L 176.0000,1696.0000 " stroke="#000000" stroke-width="5.0000"  stroke-linecap="round"  stroke-linejoin="round" fill="none" />
</g>
<g transform="matrix(1.0000 0.0000 0.0000 1.0000 0.0000 0.0000)">
<text font-family="Arial" fill="#000000" style ="white-space:pre;" font-weight="400" text-anchor="start" x="38.0000" y="100.0000" font-size="11.0000" ><![CDATA[RLC]]></text>
</g>
<g transform="matrix(0.0625 0.0000 0.0000 0.0625 0.0000 0.0000)">
<path d="M 2448.0000,2144.0000 L 3664.0000,2144.0000 L 3664.0000,1840.0000 L 2448.0000,1840.0000 L 2448.0000,2144.0000 " stroke="#000000" stroke-width="5.0000"  stroke-linecap="round"  stroke-linejoin="round" fill="none" />
</g>
<g transform="matrix(1.0000 0.0000 0.0000 1.0000 0.0000 0.0000)">
<text font-family="Arial" fill="#000000" style ="white-space:pre;" font-weight="400" text-anchor="start" x="179.0000" y="128.0000" font-size="11.0000" ><![CDATA[MAC]]></text>
</g>
<g transform="matrix(0.0625 0.0000 0.0000 0.0625 0.0000 0.0000)">
<path d="M 2448.0000,1232.0000 L 3664.0000,1232.0000 L 3664.0000,944.0000 L 2448.0000,944.0000 L 2448.0000,1232.0000 " stroke="#000000" stroke-width="5.0000"  stroke-linecap="round"  stroke-linejoin="round" fill="none" />
</g>
<g transform="matrix(1.0000 0.0000 0.0000 1.0000 0.0000 0.0000)">
<text font-family="Arial" fill="#000000" style ="white-space:pre;" font-weight="400" text-anchor="start" x="176.0000" y="71.0000" font-size="11.0000" ><![CDATA[PDCP]]></text>
</g>
<g transform="matrix(0.0625 0.0000 0.0000 0.0625 0.0000 0.0000)">
<path d="M 1456.0000,1088.0000 L 2384.0000,1088.0000 " stroke="#000000" stroke-width="15.0000"  stroke-linecap="round"  stroke-linejoin="round" fill="none" />
</g>
<g transform="matrix(1.0000 0.0000 0.0000 1.0000 0.0000 0.0000)">
</g>
<g transform="matrix(0.0625 0.0000 0.0000 0.0625 0.0000 0.0000)">
<path d="M 1392.0000,1088.0000 L 1488.0000,1040.0000 L 1482.0000,1042.0000 C 1468.0000,1071.0000 1468.0000,1105.0000 1482.0000,1134.0000 L 1488.0000,1136.0000 L 1392.0000,1088.0000 Z "  fill="#000000" stroke="none" />
</g>
<g transform="matrix(1.0000 0.0000 0.0000 1.0000 0.0000 0.0000)">
</g>
<g transform="matrix(0.0625 0.0000 0.0000 0.0625 0.0000 0.0000)">
<path d="M 2448.0000,1088.0000 L 2352.0000,1136.0000 L 2356.0000,1134.0000 C 2371.0000,1105.0000 2371.0000,1071.0000 2356.0000,1042.0000 L 2352.0000,1040.0000 L 2448.0000,1088.0000 Z "  fill="#000000" stroke="none" />
</g>
<g transform="matrix(1.0000 0.0000 0.0000 1.0000 0.0000 0.0000)">
</g>
<g transform="matrix(0.0625 0.0000 0.0000 0.0625 0.0000 0.0000)">
<path d="M 1456.0000,2000.0000 L 2384.0000,2000.0000 " stroke="#000000" stroke-width="15.0000"  stroke-linecap="round"  stroke-linejoin="round" fill="none" />
</g>
<g transform="matrix(1.0000 0.0000 0.0000 1.0000 0.0000 0.0000)">
</g>
<g transform="matrix(0.0625 0.0000 0.0000 0.0625 0.0000 0.0000)">
<path d="M 1392.0000,2000.0000 L 1488.0000,1952.0000 L 1482.0000,1949.0000 C 1468.0000,1978.0000 1468.0000,2012.0000 1482.0000,2041.0000 L 1488.0000,2048.0000 L 1392.0000,2000.0000 Z "  fill="#000000" stroke="none" />
</g>
<g transform="matrix(1.0000 0.0000 0.0000 1.0000 0.0000 0.0000)">
</g>
<g transform="matrix(0.0625 0.0000 0.0000 0.0625 0.0000 0.0000)">
<path d="M 2448.0000,2000.0000 L 2352.0000,2048.0000 L 2356.0000,2041.0000 C 2371.0000,2012.0000 2371.0000,1978.0000 2356.0000,1949.0000 L 2352.0000,1952.0000 L 2448.0000,2000.0000 Z "  fill="#000000" stroke="none" />
</g>
<g transform="matrix(1.0000 0.0000 0.0000 1.0000 0.0000 0.0000)">
</g>
<g transform="matrix(0.0625 0.0000 0.0000 0.0625 0.0000 0.0000)">
<path d="M 1456.0000,2448.0000 L 2384.0000,2448.0000 " stroke="#000000" stroke-width="15.0000"  stroke-linecap="round"  stroke-linejoin="round" fill="none" />
</g>
<g transform="matrix(1.0000 0.0000 0.0000 1.0000 0.0000 0.0000)">
</g>
<g transform="matrix(0.0625 0.0000 0.0000 0.0625 0.0000 0.0000)">
<path d="M 1392.0000,2448.0000 L 1488.0000,2400.0000 L 1482.0000,2402.0000 C 1468.0000,2431.0000 1468.0000,2466.0000 1482.0000,2495.0000 L 1488.0000,2496.0000 L 1392.0000,2448.0000 Z "  fill="#000000" stroke="none" />
</g>
<g transform="matrix(1.0000 0.0000 0.0000 1.0000 0.0000 0.0000)">
</g>
<g transform="matrix(0.0625 0.0000 0.0000 0.0625 0.0000 0.0000)">
<path d="M 2448.0000,2448.0000 L 2352.0000,2496.0000 L 2356.0000,2495.0000 C 2371.0000,2466.0000 2371.0000,2431.0000 2356.0000,2402.0000 L 2352.0000,2400.0000 L 2448.0000,2448.0000 Z "  fill="#000000" stroke="none" />
</g>
<g transform="matrix(1.0000 0.0000 0.0000 1.0000 0.0000 0.0000)">
</g>
<g transform="matrix(0.0625 0.0000 0.0000 0.0625 0.0000 0.0000)">
<path d="M 176.0000,1232.0000 L 1392.0000,1232.0000 L 1392.0000,944.0000 L 176.0000,944.0000 L 176.0000,1232.0000 " stroke="#000000" stroke-width="5.0000"  stroke-linecap="round"  stroke-linejoin="round" fill="none" />
</g>
<g transform="matrix(1.0000 0.0000 0.0000 1.0000 0.0000 0.0000)">
<text font-family="Arial" fill="#000000" style ="white-space:pre;" font-weight="400" text-anchor="start" x="34.0000" y="71.0000" font-size="11.0000" ><![CDATA[PDCP]]></text>
</g>
<g transform="matrix(0.0625 0.0000 0.0000 0.0625 0.0000 0.0000)">
<path d="M 2448.0000,1696.0000 L 3664.0000,1696.0000 L 3664.0000,1392.0000 L 2448.0000,1392.0000 L 2448.0000,1696.0000 " stroke="#000000" stroke-width="5.0000"  stroke-linecap="round"  stroke-linejoin="round" fill="none" />
</g>
<g transform="matrix(1.0000 0.0000 0.0000 1.0000 0.0000 0.0000)">
<text font-family="Arial" fill="#000000" style ="white-space:pre;" font-weight="400" text-anchor="start" x="180.0000" y="100.0000" font-size="11.0000" ><![CDATA[RLC]]></text>
</g>
<g transform="matrix(0.0625 0.0000 0.0000 0.0625 0.0000 0.0000)">
<path d="M 1456.0000,1536.0000 L 2384.0000,1536.0000 " stroke="#000000" stroke-width="15.0000"  stroke-linecap="round"  stroke-linejoin="round" fill="none" />
</g>
<g transform="matrix(1.0000 0.0000 0.0000 1.0000 0.0000 0.0000)">
</g>
<g transform="matrix(0.0625 0.0000 0.0000 0.0625 0.0000 0.0000)">
<path d="M 1392.0000,1536.0000 L 1488.0000,1488.0000 L 1482.0000,1495.0000 C 1468.0000,1524.0000 1468.0000,1558.0000 1482.0000,1587.0000 L 1488.0000,1584.0000 L 1392.0000,1536.0000 Z "  fill="#000000" stroke="none" />
</g>
<g transform="matrix(1.0000 0.0000 0.0000 1.0000 0.0000 0.0000)">
</g>
<g transform="matrix(0.0625 0.0000 0.0000 0.0625 0.0000 0.0000)">
<path d="M 2448.0000,1536.0000 L 2352.0000,1584.0000 L 2356.0000,1587.0000 C 2371.0000,1558.0000 2371.0000,1524.0000 2356.0000,1495.0000 L 2352.0000,1488.0000 L 2448.0000,1536.0000 Z "  fill="#000000" stroke="none" />
</g>
<g transform="matrix(1.0000 0.0000 0.0000 1.0000 0.0000 0.0000)">
</g>
<g transform="matrix(0.0625 0.0000 0.0000 0.0625 0.0000 0.0000)">
<path d="M 2448.0000,784.0000 L 3664.0000,784.0000 L 3664.0000,320.0000 L 2448.0000,320.0000 L 2448.0000,784.0000 " stroke="#000000" stroke-width="5.0000"  stroke-linecap="round"  stroke-linejoin="round" fill="none" />
</g>
<g transform="matrix(1.0000 0.0000 0.0000 1.0000 0.0000 0.0000)">
<text font-family="Arial" fill="#000000" style ="white-space:pre;" font-weight="400" text-anchor="start" x="167.0000" y="38.0000" font-size="11.0000" ><![CDATA[Discovery]]></text>
</g>
<g transform="matrix(0.0625 0.0000 0.0000 0.0625 0.0000 0.0000)">
<path d="M 1456.0000,560.0000 L 2384.0000,560.0000 " stroke="#000000" stroke-width="15.0000"  stroke-linecap="round"  stroke-linejoin="round" fill="none" />
</g>
<g transform="matrix(1.0000 0.0000 0.0000 1.0000 0.0000 0.0000)">
</g>
<g transform="matrix(0.0625 0.0000 0.0000 0.0625 0.0000 0.0000)">
<path d="M 1392.0000,560.0000 L 1488.0000,512.0000 L 1482.0000,508.0000 C 1468.0000,537.0000 1468.0000,572.0000 1482.0000,601.0000 L 1488.0000,608.0000 L 1392.0000,560.0000 Z "  fill="#000000" stroke="none" />
</g>
<g transform="matrix(1.0000 0.0000 0.0000 1.0000 0.0000 0.0000)">
</g>
<g transform="matrix(0.0625 0.0000 0.0000 0.0625 0.0000 0.0000)">
<path d="M 2448.0000,560.0000 L 2352.0000,608.0000 L 2356.0000,601.0000 C 2371.0000,572.0000 2371.0000,537.0000 2356.0000,508.0000 L 2352.0000,512.0000 L 2448.0000,560.0000 Z "  fill="#000000" stroke="none" />
</g>
<g transform="matrix(1.0000 0.0000 0.0000 1.0000 0.0000 0.0000)">
</g>
<g transform="matrix(0.0625 0.0000 0.0000 0.0625 0.0000 0.0000)">
<path d="M 176.0000,784.0000 L 1392.0000,784.0000 L 1392.0000,320.0000 L 176.0000,320.0000 L 176.0000,784.0000 " stroke="#000000" stroke-width="5.0000"  stroke-linecap="round"  stroke-linejoin="round" fill="none" />
</g>
<g transform="matrix(1.0000 0.0000 0.0000 1.0000 0.0000 0.0000)">
<text font-family="Arial" fill="#000000" style ="white-space:pre;" font-weight="400" text-anchor="start" x="26.0000" y="38.0000" font-size="11.0000" ><![CDATA[Discovery]]></text>
</g>
</g>
</svg>
