<?xml version="1.0"  encoding="UTF-8" standalone="no"?>
<svg version="1.1" xmlns="http://www.w3.org/2000/svg" xmlns:xlink="http://www.w3.org/1999/xlink" width="745.0000" height="461.0000">
<g transform="translate(-0.0000, -15.0000)">
<g transform="matrix(1.0000 0.0000 0.0000 1.0000 43.9087 55.2870)">
<text font-family="Calibri" fill="#000000" style ="white-space:pre;" font-weight="400" text-anchor="start" x="0.0000" y="0.0000" font-size="24.0000" ><![CDATA[Source UE]]></text>
</g>
<g transform="matrix(1.0000 0.0000 0.0000 1.0000 604.0228 55.2894)">
<text font-family="Calibri" fill="#000000" style ="white-space:pre;" font-weight="400" text-anchor="start" x="0.0000" y="0.0000" font-size="24.0000" ><![CDATA[Destination ]]></text>
</g>
<g transform="matrix(1.0000 0.0000 0.0000 1.0000 646.6823 84.0487)">
<text font-family="Calibri" fill="#000000" style ="white-space:pre;" font-weight="400" text-anchor="start" x="0.0000" y="0.0000" font-size="24.0000" ><![CDATA[UE]]></text>
</g>
<g transform="matrix(0.0625 0.0000 0.0000 0.0625 0.0000 0.0000)">
<path d="M 3353.0000,3823.0000 L 3353.0000,6973.0000 " stroke="#000000" stroke-width="10.0000"  stroke-linecap="round"  stroke-linejoin="round" fill="none" />
</g>
<g transform="matrix(1.0000 0.0000 0.0000 1.0000 0.0000 0.0000)">
</g>
<g transform="matrix(1.0000 0.0000 0.0000 1.0000 168.5408 466.5194)">
<text font-family="Calibri" fill="#000000" style ="white-space:pre;" font-weight="400" text-anchor="start" x="0.0000" y="0.0000" font-size="24.0000" ><![CDATA[RLC Channel]]></text>
</g>
<g transform="matrix(0.0625 0.0000 0.0000 0.0625 0.0000 0.0000)">
<path d="M 8820.0000,3889.0000 L 8820.0000,7039.0000 " stroke="#000000" stroke-width="10.0000"  stroke-linecap="round"  stroke-linejoin="round" fill="none" />
</g>
<g transform="matrix(1.0000 0.0000 0.0000 1.0000 0.0000 0.0000)">
</g>
<g transform="matrix(1.0000 0.0000 0.0000 1.0000 501.9944 471.0351)">
<text font-family="Calibri" fill="#000000" style ="white-space:pre;" font-weight="400" text-anchor="start" x="0.0000" y="0.0000" font-size="24.0000" ><![CDATA[RLC Channel]]></text>
</g>
<g transform="matrix(0.0625 0.0000 0.0000 0.0625 0.0000 0.0000)">
<path d="M 631.0000,4607.0000 C 631.0000,4554.0000 675.0000,4511.0000 727.0000,4511.0000 L 2157.0000,4511.0000 C 2210.0000,4511.0000 2253.0000,4554.0000 2253.0000,4607.0000 L 2253.0000,4990.0000 C 2253.0000,5043.0000 2210.0000,5086.0000 2157.0000,5086.0000 L 727.0000,5086.0000 C 675.0000,5086.0000 631.0000,5043.0000 631.0000,4990.0000 L 631.0000,4607.0000 Z " stroke="#7F7F7F" stroke-width="33.0000"  stroke-linecap="round"  stroke-linejoin="round" fill="none" />
</g>
<g transform="matrix(1.0000 0.0000 0.0000 1.0000 0.0000 0.0000)">
</g>
<g transform="matrix(1.0000 0.0000 0.0000 1.0000 50.2859 307.5803)">
<text font-family="Calibri" fill="#000000" style ="white-space:pre;" font-weight="400" text-anchor="start" x="0.0000" y="0.0000" font-size="24.0000" ><![CDATA[PC5]]></text>
</g>
<g transform="matrix(1.0000 0.0000 0.0000 1.0000 87.6453 307.5803)">
<text font-family="Calibri" fill="#000000" style ="white-space:pre;" font-weight="400" text-anchor="start" x="0.0000" y="0.0000" font-size="24.0000" ><![CDATA[-]]></text>
</g>
<g transform="matrix(1.0000 0.0000 0.0000 1.0000 94.9930 307.5803)">
<text font-family="Calibri" fill="#000000" style ="white-space:pre;" font-weight="400" text-anchor="start" x="0.0000" y="0.0000" font-size="24.0000" ><![CDATA[RLC]]></text>
</g>
<g transform="matrix(0.0625 0.0000 0.0000 0.0625 0.0000 0.0000)">
<path d="M 631.0000,5404.0000 C 631.0000,5352.0000 675.0000,5309.0000 727.0000,5309.0000 L 2157.0000,5309.0000 C 2210.0000,5309.0000 2253.0000,5352.0000 2253.0000,5404.0000 L 2253.0000,5788.0000 C 2253.0000,5841.0000 2210.0000,5884.0000 2157.0000,5884.0000 L 727.0000,5884.0000 C 675.0000,5884.0000 631.0000,5841.0000 631.0000,5788.0000 L 631.0000,5404.0000 Z "  fill="#FFFFFF" stroke="none" />
</g>
<g transform="matrix(1.0000 0.0000 0.0000 1.0000 0.0000 0.0000)">
</g>
<g transform="matrix(1.0000 0.0000 0.0000 1.0000 44.6433 357.4288)">
<text font-family="Calibri" fill="#000000" style ="white-space:pre;" font-weight="400" text-anchor="start" x="0.0000" y="0.0000" font-size="24.0000" ><![CDATA[PC5]]></text>
</g>
<g transform="matrix(1.0000 0.0000 0.0000 1.0000 82.0027 357.4288)">
<text font-family="Calibri" fill="#000000" style ="white-space:pre;" font-weight="400" text-anchor="start" x="0.0000" y="0.0000" font-size="24.0000" ><![CDATA[-]]></text>
</g>
<g transform="matrix(1.0000 0.0000 0.0000 1.0000 89.3504 357.4288)">
<text font-family="Calibri" fill="#000000" style ="white-space:pre;" font-weight="400" text-anchor="start" x="0.0000" y="0.0000" font-size="24.0000" ><![CDATA[MAC]]></text>
</g>
<g transform="matrix(0.0625 0.0000 0.0000 0.0625 0.0000 0.0000)">
<path d="M 631.0000,5404.0000 C 631.0000,5352.0000 675.0000,5309.0000 727.0000,5309.0000 L 2157.0000,5309.0000 C 2210.0000,5309.0000 2253.0000,5352.0000 2253.0000,5404.0000 L 2253.0000,5788.0000 C 2253.0000,5841.0000 2210.0000,5884.0000 2157.0000,5884.0000 L 727.0000,5884.0000 C 675.0000,5884.0000 631.0000,5841.0000 631.0000,5788.0000 L 631.0000,5404.0000 Z " stroke="#7F7F7F" stroke-width="33.0000"  stroke-linecap="round"  stroke-linejoin="round" fill="none" />
</g>
<g transform="matrix(1.0000 0.0000 0.0000 1.0000 0.0000 0.0000)">
</g>
<g transform="matrix(0.0625 0.0000 0.0000 0.0625 0.0000 0.0000)">
<path d="M 631.0000,6202.0000 C 631.0000,6149.0000 675.0000,6106.0000 727.0000,6106.0000 L 2157.0000,6106.0000 C 2210.0000,6106.0000 2253.0000,6149.0000 2253.0000,6202.0000 L 2253.0000,6585.0000 C 2253.0000,6638.0000 2210.0000,6681.0000 2157.0000,6681.0000 L 727.0000,6681.0000 C 675.0000,6681.0000 631.0000,6638.0000 631.0000,6585.0000 L 631.0000,6202.0000 Z "  fill="#FFFFFF" stroke="none" />
</g>
<g transform="matrix(1.0000 0.0000 0.0000 1.0000 0.0000 0.0000)">
</g>
<g transform="matrix(1.0000 0.0000 0.0000 1.0000 48.7215 407.2773)">
<text font-family="Calibri" fill="#000000" style ="white-space:pre;" font-weight="400" text-anchor="start" x="0.0000" y="0.0000" font-size="24.0000" ><![CDATA[PC5]]></text>
</g>
<g transform="matrix(1.0000 0.0000 0.0000 1.0000 86.0808 407.2773)">
<text font-family="Calibri" fill="#000000" style ="white-space:pre;" font-weight="400" text-anchor="start" x="0.0000" y="0.0000" font-size="24.0000" ><![CDATA[-]]></text>
</g>
<g transform="matrix(1.0000 0.0000 0.0000 1.0000 93.4285 407.2773)">
<text font-family="Calibri" fill="#000000" style ="white-space:pre;" font-weight="400" text-anchor="start" x="0.0000" y="0.0000" font-size="24.0000" ><![CDATA[PHY]]></text>
</g>
<g transform="matrix(0.0625 0.0000 0.0000 0.0625 0.0000 0.0000)">
<path d="M 631.0000,6202.0000 C 631.0000,6149.0000 675.0000,6106.0000 727.0000,6106.0000 L 2157.0000,6106.0000 C 2210.0000,6106.0000 2253.0000,6149.0000 2253.0000,6202.0000 L 2253.0000,6585.0000 C 2253.0000,6638.0000 2210.0000,6681.0000 2157.0000,6681.0000 L 727.0000,6681.0000 C 675.0000,6681.0000 631.0000,6638.0000 631.0000,6585.0000 L 631.0000,6202.0000 Z " stroke="#7F7F7F" stroke-width="33.0000"  stroke-linecap="round"  stroke-linejoin="round" fill="none" />
</g>
<g transform="matrix(1.0000 0.0000 0.0000 1.0000 0.0000 0.0000)">
</g>
<g transform="matrix(0.0625 0.0000 0.0000 0.0625 0.0000 0.0000)">
<path d="M 4260.0000,4607.0000 C 4260.0000,4554.0000 4303.0000,4511.0000 4356.0000,4511.0000 L 5785.0000,4511.0000 C 5838.0000,4511.0000 5881.0000,4554.0000 5881.0000,4607.0000 L 5881.0000,4990.0000 C 5881.0000,5043.0000 5838.0000,5086.0000 5785.0000,5086.0000 L 4356.0000,5086.0000 C 4303.0000,5086.0000 4260.0000,5043.0000 4260.0000,4990.0000 L 4260.0000,4607.0000 Z " stroke="#7F7F7F" stroke-width="33.0000"  stroke-linecap="round"  stroke-linejoin="round" fill="none" />
</g>
<g transform="matrix(1.0000 0.0000 0.0000 1.0000 0.0000 0.0000)">
</g>
<g transform="matrix(1.0000 0.0000 0.0000 1.0000 277.0576 307.5803)">
<text font-family="Calibri" fill="#000000" style ="white-space:pre;" font-weight="400" text-anchor="start" x="0.0000" y="0.0000" font-size="24.0000" ><![CDATA[PC5]]></text>
</g>
<g transform="matrix(1.0000 0.0000 0.0000 1.0000 314.4169 307.5803)">
<text font-family="Calibri" fill="#000000" style ="white-space:pre;" font-weight="400" text-anchor="start" x="0.0000" y="0.0000" font-size="24.0000" ><![CDATA[-]]></text>
</g>
<g transform="matrix(1.0000 0.0000 0.0000 1.0000 321.7646 307.5803)">
<text font-family="Calibri" fill="#000000" style ="white-space:pre;" font-weight="400" text-anchor="start" x="0.0000" y="0.0000" font-size="24.0000" ><![CDATA[RLC]]></text>
</g>
<g transform="matrix(0.0625 0.0000 0.0000 0.0625 0.0000 0.0000)">
<path d="M 4260.0000,5404.0000 C 4260.0000,5352.0000 4303.0000,5309.0000 4356.0000,5309.0000 L 5785.0000,5309.0000 C 5838.0000,5309.0000 5881.0000,5352.0000 5881.0000,5404.0000 L 5881.0000,5788.0000 C 5881.0000,5841.0000 5838.0000,5884.0000 5785.0000,5884.0000 L 4356.0000,5884.0000 C 4303.0000,5884.0000 4260.0000,5841.0000 4260.0000,5788.0000 L 4260.0000,5404.0000 Z "  fill="#FFFFFF" stroke="none" />
</g>
<g transform="matrix(1.0000 0.0000 0.0000 1.0000 0.0000 0.0000)">
</g>
<g transform="matrix(1.0000 0.0000 0.0000 1.0000 271.4150 357.4288)">
<text font-family="Calibri" fill="#000000" style ="white-space:pre;" font-weight="400" text-anchor="start" x="0.0000" y="0.0000" font-size="24.0000" ><![CDATA[PC5]]></text>
</g>
<g transform="matrix(1.0000 0.0000 0.0000 1.0000 308.7744 357.4288)">
<text font-family="Calibri" fill="#000000" style ="white-space:pre;" font-weight="400" text-anchor="start" x="0.0000" y="0.0000" font-size="24.0000" ><![CDATA[-]]></text>
</g>
<g transform="matrix(1.0000 0.0000 0.0000 1.0000 316.1220 357.4288)">
<text font-family="Calibri" fill="#000000" style ="white-space:pre;" font-weight="400" text-anchor="start" x="0.0000" y="0.0000" font-size="24.0000" ><![CDATA[MAC]]></text>
</g>
<g transform="matrix(0.0625 0.0000 0.0000 0.0625 0.0000 0.0000)">
<path d="M 4260.0000,5404.0000 C 4260.0000,5352.0000 4303.0000,5309.0000 4356.0000,5309.0000 L 5785.0000,5309.0000 C 5838.0000,5309.0000 5881.0000,5352.0000 5881.0000,5404.0000 L 5881.0000,5788.0000 C 5881.0000,5841.0000 5838.0000,5884.0000 5785.0000,5884.0000 L 4356.0000,5884.0000 C 4303.0000,5884.0000 4260.0000,5841.0000 4260.0000,5788.0000 L 4260.0000,5404.0000 Z " stroke="#7F7F7F" stroke-width="33.0000"  stroke-linecap="round"  stroke-linejoin="round" fill="none" />
</g>
<g transform="matrix(1.0000 0.0000 0.0000 1.0000 0.0000 0.0000)">
</g>
<g transform="matrix(0.0625 0.0000 0.0000 0.0625 0.0000 0.0000)">
<path d="M 4260.0000,6202.0000 C 4260.0000,6149.0000 4303.0000,6106.0000 4356.0000,6106.0000 L 5785.0000,6106.0000 C 5838.0000,6106.0000 5881.0000,6149.0000 5881.0000,6202.0000 L 5881.0000,6585.0000 C 5881.0000,6638.0000 5838.0000,6681.0000 5785.0000,6681.0000 L 4356.0000,6681.0000 C 4303.0000,6681.0000 4260.0000,6638.0000 4260.0000,6585.0000 L 4260.0000,6202.0000 Z "  fill="#FFFFFF" stroke="none" />
</g>
<g transform="matrix(1.0000 0.0000 0.0000 1.0000 0.0000 0.0000)">
</g>
<g transform="matrix(1.0000 0.0000 0.0000 1.0000 275.4931 407.2773)">
<text font-family="Calibri" fill="#000000" style ="white-space:pre;" font-weight="400" text-anchor="start" x="0.0000" y="0.0000" font-size="24.0000" ><![CDATA[PC5]]></text>
</g>
<g transform="matrix(1.0000 0.0000 0.0000 1.0000 312.8525 407.2773)">
<text font-family="Calibri" fill="#000000" style ="white-space:pre;" font-weight="400" text-anchor="start" x="0.0000" y="0.0000" font-size="24.0000" ><![CDATA[-]]></text>
</g>
<g transform="matrix(1.0000 0.0000 0.0000 1.0000 320.2001 407.2773)">
<text font-family="Calibri" fill="#000000" style ="white-space:pre;" font-weight="400" text-anchor="start" x="0.0000" y="0.0000" font-size="24.0000" ><![CDATA[PHY]]></text>
</g>
<g transform="matrix(0.0625 0.0000 0.0000 0.0625 0.0000 0.0000)">
<path d="M 4260.0000,6202.0000 C 4260.0000,6149.0000 4303.0000,6106.0000 4356.0000,6106.0000 L 5785.0000,6106.0000 C 5838.0000,6106.0000 5881.0000,6149.0000 5881.0000,6202.0000 L 5881.0000,6585.0000 C 5881.0000,6638.0000 5838.0000,6681.0000 5785.0000,6681.0000 L 4356.0000,6681.0000 C 4303.0000,6681.0000 4260.0000,6638.0000 4260.0000,6585.0000 L 4260.0000,6202.0000 Z " stroke="#7F7F7F" stroke-width="33.0000"  stroke-linecap="round"  stroke-linejoin="round" fill="none" />
</g>
<g transform="matrix(1.0000 0.0000 0.0000 1.0000 0.0000 0.0000)">
</g>
<g transform="matrix(0.0625 0.0000 0.0000 0.0625 0.0000 0.0000)">
<path d="M 631.0000,3027.0000 C 631.0000,2974.0000 675.0000,2931.0000 727.0000,2931.0000 L 2157.0000,2931.0000 C 2210.0000,2931.0000 2253.0000,2974.0000 2253.0000,3027.0000 L 2253.0000,3411.0000 C 2253.0000,3464.0000 2210.0000,3507.0000 2157.0000,3507.0000 L 727.0000,3507.0000 C 675.0000,3507.0000 631.0000,3464.0000 631.0000,3411.0000 L 631.0000,3027.0000 Z "  fill="#FFFFFF" stroke="none" />
</g>
<g transform="matrix(1.0000 0.0000 0.0000 1.0000 0.0000 0.0000)">
</g>
<g transform="matrix(0.0625 0.0000 0.0000 0.0625 0.0000 0.0000)">
<path d="M 631.0000,3027.0000 C 631.0000,2974.0000 675.0000,2931.0000 727.0000,2931.0000 L 2157.0000,2931.0000 C 2210.0000,2931.0000 2253.0000,2974.0000 2253.0000,3027.0000 L 2253.0000,3411.0000 C 2253.0000,3464.0000 2210.0000,3507.0000 2157.0000,3507.0000 L 727.0000,3507.0000 C 675.0000,3507.0000 631.0000,3464.0000 631.0000,3411.0000 L 631.0000,3027.0000 Z " stroke="#7F7F7F" stroke-width="33.0000"  stroke-linecap="round"  stroke-linejoin="round" fill="none" />
</g>
<g transform="matrix(1.0000 0.0000 0.0000 1.0000 0.0000 0.0000)">
</g>
<g transform="matrix(1.0000 0.0000 0.0000 1.0000 44.7613 208.4538)">
<text font-family="Calibri" fill="#000000" style ="white-space:pre;" font-weight="400" text-anchor="start" x="0.0000" y="0.0000" font-size="23.0000" ><![CDATA[PC5]]></text>
</g>
<g transform="matrix(1.0000 0.0000 0.0000 1.0000 80.0453 208.4538)">
<text font-family="Calibri" fill="#000000" style ="white-space:pre;" font-weight="400" text-anchor="start" x="0.0000" y="0.0000" font-size="23.0000" ><![CDATA[-]]></text>
</g>
<g transform="matrix(1.0000 0.0000 0.0000 1.0000 86.9847 208.4538)">
<text font-family="Calibri" fill="#000000" style ="white-space:pre;" font-weight="400" text-anchor="start" x="0.0000" y="0.0000" font-size="23.0000" ><![CDATA[PDCP]]></text>
</g>
<g transform="matrix(0.0625 0.0000 0.0000 0.0625 0.0000 0.0000)">
<path d="M 631.0000,2245.0000 C 631.0000,2192.0000 675.0000,2149.0000 727.0000,2149.0000 L 2157.0000,2149.0000 C 2210.0000,2149.0000 2253.0000,2192.0000 2253.0000,2245.0000 L 2253.0000,2629.0000 C 2253.0000,2682.0000 2210.0000,2724.0000 2157.0000,2724.0000 L 727.0000,2724.0000 C 675.0000,2724.0000 631.0000,2682.0000 631.0000,2629.0000 L 631.0000,2245.0000 Z "  fill="#FFFFFF" stroke="none" />
</g>
<g transform="matrix(1.0000 0.0000 0.0000 1.0000 0.0000 0.0000)">
</g>
<g transform="matrix(0.0625 0.0000 0.0000 0.0625 0.0000 0.0000)">
<path d="M 631.0000,2245.0000 C 631.0000,2192.0000 675.0000,2149.0000 727.0000,2149.0000 L 2157.0000,2149.0000 C 2210.0000,2149.0000 2253.0000,2192.0000 2253.0000,2245.0000 L 2253.0000,2629.0000 C 2253.0000,2682.0000 2210.0000,2724.0000 2157.0000,2724.0000 L 727.0000,2724.0000 C 675.0000,2724.0000 631.0000,2682.0000 631.0000,2629.0000 L 631.0000,2245.0000 Z " stroke="#7F7F7F" stroke-width="33.0000"  stroke-linecap="round"  stroke-linejoin="round" fill="none" />
</g>
<g transform="matrix(1.0000 0.0000 0.0000 1.0000 0.0000 0.0000)">
</g>
<g transform="matrix(1.0000 0.0000 0.0000 1.0000 48.8152 159.9749)">
<text font-family="Calibri" fill="#000000" style ="white-space:pre;" font-weight="400" text-anchor="start" x="0.0000" y="0.0000" font-size="24.0000" ><![CDATA[PC5]]></text>
</g>
<g transform="matrix(1.0000 0.0000 0.0000 1.0000 86.1746 159.9749)">
<text font-family="Calibri" fill="#000000" style ="white-space:pre;" font-weight="400" text-anchor="start" x="0.0000" y="0.0000" font-size="24.0000" ><![CDATA[-]]></text>
</g>
<g transform="matrix(1.0000 0.0000 0.0000 1.0000 93.5223 159.9749)">
<text font-family="Calibri" fill="#000000" style ="white-space:pre;" font-weight="400" text-anchor="start" x="0.0000" y="0.0000" font-size="24.0000" ><![CDATA[RRC]]></text>
</g>
<g transform="matrix(0.0625 0.0000 0.0000 0.0625 0.0000 0.0000)">
<path d="M 6376.0000,3809.0000 C 6376.0000,3757.0000 6420.0000,3713.0000 6472.0000,3713.0000 L 7901.0000,3713.0000 C 7955.0000,3713.0000 7998.0000,3757.0000 7998.0000,3809.0000 L 7998.0000,4193.0000 C 7998.0000,4246.0000 7955.0000,4289.0000 7901.0000,4289.0000 L 6472.0000,4289.0000 C 6420.0000,4289.0000 6376.0000,4246.0000 6376.0000,4193.0000 L 6376.0000,3809.0000 Z "  fill="#C5E0B4" stroke="none" />
</g>
<g transform="matrix(1.0000 0.0000 0.0000 1.0000 0.0000 0.0000)">
</g>
<g transform="matrix(0.0625 0.0000 0.0000 0.0625 0.0000 0.0000)">
<path d="M 6376.0000,3809.0000 C 6376.0000,3757.0000 6420.0000,3713.0000 6472.0000,3713.0000 L 7901.0000,3713.0000 C 7955.0000,3713.0000 7998.0000,3757.0000 7998.0000,3809.0000 L 7998.0000,4193.0000 C 7998.0000,4246.0000 7955.0000,4289.0000 7901.0000,4289.0000 L 6472.0000,4289.0000 C 6420.0000,4289.0000 6376.0000,4246.0000 6376.0000,4193.0000 L 6376.0000,3809.0000 Z "  fill="#BFBFBF" stroke="none" />
</g>
<g transform="matrix(1.0000 0.0000 0.0000 1.0000 0.0000 0.0000)">
</g>
<g transform="matrix(0.0625 0.0000 0.0000 0.0625 0.0000 0.0000)">
<path d="M 6376.0000,3809.0000 C 6376.0000,3757.0000 6420.0000,3713.0000 6472.0000,3713.0000 L 7901.0000,3713.0000 C 7955.0000,3713.0000 7998.0000,3757.0000 7998.0000,3809.0000 L 7998.0000,4193.0000 C 7998.0000,4246.0000 7955.0000,4289.0000 7901.0000,4289.0000 L 6472.0000,4289.0000 C 6420.0000,4289.0000 6376.0000,4246.0000 6376.0000,4193.0000 L 6376.0000,3809.0000 Z " stroke="#7F7F7F" stroke-width="33.0000"  stroke-linecap="round"  stroke-linejoin="round" fill="none" />
</g>
<g transform="matrix(1.0000 0.0000 0.0000 1.0000 0.0000 0.0000)">
</g>
<g transform="matrix(1.0000 0.0000 0.0000 1.0000 416.3371 257.7318)">
<text font-family="Calibri" fill="#000000" style ="white-space:pre;" font-weight="400" text-anchor="start" x="0.0000" y="0.0000" font-size="24.0000" ><![CDATA[ADAPT]]></text>
</g>
<g transform="matrix(0.0625 0.0000 0.0000 0.0625 0.0000 0.0000)">
<path d="M 6376.0000,4607.0000 C 6376.0000,4554.0000 6420.0000,4511.0000 6472.0000,4511.0000 L 7901.0000,4511.0000 C 7955.0000,4511.0000 7998.0000,4554.0000 7998.0000,4607.0000 L 7998.0000,4990.0000 C 7998.0000,5043.0000 7955.0000,5086.0000 7901.0000,5086.0000 L 6472.0000,5086.0000 C 6420.0000,5086.0000 6376.0000,5043.0000 6376.0000,4990.0000 L 6376.0000,4607.0000 Z " stroke="#7F7F7F" stroke-width="33.0000"  stroke-linecap="round"  stroke-linejoin="round" fill="none" />
</g>
<g transform="matrix(1.0000 0.0000 0.0000 1.0000 0.0000 0.0000)">
</g>
<g transform="matrix(1.0000 0.0000 0.0000 1.0000 409.3410 307.5803)">
<text font-family="Calibri" fill="#000000" style ="white-space:pre;" font-weight="400" text-anchor="start" x="0.0000" y="0.0000" font-size="24.0000" ><![CDATA[PC5]]></text>
</g>
<g transform="matrix(1.0000 0.0000 0.0000 1.0000 446.7004 307.5803)">
<text font-family="Calibri" fill="#000000" style ="white-space:pre;" font-weight="400" text-anchor="start" x="0.0000" y="0.0000" font-size="24.0000" ><![CDATA[-]]></text>
</g>
<g transform="matrix(1.0000 0.0000 0.0000 1.0000 454.0480 307.5803)">
<text font-family="Calibri" fill="#000000" style ="white-space:pre;" font-weight="400" text-anchor="start" x="0.0000" y="0.0000" font-size="24.0000" ><![CDATA[RLC]]></text>
</g>
<g transform="matrix(0.0625 0.0000 0.0000 0.0625 0.0000 0.0000)">
<path d="M 6376.0000,5404.0000 C 6376.0000,5352.0000 6420.0000,5309.0000 6472.0000,5309.0000 L 7901.0000,5309.0000 C 7955.0000,5309.0000 7998.0000,5352.0000 7998.0000,5404.0000 L 7998.0000,5788.0000 C 7998.0000,5841.0000 7955.0000,5884.0000 7901.0000,5884.0000 L 6472.0000,5884.0000 C 6420.0000,5884.0000 6376.0000,5841.0000 6376.0000,5788.0000 L 6376.0000,5404.0000 Z "  fill="#FFFFFF" stroke="none" />
</g>
<g transform="matrix(1.0000 0.0000 0.0000 1.0000 0.0000 0.0000)">
</g>
<g transform="matrix(1.0000 0.0000 0.0000 1.0000 403.6984 357.4288)">
<text font-family="Calibri" fill="#000000" style ="white-space:pre;" font-weight="400" text-anchor="start" x="0.0000" y="0.0000" font-size="24.0000" ><![CDATA[PC5]]></text>
</g>
<g transform="matrix(1.0000 0.0000 0.0000 1.0000 441.0578 357.4288)">
<text font-family="Calibri" fill="#000000" style ="white-space:pre;" font-weight="400" text-anchor="start" x="0.0000" y="0.0000" font-size="24.0000" ><![CDATA[-]]></text>
</g>
<g transform="matrix(1.0000 0.0000 0.0000 1.0000 448.4055 357.4288)">
<text font-family="Calibri" fill="#000000" style ="white-space:pre;" font-weight="400" text-anchor="start" x="0.0000" y="0.0000" font-size="24.0000" ><![CDATA[MAC]]></text>
</g>
<g transform="matrix(0.0625 0.0000 0.0000 0.0625 0.0000 0.0000)">
<path d="M 6376.0000,5404.0000 C 6376.0000,5352.0000 6420.0000,5309.0000 6472.0000,5309.0000 L 7901.0000,5309.0000 C 7955.0000,5309.0000 7998.0000,5352.0000 7998.0000,5404.0000 L 7998.0000,5788.0000 C 7998.0000,5841.0000 7955.0000,5884.0000 7901.0000,5884.0000 L 6472.0000,5884.0000 C 6420.0000,5884.0000 6376.0000,5841.0000 6376.0000,5788.0000 L 6376.0000,5404.0000 Z " stroke="#7F7F7F" stroke-width="33.0000"  stroke-linecap="round"  stroke-linejoin="round" fill="none" />
</g>
<g transform="matrix(1.0000 0.0000 0.0000 1.0000 0.0000 0.0000)">
</g>
<g transform="matrix(0.0625 0.0000 0.0000 0.0625 0.0000 0.0000)">
<path d="M 6376.0000,6202.0000 C 6376.0000,6149.0000 6420.0000,6106.0000 6472.0000,6106.0000 L 7901.0000,6106.0000 C 7955.0000,6106.0000 7998.0000,6149.0000 7998.0000,6202.0000 L 7998.0000,6585.0000 C 7998.0000,6638.0000 7955.0000,6681.0000 7901.0000,6681.0000 L 6472.0000,6681.0000 C 6420.0000,6681.0000 6376.0000,6638.0000 6376.0000,6585.0000 L 6376.0000,6202.0000 Z "  fill="#FFFFFF" stroke="none" />
</g>
<g transform="matrix(1.0000 0.0000 0.0000 1.0000 0.0000 0.0000)">
</g>
<g transform="matrix(1.0000 0.0000 0.0000 1.0000 407.7766 407.2773)">
<text font-family="Calibri" fill="#000000" style ="white-space:pre;" font-weight="400" text-anchor="start" x="0.0000" y="0.0000" font-size="24.0000" ><![CDATA[PC5]]></text>
</g>
<g transform="matrix(1.0000 0.0000 0.0000 1.0000 445.1359 407.2773)">
<text font-family="Calibri" fill="#000000" style ="white-space:pre;" font-weight="400" text-anchor="start" x="0.0000" y="0.0000" font-size="24.0000" ><![CDATA[-]]></text>
</g>
<g transform="matrix(1.0000 0.0000 0.0000 1.0000 452.4836 407.2773)">
<text font-family="Calibri" fill="#000000" style ="white-space:pre;" font-weight="400" text-anchor="start" x="0.0000" y="0.0000" font-size="24.0000" ><![CDATA[PHY]]></text>
</g>
<g transform="matrix(0.0625 0.0000 0.0000 0.0625 0.0000 0.0000)">
<path d="M 6376.0000,6202.0000 C 6376.0000,6149.0000 6420.0000,6106.0000 6472.0000,6106.0000 L 7901.0000,6106.0000 C 7955.0000,6106.0000 7998.0000,6149.0000 7998.0000,6202.0000 L 7998.0000,6585.0000 C 7998.0000,6638.0000 7955.0000,6681.0000 7901.0000,6681.0000 L 6472.0000,6681.0000 C 6420.0000,6681.0000 6376.0000,6638.0000 6376.0000,6585.0000 L 6376.0000,6202.0000 Z " stroke="#7F7F7F" stroke-width="33.0000"  stroke-linecap="round"  stroke-linejoin="round" fill="none" />
</g>
<g transform="matrix(1.0000 0.0000 0.0000 1.0000 0.0000 0.0000)">
</g>
<g transform="matrix(0.0625 0.0000 0.0000 0.0625 0.0000 0.0000)">
<path d="M 9702.0000,3801.0000 C 9702.0000,3748.0000 9746.0000,3705.0000 9798.0000,3705.0000 L 11227.0000,3705.0000 C 11281.0000,3705.0000 11324.0000,3748.0000 11324.0000,3801.0000 L 11324.0000,4184.0000 C 11324.0000,4237.0000 11281.0000,4280.0000 11227.0000,4280.0000 L 9798.0000,4280.0000 C 9746.0000,4280.0000 9702.0000,4237.0000 9702.0000,4184.0000 L 9702.0000,3801.0000 Z "  fill="#C5E0B4" stroke="none" />
</g>
<g transform="matrix(1.0000 0.0000 0.0000 1.0000 0.0000 0.0000)">
</g>
<g transform="matrix(0.0625 0.0000 0.0000 0.0625 0.0000 0.0000)">
<path d="M 9702.0000,3801.0000 C 9702.0000,3748.0000 9746.0000,3705.0000 9798.0000,3705.0000 L 11227.0000,3705.0000 C 11281.0000,3705.0000 11324.0000,3748.0000 11324.0000,3801.0000 L 11324.0000,4184.0000 C 11324.0000,4237.0000 11281.0000,4280.0000 11227.0000,4280.0000 L 9798.0000,4280.0000 C 9746.0000,4280.0000 9702.0000,4237.0000 9702.0000,4184.0000 L 9702.0000,3801.0000 Z "  fill="#BFBFBF" stroke="none" />
</g>
<g transform="matrix(1.0000 0.0000 0.0000 1.0000 0.0000 0.0000)">
</g>
<g transform="matrix(0.0625 0.0000 0.0000 0.0625 0.0000 0.0000)">
<path d="M 9702.0000,3801.0000 C 9702.0000,3748.0000 9746.0000,3705.0000 9798.0000,3705.0000 L 11227.0000,3705.0000 C 11281.0000,3705.0000 11324.0000,3748.0000 11324.0000,3801.0000 L 11324.0000,4184.0000 C 11324.0000,4237.0000 11281.0000,4280.0000 11227.0000,4280.0000 L 9798.0000,4280.0000 C 9746.0000,4280.0000 9702.0000,4237.0000 9702.0000,4184.0000 L 9702.0000,3801.0000 Z " stroke="#7F7F7F" stroke-width="33.0000"  stroke-linecap="round"  stroke-linejoin="round" fill="none" />
</g>
<g transform="matrix(1.0000 0.0000 0.0000 1.0000 0.0000 0.0000)">
</g>
<g transform="matrix(1.0000 0.0000 0.0000 1.0000 624.2112 257.2000)">
<text font-family="Calibri" fill="#000000" style ="white-space:pre;" font-weight="400" text-anchor="start" x="0.0000" y="0.0000" font-size="24.0000" ><![CDATA[ADAPT]]></text>
</g>
<g transform="matrix(0.0625 0.0000 0.0000 0.0625 0.0000 0.0000)">
<path d="M 9702.0000,4598.0000 C 9702.0000,4546.0000 9746.0000,4502.0000 9798.0000,4502.0000 L 11227.0000,4502.0000 C 11281.0000,4502.0000 11324.0000,4546.0000 11324.0000,4598.0000 L 11324.0000,4982.0000 C 11324.0000,5035.0000 11281.0000,5078.0000 11227.0000,5078.0000 L 9798.0000,5078.0000 C 9746.0000,5078.0000 9702.0000,5035.0000 9702.0000,4982.0000 L 9702.0000,4598.0000 Z " stroke="#7F7F7F" stroke-width="33.0000"  stroke-linecap="round"  stroke-linejoin="round" fill="none" />
</g>
<g transform="matrix(1.0000 0.0000 0.0000 1.0000 0.0000 0.0000)">
</g>
<g transform="matrix(1.0000 0.0000 0.0000 1.0000 617.2151 307.0485)">
<text font-family="Calibri" fill="#000000" style ="white-space:pre;" font-weight="400" text-anchor="start" x="0.0000" y="0.0000" font-size="24.0000" ><![CDATA[PC5]]></text>
</g>
<g transform="matrix(1.0000 0.0000 0.0000 1.0000 654.5745 307.0485)">
<text font-family="Calibri" fill="#000000" style ="white-space:pre;" font-weight="400" text-anchor="start" x="0.0000" y="0.0000" font-size="24.0000" ><![CDATA[-]]></text>
</g>
<g transform="matrix(1.0000 0.0000 0.0000 1.0000 661.9221 307.0485)">
<text font-family="Calibri" fill="#000000" style ="white-space:pre;" font-weight="400" text-anchor="start" x="0.0000" y="0.0000" font-size="24.0000" ><![CDATA[RLC]]></text>
</g>
<g transform="matrix(0.0625 0.0000 0.0000 0.0625 0.0000 0.0000)">
<path d="M 9702.0000,5396.0000 C 9702.0000,5343.0000 9746.0000,5300.0000 9798.0000,5300.0000 L 11227.0000,5300.0000 C 11281.0000,5300.0000 11324.0000,5343.0000 11324.0000,5396.0000 L 11324.0000,5779.0000 C 11324.0000,5832.0000 11281.0000,5875.0000 11227.0000,5875.0000 L 9798.0000,5875.0000 C 9746.0000,5875.0000 9702.0000,5832.0000 9702.0000,5779.0000 L 9702.0000,5396.0000 Z "  fill="#FFFFFF" stroke="none" />
</g>
<g transform="matrix(1.0000 0.0000 0.0000 1.0000 0.0000 0.0000)">
</g>
<g transform="matrix(1.0000 0.0000 0.0000 1.0000 611.5725 356.8971)">
<text font-family="Calibri" fill="#000000" style ="white-space:pre;" font-weight="400" text-anchor="start" x="0.0000" y="0.0000" font-size="24.0000" ><![CDATA[PC5]]></text>
</g>
<g transform="matrix(1.0000 0.0000 0.0000 1.0000 648.9319 356.8971)">
<text font-family="Calibri" fill="#000000" style ="white-space:pre;" font-weight="400" text-anchor="start" x="0.0000" y="0.0000" font-size="24.0000" ><![CDATA[-]]></text>
</g>
<g transform="matrix(1.0000 0.0000 0.0000 1.0000 656.2795 356.8971)">
<text font-family="Calibri" fill="#000000" style ="white-space:pre;" font-weight="400" text-anchor="start" x="0.0000" y="0.0000" font-size="24.0000" ><![CDATA[MAC]]></text>
</g>
<g transform="matrix(0.0625 0.0000 0.0000 0.0625 0.0000 0.0000)">
<path d="M 9702.0000,5396.0000 C 9702.0000,5343.0000 9746.0000,5300.0000 9798.0000,5300.0000 L 11227.0000,5300.0000 C 11281.0000,5300.0000 11324.0000,5343.0000 11324.0000,5396.0000 L 11324.0000,5779.0000 C 11324.0000,5832.0000 11281.0000,5875.0000 11227.0000,5875.0000 L 9798.0000,5875.0000 C 9746.0000,5875.0000 9702.0000,5832.0000 9702.0000,5779.0000 L 9702.0000,5396.0000 Z " stroke="#7F7F7F" stroke-width="33.0000"  stroke-linecap="round"  stroke-linejoin="round" fill="none" />
</g>
<g transform="matrix(1.0000 0.0000 0.0000 1.0000 0.0000 0.0000)">
</g>
<g transform="matrix(0.0625 0.0000 0.0000 0.0625 0.0000 0.0000)">
<path d="M 9702.0000,6193.0000 C 9702.0000,6141.0000 9746.0000,6098.0000 9798.0000,6098.0000 L 11227.0000,6098.0000 C 11281.0000,6098.0000 11324.0000,6141.0000 11324.0000,6193.0000 L 11324.0000,6577.0000 C 11324.0000,6630.0000 11281.0000,6673.0000 11227.0000,6673.0000 L 9798.0000,6673.0000 C 9746.0000,6673.0000 9702.0000,6630.0000 9702.0000,6577.0000 L 9702.0000,6193.0000 Z "  fill="#FFFFFF" stroke="none" />
</g>
<g transform="matrix(1.0000 0.0000 0.0000 1.0000 0.0000 0.0000)">
</g>
<g transform="matrix(1.0000 0.0000 0.0000 1.0000 615.6506 406.7456)">
<text font-family="Calibri" fill="#000000" style ="white-space:pre;" font-weight="400" text-anchor="start" x="0.0000" y="0.0000" font-size="24.0000" ><![CDATA[PC5]]></text>
</g>
<g transform="matrix(1.0000 0.0000 0.0000 1.0000 653.0100 406.7456)">
<text font-family="Calibri" fill="#000000" style ="white-space:pre;" font-weight="400" text-anchor="start" x="0.0000" y="0.0000" font-size="24.0000" ><![CDATA[-]]></text>
</g>
<g transform="matrix(1.0000 0.0000 0.0000 1.0000 660.3577 406.7456)">
<text font-family="Calibri" fill="#000000" style ="white-space:pre;" font-weight="400" text-anchor="start" x="0.0000" y="0.0000" font-size="24.0000" ><![CDATA[PHY]]></text>
</g>
<g transform="matrix(0.0625 0.0000 0.0000 0.0625 0.0000 0.0000)">
<path d="M 9702.0000,6193.0000 C 9702.0000,6141.0000 9746.0000,6098.0000 9798.0000,6098.0000 L 11227.0000,6098.0000 C 11281.0000,6098.0000 11324.0000,6141.0000 11324.0000,6193.0000 L 11324.0000,6577.0000 C 11324.0000,6630.0000 11281.0000,6673.0000 11227.0000,6673.0000 L 9798.0000,6673.0000 C 9746.0000,6673.0000 9702.0000,6630.0000 9702.0000,6577.0000 L 9702.0000,6193.0000 Z " stroke="#7F7F7F" stroke-width="33.0000"  stroke-linecap="round"  stroke-linejoin="round" fill="none" />
</g>
<g transform="matrix(1.0000 0.0000 0.0000 1.0000 0.0000 0.0000)">
</g>
<g transform="matrix(0.0625 0.0000 0.0000 0.0625 0.0000 0.0000)">
<path d="M 9702.0000,3019.0000 C 9702.0000,2966.0000 9746.0000,2923.0000 9798.0000,2923.0000 L 11227.0000,2923.0000 C 11281.0000,2923.0000 11324.0000,2966.0000 11324.0000,3019.0000 L 11324.0000,3402.0000 C 11324.0000,3455.0000 11281.0000,3498.0000 11227.0000,3498.0000 L 9798.0000,3498.0000 C 9746.0000,3498.0000 9702.0000,3455.0000 9702.0000,3402.0000 L 9702.0000,3019.0000 Z "  fill="#FFFFFF" stroke="none" />
</g>
<g transform="matrix(1.0000 0.0000 0.0000 1.0000 0.0000 0.0000)">
</g>
<g transform="matrix(0.0625 0.0000 0.0000 0.0625 0.0000 0.0000)">
<path d="M 9702.0000,3019.0000 C 9702.0000,2966.0000 9746.0000,2923.0000 9798.0000,2923.0000 L 11227.0000,2923.0000 C 11281.0000,2923.0000 11324.0000,2966.0000 11324.0000,3019.0000 L 11324.0000,3402.0000 C 11324.0000,3455.0000 11281.0000,3498.0000 11227.0000,3498.0000 L 9798.0000,3498.0000 C 9746.0000,3498.0000 9702.0000,3455.0000 9702.0000,3402.0000 L 9702.0000,3019.0000 Z " stroke="#7F7F7F" stroke-width="33.0000"  stroke-linecap="round"  stroke-linejoin="round" fill="none" />
</g>
<g transform="matrix(1.0000 0.0000 0.0000 1.0000 0.0000 0.0000)">
</g>
<g transform="matrix(1.0000 0.0000 0.0000 1.0000 611.6904 207.9220)">
<text font-family="Calibri" fill="#000000" style ="white-space:pre;" font-weight="400" text-anchor="start" x="0.0000" y="0.0000" font-size="23.0000" ><![CDATA[PC5]]></text>
</g>
<g transform="matrix(1.0000 0.0000 0.0000 1.0000 646.9745 207.9220)">
<text font-family="Calibri" fill="#000000" style ="white-space:pre;" font-weight="400" text-anchor="start" x="0.0000" y="0.0000" font-size="23.0000" ><![CDATA[-]]></text>
</g>
<g transform="matrix(1.0000 0.0000 0.0000 1.0000 653.9138 207.9220)">
<text font-family="Calibri" fill="#000000" style ="white-space:pre;" font-weight="400" text-anchor="start" x="0.0000" y="0.0000" font-size="23.0000" ><![CDATA[PDCP]]></text>
</g>
<g transform="matrix(0.0625 0.0000 0.0000 0.0625 0.0000 0.0000)">
<path d="M 9702.0000,2237.0000 C 9702.0000,2184.0000 9746.0000,2141.0000 9798.0000,2141.0000 L 11227.0000,2141.0000 C 11281.0000,2141.0000 11324.0000,2184.0000 11324.0000,2237.0000 L 11324.0000,2620.0000 C 11324.0000,2673.0000 11281.0000,2716.0000 11227.0000,2716.0000 L 9798.0000,2716.0000 C 9746.0000,2716.0000 9702.0000,2673.0000 9702.0000,2620.0000 L 9702.0000,2237.0000 Z "  fill="#FFFFFF" stroke="none" />
</g>
<g transform="matrix(1.0000 0.0000 0.0000 1.0000 0.0000 0.0000)">
</g>
<g transform="matrix(0.0625 0.0000 0.0000 0.0625 0.0000 0.0000)">
<path d="M 9702.0000,2237.0000 C 9702.0000,2184.0000 9746.0000,2141.0000 9798.0000,2141.0000 L 11227.0000,2141.0000 C 11281.0000,2141.0000 11324.0000,2184.0000 11324.0000,2237.0000 L 11324.0000,2620.0000 C 11324.0000,2673.0000 11281.0000,2716.0000 11227.0000,2716.0000 L 9798.0000,2716.0000 C 9746.0000,2716.0000 9702.0000,2673.0000 9702.0000,2620.0000 L 9702.0000,2237.0000 Z " stroke="#7F7F7F" stroke-width="33.0000"  stroke-linecap="round"  stroke-linejoin="round" fill="none" />
</g>
<g transform="matrix(1.0000 0.0000 0.0000 1.0000 0.0000 0.0000)">
</g>
<g transform="matrix(1.0000 0.0000 0.0000 1.0000 615.7444 159.4431)">
<text font-family="Calibri" fill="#000000" style ="white-space:pre;" font-weight="400" text-anchor="start" x="0.0000" y="0.0000" font-size="24.0000" ><![CDATA[PC5]]></text>
</g>
<g transform="matrix(1.0000 0.0000 0.0000 1.0000 653.1038 159.4431)">
<text font-family="Calibri" fill="#000000" style ="white-space:pre;" font-weight="400" text-anchor="start" x="0.0000" y="0.0000" font-size="24.0000" ><![CDATA[-]]></text>
</g>
<g transform="matrix(1.0000 0.0000 0.0000 1.0000 660.4514 159.4431)">
<text font-family="Calibri" fill="#000000" style ="white-space:pre;" font-weight="400" text-anchor="start" x="0.0000" y="0.0000" font-size="24.0000" ><![CDATA[RRC]]></text>
</g>
<g transform="matrix(0.0625 0.0000 0.0000 0.0625 0.0000 0.0000)">
<path d="M 2237.0000,3130.0000 L 9705.0000,3130.0000 " stroke="#000000" stroke-width="10.0000"  stroke-linecap="round"  stroke-linejoin="round" fill="none" />
</g>
<g transform="matrix(1.0000 0.0000 0.0000 1.0000 0.0000 0.0000)">
</g>
<g transform="matrix(0.0625 0.0000 0.0000 0.0625 0.0000 0.0000)">
<path d="M 2234.0000,2437.0000 L 9702.0000,2437.0000 " stroke="#000000" stroke-width="10.0000"  stroke-linecap="round"  stroke-linejoin="round" fill="none" />
</g>
<g transform="matrix(1.0000 0.0000 0.0000 1.0000 0.0000 0.0000)">
</g>
<g transform="matrix(0.0625 0.0000 0.0000 0.0625 0.0000 0.0000)">
<path d="M 2263.0000,6459.0000 L 4260.0000,6459.0000 " stroke="#000000" stroke-width="10.0000"  stroke-linecap="round"  stroke-linejoin="round" fill="none" />
</g>
<g transform="matrix(1.0000 0.0000 0.0000 1.0000 0.0000 0.0000)">
</g>
<g transform="matrix(0.0625 0.0000 0.0000 0.0625 0.0000 0.0000)">
<path d="M 2258.0000,5596.0000 L 4255.0000,5596.0000 " stroke="#000000" stroke-width="10.0000"  stroke-linecap="round"  stroke-linejoin="round" fill="none" />
</g>
<g transform="matrix(1.0000 0.0000 0.0000 1.0000 0.0000 0.0000)">
</g>
<g transform="matrix(0.0625 0.0000 0.0000 0.0625 0.0000 0.0000)">
<path d="M 2258.0000,4799.0000 L 4255.0000,4799.0000 " stroke="#000000" stroke-width="10.0000"  stroke-linecap="round"  stroke-linejoin="round" fill="none" />
</g>
<g transform="matrix(1.0000 0.0000 0.0000 1.0000 0.0000 0.0000)">
</g>
<g transform="matrix(0.0625 0.0000 0.0000 0.0625 0.0000 0.0000)">
<path d="M 8008.0000,4799.0000 L 9632.0000,4799.0000 " stroke="#000000" stroke-width="10.0000"  stroke-linecap="round"  stroke-linejoin="round" fill="none" />
</g>
<g transform="matrix(1.0000 0.0000 0.0000 1.0000 0.0000 0.0000)">
</g>
<g transform="matrix(0.0625 0.0000 0.0000 0.0625 0.0000 0.0000)">
<path d="M 7983.0000,5522.0000 L 9607.0000,5522.0000 " stroke="#000000" stroke-width="10.0000"  stroke-linecap="round"  stroke-linejoin="round" fill="none" />
</g>
<g transform="matrix(1.0000 0.0000 0.0000 1.0000 0.0000 0.0000)">
</g>
<g transform="matrix(0.0625 0.0000 0.0000 0.0625 0.0000 0.0000)">
<path d="M 7983.0000,6394.0000 L 9607.0000,6394.0000 " stroke="#000000" stroke-width="10.0000"  stroke-linecap="round"  stroke-linejoin="round" fill="none" />
</g>
<g transform="matrix(1.0000 0.0000 0.0000 1.0000 0.0000 0.0000)">
</g>
<g transform="matrix(0.0625 0.0000 0.0000 0.0625 0.0000 0.0000)">
<path d="M 7983.0000,4001.0000 L 9607.0000,4001.0000 " stroke="#000000" stroke-width="10.0000"  stroke-linecap="round"  stroke-linejoin="round" fill="none" />
</g>
<g transform="matrix(1.0000 0.0000 0.0000 1.0000 0.0000 0.0000)">
</g>
<g transform="matrix(0.0625 0.0000 0.0000 0.0625 0.0000 0.0000)">
<path d="M 27.0000,947.0000 C 27.0000,588.0000 236.0000,297.0000 495.0000,297.0000 L 2368.0000,297.0000 C 2626.0000,297.0000 2836.0000,588.0000 2836.0000,947.0000 L 2836.0000,6299.0000 C 2836.0000,6658.0000 2626.0000,6949.0000 2368.0000,6949.0000 L 495.0000,6949.0000 C 236.0000,6949.0000 27.0000,6658.0000 27.0000,6299.0000 L 27.0000,947.0000 Z " stroke="#7F7F7F" stroke-width="20.0000"  stroke-linecap="round"  stroke-linejoin="round" fill="none" />
</g>
<g transform="matrix(1.0000 0.0000 0.0000 1.0000 0.0000 0.0000)">
</g>
<g transform="matrix(0.0625 0.0000 0.0000 0.0625 0.0000 0.0000)">
<path d="M 3957.0000,971.0000 C 3957.0000,612.0000 4288.0000,321.0000 4696.0000,321.0000 L 7646.0000,321.0000 C 8054.0000,321.0000 8384.0000,612.0000 8384.0000,971.0000 L 8384.0000,6323.0000 C 8384.0000,6682.0000 8054.0000,6973.0000 7646.0000,6973.0000 L 4696.0000,6973.0000 C 4288.0000,6973.0000 3957.0000,6682.0000 3957.0000,6323.0000 L 3957.0000,971.0000 Z " stroke="#7F7F7F" stroke-width="20.0000"  stroke-linecap="round"  stroke-linejoin="round" fill="none" />
</g>
<g transform="matrix(1.0000 0.0000 0.0000 1.0000 0.0000 0.0000)">
<defs><clipPath id="clip-1804289383"><path d="M 0.0000,0.0000 L 746.0000,0.0000 L 746.0000,479.0000 L 0.0000,479.0000 L 0.0000,0.0000 Z Z" /></clipPath></defs>
</g>
<g transform="matrix(0.0625 0.0000 0.0000 0.0625 0.0000 0.0000)">
<path d="M 9208.0000,915.0000 C 9208.0000,557.0000 9410.0000,266.0000 9658.0000,266.0000 L 11454.0000,266.0000 C 11703.0000,266.0000 11904.0000,557.0000 11904.0000,915.0000 L 11904.0000,6268.0000 C 11904.0000,6627.0000 11703.0000,6917.0000 11454.0000,6917.0000 L 9658.0000,6917.0000 C 9410.0000,6917.0000 9208.0000,6627.0000 9208.0000,6268.0000 L 9208.0000,915.0000 Z " stroke="#7F7F7F" stroke-width="20.0000"  stroke-linecap="round"  stroke-linejoin="round" fill="none" />
</g>
<g transform="matrix(1.0000 0.0000 0.0000 1.0000 0.0000 0.0000)">
</g>
<g transform="matrix(1.0000 0.0000 0.0000 1.0000 312.3005 60.8673)">
<text font-family="Calibri" fill="#000000" style ="white-space:pre;" font-weight="400" text-anchor="start" x="0.0000" y="0.0000" font-size="24.0000" ><![CDATA[UE]]></text>
</g>
<g transform="matrix(1.0000 0.0000 0.0000 1.0000 339.3789 60.8673)">
<text font-family="Calibri" fill="#000000" style ="white-space:pre;" font-weight="400" text-anchor="start" x="0.0000" y="0.0000" font-size="24.0000" ><![CDATA[-]]></text>
</g>
<g transform="matrix(1.0000 0.0000 0.0000 1.0000 346.7159 60.8673)">
<text font-family="Calibri" fill="#000000" style ="white-space:pre;" font-weight="400" text-anchor="start" x="0.0000" y="0.0000" font-size="24.0000" ><![CDATA[to]]></text>
</g>
<g transform="matrix(1.0000 0.0000 0.0000 1.0000 367.3816 60.8673)">
<text font-family="Calibri" fill="#000000" style ="white-space:pre;" font-weight="400" text-anchor="start" x="0.0000" y="0.0000" font-size="24.0000" ><![CDATA[-]]></text>
</g>
<g transform="matrix(1.0000 0.0000 0.0000 1.0000 374.7186 60.8673)">
<text font-family="Calibri" fill="#000000" style ="white-space:pre;" font-weight="400" text-anchor="start" x="0.0000" y="0.0000" font-size="24.0000" ><![CDATA[UE ]]></text>
</g>
<g transform="matrix(1.0000 0.0000 0.0000 1.0000 407.2151 60.8673)">
<text font-family="Calibri" fill="#000000" style ="white-space:pre;" font-weight="400" text-anchor="start" x="0.0000" y="0.0000" font-size="24.0000" ><![CDATA[Relay ]]></text>
</g>
<g transform="matrix(0.0625 0.0000 0.0000 0.0625 0.0000 0.0000)">
<path d="M 608.0000,3786.0000 C 608.0000,3733.0000 651.0000,3690.0000 704.0000,3690.0000 L 2133.0000,3690.0000 C 2186.0000,3690.0000 2229.0000,3733.0000 2229.0000,3786.0000 L 2229.0000,4169.0000 C 2229.0000,4222.0000 2186.0000,4265.0000 2133.0000,4265.0000 L 704.0000,4265.0000 C 651.0000,4265.0000 608.0000,4222.0000 608.0000,4169.0000 L 608.0000,3786.0000 Z "  fill="#BFBFBF" stroke="none" />
</g>
<g transform="matrix(1.0000 0.0000 0.0000 1.0000 0.0000 0.0000)">
</g>
<g transform="matrix(0.0625 0.0000 0.0000 0.0625 0.0000 0.0000)">
<path d="M 608.0000,3786.0000 C 608.0000,3733.0000 651.0000,3690.0000 704.0000,3690.0000 L 2133.0000,3690.0000 C 2186.0000,3690.0000 2229.0000,3733.0000 2229.0000,3786.0000 L 2229.0000,4169.0000 C 2229.0000,4222.0000 2186.0000,4265.0000 2133.0000,4265.0000 L 704.0000,4265.0000 C 651.0000,4265.0000 608.0000,4222.0000 608.0000,4169.0000 L 608.0000,3786.0000 Z " stroke="#7F7F7F" stroke-width="33.0000"  stroke-linecap="round"  stroke-linejoin="round" fill="none" />
</g>
<g transform="matrix(1.0000 0.0000 0.0000 1.0000 0.0000 0.0000)">
</g>
<g transform="matrix(1.0000 0.0000 0.0000 1.0000 55.8067 256.2767)">
<text font-family="Calibri" fill="#000000" style ="white-space:pre;" font-weight="400" text-anchor="start" x="0.0000" y="0.0000" font-size="24.0000" ><![CDATA[ADAPT]]></text>
</g>
<g transform="matrix(0.0625 0.0000 0.0000 0.0625 0.0000 0.0000)">
<path d="M 4236.0000,3786.0000 C 4236.0000,3733.0000 4279.0000,3690.0000 4332.0000,3690.0000 L 5761.0000,3690.0000 C 5815.0000,3690.0000 5857.0000,3733.0000 5857.0000,3786.0000 L 5857.0000,4169.0000 C 5857.0000,4222.0000 5815.0000,4265.0000 5761.0000,4265.0000 L 4332.0000,4265.0000 C 4279.0000,4265.0000 4236.0000,4222.0000 4236.0000,4169.0000 L 4236.0000,3786.0000 Z "  fill="#BFBFBF" stroke="none" />
</g>
<g transform="matrix(1.0000 0.0000 0.0000 1.0000 0.0000 0.0000)">
</g>
<g transform="matrix(0.0625 0.0000 0.0000 0.0625 0.0000 0.0000)">
<path d="M 4236.0000,3786.0000 C 4236.0000,3733.0000 4279.0000,3690.0000 4332.0000,3690.0000 L 5761.0000,3690.0000 C 5815.0000,3690.0000 5857.0000,3733.0000 5857.0000,3786.0000 L 5857.0000,4169.0000 C 5857.0000,4222.0000 5815.0000,4265.0000 5761.0000,4265.0000 L 4332.0000,4265.0000 C 4279.0000,4265.0000 4236.0000,4222.0000 4236.0000,4169.0000 L 4236.0000,3786.0000 Z " stroke="#7F7F7F" stroke-width="33.0000"  stroke-linecap="round"  stroke-linejoin="round" fill="none" />
</g>
<g transform="matrix(1.0000 0.0000 0.0000 1.0000 0.0000 0.0000)">
</g>
<g transform="matrix(1.0000 0.0000 0.0000 1.0000 282.5784 256.2767)">
<text font-family="Calibri" fill="#000000" style ="white-space:pre;" font-weight="400" text-anchor="start" x="0.0000" y="0.0000" font-size="24.0000" ><![CDATA[ADAPT]]></text>
</g>
<g transform="matrix(0.0625 0.0000 0.0000 0.0625 0.0000 0.0000)">
<path d="M 2234.0000,3978.0000 L 4231.0000,3978.0000 " stroke="#000000" stroke-width="10.0000"  stroke-linecap="round"  stroke-linejoin="round" fill="none" />
</g>
<g transform="matrix(1.0000 0.0000 0.0000 1.0000 0.0000 0.0000)">
</g>
</g>
</svg>
