<?xml version="1.0"  encoding="UTF-8" standalone="no"?>
<svg version="1.1" xmlns="http://www.w3.org/2000/svg" xmlns:xlink="http://www.w3.org/1999/xlink" width="687.0000" height="333.0000">
<g transform="translate(-11.0000, -2.0000)">
<g transform="matrix(0.0625 0.0000 0.0000 0.0625 0.0000 0.0000)">
<path d="M 951.0000,3889.0000 L 2039.0000,3889.0000 L 2039.0000,1712.0000 L 951.0000,1712.0000 L 951.0000,3889.0000 Z" stroke="#000000" stroke-width="21.0000"  stroke-linecap="round"  stroke-linejoin="round" fill="none" />
</g>
<g transform="matrix(1.0000 0.0000 0.0000 1.0000 0.0000 0.0000)">
</g>
<g transform="matrix(1.0000 0.0000 0.0000 1.0000 71.7023 161.1250)">
<text font-family="Times New Roman" fill="#000000" style ="white-space:pre;" font-weight="400" text-anchor="start" x="0.0000" y="0.0000" font-size="16.0000" ><![CDATA[Digital]]></text>
</g>
<g transform="matrix(1.0000 0.0000 0.0000 1.0000 78.3702 180.3251)">
<text font-family="Times New Roman" fill="#000000" style ="white-space:pre;" font-weight="400" text-anchor="start" x="0.0000" y="0.0000" font-size="16.0000" ><![CDATA[Base ]]></text>
</g>
<g transform="matrix(1.0000 0.0000 0.0000 1.0000 78.3702 199.5252)">
<text font-family="Times New Roman" fill="#000000" style ="white-space:pre;" font-weight="400" text-anchor="start" x="0.0000" y="0.0000" font-size="16.0000" ><![CDATA[band]]></text>
</g>
<g transform="matrix(0.0625 0.0000 0.0000 0.0625 0.0000 0.0000)">
<path d="M 2039.0000,2136.0000 L 4579.0000,2136.0000 " stroke="#000000" stroke-width="21.0000"  stroke-linecap="round"  stroke-linejoin="round" fill="none" />
</g>
<g transform="matrix(1.0000 0.0000 0.0000 1.0000 0.0000 0.0000)">
</g>
<g transform="matrix(0.0625 0.0000 0.0000 0.0625 0.0000 0.0000)">
<path d="M 2039.0000,2740.0000 L 4579.0000,2740.0000 " stroke="#000000" stroke-width="21.0000"  stroke-linecap="round"  stroke-linejoin="round" fill="none" />
</g>
<g transform="matrix(1.0000 0.0000 0.0000 1.0000 0.0000 0.0000)">
</g>
<g transform="matrix(0.0625 0.0000 0.0000 0.0625 0.0000 0.0000)">
<path d="M 2039.0000,3647.0000 L 4562.0000,3647.0000 " stroke="#000000" stroke-width="21.0000"  stroke-linecap="round"  stroke-linejoin="round" fill="none" />
</g>
<g transform="matrix(1.0000 0.0000 0.0000 1.0000 0.0000 0.0000)">
</g>
<g transform="matrix(0.0625 0.0000 0.0000 0.0625 0.0000 0.0000)">
<path d="M 4579.0000,4736.0000 L 6212.0000,4736.0000 L 6212.0000,1229.0000 L 4579.0000,1229.0000 L 4579.0000,4736.0000 Z" stroke="#000000" stroke-width="21.0000"  stroke-linecap="round"  stroke-linejoin="round" fill="none" />
</g>
<g transform="matrix(1.0000 0.0000 0.0000 1.0000 0.0000 0.0000)">
</g>
<g transform="matrix(1.0000 0.0000 0.0000 1.0000 308.8135 162.8634)">
<text font-family="Times New Roman" fill="#000000" style ="white-space:pre;" font-weight="400" text-anchor="start" x="0.0000" y="0.0000" font-size="16.0000" ><![CDATA[Mapping ]]></text>
</g>
<g transform="matrix(1.0000 0.0000 0.0000 1.0000 300.1497 182.0635)">
<text font-family="Times New Roman" fill="#000000" style ="white-space:pre;" font-weight="400" text-anchor="start" x="0.0000" y="0.0000" font-size="16.0000" ><![CDATA[from TxRU ]]></text>
</g>
<g transform="matrix(1.0000 0.0000 0.0000 1.0000 304.6024 201.2636)">
<text font-family="Times New Roman" fill="#000000" style ="white-space:pre;" font-weight="400" text-anchor="start" x="0.0000" y="0.0000" font-size="16.0000" ><![CDATA[to antenna ]]></text>
</g>
<g transform="matrix(1.0000 0.0000 0.0000 1.0000 309.2669 220.4636)">
<text font-family="Times New Roman" fill="#000000" style ="white-space:pre;" font-weight="400" text-anchor="start" x="0.0000" y="0.0000" font-size="16.0000" ><![CDATA[elements]]></text>
</g>
<g transform="matrix(1.0000 0.0000 0.0000 1.0000 462.2698 196.3747)">
<text font-family="Times New Roman" fill="#000000" font-style="italic" style ="white-space:pre;" font-weight="400" text-anchor="start" x="0.0000" y="0.0000" font-size="16.0000" ><![CDATA[M]]></text>
</g>
<g transform="matrix(0.0625 0.0000 0.0000 0.0625 0.0000 0.0000)">
<path d="M 7195.0000,2914.0000 C 7195.0000,2897.0000 7210.0000,2884.0000 7229.0000,2884.0000 C 7248.0000,2884.0000 7263.0000,2897.0000 7263.0000,2914.0000 C 7263.0000,2930.0000 7248.0000,2943.0000 7229.0000,2943.0000 C 7210.0000,2943.0000 7195.0000,2930.0000 7195.0000,2914.0000 "  fill="#000000" stroke="none" />
</g>
<g transform="matrix(1.0000 0.0000 0.0000 1.0000 0.0000 0.0000)">
</g>
<g transform="matrix(0.0625 0.0000 0.0000 0.0625 0.0000 0.0000)">
<path d="M 7195.0000,2914.0000 M 7195.0000,2914.0000 C 7195.0000,2897.0000 7210.0000,2884.0000 7229.0000,2884.0000 C 7248.0000,2884.0000 7263.0000,2897.0000 7263.0000,2914.0000 C 7263.0000,2930.0000 7248.0000,2943.0000 7229.0000,2943.0000 C 7210.0000,2943.0000 7195.0000,2930.0000 7195.0000,2914.0000 " stroke="#000000" stroke-width="21.0000"  stroke-linecap="round"  stroke-linejoin="round"  fill="none" />
</g>
<g transform="matrix(1.0000 0.0000 0.0000 1.0000 0.0000 0.0000)">
</g>
<g transform="matrix(0.0625 0.0000 0.0000 0.0625 0.0000 0.0000)">
<path d="M 7195.0000,3058.0000 C 7195.0000,3041.0000 7210.0000,3028.0000 7229.0000,3028.0000 C 7248.0000,3028.0000 7263.0000,3041.0000 7263.0000,3058.0000 C 7263.0000,3074.0000 7248.0000,3087.0000 7229.0000,3087.0000 C 7210.0000,3087.0000 7195.0000,3074.0000 7195.0000,3058.0000 "  fill="#000000" stroke="none" />
</g>
<g transform="matrix(1.0000 0.0000 0.0000 1.0000 0.0000 0.0000)">
</g>
<g transform="matrix(0.0625 0.0000 0.0000 0.0625 0.0000 0.0000)">
<path d="M 7195.0000,3058.0000 M 7195.0000,3058.0000 C 7195.0000,3041.0000 7210.0000,3028.0000 7229.0000,3028.0000 C 7248.0000,3028.0000 7263.0000,3041.0000 7263.0000,3058.0000 C 7263.0000,3074.0000 7248.0000,3087.0000 7229.0000,3087.0000 C 7210.0000,3087.0000 7195.0000,3074.0000 7195.0000,3058.0000 " stroke="#000000" stroke-width="21.0000"  stroke-linecap="round"  stroke-linejoin="round"  fill="none" />
</g>
<g transform="matrix(1.0000 0.0000 0.0000 1.0000 0.0000 0.0000)">
</g>
<g transform="matrix(0.0625 0.0000 0.0000 0.0625 0.0000 0.0000)">
<path d="M 7195.0000,3207.0000 C 7195.0000,3190.0000 7210.0000,3177.0000 7229.0000,3177.0000 C 7248.0000,3177.0000 7263.0000,3190.0000 7263.0000,3207.0000 C 7263.0000,3223.0000 7248.0000,3236.0000 7229.0000,3236.0000 C 7210.0000,3236.0000 7195.0000,3223.0000 7195.0000,3207.0000 "  fill="#000000" stroke="none" />
</g>
<g transform="matrix(1.0000 0.0000 0.0000 1.0000 0.0000 0.0000)">
</g>
<g transform="matrix(0.0625 0.0000 0.0000 0.0625 0.0000 0.0000)">
<path d="M 7195.0000,3207.0000 M 7195.0000,3207.0000 C 7195.0000,3190.0000 7210.0000,3177.0000 7229.0000,3177.0000 C 7248.0000,3177.0000 7263.0000,3190.0000 7263.0000,3207.0000 C 7263.0000,3223.0000 7248.0000,3236.0000 7229.0000,3236.0000 C 7210.0000,3236.0000 7195.0000,3223.0000 7195.0000,3207.0000 " stroke="#000000" stroke-width="21.0000"  stroke-linecap="round"  stroke-linejoin="round"  fill="none" />
</g>
<g transform="matrix(1.0000 0.0000 0.0000 1.0000 0.0000 0.0000)">
</g>
<g transform="matrix(0.0625 0.0000 0.0000 0.0625 0.0000 0.0000)">
<path d="M 7388.0000,828.0000 L 7605.0000,1088.0000 L 7823.0000,828.0000 L 7388.0000,828.0000 Z" stroke="#000000" stroke-width="21.0000"  stroke-linecap="round"  stroke-linejoin="round" fill="none" />
</g>
<g transform="matrix(1.0000 0.0000 0.0000 1.0000 0.0000 0.0000)">
</g>
<g transform="matrix(0.0625 0.0000 0.0000 0.0625 0.0000 0.0000)">
<path d="M 7605.0000,1088.0000 L 7605.0000,1362.0000 L 6212.0000,1362.0000 " stroke="#000000" stroke-width="21.0000"  stroke-linecap="round"  stroke-linejoin="round" fill="none" />
</g>
<g transform="matrix(1.0000 0.0000 0.0000 1.0000 0.0000 0.0000)">
</g>
<g transform="matrix(0.0625 0.0000 0.0000 0.0625 0.0000 0.0000)">
<path d="M 7380.0000,1459.0000 L 7597.0000,1719.0000 L 7814.0000,1459.0000 L 7380.0000,1459.0000 Z" stroke="#000000" stroke-width="21.0000"  stroke-linecap="round"  stroke-linejoin="round" fill="none" />
</g>
<g transform="matrix(1.0000 0.0000 0.0000 1.0000 0.0000 0.0000)">
</g>
<g transform="matrix(0.0625 0.0000 0.0000 0.0625 0.0000 0.0000)">
<path d="M 7597.0000,1719.0000 L 7597.0000,1984.0000 L 6212.0000,1984.0000 " stroke="#000000" stroke-width="21.0000"  stroke-linecap="round"  stroke-linejoin="round" fill="none" />
</g>
<g transform="matrix(1.0000 0.0000 0.0000 1.0000 0.0000 0.0000)">
</g>
<g transform="matrix(0.0625 0.0000 0.0000 0.0625 0.0000 0.0000)">
<path d="M 7390.0000,2127.0000 L 7608.0000,2387.0000 L 7826.0000,2127.0000 L 7390.0000,2127.0000 Z" stroke="#000000" stroke-width="21.0000"  stroke-linecap="round"  stroke-linejoin="round" fill="none" />
</g>
<g transform="matrix(1.0000 0.0000 0.0000 1.0000 0.0000 0.0000)">
</g>
<g transform="matrix(0.0625 0.0000 0.0000 0.0625 0.0000 0.0000)">
<path d="M 7608.0000,2387.0000 L 7608.0000,2650.0000 L 6212.0000,2650.0000 " stroke="#000000" stroke-width="21.0000"  stroke-linecap="round"  stroke-linejoin="round" fill="none" />
</g>
<g transform="matrix(1.0000 0.0000 0.0000 1.0000 0.0000 0.0000)">
</g>
<g transform="matrix(0.0625 0.0000 0.0000 0.0625 0.0000 0.0000)">
<path d="M 7380.0000,3439.0000 L 7597.0000,3699.0000 L 7814.0000,3439.0000 L 7380.0000,3439.0000 Z" stroke="#000000" stroke-width="21.0000"  stroke-linecap="round"  stroke-linejoin="round" fill="none" />
</g>
<g transform="matrix(1.0000 0.0000 0.0000 1.0000 0.0000 0.0000)">
</g>
<g transform="matrix(0.0625 0.0000 0.0000 0.0625 0.0000 0.0000)">
<path d="M 7597.0000,3699.0000 L 7597.0000,3980.0000 L 6212.0000,3980.0000 " stroke="#000000" stroke-width="21.0000"  stroke-linecap="round"  stroke-linejoin="round" fill="none" />
</g>
<g transform="matrix(1.0000 0.0000 0.0000 1.0000 0.0000 0.0000)">
</g>
<g transform="matrix(0.0625 0.0000 0.0000 0.0625 0.0000 0.0000)">
<path d="M 7390.0000,4107.0000 L 7608.0000,4367.0000 L 7826.0000,4107.0000 L 7390.0000,4107.0000 Z" stroke="#000000" stroke-width="21.0000"  stroke-linecap="round"  stroke-linejoin="round" fill="none" />
</g>
<g transform="matrix(1.0000 0.0000 0.0000 1.0000 0.0000 0.0000)">
</g>
<g transform="matrix(0.0625 0.0000 0.0000 0.0625 0.0000 0.0000)">
<path d="M 7608.0000,4367.0000 L 7608.0000,4627.0000 L 6212.0000,4627.0000 " stroke="#000000" stroke-width="21.0000"  stroke-linecap="round"  stroke-linejoin="round" fill="none" />
</g>
<g transform="matrix(1.0000 0.0000 0.0000 1.0000 0.0000 0.0000)">
</g>
<g transform="matrix(1.0000 0.0000 0.0000 1.0000 204.1332 202.8472)">
<text font-family="Times New Roman" fill="#000000" font-style="italic" style ="white-space:pre;" font-weight="400" text-anchor="start" x="0.0000" y="0.0000" font-size="16.0000" ><![CDATA[N]]></text>
</g>
<g transform="matrix(0.0625 0.0000 0.0000 0.0625 0.0000 0.0000)">
<path d="M 3044.0000,3017.0000 C 3044.0000,3001.0000 3059.0000,2987.0000 3078.0000,2987.0000 C 3097.0000,2987.0000 3112.0000,3001.0000 3112.0000,3017.0000 C 3112.0000,3034.0000 3097.0000,3047.0000 3078.0000,3047.0000 C 3059.0000,3047.0000 3044.0000,3034.0000 3044.0000,3017.0000 "  fill="#000000" stroke="none" />
</g>
<g transform="matrix(1.0000 0.0000 0.0000 1.0000 0.0000 0.0000)">
</g>
<g transform="matrix(0.0625 0.0000 0.0000 0.0625 0.0000 0.0000)">
<path d="M 3044.0000,3017.0000 M 3044.0000,3017.0000 C 3044.0000,3001.0000 3059.0000,2987.0000 3078.0000,2987.0000 C 3097.0000,2987.0000 3112.0000,3001.0000 3112.0000,3017.0000 C 3112.0000,3034.0000 3097.0000,3047.0000 3078.0000,3047.0000 C 3059.0000,3047.0000 3044.0000,3034.0000 3044.0000,3017.0000 " stroke="#000000" stroke-width="21.0000"  stroke-linecap="round"  stroke-linejoin="round"  fill="none" />
</g>
<g transform="matrix(1.0000 0.0000 0.0000 1.0000 0.0000 0.0000)">
</g>
<g transform="matrix(0.0625 0.0000 0.0000 0.0625 0.0000 0.0000)">
<path d="M 3044.0000,3161.0000 C 3044.0000,3145.0000 3059.0000,3131.0000 3078.0000,3131.0000 C 3097.0000,3131.0000 3112.0000,3145.0000 3112.0000,3161.0000 C 3112.0000,3178.0000 3097.0000,3191.0000 3078.0000,3191.0000 C 3059.0000,3191.0000 3044.0000,3178.0000 3044.0000,3161.0000 "  fill="#000000" stroke="none" />
</g>
<g transform="matrix(1.0000 0.0000 0.0000 1.0000 0.0000 0.0000)">
</g>
<g transform="matrix(0.0625 0.0000 0.0000 0.0625 0.0000 0.0000)">
<path d="M 3044.0000,3161.0000 M 3044.0000,3161.0000 C 3044.0000,3145.0000 3059.0000,3131.0000 3078.0000,3131.0000 C 3097.0000,3131.0000 3112.0000,3145.0000 3112.0000,3161.0000 C 3112.0000,3178.0000 3097.0000,3191.0000 3078.0000,3191.0000 C 3059.0000,3191.0000 3044.0000,3178.0000 3044.0000,3161.0000 " stroke="#000000" stroke-width="21.0000"  stroke-linecap="round"  stroke-linejoin="round"  fill="none" />
</g>
<g transform="matrix(1.0000 0.0000 0.0000 1.0000 0.0000 0.0000)">
</g>
<g transform="matrix(0.0625 0.0000 0.0000 0.0625 0.0000 0.0000)">
<path d="M 3044.0000,3310.0000 C 3044.0000,3294.0000 3059.0000,3280.0000 3078.0000,3280.0000 C 3097.0000,3280.0000 3112.0000,3294.0000 3112.0000,3310.0000 C 3112.0000,3327.0000 3097.0000,3340.0000 3078.0000,3340.0000 C 3059.0000,3340.0000 3044.0000,3327.0000 3044.0000,3310.0000 "  fill="#000000" stroke="none" />
</g>
<g transform="matrix(1.0000 0.0000 0.0000 1.0000 0.0000 0.0000)">
</g>
<g transform="matrix(0.0625 0.0000 0.0000 0.0625 0.0000 0.0000)">
<path d="M 3044.0000,3310.0000 M 3044.0000,3310.0000 C 3044.0000,3294.0000 3059.0000,3280.0000 3078.0000,3280.0000 C 3097.0000,3280.0000 3112.0000,3294.0000 3112.0000,3310.0000 C 3112.0000,3327.0000 3097.0000,3340.0000 3078.0000,3340.0000 C 3059.0000,3340.0000 3044.0000,3327.0000 3044.0000,3310.0000 " stroke="#000000" stroke-width="21.0000"  stroke-linecap="round"  stroke-linejoin="round"  fill="none" />
</g>
<g transform="matrix(1.0000 0.0000 0.0000 1.0000 0.0000 0.0000)">
</g>
<g transform="matrix(1.0000 0.0000 0.0000 1.0000 180.6370 89.9871)">
<text font-family="Times New Roman" fill="#000000" font-style="italic" style ="white-space:pre;" font-weight="400" text-anchor="start" x="0.0000" y="0.0000" font-size="16.0000" ><![CDATA[N ]]></text>
</g>
<g transform="matrix(1.0000 0.0000 0.0000 1.0000 195.3093 89.9871)">
<text font-family="Times New Roman" fill="#000000" style ="white-space:pre;" font-weight="400" text-anchor="start" x="0.0000" y="0.0000" font-size="16.0000" ><![CDATA[TxRUs]]></text>
</g>
<g transform="matrix(1.0000 0.0000 0.0000 1.0000 167.9764 109.1883)">
<text font-family="Times New Roman" fill="#000000" style ="white-space:pre;" font-weight="400" text-anchor="start" x="0.0000" y="0.0000" font-size="16.0000" ><![CDATA[(]]></text>
</g>
<g transform="matrix(1.0000 0.0000 0.0000 1.0000 173.3044 109.1883)">
<text font-family="Times New Roman" fill="#000000" style ="white-space:pre;" font-weight="400" text-anchor="start" x="0.0000" y="0.0000" font-size="16.0000" ><![CDATA[RF chains in ]]></text>
</g>
<g transform="matrix(1.0000 0.0000 0.0000 1.0000 194.2000 128.3884)">
<text font-family="Times New Roman" fill="#000000" style ="white-space:pre;" font-weight="400" text-anchor="start" x="0.0000" y="0.0000" font-size="16.0000" ><![CDATA[LLS]]></text>
</g>
<g transform="matrix(1.0000 0.0000 0.0000 1.0000 222.6454 128.3884)">
<text font-family="Times New Roman" fill="#000000" style ="white-space:pre;" font-weight="400" text-anchor="start" x="0.0000" y="0.0000" font-size="16.0000" ><![CDATA[)]]></text>
</g>
<g transform="matrix(1.0000 0.0000 0.0000 1.0000 416.8348 17.1347)">
<text font-family="Times New Roman" fill="#000000" font-style="italic" style ="white-space:pre;" font-weight="400" text-anchor="start" x="0.0000" y="0.0000" font-size="16.0000" ><![CDATA[M ]]></text>
</g>
<g transform="matrix(1.0000 0.0000 0.0000 1.0000 434.1632 17.1347)">
<text font-family="Times New Roman" fill="#000000" style ="white-space:pre;" font-weight="400" text-anchor="start" x="0.0000" y="0.0000" font-size="16.0000" ><![CDATA[antenna elements]]></text>
</g>
<g transform="matrix(1.0000 0.0000 0.0000 1.0000 259.7811 331.5063)">
<text font-family="Times New Roman" fill="#000000" style ="white-space:pre;" font-weight="400" text-anchor="start" x="0.0000" y="0.0000" font-size="16.0000" ><![CDATA[Antenna gain component ]]></text>
</g>
<g transform="matrix(1.0000 0.0000 0.0000 1.0000 424.6280 331.5063)">
<text font-family="Times New Roman" fill="#000000" style ="white-space:pre;" font-weight="400" text-anchor="start" x="0.0000" y="0.0000" font-size="16.0000" ><![CDATA[3]]></text>
</g>
<g transform="matrix(0.0625 0.0000 0.0000 0.0625 0.0000 0.0000)">
<path d="M 7268.0000,1002.0000 L 7263.0000,959.0000 C 7262.0000,959.0000 7262.0000,958.0000 7263.0000,958.0000 L 7270.0000,900.0000 C 7270.0000,899.0000 7270.0000,898.0000 7270.0000,898.0000 L 7274.0000,887.0000 C 7275.0000,883.0000 7280.0000,881.0000 7284.0000,882.0000 C 7288.0000,884.0000 7290.0000,888.0000 7289.0000,892.0000 L 7289.0000,892.0000 L 7285.0000,903.0000 L 7285.0000,901.0000 L 7278.0000,959.0000 L 7278.0000,958.0000 L 7283.0000,1000.0000 C 7284.0000,1004.0000 7281.0000,1008.0000 7277.0000,1009.0000 C 7272.0000,1009.0000 7268.0000,1006.0000 7268.0000,1002.0000 Z M 7307.0000,813.0000 L 7321.0000,792.0000 C 7321.0000,792.0000 7321.0000,791.0000 7322.0000,791.0000 L 7363.0000,748.0000 C 7363.0000,748.0000 7363.0000,747.0000 7364.0000,747.0000 L 7387.0000,731.0000 C 7390.0000,728.0000 7395.0000,729.0000 7398.0000,733.0000 C 7400.0000,736.0000 7399.0000,741.0000 7396.0000,744.0000 L 7396.0000,744.0000 L 7373.0000,760.0000 L 7374.0000,759.0000 L 7333.0000,802.0000 L 7334.0000,801.0000 L 7321.0000,822.0000 C 7319.0000,825.0000 7314.0000,827.0000 7310.0000,824.0000 C 7306.0000,822.0000 7305.0000,817.0000 7307.0000,813.0000 Z M 7457.0000,691.0000 L 7470.0000,684.0000 C 7470.0000,684.0000 7471.0000,684.0000 7471.0000,684.0000 L 7534.0000,667.0000 C 7535.0000,667.0000 7535.0000,667.0000 7536.0000,666.0000 L 7568.0000,664.0000 C 7572.0000,663.0000 7576.0000,666.0000 7577.0000,671.0000 C 7577.0000,675.0000 7574.0000,679.0000 7569.0000,680.0000 L 7537.0000,682.0000 L 7539.0000,682.0000 L 7476.0000,699.0000 L 7477.0000,699.0000 L 7464.0000,705.0000 C 7460.0000,707.0000 7455.0000,705.0000 7453.0000,701.0000 C 7451.0000,697.0000 7453.0000,692.0000 7457.0000,691.0000 Z M 7649.0000,665.0000 L 7671.0000,666.0000 C 7672.0000,667.0000 7672.0000,667.0000 7673.0000,667.0000 L 7736.0000,684.0000 C 7736.0000,684.0000 7736.0000,684.0000 7737.0000,684.0000 L 7759.0000,695.0000 C 7763.0000,697.0000 7765.0000,702.0000 7763.0000,706.0000 C 7761.0000,710.0000 7756.0000,711.0000 7752.0000,709.0000 L 7730.0000,699.0000 L 7731.0000,699.0000 L 7668.0000,682.0000 L 7670.0000,682.0000 L 7648.0000,680.0000 C 7643.0000,680.0000 7640.0000,676.0000 7641.0000,672.0000 C 7641.0000,667.0000 7645.0000,664.0000 7649.0000,665.0000 Z M 7829.0000,736.0000 L 7844.0000,747.0000 C 7845.0000,747.0000 7845.0000,748.0000 7845.0000,748.0000 L 7885.0000,791.0000 C 7886.0000,791.0000 7886.0000,792.0000 7886.0000,792.0000 L 7905.0000,822.0000 C 7907.0000,826.0000 7906.0000,831.0000 7903.0000,833.0000 C 7899.0000,835.0000 7894.0000,834.0000 7891.0000,830.0000 L 7873.0000,801.0000 L 7874.0000,802.0000 L 7834.0000,759.0000 L 7835.0000,760.0000 L 7820.0000,750.0000 C 7816.0000,747.0000 7815.0000,742.0000 7818.0000,738.0000 C 7820.0000,735.0000 7825.0000,734.0000 7829.0000,736.0000 Z M 7937.0000,897.0000 L 7937.0000,898.0000 C 7937.0000,898.0000 7937.0000,899.0000 7937.0000,900.0000 L 7944.0000,958.0000 C 7944.0000,958.0000 7944.0000,959.0000 7944.0000,959.0000 L 7938.0000,1012.0000 C 7938.0000,1016.0000 7934.0000,1019.0000 7929.0000,1019.0000 C 7925.0000,1018.0000 7922.0000,1014.0000 7922.0000,1010.0000 L 7929.0000,958.0000 L 7929.0000,959.0000 L 7922.0000,901.0000 L 7922.0000,903.0000 L 7922.0000,902.0000 C 7920.0000,898.0000 7922.0000,893.0000 7927.0000,892.0000 C 7931.0000,891.0000 7935.0000,893.0000 7937.0000,897.0000 Z M 7909.0000,1089.0000 L 7886.0000,1125.0000 C 7886.0000,1125.0000 7886.0000,1126.0000 7885.0000,1126.0000 L 7845.0000,1169.0000 C 7845.0000,1169.0000 7845.0000,1170.0000 7844.0000,1170.0000 L 7835.0000,1177.0000 C 7831.0000,1179.0000 7826.0000,1178.0000 7823.0000,1175.0000 C 7821.0000,1171.0000 7822.0000,1166.0000 7825.0000,1164.0000 L 7835.0000,1157.0000 L 7834.0000,1158.0000 L 7874.0000,1115.0000 L 7873.0000,1116.0000 L 7895.0000,1081.0000 C 7897.0000,1077.0000 7902.0000,1076.0000 7906.0000,1078.0000 C 7910.0000,1081.0000 7911.0000,1086.0000 7909.0000,1089.0000 Z M 7765.0000,1219.0000 L 7737.0000,1233.0000 C 7736.0000,1233.0000 7736.0000,1233.0000 7736.0000,1233.0000 L 7673.0000,1250.0000 C 7672.0000,1250.0000 7672.0000,1250.0000 7671.0000,1250.0000 L 7656.0000,1252.0000 C 7652.0000,1252.0000 7648.0000,1249.0000 7647.0000,1245.0000 C 7647.0000,1240.0000 7650.0000,1236.0000 7654.0000,1236.0000 L 7670.0000,1234.0000 L 7668.0000,1235.0000 L 7731.0000,1218.0000 L 7730.0000,1218.0000 L 7758.0000,1205.0000 C 7762.0000,1203.0000 7767.0000,1204.0000 7769.0000,1208.0000 C 7771.0000,1212.0000 7769.0000,1217.0000 7765.0000,1219.0000 Z M 7575.0000,1254.0000 L 7536.0000,1250.0000 C 7535.0000,1250.0000 7535.0000,1250.0000 7534.0000,1250.0000 L 7471.0000,1233.0000 C 7471.0000,1233.0000 7470.0000,1233.0000 7470.0000,1233.0000 L 7463.0000,1229.0000 C 7459.0000,1227.0000 7457.0000,1223.0000 7459.0000,1219.0000 C 7461.0000,1215.0000 7466.0000,1213.0000 7470.0000,1215.0000 L 7477.0000,1218.0000 L 7476.0000,1218.0000 L 7539.0000,1235.0000 L 7537.0000,1234.0000 L 7576.0000,1238.0000 C 7581.0000,1238.0000 7584.0000,1242.0000 7583.0000,1247.0000 C 7583.0000,1251.0000 7579.0000,1254.0000 7575.0000,1254.0000 Z M 7392.0000,1190.0000 L 7364.0000,1170.0000 C 7363.0000,1170.0000 7363.0000,1169.0000 7363.0000,1169.0000 L 7322.0000,1126.0000 C 7321.0000,1126.0000 7321.0000,1125.0000 7321.0000,1125.0000 L 7311.0000,1109.0000 C 7309.0000,1106.0000 7310.0000,1101.0000 7313.0000,1098.0000 C 7317.0000,1096.0000 7322.0000,1097.0000 7325.0000,1101.0000 L 7334.0000,1116.0000 L 7333.0000,1115.0000 L 7374.0000,1158.0000 L 7373.0000,1157.0000 L 7401.0000,1177.0000 C 7405.0000,1180.0000 7406.0000,1185.0000 7403.0000,1188.0000 C 7401.0000,1192.0000 7396.0000,1193.0000 7392.0000,1190.0000 Z M 7276.0000,1036.0000 L 7270.0000,1019.0000 C 7268.0000,1015.0000 7271.0000,1010.0000 7275.0000,1009.0000 C 7279.0000,1007.0000 7284.0000,1010.0000 7285.0000,1014.0000 L 7285.0000,1014.0000 L 7291.0000,1031.0000 C 7292.0000,1035.0000 7290.0000,1040.0000 7286.0000,1041.0000 C 7282.0000,1042.0000 7277.0000,1040.0000 7276.0000,1036.0000 Z "  fill="#FF0000" stroke="#FF0000" stroke-width="1.0000"  stroke-linecap="butt"  stroke-linejoin="round" />
</g>
<g transform="matrix(1.0000 0.0000 0.0000 1.0000 0.0000 0.0000)">
</g>
<g transform="matrix(0.0625 0.0000 0.0000 0.0625 0.0000 0.0000)">
<path d="M 7936.0000,958.0000 L 8408.0000,958.0000 " stroke="#FF0000" stroke-width="16.0000"  stroke-linecap="round"  stroke-linejoin="round" fill="none" />
</g>
<g transform="matrix(1.0000 0.0000 0.0000 1.0000 0.0000 0.0000)">
</g>
<g transform="matrix(0.0625 0.0000 0.0000 0.0625 0.0000 0.0000)">
<path d="M 8393.0000,899.0000 L 8570.0000,958.0000 L 8393.0000,1017.0000 L 8393.0000,899.0000 Z" stroke-width="1px" stroke="#FF0000"  fill="#FF0000" />
</g>
<g transform="matrix(1.0000 0.0000 0.0000 1.0000 0.0000 0.0000)">
</g>
<g transform="matrix(1.0000 0.0000 0.0000 1.0000 551.6262 58.0727)">
<text font-family="Times New Roman" fill="#FF0000" style ="white-space:pre;" font-weight="400" text-anchor="start" x="0.0000" y="0.0000" font-size="16.0000" ><![CDATA[single antenna ]]></text>
</g>
<g transform="matrix(1.0000 0.0000 0.0000 1.0000 556.5173 77.2728)">
<text font-family="Times New Roman" fill="#FF0000" style ="white-space:pre;" font-weight="400" text-anchor="start" x="0.0000" y="0.0000" font-size="16.0000" ><![CDATA[element gain]]></text>
</g>
<g transform="matrix(0.0625 0.0000 0.0000 0.0625 0.0000 0.0000)">
<path d="M 478.0000,1431.0000 L 478.0000,1581.0000 C 478.0000,1587.0000 473.0000,1591.0000 467.0000,1591.0000 C 461.0000,1591.0000 457.0000,1587.0000 457.0000,1581.0000 L 457.0000,1431.0000 C 457.0000,1425.0000 461.0000,1421.0000 467.0000,1421.0000 C 473.0000,1421.0000 478.0000,1425.0000 478.0000,1431.0000 Z M 478.0000,1687.0000 L 478.0000,1837.0000 C 478.0000,1843.0000 473.0000,1847.0000 467.0000,1847.0000 C 461.0000,1847.0000 457.0000,1843.0000 457.0000,1837.0000 L 457.0000,1687.0000 C 457.0000,1681.0000 461.0000,1677.0000 467.0000,1677.0000 C 473.0000,1677.0000 478.0000,1681.0000 478.0000,1687.0000 Z M 478.0000,1943.0000 L 478.0000,2093.0000 C 478.0000,2099.0000 473.0000,2103.0000 467.0000,2103.0000 C 461.0000,2103.0000 457.0000,2099.0000 457.0000,2093.0000 L 457.0000,1943.0000 C 457.0000,1937.0000 461.0000,1933.0000 467.0000,1933.0000 C 473.0000,1933.0000 478.0000,1937.0000 478.0000,1943.0000 Z M 478.0000,2199.0000 L 478.0000,2349.0000 C 478.0000,2355.0000 473.0000,2359.0000 467.0000,2359.0000 C 461.0000,2359.0000 457.0000,2355.0000 457.0000,2349.0000 L 457.0000,2199.0000 C 457.0000,2193.0000 461.0000,2189.0000 467.0000,2189.0000 C 473.0000,2189.0000 478.0000,2193.0000 478.0000,2199.0000 Z M 478.0000,2455.0000 L 478.0000,2605.0000 C 478.0000,2611.0000 473.0000,2615.0000 467.0000,2615.0000 C 461.0000,2615.0000 457.0000,2611.0000 457.0000,2605.0000 L 457.0000,2455.0000 C 457.0000,2449.0000 461.0000,2445.0000 467.0000,2445.0000 C 473.0000,2445.0000 478.0000,2449.0000 478.0000,2455.0000 Z M 478.0000,2711.0000 L 478.0000,2861.0000 C 478.0000,2867.0000 473.0000,2871.0000 467.0000,2871.0000 C 461.0000,2871.0000 457.0000,2867.0000 457.0000,2861.0000 L 457.0000,2711.0000 C 457.0000,2705.0000 461.0000,2701.0000 467.0000,2701.0000 C 473.0000,2701.0000 478.0000,2705.0000 478.0000,2711.0000 Z M 478.0000,2967.0000 L 478.0000,3117.0000 C 478.0000,3123.0000 473.0000,3127.0000 467.0000,3127.0000 C 461.0000,3127.0000 457.0000,3123.0000 457.0000,3117.0000 L 457.0000,2967.0000 C 457.0000,2961.0000 461.0000,2957.0000 467.0000,2957.0000 C 473.0000,2957.0000 478.0000,2961.0000 478.0000,2967.0000 Z M 478.0000,3223.0000 L 478.0000,3373.0000 C 478.0000,3379.0000 473.0000,3383.0000 467.0000,3383.0000 C 461.0000,3383.0000 457.0000,3379.0000 457.0000,3373.0000 L 457.0000,3223.0000 C 457.0000,3217.0000 461.0000,3213.0000 467.0000,3213.0000 C 473.0000,3213.0000 478.0000,3217.0000 478.0000,3223.0000 Z M 478.0000,3479.0000 L 478.0000,3629.0000 C 478.0000,3635.0000 473.0000,3639.0000 467.0000,3639.0000 C 461.0000,3639.0000 457.0000,3635.0000 457.0000,3629.0000 L 457.0000,3479.0000 C 457.0000,3473.0000 461.0000,3469.0000 467.0000,3469.0000 C 473.0000,3469.0000 478.0000,3473.0000 478.0000,3479.0000 Z M 478.0000,3735.0000 L 478.0000,3885.0000 C 478.0000,3891.0000 473.0000,3895.0000 467.0000,3895.0000 C 461.0000,3895.0000 457.0000,3891.0000 457.0000,3885.0000 L 457.0000,3735.0000 C 457.0000,3729.0000 461.0000,3725.0000 467.0000,3725.0000 C 473.0000,3725.0000 478.0000,3729.0000 478.0000,3735.0000 Z M 478.0000,3991.0000 L 478.0000,4131.0000 L 467.0000,4121.0000 L 477.0000,4121.0000 C 482.0000,4121.0000 487.0000,4125.0000 487.0000,4131.0000 C 487.0000,4137.0000 482.0000,4142.0000 477.0000,4142.0000 L 467.0000,4142.0000 C 461.0000,4142.0000 457.0000,4137.0000 457.0000,4131.0000 L 457.0000,3991.0000 C 457.0000,3985.0000 461.0000,3981.0000 467.0000,3981.0000 C 473.0000,3981.0000 478.0000,3985.0000 478.0000,3991.0000 Z M 583.0000,4121.0000 L 733.0000,4121.0000 C 738.0000,4121.0000 743.0000,4125.0000 743.0000,4131.0000 C 743.0000,4137.0000 738.0000,4142.0000 733.0000,4142.0000 L 583.0000,4142.0000 C 577.0000,4142.0000 573.0000,4137.0000 573.0000,4131.0000 C 573.0000,4125.0000 577.0000,4121.0000 583.0000,4121.0000 Z M 839.0000,4121.0000 L 989.0000,4121.0000 C 994.0000,4121.0000 999.0000,4125.0000 999.0000,4131.0000 C 999.0000,4137.0000 994.0000,4142.0000 989.0000,4142.0000 L 839.0000,4142.0000 C 833.0000,4142.0000 829.0000,4137.0000 829.0000,4131.0000 C 829.0000,4125.0000 833.0000,4121.0000 839.0000,4121.0000 Z M 1095.0000,4121.0000 L 1245.0000,4121.0000 C 1250.0000,4121.0000 1255.0000,4125.0000 1255.0000,4131.0000 C 1255.0000,4137.0000 1250.0000,4142.0000 1245.0000,4142.0000 L 1095.0000,4142.0000 C 1089.0000,4142.0000 1085.0000,4137.0000 1085.0000,4131.0000 C 1085.0000,4125.0000 1089.0000,4121.0000 1095.0000,4121.0000 Z M 1351.0000,4121.0000 L 1501.0000,4121.0000 C 1506.0000,4121.0000 1511.0000,4125.0000 1511.0000,4131.0000 C 1511.0000,4137.0000 1506.0000,4142.0000 1501.0000,4142.0000 L 1351.0000,4142.0000 C 1345.0000,4142.0000 1341.0000,4137.0000 1341.0000,4131.0000 C 1341.0000,4125.0000 1345.0000,4121.0000 1351.0000,4121.0000 Z M 1607.0000,4121.0000 L 1757.0000,4121.0000 C 1762.0000,4121.0000 1767.0000,4125.0000 1767.0000,4131.0000 C 1767.0000,4137.0000 1762.0000,4142.0000 1757.0000,4142.0000 L 1607.0000,4142.0000 C 1601.0000,4142.0000 1597.0000,4137.0000 1597.0000,4131.0000 C 1597.0000,4125.0000 1601.0000,4121.0000 1607.0000,4121.0000 Z M 1863.0000,4121.0000 L 2013.0000,4121.0000 C 2018.0000,4121.0000 2023.0000,4125.0000 2023.0000,4131.0000 C 2023.0000,4137.0000 2018.0000,4142.0000 2013.0000,4142.0000 L 1863.0000,4142.0000 C 1857.0000,4142.0000 1853.0000,4137.0000 1853.0000,4131.0000 C 1853.0000,4125.0000 1857.0000,4121.0000 1863.0000,4121.0000 Z M 2119.0000,4121.0000 L 2269.0000,4121.0000 C 2274.0000,4121.0000 2279.0000,4125.0000 2279.0000,4131.0000 C 2279.0000,4137.0000 2274.0000,4142.0000 2269.0000,4142.0000 L 2119.0000,4142.0000 C 2113.0000,4142.0000 2109.0000,4137.0000 2109.0000,4131.0000 C 2109.0000,4125.0000 2113.0000,4121.0000 2119.0000,4121.0000 Z M 2375.0000,4121.0000 L 2523.0000,4121.0000 L 2513.0000,4131.0000 L 2513.0000,4130.0000 C 2513.0000,4124.0000 2517.0000,4119.0000 2523.0000,4119.0000 C 2529.0000,4119.0000 2534.0000,4124.0000 2534.0000,4130.0000 L 2534.0000,4131.0000 C 2534.0000,4137.0000 2529.0000,4142.0000 2523.0000,4142.0000 L 2375.0000,4142.0000 C 2369.0000,4142.0000 2365.0000,4137.0000 2365.0000,4131.0000 C 2365.0000,4125.0000 2369.0000,4121.0000 2375.0000,4121.0000 Z M 2513.0000,4023.0000 L 2513.0000,3874.0000 C 2513.0000,3868.0000 2517.0000,3863.0000 2523.0000,3863.0000 C 2529.0000,3863.0000 2534.0000,3868.0000 2534.0000,3874.0000 L 2534.0000,4023.0000 C 2534.0000,4029.0000 2529.0000,4034.0000 2523.0000,4034.0000 C 2517.0000,4034.0000 2513.0000,4029.0000 2513.0000,4023.0000 Z M 2513.0000,3767.0000 L 2513.0000,3618.0000 C 2513.0000,3612.0000 2517.0000,3607.0000 2523.0000,3607.0000 C 2529.0000,3607.0000 2534.0000,3612.0000 2534.0000,3618.0000 L 2534.0000,3767.0000 C 2534.0000,3773.0000 2529.0000,3778.0000 2523.0000,3778.0000 C 2517.0000,3778.0000 2513.0000,3773.0000 2513.0000,3767.0000 Z M 2513.0000,3511.0000 L 2513.0000,3362.0000 C 2513.0000,3356.0000 2517.0000,3351.0000 2523.0000,3351.0000 C 2529.0000,3351.0000 2534.0000,3356.0000 2534.0000,3362.0000 L 2534.0000,3511.0000 C 2534.0000,3517.0000 2529.0000,3522.0000 2523.0000,3522.0000 C 2517.0000,3522.0000 2513.0000,3517.0000 2513.0000,3511.0000 Z M 2513.0000,3255.0000 L 2513.0000,3106.0000 C 2513.0000,3100.0000 2517.0000,3095.0000 2523.0000,3095.0000 C 2529.0000,3095.0000 2534.0000,3100.0000 2534.0000,3106.0000 L 2534.0000,3255.0000 C 2534.0000,3261.0000 2529.0000,3266.0000 2523.0000,3266.0000 C 2517.0000,3266.0000 2513.0000,3261.0000 2513.0000,3255.0000 Z M 2513.0000,2999.0000 L 2513.0000,2850.0000 C 2513.0000,2844.0000 2517.0000,2839.0000 2523.0000,2839.0000 C 2529.0000,2839.0000 2534.0000,2844.0000 2534.0000,2850.0000 L 2534.0000,2999.0000 C 2534.0000,3005.0000 2529.0000,3010.0000 2523.0000,3010.0000 C 2517.0000,3010.0000 2513.0000,3005.0000 2513.0000,2999.0000 Z M 2513.0000,2743.0000 L 2513.0000,2594.0000 C 2513.0000,2588.0000 2517.0000,2583.0000 2523.0000,2583.0000 C 2529.0000,2583.0000 2534.0000,2588.0000 2534.0000,2594.0000 L 2534.0000,2743.0000 C 2534.0000,2749.0000 2529.0000,2754.0000 2523.0000,2754.0000 C 2517.0000,2754.0000 2513.0000,2749.0000 2513.0000,2743.0000 Z M 2513.0000,2487.0000 L 2513.0000,2338.0000 C 2513.0000,2332.0000 2517.0000,2327.0000 2523.0000,2327.0000 C 2529.0000,2327.0000 2534.0000,2332.0000 2534.0000,2338.0000 L 2534.0000,2487.0000 C 2534.0000,2493.0000 2529.0000,2498.0000 2523.0000,2498.0000 C 2517.0000,2498.0000 2513.0000,2493.0000 2513.0000,2487.0000 Z M 2513.0000,2231.0000 L 2513.0000,2082.0000 C 2513.0000,2076.0000 2517.0000,2071.0000 2523.0000,2071.0000 C 2529.0000,2071.0000 2534.0000,2076.0000 2534.0000,2082.0000 L 2534.0000,2231.0000 C 2534.0000,2237.0000 2529.0000,2242.0000 2523.0000,2242.0000 C 2517.0000,2242.0000 2513.0000,2237.0000 2513.0000,2231.0000 Z M 2513.0000,1975.0000 L 2513.0000,1826.0000 C 2513.0000,1820.0000 2517.0000,1815.0000 2523.0000,1815.0000 C 2529.0000,1815.0000 2534.0000,1820.0000 2534.0000,1826.0000 L 2534.0000,1975.0000 C 2534.0000,1981.0000 2529.0000,1986.0000 2523.0000,1986.0000 C 2517.0000,1986.0000 2513.0000,1981.0000 2513.0000,1975.0000 Z M 2513.0000,1719.0000 L 2513.0000,1570.0000 C 2513.0000,1564.0000 2517.0000,1559.0000 2523.0000,1559.0000 C 2529.0000,1559.0000 2534.0000,1564.0000 2534.0000,1570.0000 L 2534.0000,1719.0000 C 2534.0000,1725.0000 2529.0000,1730.0000 2523.0000,1730.0000 C 2517.0000,1730.0000 2513.0000,1725.0000 2513.0000,1719.0000 Z M 2513.0000,1463.0000 L 2513.0000,1410.0000 L 2523.0000,1421.0000 L 2427.0000,1421.0000 C 2421.0000,1421.0000 2416.0000,1416.0000 2416.0000,1410.0000 C 2416.0000,1404.0000 2421.0000,1399.0000 2427.0000,1399.0000 L 2523.0000,1399.0000 C 2529.0000,1399.0000 2534.0000,1404.0000 2534.0000,1410.0000 L 2534.0000,1463.0000 C 2534.0000,1469.0000 2529.0000,1474.0000 2523.0000,1474.0000 C 2517.0000,1474.0000 2513.0000,1469.0000 2513.0000,1463.0000 Z M 2320.0000,1421.0000 L 2171.0000,1421.0000 C 2165.0000,1421.0000 2160.0000,1416.0000 2160.0000,1410.0000 C 2160.0000,1404.0000 2165.0000,1399.0000 2171.0000,1399.0000 L 2320.0000,1399.0000 C 2326.0000,1399.0000 2331.0000,1404.0000 2331.0000,1410.0000 C 2331.0000,1416.0000 2326.0000,1421.0000 2320.0000,1421.0000 Z M 2064.0000,1421.0000 L 1915.0000,1421.0000 C 1909.0000,1421.0000 1904.0000,1416.0000 1904.0000,1410.0000 C 1904.0000,1404.0000 1909.0000,1399.0000 1915.0000,1399.0000 L 2064.0000,1399.0000 C 2070.0000,1399.0000 2075.0000,1404.0000 2075.0000,1410.0000 C 2075.0000,1416.0000 2070.0000,1421.0000 2064.0000,1421.0000 Z M 1808.0000,1421.0000 L 1659.0000,1421.0000 C 1653.0000,1421.0000 1648.0000,1416.0000 1648.0000,1410.0000 C 1648.0000,1404.0000 1653.0000,1399.0000 1659.0000,1399.0000 L 1808.0000,1399.0000 C 1814.0000,1399.0000 1819.0000,1404.0000 1819.0000,1410.0000 C 1819.0000,1416.0000 1814.0000,1421.0000 1808.0000,1421.0000 Z M 1552.0000,1421.0000 L 1403.0000,1421.0000 C 1397.0000,1421.0000 1392.0000,1416.0000 1392.0000,1410.0000 C 1392.0000,1404.0000 1397.0000,1399.0000 1403.0000,1399.0000 L 1552.0000,1399.0000 C 1558.0000,1399.0000 1563.0000,1404.0000 1563.0000,1410.0000 C 1563.0000,1416.0000 1558.0000,1421.0000 1552.0000,1421.0000 Z M 1296.0000,1421.0000 L 1147.0000,1421.0000 C 1141.0000,1421.0000 1136.0000,1416.0000 1136.0000,1410.0000 C 1136.0000,1404.0000 1141.0000,1399.0000 1147.0000,1399.0000 L 1296.0000,1399.0000 C 1302.0000,1399.0000 1307.0000,1404.0000 1307.0000,1410.0000 C 1307.0000,1416.0000 1302.0000,1421.0000 1296.0000,1421.0000 Z M 1040.0000,1421.0000 L 891.0000,1421.0000 C 885.0000,1421.0000 880.0000,1416.0000 880.0000,1410.0000 C 880.0000,1404.0000 885.0000,1399.0000 891.0000,1399.0000 L 1040.0000,1399.0000 C 1046.0000,1399.0000 1051.0000,1404.0000 1051.0000,1410.0000 C 1051.0000,1416.0000 1046.0000,1421.0000 1040.0000,1421.0000 Z M 784.0000,1421.0000 L 635.0000,1421.0000 C 629.0000,1421.0000 624.0000,1416.0000 624.0000,1410.0000 C 624.0000,1404.0000 629.0000,1399.0000 635.0000,1399.0000 L 784.0000,1399.0000 C 790.0000,1399.0000 795.0000,1404.0000 795.0000,1410.0000 C 795.0000,1416.0000 790.0000,1421.0000 784.0000,1421.0000 Z M 528.0000,1421.0000 L 467.0000,1421.0000 C 461.0000,1421.0000 457.0000,1416.0000 457.0000,1410.0000 C 457.0000,1404.0000 461.0000,1399.0000 467.0000,1399.0000 L 528.0000,1399.0000 C 534.0000,1399.0000 539.0000,1404.0000 539.0000,1410.0000 C 539.0000,1416.0000 534.0000,1421.0000 528.0000,1421.0000 Z "  fill="#404040" stroke="#404040" stroke-width="1.0000"  stroke-linecap="butt"  stroke-linejoin="round" />
</g>
<g transform="matrix(1.0000 0.0000 0.0000 1.0000 0.0000 0.0000)">
</g>
<g transform="matrix(0.0625 0.0000 0.0000 0.0625 0.0000 0.0000)">
<path d="M 4318.0000,537.0000 L 4318.0000,686.0000 C 4318.0000,692.0000 4313.0000,697.0000 4307.0000,697.0000 C 4301.0000,697.0000 4297.0000,692.0000 4297.0000,686.0000 L 4297.0000,537.0000 C 4297.0000,531.0000 4301.0000,526.0000 4307.0000,526.0000 C 4313.0000,526.0000 4318.0000,531.0000 4318.0000,537.0000 Z M 4318.0000,793.0000 L 4318.0000,942.0000 C 4318.0000,948.0000 4313.0000,953.0000 4307.0000,953.0000 C 4301.0000,953.0000 4297.0000,948.0000 4297.0000,942.0000 L 4297.0000,793.0000 C 4297.0000,787.0000 4301.0000,782.0000 4307.0000,782.0000 C 4313.0000,782.0000 4318.0000,787.0000 4318.0000,793.0000 Z M 4318.0000,1049.0000 L 4318.0000,1198.0000 C 4318.0000,1204.0000 4313.0000,1209.0000 4307.0000,1209.0000 C 4301.0000,1209.0000 4297.0000,1204.0000 4297.0000,1198.0000 L 4297.0000,1049.0000 C 4297.0000,1043.0000 4301.0000,1038.0000 4307.0000,1038.0000 C 4313.0000,1038.0000 4318.0000,1043.0000 4318.0000,1049.0000 Z M 4318.0000,1305.0000 L 4318.0000,1454.0000 C 4318.0000,1460.0000 4313.0000,1465.0000 4307.0000,1465.0000 C 4301.0000,1465.0000 4297.0000,1460.0000 4297.0000,1454.0000 L 4297.0000,1305.0000 C 4297.0000,1299.0000 4301.0000,1294.0000 4307.0000,1294.0000 C 4313.0000,1294.0000 4318.0000,1299.0000 4318.0000,1305.0000 Z M 4318.0000,1561.0000 L 4318.0000,1710.0000 C 4318.0000,1716.0000 4313.0000,1721.0000 4307.0000,1721.0000 C 4301.0000,1721.0000 4297.0000,1716.0000 4297.0000,1710.0000 L 4297.0000,1561.0000 C 4297.0000,1555.0000 4301.0000,1550.0000 4307.0000,1550.0000 C 4313.0000,1550.0000 4318.0000,1555.0000 4318.0000,1561.0000 Z M 4318.0000,1817.0000 L 4318.0000,1966.0000 C 4318.0000,1972.0000 4313.0000,1977.0000 4307.0000,1977.0000 C 4301.0000,1977.0000 4297.0000,1972.0000 4297.0000,1966.0000 L 4297.0000,1817.0000 C 4297.0000,1811.0000 4301.0000,1806.0000 4307.0000,1806.0000 C 4313.0000,1806.0000 4318.0000,1811.0000 4318.0000,1817.0000 Z M 4318.0000,2073.0000 L 4318.0000,2222.0000 C 4318.0000,2228.0000 4313.0000,2233.0000 4307.0000,2233.0000 C 4301.0000,2233.0000 4297.0000,2228.0000 4297.0000,2222.0000 L 4297.0000,2073.0000 C 4297.0000,2067.0000 4301.0000,2062.0000 4307.0000,2062.0000 C 4313.0000,2062.0000 4318.0000,2067.0000 4318.0000,2073.0000 Z M 4318.0000,2329.0000 L 4318.0000,2478.0000 C 4318.0000,2484.0000 4313.0000,2489.0000 4307.0000,2489.0000 C 4301.0000,2489.0000 4297.0000,2484.0000 4297.0000,2478.0000 L 4297.0000,2329.0000 C 4297.0000,2323.0000 4301.0000,2318.0000 4307.0000,2318.0000 C 4313.0000,2318.0000 4318.0000,2323.0000 4318.0000,2329.0000 Z M 4318.0000,2585.0000 L 4318.0000,2734.0000 C 4318.0000,2740.0000 4313.0000,2745.0000 4307.0000,2745.0000 C 4301.0000,2745.0000 4297.0000,2740.0000 4297.0000,2734.0000 L 4297.0000,2585.0000 C 4297.0000,2579.0000 4301.0000,2574.0000 4307.0000,2574.0000 C 4313.0000,2574.0000 4318.0000,2579.0000 4318.0000,2585.0000 Z M 4318.0000,2841.0000 L 4318.0000,2990.0000 C 4318.0000,2996.0000 4313.0000,3001.0000 4307.0000,3001.0000 C 4301.0000,3001.0000 4297.0000,2996.0000 4297.0000,2990.0000 L 4297.0000,2841.0000 C 4297.0000,2835.0000 4301.0000,2830.0000 4307.0000,2830.0000 C 4313.0000,2830.0000 4318.0000,2835.0000 4318.0000,2841.0000 Z M 4318.0000,3097.0000 L 4318.0000,3246.0000 C 4318.0000,3252.0000 4313.0000,3257.0000 4307.0000,3257.0000 C 4301.0000,3257.0000 4297.0000,3252.0000 4297.0000,3246.0000 L 4297.0000,3097.0000 C 4297.0000,3091.0000 4301.0000,3086.0000 4307.0000,3086.0000 C 4313.0000,3086.0000 4318.0000,3091.0000 4318.0000,3097.0000 Z M 4318.0000,3353.0000 L 4318.0000,3502.0000 C 4318.0000,3508.0000 4313.0000,3513.0000 4307.0000,3513.0000 C 4301.0000,3513.0000 4297.0000,3508.0000 4297.0000,3502.0000 L 4297.0000,3353.0000 C 4297.0000,3347.0000 4301.0000,3342.0000 4307.0000,3342.0000 C 4313.0000,3342.0000 4318.0000,3347.0000 4318.0000,3353.0000 Z M 4318.0000,3609.0000 L 4318.0000,3758.0000 C 4318.0000,3764.0000 4313.0000,3769.0000 4307.0000,3769.0000 C 4301.0000,3769.0000 4297.0000,3764.0000 4297.0000,3758.0000 L 4297.0000,3609.0000 C 4297.0000,3603.0000 4301.0000,3598.0000 4307.0000,3598.0000 C 4313.0000,3598.0000 4318.0000,3603.0000 4318.0000,3609.0000 Z M 4318.0000,3865.0000 L 4318.0000,4014.0000 C 4318.0000,4020.0000 4313.0000,4025.0000 4307.0000,4025.0000 C 4301.0000,4025.0000 4297.0000,4020.0000 4297.0000,4014.0000 L 4297.0000,3865.0000 C 4297.0000,3859.0000 4301.0000,3854.0000 4307.0000,3854.0000 C 4313.0000,3854.0000 4318.0000,3859.0000 4318.0000,3865.0000 Z M 4318.0000,4121.0000 L 4318.0000,4270.0000 C 4318.0000,4276.0000 4313.0000,4281.0000 4307.0000,4281.0000 C 4301.0000,4281.0000 4297.0000,4276.0000 4297.0000,4270.0000 L 4297.0000,4121.0000 C 4297.0000,4115.0000 4301.0000,4110.0000 4307.0000,4110.0000 C 4313.0000,4110.0000 4318.0000,4115.0000 4318.0000,4121.0000 Z M 4318.0000,4377.0000 L 4318.0000,4526.0000 C 4318.0000,4532.0000 4313.0000,4537.0000 4307.0000,4537.0000 C 4301.0000,4537.0000 4297.0000,4532.0000 4297.0000,4526.0000 L 4297.0000,4377.0000 C 4297.0000,4371.0000 4301.0000,4366.0000 4307.0000,4366.0000 C 4313.0000,4366.0000 4318.0000,4371.0000 4318.0000,4377.0000 Z M 4318.0000,4633.0000 L 4318.0000,4782.0000 C 4318.0000,4788.0000 4313.0000,4793.0000 4307.0000,4793.0000 C 4301.0000,4793.0000 4297.0000,4788.0000 4297.0000,4782.0000 L 4297.0000,4633.0000 C 4297.0000,4627.0000 4301.0000,4622.0000 4307.0000,4622.0000 C 4313.0000,4622.0000 4318.0000,4627.0000 4318.0000,4633.0000 Z M 4318.0000,4889.0000 L 4318.0000,4978.0000 L 4307.0000,4967.0000 L 4367.0000,4967.0000 C 4373.0000,4967.0000 4378.0000,4972.0000 4378.0000,4978.0000 C 4378.0000,4984.0000 4373.0000,4989.0000 4367.0000,4989.0000 L 4307.0000,4989.0000 C 4301.0000,4989.0000 4297.0000,4984.0000 4297.0000,4978.0000 L 4297.0000,4889.0000 C 4297.0000,4883.0000 4301.0000,4878.0000 4307.0000,4878.0000 C 4313.0000,4878.0000 4318.0000,4883.0000 4318.0000,4889.0000 Z M 4474.0000,4967.0000 L 4623.0000,4967.0000 C 4629.0000,4967.0000 4634.0000,4972.0000 4634.0000,4978.0000 C 4634.0000,4984.0000 4629.0000,4989.0000 4623.0000,4989.0000 L 4474.0000,4989.0000 C 4468.0000,4989.0000 4463.0000,4984.0000 4463.0000,4978.0000 C 4463.0000,4972.0000 4468.0000,4967.0000 4474.0000,4967.0000 Z M 4730.0000,4967.0000 L 4879.0000,4967.0000 C 4885.0000,4967.0000 4890.0000,4972.0000 4890.0000,4978.0000 C 4890.0000,4984.0000 4885.0000,4989.0000 4879.0000,4989.0000 L 4730.0000,4989.0000 C 4724.0000,4989.0000 4719.0000,4984.0000 4719.0000,4978.0000 C 4719.0000,4972.0000 4724.0000,4967.0000 4730.0000,4967.0000 Z M 4986.0000,4967.0000 L 5135.0000,4967.0000 C 5141.0000,4967.0000 5146.0000,4972.0000 5146.0000,4978.0000 C 5146.0000,4984.0000 5141.0000,4989.0000 5135.0000,4989.0000 L 4986.0000,4989.0000 C 4980.0000,4989.0000 4975.0000,4984.0000 4975.0000,4978.0000 C 4975.0000,4972.0000 4980.0000,4967.0000 4986.0000,4967.0000 Z M 5242.0000,4967.0000 L 5391.0000,4967.0000 C 5397.0000,4967.0000 5402.0000,4972.0000 5402.0000,4978.0000 C 5402.0000,4984.0000 5397.0000,4989.0000 5391.0000,4989.0000 L 5242.0000,4989.0000 C 5236.0000,4989.0000 5231.0000,4984.0000 5231.0000,4978.0000 C 5231.0000,4972.0000 5236.0000,4967.0000 5242.0000,4967.0000 Z M 5498.0000,4967.0000 L 5647.0000,4967.0000 C 5653.0000,4967.0000 5658.0000,4972.0000 5658.0000,4978.0000 C 5658.0000,4984.0000 5653.0000,4989.0000 5647.0000,4989.0000 L 5498.0000,4989.0000 C 5492.0000,4989.0000 5487.0000,4984.0000 5487.0000,4978.0000 C 5487.0000,4972.0000 5492.0000,4967.0000 5498.0000,4967.0000 Z M 5754.0000,4967.0000 L 5903.0000,4967.0000 C 5909.0000,4967.0000 5914.0000,4972.0000 5914.0000,4978.0000 C 5914.0000,4984.0000 5909.0000,4989.0000 5903.0000,4989.0000 L 5754.0000,4989.0000 C 5748.0000,4989.0000 5743.0000,4984.0000 5743.0000,4978.0000 C 5743.0000,4972.0000 5748.0000,4967.0000 5754.0000,4967.0000 Z M 6010.0000,4967.0000 L 6159.0000,4967.0000 C 6165.0000,4967.0000 6170.0000,4972.0000 6170.0000,4978.0000 C 6170.0000,4984.0000 6165.0000,4989.0000 6159.0000,4989.0000 L 6010.0000,4989.0000 C 6004.0000,4989.0000 5999.0000,4984.0000 5999.0000,4978.0000 C 5999.0000,4972.0000 6004.0000,4967.0000 6010.0000,4967.0000 Z M 6266.0000,4967.0000 L 6415.0000,4967.0000 C 6421.0000,4967.0000 6426.0000,4972.0000 6426.0000,4978.0000 C 6426.0000,4984.0000 6421.0000,4989.0000 6415.0000,4989.0000 L 6266.0000,4989.0000 C 6260.0000,4989.0000 6255.0000,4984.0000 6255.0000,4978.0000 C 6255.0000,4972.0000 6260.0000,4967.0000 6266.0000,4967.0000 Z M 6504.0000,4970.0000 L 6504.0000,4821.0000 C 6504.0000,4815.0000 6509.0000,4810.0000 6514.0000,4810.0000 C 6520.0000,4810.0000 6525.0000,4815.0000 6525.0000,4821.0000 L 6525.0000,4970.0000 C 6525.0000,4976.0000 6520.0000,4981.0000 6514.0000,4981.0000 C 6509.0000,4981.0000 6504.0000,4976.0000 6504.0000,4970.0000 Z M 6504.0000,4714.0000 L 6504.0000,4565.0000 C 6504.0000,4559.0000 6509.0000,4554.0000 6514.0000,4554.0000 C 6520.0000,4554.0000 6525.0000,4559.0000 6525.0000,4565.0000 L 6525.0000,4714.0000 C 6525.0000,4720.0000 6520.0000,4725.0000 6514.0000,4725.0000 C 6509.0000,4725.0000 6504.0000,4720.0000 6504.0000,4714.0000 Z M 6504.0000,4458.0000 L 6504.0000,4309.0000 C 6504.0000,4303.0000 6509.0000,4298.0000 6514.0000,4298.0000 C 6520.0000,4298.0000 6525.0000,4303.0000 6525.0000,4309.0000 L 6525.0000,4458.0000 C 6525.0000,4464.0000 6520.0000,4469.0000 6514.0000,4469.0000 C 6509.0000,4469.0000 6504.0000,4464.0000 6504.0000,4458.0000 Z M 6504.0000,4202.0000 L 6504.0000,4053.0000 C 6504.0000,4047.0000 6509.0000,4042.0000 6514.0000,4042.0000 C 6520.0000,4042.0000 6525.0000,4047.0000 6525.0000,4053.0000 L 6525.0000,4202.0000 C 6525.0000,4208.0000 6520.0000,4213.0000 6514.0000,4213.0000 C 6509.0000,4213.0000 6504.0000,4208.0000 6504.0000,4202.0000 Z M 6504.0000,3946.0000 L 6504.0000,3797.0000 C 6504.0000,3791.0000 6509.0000,3786.0000 6514.0000,3786.0000 C 6520.0000,3786.0000 6525.0000,3791.0000 6525.0000,3797.0000 L 6525.0000,3946.0000 C 6525.0000,3952.0000 6520.0000,3957.0000 6514.0000,3957.0000 C 6509.0000,3957.0000 6504.0000,3952.0000 6504.0000,3946.0000 Z M 6504.0000,3690.0000 L 6504.0000,3541.0000 C 6504.0000,3535.0000 6509.0000,3530.0000 6514.0000,3530.0000 C 6520.0000,3530.0000 6525.0000,3535.0000 6525.0000,3541.0000 L 6525.0000,3690.0000 C 6525.0000,3696.0000 6520.0000,3701.0000 6514.0000,3701.0000 C 6509.0000,3701.0000 6504.0000,3696.0000 6504.0000,3690.0000 Z M 6504.0000,3434.0000 L 6504.0000,3285.0000 C 6504.0000,3279.0000 6509.0000,3274.0000 6514.0000,3274.0000 C 6520.0000,3274.0000 6525.0000,3279.0000 6525.0000,3285.0000 L 6525.0000,3434.0000 C 6525.0000,3440.0000 6520.0000,3445.0000 6514.0000,3445.0000 C 6509.0000,3445.0000 6504.0000,3440.0000 6504.0000,3434.0000 Z M 6504.0000,3178.0000 L 6504.0000,3029.0000 C 6504.0000,3023.0000 6509.0000,3018.0000 6514.0000,3018.0000 C 6520.0000,3018.0000 6525.0000,3023.0000 6525.0000,3029.0000 L 6525.0000,3178.0000 C 6525.0000,3184.0000 6520.0000,3189.0000 6514.0000,3189.0000 C 6509.0000,3189.0000 6504.0000,3184.0000 6504.0000,3178.0000 Z M 6504.0000,2922.0000 L 6504.0000,2773.0000 C 6504.0000,2767.0000 6509.0000,2762.0000 6514.0000,2762.0000 C 6520.0000,2762.0000 6525.0000,2767.0000 6525.0000,2773.0000 L 6525.0000,2922.0000 C 6525.0000,2928.0000 6520.0000,2933.0000 6514.0000,2933.0000 C 6509.0000,2933.0000 6504.0000,2928.0000 6504.0000,2922.0000 Z M 6504.0000,2666.0000 L 6504.0000,2517.0000 C 6504.0000,2511.0000 6509.0000,2506.0000 6514.0000,2506.0000 C 6520.0000,2506.0000 6525.0000,2511.0000 6525.0000,2517.0000 L 6525.0000,2666.0000 C 6525.0000,2672.0000 6520.0000,2677.0000 6514.0000,2677.0000 C 6509.0000,2677.0000 6504.0000,2672.0000 6504.0000,2666.0000 Z M 6504.0000,2410.0000 L 6504.0000,2261.0000 C 6504.0000,2255.0000 6509.0000,2250.0000 6514.0000,2250.0000 C 6520.0000,2250.0000 6525.0000,2255.0000 6525.0000,2261.0000 L 6525.0000,2410.0000 C 6525.0000,2416.0000 6520.0000,2421.0000 6514.0000,2421.0000 C 6509.0000,2421.0000 6504.0000,2416.0000 6504.0000,2410.0000 Z M 6504.0000,2154.0000 L 6504.0000,2005.0000 C 6504.0000,1999.0000 6509.0000,1994.0000 6514.0000,1994.0000 C 6520.0000,1994.0000 6525.0000,1999.0000 6525.0000,2005.0000 L 6525.0000,2154.0000 C 6525.0000,2160.0000 6520.0000,2165.0000 6514.0000,2165.0000 C 6509.0000,2165.0000 6504.0000,2160.0000 6504.0000,2154.0000 Z M 6504.0000,1898.0000 L 6504.0000,1749.0000 C 6504.0000,1743.0000 6509.0000,1738.0000 6514.0000,1738.0000 C 6520.0000,1738.0000 6525.0000,1743.0000 6525.0000,1749.0000 L 6525.0000,1898.0000 C 6525.0000,1904.0000 6520.0000,1909.0000 6514.0000,1909.0000 C 6509.0000,1909.0000 6504.0000,1904.0000 6504.0000,1898.0000 Z M 6504.0000,1642.0000 L 6504.0000,1493.0000 C 6504.0000,1487.0000 6509.0000,1482.0000 6514.0000,1482.0000 C 6520.0000,1482.0000 6525.0000,1487.0000 6525.0000,1493.0000 L 6525.0000,1642.0000 C 6525.0000,1648.0000 6520.0000,1653.0000 6514.0000,1653.0000 C 6509.0000,1653.0000 6504.0000,1648.0000 6504.0000,1642.0000 Z M 6504.0000,1386.0000 L 6504.0000,1237.0000 C 6504.0000,1231.0000 6509.0000,1226.0000 6514.0000,1226.0000 C 6520.0000,1226.0000 6525.0000,1231.0000 6525.0000,1237.0000 L 6525.0000,1386.0000 C 6525.0000,1392.0000 6520.0000,1397.0000 6514.0000,1397.0000 C 6509.0000,1397.0000 6504.0000,1392.0000 6504.0000,1386.0000 Z M 6504.0000,1130.0000 L 6504.0000,981.0000 C 6504.0000,975.0000 6509.0000,970.0000 6514.0000,970.0000 C 6520.0000,970.0000 6525.0000,975.0000 6525.0000,981.0000 L 6525.0000,1130.0000 C 6525.0000,1136.0000 6520.0000,1141.0000 6514.0000,1141.0000 C 6509.0000,1141.0000 6504.0000,1136.0000 6504.0000,1130.0000 Z M 6504.0000,874.0000 L 6504.0000,725.0000 C 6504.0000,719.0000 6509.0000,714.0000 6514.0000,714.0000 C 6520.0000,714.0000 6525.0000,719.0000 6525.0000,725.0000 L 6525.0000,874.0000 C 6525.0000,880.0000 6520.0000,885.0000 6514.0000,885.0000 C 6509.0000,885.0000 6504.0000,880.0000 6504.0000,874.0000 Z M 6504.0000,618.0000 L 6504.0000,515.0000 L 6514.0000,526.0000 L 6468.0000,526.0000 C 6462.0000,526.0000 6458.0000,521.0000 6458.0000,515.0000 C 6458.0000,509.0000 6462.0000,505.0000 6468.0000,505.0000 L 6514.0000,505.0000 C 6520.0000,505.0000 6525.0000,509.0000 6525.0000,515.0000 L 6525.0000,618.0000 C 6525.0000,624.0000 6520.0000,629.0000 6514.0000,629.0000 C 6509.0000,629.0000 6504.0000,624.0000 6504.0000,618.0000 Z M 6362.0000,526.0000 L 6212.0000,526.0000 C 6206.0000,526.0000 6202.0000,521.0000 6202.0000,515.0000 C 6202.0000,509.0000 6206.0000,505.0000 6212.0000,505.0000 L 6362.0000,505.0000 C 6368.0000,505.0000 6372.0000,509.0000 6372.0000,515.0000 C 6372.0000,521.0000 6368.0000,526.0000 6362.0000,526.0000 Z M 6106.0000,526.0000 L 5956.0000,526.0000 C 5950.0000,526.0000 5946.0000,521.0000 5946.0000,515.0000 C 5946.0000,509.0000 5950.0000,505.0000 5956.0000,505.0000 L 6106.0000,505.0000 C 6112.0000,505.0000 6116.0000,509.0000 6116.0000,515.0000 C 6116.0000,521.0000 6112.0000,526.0000 6106.0000,526.0000 Z M 5850.0000,526.0000 L 5700.0000,526.0000 C 5694.0000,526.0000 5690.0000,521.0000 5690.0000,515.0000 C 5690.0000,509.0000 5694.0000,505.0000 5700.0000,505.0000 L 5850.0000,505.0000 C 5856.0000,505.0000 5860.0000,509.0000 5860.0000,515.0000 C 5860.0000,521.0000 5856.0000,526.0000 5850.0000,526.0000 Z M 5594.0000,526.0000 L 5444.0000,526.0000 C 5438.0000,526.0000 5434.0000,521.0000 5434.0000,515.0000 C 5434.0000,509.0000 5438.0000,505.0000 5444.0000,505.0000 L 5594.0000,505.0000 C 5600.0000,505.0000 5604.0000,509.0000 5604.0000,515.0000 C 5604.0000,521.0000 5600.0000,526.0000 5594.0000,526.0000 Z M 5338.0000,526.0000 L 5188.0000,526.0000 C 5182.0000,526.0000 5178.0000,521.0000 5178.0000,515.0000 C 5178.0000,509.0000 5182.0000,505.0000 5188.0000,505.0000 L 5338.0000,505.0000 C 5344.0000,505.0000 5348.0000,509.0000 5348.0000,515.0000 C 5348.0000,521.0000 5344.0000,526.0000 5338.0000,526.0000 Z M 5082.0000,526.0000 L 4932.0000,526.0000 C 4926.0000,526.0000 4922.0000,521.0000 4922.0000,515.0000 C 4922.0000,509.0000 4926.0000,505.0000 4932.0000,505.0000 L 5082.0000,505.0000 C 5088.0000,505.0000 5092.0000,509.0000 5092.0000,515.0000 C 5092.0000,521.0000 5088.0000,526.0000 5082.0000,526.0000 Z M 4826.0000,526.0000 L 4676.0000,526.0000 C 4670.0000,526.0000 4666.0000,521.0000 4666.0000,515.0000 C 4666.0000,509.0000 4670.0000,505.0000 4676.0000,505.0000 L 4826.0000,505.0000 C 4832.0000,505.0000 4836.0000,509.0000 4836.0000,515.0000 C 4836.0000,521.0000 4832.0000,526.0000 4826.0000,526.0000 Z M 4570.0000,526.0000 L 4420.0000,526.0000 C 4414.0000,526.0000 4410.0000,521.0000 4410.0000,515.0000 C 4410.0000,509.0000 4414.0000,505.0000 4420.0000,505.0000 L 4570.0000,505.0000 C 4576.0000,505.0000 4580.0000,509.0000 4580.0000,515.0000 C 4580.0000,521.0000 4576.0000,526.0000 4570.0000,526.0000 Z M 4314.0000,526.0000 L 4307.0000,526.0000 C 4301.0000,526.0000 4297.0000,521.0000 4297.0000,515.0000 C 4297.0000,509.0000 4301.0000,505.0000 4307.0000,505.0000 L 4314.0000,505.0000 C 4320.0000,505.0000 4324.0000,509.0000 4324.0000,515.0000 C 4324.0000,521.0000 4320.0000,526.0000 4314.0000,526.0000 Z "  fill="#404040" stroke="#404040" stroke-width="1.0000"  stroke-linecap="butt"  stroke-linejoin="round" />
</g>
<g transform="matrix(1.0000 0.0000 0.0000 1.0000 0.0000 0.0000)">
</g>
<g transform="matrix(1.0000 0.0000 0.0000 1.0000 11.2771 290.6034)">
<text font-family="Times New Roman" fill="#000000" style ="white-space:pre;" font-weight="400" text-anchor="start" x="0.0000" y="0.0000" font-size="16.0000" ><![CDATA[Antenna gain component ]]></text>
</g>
<g transform="matrix(1.0000 0.0000 0.0000 1.0000 176.1241 290.6034)">
<text font-family="Times New Roman" fill="#000000" style ="white-space:pre;" font-weight="400" text-anchor="start" x="0.0000" y="0.0000" font-size="16.0000" ><![CDATA[1]]></text>
</g>
<g transform="matrix(1.0000 0.0000 0.0000 1.0000 525.6425 127.4118)">
<text font-family="Times New Roman" fill="#000000" style ="white-space:pre;" font-weight="400" text-anchor="start" x="0.0000" y="0.0000" font-size="16.0000" ><![CDATA[Antenna gain component ]]></text>
</g>
<g transform="matrix(1.0000 0.0000 0.0000 1.0000 690.4894 127.4118)">
<text font-family="Times New Roman" fill="#000000" style ="white-space:pre;" font-weight="400" text-anchor="start" x="0.0000" y="0.0000" font-size="16.0000" ><![CDATA[4]]></text>
</g>
<g transform="matrix(0.0625 0.0000 0.0000 0.0625 0.0000 0.0000)">
<path d="M 9538.0000,1773.0000 L 9538.0000,1488.0000 " stroke="#FF0000" stroke-width="16.0000"  stroke-linecap="round"  stroke-linejoin="round" fill="none" />
</g>
<g transform="matrix(1.0000 0.0000 0.0000 1.0000 0.0000 0.0000)">
</g>
<g transform="matrix(0.0625 0.0000 0.0000 0.0625 0.0000 0.0000)">
<path d="M 9479.0000,1503.0000 L 9538.0000,1325.0000 L 9597.0000,1503.0000 L 9479.0000,1503.0000 Z" stroke-width="1px" stroke="#FF0000"  fill="#FF0000" />
</g>
<g transform="matrix(1.0000 0.0000 0.0000 1.0000 0.0000 0.0000)">
</g>
</g>
</svg>
