<?xml version="1.0"  encoding="UTF-8" standalone="no"?>
<svg version="1.1" xmlns="http://www.w3.org/2000/svg" xmlns:xlink="http://www.w3.org/1999/xlink" width="236.0000" height="281.0000">
<g transform="translate(-2.0000, -2.0000)">
<defs><clipPath id="clip-1804289383"><path d="M 2.0000,2.0000 L 239.0000,2.0000 L 239.0000,284.0000 L 2.0000,284.0000 L 2.0000,2.0000 Z Z" /></clipPath></defs>
<g transform="matrix(0.3190 0.0000 0.0000 0.3191 2.0000 2.0000)">
</g>
<g transform="matrix(0.3190 0.0000 0.0000 0.3191 2.0000 2.0000)">
</g>
<g transform="matrix(0.3190 0.0000 0.0000 0.3191 1.0430 1.3618)">
</g>
<g transform="matrix(0.3190 0.0000 0.0000 0.3191 1.0430 1.3618)">
<defs><clipPath id="clip-846930886"><path d="M 0.0000,0.0000 L 741.0000,0.0000 L 741.0000,881.0000 L 0.0000,881.0000 L 0.0000,0.0000 Z Z" /></clipPath></defs>
<text  clip-path="url(#clip-1804289383)" font-family="Calibri" fill="#000000" style ="white-space:pre;" font-weight="400" text-anchor="start" x="757.0000" y="883.0000" font-size="46.0000" ><![CDATA[ ]]></text>
<defs><clipPath id="clip-1681692777"><path d="M 3.0000,808.0000 L 638.0000,808.0000 L 638.0000,883.0000 L 3.0000,883.0000 L 3.0000,808.0000 Z Z" /></clipPath></defs>
<text  clip-path="url(#clip-1681692777)" font-family="Arial" fill="#000000" style ="white-space:pre;" font-weight="400" text-anchor="start" x="309.0000" y="836.0000" font-size="25.0000" ><![CDATA[...]]></text>
<text  clip-path="url(#clip-1681692777)" font-family="Calibri" fill="#000000" style ="white-space:pre;" font-weight="400" text-anchor="start" x="330.0000" y="836.0000" font-size="25.0000" ><![CDATA[ ]]></text>
<defs><clipPath id="clip-1714636915"><path d="M 2.0000,2.0000 L 239.0000,2.0000 L 239.0000,284.0000 L 2.0000,284.0000 L 2.0000,2.0000 Z Z" /></clipPath></defs>
</g>
<g transform="matrix(0.0199 0.0000 0.0000 0.0199 1.0430 1.3618)">
<path  clip-path="url(#clip-1714636915)" d="M 14.0000,2004.0000 L 14.0000,3077.0000 L 9528.0000,3077.0000 L 9528.0000,2004.0000 L 14.0000,2004.0000 Z" stroke-width="1px" stroke="#FACCA7"  fill="#FACCA7" />
</g>
<g transform="matrix(0.3190 0.0000 0.0000 0.3191 1.0430 1.3618)">
<defs><clipPath id="clip-1957747793"><path d="M 2.0000,2.0000 L 239.0000,2.0000 L 239.0000,284.0000 L 2.0000,284.0000 L 2.0000,2.0000 Z Z" /></clipPath></defs>
</g>
<g transform="matrix(0.0199 0.0000 0.0000 0.0199 1.0430 1.3618)">
<path  clip-path="url(#clip-1957747793)" d="M 14.0000,3077.0000 L 9528.0000,3077.0000 L 9528.0000,2004.0000 L 14.0000,2004.0000 L 14.0000,3077.0000 Z" stroke="#000000" stroke-width="30.0000"  stroke-linecap="round"  stroke-linejoin="bevel" fill="none" />
</g>
<g transform="matrix(0.3190 0.0000 0.0000 0.3191 1.0430 1.3618)">
<defs><clipPath id="clip-424238335"><path d="M 5.0000,129.0000 L 611.0000,129.0000 L 611.0000,194.0000 L 5.0000,194.0000 L 5.0000,129.0000 Z Z" /></clipPath></defs>
<text  clip-path="url(#clip-424238335)" font-family="Arial" fill="#000000" style ="white-space:pre;" font-weight="400" text-anchor="start" x="199.0000" y="153.0000" font-size="25.0000" ><![CDATA[BH RLC channel ID]]></text>
<text  clip-path="url(#clip-424238335)" font-family="Calibri" fill="#000000" style ="white-space:pre;" font-weight="400" text-anchor="start" x="417.0000" y="153.0000" font-size="25.0000" ><![CDATA[ ]]></text>
<defs><clipPath id="clip-719885386"><path d="M 2.0000,2.0000 L 239.0000,2.0000 L 239.0000,284.0000 L 2.0000,284.0000 L 2.0000,2.0000 Z Z" /></clipPath></defs>
</g>
<g transform="matrix(0.0199 0.0000 0.0000 0.0199 1.0430 1.3618)">
<path  clip-path="url(#clip-719885386)" d="M 21.0000,804.0000 L 21.0000,2004.0000 L 1211.0000,2004.0000 L 1211.0000,804.0000 L 21.0000,804.0000 Z" stroke-width="1px" stroke="#FACCA7"  fill="#FACCA7" />
</g>
<g transform="matrix(0.3190 0.0000 0.0000 0.3191 1.0430 1.3618)">
<defs><clipPath id="clip-1649760492"><path d="M 2.0000,2.0000 L 239.0000,2.0000 L 239.0000,284.0000 L 2.0000,284.0000 L 2.0000,2.0000 Z Z" /></clipPath></defs>
</g>
<g transform="matrix(0.0199 0.0000 0.0000 0.0199 1.0430 1.3618)">
<path  clip-path="url(#clip-1649760492)" d="M 21.0000,2004.0000 L 1211.0000,2004.0000 L 1211.0000,804.0000 L 21.0000,804.0000 L 21.0000,2004.0000 Z" stroke="#000000" stroke-width="30.0000"  stroke-linecap="round"  stroke-linejoin="bevel" fill="none" />
</g>
<g transform="matrix(0.3190 0.0000 0.0000 0.3191 1.0430 1.3618)">
<defs><clipPath id="clip-596516649"><path d="M 6.0000,54.0000 L 86.0000,54.0000 L 86.0000,127.0000 L 6.0000,127.0000 L 6.0000,54.0000 Z Z" /></clipPath></defs>
<text  clip-path="url(#clip-596516649)" font-family="Arial" fill="#000000" style ="white-space:pre;" font-weight="400" text-anchor="start" x="24.0000" y="82.0000" font-size="25.0000" ><![CDATA[D/C]]></text>
<text  clip-path="url(#clip-596516649)" font-family="Calibri" fill="#000000" style ="white-space:pre;" font-weight="400" text-anchor="start" x="67.0000" y="82.0000" font-size="25.0000" ><![CDATA[ ]]></text>
<defs><clipPath id="clip-1189641421"><path d="M 523.0000,54.0000 L 604.0000,54.0000 L 604.0000,127.0000 L 523.0000,127.0000 L 523.0000,54.0000 Z Z" /></clipPath></defs>
<text  clip-path="url(#clip-1189641421)" font-family="Arial" fill="#000000" style ="white-space:pre;" font-weight="400" text-anchor="start" x="553.0000" y="82.0000" font-size="25.0000" ><![CDATA[R]]></text>
<text  clip-path="url(#clip-1189641421)" font-family="Calibri" fill="#000000" style ="white-space:pre;" font-weight="400" text-anchor="start" x="571.0000" y="82.0000" font-size="25.0000" ><![CDATA[ ]]></text>
<defs><clipPath id="clip-1025202362"><path d="M 2.0000,2.0000 L 239.0000,2.0000 L 239.0000,284.0000 L 2.0000,284.0000 L 2.0000,2.0000 Z Z" /></clipPath></defs>
</g>
<g transform="matrix(0.0199 0.0000 0.0000 0.0199 1.0430 1.3618)">
<path  clip-path="url(#clip-1025202362)" d="M 21.0000,184.0000 L 9544.0000,192.0000 " stroke="#000000" stroke-width="17.0000"  stroke-linecap="butt"  stroke-linejoin="bevel" fill="none" />
</g>
<g transform="matrix(0.3190 0.0000 0.0000 0.3191 1.0430 1.3618)">
<defs><clipPath id="clip-1350490027"><path d="M 2.0000,2.0000 L 239.0000,2.0000 L 239.0000,284.0000 L 2.0000,284.0000 L 2.0000,2.0000 Z Z" /></clipPath></defs>
</g>
<g transform="matrix(0.0199 0.0000 0.0000 0.0199 1.0430 1.3618)">
<path  clip-path="url(#clip-1350490027)" d="M 14.0000,17.0000 L 14.0000,324.0000 " stroke="#000000" stroke-width="30.0000"  stroke-linecap="butt"  stroke-linejoin="bevel" fill="none" />
</g>
<g transform="matrix(0.3190 0.0000 0.0000 0.3191 1.0430 1.3618)">
<defs><clipPath id="clip-783368690"><path d="M 2.0000,2.0000 L 239.0000,2.0000 L 239.0000,284.0000 L 2.0000,284.0000 L 2.0000,2.0000 Z Z" /></clipPath></defs>
</g>
<g transform="matrix(0.0199 0.0000 0.0000 0.0199 1.0430 1.3618)">
<path  clip-path="url(#clip-783368690)" d="M 3584.0000,17.0000 L 3584.0000,324.0000 " stroke="#000000" stroke-width="30.0000"  stroke-linecap="butt"  stroke-linejoin="bevel" fill="none" />
</g>
<g transform="matrix(0.3190 0.0000 0.0000 0.3191 1.0430 1.3618)">
<defs><clipPath id="clip-1102520059"><path d="M 2.0000,2.0000 L 239.0000,2.0000 L 239.0000,284.0000 L 2.0000,284.0000 L 2.0000,2.0000 Z Z" /></clipPath></defs>
</g>
<g transform="matrix(0.0199 0.0000 0.0000 0.0199 1.0430 1.3618)">
<path  clip-path="url(#clip-1102520059)" d="M 2394.0000,17.0000 L 2394.0000,324.0000 " stroke="#000000" stroke-width="30.0000"  stroke-linecap="butt"  stroke-linejoin="bevel" fill="none" />
</g>
<g transform="matrix(0.3190 0.0000 0.0000 0.3191 1.0430 1.3618)">
<defs><clipPath id="clip-2044897763"><path d="M 2.0000,2.0000 L 239.0000,2.0000 L 239.0000,284.0000 L 2.0000,284.0000 L 2.0000,2.0000 Z Z" /></clipPath></defs>
</g>
<g transform="matrix(0.0199 0.0000 0.0000 0.0199 1.0430 1.3618)">
<path  clip-path="url(#clip-2044897763)" d="M 1204.0000,17.0000 L 1204.0000,324.0000 " stroke="#000000" stroke-width="30.0000"  stroke-linecap="butt"  stroke-linejoin="bevel" fill="none" />
</g>
<g transform="matrix(0.3190 0.0000 0.0000 0.3191 1.0430 1.3618)">
<defs><clipPath id="clip-1967513926"><path d="M 629.0000,51.0000 L 749.0000,51.0000 L 749.0000,125.0000 L 629.0000,125.0000 L 629.0000,51.0000 Z Z" /></clipPath></defs>
<text  clip-path="url(#clip-1967513926)" font-family="Arial" fill="#000000" style ="white-space:pre;" font-weight="400" text-anchor="start" x="637.0000" y="79.0000" font-size="25.0000" ><![CDATA[Oct 1]]></text>
<text  clip-path="url(#clip-1967513926)" font-family="Calibri" fill="#000000" style ="white-space:pre;" font-weight="400" text-anchor="start" x="697.0000" y="79.0000" font-size="25.0000" ><![CDATA[ ]]></text>
<defs><clipPath id="clip-1365180540"><path d="M 629.0000,121.0000 L 749.0000,121.0000 L 749.0000,196.0000 L 629.0000,196.0000 L 629.0000,121.0000 Z Z" /></clipPath></defs>
<text  clip-path="url(#clip-1365180540)" font-family="Arial" fill="#000000" style ="white-space:pre;" font-weight="400" text-anchor="start" x="637.0000" y="149.0000" font-size="25.0000" ><![CDATA[Oct 2]]></text>
<text  clip-path="url(#clip-1365180540)" font-family="Calibri" fill="#000000" style ="white-space:pre;" font-weight="400" text-anchor="start" x="697.0000" y="149.0000" font-size="25.0000" ><![CDATA[ ]]></text>
<defs><clipPath id="clip-1540383426"><path d="M 629.0000,196.0000 L 749.0000,196.0000 L 749.0000,270.0000 L 629.0000,270.0000 L 629.0000,196.0000 Z Z" /></clipPath></defs>
<text  clip-path="url(#clip-1540383426)" font-family="Arial" fill="#000000" style ="white-space:pre;" font-weight="400" text-anchor="start" x="637.0000" y="224.0000" font-size="25.0000" ><![CDATA[Oct 3]]></text>
<text  clip-path="url(#clip-1540383426)" font-family="Calibri" fill="#000000" style ="white-space:pre;" font-weight="400" text-anchor="start" x="697.0000" y="224.0000" font-size="25.0000" ><![CDATA[ ]]></text>
<defs><clipPath id="clip-304089172"><path d="M 2.0000,2.0000 L 239.0000,2.0000 L 239.0000,284.0000 L 2.0000,284.0000 L 2.0000,2.0000 Z Z" /></clipPath></defs>
</g>
<g transform="matrix(0.0199 0.0000 0.0000 0.0199 1.0430 1.3618)">
<path  clip-path="url(#clip-304089172)" d="M 1214.0000,804.0000 L 1214.0000,2004.0000 L 5968.0000,2004.0000 L 5968.0000,804.0000 L 1214.0000,804.0000 Z" stroke-width="1px" stroke="#FACCA7"  fill="#FACCA7" />
</g>
<g transform="matrix(0.3190 0.0000 0.0000 0.3191 1.0430 1.3618)">
<defs><clipPath id="clip-1303455736"><path d="M 2.0000,2.0000 L 239.0000,2.0000 L 239.0000,284.0000 L 2.0000,284.0000 L 2.0000,2.0000 Z Z" /></clipPath></defs>
</g>
<g transform="matrix(0.0199 0.0000 0.0000 0.0199 1.0430 1.3618)">
<path  clip-path="url(#clip-1303455736)" d="M 1214.0000,2004.0000 L 5968.0000,2004.0000 L 5968.0000,804.0000 L 1214.0000,804.0000 L 1214.0000,2004.0000 Z" stroke="#000000" stroke-width="30.0000"  stroke-linecap="round"  stroke-linejoin="bevel" fill="none" />
</g>
<g transform="matrix(0.3190 0.0000 0.0000 0.3191 1.0430 1.3618)">
<defs><clipPath id="clip-35005211"><path d="M 93.0000,54.0000 L 397.0000,54.0000 L 397.0000,127.0000 L 93.0000,127.0000 L 93.0000,54.0000 Z Z" /></clipPath></defs>
<text  clip-path="url(#clip-35005211)" font-family="Arial" fill="#000000" style ="white-space:pre;" font-weight="400" text-anchor="start" x="188.0000" y="82.0000" font-size="25.0000" ><![CDATA[PDU Type]]></text>
<text  clip-path="url(#clip-35005211)" font-family="Calibri" fill="#000000" style ="white-space:pre;" font-weight="400" text-anchor="start" x="303.0000" y="82.0000" font-size="25.0000" ><![CDATA[ ]]></text>
<defs><clipPath id="clip-521595368"><path d="M 2.0000,2.0000 L 239.0000,2.0000 L 239.0000,284.0000 L 2.0000,284.0000 L 2.0000,2.0000 Z Z" /></clipPath></defs>
</g>
<g transform="matrix(0.0199 0.0000 0.0000 0.0199 1.0430 1.3618)">
<path  clip-path="url(#clip-521595368)" d="M 14.0000,3077.0000 L 14.0000,4170.0000 L 9538.0000,4170.0000 L 9538.0000,3077.0000 L 14.0000,3077.0000 Z" stroke-width="1px" stroke="#FACCA7"  fill="#FACCA7" />
</g>
<g transform="matrix(0.3190 0.0000 0.0000 0.3191 1.0430 1.3618)">
<defs><clipPath id="clip-294702567"><path d="M 2.0000,2.0000 L 239.0000,2.0000 L 239.0000,284.0000 L 2.0000,284.0000 L 2.0000,2.0000 Z Z" /></clipPath></defs>
</g>
<g transform="matrix(0.0199 0.0000 0.0000 0.0199 1.0430 1.3618)">
<path  clip-path="url(#clip-294702567)" d="M 14.0000,4170.0000 L 9538.0000,4170.0000 L 9538.0000,3077.0000 L 14.0000,3077.0000 L 14.0000,4170.0000 Z" stroke="#000000" stroke-width="30.0000"  stroke-linecap="round"  stroke-linejoin="bevel" fill="none" />
</g>
<g transform="matrix(0.3190 0.0000 0.0000 0.3191 1.0430 1.3618)">
<defs><clipPath id="clip-1726956429"><path d="M 5.0000,196.0000 L 637.0000,196.0000 L 637.0000,262.0000 L 5.0000,262.0000 L 5.0000,196.0000 Z Z" /></clipPath></defs>
<text  clip-path="url(#clip-1726956429)" font-family="Arial" fill="#000000" style ="white-space:pre;" font-weight="400" text-anchor="start" x="173.0000" y="220.0000" font-size="25.0000" ><![CDATA[BH RLC channel ID (cont.)]]></text>
<text  clip-path="url(#clip-1726956429)" font-family="Calibri" fill="#000000" style ="white-space:pre;" font-weight="400" text-anchor="start" x="469.0000" y="220.0000" font-size="25.0000" ><![CDATA[ ]]></text>
<defs><clipPath id="clip-336465782"><path d="M 629.0000,263.0000 L 749.0000,263.0000 L 749.0000,338.0000 L 629.0000,338.0000 L 629.0000,263.0000 Z Z" /></clipPath></defs>
<text  clip-path="url(#clip-336465782)" font-family="Arial" fill="#000000" style ="white-space:pre;" font-weight="400" text-anchor="start" x="637.0000" y="292.0000" font-size="25.0000" ><![CDATA[Oct 4]]></text>
<text  clip-path="url(#clip-336465782)" font-family="Calibri" fill="#000000" style ="white-space:pre;" font-weight="400" text-anchor="start" x="697.0000" y="292.0000" font-size="25.0000" ><![CDATA[ ]]></text>
<defs><clipPath id="clip-861021530"><path d="M 450.0000,54.0000 L 528.0000,54.0000 L 528.0000,127.0000 L 450.0000,127.0000 L 450.0000,54.0000 Z Z" /></clipPath></defs>
<text  clip-path="url(#clip-861021530)" font-family="Arial" fill="#000000" style ="white-space:pre;" font-weight="400" text-anchor="start" x="480.0000" y="82.0000" font-size="25.0000" ><![CDATA[R]]></text>
<text  clip-path="url(#clip-861021530)" font-family="Calibri" fill="#000000" style ="white-space:pre;" font-weight="400" text-anchor="start" x="498.0000" y="82.0000" font-size="25.0000" ><![CDATA[ ]]></text>
<defs><clipPath id="clip-278722862"><path d="M 375.0000,54.0000 L 456.0000,54.0000 L 456.0000,127.0000 L 375.0000,127.0000 L 375.0000,54.0000 Z Z" /></clipPath></defs>
<text  clip-path="url(#clip-278722862)" font-family="Arial" fill="#000000" style ="white-space:pre;" font-weight="400" text-anchor="start" x="406.0000" y="82.0000" font-size="25.0000" ><![CDATA[R]]></text>
<text  clip-path="url(#clip-278722862)" font-family="Calibri" fill="#000000" style ="white-space:pre;" font-weight="400" text-anchor="start" x="424.0000" y="82.0000" font-size="25.0000" ><![CDATA[ ]]></text>
<defs><clipPath id="clip-233665123"><path d="M 2.0000,2.0000 L 239.0000,2.0000 L 239.0000,284.0000 L 2.0000,284.0000 L 2.0000,2.0000 Z Z" /></clipPath></defs>
</g>
<g transform="matrix(0.0199 0.0000 0.0000 0.0199 1.0430 1.3618)">
<path  clip-path="url(#clip-233665123)" d="M 14.0000,4174.0000 L 14.0000,5250.0000 L 9528.0000,5250.0000 L 9528.0000,4174.0000 L 14.0000,4174.0000 Z" stroke-width="1px" stroke="#FACCA7"  fill="#FACCA7" />
</g>
<g transform="matrix(0.3190 0.0000 0.0000 0.3191 1.0430 1.3618)">
<defs><clipPath id="clip-2145174067"><path d="M 2.0000,2.0000 L 239.0000,2.0000 L 239.0000,284.0000 L 2.0000,284.0000 L 2.0000,2.0000 Z Z" /></clipPath></defs>
</g>
<g transform="matrix(0.0199 0.0000 0.0000 0.0199 1.0430 1.3618)">
<path  clip-path="url(#clip-2145174067)" d="M 14.0000,5250.0000 L 9528.0000,5250.0000 L 9528.0000,4174.0000 L 14.0000,4174.0000 L 14.0000,5250.0000 Z" stroke="#000000" stroke-width="30.0000"  stroke-linecap="round"  stroke-linejoin="bevel" fill="none" />
</g>
<g transform="matrix(0.3190 0.0000 0.0000 0.3191 1.0430 1.3618)">
<defs><clipPath id="clip-468703135"><path d="M 5.0000,264.0000 L 611.0000,264.0000 L 611.0000,330.0000 L 5.0000,330.0000 L 5.0000,264.0000 Z Z" /></clipPath></defs>
<text  clip-path="url(#clip-468703135)" font-family="Arial" fill="#000000" style ="white-space:pre;" font-weight="400" text-anchor="start" x="192.0000" y="288.0000" font-size="25.0000" ><![CDATA[Available Buffer Size]]></text>
<text  clip-path="url(#clip-468703135)" font-family="Calibri" fill="#000000" style ="white-space:pre;" font-weight="400" text-anchor="start" x="423.0000" y="288.0000" font-size="25.0000" ><![CDATA[ ]]></text>
<defs><clipPath id="clip-1101513929"><path d="M 5.0000,332.0000 L 637.0000,332.0000 L 637.0000,398.0000 L 5.0000,398.0000 L 5.0000,332.0000 Z Z" /></clipPath></defs>
<text  clip-path="url(#clip-1101513929)" font-family="Arial" fill="#000000" style ="white-space:pre;" font-weight="400" text-anchor="start" x="167.0000" y="356.0000" font-size="25.0000" ><![CDATA[Available Buffer S]]></text>
<text  clip-path="url(#clip-1101513929)" font-family="Arial" fill="#000000" style ="white-space:pre;" font-weight="400" text-anchor="start" x="366.0000" y="356.0000" font-size="25.0000" ><![CDATA[ize (cont.)]]></text>
<text  clip-path="url(#clip-1101513929)" font-family="Calibri" fill="#000000" style ="white-space:pre;" font-weight="400" text-anchor="start" x="475.0000" y="356.0000" font-size="25.0000" ><![CDATA[ ]]></text>
<defs><clipPath id="clip-1801979802"><path d="M 6.0000,401.0000 L 637.0000,401.0000 L 637.0000,467.0000 L 6.0000,467.0000 L 6.0000,401.0000 Z Z" /></clipPath></defs>
<text  clip-path="url(#clip-1801979802)" font-family="Arial" fill="#000000" style ="white-space:pre;" font-weight="400" text-anchor="start" x="167.0000" y="425.0000" font-size="25.0000" ><![CDATA[Available Buffer Size (cont.)]]></text>
<text  clip-path="url(#clip-1801979802)" font-family="Calibri" fill="#000000" style ="white-space:pre;" font-weight="400" text-anchor="start" x="475.0000" y="425.0000" font-size="25.0000" ><![CDATA[ ]]></text>
<defs><clipPath id="clip-1315634022"><path d="M 628.0000,326.0000 L 748.0000,326.0000 L 748.0000,401.0000 L 628.0000,401.0000 L 628.0000,326.0000 Z Z" /></clipPath></defs>
<text  clip-path="url(#clip-1315634022)" font-family="Arial" fill="#000000" style ="white-space:pre;" font-weight="400" text-anchor="start" x="636.0000" y="354.0000" font-size="25.0000" ><![CDATA[Oct 5]]></text>
<text  clip-path="url(#clip-1315634022)" font-family="Calibri" fill="#000000" style ="white-space:pre;" font-weight="400" text-anchor="start" x="696.0000" y="354.0000" font-size="25.0000" ><![CDATA[ ]]></text>
<defs><clipPath id="clip-635723058"><path d="M 628.0000,401.0000 L 748.0000,401.0000 L 748.0000,475.0000 L 628.0000,475.0000 L 628.0000,401.0000 Z Z" /></clipPath></defs>
<text  clip-path="url(#clip-635723058)" font-family="Arial" fill="#000000" style ="white-space:pre;" font-weight="400" text-anchor="start" x="636.0000" y="429.0000" font-size="25.0000" ><![CDATA[Oct 6]]></text>
<text  clip-path="url(#clip-635723058)" font-family="Calibri" fill="#000000" style ="white-space:pre;" font-weight="400" text-anchor="start" x="696.0000" y="429.0000" font-size="25.0000" ><![CDATA[ ]]></text>
<defs><clipPath id="clip-1369133069"><path d="M 628.0000,468.0000 L 748.0000,468.0000 L 748.0000,543.0000 L 628.0000,543.0000 L 628.0000,468.0000 Z Z" /></clipPath></defs>
<text  clip-path="url(#clip-1369133069)" font-family="Arial" fill="#000000" style ="white-space:pre;" font-weight="400" text-anchor="start" x="636.0000" y="496.0000" font-size="25.0000" ><![CDATA[Oct 7]]></text>
<text  clip-path="url(#clip-1369133069)" font-family="Calibri" fill="#000000" style ="white-space:pre;" font-weight="400" text-anchor="start" x="696.0000" y="496.0000" font-size="25.0000" ><![CDATA[ ]]></text>
<defs><clipPath id="clip-1125898167"><path d="M 6.0000,469.0000 L 611.0000,469.0000 L 611.0000,534.0000 L 6.0000,534.0000 L 6.0000,469.0000 Z Z" /></clipPath></defs>
<text  clip-path="url(#clip-1125898167)" font-family="Arial" fill="#000000" style ="white-space:pre;" font-weight="400" text-anchor="start" x="200.0000" y="492.0000" font-size="25.0000" ><![CDATA[BH RLC channel ID]]></text>
<text  clip-path="url(#clip-1125898167)" font-family="Calibri" fill="#000000" style ="white-space:pre;" font-weight="400" text-anchor="start" x="418.0000" y="492.0000" font-size="25.0000" ><![CDATA[ ]]></text>
<defs><clipPath id="clip-1059961393"><path d="M 6.0000,536.0000 L 637.0000,536.0000 L 637.0000,602.0000 L 6.0000,602.0000 L 6.0000,536.0000 Z Z" /></clipPath></defs>
<text  clip-path="url(#clip-1059961393)" font-family="Arial" fill="#000000" style ="white-space:pre;" font-weight="400" text-anchor="start" x="173.0000" y="560.0000" font-size="25.0000" ><![CDATA[BH RLC channel ID (cont.)]]></text>
<text  clip-path="url(#clip-1059961393)" font-family="Calibri" fill="#000000" style ="white-space:pre;" font-weight="400" text-anchor="start" x="469.0000" y="560.0000" font-size="25.0000" ><![CDATA[ ]]></text>
<defs><clipPath id="clip-2089018456"><path d="M 6.0000,605.0000 L 611.0000,605.0000 L 611.0000,670.0000 L 6.0000,670.0000 L 6.0000,605.0000 Z Z" /></clipPath></defs>
<text  clip-path="url(#clip-2089018456)" font-family="Arial" fill="#000000" style ="white-space:pre;" font-weight="400" text-anchor="start" x="193.0000" y="628.0000" font-size="25.0000" ><![CDATA[Available Buffer Size]]></text>
<text  clip-path="url(#clip-2089018456)" font-family="Calibri" fill="#000000" style ="white-space:pre;" font-weight="400" text-anchor="start" x="424.0000" y="628.0000" font-size="25.0000" ><![CDATA[ ]]></text>
<defs><clipPath id="clip-628175011"><path d="M 6.0000,672.0000 L 637.0000,672.0000 L 637.0000,738.0000 L 6.0000,738.0000 L 6.0000,672.0000 Z Z" /></clipPath></defs>
<text  clip-path="url(#clip-628175011)" font-family="Arial" fill="#000000" style ="white-space:pre;" font-weight="400" text-anchor="start" x="167.0000" y="696.0000" font-size="25.0000" ><![CDATA[Available Buffer Size (cont.)]]></text>
<text  clip-path="url(#clip-628175011)" font-family="Calibri" fill="#000000" style ="white-space:pre;" font-weight="400" text-anchor="start" x="475.0000" y="696.0000" font-size="25.0000" ><![CDATA[ ]]></text>
<defs><clipPath id="clip-1656478042"><path d="M 6.0000,741.0000 L 637.0000,741.0000 L 637.0000,807.0000 L 6.0000,807.0000 L 6.0000,741.0000 Z Z" /></clipPath></defs>
<text  clip-path="url(#clip-1656478042)" font-family="Arial" fill="#000000" style ="white-space:pre;" font-weight="400" text-anchor="start" x="167.0000" y="765.0000" font-size="25.0000" ><![CDATA[Available Buffer Size (cont.)]]></text>
<text  clip-path="url(#clip-1656478042)" font-family="Calibri" fill="#000000" style ="white-space:pre;" font-weight="400" text-anchor="start" x="475.0000" y="765.0000" font-size="25.0000" ><![CDATA[ ]]></text>
<defs><clipPath id="clip-1131176229"><path d="M 625.0000,529.0000 L 745.0000,529.0000 L 745.0000,603.0000 L 625.0000,603.0000 L 625.0000,529.0000 Z Z" /></clipPath></defs>
<text  clip-path="url(#clip-1131176229)" font-family="Arial" fill="#000000" style ="white-space:pre;" font-weight="400" text-anchor="start" x="633.0000" y="557.0000" font-size="25.0000" ><![CDATA[Oct 8]]></text>
<text  clip-path="url(#clip-1131176229)" font-family="Calibri" fill="#000000" style ="white-space:pre;" font-weight="400" text-anchor="start" x="693.0000" y="557.0000" font-size="25.0000" ><![CDATA[ ]]></text>
<defs><clipPath id="clip-1653377373"><path d="M 625.0000,604.0000 L 745.0000,604.0000 L 745.0000,678.0000 L 625.0000,678.0000 L 625.0000,604.0000 Z Z" /></clipPath></defs>
<text  clip-path="url(#clip-1653377373)" font-family="Arial" fill="#000000" style ="white-space:pre;" font-weight="400" text-anchor="start" x="633.0000" y="632.0000" font-size="25.0000" ><![CDATA[Oct 9]]></text>
<text  clip-path="url(#clip-1653377373)" font-family="Calibri" fill="#000000" style ="white-space:pre;" font-weight="400" text-anchor="start" x="693.0000" y="632.0000" font-size="25.0000" ><![CDATA[ ]]></text>
<defs><clipPath id="clip-859484421"><path d="M 625.0000,671.0000 L 745.0000,671.0000 L 745.0000,745.0000 L 625.0000,745.0000 L 625.0000,671.0000 Z Z" /></clipPath></defs>
<text  clip-path="url(#clip-859484421)" font-family="Arial" fill="#000000" style ="white-space:pre;" font-weight="400" text-anchor="start" x="633.0000" y="699.0000" font-size="25.0000" ><![CDATA[Oct 10]]></text>
<text  clip-path="url(#clip-859484421)" font-family="Calibri" fill="#000000" style ="white-space:pre;" font-weight="400" text-anchor="start" x="707.0000" y="699.0000" font-size="25.0000" ><![CDATA[ ]]></text>
<defs><clipPath id="clip-1914544919"><path d="M 625.0000,740.0000 L 745.0000,740.0000 L 745.0000,815.0000 L 625.0000,815.0000 L 625.0000,740.0000 Z Z" /></clipPath></defs>
<text  clip-path="url(#clip-1914544919)" font-family="Arial" fill="#000000" style ="white-space:pre;" font-weight="400" text-anchor="start" x="633.0000" y="768.0000" font-size="25.0000" ><![CDATA[Oct 11]]></text>
<text  clip-path="url(#clip-1914544919)" font-family="Calibri" fill="#000000" style ="white-space:pre;" font-weight="400" text-anchor="start" x="707.0000" y="768.0000" font-size="25.0000" ><![CDATA[ ]]></text>
</g>
</g>
</svg>
