<?xml version="1.0"  encoding="UTF-8" standalone="no"?>
<svg version="1.1" xmlns="http://www.w3.org/2000/svg" xmlns:xlink="http://www.w3.org/1999/xlink" width="498.0000" height="201.0000">
<g transform="translate(12.0000, 12.0000)">
<g transform="matrix(0.0625 0.0000 0.0000 0.0625 0.0000 0.0000)">
<path d="M 6459.0000,483.0000 L 6459.0000,2715.0000 " stroke="#000000" stroke-width="16.0000"  stroke-linecap="butt"  stroke-linejoin="miter"  stroke-miterlimit="8.0000" fill="none" />
</g>
<g transform="matrix(1.0000 0.0000 0.0000 1.0000 0.0000 0.0000)">
</g>
<g transform="matrix(0.0625 0.0000 0.0000 0.0625 0.0000 0.0000)">
<path d="M 1115.0000,446.0000 L 1115.0000,2679.0000 " stroke="#000000" stroke-width="16.0000"  stroke-linecap="butt"  stroke-linejoin="miter"  stroke-miterlimit="8.0000" fill="none" />
</g>
<g transform="matrix(1.0000 0.0000 0.0000 1.0000 0.0000 0.0000)">
</g>
<g transform="matrix(0.0625 0.0000 0.0000 0.0625 0.0000 0.0000)">
<path d="M 0.0000,0.0000 L 0.0000,704.0000 L 2240.0000,704.0000 L 2240.0000,0.0000 L 0.0000,0.0000 Z" stroke-width="1px" stroke="#FFFFFF"  fill="#FFFFFF" />
</g>
<g transform="matrix(1.0000 0.0000 0.0000 1.0000 0.0000 0.0000)">
</g>
<g transform="matrix(0.0625 0.0000 0.0000 0.0625 0.0000 0.0000)">
<path d="M 8.0000,8.0000 L 8.0000,698.0000 L 2247.0000,698.0000 L 2247.0000,8.0000 L 8.0000,8.0000 Z" stroke="#000000" stroke-width="16.0000"  stroke-linecap="butt"  stroke-linejoin="miter"  stroke-miterlimit="8.0000" fill="none" />
</g>
<g transform="matrix(1.0000 0.0000 0.0000 1.0000 0.0000 0.0000)">
</g>
<g transform="matrix(0.0667 0.0000 0.0000 0.0667 -426.1333 -531.2000)">
</g>
<g transform="matrix(0.0667 0.0000 0.0000 0.0667 -426.1333 -531.2000)">
<text font-family="Arial" fill="#000000" style ="white-space:pre;" text-anchor="start" x="6542.0000" y="8238.0000" font-size="225.0000" ><![CDATA[F1-terminating]]></text>
</g>
<g transform="matrix(0.0667 0.0000 0.0000 0.0667 -426.1333 -531.2000)">
</g>
<g transform="matrix(0.0667 0.0000 0.0000 0.0667 -426.1333 -531.2000)">
<text font-family="Arial" fill="#000000" style ="white-space:pre;" text-anchor="start" x="8012.0000" y="8238.0000" font-size="225.0000" ><![CDATA[IAB]]></text>
</g>
<g transform="matrix(0.0667 0.0000 0.0000 0.0667 -426.1333 -531.2000)">
</g>
<g transform="matrix(0.0667 0.0000 0.0000 0.0667 -426.1333 -531.2000)">
<text font-family="Arial" fill="#000000" style ="white-space:pre;" text-anchor="start" x="7172.0000" y="8493.0000" font-size="225.0000" ><![CDATA[donor]]></text>
</g>
<g transform="matrix(0.0625 0.0000 0.0000 0.0625 0.0000 0.0000)">
<path d="M 6332.0000,1643.0000 L 6332.0000,1579.0000 L 6332.0000,1515.0000 L 6460.0000,1579.0000 L 6332.0000,1643.0000 Z M 1123.0000,1571.0000 L 6364.0000,1571.0000 L 6364.0000,1571.0000 L 6364.0000,1587.0000 L 6364.0000,1587.0000 L 1123.0000,1587.0000 L 1123.0000,1587.0000 L 1123.0000,1571.0000 Z "  fill="#000000" stroke-width="1px" stroke="#000000" />
</g>
<g transform="matrix(1.0000 0.0000 0.0000 1.0000 0.0000 0.0000)">
</g>
<g transform="matrix(0.0625 0.0000 0.0000 0.0625 0.0000 0.0000)">
<path d="M 704.0000,2688.0000 L 704.0000,2816.0000 L 1616.0000,2816.0000 L 1616.0000,2688.0000 L 704.0000,2688.0000 Z" stroke-width="1px" stroke="#000000"  fill="#000000" />
</g>
<g transform="matrix(1.0000 0.0000 0.0000 1.0000 0.0000 0.0000)">
</g>
<g transform="matrix(0.0625 0.0000 0.0000 0.0625 0.0000 0.0000)">
<path d="M 701.0000,2688.0000 L 701.0000,2810.0000 L 1613.0000,2810.0000 L 1613.0000,2688.0000 L 701.0000,2688.0000 Z" stroke="#000000" stroke-width="16.0000"  stroke-linecap="butt"  stroke-linejoin="miter"  stroke-miterlimit="8.0000" fill="none" />
</g>
<g transform="matrix(1.0000 0.0000 0.0000 1.0000 0.0000 0.0000)">
</g>
<g transform="matrix(0.0625 0.0000 0.0000 0.0625 0.0000 0.0000)">
<path d="M 6016.0000,2704.0000 L 6016.0000,2816.0000 L 6928.0000,2816.0000 L 6928.0000,2704.0000 L 6016.0000,2704.0000 Z" stroke-width="1px" stroke="#000000"  fill="#000000" />
</g>
<g transform="matrix(1.0000 0.0000 0.0000 1.0000 0.0000 0.0000)">
</g>
<g transform="matrix(0.0625 0.0000 0.0000 0.0625 0.0000 0.0000)">
<path d="M 6011.0000,2700.0000 L 6011.0000,2822.0000 L 6923.0000,2822.0000 L 6923.0000,2700.0000 L 6011.0000,2700.0000 Z" stroke="#000000" stroke-width="16.0000"  stroke-linecap="butt"  stroke-linejoin="miter"  stroke-miterlimit="8.0000" fill="none" />
</g>
<g transform="matrix(1.0000 0.0000 0.0000 1.0000 0.0000 0.0000)">
</g>
<g transform="matrix(0.0667 0.0000 0.0000 0.0667 -426.1333 -531.2000)">
</g>
<g transform="matrix(0.0667 0.0000 0.0000 0.0667 -426.1333 -531.2000)">
<text font-family="Arial" fill="#000000" style ="white-space:pre;" text-anchor="start" x="7592.0000" y="9123.0000" font-size="225.0000" ><![CDATA[IAB]]></text>
</g>
<g transform="matrix(0.0667 0.0000 0.0000 0.0667 -426.1333 -531.2000)">
</g>
<g transform="matrix(0.0667 0.0000 0.0000 0.0667 -426.1333 -531.2000)">
<text font-family="Arial" fill="#000000" style ="white-space:pre;" text-anchor="start" x="8012.0000" y="9123.0000" font-size="225.0000" ><![CDATA[TRANSPORT]]></text>
</g>
<g transform="matrix(0.0667 0.0000 0.0000 0.0667 -426.1333 -531.2000)">
</g>
<g transform="matrix(0.0667 0.0000 0.0000 0.0667 -426.1333 -531.2000)">
<text font-family="Arial" fill="#000000" style ="white-space:pre;" text-anchor="start" x="9422.0000" y="9123.0000" font-size="225.0000" ><![CDATA[MIGRATION]]></text>
</g>
<g transform="matrix(0.0667 0.0000 0.0000 0.0667 -426.1333 -531.2000)">
</g>
<g transform="matrix(0.0667 0.0000 0.0000 0.0667 -426.1333 -531.2000)">
<text font-family="Arial" fill="#000000" style ="white-space:pre;" text-anchor="start" x="10727.0000" y="9123.0000" font-size="225.0000" ><![CDATA[MANAGEMENT]]></text>
</g>
<g transform="matrix(0.0667 0.0000 0.0000 0.0667 -426.1333 -531.2000)">
</g>
<g transform="matrix(0.0667 0.0000 0.0000 0.0667 -426.1333 -531.2000)">
<text font-family="Arial" fill="#000000" style ="white-space:pre;" text-anchor="start" x="9407.0000" y="9378.0000" font-size="225.0000" ><![CDATA[REQUEST]]></text>
</g>
<g transform="matrix(0.0625 0.0000 0.0000 0.0625 0.0000 0.0000)">
<path d="M 5344.0000,0.0000 L 5344.0000,720.0000 L 7584.0000,720.0000 L 7584.0000,0.0000 L 5344.0000,0.0000 Z" stroke-width="1px" stroke="#FFFFFF"  fill="#FFFFFF" />
</g>
<g transform="matrix(1.0000 0.0000 0.0000 1.0000 0.0000 0.0000)">
</g>
<g transform="matrix(0.0625 0.0000 0.0000 0.0625 0.0000 0.0000)">
<path d="M 5346.0000,8.0000 L 5346.0000,725.0000 L 7584.0000,725.0000 L 7584.0000,8.0000 L 5346.0000,8.0000 Z" stroke="#000000" stroke-width="16.0000"  stroke-linecap="butt"  stroke-linejoin="miter"  stroke-miterlimit="8.0000" fill="none" />
</g>
<g transform="matrix(1.0000 0.0000 0.0000 1.0000 0.0000 0.0000)">
</g>
<g transform="matrix(0.0667 0.0000 0.0000 0.0667 -426.1333 -531.2000)">
</g>
<g transform="matrix(0.0667 0.0000 0.0000 0.0667 -426.1333 -531.2000)">
<text font-family="Arial" fill="#000000" style ="white-space:pre;" text-anchor="start" x="11507.0000" y="8238.0000" font-size="225.0000" ><![CDATA[Non-F1-terminating]]></text>
</g>
<g transform="matrix(0.0667 0.0000 0.0000 0.0667 -426.1333 -531.2000)">
</g>
<g transform="matrix(0.0667 0.0000 0.0000 0.0667 -426.1333 -531.2000)">
<text font-family="Arial" fill="#000000" style ="white-space:pre;" text-anchor="start" x="11957.0000" y="8493.0000" font-size="225.0000" ><![CDATA[IAB-]]></text>
</g>
<g transform="matrix(0.0667 0.0000 0.0000 0.0667 -426.1333 -531.2000)">
</g>
<g transform="matrix(0.0667 0.0000 0.0000 0.0667 -426.1333 -531.2000)">
<text font-family="Arial" fill="#000000" style ="white-space:pre;" text-anchor="start" x="12392.0000" y="8493.0000" font-size="225.0000" ><![CDATA[donor]]></text>
</g>
<g transform="matrix(0.0625 0.0000 0.0000 0.0625 0.0000 0.0000)">
<path d="M 1251.0000,2434.0000 L 1251.0000,2370.0000 L 1250.0000,2306.0000 L 1123.0000,2371.0000 L 1251.0000,2434.0000 Z M 6459.0000,2354.0000 L 1219.0000,2362.0000 L 1219.0000,2362.0000 L 1219.0000,2378.0000 L 1219.0000,2378.0000 L 6459.0000,2370.0000 L 6459.0000,2370.0000 L 6459.0000,2354.0000 Z "  fill="#000000" stroke-width="1px" stroke="#000000" />
</g>
<g transform="matrix(1.0000 0.0000 0.0000 1.0000 0.0000 0.0000)">
</g>
<g transform="matrix(0.0667 0.0000 0.0000 0.0667 -426.1333 -531.2000)">
</g>
<g transform="matrix(0.0667 0.0000 0.0000 0.0667 -426.1333 -531.2000)">
<text font-family="Arial" fill="#000000" style ="white-space:pre;" text-anchor="start" x="7592.0000" y="9873.0000" font-size="225.0000" ><![CDATA[IAB]]></text>
</g>
<g transform="matrix(0.0667 0.0000 0.0000 0.0667 -426.1333 -531.2000)">
</g>
<g transform="matrix(0.0667 0.0000 0.0000 0.0667 -426.1333 -531.2000)">
<text font-family="Arial" fill="#000000" style ="white-space:pre;" text-anchor="start" x="8012.0000" y="9873.0000" font-size="225.0000" ><![CDATA[TRANSPORT]]></text>
</g>
<g transform="matrix(0.0667 0.0000 0.0000 0.0667 -426.1333 -531.2000)">
</g>
<g transform="matrix(0.0667 0.0000 0.0000 0.0667 -426.1333 -531.2000)">
<text font-family="Arial" fill="#000000" style ="white-space:pre;" text-anchor="start" x="9422.0000" y="9873.0000" font-size="225.0000" ><![CDATA[MIGRATION]]></text>
</g>
<g transform="matrix(0.0667 0.0000 0.0000 0.0667 -426.1333 -531.2000)">
</g>
<g transform="matrix(0.0667 0.0000 0.0000 0.0667 -426.1333 -531.2000)">
<text font-family="Arial" fill="#000000" style ="white-space:pre;" text-anchor="start" x="10727.0000" y="9873.0000" font-size="225.0000" ><![CDATA[MANAGEMENT]]></text>
</g>
<g transform="matrix(0.0667 0.0000 0.0000 0.0667 -426.1333 -531.2000)">
</g>
<g transform="matrix(0.0667 0.0000 0.0000 0.0667 -426.1333 -531.2000)">
<text font-family="Arial" fill="#000000" style ="white-space:pre;" text-anchor="start" x="9512.0000" y="10128.0000" font-size="225.0000" ><![CDATA[REJECT]]></text>
</g>
</g>
</svg>
