<?xml version="1.0"  encoding="UTF-8" standalone="no"?>
<svg version="1.1" xmlns="http://www.w3.org/2000/svg" xmlns:xlink="http://www.w3.org/1999/xlink" width="560.0000" height="192.0000">
<g transform="translate(-14.0000, -0.0000)">
<g transform="matrix(0.0625 0.0000 0.0000 0.0625 0.0000 0.0000)">
<path d="M 254.0000,29.0000 L 254.0000,634.0000 L 2644.0000,634.0000 L 2644.0000,29.0000 L 254.0000,29.0000 Z" stroke-width="1px" stroke="#FFFFFF"  fill="#FFFFFF" />
</g>
<g transform="matrix(1.0000 0.0000 0.0000 1.0000 0.0000 0.0000)">
</g>
<g transform="matrix(0.0625 0.0000 0.0000 0.0625 0.0000 0.0000)">
<path d="M 254.0000,634.0000 L 2644.0000,634.0000 L 2644.0000,29.0000 L 254.0000,29.0000 L 254.0000,634.0000 Z" stroke="#404040" stroke-width="7.0000"  stroke-linecap="round"  stroke-linejoin="round" fill="none" />
</g>
<g transform="matrix(1.0000 0.0000 0.0000 1.0000 0.0000 0.0000)">
</g>
<g transform="matrix(1.0000 0.0000 0.0000 1.0000 22.9502 27.1894)">
<text font-family="Arial" fill="#000000" style ="white-space:pre;" font-weight="400" text-anchor="start" x="0.0000" y="0.0000" font-size="20.0000" ><![CDATA[NG]]></text>
</g>
<g transform="matrix(1.0000 0.0000 0.0000 1.0000 52.9502 27.1894)">
<text font-family="Arial" fill="#000000" style ="white-space:pre;" font-weight="400" text-anchor="start" x="0.0000" y="0.0000" font-size="20.0000" ><![CDATA[-]]></text>
</g>
<g transform="matrix(1.0000 0.0000 0.0000 1.0000 59.6103 27.1894)">
<text font-family="Arial" fill="#000000" style ="white-space:pre;" font-weight="400" text-anchor="start" x="0.0000" y="0.0000" font-size="20.0000" ><![CDATA[RAN node]]></text>
</g>
<g transform="matrix(1.0000 0.0000 0.0000 1.0000 151.8867 29.9530)">
<text font-family="Arial" fill="#000000" style ="white-space:pre;" font-weight="400" text-anchor="start" x="0.0000" y="0.0000" font-size="13.0000" ><![CDATA[1]]></text>
</g>
<g transform="matrix(0.0625 0.0000 0.0000 0.0625 0.0000 0.0000)">
<path d="M 6734.0000,29.0000 L 6734.0000,634.0000 L 9155.0000,634.0000 L 9155.0000,29.0000 L 6734.0000,29.0000 Z" stroke-width="1px" stroke="#FFFFFF"  fill="#FFFFFF" />
</g>
<g transform="matrix(1.0000 0.0000 0.0000 1.0000 0.0000 0.0000)">
</g>
<g transform="matrix(0.0625 0.0000 0.0000 0.0625 0.0000 0.0000)">
<path d="M 6734.0000,634.0000 L 9155.0000,634.0000 L 9155.0000,29.0000 L 6734.0000,29.0000 L 6734.0000,634.0000 Z" stroke="#404040" stroke-width="7.0000"  stroke-linecap="round"  stroke-linejoin="round" fill="none" />
</g>
<g transform="matrix(1.0000 0.0000 0.0000 1.0000 0.0000 0.0000)">
</g>
<g transform="matrix(1.0000 0.0000 0.0000 1.0000 428.9195 27.1894)">
<text font-family="Arial" fill="#000000" style ="white-space:pre;" font-weight="400" text-anchor="start" x="0.0000" y="0.0000" font-size="20.0000" ><![CDATA[NG]]></text>
</g>
<g transform="matrix(1.0000 0.0000 0.0000 1.0000 458.9195 27.1894)">
<text font-family="Arial" fill="#000000" style ="white-space:pre;" font-weight="400" text-anchor="start" x="0.0000" y="0.0000" font-size="20.0000" ><![CDATA[-]]></text>
</g>
<g transform="matrix(1.0000 0.0000 0.0000 1.0000 465.5795 27.1894)">
<text font-family="Arial" fill="#000000" style ="white-space:pre;" font-weight="400" text-anchor="start" x="0.0000" y="0.0000" font-size="20.0000" ><![CDATA[RAN node]]></text>
</g>
<g transform="matrix(1.0000 0.0000 0.0000 1.0000 557.8560 29.9530)">
<text font-family="Arial" fill="#000000" style ="white-space:pre;" font-weight="400" text-anchor="start" x="0.0000" y="0.0000" font-size="13.0000" ><![CDATA[2]]></text>
</g>
<g transform="matrix(0.0625 0.0000 0.0000 0.0625 0.0000 0.0000)">
<path d="M 676.0000,2902.0000 L 676.0000,3053.0000 L 1885.0000,3053.0000 L 1885.0000,2902.0000 L 676.0000,2902.0000 Z" stroke-width="1px" stroke="#000000"  fill="#000000" />
</g>
<g transform="matrix(1.0000 0.0000 0.0000 1.0000 0.0000 0.0000)">
<defs><clipPath id="clip-1804289383"><path d="M 0.0000,0.0000 L 583.0000,0.0000 L 583.0000,193.0000 L 0.0000,193.0000 L 0.0000,0.0000 Z Z" /></clipPath></defs>
</g>
<g transform="matrix(0.0625 0.0000 0.0000 0.0625 0.0000 0.0000)">
<path  clip-path="url(#clip-1804289383)" d="M 676.0000,3053.0000 L 1885.0000,3053.0000 L 1885.0000,2902.0000 L 676.0000,2902.0000 L 676.0000,3053.0000 Z" stroke="#404040" stroke-width="7.0000"  stroke-linecap="round"  stroke-linejoin="round" fill="none" />
</g>
<g transform="matrix(1.0000 0.0000 0.0000 1.0000 0.0000 0.0000)">
</g>
<g transform="matrix(0.0625 0.0000 0.0000 0.0625 0.0000 0.0000)">
<path d="M 7479.0000,2902.0000 L 7479.0000,3053.0000 L 8688.0000,3053.0000 L 8688.0000,2902.0000 L 7479.0000,2902.0000 Z" stroke-width="1px" stroke="#000000"  fill="#000000" />
</g>
<g transform="matrix(1.0000 0.0000 0.0000 1.0000 0.0000 0.0000)">
<defs><clipPath id="clip-846930886"><path d="M 0.0000,0.0000 L 583.0000,0.0000 L 583.0000,193.0000 L 0.0000,193.0000 L 0.0000,0.0000 Z Z" /></clipPath></defs>
</g>
<g transform="matrix(0.0625 0.0000 0.0000 0.0625 0.0000 0.0000)">
<path  clip-path="url(#clip-846930886)" d="M 7479.0000,3053.0000 L 8688.0000,3053.0000 L 8688.0000,2902.0000 L 7479.0000,2902.0000 L 7479.0000,3053.0000 Z" stroke="#404040" stroke-width="7.0000"  stroke-linecap="round"  stroke-linejoin="round" fill="none" />
</g>
<g transform="matrix(1.0000 0.0000 0.0000 1.0000 0.0000 0.0000)">
</g>
<g transform="matrix(0.0625 0.0000 0.0000 0.0625 0.0000 0.0000)">
<path d="M 1280.0000,634.0000 L 1280.0000,2902.0000 " stroke="#404040" stroke-width="7.0000"  stroke-linecap="round"  stroke-linejoin="round" fill="none" />
</g>
<g transform="matrix(1.0000 0.0000 0.0000 1.0000 0.0000 0.0000)">
</g>
<g transform="matrix(0.0625 0.0000 0.0000 0.0625 0.0000 0.0000)">
<path d="M 8084.0000,634.0000 L 8084.0000,2902.0000 " stroke="#404040" stroke-width="7.0000"  stroke-linecap="round"  stroke-linejoin="round" fill="none" />
</g>
<g transform="matrix(1.0000 0.0000 0.0000 1.0000 0.0000 0.0000)">
</g>
<g transform="matrix(0.0625 0.0000 0.0000 0.0625 0.0000 0.0000)">
<path d="M 1280.0000,1390.0000 L 7880.0000,1390.0000 " stroke="#404040" stroke-width="7.0000"  stroke-linecap="round"  stroke-linejoin="round" fill="none" />
</g>
<g transform="matrix(1.0000 0.0000 0.0000 1.0000 0.0000 0.0000)">
</g>
<g transform="matrix(0.0625 0.0000 0.0000 0.0625 0.0000 0.0000)">
<path d="M 7862.0000,1316.0000 L 8084.0000,1390.0000 L 7862.0000,1464.0000 L 7862.0000,1316.0000 Z" stroke-width="1px" stroke="#404040"  fill="#404040" />
</g>
<g transform="matrix(1.0000 0.0000 0.0000 1.0000 0.0000 0.0000)">
</g>
<g transform="matrix(0.0625 0.0000 0.0000 0.0625 0.0000 0.0000)">
<path d="M 1484.0000,2146.0000 L 8084.0000,2146.0000 " stroke="#404040" stroke-width="7.0000"  stroke-linecap="round"  stroke-linejoin="round" fill="none" />
</g>
<g transform="matrix(1.0000 0.0000 0.0000 1.0000 0.0000 0.0000)">
</g>
<g transform="matrix(0.0625 0.0000 0.0000 0.0625 0.0000 0.0000)">
<path d="M 1502.0000,2220.0000 L 1280.0000,2146.0000 L 1502.0000,2072.0000 L 1502.0000,2220.0000 Z" stroke-width="1px" stroke="#404040"  fill="#404040" />
</g>
<g transform="matrix(1.0000 0.0000 0.0000 1.0000 0.0000 0.0000)">
</g>
<g transform="matrix(1.0000 0.0000 0.0000 1.0000 130.2189 82.8823)">
<text font-family="Arial" fill="#000000" style ="white-space:pre;" font-weight="400" text-anchor="start" x="0.0000" y="0.0000" font-size="17.0000" ><![CDATA[N]]></text>
</g>
<g transform="matrix(1.0000 0.0000 0.0000 1.0000 142.2549 82.8823)">
<text font-family="Arial" fill="#000000" style ="white-space:pre;" font-weight="400" text-anchor="start" x="0.0000" y="0.0000" font-size="17.0000" ><![CDATA[G]]></text>
</g>
<g transform="matrix(1.0000 0.0000 0.0000 1.0000 155.2187 82.8823)">
<text font-family="Arial" fill="#000000" style ="white-space:pre;" font-weight="400" text-anchor="start" x="0.0000" y="0.0000" font-size="17.0000" ><![CDATA[-]]></text>
</g>
<g transform="matrix(1.0000 0.0000 0.0000 1.0000 160.7687 82.8823)">
<text font-family="Arial" fill="#000000" style ="white-space:pre;" font-weight="400" text-anchor="start" x="0.0000" y="0.0000" font-size="17.0000" ><![CDATA[RAN ]]></text>
</g>
<g transform="matrix(1.0000 0.0000 0.0000 1.0000 200.5882 82.8823)">
<text font-family="Arial" fill="#000000" style ="white-space:pre;" font-weight="400" text-anchor="start" x="0.0000" y="0.0000" font-size="17.0000" ><![CDATA[N]]></text>
</g>
<g transform="matrix(1.0000 0.0000 0.0000 1.0000 212.6241 82.8823)">
<text font-family="Arial" fill="#000000" style ="white-space:pre;" font-weight="400" text-anchor="start" x="0.0000" y="0.0000" font-size="17.0000" ><![CDATA[ODE]]></text>
</g>
<g transform="matrix(1.0000 0.0000 0.0000 1.0000 248.7408 82.8823)">
<text font-family="Arial" fill="#000000" style ="white-space:pre;" font-weight="400" text-anchor="start" x="0.0000" y="0.0000" font-size="17.0000" ><![CDATA[ ]]></text>
</g>
<g transform="matrix(1.0000 0.0000 0.0000 1.0000 253.3715 82.8823)">
<text font-family="Arial" fill="#000000" style ="white-space:pre;" font-weight="400" text-anchor="start" x="0.0000" y="0.0000" font-size="17.0000" ><![CDATA[CONFIGURATION UPDATE]]></text>
</g>
<g transform="matrix(1.0000 0.0000 0.0000 1.0000 155.4331 130.1025)">
<text font-family="Arial" fill="#000000" style ="white-space:pre;" font-weight="400" text-anchor="start" x="0.0000" y="0.0000" font-size="17.0000" ><![CDATA[N]]></text>
</g>
<g transform="matrix(1.0000 0.0000 0.0000 1.0000 167.4691 130.1025)">
<text font-family="Arial" fill="#000000" style ="white-space:pre;" font-weight="400" text-anchor="start" x="0.0000" y="0.0000" font-size="17.0000" ><![CDATA[G]]></text>
</g>
<g transform="matrix(1.0000 0.0000 0.0000 1.0000 180.4330 130.1025)">
<text font-family="Arial" fill="#000000" style ="white-space:pre;" font-weight="400" text-anchor="start" x="0.0000" y="0.0000" font-size="17.0000" ><![CDATA[-]]></text>
</g>
<g transform="matrix(1.0000 0.0000 0.0000 1.0000 185.9829 130.1025)">
<text font-family="Arial" fill="#000000" style ="white-space:pre;" font-weight="400" text-anchor="start" x="0.0000" y="0.0000" font-size="17.0000" ><![CDATA[RAN ]]></text>
</g>
<g transform="matrix(1.0000 0.0000 0.0000 1.0000 225.8024 130.1025)">
<text font-family="Arial" fill="#000000" style ="white-space:pre;" font-weight="400" text-anchor="start" x="0.0000" y="0.0000" font-size="17.0000" ><![CDATA[N]]></text>
</g>
<g transform="matrix(1.0000 0.0000 0.0000 1.0000 237.8384 130.1025)">
<text font-family="Arial" fill="#000000" style ="white-space:pre;" font-weight="400" text-anchor="start" x="0.0000" y="0.0000" font-size="17.0000" ><![CDATA[ODE]]></text>
</g>
<g transform="matrix(1.0000 0.0000 0.0000 1.0000 273.9550 130.1025)">
<text font-family="Arial" fill="#000000" style ="white-space:pre;" font-weight="400" text-anchor="start" x="0.0000" y="0.0000" font-size="17.0000" ><![CDATA[ ]]></text>
</g>
<g transform="matrix(1.0000 0.0000 0.0000 1.0000 278.5857 130.1025)">
<text font-family="Arial" fill="#000000" style ="white-space:pre;" font-weight="400" text-anchor="start" x="0.0000" y="0.0000" font-size="17.0000" ><![CDATA[CONFIGURATION UPDATE ]]></text>
</g>
<g transform="matrix(1.0000 0.0000 0.0000 1.0000 257.2805 150.1027)">
<text font-family="Arial" fill="#000000" style ="white-space:pre;" font-weight="400" text-anchor="start" x="0.0000" y="0.0000" font-size="17.0000" ><![CDATA[ACKNOWLEDGE]]></text>
</g>
</g>
</svg>
