<?xml version="1.0"  encoding="UTF-8" standalone="no"?>
<svg version="1.1" xmlns="http://www.w3.org/2000/svg" xmlns:xlink="http://www.w3.org/1999/xlink" width="381.0000" height="216.0000">
<g transform="translate(-1.0000, -1.0000)">
<g transform="matrix(0.0625 0.0000 0.0000 0.0625 0.0000 0.0000)">
<path d="M 37.0000,415.0000 L 37.0000,1171.0000 L 6084.0000,1171.0000 L 6084.0000,415.0000 L 37.0000,415.0000 Z" stroke-width="1px" stroke="#F6D5B9"  fill="#F6D5B9" />
</g>
<g transform="matrix(1.0000 0.0000 0.0000 1.0000 0.0000 0.0000)">
</g>
<g transform="matrix(0.0625 0.0000 0.0000 0.0625 0.0000 0.0000)">
<path d="M 37.0000,1171.0000 L 6084.0000,1171.0000 L 6084.0000,415.0000 L 37.0000,415.0000 L 37.0000,1171.0000 Z" stroke="#404040" stroke-width="7.0000"  stroke-linecap="round"  stroke-linejoin="round" fill="none" />
</g>
<g transform="matrix(1.0000 0.0000 0.0000 1.0000 0.0000 0.0000)">
<text font-family="Arial" fill="#000000" style ="white-space:pre;" font-weight="400" text-anchor="start" x="138.0000" y="55.0000" font-size="17.0000" ><![CDATA[PDCP ]]></text>
<text font-family="Arial" fill="#000000" style ="white-space:pre;" font-weight="400" text-anchor="start" x="189.0000" y="55.0000" font-size="17.0000" ><![CDATA[Header]]></text>
</g>
<g transform="matrix(0.0625 0.0000 0.0000 0.0625 0.0000 0.0000)">
<path d="M 37.0000,2683.0000 L 37.0000,3439.0000 L 6084.0000,3439.0000 L 6084.0000,2683.0000 L 37.0000,2683.0000 Z" stroke-width="1px" stroke="#EFF2E6"  fill="#EFF2E6" />
</g>
<g transform="matrix(1.0000 0.0000 0.0000 1.0000 0.0000 0.0000)">
</g>
<g transform="matrix(0.0625 0.0000 0.0000 0.0625 0.0000 0.0000)">
<path d="M 37.0000,3439.0000 L 6084.0000,3439.0000 L 6084.0000,2683.0000 L 37.0000,2683.0000 L 37.0000,3439.0000 Z" stroke="#404040" stroke-width="7.0000"  stroke-linecap="round"  stroke-linejoin="round" fill="none" />
</g>
<g transform="matrix(1.0000 0.0000 0.0000 1.0000 0.0000 0.0000)">
<text font-family="Arial" fill="#000000" style ="white-space:pre;" font-weight="400" text-anchor="start" x="131.0000" y="196.0000" font-size="17.0000" ><![CDATA[UDC ]]></text>
<text font-family="Arial" fill="#000000" style ="white-space:pre;" font-weight="400" text-anchor="start" x="171.0000" y="196.0000" font-size="17.0000" ><![CDATA[Data]]></text>
<text font-family="Arial" fill="#000000" style ="white-space:pre;" font-weight="400" text-anchor="start" x="207.0000" y="196.0000" font-size="17.0000" ><![CDATA[ ]]></text>
<text font-family="Arial" fill="#000000" style ="white-space:pre;" font-weight="400" text-anchor="start" x="211.0000" y="196.0000" font-size="17.0000" ><![CDATA[Block]]></text>
</g>
<g transform="matrix(0.0625 0.0000 0.0000 0.0625 0.0000 0.0000)">
<path d="M 37.0000,1171.0000 L 37.0000,1927.0000 L 6084.0000,1927.0000 L 6084.0000,1171.0000 L 37.0000,1171.0000 Z" stroke-width="1px" stroke="#FAE9DC"  fill="#FAE9DC" />
</g>
<g transform="matrix(1.0000 0.0000 0.0000 1.0000 0.0000 0.0000)">
</g>
<g transform="matrix(0.0625 0.0000 0.0000 0.0625 0.0000 0.0000)">
<path d="M 37.0000,1927.0000 L 6084.0000,1927.0000 L 6084.0000,1171.0000 L 37.0000,1171.0000 L 37.0000,1927.0000 Z" stroke="#000000" stroke-width="7.0000"  stroke-linecap="round"  stroke-linejoin="round" fill="none" />
</g>
<g transform="matrix(1.0000 0.0000 0.0000 1.0000 0.0000 0.0000)">
<text font-family="Arial" fill="#000000" style ="white-space:pre;" font-weight="400" text-anchor="start" x="88.0000" y="102.0000" font-size="17.0000" ><![CDATA[SDAP Header]]></text>
<text font-family="Arial" fill="#000000" style ="white-space:pre;" font-weight="400" text-anchor="start" x="193.0000" y="102.0000" font-size="17.0000" ><![CDATA[(]]></text>
<text font-family="Arial" fill="#000000" style ="white-space:pre;" font-weight="400" text-anchor="start" x="198.0000" y="102.0000" font-size="17.0000" ><![CDATA[if configured]]></text>
<text font-family="Arial" fill="#000000" style ="white-space:pre;" font-weight="400" text-anchor="start" x="289.0000" y="102.0000" font-size="17.0000" ><![CDATA[)]]></text>
</g>
<g transform="matrix(0.0625 0.0000 0.0000 0.0625 0.0000 0.0000)">
<path d="M 37.0000,157.0000 L 6084.0000,157.0000 " stroke="#404040" stroke-width="7.0000"  stroke-linecap="round"  stroke-linejoin="round" fill="none" />
</g>
<g transform="matrix(1.0000 0.0000 0.0000 1.0000 0.0000 0.0000)">
</g>
<g transform="matrix(0.0625 0.0000 0.0000 0.0625 0.0000 0.0000)">
<path d="M 37.0000,37.0000 L 37.0000,242.0000 " stroke="#404040" stroke-width="7.0000"  stroke-linecap="round"  stroke-linejoin="round" fill="none" />
</g>
<g transform="matrix(1.0000 0.0000 0.0000 1.0000 0.0000 0.0000)">
</g>
<g transform="matrix(0.0625 0.0000 0.0000 0.0625 0.0000 0.0000)">
<path d="M 6084.0000,42.0000 L 6084.0000,247.0000 " stroke="#404040" stroke-width="7.0000"  stroke-linecap="round"  stroke-linejoin="round" fill="none" />
</g>
<g transform="matrix(1.0000 0.0000 0.0000 1.0000 0.0000 0.0000)">
</g>
<g transform="matrix(0.0625 0.0000 0.0000 0.0625 0.0000 0.0000)">
<path d="M 5328.0000,42.0000 L 5328.0000,247.0000 " stroke="#404040" stroke-width="7.0000"  stroke-linecap="round"  stroke-linejoin="round" fill="none" />
</g>
<g transform="matrix(1.0000 0.0000 0.0000 1.0000 0.0000 0.0000)">
</g>
<g transform="matrix(0.0625 0.0000 0.0000 0.0625 0.0000 0.0000)">
<path d="M 2305.0000,37.0000 L 2305.0000,242.0000 " stroke="#404040" stroke-width="7.0000"  stroke-linecap="round"  stroke-linejoin="round" fill="none" />
</g>
<g transform="matrix(1.0000 0.0000 0.0000 1.0000 0.0000 0.0000)">
</g>
<g transform="matrix(0.0625 0.0000 0.0000 0.0625 0.0000 0.0000)">
<path d="M 1549.0000,37.0000 L 1549.0000,242.0000 " stroke="#404040" stroke-width="7.0000"  stroke-linecap="round"  stroke-linejoin="round" fill="none" />
</g>
<g transform="matrix(1.0000 0.0000 0.0000 1.0000 0.0000 0.0000)">
</g>
<g transform="matrix(0.0625 0.0000 0.0000 0.0625 0.0000 0.0000)">
<path d="M 793.0000,37.0000 L 793.0000,242.0000 " stroke="#404040" stroke-width="7.0000"  stroke-linecap="round"  stroke-linejoin="round" fill="none" />
</g>
<g transform="matrix(1.0000 0.0000 0.0000 1.0000 0.0000 0.0000)">
</g>
<g transform="matrix(0.0625 0.0000 0.0000 0.0625 0.0000 0.0000)">
<path d="M 3061.0000,42.0000 L 3061.0000,247.0000 " stroke="#404040" stroke-width="7.0000"  stroke-linecap="round"  stroke-linejoin="round" fill="none" />
</g>
<g transform="matrix(1.0000 0.0000 0.0000 1.0000 0.0000 0.0000)">
</g>
<g transform="matrix(0.0625 0.0000 0.0000 0.0625 0.0000 0.0000)">
<path d="M 3817.0000,42.0000 L 3817.0000,247.0000 " stroke="#404040" stroke-width="7.0000"  stroke-linecap="round"  stroke-linejoin="round" fill="none" />
</g>
<g transform="matrix(1.0000 0.0000 0.0000 1.0000 0.0000 0.0000)">
</g>
<g transform="matrix(0.0625 0.0000 0.0000 0.0625 0.0000 0.0000)">
<path d="M 4573.0000,42.0000 L 4573.0000,247.0000 " stroke="#404040" stroke-width="7.0000"  stroke-linecap="round"  stroke-linejoin="round" fill="none" />
</g>
<g transform="matrix(1.0000 0.0000 0.0000 1.0000 0.0000 0.0000)">
</g>
<g transform="matrix(0.0625 0.0000 0.0000 0.0625 0.0000 0.0000)">
<path d="M 37.0000,1927.0000 L 37.0000,2683.0000 L 6084.0000,2683.0000 L 6084.0000,1927.0000 L 37.0000,1927.0000 Z" stroke-width="1px" stroke="#E1EBF3"  fill="#E1EBF3" />
</g>
<g transform="matrix(1.0000 0.0000 0.0000 1.0000 0.0000 0.0000)">
</g>
<g transform="matrix(0.0625 0.0000 0.0000 0.0625 0.0000 0.0000)">
<path d="M 37.0000,2683.0000 L 6084.0000,2683.0000 L 6084.0000,1927.0000 L 37.0000,1927.0000 L 37.0000,2683.0000 Z" stroke="#000000" stroke-width="7.0000"  stroke-linecap="round"  stroke-linejoin="round" fill="none" />
</g>
<g transform="matrix(1.0000 0.0000 0.0000 1.0000 0.0000 0.0000)">
<text font-family="Arial" fill="#000000" style ="white-space:pre;" font-weight="400" text-anchor="start" x="144.0000" y="149.0000" font-size="17.0000" ><![CDATA[UDC Header]]></text>
</g>
</g>
</svg>
