<?xml version="1.0"  encoding="UTF-8" standalone="no"?>
<svg version="1.1" xmlns="http://www.w3.org/2000/svg" xmlns:xlink="http://www.w3.org/1999/xlink" width="377.0000" height="382.0000">
<g transform="translate(-0.0000, -0.0000)">
<g transform="matrix(0.0625 0.0000 0.0000 0.0625 0.0000 0.0000)">
<path d="M 32.0000,3216.0000 L 32.0000,3824.0000 L 4896.0000,3824.0000 L 4896.0000,3216.0000 L 32.0000,3216.0000 Z" stroke-width="1px" stroke="#FFFFFF"  fill="#FFFFFF" />
</g>
<g transform="matrix(1.0000 0.0000 0.0000 1.0000 0.0000 0.0000)">
<text font-family="Arial" fill="#000000" style ="white-space:pre;" font-weight="400" text-anchor="start" x="149.0000" y="224.0000" font-size="13.0000" ><![CDATA[...]]></text>
</g>
<g transform="matrix(0.0625 0.0000 0.0000 0.0625 0.0000 0.0000)">
<path d="M 32.0000,1040.0000 L 32.0000,1600.0000 L 4896.0000,1600.0000 L 4896.0000,1040.0000 L 32.0000,1040.0000 Z" stroke-width="1px" stroke="#FACCA7"  fill="#FACCA7" />
</g>
<g transform="matrix(1.0000 0.0000 0.0000 1.0000 0.0000 0.0000)">
</g>
<g transform="matrix(0.0625 0.0000 0.0000 0.0625 0.0000 0.0000)">
<path d="M 32.0000,1600.0000 L 4896.0000,1600.0000 L 4896.0000,1040.0000 L 32.0000,1040.0000 L 32.0000,1600.0000 Z" stroke="#000000" stroke-width="15.0000"  stroke-linecap="round"  stroke-linejoin="round" fill="none" />
</g>
<g transform="matrix(1.0000 0.0000 0.0000 1.0000 0.0000 0.0000)">
<text font-family="Arial" fill="#000000" style ="white-space:pre;" font-weight="400" text-anchor="start" x="104.0000" y="87.0000" font-size="13.0000" ><![CDATA[PDCP S]]></text>
<text font-family="Arial" fill="#000000" style ="white-space:pre;" font-weight="400" text-anchor="start" x="153.0000" y="87.0000" font-size="13.0000" ><![CDATA[N]]></text>
<text font-family="Arial" fill="#000000" style ="white-space:pre;" font-weight="400" text-anchor="start" x="167.0000" y="87.0000" font-size="13.0000" ><![CDATA[(]]></text>
<text font-family="Arial" fill="#000000" style ="white-space:pre;" font-weight="400" text-anchor="start" x="171.0000" y="87.0000" font-size="13.0000" ><![CDATA[cont]]></text>
<text font-family="Arial" fill="#000000" style ="white-space:pre;" font-weight="400" text-anchor="start" x="196.0000" y="87.0000" font-size="13.0000" ><![CDATA[.)]]></text>
</g>
<g transform="matrix(0.0625 0.0000 0.0000 0.0625 0.0000 0.0000)">
<path d="M 32.0000,2704.0000 L 32.0000,3248.0000 L 4896.0000,3248.0000 L 4896.0000,2704.0000 L 32.0000,2704.0000 Z" stroke-width="1px" stroke="#FDEFE3"  fill="#FDEFE3" />
</g>
<g transform="matrix(1.0000 0.0000 0.0000 1.0000 0.0000 0.0000)">
</g>
<g transform="matrix(0.0625 0.0000 0.0000 0.0625 0.0000 0.0000)">
<path d="M 32.0000,3248.0000 L 4896.0000,3248.0000 L 4896.0000,2704.0000 L 32.0000,2704.0000 L 32.0000,3248.0000 Z" stroke="#000000" stroke-width="15.0000"  stroke-linecap="round"  stroke-linejoin="round" fill="none" />
</g>
<g transform="matrix(1.0000 0.0000 0.0000 1.0000 0.0000 0.0000)">
<text font-family="Arial" fill="#000000" style ="white-space:pre;" font-weight="400" text-anchor="start" x="140.0000" y="190.0000" font-size="13.0000" ><![CDATA[Data]]></text>
</g>
<g transform="matrix(0.0625 0.0000 0.0000 0.0625 0.0000 0.0000)">
<path d="M 32.0000,432.0000 L 32.0000,1040.0000 L 640.0000,1040.0000 L 640.0000,432.0000 L 32.0000,432.0000 Z" stroke-width="1px" stroke="#FACCA7"  fill="#FACCA7" />
</g>
<g transform="matrix(1.0000 0.0000 0.0000 1.0000 0.0000 0.0000)">
</g>
<g transform="matrix(0.0625 0.0000 0.0000 0.0625 0.0000 0.0000)">
<path d="M 32.0000,1040.0000 L 640.0000,1040.0000 L 640.0000,432.0000 L 32.0000,432.0000 L 32.0000,1040.0000 Z" stroke="#000000" stroke-width="15.0000"  stroke-linecap="round"  stroke-linejoin="round" fill="none" />
</g>
<g transform="matrix(1.0000 0.0000 0.0000 1.0000 0.0000 0.0000)">
<text font-family="Arial" fill="#000000" style ="white-space:pre;" font-weight="400" text-anchor="start" x="10.0000" y="50.0000" font-size="13.0000" ><![CDATA[D]]></text>
<text font-family="Arial" fill="#000000" style ="white-space:pre;" font-weight="400" text-anchor="start" x="19.0000" y="50.0000" font-size="13.0000" ><![CDATA[/]]></text>
<text font-family="Arial" fill="#000000" style ="white-space:pre;" font-weight="400" text-anchor="start" x="23.0000" y="50.0000" font-size="13.0000" ><![CDATA[C]]></text>
</g>
<g transform="matrix(0.0625 0.0000 0.0000 0.0625 0.0000 0.0000)">
<path d="M 48.0000,128.0000 L 4896.0000,128.0000 " stroke="#000000" stroke-width="5.0000"  stroke-linecap="round"  stroke-linejoin="round" fill="none" />
</g>
<g transform="matrix(1.0000 0.0000 0.0000 1.0000 0.0000 0.0000)">
</g>
<g transform="matrix(0.0625 0.0000 0.0000 0.0625 0.0000 0.0000)">
<path d="M 48.0000,32.0000 L 48.0000,208.0000 " stroke="#000000" stroke-width="15.0000"  stroke-linecap="round"  stroke-linejoin="round" fill="none" />
</g>
<g transform="matrix(1.0000 0.0000 0.0000 1.0000 0.0000 0.0000)">
</g>
<g transform="matrix(0.0625 0.0000 0.0000 0.0625 0.0000 0.0000)">
<path d="M 4896.0000,48.0000 L 4896.0000,208.0000 " stroke="#000000" stroke-width="15.0000"  stroke-linecap="round"  stroke-linejoin="round" fill="none" />
</g>
<g transform="matrix(1.0000 0.0000 0.0000 1.0000 0.0000 0.0000)">
</g>
<g transform="matrix(0.0625 0.0000 0.0000 0.0625 0.0000 0.0000)">
<path d="M 4288.0000,48.0000 L 4288.0000,208.0000 " stroke="#000000" stroke-width="15.0000"  stroke-linecap="round"  stroke-linejoin="round" fill="none" />
</g>
<g transform="matrix(1.0000 0.0000 0.0000 1.0000 0.0000 0.0000)">
</g>
<g transform="matrix(0.0625 0.0000 0.0000 0.0625 0.0000 0.0000)">
<path d="M 1872.0000,32.0000 L 1872.0000,208.0000 " stroke="#000000" stroke-width="15.0000"  stroke-linecap="round"  stroke-linejoin="round" fill="none" />
</g>
<g transform="matrix(1.0000 0.0000 0.0000 1.0000 0.0000 0.0000)">
</g>
<g transform="matrix(0.0625 0.0000 0.0000 0.0625 0.0000 0.0000)">
<path d="M 1264.0000,32.0000 L 1264.0000,208.0000 " stroke="#000000" stroke-width="15.0000"  stroke-linecap="round"  stroke-linejoin="round" fill="none" />
</g>
<g transform="matrix(1.0000 0.0000 0.0000 1.0000 0.0000 0.0000)">
</g>
<g transform="matrix(0.0625 0.0000 0.0000 0.0625 0.0000 0.0000)">
<path d="M 656.0000,32.0000 L 656.0000,208.0000 " stroke="#000000" stroke-width="15.0000"  stroke-linecap="round"  stroke-linejoin="round" fill="none" />
</g>
<g transform="matrix(1.0000 0.0000 0.0000 1.0000 0.0000 0.0000)">
</g>
<g transform="matrix(0.0625 0.0000 0.0000 0.0625 0.0000 0.0000)">
<path d="M 2480.0000,48.0000 L 2480.0000,208.0000 " stroke="#000000" stroke-width="15.0000"  stroke-linecap="round"  stroke-linejoin="round" fill="none" />
</g>
<g transform="matrix(1.0000 0.0000 0.0000 1.0000 0.0000 0.0000)">
</g>
<g transform="matrix(0.0625 0.0000 0.0000 0.0625 0.0000 0.0000)">
<path d="M 3072.0000,48.0000 L 3072.0000,208.0000 " stroke="#000000" stroke-width="15.0000"  stroke-linecap="round"  stroke-linejoin="round" fill="none" />
</g>
<g transform="matrix(1.0000 0.0000 0.0000 1.0000 0.0000 0.0000)">
</g>
<g transform="matrix(0.0625 0.0000 0.0000 0.0625 0.0000 0.0000)">
<path d="M 3680.0000,48.0000 L 3680.0000,208.0000 " stroke="#000000" stroke-width="15.0000"  stroke-linecap="round"  stroke-linejoin="round" fill="none" />
</g>
<g transform="matrix(1.0000 0.0000 0.0000 1.0000 0.0000 0.0000)">
</g>
<g transform="matrix(0.0625 0.0000 0.0000 0.0625 0.0000 0.0000)">
<path d="M 5120.0000,432.0000 L 5120.0000,1024.0000 L 6032.0000,1024.0000 L 6032.0000,432.0000 L 5120.0000,432.0000 Z" stroke-width="1px" stroke="#FFFFFF"  fill="#FFFFFF" />
</g>
<g transform="matrix(1.0000 0.0000 0.0000 1.0000 0.0000 0.0000)">
<text font-family="Arial" fill="#000000" style ="white-space:pre;" font-weight="400" text-anchor="start" x="325.0000" y="50.0000" font-size="13.0000" ><![CDATA[Oct ]]></text>
<text font-family="Arial" fill="#000000" style ="white-space:pre;" font-weight="400" text-anchor="start" x="350.0000" y="50.0000" font-size="13.0000" ><![CDATA[1]]></text>
</g>
<g transform="matrix(0.0625 0.0000 0.0000 0.0625 0.0000 0.0000)">
<path d="M 5120.0000,992.0000 L 5120.0000,1600.0000 L 6032.0000,1600.0000 L 6032.0000,992.0000 L 5120.0000,992.0000 Z" stroke-width="1px" stroke="#FFFFFF"  fill="#FFFFFF" />
</g>
<g transform="matrix(1.0000 0.0000 0.0000 1.0000 0.0000 0.0000)">
<text font-family="Arial" fill="#000000" style ="white-space:pre;" font-weight="400" text-anchor="start" x="325.0000" y="85.0000" font-size="13.0000" ><![CDATA[Oct ]]></text>
<text font-family="Arial" fill="#000000" style ="white-space:pre;" font-weight="400" text-anchor="start" x="350.0000" y="85.0000" font-size="13.0000" ><![CDATA[2]]></text>
</g>
<g transform="matrix(0.0625 0.0000 0.0000 0.0625 0.0000 0.0000)">
<path d="M 5120.0000,2704.0000 L 5120.0000,3312.0000 L 6032.0000,3312.0000 L 6032.0000,2704.0000 L 5120.0000,2704.0000 Z" stroke-width="1px" stroke="#FFFFFF"  fill="#FFFFFF" />
</g>
<g transform="matrix(1.0000 0.0000 0.0000 1.0000 0.0000 0.0000)">
<text font-family="Arial" fill="#000000" style ="white-space:pre;" font-weight="400" text-anchor="start" x="325.0000" y="192.0000" font-size="13.0000" ><![CDATA[Oct ]]></text>
<text font-family="Arial" fill="#000000" style ="white-space:pre;" font-weight="400" text-anchor="start" x="350.0000" y="192.0000" font-size="13.0000" ><![CDATA[5]]></text>
</g>
<g transform="matrix(0.0625 0.0000 0.0000 0.0625 0.0000 0.0000)">
<path d="M 32.0000,3840.0000 L 32.0000,4400.0000 L 4896.0000,4400.0000 L 4896.0000,3840.0000 L 32.0000,3840.0000 Z" stroke-width="1px" stroke="#EDCDCB"  fill="#EDCDCB" />
</g>
<g transform="matrix(1.0000 0.0000 0.0000 1.0000 0.0000 0.0000)">
</g>
<g transform="matrix(0.0625 0.0000 0.0000 0.0625 0.0000 0.0000)">
<path d="M 32.0000,4400.0000 L 4896.0000,4400.0000 L 4896.0000,3840.0000 L 32.0000,3840.0000 L 32.0000,4400.0000 Z" stroke="#000000" stroke-width="15.0000"  stroke-linecap="round"  stroke-linejoin="round" fill="none" />
</g>
<g transform="matrix(1.0000 0.0000 0.0000 1.0000 0.0000 0.0000)">
<text font-family="Arial" fill="#000000" style ="white-space:pre;" font-weight="400" text-anchor="start" x="106.0000" y="261.0000" font-size="13.0000" ><![CDATA[MAC]]></text>
<text font-family="Arial" fill="#000000" style ="white-space:pre;" font-weight="400" text-anchor="start" x="135.0000" y="261.0000" font-size="13.0000" ><![CDATA[-]]></text>
<text font-family="Arial" fill="#000000" style ="white-space:pre;" font-weight="400" text-anchor="start" x="140.0000" y="261.0000" font-size="13.0000" ><![CDATA[I ]]></text>
<text font-family="Arial" fill="#000000" style ="white-space:pre;" font-weight="400" text-anchor="start" x="147.0000" y="261.0000" font-size="13.0000" ><![CDATA[(]]></text>
<text font-family="Arial" fill="#000000" style ="white-space:pre;" font-weight="400" text-anchor="start" x="152.0000" y="261.0000" font-size="13.0000" ><![CDATA[optional]]></text>
<text font-family="Arial" fill="#000000" style ="white-space:pre;" font-weight="400" text-anchor="start" x="198.0000" y="261.0000" font-size="13.0000" ><![CDATA[)]]></text>
</g>
<g transform="matrix(0.0625 0.0000 0.0000 0.0625 0.0000 0.0000)">
<path d="M 32.0000,4400.0000 L 32.0000,4960.0000 L 4896.0000,4960.0000 L 4896.0000,4400.0000 L 32.0000,4400.0000 Z" stroke-width="1px" stroke="#EDCDCB"  fill="#EDCDCB" />
</g>
<g transform="matrix(1.0000 0.0000 0.0000 1.0000 0.0000 0.0000)">
</g>
<g transform="matrix(0.0625 0.0000 0.0000 0.0625 0.0000 0.0000)">
<path d="M 32.0000,4960.0000 L 4896.0000,4960.0000 L 4896.0000,4400.0000 L 32.0000,4400.0000 L 32.0000,4960.0000 Z" stroke="#000000" stroke-width="15.0000"  stroke-linecap="round"  stroke-linejoin="round" fill="none" />
</g>
<g transform="matrix(1.0000 0.0000 0.0000 1.0000 0.0000 0.0000)">
<text font-family="Arial" fill="#000000" style ="white-space:pre;" font-weight="400" text-anchor="start" x="85.0000" y="297.0000" font-size="13.0000" ><![CDATA[MAC]]></text>
<text font-family="Arial" fill="#000000" style ="white-space:pre;" font-weight="400" text-anchor="start" x="115.0000" y="297.0000" font-size="13.0000" ><![CDATA[-]]></text>
<text font-family="Arial" fill="#000000" style ="white-space:pre;" font-weight="400" text-anchor="start" x="119.0000" y="297.0000" font-size="13.0000" ><![CDATA[I ]]></text>
<text font-family="Arial" fill="#000000" style ="white-space:pre;" font-weight="400" text-anchor="start" x="126.0000" y="297.0000" font-size="13.0000" ><![CDATA[(]]></text>
<text font-family="Arial" fill="#000000" style ="white-space:pre;" font-weight="400" text-anchor="start" x="131.0000" y="297.0000" font-size="13.0000" ><![CDATA[cont]]></text>
<text font-family="Arial" fill="#000000" style ="white-space:pre;" font-weight="400" text-anchor="start" x="156.0000" y="297.0000" font-size="13.0000" ><![CDATA[.) (]]></text>
<text font-family="Arial" fill="#000000" style ="white-space:pre;" font-weight="400" text-anchor="start" x="172.0000" y="297.0000" font-size="13.0000" ><![CDATA[optional]]></text>
<text font-family="Arial" fill="#000000" style ="white-space:pre;" font-weight="400" text-anchor="start" x="219.0000" y="297.0000" font-size="13.0000" ><![CDATA[)]]></text>
</g>
<g transform="matrix(0.0625 0.0000 0.0000 0.0625 0.0000 0.0000)">
<path d="M 32.0000,4944.0000 L 32.0000,5504.0000 L 4896.0000,5504.0000 L 4896.0000,4944.0000 L 32.0000,4944.0000 Z" stroke-width="1px" stroke="#EDCDCB"  fill="#EDCDCB" />
</g>
<g transform="matrix(1.0000 0.0000 0.0000 1.0000 0.0000 0.0000)">
</g>
<g transform="matrix(0.0625 0.0000 0.0000 0.0625 0.0000 0.0000)">
<path d="M 32.0000,5504.0000 L 4896.0000,5504.0000 L 4896.0000,4944.0000 L 32.0000,4944.0000 L 32.0000,5504.0000 Z" stroke="#000000" stroke-width="15.0000"  stroke-linecap="round"  stroke-linejoin="round" fill="none" />
</g>
<g transform="matrix(1.0000 0.0000 0.0000 1.0000 0.0000 0.0000)">
<text font-family="Arial" fill="#000000" style ="white-space:pre;" font-weight="400" text-anchor="start" x="85.0000" y="331.0000" font-size="13.0000" ><![CDATA[MAC]]></text>
<text font-family="Arial" fill="#000000" style ="white-space:pre;" font-weight="400" text-anchor="start" x="115.0000" y="331.0000" font-size="13.0000" ><![CDATA[-]]></text>
<text font-family="Arial" fill="#000000" style ="white-space:pre;" font-weight="400" text-anchor="start" x="119.0000" y="331.0000" font-size="13.0000" ><![CDATA[I ]]></text>
<text font-family="Arial" fill="#000000" style ="white-space:pre;" font-weight="400" text-anchor="start" x="126.0000" y="331.0000" font-size="13.0000" ><![CDATA[(]]></text>
<text font-family="Arial" fill="#000000" style ="white-space:pre;" font-weight="400" text-anchor="start" x="131.0000" y="331.0000" font-size="13.0000" ><![CDATA[cont]]></text>
<text font-family="Arial" fill="#000000" style ="white-space:pre;" font-weight="400" text-anchor="start" x="156.0000" y="331.0000" font-size="13.0000" ><![CDATA[.) (]]></text>
<text font-family="Arial" fill="#000000" style ="white-space:pre;" font-weight="400" text-anchor="start" x="172.0000" y="331.0000" font-size="13.0000" ><![CDATA[optional]]></text>
<text font-family="Arial" fill="#000000" style ="white-space:pre;" font-weight="400" text-anchor="start" x="219.0000" y="331.0000" font-size="13.0000" ><![CDATA[)]]></text>
</g>
<g transform="matrix(0.0625 0.0000 0.0000 0.0625 0.0000 0.0000)">
<path d="M 32.0000,5504.0000 L 32.0000,6064.0000 L 4896.0000,6064.0000 L 4896.0000,5504.0000 L 32.0000,5504.0000 Z" stroke-width="1px" stroke="#EDCDCB"  fill="#EDCDCB" />
</g>
<g transform="matrix(1.0000 0.0000 0.0000 1.0000 0.0000 0.0000)">
</g>
<g transform="matrix(0.0625 0.0000 0.0000 0.0625 0.0000 0.0000)">
<path d="M 32.0000,6064.0000 L 4896.0000,6064.0000 L 4896.0000,5504.0000 L 32.0000,5504.0000 L 32.0000,6064.0000 Z" stroke="#000000" stroke-width="15.0000"  stroke-linecap="round"  stroke-linejoin="round" fill="none" />
</g>
<g transform="matrix(1.0000 0.0000 0.0000 1.0000 0.0000 0.0000)">
<text font-family="Arial" fill="#000000" style ="white-space:pre;" font-weight="400" text-anchor="start" x="85.0000" y="366.0000" font-size="13.0000" ><![CDATA[MAC]]></text>
<text font-family="Arial" fill="#000000" style ="white-space:pre;" font-weight="400" text-anchor="start" x="115.0000" y="366.0000" font-size="13.0000" ><![CDATA[-]]></text>
<text font-family="Arial" fill="#000000" style ="white-space:pre;" font-weight="400" text-anchor="start" x="119.0000" y="366.0000" font-size="13.0000" ><![CDATA[I ]]></text>
<text font-family="Arial" fill="#000000" style ="white-space:pre;" font-weight="400" text-anchor="start" x="126.0000" y="366.0000" font-size="13.0000" ><![CDATA[(]]></text>
<text font-family="Arial" fill="#000000" style ="white-space:pre;" font-weight="400" text-anchor="start" x="131.0000" y="366.0000" font-size="13.0000" ><![CDATA[cont]]></text>
<text font-family="Arial" fill="#000000" style ="white-space:pre;" font-weight="400" text-anchor="start" x="156.0000" y="366.0000" font-size="13.0000" ><![CDATA[.) (]]></text>
<text font-family="Arial" fill="#000000" style ="white-space:pre;" font-weight="400" text-anchor="start" x="172.0000" y="366.0000" font-size="13.0000" ><![CDATA[optional]]></text>
<text font-family="Arial" fill="#000000" style ="white-space:pre;" font-weight="400" text-anchor="start" x="219.0000" y="366.0000" font-size="13.0000" ><![CDATA[)]]></text>
</g>
<g transform="matrix(0.0625 0.0000 0.0000 0.0625 0.0000 0.0000)">
<path d="M 5120.0000,3808.0000 L 5120.0000,4416.0000 L 6032.0000,4416.0000 L 6032.0000,3808.0000 L 5120.0000,3808.0000 Z" stroke-width="1px" stroke="#FFFFFF"  fill="#FFFFFF" />
</g>
<g transform="matrix(1.0000 0.0000 0.0000 1.0000 0.0000 0.0000)">
<text font-family="Arial" fill="#000000" style ="white-space:pre;" font-weight="400" text-anchor="start" x="325.0000" y="261.0000" font-size="13.0000" ><![CDATA[Oct ]]></text>
<text font-family="Arial" fill="#000000" style ="white-space:pre;" font-weight="400" text-anchor="start" x="350.0000" y="261.0000" font-size="13.0000" ><![CDATA[N]]></text>
<text font-family="Arial" fill="#000000" style ="white-space:pre;" font-weight="400" text-anchor="start" x="359.0000" y="261.0000" font-size="13.0000" ><![CDATA[-]]></text>
<text font-family="Arial" fill="#000000" style ="white-space:pre;" font-weight="400" text-anchor="start" x="364.0000" y="261.0000" font-size="13.0000" ><![CDATA[3]]></text>
</g>
<g transform="matrix(0.0625 0.0000 0.0000 0.0625 0.0000 0.0000)">
<path d="M 5120.0000,4368.0000 L 5120.0000,4976.0000 L 6032.0000,4976.0000 L 6032.0000,4368.0000 L 5120.0000,4368.0000 Z" stroke-width="1px" stroke="#FFFFFF"  fill="#FFFFFF" />
</g>
<g transform="matrix(1.0000 0.0000 0.0000 1.0000 0.0000 0.0000)">
<text font-family="Arial" fill="#000000" style ="white-space:pre;" font-weight="400" text-anchor="start" x="325.0000" y="296.0000" font-size="13.0000" ><![CDATA[Oct ]]></text>
<text font-family="Arial" fill="#000000" style ="white-space:pre;" font-weight="400" text-anchor="start" x="350.0000" y="296.0000" font-size="13.0000" ><![CDATA[N]]></text>
<text font-family="Arial" fill="#000000" style ="white-space:pre;" font-weight="400" text-anchor="start" x="359.0000" y="296.0000" font-size="13.0000" ><![CDATA[-]]></text>
<text font-family="Arial" fill="#000000" style ="white-space:pre;" font-weight="400" text-anchor="start" x="364.0000" y="296.0000" font-size="13.0000" ><![CDATA[2]]></text>
</g>
<g transform="matrix(0.0625 0.0000 0.0000 0.0625 0.0000 0.0000)">
<path d="M 5120.0000,4928.0000 L 5120.0000,5536.0000 L 6032.0000,5536.0000 L 6032.0000,4928.0000 L 5120.0000,4928.0000 Z" stroke-width="1px" stroke="#FFFFFF"  fill="#FFFFFF" />
</g>
<g transform="matrix(1.0000 0.0000 0.0000 1.0000 0.0000 0.0000)">
<text font-family="Arial" fill="#000000" style ="white-space:pre;" font-weight="400" text-anchor="start" x="325.0000" y="331.0000" font-size="13.0000" ><![CDATA[Oct ]]></text>
<text font-family="Arial" fill="#000000" style ="white-space:pre;" font-weight="400" text-anchor="start" x="350.0000" y="331.0000" font-size="13.0000" ><![CDATA[N]]></text>
<text font-family="Arial" fill="#000000" style ="white-space:pre;" font-weight="400" text-anchor="start" x="359.0000" y="331.0000" font-size="13.0000" ><![CDATA[-]]></text>
<text font-family="Arial" fill="#000000" style ="white-space:pre;" font-weight="400" text-anchor="start" x="364.0000" y="331.0000" font-size="13.0000" ><![CDATA[1]]></text>
</g>
<g transform="matrix(0.0625 0.0000 0.0000 0.0625 0.0000 0.0000)">
<path d="M 5120.0000,5504.0000 L 5120.0000,6112.0000 L 6032.0000,6112.0000 L 6032.0000,5504.0000 L 5120.0000,5504.0000 Z" stroke-width="1px" stroke="#FFFFFF"  fill="#FFFFFF" />
</g>
<g transform="matrix(1.0000 0.0000 0.0000 1.0000 0.0000 0.0000)">
<text font-family="Arial" fill="#000000" style ="white-space:pre;" font-weight="400" text-anchor="start" x="325.0000" y="367.0000" font-size="13.0000" ><![CDATA[Oct ]]></text>
<text font-family="Arial" fill="#000000" style ="white-space:pre;" font-weight="400" text-anchor="start" x="350.0000" y="367.0000" font-size="13.0000" ><![CDATA[N]]></text>
</g>
<g transform="matrix(0.0625 0.0000 0.0000 0.0625 0.0000 0.0000)">
<path d="M 640.0000,432.0000 L 640.0000,1040.0000 L 2496.0000,1040.0000 L 2496.0000,432.0000 L 640.0000,432.0000 Z" stroke-width="1px" stroke="#FACCA7"  fill="#FACCA7" />
</g>
<g transform="matrix(1.0000 0.0000 0.0000 1.0000 0.0000 0.0000)">
</g>
<g transform="matrix(0.0625 0.0000 0.0000 0.0625 0.0000 0.0000)">
<path d="M 640.0000,1040.0000 L 2496.0000,1040.0000 L 2496.0000,432.0000 L 640.0000,432.0000 L 640.0000,1040.0000 Z" stroke="#000000" stroke-width="15.0000"  stroke-linecap="round"  stroke-linejoin="round" fill="none" />
</g>
<g transform="matrix(1.0000 0.0000 0.0000 1.0000 0.0000 0.0000)">
<text font-family="Arial" fill="#000000" style ="white-space:pre;" font-weight="400" text-anchor="start" x="68.0000" y="50.0000" font-size="13.0000" ><![CDATA[SDU Type]]></text>
</g>
<g transform="matrix(0.0625 0.0000 0.0000 0.0625 0.0000 0.0000)">
<path d="M 2464.0000,432.0000 L 2464.0000,1040.0000 L 4896.0000,1040.0000 L 4896.0000,432.0000 L 2464.0000,432.0000 Z" stroke-width="1px" stroke="#FACCA7"  fill="#FACCA7" />
</g>
<g transform="matrix(1.0000 0.0000 0.0000 1.0000 0.0000 0.0000)">
</g>
<g transform="matrix(0.0625 0.0000 0.0000 0.0625 0.0000 0.0000)">
<path d="M 2464.0000,1040.0000 L 4896.0000,1040.0000 L 4896.0000,432.0000 L 2464.0000,432.0000 L 2464.0000,1040.0000 Z" stroke="#000000" stroke-width="15.0000"  stroke-linecap="round"  stroke-linejoin="round" fill="none" />
</g>
<g transform="matrix(1.0000 0.0000 0.0000 1.0000 0.0000 0.0000)">
<text font-family="Arial" fill="#000000" style ="white-space:pre;" font-weight="400" text-anchor="start" x="200.0000" y="50.0000" font-size="13.0000" ><![CDATA[PDCP S]]></text>
<text font-family="Arial" fill="#000000" style ="white-space:pre;" font-weight="400" text-anchor="start" x="250.0000" y="50.0000" font-size="13.0000" ><![CDATA[N]]></text>
</g>
<g transform="matrix(0.0625 0.0000 0.0000 0.0625 0.0000 0.0000)">
<path d="M 32.0000,1600.0000 L 32.0000,2160.0000 L 4896.0000,2160.0000 L 4896.0000,1600.0000 L 32.0000,1600.0000 Z" stroke-width="1px" stroke="#FACCA7"  fill="#FACCA7" />
</g>
<g transform="matrix(1.0000 0.0000 0.0000 1.0000 0.0000 0.0000)">
</g>
<g transform="matrix(0.0625 0.0000 0.0000 0.0625 0.0000 0.0000)">
<path d="M 32.0000,2160.0000 L 4896.0000,2160.0000 L 4896.0000,1600.0000 L 32.0000,1600.0000 L 32.0000,2160.0000 Z" stroke="#000000" stroke-width="15.0000"  stroke-linecap="round"  stroke-linejoin="round" fill="none" />
</g>
<g transform="matrix(1.0000 0.0000 0.0000 1.0000 0.0000 0.0000)">
<text font-family="Times New Roman" fill="#000000" style ="white-space:pre;" font-weight="400" text-anchor="start" x="123.0000" y="122.0000" font-size="13.0000" ><![CDATA[K]]></text>
<text font-family="Times New Roman" fill="#000000" style ="white-space:pre;" font-weight="400" text-anchor="start" x="133.0000" y="124.0000" font-size="9.0000" ><![CDATA[NRP]]></text>
<text font-family="Times New Roman" fill="#000000" style ="white-space:pre;" font-weight="400" text-anchor="start" x="150.0000" y="124.0000" font-size="9.0000" ><![CDATA[-]]></text>
<text font-family="Times New Roman" fill="#000000" style ="white-space:pre;" font-weight="400" text-anchor="start" x="153.0000" y="124.0000" font-size="9.0000" ><![CDATA[sess]]></text>
<text font-family="Times New Roman" fill="#000000" style ="white-space:pre;" font-weight="400" text-anchor="start" x="170.0000" y="122.0000" font-size="13.0000" ><![CDATA[ID]]></text>
</g>
<g transform="matrix(0.0625 0.0000 0.0000 0.0625 0.0000 0.0000)">
<path d="M 32.0000,2160.0000 L 32.0000,2704.0000 L 4896.0000,2704.0000 L 4896.0000,2160.0000 L 32.0000,2160.0000 Z" stroke-width="1px" stroke="#FACCA7"  fill="#FACCA7" />
</g>
<g transform="matrix(1.0000 0.0000 0.0000 1.0000 0.0000 0.0000)">
</g>
<g transform="matrix(0.0625 0.0000 0.0000 0.0625 0.0000 0.0000)">
<path d="M 32.0000,2704.0000 L 4896.0000,2704.0000 L 4896.0000,2160.0000 L 32.0000,2160.0000 L 32.0000,2704.0000 Z" stroke="#000000" stroke-width="15.0000"  stroke-linecap="round"  stroke-linejoin="round" fill="none" />
</g>
<g transform="matrix(1.0000 0.0000 0.0000 1.0000 0.0000 0.0000)">
<text font-family="Times New Roman" fill="#000000" style ="white-space:pre;" font-weight="400" text-anchor="start" x="103.0000" y="156.0000" font-size="13.0000" ><![CDATA[K]]></text>
<text font-family="Times New Roman" fill="#000000" style ="white-space:pre;" font-weight="400" text-anchor="start" x="113.0000" y="158.0000" font-size="9.0000" ><![CDATA[NRP]]></text>
<text font-family="Times New Roman" fill="#000000" style ="white-space:pre;" font-weight="400" text-anchor="start" x="130.0000" y="158.0000" font-size="9.0000" ><![CDATA[-]]></text>
<text font-family="Times New Roman" fill="#000000" style ="white-space:pre;" font-weight="400" text-anchor="start" x="133.0000" y="158.0000" font-size="9.0000" ><![CDATA[sess]]></text>
<text font-family="Times New Roman" fill="#000000" style ="white-space:pre;" font-weight="400" text-anchor="start" x="150.0000" y="156.0000" font-size="13.0000" ><![CDATA[ID]]></text>
<text font-family="Arial" fill="#000000" style ="white-space:pre;" font-weight="400" text-anchor="start" x="167.0000" y="156.0000" font-size="13.0000" ><![CDATA[(]]></text>
<text font-family="Arial" fill="#000000" style ="white-space:pre;" font-weight="400" text-anchor="start" x="172.0000" y="156.0000" font-size="13.0000" ><![CDATA[cont]]></text>
<text font-family="Arial" fill="#000000" style ="white-space:pre;" font-weight="400" text-anchor="start" x="197.0000" y="156.0000" font-size="13.0000" ><![CDATA[.)]]></text>
</g>
<g transform="matrix(0.0625 0.0000 0.0000 0.0625 0.0000 0.0000)">
<path d="M 5120.0000,1600.0000 L 5120.0000,2208.0000 L 6032.0000,2208.0000 L 6032.0000,1600.0000 L 5120.0000,1600.0000 Z" stroke-width="1px" stroke="#FFFFFF"  fill="#FFFFFF" />
</g>
<g transform="matrix(1.0000 0.0000 0.0000 1.0000 0.0000 0.0000)">
<text font-family="Arial" fill="#000000" style ="white-space:pre;" font-weight="400" text-anchor="start" x="325.0000" y="123.0000" font-size="13.0000" ><![CDATA[Oct ]]></text>
<text font-family="Arial" fill="#000000" style ="white-space:pre;" font-weight="400" text-anchor="start" x="350.0000" y="123.0000" font-size="13.0000" ><![CDATA[3]]></text>
</g>
<g transform="matrix(0.0625 0.0000 0.0000 0.0625 0.0000 0.0000)">
<path d="M 5120.0000,2160.0000 L 5120.0000,2768.0000 L 6032.0000,2768.0000 L 6032.0000,2160.0000 L 5120.0000,2160.0000 Z" stroke-width="1px" stroke="#FFFFFF"  fill="#FFFFFF" />
</g>
<g transform="matrix(1.0000 0.0000 0.0000 1.0000 0.0000 0.0000)">
<text font-family="Arial" fill="#000000" style ="white-space:pre;" font-weight="400" text-anchor="start" x="325.0000" y="158.0000" font-size="13.0000" ><![CDATA[Oct ]]></text>
<text font-family="Arial" fill="#000000" style ="white-space:pre;" font-weight="400" text-anchor="start" x="350.0000" y="158.0000" font-size="13.0000" ><![CDATA[4]]></text>
</g>
</g>
</svg>
