<?xml version="1.0"  encoding="UTF-8" standalone="no"?>
<svg version="1.1" xmlns="http://www.w3.org/2000/svg" xmlns:xlink="http://www.w3.org/1999/xlink" width="376.0000" height="346.0000">
<g transform="translate(-1.0000, -1.0000)">
<g transform="matrix(0.0625 0.0000 0.0000 0.0625 0.0000 0.0000)">
<path d="M 43.0000,433.0000 L 43.0000,1041.0000 L 648.0000,1041.0000 L 648.0000,433.0000 L 43.0000,433.0000 Z" stroke-width="1px" stroke="#FACCA7"  fill="#FACCA7" />
</g>
<g transform="matrix(1.0000 0.0000 0.0000 1.0000 0.0000 0.0000)">
</g>
<g transform="matrix(0.0625 0.0000 0.0000 0.0625 0.0000 0.0000)">
<path d="M 43.0000,1041.0000 L 648.0000,1041.0000 L 648.0000,433.0000 L 43.0000,433.0000 L 43.0000,1041.0000 Z" stroke="#000000" stroke-width="15.0000"  stroke-linecap="round"  stroke-linejoin="round" fill="none" />
</g>
<g transform="matrix(1.0000 0.0000 0.0000 1.0000 0.0000 0.0000)">
<text font-family="Arial" fill="#000000" style ="white-space:pre;" font-weight="400" text-anchor="start" x="10.0000" y="50.0000" font-size="13.0000" ><![CDATA[D]]></text>
<text font-family="Arial" fill="#000000" style ="white-space:pre;" font-weight="400" text-anchor="start" x="20.0000" y="50.0000" font-size="13.0000" ><![CDATA[/]]></text>
<text font-family="Arial" fill="#000000" style ="white-space:pre;" font-weight="400" text-anchor="start" x="23.0000" y="50.0000" font-size="13.0000" ><![CDATA[C]]></text>
</g>
<g transform="matrix(0.0625 0.0000 0.0000 0.0625 0.0000 0.0000)">
<path d="M 3668.0000,433.0000 L 3668.0000,1041.0000 L 4893.0000,1041.0000 L 4893.0000,433.0000 L 3668.0000,433.0000 Z" stroke-width="1px" stroke="#FACCA7"  fill="#FACCA7" />
</g>
<g transform="matrix(1.0000 0.0000 0.0000 1.0000 0.0000 0.0000)">
</g>
<g transform="matrix(0.0625 0.0000 0.0000 0.0625 0.0000 0.0000)">
<path d="M 3668.0000,1041.0000 L 4893.0000,1041.0000 L 4893.0000,433.0000 L 3668.0000,433.0000 L 3668.0000,1041.0000 Z" stroke="#000000" stroke-width="15.0000"  stroke-linecap="round"  stroke-linejoin="round" fill="none" />
</g>
<g transform="matrix(1.0000 0.0000 0.0000 1.0000 0.0000 0.0000)">
<text font-family="Arial" fill="#000000" style ="white-space:pre;" font-weight="400" text-anchor="start" x="238.0000" y="50.0000" font-size="13.0000" ><![CDATA[PDCP S]]></text>
<text font-family="Arial" fill="#000000" style ="white-space:pre;" font-weight="400" text-anchor="start" x="288.0000" y="50.0000" font-size="13.0000" ><![CDATA[N]]></text>
</g>
<g transform="matrix(0.0625 0.0000 0.0000 0.0625 0.0000 0.0000)">
<path d="M 648.0000,433.0000 L 648.0000,1041.0000 L 1256.0000,1041.0000 L 1256.0000,433.0000 L 648.0000,433.0000 Z" stroke-width="1px" stroke="#FACCA7"  fill="#FACCA7" />
</g>
<g transform="matrix(1.0000 0.0000 0.0000 1.0000 0.0000 0.0000)">
</g>
<g transform="matrix(0.0625 0.0000 0.0000 0.0625 0.0000 0.0000)">
<path d="M 648.0000,1041.0000 L 1256.0000,1041.0000 L 1256.0000,433.0000 L 648.0000,433.0000 L 648.0000,1041.0000 Z" stroke="#000000" stroke-width="15.0000"  stroke-linecap="round"  stroke-linejoin="round" fill="none" />
</g>
<g transform="matrix(1.0000 0.0000 0.0000 1.0000 0.0000 0.0000)">
<text font-family="Arial" fill="#000000" style ="white-space:pre;" font-weight="400" text-anchor="start" x="55.0000" y="50.0000" font-size="13.0000" ><![CDATA[R]]></text>
</g>
<g transform="matrix(0.0625 0.0000 0.0000 0.0625 0.0000 0.0000)">
<path d="M 1256.0000,433.0000 L 1256.0000,1041.0000 L 1864.0000,1041.0000 L 1864.0000,433.0000 L 1256.0000,433.0000 Z" stroke-width="1px" stroke="#FACCA7"  fill="#FACCA7" />
</g>
<g transform="matrix(1.0000 0.0000 0.0000 1.0000 0.0000 0.0000)">
</g>
<g transform="matrix(0.0625 0.0000 0.0000 0.0625 0.0000 0.0000)">
<path d="M 1256.0000,1041.0000 L 1864.0000,1041.0000 L 1864.0000,433.0000 L 1256.0000,433.0000 L 1256.0000,1041.0000 Z" stroke="#000000" stroke-width="15.0000"  stroke-linecap="round"  stroke-linejoin="round" fill="none" />
</g>
<g transform="matrix(1.0000 0.0000 0.0000 1.0000 0.0000 0.0000)">
<text font-family="Arial" fill="#000000" style ="white-space:pre;" font-weight="400" text-anchor="start" x="93.0000" y="50.0000" font-size="13.0000" ><![CDATA[R]]></text>
</g>
<g transform="matrix(0.0625 0.0000 0.0000 0.0625 0.0000 0.0000)">
<path d="M 1864.0000,433.0000 L 1864.0000,1041.0000 L 2473.0000,1041.0000 L 2473.0000,433.0000 L 1864.0000,433.0000 Z" stroke-width="1px" stroke="#FACCA7"  fill="#FACCA7" />
</g>
<g transform="matrix(1.0000 0.0000 0.0000 1.0000 0.0000 0.0000)">
</g>
<g transform="matrix(0.0625 0.0000 0.0000 0.0625 0.0000 0.0000)">
<path d="M 1864.0000,1041.0000 L 2473.0000,1041.0000 L 2473.0000,433.0000 L 1864.0000,433.0000 L 1864.0000,1041.0000 Z" stroke="#000000" stroke-width="15.0000"  stroke-linecap="round"  stroke-linejoin="round" fill="none" />
</g>
<g transform="matrix(1.0000 0.0000 0.0000 1.0000 0.0000 0.0000)">
<text font-family="Arial" fill="#000000" style ="white-space:pre;" font-weight="400" text-anchor="start" x="131.0000" y="50.0000" font-size="13.0000" ><![CDATA[R]]></text>
</g>
<g transform="matrix(0.0625 0.0000 0.0000 0.0625 0.0000 0.0000)">
<path d="M 2459.0000,433.0000 L 2459.0000,1038.0000 L 3067.0000,1038.0000 L 3067.0000,433.0000 L 2459.0000,433.0000 Z" stroke-width="1px" stroke="#FACCA7"  fill="#FACCA7" />
</g>
<g transform="matrix(1.0000 0.0000 0.0000 1.0000 0.0000 0.0000)">
</g>
<g transform="matrix(0.0625 0.0000 0.0000 0.0625 0.0000 0.0000)">
<path d="M 2459.0000,1038.0000 L 3067.0000,1038.0000 L 3067.0000,433.0000 L 2459.0000,433.0000 L 2459.0000,1038.0000 Z" stroke="#000000" stroke-width="15.0000"  stroke-linecap="round"  stroke-linejoin="round" fill="none" />
</g>
<g transform="matrix(1.0000 0.0000 0.0000 1.0000 0.0000 0.0000)">
<text font-family="Arial" fill="#000000" style ="white-space:pre;" font-weight="400" text-anchor="start" x="168.0000" y="50.0000" font-size="13.0000" ><![CDATA[R]]></text>
</g>
<g transform="matrix(0.0625 0.0000 0.0000 0.0625 0.0000 0.0000)">
<path d="M 3067.0000,433.0000 L 3067.0000,1038.0000 L 3675.0000,1038.0000 L 3675.0000,433.0000 L 3067.0000,433.0000 Z" stroke-width="1px" stroke="#FACCA7"  fill="#FACCA7" />
</g>
<g transform="matrix(1.0000 0.0000 0.0000 1.0000 0.0000 0.0000)">
</g>
<g transform="matrix(0.0625 0.0000 0.0000 0.0625 0.0000 0.0000)">
<path d="M 3067.0000,1038.0000 L 3675.0000,1038.0000 L 3675.0000,433.0000 L 3067.0000,433.0000 L 3067.0000,1038.0000 Z" stroke="#000000" stroke-width="15.0000"  stroke-linecap="round"  stroke-linejoin="round" fill="none" />
</g>
<g transform="matrix(1.0000 0.0000 0.0000 1.0000 0.0000 0.0000)">
<text font-family="Arial" fill="#000000" style ="white-space:pre;" font-weight="400" text-anchor="start" x="206.0000" y="50.0000" font-size="13.0000" ><![CDATA[R]]></text>
</g>
<g transform="matrix(0.0625 0.0000 0.0000 0.0625 0.0000 0.0000)">
<path d="M 40.0000,2658.0000 L 40.0000,3263.0000 L 4893.0000,3263.0000 L 4893.0000,2658.0000 L 40.0000,2658.0000 Z" stroke-width="1px" stroke="#FFFFFF"  fill="#FFFFFF" />
</g>
<g transform="matrix(1.0000 0.0000 0.0000 1.0000 0.0000 0.0000)">
<text font-family="Arial" fill="#000000" style ="white-space:pre;" font-weight="400" text-anchor="start" x="149.0000" y="189.0000" font-size="13.0000" ><![CDATA[...]]></text>
</g>
<g transform="matrix(0.0625 0.0000 0.0000 0.0625 0.0000 0.0000)">
<path d="M 40.0000,1038.0000 L 40.0000,1592.0000 L 4893.0000,1592.0000 L 4893.0000,1038.0000 L 40.0000,1038.0000 Z" stroke-width="1px" stroke="#FACCA7"  fill="#FACCA7" />
</g>
<g transform="matrix(1.0000 0.0000 0.0000 1.0000 0.0000 0.0000)">
</g>
<g transform="matrix(0.0625 0.0000 0.0000 0.0625 0.0000 0.0000)">
<path d="M 40.0000,1592.0000 L 4893.0000,1592.0000 L 4893.0000,1038.0000 L 40.0000,1038.0000 L 40.0000,1592.0000 Z" stroke="#000000" stroke-width="15.0000"  stroke-linecap="round"  stroke-linejoin="round" fill="none" />
</g>
<g transform="matrix(1.0000 0.0000 0.0000 1.0000 0.0000 0.0000)">
<text font-family="Arial" fill="#000000" style ="white-space:pre;" font-weight="400" text-anchor="start" x="104.0000" y="86.0000" font-size="13.0000" ><![CDATA[PDCP S]]></text>
<text font-family="Arial" fill="#000000" style ="white-space:pre;" font-weight="400" text-anchor="start" x="153.0000" y="86.0000" font-size="13.0000" ><![CDATA[N]]></text>
<text font-family="Arial" fill="#000000" style ="white-space:pre;" font-weight="400" text-anchor="start" x="167.0000" y="86.0000" font-size="13.0000" ><![CDATA[(]]></text>
<text font-family="Arial" fill="#000000" style ="white-space:pre;" font-weight="400" text-anchor="start" x="171.0000" y="86.0000" font-size="13.0000" ><![CDATA[cont]]></text>
<text font-family="Arial" fill="#000000" style ="white-space:pre;" font-weight="400" text-anchor="start" x="196.0000" y="86.0000" font-size="13.0000" ><![CDATA[.)]]></text>
</g>
<g transform="matrix(0.0625 0.0000 0.0000 0.0625 0.0000 0.0000)">
<path d="M 40.0000,2142.0000 L 40.0000,2690.0000 L 4893.0000,2690.0000 L 4893.0000,2142.0000 L 40.0000,2142.0000 Z" stroke-width="1px" stroke="#FDEFE3"  fill="#FDEFE3" />
</g>
<g transform="matrix(1.0000 0.0000 0.0000 1.0000 0.0000 0.0000)">
</g>
<g transform="matrix(0.0625 0.0000 0.0000 0.0625 0.0000 0.0000)">
<path d="M 40.0000,2690.0000 L 4893.0000,2690.0000 L 4893.0000,2142.0000 L 40.0000,2142.0000 L 40.0000,2690.0000 Z" stroke="#000000" stroke-width="15.0000"  stroke-linecap="round"  stroke-linejoin="round" fill="none" />
</g>
<g transform="matrix(1.0000 0.0000 0.0000 1.0000 0.0000 0.0000)">
<text font-family="Arial" fill="#000000" style ="white-space:pre;" font-weight="400" text-anchor="start" x="140.0000" y="155.0000" font-size="13.0000" ><![CDATA[Data]]></text>
</g>
<g transform="matrix(0.0625 0.0000 0.0000 0.0625 0.0000 0.0000)">
<path d="M 55.0000,136.0000 L 4893.0000,136.0000 " stroke="#000000" stroke-width="5.0000"  stroke-linecap="round"  stroke-linejoin="round" fill="none" />
</g>
<g transform="matrix(1.0000 0.0000 0.0000 1.0000 0.0000 0.0000)">
</g>
<g transform="matrix(0.0625 0.0000 0.0000 0.0625 0.0000 0.0000)">
<path d="M 55.0000,40.0000 L 55.0000,204.0000 " stroke="#000000" stroke-width="15.0000"  stroke-linecap="round"  stroke-linejoin="round" fill="none" />
</g>
<g transform="matrix(1.0000 0.0000 0.0000 1.0000 0.0000 0.0000)">
</g>
<g transform="matrix(0.0625 0.0000 0.0000 0.0625 0.0000 0.0000)">
<path d="M 4893.0000,44.0000 L 4893.0000,208.0000 " stroke="#000000" stroke-width="15.0000"  stroke-linecap="round"  stroke-linejoin="round" fill="none" />
</g>
<g transform="matrix(1.0000 0.0000 0.0000 1.0000 0.0000 0.0000)">
</g>
<g transform="matrix(0.0625 0.0000 0.0000 0.0625 0.0000 0.0000)">
<path d="M 4288.0000,44.0000 L 4288.0000,208.0000 " stroke="#000000" stroke-width="15.0000"  stroke-linecap="round"  stroke-linejoin="round" fill="none" />
</g>
<g transform="matrix(1.0000 0.0000 0.0000 1.0000 0.0000 0.0000)">
</g>
<g transform="matrix(0.0625 0.0000 0.0000 0.0625 0.0000 0.0000)">
<path d="M 1869.0000,40.0000 L 1869.0000,204.0000 " stroke="#000000" stroke-width="15.0000"  stroke-linecap="round"  stroke-linejoin="round" fill="none" />
</g>
<g transform="matrix(1.0000 0.0000 0.0000 1.0000 0.0000 0.0000)">
</g>
<g transform="matrix(0.0625 0.0000 0.0000 0.0625 0.0000 0.0000)">
<path d="M 1265.0000,40.0000 L 1265.0000,204.0000 " stroke="#000000" stroke-width="15.0000"  stroke-linecap="round"  stroke-linejoin="round" fill="none" />
</g>
<g transform="matrix(1.0000 0.0000 0.0000 1.0000 0.0000 0.0000)">
</g>
<g transform="matrix(0.0625 0.0000 0.0000 0.0625 0.0000 0.0000)">
<path d="M 660.0000,40.0000 L 660.0000,204.0000 " stroke="#000000" stroke-width="15.0000"  stroke-linecap="round"  stroke-linejoin="round" fill="none" />
</g>
<g transform="matrix(1.0000 0.0000 0.0000 1.0000 0.0000 0.0000)">
</g>
<g transform="matrix(0.0625 0.0000 0.0000 0.0625 0.0000 0.0000)">
<path d="M 2474.0000,44.0000 L 2474.0000,208.0000 " stroke="#000000" stroke-width="15.0000"  stroke-linecap="round"  stroke-linejoin="round" fill="none" />
</g>
<g transform="matrix(1.0000 0.0000 0.0000 1.0000 0.0000 0.0000)">
</g>
<g transform="matrix(0.0625 0.0000 0.0000 0.0625 0.0000 0.0000)">
<path d="M 3079.0000,44.0000 L 3079.0000,208.0000 " stroke="#000000" stroke-width="15.0000"  stroke-linecap="round"  stroke-linejoin="round" fill="none" />
</g>
<g transform="matrix(1.0000 0.0000 0.0000 1.0000 0.0000 0.0000)">
</g>
<g transform="matrix(0.0625 0.0000 0.0000 0.0625 0.0000 0.0000)">
<path d="M 3684.0000,44.0000 L 3684.0000,208.0000 " stroke="#000000" stroke-width="15.0000"  stroke-linecap="round"  stroke-linejoin="round" fill="none" />
</g>
<g transform="matrix(1.0000 0.0000 0.0000 1.0000 0.0000 0.0000)">
</g>
<g transform="matrix(0.0625 0.0000 0.0000 0.0625 0.0000 0.0000)">
<path d="M 5120.0000,426.0000 L 5120.0000,1031.0000 L 6027.0000,1031.0000 L 6027.0000,426.0000 L 5120.0000,426.0000 Z" stroke-width="1px" stroke="#FFFFFF"  fill="#FFFFFF" />
</g>
<g transform="matrix(1.0000 0.0000 0.0000 1.0000 0.0000 0.0000)">
<text font-family="Arial" fill="#000000" style ="white-space:pre;" font-weight="400" text-anchor="start" x="325.0000" y="50.0000" font-size="13.0000" ><![CDATA[Oct ]]></text>
<text font-family="Arial" fill="#000000" style ="white-space:pre;" font-weight="400" text-anchor="start" x="350.0000" y="50.0000" font-size="13.0000" ><![CDATA[1]]></text>
</g>
<g transform="matrix(0.0625 0.0000 0.0000 0.0625 0.0000 0.0000)">
<path d="M 5120.0000,997.0000 L 5120.0000,1601.0000 L 6027.0000,1601.0000 L 6027.0000,997.0000 L 5120.0000,997.0000 Z" stroke-width="1px" stroke="#FFFFFF"  fill="#FFFFFF" />
</g>
<g transform="matrix(1.0000 0.0000 0.0000 1.0000 0.0000 0.0000)">
<text font-family="Arial" fill="#000000" style ="white-space:pre;" font-weight="400" text-anchor="start" x="325.0000" y="85.0000" font-size="13.0000" ><![CDATA[Oct ]]></text>
<text font-family="Arial" fill="#000000" style ="white-space:pre;" font-weight="400" text-anchor="start" x="350.0000" y="85.0000" font-size="13.0000" ><![CDATA[2]]></text>
</g>
<g transform="matrix(0.0625 0.0000 0.0000 0.0625 0.0000 0.0000)">
<path d="M 5120.0000,2142.0000 L 5120.0000,2747.0000 L 6027.0000,2747.0000 L 6027.0000,2142.0000 L 5120.0000,2142.0000 Z" stroke-width="1px" stroke="#FFFFFF"  fill="#FFFFFF" />
</g>
<g transform="matrix(1.0000 0.0000 0.0000 1.0000 0.0000 0.0000)">
<text font-family="Arial" fill="#000000" style ="white-space:pre;" font-weight="400" text-anchor="start" x="325.0000" y="157.0000" font-size="13.0000" ><![CDATA[Oct ]]></text>
<text font-family="Arial" fill="#000000" style ="white-space:pre;" font-weight="400" text-anchor="start" x="350.0000" y="157.0000" font-size="13.0000" ><![CDATA[4]]></text>
</g>
<g transform="matrix(0.0625 0.0000 0.0000 0.0625 0.0000 0.0000)">
<path d="M 40.0000,1587.0000 L 40.0000,2142.0000 L 4893.0000,2142.0000 L 4893.0000,1587.0000 L 40.0000,1587.0000 Z" stroke-width="1px" stroke="#FACCA7"  fill="#FACCA7" />
</g>
<g transform="matrix(1.0000 0.0000 0.0000 1.0000 0.0000 0.0000)">
</g>
<g transform="matrix(0.0625 0.0000 0.0000 0.0625 0.0000 0.0000)">
<path d="M 40.0000,2142.0000 L 4893.0000,2142.0000 L 4893.0000,1587.0000 L 40.0000,1587.0000 L 40.0000,2142.0000 Z" stroke="#000000" stroke-width="15.0000"  stroke-linecap="round"  stroke-linejoin="round" fill="none" />
</g>
<g transform="matrix(1.0000 0.0000 0.0000 1.0000 0.0000 0.0000)">
<text font-family="Arial" fill="#000000" style ="white-space:pre;" font-weight="400" text-anchor="start" x="104.0000" y="121.0000" font-size="13.0000" ><![CDATA[PDCP S]]></text>
<text font-family="Arial" fill="#000000" style ="white-space:pre;" font-weight="400" text-anchor="start" x="153.0000" y="121.0000" font-size="13.0000" ><![CDATA[N]]></text>
<text font-family="Arial" fill="#000000" style ="white-space:pre;" font-weight="400" text-anchor="start" x="167.0000" y="121.0000" font-size="13.0000" ><![CDATA[(]]></text>
<text font-family="Arial" fill="#000000" style ="white-space:pre;" font-weight="400" text-anchor="start" x="171.0000" y="121.0000" font-size="13.0000" ><![CDATA[cont]]></text>
<text font-family="Arial" fill="#000000" style ="white-space:pre;" font-weight="400" text-anchor="start" x="196.0000" y="121.0000" font-size="13.0000" ><![CDATA[.)]]></text>
</g>
<g transform="matrix(0.0625 0.0000 0.0000 0.0625 0.0000 0.0000)">
<path d="M 5120.0000,1537.0000 L 5120.0000,2142.0000 L 6027.0000,2142.0000 L 6027.0000,1537.0000 L 5120.0000,1537.0000 Z" stroke-width="1px" stroke="#FFFFFF"  fill="#FFFFFF" />
</g>
<g transform="matrix(1.0000 0.0000 0.0000 1.0000 0.0000 0.0000)">
<text font-family="Arial" fill="#000000" style ="white-space:pre;" font-weight="400" text-anchor="start" x="325.0000" y="119.0000" font-size="13.0000" ><![CDATA[Oct ]]></text>
<text font-family="Arial" fill="#000000" style ="white-space:pre;" font-weight="400" text-anchor="start" x="350.0000" y="119.0000" font-size="13.0000" ><![CDATA[3]]></text>
</g>
<g transform="matrix(0.0625 0.0000 0.0000 0.0625 0.0000 0.0000)">
<path d="M 40.0000,3281.0000 L 40.0000,3835.0000 L 4893.0000,3835.0000 L 4893.0000,3281.0000 L 40.0000,3281.0000 Z" stroke-width="1px" stroke="#EDCDCB"  fill="#EDCDCB" />
</g>
<g transform="matrix(1.0000 0.0000 0.0000 1.0000 0.0000 0.0000)">
</g>
<g transform="matrix(0.0625 0.0000 0.0000 0.0625 0.0000 0.0000)">
<path d="M 40.0000,3835.0000 L 4893.0000,3835.0000 L 4893.0000,3281.0000 L 40.0000,3281.0000 L 40.0000,3835.0000 Z" stroke="#000000" stroke-width="15.0000"  stroke-linecap="round"  stroke-linejoin="round" fill="none" />
</g>
<g transform="matrix(1.0000 0.0000 0.0000 1.0000 0.0000 0.0000)">
<text font-family="Arial" fill="#000000" style ="white-space:pre;" font-weight="400" text-anchor="start" x="106.0000" y="226.0000" font-size="13.0000" ><![CDATA[MAC]]></text>
<text font-family="Arial" fill="#000000" style ="white-space:pre;" font-weight="400" text-anchor="start" x="135.0000" y="226.0000" font-size="13.0000" ><![CDATA[-]]></text>
<text font-family="Arial" fill="#000000" style ="white-space:pre;" font-weight="400" text-anchor="start" x="140.0000" y="226.0000" font-size="13.0000" ><![CDATA[I ]]></text>
<text font-family="Arial" fill="#000000" style ="white-space:pre;" font-weight="400" text-anchor="start" x="147.0000" y="226.0000" font-size="13.0000" ><![CDATA[(]]></text>
<text font-family="Arial" fill="#000000" style ="white-space:pre;" font-weight="400" text-anchor="start" x="152.0000" y="226.0000" font-size="13.0000" ><![CDATA[optional]]></text>
<text font-family="Arial" fill="#000000" style ="white-space:pre;" font-weight="400" text-anchor="start" x="198.0000" y="226.0000" font-size="13.0000" ><![CDATA[)]]></text>
</g>
<g transform="matrix(0.0625 0.0000 0.0000 0.0625 0.0000 0.0000)">
<path d="M 40.0000,3845.0000 L 40.0000,4399.0000 L 4893.0000,4399.0000 L 4893.0000,3845.0000 L 40.0000,3845.0000 Z" stroke-width="1px" stroke="#EDCDCB"  fill="#EDCDCB" />
</g>
<g transform="matrix(1.0000 0.0000 0.0000 1.0000 0.0000 0.0000)">
</g>
<g transform="matrix(0.0625 0.0000 0.0000 0.0625 0.0000 0.0000)">
<path d="M 40.0000,4399.0000 L 4893.0000,4399.0000 L 4893.0000,3845.0000 L 40.0000,3845.0000 L 40.0000,4399.0000 Z" stroke="#000000" stroke-width="15.0000"  stroke-linecap="round"  stroke-linejoin="round" fill="none" />
</g>
<g transform="matrix(1.0000 0.0000 0.0000 1.0000 0.0000 0.0000)">
<text font-family="Arial" fill="#000000" style ="white-space:pre;" font-weight="400" text-anchor="start" x="85.0000" y="262.0000" font-size="13.0000" ><![CDATA[MAC]]></text>
<text font-family="Arial" fill="#000000" style ="white-space:pre;" font-weight="400" text-anchor="start" x="114.0000" y="262.0000" font-size="13.0000" ><![CDATA[-]]></text>
<text font-family="Arial" fill="#000000" style ="white-space:pre;" font-weight="400" text-anchor="start" x="119.0000" y="262.0000" font-size="13.0000" ><![CDATA[I ]]></text>
<text font-family="Arial" fill="#000000" style ="white-space:pre;" font-weight="400" text-anchor="start" x="126.0000" y="262.0000" font-size="13.0000" ><![CDATA[(]]></text>
<text font-family="Arial" fill="#000000" style ="white-space:pre;" font-weight="400" text-anchor="start" x="131.0000" y="262.0000" font-size="13.0000" ><![CDATA[cont]]></text>
<text font-family="Arial" fill="#000000" style ="white-space:pre;" font-weight="400" text-anchor="start" x="156.0000" y="262.0000" font-size="13.0000" ><![CDATA[.) (]]></text>
<text font-family="Arial" fill="#000000" style ="white-space:pre;" font-weight="400" text-anchor="start" x="172.0000" y="262.0000" font-size="13.0000" ><![CDATA[optional]]></text>
<text font-family="Arial" fill="#000000" style ="white-space:pre;" font-weight="400" text-anchor="start" x="219.0000" y="262.0000" font-size="13.0000" ><![CDATA[)]]></text>
</g>
<g transform="matrix(0.0625 0.0000 0.0000 0.0625 0.0000 0.0000)">
<path d="M 40.0000,4389.0000 L 40.0000,4944.0000 L 4893.0000,4944.0000 L 4893.0000,4389.0000 L 40.0000,4389.0000 Z" stroke-width="1px" stroke="#EDCDCB"  fill="#EDCDCB" />
</g>
<g transform="matrix(1.0000 0.0000 0.0000 1.0000 0.0000 0.0000)">
</g>
<g transform="matrix(0.0625 0.0000 0.0000 0.0625 0.0000 0.0000)">
<path d="M 40.0000,4944.0000 L 4893.0000,4944.0000 L 4893.0000,4389.0000 L 40.0000,4389.0000 L 40.0000,4944.0000 Z" stroke="#000000" stroke-width="15.0000"  stroke-linecap="round"  stroke-linejoin="round" fill="none" />
</g>
<g transform="matrix(1.0000 0.0000 0.0000 1.0000 0.0000 0.0000)">
<text font-family="Arial" fill="#000000" style ="white-space:pre;" font-weight="400" text-anchor="start" x="85.0000" y="296.0000" font-size="13.0000" ><![CDATA[MAC]]></text>
<text font-family="Arial" fill="#000000" style ="white-space:pre;" font-weight="400" text-anchor="start" x="114.0000" y="296.0000" font-size="13.0000" ><![CDATA[-]]></text>
<text font-family="Arial" fill="#000000" style ="white-space:pre;" font-weight="400" text-anchor="start" x="119.0000" y="296.0000" font-size="13.0000" ><![CDATA[I ]]></text>
<text font-family="Arial" fill="#000000" style ="white-space:pre;" font-weight="400" text-anchor="start" x="126.0000" y="296.0000" font-size="13.0000" ><![CDATA[(]]></text>
<text font-family="Arial" fill="#000000" style ="white-space:pre;" font-weight="400" text-anchor="start" x="131.0000" y="296.0000" font-size="13.0000" ><![CDATA[cont]]></text>
<text font-family="Arial" fill="#000000" style ="white-space:pre;" font-weight="400" text-anchor="start" x="156.0000" y="296.0000" font-size="13.0000" ><![CDATA[.) (]]></text>
<text font-family="Arial" fill="#000000" style ="white-space:pre;" font-weight="400" text-anchor="start" x="172.0000" y="296.0000" font-size="13.0000" ><![CDATA[optional]]></text>
<text font-family="Arial" fill="#000000" style ="white-space:pre;" font-weight="400" text-anchor="start" x="219.0000" y="296.0000" font-size="13.0000" ><![CDATA[)]]></text>
</g>
<g transform="matrix(0.0625 0.0000 0.0000 0.0625 0.0000 0.0000)">
<path d="M 40.0000,4948.0000 L 40.0000,5503.0000 L 4893.0000,5503.0000 L 4893.0000,4948.0000 L 40.0000,4948.0000 Z" stroke-width="1px" stroke="#EDCDCB"  fill="#EDCDCB" />
</g>
<g transform="matrix(1.0000 0.0000 0.0000 1.0000 0.0000 0.0000)">
</g>
<g transform="matrix(0.0625 0.0000 0.0000 0.0625 0.0000 0.0000)">
<path d="M 40.0000,5503.0000 L 4893.0000,5503.0000 L 4893.0000,4948.0000 L 40.0000,4948.0000 L 40.0000,5503.0000 Z" stroke="#000000" stroke-width="15.0000"  stroke-linecap="round"  stroke-linejoin="round" fill="none" />
</g>
<g transform="matrix(1.0000 0.0000 0.0000 1.0000 0.0000 0.0000)">
<text font-family="Arial" fill="#000000" style ="white-space:pre;" font-weight="400" text-anchor="start" x="85.0000" y="331.0000" font-size="13.0000" ><![CDATA[MAC]]></text>
<text font-family="Arial" fill="#000000" style ="white-space:pre;" font-weight="400" text-anchor="start" x="114.0000" y="331.0000" font-size="13.0000" ><![CDATA[-]]></text>
<text font-family="Arial" fill="#000000" style ="white-space:pre;" font-weight="400" text-anchor="start" x="119.0000" y="331.0000" font-size="13.0000" ><![CDATA[I ]]></text>
<text font-family="Arial" fill="#000000" style ="white-space:pre;" font-weight="400" text-anchor="start" x="126.0000" y="331.0000" font-size="13.0000" ><![CDATA[(]]></text>
<text font-family="Arial" fill="#000000" style ="white-space:pre;" font-weight="400" text-anchor="start" x="131.0000" y="331.0000" font-size="13.0000" ><![CDATA[cont]]></text>
<text font-family="Arial" fill="#000000" style ="white-space:pre;" font-weight="400" text-anchor="start" x="156.0000" y="331.0000" font-size="13.0000" ><![CDATA[.) (]]></text>
<text font-family="Arial" fill="#000000" style ="white-space:pre;" font-weight="400" text-anchor="start" x="172.0000" y="331.0000" font-size="13.0000" ><![CDATA[optional]]></text>
<text font-family="Arial" fill="#000000" style ="white-space:pre;" font-weight="400" text-anchor="start" x="219.0000" y="331.0000" font-size="13.0000" ><![CDATA[)]]></text>
</g>
<g transform="matrix(0.0625 0.0000 0.0000 0.0625 0.0000 0.0000)">
<path d="M 5120.0000,3245.0000 L 5120.0000,3850.0000 L 6027.0000,3850.0000 L 6027.0000,3245.0000 L 5120.0000,3245.0000 Z" stroke-width="1px" stroke="#FFFFFF"  fill="#FFFFFF" />
</g>
<g transform="matrix(1.0000 0.0000 0.0000 1.0000 0.0000 0.0000)">
<text font-family="Arial" fill="#000000" style ="white-space:pre;" font-weight="400" text-anchor="start" x="325.0000" y="226.0000" font-size="13.0000" ><![CDATA[Oct ]]></text>
<text font-family="Arial" fill="#000000" style ="white-space:pre;" font-weight="400" text-anchor="start" x="350.0000" y="226.0000" font-size="13.0000" ><![CDATA[N]]></text>
<text font-family="Arial" fill="#000000" style ="white-space:pre;" font-weight="400" text-anchor="start" x="359.0000" y="226.0000" font-size="13.0000" ><![CDATA[-]]></text>
<text font-family="Arial" fill="#000000" style ="white-space:pre;" font-weight="400" text-anchor="start" x="364.0000" y="226.0000" font-size="13.0000" ><![CDATA[3]]></text>
</g>
<g transform="matrix(0.0625 0.0000 0.0000 0.0625 0.0000 0.0000)">
<path d="M 5120.0000,3810.0000 L 5120.0000,4414.0000 L 6027.0000,4414.0000 L 6027.0000,3810.0000 L 5120.0000,3810.0000 Z" stroke-width="1px" stroke="#FFFFFF"  fill="#FFFFFF" />
</g>
<g transform="matrix(1.0000 0.0000 0.0000 1.0000 0.0000 0.0000)">
<text font-family="Arial" fill="#000000" style ="white-space:pre;" font-weight="400" text-anchor="start" x="325.0000" y="261.0000" font-size="13.0000" ><![CDATA[Oct ]]></text>
<text font-family="Arial" fill="#000000" style ="white-space:pre;" font-weight="400" text-anchor="start" x="350.0000" y="261.0000" font-size="13.0000" ><![CDATA[N]]></text>
<text font-family="Arial" fill="#000000" style ="white-space:pre;" font-weight="400" text-anchor="start" x="359.0000" y="261.0000" font-size="13.0000" ><![CDATA[-]]></text>
<text font-family="Arial" fill="#000000" style ="white-space:pre;" font-weight="400" text-anchor="start" x="364.0000" y="261.0000" font-size="13.0000" ><![CDATA[2]]></text>
</g>
<g transform="matrix(0.0625 0.0000 0.0000 0.0625 0.0000 0.0000)">
<path d="M 5120.0000,4369.0000 L 5120.0000,4974.0000 L 6027.0000,4974.0000 L 6027.0000,4369.0000 L 5120.0000,4369.0000 Z" stroke-width="1px" stroke="#FFFFFF"  fill="#FFFFFF" />
</g>
<g transform="matrix(1.0000 0.0000 0.0000 1.0000 0.0000 0.0000)">
<text font-family="Arial" fill="#000000" style ="white-space:pre;" font-weight="400" text-anchor="start" x="325.0000" y="296.0000" font-size="13.0000" ><![CDATA[Oct ]]></text>
<text font-family="Arial" fill="#000000" style ="white-space:pre;" font-weight="400" text-anchor="start" x="350.0000" y="296.0000" font-size="13.0000" ><![CDATA[N]]></text>
<text font-family="Arial" fill="#000000" style ="white-space:pre;" font-weight="400" text-anchor="start" x="359.0000" y="296.0000" font-size="13.0000" ><![CDATA[-]]></text>
<text font-family="Arial" fill="#000000" style ="white-space:pre;" font-weight="400" text-anchor="start" x="364.0000" y="296.0000" font-size="13.0000" ><![CDATA[1]]></text>
</g>
<g transform="matrix(0.0625 0.0000 0.0000 0.0625 0.0000 0.0000)">
<path d="M 5120.0000,4944.0000 L 5120.0000,5548.0000 L 6027.0000,5548.0000 L 6027.0000,4944.0000 L 5120.0000,4944.0000 Z" stroke-width="1px" stroke="#FFFFFF"  fill="#FFFFFF" />
</g>
<g transform="matrix(1.0000 0.0000 0.0000 1.0000 0.0000 0.0000)">
<text font-family="Arial" fill="#000000" style ="white-space:pre;" font-weight="400" text-anchor="start" x="325.0000" y="332.0000" font-size="13.0000" ><![CDATA[Oct ]]></text>
<text font-family="Arial" fill="#000000" style ="white-space:pre;" font-weight="400" text-anchor="start" x="350.0000" y="332.0000" font-size="13.0000" ><![CDATA[N]]></text>
</g>
</g>
</svg>
