<?xml version="1.0"  encoding="UTF-8" standalone="no"?>
<svg version="1.1" xmlns="http://www.w3.org/2000/svg" xmlns:xlink="http://www.w3.org/1999/xlink" width="391.0000" height="313.0000">
<g transform="translate(-1.0000, -1.0000)">
<g transform="matrix(0.0625 0.0000 0.0000 0.0625 0.0000 0.0000)">
<path d="M 40.0000,3919.0000 L 40.0000,4523.0000 L 4878.0000,4523.0000 L 4878.0000,3919.0000 L 40.0000,3919.0000 Z" stroke-width="1px" stroke="#FFFFFF"  fill="#FFFFFF" />
</g>
<g transform="matrix(1.0000 0.0000 0.0000 1.0000 0.0000 0.0000)">
<text font-family="Arial" fill="#000000" style ="white-space:pre;" font-weight="400" text-anchor="start" x="148.0000" y="268.0000" font-size="13.0000" ><![CDATA[...]]></text>
</g>
<g transform="matrix(0.0625 0.0000 0.0000 0.0625 0.0000 0.0000)">
<path d="M 40.0000,3487.0000 L 40.0000,4091.0000 L 4878.0000,4091.0000 L 4878.0000,3487.0000 L 40.0000,3487.0000 Z" stroke-width="1px" stroke="#FDEFE3"  fill="#FDEFE3" />
</g>
<g transform="matrix(1.0000 0.0000 0.0000 1.0000 0.0000 0.0000)">
</g>
<g transform="matrix(0.0625 0.0000 0.0000 0.0625 0.0000 0.0000)">
<path d="M 40.0000,4091.0000 L 4878.0000,4091.0000 L 4878.0000,3487.0000 L 40.0000,3487.0000 L 40.0000,4091.0000 Z" stroke="#000000" stroke-width="15.0000"  stroke-linecap="round"  stroke-linejoin="round" fill="none" />
</g>
<g transform="matrix(1.0000 0.0000 0.0000 1.0000 0.0000 0.0000)">
<text font-family="Arial" fill="#000000" style ="white-space:pre;" font-weight="400" text-anchor="start" x="101.0000" y="241.0000" font-size="13.0000" ><![CDATA[Bitmap]]></text>
<text font-family="Arial" fill="#000000" style ="white-space:pre;" font-weight="400" text-anchor="start" x="143.0000" y="243.0000" font-size="9.0000" ><![CDATA[1 ]]></text>
<text font-family="Arial" fill="#000000" style ="white-space:pre;" font-weight="400" text-anchor="start" x="150.0000" y="241.0000" font-size="13.0000" ><![CDATA[(]]></text>
<text font-family="Arial" fill="#000000" style ="white-space:pre;" font-weight="400" text-anchor="start" x="155.0000" y="241.0000" font-size="13.0000" ><![CDATA[optional]]></text>
<text font-family="Arial" fill="#000000" style ="white-space:pre;" font-weight="400" text-anchor="start" x="201.0000" y="241.0000" font-size="13.0000" ><![CDATA[)]]></text>
</g>
<g transform="matrix(0.0625 0.0000 0.0000 0.0625 0.0000 0.0000)">
<path d="M 40.0000,463.0000 L 40.0000,1068.0000 L 645.0000,1068.0000 L 645.0000,463.0000 L 40.0000,463.0000 Z" stroke-width="1px" stroke="#FACCA7"  fill="#FACCA7" />
</g>
<g transform="matrix(1.0000 0.0000 0.0000 1.0000 0.0000 0.0000)">
</g>
<g transform="matrix(0.0625 0.0000 0.0000 0.0625 0.0000 0.0000)">
<path d="M 40.0000,1068.0000 L 645.0000,1068.0000 L 645.0000,463.0000 L 40.0000,463.0000 L 40.0000,1068.0000 Z" stroke="#000000" stroke-width="15.0000"  stroke-linecap="round"  stroke-linejoin="round" fill="none" />
</g>
<g transform="matrix(1.0000 0.0000 0.0000 1.0000 0.0000 0.0000)">
<text font-family="Arial" fill="#000000" style ="white-space:pre;" font-weight="400" text-anchor="start" x="10.0000" y="52.0000" font-size="13.0000" ><![CDATA[D]]></text>
<text font-family="Arial" fill="#000000" style ="white-space:pre;" font-weight="400" text-anchor="start" x="20.0000" y="52.0000" font-size="13.0000" ><![CDATA[/]]></text>
<text font-family="Arial" fill="#000000" style ="white-space:pre;" font-weight="400" text-anchor="start" x="23.0000" y="52.0000" font-size="13.0000" ><![CDATA[C]]></text>
</g>
<g transform="matrix(0.0625 0.0000 0.0000 0.0625 0.0000 0.0000)">
<path d="M 645.0000,463.0000 L 645.0000,1068.0000 L 2459.0000,1068.0000 L 2459.0000,463.0000 L 645.0000,463.0000 Z" stroke-width="1px" stroke="#FACCA7"  fill="#FACCA7" />
</g>
<g transform="matrix(1.0000 0.0000 0.0000 1.0000 0.0000 0.0000)">
</g>
<g transform="matrix(0.0625 0.0000 0.0000 0.0625 0.0000 0.0000)">
<path d="M 645.0000,1068.0000 L 2459.0000,1068.0000 L 2459.0000,463.0000 L 645.0000,463.0000 L 645.0000,1068.0000 Z" stroke="#000000" stroke-width="15.0000"  stroke-linecap="round"  stroke-linejoin="round" fill="none" />
</g>
<g transform="matrix(1.0000 0.0000 0.0000 1.0000 0.0000 0.0000)">
<text font-family="Arial" fill="#000000" style ="white-space:pre;" font-weight="400" text-anchor="start" x="66.0000" y="52.0000" font-size="13.0000" ><![CDATA[PDU Type]]></text>
</g>
<g transform="matrix(0.0625 0.0000 0.0000 0.0625 0.0000 0.0000)">
<path d="M 40.0000,136.0000 L 4878.0000,136.0000 " stroke="#000000" stroke-width="5.0000"  stroke-linecap="round"  stroke-linejoin="round" fill="none" />
</g>
<g transform="matrix(1.0000 0.0000 0.0000 1.0000 0.0000 0.0000)">
</g>
<g transform="matrix(0.0625 0.0000 0.0000 0.0625 0.0000 0.0000)">
<path d="M 40.0000,40.0000 L 40.0000,204.0000 " stroke="#000000" stroke-width="15.0000"  stroke-linecap="round"  stroke-linejoin="round" fill="none" />
</g>
<g transform="matrix(1.0000 0.0000 0.0000 1.0000 0.0000 0.0000)">
</g>
<g transform="matrix(0.0625 0.0000 0.0000 0.0625 0.0000 0.0000)">
<path d="M 4878.0000,44.0000 L 4878.0000,208.0000 " stroke="#000000" stroke-width="15.0000"  stroke-linecap="round"  stroke-linejoin="round" fill="none" />
</g>
<g transform="matrix(1.0000 0.0000 0.0000 1.0000 0.0000 0.0000)">
</g>
<g transform="matrix(0.0625 0.0000 0.0000 0.0625 0.0000 0.0000)">
<path d="M 4273.0000,44.0000 L 4273.0000,208.0000 " stroke="#000000" stroke-width="15.0000"  stroke-linecap="round"  stroke-linejoin="round" fill="none" />
</g>
<g transform="matrix(1.0000 0.0000 0.0000 1.0000 0.0000 0.0000)">
</g>
<g transform="matrix(0.0625 0.0000 0.0000 0.0625 0.0000 0.0000)">
<path d="M 1854.0000,40.0000 L 1854.0000,204.0000 " stroke="#000000" stroke-width="15.0000"  stroke-linecap="round"  stroke-linejoin="round" fill="none" />
</g>
<g transform="matrix(1.0000 0.0000 0.0000 1.0000 0.0000 0.0000)">
</g>
<g transform="matrix(0.0625 0.0000 0.0000 0.0625 0.0000 0.0000)">
<path d="M 1249.0000,40.0000 L 1249.0000,204.0000 " stroke="#000000" stroke-width="15.0000"  stroke-linecap="round"  stroke-linejoin="round" fill="none" />
</g>
<g transform="matrix(1.0000 0.0000 0.0000 1.0000 0.0000 0.0000)">
</g>
<g transform="matrix(0.0625 0.0000 0.0000 0.0625 0.0000 0.0000)">
<path d="M 645.0000,40.0000 L 645.0000,204.0000 " stroke="#000000" stroke-width="15.0000"  stroke-linecap="round"  stroke-linejoin="round" fill="none" />
</g>
<g transform="matrix(1.0000 0.0000 0.0000 1.0000 0.0000 0.0000)">
</g>
<g transform="matrix(0.0625 0.0000 0.0000 0.0625 0.0000 0.0000)">
<path d="M 2459.0000,44.0000 L 2459.0000,208.0000 " stroke="#000000" stroke-width="15.0000"  stroke-linecap="round"  stroke-linejoin="round" fill="none" />
</g>
<g transform="matrix(1.0000 0.0000 0.0000 1.0000 0.0000 0.0000)">
</g>
<g transform="matrix(0.0625 0.0000 0.0000 0.0625 0.0000 0.0000)">
<path d="M 3063.0000,44.0000 L 3063.0000,208.0000 " stroke="#000000" stroke-width="15.0000"  stroke-linecap="round"  stroke-linejoin="round" fill="none" />
</g>
<g transform="matrix(1.0000 0.0000 0.0000 1.0000 0.0000 0.0000)">
</g>
<g transform="matrix(0.0625 0.0000 0.0000 0.0625 0.0000 0.0000)">
<path d="M 3668.0000,44.0000 L 3668.0000,208.0000 " stroke="#000000" stroke-width="15.0000"  stroke-linecap="round"  stroke-linejoin="round" fill="none" />
</g>
<g transform="matrix(1.0000 0.0000 0.0000 1.0000 0.0000 0.0000)">
</g>
<g transform="matrix(0.0625 0.0000 0.0000 0.0625 0.0000 0.0000)">
<path d="M 40.0000,4394.0000 L 40.0000,4999.0000 L 4878.0000,4999.0000 L 4878.0000,4394.0000 L 40.0000,4394.0000 Z" stroke-width="1px" stroke="#FDEFE3"  fill="#FDEFE3" />
</g>
<g transform="matrix(1.0000 0.0000 0.0000 1.0000 0.0000 0.0000)">
</g>
<g transform="matrix(0.0625 0.0000 0.0000 0.0625 0.0000 0.0000)">
<path d="M 40.0000,4999.0000 L 4878.0000,4999.0000 L 4878.0000,4394.0000 L 40.0000,4394.0000 L 40.0000,4999.0000 Z" stroke="#000000" stroke-width="15.0000"  stroke-linecap="round"  stroke-linejoin="round" fill="none" />
</g>
<g transform="matrix(1.0000 0.0000 0.0000 1.0000 0.0000 0.0000)">
<text font-family="Arial" fill="#000000" style ="white-space:pre;" font-weight="400" text-anchor="start" x="101.0000" y="297.0000" font-size="13.0000" ><![CDATA[Bitmap]]></text>
<text font-family="Arial" fill="#000000" style ="white-space:pre;" font-weight="400" text-anchor="start" x="142.0000" y="299.0000" font-size="9.0000" ><![CDATA[N ]]></text>
<text font-family="Arial" fill="#000000" style ="white-space:pre;" font-weight="400" text-anchor="start" x="151.0000" y="297.0000" font-size="13.0000" ><![CDATA[(]]></text>
<text font-family="Arial" fill="#000000" style ="white-space:pre;" font-weight="400" text-anchor="start" x="155.0000" y="297.0000" font-size="13.0000" ><![CDATA[optional]]></text>
<text font-family="Arial" fill="#000000" style ="white-space:pre;" font-weight="400" text-anchor="start" x="202.0000" y="297.0000" font-size="13.0000" ><![CDATA[)]]></text>
</g>
<g transform="matrix(0.0625 0.0000 0.0000 0.0625 0.0000 0.0000)">
<path d="M 5180.0000,469.0000 L 5180.0000,1074.0000 L 6268.0000,1074.0000 L 6268.0000,469.0000 L 5180.0000,469.0000 Z" stroke-width="1px" stroke="#FFFFFF"  fill="#FFFFFF" />
</g>
<g transform="matrix(1.0000 0.0000 0.0000 1.0000 0.0000 0.0000)">
<text font-family="Arial" fill="#000000" style ="white-space:pre;" font-weight="400" text-anchor="start" x="329.0000" y="52.0000" font-size="13.0000" ><![CDATA[Oct ]]></text>
<text font-family="Arial" fill="#000000" style ="white-space:pre;" font-weight="400" text-anchor="start" x="354.0000" y="52.0000" font-size="13.0000" ><![CDATA[1]]></text>
</g>
<g transform="matrix(0.0625 0.0000 0.0000 0.0625 0.0000 0.0000)">
<path d="M 5180.0000,1074.0000 L 5180.0000,1679.0000 L 6268.0000,1679.0000 L 6268.0000,1074.0000 L 5180.0000,1074.0000 Z" stroke-width="1px" stroke="#FFFFFF"  fill="#FFFFFF" />
</g>
<g transform="matrix(1.0000 0.0000 0.0000 1.0000 0.0000 0.0000)">
<text font-family="Arial" fill="#000000" style ="white-space:pre;" font-weight="400" text-anchor="start" x="329.0000" y="90.0000" font-size="13.0000" ><![CDATA[Oct ]]></text>
<text font-family="Arial" fill="#000000" style ="white-space:pre;" font-weight="400" text-anchor="start" x="354.0000" y="90.0000" font-size="13.0000" ><![CDATA[2]]></text>
</g>
<g transform="matrix(0.0625 0.0000 0.0000 0.0625 0.0000 0.0000)">
<path d="M 5180.0000,3487.0000 L 5180.0000,4091.0000 L 6268.0000,4091.0000 L 6268.0000,3487.0000 L 5180.0000,3487.0000 Z" stroke-width="1px" stroke="#FFFFFF"  fill="#FFFFFF" />
</g>
<g transform="matrix(1.0000 0.0000 0.0000 1.0000 0.0000 0.0000)">
<text font-family="Arial" fill="#000000" style ="white-space:pre;" font-weight="400" text-anchor="start" x="329.0000" y="241.0000" font-size="13.0000" ><![CDATA[Oct ]]></text>
<text font-family="Arial" fill="#000000" style ="white-space:pre;" font-weight="400" text-anchor="start" x="354.0000" y="241.0000" font-size="13.0000" ><![CDATA[6]]></text>
</g>
<g transform="matrix(0.0625 0.0000 0.0000 0.0625 0.0000 0.0000)">
<path d="M 5180.0000,4394.0000 L 5180.0000,4999.0000 L 6268.0000,4999.0000 L 6268.0000,4394.0000 L 5180.0000,4394.0000 Z" stroke-width="1px" stroke="#FFFFFF"  fill="#FFFFFF" />
</g>
<g transform="matrix(1.0000 0.0000 0.0000 1.0000 0.0000 0.0000)">
<text font-family="Arial" fill="#000000" style ="white-space:pre;" font-weight="400" text-anchor="start" x="329.0000" y="297.0000" font-size="13.0000" ><![CDATA[Oct ]]></text>
<text font-family="Arial" fill="#000000" style ="white-space:pre;" font-weight="400" text-anchor="start" x="354.0000" y="297.0000" font-size="13.0000" ><![CDATA[5]]></text>
<text font-family="Arial" fill="#000000" style ="white-space:pre;" font-weight="400" text-anchor="start" x="361.0000" y="297.0000" font-size="13.0000" ><![CDATA[+]]></text>
<text font-family="Arial" fill="#000000" style ="white-space:pre;" font-weight="400" text-anchor="start" x="369.0000" y="297.0000" font-size="13.0000" ><![CDATA[N]]></text>
</g>
<g transform="matrix(0.0625 0.0000 0.0000 0.0625 0.0000 0.0000)">
<path d="M 2459.0000,463.0000 L 2459.0000,1068.0000 L 3063.0000,1068.0000 L 3063.0000,463.0000 L 2459.0000,463.0000 Z" stroke-width="1px" stroke="#FACCA7"  fill="#FACCA7" />
</g>
<g transform="matrix(1.0000 0.0000 0.0000 1.0000 0.0000 0.0000)">
</g>
<g transform="matrix(0.0625 0.0000 0.0000 0.0625 0.0000 0.0000)">
<path d="M 2459.0000,1068.0000 L 3063.0000,1068.0000 L 3063.0000,463.0000 L 2459.0000,463.0000 L 2459.0000,1068.0000 Z" stroke="#000000" stroke-width="15.0000"  stroke-linecap="round"  stroke-linejoin="round" fill="none" />
</g>
<g transform="matrix(1.0000 0.0000 0.0000 1.0000 0.0000 0.0000)">
<text font-family="Arial" fill="#000000" style ="white-space:pre;" font-weight="400" text-anchor="start" x="168.0000" y="52.0000" font-size="13.0000" ><![CDATA[R]]></text>
</g>
<g transform="matrix(0.0625 0.0000 0.0000 0.0625 0.0000 0.0000)">
<path d="M 3063.0000,463.0000 L 3063.0000,1068.0000 L 3668.0000,1068.0000 L 3668.0000,463.0000 L 3063.0000,463.0000 Z" stroke-width="1px" stroke="#FACCA7"  fill="#FACCA7" />
</g>
<g transform="matrix(1.0000 0.0000 0.0000 1.0000 0.0000 0.0000)">
</g>
<g transform="matrix(0.0625 0.0000 0.0000 0.0625 0.0000 0.0000)">
<path d="M 3063.0000,1068.0000 L 3668.0000,1068.0000 L 3668.0000,463.0000 L 3063.0000,463.0000 L 3063.0000,1068.0000 Z" stroke="#000000" stroke-width="15.0000"  stroke-linecap="round"  stroke-linejoin="round" fill="none" />
</g>
<g transform="matrix(1.0000 0.0000 0.0000 1.0000 0.0000 0.0000)">
<text font-family="Arial" fill="#000000" style ="white-space:pre;" font-weight="400" text-anchor="start" x="206.0000" y="52.0000" font-size="13.0000" ><![CDATA[R]]></text>
</g>
<g transform="matrix(0.0625 0.0000 0.0000 0.0625 0.0000 0.0000)">
<path d="M 3668.0000,463.0000 L 3668.0000,1068.0000 L 4273.0000,1068.0000 L 4273.0000,463.0000 L 3668.0000,463.0000 Z" stroke-width="1px" stroke="#FACCA7"  fill="#FACCA7" />
</g>
<g transform="matrix(1.0000 0.0000 0.0000 1.0000 0.0000 0.0000)">
</g>
<g transform="matrix(0.0625 0.0000 0.0000 0.0625 0.0000 0.0000)">
<path d="M 3668.0000,1068.0000 L 4273.0000,1068.0000 L 4273.0000,463.0000 L 3668.0000,463.0000 L 3668.0000,1068.0000 Z" stroke="#000000" stroke-width="15.0000"  stroke-linecap="round"  stroke-linejoin="round" fill="none" />
</g>
<g transform="matrix(1.0000 0.0000 0.0000 1.0000 0.0000 0.0000)">
<text font-family="Arial" fill="#000000" style ="white-space:pre;" font-weight="400" text-anchor="start" x="243.0000" y="52.0000" font-size="13.0000" ><![CDATA[R]]></text>
</g>
<g transform="matrix(0.0625 0.0000 0.0000 0.0625 0.0000 0.0000)">
<path d="M 4273.0000,463.0000 L 4273.0000,1068.0000 L 4878.0000,1068.0000 L 4878.0000,463.0000 L 4273.0000,463.0000 Z" stroke-width="1px" stroke="#FACCA7"  fill="#FACCA7" />
</g>
<g transform="matrix(1.0000 0.0000 0.0000 1.0000 0.0000 0.0000)">
</g>
<g transform="matrix(0.0625 0.0000 0.0000 0.0625 0.0000 0.0000)">
<path d="M 4273.0000,1068.0000 L 4878.0000,1068.0000 L 4878.0000,463.0000 L 4273.0000,463.0000 L 4273.0000,1068.0000 Z" stroke="#000000" stroke-width="15.0000"  stroke-linecap="round"  stroke-linejoin="round" fill="none" />
</g>
<g transform="matrix(1.0000 0.0000 0.0000 1.0000 0.0000 0.0000)">
<text font-family="Arial" fill="#000000" style ="white-space:pre;" font-weight="400" text-anchor="start" x="281.0000" y="52.0000" font-size="13.0000" ><![CDATA[R]]></text>
</g>
<g transform="matrix(0.0625 0.0000 0.0000 0.0625 0.0000 0.0000)">
<path d="M 40.0000,1074.0000 L 40.0000,1679.0000 L 4878.0000,1679.0000 L 4878.0000,1074.0000 L 40.0000,1074.0000 Z" stroke-width="1px" stroke="#FDEFE3"  fill="#FDEFE3" />
</g>
<g transform="matrix(1.0000 0.0000 0.0000 1.0000 0.0000 0.0000)">
</g>
<g transform="matrix(0.0625 0.0000 0.0000 0.0625 0.0000 0.0000)">
<path d="M 40.0000,1679.0000 L 4878.0000,1679.0000 L 4878.0000,1074.0000 L 40.0000,1074.0000 L 40.0000,1679.0000 Z" stroke="#000000" stroke-width="15.0000"  stroke-linecap="round"  stroke-linejoin="round" fill="none" />
</g>
<g transform="matrix(1.0000 0.0000 0.0000 1.0000 0.0000 0.0000)">
<text font-family="Arial" fill="#000000" style ="white-space:pre;" font-weight="400" text-anchor="start" x="139.0000" y="90.0000" font-size="13.0000" ><![CDATA[FM]]></text>
<text font-family="Arial" fill="#000000" style ="white-space:pre;" font-weight="400" text-anchor="start" x="158.0000" y="90.0000" font-size="13.0000" ><![CDATA[C]]></text>
</g>
<g transform="matrix(0.0625 0.0000 0.0000 0.0625 0.0000 0.0000)">
<path d="M 5180.0000,1673.0000 L 5180.0000,2277.0000 L 6268.0000,2277.0000 L 6268.0000,1673.0000 L 5180.0000,1673.0000 Z" stroke-width="1px" stroke="#FFFFFF"  fill="#FFFFFF" />
</g>
<g transform="matrix(1.0000 0.0000 0.0000 1.0000 0.0000 0.0000)">
<text font-family="Arial" fill="#000000" style ="white-space:pre;" font-weight="400" text-anchor="start" x="329.0000" y="127.0000" font-size="13.0000" ><![CDATA[Oct ]]></text>
<text font-family="Arial" fill="#000000" style ="white-space:pre;" font-weight="400" text-anchor="start" x="354.0000" y="127.0000" font-size="13.0000" ><![CDATA[3]]></text>
</g>
<g transform="matrix(0.0625 0.0000 0.0000 0.0625 0.0000 0.0000)">
<path d="M 40.0000,1673.0000 L 40.0000,2277.0000 L 4878.0000,2277.0000 L 4878.0000,1673.0000 L 40.0000,1673.0000 Z" stroke-width="1px" stroke="#FDEFE3"  fill="#FDEFE3" />
</g>
<g transform="matrix(1.0000 0.0000 0.0000 1.0000 0.0000 0.0000)">
</g>
<g transform="matrix(0.0625 0.0000 0.0000 0.0625 0.0000 0.0000)">
<path d="M 40.0000,2277.0000 L 4878.0000,2277.0000 L 4878.0000,1673.0000 L 40.0000,1673.0000 L 40.0000,2277.0000 Z" stroke="#000000" stroke-width="15.0000"  stroke-linecap="round"  stroke-linejoin="round" fill="none" />
</g>
<g transform="matrix(1.0000 0.0000 0.0000 1.0000 0.0000 0.0000)">
<text font-family="Arial" fill="#000000" style ="white-space:pre;" font-weight="400" text-anchor="start" x="118.0000" y="127.0000" font-size="13.0000" ><![CDATA[FM]]></text>
<text font-family="Arial" fill="#000000" style ="white-space:pre;" font-weight="400" text-anchor="start" x="138.0000" y="127.0000" font-size="13.0000" ><![CDATA[C]]></text>
<text font-family="Arial" fill="#000000" style ="white-space:pre;" font-weight="400" text-anchor="start" x="151.0000" y="127.0000" font-size="13.0000" ><![CDATA[(]]></text>
<text font-family="Arial" fill="#000000" style ="white-space:pre;" font-weight="400" text-anchor="start" x="155.0000" y="127.0000" font-size="13.0000" ><![CDATA[cont]]></text>
<text font-family="Arial" fill="#000000" style ="white-space:pre;" font-weight="400" text-anchor="start" x="181.0000" y="127.0000" font-size="13.0000" ><![CDATA[.)]]></text>
</g>
<g transform="matrix(0.0625 0.0000 0.0000 0.0625 0.0000 0.0000)">
<path d="M 5180.0000,2284.0000 L 5180.0000,2888.0000 L 6268.0000,2888.0000 L 6268.0000,2284.0000 L 5180.0000,2284.0000 Z" stroke-width="1px" stroke="#FFFFFF"  fill="#FFFFFF" />
</g>
<g transform="matrix(1.0000 0.0000 0.0000 1.0000 0.0000 0.0000)">
<text font-family="Arial" fill="#000000" style ="white-space:pre;" font-weight="400" text-anchor="start" x="329.0000" y="166.0000" font-size="13.0000" ><![CDATA[Oct ]]></text>
<text font-family="Arial" fill="#000000" style ="white-space:pre;" font-weight="400" text-anchor="start" x="354.0000" y="166.0000" font-size="13.0000" ><![CDATA[4]]></text>
</g>
<g transform="matrix(0.0625 0.0000 0.0000 0.0625 0.0000 0.0000)">
<path d="M 40.0000,2284.0000 L 40.0000,2888.0000 L 4878.0000,2888.0000 L 4878.0000,2284.0000 L 40.0000,2284.0000 Z" stroke-width="1px" stroke="#FDEFE3"  fill="#FDEFE3" />
</g>
<g transform="matrix(1.0000 0.0000 0.0000 1.0000 0.0000 0.0000)">
</g>
<g transform="matrix(0.0625 0.0000 0.0000 0.0625 0.0000 0.0000)">
<path d="M 40.0000,2888.0000 L 4878.0000,2888.0000 L 4878.0000,2284.0000 L 40.0000,2284.0000 L 40.0000,2888.0000 Z" stroke="#000000" stroke-width="15.0000"  stroke-linecap="round"  stroke-linejoin="round" fill="none" />
</g>
<g transform="matrix(1.0000 0.0000 0.0000 1.0000 0.0000 0.0000)">
<text font-family="Arial" fill="#000000" style ="white-space:pre;" font-weight="400" text-anchor="start" x="118.0000" y="166.0000" font-size="13.0000" ><![CDATA[FM]]></text>
<text font-family="Arial" fill="#000000" style ="white-space:pre;" font-weight="400" text-anchor="start" x="138.0000" y="166.0000" font-size="13.0000" ><![CDATA[C]]></text>
<text font-family="Arial" fill="#000000" style ="white-space:pre;" font-weight="400" text-anchor="start" x="151.0000" y="166.0000" font-size="13.0000" ><![CDATA[(]]></text>
<text font-family="Arial" fill="#000000" style ="white-space:pre;" font-weight="400" text-anchor="start" x="155.0000" y="166.0000" font-size="13.0000" ><![CDATA[cont]]></text>
<text font-family="Arial" fill="#000000" style ="white-space:pre;" font-weight="400" text-anchor="start" x="181.0000" y="166.0000" font-size="13.0000" ><![CDATA[.)]]></text>
</g>
<g transform="matrix(0.0625 0.0000 0.0000 0.0625 0.0000 0.0000)">
<path d="M 5180.0000,2882.0000 L 5180.0000,3487.0000 L 6268.0000,3487.0000 L 6268.0000,2882.0000 L 5180.0000,2882.0000 Z" stroke-width="1px" stroke="#FFFFFF"  fill="#FFFFFF" />
</g>
<g transform="matrix(1.0000 0.0000 0.0000 1.0000 0.0000 0.0000)">
<text font-family="Arial" fill="#000000" style ="white-space:pre;" font-weight="400" text-anchor="start" x="329.0000" y="203.0000" font-size="13.0000" ><![CDATA[Oct ]]></text>
<text font-family="Arial" fill="#000000" style ="white-space:pre;" font-weight="400" text-anchor="start" x="354.0000" y="203.0000" font-size="13.0000" ><![CDATA[5]]></text>
</g>
<g transform="matrix(0.0625 0.0000 0.0000 0.0625 0.0000 0.0000)">
<path d="M 40.0000,2882.0000 L 40.0000,3487.0000 L 4878.0000,3487.0000 L 4878.0000,2882.0000 L 40.0000,2882.0000 Z" stroke-width="1px" stroke="#FDEFE3"  fill="#FDEFE3" />
</g>
<g transform="matrix(1.0000 0.0000 0.0000 1.0000 0.0000 0.0000)">
</g>
<g transform="matrix(0.0625 0.0000 0.0000 0.0625 0.0000 0.0000)">
<path d="M 40.0000,3487.0000 L 4878.0000,3487.0000 L 4878.0000,2882.0000 L 40.0000,2882.0000 L 40.0000,3487.0000 Z" stroke="#000000" stroke-width="15.0000"  stroke-linecap="round"  stroke-linejoin="round" fill="none" />
</g>
<g transform="matrix(1.0000 0.0000 0.0000 1.0000 0.0000 0.0000)">
<text font-family="Arial" fill="#000000" style ="white-space:pre;" font-weight="400" text-anchor="start" x="118.0000" y="203.0000" font-size="13.0000" ><![CDATA[FM]]></text>
<text font-family="Arial" fill="#000000" style ="white-space:pre;" font-weight="400" text-anchor="start" x="138.0000" y="203.0000" font-size="13.0000" ><![CDATA[C]]></text>
<text font-family="Arial" fill="#000000" style ="white-space:pre;" font-weight="400" text-anchor="start" x="151.0000" y="203.0000" font-size="13.0000" ><![CDATA[(]]></text>
<text font-family="Arial" fill="#000000" style ="white-space:pre;" font-weight="400" text-anchor="start" x="155.0000" y="203.0000" font-size="13.0000" ><![CDATA[cont]]></text>
<text font-family="Arial" fill="#000000" style ="white-space:pre;" font-weight="400" text-anchor="start" x="181.0000" y="203.0000" font-size="13.0000" ><![CDATA[.)]]></text>
</g>
</g>
</svg>
