<?xml version="1.0"  encoding="UTF-8" standalone="no"?>
<svg version="1.1" xmlns="http://www.w3.org/2000/svg" xmlns:xlink="http://www.w3.org/1999/xlink" width="411.0000" height="206.0000">
<g transform="translate(-1.0000, -13.0000)">
<g transform="matrix(0.0625 0.0000 0.0000 0.0625 0.0000 0.0000)">
<path d="M 1207.0000,2681.0000 L 1712.0000,2406.0000 L 874.0000,1940.0000 L 1458.0000,1623.0000 L 1020.0000,1385.0000 L 1351.0000,1208.0000 L 1085.0000,1059.0000 L 1294.0000,944.0000 L 1132.0000,852.0000 L 1203.0000,813.0000 L 1273.0000,852.0000 L 1111.0000,943.0000 L 1320.0000,1060.0000 L 1054.0000,1208.0000 L 1385.0000,1386.0000 L 958.0000,1622.0000 L 1541.0000,1942.0000 L 702.0000,2403.0000 L 1207.0000,2681.0000 Z" stroke="#000000" stroke-width="15.0000"  stroke-linecap="round"  stroke-linejoin="round" fill="none" />
</g>
<g transform="matrix(1.0000 0.0000 0.0000 1.0000 0.0000 0.0000)">
</g>
<g transform="matrix(0.0625 0.0000 0.0000 0.0625 0.0000 0.0000)">
<path d="M 1204.0000,255.0000 L 1204.0000,2922.0000 " stroke="#000000" stroke-width="32.0000"  stroke-linecap="round"  stroke-linejoin="round" fill="none" />
</g>
<g transform="matrix(1.0000 0.0000 0.0000 1.0000 0.0000 0.0000)">
</g>
<g transform="matrix(0.0625 0.0000 0.0000 0.0625 0.0000 0.0000)">
<path d="M 1204.0000,2395.0000 L 787.0000,2166.0000 L 1495.0000,1783.0000 L 984.0000,1502.0000 L 1367.0000,1291.0000 L 1071.0000,1126.0000 L 1303.0000,994.0000 L 1124.0000,896.0000 L 1203.0000,853.0000 L 1281.0000,896.0000 L 1102.0000,993.0000 L 1341.0000,1127.0000 L 1038.0000,1290.0000 L 1422.0000,1503.0000 L 912.0000,1781.0000 L 1621.0000,2168.0000 L 1204.0000,2395.0000 Z" stroke="#000000" stroke-width="15.0000"  stroke-linecap="round"  stroke-linejoin="round" fill="none" />
</g>
<g transform="matrix(1.0000 0.0000 0.0000 1.0000 0.0000 0.0000)">
</g>
<g transform="matrix(0.0625 0.0000 0.0000 0.0625 0.0000 0.0000)">
<path d="M 611.0000,2627.0000 C 853.0000,2053.0000 1026.0000,1456.0000 1124.0000,845.0000 L 1124.0000,845.0000 L 1151.0000,843.0000 L 1151.0000,843.0000 C 1158.0000,756.0000 1164.0000,668.0000 1169.0000,581.0000 L 1169.0000,581.0000 C 1191.0000,581.0000 1212.0000,581.0000 1234.0000,580.0000 C 1236.0000,666.0000 1240.0000,752.0000 1248.0000,837.0000 C 1257.0000,840.0000 1266.0000,842.0000 1276.0000,844.0000 C 1371.0000,1458.0000 1551.0000,2057.0000 1811.0000,2627.0000 L 1811.0000,2627.0000 L 1712.0000,2406.0000 L 1207.0000,2681.0000 L 1204.0000,2922.0000 L 1207.0000,2681.0000 L 702.0000,2403.0000 L 611.0000,2627.0000 Z " stroke="#000000" stroke-width="32.0000"  stroke-linecap="round"  stroke-linejoin="round" fill="none" />
</g>
<g transform="matrix(1.0000 0.0000 0.0000 1.0000 0.0000 0.0000)">
</g>
<g transform="matrix(0.0625 0.0000 0.0000 0.0625 0.0000 0.0000)">
<path d="M 5032.0000,2175.0000 L 5032.0000,2943.0000 " stroke="#000000" stroke-width="26.0000"  stroke-linecap="round"  stroke-linejoin="round" fill="none" />
</g>
<g transform="matrix(1.0000 0.0000 0.0000 1.0000 0.0000 0.0000)">
</g>
<g transform="matrix(0.0625 0.0000 0.0000 0.0625 0.0000 0.0000)">
<path d="M 1382.0000,3327.0000 L 4842.0000,3327.0000 " stroke="#000000" stroke-width="15.0000"  stroke-linecap="round"  stroke-linejoin="round" fill="none" />
</g>
<g transform="matrix(1.0000 0.0000 0.0000 1.0000 0.0000 0.0000)">
</g>
<g transform="matrix(0.0625 0.0000 0.0000 0.0625 0.0000 0.0000)">
<path d="M 1399.0000,3396.0000 L 1192.0000,3327.0000 L 1399.0000,3258.0000 L 1399.0000,3396.0000 Z" stroke-width="1px" stroke="#000000"  fill="#000000" />
</g>
<g transform="matrix(1.0000 0.0000 0.0000 1.0000 0.0000 0.0000)">
</g>
<g transform="matrix(0.0625 0.0000 0.0000 0.0625 0.0000 0.0000)">
<path d="M 4824.0000,3258.0000 L 5032.0000,3327.0000 L 4824.0000,3396.0000 L 4824.0000,3258.0000 Z" stroke-width="1px" stroke="#000000"  fill="#000000" />
</g>
<g transform="matrix(1.0000 0.0000 0.0000 1.0000 0.0000 0.0000)">
</g>
<g transform="matrix(0.0625 0.0000 0.0000 0.0625 0.0000 0.0000)">
<path d="M 2934.0000,3173.0000 L 2934.0000,3496.0000 L 3289.0000,3496.0000 L 3289.0000,3173.0000 L 2934.0000,3173.0000 Z" stroke-width="1px" stroke="#FFFFFF"  fill="#FFFFFF" />
</g>
<g transform="matrix(1.0000 0.0000 0.0000 1.0000 0.0000 0.0000)">
<text font-family="Arial" fill="#000000" font-style="italic" style ="white-space:pre;" font-weight="400" text-anchor="start" x="183.0000" y="213.0000" font-size="16.0000" ><![CDATA[d]]></text>
<text font-family="Arial" fill="#000000" font-style="italic" style ="white-space:pre;" font-weight="400" text-anchor="start" x="192.0000" y="215.0000" font-size="10.0000" ><![CDATA[2]]></text>
<text font-family="Arial" fill="#000000" font-style="italic" style ="white-space:pre;" font-weight="400" text-anchor="start" x="198.0000" y="215.0000" font-size="10.0000" ><![CDATA[D]]></text>
</g>
<g transform="matrix(0.0625 0.0000 0.0000 0.0625 0.0000 0.0000)">
<path d="M 1362.0000,328.0000 L 4862.0000,2090.0000 " stroke="#000000" stroke-width="15.0000"  stroke-linecap="round"  stroke-linejoin="round" fill="none" />
</g>
<g transform="matrix(1.0000 0.0000 0.0000 1.0000 0.0000 0.0000)">
</g>
<g transform="matrix(0.0625 0.0000 0.0000 0.0625 0.0000 0.0000)">
<path d="M 1346.0000,398.0000 L 1192.0000,243.0000 L 1408.0000,274.0000 L 1346.0000,398.0000 Z" stroke-width="1px" stroke="#000000"  fill="#000000" />
</g>
<g transform="matrix(1.0000 0.0000 0.0000 1.0000 0.0000 0.0000)">
</g>
<g transform="matrix(0.0625 0.0000 0.0000 0.0625 0.0000 0.0000)">
<path d="M 4878.0000,2020.0000 L 5032.0000,2175.0000 L 4816.0000,2144.0000 L 4878.0000,2020.0000 Z" stroke-width="1px" stroke="#000000"  fill="#000000" />
</g>
<g transform="matrix(1.0000 0.0000 0.0000 1.0000 0.0000 0.0000)">
</g>
<g transform="matrix(0.0625 0.0000 0.0000 0.0625 0.0000 0.0000)">
<path d="M 2877.0000,1280.0000 L 3194.0000,1440.0000 L 3339.0000,1152.0000 L 3022.0000,992.0000 L 2877.0000,1280.0000 Z" stroke-width="1px" stroke="#FFFFFF"  fill="#FFFFFF" />
</g>
<g transform="matrix(1.0000 0.0000 0.0000 1.0000 0.0000 0.0000)">
<text font-family="Arial" fill="#000000" transform="rotate(-333, 182.0000, 89.4000) translate(0, 14.4000)" font-style="italic" style ="white-space:pre;" font-weight="400" text-anchor="start" x="182.0000" y="75.0000" font-size="16.0000" ><![CDATA[d]]></text>
<text font-family="Arial" fill="#000000" transform="rotate(-333, 189.0000, 90.0000) translate(0, 9.0000)" font-style="italic" style ="white-space:pre;" font-weight="400" text-anchor="start" x="189.0000" y="81.0000" font-size="10.0000" ><![CDATA[3]]></text>
<text font-family="Arial" fill="#000000" transform="rotate(-333, 195.0000, 92.0000) translate(0, 9.0000)" font-style="italic" style ="white-space:pre;" font-weight="400" text-anchor="start" x="195.0000" y="83.0000" font-size="10.0000" ><![CDATA[D]]></text>
</g>
<g transform="matrix(0.0625 0.0000 0.0000 0.0625 0.0000 0.0000)">
<path d="M 5296.0000,2365.0000 L 5296.0000,2753.0000 " stroke="#000000" stroke-width="15.0000"  stroke-linecap="round"  stroke-linejoin="round" fill="none" />
</g>
<g transform="matrix(1.0000 0.0000 0.0000 1.0000 0.0000 0.0000)">
</g>
<g transform="matrix(0.0625 0.0000 0.0000 0.0625 0.0000 0.0000)">
<path d="M 5227.0000,2382.0000 L 5296.0000,2175.0000 L 5365.0000,2382.0000 L 5227.0000,2382.0000 Z" stroke-width="1px" stroke="#000000"  fill="#000000" />
</g>
<g transform="matrix(1.0000 0.0000 0.0000 1.0000 0.0000 0.0000)">
</g>
<g transform="matrix(0.0625 0.0000 0.0000 0.0625 0.0000 0.0000)">
<path d="M 5365.0000,2736.0000 L 5296.0000,2943.0000 L 5227.0000,2736.0000 L 5365.0000,2736.0000 Z" stroke-width="1px" stroke="#000000"  fill="#000000" />
</g>
<g transform="matrix(1.0000 0.0000 0.0000 1.0000 0.0000 0.0000)">
<text font-family="Arial" fill="#000000" font-style="italic" style ="white-space:pre;" font-weight="400" text-anchor="start" x="340.0000" y="163.0000" font-size="16.0000" ><![CDATA[h]]></text>
<text font-family="Arial" fill="#000000" font-style="italic" style ="white-space:pre;" font-weight="400" text-anchor="start" x="349.0000" y="165.0000" font-size="10.0000" ><![CDATA[UT]]></text>
</g>
<g transform="matrix(0.0625 0.0000 0.0000 0.0625 0.0000 0.0000)">
<path d="M 424.0000,445.0000 L 424.0000,2753.0000 " stroke="#000000" stroke-width="15.0000"  stroke-linecap="round"  stroke-linejoin="round" fill="none" />
</g>
<g transform="matrix(1.0000 0.0000 0.0000 1.0000 0.0000 0.0000)">
</g>
<g transform="matrix(0.0625 0.0000 0.0000 0.0625 0.0000 0.0000)">
<path d="M 355.0000,462.0000 L 424.0000,255.0000 L 493.0000,462.0000 L 355.0000,462.0000 Z" stroke-width="1px" stroke="#000000"  fill="#000000" />
</g>
<g transform="matrix(1.0000 0.0000 0.0000 1.0000 0.0000 0.0000)">
</g>
<g transform="matrix(0.0625 0.0000 0.0000 0.0625 0.0000 0.0000)">
<path d="M 493.0000,2736.0000 L 424.0000,2943.0000 L 355.0000,2736.0000 L 493.0000,2736.0000 Z" stroke-width="1px" stroke="#000000"  fill="#000000" />
</g>
<g transform="matrix(1.0000 0.0000 0.0000 1.0000 0.0000 0.0000)">
<text font-family="Arial" fill="#000000" font-style="italic" style ="white-space:pre;" font-weight="400" text-anchor="start" x="29.0000" y="102.0000" font-size="16.0000" ><![CDATA[h]]></text>
<text font-family="Arial" fill="#000000" font-style="italic" style ="white-space:pre;" font-weight="400" text-anchor="start" x="38.0000" y="104.0000" font-size="10.0000" ><![CDATA[BS]]></text>
</g>
<g transform="matrix(0.0625 0.0000 0.0000 0.0625 0.0000 0.0000)">
<path d="M 40.0000,2931.0000 L 6568.0000,2931.0000 " stroke="#000000" stroke-width="15.0000"  stroke-linecap="round"  stroke-linejoin="round" fill="none" />
</g>
<g transform="matrix(1.0000 0.0000 0.0000 1.0000 0.0000 0.0000)">
</g>
</g>
</svg>
