<?xml version="1.0"  encoding="UTF-8" standalone="no"?>
<svg version="1.1" xmlns="http://www.w3.org/2000/svg" xmlns:xlink="http://www.w3.org/1999/xlink" width="1075.0000" height="339.0000">
<g transform="translate(-36.0000, -36.0000)">
<g transform="matrix(0.0625 0.0000 0.0000 0.0625 0.0000 0.0000)">
<path d="M 620.0000,632.0000 L 620.0000,1640.0000 L 2636.0000,1640.0000 L 2636.0000,632.0000 L 620.0000,632.0000 Z" stroke-width="1px" stroke="#FFFFFF"  fill="#FFFFFF" />
</g>
<g transform="matrix(1.0000 0.0000 0.0000 1.0000 0.0000 0.0000)">
</g>
<g transform="matrix(0.0625 0.0000 0.0000 0.0625 0.0000 0.0000)">
<path d="M 620.0000,1640.0000 L 2636.0000,1640.0000 L 2636.0000,632.0000 L 620.0000,632.0000 L 620.0000,1640.0000 Z" stroke="#000000" stroke-width="32.0000"  stroke-linecap="round"  stroke-linejoin="round" fill="none" />
</g>
<g transform="matrix(1.0000 0.0000 0.0000 1.0000 0.0000 0.0000)">
</g>
<g transform="matrix(1.0000 0.0000 0.0000 1.0000 85.5799 78.6439)">
<text font-family="Arial" fill="#000000" style ="white-space:pre;" font-weight="400" text-anchor="start" x="0.0000" y="0.0000" font-size="24.0000" ><![CDATA[UE]]></text>
</g>
<g transform="matrix(0.0625 0.0000 0.0000 0.0625 0.0000 0.0000)">
<path d="M 8220.0000,664.0000 L 8220.0000,1672.0000 L 10236.0000,1672.0000 L 10236.0000,664.0000 L 8220.0000,664.0000 Z" stroke-width="1px" stroke="#FFFFFF"  fill="#FFFFFF" />
</g>
<g transform="matrix(1.0000 0.0000 0.0000 1.0000 0.0000 0.0000)">
</g>
<g transform="matrix(0.0625 0.0000 0.0000 0.0625 0.0000 0.0000)">
<path d="M 8220.0000,1672.0000 L 10236.0000,1672.0000 L 10236.0000,664.0000 L 8220.0000,664.0000 L 8220.0000,1672.0000 Z" stroke="#000000" stroke-width="32.0000"  stroke-linecap="round"  stroke-linejoin="round" fill="none" />
</g>
<g transform="matrix(1.0000 0.0000 0.0000 1.0000 0.0000 0.0000)">
</g>
<g transform="matrix(1.0000 0.0000 0.0000 1.0000 553.9062 80.7384)">
<text font-family="Arial" fill="#000000" style ="white-space:pre;" font-weight="400" text-anchor="start" x="0.0000" y="0.0000" font-size="24.0000" ><![CDATA[g]]></text>
</g>
<g transform="matrix(1.0000 0.0000 0.0000 1.0000 567.2541 80.7384)">
<text font-family="Arial" fill="#000000" style ="white-space:pre;" font-weight="400" text-anchor="start" x="0.0000" y="0.0000" font-size="24.0000" ><![CDATA[NB]]></text>
</g>
<g transform="matrix(1.0000 0.0000 0.0000 1.0000 600.5943 80.7384)">
<text font-family="Times New Roman" fill="#000000" style ="white-space:pre;" font-weight="400" text-anchor="start" x="0.0000" y="0.0000" font-size="24.0000" ><![CDATA[ ]]></text>
</g>
<g transform="matrix(0.0625 0.0000 0.0000 0.0625 0.0000 0.0000)">
<path d="M 1628.0000,1640.0000 L 1628.0000,5964.0000 " stroke="#000000" stroke-width="32.0000"  stroke-linecap="round"  stroke-linejoin="round" fill="none" />
</g>
<g transform="matrix(1.0000 0.0000 0.0000 1.0000 0.0000 0.0000)">
</g>
<g transform="matrix(0.0625 0.0000 0.0000 0.0625 0.0000 0.0000)">
<path d="M 9228.0000,1672.0000 L 9228.0000,5964.0000 " stroke="#000000" stroke-width="32.0000"  stroke-linecap="round"  stroke-linejoin="round" fill="none" />
</g>
<g transform="matrix(1.0000 0.0000 0.0000 1.0000 0.0000 0.0000)">
</g>
<g transform="matrix(0.0625 0.0000 0.0000 0.0625 0.0000 0.0000)">
<path d="M 1898.0000,2903.0000 L 9212.0000,2903.0000 " stroke="#000000" stroke-width="23.0000"  stroke-linecap="round"  stroke-linejoin="round" fill="none" />
</g>
<g transform="matrix(1.0000 0.0000 0.0000 1.0000 0.0000 0.0000)">
</g>
<g transform="matrix(0.0625 0.0000 0.0000 0.0625 0.0000 0.0000)">
<path d="M 1924.0000,3006.0000 L 1612.0000,2903.0000 L 1924.0000,2799.0000 L 1924.0000,3006.0000 Z" stroke-width="1px" stroke="#000000"  fill="#000000" />
</g>
<g transform="matrix(1.0000 0.0000 0.0000 1.0000 0.0000 0.0000)">
</g>
<g transform="matrix(1.0000 0.0000 0.0000 1.0000 203.5389 177.2715)">
<text fill="#000000" style ="white-space:pre;" font-weight="400" text-anchor="start" x="0.0000" y="0.0000" font-size="20.0000" ><![CDATA[2. RRC Reconfiguration message]]></text>
</g>
<g transform="matrix(1.0000 0.0000 0.0000 1.0000 131.8295 201.2711)">
<text fill="#000000" style ="white-space:pre;" font-weight="400" text-anchor="start" x="0.0000" y="0.0000" font-size="20.0000" ><![CDATA[(Pre]]></text>
</g>
<g transform="matrix(1.0000 0.0000 0.0000 1.0000 169.6125 201.2711)">
<text fill="#000000" style ="white-space:pre;" font-weight="400" text-anchor="start" x="0.0000" y="0.0000" font-size="20.0000" ><![CDATA[-]]></text>
</g>
<g transform="matrix(1.0000 0.0000 0.0000 1.0000 176.2725 201.2711)">
<text fill="#000000" style ="white-space:pre;" font-weight="400" text-anchor="start" x="0.0000" y="0.0000" font-size="20.0000" ><![CDATA[configured measurement gap configurations)]]></text>
</g>
<g transform="matrix(0.0625 0.0000 0.0000 0.0625 0.0000 0.0000)">
<path d="M 1644.0000,3679.0000 L 8959.0000,3679.0000 " stroke="#000000" stroke-width="23.0000"  stroke-linecap="round"  stroke-linejoin="round" fill="none" />
</g>
<g transform="matrix(1.0000 0.0000 0.0000 1.0000 0.0000 0.0000)">
</g>
<g transform="matrix(0.0625 0.0000 0.0000 0.0625 0.0000 0.0000)">
<path d="M 8933.0000,3575.0000 L 9244.0000,3679.0000 L 8933.0000,3782.0000 L 8933.0000,3575.0000 Z" stroke-width="1px" stroke="#000000"  fill="#000000" />
</g>
<g transform="matrix(1.0000 0.0000 0.0000 1.0000 0.0000 0.0000)">
</g>
<g transform="matrix(1.0000 0.0000 0.0000 1.0000 123.6841 225.2713)">
<text fill="#000000" style ="white-space:pre;" font-weight="400" text-anchor="start" x="0.0000" y="0.0000" font-size="20.0000" ><![CDATA[3. RRC Reconfiguration complete message]]></text>
</g>
<g transform="matrix(0.0625 0.0000 0.0000 0.0625 0.0000 0.0000)">
<path d="M 1612.0000,4895.0000 L 1774.0000,4895.0000 C 1780.0000,4895.0000 1785.0000,4900.0000 1785.0000,4907.0000 C 1785.0000,4913.0000 1780.0000,4918.0000 1774.0000,4918.0000 L 1612.0000,4918.0000 C 1606.0000,4918.0000 1601.0000,4913.0000 1601.0000,4907.0000 C 1601.0000,4900.0000 1606.0000,4895.0000 1612.0000,4895.0000 Z M 1889.0000,4895.0000 L 2050.0000,4895.0000 C 2057.0000,4895.0000 2062.0000,4900.0000 2062.0000,4907.0000 C 2062.0000,4913.0000 2057.0000,4918.0000 2050.0000,4918.0000 L 1889.0000,4918.0000 C 1883.0000,4918.0000 1877.0000,4913.0000 1877.0000,4907.0000 C 1877.0000,4900.0000 1883.0000,4895.0000 1889.0000,4895.0000 Z M 2165.0000,4895.0000 L 2327.0000,4895.0000 C 2333.0000,4895.0000 2338.0000,4900.0000 2338.0000,4907.0000 C 2338.0000,4913.0000 2333.0000,4918.0000 2327.0000,4918.0000 L 2165.0000,4918.0000 C 2159.0000,4918.0000 2154.0000,4913.0000 2154.0000,4907.0000 C 2154.0000,4900.0000 2159.0000,4895.0000 2165.0000,4895.0000 Z M 2442.0000,4895.0000 L 2603.0000,4895.0000 C 2610.0000,4895.0000 2615.0000,4900.0000 2615.0000,4907.0000 C 2615.0000,4913.0000 2610.0000,4918.0000 2603.0000,4918.0000 L 2442.0000,4918.0000 C 2436.0000,4918.0000 2430.0000,4913.0000 2430.0000,4907.0000 C 2430.0000,4900.0000 2436.0000,4895.0000 2442.0000,4895.0000 Z M 2718.0000,4895.0000 L 2880.0000,4895.0000 C 2886.0000,4895.0000 2891.0000,4900.0000 2891.0000,4907.0000 C 2891.0000,4913.0000 2886.0000,4918.0000 2880.0000,4918.0000 L 2718.0000,4918.0000 C 2712.0000,4918.0000 2707.0000,4913.0000 2707.0000,4907.0000 C 2707.0000,4900.0000 2712.0000,4895.0000 2718.0000,4895.0000 Z M 2995.0000,4895.0000 L 3156.0000,4895.0000 C 3163.0000,4895.0000 3168.0000,4900.0000 3168.0000,4907.0000 C 3168.0000,4913.0000 3163.0000,4918.0000 3156.0000,4918.0000 L 2995.0000,4918.0000 C 2989.0000,4918.0000 2983.0000,4913.0000 2983.0000,4907.0000 C 2983.0000,4900.0000 2989.0000,4895.0000 2995.0000,4895.0000 Z M 3271.0000,4895.0000 L 3433.0000,4895.0000 C 3439.0000,4895.0000 3444.0000,4900.0000 3444.0000,4907.0000 C 3444.0000,4913.0000 3439.0000,4918.0000 3433.0000,4918.0000 L 3271.0000,4918.0000 C 3265.0000,4918.0000 3260.0000,4913.0000 3260.0000,4907.0000 C 3260.0000,4900.0000 3265.0000,4895.0000 3271.0000,4895.0000 Z M 3548.0000,4895.0000 L 3709.0000,4895.0000 C 3715.0000,4895.0000 3721.0000,4900.0000 3721.0000,4907.0000 C 3721.0000,4913.0000 3715.0000,4918.0000 3709.0000,4918.0000 L 3548.0000,4918.0000 C 3541.0000,4918.0000 3536.0000,4913.0000 3536.0000,4907.0000 C 3536.0000,4900.0000 3541.0000,4895.0000 3548.0000,4895.0000 Z M 3824.0000,4895.0000 L 3986.0000,4895.0000 C 3992.0000,4895.0000 3997.0000,4900.0000 3997.0000,4907.0000 C 3997.0000,4913.0000 3992.0000,4918.0000 3986.0000,4918.0000 L 3824.0000,4918.0000 C 3818.0000,4918.0000 3813.0000,4913.0000 3813.0000,4907.0000 C 3813.0000,4900.0000 3818.0000,4895.0000 3824.0000,4895.0000 Z M 4101.0000,4895.0000 L 4262.0000,4895.0000 C 4268.0000,4895.0000 4274.0000,4900.0000 4274.0000,4907.0000 C 4274.0000,4913.0000 4268.0000,4918.0000 4262.0000,4918.0000 L 4101.0000,4918.0000 C 4094.0000,4918.0000 4089.0000,4913.0000 4089.0000,4907.0000 C 4089.0000,4900.0000 4094.0000,4895.0000 4101.0000,4895.0000 Z M 4377.0000,4895.0000 L 4539.0000,4895.0000 C 4545.0000,4895.0000 4550.0000,4900.0000 4550.0000,4907.0000 C 4550.0000,4913.0000 4545.0000,4918.0000 4539.0000,4918.0000 L 4377.0000,4918.0000 C 4371.0000,4918.0000 4366.0000,4913.0000 4366.0000,4907.0000 C 4366.0000,4900.0000 4371.0000,4895.0000 4377.0000,4895.0000 Z M 4654.0000,4895.0000 L 4815.0000,4895.0000 C 4821.0000,4895.0000 4827.0000,4900.0000 4827.0000,4907.0000 C 4827.0000,4913.0000 4821.0000,4918.0000 4815.0000,4918.0000 L 4654.0000,4918.0000 C 4647.0000,4918.0000 4642.0000,4913.0000 4642.0000,4907.0000 C 4642.0000,4900.0000 4647.0000,4895.0000 4654.0000,4895.0000 Z M 4930.0000,4895.0000 L 5092.0000,4895.0000 C 5098.0000,4895.0000 5103.0000,4900.0000 5103.0000,4907.0000 C 5103.0000,4913.0000 5098.0000,4918.0000 5092.0000,4918.0000 L 4930.0000,4918.0000 C 4924.0000,4918.0000 4919.0000,4913.0000 4919.0000,4907.0000 C 4919.0000,4900.0000 4924.0000,4895.0000 4930.0000,4895.0000 Z M 5207.0000,4895.0000 L 5368.0000,4895.0000 C 5374.0000,4895.0000 5380.0000,4900.0000 5380.0000,4907.0000 C 5380.0000,4913.0000 5374.0000,4918.0000 5368.0000,4918.0000 L 5207.0000,4918.0000 C 5200.0000,4918.0000 5195.0000,4913.0000 5195.0000,4907.0000 C 5195.0000,4900.0000 5200.0000,4895.0000 5207.0000,4895.0000 Z M 5483.0000,4895.0000 L 5644.0000,4895.0000 C 5651.0000,4895.0000 5656.0000,4900.0000 5656.0000,4907.0000 C 5656.0000,4913.0000 5651.0000,4918.0000 5644.0000,4918.0000 L 5483.0000,4918.0000 C 5477.0000,4918.0000 5472.0000,4913.0000 5472.0000,4907.0000 C 5472.0000,4900.0000 5477.0000,4895.0000 5483.0000,4895.0000 Z M 5760.0000,4895.0000 L 5921.0000,4895.0000 C 5927.0000,4895.0000 5932.0000,4900.0000 5932.0000,4907.0000 C 5932.0000,4913.0000 5927.0000,4918.0000 5921.0000,4918.0000 L 5760.0000,4918.0000 C 5753.0000,4918.0000 5748.0000,4913.0000 5748.0000,4907.0000 C 5748.0000,4900.0000 5753.0000,4895.0000 5760.0000,4895.0000 Z M 6036.0000,4895.0000 L 6197.0000,4895.0000 C 6204.0000,4895.0000 6209.0000,4900.0000 6209.0000,4907.0000 C 6209.0000,4913.0000 6204.0000,4918.0000 6197.0000,4918.0000 L 6036.0000,4918.0000 C 6030.0000,4918.0000 6025.0000,4913.0000 6025.0000,4907.0000 C 6025.0000,4900.0000 6030.0000,4895.0000 6036.0000,4895.0000 Z M 6313.0000,4895.0000 L 6474.0000,4895.0000 C 6480.0000,4895.0000 6485.0000,4900.0000 6485.0000,4907.0000 C 6485.0000,4913.0000 6480.0000,4918.0000 6474.0000,4918.0000 L 6313.0000,4918.0000 C 6306.0000,4918.0000 6301.0000,4913.0000 6301.0000,4907.0000 C 6301.0000,4900.0000 6306.0000,4895.0000 6313.0000,4895.0000 Z M 6589.0000,4895.0000 L 6750.0000,4895.0000 C 6757.0000,4895.0000 6762.0000,4900.0000 6762.0000,4907.0000 C 6762.0000,4913.0000 6757.0000,4918.0000 6750.0000,4918.0000 L 6589.0000,4918.0000 C 6583.0000,4918.0000 6578.0000,4913.0000 6578.0000,4907.0000 C 6578.0000,4900.0000 6583.0000,4895.0000 6589.0000,4895.0000 Z M 6866.0000,4895.0000 L 7027.0000,4895.0000 C 7033.0000,4895.0000 7038.0000,4900.0000 7038.0000,4907.0000 C 7038.0000,4913.0000 7033.0000,4918.0000 7027.0000,4918.0000 L 6866.0000,4918.0000 C 6859.0000,4918.0000 6854.0000,4913.0000 6854.0000,4907.0000 C 6854.0000,4900.0000 6859.0000,4895.0000 6866.0000,4895.0000 Z M 7142.0000,4895.0000 L 7303.0000,4895.0000 C 7310.0000,4895.0000 7315.0000,4900.0000 7315.0000,4907.0000 C 7315.0000,4913.0000 7310.0000,4918.0000 7303.0000,4918.0000 L 7142.0000,4918.0000 C 7136.0000,4918.0000 7131.0000,4913.0000 7131.0000,4907.0000 C 7131.0000,4900.0000 7136.0000,4895.0000 7142.0000,4895.0000 Z M 7419.0000,4895.0000 L 7580.0000,4895.0000 C 7586.0000,4895.0000 7591.0000,4900.0000 7591.0000,4907.0000 C 7591.0000,4913.0000 7586.0000,4918.0000 7580.0000,4918.0000 L 7419.0000,4918.0000 C 7412.0000,4918.0000 7407.0000,4913.0000 7407.0000,4907.0000 C 7407.0000,4900.0000 7412.0000,4895.0000 7419.0000,4895.0000 Z M 7695.0000,4895.0000 L 7856.0000,4895.0000 C 7863.0000,4895.0000 7868.0000,4900.0000 7868.0000,4907.0000 C 7868.0000,4913.0000 7863.0000,4918.0000 7856.0000,4918.0000 L 7695.0000,4918.0000 C 7689.0000,4918.0000 7684.0000,4913.0000 7684.0000,4907.0000 C 7684.0000,4900.0000 7689.0000,4895.0000 7695.0000,4895.0000 Z M 7972.0000,4895.0000 L 8133.0000,4895.0000 C 8139.0000,4895.0000 8144.0000,4900.0000 8144.0000,4907.0000 C 8144.0000,4913.0000 8139.0000,4918.0000 8133.0000,4918.0000 L 7972.0000,4918.0000 C 7965.0000,4918.0000 7960.0000,4913.0000 7960.0000,4907.0000 C 7960.0000,4900.0000 7965.0000,4895.0000 7972.0000,4895.0000 Z M 8248.0000,4895.0000 L 8409.0000,4895.0000 C 8416.0000,4895.0000 8421.0000,4900.0000 8421.0000,4907.0000 C 8421.0000,4913.0000 8416.0000,4918.0000 8409.0000,4918.0000 L 8248.0000,4918.0000 C 8242.0000,4918.0000 8236.0000,4913.0000 8236.0000,4907.0000 C 8236.0000,4900.0000 8242.0000,4895.0000 8248.0000,4895.0000 Z M 8524.0000,4895.0000 L 8686.0000,4895.0000 C 8692.0000,4895.0000 8697.0000,4900.0000 8697.0000,4907.0000 C 8697.0000,4913.0000 8692.0000,4918.0000 8686.0000,4918.0000 L 8524.0000,4918.0000 C 8518.0000,4918.0000 8513.0000,4913.0000 8513.0000,4907.0000 C 8513.0000,4900.0000 8518.0000,4895.0000 8524.0000,4895.0000 Z M 8801.0000,4895.0000 L 8927.0000,4895.0000 C 8934.0000,4895.0000 8939.0000,4900.0000 8939.0000,4907.0000 C 8939.0000,4913.0000 8934.0000,4918.0000 8927.0000,4918.0000 L 8801.0000,4918.0000 C 8795.0000,4918.0000 8789.0000,4913.0000 8789.0000,4907.0000 C 8789.0000,4900.0000 8795.0000,4895.0000 8801.0000,4895.0000 Z "  fill="#000000" stroke="#000000" stroke-width="1.0000"  stroke-linecap="butt"  stroke-linejoin="round" />
</g>
<g transform="matrix(1.0000 0.0000 0.0000 1.0000 0.0000 0.0000)">
</g>
<g transform="matrix(0.0625 0.0000 0.0000 0.0625 0.0000 0.0000)">
<path d="M 8901.0000,4803.0000 L 9212.0000,4907.0000 L 8901.0000,5010.0000 L 8901.0000,4803.0000 Z" stroke-width="1px" stroke="#000000"  fill="#000000" />
</g>
<g transform="matrix(1.0000 0.0000 0.0000 1.0000 0.0000 0.0000)">
</g>
<g transform="matrix(1.0000 0.0000 0.0000 1.0000 132.4395 297.6786)">
<text fill="#000000" style ="white-space:pre;" font-weight="400" text-anchor="start" x="0.0000" y="0.0000" font-size="20.0000" ><![CDATA[5a. UL MAC CE Positioning Measurement ]]></text>
</g>
<g transform="matrix(1.0000 0.0000 0.0000 1.0000 156.3210 321.6788)">
<text font-family="Arial" fill="#000000" style ="white-space:pre;" font-weight="400" text-anchor="start" x="0.0000" y="0.0000" font-size="20.0000" ><![CDATA[Gap Activation/Deactivation Request   ]]></text>
</g>
<g transform="matrix(0.0625 0.0000 0.0000 0.0625 0.0000 0.0000)">
<path d="M 1930.0000,5666.0000 L 9244.0000,5666.0000 " stroke="#000000" stroke-width="23.0000"  stroke-linecap="round"  stroke-linejoin="round" fill="none" />
</g>
<g transform="matrix(1.0000 0.0000 0.0000 1.0000 0.0000 0.0000)">
</g>
<g transform="matrix(0.0625 0.0000 0.0000 0.0625 0.0000 0.0000)">
<path d="M 1956.0000,5769.0000 L 1644.0000,5666.0000 L 1956.0000,5562.0000 L 1956.0000,5769.0000 Z" stroke-width="1px" stroke="#000000"  fill="#000000" />
</g>
<g transform="matrix(1.0000 0.0000 0.0000 1.0000 0.0000 0.0000)">
</g>
<g transform="matrix(1.0000 0.0000 0.0000 1.0000 118.8817 347.1904)">
<text font-family="Arial" fill="#000000" style ="white-space:pre;" font-weight="400" text-anchor="start" x="0.0000" y="0.0000" font-size="20.0000" ><![CDATA[6. DL MAC CE Positioning Measurement Gap ]]></text>
</g>
<g transform="matrix(1.0000 0.0000 0.0000 1.0000 171.6798 371.1906)">
<text font-family="Arial" fill="#000000" style ="white-space:pre;" font-weight="400" text-anchor="start" x="0.0000" y="0.0000" font-size="20.0000" ><![CDATA[Activation/Deactivation]]></text>
</g>
<g transform="matrix(1.0000 0.0000 0.0000 1.0000 374.0073 371.1906)">
<text font-family="Arial" fill="#000000" style ="white-space:pre;" font-weight="400" text-anchor="start" x="0.0000" y="0.0000" font-size="20.0000" ><![CDATA[ ]]></text>
</g>
<g transform="matrix(1.0000 0.0000 0.0000 1.0000 379.5642 371.1906)">
<text font-family="Arial" fill="#000000" style ="white-space:pre;" font-weight="400" text-anchor="start" x="0.0000" y="0.0000" font-size="20.0000" ><![CDATA[Command]]></text>
</g>
<g transform="matrix(1.0000 0.0000 0.0000 1.0000 471.8203 371.1906)">
<text font-family="Arial" fill="#000000" style ="white-space:pre;" font-weight="400" text-anchor="start" x="0.0000" y="0.0000" font-size="20.0000" ><![CDATA[ ]]></text>
</g>
<g transform="matrix(0.0625 0.0000 0.0000 0.0625 0.0000 0.0000)">
<path d="M 15724.0000,620.0000 L 15724.0000,1628.0000 L 17740.0000,1628.0000 L 17740.0000,620.0000 L 15724.0000,620.0000 Z" stroke-width="1px" stroke="#FFFFFF"  fill="#FFFFFF" />
</g>
<g transform="matrix(1.0000 0.0000 0.0000 1.0000 0.0000 0.0000)">
</g>
<g transform="matrix(0.0625 0.0000 0.0000 0.0625 0.0000 0.0000)">
<path d="M 15724.0000,1628.0000 L 17740.0000,1628.0000 L 17740.0000,620.0000 L 15724.0000,620.0000 L 15724.0000,1628.0000 Z" stroke="#000000" stroke-width="32.0000"  stroke-linecap="round"  stroke-linejoin="round" fill="none" />
</g>
<g transform="matrix(1.0000 0.0000 0.0000 1.0000 0.0000 0.0000)">
</g>
<g transform="matrix(1.0000 0.0000 0.0000 1.0000 1022.2498 77.9505)">
<text font-family="Arial" fill="#000000" style ="white-space:pre;" font-weight="400" text-anchor="start" x="0.0000" y="0.0000" font-size="24.0000" ><![CDATA[LMF]]></text>
</g>
<g transform="matrix(0.0625 0.0000 0.0000 0.0625 0.0000 0.0000)">
<path d="M 16732.0000,1628.0000 L 16732.0000,5964.0000 " stroke="#000000" stroke-width="32.0000"  stroke-linecap="round"  stroke-linejoin="round" fill="none" />
</g>
<g transform="matrix(1.0000 0.0000 0.0000 1.0000 0.0000 0.0000)">
</g>
<g transform="matrix(0.0625 0.0000 0.0000 0.0625 0.0000 0.0000)">
<path d="M 9513.0000,4693.0000 L 9675.0000,4692.0000 C 9681.0000,4692.0000 9686.0000,4697.0000 9686.0000,4704.0000 C 9686.0000,4710.0000 9681.0000,4715.0000 9675.0000,4715.0000 L 9514.0000,4716.0000 C 9507.0000,4716.0000 9502.0000,4711.0000 9502.0000,4705.0000 C 9502.0000,4698.0000 9507.0000,4693.0000 9513.0000,4693.0000 Z M 9790.0000,4691.0000 L 9951.0000,4690.0000 C 9958.0000,4690.0000 9963.0000,4695.0000 9963.0000,4702.0000 C 9963.0000,4708.0000 9958.0000,4713.0000 9951.0000,4713.0000 L 9790.0000,4714.0000 C 9784.0000,4714.0000 9779.0000,4709.0000 9779.0000,4703.0000 C 9778.0000,4696.0000 9784.0000,4691.0000 9790.0000,4691.0000 Z M 10066.0000,4689.0000 L 10228.0000,4688.0000 C 10234.0000,4688.0000 10239.0000,4693.0000 10239.0000,4700.0000 C 10239.0000,4706.0000 10234.0000,4711.0000 10228.0000,4711.0000 L 10067.0000,4712.0000 C 10060.0000,4712.0000 10055.0000,4707.0000 10055.0000,4701.0000 C 10055.0000,4694.0000 10060.0000,4689.0000 10066.0000,4689.0000 Z M 10343.0000,4687.0000 L 10504.0000,4686.0000 C 10511.0000,4686.0000 10516.0000,4691.0000 10516.0000,4698.0000 C 10516.0000,4704.0000 10511.0000,4709.0000 10504.0000,4709.0000 L 10343.0000,4710.0000 C 10337.0000,4710.0000 10332.0000,4705.0000 10331.0000,4699.0000 C 10331.0000,4693.0000 10337.0000,4687.0000 10343.0000,4687.0000 Z M 10619.0000,4685.0000 L 10781.0000,4684.0000 C 10787.0000,4684.0000 10792.0000,4689.0000 10792.0000,4696.0000 C 10792.0000,4702.0000 10787.0000,4707.0000 10781.0000,4707.0000 L 10620.0000,4708.0000 C 10613.0000,4708.0000 10608.0000,4703.0000 10608.0000,4697.0000 C 10608.0000,4691.0000 10613.0000,4685.0000 10619.0000,4685.0000 Z M 10896.0000,4683.0000 L 11057.0000,4682.0000 C 11063.0000,4682.0000 11069.0000,4687.0000 11069.0000,4694.0000 C 11069.0000,4700.0000 11064.0000,4705.0000 11057.0000,4705.0000 L 10896.0000,4706.0000 C 10890.0000,4706.0000 10884.0000,4701.0000 10884.0000,4695.0000 C 10884.0000,4689.0000 10889.0000,4683.0000 10896.0000,4683.0000 Z M 11172.0000,4681.0000 L 11334.0000,4680.0000 C 11340.0000,4680.0000 11345.0000,4685.0000 11345.0000,4692.0000 C 11345.0000,4698.0000 11340.0000,4703.0000 11334.0000,4703.0000 L 11172.0000,4704.0000 C 11166.0000,4704.0000 11161.0000,4699.0000 11161.0000,4693.0000 C 11161.0000,4687.0000 11166.0000,4681.0000 11172.0000,4681.0000 Z M 11449.0000,4679.0000 L 11610.0000,4678.0000 C 11616.0000,4678.0000 11622.0000,4683.0000 11622.0000,4690.0000 C 11622.0000,4696.0000 11617.0000,4701.0000 11610.0000,4701.0000 L 11449.0000,4702.0000 C 11443.0000,4702.0000 11437.0000,4697.0000 11437.0000,4691.0000 C 11437.0000,4685.0000 11442.0000,4679.0000 11449.0000,4679.0000 Z M 11725.0000,4677.0000 L 11887.0000,4676.0000 C 11893.0000,4676.0000 11898.0000,4681.0000 11898.0000,4688.0000 C 11898.0000,4694.0000 11893.0000,4699.0000 11887.0000,4699.0000 L 11725.0000,4700.0000 C 11719.0000,4700.0000 11714.0000,4695.0000 11714.0000,4689.0000 C 11714.0000,4683.0000 11719.0000,4677.0000 11725.0000,4677.0000 Z M 12002.0000,4675.0000 L 12163.0000,4674.0000 C 12169.0000,4674.0000 12175.0000,4679.0000 12175.0000,4686.0000 C 12175.0000,4692.0000 12170.0000,4697.0000 12163.0000,4697.0000 L 12002.0000,4698.0000 C 11996.0000,4698.0000 11990.0000,4693.0000 11990.0000,4687.0000 C 11990.0000,4681.0000 11995.0000,4675.0000 12002.0000,4675.0000 Z M 12278.0000,4673.0000 L 12439.0000,4672.0000 C 12446.0000,4672.0000 12451.0000,4677.0000 12451.0000,4684.0000 C 12451.0000,4690.0000 12446.0000,4695.0000 12440.0000,4695.0000 L 12278.0000,4696.0000 C 12272.0000,4696.0000 12267.0000,4691.0000 12267.0000,4685.0000 C 12267.0000,4679.0000 12272.0000,4673.0000 12278.0000,4673.0000 Z M 12555.0000,4671.0000 L 12716.0000,4670.0000 C 12722.0000,4670.0000 12728.0000,4675.0000 12728.0000,4682.0000 C 12728.0000,4688.0000 12722.0000,4693.0000 12716.0000,4693.0000 L 12555.0000,4694.0000 C 12548.0000,4694.0000 12543.0000,4689.0000 12543.0000,4683.0000 C 12543.0000,4677.0000 12548.0000,4671.0000 12555.0000,4671.0000 Z M 12831.0000,4669.0000 L 12992.0000,4668.0000 C 12999.0000,4668.0000 13004.0000,4673.0000 13004.0000,4680.0000 C 13004.0000,4686.0000 12999.0000,4691.0000 12993.0000,4691.0000 L 12831.0000,4692.0000 C 12825.0000,4692.0000 12820.0000,4687.0000 12820.0000,4681.0000 C 12820.0000,4675.0000 12825.0000,4669.0000 12831.0000,4669.0000 Z M 13108.0000,4667.0000 L 13269.0000,4666.0000 C 13275.0000,4666.0000 13280.0000,4671.0000 13281.0000,4678.0000 C 13281.0000,4684.0000 13275.0000,4689.0000 13269.0000,4689.0000 L 13108.0000,4690.0000 C 13101.0000,4690.0000 13096.0000,4685.0000 13096.0000,4679.0000 C 13096.0000,4673.0000 13101.0000,4667.0000 13108.0000,4667.0000 Z M 13384.0000,4665.0000 L 13545.0000,4664.0000 C 13552.0000,4664.0000 13557.0000,4669.0000 13557.0000,4676.0000 C 13557.0000,4682.0000 13552.0000,4687.0000 13546.0000,4687.0000 L 13384.0000,4688.0000 C 13378.0000,4688.0000 13373.0000,4683.0000 13373.0000,4677.0000 C 13373.0000,4671.0000 13378.0000,4665.0000 13384.0000,4665.0000 Z M 13661.0000,4663.0000 L 13822.0000,4662.0000 C 13828.0000,4662.0000 13833.0000,4667.0000 13833.0000,4674.0000 C 13834.0000,4680.0000 13828.0000,4685.0000 13822.0000,4685.0000 L 13661.0000,4686.0000 C 13654.0000,4686.0000 13649.0000,4681.0000 13649.0000,4675.0000 C 13649.0000,4669.0000 13654.0000,4663.0000 13661.0000,4663.0000 Z M 13937.0000,4661.0000 L 14098.0000,4660.0000 C 14105.0000,4660.0000 14110.0000,4665.0000 14110.0000,4672.0000 C 14110.0000,4678.0000 14105.0000,4683.0000 14098.0000,4683.0000 L 13937.0000,4684.0000 C 13931.0000,4684.0000 13926.0000,4679.0000 13926.0000,4673.0000 C 13926.0000,4667.0000 13931.0000,4661.0000 13937.0000,4661.0000 Z M 14214.0000,4659.0000 L 14375.0000,4658.0000 C 14381.0000,4658.0000 14386.0000,4663.0000 14386.0000,4670.0000 C 14386.0000,4676.0000 14381.0000,4681.0000 14375.0000,4681.0000 L 14214.0000,4682.0000 C 14207.0000,4682.0000 14202.0000,4677.0000 14202.0000,4671.0000 C 14202.0000,4665.0000 14207.0000,4659.0000 14214.0000,4659.0000 Z M 14490.0000,4657.0000 L 14651.0000,4656.0000 C 14658.0000,4656.0000 14663.0000,4661.0000 14663.0000,4668.0000 C 14663.0000,4674.0000 14658.0000,4679.0000 14651.0000,4679.0000 L 14490.0000,4680.0000 C 14484.0000,4681.0000 14479.0000,4675.0000 14479.0000,4669.0000 C 14479.0000,4663.0000 14484.0000,4657.0000 14490.0000,4657.0000 Z M 14766.0000,4655.0000 L 14928.0000,4654.0000 C 14934.0000,4654.0000 14939.0000,4659.0000 14939.0000,4666.0000 C 14939.0000,4672.0000 14934.0000,4677.0000 14928.0000,4677.0000 L 14767.0000,4678.0000 C 14760.0000,4679.0000 14755.0000,4673.0000 14755.0000,4667.0000 C 14755.0000,4661.0000 14760.0000,4655.0000 14766.0000,4655.0000 Z M 15043.0000,4653.0000 L 15204.0000,4652.0000 C 15211.0000,4652.0000 15216.0000,4657.0000 15216.0000,4664.0000 C 15216.0000,4670.0000 15211.0000,4675.0000 15204.0000,4675.0000 L 15043.0000,4676.0000 C 15037.0000,4677.0000 15032.0000,4671.0000 15032.0000,4665.0000 C 15031.0000,4659.0000 15037.0000,4653.0000 15043.0000,4653.0000 Z M 15319.0000,4651.0000 L 15481.0000,4650.0000 C 15487.0000,4650.0000 15492.0000,4655.0000 15492.0000,4662.0000 C 15492.0000,4668.0000 15487.0000,4673.0000 15481.0000,4673.0000 L 15320.0000,4674.0000 C 15313.0000,4675.0000 15308.0000,4669.0000 15308.0000,4663.0000 C 15308.0000,4657.0000 15313.0000,4651.0000 15319.0000,4651.0000 Z M 15596.0000,4649.0000 L 15757.0000,4648.0000 C 15764.0000,4648.0000 15769.0000,4653.0000 15769.0000,4660.0000 C 15769.0000,4666.0000 15764.0000,4671.0000 15757.0000,4671.0000 L 15596.0000,4673.0000 C 15590.0000,4673.0000 15585.0000,4667.0000 15584.0000,4661.0000 C 15584.0000,4655.0000 15590.0000,4650.0000 15596.0000,4649.0000 Z M 15872.0000,4647.0000 L 16034.0000,4646.0000 C 16040.0000,4646.0000 16045.0000,4651.0000 16045.0000,4658.0000 C 16045.0000,4664.0000 16040.0000,4669.0000 16034.0000,4669.0000 L 15873.0000,4671.0000 C 15866.0000,4671.0000 15861.0000,4665.0000 15861.0000,4659.0000 C 15861.0000,4653.0000 15866.0000,4648.0000 15872.0000,4647.0000 Z M 16149.0000,4645.0000 L 16310.0000,4644.0000 C 16316.0000,4644.0000 16322.0000,4649.0000 16322.0000,4656.0000 C 16322.0000,4662.0000 16317.0000,4667.0000 16310.0000,4667.0000 L 16149.0000,4669.0000 C 16143.0000,4669.0000 16137.0000,4663.0000 16137.0000,4657.0000 C 16137.0000,4651.0000 16142.0000,4646.0000 16149.0000,4645.0000 Z M 16425.0000,4643.0000 L 16587.0000,4642.0000 C 16593.0000,4642.0000 16598.0000,4647.0000 16598.0000,4654.0000 C 16598.0000,4660.0000 16593.0000,4665.0000 16587.0000,4665.0000 L 16425.0000,4667.0000 C 16419.0000,4667.0000 16414.0000,4661.0000 16414.0000,4655.0000 C 16414.0000,4649.0000 16419.0000,4644.0000 16425.0000,4643.0000 Z M 16702.0000,4642.0000 L 16732.0000,4641.0000 C 16739.0000,4641.0000 16744.0000,4646.0000 16744.0000,4653.0000 C 16744.0000,4659.0000 16739.0000,4664.0000 16733.0000,4664.0000 L 16702.0000,4665.0000 C 16696.0000,4665.0000 16690.0000,4659.0000 16690.0000,4653.0000 C 16690.0000,4647.0000 16695.0000,4642.0000 16702.0000,4642.0000 Z "  fill="#000000" stroke="#000000" stroke-width="1.0000"  stroke-linecap="butt"  stroke-linejoin="round" />
</g>
<g transform="matrix(1.0000 0.0000 0.0000 1.0000 0.0000 0.0000)">
</g>
<g transform="matrix(0.0625 0.0000 0.0000 0.0625 0.0000 0.0000)">
<path d="M 9540.0000,4808.0000 L 9228.0000,4707.0000 L 9539.0000,4601.0000 L 9540.0000,4808.0000 Z" stroke-width="1px" stroke="#000000"  fill="#000000" />
</g>
<g transform="matrix(1.0000 0.0000 0.0000 1.0000 0.0000 0.0000)">
</g>
<g transform="matrix(1.0000 0.0000 0.0000 1.0000 623.3791 286.2713)">
<text fill="#000000" style ="white-space:pre;" font-weight="400" text-anchor="start" x="0.0000" y="0.0000" font-size="20.0000" ><![CDATA[5b. NRPPa MEASUREMENT ACTIVATION ]]></text>
</g>
<g transform="matrix(0.0625 0.0000 0.0000 0.0625 0.0000 0.0000)">
<path d="M 9514.0000,2666.0000 L 16732.0000,2605.0000 " stroke="#000000" stroke-width="23.0000"  stroke-linecap="round"  stroke-linejoin="round" fill="none" />
</g>
<g transform="matrix(1.0000 0.0000 0.0000 1.0000 0.0000 0.0000)">
</g>
<g transform="matrix(0.0625 0.0000 0.0000 0.0625 0.0000 0.0000)">
<path d="M 9540.0000,2770.0000 L 9228.0000,2669.0000 L 9539.0000,2562.0000 L 9540.0000,2770.0000 Z" stroke-width="1px" stroke="#000000"  fill="#000000" />
</g>
<g transform="matrix(1.0000 0.0000 0.0000 1.0000 0.0000 0.0000)">
</g>
<g transform="matrix(1.0000 0.0000 0.0000 1.0000 585.6229 236.2715)">
<text font-family="Arial" fill="#000000" style ="white-space:pre;" font-weight="400" text-anchor="start" x="0.0000" y="0.0000" font-size="20.0000" ><![CDATA[4. NRPPa MEASUREMENT PRECONFIGURATION ]]></text>
</g>
<g transform="matrix(1.0000 0.0000 0.0000 1.0000 771.2150 260.2717)">
<text font-family="Arial" fill="#000000" style ="white-space:pre;" font-weight="400" text-anchor="start" x="0.0000" y="0.0000" font-size="20.0000" ><![CDATA[CONFIRM]]></text>
</g>
<g transform="matrix(0.0625 0.0000 0.0000 0.0625 0.0000 0.0000)">
<path d="M 9228.0000,3839.0000 L 16447.0000,3839.0000 " stroke="#000000" stroke-width="23.0000"  stroke-linecap="round"  stroke-linejoin="round" fill="none" />
</g>
<g transform="matrix(1.0000 0.0000 0.0000 1.0000 0.0000 0.0000)">
</g>
<g transform="matrix(0.0625 0.0000 0.0000 0.0625 0.0000 0.0000)">
<path d="M 16421.0000,3735.0000 L 16732.0000,3839.0000 L 16421.0000,3942.0000 L 16421.0000,3735.0000 Z" stroke-width="1px" stroke="#000000"  fill="#000000" />
</g>
<g transform="matrix(1.0000 0.0000 0.0000 1.0000 0.0000 0.0000)">
</g>
<g transform="matrix(1.0000 0.0000 0.0000 1.0000 579.9979 159.2715)">
<text font-family="Arial" fill="#000000" style ="white-space:pre;" font-weight="400" text-anchor="start" x="0.0000" y="0.0000" font-size="20.0000" ><![CDATA[1. NRPPa MEASUREMENT PRECONFIGURATION ]]></text>
</g>
<g transform="matrix(1.0000 0.0000 0.0000 1.0000 759.4667 183.2711)">
<text font-family="Arial" fill="#000000" style ="white-space:pre;" font-weight="400" text-anchor="start" x="0.0000" y="0.0000" font-size="20.0000" ><![CDATA[REQUIRED ]]></text>
</g>
<g transform="matrix(0.0625 0.0000 0.0000 0.0625 0.0000 0.0000)">
<path d="M 8956.0000,1788.0000 L 8956.0000,2166.0000 L 17164.0000,2166.0000 L 17164.0000,1788.0000 L 8956.0000,1788.0000 Z" stroke-width="1px" stroke="#FFFFFF"  fill="#FFFFFF" />
</g>
<g transform="matrix(1.0000 0.0000 0.0000 1.0000 0.0000 0.0000)">
</g>
<g transform="matrix(0.0625 0.0000 0.0000 0.0625 0.0000 0.0000)">
<path d="M 8956.0000,2166.0000 L 17164.0000,2166.0000 L 17164.0000,1788.0000 L 8956.0000,1788.0000 L 8956.0000,2166.0000 Z" stroke="#000000" stroke-width="23.0000"  stroke-linecap="round"  stroke-linejoin="round" fill="none" />
</g>
<g transform="matrix(1.0000 0.0000 0.0000 1.0000 0.0000 0.0000)">
</g>
<g transform="matrix(1.0000 0.0000 0.0000 1.0000 670.2363 129.4028)">
<text font-family="Arial" fill="#000000" style ="white-space:pre;" font-weight="400" text-anchor="start" x="0.0000" y="0.0000" font-size="18.0000" ><![CDATA[0. TRP INFORMATION EXCHANGE]]></text>
</g>
</g>
</svg>
