<?xml version="1.0"  encoding="UTF-8" standalone="no"?>
<svg version="1.1" xmlns="http://www.w3.org/2000/svg" xmlns:xlink="http://www.w3.org/1999/xlink" width="2961.0000" height="1265.0000">
<g transform="translate(-0.0000, -4.0000)">
<text font-family="Times New Roman" fill="#000000" style ="white-space:pre;" font-weight="400" text-anchor="start" x="0.0000" y="78.0000" font-size="83.0000" ><![CDATA[ ]]></text>
<g transform="matrix(0.1250 0.0000 0.0000 0.1250 0.0000 0.0000)">
<path d="M 3030.0000,4220.0000 L 21213.0000,4223.0000 " stroke="#000000" stroke-width="8.0000"  stroke-linecap="round"  stroke-linejoin="round" fill="none" />
</g>
<g transform="matrix(1.0000 0.0000 0.0000 1.0000 0.0000 0.0000)">
</g>
<g transform="matrix(0.0625 0.0000 0.0000 0.0625 0.0000 0.0000)">
<path d="M 266.0000,266.0000 L 266.0000,4946.0000 L 9652.0000,4946.0000 L 9652.0000,266.0000 L 266.0000,266.0000 Z" stroke-width="1px" stroke="#FFFFFF"  fill="#FFFFFF" />
</g>
<g transform="matrix(1.0000 0.0000 0.0000 1.0000 0.0000 0.0000)">
</g>
<g transform="matrix(0.0625 0.0000 0.0000 0.0625 0.0000 0.0000)">
<path d="M 266.0000,266.0000 L 266.0000,4946.0000 L 9652.0000,4946.0000 L 9652.0000,266.0000 Z" stroke="#000000" stroke-width="16.0000"  stroke-linecap="round"  stroke-linejoin="miter"  stroke-miterlimit="8.0000" fill="none" />
</g>
<g transform="matrix(1.0000 0.0000 0.0000 1.0000 0.0000 0.0000)">
<defs><clipPath id="clip-1804289383"><path d="M 245.0000,109.0000 L 384.0000,109.0000 L 384.0000,298.0000 L 245.0000,298.0000 L 245.0000,109.0000 Z Z" /></clipPath></defs>
<text  clip-path="url(#clip-1804289383)" font-family="Arial" fill="#000000" style ="white-space:pre;" font-weight="400" text-anchor="start" x="245.0000" y="203.0000" font-size="100.0000" ><![CDATA[UE]]></text>
<text  clip-path="url(#clip-1804289383)" font-family="Times New Roman" fill="#000000" style ="white-space:pre;" font-weight="400" text-anchor="start" x="384.0000" y="203.0000" font-size="83.0000" ><![CDATA[ ]]></text>
</g>
<g transform="matrix(0.1250 0.0000 0.0000 0.1250 0.0000 0.0000)">
<path d="M 18900.0000,133.0000 L 18900.0000,2473.0000 L 23590.0000,2473.0000 L 23590.0000,133.0000 L 18900.0000,133.0000 Z" stroke-width="1px" stroke="#FFFFFF"  fill="#FFFFFF" />
</g>
<g transform="matrix(1.0000 0.0000 0.0000 1.0000 0.0000 0.0000)">
</g>
<g transform="matrix(0.1250 0.0000 0.0000 0.1250 0.0000 0.0000)">
<path d="M 18900.0000,133.0000 L 18900.0000,2473.0000 L 23590.0000,2473.0000 L 23590.0000,133.0000 Z" stroke="#000000" stroke-width="8.0000"  stroke-linecap="round"  stroke-linejoin="miter"  stroke-miterlimit="8.0000" fill="none" />
</g>
<g transform="matrix(1.0000 0.0000 0.0000 1.0000 0.0000 0.0000)">
<defs><clipPath id="clip-846930886"><path d="M 2472.0000,109.0000 L 2672.0000,109.0000 L 2672.0000,298.0000 L 2472.0000,298.0000 L 2472.0000,109.0000 Z Z" /></clipPath></defs>
<text  clip-path="url(#clip-846930886)" font-family="Arial" fill="#000000" style ="white-space:pre;" font-weight="400" text-anchor="start" x="2472.0000" y="203.0000" font-size="100.0000" ><![CDATA[LMF]]></text>
<text  clip-path="url(#clip-846930886)" font-family="Times New Roman" fill="#000000" style ="white-space:pre;" font-weight="400" text-anchor="start" x="2672.0000" y="203.0000" font-size="83.0000" ><![CDATA[ ]]></text>
</g>
<g transform="matrix(0.0625 0.0000 0.0000 0.0625 0.0000 0.0000)">
<path d="M 4959.0000,4946.0000 L 4966.0000,20279.0000 " stroke="#000000" stroke-width="16.0000"  stroke-linecap="round"  stroke-linejoin="round" fill="none" />
</g>
<g transform="matrix(1.0000 0.0000 0.0000 1.0000 0.0000 0.0000)">
</g>
<g transform="matrix(0.1250 0.0000 0.0000 0.1250 0.0000 0.0000)">
<path d="M 21243.0000,2473.0000 L 21246.0000,10140.0000 " stroke="#000000" stroke-width="8.0000"  stroke-linecap="round"  stroke-linejoin="round" fill="none" />
</g>
<g transform="matrix(1.0000 0.0000 0.0000 1.0000 0.0000 0.0000)">
</g>
<g transform="matrix(0.0625 0.0000 0.0000 0.0625 0.0000 0.0000)">
<path d="M 6232.0000,8879.0000 L 4959.0000,8459.0000 L 6232.0000,8039.0000 L 6232.0000,8879.0000 Z" stroke-width="1px" stroke="#000000"  fill="#000000" />
</g>
<g transform="matrix(1.0000 0.0000 0.0000 1.0000 0.0000 0.0000)">
</g>
<g transform="matrix(0.1250 0.0000 0.0000 0.1250 0.0000 0.0000)">
<path d="M 6370.0000,3880.0000 L 6370.0000,4580.0000 L 17353.0000,4580.0000 L 17353.0000,3880.0000 L 6370.0000,3880.0000 Z" stroke-width="1px" stroke="#FFFFFF"  fill="#FFFFFF" />
</g>
<g transform="matrix(1.0000 0.0000 0.0000 1.0000 0.0000 0.0000)">
<defs><clipPath id="clip-1681692777"><path d="M 799.0000,486.0000 L 841.0000,486.0000 L 841.0000,647.0000 L 799.0000,647.0000 L 799.0000,486.0000 Z Z" /></clipPath></defs>
<text  clip-path="url(#clip-1681692777)" font-family="Arial" fill="#000000" style ="white-space:pre;" font-weight="400" text-anchor="start" x="799.0000" y="556.0000" font-size="75.0000" ><![CDATA[1]]></text>
<text  clip-path="url(#clip-1681692777)" font-family="Times New Roman" fill="#000000" style ="white-space:pre;" font-weight="400" text-anchor="start" x="841.0000" y="556.0000" font-size="83.0000" ><![CDATA[ ]]></text>
<defs><clipPath id="clip-1714636915"><path d="M 836.0000,486.0000 L 857.0000,486.0000 L 857.0000,647.0000 L 836.0000,647.0000 L 836.0000,486.0000 Z Z" /></clipPath></defs>
<text  clip-path="url(#clip-1714636915)" font-family="Arial" fill="#000000" style ="white-space:pre;" font-weight="400" text-anchor="start" x="836.0000" y="556.0000" font-size="75.0000" ><![CDATA[. ]]></text>
<text  clip-path="url(#clip-1714636915)" font-family="Times New Roman" fill="#000000" style ="white-space:pre;" font-weight="400" text-anchor="start" x="878.0000" y="556.0000" font-size="83.0000" ><![CDATA[ ]]></text>
<defs><clipPath id="clip-1957747793"><path d="M 878.0000,486.0000 L 2020.0000,486.0000 L 2020.0000,647.0000 L 878.0000,647.0000 L 878.0000,486.0000 Z Z" /></clipPath></defs>
<text  clip-path="url(#clip-1957747793)" font-family="Arial" fill="#000000" style ="white-space:pre;" font-weight="400" text-anchor="start" x="878.0000" y="556.0000" font-size="75.0000" ><![CDATA[LPP Request Location Information ]]></text>
<text  clip-path="url(#clip-1957747793)" font-family="Times New Roman" fill="#000000" style ="white-space:pre;" font-weight="400" text-anchor="start" x="2041.0000" y="556.0000" font-size="83.0000" ><![CDATA[ ]]></text>
</g>
<g transform="matrix(0.1250 0.0000 0.0000 0.1250 0.0000 0.0000)">
<path d="M 2480.0000,6570.0000 L 20663.0000,6573.0000 " stroke="#000000" stroke-width="8.0000"  stroke-linecap="round"  stroke-linejoin="round" fill="none" />
</g>
<g transform="matrix(1.0000 0.0000 0.0000 1.0000 0.0000 0.0000)">
</g>
<g transform="matrix(0.1250 0.0000 0.0000 0.1250 0.0000 0.0000)">
<path d="M 20613.0000,6360.0000 L 21243.0000,6570.0000 L 20613.0000,6780.0000 L 20613.0000,6360.0000 Z" stroke-width="1px" stroke="#000000"  fill="#000000" />
</g>
<g transform="matrix(1.0000 0.0000 0.0000 1.0000 0.0000 0.0000)">
</g>
<g transform="matrix(0.1250 0.0000 0.0000 0.1250 0.0000 0.0000)">
<path d="M 6470.0000,6220.0000 L 6470.0000,6923.0000 L 17256.0000,6923.0000 L 17256.0000,6220.0000 L 6470.0000,6220.0000 Z" stroke-width="1px" stroke="#FFFFFF"  fill="#FFFFFF" />
</g>
<g transform="matrix(1.0000 0.0000 0.0000 1.0000 0.0000 0.0000)">
<defs><clipPath id="clip-424238335"><path d="M 811.0000,779.0000 L 853.0000,779.0000 L 853.0000,940.0000 L 811.0000,940.0000 L 811.0000,779.0000 Z Z" /></clipPath></defs>
<text  clip-path="url(#clip-424238335)" font-family="Arial" fill="#000000" style ="white-space:pre;" font-weight="400" text-anchor="start" x="811.0000" y="849.0000" font-size="75.0000" ><![CDATA[2]]></text>
<text  clip-path="url(#clip-424238335)" font-family="Times New Roman" fill="#000000" style ="white-space:pre;" font-weight="400" text-anchor="start" x="853.0000" y="849.0000" font-size="83.0000" ><![CDATA[ ]]></text>
<defs><clipPath id="clip-719885386"><path d="M 848.0000,779.0000 L 869.0000,779.0000 L 869.0000,940.0000 L 848.0000,940.0000 L 848.0000,779.0000 Z Z" /></clipPath></defs>
<text  clip-path="url(#clip-719885386)" font-family="Arial" fill="#000000" style ="white-space:pre;" font-weight="400" text-anchor="start" x="848.0000" y="849.0000" font-size="75.0000" ><![CDATA[. ]]></text>
<text  clip-path="url(#clip-719885386)" font-family="Times New Roman" fill="#000000" style ="white-space:pre;" font-weight="400" text-anchor="start" x="890.0000" y="849.0000" font-size="83.0000" ><![CDATA[ ]]></text>
<defs><clipPath id="clip-1649760492"><path d="M 891.0000,779.0000 L 2008.0000,779.0000 L 2008.0000,940.0000 L 891.0000,940.0000 L 891.0000,779.0000 Z Z" /></clipPath></defs>
<text  clip-path="url(#clip-1649760492)" font-family="Arial" fill="#000000" style ="white-space:pre;" font-weight="400" text-anchor="start" x="891.0000" y="849.0000" font-size="75.0000" ><![CDATA[LPP Provide Location Information ]]></text>
<text  clip-path="url(#clip-1649760492)" font-family="Times New Roman" fill="#000000" style ="white-space:pre;" font-weight="400" text-anchor="start" x="2029.0000" y="849.0000" font-size="83.0000" ><![CDATA[ ]]></text>
</g>
</g>
</svg>
