<?xml version="1.0"  encoding="UTF-8" standalone="no"?>
<svg version="1.1" xmlns="http://www.w3.org/2000/svg" xmlns:xlink="http://www.w3.org/1999/xlink" width="387.0000" height="343.0000">
<g transform="translate(-25.0000, -25.0000)">
<g transform="matrix(0.0625 0.0000 0.0000 0.0625 0.0000 0.0000)">
<path d="M 424.0000,1011.0000 L 1597.0000,1011.0000 L 1597.0000,424.0000 L 424.0000,424.0000 L 424.0000,1011.0000 " stroke="#404040" stroke-width="16.0000"  stroke-linecap="round"  stroke-linejoin="round" fill="none" />
</g>
<g transform="matrix(1.0000 0.0000 0.0000 1.0000 0.0000 0.0000)">
<text font-family="Calibri" fill="#000000" style ="white-space:pre;" font-weight="400" text-anchor="start" x="52.0000" y="49.0000" font-size="13.0000" ><![CDATA[gNB]]></text>
</g>
<g transform="matrix(0.0625 0.0000 0.0000 0.0625 0.0000 0.0000)">
<path d="M 5376.0000,1018.0000 L 6562.0000,1018.0000 L 6562.0000,424.0000 L 5376.0000,424.0000 L 5376.0000,1018.0000 " stroke="#404040" stroke-width="16.0000"  stroke-linecap="round"  stroke-linejoin="round" fill="none" />
</g>
<g transform="matrix(1.0000 0.0000 0.0000 1.0000 0.0000 0.0000)">
<text font-family="Calibri" fill="#000000" style ="white-space:pre;" font-weight="400" text-anchor="start" x="361.0000" y="49.0000" font-size="13.0000" ><![CDATA[LMF]]></text>
</g>
<g transform="matrix(0.0625 0.0000 0.0000 0.0625 0.0000 0.0000)">
<path d="M 1006.0000,1011.0000 L 1006.0000,5851.0000 " stroke="#404040" stroke-width="16.0000"  stroke-linecap="round"  stroke-linejoin="round" fill="none" />
</g>
<g transform="matrix(1.0000 0.0000 0.0000 1.0000 0.0000 0.0000)">
</g>
<g transform="matrix(0.0625 0.0000 0.0000 0.0625 0.0000 0.0000)">
<path d="M 5965.0000,1020.0000 L 5965.0000,5858.0000 " stroke="#404040" stroke-width="16.0000"  stroke-linecap="round"  stroke-linejoin="round" fill="none" />
</g>
<g transform="matrix(1.0000 0.0000 0.0000 1.0000 0.0000 0.0000)">
</g>
<g transform="matrix(0.0625 0.0000 0.0000 0.0625 0.0000 0.0000)">
<path d="M 5965.0000,1445.0000 L 1198.0000,1439.0000 " stroke="#404040" stroke-width="16.0000"  stroke-linecap="round"  stroke-linejoin="round" fill="none" />
</g>
<g transform="matrix(1.0000 0.0000 0.0000 1.0000 0.0000 0.0000)">
</g>
<g transform="matrix(0.0625 0.0000 0.0000 0.0625 0.0000 0.0000)">
<path d="M 1215.0000,1508.0000 L 1006.0000,1438.0000 L 1215.0000,1369.0000 L 1215.0000,1508.0000 Z" stroke-width="1px" stroke="#404040"  fill="#404040" />
</g>
<g transform="matrix(1.0000 0.0000 0.0000 1.0000 0.0000 0.0000)">
<text font-family="Calibri" fill="#000000" style ="white-space:pre;" font-weight="400" text-anchor="start" x="146.0000" y="85.0000" font-size="13.0000" ><![CDATA[1]]></text>
<text font-family="Calibri" fill="#000000" style ="white-space:pre;" font-weight="400" text-anchor="start" x="153.0000" y="85.0000" font-size="13.0000" ><![CDATA[. ]]></text>
<text font-family="Calibri" fill="#000000" style ="white-space:pre;" font-weight="400" text-anchor="start" x="159.0000" y="85.0000" font-size="13.0000" ><![CDATA[NRPPa Message ]]></text>
<text font-family="Calibri" fill="#000000" style ="white-space:pre;" font-weight="400" text-anchor="start" x="249.0000" y="85.0000" font-size="13.0000" ><![CDATA[(]]></text>
<text font-family="Calibri" fill="#000000" style ="white-space:pre;" font-weight="400" text-anchor="start" x="253.0000" y="85.0000" font-size="13.0000" ><![CDATA[Type]]></text>
<text font-family="Calibri" fill="#000000" style ="white-space:pre;" font-weight="400" text-anchor="start" x="279.0000" y="85.0000" font-size="13.0000" ><![CDATA[: ]]></text>
<text font-family="Calibri" fill="#000000" style ="white-space:pre;" font-weight="400" text-anchor="start" x="151.0000" y="101.0000" font-size="13.0000" ><![CDATA[Measurement Request]]></text>
<text font-family="Calibri" fill="#000000" style ="white-space:pre;" font-weight="400" text-anchor="start" x="274.0000" y="101.0000" font-size="13.0000" ><![CDATA[)]]></text>
</g>
<g transform="matrix(0.0625 0.0000 0.0000 0.0625 0.0000 0.0000)">
<path d="M 1006.0000,2126.0000 L 5773.0000,2120.0000 " stroke="#404040" stroke-width="16.0000"  stroke-linecap="round"  stroke-linejoin="round" fill="none" />
</g>
<g transform="matrix(1.0000 0.0000 0.0000 1.0000 0.0000 0.0000)">
</g>
<g transform="matrix(0.0625 0.0000 0.0000 0.0625 0.0000 0.0000)">
<path d="M 5755.0000,2050.0000 L 5965.0000,2120.0000 L 5755.0000,2190.0000 L 5755.0000,2050.0000 Z" stroke-width="1px" stroke="#404040"  fill="#404040" />
</g>
<g transform="matrix(1.0000 0.0000 0.0000 1.0000 0.0000 0.0000)">
<text font-family="Calibri" fill="#000000" style ="white-space:pre;" font-weight="400" text-anchor="start" x="144.0000" y="129.0000" font-size="13.0000" ><![CDATA[2]]></text>
<text font-family="Calibri" fill="#000000" style ="white-space:pre;" font-weight="400" text-anchor="start" x="151.0000" y="129.0000" font-size="13.0000" ><![CDATA[. ]]></text>
<text font-family="Calibri" fill="#000000" style ="white-space:pre;" font-weight="400" text-anchor="start" x="157.0000" y="129.0000" font-size="13.0000" ><![CDATA[NRPPa Message ]]></text>
<text font-family="Calibri" fill="#000000" style ="white-space:pre;" font-weight="400" text-anchor="start" x="247.0000" y="129.0000" font-size="13.0000" ><![CDATA[(]]></text>
<text font-family="Calibri" fill="#000000" style ="white-space:pre;" font-weight="400" text-anchor="start" x="251.0000" y="129.0000" font-size="13.0000" ><![CDATA[Type]]></text>
<text font-family="Calibri" fill="#000000" style ="white-space:pre;" font-weight="400" text-anchor="start" x="277.0000" y="129.0000" font-size="13.0000" ><![CDATA[: ]]></text>
<text font-family="Calibri" fill="#000000" style ="white-space:pre;" font-weight="400" text-anchor="start" x="123.0000" y="145.0000" font-size="13.0000" ><![CDATA[Measurement Response]]></text>
<text font-family="Calibri" fill="#000000" style ="white-space:pre;" font-weight="400" text-anchor="start" x="255.0000" y="145.0000" font-size="13.0000" ><![CDATA[/]]></text>
<text font-family="Calibri" fill="#000000" style ="white-space:pre;" font-weight="400" text-anchor="start" x="260.0000" y="145.0000" font-size="13.0000" ><![CDATA[Failure]]></text>
<text font-family="Calibri" fill="#000000" style ="white-space:pre;" font-weight="400" text-anchor="start" x="297.0000" y="145.0000" font-size="13.0000" ><![CDATA[)]]></text>
</g>
<g transform="matrix(0.0625 0.0000 0.0000 0.0625 0.0000 0.0000)">
<path d="M 1022.0000,2896.0000 L 5789.0000,2890.0000 " stroke="#404040" stroke-width="16.0000"  stroke-linecap="round"  stroke-linejoin="round" fill="none" />
</g>
<g transform="matrix(1.0000 0.0000 0.0000 1.0000 0.0000 0.0000)">
</g>
<g transform="matrix(0.0625 0.0000 0.0000 0.0625 0.0000 0.0000)">
<path d="M 5772.0000,2820.0000 L 5981.0000,2890.0000 L 5772.0000,2960.0000 L 5772.0000,2820.0000 Z" stroke-width="1px" stroke="#404040"  fill="#404040" />
</g>
<g transform="matrix(1.0000 0.0000 0.0000 1.0000 0.0000 0.0000)">
<text font-family="Calibri" fill="#000000" style ="white-space:pre;" font-weight="400" text-anchor="start" x="145.0000" y="177.0000" font-size="13.0000" ><![CDATA[3]]></text>
<text font-family="Calibri" fill="#000000" style ="white-space:pre;" font-weight="400" text-anchor="start" x="152.0000" y="177.0000" font-size="13.0000" ><![CDATA[. ]]></text>
<text font-family="Calibri" fill="#000000" style ="white-space:pre;" font-weight="400" text-anchor="start" x="158.0000" y="177.0000" font-size="13.0000" ><![CDATA[NRPPa Message ]]></text>
<text font-family="Calibri" fill="#000000" style ="white-space:pre;" font-weight="400" text-anchor="start" x="248.0000" y="177.0000" font-size="13.0000" ><![CDATA[(]]></text>
<text font-family="Calibri" fill="#000000" style ="white-space:pre;" font-weight="400" text-anchor="start" x="252.0000" y="177.0000" font-size="13.0000" ><![CDATA[Type]]></text>
<text font-family="Calibri" fill="#000000" style ="white-space:pre;" font-weight="400" text-anchor="start" x="278.0000" y="177.0000" font-size="13.0000" ><![CDATA[: ]]></text>
<text font-family="Calibri" fill="#000000" style ="white-space:pre;" font-weight="400" text-anchor="start" x="153.0000" y="193.0000" font-size="13.0000" ><![CDATA[Measurement Report]]></text>
<text font-family="Calibri" fill="#000000" style ="white-space:pre;" font-weight="400" text-anchor="start" x="270.0000" y="193.0000" font-size="13.0000" ><![CDATA[)]]></text>
</g>
<g transform="matrix(0.0625 0.0000 0.0000 0.0625 0.0000 0.0000)">
<path d="M 5951.0000,3871.0000 L 1184.0000,3866.0000 " stroke="#404040" stroke-width="16.0000"  stroke-linecap="round"  stroke-linejoin="round" fill="none" />
</g>
<g transform="matrix(1.0000 0.0000 0.0000 1.0000 0.0000 0.0000)">
</g>
<g transform="matrix(0.0625 0.0000 0.0000 0.0625 0.0000 0.0000)">
<path d="M 1201.0000,3935.0000 L 992.0000,3865.0000 L 1201.0000,3796.0000 L 1201.0000,3935.0000 Z" stroke-width="1px" stroke="#404040"  fill="#404040" />
</g>
<g transform="matrix(1.0000 0.0000 0.0000 1.0000 0.0000 0.0000)">
<text font-family="Calibri" fill="#000000" style ="white-space:pre;" font-weight="400" text-anchor="start" x="145.0000" y="237.0000" font-size="13.0000" ><![CDATA[4]]></text>
<text font-family="Calibri" fill="#000000" style ="white-space:pre;" font-weight="400" text-anchor="start" x="152.0000" y="237.0000" font-size="13.0000" ><![CDATA[. ]]></text>
<text font-family="Calibri" fill="#000000" style ="white-space:pre;" font-weight="400" text-anchor="start" x="158.0000" y="237.0000" font-size="13.0000" ><![CDATA[NRPPa Message ]]></text>
<text font-family="Calibri" fill="#000000" style ="white-space:pre;" font-weight="400" text-anchor="start" x="248.0000" y="237.0000" font-size="13.0000" ><![CDATA[(]]></text>
<text font-family="Calibri" fill="#000000" style ="white-space:pre;" font-weight="400" text-anchor="start" x="252.0000" y="237.0000" font-size="13.0000" ><![CDATA[Type]]></text>
<text font-family="Calibri" fill="#000000" style ="white-space:pre;" font-weight="400" text-anchor="start" x="278.0000" y="237.0000" font-size="13.0000" ><![CDATA[: ]]></text>
<text font-family="Calibri" fill="#000000" style ="white-space:pre;" font-weight="400" text-anchor="start" x="152.0000" y="253.0000" font-size="13.0000" ><![CDATA[Measurement Update]]></text>
<text font-family="Calibri" fill="#000000" style ="white-space:pre;" font-weight="400" text-anchor="start" x="271.0000" y="253.0000" font-size="13.0000" ><![CDATA[)]]></text>
<path d="M 215.0000,207.0000 C 215.0000,206.0000 214.0000,206.0000 214.0000,206.0000 C 213.0000,206.0000 212.0000,206.0000 212.0000,207.0000 C 212.0000,208.0000 213.0000,209.0000 214.0000,209.0000 C 214.0000,209.0000 215.0000,208.0000 215.0000,207.0000 " fill="none" stroke="none" />
<defs><clipPath id="clip-1804289383"><path d="M 215.0000,207.0000 C 215.0000,206.0000 214.0000,206.0000 214.0000,206.0000 C 213.0000,206.0000 212.0000,206.0000 212.0000,207.0000 C 212.0000,208.0000 213.0000,209.0000 214.0000,209.0000 C 214.0000,209.0000 215.0000,208.0000 215.0000,207.0000 Z" /></clipPath></defs>
<path  clip-path="url(#clip-1804289383)" d="M 210.0000,204.0000 L 210.0000,209.0000 L 215.0000,209.0000 L 215.0000,204.0000 L 210.0000,204.0000 Z" stroke-width="1px" stroke="#000000"  fill="#000000" />
</g>
<g transform="matrix(0.0625 0.0000 0.0000 0.0625 0.0000 0.0000)">
<path d="M 210.0000,204.0000 M 3435.0000,3307.0000 C 3435.0000,3294.0000 3424.0000,3283.0000 3411.0000,3283.0000 C 3398.0000,3283.0000 3387.0000,3294.0000 3387.0000,3307.0000 C 3387.0000,3320.0000 3398.0000,3331.0000 3411.0000,3331.0000 C 3424.0000,3331.0000 3435.0000,3320.0000 3435.0000,3307.0000 " stroke="#404040" stroke-width="5.0000"  stroke-linecap="round"  stroke-linejoin="round"  fill="none" />
</g>
<g transform="matrix(1.0000 0.0000 0.0000 1.0000 0.0000 0.0000)">
<path d="M 215.0000,212.0000 C 215.0000,211.0000 214.0000,210.0000 214.0000,210.0000 C 213.0000,210.0000 212.0000,211.0000 212.0000,212.0000 C 212.0000,213.0000 213.0000,213.0000 214.0000,213.0000 C 214.0000,213.0000 215.0000,213.0000 215.0000,212.0000 " fill="none" stroke="none" />
<defs><clipPath id="clip-846930886"><path d="M 215.0000,212.0000 C 215.0000,211.0000 214.0000,210.0000 214.0000,210.0000 C 213.0000,210.0000 212.0000,211.0000 212.0000,212.0000 C 212.0000,213.0000 213.0000,213.0000 214.0000,213.0000 C 214.0000,213.0000 215.0000,213.0000 215.0000,212.0000 Z" /></clipPath></defs>
<path  clip-path="url(#clip-846930886)" d="M 210.0000,208.0000 L 210.0000,214.0000 L 215.0000,214.0000 L 215.0000,208.0000 L 210.0000,208.0000 Z" stroke-width="1px" stroke="#000000"  fill="#000000" />
</g>
<g transform="matrix(0.0625 0.0000 0.0000 0.0625 0.0000 0.0000)">
<path d="M 210.0000,208.0000 M 3435.0000,3380.0000 C 3435.0000,3366.0000 3424.0000,3355.0000 3411.0000,3355.0000 C 3398.0000,3355.0000 3387.0000,3366.0000 3387.0000,3380.0000 C 3387.0000,3393.0000 3398.0000,3404.0000 3411.0000,3404.0000 C 3424.0000,3404.0000 3435.0000,3393.0000 3435.0000,3380.0000 " stroke="#404040" stroke-width="5.0000"  stroke-linecap="round"  stroke-linejoin="round"  fill="none" />
</g>
<g transform="matrix(1.0000 0.0000 0.0000 1.0000 0.0000 0.0000)">
<path d="M 215.0000,217.0000 C 215.0000,216.0000 214.0000,215.0000 214.0000,215.0000 C 213.0000,215.0000 212.0000,216.0000 212.0000,217.0000 C 212.0000,217.0000 213.0000,218.0000 214.0000,218.0000 C 214.0000,218.0000 215.0000,217.0000 215.0000,217.0000 " fill="none" stroke="none" />
<defs><clipPath id="clip-1681692777"><path d="M 215.0000,217.0000 C 215.0000,216.0000 214.0000,215.0000 214.0000,215.0000 C 213.0000,215.0000 212.0000,216.0000 212.0000,217.0000 C 212.0000,217.0000 213.0000,218.0000 214.0000,218.0000 C 214.0000,218.0000 215.0000,217.0000 215.0000,217.0000 Z" /></clipPath></defs>
<path  clip-path="url(#clip-1681692777)" d="M 210.0000,213.0000 L 210.0000,218.0000 L 215.0000,218.0000 L 215.0000,213.0000 L 210.0000,213.0000 Z" stroke-width="1px" stroke="#000000"  fill="#000000" />
</g>
<g transform="matrix(0.0625 0.0000 0.0000 0.0625 0.0000 0.0000)">
<path d="M 210.0000,213.0000 M 3435.0000,3458.0000 C 3435.0000,3445.0000 3424.0000,3434.0000 3411.0000,3434.0000 C 3398.0000,3434.0000 3387.0000,3445.0000 3387.0000,3458.0000 C 3387.0000,3472.0000 3398.0000,3482.0000 3411.0000,3482.0000 C 3424.0000,3482.0000 3435.0000,3472.0000 3435.0000,3458.0000 " stroke="#404040" stroke-width="5.0000"  stroke-linecap="round"  stroke-linejoin="round"  fill="none" />
</g>
<g transform="matrix(1.0000 0.0000 0.0000 1.0000 0.0000 0.0000)">
</g>
<g transform="matrix(0.0625 0.0000 0.0000 0.0625 0.0000 0.0000)">
<path d="M 5951.0000,5488.0000 L 1184.0000,5482.0000 " stroke="#404040" stroke-width="16.0000"  stroke-linecap="round"  stroke-linejoin="round" fill="none" />
</g>
<g transform="matrix(1.0000 0.0000 0.0000 1.0000 0.0000 0.0000)">
</g>
<g transform="matrix(0.0625 0.0000 0.0000 0.0625 0.0000 0.0000)">
<path d="M 1201.0000,5552.0000 L 992.0000,5482.0000 L 1201.0000,5413.0000 L 1201.0000,5552.0000 Z" stroke-width="1px" stroke="#404040"  fill="#404040" />
</g>
<g transform="matrix(1.0000 0.0000 0.0000 1.0000 0.0000 0.0000)">
<text font-family="Calibri" fill="#000000" style ="white-space:pre;" font-weight="400" text-anchor="start" x="145.0000" y="339.0000" font-size="13.0000" ><![CDATA[6]]></text>
<text font-family="Calibri" fill="#000000" style ="white-space:pre;" font-weight="400" text-anchor="start" x="152.0000" y="339.0000" font-size="13.0000" ><![CDATA[. ]]></text>
<text font-family="Calibri" fill="#000000" style ="white-space:pre;" font-weight="400" text-anchor="start" x="158.0000" y="339.0000" font-size="13.0000" ><![CDATA[NRPPa Message ]]></text>
<text font-family="Calibri" fill="#000000" style ="white-space:pre;" font-weight="400" text-anchor="start" x="248.0000" y="339.0000" font-size="13.0000" ><![CDATA[(]]></text>
<text font-family="Calibri" fill="#000000" style ="white-space:pre;" font-weight="400" text-anchor="start" x="252.0000" y="339.0000" font-size="13.0000" ><![CDATA[Type]]></text>
<text font-family="Calibri" fill="#000000" style ="white-space:pre;" font-weight="400" text-anchor="start" x="278.0000" y="339.0000" font-size="13.0000" ><![CDATA[: ]]></text>
<text font-family="Calibri" fill="#000000" style ="white-space:pre;" font-weight="400" text-anchor="start" x="156.0000" y="355.0000" font-size="13.0000" ><![CDATA[Measurement Abort]]></text>
<text font-family="Calibri" fill="#000000" style ="white-space:pre;" font-weight="400" text-anchor="start" x="267.0000" y="355.0000" font-size="13.0000" ><![CDATA[)]]></text>
</g>
<g transform="matrix(0.0625 0.0000 0.0000 0.0625 0.0000 0.0000)">
<path d="M 1022.0000,4680.0000 L 5789.0000,4674.0000 " stroke="#404040" stroke-width="16.0000"  stroke-linecap="round"  stroke-linejoin="round" fill="none" />
</g>
<g transform="matrix(1.0000 0.0000 0.0000 1.0000 0.0000 0.0000)">
</g>
<g transform="matrix(0.0625 0.0000 0.0000 0.0625 0.0000 0.0000)">
<path d="M 5772.0000,4604.0000 L 5981.0000,4674.0000 L 5772.0000,4744.0000 L 5772.0000,4604.0000 Z" stroke-width="1px" stroke="#404040"  fill="#404040" />
</g>
<g transform="matrix(1.0000 0.0000 0.0000 1.0000 0.0000 0.0000)">
<text font-family="Calibri" fill="#000000" style ="white-space:pre;" font-weight="400" text-anchor="start" x="145.0000" y="289.0000" font-size="13.0000" ><![CDATA[5]]></text>
<text font-family="Calibri" fill="#000000" style ="white-space:pre;" font-weight="400" text-anchor="start" x="152.0000" y="289.0000" font-size="13.0000" ><![CDATA[. ]]></text>
<text font-family="Calibri" fill="#000000" style ="white-space:pre;" font-weight="400" text-anchor="start" x="158.0000" y="289.0000" font-size="13.0000" ><![CDATA[NRPPa Message ]]></text>
<text font-family="Calibri" fill="#000000" style ="white-space:pre;" font-weight="400" text-anchor="start" x="248.0000" y="289.0000" font-size="13.0000" ><![CDATA[(]]></text>
<text font-family="Calibri" fill="#000000" style ="white-space:pre;" font-weight="400" text-anchor="start" x="252.0000" y="289.0000" font-size="13.0000" ><![CDATA[Type]]></text>
<text font-family="Calibri" fill="#000000" style ="white-space:pre;" font-weight="400" text-anchor="start" x="278.0000" y="289.0000" font-size="13.0000" ><![CDATA[: ]]></text>
<text font-family="Calibri" fill="#000000" style ="white-space:pre;" font-weight="400" text-anchor="start" x="125.0000" y="305.0000" font-size="13.0000" ><![CDATA[Measurement Failure Indication]]></text>
<text font-family="Calibri" fill="#000000" style ="white-space:pre;" font-weight="400" text-anchor="start" x="298.0000" y="305.0000" font-size="13.0000" ><![CDATA[)]]></text>
</g>
</g>
</svg>
