<?xml version="1.0"  encoding="UTF-8" standalone="no"?>
<svg version="1.1" xmlns="http://www.w3.org/2000/svg" xmlns:xlink="http://www.w3.org/1999/xlink" width="463.0000" height="171.0000">
<g transform="translate(-25.0000, -19.0000)">
<g transform="matrix(0.0625 0.0000 0.0000 0.0625 0.0000 0.0000)">
<path d="M 6728.0000,332.0000 L 6728.0000,856.0000 L 7784.0000,856.0000 L 7784.0000,332.0000 L 6728.0000,332.0000 Z" stroke-width="1px" stroke="#FFFFFF"  fill="#FFFFFF" />
</g>
<g transform="matrix(1.0000 0.0000 0.0000 1.0000 0.0000 0.0000)">
</g>
<g transform="matrix(0.0625 0.0000 0.0000 0.0625 0.0000 0.0000)">
<path d="M 6728.0000,856.0000 L 7784.0000,856.0000 L 7784.0000,332.0000 L 6728.0000,332.0000 L 6728.0000,856.0000 Z" stroke="#000000" stroke-width="16.0000"  stroke-linecap="round"  stroke-linejoin="round" fill="none" />
</g>
<g transform="matrix(1.0000 0.0000 0.0000 1.0000 0.0000 0.0000)">
<text font-family="Arial" fill="#000000" style ="white-space:pre;" font-weight="400" text-anchor="start" x="440.0000" y="41.0000" font-size="13.0000" ><![CDATA[LMF]]></text>
</g>
<g transform="matrix(0.0625 0.0000 0.0000 0.0625 0.0000 0.0000)">
<path d="M 3448.0000,332.0000 L 3448.0000,856.0000 L 4504.0000,856.0000 L 4504.0000,332.0000 L 3448.0000,332.0000 Z" stroke-width="1px" stroke="#FFFFFF"  fill="#FFFFFF" />
</g>
<g transform="matrix(1.0000 0.0000 0.0000 1.0000 0.0000 0.0000)">
</g>
<g transform="matrix(0.0625 0.0000 0.0000 0.0625 0.0000 0.0000)">
<path d="M 3448.0000,856.0000 L 4504.0000,856.0000 L 4504.0000,332.0000 L 3448.0000,332.0000 L 3448.0000,856.0000 Z" stroke="#000000" stroke-width="16.0000"  stroke-linecap="round"  stroke-linejoin="round" fill="none" />
</g>
<g transform="matrix(1.0000 0.0000 0.0000 1.0000 0.0000 0.0000)">
<text font-family="Arial" fill="#000000" style ="white-space:pre;" font-weight="400" text-anchor="start" x="234.0000" y="41.0000" font-size="13.0000" ><![CDATA[AMF]]></text>
</g>
<g transform="matrix(0.0625 0.0000 0.0000 0.0625 0.0000 0.0000)">
<path d="M 424.0000,332.0000 L 424.0000,856.0000 L 1480.0000,856.0000 L 1480.0000,332.0000 L 424.0000,332.0000 Z" stroke-width="1px" stroke="#FFFFFF"  fill="#FFFFFF" />
</g>
<g transform="matrix(1.0000 0.0000 0.0000 1.0000 0.0000 0.0000)">
</g>
<g transform="matrix(0.0625 0.0000 0.0000 0.0625 0.0000 0.0000)">
<path d="M 424.0000,856.0000 L 1480.0000,856.0000 L 1480.0000,332.0000 L 424.0000,332.0000 L 424.0000,856.0000 Z" stroke="#000000" stroke-width="16.0000"  stroke-linecap="round"  stroke-linejoin="round" fill="none" />
</g>
<g transform="matrix(1.0000 0.0000 0.0000 1.0000 0.0000 0.0000)">
<text font-family="Arial" fill="#000000" style ="white-space:pre;" font-weight="400" text-anchor="start" x="33.0000" y="33.0000" font-size="13.0000" ><![CDATA[NG]]></text>
<text font-family="Arial" fill="#000000" style ="white-space:pre;" font-weight="400" text-anchor="start" x="53.0000" y="33.0000" font-size="13.0000" ><![CDATA[-]]></text>
<text font-family="Arial" fill="#000000" style ="white-space:pre;" font-weight="400" text-anchor="start" x="58.0000" y="33.0000" font-size="13.0000" ><![CDATA[RAN ]]></text>
<text font-family="Arial" fill="#000000" style ="white-space:pre;" font-weight="400" text-anchor="start" x="44.0000" y="49.0000" font-size="13.0000" ><![CDATA[Node]]></text>
</g>
<g transform="matrix(0.0625 0.0000 0.0000 0.0625 0.0000 0.0000)">
<path d="M 7256.0000,856.0000 L 7256.0000,3004.0000 " stroke="#000000" stroke-width="16.0000"  stroke-linecap="round"  stroke-linejoin="round" fill="none" />
</g>
<g transform="matrix(1.0000 0.0000 0.0000 1.0000 0.0000 0.0000)">
</g>
<g transform="matrix(0.0625 0.0000 0.0000 0.0625 0.0000 0.0000)">
<path d="M 3976.0000,856.0000 L 3976.0000,3004.0000 " stroke="#000000" stroke-width="16.0000"  stroke-linecap="round"  stroke-linejoin="round" fill="none" />
</g>
<g transform="matrix(1.0000 0.0000 0.0000 1.0000 0.0000 0.0000)">
</g>
<g transform="matrix(0.0625 0.0000 0.0000 0.0625 0.0000 0.0000)">
<path d="M 952.0000,856.0000 L 952.0000,3004.0000 " stroke="#000000" stroke-width="16.0000"  stroke-linecap="round"  stroke-linejoin="round" fill="none" />
</g>
<g transform="matrix(1.0000 0.0000 0.0000 1.0000 0.0000 0.0000)">
</g>
<g transform="matrix(0.0625 0.0000 0.0000 0.0625 0.0000 0.0000)">
<path d="M 952.0000,1492.0000 L 3785.0000,1492.0000 " stroke="#000000" stroke-width="16.0000"  stroke-linecap="round"  stroke-linejoin="round" fill="none" />
</g>
<g transform="matrix(1.0000 0.0000 0.0000 1.0000 0.0000 0.0000)">
</g>
<g transform="matrix(0.0625 0.0000 0.0000 0.0625 0.0000 0.0000)">
<path d="M 3767.0000,1423.0000 L 3976.0000,1492.0000 L 3767.0000,1562.0000 L 3767.0000,1423.0000 Z" stroke-width="1px" stroke="#000000"  fill="#000000" />
</g>
<g transform="matrix(1.0000 0.0000 0.0000 1.0000 0.0000 0.0000)">
<text font-family="Arial" fill="#000000" style ="white-space:pre;" font-weight="400" text-anchor="start" x="47.0000" y="90.0000" font-size="12.0000" ><![CDATA[1]]></text>
<text font-family="Arial" fill="#000000" style ="white-space:pre;" font-weight="400" text-anchor="start" x="54.0000" y="90.0000" font-size="12.0000" ><![CDATA[. ]]></text>
<text font-family="Arial" fill="#000000" style ="white-space:pre;" font-weight="400" text-anchor="start" x="61.0000" y="90.0000" font-size="12.0000" ><![CDATA[NGAP Uplink Non UE Associated ]]></text>
<text font-family="Arial" fill="#000000" style ="white-space:pre;" font-weight="400" text-anchor="start" x="56.0000" y="104.0000" font-size="12.0000" ><![CDATA[NRPPa Transport ]]></text>
<text font-family="Arial" fill="#000000" style ="white-space:pre;" font-weight="400" text-anchor="start" x="154.0000" y="104.0000" font-size="12.0000" ><![CDATA[(]]></text>
<text font-family="Arial" fill="#000000" style ="white-space:pre;" font-weight="400" text-anchor="start" x="158.0000" y="104.0000" font-size="12.0000" ><![CDATA[NRPPa PDU]]></text>
<text font-family="Arial" fill="#000000" style ="white-space:pre;" font-weight="400" text-anchor="start" x="226.0000" y="104.0000" font-size="12.0000" ><![CDATA[)]]></text>
</g>
<g transform="matrix(0.0625 0.0000 0.0000 0.0625 0.0000 0.0000)">
<path d="M 3976.0000,2428.0000 L 7065.0000,2413.0000 " stroke="#000000" stroke-width="16.0000"  stroke-linecap="round"  stroke-linejoin="round" fill="none" />
</g>
<g transform="matrix(1.0000 0.0000 0.0000 1.0000 0.0000 0.0000)">
</g>
<g transform="matrix(0.0625 0.0000 0.0000 0.0625 0.0000 0.0000)">
<path d="M 7047.0000,2344.0000 L 7256.0000,2412.0000 L 7048.0000,2483.0000 L 7047.0000,2344.0000 Z" stroke-width="1px" stroke="#000000"  fill="#000000" />
</g>
<g transform="matrix(1.0000 0.0000 0.0000 1.0000 0.0000 0.0000)">
<text font-family="Arial" fill="#000000" style ="white-space:pre;" font-weight="400" text-anchor="start" x="233.0000" y="148.0000" font-size="12.0000" ><![CDATA[2]]></text>
<text font-family="Arial" fill="#000000" style ="white-space:pre;" font-weight="400" text-anchor="start" x="240.0000" y="148.0000" font-size="12.0000" ><![CDATA[. ]]></text>
<text font-family="Arial" fill="#000000" style ="white-space:pre;" font-weight="400" text-anchor="start" x="246.0000" y="148.0000" font-size="12.0000" ><![CDATA[Namf]]></text>
<text font-family="Arial" fill="#000000" style ="white-space:pre;" font-weight="400" text-anchor="start" x="275.0000" y="148.0000" font-size="12.0000" ><![CDATA[_]]></text>
<text font-family="Arial" fill="#000000" style ="white-space:pre;" font-weight="400" text-anchor="start" x="282.0000" y="148.0000" font-size="12.0000" ><![CDATA[Communication]]></text>
<text font-family="Arial" fill="#000000" style ="white-space:pre;" font-weight="400" text-anchor="start" x="365.0000" y="148.0000" font-size="12.0000" ><![CDATA[_]]></text>
<text font-family="Arial" fill="#000000" style ="white-space:pre;" font-weight="400" text-anchor="start" x="372.0000" y="148.0000" font-size="12.0000" ><![CDATA[NonUeN]]></text>
<text font-family="Arial" fill="#000000" style ="white-space:pre;" font-weight="400" text-anchor="start" x="418.0000" y="148.0000" font-size="12.0000" ><![CDATA[2]]></text>
<text font-family="Arial" fill="#000000" style ="white-space:pre;" font-weight="400" text-anchor="start" x="424.0000" y="148.0000" font-size="12.0000" ><![CDATA[InfoNotify]]></text>
<text font-family="Arial" fill="#000000" style ="white-space:pre;" font-weight="400" text-anchor="start" x="316.0000" y="162.0000" font-size="12.0000" ><![CDATA[(]]></text>
<text font-family="Arial" fill="#000000" style ="white-space:pre;" font-weight="400" text-anchor="start" x="320.0000" y="162.0000" font-size="12.0000" ><![CDATA[NRPPa PDU]]></text>
<text font-family="Arial" fill="#000000" style ="white-space:pre;" font-weight="400" text-anchor="start" x="388.0000" y="162.0000" font-size="12.0000" ><![CDATA[)]]></text>
</g>
</g>
</svg>
