<?xml version="1.0"  encoding="UTF-8" standalone="no"?>
<svg version="1.1" xmlns="http://www.w3.org/2000/svg" xmlns:xlink="http://www.w3.org/1999/xlink" width="579.0000" height="167.0000">
<g transform="translate(-1.0000, -1.0000)">
<g transform="matrix(0.0625 0.0000 0.0000 0.0625 0.0000 0.0000)">
<path d="M 40.0000,40.0000 L 40.0000,808.0000 L 1576.0000,808.0000 L 1576.0000,40.0000 L 40.0000,40.0000 Z" stroke-width="1px" stroke="#FFFFFF"  fill="#FFFFFF" />
</g>
<g transform="matrix(1.0000 0.0000 0.0000 1.0000 0.0000 0.0000)">
</g>
<g transform="matrix(0.0625 0.0000 0.0000 0.0625 0.0000 0.0000)">
<path d="M 40.0000,808.0000 L 1576.0000,808.0000 L 1576.0000,40.0000 L 40.0000,40.0000 L 40.0000,808.0000 Z" stroke="#000000" stroke-width="15.0000"  stroke-linecap="round"  stroke-linejoin="round" fill="none" />
</g>
<g transform="matrix(1.0000 0.0000 0.0000 1.0000 0.0000 0.0000)">
<text font-family="Arial" fill="#000000" style ="white-space:pre;" font-weight="400" text-anchor="start" x="24.0000" y="22.0000" font-size="13.0000" ><![CDATA[NG]]></text>
<text font-family="Arial" fill="#000000" style ="white-space:pre;" font-weight="400" text-anchor="start" x="44.0000" y="22.0000" font-size="13.0000" ><![CDATA[-]]></text>
<text font-family="Arial" fill="#000000" style ="white-space:pre;" font-weight="400" text-anchor="start" x="49.0000" y="22.0000" font-size="13.0000" ><![CDATA[RAN ]]></text>
<text font-family="Arial" fill="#000000" style ="white-space:pre;" font-weight="400" text-anchor="start" x="35.0000" y="38.0000" font-size="13.0000" ><![CDATA[Node]]></text>
</g>
<g transform="matrix(0.0625 0.0000 0.0000 0.0625 0.0000 0.0000)">
<path d="M 7720.0000,40.0000 L 7720.0000,808.0000 L 9256.0000,808.0000 L 9256.0000,40.0000 L 7720.0000,40.0000 Z" stroke-width="1px" stroke="#FFFFFF"  fill="#FFFFFF" />
</g>
<g transform="matrix(1.0000 0.0000 0.0000 1.0000 0.0000 0.0000)">
</g>
<g transform="matrix(0.0625 0.0000 0.0000 0.0625 0.0000 0.0000)">
<path d="M 7720.0000,808.0000 L 9256.0000,808.0000 L 9256.0000,40.0000 L 7720.0000,40.0000 L 7720.0000,808.0000 Z" stroke="#000000" stroke-width="15.0000"  stroke-linecap="round"  stroke-linejoin="round" fill="none" />
</g>
<g transform="matrix(1.0000 0.0000 0.0000 1.0000 0.0000 0.0000)">
<text font-family="Arial" fill="#000000" style ="white-space:pre;" font-weight="400" text-anchor="start" x="511.0000" y="30.0000" font-size="13.0000" ><![CDATA[Server]]></text>
</g>
<g transform="matrix(0.0625 0.0000 0.0000 0.0625 0.0000 0.0000)">
<path d="M 808.0000,808.0000 L 808.0000,2661.0000 " stroke="#000000" stroke-width="15.0000"  stroke-linecap="round"  stroke-linejoin="round" fill="none" />
</g>
<g transform="matrix(1.0000 0.0000 0.0000 1.0000 0.0000 0.0000)">
</g>
<g transform="matrix(0.0625 0.0000 0.0000 0.0625 0.0000 0.0000)">
<path d="M 8488.0000,808.0000 L 8488.0000,2661.0000 " stroke="#000000" stroke-width="15.0000"  stroke-linecap="round"  stroke-linejoin="round" fill="none" />
</g>
<g transform="matrix(1.0000 0.0000 0.0000 1.0000 0.0000 0.0000)">
</g>
<g transform="matrix(0.0625 0.0000 0.0000 0.0625 0.0000 0.0000)">
<path d="M 998.0000,1203.0000 L 1110.0000,1203.0000 C 1114.0000,1203.0000 1118.0000,1207.0000 1118.0000,1211.0000 C 1118.0000,1215.0000 1114.0000,1219.0000 1110.0000,1219.0000 L 998.0000,1219.0000 C 993.0000,1219.0000 990.0000,1215.0000 990.0000,1211.0000 C 990.0000,1207.0000 993.0000,1203.0000 998.0000,1203.0000 Z M 1190.0000,1203.0000 L 1302.0000,1203.0000 C 1306.0000,1203.0000 1310.0000,1207.0000 1310.0000,1211.0000 C 1310.0000,1215.0000 1306.0000,1219.0000 1302.0000,1219.0000 L 1190.0000,1219.0000 C 1185.0000,1219.0000 1182.0000,1215.0000 1182.0000,1211.0000 C 1182.0000,1207.0000 1185.0000,1203.0000 1190.0000,1203.0000 Z M 1382.0000,1203.0000 L 1494.0000,1203.0000 C 1498.0000,1203.0000 1502.0000,1207.0000 1502.0000,1211.0000 C 1502.0000,1215.0000 1498.0000,1219.0000 1494.0000,1219.0000 L 1382.0000,1219.0000 C 1377.0000,1219.0000 1374.0000,1215.0000 1374.0000,1211.0000 C 1374.0000,1207.0000 1377.0000,1203.0000 1382.0000,1203.0000 Z M 1574.0000,1203.0000 L 1686.0000,1203.0000 C 1690.0000,1203.0000 1694.0000,1207.0000 1694.0000,1211.0000 C 1694.0000,1215.0000 1690.0000,1219.0000 1686.0000,1219.0000 L 1574.0000,1219.0000 C 1569.0000,1219.0000 1566.0000,1215.0000 1566.0000,1211.0000 C 1566.0000,1207.0000 1569.0000,1203.0000 1574.0000,1203.0000 Z M 1766.0000,1203.0000 L 1878.0000,1203.0000 C 1882.0000,1203.0000 1886.0000,1207.0000 1886.0000,1211.0000 C 1886.0000,1215.0000 1882.0000,1219.0000 1878.0000,1219.0000 L 1766.0000,1219.0000 C 1761.0000,1219.0000 1758.0000,1215.0000 1758.0000,1211.0000 C 1758.0000,1207.0000 1761.0000,1203.0000 1766.0000,1203.0000 Z M 1958.0000,1203.0000 L 2070.0000,1203.0000 C 2074.0000,1203.0000 2078.0000,1207.0000 2078.0000,1211.0000 C 2078.0000,1215.0000 2074.0000,1219.0000 2070.0000,1219.0000 L 1958.0000,1219.0000 C 1953.0000,1219.0000 1950.0000,1215.0000 1950.0000,1211.0000 C 1950.0000,1207.0000 1953.0000,1203.0000 1958.0000,1203.0000 Z M 2150.0000,1203.0000 L 2262.0000,1203.0000 C 2266.0000,1203.0000 2270.0000,1207.0000 2270.0000,1211.0000 C 2270.0000,1215.0000 2266.0000,1219.0000 2262.0000,1219.0000 L 2150.0000,1219.0000 C 2145.0000,1219.0000 2142.0000,1215.0000 2142.0000,1211.0000 C 2142.0000,1207.0000 2145.0000,1203.0000 2150.0000,1203.0000 Z M 2342.0000,1203.0000 L 2454.0000,1203.0000 C 2458.0000,1203.0000 2462.0000,1207.0000 2462.0000,1211.0000 C 2462.0000,1215.0000 2458.0000,1219.0000 2454.0000,1219.0000 L 2342.0000,1219.0000 C 2337.0000,1219.0000 2334.0000,1215.0000 2334.0000,1211.0000 C 2334.0000,1207.0000 2337.0000,1203.0000 2342.0000,1203.0000 Z M 2534.0000,1203.0000 L 2646.0000,1203.0000 C 2650.0000,1203.0000 2654.0000,1207.0000 2654.0000,1211.0000 C 2654.0000,1215.0000 2650.0000,1219.0000 2646.0000,1219.0000 L 2534.0000,1219.0000 C 2529.0000,1219.0000 2526.0000,1215.0000 2526.0000,1211.0000 C 2526.0000,1207.0000 2529.0000,1203.0000 2534.0000,1203.0000 Z M 2726.0000,1203.0000 L 2838.0000,1203.0000 C 2842.0000,1203.0000 2846.0000,1207.0000 2846.0000,1211.0000 C 2846.0000,1215.0000 2842.0000,1219.0000 2838.0000,1219.0000 L 2726.0000,1219.0000 C 2721.0000,1219.0000 2718.0000,1215.0000 2718.0000,1211.0000 C 2718.0000,1207.0000 2721.0000,1203.0000 2726.0000,1203.0000 Z M 2918.0000,1203.0000 L 3030.0000,1203.0000 C 3034.0000,1203.0000 3038.0000,1207.0000 3038.0000,1211.0000 C 3038.0000,1215.0000 3034.0000,1219.0000 3030.0000,1219.0000 L 2918.0000,1219.0000 C 2913.0000,1219.0000 2910.0000,1215.0000 2910.0000,1211.0000 C 2910.0000,1207.0000 2913.0000,1203.0000 2918.0000,1203.0000 Z M 3110.0000,1203.0000 L 3222.0000,1203.0000 C 3226.0000,1203.0000 3230.0000,1207.0000 3230.0000,1211.0000 C 3230.0000,1215.0000 3226.0000,1219.0000 3222.0000,1219.0000 L 3110.0000,1219.0000 C 3105.0000,1219.0000 3102.0000,1215.0000 3102.0000,1211.0000 C 3102.0000,1207.0000 3105.0000,1203.0000 3110.0000,1203.0000 Z M 3302.0000,1203.0000 L 3414.0000,1203.0000 C 3418.0000,1203.0000 3422.0000,1207.0000 3422.0000,1211.0000 C 3422.0000,1215.0000 3418.0000,1219.0000 3414.0000,1219.0000 L 3302.0000,1219.0000 C 3297.0000,1219.0000 3294.0000,1215.0000 3294.0000,1211.0000 C 3294.0000,1207.0000 3297.0000,1203.0000 3302.0000,1203.0000 Z M 3494.0000,1203.0000 L 3606.0000,1203.0000 C 3610.0000,1203.0000 3614.0000,1207.0000 3614.0000,1211.0000 C 3614.0000,1215.0000 3610.0000,1219.0000 3606.0000,1219.0000 L 3494.0000,1219.0000 C 3489.0000,1219.0000 3486.0000,1215.0000 3486.0000,1211.0000 C 3486.0000,1207.0000 3489.0000,1203.0000 3494.0000,1203.0000 Z M 3686.0000,1203.0000 L 3798.0000,1203.0000 C 3802.0000,1203.0000 3806.0000,1207.0000 3806.0000,1211.0000 C 3806.0000,1215.0000 3802.0000,1219.0000 3798.0000,1219.0000 L 3686.0000,1219.0000 C 3681.0000,1219.0000 3678.0000,1215.0000 3678.0000,1211.0000 C 3678.0000,1207.0000 3681.0000,1203.0000 3686.0000,1203.0000 Z M 3878.0000,1203.0000 L 3990.0000,1203.0000 C 3994.0000,1203.0000 3998.0000,1207.0000 3998.0000,1211.0000 C 3998.0000,1215.0000 3994.0000,1219.0000 3990.0000,1219.0000 L 3878.0000,1219.0000 C 3873.0000,1219.0000 3870.0000,1215.0000 3870.0000,1211.0000 C 3870.0000,1207.0000 3873.0000,1203.0000 3878.0000,1203.0000 Z M 4070.0000,1203.0000 L 4182.0000,1203.0000 C 4186.0000,1203.0000 4190.0000,1207.0000 4190.0000,1211.0000 C 4190.0000,1215.0000 4186.0000,1219.0000 4182.0000,1219.0000 L 4070.0000,1219.0000 C 4065.0000,1219.0000 4062.0000,1215.0000 4062.0000,1211.0000 C 4062.0000,1207.0000 4065.0000,1203.0000 4070.0000,1203.0000 Z M 4262.0000,1203.0000 L 4374.0000,1203.0000 C 4378.0000,1203.0000 4382.0000,1207.0000 4382.0000,1211.0000 C 4382.0000,1215.0000 4378.0000,1219.0000 4374.0000,1219.0000 L 4262.0000,1219.0000 C 4257.0000,1219.0000 4254.0000,1215.0000 4254.0000,1211.0000 C 4254.0000,1207.0000 4257.0000,1203.0000 4262.0000,1203.0000 Z M 4454.0000,1203.0000 L 4566.0000,1203.0000 C 4570.0000,1203.0000 4574.0000,1207.0000 4574.0000,1211.0000 C 4574.0000,1215.0000 4570.0000,1219.0000 4566.0000,1219.0000 L 4454.0000,1219.0000 C 4449.0000,1219.0000 4446.0000,1215.0000 4446.0000,1211.0000 C 4446.0000,1207.0000 4449.0000,1203.0000 4454.0000,1203.0000 Z M 4646.0000,1203.0000 L 4758.0000,1203.0000 C 4762.0000,1203.0000 4766.0000,1207.0000 4766.0000,1211.0000 C 4766.0000,1215.0000 4762.0000,1219.0000 4758.0000,1219.0000 L 4646.0000,1219.0000 C 4641.0000,1219.0000 4638.0000,1215.0000 4638.0000,1211.0000 C 4638.0000,1207.0000 4641.0000,1203.0000 4646.0000,1203.0000 Z M 4838.0000,1203.0000 L 4950.0000,1203.0000 C 4954.0000,1203.0000 4958.0000,1207.0000 4958.0000,1211.0000 C 4958.0000,1215.0000 4954.0000,1219.0000 4950.0000,1219.0000 L 4838.0000,1219.0000 C 4833.0000,1219.0000 4830.0000,1215.0000 4830.0000,1211.0000 C 4830.0000,1207.0000 4833.0000,1203.0000 4838.0000,1203.0000 Z M 5030.0000,1203.0000 L 5142.0000,1203.0000 C 5146.0000,1203.0000 5150.0000,1207.0000 5150.0000,1211.0000 C 5150.0000,1215.0000 5146.0000,1219.0000 5142.0000,1219.0000 L 5030.0000,1219.0000 C 5025.0000,1219.0000 5022.0000,1215.0000 5022.0000,1211.0000 C 5022.0000,1207.0000 5025.0000,1203.0000 5030.0000,1203.0000 Z M 5222.0000,1203.0000 L 5334.0000,1203.0000 C 5338.0000,1203.0000 5342.0000,1207.0000 5342.0000,1211.0000 C 5342.0000,1215.0000 5338.0000,1219.0000 5334.0000,1219.0000 L 5222.0000,1219.0000 C 5217.0000,1219.0000 5214.0000,1215.0000 5214.0000,1211.0000 C 5214.0000,1207.0000 5217.0000,1203.0000 5222.0000,1203.0000 Z M 5414.0000,1203.0000 L 5526.0000,1203.0000 C 5530.0000,1203.0000 5534.0000,1207.0000 5534.0000,1211.0000 C 5534.0000,1215.0000 5530.0000,1219.0000 5526.0000,1219.0000 L 5414.0000,1219.0000 C 5409.0000,1219.0000 5406.0000,1215.0000 5406.0000,1211.0000 C 5406.0000,1207.0000 5409.0000,1203.0000 5414.0000,1203.0000 Z M 5606.0000,1203.0000 L 5718.0000,1203.0000 C 5722.0000,1203.0000 5726.0000,1207.0000 5726.0000,1211.0000 C 5726.0000,1215.0000 5722.0000,1219.0000 5718.0000,1219.0000 L 5606.0000,1219.0000 C 5601.0000,1219.0000 5598.0000,1215.0000 5598.0000,1211.0000 C 5598.0000,1207.0000 5601.0000,1203.0000 5606.0000,1203.0000 Z M 5798.0000,1203.0000 L 5910.0000,1203.0000 C 5914.0000,1203.0000 5918.0000,1207.0000 5918.0000,1211.0000 C 5918.0000,1215.0000 5914.0000,1219.0000 5910.0000,1219.0000 L 5798.0000,1219.0000 C 5793.0000,1219.0000 5790.0000,1215.0000 5790.0000,1211.0000 C 5790.0000,1207.0000 5793.0000,1203.0000 5798.0000,1203.0000 Z M 5990.0000,1203.0000 L 6102.0000,1203.0000 C 6106.0000,1203.0000 6110.0000,1207.0000 6110.0000,1211.0000 C 6110.0000,1215.0000 6106.0000,1219.0000 6102.0000,1219.0000 L 5990.0000,1219.0000 C 5985.0000,1219.0000 5982.0000,1215.0000 5982.0000,1211.0000 C 5982.0000,1207.0000 5985.0000,1203.0000 5990.0000,1203.0000 Z M 6182.0000,1203.0000 L 6294.0000,1203.0000 C 6298.0000,1203.0000 6302.0000,1207.0000 6302.0000,1211.0000 C 6302.0000,1215.0000 6298.0000,1219.0000 6294.0000,1219.0000 L 6182.0000,1219.0000 C 6177.0000,1219.0000 6174.0000,1215.0000 6174.0000,1211.0000 C 6174.0000,1207.0000 6177.0000,1203.0000 6182.0000,1203.0000 Z M 6374.0000,1203.0000 L 6486.0000,1203.0000 C 6490.0000,1203.0000 6494.0000,1207.0000 6494.0000,1211.0000 C 6494.0000,1215.0000 6490.0000,1219.0000 6486.0000,1219.0000 L 6374.0000,1219.0000 C 6369.0000,1219.0000 6366.0000,1215.0000 6366.0000,1211.0000 C 6366.0000,1207.0000 6369.0000,1203.0000 6374.0000,1203.0000 Z M 6566.0000,1203.0000 L 6678.0000,1203.0000 C 6682.0000,1203.0000 6686.0000,1207.0000 6686.0000,1211.0000 C 6686.0000,1215.0000 6682.0000,1219.0000 6678.0000,1219.0000 L 6566.0000,1219.0000 C 6561.0000,1219.0000 6558.0000,1215.0000 6558.0000,1211.0000 C 6558.0000,1207.0000 6561.0000,1203.0000 6566.0000,1203.0000 Z M 6758.0000,1203.0000 L 6870.0000,1203.0000 C 6874.0000,1203.0000 6878.0000,1207.0000 6878.0000,1211.0000 C 6878.0000,1215.0000 6874.0000,1219.0000 6870.0000,1219.0000 L 6758.0000,1219.0000 C 6753.0000,1219.0000 6750.0000,1215.0000 6750.0000,1211.0000 C 6750.0000,1207.0000 6753.0000,1203.0000 6758.0000,1203.0000 Z M 6950.0000,1203.0000 L 7062.0000,1203.0000 C 7066.0000,1203.0000 7070.0000,1207.0000 7070.0000,1211.0000 C 7070.0000,1215.0000 7066.0000,1219.0000 7062.0000,1219.0000 L 6950.0000,1219.0000 C 6945.0000,1219.0000 6942.0000,1215.0000 6942.0000,1211.0000 C 6942.0000,1207.0000 6945.0000,1203.0000 6950.0000,1203.0000 Z M 7142.0000,1203.0000 L 7254.0000,1203.0000 C 7258.0000,1203.0000 7262.0000,1207.0000 7262.0000,1211.0000 C 7262.0000,1215.0000 7258.0000,1219.0000 7254.0000,1219.0000 L 7142.0000,1219.0000 C 7137.0000,1219.0000 7134.0000,1215.0000 7134.0000,1211.0000 C 7134.0000,1207.0000 7137.0000,1203.0000 7142.0000,1203.0000 Z M 7334.0000,1203.0000 L 7446.0000,1203.0000 C 7450.0000,1203.0000 7454.0000,1207.0000 7454.0000,1211.0000 C 7454.0000,1215.0000 7450.0000,1219.0000 7446.0000,1219.0000 L 7334.0000,1219.0000 C 7329.0000,1219.0000 7326.0000,1215.0000 7326.0000,1211.0000 C 7326.0000,1207.0000 7329.0000,1203.0000 7334.0000,1203.0000 Z M 7526.0000,1203.0000 L 7638.0000,1203.0000 C 7642.0000,1203.0000 7646.0000,1207.0000 7646.0000,1211.0000 C 7646.0000,1215.0000 7642.0000,1219.0000 7638.0000,1219.0000 L 7526.0000,1219.0000 C 7521.0000,1219.0000 7518.0000,1215.0000 7518.0000,1211.0000 C 7518.0000,1207.0000 7521.0000,1203.0000 7526.0000,1203.0000 Z M 7718.0000,1203.0000 L 7830.0000,1203.0000 C 7834.0000,1203.0000 7838.0000,1207.0000 7838.0000,1211.0000 C 7838.0000,1215.0000 7834.0000,1219.0000 7830.0000,1219.0000 L 7718.0000,1219.0000 C 7713.0000,1219.0000 7710.0000,1215.0000 7710.0000,1211.0000 C 7710.0000,1207.0000 7713.0000,1203.0000 7718.0000,1203.0000 Z M 7910.0000,1203.0000 L 8022.0000,1203.0000 C 8026.0000,1203.0000 8030.0000,1207.0000 8030.0000,1211.0000 C 8030.0000,1215.0000 8026.0000,1219.0000 8022.0000,1219.0000 L 7910.0000,1219.0000 C 7905.0000,1219.0000 7902.0000,1215.0000 7902.0000,1211.0000 C 7902.0000,1207.0000 7905.0000,1203.0000 7910.0000,1203.0000 Z M 8102.0000,1203.0000 L 8214.0000,1203.0000 C 8218.0000,1203.0000 8222.0000,1207.0000 8222.0000,1211.0000 C 8222.0000,1215.0000 8218.0000,1219.0000 8214.0000,1219.0000 L 8102.0000,1219.0000 C 8097.0000,1219.0000 8094.0000,1215.0000 8094.0000,1211.0000 C 8094.0000,1207.0000 8097.0000,1203.0000 8102.0000,1203.0000 Z M 8294.0000,1203.0000 L 8406.0000,1203.0000 C 8410.0000,1203.0000 8414.0000,1207.0000 8414.0000,1211.0000 C 8414.0000,1215.0000 8410.0000,1219.0000 8406.0000,1219.0000 L 8294.0000,1219.0000 C 8289.0000,1219.0000 8286.0000,1215.0000 8286.0000,1211.0000 C 8286.0000,1207.0000 8289.0000,1203.0000 8294.0000,1203.0000 Z M 8486.0000,1203.0000 L 8488.0000,1203.0000 C 8492.0000,1203.0000 8496.0000,1207.0000 8496.0000,1211.0000 C 8496.0000,1215.0000 8492.0000,1219.0000 8488.0000,1219.0000 L 8486.0000,1219.0000 C 8481.0000,1219.0000 8478.0000,1215.0000 8478.0000,1211.0000 C 8478.0000,1207.0000 8481.0000,1203.0000 8486.0000,1203.0000 Z "  fill="#000000" stroke="#000000" stroke-width="16.0000"  stroke-linecap="butt"  stroke-linejoin="bevel" />
</g>
<g transform="matrix(1.0000 0.0000 0.0000 1.0000 0.0000 0.0000)">
</g>
<g transform="matrix(0.0625 0.0000 0.0000 0.0625 0.0000 0.0000)">
<path d="M 1015.0000,1280.0000 L 808.0000,1211.0000 L 1015.0000,1142.0000 L 1015.0000,1280.0000 Z" stroke-width="1px" stroke="#000000"  fill="#000000" />
</g>
<g transform="matrix(1.0000 0.0000 0.0000 1.0000 0.0000 0.0000)">
</g>
<g transform="matrix(0.0625 0.0000 0.0000 0.0625 0.0000 0.0000)">
<path d="M 2306.0000,1083.0000 L 2306.0000,1339.0000 L 6990.0000,1339.0000 L 6990.0000,1083.0000 L 2306.0000,1083.0000 Z" stroke-width="1px" stroke="#FFFFFF"  fill="#FFFFFF" />
</g>
<g transform="matrix(1.0000 0.0000 0.0000 1.0000 0.0000 0.0000)">
<text font-family="Arial" fill="#000000" style ="white-space:pre;" font-weight="400" text-anchor="start" x="144.0000" y="80.0000" font-size="13.0000" ><![CDATA[1]]></text>
<text font-family="Arial" fill="#000000" style ="white-space:pre;" font-weight="400" text-anchor="start" x="152.0000" y="80.0000" font-size="13.0000" ><![CDATA[. ]]></text>
<text font-family="Arial" fill="#000000" style ="white-space:pre;" font-weight="400" text-anchor="start" x="159.0000" y="80.0000" font-size="13.0000" ><![CDATA[NRPPa Message]]></text>
<text font-family="Arial" fill="#000000" style ="white-space:pre;" font-weight="400" text-anchor="start" x="261.0000" y="80.0000" font-size="13.0000" ><![CDATA[: ]]></text>
<text font-family="Arial" fill="#000000" style ="white-space:pre;" font-weight="400" text-anchor="start" x="269.0000" y="80.0000" font-size="13.0000" ><![CDATA[Location information request]]></text>
</g>
<g transform="matrix(0.0625 0.0000 0.0000 0.0625 0.0000 0.0000)">
<path d="M 808.0000,1787.0000 L 8298.0000,1787.0000 " stroke="#000000" stroke-width="15.0000"  stroke-linecap="round"  stroke-linejoin="round" fill="none" />
</g>
<g transform="matrix(1.0000 0.0000 0.0000 1.0000 0.0000 0.0000)">
</g>
<g transform="matrix(0.0625 0.0000 0.0000 0.0625 0.0000 0.0000)">
<path d="M 8280.0000,1718.0000 L 8488.0000,1787.0000 L 8280.0000,1856.0000 L 8280.0000,1718.0000 Z" stroke-width="1px" stroke="#000000"  fill="#000000" />
</g>
<g transform="matrix(1.0000 0.0000 0.0000 1.0000 0.0000 0.0000)">
</g>
<g transform="matrix(0.0625 0.0000 0.0000 0.0625 0.0000 0.0000)">
<path d="M 2691.0000,1659.0000 L 2691.0000,1915.0000 L 6604.0000,1915.0000 L 6604.0000,1659.0000 L 2691.0000,1659.0000 Z" stroke-width="1px" stroke="#FFFFFF"  fill="#FFFFFF" />
</g>
<g transform="matrix(1.0000 0.0000 0.0000 1.0000 0.0000 0.0000)">
<text font-family="Arial" fill="#000000" style ="white-space:pre;" font-weight="400" text-anchor="start" x="168.0000" y="116.0000" font-size="13.0000" ><![CDATA[2]]></text>
<text font-family="Arial" fill="#000000" style ="white-space:pre;" font-weight="400" text-anchor="start" x="176.0000" y="116.0000" font-size="13.0000" ><![CDATA[. ]]></text>
<text font-family="Arial" fill="#000000" style ="white-space:pre;" font-weight="400" text-anchor="start" x="183.0000" y="116.0000" font-size="13.0000" ><![CDATA[NRPPa Message]]></text>
<text font-family="Arial" fill="#000000" style ="white-space:pre;" font-weight="400" text-anchor="start" x="285.0000" y="116.0000" font-size="13.0000" ><![CDATA[: ]]></text>
<text font-family="Arial" fill="#000000" style ="white-space:pre;" font-weight="400" text-anchor="start" x="293.0000" y="116.0000" font-size="13.0000" ><![CDATA[Location information]]></text>
</g>
<g transform="matrix(0.0625 0.0000 0.0000 0.0625 0.0000 0.0000)">
<path d="M 808.0000,2336.0000 L 920.0000,2336.0000 C 924.0000,2336.0000 928.0000,2339.0000 928.0000,2344.0000 C 928.0000,2348.0000 924.0000,2352.0000 920.0000,2352.0000 L 808.0000,2352.0000 C 803.0000,2352.0000 800.0000,2348.0000 800.0000,2344.0000 C 800.0000,2339.0000 803.0000,2336.0000 808.0000,2336.0000 Z M 1000.0000,2336.0000 L 1112.0000,2336.0000 C 1116.0000,2336.0000 1120.0000,2339.0000 1120.0000,2344.0000 C 1120.0000,2348.0000 1116.0000,2352.0000 1112.0000,2352.0000 L 1000.0000,2352.0000 C 995.0000,2352.0000 992.0000,2348.0000 992.0000,2344.0000 C 992.0000,2339.0000 995.0000,2336.0000 1000.0000,2336.0000 Z M 1192.0000,2336.0000 L 1304.0000,2336.0000 C 1308.0000,2336.0000 1312.0000,2339.0000 1312.0000,2344.0000 C 1312.0000,2348.0000 1308.0000,2352.0000 1304.0000,2352.0000 L 1192.0000,2352.0000 C 1187.0000,2352.0000 1184.0000,2348.0000 1184.0000,2344.0000 C 1184.0000,2339.0000 1187.0000,2336.0000 1192.0000,2336.0000 Z M 1384.0000,2336.0000 L 1496.0000,2336.0000 C 1500.0000,2336.0000 1504.0000,2339.0000 1504.0000,2344.0000 C 1504.0000,2348.0000 1500.0000,2352.0000 1496.0000,2352.0000 L 1384.0000,2352.0000 C 1379.0000,2352.0000 1376.0000,2348.0000 1376.0000,2344.0000 C 1376.0000,2339.0000 1379.0000,2336.0000 1384.0000,2336.0000 Z M 1576.0000,2336.0000 L 1688.0000,2336.0000 C 1692.0000,2336.0000 1696.0000,2339.0000 1696.0000,2344.0000 C 1696.0000,2348.0000 1692.0000,2352.0000 1688.0000,2352.0000 L 1576.0000,2352.0000 C 1571.0000,2352.0000 1568.0000,2348.0000 1568.0000,2344.0000 C 1568.0000,2339.0000 1571.0000,2336.0000 1576.0000,2336.0000 Z M 1768.0000,2336.0000 L 1880.0000,2336.0000 C 1884.0000,2336.0000 1888.0000,2339.0000 1888.0000,2344.0000 C 1888.0000,2348.0000 1884.0000,2352.0000 1880.0000,2352.0000 L 1768.0000,2352.0000 C 1763.0000,2352.0000 1760.0000,2348.0000 1760.0000,2344.0000 C 1760.0000,2339.0000 1763.0000,2336.0000 1768.0000,2336.0000 Z M 1960.0000,2336.0000 L 2072.0000,2336.0000 C 2076.0000,2336.0000 2080.0000,2339.0000 2080.0000,2344.0000 C 2080.0000,2348.0000 2076.0000,2352.0000 2072.0000,2352.0000 L 1960.0000,2352.0000 C 1955.0000,2352.0000 1952.0000,2348.0000 1952.0000,2344.0000 C 1952.0000,2339.0000 1955.0000,2336.0000 1960.0000,2336.0000 Z M 2152.0000,2336.0000 L 2264.0000,2336.0000 C 2268.0000,2336.0000 2272.0000,2339.0000 2272.0000,2344.0000 C 2272.0000,2348.0000 2268.0000,2352.0000 2264.0000,2352.0000 L 2152.0000,2352.0000 C 2147.0000,2352.0000 2144.0000,2348.0000 2144.0000,2344.0000 C 2144.0000,2339.0000 2147.0000,2336.0000 2152.0000,2336.0000 Z M 2344.0000,2336.0000 L 2456.0000,2336.0000 C 2460.0000,2336.0000 2464.0000,2339.0000 2464.0000,2344.0000 C 2464.0000,2348.0000 2460.0000,2352.0000 2456.0000,2352.0000 L 2344.0000,2352.0000 C 2339.0000,2352.0000 2336.0000,2348.0000 2336.0000,2344.0000 C 2336.0000,2339.0000 2339.0000,2336.0000 2344.0000,2336.0000 Z M 2536.0000,2336.0000 L 2648.0000,2336.0000 C 2652.0000,2336.0000 2656.0000,2339.0000 2656.0000,2344.0000 C 2656.0000,2348.0000 2652.0000,2352.0000 2648.0000,2352.0000 L 2536.0000,2352.0000 C 2531.0000,2352.0000 2528.0000,2348.0000 2528.0000,2344.0000 C 2528.0000,2339.0000 2531.0000,2336.0000 2536.0000,2336.0000 Z M 2728.0000,2336.0000 L 2840.0000,2336.0000 C 2844.0000,2336.0000 2848.0000,2339.0000 2848.0000,2344.0000 C 2848.0000,2348.0000 2844.0000,2352.0000 2840.0000,2352.0000 L 2728.0000,2352.0000 C 2723.0000,2352.0000 2720.0000,2348.0000 2720.0000,2344.0000 C 2720.0000,2339.0000 2723.0000,2336.0000 2728.0000,2336.0000 Z M 2920.0000,2336.0000 L 3032.0000,2336.0000 C 3036.0000,2336.0000 3040.0000,2339.0000 3040.0000,2344.0000 C 3040.0000,2348.0000 3036.0000,2352.0000 3032.0000,2352.0000 L 2920.0000,2352.0000 C 2915.0000,2352.0000 2912.0000,2348.0000 2912.0000,2344.0000 C 2912.0000,2339.0000 2915.0000,2336.0000 2920.0000,2336.0000 Z M 3112.0000,2336.0000 L 3224.0000,2336.0000 C 3228.0000,2336.0000 3232.0000,2339.0000 3232.0000,2344.0000 C 3232.0000,2348.0000 3228.0000,2352.0000 3224.0000,2352.0000 L 3112.0000,2352.0000 C 3107.0000,2352.0000 3104.0000,2348.0000 3104.0000,2344.0000 C 3104.0000,2339.0000 3107.0000,2336.0000 3112.0000,2336.0000 Z M 3304.0000,2336.0000 L 3416.0000,2336.0000 C 3420.0000,2336.0000 3424.0000,2339.0000 3424.0000,2344.0000 C 3424.0000,2348.0000 3420.0000,2352.0000 3416.0000,2352.0000 L 3304.0000,2352.0000 C 3299.0000,2352.0000 3296.0000,2348.0000 3296.0000,2344.0000 C 3296.0000,2339.0000 3299.0000,2336.0000 3304.0000,2336.0000 Z M 3496.0000,2336.0000 L 3608.0000,2336.0000 C 3612.0000,2336.0000 3616.0000,2339.0000 3616.0000,2344.0000 C 3616.0000,2348.0000 3612.0000,2352.0000 3608.0000,2352.0000 L 3496.0000,2352.0000 C 3491.0000,2352.0000 3488.0000,2348.0000 3488.0000,2344.0000 C 3488.0000,2339.0000 3491.0000,2336.0000 3496.0000,2336.0000 Z M 3688.0000,2336.0000 L 3800.0000,2336.0000 C 3804.0000,2336.0000 3808.0000,2339.0000 3808.0000,2344.0000 C 3808.0000,2348.0000 3804.0000,2352.0000 3800.0000,2352.0000 L 3688.0000,2352.0000 C 3683.0000,2352.0000 3680.0000,2348.0000 3680.0000,2344.0000 C 3680.0000,2339.0000 3683.0000,2336.0000 3688.0000,2336.0000 Z M 3880.0000,2336.0000 L 3992.0000,2336.0000 C 3996.0000,2336.0000 4000.0000,2339.0000 4000.0000,2344.0000 C 4000.0000,2348.0000 3996.0000,2352.0000 3992.0000,2352.0000 L 3880.0000,2352.0000 C 3875.0000,2352.0000 3872.0000,2348.0000 3872.0000,2344.0000 C 3872.0000,2339.0000 3875.0000,2336.0000 3880.0000,2336.0000 Z M 4072.0000,2336.0000 L 4184.0000,2336.0000 C 4188.0000,2336.0000 4192.0000,2339.0000 4192.0000,2344.0000 C 4192.0000,2348.0000 4188.0000,2352.0000 4184.0000,2352.0000 L 4072.0000,2352.0000 C 4067.0000,2352.0000 4064.0000,2348.0000 4064.0000,2344.0000 C 4064.0000,2339.0000 4067.0000,2336.0000 4072.0000,2336.0000 Z M 4264.0000,2336.0000 L 4376.0000,2336.0000 C 4380.0000,2336.0000 4384.0000,2339.0000 4384.0000,2344.0000 C 4384.0000,2348.0000 4380.0000,2352.0000 4376.0000,2352.0000 L 4264.0000,2352.0000 C 4259.0000,2352.0000 4256.0000,2348.0000 4256.0000,2344.0000 C 4256.0000,2339.0000 4259.0000,2336.0000 4264.0000,2336.0000 Z M 4456.0000,2336.0000 L 4568.0000,2336.0000 C 4572.0000,2336.0000 4576.0000,2339.0000 4576.0000,2344.0000 C 4576.0000,2348.0000 4572.0000,2352.0000 4568.0000,2352.0000 L 4456.0000,2352.0000 C 4451.0000,2352.0000 4448.0000,2348.0000 4448.0000,2344.0000 C 4448.0000,2339.0000 4451.0000,2336.0000 4456.0000,2336.0000 Z M 4648.0000,2336.0000 L 4760.0000,2336.0000 C 4764.0000,2336.0000 4768.0000,2339.0000 4768.0000,2344.0000 C 4768.0000,2348.0000 4764.0000,2352.0000 4760.0000,2352.0000 L 4648.0000,2352.0000 C 4643.0000,2352.0000 4640.0000,2348.0000 4640.0000,2344.0000 C 4640.0000,2339.0000 4643.0000,2336.0000 4648.0000,2336.0000 Z M 4840.0000,2336.0000 L 4952.0000,2336.0000 C 4956.0000,2336.0000 4960.0000,2339.0000 4960.0000,2344.0000 C 4960.0000,2348.0000 4956.0000,2352.0000 4952.0000,2352.0000 L 4840.0000,2352.0000 C 4835.0000,2352.0000 4832.0000,2348.0000 4832.0000,2344.0000 C 4832.0000,2339.0000 4835.0000,2336.0000 4840.0000,2336.0000 Z M 5032.0000,2336.0000 L 5144.0000,2336.0000 C 5148.0000,2336.0000 5152.0000,2339.0000 5152.0000,2344.0000 C 5152.0000,2348.0000 5148.0000,2352.0000 5144.0000,2352.0000 L 5032.0000,2352.0000 C 5027.0000,2352.0000 5024.0000,2348.0000 5024.0000,2344.0000 C 5024.0000,2339.0000 5027.0000,2336.0000 5032.0000,2336.0000 Z M 5224.0000,2336.0000 L 5336.0000,2336.0000 C 5340.0000,2336.0000 5344.0000,2339.0000 5344.0000,2344.0000 C 5344.0000,2348.0000 5340.0000,2352.0000 5336.0000,2352.0000 L 5224.0000,2352.0000 C 5219.0000,2352.0000 5216.0000,2348.0000 5216.0000,2344.0000 C 5216.0000,2339.0000 5219.0000,2336.0000 5224.0000,2336.0000 Z M 5416.0000,2336.0000 L 5528.0000,2336.0000 C 5532.0000,2336.0000 5536.0000,2339.0000 5536.0000,2344.0000 C 5536.0000,2348.0000 5532.0000,2352.0000 5528.0000,2352.0000 L 5416.0000,2352.0000 C 5411.0000,2352.0000 5408.0000,2348.0000 5408.0000,2344.0000 C 5408.0000,2339.0000 5411.0000,2336.0000 5416.0000,2336.0000 Z M 5608.0000,2336.0000 L 5720.0000,2336.0000 C 5724.0000,2336.0000 5728.0000,2339.0000 5728.0000,2344.0000 C 5728.0000,2348.0000 5724.0000,2352.0000 5720.0000,2352.0000 L 5608.0000,2352.0000 C 5603.0000,2352.0000 5600.0000,2348.0000 5600.0000,2344.0000 C 5600.0000,2339.0000 5603.0000,2336.0000 5608.0000,2336.0000 Z M 5800.0000,2336.0000 L 5912.0000,2336.0000 C 5916.0000,2336.0000 5920.0000,2339.0000 5920.0000,2344.0000 C 5920.0000,2348.0000 5916.0000,2352.0000 5912.0000,2352.0000 L 5800.0000,2352.0000 C 5795.0000,2352.0000 5792.0000,2348.0000 5792.0000,2344.0000 C 5792.0000,2339.0000 5795.0000,2336.0000 5800.0000,2336.0000 Z M 5992.0000,2336.0000 L 6104.0000,2336.0000 C 6108.0000,2336.0000 6112.0000,2339.0000 6112.0000,2344.0000 C 6112.0000,2348.0000 6108.0000,2352.0000 6104.0000,2352.0000 L 5992.0000,2352.0000 C 5987.0000,2352.0000 5984.0000,2348.0000 5984.0000,2344.0000 C 5984.0000,2339.0000 5987.0000,2336.0000 5992.0000,2336.0000 Z M 6184.0000,2336.0000 L 6296.0000,2336.0000 C 6300.0000,2336.0000 6304.0000,2339.0000 6304.0000,2344.0000 C 6304.0000,2348.0000 6300.0000,2352.0000 6296.0000,2352.0000 L 6184.0000,2352.0000 C 6179.0000,2352.0000 6176.0000,2348.0000 6176.0000,2344.0000 C 6176.0000,2339.0000 6179.0000,2336.0000 6184.0000,2336.0000 Z M 6376.0000,2336.0000 L 6488.0000,2336.0000 C 6492.0000,2336.0000 6496.0000,2339.0000 6496.0000,2344.0000 C 6496.0000,2348.0000 6492.0000,2352.0000 6488.0000,2352.0000 L 6376.0000,2352.0000 C 6371.0000,2352.0000 6368.0000,2348.0000 6368.0000,2344.0000 C 6368.0000,2339.0000 6371.0000,2336.0000 6376.0000,2336.0000 Z M 6568.0000,2336.0000 L 6680.0000,2336.0000 C 6684.0000,2336.0000 6688.0000,2339.0000 6688.0000,2344.0000 C 6688.0000,2348.0000 6684.0000,2352.0000 6680.0000,2352.0000 L 6568.0000,2352.0000 C 6563.0000,2352.0000 6560.0000,2348.0000 6560.0000,2344.0000 C 6560.0000,2339.0000 6563.0000,2336.0000 6568.0000,2336.0000 Z M 6760.0000,2336.0000 L 6872.0000,2336.0000 C 6876.0000,2336.0000 6880.0000,2339.0000 6880.0000,2344.0000 C 6880.0000,2348.0000 6876.0000,2352.0000 6872.0000,2352.0000 L 6760.0000,2352.0000 C 6755.0000,2352.0000 6752.0000,2348.0000 6752.0000,2344.0000 C 6752.0000,2339.0000 6755.0000,2336.0000 6760.0000,2336.0000 Z M 6952.0000,2336.0000 L 7064.0000,2336.0000 C 7068.0000,2336.0000 7072.0000,2339.0000 7072.0000,2344.0000 C 7072.0000,2348.0000 7068.0000,2352.0000 7064.0000,2352.0000 L 6952.0000,2352.0000 C 6947.0000,2352.0000 6944.0000,2348.0000 6944.0000,2344.0000 C 6944.0000,2339.0000 6947.0000,2336.0000 6952.0000,2336.0000 Z M 7144.0000,2336.0000 L 7256.0000,2336.0000 C 7260.0000,2336.0000 7264.0000,2339.0000 7264.0000,2344.0000 C 7264.0000,2348.0000 7260.0000,2352.0000 7256.0000,2352.0000 L 7144.0000,2352.0000 C 7139.0000,2352.0000 7136.0000,2348.0000 7136.0000,2344.0000 C 7136.0000,2339.0000 7139.0000,2336.0000 7144.0000,2336.0000 Z M 7336.0000,2336.0000 L 7448.0000,2336.0000 C 7452.0000,2336.0000 7456.0000,2339.0000 7456.0000,2344.0000 C 7456.0000,2348.0000 7452.0000,2352.0000 7448.0000,2352.0000 L 7336.0000,2352.0000 C 7331.0000,2352.0000 7328.0000,2348.0000 7328.0000,2344.0000 C 7328.0000,2339.0000 7331.0000,2336.0000 7336.0000,2336.0000 Z M 7528.0000,2336.0000 L 7640.0000,2336.0000 C 7644.0000,2336.0000 7648.0000,2339.0000 7648.0000,2344.0000 C 7648.0000,2348.0000 7644.0000,2352.0000 7640.0000,2352.0000 L 7528.0000,2352.0000 C 7523.0000,2352.0000 7520.0000,2348.0000 7520.0000,2344.0000 C 7520.0000,2339.0000 7523.0000,2336.0000 7528.0000,2336.0000 Z M 7720.0000,2336.0000 L 7832.0000,2336.0000 C 7836.0000,2336.0000 7840.0000,2339.0000 7840.0000,2344.0000 C 7840.0000,2348.0000 7836.0000,2352.0000 7832.0000,2352.0000 L 7720.0000,2352.0000 C 7715.0000,2352.0000 7712.0000,2348.0000 7712.0000,2344.0000 C 7712.0000,2339.0000 7715.0000,2336.0000 7720.0000,2336.0000 Z M 7912.0000,2336.0000 L 8024.0000,2336.0000 C 8028.0000,2336.0000 8032.0000,2339.0000 8032.0000,2344.0000 C 8032.0000,2348.0000 8028.0000,2352.0000 8024.0000,2352.0000 L 7912.0000,2352.0000 C 7907.0000,2352.0000 7904.0000,2348.0000 7904.0000,2344.0000 C 7904.0000,2339.0000 7907.0000,2336.0000 7912.0000,2336.0000 Z M 8104.0000,2336.0000 L 8216.0000,2336.0000 C 8220.0000,2336.0000 8224.0000,2339.0000 8224.0000,2344.0000 C 8224.0000,2348.0000 8220.0000,2352.0000 8216.0000,2352.0000 L 8104.0000,2352.0000 C 8099.0000,2352.0000 8096.0000,2348.0000 8096.0000,2344.0000 C 8096.0000,2339.0000 8099.0000,2336.0000 8104.0000,2336.0000 Z M 8296.0000,2336.0000 L 8298.0000,2336.0000 C 8302.0000,2336.0000 8306.0000,2339.0000 8306.0000,2344.0000 C 8306.0000,2348.0000 8302.0000,2352.0000 8298.0000,2352.0000 L 8296.0000,2352.0000 C 8291.0000,2352.0000 8288.0000,2348.0000 8288.0000,2344.0000 C 8288.0000,2339.0000 8291.0000,2336.0000 8296.0000,2336.0000 Z "  fill="#000000" stroke="#000000" stroke-width="16.0000"  stroke-linecap="butt"  stroke-linejoin="bevel" />
</g>
<g transform="matrix(1.0000 0.0000 0.0000 1.0000 0.0000 0.0000)">
</g>
<g transform="matrix(0.0625 0.0000 0.0000 0.0625 0.0000 0.0000)">
<path d="M 8280.0000,2275.0000 L 8488.0000,2344.0000 L 8280.0000,2413.0000 L 8280.0000,2275.0000 Z" stroke-width="1px" stroke="#000000"  fill="#000000" />
</g>
<g transform="matrix(1.0000 0.0000 0.0000 1.0000 0.0000 0.0000)">
</g>
<g transform="matrix(0.0625 0.0000 0.0000 0.0625 0.0000 0.0000)">
<path d="M 2691.0000,2216.0000 L 2691.0000,2472.0000 L 6604.0000,2472.0000 L 6604.0000,2216.0000 L 2691.0000,2216.0000 Z" stroke-width="1px" stroke="#FFFFFF"  fill="#FFFFFF" />
</g>
<g transform="matrix(1.0000 0.0000 0.0000 1.0000 0.0000 0.0000)">
<text font-family="Arial" fill="#000000" style ="white-space:pre;" font-weight="400" text-anchor="start" x="168.0000" y="150.0000" font-size="13.0000" ><![CDATA[3]]></text>
<text font-family="Arial" fill="#000000" style ="white-space:pre;" font-weight="400" text-anchor="start" x="176.0000" y="150.0000" font-size="13.0000" ><![CDATA[. ]]></text>
<text font-family="Arial" fill="#000000" style ="white-space:pre;" font-weight="400" text-anchor="start" x="183.0000" y="150.0000" font-size="13.0000" ><![CDATA[NRPPa Message]]></text>
<text font-family="Arial" fill="#000000" style ="white-space:pre;" font-weight="400" text-anchor="start" x="285.0000" y="150.0000" font-size="13.0000" ><![CDATA[: ]]></text>
<text font-family="Arial" fill="#000000" style ="white-space:pre;" font-weight="400" text-anchor="start" x="293.0000" y="150.0000" font-size="13.0000" ><![CDATA[Location information]]></text>
</g>
</g>
</svg>
