<?xml version="1.0"  encoding="UTF-8" standalone="no"?>
<svg version="1.1" xmlns="http://www.w3.org/2000/svg" xmlns:xlink="http://www.w3.org/1999/xlink" width="387.0000" height="213.0000">
<g transform="translate(-25.0000, -25.0000)">
<g transform="matrix(0.0625 0.0000 0.0000 0.0625 0.0000 0.0000)">
<path d="M 424.0000,1011.0000 L 1597.0000,1011.0000 L 1597.0000,424.0000 L 424.0000,424.0000 L 424.0000,1011.0000 " stroke="#404040" stroke-width="16.0000"  stroke-linecap="round"  stroke-linejoin="round" fill="none" />
</g>
<g transform="matrix(1.0000 0.0000 0.0000 1.0000 0.0000 0.0000)">
<text font-family="Calibri" fill="#000000" style ="white-space:pre;" font-weight="400" text-anchor="start" x="52.0000" y="49.0000" font-size="13.0000" ><![CDATA[gNB]]></text>
</g>
<g transform="matrix(0.0625 0.0000 0.0000 0.0625 0.0000 0.0000)">
<path d="M 5376.0000,1018.0000 L 6562.0000,1018.0000 L 6562.0000,424.0000 L 5376.0000,424.0000 L 5376.0000,1018.0000 " stroke="#404040" stroke-width="16.0000"  stroke-linecap="round"  stroke-linejoin="round" fill="none" />
</g>
<g transform="matrix(1.0000 0.0000 0.0000 1.0000 0.0000 0.0000)">
<text font-family="Calibri" fill="#000000" style ="white-space:pre;" font-weight="400" text-anchor="start" x="361.0000" y="49.0000" font-size="13.0000" ><![CDATA[LMF]]></text>
</g>
<g transform="matrix(0.0625 0.0000 0.0000 0.0625 0.0000 0.0000)">
<path d="M 1006.0000,1011.0000 L 1006.0000,3783.0000 " stroke="#404040" stroke-width="16.0000"  stroke-linecap="round"  stroke-linejoin="round" fill="none" />
</g>
<g transform="matrix(1.0000 0.0000 0.0000 1.0000 0.0000 0.0000)">
</g>
<g transform="matrix(0.0625 0.0000 0.0000 0.0625 0.0000 0.0000)">
<path d="M 5965.0000,1020.0000 L 5965.0000,3783.0000 " stroke="#404040" stroke-width="16.0000"  stroke-linecap="round"  stroke-linejoin="round" fill="none" />
</g>
<g transform="matrix(1.0000 0.0000 0.0000 1.0000 0.0000 0.0000)">
</g>
<g transform="matrix(0.0625 0.0000 0.0000 0.0625 0.0000 0.0000)">
<path d="M 5965.0000,1545.0000 L 1198.0000,1539.0000 " stroke="#000000" stroke-width="16.0000"  stroke-linecap="round"  stroke-linejoin="round" fill="none" />
</g>
<g transform="matrix(1.0000 0.0000 0.0000 1.0000 0.0000 0.0000)">
</g>
<g transform="matrix(0.0625 0.0000 0.0000 0.0625 0.0000 0.0000)">
<path d="M 1215.0000,1609.0000 L 1006.0000,1539.0000 L 1215.0000,1469.0000 L 1215.0000,1609.0000 Z" stroke-width="1px" stroke="#000000"  fill="#000000" />
</g>
<g transform="matrix(1.0000 0.0000 0.0000 1.0000 0.0000 0.0000)">
<text font-family="Calibri" fill="#000000" style ="white-space:pre;" font-weight="400" text-anchor="start" x="114.0000" y="92.0000" font-size="13.0000" ><![CDATA[1]]></text>
<text font-family="Calibri" fill="#000000" style ="white-space:pre;" font-weight="400" text-anchor="start" x="120.0000" y="92.0000" font-size="13.0000" ><![CDATA[. ]]></text>
<text font-family="Calibri" fill="#000000" style ="white-space:pre;" font-weight="400" text-anchor="start" x="127.0000" y="92.0000" font-size="13.0000" ><![CDATA[NRPPa Message ]]></text>
<text font-family="Calibri" fill="#000000" style ="white-space:pre;" font-weight="400" text-anchor="start" x="217.0000" y="92.0000" font-size="13.0000" ><![CDATA[(]]></text>
<text font-family="Calibri" fill="#000000" style ="white-space:pre;" font-weight="400" text-anchor="start" x="221.0000" y="92.0000" font-size="13.0000" ><![CDATA[Type]]></text>
<text font-family="Calibri" fill="#000000" style ="white-space:pre;" font-weight="400" text-anchor="start" x="247.0000" y="92.0000" font-size="13.0000" ><![CDATA[: ]]></text>
<text font-family="Calibri" fill="#000000" style ="white-space:pre;" font-weight="400" text-anchor="start" x="253.0000" y="92.0000" font-size="13.0000" ><![CDATA[Positioning]]></text>
<text font-family="Calibri" fill="#000000" style ="white-space:pre;" font-weight="400" text-anchor="start" x="314.0000" y="92.0000" font-size="13.0000" ><![CDATA[ ]]></text>
<text font-family="Calibri" fill="#000000" style ="white-space:pre;" font-weight="400" text-anchor="start" x="161.0000" y="108.0000" font-size="13.0000" ><![CDATA[Activation]]></text>
<text font-family="Calibri" fill="#000000" style ="white-space:pre;" font-weight="400" text-anchor="start" x="215.0000" y="108.0000" font-size="13.0000" ><![CDATA[ ]]></text>
<text font-family="Calibri" fill="#000000" style ="white-space:pre;" font-weight="400" text-anchor="start" x="218.0000" y="108.0000" font-size="13.0000" ><![CDATA[Request]]></text>
<text font-family="Calibri" fill="#000000" style ="white-space:pre;" font-weight="400" text-anchor="start" x="263.0000" y="108.0000" font-size="13.0000" ><![CDATA[)]]></text>
</g>
<g transform="matrix(0.0625 0.0000 0.0000 0.0625 0.0000 0.0000)">
<path d="M 1006.0000,2310.0000 L 5773.0000,2304.0000 " stroke="#404040" stroke-width="16.0000"  stroke-linecap="round"  stroke-linejoin="round" fill="none" />
</g>
<g transform="matrix(1.0000 0.0000 0.0000 1.0000 0.0000 0.0000)">
</g>
<g transform="matrix(0.0625 0.0000 0.0000 0.0625 0.0000 0.0000)">
<path d="M 5755.0000,2234.0000 L 5965.0000,2304.0000 L 5755.0000,2374.0000 L 5755.0000,2234.0000 Z" stroke-width="1px" stroke="#404040"  fill="#404040" />
</g>
<g transform="matrix(1.0000 0.0000 0.0000 1.0000 0.0000 0.0000)">
<text font-family="Calibri" fill="#000000" style ="white-space:pre;" font-weight="400" text-anchor="start" x="115.0000" y="141.0000" font-size="13.0000" ><![CDATA[2]]></text>
<text font-family="Calibri" fill="#000000" style ="white-space:pre;" font-weight="400" text-anchor="start" x="121.0000" y="141.0000" font-size="13.0000" ><![CDATA[. ]]></text>
<text font-family="Calibri" fill="#000000" style ="white-space:pre;" font-weight="400" text-anchor="start" x="128.0000" y="141.0000" font-size="13.0000" ><![CDATA[NRPPa Message ]]></text>
<text font-family="Calibri" fill="#000000" style ="white-space:pre;" font-weight="400" text-anchor="start" x="218.0000" y="141.0000" font-size="13.0000" ><![CDATA[(]]></text>
<text font-family="Calibri" fill="#000000" style ="white-space:pre;" font-weight="400" text-anchor="start" x="222.0000" y="141.0000" font-size="13.0000" ><![CDATA[Type]]></text>
<text font-family="Calibri" fill="#000000" style ="white-space:pre;" font-weight="400" text-anchor="start" x="248.0000" y="141.0000" font-size="13.0000" ><![CDATA[: ]]></text>
<text font-family="Calibri" fill="#000000" style ="white-space:pre;" font-weight="400" text-anchor="start" x="254.0000" y="141.0000" font-size="13.0000" ><![CDATA[Positioning]]></text>
<text font-family="Calibri" fill="#000000" style ="white-space:pre;" font-weight="400" text-anchor="start" x="315.0000" y="141.0000" font-size="13.0000" ><![CDATA[ ]]></text>
<text font-family="Calibri" fill="#000000" style ="white-space:pre;" font-weight="400" text-anchor="start" x="137.0000" y="157.0000" font-size="13.0000" ><![CDATA[Activation]]></text>
<text font-family="Calibri" fill="#000000" style ="white-space:pre;" font-weight="400" text-anchor="start" x="191.0000" y="157.0000" font-size="13.0000" ><![CDATA[ ]]></text>
<text font-family="Calibri" fill="#000000" style ="white-space:pre;" font-weight="400" text-anchor="start" x="194.0000" y="157.0000" font-size="13.0000" ><![CDATA[Response]]></text>
<text font-family="Calibri" fill="#000000" style ="white-space:pre;" font-weight="400" text-anchor="start" x="246.0000" y="157.0000" font-size="13.0000" ><![CDATA[/]]></text>
<text font-family="Calibri" fill="#000000" style ="white-space:pre;" font-weight="400" text-anchor="start" x="252.0000" y="157.0000" font-size="13.0000" ><![CDATA[Failure]]></text>
<text font-family="Calibri" fill="#000000" style ="white-space:pre;" font-weight="400" text-anchor="start" x="289.0000" y="157.0000" font-size="13.0000" ><![CDATA[)]]></text>
</g>
<g transform="matrix(0.0625 0.0000 0.0000 0.0625 0.0000 0.0000)">
<path d="M 5951.0000,3319.0000 L 1184.0000,3313.0000 " stroke="#000000" stroke-width="16.0000"  stroke-linecap="round"  stroke-linejoin="round" fill="none" />
</g>
<g transform="matrix(1.0000 0.0000 0.0000 1.0000 0.0000 0.0000)">
</g>
<g transform="matrix(0.0625 0.0000 0.0000 0.0625 0.0000 0.0000)">
<path d="M 1201.0000,3383.0000 L 992.0000,3313.0000 L 1201.0000,3244.0000 L 1201.0000,3383.0000 Z" stroke-width="1px" stroke="#000000"  fill="#000000" />
</g>
<g transform="matrix(1.0000 0.0000 0.0000 1.0000 0.0000 0.0000)">
<text font-family="Calibri" fill="#000000" style ="white-space:pre;" font-weight="400" text-anchor="start" x="115.0000" y="203.0000" font-size="13.0000" ><![CDATA[3]]></text>
<text font-family="Calibri" fill="#000000" style ="white-space:pre;" font-weight="400" text-anchor="start" x="121.0000" y="203.0000" font-size="13.0000" ><![CDATA[. ]]></text>
<text font-family="Calibri" fill="#000000" style ="white-space:pre;" font-weight="400" text-anchor="start" x="128.0000" y="203.0000" font-size="13.0000" ><![CDATA[NRPPa Message ]]></text>
<text font-family="Calibri" fill="#000000" style ="white-space:pre;" font-weight="400" text-anchor="start" x="218.0000" y="203.0000" font-size="13.0000" ><![CDATA[(]]></text>
<text font-family="Calibri" fill="#000000" style ="white-space:pre;" font-weight="400" text-anchor="start" x="222.0000" y="203.0000" font-size="13.0000" ><![CDATA[Type]]></text>
<text font-family="Calibri" fill="#000000" style ="white-space:pre;" font-weight="400" text-anchor="start" x="248.0000" y="203.0000" font-size="13.0000" ><![CDATA[: ]]></text>
<text font-family="Calibri" fill="#000000" style ="white-space:pre;" font-weight="400" text-anchor="start" x="254.0000" y="203.0000" font-size="13.0000" ><![CDATA[Positioning]]></text>
<text font-family="Calibri" fill="#000000" style ="white-space:pre;" font-weight="400" text-anchor="start" x="314.0000" y="203.0000" font-size="13.0000" ><![CDATA[ ]]></text>
<text font-family="Calibri" fill="#000000" style ="white-space:pre;" font-weight="400" text-anchor="start" x="178.0000" y="219.0000" font-size="13.0000" ><![CDATA[Deactivation]]></text>
<text font-family="Calibri" fill="#000000" style ="white-space:pre;" font-weight="400" text-anchor="start" x="247.0000" y="219.0000" font-size="13.0000" ><![CDATA[)]]></text>
</g>
</g>
</svg>
