<?xml version="1.0"  encoding="UTF-8" standalone="no"?>
<svg version="1.1" xmlns="http://www.w3.org/2000/svg" xmlns:xlink="http://www.w3.org/1999/xlink" width="592.0000" height="280.0000">
<g transform="translate(-23.0000, -23.0000)">
<g transform="matrix(0.0625 0.0000 0.0000 0.0625 0.0000 0.0000)">
<path d="M 6832.0000,1094.0000 L 6832.0000,4815.0000 " stroke="#000000" stroke-width="21.0000"  stroke-linecap="round"  stroke-linejoin="round" fill="none" />
</g>
<g transform="matrix(1.0000 0.0000 0.0000 1.0000 0.0000 0.0000)">
</g>
<g transform="matrix(0.0625 0.0000 0.0000 0.0625 0.0000 0.0000)">
<path d="M 400.0000,399.0000 L 400.0000,1071.0000 L 1744.0000,1071.0000 L 1744.0000,399.0000 L 400.0000,399.0000 Z" stroke-width="1px" stroke="#FFFFFF"  fill="#FFFFFF" />
</g>
<g transform="matrix(1.0000 0.0000 0.0000 1.0000 0.0000 0.0000)">
</g>
<g transform="matrix(0.0625 0.0000 0.0000 0.0625 0.0000 0.0000)">
<path d="M 400.0000,1071.0000 L 1744.0000,1071.0000 L 1744.0000,399.0000 L 400.0000,399.0000 L 400.0000,1071.0000 Z" stroke="#000000" stroke-width="21.0000"  stroke-linecap="round"  stroke-linejoin="round" fill="none" />
</g>
<g transform="matrix(1.0000 0.0000 0.0000 1.0000 0.0000 0.0000)">
</g>
<g transform="matrix(1.0000 0.0000 0.0000 1.0000 56.3866 51.2203)">
<text font-family="Arial" fill="#000000" style ="white-space:pre;" font-weight="400" text-anchor="start" x="0.0000" y="0.0000" font-size="16.0000" ><![CDATA[UE]]></text>
</g>
<g transform="matrix(0.0625 0.0000 0.0000 0.0625 0.0000 0.0000)">
<path d="M 2320.0000,422.0000 L 2320.0000,1094.0000 L 3664.0000,1094.0000 L 3664.0000,422.0000 L 2320.0000,422.0000 Z" stroke-width="1px" stroke="#FFFFFF"  fill="#FFFFFF" />
</g>
<g transform="matrix(1.0000 0.0000 0.0000 1.0000 0.0000 0.0000)">
</g>
<g transform="matrix(0.0625 0.0000 0.0000 0.0625 0.0000 0.0000)">
<path d="M 2320.0000,1094.0000 L 3664.0000,1094.0000 L 3664.0000,422.0000 L 2320.0000,422.0000 L 2320.0000,1094.0000 Z" stroke="#000000" stroke-width="21.0000"  stroke-linecap="round"  stroke-linejoin="round" fill="none" />
</g>
<g transform="matrix(1.0000 0.0000 0.0000 1.0000 0.0000 0.0000)">
</g>
<g transform="matrix(1.0000 0.0000 0.0000 1.0000 155.9454 52.6336)">
<text font-family="Arial" fill="#000000" style ="white-space:pre;" font-weight="400" text-anchor="start" x="0.0000" y="0.0000" font-size="16.0000" ><![CDATA[NG]]></text>
</g>
<g transform="matrix(1.0000 0.0000 0.0000 1.0000 179.9454 52.6336)">
<text font-family="Arial" fill="#000000" style ="white-space:pre;" font-weight="400" text-anchor="start" x="0.0000" y="0.0000" font-size="16.0000" ><![CDATA[-]]></text>
</g>
<g transform="matrix(1.0000 0.0000 0.0000 1.0000 185.2735 52.6336)">
<text font-family="Arial" fill="#000000" style ="white-space:pre;" font-weight="400" text-anchor="start" x="0.0000" y="0.0000" font-size="16.0000" ><![CDATA[RAN]]></text>
</g>
<g transform="matrix(0.0625 0.0000 0.0000 0.0625 0.0000 0.0000)">
<path d="M 4240.0000,422.0000 L 4240.0000,1094.0000 L 5584.0000,1094.0000 L 5584.0000,422.0000 L 4240.0000,422.0000 Z" stroke-width="1px" stroke="#FFFFFF"  fill="#FFFFFF" />
</g>
<g transform="matrix(1.0000 0.0000 0.0000 1.0000 0.0000 0.0000)">
</g>
<g transform="matrix(0.0625 0.0000 0.0000 0.0625 0.0000 0.0000)">
<path d="M 4240.0000,1094.0000 L 5584.0000,1094.0000 L 5584.0000,422.0000 L 4240.0000,422.0000 L 4240.0000,1094.0000 Z" stroke="#000000" stroke-width="21.0000"  stroke-linecap="round"  stroke-linejoin="round" fill="none" />
</g>
<g transform="matrix(1.0000 0.0000 0.0000 1.0000 0.0000 0.0000)">
</g>
<g transform="matrix(1.0000 0.0000 0.0000 1.0000 290.6133 52.6336)">
<text font-family="Arial" fill="#000000" style ="white-space:pre;" font-weight="400" text-anchor="start" x="0.0000" y="0.0000" font-size="16.0000" ><![CDATA[AMF]]></text>
</g>
<g transform="matrix(0.0625 0.0000 0.0000 0.0625 0.0000 0.0000)">
<path d="M 8080.0000,399.0000 L 8080.0000,1071.0000 L 9424.0000,1071.0000 L 9424.0000,399.0000 L 8080.0000,399.0000 Z" stroke-width="1px" stroke="#FFFFFF"  fill="#FFFFFF" />
</g>
<g transform="matrix(1.0000 0.0000 0.0000 1.0000 0.0000 0.0000)">
</g>
<g transform="matrix(0.0625 0.0000 0.0000 0.0625 0.0000 0.0000)">
<path d="M 8080.0000,1071.0000 L 9424.0000,1071.0000 L 9424.0000,399.0000 L 8080.0000,399.0000 L 8080.0000,1071.0000 Z" stroke="#000000" stroke-width="21.0000"  stroke-linecap="round"  stroke-linejoin="round" fill="none" />
</g>
<g transform="matrix(1.0000 0.0000 0.0000 1.0000 0.0000 0.0000)">
</g>
<g transform="matrix(1.0000 0.0000 0.0000 1.0000 531.4999 51.2203)">
<text font-family="Arial" fill="#000000" style ="white-space:pre;" font-weight="400" text-anchor="start" x="0.0000" y="0.0000" font-size="16.0000" ><![CDATA[LMF]]></text>
</g>
<g transform="matrix(0.0625 0.0000 0.0000 0.0625 0.0000 0.0000)">
<path d="M 1094.0000,1094.0000 L 1094.0000,4815.0000 " stroke="#000000" stroke-width="21.0000"  stroke-linecap="round"  stroke-linejoin="round" fill="none" />
</g>
<g transform="matrix(1.0000 0.0000 0.0000 1.0000 0.0000 0.0000)">
</g>
<g transform="matrix(0.0625 0.0000 0.0000 0.0625 0.0000 0.0000)">
<path d="M 2992.0000,1094.0000 L 2992.0000,4815.0000 " stroke="#000000" stroke-width="21.0000"  stroke-linecap="round"  stroke-linejoin="round" fill="none" />
</g>
<g transform="matrix(1.0000 0.0000 0.0000 1.0000 0.0000 0.0000)">
</g>
<g transform="matrix(0.0625 0.0000 0.0000 0.0625 0.0000 0.0000)">
<path d="M 4912.0000,1094.0000 L 4912.0000,4815.0000 " stroke="#000000" stroke-width="21.0000"  stroke-linecap="round"  stroke-linejoin="round" fill="none" />
</g>
<g transform="matrix(1.0000 0.0000 0.0000 1.0000 0.0000 0.0000)">
</g>
<g transform="matrix(0.0625 0.0000 0.0000 0.0625 0.0000 0.0000)">
<path d="M 8774.0000,1094.0000 L 8774.0000,4815.0000 " stroke="#000000" stroke-width="21.0000"  stroke-linecap="round"  stroke-linejoin="round" fill="none" />
</g>
<g transform="matrix(1.0000 0.0000 0.0000 1.0000 0.0000 0.0000)">
</g>
<g transform="matrix(0.0625 0.0000 0.0000 0.0625 0.0000 0.0000)">
<path d="M 1094.0000,1477.0000 L 8567.0000,1456.0000 " stroke="#000000" stroke-width="21.0000"  stroke-linecap="round"  stroke-linejoin="round" fill="none" />
</g>
<g transform="matrix(1.0000 0.0000 0.0000 1.0000 0.0000 0.0000)">
</g>
<g transform="matrix(0.0625 0.0000 0.0000 0.0625 0.0000 0.0000)">
<path d="M 8548.0000,1381.0000 L 8774.0000,1455.0000 L 8549.0000,1531.0000 L 8548.0000,1381.0000 Z" stroke-width="1px" stroke="#000000"  fill="#000000" />
</g>
<g transform="matrix(1.0000 0.0000 0.0000 1.0000 0.0000 0.0000)">
</g>
<g transform="matrix(0.0625 0.0000 0.0000 0.0625 0.0000 0.0000)">
<path d="M 4193.0000,1596.0000 L 5675.0000,1592.0000 L 5675.0000,1336.0000 L 4192.0000,1340.0000 L 4193.0000,1596.0000 Z" stroke-width="1px" stroke="#FFFFFF"  fill="#FFFFFF" />
</g>
<g transform="matrix(1.0000 0.0000 0.0000 1.0000 0.0000 0.0000)">
</g>
<g transform="matrix(0.0625 0.0000 0.0000 0.0625 0.0000 0.0000)">
<path d="M 4272.0000,1532.0000 L 4254.0000,1532.0000 L 4253.0000,1412.0000 C 4249.0000,1417.0000 4243.0000,1421.0000 4235.0000,1425.0000 C 4228.0000,1430.0000 4222.0000,1433.0000 4216.0000,1435.0000 L 4216.0000,1417.0000 C 4226.0000,1412.0000 4235.0000,1406.0000 4243.0000,1399.0000 C 4251.0000,1392.0000 4257.0000,1385.0000 4260.0000,1378.0000 L 4272.0000,1378.0000 Z M 4324.0000,1532.0000 L 4324.0000,1510.0000 L 4345.0000,1510.0000 L 4346.0000,1531.0000 Z M 4450.0000,1531.0000 L 4449.0000,1378.0000 L 4560.0000,1378.0000 L 4560.0000,1396.0000 L 4470.0000,1396.0000 L 4470.0000,1443.0000 L 4554.0000,1443.0000 L 4554.0000,1461.0000 L 4470.0000,1461.0000 L 4470.0000,1513.0000 L 4564.0000,1513.0000 L 4564.0000,1531.0000 Z M 4622.0000,1531.0000 L 4579.0000,1420.0000 L 4599.0000,1420.0000 L 4623.0000,1486.0000 C 4626.0000,1493.0000 4628.0000,1501.0000 4630.0000,1509.0000 C 4632.0000,1503.0000 4634.0000,1496.0000 4637.0000,1488.0000 L 4661.0000,1420.0000 L 4681.0000,1420.0000 L 4639.0000,1531.0000 Z M 4763.0000,1495.0000 L 4782.0000,1497.0000 C 4779.0000,1508.0000 4773.0000,1517.0000 4765.0000,1523.0000 C 4757.0000,1530.0000 4746.0000,1533.0000 4733.0000,1533.0000 C 4717.0000,1533.0000 4704.0000,1528.0000 4695.0000,1518.0000 C 4685.0000,1508.0000 4681.0000,1494.0000 4680.0000,1476.0000 C 4680.0000,1458.0000 4685.0000,1443.0000 4695.0000,1433.0000 C 4704.0000,1423.0000 4717.0000,1417.0000 4732.0000,1417.0000 C 4747.0000,1417.0000 4759.0000,1422.0000 4768.0000,1432.0000 C 4778.0000,1442.0000 4782.0000,1456.0000 4782.0000,1475.0000 C 4782.0000,1476.0000 4782.0000,1478.0000 4782.0000,1480.0000 L 4700.0000,1480.0000 C 4701.0000,1492.0000 4704.0000,1501.0000 4710.0000,1508.0000 C 4716.0000,1514.0000 4724.0000,1518.0000 4733.0000,1517.0000 C 4740.0000,1517.0000 4746.0000,1516.0000 4751.0000,1512.0000 C 4756.0000,1508.0000 4760.0000,1503.0000 4763.0000,1495.0000 Z M 4701.0000,1465.0000 L 4763.0000,1464.0000 C 4762.0000,1455.0000 4759.0000,1448.0000 4756.0000,1443.0000 C 4750.0000,1436.0000 4742.0000,1433.0000 4732.0000,1433.0000 C 4724.0000,1433.0000 4716.0000,1436.0000 4711.0000,1441.0000 C 4705.0000,1447.0000 4701.0000,1455.0000 4701.0000,1465.0000 Z M 4815.0000,1530.0000 L 4815.0000,1420.0000 L 4831.0000,1420.0000 L 4831.0000,1435.0000 C 4840.0000,1423.0000 4851.0000,1417.0000 4867.0000,1417.0000 C 4873.0000,1417.0000 4879.0000,1418.0000 4885.0000,1420.0000 C 4891.0000,1423.0000 4895.0000,1426.0000 4898.0000,1430.0000 C 4900.0000,1434.0000 4902.0000,1438.0000 4904.0000,1444.0000 C 4904.0000,1447.0000 4905.0000,1453.0000 4905.0000,1462.0000 L 4905.0000,1530.0000 L 4886.0000,1530.0000 L 4886.0000,1463.0000 C 4886.0000,1455.0000 4885.0000,1449.0000 4884.0000,1446.0000 C 4882.0000,1442.0000 4880.0000,1439.0000 4876.0000,1437.0000 C 4872.0000,1434.0000 4868.0000,1433.0000 4863.0000,1433.0000 C 4855.0000,1433.0000 4848.0000,1436.0000 4842.0000,1441.0000 C 4836.0000,1446.0000 4833.0000,1456.0000 4833.0000,1470.0000 L 4834.0000,1530.0000 Z M 4968.0000,1513.0000 L 4971.0000,1530.0000 C 4965.0000,1531.0000 4961.0000,1531.0000 4956.0000,1531.0000 C 4950.0000,1531.0000 4944.0000,1530.0000 4941.0000,1528.0000 C 4937.0000,1526.0000 4934.0000,1523.0000 4933.0000,1520.0000 C 4931.0000,1516.0000 4930.0000,1509.0000 4930.0000,1497.0000 L 4930.0000,1434.0000 L 4916.0000,1434.0000 L 4916.0000,1419.0000 L 4930.0000,1419.0000 L 4930.0000,1392.0000 L 4949.0000,1381.0000 L 4949.0000,1419.0000 L 4968.0000,1419.0000 L 4968.0000,1434.0000 L 4949.0000,1434.0000 L 4949.0000,1498.0000 C 4949.0000,1504.0000 4949.0000,1507.0000 4950.0000,1509.0000 C 4951.0000,1510.0000 4952.0000,1512.0000 4953.0000,1512.0000 C 4955.0000,1513.0000 4957.0000,1514.0000 4960.0000,1514.0000 C 4962.0000,1514.0000 4964.0000,1513.0000 4968.0000,1513.0000 Z M 5058.0000,1530.0000 L 5057.0000,1377.0000 L 5125.0000,1377.0000 C 5138.0000,1377.0000 5149.0000,1378.0000 5156.0000,1381.0000 C 5163.0000,1383.0000 5169.0000,1388.0000 5173.0000,1395.0000 C 5177.0000,1402.0000 5179.0000,1410.0000 5179.0000,1418.0000 C 5179.0000,1429.0000 5176.0000,1438.0000 5169.0000,1446.0000 C 5162.0000,1453.0000 5151.0000,1458.0000 5136.0000,1460.0000 C 5142.0000,1462.0000 5146.0000,1465.0000 5149.0000,1467.0000 C 5155.0000,1473.0000 5160.0000,1480.0000 5165.0000,1488.0000 L 5192.0000,1529.0000 L 5167.0000,1529.0000 L 5146.0000,1497.0000 C 5141.0000,1488.0000 5136.0000,1481.0000 5132.0000,1476.0000 C 5128.0000,1472.0000 5125.0000,1468.0000 5122.0000,1466.0000 C 5119.0000,1464.0000 5115.0000,1463.0000 5112.0000,1462.0000 C 5110.0000,1462.0000 5106.0000,1462.0000 5101.0000,1462.0000 L 5078.0000,1462.0000 L 5078.0000,1529.0000 Z M 5078.0000,1444.0000 L 5121.0000,1444.0000 C 5130.0000,1444.0000 5137.0000,1443.0000 5143.0000,1441.0000 C 5148.0000,1439.0000 5152.0000,1436.0000 5155.0000,1432.0000 C 5157.0000,1428.0000 5159.0000,1423.0000 5159.0000,1418.0000 C 5159.0000,1411.0000 5156.0000,1405.0000 5151.0000,1400.0000 C 5145.0000,1396.0000 5137.0000,1393.0000 5126.0000,1393.0000 L 5077.0000,1394.0000 Z M 5275.0000,1493.0000 L 5294.0000,1496.0000 C 5291.0000,1507.0000 5285.0000,1516.0000 5277.0000,1522.0000 C 5269.0000,1528.0000 5258.0000,1531.0000 5245.0000,1531.0000 C 5229.0000,1532.0000 5216.0000,1527.0000 5207.0000,1517.0000 C 5197.0000,1507.0000 5193.0000,1493.0000 5192.0000,1475.0000 C 5192.0000,1456.0000 5197.0000,1442.0000 5207.0000,1431.0000 C 5216.0000,1421.0000 5229.0000,1416.0000 5244.0000,1416.0000 C 5259.0000,1416.0000 5271.0000,1421.0000 5280.0000,1431.0000 C 5290.0000,1441.0000 5294.0000,1455.0000 5294.0000,1473.0000 C 5294.0000,1474.0000 5294.0000,1476.0000 5294.0000,1478.0000 L 5212.0000,1479.0000 C 5213.0000,1491.0000 5216.0000,1500.0000 5222.0000,1506.0000 C 5228.0000,1513.0000 5236.0000,1516.0000 5245.0000,1516.0000 C 5252.0000,1516.0000 5258.0000,1514.0000 5263.0000,1511.0000 C 5268.0000,1507.0000 5272.0000,1501.0000 5275.0000,1493.0000 Z M 5213.0000,1463.0000 L 5275.0000,1463.0000 C 5274.0000,1454.0000 5271.0000,1447.0000 5267.0000,1442.0000 C 5262.0000,1435.0000 5254.0000,1431.0000 5244.0000,1431.0000 C 5236.0000,1431.0000 5228.0000,1434.0000 5223.0000,1440.0000 C 5217.0000,1446.0000 5213.0000,1453.0000 5213.0000,1463.0000 Z M 5327.0000,1571.0000 L 5327.0000,1418.0000 L 5344.0000,1418.0000 L 5344.0000,1432.0000 C 5348.0000,1427.0000 5352.0000,1423.0000 5357.0000,1420.0000 C 5362.0000,1417.0000 5369.0000,1416.0000 5376.0000,1416.0000 C 5385.0000,1415.0000 5394.0000,1418.0000 5401.0000,1423.0000 C 5408.0000,1428.0000 5413.0000,1434.0000 5417.0000,1443.0000 C 5421.0000,1452.0000 5423.0000,1462.0000 5423.0000,1472.0000 C 5423.0000,1484.0000 5421.0000,1494.0000 5417.0000,1503.0000 C 5413.0000,1512.0000 5407.0000,1519.0000 5399.0000,1524.0000 C 5391.0000,1529.0000 5383.0000,1531.0000 5375.0000,1531.0000 C 5368.0000,1531.0000 5363.0000,1530.0000 5358.0000,1527.0000 C 5353.0000,1525.0000 5349.0000,1521.0000 5346.0000,1517.0000 L 5346.0000,1571.0000 Z M 5344.0000,1474.0000 C 5344.0000,1488.0000 5347.0000,1499.0000 5352.0000,1506.0000 C 5358.0000,1512.0000 5365.0000,1516.0000 5373.0000,1516.0000 C 5382.0000,1516.0000 5389.0000,1512.0000 5395.0000,1505.0000 C 5401.0000,1498.0000 5404.0000,1487.0000 5404.0000,1472.0000 C 5404.0000,1458.0000 5401.0000,1448.0000 5395.0000,1441.0000 C 5389.0000,1434.0000 5382.0000,1430.0000 5374.0000,1430.0000 C 5366.0000,1430.0000 5359.0000,1434.0000 5353.0000,1441.0000 C 5347.0000,1449.0000 5344.0000,1460.0000 5344.0000,1474.0000 Z M 5432.0000,1473.0000 C 5432.0000,1453.0000 5437.0000,1437.0000 5449.0000,1428.0000 C 5458.0000,1419.0000 5470.0000,1415.0000 5483.0000,1415.0000 C 5499.0000,1415.0000 5511.0000,1420.0000 5521.0000,1430.0000 C 5530.0000,1440.0000 5535.0000,1454.0000 5535.0000,1471.0000 C 5535.0000,1486.0000 5533.0000,1497.0000 5529.0000,1505.0000 C 5525.0000,1513.0000 5519.0000,1519.0000 5510.0000,1524.0000 C 5502.0000,1529.0000 5493.0000,1531.0000 5484.0000,1531.0000 C 5468.0000,1531.0000 5456.0000,1526.0000 5446.0000,1516.0000 C 5437.0000,1506.0000 5432.0000,1492.0000 5432.0000,1473.0000 Z M 5451.0000,1473.0000 C 5451.0000,1487.0000 5454.0000,1498.0000 5460.0000,1505.0000 C 5467.0000,1512.0000 5474.0000,1515.0000 5484.0000,1515.0000 C 5493.0000,1515.0000 5501.0000,1512.0000 5507.0000,1505.0000 C 5513.0000,1498.0000 5516.0000,1487.0000 5516.0000,1472.0000 C 5516.0000,1459.0000 5513.0000,1448.0000 5507.0000,1441.0000 C 5500.0000,1434.0000 5493.0000,1431.0000 5484.0000,1431.0000 C 5474.0000,1431.0000 5466.0000,1434.0000 5460.0000,1441.0000 C 5454.0000,1448.0000 5451.0000,1459.0000 5451.0000,1473.0000 Z M 5551.0000,1528.0000 L 5550.0000,1418.0000 L 5567.0000,1417.0000 L 5567.0000,1434.0000 C 5572.0000,1426.0000 5576.0000,1421.0000 5579.0000,1419.0000 C 5583.0000,1416.0000 5587.0000,1415.0000 5591.0000,1415.0000 C 5598.0000,1415.0000 5604.0000,1417.0000 5610.0000,1421.0000 L 5604.0000,1438.0000 C 5599.0000,1436.0000 5595.0000,1434.0000 5590.0000,1434.0000 C 5586.0000,1434.0000 5583.0000,1436.0000 5579.0000,1438.0000 C 5576.0000,1440.0000 5574.0000,1444.0000 5572.0000,1448.0000 C 5570.0000,1455.0000 5569.0000,1462.0000 5569.0000,1470.0000 L 5569.0000,1528.0000 Z M 5672.0000,1511.0000 L 5675.0000,1528.0000 C 5669.0000,1529.0000 5665.0000,1529.0000 5660.0000,1529.0000 C 5654.0000,1529.0000 5648.0000,1528.0000 5645.0000,1526.0000 C 5641.0000,1524.0000 5638.0000,1521.0000 5637.0000,1518.0000 C 5635.0000,1514.0000 5634.0000,1507.0000 5634.0000,1496.0000 L 5634.0000,1432.0000 L 5620.0000,1432.0000 L 5620.0000,1417.0000 L 5634.0000,1417.0000 L 5634.0000,1390.0000 L 5653.0000,1379.0000 L 5653.0000,1417.0000 L 5672.0000,1417.0000 L 5672.0000,1432.0000 L 5653.0000,1432.0000 L 5653.0000,1497.0000 C 5653.0000,1502.0000 5653.0000,1505.0000 5654.0000,1507.0000 C 5655.0000,1508.0000 5656.0000,1510.0000 5657.0000,1510.0000 C 5659.0000,1511.0000 5661.0000,1512.0000 5664.0000,1512.0000 C 5666.0000,1512.0000 5668.0000,1512.0000 5672.0000,1511.0000 Z "  fill="#000000" stroke="none" />
</g>
<g transform="matrix(1.0000 0.0000 0.0000 1.0000 0.0000 0.0000)">
</g>
<g transform="matrix(0.0625 0.0000 0.0000 0.0625 0.0000 0.0000)">
<path d="M 784.0000,2703.0000 L 784.0000,3279.0000 L 9040.0000,3279.0000 L 9040.0000,2703.0000 L 784.0000,2703.0000 Z" stroke-width="1px" stroke="#FFFFFF"  fill="#FFFFFF" />
</g>
<g transform="matrix(1.0000 0.0000 0.0000 1.0000 0.0000 0.0000)">
</g>
<g transform="matrix(0.0625 0.0000 0.0000 0.0625 0.0000 0.0000)">
<path d="M 784.0000,3279.0000 L 9040.0000,3279.0000 L 9040.0000,2703.0000 L 784.0000,2703.0000 L 784.0000,3279.0000 Z" stroke="#000000" stroke-width="21.0000"  stroke-linecap="round"  stroke-linejoin="round" fill="none" />
</g>
<g transform="matrix(1.0000 0.0000 0.0000 1.0000 0.0000 0.0000)">
</g>
<g transform="matrix(1.0000 0.0000 0.0000 1.0000 243.0300 191.4201)">
<text fill="#000000" style ="white-space:pre;" font-weight="400" text-anchor="start" x="0.0000" y="0.0000" font-size="13.0000" ><![CDATA[3. LPP Transaction(s)]]></text>
</g>
<g transform="matrix(0.0625 0.0000 0.0000 0.0625 0.0000 0.0000)">
<path d="M 2704.0000,3567.0000 L 2704.0000,4143.0000 L 9040.0000,4143.0000 L 9040.0000,3567.0000 L 2704.0000,3567.0000 Z" stroke-width="1px" stroke="#FFFFFF"  fill="#FFFFFF" />
</g>
<g transform="matrix(1.0000 0.0000 0.0000 1.0000 0.0000 0.0000)">
</g>
<g transform="matrix(0.0625 0.0000 0.0000 0.0625 0.0000 0.0000)">
<path d="M 2704.0000,4143.0000 L 9040.0000,4143.0000 L 9040.0000,3567.0000 L 2704.0000,3567.0000 L 2704.0000,4143.0000 Z" stroke="#000000" stroke-width="21.0000"  stroke-linecap="round"  stroke-linejoin="round" fill="none" />
</g>
<g transform="matrix(1.0000 0.0000 0.0000 1.0000 0.0000 0.0000)">
</g>
<g transform="matrix(1.0000 0.0000 0.0000 1.0000 293.4012 245.4201)">
<text fill="#000000" style ="white-space:pre;" font-weight="400" text-anchor="start" x="0.0000" y="0.0000" font-size="13.0000" ><![CDATA[4. NRPPa Transaction(s)]]></text>
</g>
<g transform="matrix(0.0625 0.0000 0.0000 0.0625 0.0000 0.0000)">
<path d="M 7039.0000,4527.0000 L 8774.0000,4527.0000 " stroke="#000000" stroke-width="21.0000"  stroke-linecap="round"  stroke-linejoin="round" fill="none" />
</g>
<g transform="matrix(1.0000 0.0000 0.0000 1.0000 0.0000 0.0000)">
</g>
<g transform="matrix(0.0625 0.0000 0.0000 0.0625 0.0000 0.0000)">
<path d="M 7058.0000,4602.0000 L 6832.0000,4527.0000 L 7058.0000,4452.0000 L 7058.0000,4602.0000 Z" stroke-width="1px" stroke="#000000"  fill="#000000" />
</g>
<g transform="matrix(1.0000 0.0000 0.0000 1.0000 0.0000 0.0000)">
</g>
<g transform="matrix(0.0625 0.0000 0.0000 0.0625 0.0000 0.0000)">
<path d="M 7275.0000,4271.0000 L 7275.0000,4783.0000 L 8331.0000,4783.0000 L 8331.0000,4271.0000 L 7275.0000,4271.0000 Z" stroke-width="1px" stroke="#FFFFFF"  fill="#FFFFFF" />
</g>
<g transform="matrix(1.0000 0.0000 0.0000 1.0000 0.0000 0.0000)">
</g>
<g transform="matrix(1.0000 0.0000 0.0000 1.0000 463.7065 279.4203)">
<text fill="#000000" style ="white-space:pre;" font-weight="400" text-anchor="start" x="0.0000" y="0.0000" font-size="13.0000" ><![CDATA[5. Event ]]></text>
</g>
<g transform="matrix(1.0000 0.0000 0.0000 1.0000 455.1877 295.4204)">
<text fill="#000000" style ="white-space:pre;" font-weight="400" text-anchor="start" x="0.0000" y="0.0000" font-size="13.0000" ><![CDATA[Notification]]></text>
</g>
<g transform="matrix(0.0625 0.0000 0.0000 0.0625 0.0000 0.0000)">
<path d="M 6160.0000,422.0000 L 6160.0000,1094.0000 L 7504.0000,1094.0000 L 7504.0000,422.0000 L 6160.0000,422.0000 Z" stroke-width="1px" stroke="#FFFFFF"  fill="#FFFFFF" />
</g>
<g transform="matrix(1.0000 0.0000 0.0000 1.0000 0.0000 0.0000)">
</g>
<g transform="matrix(0.0625 0.0000 0.0000 0.0625 0.0000 0.0000)">
<path d="M 6160.0000,1094.0000 L 7504.0000,1094.0000 L 7504.0000,422.0000 L 6160.0000,422.0000 L 6160.0000,1094.0000 Z" stroke="#000000" stroke-width="21.0000"  stroke-linecap="round"  stroke-linejoin="round" fill="none" />
</g>
<g transform="matrix(1.0000 0.0000 0.0000 1.0000 0.0000 0.0000)">
</g>
<g transform="matrix(1.0000 0.0000 0.0000 1.0000 404.3866 52.6336)">
<text fill="#000000" style ="white-space:pre;" font-weight="400" text-anchor="start" x="0.0000" y="0.0000" font-size="16.0000" ><![CDATA[GMLC]]></text>
</g>
<g transform="matrix(0.0625 0.0000 0.0000 0.0625 0.0000 0.0000)">
<path d="M 7792.0000,1839.0000 L 7792.0000,2415.0000 L 9808.0000,2415.0000 L 9808.0000,1839.0000 L 7792.0000,1839.0000 Z" stroke-width="1px" stroke="#FFFFFF"  fill="#FFFFFF" />
</g>
<g transform="matrix(1.0000 0.0000 0.0000 1.0000 0.0000 0.0000)">
</g>
<g transform="matrix(0.0625 0.0000 0.0000 0.0625 0.0000 0.0000)">
<path d="M 7792.0000,2415.0000 L 9808.0000,2415.0000 L 9808.0000,1839.0000 L 7792.0000,1839.0000 L 7792.0000,2415.0000 Z" stroke="#000000" stroke-width="21.0000"  stroke-linecap="round"  stroke-linejoin="round" fill="none" />
</g>
<g transform="matrix(1.0000 0.0000 0.0000 1.0000 0.0000 0.0000)">
</g>
<g transform="matrix(1.0000 0.0000 0.0000 1.0000 517.5179 129.4202)">
<text fill="#000000" style ="white-space:pre;" font-weight="400" text-anchor="start" x="0.0000" y="0.0000" font-size="13.0000" ><![CDATA[2. Need for ]]></text>
</g>
<g transform="matrix(1.0000 0.0000 0.0000 1.0000 517.8856 145.4203)">
<text fill="#000000" style ="white-space:pre;" font-weight="400" text-anchor="start" x="0.0000" y="0.0000" font-size="13.0000" ><![CDATA[Positioning]]></text>
</g>
</g>
</svg>
