<?xml version="1.0" encoding="UTF-8" standalone="no"?>
<!DOCTYPE svg PUBLIC "-//W3C//DTD SVG 1.0//EN" "http://www.w3.org/TR/2001/REC-SVG-20010904/DTD/svg10.dtd">
<svg xmlns="http://www.w3.org/2000/svg" xmlns:xlink="http://www.w3.org/1999/xlink" fill-rule="evenodd" height="0.7383333333333333in" preserveAspectRatio="none" stroke-linecap="round" viewBox="0 0 3782 443" width="6.303333333333334in">
    <style type="text/css">
.brush0 { fill: rgb(255,255,255); }
.pen0 { stroke: rgb(0,0,0); stroke-width: 1; stroke-linejoin: round; }
.font0 { font-weight: bold; font-size: 16px; font-family: System, sans-serif; }
.font1 { font-size: 90px; font-family: "Times New Roman", serif; }
.brush1 { fill: none; }
.pen1 { stroke: none; }
.font2 { font-style: italic; font-size: 67px; font-family: Arial, sans-serif; }
.font3 { font-style: italic; font-size: 44px; font-family: Arial, sans-serif; }
.font4 { font-weight: bold; font-size: 89px; font-family: Arial, sans-serif; }
.font5 { font-style: italic; font-size: 59px; font-family: Arial, sans-serif; }
.font6 { font-size: 59px; font-family: Arial, sans-serif; }
.font7 { font-style: italic; font-size: 59px; font-family: Arial, sans-serif; }
.pen2 { stroke: rgb(0,0,0); stroke-width: 6; stroke-linejoin: round; }
.font8 { font-size: 55px; font-family: Verdana, sans-serif; }
.font9 { font-style: italic; font-size: 60px; font-family: "Times New Roman", serif; }
.font10 { font-size: 60px; font-family: "Times New Roman", serif; }
.font11 { font-style: italic; font-size: 60px; font-family: "Times New Roman", serif; }
.brush2 { fill: rgb(0,0,0); }
.pen3 { stroke: rgb(0,0,0); stroke-width: 6; stroke-linejoin: round; }
</style>
    <g>
        <g>
            <clipPath id="clipPath0">
                <rect height="444" width="3788" x="0" y="-1"/>
            </clipPath>
            <text class="font1" clip-path="url(#clipPath0)" fill="rgb(0,0,0)" stroke="none" style="dominant-baseline: text-before-edge;" x="0" xml:lang="en" xml:space="preserve" y="443"> </text>
        </g>
        <rect class="pen1 brush1" height="219" width="547" x="1128" y="225"/>
        <g>
            <clipPath id="clipPath1">
                <rect height="158" width="425" x="1188" y="255"/>
            </clipPath>
            <text class="font2" clip-path="url(#clipPath1)" fill="rgb(0,0,0)" stroke="none" style="dominant-baseline: text-before-edge;" x="1274" xml:lang="en" xml:space="preserve" y="257">S</text>
        </g>
        <g>
            <clipPath id="clipPath2">
                <rect height="158" width="425" x="1188" y="255"/>
            </clipPath>
            <text class="font3" clip-path="url(#clipPath2)" fill="rgb(0,0,0)" stroke="none" style="dominant-baseline: text-before-edge;" x="1324 1352 1380 1405 1433 1461 1472 1500" xml:lang="en" xml:space="preserve" y="286">12cable1</text>
        </g>
        <g>
            <clipPath id="clipPath3">
                <rect height="158" width="425" x="1188" y="255"/>
            </clipPath>
            <text class="font2" clip-path="url(#clipPath3)" fill="rgb(0,0,0)" stroke="none" style="dominant-baseline: text-before-edge;" x="1528" xml:lang="en" xml:space="preserve" y="257"> </text>
        </g>
        <g>
            <clipPath id="clipPath4">
                <rect height="158" width="425" x="1188" y="255"/>
            </clipPath>
            <text class="font4" clip-path="url(#clipPath4)" fill="rgb(0,0,0)" stroke="none" style="dominant-baseline: text-before-edge;" x="1188 1244 1272" xml:lang="en" xml:space="preserve" y="440">1.1</text>
        </g>
        <g>
            <clipPath id="clipPath5">
                <rect height="158" width="425" x="1188" y="255"/>
            </clipPath>
            <text class="font4" clip-path="url(#clipPath5)" fill="rgb(0,0,0)" stroke="none" style="dominant-baseline: text-before-edge;" x="1327" xml:lang="en" xml:space="preserve" y="440"> </text>
        </g>
        <g>
            <clipPath id="clipPath6">
                <rect height="158" width="425" x="1188" y="255"/>
            </clipPath>
            <text class="font4" clip-path="url(#clipPath6)" fill="rgb(0,0,0)" stroke="none" style="dominant-baseline: text-before-edge;" x="1488" xml:lang="en" xml:space="preserve" y="440"> </text>
        </g>
    </g>
    <g>
        <rect class="pen1 brush1" height="191" width="571" x="2829" y="71"/>
        <g>
            <clipPath id="clipPath7">
                <rect height="130" width="449" x="2889" y="101"/>
            </clipPath>
            <text class="font7" clip-path="url(#clipPath7)" fill="rgb(0,0,0)" stroke="none" style="dominant-baseline: text-before-edge;" x="2966" xml:lang="ru" xml:space="preserve" y="102">Г</text>
        </g>
        <g>
            <clipPath id="clipPath8">
                <rect height="130" width="449" x="2889" y="101"/>
            </clipPath>
            <text class="font6" clip-path="url(#clipPath8)" fill="rgb(0,0,0)" stroke="none" style="dominant-baseline: text-before-edge;" x="3002" xml:lang="en" xml:space="preserve" y="103"> </text>
        </g>
        <g>
            <clipPath id="clipPath9">
                <rect height="130" width="449" x="2889" y="101"/>
            </clipPath>
            <text class="font5" clip-path="url(#clipPath9)" fill="rgb(0,0,0)" stroke="none" style="dominant-baseline: text-before-edge;" x="3021 3058 3095 3114 3151 3188 3225" xml:lang="en" xml:space="preserve" y="102">antenna</text>
        </g>
        <g>
            <clipPath id="clipPath10">
                <rect height="130" width="449" x="2889" y="101"/>
            </clipPath>
            <text class="font6" clip-path="url(#clipPath10)" fill="rgb(0,0,0)" stroke="none" style="dominant-baseline: text-before-edge;" x="3262" xml:lang="en" xml:space="preserve" y="103"> </text>
        </g>
    </g>
    <g>
        <rect class="pen2 brush0" height="167" width="500" x="3" y="119"/>
        <g>
            <clipPath id="clipPath11">
                <rect height="99" width="372" x="66" y="152"/>
            </clipPath>
            <text class="font8" clip-path="url(#clipPath11)" fill="rgb(0,0,0)" stroke="none" style="dominant-baseline: text-before-edge;" x="200 256" xml:lang="en" xml:space="preserve" y="151">MR</text>
        </g>
        <g>
            <clipPath id="clipPath12">
                <rect height="99" width="372" x="66" y="152"/>
            </clipPath>
            <text class="font8" clip-path="url(#clipPath12)" fill="rgb(0,0,0)" stroke="none" style="dominant-baseline: text-before-edge;" x="303" xml:lang="en" xml:space="preserve" y="151"> </text>
        </g>
    </g>
    <g>
        <rect class="pen1 brush1" height="191" width="571" x="383" y="71"/>
        <g>
            <clipPath id="clipPath13">
                <rect height="130" width="449" x="443" y="101"/>
            </clipPath>
            <text class="font11" clip-path="url(#clipPath13)" fill="rgb(0,0,0)" stroke="none" style="dominant-baseline: text-before-edge;" x="592" xml:lang="ru" xml:space="preserve" y="103">Г</text>
        </g>
        <g>
            <clipPath id="clipPath14">
                <rect height="130" width="449" x="443" y="101"/>
            </clipPath>
            <text class="font10" clip-path="url(#clipPath14)" fill="rgb(0,0,0)" stroke="none" style="dominant-baseline: text-before-edge;" x="630" xml:lang="en" xml:space="preserve" y="103"> </text>
        </g>
        <g>
            <clipPath id="clipPath15">
                <rect height="130" width="449" x="443" y="101"/>
            </clipPath>
            <text class="font9" clip-path="url(#clipPath15)" fill="rgb(0,0,0)" stroke="none" style="dominant-baseline: text-before-edge;" x="647 703" xml:lang="en" xml:space="preserve" y="103">MR</text>
        </g>
        <g>
            <clipPath id="clipPath16">
                <rect height="130" width="449" x="443" y="101"/>
            </clipPath>
            <text class="font10" clip-path="url(#clipPath16)" fill="rgb(0,0,0)" stroke="none" style="dominant-baseline: text-before-edge;" x="744" xml:lang="en" xml:space="preserve" y="103"> </text>
        </g>
    </g>
    <g>
        <rect class="pen2 brush0" height="151" width="451" x="1167" y="119"/>
        <g>
            <clipPath id="clipPath17">
                <rect height="83" width="323" x="1230" y="152"/>
            </clipPath>
            <text class="font8" clip-path="url(#clipPath17)" fill="rgb(0,0,0)" stroke="none" style="dominant-baseline: text-before-edge;" x="1277 1324 1364 1406 1424 1464" xml:lang="en" xml:space="preserve" y="151">Cable1</text>
        </g>
        <g>
            <clipPath id="clipPath18">
                <rect height="83" width="323" x="1230" y="152"/>
            </clipPath>
            <text class="font8" clip-path="url(#clipPath18)" fill="rgb(0,0,0)" stroke="none" style="dominant-baseline: text-before-edge;" x="1507" xml:lang="en" xml:space="preserve" y="151"> </text>
        </g>
    </g>
    <g>
        <rect class="pen1 brush1" height="143" width="452" x="1167" y="0"/>
        <g>
            <clipPath id="clipPath19">
                <rect height="82" width="331" x="1226" y="30"/>
            </clipPath>
            <text class="font2" clip-path="url(#clipPath19)" fill="rgb(0,0,0)" stroke="none" style="dominant-baseline: text-before-edge;" x="1264" xml:lang="en" xml:space="preserve" y="32">S</text>
        </g>
        <g>
            <clipPath id="clipPath20">
                <rect height="82" width="331" x="1226" y="30"/>
            </clipPath>
            <text class="font3" clip-path="url(#clipPath20)" fill="rgb(0,0,0)" stroke="none" style="dominant-baseline: text-before-edge;" x="1314 1342 1370 1395 1423 1451 1462 1490" xml:lang="en" xml:space="preserve" y="61">21cable1</text>
        </g>
        <g>
            <clipPath id="clipPath21">
                <rect height="82" width="331" x="1226" y="30"/>
            </clipPath>
            <text class="font2" clip-path="url(#clipPath21)" fill="rgb(0,0,0)" stroke="none" style="dominant-baseline: text-before-edge;" x="1518" xml:lang="en" xml:space="preserve" y="32"> </text>
        </g>
    </g>
    <g>
        <polygon class="pen1 brush2" fill-rule="nonzero" points="1619,187 1618,187 1617,188 1616,189 1615,190 1615,190 1616,191 1617,192 1618,193 1618,193 1618,193 1619,192 1620,191 1621,190 1621,190 1620,189 1619,188 1619,187"/>
        <polygon class="pen1 brush2" fill-rule="nonzero" points="1630,187 1629,187 1628,188 1627,189 1627,190 1627,191 1627,192 1628,193 1629,193 1630,193 1630,193 1631,192 1632,191 1633,190 1633,190 1632,189 1631,188 1631,187"/>
        <polygon class="pen1 brush2" fill-rule="nonzero" points="1642,187 1641,187 1640,188 1639,189 1639,190 1639,191 1639,192 1640,193 1641,193 1642,193 1642,193 1643,192 1644,191 1645,190 1645,190 1644,189 1643,188 1643,187"/>
        <polygon class="pen1 brush2" fill-rule="nonzero" points="1654,187 1653,187 1652,188 1651,189 1651,190 1651,191 1651,192 1652,193 1653,193 1654,193 1654,193 1655,192 1656,191 1657,190 1657,190 1656,189 1655,188 1655,187"/>
        <polygon class="pen1 brush2" fill-rule="nonzero" points="1666,187 1665,187 1664,188 1663,189 1663,190 1663,191 1663,192 1664,193 1665,193 1666,193 1666,193 1667,192 1668,191 1669,190 1669,190 1668,189 1667,188 1667,187"/>
        <polygon class="pen1 brush2" fill-rule="nonzero" points="1678,187 1677,187 1676,188 1675,189 1675,190 1675,191 1675,192 1676,193 1677,193 1678,193 1678,193 1679,192 1680,191 1681,190 1681,190 1680,189 1679,188 1679,187"/>
        <polygon class="pen1 brush2" fill-rule="nonzero" points="1690,187 1689,187 1688,188 1687,189 1687,190 1687,191 1687,192 1688,193 1689,193 1690,193 1690,193 1691,192 1692,191 1693,190 1693,190 1692,189 1691,188 1691,187"/>
        <polygon class="pen1 brush2" fill-rule="nonzero" points="1702,187 1701,187 1700,188 1699,189 1699,190 1699,191 1699,192 1700,193 1701,193 1702,193 1702,193 1703,192 1704,191 1705,190 1705,190 1704,189 1703,188 1703,187"/>
        <polygon class="pen1 brush2" fill-rule="nonzero" points="1714,187 1713,187 1712,188 1711,189 1711,190 1711,191 1711,192 1712,193 1713,193 1714,193 1714,193 1715,192 1716,191 1717,190 1717,190 1716,189 1715,188 1715,187"/>
        <polygon class="pen1 brush2" fill-rule="nonzero" points="1726,187 1725,187 1724,188 1723,189 1723,190 1723,191 1723,192 1724,193 1725,193 1726,193 1726,193 1727,192 1728,191 1729,190 1729,190 1728,189 1727,188 1727,187"/>
        <polygon class="pen1 brush2" fill-rule="nonzero" points="1738,187 1737,187 1736,188 1735,189 1735,190 1735,191 1735,192 1736,193 1737,193 1738,193 1738,193 1739,192 1740,191 1741,190 1741,190 1740,189 1739,188 1739,187"/>
        <polygon class="pen1 brush2" fill-rule="nonzero" points="1750,187 1749,187 1748,188 1747,189 1747,190 1747,191 1747,192 1748,193 1749,193 1750,193 1750,193 1751,192 1752,191 1753,190 1753,190 1752,189 1751,188 1751,187"/>
        <polygon class="pen1 brush2" fill-rule="nonzero" points="1762,187 1761,187 1760,188 1759,189 1759,190 1759,191 1759,192 1760,193 1761,193 1762,193 1762,193 1763,192 1764,191 1765,190 1765,190 1764,189 1763,188 1763,187"/>
        <polygon class="pen1 brush2" fill-rule="nonzero" points="1774,187 1773,187 1772,188 1771,189 1771,190 1771,191 1771,192 1772,193 1773,193 1774,193 1774,193 1775,192 1776,191 1777,190 1777,190 1776,189 1775,188 1775,187"/>
        <polygon class="pen1 brush2" fill-rule="nonzero" points="1786,187 1785,187 1784,188 1783,189 1783,190 1783,191 1783,192 1784,193 1785,193 1786,193 1786,193 1787,192 1788,191 1789,190 1789,190 1788,189 1787,188 1787,187"/>
        <polygon class="pen1 brush2" fill-rule="nonzero" points="1798,187 1797,187 1796,188 1795,189 1795,190 1795,191 1795,192 1796,193 1797,193 1798,193 1798,193 1799,192 1800,191 1801,190 1801,190 1800,189 1799,188 1799,187"/>
        <polygon class="pen1 brush2" fill-rule="nonzero" points="1810,187 1809,187 1808,188 1807,189 1807,190 1807,191 1807,192 1808,193 1809,193 1810,193 1810,193 1811,192 1812,191 1813,190 1813,190 1812,189 1811,188 1811,187"/>
        <polygon class="pen1 brush2" fill-rule="nonzero" points="1822,187 1821,187 1820,188 1819,189 1819,190 1819,191 1819,192 1820,193 1821,193 1822,193 1822,193 1823,192 1824,191 1825,190 1825,190 1824,189 1823,188 1823,187"/>
        <polygon class="pen1 brush2" fill-rule="nonzero" points="1834,187 1833,187 1832,188 1831,189 1831,190 1831,191 1831,192 1832,193 1833,193 1834,193 1834,193 1835,192 1836,191 1837,190 1837,190 1836,189 1835,188 1835,187"/>
        <polygon class="pen1 brush2" fill-rule="nonzero" points="1846,187 1845,187 1844,188 1843,189 1843,190 1843,191 1843,192 1844,193 1845,193 1846,193 1846,193 1847,192 1848,191 1849,190 1849,190 1848,189 1847,188 1847,187"/>
        <polygon class="pen1 brush2" fill-rule="nonzero" points="1858,187 1857,187 1856,188 1855,189 1855,190 1855,191 1855,192 1856,193 1857,193 1858,193 1858,193 1859,192 1860,191 1861,190 1861,190 1860,189 1859,188 1859,187"/>
        <polygon class="pen1 brush2" fill-rule="nonzero" points="1870,187 1869,187 1868,188 1867,189 1867,190 1867,191 1867,192 1868,193 1869,193 1870,193 1870,193 1871,192 1872,191 1873,190 1873,190 1872,189 1871,188 1871,187"/>
        <polygon class="pen1 brush2" fill-rule="nonzero" points="1882,187 1881,187 1880,188 1879,189 1879,190 1879,191 1879,192 1880,193 1881,193 1882,193 1882,193 1883,192 1884,191 1885,190 1885,190 1884,189 1883,188 1883,187"/>
        <polygon class="pen1 brush2" fill-rule="nonzero" points="1894,187 1893,187 1892,188 1891,189 1891,190 1891,191 1891,192 1892,193 1893,193 1894,193 1894,193 1895,192 1896,191 1897,190 1897,190 1896,189 1895,188 1895,187"/>
        <polygon class="pen1 brush2" fill-rule="nonzero" points="1906,187 1905,187 1904,188 1903,189 1903,190 1903,191 1903,192 1904,193 1905,193 1906,193 1906,193 1907,192 1908,191 1909,190 1909,190 1908,189 1907,188 1907,187"/>
        <polygon class="pen1 brush2" fill-rule="nonzero" points="1918,187 1917,187 1916,188 1915,189 1915,190 1915,191 1915,192 1916,193 1917,193 1918,193 1918,193 1919,192 1920,191 1921,190 1921,190 1920,189 1919,188 1919,187"/>
        <polygon class="pen1 brush2" fill-rule="nonzero" points="1930,187 1929,187 1928,188 1927,189 1927,190 1927,191 1927,192 1928,193 1929,193 1930,193 1930,193 1931,192 1932,191 1933,190 1933,190 1932,189 1931,188 1931,187"/>
        <polygon class="pen1 brush2" fill-rule="nonzero" points="1942,187 1941,187 1940,188 1939,189 1939,190 1939,191 1939,192 1940,193 1941,193 1942,193 1942,193 1943,192 1944,191 1945,190 1945,190 1944,189 1943,188 1943,187"/>
        <polygon class="pen1 brush2" fill-rule="nonzero" points="1954,187 1953,187 1952,188 1951,189 1951,190 1951,191 1951,192 1952,193 1953,193 1954,193 1954,193 1955,192 1956,191 1957,190 1957,190 1956,189 1955,188 1955,187"/>
        <polygon class="pen1 brush2" fill-rule="nonzero" points="1966,187 1965,187 1964,188 1963,189 1963,190 1963,191 1963,192 1964,193 1965,193 1966,193 1966,193 1967,192 1968,191 1969,190 1969,190 1968,189 1967,188 1967,187"/>
        <polygon class="pen1 brush2" fill-rule="nonzero" points="1978,187 1977,187 1976,188 1975,189 1975,190 1975,191 1975,192 1976,193 1977,193 1978,193 1978,193 1979,192 1980,191 1981,190 1981,190 1980,189 1979,188 1979,187"/>
        <polygon class="pen1 brush2" fill-rule="nonzero" points="1990,187 1989,187 1988,188 1987,189 1987,190 1987,191 1987,192 1988,193 1989,193 1990,193 1990,193 1991,192 1992,191 1993,190 1993,190 1992,189 1991,188 1991,187"/>
        <polygon class="pen1 brush2" fill-rule="nonzero" points="2002,187 2001,187 2000,188 1999,189 1999,190 1999,191 1999,192 2000,193 2001,193 2002,193 2002,193 2003,192 2004,191 2005,190 2005,190 2004,189 2003,188 2003,187"/>
        <polygon class="pen1 brush2" fill-rule="nonzero" points="2014,187 2013,187 2012,188 2011,189 2011,190 2011,191 2011,192 2012,193 2013,193 2014,193 2014,193 2015,192 2016,191 2017,190 2017,190 2016,189 2015,188 2015,187"/>
        <polygon class="pen1 brush2" fill-rule="nonzero" points="2026,187 2025,187 2024,188 2023,189 2023,190 2023,191 2023,192 2024,193 2025,193 2026,193 2026,193 2027,192 2028,191 2029,190 2029,190 2028,189 2027,188 2027,187"/>
        <polygon class="pen1 brush2" fill-rule="nonzero" points="2038,187 2037,187 2036,188 2035,189 2035,190 2035,191 2035,192 2036,193 2037,193 2038,193 2038,193 2039,192 2040,191 2041,190 2041,190 2040,189 2039,188 2039,187"/>
        <polygon class="pen1 brush2" fill-rule="nonzero" points="2050,187 2049,187 2048,188 2047,189 2047,190 2047,191 2047,192 2048,193 2049,193 2050,193 2050,193 2051,192 2052,191 2053,190 2053,190 2052,189 2051,188 2051,187"/>
        <polygon class="pen1 brush2" fill-rule="nonzero" points="2062,187 2061,187 2060,188 2059,189 2059,190 2059,191 2059,192 2060,193 2061,193 2062,193 2062,193 2063,192 2064,191 2065,190 2065,190 2064,189 2063,188 2063,187"/>
        <polygon class="pen1 brush2" fill-rule="nonzero" points="2074,187 2073,187 2072,188 2071,189 2071,190 2071,191 2071,192 2072,193 2073,193 2074,193 2074,193 2075,192 2076,191 2077,190 2077,190 2076,189 2075,188 2075,187"/>
        <polygon class="pen1 brush2" fill-rule="nonzero" points="2086,187 2085,187 2084,188 2083,189 2083,190 2083,191 2083,192 2084,193 2085,193 2086,193 2086,193 2087,192 2088,191 2089,190 2089,190 2088,189 2087,188 2087,187"/>
        <polygon class="pen1 brush2" fill-rule="nonzero" points="2098,187 2097,187 2096,188 2095,189 2095,190 2095,191 2095,192 2096,193 2097,193 2098,193 2098,193 2099,192 2100,191 2101,190 2101,190 2100,189 2099,188 2099,187"/>
        <polygon class="pen1 brush2" fill-rule="nonzero" points="2110,187 2109,187 2108,188 2107,189 2107,190 2107,191 2107,192 2108,193 2109,193 2110,193 2110,193 2111,192 2112,191 2113,190 2113,190 2112,189 2111,188 2111,187"/>
        <polygon class="pen1 brush2" fill-rule="nonzero" points="2122,187 2121,187 2120,188 2119,189 2119,190 2119,191 2119,192 2120,193 2121,193 2122,193 2122,193 2123,192 2124,191 2125,190 2125,190 2124,189 2123,188 2123,187"/>
        <polygon class="pen1 brush2" fill-rule="nonzero" points="2134,187 2133,187 2132,188 2131,189 2131,190 2131,191 2131,192 2132,193 2133,193 2134,193 2134,193 2135,192 2136,191 2137,190 2137,190 2136,189 2135,188 2135,187"/>
        <polygon class="pen1 brush2" fill-rule="nonzero" points="2146,187 2145,187 2144,188 2143,189 2143,190 2143,191 2143,192 2144,193 2145,193 2146,193 2146,193 2147,192 2148,191 2149,190 2149,190 2148,189 2147,188 2147,187"/>
        <polygon class="pen1 brush2" fill-rule="nonzero" points="2158,187 2157,187 2156,188 2155,189 2155,190 2155,191 2155,192 2156,193 2157,193 2158,193 2158,193 2159,192 2160,191 2161,190 2161,190 2160,189 2159,188 2159,187"/>
        <polyline class="pen3" fill="none" points="502,190 771,190"/>
        <polygon class="pen1 brush2" points="769,223 834,191 769,158"/>
        <polyline class="pen3" fill="none" points="897,190 1167,190"/>
        <polygon class="pen1 brush2" points="900,158 834,191 900,223"/>
        <rect class="pen2 brush0" height="167" width="500" x="3280" y="119"/>
        <g>
            <clipPath id="clipPath22">
                <rect height="99" width="373" x="3343" y="152"/>
            </clipPath>
            <text class="font10" clip-path="url(#clipPath22)" fill="rgb(0,0,0)" stroke="none" style="dominant-baseline: text-before-edge;" x="3415 3462 3496 3515 3544 3578 3612" xml:lang="en" xml:space="preserve" y="154">Antenna</text>
        </g>
        <g>
            <clipPath id="clipPath23">
                <rect height="99" width="373" x="3343" y="152"/>
            </clipPath>
            <text class="font10" clip-path="url(#clipPath23)" fill="rgb(0,0,0)" stroke="none" style="dominant-baseline: text-before-edge;" x="3642" xml:lang="en" xml:space="preserve" y="154"> </text>
        </g>
    </g>
    <g>
        <rect class="pen2 brush0" height="151" width="451" x="2164" y="119"/>
        <g>
            <clipPath id="clipPath24">
                <rect height="83" width="324" x="2227" y="152"/>
            </clipPath>
            <text class="font8" clip-path="url(#clipPath24)" fill="rgb(0,0,0)" stroke="none" style="dominant-baseline: text-before-edge;" x="2270 2317 2357 2399 2417 2457" xml:lang="en" xml:space="preserve" y="151">CableN</text>
        </g>
        <g>
            <clipPath id="clipPath25">
                <rect height="83" width="324" x="2227" y="152"/>
            </clipPath>
            <text class="font8" clip-path="url(#clipPath25)" fill="rgb(0,0,0)" stroke="none" style="dominant-baseline: text-before-edge;" x="2507" xml:lang="en" xml:space="preserve" y="151"> </text>
        </g>
    </g>
    <g>
        <polyline class="pen3" fill="none" points="2615,190 2885,190"/>
        <polygon class="pen1 brush2" points="2883,223 2948,191 2883,158"/>
        <polyline class="pen3" fill="none" points="3011,190 3280,190"/>
        <polygon class="pen1 brush2" points="3014,158 2948,191 3014,223"/>
        <rect class="pen1 brush1" height="143" width="476" x="2164" y="0"/>
        <g>
            <clipPath id="clipPath26">
                <rect height="82" width="354" x="2224" y="30"/>
            </clipPath>
            <text class="font2" clip-path="url(#clipPath26)" fill="rgb(0,0,0)" stroke="none" style="dominant-baseline: text-before-edge;" x="2270" xml:lang="en" xml:space="preserve" y="32">S</text>
        </g>
        <g>
            <clipPath id="clipPath27">
                <rect height="82" width="354" x="2224" y="30"/>
            </clipPath>
            <text class="font3" clip-path="url(#clipPath27)" fill="rgb(0,0,0)" stroke="none" style="dominant-baseline: text-before-edge;" x="2320 2348 2376 2401 2429 2457 2468 2496" xml:lang="en" xml:space="preserve" y="61">21cableN</text>
        </g>
        <g>
            <clipPath id="clipPath28">
                <rect height="82" width="354" x="2224" y="30"/>
            </clipPath>
            <text class="font2" clip-path="url(#clipPath28)" fill="rgb(0,0,0)" stroke="none" style="dominant-baseline: text-before-edge;" x="2532" xml:lang="en" xml:space="preserve" y="32"> </text>
        </g>
    </g>
    <g>
        <rect class="pen1 brush1" height="143" width="476" x="2178" y="225"/>
        <g>
            <clipPath id="clipPath29">
                <rect height="82" width="354" x="2238" y="255"/>
            </clipPath>
            <text class="font2" clip-path="url(#clipPath29)" fill="rgb(0,0,0)" stroke="none" style="dominant-baseline: text-before-edge;" x="2284" xml:lang="en" xml:space="preserve" y="257">S</text>
        </g>
        <g>
            <clipPath id="clipPath30">
                <rect height="82" width="354" x="2238" y="255"/>
            </clipPath>
            <text class="font3" clip-path="url(#clipPath30)" fill="rgb(0,0,0)" stroke="none" style="dominant-baseline: text-before-edge;" x="2334 2362 2390 2415 2443 2471 2482 2510" xml:lang="en" xml:space="preserve" y="286">12cableN</text>
        </g>
        <g>
            <clipPath id="clipPath31">
                <rect height="82" width="354" x="2238" y="255"/>
            </clipPath>
            <text class="font2" clip-path="url(#clipPath31)" fill="rgb(0,0,0)" stroke="none" style="dominant-baseline: text-before-edge;" x="2546" xml:lang="en" xml:space="preserve" y="257"> </text>
        </g>
    </g>
    <g/>
</svg>
