<?xml version="1.0"  encoding="UTF-8" standalone="no"?>
<svg version="1.1" xmlns="http://www.w3.org/2000/svg" xmlns:xlink="http://www.w3.org/1999/xlink" width="587.0000" height="423.0000">
<g transform="translate(-1.0000, -1.0000)">
<g transform="matrix(0.0625 0.0000 0.0000 0.0625 0.0000 0.0000)">
<path d="M 34.0000,30.0000 L 34.0000,2879.0000 L 9404.0000,2879.0000 L 9404.0000,30.0000 L 34.0000,30.0000 Z" stroke-width="1px" stroke="#E8EEF7"  fill="#E8EEF7" />
</g>
<g transform="matrix(1.0000 0.0000 0.0000 1.0000 0.0000 0.0000)">
</g>
<g transform="matrix(0.0625 0.0000 0.0000 0.0625 0.0000 0.0000)">
<path d="M 34.0000,3130.0000 L 34.0000,4916.0000 L 9404.0000,4916.0000 L 9404.0000,3130.0000 L 34.0000,3130.0000 Z" stroke-width="1px" stroke="#E8EEF7"  fill="#E8EEF7" />
</g>
<g transform="matrix(1.0000 0.0000 0.0000 1.0000 0.0000 0.0000)">
</g>
<g transform="matrix(0.0625 0.0000 0.0000 0.0625 0.0000 0.0000)">
<path d="M 30.0000,5284.0000 L 30.0000,6777.0000 L 5494.0000,6777.0000 L 5494.0000,5284.0000 L 30.0000,5284.0000 Z" stroke-width="1px" stroke="#E8EEF7"  fill="#E8EEF7" />
</g>
<g transform="matrix(1.0000 0.0000 0.0000 1.0000 0.0000 0.0000)">
</g>
<g transform="matrix(0.0625 0.0000 0.0000 0.0625 0.0000 0.0000)">
<path d="M 444.0000,522.0000 L 444.0000,1514.0000 L 2298.0000,1514.0000 L 2298.0000,522.0000 L 444.0000,522.0000 Z" stroke="#000000" stroke-width="6.0000"  stroke-linecap="round"  stroke-linejoin="round" fill="none" />
</g>
<g transform="matrix(1.0000 0.0000 0.0000 1.0000 0.0000 0.0000)">
<text font-family="Times New Roman" fill="#000000" style ="white-space:pre;" font-weight="400" text-anchor="start" x="53.0000" y="60.0000" font-size="13.0000" ><![CDATA[Set scenario]]></text>
<text font-family="Times New Roman" fill="#000000" style ="white-space:pre;" font-weight="400" text-anchor="start" x="36.0000" y="76.0000" font-size="13.0000" ><![CDATA[Import digital map]]></text>
</g>
<g transform="matrix(0.0625 0.0000 0.0000 0.0625 0.0000 0.0000)">
<path d="M 2884.0000,2714.0000 L 4282.0000,2714.0000 L 4282.0000,1840.0000 L 2884.0000,1840.0000 L 2884.0000,2714.0000 Z" stroke="#000000" stroke-width="4.0000"  stroke-linecap="round"  stroke-linejoin="round" fill="none" />
</g>
<g transform="matrix(1.0000 0.0000 0.0000 1.0000 0.0000 0.0000)">
<text font-family="Times New Roman" fill="#000000" style ="white-space:pre;" font-weight="400" text-anchor="start" x="192.0000" y="146.0000" font-size="13.0000" ><![CDATA[Ray]]></text>
<text font-family="Times New Roman" fill="#000000" style ="white-space:pre;" font-weight="400" text-anchor="start" x="214.0000" y="146.0000" font-size="13.0000" ><![CDATA[-]]></text>
<text font-family="Times New Roman" fill="#000000" style ="white-space:pre;" font-weight="400" text-anchor="start" x="218.0000" y="146.0000" font-size="13.0000" ><![CDATA[tracing]]></text>
</g>
<g transform="matrix(0.0625 0.0000 0.0000 0.0625 0.0000 0.0000)">
<path d="M 6229.0000,1514.0000 L 7892.0000,1514.0000 L 7892.0000,522.0000 L 6229.0000,522.0000 L 6229.0000,1514.0000 Z" stroke="#000000" stroke-width="4.0000"  stroke-linecap="round"  stroke-linejoin="round" fill="none" />
</g>
<g transform="matrix(1.0000 0.0000 0.0000 1.0000 0.0000 0.0000)">
<text font-family="Times New Roman" fill="#000000" style ="white-space:pre;" font-weight="400" text-anchor="start" x="417.0000" y="44.0000" font-size="13.0000" ><![CDATA[Generate ]]></text>
<text font-family="Times New Roman" fill="#000000" style ="white-space:pre;" font-weight="400" text-anchor="start" x="397.0000" y="60.0000" font-size="13.0000" ><![CDATA[correlated large]]></text>
<text font-family="Times New Roman" fill="#000000" style ="white-space:pre;" font-weight="400" text-anchor="start" x="481.0000" y="60.0000" font-size="13.0000" ><![CDATA[-]]></text>
<text font-family="Times New Roman" fill="#000000" style ="white-space:pre;" font-weight="400" text-anchor="start" x="397.0000" y="76.0000" font-size="13.0000" ><![CDATA[scale parameters ]]></text>
<text font-family="Times New Roman" fill="#000000" style ="white-space:pre;" font-weight="400" text-anchor="start" x="408.0000" y="92.0000" font-size="13.0000" ><![CDATA[(]]></text>
<text font-family="Times New Roman" fill="#000000" style ="white-space:pre;" font-weight="400" text-anchor="start" x="413.0000" y="92.0000" font-size="13.0000" ><![CDATA[DS]]></text>
<text font-family="Times New Roman" fill="#000000" style ="white-space:pre;" font-weight="400" text-anchor="start" x="430.0000" y="92.0000" font-size="13.0000" ><![CDATA[, ]]></text>
<text font-family="Times New Roman" fill="#000000" style ="white-space:pre;" font-weight="400" text-anchor="start" x="436.0000" y="92.0000" font-size="13.0000" ><![CDATA[AS]]></text>
<text font-family="Times New Roman" fill="#000000" style ="white-space:pre;" font-weight="400" text-anchor="start" x="453.0000" y="92.0000" font-size="13.0000" ><![CDATA[, ]]></text>
<text font-family="Times New Roman" fill="#000000" style ="white-space:pre;" font-weight="400" text-anchor="start" x="460.0000" y="92.0000" font-size="13.0000" ><![CDATA[K]]></text>
<text font-family="Times New Roman" fill="#000000" style ="white-space:pre;" font-weight="400" text-anchor="start" x="470.0000" y="92.0000" font-size="13.0000" ><![CDATA[)]]></text>
</g>
<g transform="matrix(0.0625 0.0000 0.0000 0.0625 0.0000 0.0000)">
<path d="M 2336.0000,5567.0000 L 2336.0000,6560.0000 L 3825.0000,6560.0000 L 3825.0000,5567.0000 L 2336.0000,5567.0000 Z" stroke-width="1px" stroke="#E8EEF7"  fill="#E8EEF7" />
</g>
<g transform="matrix(1.0000 0.0000 0.0000 1.0000 0.0000 0.0000)">
</g>
<g transform="matrix(0.0625 0.0000 0.0000 0.0625 0.0000 0.0000)">
<path d="M 295.0000,4476.0000 L 1429.0000,4476.0000 L 1429.0000,3484.0000 L 295.0000,3484.0000 L 295.0000,4476.0000 Z" stroke="#000000" stroke-width="4.0000"  stroke-linecap="round"  stroke-linejoin="round" fill="none" />
</g>
<g transform="matrix(1.0000 0.0000 0.0000 1.0000 0.0000 0.0000)">
<text font-family="Times New Roman" fill="#000000" style ="white-space:pre;" font-weight="400" text-anchor="start" x="30.0000" y="245.0000" font-size="13.0000" ><![CDATA[Generate ]]></text>
<text font-family="Times New Roman" fill="#000000" style ="white-space:pre;" font-weight="400" text-anchor="start" x="38.0000" y="261.0000" font-size="13.0000" ><![CDATA[XPRs]]></text>
</g>
<g transform="matrix(0.0625 0.0000 0.0000 0.0625 0.0000 0.0000)">
<path d="M 1807.0000,4488.0000 L 3054.0000,4488.0000 L 3054.0000,3496.0000 L 1807.0000,3496.0000 L 1807.0000,4488.0000 Z" stroke="#000000" stroke-width="4.0000"  stroke-linecap="round"  stroke-linejoin="round" fill="none" />
</g>
<g transform="matrix(1.0000 0.0000 0.0000 1.0000 0.0000 0.0000)">
<text font-family="Times New Roman" fill="#000000" style ="white-space:pre;" font-weight="400" text-anchor="start" x="130.0000" y="229.0000" font-size="13.0000" ><![CDATA[Perform ]]></text>
<text font-family="Times New Roman" fill="#000000" style ="white-space:pre;" font-weight="400" text-anchor="start" x="132.0000" y="245.0000" font-size="13.0000" ><![CDATA[random ]]></text>
<text font-family="Times New Roman" fill="#000000" style ="white-space:pre;" font-weight="400" text-anchor="start" x="121.0000" y="261.0000" font-size="13.0000" ><![CDATA[coupling of ]]></text>
<text font-family="Times New Roman" fill="#000000" style ="white-space:pre;" font-weight="400" text-anchor="start" x="141.0000" y="277.0000" font-size="13.0000" ><![CDATA[rays]]></text>
</g>
<g transform="matrix(0.0625 0.0000 0.0000 0.0625 0.0000 0.0000)">
<path d="M 3432.0000,4488.0000 L 4528.0000,4488.0000 L 4528.0000,3496.0000 L 3432.0000,3496.0000 L 3432.0000,4488.0000 Z" stroke="#000000" stroke-width="4.0000"  stroke-linecap="round"  stroke-linejoin="round" fill="none" />
</g>
<g transform="matrix(1.0000 0.0000 0.0000 1.0000 0.0000 0.0000)">
<text font-family="Times New Roman" fill="#000000" style ="white-space:pre;" font-weight="400" text-anchor="start" x="225.0000" y="237.0000" font-size="13.0000" ><![CDATA[Generate ]]></text>
<text font-family="Times New Roman" fill="#000000" style ="white-space:pre;" font-weight="400" text-anchor="start" x="224.0000" y="253.0000" font-size="13.0000" ><![CDATA[ray angle ]]></text>
<text font-family="Times New Roman" fill="#000000" style ="white-space:pre;" font-weight="400" text-anchor="start" x="231.0000" y="269.0000" font-size="13.0000" ><![CDATA[offset]]></text>
<text font-family="Times New Roman" fill="#000000" style ="white-space:pre;" font-weight="400" text-anchor="start" x="261.0000" y="269.0000" font-size="13.0000" ><![CDATA[s]]></text>
</g>
<g transform="matrix(0.0625 0.0000 0.0000 0.0625 0.0000 0.0000)">
<path d="M 8055.0000,4488.0000 L 9253.0000,4488.0000 L 9253.0000,3496.0000 L 8055.0000,3496.0000 L 8055.0000,4488.0000 Z" stroke="#000000" stroke-width="4.0000"  stroke-linecap="round"  stroke-linejoin="round" fill="none" />
</g>
<g transform="matrix(1.0000 0.0000 0.0000 1.0000 0.0000 0.0000)">
<text font-family="Times New Roman" fill="#000000" style ="white-space:pre;" font-weight="400" text-anchor="start" x="517.0000" y="237.0000" font-size="13.0000" ><![CDATA[Generate ]]></text>
<text font-family="Times New Roman" fill="#000000" style ="white-space:pre;" font-weight="400" text-anchor="start" x="523.0000" y="253.0000" font-size="13.0000" ><![CDATA[cluster ]]></text>
<text font-family="Times New Roman" fill="#000000" style ="white-space:pre;" font-weight="400" text-anchor="start" x="524.0000" y="269.0000" font-size="13.0000" ><![CDATA[power]]></text>
</g>
<g transform="matrix(0.0625 0.0000 0.0000 0.0625 0.0000 0.0000)">
<path d="M 8232.0000,1476.0000 L 9215.0000,1476.0000 L 9215.0000,484.0000 L 8232.0000,484.0000 L 8232.0000,1476.0000 Z" stroke="#000000" stroke-width="4.0000"  stroke-linecap="round"  stroke-linejoin="round" fill="none" />
</g>
<g transform="matrix(1.0000 0.0000 0.0000 1.0000 0.0000 0.0000)">
<text font-family="Times New Roman" fill="#000000" style ="white-space:pre;" font-weight="400" text-anchor="start" x="521.0000" y="49.0000" font-size="13.0000" ><![CDATA[Generate ]]></text>
<text font-family="Times New Roman" fill="#000000" style ="white-space:pre;" font-weight="400" text-anchor="start" x="527.0000" y="65.0000" font-size="13.0000" ><![CDATA[cluster ]]></text>
<text font-family="Times New Roman" fill="#000000" style ="white-space:pre;" font-weight="400" text-anchor="start" x="528.0000" y="81.0000" font-size="13.0000" ><![CDATA[delays]]></text>
</g>
<g transform="matrix(0.0625 0.0000 0.0000 0.0625 0.0000 0.0000)">
<path d="M 144.0000,6560.0000 L 1542.0000,6560.0000 L 1542.0000,5567.0000 L 144.0000,5567.0000 L 144.0000,6560.0000 Z" stroke="#000000" stroke-width="4.0000"  stroke-linecap="round"  stroke-linejoin="round" fill="none" />
</g>
<g transform="matrix(1.0000 0.0000 0.0000 1.0000 0.0000 0.0000)">
<text font-family="Times New Roman" fill="#000000" style ="white-space:pre;" font-weight="400" text-anchor="start" x="16.0000" y="375.0000" font-size="13.0000" ><![CDATA[Draw random ]]></text>
<text font-family="Times New Roman" fill="#000000" style ="white-space:pre;" font-weight="400" text-anchor="start" x="18.0000" y="391.0000" font-size="13.0000" ><![CDATA[initial phases]]></text>
</g>
<g transform="matrix(0.0625 0.0000 0.0000 0.0625 0.0000 0.0000)">
<path d="M 2361.0000,6560.0000 L 3849.0000,6560.0000 L 3849.0000,5567.0000 L 2361.0000,5567.0000 L 2361.0000,6560.0000 Z" stroke="#000000" stroke-width="4.0000"  stroke-linecap="round"  stroke-linejoin="round" fill="none" />
</g>
<g transform="matrix(1.0000 0.0000 0.0000 1.0000 0.0000 0.0000)">
<text font-family="Times New Roman" fill="#000000" style ="white-space:pre;" font-weight="400" text-anchor="start" x="170.0000" y="367.0000" font-size="13.0000" ><![CDATA[Generate ]]></text>
<text font-family="Times New Roman" fill="#000000" style ="white-space:pre;" font-weight="400" text-anchor="start" x="173.0000" y="383.0000" font-size="13.0000" ><![CDATA[channel ]]></text>
<text font-family="Times New Roman" fill="#000000" style ="white-space:pre;" font-weight="400" text-anchor="start" x="166.0000" y="399.0000" font-size="13.0000" ><![CDATA[coefficient]]></text>
</g>
<g transform="matrix(0.0625 0.0000 0.0000 0.0625 0.0000 0.0000)">
<path d="M 8723.0000,1476.0000 L 8723.0000,3367.0000 " stroke="#000000" stroke-width="6.0000"  stroke-linecap="round"  stroke-linejoin="round" fill="none" />
</g>
<g transform="matrix(1.0000 0.0000 0.0000 1.0000 0.0000 0.0000)">
</g>
<g transform="matrix(0.0625 0.0000 0.0000 0.0625 0.0000 0.0000)">
<path d="M 8797.0000,3349.0000 L 8723.0000,3496.0000 L 8650.0000,3349.0000 L 8797.0000,3349.0000 Z" stroke-width="1px" stroke="#000000"  fill="#000000" />
</g>
<g transform="matrix(1.0000 0.0000 0.0000 1.0000 0.0000 0.0000)">
</g>
<g transform="matrix(0.0625 0.0000 0.0000 0.0625 0.0000 0.0000)">
<path d="M 7892.0000,999.0000 L 8103.0000,999.0000 " stroke="#000000" stroke-width="6.0000"  stroke-linecap="round"  stroke-linejoin="round" fill="none" />
</g>
<g transform="matrix(1.0000 0.0000 0.0000 1.0000 0.0000 0.0000)">
</g>
<g transform="matrix(0.0625 0.0000 0.0000 0.0625 0.0000 0.0000)">
<path d="M 8085.0000,925.0000 L 8232.0000,999.0000 L 8085.0000,1073.0000 L 8085.0000,925.0000 Z" stroke-width="1px" stroke="#000000"  fill="#000000" />
</g>
<g transform="matrix(1.0000 0.0000 0.0000 1.0000 0.0000 0.0000)">
</g>
<g transform="matrix(0.0625 0.0000 0.0000 0.0625 0.0000 0.0000)">
<path d="M 5473.0000,1240.0000 L 5473.0000,3367.0000 " stroke="#000000" stroke-width="6.0000"  stroke-linecap="round"  stroke-linejoin="round" fill="none" />
</g>
<g transform="matrix(1.0000 0.0000 0.0000 1.0000 0.0000 0.0000)">
</g>
<g transform="matrix(0.0625 0.0000 0.0000 0.0625 0.0000 0.0000)">
<path d="M 5547.0000,3349.0000 L 5473.0000,3496.0000 L 5399.0000,3349.0000 L 5547.0000,3349.0000 Z" stroke-width="1px" stroke="#000000"  fill="#000000" />
</g>
<g transform="matrix(1.0000 0.0000 0.0000 1.0000 0.0000 0.0000)">
</g>
<g transform="matrix(0.0625 0.0000 0.0000 0.0625 0.0000 0.0000)">
<path d="M 3432.0000,3991.0000 L 3183.0000,3991.0000 " stroke="#000000" stroke-width="6.0000"  stroke-linecap="round"  stroke-linejoin="round" fill="none" />
</g>
<g transform="matrix(1.0000 0.0000 0.0000 1.0000 0.0000 0.0000)">
</g>
<g transform="matrix(0.0625 0.0000 0.0000 0.0625 0.0000 0.0000)">
<path d="M 3201.0000,4065.0000 L 3054.0000,3991.0000 L 3201.0000,3918.0000 L 3201.0000,4065.0000 Z" stroke-width="1px" stroke="#000000"  fill="#000000" />
</g>
<g transform="matrix(1.0000 0.0000 0.0000 1.0000 0.0000 0.0000)">
</g>
<g transform="matrix(0.0625 0.0000 0.0000 0.0625 0.0000 0.0000)">
<path d="M 1807.0000,3986.0000 L 1558.0000,3986.0000 " stroke="#000000" stroke-width="6.0000"  stroke-linecap="round"  stroke-linejoin="round" fill="none" />
</g>
<g transform="matrix(1.0000 0.0000 0.0000 1.0000 0.0000 0.0000)">
</g>
<g transform="matrix(0.0625 0.0000 0.0000 0.0625 0.0000 0.0000)">
<path d="M 1576.0000,4060.0000 L 1429.0000,3986.0000 L 1576.0000,3913.0000 L 1576.0000,4060.0000 Z" stroke-width="1px" stroke="#000000"  fill="#000000" />
</g>
<g transform="matrix(1.0000 0.0000 0.0000 1.0000 0.0000 0.0000)">
</g>
<g transform="matrix(0.0625 0.0000 0.0000 0.0625 0.0000 0.0000)">
<path d="M 862.0000,4476.0000 L 862.0000,5439.0000 " stroke="#000000" stroke-width="6.0000"  stroke-linecap="round"  stroke-linejoin="round" fill="none" />
</g>
<g transform="matrix(1.0000 0.0000 0.0000 1.0000 0.0000 0.0000)">
</g>
<g transform="matrix(0.0625 0.0000 0.0000 0.0625 0.0000 0.0000)">
<path d="M 936.0000,5420.0000 L 862.0000,5567.0000 L 788.0000,5420.0000 L 936.0000,5420.0000 Z" stroke-width="1px" stroke="#000000"  fill="#000000" />
</g>
<g transform="matrix(1.0000 0.0000 0.0000 1.0000 0.0000 0.0000)">
</g>
<g transform="matrix(0.0625 0.0000 0.0000 0.0625 0.0000 0.0000)">
<path d="M 1542.0000,6063.0000 L 2232.0000,6063.0000 " stroke="#000000" stroke-width="6.0000"  stroke-linecap="round"  stroke-linejoin="round" fill="none" />
</g>
<g transform="matrix(1.0000 0.0000 0.0000 1.0000 0.0000 0.0000)">
</g>
<g transform="matrix(0.0625 0.0000 0.0000 0.0625 0.0000 0.0000)">
<path d="M 2213.0000,5990.0000 L 2361.0000,6063.0000 L 2213.0000,6137.0000 L 2213.0000,5990.0000 Z" stroke-width="1px" stroke="#000000"  fill="#000000" />
</g>
<g transform="matrix(1.0000 0.0000 0.0000 1.0000 0.0000 0.0000)">
</g>
<g transform="matrix(0.0625 0.0000 0.0000 0.0625 0.0000 0.0000)">
<path d="M 2839.0000,1542.0000 L 4328.0000,1542.0000 L 4328.0000,496.0000 L 2839.0000,496.0000 L 2839.0000,1542.0000 Z" stroke="#000000" stroke-width="4.0000"  stroke-linecap="round"  stroke-linejoin="round" fill="none" />
</g>
<g transform="matrix(1.0000 0.0000 0.0000 1.0000 0.0000 0.0000)">
<text font-family="Times New Roman" fill="#000000" style ="white-space:pre;" font-weight="400" text-anchor="start" x="192.0000" y="44.0000" font-size="13.0000" ><![CDATA[Set n]]></text>
<text font-family="Times New Roman" fill="#000000" style ="white-space:pre;" font-weight="400" text-anchor="start" x="219.0000" y="44.0000" font-size="13.0000" ><![CDATA[etwork ]]></text>
<text font-family="Times New Roman" fill="#000000" style ="white-space:pre;" font-weight="400" text-anchor="start" x="207.0000" y="60.0000" font-size="13.0000" ><![CDATA[layout]]></text>
<text font-family="Times New Roman" fill="#000000" style ="white-space:pre;" font-weight="400" text-anchor="start" x="201.0000" y="76.0000" font-size="13.0000" ><![CDATA[Antenna ]]></text>
<text font-family="Times New Roman" fill="#000000" style ="white-space:pre;" font-weight="400" text-anchor="start" x="195.0000" y="92.0000" font-size="13.0000" ><![CDATA[parameters]]></text>
</g>
<g transform="matrix(0.0625 0.0000 0.0000 0.0625 0.0000 0.0000)">
<path d="M 3583.0000,1542.0000 L 3583.0000,1711.0000 " stroke="#000000" stroke-width="6.0000"  stroke-linecap="round"  stroke-linejoin="round" fill="none" />
</g>
<g transform="matrix(1.0000 0.0000 0.0000 1.0000 0.0000 0.0000)">
</g>
<g transform="matrix(0.0625 0.0000 0.0000 0.0625 0.0000 0.0000)">
<path d="M 3657.0000,1693.0000 L 3583.0000,1840.0000 L 3510.0000,1693.0000 L 3657.0000,1693.0000 Z" stroke-width="1px" stroke="#000000"  fill="#000000" />
</g>
<g transform="matrix(1.0000 0.0000 0.0000 1.0000 0.0000 0.0000)">
</g>
<g transform="matrix(0.0625 0.0000 0.0000 0.0625 0.0000 0.0000)">
<path d="M 4339.0000,1013.0000 L 6100.0000,1013.0000 " stroke="#000000" stroke-width="6.0000"  stroke-linecap="round"  stroke-linejoin="round" fill="none" />
</g>
<g transform="matrix(1.0000 0.0000 0.0000 1.0000 0.0000 0.0000)">
</g>
<g transform="matrix(0.0625 0.0000 0.0000 0.0625 0.0000 0.0000)">
<path d="M 6082.0000,940.0000 L 6229.0000,1013.0000 L 6082.0000,1087.0000 L 6082.0000,940.0000 Z" stroke-width="1px" stroke="#000000"  fill="#000000" />
</g>
<g transform="matrix(1.0000 0.0000 0.0000 1.0000 0.0000 0.0000)">
</g>
<g transform="matrix(0.0625 0.0000 0.0000 0.0625 0.0000 0.0000)">
<path d="M 6531.0000,4488.0000 L 7703.0000,4488.0000 L 7703.0000,3496.0000 L 6531.0000,3496.0000 L 6531.0000,4488.0000 Z" stroke="#000000" stroke-width="4.0000"  stroke-linecap="round"  stroke-linejoin="round" fill="none" />
</g>
<g transform="matrix(1.0000 0.0000 0.0000 1.0000 0.0000 0.0000)">
<text font-family="Times New Roman" fill="#000000" style ="white-space:pre;" font-weight="400" text-anchor="start" x="421.0000" y="237.0000" font-size="13.0000" ><![CDATA[Generate ]]></text>
<text font-family="Times New Roman" fill="#000000" style ="white-space:pre;" font-weight="400" text-anchor="start" x="427.0000" y="253.0000" font-size="13.0000" ><![CDATA[cluster ]]></text>
<text font-family="Times New Roman" fill="#000000" style ="white-space:pre;" font-weight="400" text-anchor="start" x="428.0000" y="269.0000" font-size="13.0000" ><![CDATA[angles]]></text>
</g>
<g transform="matrix(0.0625 0.0000 0.0000 0.0625 0.0000 0.0000)">
<path d="M 8055.0000,3992.0000 L 7832.0000,3992.0000 " stroke="#000000" stroke-width="6.0000"  stroke-linecap="round"  stroke-linejoin="round" fill="none" />
</g>
<g transform="matrix(1.0000 0.0000 0.0000 1.0000 0.0000 0.0000)">
</g>
<g transform="matrix(0.0625 0.0000 0.0000 0.0625 0.0000 0.0000)">
<path d="M 7850.0000,4066.0000 L 7703.0000,3992.0000 L 7850.0000,3919.0000 L 7850.0000,4066.0000 Z" stroke-width="1px" stroke="#000000"  fill="#000000" />
</g>
<g transform="matrix(1.0000 0.0000 0.0000 1.0000 0.0000 0.0000)">
</g>
<g transform="matrix(0.0625 0.0000 0.0000 0.0625 0.0000 0.0000)">
<path d="M 6012.0000,163.0000 L 6012.0000,297.0000 C 6012.0000,303.0000 6007.0000,307.0000 6002.0000,307.0000 C 5997.0000,307.0000 5993.0000,303.0000 5993.0000,297.0000 L 5993.0000,163.0000 C 5993.0000,158.0000 5997.0000,153.0000 6002.0000,153.0000 C 6007.0000,153.0000 6012.0000,158.0000 6012.0000,163.0000 Z M 6012.0000,393.0000 L 6012.0000,393.0000 C 6012.0000,399.0000 6007.0000,403.0000 6002.0000,403.0000 C 5997.0000,403.0000 5993.0000,399.0000 5993.0000,393.0000 L 5993.0000,393.0000 C 5993.0000,388.0000 5997.0000,384.0000 6002.0000,384.0000 C 6007.0000,384.0000 6012.0000,388.0000 6012.0000,393.0000 Z M 6012.0000,489.0000 L 6012.0000,489.0000 C 6012.0000,495.0000 6007.0000,499.0000 6002.0000,499.0000 C 5997.0000,499.0000 5993.0000,495.0000 5993.0000,489.0000 L 5993.0000,489.0000 C 5993.0000,484.0000 5997.0000,480.0000 6002.0000,480.0000 C 6007.0000,480.0000 6012.0000,484.0000 6012.0000,489.0000 Z M 6012.0000,585.0000 L 6012.0000,720.0000 C 6012.0000,725.0000 6007.0000,729.0000 6002.0000,729.0000 C 5997.0000,729.0000 5993.0000,725.0000 5993.0000,720.0000 L 5993.0000,585.0000 C 5993.0000,580.0000 5997.0000,576.0000 6002.0000,576.0000 C 6007.0000,576.0000 6012.0000,580.0000 6012.0000,585.0000 Z M 6012.0000,816.0000 L 6012.0000,816.0000 C 6012.0000,821.0000 6007.0000,826.0000 6002.0000,826.0000 C 5997.0000,826.0000 5993.0000,821.0000 5993.0000,816.0000 L 5993.0000,816.0000 C 5993.0000,811.0000 5997.0000,806.0000 6002.0000,806.0000 C 6007.0000,806.0000 6012.0000,811.0000 6012.0000,816.0000 Z M 6012.0000,912.0000 L 6012.0000,912.0000 C 6012.0000,917.0000 6007.0000,922.0000 6002.0000,922.0000 C 5997.0000,922.0000 5993.0000,917.0000 5993.0000,912.0000 L 5993.0000,912.0000 C 5993.0000,907.0000 5997.0000,902.0000 6002.0000,902.0000 C 6007.0000,902.0000 6012.0000,907.0000 6012.0000,912.0000 Z M 6012.0000,1008.0000 L 6012.0000,1142.0000 C 6012.0000,1148.0000 6007.0000,1152.0000 6002.0000,1152.0000 C 5997.0000,1152.0000 5993.0000,1148.0000 5993.0000,1142.0000 L 5993.0000,1008.0000 C 5993.0000,1003.0000 5997.0000,998.0000 6002.0000,998.0000 C 6007.0000,998.0000 6012.0000,1003.0000 6012.0000,1008.0000 Z M 6012.0000,1238.0000 L 6012.0000,1238.0000 C 6012.0000,1244.0000 6007.0000,1248.0000 6002.0000,1248.0000 C 5997.0000,1248.0000 5993.0000,1244.0000 5993.0000,1238.0000 L 5993.0000,1238.0000 C 5993.0000,1233.0000 5997.0000,1229.0000 6002.0000,1229.0000 C 6007.0000,1229.0000 6012.0000,1233.0000 6012.0000,1238.0000 Z M 6012.0000,1334.0000 L 6012.0000,1334.0000 C 6012.0000,1340.0000 6007.0000,1344.0000 6002.0000,1344.0000 C 5997.0000,1344.0000 5993.0000,1340.0000 5993.0000,1334.0000 L 5993.0000,1334.0000 C 5993.0000,1329.0000 5997.0000,1325.0000 6002.0000,1325.0000 C 6007.0000,1325.0000 6012.0000,1329.0000 6012.0000,1334.0000 Z M 6012.0000,1430.0000 L 6012.0000,1565.0000 C 6012.0000,1570.0000 6007.0000,1574.0000 6002.0000,1574.0000 C 5997.0000,1574.0000 5993.0000,1570.0000 5993.0000,1565.0000 L 5993.0000,1430.0000 C 5993.0000,1425.0000 5997.0000,1421.0000 6002.0000,1421.0000 C 6007.0000,1421.0000 6012.0000,1425.0000 6012.0000,1430.0000 Z M 6012.0000,1661.0000 L 6012.0000,1661.0000 C 6012.0000,1666.0000 6007.0000,1670.0000 6002.0000,1670.0000 C 5997.0000,1670.0000 5993.0000,1666.0000 5993.0000,1661.0000 L 5993.0000,1661.0000 C 5993.0000,1655.0000 5997.0000,1651.0000 6002.0000,1651.0000 C 6007.0000,1651.0000 6012.0000,1655.0000 6012.0000,1661.0000 Z M 6012.0000,1757.0000 L 6012.0000,1757.0000 C 6012.0000,1762.0000 6007.0000,1766.0000 6002.0000,1766.0000 C 5997.0000,1766.0000 5993.0000,1762.0000 5993.0000,1757.0000 L 5993.0000,1757.0000 C 5993.0000,1751.0000 5997.0000,1747.0000 6002.0000,1747.0000 C 6007.0000,1747.0000 6012.0000,1751.0000 6012.0000,1757.0000 Z M 6012.0000,1853.0000 L 6012.0000,1987.0000 C 6012.0000,1993.0000 6007.0000,1997.0000 6002.0000,1997.0000 C 5997.0000,1997.0000 5993.0000,1993.0000 5993.0000,1987.0000 L 5993.0000,1853.0000 C 5993.0000,1848.0000 5997.0000,1843.0000 6002.0000,1843.0000 C 6007.0000,1843.0000 6012.0000,1848.0000 6012.0000,1853.0000 Z M 6012.0000,2083.0000 L 6012.0000,2083.0000 C 6012.0000,2089.0000 6007.0000,2093.0000 6002.0000,2093.0000 C 5997.0000,2093.0000 5993.0000,2089.0000 5993.0000,2083.0000 L 5993.0000,2083.0000 C 5993.0000,2078.0000 5997.0000,2074.0000 6002.0000,2074.0000 C 6007.0000,2074.0000 6012.0000,2078.0000 6012.0000,2083.0000 Z M 6012.0000,2179.0000 L 6012.0000,2179.0000 C 6012.0000,2185.0000 6007.0000,2189.0000 6002.0000,2189.0000 C 5997.0000,2189.0000 5993.0000,2185.0000 5993.0000,2179.0000 L 5993.0000,2179.0000 C 5993.0000,2174.0000 5997.0000,2170.0000 6002.0000,2170.0000 C 6007.0000,2170.0000 6012.0000,2174.0000 6012.0000,2179.0000 Z M 6012.0000,2275.0000 L 6012.0000,2410.0000 C 6012.0000,2415.0000 6007.0000,2419.0000 6002.0000,2419.0000 C 5997.0000,2419.0000 5993.0000,2415.0000 5993.0000,2410.0000 L 5993.0000,2275.0000 C 5993.0000,2270.0000 5997.0000,2266.0000 6002.0000,2266.0000 C 6007.0000,2266.0000 6012.0000,2270.0000 6012.0000,2275.0000 Z M 6012.0000,2506.0000 L 6012.0000,2506.0000 C 6012.0000,2511.0000 6007.0000,2515.0000 6002.0000,2515.0000 C 5997.0000,2515.0000 5993.0000,2511.0000 5993.0000,2506.0000 L 5993.0000,2506.0000 C 5993.0000,2500.0000 5997.0000,2496.0000 6002.0000,2496.0000 C 6007.0000,2496.0000 6012.0000,2500.0000 6012.0000,2506.0000 Z M 6012.0000,2602.0000 L 6012.0000,2602.0000 C 6012.0000,2607.0000 6007.0000,2611.0000 6002.0000,2611.0000 C 5997.0000,2611.0000 5993.0000,2607.0000 5993.0000,2602.0000 L 5993.0000,2602.0000 C 5993.0000,2596.0000 5997.0000,2592.0000 6002.0000,2592.0000 C 6007.0000,2592.0000 6012.0000,2596.0000 6012.0000,2602.0000 Z M 6012.0000,2698.0000 L 6012.0000,2832.0000 C 6012.0000,2837.0000 6007.0000,2842.0000 6002.0000,2842.0000 C 5997.0000,2842.0000 5993.0000,2837.0000 5993.0000,2832.0000 L 5993.0000,2698.0000 C 5993.0000,2692.0000 5997.0000,2688.0000 6002.0000,2688.0000 C 6007.0000,2688.0000 6012.0000,2692.0000 6012.0000,2698.0000 Z M 6012.0000,2928.0000 L 6012.0000,2928.0000 C 6012.0000,2933.0000 6007.0000,2938.0000 6002.0000,2938.0000 C 5997.0000,2938.0000 5993.0000,2933.0000 5993.0000,2928.0000 L 5993.0000,2928.0000 C 5993.0000,2923.0000 5997.0000,2918.0000 6002.0000,2918.0000 C 6007.0000,2918.0000 6012.0000,2923.0000 6012.0000,2928.0000 Z M 6012.0000,3024.0000 L 6012.0000,3024.0000 C 6012.0000,3029.0000 6007.0000,3034.0000 6002.0000,3034.0000 C 5997.0000,3034.0000 5993.0000,3029.0000 5993.0000,3024.0000 L 5993.0000,3024.0000 C 5993.0000,3019.0000 5997.0000,3015.0000 6002.0000,3015.0000 C 6007.0000,3015.0000 6012.0000,3019.0000 6012.0000,3024.0000 Z M 6012.0000,3120.0000 L 6012.0000,3255.0000 C 6012.0000,3260.0000 6007.0000,3264.0000 6002.0000,3264.0000 C 5997.0000,3264.0000 5993.0000,3260.0000 5993.0000,3255.0000 L 5993.0000,3120.0000 C 5993.0000,3115.0000 5997.0000,3111.0000 6002.0000,3111.0000 C 6007.0000,3111.0000 6012.0000,3115.0000 6012.0000,3120.0000 Z M 6012.0000,3351.0000 L 6012.0000,3351.0000 C 6012.0000,3356.0000 6007.0000,3360.0000 6002.0000,3360.0000 C 5997.0000,3360.0000 5993.0000,3356.0000 5993.0000,3351.0000 L 5993.0000,3351.0000 C 5993.0000,3345.0000 5997.0000,3341.0000 6002.0000,3341.0000 C 6007.0000,3341.0000 6012.0000,3345.0000 6012.0000,3351.0000 Z M 6012.0000,3447.0000 L 6012.0000,3447.0000 C 6012.0000,3452.0000 6007.0000,3456.0000 6002.0000,3456.0000 C 5997.0000,3456.0000 5993.0000,3452.0000 5993.0000,3447.0000 L 5993.0000,3447.0000 C 5993.0000,3441.0000 5997.0000,3437.0000 6002.0000,3437.0000 C 6007.0000,3437.0000 6012.0000,3441.0000 6012.0000,3447.0000 Z M 6012.0000,3543.0000 L 6012.0000,3677.0000 C 6012.0000,3682.0000 6007.0000,3687.0000 6002.0000,3687.0000 C 5997.0000,3687.0000 5993.0000,3682.0000 5993.0000,3677.0000 L 5993.0000,3543.0000 C 5993.0000,3537.0000 5997.0000,3533.0000 6002.0000,3533.0000 C 6007.0000,3533.0000 6012.0000,3537.0000 6012.0000,3543.0000 Z M 6012.0000,3773.0000 L 6012.0000,3773.0000 C 6012.0000,3778.0000 6007.0000,3783.0000 6002.0000,3783.0000 C 5997.0000,3783.0000 5993.0000,3778.0000 5993.0000,3773.0000 L 5993.0000,3773.0000 C 5993.0000,3768.0000 5997.0000,3763.0000 6002.0000,3763.0000 C 6007.0000,3763.0000 6012.0000,3768.0000 6012.0000,3773.0000 Z M 6012.0000,3869.0000 L 6012.0000,3869.0000 C 6012.0000,3874.0000 6007.0000,3879.0000 6002.0000,3879.0000 C 5997.0000,3879.0000 5993.0000,3874.0000 5993.0000,3869.0000 L 5993.0000,3869.0000 C 5993.0000,3864.0000 5997.0000,3859.0000 6002.0000,3859.0000 C 6007.0000,3859.0000 6012.0000,3864.0000 6012.0000,3869.0000 Z M 6012.0000,3965.0000 L 6012.0000,4099.0000 C 6012.0000,4105.0000 6007.0000,4109.0000 6002.0000,4109.0000 C 5997.0000,4109.0000 5993.0000,4105.0000 5993.0000,4099.0000 L 5993.0000,3965.0000 C 5993.0000,3960.0000 5997.0000,3955.0000 6002.0000,3955.0000 C 6007.0000,3955.0000 6012.0000,3960.0000 6012.0000,3965.0000 Z M 6012.0000,4195.0000 L 6012.0000,4195.0000 C 6012.0000,4201.0000 6007.0000,4205.0000 6002.0000,4205.0000 C 5997.0000,4205.0000 5993.0000,4201.0000 5993.0000,4195.0000 L 5993.0000,4195.0000 C 5993.0000,4190.0000 5997.0000,4186.0000 6002.0000,4186.0000 C 6007.0000,4186.0000 6012.0000,4190.0000 6012.0000,4195.0000 Z M 6012.0000,4291.0000 L 6012.0000,4291.0000 C 6012.0000,4297.0000 6007.0000,4301.0000 6002.0000,4301.0000 C 5997.0000,4301.0000 5993.0000,4297.0000 5993.0000,4291.0000 L 5993.0000,4291.0000 C 5993.0000,4286.0000 5997.0000,4282.0000 6002.0000,4282.0000 C 6007.0000,4282.0000 6012.0000,4286.0000 6012.0000,4291.0000 Z M 6012.0000,4387.0000 L 6012.0000,4522.0000 C 6012.0000,4527.0000 6007.0000,4531.0000 6002.0000,4531.0000 C 5997.0000,4531.0000 5993.0000,4527.0000 5993.0000,4522.0000 L 5993.0000,4387.0000 C 5993.0000,4382.0000 5997.0000,4378.0000 6002.0000,4378.0000 C 6007.0000,4378.0000 6012.0000,4382.0000 6012.0000,4387.0000 Z M 6012.0000,4618.0000 L 6012.0000,4618.0000 C 6012.0000,4623.0000 6007.0000,4627.0000 6002.0000,4627.0000 C 5997.0000,4627.0000 5993.0000,4623.0000 5993.0000,4618.0000 L 5993.0000,4618.0000 C 5993.0000,4613.0000 5997.0000,4608.0000 6002.0000,4608.0000 C 6007.0000,4608.0000 6012.0000,4613.0000 6012.0000,4618.0000 Z M 6006.0000,4700.0000 L 6006.0000,4700.0000 C 6011.0000,4700.0000 6016.0000,4705.0000 6016.0000,4710.0000 C 6016.0000,4715.0000 6011.0000,4720.0000 6006.0000,4720.0000 L 6006.0000,4720.0000 C 6001.0000,4720.0000 5996.0000,4715.0000 5996.0000,4710.0000 C 5996.0000,4705.0000 6001.0000,4700.0000 6006.0000,4700.0000 Z M 6102.0000,4700.0000 L 6236.0000,4700.0000 C 6242.0000,4700.0000 6246.0000,4705.0000 6246.0000,4710.0000 C 6246.0000,4715.0000 6242.0000,4720.0000 6236.0000,4720.0000 L 6102.0000,4720.0000 C 6097.0000,4720.0000 6092.0000,4715.0000 6092.0000,4710.0000 C 6092.0000,4705.0000 6097.0000,4700.0000 6102.0000,4700.0000 Z M 6332.0000,4700.0000 L 6332.0000,4700.0000 C 6338.0000,4700.0000 6342.0000,4705.0000 6342.0000,4710.0000 C 6342.0000,4715.0000 6338.0000,4720.0000 6332.0000,4720.0000 L 6332.0000,4720.0000 C 6327.0000,4720.0000 6323.0000,4715.0000 6323.0000,4710.0000 C 6323.0000,4705.0000 6327.0000,4700.0000 6332.0000,4700.0000 Z M 6428.0000,4700.0000 L 6428.0000,4700.0000 C 6434.0000,4700.0000 6438.0000,4705.0000 6438.0000,4710.0000 C 6438.0000,4715.0000 6434.0000,4720.0000 6428.0000,4720.0000 L 6428.0000,4720.0000 C 6423.0000,4720.0000 6419.0000,4715.0000 6419.0000,4710.0000 C 6419.0000,4705.0000 6423.0000,4700.0000 6428.0000,4700.0000 Z M 6524.0000,4700.0000 L 6659.0000,4700.0000 C 6664.0000,4700.0000 6668.0000,4705.0000 6668.0000,4710.0000 C 6668.0000,4715.0000 6664.0000,4720.0000 6659.0000,4720.0000 L 6524.0000,4720.0000 C 6519.0000,4720.0000 6515.0000,4715.0000 6515.0000,4710.0000 C 6515.0000,4705.0000 6519.0000,4700.0000 6524.0000,4700.0000 Z M 6755.0000,4700.0000 L 6755.0000,4700.0000 C 6760.0000,4700.0000 6764.0000,4705.0000 6764.0000,4710.0000 C 6764.0000,4715.0000 6760.0000,4720.0000 6755.0000,4720.0000 L 6755.0000,4720.0000 C 6749.0000,4720.0000 6745.0000,4715.0000 6745.0000,4710.0000 C 6745.0000,4705.0000 6749.0000,4700.0000 6755.0000,4700.0000 Z M 6851.0000,4700.0000 L 6851.0000,4700.0000 C 6856.0000,4700.0000 6860.0000,4705.0000 6860.0000,4710.0000 C 6860.0000,4715.0000 6856.0000,4720.0000 6851.0000,4720.0000 L 6851.0000,4720.0000 C 6845.0000,4720.0000 6841.0000,4715.0000 6841.0000,4710.0000 C 6841.0000,4705.0000 6845.0000,4700.0000 6851.0000,4700.0000 Z M 6947.0000,4700.0000 L 7081.0000,4700.0000 C 7087.0000,4700.0000 7091.0000,4705.0000 7091.0000,4710.0000 C 7091.0000,4715.0000 7087.0000,4720.0000 7081.0000,4720.0000 L 6947.0000,4720.0000 C 6942.0000,4720.0000 6937.0000,4715.0000 6937.0000,4710.0000 C 6937.0000,4705.0000 6942.0000,4700.0000 6947.0000,4700.0000 Z M 7177.0000,4700.0000 L 7177.0000,4700.0000 C 7183.0000,4700.0000 7187.0000,4705.0000 7187.0000,4710.0000 C 7187.0000,4715.0000 7183.0000,4720.0000 7177.0000,4720.0000 L 7177.0000,4720.0000 C 7172.0000,4720.0000 7168.0000,4715.0000 7168.0000,4710.0000 C 7168.0000,4705.0000 7172.0000,4700.0000 7177.0000,4700.0000 Z M 7273.0000,4700.0000 L 7273.0000,4700.0000 C 7279.0000,4700.0000 7283.0000,4705.0000 7283.0000,4710.0000 C 7283.0000,4715.0000 7279.0000,4720.0000 7273.0000,4720.0000 L 7273.0000,4720.0000 C 7268.0000,4720.0000 7264.0000,4715.0000 7264.0000,4710.0000 C 7264.0000,4705.0000 7268.0000,4700.0000 7273.0000,4700.0000 Z M 7369.0000,4700.0000 L 7504.0000,4700.0000 C 7509.0000,4700.0000 7513.0000,4705.0000 7513.0000,4710.0000 C 7513.0000,4715.0000 7509.0000,4720.0000 7504.0000,4720.0000 L 7369.0000,4720.0000 C 7364.0000,4720.0000 7360.0000,4715.0000 7360.0000,4710.0000 C 7360.0000,4705.0000 7364.0000,4700.0000 7369.0000,4700.0000 Z M 7600.0000,4700.0000 L 7600.0000,4700.0000 C 7605.0000,4700.0000 7609.0000,4705.0000 7609.0000,4710.0000 C 7609.0000,4715.0000 7605.0000,4720.0000 7600.0000,4720.0000 L 7600.0000,4720.0000 C 7594.0000,4720.0000 7590.0000,4715.0000 7590.0000,4710.0000 C 7590.0000,4705.0000 7594.0000,4700.0000 7600.0000,4700.0000 Z M 7696.0000,4700.0000 L 7696.0000,4700.0000 C 7701.0000,4700.0000 7705.0000,4705.0000 7705.0000,4710.0000 C 7705.0000,4715.0000 7701.0000,4720.0000 7696.0000,4720.0000 L 7696.0000,4720.0000 C 7690.0000,4720.0000 7686.0000,4715.0000 7686.0000,4710.0000 C 7686.0000,4705.0000 7690.0000,4700.0000 7696.0000,4700.0000 Z M 7792.0000,4700.0000 L 7926.0000,4700.0000 C 7931.0000,4700.0000 7936.0000,4705.0000 7936.0000,4710.0000 C 7936.0000,4715.0000 7931.0000,4720.0000 7926.0000,4720.0000 L 7792.0000,4720.0000 C 7786.0000,4720.0000 7782.0000,4715.0000 7782.0000,4710.0000 C 7782.0000,4705.0000 7786.0000,4700.0000 7792.0000,4700.0000 Z M 8022.0000,4700.0000 L 8022.0000,4700.0000 C 8027.0000,4700.0000 8032.0000,4705.0000 8032.0000,4710.0000 C 8032.0000,4715.0000 8027.0000,4720.0000 8022.0000,4720.0000 L 8022.0000,4720.0000 C 8017.0000,4720.0000 8012.0000,4715.0000 8012.0000,4710.0000 C 8012.0000,4705.0000 8017.0000,4700.0000 8022.0000,4700.0000 Z M 8118.0000,4700.0000 L 8118.0000,4700.0000 C 8123.0000,4700.0000 8128.0000,4705.0000 8128.0000,4710.0000 C 8128.0000,4715.0000 8123.0000,4720.0000 8118.0000,4720.0000 L 8118.0000,4720.0000 C 8113.0000,4720.0000 8108.0000,4715.0000 8108.0000,4710.0000 C 8108.0000,4705.0000 8113.0000,4700.0000 8118.0000,4700.0000 Z M 8214.0000,4700.0000 L 8349.0000,4700.0000 C 8354.0000,4700.0000 8358.0000,4705.0000 8358.0000,4710.0000 C 8358.0000,4715.0000 8354.0000,4720.0000 8349.0000,4720.0000 L 8214.0000,4720.0000 C 8209.0000,4720.0000 8205.0000,4715.0000 8205.0000,4710.0000 C 8205.0000,4705.0000 8209.0000,4700.0000 8214.0000,4700.0000 Z M 8445.0000,4700.0000 L 8445.0000,4700.0000 C 8450.0000,4700.0000 8454.0000,4705.0000 8454.0000,4710.0000 C 8454.0000,4715.0000 8450.0000,4720.0000 8445.0000,4720.0000 L 8445.0000,4720.0000 C 8439.0000,4720.0000 8435.0000,4715.0000 8435.0000,4710.0000 C 8435.0000,4705.0000 8439.0000,4700.0000 8445.0000,4700.0000 Z M 8541.0000,4700.0000 L 8541.0000,4700.0000 C 8546.0000,4700.0000 8550.0000,4705.0000 8550.0000,4710.0000 C 8550.0000,4715.0000 8546.0000,4720.0000 8541.0000,4720.0000 L 8541.0000,4720.0000 C 8535.0000,4720.0000 8531.0000,4715.0000 8531.0000,4710.0000 C 8531.0000,4705.0000 8535.0000,4700.0000 8541.0000,4700.0000 Z M 8637.0000,4700.0000 L 8771.0000,4700.0000 C 8776.0000,4700.0000 8781.0000,4705.0000 8781.0000,4710.0000 C 8781.0000,4715.0000 8776.0000,4720.0000 8771.0000,4720.0000 L 8637.0000,4720.0000 C 8631.0000,4720.0000 8627.0000,4715.0000 8627.0000,4710.0000 C 8627.0000,4705.0000 8631.0000,4700.0000 8637.0000,4700.0000 Z M 8867.0000,4700.0000 L 8867.0000,4700.0000 C 8872.0000,4700.0000 8877.0000,4705.0000 8877.0000,4710.0000 C 8877.0000,4715.0000 8872.0000,4720.0000 8867.0000,4720.0000 L 8867.0000,4720.0000 C 8862.0000,4720.0000 8857.0000,4715.0000 8857.0000,4710.0000 C 8857.0000,4705.0000 8862.0000,4700.0000 8867.0000,4700.0000 Z M 8963.0000,4700.0000 L 8963.0000,4700.0000 C 8968.0000,4700.0000 8973.0000,4705.0000 8973.0000,4710.0000 C 8973.0000,4715.0000 8968.0000,4720.0000 8963.0000,4720.0000 L 8963.0000,4720.0000 C 8958.0000,4720.0000 8953.0000,4715.0000 8953.0000,4710.0000 C 8953.0000,4705.0000 8958.0000,4700.0000 8963.0000,4700.0000 Z M 9059.0000,4700.0000 L 9193.0000,4700.0000 C 9199.0000,4700.0000 9203.0000,4705.0000 9203.0000,4710.0000 C 9203.0000,4715.0000 9199.0000,4720.0000 9193.0000,4720.0000 L 9059.0000,4720.0000 C 9054.0000,4720.0000 9049.0000,4715.0000 9049.0000,4710.0000 C 9049.0000,4705.0000 9054.0000,4700.0000 9059.0000,4700.0000 Z M 9289.0000,4700.0000 L 9289.0000,4700.0000 C 9295.0000,4700.0000 9299.0000,4705.0000 9299.0000,4710.0000 C 9299.0000,4715.0000 9295.0000,4720.0000 9289.0000,4720.0000 L 9289.0000,4720.0000 C 9284.0000,4720.0000 9280.0000,4715.0000 9280.0000,4710.0000 C 9280.0000,4705.0000 9284.0000,4700.0000 9289.0000,4700.0000 Z M 9356.0000,4691.0000 L 9356.0000,4691.0000 C 9356.0000,4685.0000 9361.0000,4681.0000 9366.0000,4681.0000 C 9371.0000,4681.0000 9376.0000,4685.0000 9376.0000,4691.0000 L 9376.0000,4691.0000 C 9376.0000,4696.0000 9371.0000,4700.0000 9366.0000,4700.0000 C 9361.0000,4700.0000 9356.0000,4696.0000 9356.0000,4691.0000 Z M 9356.0000,4595.0000 L 9356.0000,4460.0000 C 9356.0000,4455.0000 9361.0000,4451.0000 9366.0000,4451.0000 C 9371.0000,4451.0000 9376.0000,4455.0000 9376.0000,4460.0000 L 9376.0000,4595.0000 C 9376.0000,4600.0000 9371.0000,4604.0000 9366.0000,4604.0000 C 9361.0000,4604.0000 9356.0000,4600.0000 9356.0000,4595.0000 Z M 9356.0000,4364.0000 L 9356.0000,4364.0000 C 9356.0000,4359.0000 9361.0000,4355.0000 9366.0000,4355.0000 C 9371.0000,4355.0000 9376.0000,4359.0000 9376.0000,4364.0000 L 9376.0000,4364.0000 C 9376.0000,4369.0000 9371.0000,4374.0000 9366.0000,4374.0000 C 9361.0000,4374.0000 9356.0000,4369.0000 9356.0000,4364.0000 Z M 9356.0000,4268.0000 L 9356.0000,4268.0000 C 9356.0000,4263.0000 9361.0000,4259.0000 9366.0000,4259.0000 C 9371.0000,4259.0000 9376.0000,4263.0000 9376.0000,4268.0000 L 9376.0000,4268.0000 C 9376.0000,4273.0000 9371.0000,4278.0000 9366.0000,4278.0000 C 9361.0000,4278.0000 9356.0000,4273.0000 9356.0000,4268.0000 Z M 9356.0000,4172.0000 L 9356.0000,4038.0000 C 9356.0000,4032.0000 9361.0000,4028.0000 9366.0000,4028.0000 C 9371.0000,4028.0000 9376.0000,4032.0000 9376.0000,4038.0000 L 9376.0000,4172.0000 C 9376.0000,4177.0000 9371.0000,4182.0000 9366.0000,4182.0000 C 9361.0000,4182.0000 9356.0000,4177.0000 9356.0000,4172.0000 Z M 9356.0000,3942.0000 L 9356.0000,3942.0000 C 9356.0000,3936.0000 9361.0000,3932.0000 9366.0000,3932.0000 C 9371.0000,3932.0000 9376.0000,3936.0000 9376.0000,3942.0000 L 9376.0000,3942.0000 C 9376.0000,3947.0000 9371.0000,3951.0000 9366.0000,3951.0000 C 9361.0000,3951.0000 9356.0000,3947.0000 9356.0000,3942.0000 Z M 9356.0000,3846.0000 L 9356.0000,3846.0000 C 9356.0000,3840.0000 9361.0000,3836.0000 9366.0000,3836.0000 C 9371.0000,3836.0000 9376.0000,3840.0000 9376.0000,3846.0000 L 9376.0000,3846.0000 C 9376.0000,3851.0000 9371.0000,3855.0000 9366.0000,3855.0000 C 9361.0000,3855.0000 9356.0000,3851.0000 9356.0000,3846.0000 Z M 9356.0000,3750.0000 L 9356.0000,3615.0000 C 9356.0000,3610.0000 9361.0000,3606.0000 9366.0000,3606.0000 C 9371.0000,3606.0000 9376.0000,3610.0000 9376.0000,3615.0000 L 9376.0000,3750.0000 C 9376.0000,3755.0000 9371.0000,3759.0000 9366.0000,3759.0000 C 9361.0000,3759.0000 9356.0000,3755.0000 9356.0000,3750.0000 Z M 9356.0000,3519.0000 L 9356.0000,3519.0000 C 9356.0000,3514.0000 9361.0000,3510.0000 9366.0000,3510.0000 C 9371.0000,3510.0000 9376.0000,3514.0000 9376.0000,3519.0000 L 9376.0000,3519.0000 C 9376.0000,3525.0000 9371.0000,3529.0000 9366.0000,3529.0000 C 9361.0000,3529.0000 9356.0000,3525.0000 9356.0000,3519.0000 Z M 9356.0000,3423.0000 L 9356.0000,3423.0000 C 9356.0000,3418.0000 9361.0000,3414.0000 9366.0000,3414.0000 C 9371.0000,3414.0000 9376.0000,3418.0000 9376.0000,3423.0000 L 9376.0000,3423.0000 C 9376.0000,3429.0000 9371.0000,3433.0000 9366.0000,3433.0000 C 9361.0000,3433.0000 9356.0000,3429.0000 9356.0000,3423.0000 Z M 9356.0000,3327.0000 L 9356.0000,3193.0000 C 9356.0000,3188.0000 9361.0000,3183.0000 9366.0000,3183.0000 C 9371.0000,3183.0000 9376.0000,3188.0000 9376.0000,3193.0000 L 9376.0000,3327.0000 C 9376.0000,3333.0000 9371.0000,3337.0000 9366.0000,3337.0000 C 9361.0000,3337.0000 9356.0000,3333.0000 9356.0000,3327.0000 Z M 9356.0000,3097.0000 L 9356.0000,3097.0000 C 9356.0000,3092.0000 9361.0000,3087.0000 9366.0000,3087.0000 C 9371.0000,3087.0000 9376.0000,3092.0000 9376.0000,3097.0000 L 9376.0000,3097.0000 C 9376.0000,3102.0000 9371.0000,3106.0000 9366.0000,3106.0000 C 9361.0000,3106.0000 9356.0000,3102.0000 9356.0000,3097.0000 Z M 9356.0000,3001.0000 L 9356.0000,3001.0000 C 9356.0000,2995.0000 9361.0000,2991.0000 9366.0000,2991.0000 C 9371.0000,2991.0000 9376.0000,2995.0000 9376.0000,3001.0000 L 9376.0000,3001.0000 C 9376.0000,3006.0000 9371.0000,3010.0000 9366.0000,3010.0000 C 9361.0000,3010.0000 9356.0000,3006.0000 9356.0000,3001.0000 Z M 9356.0000,2905.0000 L 9356.0000,2770.0000 C 9356.0000,2765.0000 9361.0000,2761.0000 9366.0000,2761.0000 C 9371.0000,2761.0000 9376.0000,2765.0000 9376.0000,2770.0000 L 9376.0000,2905.0000 C 9376.0000,2910.0000 9371.0000,2914.0000 9366.0000,2914.0000 C 9361.0000,2914.0000 9356.0000,2910.0000 9356.0000,2905.0000 Z M 9356.0000,2674.0000 L 9356.0000,2674.0000 C 9356.0000,2669.0000 9361.0000,2665.0000 9366.0000,2665.0000 C 9371.0000,2665.0000 9376.0000,2669.0000 9376.0000,2674.0000 L 9376.0000,2674.0000 C 9376.0000,2680.0000 9371.0000,2684.0000 9366.0000,2684.0000 C 9361.0000,2684.0000 9356.0000,2680.0000 9356.0000,2674.0000 Z M 9356.0000,2578.0000 L 9356.0000,2578.0000 C 9356.0000,2573.0000 9361.0000,2569.0000 9366.0000,2569.0000 C 9371.0000,2569.0000 9376.0000,2573.0000 9376.0000,2578.0000 L 9376.0000,2578.0000 C 9376.0000,2584.0000 9371.0000,2588.0000 9366.0000,2588.0000 C 9361.0000,2588.0000 9356.0000,2584.0000 9356.0000,2578.0000 Z M 9356.0000,2482.0000 L 9356.0000,2348.0000 C 9356.0000,2343.0000 9361.0000,2338.0000 9366.0000,2338.0000 C 9371.0000,2338.0000 9376.0000,2343.0000 9376.0000,2348.0000 L 9376.0000,2482.0000 C 9376.0000,2488.0000 9371.0000,2492.0000 9366.0000,2492.0000 C 9361.0000,2492.0000 9356.0000,2488.0000 9356.0000,2482.0000 Z M 9356.0000,2252.0000 L 9356.0000,2252.0000 C 9356.0000,2247.0000 9361.0000,2242.0000 9366.0000,2242.0000 C 9371.0000,2242.0000 9376.0000,2247.0000 9376.0000,2252.0000 L 9376.0000,2252.0000 C 9376.0000,2257.0000 9371.0000,2262.0000 9366.0000,2262.0000 C 9361.0000,2262.0000 9356.0000,2257.0000 9356.0000,2252.0000 Z M 9356.0000,2156.0000 L 9356.0000,2156.0000 C 9356.0000,2151.0000 9361.0000,2146.0000 9366.0000,2146.0000 C 9371.0000,2146.0000 9376.0000,2151.0000 9376.0000,2156.0000 L 9376.0000,2156.0000 C 9376.0000,2161.0000 9371.0000,2166.0000 9366.0000,2166.0000 C 9361.0000,2166.0000 9356.0000,2161.0000 9356.0000,2156.0000 Z M 9356.0000,2060.0000 L 9356.0000,1926.0000 C 9356.0000,1920.0000 9361.0000,1916.0000 9366.0000,1916.0000 C 9371.0000,1916.0000 9376.0000,1920.0000 9376.0000,1926.0000 L 9376.0000,2060.0000 C 9376.0000,2065.0000 9371.0000,2070.0000 9366.0000,2070.0000 C 9361.0000,2070.0000 9356.0000,2065.0000 9356.0000,2060.0000 Z M 9356.0000,1830.0000 L 9356.0000,1829.0000 C 9356.0000,1824.0000 9361.0000,1820.0000 9366.0000,1820.0000 C 9371.0000,1820.0000 9376.0000,1824.0000 9376.0000,1829.0000 L 9376.0000,1830.0000 C 9376.0000,1835.0000 9371.0000,1839.0000 9366.0000,1839.0000 C 9361.0000,1839.0000 9356.0000,1835.0000 9356.0000,1830.0000 Z M 9356.0000,1733.0000 L 9356.0000,1733.0000 C 9356.0000,1728.0000 9361.0000,1724.0000 9366.0000,1724.0000 C 9371.0000,1724.0000 9376.0000,1728.0000 9376.0000,1733.0000 L 9376.0000,1733.0000 C 9376.0000,1739.0000 9371.0000,1743.0000 9366.0000,1743.0000 C 9361.0000,1743.0000 9356.0000,1739.0000 9356.0000,1733.0000 Z M 9356.0000,1637.0000 L 9356.0000,1503.0000 C 9356.0000,1498.0000 9361.0000,1493.0000 9366.0000,1493.0000 C 9371.0000,1493.0000 9376.0000,1498.0000 9376.0000,1503.0000 L 9376.0000,1637.0000 C 9376.0000,1643.0000 9371.0000,1647.0000 9366.0000,1647.0000 C 9361.0000,1647.0000 9356.0000,1643.0000 9356.0000,1637.0000 Z M 9356.0000,1407.0000 L 9356.0000,1407.0000 C 9356.0000,1402.0000 9361.0000,1397.0000 9366.0000,1397.0000 C 9371.0000,1397.0000 9376.0000,1402.0000 9376.0000,1407.0000 L 9376.0000,1407.0000 C 9376.0000,1412.0000 9371.0000,1417.0000 9366.0000,1417.0000 C 9361.0000,1417.0000 9356.0000,1412.0000 9356.0000,1407.0000 Z M 9356.0000,1311.0000 L 9356.0000,1311.0000 C 9356.0000,1306.0000 9361.0000,1301.0000 9366.0000,1301.0000 C 9371.0000,1301.0000 9376.0000,1306.0000 9376.0000,1311.0000 L 9376.0000,1311.0000 C 9376.0000,1316.0000 9371.0000,1321.0000 9366.0000,1321.0000 C 9361.0000,1321.0000 9356.0000,1316.0000 9356.0000,1311.0000 Z M 9356.0000,1215.0000 L 9356.0000,1081.0000 C 9356.0000,1075.0000 9361.0000,1071.0000 9366.0000,1071.0000 C 9371.0000,1071.0000 9376.0000,1075.0000 9376.0000,1081.0000 L 9376.0000,1215.0000 C 9376.0000,1220.0000 9371.0000,1225.0000 9366.0000,1225.0000 C 9361.0000,1225.0000 9356.0000,1220.0000 9356.0000,1215.0000 Z M 9356.0000,985.0000 L 9356.0000,985.0000 C 9356.0000,979.0000 9361.0000,975.0000 9366.0000,975.0000 C 9371.0000,975.0000 9376.0000,979.0000 9376.0000,985.0000 L 9376.0000,985.0000 C 9376.0000,990.0000 9371.0000,994.0000 9366.0000,994.0000 C 9361.0000,994.0000 9356.0000,990.0000 9356.0000,985.0000 Z M 9356.0000,889.0000 L 9356.0000,889.0000 C 9356.0000,883.0000 9361.0000,879.0000 9366.0000,879.0000 C 9371.0000,879.0000 9376.0000,883.0000 9376.0000,889.0000 L 9376.0000,889.0000 C 9376.0000,894.0000 9371.0000,898.0000 9366.0000,898.0000 C 9361.0000,898.0000 9356.0000,894.0000 9356.0000,889.0000 Z M 9356.0000,793.0000 L 9356.0000,658.0000 C 9356.0000,653.0000 9361.0000,649.0000 9366.0000,649.0000 C 9371.0000,649.0000 9376.0000,653.0000 9376.0000,658.0000 L 9376.0000,793.0000 C 9376.0000,798.0000 9371.0000,802.0000 9366.0000,802.0000 C 9361.0000,802.0000 9356.0000,798.0000 9356.0000,793.0000 Z M 9356.0000,562.0000 L 9356.0000,562.0000 C 9356.0000,557.0000 9361.0000,553.0000 9366.0000,553.0000 C 9371.0000,553.0000 9376.0000,557.0000 9376.0000,562.0000 L 9376.0000,562.0000 C 9376.0000,567.0000 9371.0000,572.0000 9366.0000,572.0000 C 9361.0000,572.0000 9356.0000,567.0000 9356.0000,562.0000 Z M 9356.0000,466.0000 L 9356.0000,466.0000 C 9356.0000,461.0000 9361.0000,457.0000 9366.0000,457.0000 C 9371.0000,457.0000 9376.0000,461.0000 9376.0000,466.0000 L 9376.0000,466.0000 C 9376.0000,471.0000 9371.0000,476.0000 9366.0000,476.0000 C 9361.0000,476.0000 9356.0000,471.0000 9356.0000,466.0000 Z M 9356.0000,370.0000 L 9356.0000,236.0000 C 9356.0000,230.0000 9361.0000,226.0000 9366.0000,226.0000 C 9371.0000,226.0000 9376.0000,230.0000 9376.0000,236.0000 L 9376.0000,370.0000 C 9376.0000,375.0000 9371.0000,380.0000 9366.0000,380.0000 C 9361.0000,380.0000 9356.0000,375.0000 9356.0000,370.0000 Z M 9362.0000,153.0000 L 9362.0000,153.0000 C 9356.0000,153.0000 9352.0000,149.0000 9352.0000,144.0000 C 9352.0000,139.0000 9356.0000,134.0000 9362.0000,134.0000 L 9362.0000,134.0000 C 9367.0000,134.0000 9371.0000,139.0000 9371.0000,144.0000 C 9371.0000,149.0000 9367.0000,153.0000 9362.0000,153.0000 Z M 9266.0000,153.0000 L 9266.0000,153.0000 C 9260.0000,153.0000 9256.0000,149.0000 9256.0000,144.0000 C 9256.0000,139.0000 9260.0000,134.0000 9266.0000,134.0000 L 9266.0000,134.0000 C 9271.0000,134.0000 9275.0000,139.0000 9275.0000,144.0000 C 9275.0000,149.0000 9271.0000,153.0000 9266.0000,153.0000 Z M 9170.0000,153.0000 L 9035.0000,153.0000 C 9030.0000,153.0000 9026.0000,149.0000 9026.0000,144.0000 C 9026.0000,139.0000 9030.0000,134.0000 9035.0000,134.0000 L 9170.0000,134.0000 C 9175.0000,134.0000 9179.0000,139.0000 9179.0000,144.0000 C 9179.0000,149.0000 9175.0000,153.0000 9170.0000,153.0000 Z M 8939.0000,153.0000 L 8939.0000,153.0000 C 8934.0000,153.0000 8930.0000,149.0000 8930.0000,144.0000 C 8930.0000,139.0000 8934.0000,134.0000 8939.0000,134.0000 L 8939.0000,134.0000 C 8945.0000,134.0000 8949.0000,139.0000 8949.0000,144.0000 C 8949.0000,149.0000 8945.0000,153.0000 8939.0000,153.0000 Z M 8843.0000,153.0000 L 8843.0000,153.0000 C 8838.0000,153.0000 8834.0000,149.0000 8834.0000,144.0000 C 8834.0000,139.0000 8838.0000,134.0000 8843.0000,134.0000 L 8843.0000,134.0000 C 8849.0000,134.0000 8853.0000,139.0000 8853.0000,144.0000 C 8853.0000,149.0000 8849.0000,153.0000 8843.0000,153.0000 Z M 8747.0000,153.0000 L 8613.0000,153.0000 C 8608.0000,153.0000 8603.0000,149.0000 8603.0000,144.0000 C 8603.0000,139.0000 8608.0000,134.0000 8613.0000,134.0000 L 8747.0000,134.0000 C 8753.0000,134.0000 8757.0000,139.0000 8757.0000,144.0000 C 8757.0000,149.0000 8753.0000,153.0000 8747.0000,153.0000 Z M 8517.0000,153.0000 L 8517.0000,153.0000 C 8512.0000,153.0000 8507.0000,149.0000 8507.0000,144.0000 C 8507.0000,139.0000 8512.0000,134.0000 8517.0000,134.0000 L 8517.0000,134.0000 C 8522.0000,134.0000 8527.0000,139.0000 8527.0000,144.0000 C 8527.0000,149.0000 8522.0000,153.0000 8517.0000,153.0000 Z M 8421.0000,153.0000 L 8421.0000,153.0000 C 8416.0000,153.0000 8411.0000,149.0000 8411.0000,144.0000 C 8411.0000,139.0000 8416.0000,134.0000 8421.0000,134.0000 L 8421.0000,134.0000 C 8426.0000,134.0000 8431.0000,139.0000 8431.0000,144.0000 C 8431.0000,149.0000 8426.0000,153.0000 8421.0000,153.0000 Z M 8325.0000,153.0000 L 8190.0000,153.0000 C 8185.0000,153.0000 8181.0000,149.0000 8181.0000,144.0000 C 8181.0000,139.0000 8185.0000,134.0000 8190.0000,134.0000 L 8325.0000,134.0000 C 8330.0000,134.0000 8334.0000,139.0000 8334.0000,144.0000 C 8334.0000,149.0000 8330.0000,153.0000 8325.0000,153.0000 Z M 8094.0000,153.0000 L 8094.0000,153.0000 C 8089.0000,153.0000 8085.0000,149.0000 8085.0000,144.0000 C 8085.0000,139.0000 8089.0000,134.0000 8094.0000,134.0000 L 8094.0000,134.0000 C 8100.0000,134.0000 8104.0000,139.0000 8104.0000,144.0000 C 8104.0000,149.0000 8100.0000,153.0000 8094.0000,153.0000 Z M 7998.0000,153.0000 L 7998.0000,153.0000 C 7993.0000,153.0000 7989.0000,149.0000 7989.0000,144.0000 C 7989.0000,139.0000 7993.0000,134.0000 7998.0000,134.0000 L 7998.0000,134.0000 C 8004.0000,134.0000 8008.0000,139.0000 8008.0000,144.0000 C 8008.0000,149.0000 8004.0000,153.0000 7998.0000,153.0000 Z M 7902.0000,153.0000 L 7768.0000,153.0000 C 7763.0000,153.0000 7758.0000,149.0000 7758.0000,144.0000 C 7758.0000,139.0000 7763.0000,134.0000 7768.0000,134.0000 L 7902.0000,134.0000 C 7908.0000,134.0000 7912.0000,139.0000 7912.0000,144.0000 C 7912.0000,149.0000 7908.0000,153.0000 7902.0000,153.0000 Z M 7672.0000,153.0000 L 7672.0000,153.0000 C 7667.0000,153.0000 7662.0000,149.0000 7662.0000,144.0000 C 7662.0000,139.0000 7667.0000,134.0000 7672.0000,134.0000 L 7672.0000,134.0000 C 7677.0000,134.0000 7682.0000,139.0000 7682.0000,144.0000 C 7682.0000,149.0000 7677.0000,153.0000 7672.0000,153.0000 Z M 7576.0000,153.0000 L 7576.0000,153.0000 C 7571.0000,153.0000 7566.0000,149.0000 7566.0000,144.0000 C 7566.0000,139.0000 7571.0000,134.0000 7576.0000,134.0000 L 7576.0000,134.0000 C 7581.0000,134.0000 7586.0000,139.0000 7586.0000,144.0000 C 7586.0000,149.0000 7581.0000,153.0000 7576.0000,153.0000 Z M 7480.0000,153.0000 L 7346.0000,153.0000 C 7340.0000,153.0000 7336.0000,149.0000 7336.0000,144.0000 C 7336.0000,139.0000 7340.0000,134.0000 7346.0000,134.0000 L 7480.0000,134.0000 C 7485.0000,134.0000 7490.0000,139.0000 7490.0000,144.0000 C 7490.0000,149.0000 7485.0000,153.0000 7480.0000,153.0000 Z M 7250.0000,153.0000 L 7250.0000,153.0000 C 7244.0000,153.0000 7240.0000,149.0000 7240.0000,144.0000 C 7240.0000,139.0000 7244.0000,134.0000 7250.0000,134.0000 L 7250.0000,134.0000 C 7255.0000,134.0000 7259.0000,139.0000 7259.0000,144.0000 C 7259.0000,149.0000 7255.0000,153.0000 7250.0000,153.0000 Z M 7154.0000,153.0000 L 7154.0000,153.0000 C 7148.0000,153.0000 7144.0000,149.0000 7144.0000,144.0000 C 7144.0000,139.0000 7148.0000,134.0000 7154.0000,134.0000 L 7154.0000,134.0000 C 7159.0000,134.0000 7163.0000,139.0000 7163.0000,144.0000 C 7163.0000,149.0000 7159.0000,153.0000 7154.0000,153.0000 Z M 7058.0000,153.0000 L 6923.0000,153.0000 C 6918.0000,153.0000 6914.0000,149.0000 6914.0000,144.0000 C 6914.0000,139.0000 6918.0000,134.0000 6923.0000,134.0000 L 7058.0000,134.0000 C 7063.0000,134.0000 7067.0000,139.0000 7067.0000,144.0000 C 7067.0000,149.0000 7063.0000,153.0000 7058.0000,153.0000 Z M 6827.0000,153.0000 L 6827.0000,153.0000 C 6822.0000,153.0000 6818.0000,149.0000 6818.0000,144.0000 C 6818.0000,139.0000 6822.0000,134.0000 6827.0000,134.0000 L 6827.0000,134.0000 C 6832.0000,134.0000 6837.0000,139.0000 6837.0000,144.0000 C 6837.0000,149.0000 6832.0000,153.0000 6827.0000,153.0000 Z M 6731.0000,153.0000 L 6731.0000,153.0000 C 6726.0000,153.0000 6722.0000,149.0000 6722.0000,144.0000 C 6722.0000,139.0000 6726.0000,134.0000 6731.0000,134.0000 L 6731.0000,134.0000 C 6736.0000,134.0000 6741.0000,139.0000 6741.0000,144.0000 C 6741.0000,149.0000 6736.0000,153.0000 6731.0000,153.0000 Z M 6635.0000,153.0000 L 6501.0000,153.0000 C 6495.0000,153.0000 6491.0000,149.0000 6491.0000,144.0000 C 6491.0000,139.0000 6495.0000,134.0000 6501.0000,134.0000 L 6635.0000,134.0000 C 6640.0000,134.0000 6645.0000,139.0000 6645.0000,144.0000 C 6645.0000,149.0000 6640.0000,153.0000 6635.0000,153.0000 Z M 6405.0000,153.0000 L 6405.0000,153.0000 C 6399.0000,153.0000 6395.0000,149.0000 6395.0000,144.0000 C 6395.0000,139.0000 6399.0000,134.0000 6405.0000,134.0000 L 6405.0000,134.0000 C 6410.0000,134.0000 6414.0000,139.0000 6414.0000,144.0000 C 6414.0000,149.0000 6410.0000,153.0000 6405.0000,153.0000 Z M 6309.0000,153.0000 L 6309.0000,153.0000 C 6303.0000,153.0000 6299.0000,149.0000 6299.0000,144.0000 C 6299.0000,139.0000 6303.0000,134.0000 6309.0000,134.0000 L 6309.0000,134.0000 C 6314.0000,134.0000 6318.0000,139.0000 6318.0000,144.0000 C 6318.0000,149.0000 6314.0000,153.0000 6309.0000,153.0000 Z M 6213.0000,153.0000 L 6078.0000,153.0000 C 6073.0000,153.0000 6069.0000,149.0000 6069.0000,144.0000 C 6069.0000,139.0000 6073.0000,134.0000 6078.0000,134.0000 L 6213.0000,134.0000 C 6218.0000,134.0000 6222.0000,139.0000 6222.0000,144.0000 C 6222.0000,149.0000 6218.0000,153.0000 6213.0000,153.0000 Z "  fill="#FF0000" stroke="#FF0000" stroke-width="16.0000"  stroke-linecap="butt"  stroke-linejoin="bevel" />
</g>
<g transform="matrix(1.0000 0.0000 0.0000 1.0000 0.0000 0.0000)">
<text font-family="Times New Roman" fill="#000000" style ="white-space:pre;" font-weight="400" text-anchor="start" x="407.0000" y="24.0000" font-size="10.0000" ><![CDATA[Configurable number of random ]]></text>
<text font-family="Times New Roman" fill="#000000" style ="white-space:pre;" font-weight="400" text-anchor="start" x="539.0000" y="24.0000" font-size="10.0000" ><![CDATA[clusters]]></text>
</g>
<g transform="matrix(0.0625 0.0000 0.0000 0.0625 0.0000 0.0000)">
<path d="M 5473.0000,1240.0000 L 6100.0000,1240.0000 " stroke="#000000" stroke-width="6.0000"  stroke-linecap="round"  stroke-linejoin="round" fill="none" />
</g>
<g transform="matrix(1.0000 0.0000 0.0000 1.0000 0.0000 0.0000)">
</g>
<g transform="matrix(0.0625 0.0000 0.0000 0.0625 0.0000 0.0000)">
<path d="M 6082.0000,1166.0000 L 6229.0000,1240.0000 L 6082.0000,1314.0000 L 6082.0000,1166.0000 Z" stroke-width="1px" stroke="#000000"  fill="#000000" />
</g>
<g transform="matrix(1.0000 0.0000 0.0000 1.0000 0.0000 0.0000)">
</g>
<g transform="matrix(0.0625 0.0000 0.0000 0.0625 0.0000 0.0000)">
<path d="M 4282.0000,2298.0000 L 5473.0000,2298.0000 " stroke="#000000" stroke-width="6.0000"  stroke-linecap="round"  stroke-linejoin="round" fill="none" />
</g>
<g transform="matrix(1.0000 0.0000 0.0000 1.0000 0.0000 0.0000)">
<text font-family="Times New Roman" fill="#000000" style ="white-space:pre;" font-weight="400" text-anchor="start" x="277.0000" y="155.0000" font-size="10.0000" ><![CDATA[Deterministic]]></text>
<text font-family="Times New Roman" fill="#000000" style ="white-space:pre;" font-weight="400" text-anchor="start" x="289.0000" y="167.0000" font-size="10.0000" ><![CDATA[clusters]]></text>
<text font-family="Times New Roman" fill="#000000" style ="white-space:pre;" font-weight="400" text-anchor="start" x="283.0000" y="137.0000" font-size="10.0000" ><![CDATA[LoS]]></text>
<text font-family="Times New Roman" fill="#000000" style ="white-space:pre;" font-weight="400" text-anchor="start" x="299.0000" y="137.0000" font-size="10.0000" ><![CDATA[/]]></text>
<text font-family="Times New Roman" fill="#000000" style ="white-space:pre;" font-weight="400" text-anchor="start" x="302.0000" y="137.0000" font-size="10.0000" ><![CDATA[NLoS]]></text>
</g>
<g transform="matrix(0.0625 0.0000 0.0000 0.0625 0.0000 0.0000)">
<path d="M 1391.0000,1514.0000 L 1391.0000,2223.0000 L 2755.0000,2223.0000 " stroke="#000000" stroke-width="6.0000"  stroke-linecap="round"  stroke-linejoin="round" fill="none" />
</g>
<g transform="matrix(1.0000 0.0000 0.0000 1.0000 0.0000 0.0000)">
</g>
<g transform="matrix(0.0625 0.0000 0.0000 0.0625 0.0000 0.0000)">
<path d="M 2737.0000,2149.0000 L 2884.0000,2223.0000 L 2737.0000,2296.0000 L 2737.0000,2149.0000 Z" stroke-width="1px" stroke="#000000"  fill="#000000" />
</g>
<g transform="matrix(1.0000 0.0000 0.0000 1.0000 0.0000 0.0000)">
</g>
<g transform="matrix(0.0625 0.0000 0.0000 0.0625 0.0000 0.0000)">
<path d="M 2310.0000,1013.0000 L 2710.0000,1013.0000 " stroke="#000000" stroke-width="6.0000"  stroke-linecap="round"  stroke-linejoin="round" fill="none" />
</g>
<g transform="matrix(1.0000 0.0000 0.0000 1.0000 0.0000 0.0000)">
</g>
<g transform="matrix(0.0625 0.0000 0.0000 0.0625 0.0000 0.0000)">
<path d="M 2692.0000,940.0000 L 2839.0000,1013.0000 L 2692.0000,1087.0000 L 2692.0000,940.0000 Z" stroke-width="1px" stroke="#000000"  fill="#000000" />
</g>
<g transform="matrix(1.0000 0.0000 0.0000 1.0000 0.0000 0.0000)">
</g>
<g transform="matrix(0.0625 0.0000 0.0000 0.0625 0.0000 0.0000)">
<path d="M 4868.0000,4488.0000 L 5775.0000,4488.0000 L 5775.0000,3496.0000 L 4868.0000,3496.0000 L 4868.0000,4488.0000 Z" stroke="#000000" stroke-width="4.0000"  stroke-linecap="round"  stroke-linejoin="round" fill="none" />
</g>
<g transform="matrix(1.0000 0.0000 0.0000 1.0000 0.0000 0.0000)">
<text font-family="Times New Roman" fill="#000000" style ="white-space:pre;" font-weight="400" text-anchor="start" x="315.0000" y="245.0000" font-size="13.0000" ><![CDATA[Merge ]]></text>
<text font-family="Times New Roman" fill="#000000" style ="white-space:pre;" font-weight="400" text-anchor="start" x="312.0000" y="261.0000" font-size="13.0000" ><![CDATA[clusters]]></text>
</g>
<g transform="matrix(0.0625 0.0000 0.0000 0.0625 0.0000 0.0000)">
<path d="M 6531.0000,3991.0000 L 5904.0000,3991.0000 " stroke="#000000" stroke-width="6.0000"  stroke-linecap="round"  stroke-linejoin="round" fill="none" />
</g>
<g transform="matrix(1.0000 0.0000 0.0000 1.0000 0.0000 0.0000)">
</g>
<g transform="matrix(0.0625 0.0000 0.0000 0.0625 0.0000 0.0000)">
<path d="M 5923.0000,4065.0000 L 5775.0000,3991.0000 L 5923.0000,3918.0000 L 5923.0000,4065.0000 Z" stroke-width="1px" stroke="#000000"  fill="#000000" />
</g>
<g transform="matrix(1.0000 0.0000 0.0000 1.0000 0.0000 0.0000)">
</g>
<g transform="matrix(0.0625 0.0000 0.0000 0.0625 0.0000 0.0000)">
<path d="M 4868.0000,3991.0000 L 4657.0000,3991.0000 " stroke="#000000" stroke-width="6.0000"  stroke-linecap="round"  stroke-linejoin="round" fill="none" />
</g>
<g transform="matrix(1.0000 0.0000 0.0000 1.0000 0.0000 0.0000)">
</g>
<g transform="matrix(0.0625 0.0000 0.0000 0.0625 0.0000 0.0000)">
<path d="M 4675.0000,4065.0000 L 4528.0000,3991.0000 L 4675.0000,3918.0000 L 4675.0000,4065.0000 Z" stroke-width="1px" stroke="#000000"  fill="#000000" />
</g>
<g transform="matrix(1.0000 0.0000 0.0000 1.0000 0.0000 0.0000)">
</g>
</g>
</svg>
